<?xml version="1.0" standalone="no"?>
<!DOCTYPE svg PUBLIC "-//W3C//DTD SVG 20010904//EN"
 "http://www.w3.org/TR/2001/REC-SVG-20010904/DTD/svg10.dtd">
<svg version="1.0" xmlns="http://www.w3.org/2000/svg"
 width="1408.000000pt" height="768.000000pt" viewBox="0 0 1408.000000 768.000000"
 preserveAspectRatio="xMidYMid meet">
<metadata>
Created by potrace 1.16, written by Peter Selinger 2001-2019
</metadata>
<g transform="translate(0.000000,768.000000) scale(0.100000,-0.100000)"
fill="#000000" stroke="none">
<path d="M5370 7073 c-30 -2 -79 -5 -107 -9 -51 -5 -53 -7 -53 -35 l0 -29 235
0 235 0 0 29 c0 27 -3 30 -42 35 -61 7 -204 12 -268 9z"/>
<path d="M4180 7020 c0 -51 8 -61 29 -36 6 8 23 16 37 19 24 4 25 3 22 -37 -3
-39 -1 -41 26 -44 15 -2 40 -1 53 3 22 5 24 10 19 40 -6 32 -5 35 17 35 14 0
30 -7 37 -15 22 -26 30 -16 30 35 0 28 -2 50 -4 50 -3 0 -22 -10 -42 -22 -26
-15 -39 -18 -42 -10 -5 15 -74 16 -89 1 -9 -9 -21 -6 -48 10 -20 11 -38 21
-41 21 -2 0 -4 -22 -4 -50z"/>
<path d="M5928 7063 c-23 -4 -28 -9 -28 -34 l0 -29 235 0 235 0 0 29 c0 25 -4
29 -37 35 -41 6 -360 6 -405 -1z"/>
<path d="M9380 7000 c0 -64 8 -72 44 -45 25 19 116 20 116 3 0 -7 -7 -21 -14
-30 -12 -16 -37 -18 -270 -18 -280 0 -291 -2 -338 -58 -13 -16 -44 -63 -68
-106 -28 -49 -51 -78 -64 -81 -100 -19 -238 -35 -300 -35 -41 0 -77 -4 -81 -9
-12 -20 -18 -173 -7 -179 7 -5 1 -71 -18 -212 -15 -113 -31 -238 -35 -277 l-7
-73 216 0 c137 0 216 -4 216 -10 0 -6 -88 -10 -245 -10 l-245 0 0 -49 c0 -43
3 -50 24 -55 21 -5 66 -60 66 -80 0 -14 -78 -6 -84 9 -4 11 -22 15 -71 15
l-65 0 0 -70 0 -70 65 0 c49 0 67 4 71 15 7 16 41 20 62 7 9 -7 0 -34 -38
-113 -27 -57 -50 -107 -50 -111 0 -5 56 -8 125 -8 l125 0 26 40 c25 38 29 40
79 40 l52 0 10 78 c6 43 18 96 28 116 26 54 81 104 124 113 20 4 146 7 280 8
187 0 245 -3 248 -12 4 -10 -36 -13 -179 -13 l-183 0 -75 -37 c-41 -20 -82
-40 -90 -43 -20 -9 -26 -70 -8 -70 31 0 51 -29 68 -96 l18 -69 101 -3 100 -3
6 28 c26 125 40 138 144 138 l76 0 5 -80 5 -80 100 0 100 0 3 40 c5 59 22 69
22 13 0 -70 -13 -78 -129 -78 -68 0 -102 4 -109 13 -6 7 -12 44 -14 82 -3 59
-6 70 -22 73 -33 7 -39 -12 -21 -79 28 -110 26 -109 169 -109 87 0 126 4 133
13 14 16 41 104 45 142 3 26 -1 30 -27 36 -49 10 -4 22 60 17 79 -7 96 -26
120 -141 l6 -28 100 3 101 3 18 69 c17 67 37 96 68 96 18 0 12 61 -8 70 -8 3
-47 23 -87 43 l-72 37 -156 0 c-136 0 -155 2 -155 16 0 15 24 16 249 11 281
-6 276 -5 356 -86 l49 -51 758 0 758 0 66 60 c36 33 78 63 93 68 14 4 158 7
320 7 227 0 295 -3 298 -12 4 -10 -43 -13 -211 -13 l-215 0 -64 -35 c-35 -19
-71 -35 -80 -35 -18 0 -37 -29 -37 -57 0 -10 14 -24 33 -33 32 -15 38 -29 61
-132 l6 -28 101 0 c71 0 101 4 103 13 2 6 9 35 15 62 18 76 37 89 131 93 l79
4 3 -83 3 -84 103 -3 102 -3 0 35 c0 19 5 38 10 41 14 9 13 -68 -2 -83 -14
-14 -196 -16 -218 -2 -10 6 -16 32 -18 84 -4 67 -6 76 -23 76 -11 0 -22 -7
-25 -15 -8 -20 25 -151 41 -165 8 -7 60 -10 141 -8 l129 3 19 68 c19 65 36 88
36 47 0 -12 7 -34 15 -50 14 -27 14 -29 -5 -35 -11 -4 -20 -13 -20 -21 0 -10
13 -14 50 -14 38 0 64 -8 103 -30 l52 -30 -385 0 -385 0 45 27 c31 18 63 28
102 31 41 3 58 9 58 18 0 8 -9 14 -21 14 -17 0 -19 4 -13 23 13 40 24 92 24
116 0 22 -3 23 -37 18 -45 -8 -68 -33 -78 -84 -14 -77 -23 -83 -133 -83 -53 0
-102 4 -108 8 -6 4 -17 32 -24 62 -16 72 -34 100 -65 100 -27 0 -29 6 -16 63
7 28 6 37 -4 37 -46 0 -61 -129 -25 -209 24 -52 24 -51 5 -51 -8 0 -15 -6 -15
-14 0 -9 18 -15 55 -19 32 -3 72 -16 97 -31 l43 -26 -1070 0 -1070 0 40 25
c27 16 55 24 86 25 25 0 54 7 65 15 19 14 19 15 -3 21 l-22 6 20 41 c13 25 21
61 22 96 1 67 -8 98 -33 111 -16 9 -18 5 -16 -43 1 -47 -1 -52 -20 -49 -29 4
-39 -12 -59 -88 -9 -36 -22 -68 -28 -72 -15 -10 -199 -10 -213 0 -7 4 -17 33
-24 65 -17 74 -27 86 -73 94 l-37 6 0 -42 c0 -23 7 -58 15 -78 19 -44 19 -43
-5 -43 -11 0 -20 -7 -20 -15 0 -11 13 -15 53 -15 41 0 61 -7 96 -30 l44 -30
-384 0 -383 0 39 22 c22 11 67 24 100 27 44 4 61 10 63 22 2 10 -5 19 -17 22
-20 5 -20 7 -6 41 8 19 15 54 15 76 0 35 -3 40 -24 40 -40 0 -73 -35 -85 -92
-7 -28 -16 -58 -23 -65 -12 -15 -194 -19 -216 -4 -7 4 -20 36 -28 71 -17 73
-30 93 -55 87 -23 -6 -32 21 -23 68 8 42 -8 47 -32 9 -24 -36 -23 -127 3 -186
l21 -46 -21 -6 c-17 -4 -18 -7 -7 -21 10 -12 27 -16 60 -14 33 2 57 -3 81 -18
19 -11 41 -23 49 -26 8 -3 -439 -6 -995 -6 -854 0 -1005 2 -980 13 70 31 108
95 108 176 0 30 -7 71 -16 90 l-15 35 -1 -31 c-1 -36 -43 -170 -58 -185 -5 -5
-48 -9 -99 -7 l-88 3 -16 41 c-19 53 -37 74 -63 74 -17 0 -19 -5 -14 -40 8
-62 50 -124 99 -149 l43 -21 -285 0 c-261 0 -282 1 -255 15 41 21 92 80 100
116 8 35 27 37 49 4 19 -28 60 -41 169 -50 63 -6 77 -5 77 7 0 11 -24 17 -95
25 -122 13 -150 33 -47 33 41 0 72 -4 72 -10 0 -5 9 -10 21 -10 14 0 19 5 16
14 -3 8 -1 16 6 19 8 2 6 11 -6 30 -9 14 -17 29 -17 32 0 3 22 5 50 5 32 0 61
7 82 20 43 26 171 28 206 4 13 -9 25 -14 28 -11 2 2 7 34 11 71 9 97 -2 106
-129 106 -82 0 -103 -3 -126 -20 -15 -10 -49 -24 -75 -30 -65 -14 -285 -3
-311 16 -11 8 -30 14 -43 14 -12 0 -25 5 -28 10 -10 17 -170 13 -185 -5 -7 -8
-27 -15 -46 -15 -18 0 -36 -4 -39 -10 -4 -6 -70 -10 -164 -10 -152 0 -160 1
-195 25 -33 22 -47 25 -136 25 -96 0 -99 -1 -120 -27 -19 -24 -31 -29 -88 -33
l-67 -5 0 -60 0 -60 73 -3 c60 -2 80 1 108 18 48 28 159 28 214 0 22 -11 58
-20 80 -20 40 0 41 -1 36 -27 -3 -16 -8 -45 -12 -65 l-6 -38 126 0 127 0 -6
53 c-4 28 -8 58 -10 65 -3 8 9 12 38 12 25 0 54 8 72 20 43 28 176 28 223 0
18 -11 50 -20 72 -20 39 0 39 -1 28 -25 -14 -30 -28 -33 -28 -5 0 52 -61 -6
-75 -72 -8 -34 -27 -40 -125 -36 -72 3 -75 4 -88 33 -28 66 -39 80 -60 83 -19
3 -22 -1 -22 -29 0 -54 38 -118 88 -150 l46 -29 -280 0 -279 1 38 20 c48 25
85 82 93 143 7 46 6 48 -17 44 -22 -3 -30 -13 -69 -98 -6 -12 -27 -15 -96 -15
l-89 0 -13 30 c-28 66 -39 80 -60 83 -19 3 -22 -1 -22 -33 0 -63 41 -126 105
-159 27 -14 -101 -16 -1435 -15 -981 0 -1457 4 -1440 10 61 25 110 94 110 159
0 78 -48 42 -83 -62 -6 -15 -20 -18 -96 -18 l-90 0 -28 58 c-20 41 -34 58 -50
60 -26 4 -29 -11 -13 -70 13 -44 52 -93 95 -119 30 -19 27 -19 -250 -19 -278
0 -279 0 -245 19 55 29 92 82 98 141 4 46 3 50 -17 50 -16 0 -28 -14 -49 -57
l-27 -58 -86 -3 c-96 -3 -96 -3 -123 71 -15 39 -22 47 -43 47 -18 0 -24 -4
-19 -15 8 -22 -12 -18 -24 4 -15 29 -13 31 23 31 18 0 49 9 70 20 52 28 179
28 222 0 18 -12 47 -20 72 -20 l42 0 -6 -65 -6 -65 127 0 c126 0 126 0 121 23
-3 12 -9 41 -14 65 l-9 42 47 0 c30 0 55 7 71 20 37 29 169 28 216 0 27 -17
46 -20 106 -18 l73 3 3 63 3 62 -65 0 c-59 0 -66 2 -89 30 -25 30 -27 30 -127
30 -94 0 -104 -2 -132 -25 -29 -24 -33 -25 -193 -25 -98 0 -166 4 -170 10 -3
6 -19 10 -34 10 -16 0 -34 7 -41 15 -9 11 -34 15 -101 15 -48 0 -91 -4 -94
-10 -3 -5 -16 -10 -29 -10 -12 0 -31 -7 -42 -15 -15 -11 -54 -14 -174 -15
-147 0 -157 1 -195 25 -35 21 -52 24 -136 25 -133 0 -144 -9 -134 -108 4 -40
10 -74 15 -77 4 -2 15 4 25 15 26 29 160 29 207 0 21 -12 51 -20 81 -20 35 0
47 -4 47 -15 0 -9 -7 -18 -15 -21 -8 -4 -15 -13 -15 -21 0 -8 5 -11 12 -7 8 5
9 0 6 -14 -5 -16 -2 -22 11 -22 9 0 21 4 27 9 13 12 110 20 126 10 22 -14 0
-22 -98 -33 -67 -8 -99 -16 -102 -25 -4 -12 10 -13 79 -7 111 9 159 24 170 53
10 26 49 32 49 7 0 -36 36 -88 79 -115 l45 -29 -280 0 c-261 1 -277 2 -249 17
17 8 39 23 49 32 26 23 56 90 56 129 0 29 -3 33 -22 30 -21 -3 -32 -17 -60
-83 -13 -30 -14 -30 -99 -33 -63 -2 -89 1 -97 11 -18 22 -62 145 -62 174 0 52
-22 7 -27 -56 -9 -97 24 -163 102 -204 28 -15 -4 -16 -422 -17 l-453 0 0 -30
0 -30 6770 0 6770 0 0 30 0 30 -377 0 -378 0 44 25 c27 16 59 25 86 25 24 0
50 3 59 6 20 8 21 34 1 34 -19 0 -19 10 0 46 31 61 31 167 -1 199 -25 24 -29
18 -26 -35 4 -48 3 -50 -23 -50 -29 0 -47 -32 -60 -105 -4 -22 -12 -46 -18
-52 -12 -16 -189 -18 -217 -3 -11 6 -21 26 -25 52 -14 82 -38 107 -103 108
-13 0 -20 4 -17 10 9 15 52 12 85 -5 29 -15 43 -44 56 -118 l6 -38 101 3 101
3 8 35 c20 81 39 120 64 126 22 6 25 11 22 43 -2 29 -8 37 -28 41 -14 3 -50
19 -80 35 -51 28 -64 30 -185 35 -79 3 -129 9 -128 15 4 13 158 18 313 10
l125 -7 41 -43 c25 -26 49 -63 59 -94 l17 -51 79 0 c64 0 79 3 79 15 0 24 31
31 45 11 10 -14 26 -16 76 -14 l64 3 0 65 0 65 -64 3 c-50 2 -66 0 -76 -14
-20 -29 -43 -10 -47 38 l-3 43 -371 3 -371 2 -7 -127 c-4 -70 -9 -130 -12
-135 -3 -4 -34 -8 -69 -8 l-64 0 -5 33 c-3 17 -8 76 -11 131 -5 79 -4 97 7 94
7 -3 14 -21 16 -41 l3 -37 60 0 59 0 0 45 0 45 -1579 0 -1579 0 -7 -117 c-9
-162 -4 -153 -80 -153 l-64 0 -6 33 c-3 17 -6 78 -8 134 l-2 103 -527 0 c-345
0 -528 3 -528 10 0 7 865 10 2575 10 l2575 0 0 500 0 499 25 57 c14 31 25 58
25 60 0 2 -209 4 -465 4 l-465 0 0 -60 0 -60 -1310 0 -1310 0 0 60 0 60 -188
0 -189 0 -11 25 c-7 14 -12 28 -12 30 0 12 97 3 114 -10 32 -24 36 -18 36 45
0 33 -3 60 -7 60 -3 0 -15 -8 -26 -17 -37 -34 -297 -27 -297 7 0 6 -7 10 -15
10 -12 0 -15 -13 -15 -60z m-389 -223 c10 -24 8 -35 -21 -92 -46 -90 -52 -94
-89 -53 -17 18 -31 39 -31 47 0 15 68 132 83 143 15 10 45 -13 58 -45z m3457
-77 l962 0 0 -130 0 -130 -1885 0 -1885 0 0 129 0 130 33 3 c17 2 433 2 922 0
490 -1 1323 -2 1853 -2z m-3169 -28 c11 -21 5 -152 -7 -164 -5 -5 -64 -7 -132
-6 -164 4 -170 14 -85 148 l25 40 95 0 c80 0 96 -3 104 -18z m266 -82 l0 -85
-65 -3 c-52 -2 -67 0 -77 14 -17 23 -17 136 -1 152 8 8 36 12 78 10 l65 -3 0
-85z m-185 -351 c0 -239 -4 -419 -9 -419 -18 0 -18 -14 -12 683 1 109 5 166
11 162 6 -4 10 -157 10 -426z m250 0 c0 -284 -3 -428 -10 -424 -6 4 -10 158
-10 431 0 276 3 424 10 424 7 0 10 -150 10 -431z m538 141 c61 -37 66 -108 10
-155 -16 -14 -42 -25 -58 -25 -36 0 -87 42 -95 80 -8 36 16 85 53 104 36 20
51 20 90 -4z m2155 -21 c25 -31 22 -92 -7 -126 -66 -77 -198 12 -154 104 29
61 118 73 161 22z m242 -265 c0 -201 -3 -278 -12 -281 -8 -3 -11 68 -12 272
-1 152 1 281 5 286 16 26 19 -22 19 -277z m245 170 l0 -104 333 0 332 0 -3
-175 c-2 -102 -7 -175 -12 -175 -6 0 -10 67 -10 165 l0 165 -55 0 -55 0 0
-166 c0 -107 -3 -163 -10 -159 -6 4 -10 71 -10 168 l0 162 -255 0 -255 0 0
-162 c0 -97 -4 -164 -10 -168 -7 -4 -10 92 -10 280 0 188 3 284 10 280 6 -3
10 -52 10 -111z m-4101 87 c7 -5 16 -31 19 -59 4 -41 1 -53 -17 -71 -19 -19
-32 -21 -135 -21 -137 0 -146 5 -146 84 0 28 5 57 12 64 14 14 245 17 267 3z
m2744 -191 c710 0 1066 -3 1062 -10 -8 -14 -2855 -14 -2855 0 0 11 203 16 510
12 118 -1 696 -2 1283 -2z m-1894 -64 c7 -8 11 -34 9 -58 l-3 -43 -70 0 -70 0
-3 43 c-4 59 9 72 73 72 33 0 57 -5 64 -14z m9 -203 l3 -53 -75 0 -76 0 0 48
c0 27 3 52 7 56 4 4 37 6 73 4 l65 -3 3 -52z m3192 -48 c0 -12 -16 -15 -85
-15 -69 0 -85 3 -85 15 0 12 16 15 85 15 69 0 85 -3 85 -15z m-4090 -361 l0
-35 -42 3 c-32 2 -44 8 -46 21 -7 35 6 47 48 47 39 0 40 -1 40 -36z"/>
<path d="M9664 6681 c-2 -2 -4 -13 -4 -23 0 -17 63 -18 1865 -18 1858 0 1865
0 1865 20 0 20 -7 20 -1802 21 -992 0 -1829 1 -1861 2 -32 1 -61 0 -63 -2z"/>
<path d="M9660 6600 c0 -20 7 -20 1865 -20 1858 0 1865 0 1865 20 0 20 -7 20
-1865 20 -1858 0 -1865 0 -1865 -20z"/>
<path d="M9660 6540 c0 -20 7 -20 1865 -20 1858 0 1865 0 1865 20 0 20 -7 20
-1865 20 -1858 0 -1865 0 -1865 -20z"/>
<path d="M9660 6480 c0 -20 7 -20 1865 -20 1858 0 1865 0 1865 20 0 20 -7 20
-1865 20 -1858 0 -1865 0 -1865 -20z"/>
<path d="M8434 6326 c-3 -7 -4 -33 -2 -57 l3 -44 120 0 120 0 3 58 3 57 -121
0 c-94 0 -122 -3 -126 -14z"/>
<path d="M1212 7018 c-17 -17 -15 -95 2 -105 13 -7 12 -23 -4 -116 -10 -60
-20 -111 -23 -113 -3 -3 -222 -14 -280 -14 -4 0 16 -29 44 -65 28 -36 56 -65
61 -65 6 0 89 28 184 61 l172 62 22 115 21 116 -40 57 c-23 32 -41 63 -41 69
0 14 -103 13 -118 -2z m168 -165 c0 -7 -11 -57 -25 -120 -5 -21 -11 -23 -71
-23 -58 0 -65 2 -60 18 3 9 8 40 12 67 3 28 8 53 11 58 2 4 33 7 69 7 35 0 64
-3 64 -7z"/>
<path d="M3432 6995 l-12 -25 170 0 c94 0 170 3 170 6 0 3 -5 14 -10 25 -10
17 -23 19 -159 19 l-148 0 -11 -25z"/>
<path d="M1360 7005 c0 -2 14 -25 32 -50 l32 -45 353 0 353 0 0 50 0 50 -385
0 c-212 0 -385 -2 -385 -5z"/>
<path d="M2150 6930 l0 -70 380 0 380 0 0 70 0 70 -380 0 -380 0 0 -70z"/>
<path d="M2930 6930 c0 -56 3 -70 15 -70 11 0 15 12 15 50 0 28 5 50 10 50 6
0 10 -22 10 -50 0 -67 20 -64 22 3 l1 52 4 -45 c6 -66 23 -75 23 -12 0 29 5
52 10 52 6 0 10 -23 10 -51 0 -31 4 -48 10 -44 6 3 10 26 10 51 0 24 3 44 8
44 4 0 6 -18 4 -41 -3 -22 1 -46 7 -52 8 -8 11 3 11 41 0 29 5 52 10 52 6 0
10 -23 10 -52 0 -63 17 -54 23 12 l4 45 1 -52 c2 -67 22 -70 22 -3 0 28 5 50
10 50 6 0 10 -23 10 -52 0 -63 17 -54 23 12 l4 45 1 -47 c3 -65 22 -73 22 -9
0 28 5 51 10 51 6 0 10 -23 10 -51 0 -34 4 -48 11 -43 7 4 9 23 5 50 -3 26 -2
44 4 44 6 0 10 -22 10 -50 0 -43 3 -50 20 -50 18 0 20 7 20 70 l0 70 -200 0
-200 0 0 -70z"/>
<path d="M5046 6958 c-9 -12 -16 -26 -16 -30 0 -5 344 -8 765 -8 421 0 765 2
765 5 0 3 -7 17 -16 30 l-16 25 -734 0 -733 0 -15 -22z"/>
<path d="M6610 6964 c0 -9 -6 -14 -13 -11 -10 4 -12 -19 -10 -112 4 -102 1
-125 -21 -191 l-24 -75 -761 -3 -761 -2 0 -120 0 -120 535 0 534 0 4 83 3 82
2 -82 c3 -108 22 -110 22 -3 0 47 4 80 10 80 6 0 10 -33 10 -80 0 -106 18
-104 23 3 l3 82 2 -82 c3 -105 22 -111 22 -8 0 43 4 75 10 75 6 0 10 -32 10
-75 0 -43 4 -75 10 -75 6 0 10 34 10 81 0 55 3 78 11 74 7 -5 8 -32 4 -81 -5
-52 -4 -74 4 -74 7 0 11 26 11 74 0 41 5 78 10 81 6 4 10 -23 10 -74 l0 -81
395 0 395 0 0 325 0 325 -230 0 c-205 0 -230 -2 -230 -16z m30 -549 c0 -51 -3
-65 -15 -65 -12 0 -15 14 -15 65 0 51 3 65 15 65 12 0 15 -14 15 -65z m40 0
c0 -37 -4 -65 -10 -65 -6 0 -10 28 -10 65 0 37 4 65 10 65 6 0 10 -28 10 -65z
m50 0 c0 -37 -4 -65 -10 -65 -6 0 -10 28 -10 65 0 37 4 65 10 65 6 0 10 -28
10 -65z m50 0 c0 -37 -4 -65 -10 -65 -6 0 -10 28 -10 65 0 37 4 65 10 65 6 0
10 -28 10 -65z m40 0 c0 -37 -4 -65 -10 -65 -6 0 -10 28 -10 65 0 37 4 65 10
65 6 0 10 -28 10 -65z m50 0 c0 -37 -4 -65 -10 -65 -6 0 -10 28 -10 65 0 37 4
65 10 65 6 0 10 -28 10 -65z m50 0 c0 -37 -4 -65 -10 -65 -6 0 -10 28 -10 65
0 37 4 65 10 65 6 0 10 -28 10 -65z m50 31 c0 -47 -11 -96 -21 -96 -5 0 -9 29
-9 65 0 51 3 65 15 65 10 0 15 -10 15 -34z m40 -31 c0 -37 -4 -65 -10 -65 -6
0 -10 28 -10 65 0 37 4 65 10 65 6 0 10 -28 10 -65z"/>
<path d="M11210 6944 c0 -31 -3 -35 -17 -29 -75 32 -103 37 -183 33 -53 -3
-97 -11 -117 -21 -22 -12 -57 -17 -115 -17 l-83 0 -1 -50 -1 -50 948 0 949 0
0 50 0 50 -73 0 c-50 0 -85 6 -108 17 -21 11 -67 19 -120 21 -72 4 -94 1 -134
-17 -26 -11 -49 -21 -51 -21 -2 0 -4 16 -4 35 0 32 -2 35 -29 35 -26 0 -30 -4
-33 -32 -3 -36 -3 -36 -68 -12 -60 21 -200 16 -252 -10 -43 -21 -87 -18 -158
9 -58 22 -190 18 -239 -8 -47 -23 -51 -22 -51 18 0 32 -2 35 -30 35 -28 0 -30
-3 -30 -36z"/>
<path d="M3563 6953 l-213 -3 0 -48 c0 -32 12 -78 35 -135 l35 -87 0 -175 0
-175 790 0 790 0 -2 288 -3 287 -590 0 -590 0 -3 -63 c-4 -92 -22 -66 -22 34
0 46 -3 83 -7 82 -5 -2 -104 -4 -220 -5z"/>
<path d="M7090 6641 l0 -308 41 -6 c23 -3 46 -11 50 -19 11 -16 12 -689 2
-715 -5 -10 -10 146 -13 347 l-5 365 -35 0 -35 0 -3 -172 -2 -173 25 0 c20 0
25 -5 25 -24 0 -23 -5 -25 -62 -31 -35 -3 -1417 -4 -3073 -3 l-3010 3 -5 315
-5 315 -54 68 c-56 68 -74 79 -85 51 -3 -9 -6 -168 -6 -355 l0 -340 -58 3 -57
3 -3 178 -2 178 -63 -3 -62 -3 -3 -177 c-2 -149 -5 -178 -17 -178 -10 0 -15
-11 -15 -35 l0 -35 65 0 65 0 0 -85 0 -85 -30 0 c-23 0 -30 -5 -30 -19 0 -27
-20 -38 -32 -17 -7 12 -24 16 -73 16 l-65 0 0 -70 0 -70 65 0 c49 0 67 4 71
15 4 8 11 15 16 15 20 0 -1 -103 -36 -177 l-35 -73 69 0 c40 0 70 4 70 10 0 6
9 10 20 10 20 0 20 7 20 285 0 183 4 285 10 285 6 0 10 -21 10 -47 l0 -48 80
3 c51 2 80 0 80 -7 0 -6 -34 -11 -82 -13 l-83 -3 0 -55 0 -55 83 -3 c105 -4
108 -22 3 -22 l-78 0 -7 -37 c-12 -76 -15 -73 79 -73 109 0 112 -18 3 -22
l-83 -3 0 -55 0 -55 126 -3 126 -3 6 63 c4 35 9 107 13 161 l7 97 3047 0 3047
0 7 -46 c3 -26 6 -77 6 -114 0 -37 3 -88 6 -114 l7 -46 123 0 124 0 0 60 0 60
-86 0 c-54 0 -83 4 -79 10 3 6 42 10 86 10 l79 0 0 55 0 55 -80 0 c-47 0 -80
4 -80 10 0 6 33 10 80 10 l80 0 0 60 0 60 -80 0 c-44 0 -80 3 -80 8 0 4 36 6
80 4 l80 -4 0 51 c0 28 5 51 10 51 6 0 10 -102 10 -285 0 -278 0 -285 20 -285
19 0 20 7 20 95 0 80 2 95 16 95 9 0 18 9 21 20 5 19 7 20 29 5 14 -9 46 -15
84 -15 l60 0 0 70 0 70 -64 0 c-44 0 -67 -5 -76 -15 -17 -21 -30 -19 -30 5 0
13 -7 20 -20 20 -17 0 -20 7 -20 44 0 24 -3 64 -6 89 l-7 46 64 3 c64 3 64 3
67 34 2 25 -1 33 -17 37 -20 5 -21 12 -21 182 l0 176 -62 -3 -63 -3 -3 -177
-2 -178 -60 0 -60 0 0 364 c0 320 2 365 16 377 16 13 16 34 -1 129 -3 19 -8
54 -11 78 l-5 42 -90 0 -89 0 0 -309z m-6390 -511 l0 -170 -40 0 -40 0 0 170
0 170 40 0 40 0 0 -170z m6800 0 l0 -170 -40 0 -40 0 0 170 0 170 40 0 40 0 0
-170z m-6551 -362 c-1 -137 -4 -173 -9 -126 -4 38 -6 96 -5 130 4 160 5 188
10 188 3 0 4 -87 4 -192z"/>
<path d="M10010 6860 l0 -50 334 0 335 0 -2 50 -2 50 -332 0 -333 0 0 -50z"/>
<path d="M5020 6855 l0 -45 343 -1 c188 0 537 -1 775 -2 l432 -2 0 48 0 47
-775 0 -775 0 0 -45z"/>
<path d="M1426 6873 c-2 -10 -12 -64 -22 -120 -12 -72 -22 -104 -33 -108 -9
-4 -86 -32 -171 -62 -85 -30 -163 -59 -173 -65 -16 -8 -17 -30 -15 -281 l3
-272 190 0 190 0 102 135 102 135 263 5 263 5 0 320 0 320 -347 3 c-324 2
-347 1 -352 -15z m164 -163 l0 -110 -60 0 -60 0 0 110 0 110 60 0 60 0 0 -110z
m450 0 l0 -110 -65 0 -65 0 0 103 c0 57 3 107 7 110 3 4 33 7 65 7 l58 0 0
-110z m-227 81 l57 -1 0 -90 0 -90 -67 -2 c-38 -1 -90 -2 -118 -2 l-50 -1 -3
92 -3 92 43 3 c24 2 52 2 63 1 11 -1 46 -2 78 -2z"/>
<path d="M2150 6715 l0 -130 42 1 43 1 3 126 3 125 -46 4 -45 3 0 -130z"/>
<path d="M2260 6714 l0 -132 158 3 157 3 3 125 3 126 -161 3 -160 3 0 -131z"/>
<path d="M2600 6714 l0 -131 155 1 155 1 0 127 0 127 -155 3 -155 3 0 -131z"/>
<path d="M2930 6770 l0 -70 153 0 c85 0 156 2 158 4 8 8 -3 136 -11 136 -5 0
-11 -28 -13 -62 l-3 -63 -2 63 c-2 76 -22 83 -22 7 0 -30 -4 -55 -10 -55 -5 0
-10 25 -10 55 0 76 -18 70 -23 -7 l-3 -63 -2 63 c-3 80 -22 82 -22 1 0 -37 -4
-58 -10 -54 -5 3 -10 31 -10 61 0 75 -18 68 -23 -8 l-3 -63 -2 63 c-3 80 -22
82 -22 1 0 -37 -4 -58 -10 -54 -5 3 -10 31 -10 61 0 75 -18 68 -23 -8 l-3 -63
-2 63 c-2 76 -22 83 -22 7 0 -30 -4 -55 -10 -55 -5 0 -10 25 -10 55 0 42 -3
55 -15 55 -12 0 -15 -14 -15 -70z"/>
<path d="M3272 6773 l-2 -73 30 0 30 0 0 70 c0 63 -2 70 -20 70 -18 0 -20 -7
-22 -62 l-1 -63 -7 65 -7 65 -1 -72z"/>
<path d="M3348 6740 l-3 -55 -37 -3 c-38 -3 -38 -4 -38 -47 0 -43 0 -44 38
-47 l37 -3 5 -310 5 -310 68 -3 67 -3 0 175 0 175 -42 3 -43 3 -5 190 c-4 166
-8 196 -27 240 l-21 50 -4 -55z"/>
<path d="M5020 6684 l0 -105 243 3 242 3 8 90 c4 50 5 96 2 103 -3 9 -63 12
-250 12 l-245 0 0 -106z m60 1 c0 -41 -4 -77 -10 -80 -6 -4 -10 25 -10 80 0
55 4 84 10 80 6 -3 10 -39 10 -80z m30 -1 c0 -54 -4 -83 -10 -79 -5 3 -10 42
-10 86 0 46 4 79 10 79 6 0 10 -35 10 -86z m27 -47 c-2 -23 -3 -1 -3 48 0 50
1 68 3 42 2 -26 2 -67 0 -90z m43 54 c0 -44 -4 -83 -10 -86 -6 -4 -10 25 -10
79 0 51 4 86 10 86 6 0 10 -33 10 -79z m30 -7 c0 -54 -4 -83 -10 -79 -5 3 -10
42 -10 86 0 46 4 79 10 79 6 0 10 -35 10 -86z m32 -10 l-9 -79 -2 90 c-1 61 2
86 9 79 7 -7 8 -37 2 -90z m38 11 c0 -50 -4 -85 -10 -85 -6 0 -10 35 -10 85 0
50 4 85 10 85 6 0 10 -35 10 -85z m27 -48 c-2 -23 -3 -1 -3 48 0 50 1 68 3 42
2 -26 2 -67 0 -90z m43 48 c0 -50 -4 -85 -10 -85 -6 0 -10 35 -10 85 0 50 4
85 10 85 6 0 10 -35 10 -85z m30 -1 c0 -54 -4 -83 -10 -79 -5 3 -10 42 -10 86
0 46 4 79 10 79 6 0 10 -35 10 -86z m40 1 c0 -41 -4 -77 -10 -80 -6 -4 -10 25
-10 80 0 55 4 84 10 80 6 -3 10 -39 10 -80z m30 0 c0 -50 -4 -85 -10 -85 -6 0
-10 35 -10 85 0 50 4 85 10 85 6 0 10 -35 10 -85z m27 -48 c-2 -23 -3 -1 -3
48 0 50 1 68 3 42 2 -26 2 -67 0 -90z"/>
<path d="M5534 6777 c-2 -7 -3 -53 -2 -102 l3 -90 258 -1 257 0 0 103 0 103
-255 0 c-199 0 -257 -3 -261 -13z m56 -92 c0 -50 -4 -85 -10 -85 -6 0 -10 35
-10 85 0 50 4 85 10 85 6 0 10 -35 10 -85z m27 -48 c-2 -23 -3 -1 -3 48 0 50
1 68 3 42 2 -26 2 -67 0 -90z m43 48 c0 -41 -4 -77 -10 -80 -6 -4 -10 25 -10
80 0 55 4 84 10 80 6 -3 10 -39 10 -80z m30 0 c0 -50 -4 -85 -10 -85 -6 0 -10
35 -10 85 0 50 4 85 10 85 6 0 10 -35 10 -85z m27 -48 c-2 -23 -3 -1 -3 48 0
50 1 68 3 42 2 -26 2 -67 0 -90z m43 48 c0 -50 -4 -85 -10 -85 -6 0 -10 35
-10 85 0 50 4 85 10 85 6 0 10 -35 10 -85z m27 -48 c-2 -23 -3 -1 -3 48 0 50
1 68 3 42 2 -26 2 -67 0 -90z m43 54 c0 -44 -4 -83 -10 -86 -6 -4 -10 25 -10
79 0 51 4 86 10 86 6 0 10 -33 10 -79z m30 -7 c0 -54 -4 -83 -10 -79 -5 3 -10
42 -10 86 0 46 4 79 10 79 6 0 10 -35 10 -86z m31 -1 c-3 -107 -11 -106 -11 2
0 49 3 85 7 82 3 -4 5 -42 4 -84z m39 2 c0 -50 -4 -85 -10 -85 -6 0 -10 35
-10 85 0 50 4 85 10 85 6 0 10 -35 10 -85z m27 -48 c-2 -23 -3 -1 -3 48 0 50
1 68 3 42 2 -26 2 -67 0 -90z m43 42 c0 -46 -4 -79 -10 -79 -6 0 -10 35 -10
86 0 54 4 83 10 79 6 -3 10 -42 10 -86z m30 5 c0 -54 -4 -83 -10 -79 -5 3 -10
42 -10 86 0 46 4 79 10 79 6 0 10 -35 10 -86z"/>
<path d="M6074 6777 c-3 -8 -4 -54 -2 -103 l3 -89 224 0 224 0 23 70 c13 39
24 85 24 103 l0 32 -245 0 c-195 0 -247 -3 -251 -13z m36 -92 c0 -50 -4 -85
-10 -85 -6 0 -10 35 -10 85 0 50 4 85 10 85 6 0 10 -35 10 -85z m30 -1 c0 -54
-4 -83 -10 -79 -11 7 -14 148 -3 158 12 13 13 7 13 -79z m40 1 c0 -41 -4 -77
-10 -80 -6 -4 -10 25 -10 80 0 55 4 84 10 80 6 -3 10 -39 10 -80z m30 0 c0
-50 -4 -85 -10 -85 -6 0 -10 35 -10 85 0 50 4 85 10 85 6 0 10 -35 10 -85z
m27 -48 c-2 -23 -3 -1 -3 48 0 50 1 68 3 42 2 -26 2 -67 0 -90z m43 48 c0 -50
-4 -85 -10 -85 -6 0 -10 35 -10 85 0 50 4 85 10 85 6 0 10 -35 10 -85z m30 -1
c0 -54 -4 -83 -10 -79 -11 7 -14 148 -3 158 12 13 13 7 13 -79z m40 1 c0 -41
-4 -77 -10 -80 -6 -4 -10 25 -10 80 0 55 4 84 10 80 6 -3 10 -39 10 -80z m30
0 c0 -50 -4 -85 -10 -85 -6 0 -10 35 -10 85 0 50 4 85 10 85 6 0 10 -35 10
-85z m27 -48 c-2 -23 -3 -1 -3 48 0 50 1 68 3 42 2 -26 2 -67 0 -90z m43 48
c0 -50 -4 -85 -10 -85 -6 0 -10 35 -10 85 0 50 4 85 10 85 6 0 10 -35 10 -85z
m27 -48 c-2 -23 -3 -1 -3 48 0 50 1 68 3 42 2 -26 2 -67 0 -90z m43 42 c0 -46
-4 -79 -10 -79 -6 0 -10 35 -10 86 0 54 4 83 10 79 6 -3 10 -42 10 -86z"/>
<path d="M13510 6245 l0 -465 35 0 35 0 0 465 0 465 -35 0 -35 0 0 -465z"/>
<path d="M2992 6683 l-63 -4 3 -47 3 -47 155 3 155 2 3 44 3 43 -77 6 c-42 4
-86 6 -98 5 -12 -1 -49 -3 -84 -5z"/>
<path d="M2150 6265 l0 -305 590 0 590 0 0 299 0 299 -31 6 c-17 3 -283 6
-590 6 l-559 0 0 -305z"/>
<path d="M3514 6297 c-2 -7 -3 -85 -2 -172 l3 -160 148 -3 147 -3 0 176 0 175
-145 0 c-110 0 -147 -3 -151 -13z"/>
<path d="M3835 6297 c-3 -7 -4 -85 -3 -172 l3 -160 193 0 193 0 0 170 0 170
-191 3 c-150 2 -192 0 -195 -11z"/>
<path d="M4250 6135 l0 -175 195 0 195 0 0 175 0 175 -195 0 -195 0 0 -175z"/>
<path d="M4664 6297 c-2 -7 -3 -85 -2 -172 l3 -160 165 0 165 0 3 173 2 172
-165 0 c-126 0 -167 -3 -171 -13z"/>
<path d="M5020 6136 c0 -150 2 -176 15 -176 13 0 15 25 15 165 0 91 0 168 1
173 0 4 -7 8 -15 10 -14 3 -16 -19 -16 -172z"/>
<path d="M5080 6135 l0 -175 195 0 195 0 0 175 0 175 -195 0 -195 0 0 -175z"/>
<path d="M5495 6297 c-3 -7 -4 -85 -3 -172 l3 -160 195 0 195 0 0 170 0 170
-193 3 c-151 2 -194 0 -197 -11z"/>
<path d="M5910 6135 l0 -175 195 0 195 0 0 170 c0 107 -4 170 -10 170 -6 0
-10 -53 -10 -140 0 -87 -4 -140 -10 -140 -6 0 -10 56 -10 147 0 103 -3 144
-11 136 -6 -6 -9 -60 -7 -147 2 -75 0 -136 -4 -136 -5 0 -8 63 -8 140 0 87 -4
140 -10 140 -6 0 -10 -53 -10 -140 0 -87 -4 -140 -10 -140 -6 0 -10 56 -10
147 0 103 -3 144 -11 136 -6 -6 -9 -60 -7 -147 2 -75 0 -136 -4 -136 -5 0 -8
63 -8 139 0 83 -4 142 -10 146 -6 4 -10 -45 -10 -139 0 -91 -4 -146 -10 -146
-6 0 -10 55 -10 146 0 94 -4 143 -10 139 -6 -4 -11 -67 -12 -148 l-2 -142 -6
145 -5 145 -87 3 -88 3 0 -176z"/>
<path d="M6327 6303 c-4 -3 -7 -82 -7 -175 l0 -168 195 0 195 0 0 175 c0 149
-2 175 -15 175 -12 0 -15 -14 -15 -65 0 -37 -4 -65 -10 -65 -6 0 -10 29 -10
66 0 46 -4 64 -12 62 -8 -3 -11 -25 -9 -66 2 -51 0 -62 -13 -62 -13 0 -16 13
-16 65 l0 65 -138 0 c-76 0 -142 -3 -145 -7z m311 -215 c-2 -38 -8 -63 -15
-66 -10 -3 -13 14 -13 62 0 53 3 66 15 66 13 0 15 -11 13 -62z m42 -3 c0 -37
-4 -65 -10 -65 -6 0 -10 28 -10 65 0 37 4 65 10 65 6 0 10 -28 10 -65z"/>
<path d="M6735 6298 c-3 -8 -4 -86 -3 -173 l3 -160 168 -3 167 -2 0 175 0 175
-30 0 -30 0 0 -65 c0 -83 -18 -85 -22 -2 -2 34 -7 60 -12 57 -5 -3 -8 -31 -7
-62 2 -48 0 -58 -14 -58 -14 0 -16 10 -14 62 2 41 -1 63 -9 66 -8 2 -12 -16
-12 -62 0 -37 -4 -66 -10 -66 -6 0 -10 28 -10 65 0 51 -3 65 -15 65 -12 0 -15
-14 -15 -65 0 -37 -4 -65 -10 -65 -6 0 -10 28 -10 65 0 51 -3 65 -15 65 -12 0
-15 -14 -15 -65 0 -37 -4 -65 -10 -65 -6 0 -10 28 -10 65 0 37 -4 65 -10 65
-6 0 -10 -28 -10 -65 0 -37 -4 -65 -10 -65 -6 0 -10 26 -10 59 0 56 -14 88
-25 59z m45 -213 c0 -37 -4 -65 -10 -65 -6 0 -10 28 -10 65 0 37 4 65 10 65 6
0 10 -28 10 -65z m42 15 c0 -27 1 -55 2 -62 1 -6 -5 -13 -11 -15 -10 -4 -13
13 -13 61 0 77 19 91 22 16z m48 -15 c0 -37 -4 -65 -10 -65 -6 0 -10 28 -10
65 0 37 4 65 10 65 6 0 10 -28 10 -65z m50 0 c0 -37 -4 -65 -10 -65 -6 0 -10
28 -10 65 0 37 4 65 10 65 6 0 10 -28 10 -65z m45 32 c9 -45 3 -90 -12 -95
-10 -3 -13 14 -13 62 0 70 15 89 25 33z m45 -32 c0 -37 -4 -65 -10 -65 -6 0
-10 28 -10 65 0 37 4 65 10 65 6 0 10 -28 10 -65z"/>
<path d="M1531 6111 c-45 -60 -88 -115 -96 -121 -8 -7 -15 -16 -15 -21 0 -5
151 -8 353 -7 l352 3 3 128 3 127 -260 0 -259 0 -81 -109z"/>
<path d="M9414 5754 c3 -9 6 -29 6 -45 0 -28 1 -29 54 -29 l54 0 4 41 c2 22 2
42 -1 45 -2 2 -31 4 -64 4 -50 0 -58 -2 -53 -16z"/>
<path d="M1502 5708 c3 -21 8 -23 68 -23 60 0 65 2 68 23 3 21 0 22 -68 22
-68 0 -71 -1 -68 -22z"/>
<path d="M2140 5705 c0 -24 2 -25 65 -25 63 0 65 1 65 25 0 24 -2 25 -65 25
-63 0 -65 -1 -65 -25z"/>
<path d="M2920 5555 l0 -175 1143 2 1142 3 0 170 0 170 -1142 3 -1143 2 0
-175z"/>
<path d="M5850 5705 c0 -26 1 -26 68 -23 61 3 67 5 70 26 3 21 0 22 -67 22
-69 0 -71 -1 -71 -25z"/>
<path d="M6490 5705 c0 -24 2 -25 65 -25 63 0 65 1 65 25 0 24 -2 25 -65 25
-63 0 -65 -1 -65 -25z"/>
<path d="M9422 5593 l3 -68 46 -3 c53 -3 59 5 59 91 l0 47 -55 0 -56 0 3 -67z"/>
<path d="M12600 5613 c0 -86 6 -94 59 -91 l46 3 3 68 3 67 -56 0 -55 0 0 -47z"/>
<path d="M10260 5515 c0 -53 4 -75 13 -75 6 0 102 -1 213 -3 110 -2 206 -1
212 1 8 2 12 30 12 78 l0 74 -225 0 -225 0 0 -75z"/>
<path d="M10740 5495 l0 -95 488 2 487 3 3 93 3 92 -491 0 -490 0 0 -95z"/>
<path d="M2491 5553 c-14 -3 -34 -11 -47 -19 -21 -15 -21 -15 -3 -51 11 -21
19 -45 19 -55 0 -16 10 -18 85 -18 73 0 86 3 91 18 3 9 13 33 23 53 l18 36
-26 15 c-28 16 -120 28 -160 21z"/>
<path d="M5530 5552 c-33 -4 -80 -23 -80 -31 0 -4 9 -24 20 -46 11 -22 20 -45
20 -52 0 -10 22 -13 85 -13 70 0 85 3 85 15 0 9 9 33 20 55 l20 39 -27 14
c-30 15 -102 25 -143 19z"/>
<path d="M6157 5546 c-21 -8 -40 -16 -42 -18 -2 -2 6 -30 18 -61 l22 -57 85 2
84 3 7 33 c4 18 14 41 23 50 14 17 13 19 -13 35 -41 24 -137 31 -184 13z"/>
<path d="M6812 5540 l-42 -19 20 -33 c11 -18 20 -43 20 -56 0 -22 2 -23 86
-20 l86 3 15 40 c26 72 26 71 -4 83 -54 22 -135 23 -181 2z"/>
<path d="M1126 5535 c-18 -14 -18 -16 -2 -70 l18 -55 84 0 c62 0 84 3 84 13 0
7 9 31 20 52 l21 40 -22 18 c-28 22 -174 24 -203 2z"/>
<path d="M1783 5535 l-21 -14 22 -56 21 -55 83 0 c60 0 82 3 82 13 0 7 9 31
20 52 l20 40 -22 17 c-30 23 -173 25 -205 3z"/>
<path d="M1306 4268 c4 -13 9 -64 11 -114 4 -73 1 -93 -11 -103 -24 -20 -20
-28 19 -41 46 -15 129 -15 183 -1 45 13 51 21 27 41 -11 9 -15 35 -15 106 0
51 4 96 10 99 6 3 10 13 10 21 0 11 -22 14 -121 14 l-121 0 8 -22z"/>
<path d="M12180 4242 c0 -48 7 -55 34 -37 11 8 40 15 63 15 36 0 43 -3 43 -20
0 -15 -7 -20 -25 -20 -35 0 -32 -20 11 -85 l37 -55 362 0 362 0 37 55 c20 30
36 61 36 70 0 13 -50 15 -387 17 -360 3 -388 4 -391 21 -4 19 32 25 43 7 3 -5
13 -10 21 -10 10 0 14 12 14 40 0 41 -7 49 -28 28 -18 -18 -150 -20 -185 -3
-43 21 -47 19 -47 -23z"/>
<path d="M2198 4244 c-66 -20 -78 -42 -78 -142 l0 -83 48 -22 c67 -31 197 -31
266 1 l48 22 -3 84 c-3 72 -7 88 -27 109 -43 45 -161 60 -254 31z"/>
<path d="M3313 4249 c-62 -15 -83 -47 -83 -125 0 -61 1 -64 32 -80 82 -43 299
-20 306 32 2 17 12 23 43 27 23 3 42 7 43 9 2 1 6 28 9 59 6 61 -3 85 -27 76
-12 -5 -16 -20 -16 -57 0 -46 -2 -50 -24 -50 -20 0 -26 7 -33 38 -7 29 -16 41
-46 56 -45 22 -145 29 -204 15z"/>
<path d="M956 4213 c-3 -3 -6 -19 -6 -34 0 -15 -6 -29 -14 -32 -8 -3 -18 -26
-21 -51 -4 -25 -13 -51 -21 -57 -8 -6 -14 -18 -14 -25 0 -13 11 -15 90 -19 15
0 30 -10 39 -26 13 -23 12 -33 -8 -95 -12 -38 -26 -92 -30 -119 -7 -41 -10
-46 -16 -27 -6 19 -14 22 -61 22 -30 0 -54 5 -54 10 0 6 -25 10 -55 10 -62 0
-73 -16 -30 -44 22 -14 25 -24 25 -71 0 -41 4 -57 18 -65 12 -8 13 -13 5 -16
-19 -8 -17 -74 2 -74 8 0 15 9 15 20 0 18 7 20 78 20 l78 0 12 -47 c7 -27 23
-70 36 -98 l24 -50 1 343 c1 329 0 345 -19 369 -11 14 -20 33 -20 42 0 10 -7
26 -15 37 -8 10 -15 31 -15 46 0 27 -12 43 -24 31z m14 -628 c0 -12 -14 -15
-65 -15 -80 0 -86 18 -7 23 31 2 60 4 65 5 4 1 7 -5 7 -13z"/>
<path d="M4890 4203 c-58 -2 -109 -8 -114 -13 -6 -6 -43 -10 -83 -10 l-73 0 0
-125 0 -125 375 0 c356 0 376 1 413 20 26 14 75 24 153 31 63 6 120 16 128 22
10 9 12 28 8 79 -3 38 -9 73 -12 78 -4 6 -122 10 -321 10 -311 0 -315 0 -309
20 6 17 2 20 -27 18 -18 -1 -80 -4 -138 -5z"/>
<path d="M4241 4147 c-6 -6 -11 -28 -11 -49 l0 -38 -130 0 -130 0 0 -60 0 -60
313 0 312 0 -1 57 -2 58 -106 3 -106 3 0 32 c0 18 -4 38 -9 46 -11 17 -114 24
-130 8z"/>
<path d="M10947 4133 c-4 -3 -7 -27 -7 -52 0 -25 -3 -76 -7 -113 l-6 -68 -43
0 c-33 0 -44 4 -44 15 0 9 6 18 14 21 10 4 12 17 8 47 -3 23 -8 44 -12 47 -3
3 -10 14 -14 25 -7 16 -9 17 -13 5 -3 -8 -11 -22 -18 -30 -20 -24 -26 -90 -9
-97 7 -3 14 -11 14 -19 0 -10 -28 -14 -127 -16 l-128 -3 -3 -62 -3 -63 -364 0
-365 0 0 65 0 65 -73 0 c-43 0 -78 -5 -85 -12 -7 -7 -12 -37 -12 -68 0 -31 5
-61 12 -68 9 -9 322 -12 1345 -12 l1333 0 0 35 c0 19 -2 35 -5 35 -3 0 -90 18
-193 41 -138 30 -219 42 -308 46 l-122 6 -6 36 c-3 20 -6 59 -6 87 0 28 -3 66
-6 83 -6 29 -9 31 -54 31 l-47 0 -7 -77 c-3 -42 -6 -96 -6 -120 l0 -43 -259 0
-258 0 -7 61 c-3 34 -6 88 -6 120 l0 59 -48 0 c-27 0 -52 -3 -55 -7z"/>
<path d="M6475 4057 c-32 -19 -88 -37 -116 -37 -15 0 -32 -6 -38 -14 -9 -10
-32 -14 -79 -13 -59 2 -77 -3 -144 -35 -43 -20 -78 -42 -78 -48 0 -7 191 -10
610 -10 568 0 673 5 578 25 -18 4 -50 19 -71 33 -35 23 -42 24 -72 13 -44 -16
-112 1 -162 40 -40 32 -86 38 -119 15 -33 -23 -133 -7 -189 31 -24 16 -93 17
-120 0z"/>
<path d="M2960 4000 l0 -60 495 0 495 0 0 60 0 60 -179 0 c-139 0 -181 -3
-190 -14 -6 -7 -36 -21 -67 -31 -82 -26 -205 -18 -274 18 -47 25 -62 27 -166
27 l-114 0 0 -60z"/>
<path d="M2680 4032 c-141 -11 -179 -18 -199 -33 -13 -10 -41 -24 -62 -29 -87
-24 -34 -30 241 -30 l280 0 0 55 0 55 -42 -1 c-24 -1 -122 -8 -218 -17z"/>
<path d="M1070 3666 c0 -304 2 -355 15 -358 10 -2 -14 -47 -83 -155 -96 -151
-97 -152 -134 -153 -37 0 -38 1 -38 35 l0 36 -110 -3 c-142 -4 -151 -22 -12
-26 94 -2 102 -4 102 -22 0 -16 -7 -20 -30 -20 -25 0 -30 -4 -30 -25 0 -23 -4
-25 -45 -25 -25 0 -45 -4 -45 -10 0 -16 -37 -11 -44 5 -5 13 -20 15 -73 13
l-68 -3 -3 -67 -3 -68 71 0 c54 0 72 4 76 15 7 17 44 21 44 5 0 -5 19 -10 42
-10 l41 0 -44 -32 c-71 -50 -219 -189 -213 -199 3 -5 72 -9 155 -9 l149 0 0
125 0 125 36 0 c22 0 47 9 67 24 64 49 166 53 248 11 15 -8 30 -15 34 -15 3 0
5 31 5 70 l0 69 -95 3 -94 3 114 175 c63 96 121 177 130 178 15 3 15 1 -1 -23
l-17 -26 59 3 c52 3 59 5 62 26 6 42 22 22 22 -28 l0 -50 60 0 60 0 0 50 c0
28 5 50 10 50 6 0 10 -11 10 -25 l0 -25 120 0 120 0 0 95 0 95 763 0 c580 0
766 -3 775 -12 8 -8 12 -46 12 -105 l0 -93 60 0 c50 0 60 3 61 18 0 9 1 64 2
122 l2 105 135 0 135 0 3 -101 c2 -92 5 -102 22 -107 12 -3 20 -14 20 -26 0
-20 5 -21 110 -21 l110 0 0 75 c0 43 4 75 10 75 6 0 10 -37 10 -91 l0 -91 76
-112 c42 -61 80 -115 84 -119 6 -6 791 100 878 118 20 5 22 11 22 75 l0 70
-185 0 -185 0 0 90 0 90 -415 0 -415 0 0 85 0 85 -250 0 -250 0 0 -50 0 -50
-820 0 -820 0 0 -70 0 -70 -290 0 c-187 0 -290 4 -290 10 0 12 5 12 130 14
l95 1 3 55 c4 86 9 100 47 116 70 29 115 -15 115 -113 l0 -63 85 0 85 0 0 70
0 70 55 0 55 0 0 185 0 185 -294 0 c-254 0 -297 -2 -310 -16 -13 -13 -16 -43
-16 -175 0 -99 -4 -159 -10 -159 -6 0 -10 62 -10 165 0 152 2 167 20 185 19
19 33 20 320 20 l300 0 0 40 0 40 -100 0 c-72 0 -110 -4 -131 -16 -68 -35
-190 -35 -261 0 -21 11 -60 16 -125 16 l-93 0 0 -354z m-430 -976 c-33 -38
-60 -60 -73 -60 -12 0 -17 4 -11 9 73 66 125 111 130 111 3 0 -17 -27 -46 -60z
m53 -8 c-15 -28 -36 -53 -45 -56 -10 -2 -18 -2 -18 0 0 7 84 113 88 110 2 -2
-9 -27 -25 -54z m40 -29 c-3 -19 -11 -33 -19 -33 -18 0 -18 4 2 41 19 37 23
35 17 -8z"/>
<path d="M1800 3980 l0 -40 221 0 c208 0 259 7 176 26 -41 9 -97 35 -97 46 0
4 -67 8 -150 8 l-150 0 0 -40z"/>
<path d="M12360 3680 l0 -340 -38 0 c-27 0 -48 -8 -75 -31 -37 -30 -37 -31
-37 -105 l0 -74 500 0 500 0 0 125 0 125 -80 0 -80 0 0 169 c0 104 4 172 10
176 25 15 49 -13 113 -130 l67 -125 0 -180 0 -180 -1800 0 -1800 0 0 164 c0
140 2 165 16 170 9 3 18 6 20 6 2 0 4 -72 4 -160 l0 -160 30 0 30 0 0 160 0
160 -25 0 c-14 0 -25 5 -25 10 0 6 11 10 25 10 l26 0 -3 123 -3 122 -27 3 -28
3 0 -120 0 -120 -27 -13 -28 -13 -3 -173 -2 -172 -95 0 -95 0 0 181 c0 140 -3
180 -12 177 -10 -4 -14 -51 -16 -181 l-2 -177 -65 0 c-51 0 -65 -3 -65 -15 0
-12 14 -15 65 -15 l65 0 0 -50 c0 -38 -4 -50 -15 -50 -10 0 -15 -10 -15 -34 0
-41 -25 -51 -53 -23 -14 14 -31 17 -75 15 l-57 -3 0 -70 0 -70 61 -3 c45 -2
64 1 74 13 16 19 40 20 40 0 0 -8 9 -15 20 -15 18 0 20 -7 20 -54 0 -29 -7
-70 -15 -89 -8 -20 -15 -39 -15 -42 0 -3 18 -5 40 -5 39 0 40 1 40 35 l0 34
107 3 107 3 28 80 c85 240 81 230 90 205 8 -22 10 -22 116 -16 80 5 125 3 180
-8 40 -9 96 -16 123 -16 l49 0 0 -40 0 -40 95 0 95 0 0 39 0 38 83 6 c45 4 98
11 117 17 19 5 79 10 132 10 l98 0 0 38 c0 21 5 43 12 50 9 9 147 12 558 12
531 0 547 -1 565 -20 11 -13 16 -30 13 -50 l-5 -30 103 0 c57 0 115 -4 129
-10 14 -5 64 -13 111 -16 l84 -7 0 -38 0 -39 95 0 95 0 0 40 0 40 54 0 c30 0
87 7 126 15 46 10 113 14 183 13 85 -2 111 0 110 10 -4 19 14 14 20 -5 3 -10
26 -76 50 -148 l45 -130 111 -3 111 -3 0 -33 c0 -31 3 -34 35 -38 29 -3 35 -1
35 15 0 10 -4 26 -9 35 -5 9 -12 43 -16 75 -6 54 -5 59 14 64 12 3 21 11 21
19 0 24 21 26 41 5 16 -17 32 -21 79 -21 32 0 60 4 62 10 2 5 1 39 0 76 l-4
66 -64 -4 c-48 -3 -67 -9 -79 -23 -15 -20 -15 -20 -30 -1 -8 11 -15 30 -15 43
0 14 -6 23 -15 23 -11 0 -15 12 -15 50 l0 50 70 0 c56 0 70 3 70 15 0 12 -14
15 -70 15 l-70 0 0 181 c0 130 -3 180 -11 177 -8 -3 -11 -57 -10 -181 l2 -177
-95 0 -96 0 0 177 0 176 -56 106 c-90 168 -100 181 -134 181 l-30 0 0 135 0
135 -345 0 -345 0 0 -340z m330 161 c0 -133 1 -131 -82 -131 -68 0 -68 0 -68
124 0 62 3 116 7 119 3 4 37 7 75 7 l68 0 0 -119z m178 0 c2 -85 -1 -117 -10
-123 -7 -4 -41 -8 -75 -8 l-63 0 0 125 0 126 73 -3 72 -3 3 -114z m-3228 -931
c0 -120 -4 -190 -10 -190 -5 0 -10 23 -10 50 l0 50 -90 0 c-53 0 -90 4 -90 10
0 6 37 10 90 10 l90 0 0 60 0 60 -90 0 c-53 0 -90 4 -90 10 0 6 37 10 90 10
l90 0 0 60 c0 33 4 60 10 60 6 0 10 -70 10 -190z m3630 130 l0 -60 90 0 c53 0
90 -4 90 -10 0 -6 -38 -10 -92 -10 l-93 0 -2 -60 -1 -60 88 0 c49 0 92 -4 95
-10 4 -6 -27 -10 -84 -10 l-91 0 0 -50 c0 -27 -4 -50 -10 -50 -5 0 -10 19 -10
43 0 23 -3 108 -7 190 -5 132 -4 147 11 147 13 0 16 -11 16 -60z"/>
<path d="M2283 3943 c15 -2 39 -2 55 0 15 2 2 4 -28 4 -30 0 -43 -2 -27 -4z"/>
<path d="M1800 3735 l0 -186 126 3 126 3 88 160 c48 88 91 170 94 183 l7 22
-220 0 -221 0 0 -185z"/>
<path d="M2255 3893 c-3 -14 -45 -96 -91 -180 -47 -85 -84 -157 -81 -159 2 -2
168 -3 368 -2 l364 3 -190 140 c-104 77 -209 159 -232 183 -37 37 -48 42 -87
42 -39 0 -45 -3 -51 -27z"/>
<path d="M2392 3908 c2 -7 107 -90 233 -185 213 -159 233 -172 273 -173 l42 0
0 185 0 185 -276 0 c-216 0 -275 -3 -272 -12z"/>
<path d="M2960 3735 l0 -185 175 0 175 0 0 50 0 50 270 0 270 0 0 -85 0 -85
50 0 50 0 0 220 0 220 -495 0 -495 0 0 -185z"/>
<path d="M3970 3700 l0 -220 345 0 345 0 0 214 0 213 -37 7 c-21 3 -176 6
-345 6 l-308 0 0 -220z"/>
<path d="M4690 3908 c0 -2 -3 -139 -6 -305 l-5 -303 346 0 345 0 0 205 c0 176
2 205 15 205 13 0 15 -31 15 -220 l0 -220 -25 0 c-24 0 -25 -2 -25 -70 0 -68
1 -70 25 -70 22 0 24 -3 15 -19 -7 -14 -7 -22 1 -27 20 -12 39 27 41 80 1 51
2 51 5 9 2 -24 8 -43 14 -43 5 0 29 -18 52 -40 24 -21 55 -44 70 -49 42 -16
35 -41 -12 -41 -25 0 -41 -5 -45 -15 -4 -12 -25 -15 -101 -15 l-95 0 0 155 0
155 -130 0 -130 0 0 -63 c0 -37 -6 -71 -13 -81 -12 -16 -85 -29 -448 -82 -239
-35 -454 -64 -478 -64 -37 0 -42 -2 -35 -17 4 -10 10 -51 12 -90 3 -65 -8
-128 -34 -190 -4 -10 21 -13 109 -13 124 0 127 1 127 59 0 40 18 51 81 51 31
0 70 5 87 11 31 11 72 63 72 91 0 16 44 60 77 77 12 6 61 11 108 11 120 0 148
-14 185 -96 20 -44 37 -67 59 -78 40 -21 101 -21 101 -1 0 11 11 15 39 15 35
0 42 -5 84 -59 56 -71 102 -96 178 -96 44 0 64 6 97 28 32 21 42 24 42 12 0
-12 15 -15 75 -15 l75 0 0 55 c0 54 1 55 39 75 22 11 42 24 46 30 8 14 365 14
365 0 0 -6 43 -10 110 -10 67 0 110 4 110 10 0 6 80 10 219 10 l220 0 3 -37
c3 -38 4 -38 50 -41 42 -3 47 -6 50 -30 l3 -27 155 0 c152 0 155 0 158 22 3
19 11 22 50 25 l47 3 3 43 3 42 220 0 c139 0 219 -4 219 -10 0 -6 43 -10 110
-10 67 0 110 4 110 10 0 6 85 10 235 10 l235 0 0 -90 0 -90 75 0 c41 0 75 3
75 8 0 4 -11 29 -25 56 -29 57 -31 76 -10 76 8 0 15 5 15 10 0 21 29 21 49 1
16 -16 34 -21 76 -21 l55 0 0 75 0 75 -60 0 c-49 0 -62 -4 -72 -20 -15 -23
-48 -27 -48 -5 0 8 -4 15 -10 15 -5 0 -10 6 -10 14 0 9 -12 16 -32 18 l-33 3
-5 402 c-4 311 -8 405 -18 415 -17 17 -95 17 -115 -1 -11 -9 -17 -29 -17 -57
l0 -44 -396 0 c-454 0 -420 -6 -508 95 -27 32 -64 64 -82 71 -27 11 -153 14
-686 14 -738 0 -694 5 -754 -80 -63 -89 -78 -100 -131 -100 -26 0 -58 -3 -71
-6 l-22 -6 2 -342 3 -341 1365 0 1365 0 0 345 0 345 -30 0 c-27 1 -30 4 -33
33 -4 43 12 62 54 62 23 0 37 -6 44 -20 7 -12 9 -149 8 -402 l-3 -383 -1397
-3 -1398 -2 0 150 0 151 -97 -3 -98 -3 -6 -30 c-4 -16 -7 78 -8 210 -1 200 -4
244 -17 263 -8 12 -22 22 -30 22 -11 0 -14 18 -14 85 l0 85 -340 0 c-187 0
-340 -1 -340 -2z m374 -44 c13 -5 16 -26 16 -125 l0 -120 -87 3 -88 3 -3 109
c-2 71 1 113 9 122 12 14 122 20 153 8z m244 -122 l3 -123 -98 3 -98 3 -2 110
c-1 65 3 115 9 123 8 9 36 12 97 10 l86 -3 3 -123z m212 -926 c0 -38 -5 -48
-36 -76 -43 -38 -73 -50 -121 -50 -34 0 -123 42 -123 58 0 4 -16 24 -35 44
-19 20 -35 38 -35 40 0 2 31 2 70 0 57 -3 71 -1 76 12 5 13 24 16 105 16 l99
0 0 -44z m180 34 c-20 -13 -40 -13 -40 0 0 6 12 10 28 10 21 0 24 -2 12 -10z
m1170 -5 c0 -10 -10 -15 -30 -15 -20 0 -30 5 -30 15 0 10 10 15 30 15 20 0 30
-5 30 -15z m370 -5 c0 -15 -7 -20 -25 -20 -18 0 -25 5 -25 20 0 15 7 20 25 20
18 0 25 -5 25 -20z m1270 -86 c11 -25 20 -46 20 -47 0 -1 -20 -1 -45 1 -45 4
-45 4 -45 41 0 43 5 51 32 51 13 0 25 -15 38 -46z"/>
<path d="M5793 3893 c-15 -5 -19 -173 -5 -173 12 0 45 38 71 82 12 21 39 51
59 68 l37 30 -75 -1 c-41 0 -81 -3 -87 -6z"/>
<path d="M9844 3886 c-3 -8 -4 -31 -2 -52 l3 -39 343 -3 342 -2 0 55 0 55
-340 0 c-282 0 -342 -2 -346 -14z"/>
<path d="M9760 3596 l0 -126 1177 2 1177 3 69 80 c73 85 98 104 135 105 18 0
22 6 22 29 l0 29 -1290 1 -1290 2 0 -125z m200 24 l0 -70 -65 0 -65 0 0 70 0
70 65 0 65 0 0 -70z"/>
<path d="M9850 3620 l0 -50 45 0 45 0 0 50 0 50 -45 0 -45 0 0 -50z"/>
<path d="M12215 3559 c-79 -95 -99 -109 -151 -109 l-44 0 0 -160 0 -160 85 0
85 0 0 73 c0 43 5 80 13 90 23 32 81 67 109 67 l28 0 0 135 0 135 -33 0 c-29
0 -41 -9 -92 -71z"/>
<path d="M1400 3573 c-29 -10 -40 -37 -40 -100 l0 -63 60 0 60 0 0 60 c0 51
-4 65 -25 85 -25 26 -29 27 -55 18z"/>
<path d="M3430 3435 l0 -85 120 0 120 0 0 85 0 85 -120 0 -120 0 0 -85z"/>
<path d="M1762 3398 l3 -83 445 0 445 0 3 83 3 82 -451 0 -451 0 3 -82z"/>
<path d="M2672 3398 c3 -69 6 -83 21 -86 15 -3 17 5 17 66 0 39 3 77 6 86 5
12 0 16 -21 16 l-27 0 4 -82z"/>
<path d="M2734 3467 c-3 -8 -4 -54 -2 -103 3 -89 3 -89 31 -92 l27 -3 0 105 0
106 -25 0 c-14 0 -28 -6 -31 -13z"/>
<path d="M2810 3375 l0 -105 190 0 190 0 0 105 0 105 -190 0 -190 0 0 -105z"/>
<path d="M3210 3375 l0 -106 28 3 27 3 0 100 0 100 -27 3 -28 3 0 -106z"/>
<path d="M9770 3290 l0 -160 175 0 175 0 0 160 0 160 -175 0 -175 0 0 -160z"/>
<path d="M10145 3373 c0 -43 1 -115 3 -160 l2 -83 170 0 169 0 3 160 3 160
-175 0 -176 0 1 -77z"/>
<path d="M10520 3290 l0 -160 175 0 175 0 0 160 0 160 -175 0 -175 0 0 -160z"/>
<path d="M10897 3442 c-3 -4 -4 -75 -4 -157 l2 -150 173 -3 172 -2 0 160 0
160 -169 0 c-94 0 -172 -3 -174 -8z"/>
<path d="M11270 3290 l0 -160 175 0 175 0 0 160 0 160 -175 0 -175 0 0 -160z"/>
<path d="M11650 3290 l0 -160 175 0 175 0 0 160 0 160 -175 0 -175 0 0 -160z"/>
<path d="M3552 3313 l-123 -4 3 -87 3 -87 138 -3 138 -3 -3 93 c-2 74 -6 93
-18 93 -8 1 -70 -1 -138 -2z"/>
<path d="M2470 3225 c0 -25 -2 -45 -4 -45 -2 0 -20 16 -39 35 l-35 35 -204 -2
-203 -3 0 -30 c0 -23 5 -31 23 -33 15 -2 22 2 22 12 0 13 15 16 95 16 52 0 95
-2 95 -4 0 -3 -4 -16 -10 -30 -8 -21 -6 -26 5 -26 9 0 20 11 26 24 15 33 114
53 142 28 26 -23 21 -27 -36 -27 -38 0 -60 -6 -82 -23 l-30 -22 -209 32 c-154
23 -211 28 -214 20 -2 -8 -30 -12 -78 -12 l-74 0 0 -35 0 -35 70 0 69 0 6 -32
c3 -18 10 -73 15 -123 6 -49 13 -102 16 -117 l6 -28 124 0 c101 0 124 3 124
14 0 8 -10 16 -22 19 -21 3 -22 4 -4 12 12 5 114 -9 285 -39 146 -26 353 -62
459 -80 l192 -33 0 27 c0 26 -2 27 -117 48 -65 11 -165 28 -223 37 -58 9 -188
32 -290 50 -102 19 -209 37 -237 41 -29 4 -53 8 -53 10 0 2 9 13 20 24 15 15
33 20 70 20 46 0 50 2 50 25 l0 24 -175 3 -175 3 0 -30 c0 -24 6 -33 30 -43
37 -17 30 -32 -14 -32 l-33 0 -9 99 c-8 91 -8 100 8 105 10 2 18 14 18 26 0
18 4 20 33 15 17 -3 88 -14 157 -26 69 -11 172 -24 230 -27 l105 -7 -3 -65
c-2 -43 1 -70 10 -81 10 -12 73 -24 258 -49 319 -42 313 -40 335 -91 11 -23
18 -56 17 -74 -4 -60 60 -89 92 -43 22 30 21 32 -19 77 -19 21 -44 59 -55 84
-20 45 -22 46 -63 45 -53 -2 -519 62 -531 72 -4 4 -1 33 8 63 l16 55 115 7
116 7 -3 87 -3 86 -107 3 -108 3 0 -46z m175 -21 c0 -29 -1 -29 -67 -32 l-68
-3 0 36 0 36 68 -4 c66 -5 67 -5 67 -33z m-683 -362 c9 -9 -2 -12 -45 -12 -49
0 -57 3 -57 18 0 17 5 18 45 12 26 -4 51 -12 57 -18z"/>
<path d="M1267 3234 c-4 -4 -7 -115 -7 -246 l0 -238 160 0 160 0 -2 243 -3
242 -151 3 c-82 1 -153 -1 -157 -4z"/>
<path d="M1201 3216 c-8 -9 -11 -43 -9 -93 3 -72 5 -78 26 -81 21 -3 22 -1 22
92 0 75 -3 96 -14 96 -7 0 -19 -6 -25 -14z"/>
<path d="M1594 3217 c-3 -8 -4 -49 -2 -93 3 -73 5 -79 26 -82 21 -3 22 -1 22
86 0 73 -3 91 -16 96 -22 8 -24 8 -30 -7z"/>
<path d="M2953 3172 c-95 -34 -165 -96 -199 -177 -19 -46 -18 -62 5 -68 15 -4
23 5 37 41 51 133 202 203 347 160 62 -19 142 -98 167 -166 22 -57 24 -148 5
-194 -6 -14 -2 -18 19 -18 31 0 40 26 40 115 0 173 -130 312 -302 322 -48 2
-82 -2 -119 -15z"/>
<path d="M3734 3177 c-10 -26 5 -37 49 -37 53 0 132 -37 176 -81 52 -52 75
-112 75 -194 0 -83 -23 -144 -78 -198 -53 -54 -91 -70 -176 -75 -63 -4 -85 0
-127 18 -28 12 -59 30 -69 41 -10 11 -30 19 -48 19 l-30 0 35 -36 c18 -20 57
-48 84 -62 43 -23 62 -27 140 -27 101 0 143 16 216 82 204 184 90 527 -185
559 -46 6 -57 4 -62 -9z"/>
<path d="M2962 3107 c-62 -20 -136 -97 -157 -166 -7 -23 -6 -24 46 -19 36 4
63 1 81 -8 15 -8 39 -11 55 -8 33 6 43 -3 63 -56 14 -37 57 -90 73 -90 5 0 7
7 3 15 -7 20 7 19 54 -5 22 -11 52 -20 67 -20 24 0 18 6 -41 42 -81 48 -76 56
37 57 52 1 67 4 67 16 0 11 -19 15 -87 17 l-88 3 53 30 c72 40 99 62 89 71 -4
4 -41 -9 -82 -29 -41 -20 -75 -32 -75 -27 0 5 14 32 30 59 20 32 40 51 58 56
l27 7 -29 23 c-53 43 -165 58 -244 32z m149 -119 c-22 -36 -34 -39 -40 -12 -3
19 23 44 47 44 11 0 9 -8 -7 -32z m-71 -18 c0 -11 -4 -20 -10 -20 -5 0 -10 2
-10 4 0 2 -3 11 -6 20 -4 11 -1 16 10 16 9 0 16 -8 16 -20z m-57 -20 c6 -24
-24 -28 -42 -6 -12 14 -6 18 30 25 4 0 9 -8 12 -19z"/>
<path d="M3678 3106 c-55 -20 -85 -42 -118 -88 l-30 -42 70 -39 c38 -21 70
-43 70 -48 0 -5 -36 -9 -80 -9 -64 0 -80 -3 -80 -15 0 -12 16 -15 81 -15 97 0
99 -9 13 -60 -47 -28 -55 -35 -37 -38 12 -2 44 8 72 22 61 31 65 32 51 5 -16
-28 -6 -34 29 -20 57 24 82 12 121 -56 19 -34 41 -63 48 -63 17 0 16 3 -25 79
-21 38 -35 72 -32 76 4 3 33 -10 66 -29 68 -40 88 -46 88 -28 0 7 -29 30 -65
50 -36 21 -65 42 -65 48 0 5 37 10 83 12 60 2 82 6 79 15 -2 8 -35 14 -88 17
l-84 5 35 21 c19 12 54 32 78 44 23 13 42 27 42 31 0 21 -24 15 -90 -21 -40
-22 -74 -40 -76 -40 -12 0 1 33 35 90 37 61 42 80 22 80 -5 0 -27 -31 -50 -70
-23 -38 -46 -70 -51 -70 -6 0 -10 29 -10 64 0 61 1 64 30 76 16 7 27 16 24 21
-8 14 -114 10 -156 -5z m72 -96 c0 -33 -4 -60 -9 -60 -5 0 -23 22 -40 49 l-30
50 27 10 c49 18 52 15 52 -49z m-75 -26 c15 -25 24 -48 21 -52 -8 -7 -126 49
-126 60 0 9 50 37 67 38 6 0 23 -21 38 -46z"/>
<path d="M1982 3068 c2 -35 7 -44 25 -46 35 -5 57 59 28 80 -5 4 -20 8 -33 8
-21 0 -23 -4 -20 -42z"/>
<path d="M3531 3085 c-64 -55 -105 -194 -84 -290 7 -34 13 -41 36 -43 26 -3
27 -2 20 25 -4 15 -8 60 -8 98 1 58 5 79 30 124 16 29 45 66 64 82 l36 29 -32
0 c-19 0 -43 -10 -62 -25z"/>
<path d="M2070 3058 l-20 -33 21 -3 c20 -4 79 41 79 60 0 4 -14 8 -30 8 -23 0
-35 -7 -50 -32z"/>
<path d="M2159 3063 c-37 -43 -35 -46 19 -39 l51 7 21 -43 c11 -23 20 -46 20
-50 0 -5 -20 -6 -45 -2 -25 3 -45 3 -45 0 0 -17 95 -46 210 -64 206 -34 200
-33 200 -11 0 16 -7 19 -50 19 -82 0 -142 20 -154 53 -6 15 -16 27 -23 27 -7
0 -13 19 -15 53 -4 68 -22 63 -28 -9 -5 -53 -6 -55 -21 -38 -23 28 -51 75 -47
79 2 2 15 8 28 14 25 10 25 10 -5 10 -16 1 -46 4 -65 7 -27 4 -39 1 -51 -13z"/>
<path d="M2560 3028 c16 -22 30 -47 30 -55 0 -13 48 -38 57 -29 8 8 -17 73
-38 100 -14 17 -30 26 -50 26 l-29 0 30 -42z"/>
<path d="M2630 3061 c0 -16 44 -116 55 -123 18 -13 35 -8 35 10 0 10 11 41 25
68 14 27 25 50 25 52 0 1 -31 2 -70 2 -38 0 -70 -4 -70 -9z"/>
<path d="M3362 3005 c29 -62 30 -72 26 -160 l-4 -95 28 0 c26 0 28 2 21 28 -5
15 -7 60 -6 101 1 59 7 86 31 133 l29 58 -78 0 -78 0 31 -65z"/>
<path d="M2466 3044 c-9 -24 -2 -26 12 -4 7 11 8 20 3 20 -5 0 -12 -7 -15 -16z"/>
<path d="M10902 3018 c-7 -7 -12 -29 -12 -50 0 -32 4 -40 26 -48 15 -6 227
-10 532 -10 443 0 510 2 530 16 24 16 29 53 12 85 -10 18 -27 19 -543 19 -401
0 -536 -3 -545 -12z"/>
<path d="M1597 3013 c-7 -11 -7 -182 0 -226 5 -36 6 -37 24 -21 16 14 19 32
19 98 0 103 -9 156 -26 156 -7 0 -15 -3 -17 -7z"/>
<path d="M1200 2896 c0 -91 3 -118 16 -130 8 -9 17 -16 20 -16 2 0 4 59 4 130
0 123 -1 130 -20 130 -19 0 -20 -7 -20 -114z"/>
<path d="M1660 2975 c0 -24 2 -25 70 -25 68 0 70 1 70 25 0 24 -2 25 -70 25
-68 0 -70 -1 -70 -25z"/>
<path d="M2515 2979 l-30 -19 43 0 c35 0 43 3 40 17 -4 23 -19 24 -53 2z"/>
<path d="M4613 2944 c-22 -11 -37 -29 -49 -59 -9 -24 -31 -57 -49 -75 -30 -29
-41 -33 -112 -39 l-78 -6 -6 -43 c-3 -23 -3 -44 -1 -47 3 -3 53 -5 111 -5
l106 0 16 -33 c9 -17 34 -45 57 -61 95 -67 246 -35 297 65 14 26 20 28 78 31
l62 3 3 46 3 46 -39 5 c-58 8 -89 34 -119 99 -20 43 -36 63 -59 74 -44 20
-178 20 -221 -1z m165 -114 l32 0 0 -80 0 -80 30 0 c27 0 29 -2 19 -18 -23
-37 -77 -64 -127 -64 -52 0 -83 11 -119 45 -30 27 -29 37 2 37 24 0 25 2 25
75 0 85 11 99 70 90 19 -2 50 -5 68 -5z"/>
<path d="M4668 2814 c-5 -4 -8 -40 -8 -81 l0 -73 65 0 65 0 0 75 c0 71 -1 75
-22 75 -13 0 -39 3 -58 6 -19 3 -38 2 -42 -2z"/>
<path d="M9890 2902 l-35 -16 115 -6 c87 -4 121 -9 140 -22 29 -21 74 -24 67
-5 -2 6 -17 11 -33 10 -15 -1 -35 4 -44 11 -53 47 -146 59 -210 28z"/>
<path d="M10650 2913 c-8 -3 -26 -14 -40 -24 -14 -9 -41 -19 -60 -21 -18 -2
-35 -9 -38 -15 -6 -19 34 -16 71 5 23 12 64 19 142 22 l110 6 -37 17 c-36 16
-116 22 -148 10z"/>
<path d="M12085 2903 l-30 -18 105 -5 c73 -3 115 -10 137 -22 41 -23 85 -24
76 -2 -3 9 -15 14 -32 12 -15 -1 -44 8 -66 22 -52 32 -146 38 -190 13z"/>
<path d="M12840 2907 c-14 -8 -36 -20 -50 -27 -14 -8 -38 -15 -54 -15 -16 0
-31 -6 -33 -12 -7 -19 33 -16 70 5 23 12 64 18 142 22 l110 5 -32 18 c-38 20
-117 22 -153 4z"/>
<path d="M1660 2880 c0 -18 7 -20 73 -20 78 0 89 4 80 26 -4 10 -25 14 -79 14
-67 0 -74 -2 -74 -20z"/>
<path d="M11060 2755 l0 -135 383 2 382 3 3 133 3 132 -386 0 -385 0 0 -135z"/>
<path d="M2617 2873 c-4 -3 -7 -15 -7 -25 0 -13 7 -18 25 -18 29 0 36 34 9 44
-19 7 -19 7 -27 -1z"/>
<path d="M2680 2846 c0 -19 5 -26 20 -26 16 0 18 4 11 22 -12 32 -31 34 -31 4z"/>
<path d="M2732 2838 c2 -15 11 -24 26 -26 20 -3 23 0 20 20 -2 15 -11 24 -26
26 -20 3 -23 0 -20 -20z"/>
<path d="M9788 2853 c-35 -3 -48 -9 -53 -23 -11 -36 -7 -127 9 -164 15 -36 15
-38 -4 -43 -11 -3 -20 -12 -20 -19 0 -10 14 -14 53 -14 34 0 63 -7 84 -20 18
-10 47 -23 65 -29 21 -6 -281 -9 -862 -9 -695 0 -888 2 -865 11 56 22 73 37
95 82 65 135 -69 269 -208 209 -57 -25 -422 -26 -474 -2 -110 52 -228 -19
-228 -137 0 -75 40 -134 105 -154 19 -6 -144 -9 -455 -9 -357 0 -476 3 -452
11 104 33 144 165 75 247 -50 60 -118 76 -191 44 -29 -13 -78 -17 -237 -18
-179 -2 -205 0 -243 17 -52 23 -121 19 -161 -10 -31 -23 -71 -97 -71 -134 0
-47 42 -111 90 -136 l43 -23 -2806 0 -2807 0 0 -30 0 -30 6770 0 6770 0 0 30
0 30 -437 1 c-392 0 -434 2 -399 15 21 8 46 20 54 26 8 7 42 15 75 18 36 3 62
10 65 18 2 7 -5 12 -17 12 -25 0 -25 -4 -5 54 17 50 15 149 -5 169 -5 5 -77
12 -159 15 -140 4 -153 3 -192 -17 -38 -20 -55 -21 -252 -21 -196 0 -215 2
-256 22 -42 20 -54 21 -195 15 -83 -4 -155 -11 -160 -16 -10 -10 -4 -162 8
-199 5 -16 4 -22 -6 -20 -7 2 -15 -5 -17 -14 -3 -15 4 -18 47 -18 38 0 66 -8
108 -30 l56 -30 -683 0 -683 0 49 26 c29 16 73 29 108 33 34 3 61 11 64 19 2
7 -5 12 -17 12 -25 0 -25 -4 -5 54 15 45 17 157 2 171 -3 3 -75 9 -161 12
-146 6 -158 5 -196 -15 -39 -21 -56 -22 -252 -22 -190 0 -213 2 -249 20 -33
17 -57 20 -152 18 -62 -1 -134 -3 -160 -5z m38 -78 c9 -13 21 -48 28 -77 l11
-53 94 -3 c78 -2 95 0 105 14 12 16 15 15 40 -1 23 -15 58 -19 235 -23 201 -5
211 -4 244 17 41 25 47 26 47 6 0 -12 18 -15 98 -15 l99 0 12 55 c12 54 52
117 66 103 4 -3 -2 -19 -13 -35 -11 -15 -28 -54 -36 -85 l-17 -58 -109 0 c-63
0 -111 4 -115 10 -4 6 -12 7 -18 3 -7 -4 -32 -10 -57 -13 -56 -6 -55 -23 2
-30 24 -3 68 -18 98 -33 l55 -27 -350 1 c-198 0 -338 4 -323 9 15 4 40 17 56
28 15 12 48 22 72 24 60 4 66 28 8 28 -24 0 -50 6 -57 13 -11 10 -14 10 -18 0
-3 -9 -36 -13 -114 -13 l-110 0 -15 35 c-7 19 -14 43 -14 53 0 11 -9 31 -20
45 -11 14 -20 30 -20 36 0 19 19 12 36 -14z m2215 -65 l21 -70 90 0 c74 0 93
3 103 17 12 16 14 16 41 -3 27 -17 48 -19 245 -19 193 0 219 2 236 18 24 21
43 22 43 2 0 -13 15 -15 96 -13 l96 3 18 58 c18 56 43 97 62 97 14 0 9 -19
-11 -39 -11 -11 -25 -39 -31 -63 -18 -74 -16 -73 -130 -76 -56 -1 -107 2 -114
7 -7 6 -17 6 -26 1 -8 -6 -32 -10 -52 -10 -27 0 -38 -4 -38 -15 0 -11 11 -15
39 -15 24 0 61 -12 96 -30 l57 -30 -348 1 c-260 0 -341 3 -319 11 17 6 42 19
56 29 14 10 45 19 69 21 60 4 66 28 8 28 -24 0 -50 6 -56 12 -10 10 -14 10
-21 0 -6 -9 -36 -12 -117 -10 l-109 3 -22 70 c-13 38 -27 71 -33 73 -5 2 -10
10 -10 18 0 12 4 12 20 4 12 -7 27 -36 41 -80z m-6116 60 c-3 -5 -17 -10 -31
-10 -13 0 -24 5 -24 10 0 6 14 10 31 10 17 0 28 -4 24 -10z m193 -24 c4 -36
-5 -76 -18 -76 -14 0 -52 80 -46 97 4 9 16 13 33 11 22 -2 29 -9 31 -32z m269
26 c10 -6 8 -19 -10 -52 -32 -65 -47 -63 -47 4 0 51 2 56 23 56 12 0 28 -4 34
-8z m183 -2 c0 -5 -13 -10 -30 -10 -16 0 -30 5 -30 10 0 6 14 10 30 10 17 0
30 -4 30 -10z m979 6 c-12 -10 -60 -16 -54 -6 3 5 18 10 32 10 15 0 24 -2 22
-4z m189 -54 c4 -65 -18 -71 -48 -12 -25 48 -25 57 -2 63 39 11 47 3 50 -51z
m276 49 c7 -11 -36 -94 -51 -99 -9 -3 -13 12 -13 52 0 55 0 56 29 56 17 0 32
-4 35 -9z m164 2 c-10 -2 -26 -2 -35 0 -10 3 -2 5 17 5 19 0 27 -2 18 -5z
m-1589 -139 c-13 -16 -91 -19 -120 -4 -11 6 -19 21 -19 35 0 32 -10 31 -38 -5
-17 -22 -21 -34 -13 -47 14 -28 53 -59 86 -71 22 -8 -44 -11 -260 -11 l-289
-1 43 23 c24 12 51 34 60 49 15 27 15 29 -17 60 l-32 33 0 -26 c0 -14 -5 -30
-12 -37 -16 -16 -110 -16 -126 0 -14 14 -16 118 -2 118 6 0 10 -25 10 -55 l0
-55 55 0 55 0 0 39 c0 22 4 42 9 45 4 3 34 -22 66 -55 l58 -61 121 1 121 1 53
60 c30 33 57 60 62 60 5 0 10 -19 12 -42 l3 -43 53 -3 52 -3 0 45 c0 71 15 90
18 23 2 -35 -2 -64 -9 -73z m946 6 c54 0 55 1 55 29 0 66 9 66 80 -3 l67 -65
114 6 114 5 55 59 c31 33 59 59 62 59 4 0 8 -19 10 -42 l3 -43 53 -3 52 -3 1
43 c1 72 17 92 18 23 1 -35 -4 -66 -11 -73 -16 -16 -110 -16 -126 0 -7 7 -12
23 -12 37 l0 25 -30 -29 c-16 -16 -30 -34 -30 -40 0 -16 60 -72 90 -84 17 -7
-61 -10 -260 -10 l-284 -1 44 23 c25 12 51 34 59 48 14 24 13 29 -10 57 -29
37 -39 40 -39 9 0 -35 -19 -47 -75 -47 -28 0 -56 5 -63 12 -13 13 -17 110 -4
122 4 4 8 -20 10 -53 l3 -61 54 0z"/>
<path d="M966 2840 c-67 -21 -115 -102 -102 -172 15 -80 74 -128 158 -128 149
0 203 191 78 281 -30 22 -95 31 -134 19z m107 -102 c9 -11 17 -31 17 -45 0
-30 -42 -73 -72 -73 -57 0 -93 61 -63 107 30 46 83 51 118 11z"/>
<path d="M980 2730 c-24 -24 -25 -38 -4 -68 27 -39 94 -19 94 29 0 23 -34 59
-55 59 -8 0 -24 -9 -35 -20z"/>
<path d="M1731 2818 c-40 -27 -71 -81 -71 -124 0 -46 40 -114 80 -135 49 -26
119 -25 161 4 60 40 86 128 58 191 -10 22 -19 25 -72 28 -56 3 -62 5 -67 28
-8 34 -46 37 -89 8z m149 -94 c18 -32 4 -73 -32 -93 -57 -33 -123 28 -98 89
22 54 102 56 130 4z"/>
<path d="M1780 2730 c-24 -24 -25 -38 -4 -68 27 -39 94 -19 94 29 0 23 -34 59
-55 59 -8 0 -24 -9 -35 -20z"/>
<path d="M2913 2806 c-44 -21 -25 -32 35 -20 21 4 29 11 25 20 -6 16 -28 16
-60 0z"/>
<path d="M2168 2782 c-45 -25 -63 -52 -35 -52 20 1 128 66 120 73 -12 13 -38
6 -85 -21z"/>
<path d="M2242 2723 c-23 -42 -40 -78 -38 -81 13 -12 35 11 65 67 28 54 36 61
62 61 17 0 39 -5 50 -11 11 -6 25 -9 32 -6 20 6 -36 35 -83 41 l-45 6 -43 -77z"/>
<path d="M2045 2743 c83 -200 320 -265 489 -136 27 21 51 44 54 51 6 19 -53
15 -69 -5 -8 -9 -36 -27 -64 -39 -134 -63 -298 -3 -363 132 -11 24 -22 34 -39
34 -23 0 -23 0 -8 -37z"/>
<path d="M2480 2760 c8 -5 26 -9 40 -9 l25 1 -25 8 c-14 4 -32 8 -40 9 -13 1
-13 0 0 -9z"/>
<path d="M2322 2753 c-18 -7 -33 -39 -26 -58 11 -29 41 -37 73 -20 24 12 76
15 278 16 244 1 247 1 178 16 -39 8 -153 17 -255 20 -135 4 -190 9 -204 19
-22 15 -24 15 -44 7z"/>
<path d="M3725 2740 c-4 -6 -115 -10 -301 -10 -287 0 -294 0 -294 -20 0 -20 7
-20 289 -20 256 0 293 -2 319 -17 29 -17 31 -17 51 1 38 34 21 76 -30 76 -15
0 -31 -4 -34 -10z"/>
<path d="M1190 2693 c0 -23 -3 -48 -6 -57 -5 -14 19 -16 230 -16 l237 0 -7 53
c-4 28 -7 53 -8 54 -1 1 -102 3 -224 5 l-222 3 0 -42z"/>
<path d="M2440 2656 c0 -18 17 -29 30 -21 8 5 7 11 -1 21 -15 18 -29 18 -29 0z"/>
<path d="M2829 2636 c53 -55 125 -88 201 -94 98 -7 166 16 232 78 52 48 52 49
25 50 -16 0 -43 -11 -61 -25 -52 -39 -104 -57 -171 -56 -71 0 -100 9 -160 51
-24 17 -56 30 -71 30 l-28 0 33 -34z"/>
<path d="M2924 2659 c-3 -6 -1 -16 5 -22 9 -9 14 -8 21 3 5 8 10 18 10 23 0
11 -28 8 -36 -4z"/>
<path d="M3160 2650 c12 -22 30 -18 30 6 0 8 -9 14 -20 14 -18 0 -19 -3 -10
-20z"/>
<path d="M3633 2655 c-3 -9 -3 -18 0 -21 9 -9 27 6 27 22 0 19 -19 18 -27 -1z"/>
<path d="M2330 2626 c0 -14 5 -26 10 -26 6 0 10 7 10 15 0 8 0 18 1 22 0 4 -4
9 -10 11 -6 2 -11 -8 -11 -22z"/>
<path d="M3756 2643 c-12 -12 -6 -43 9 -43 8 0 15 9 15 19 0 21 -13 34 -24 24z"/>
<path d="M3040 2620 c0 -11 7 -20 15 -20 8 0 15 9 15 20 0 11 -7 20 -15 20 -8
0 -15 -9 -15 -20z"/>
<path d="M4280 2052 c0 -37 -1 -38 -92 -87 -51 -27 -115 -61 -141 -77 -26 -15
-58 -28 -71 -28 -18 0 -29 -10 -45 -42 l-21 -42 33 -36 c17 -19 52 -57 77 -83
40 -43 43 -49 28 -58 -10 -6 -18 -21 -18 -34 0 -23 -4 -25 -50 -25 -49 0 -52
1 -78 45 l-27 44 -150 1 -150 0 0 -87 0 -88 -945 -6 c-520 -3 -960 -9 -978
-14 -18 -4 -35 -11 -38 -16 -3 -5 773 -8 1853 -7 l1858 3 0 30 c0 25 -14 41
-95 107 l-95 78 -210 0 -211 0 -62 -45 c-53 -39 -68 -45 -110 -45 -47 0 -49 1
-44 25 3 17 -1 27 -12 31 -9 3 -16 12 -16 20 0 21 -40 17 -40 -3 -1 -17 -2
-17 -15 0 -10 14 -21 17 -42 13 -22 -5 -45 3 -103 37 -177 101 -260 152 -260
157 0 7 371 220 383 220 4 0 7 -9 7 -20 0 -11 5 -20 10 -20 6 0 10 20 10 45 0
49 -3 51 -39 31 -24 -13 -67 -10 -77 5 -12 20 -24 6 -24 -29z m45 -12 c-3 -5
-10 -10 -16 -10 -5 0 -9 5 -9 10 0 6 7 10 16 10 8 0 12 -4 9 -10z m-216 -327
c75 -47 145 -92 156 -100 17 -11 8 -13 -72 -13 l-91 0 -82 90 c-74 81 -89 110
-58 110 6 0 72 -39 147 -87z m296 -173 c-7 -12 -189 -12 -255 -1 -33 6 -3 9
108 10 100 1 151 -2 147 -9z"/>
<path d="M9577 1684 c-4 -4 5 -20 18 -36 20 -24 25 -40 25 -88 0 -38 -4 -60
-12 -63 -10 -3 -10 -9 0 -26 14 -25 16 -111 2 -111 -5 0 -10 -9 -10 -20 0 -11
5 -20 10 -20 6 0 10 -22 10 -50 0 -27 -4 -50 -10 -50 -5 0 -10 -9 -10 -20 0
-11 5 -20 10 -20 14 0 12 -94 -2 -108 -9 -9 -9 -15 0 -24 16 -16 15 -83 0
-109 -10 -17 -10 -23 0 -26 7 -3 12 -24 12 -54 0 -27 -6 -59 -12 -70 -10 -17
-10 -23 0 -26 7 -3 12 -23 12 -49 0 -37 -3 -44 -19 -44 -10 0 -21 7 -25 15 -7
19 -122 22 -129 3 -4 -10 -6 -10 -6 0 -1 19 -117 17 -125 -3 -5 -13 -234 -15
-1926 -15 -1701 0 -1921 2 -1926 15 -8 21 -117 21 -134 0 -10 -12 -67 -15
-365 -17 l-352 -3 46 -77 46 -78 180 0 c165 0 189 2 270 26 50 14 99 34 110
43 30 27 53 32 69 16 20 -21 122 -20 130 0 10 26 26 16 26 -16 0 -65 8 -69
141 -69 l120 0 17 32 c9 17 31 48 49 67 l31 36 84 -1 c46 -1 96 -6 111 -13 37
-15 267 -14 304 0 15 7 69 12 118 13 114 1 136 -11 176 -100 l29 -64 719 0
719 0 17 50 c19 59 69 106 121 116 45 8 166 -1 193 -15 31 -17 240 -13 311 5
73 18 174 11 204 -15 10 -9 29 -37 42 -63 l24 -48 118 0 c78 0 122 4 130 12 7
7 12 29 12 50 0 31 4 38 19 38 10 0 21 -7 25 -15 4 -11 21 -15 61 -15 50 0 55
2 56 23 l0 22 9 -22 c8 -20 17 -23 64 -23 39 0 55 4 60 15 4 10 20 15 51 15
38 0 45 -3 45 -19 0 -38 11 -51 45 -51 28 0 32 -3 28 -19 -13 -50 40 -127 102
-149 21 -7 -773 -11 -2655 -11 l-2684 -1 44 23 c33 16 51 34 68 67 38 73 19
141 -52 194 -26 20 -42 21 -399 24 -251 2 -384 0 -410 -8 -54 -16 -97 -78 -97
-140 0 -61 31 -108 90 -137 l44 -23 -904 0 -905 1 45 22 c88 45 114 156 52
229 -48 57 -57 58 -459 58 -339 0 -371 -1 -403 -19 -112 -59 -107 -210 10
-269 l44 -22 -502 0 -502 0 0 -30 0 -30 6770 0 6770 0 0 30 0 30 -134 0 c-126
0 -135 -1 -141 -20 -8 -26 -22 -26 -30 0 -6 19 -16 20 -348 21 -244 1 -332 4
-307 11 41 11 80 45 80 68 0 9 -9 25 -21 36 -17 16 -22 16 -29 4 -6 -8 -10
-18 -10 -22 0 -13 -85 -9 -98 4 -7 7 -11 28 -11 48 l2 35 6 -35 c6 -33 9 -35
46 -38 36 -3 42 0 50 23 l10 26 57 -50 56 -51 89 0 89 0 49 50 c54 55 65 60
65 30 0 -28 40 -46 69 -31 35 19 26 50 -19 69 -22 9 -40 19 -40 22 0 3 24 16
53 30 35 17 53 32 55 46 2 15 8 20 21 17 11 -3 24 5 35 21 l16 26 -55 0 -55 0
0 431 c0 284 3 428 10 424 6 -3 10 -15 10 -26 0 -17 7 -19 60 -19 53 0 60 2
60 19 0 11 4 22 10 26 6 3 10 -141 12 -387 l3 -393 25 -49 25 -49 5 39 c4 34
8 39 28 36 l22 -3 0 376 c0 248 3 374 10 370 6 -3 10 -17 10 -30 0 -13 5 -27
10 -30 6 -4 10 24 10 75 0 61 -3 81 -12 77 -7 -2 -13 -16 -13 -30 -1 -14 -4
-29 -8 -33 -4 -4 -7 -2 -7 4 0 7 -4 12 -10 12 -5 0 -10 -7 -10 -15 0 -8 -6
-15 -13 -15 -20 0 -21 77 -2 116 9 19 20 34 25 34 6 0 10 7 10 15 0 13 -231
15 -2023 15 -1113 0 -2027 -3 -2030 -6z m353 -29 c0 -13 -24 -15 -160 -15
-136 0 -160 2 -160 15 0 13 24 15 160 15 136 0 160 -2 160 -15z m330 1 c0 -12
-25 -15 -140 -15 -129 0 -152 4 -133 22 3 4 66 7 140 7 109 0 133 -3 133 -14z
m330 0 c0 -12 -25 -15 -140 -15 -115 0 -140 3 -140 15 0 11 25 14 140 14 115
0 140 -3 140 -14z m330 0 c0 -12 -25 -15 -140 -15 -115 0 -140 3 -140 15 0 11
25 14 140 14 115 0 140 -3 140 -14z m327 -3 c3 -9 -32 -12 -136 -12 -117 0
-141 3 -141 15 0 12 22 14 137 12 94 -2 138 -7 140 -15z m326 2 c1 -6 -50 -11
-135 -12 -116 -2 -138 0 -138 13 0 12 21 14 135 12 79 -2 136 -7 138 -13z
m330 0 c1 -6 -50 -11 -135 -12 -116 -2 -138 0 -138 13 0 12 21 14 135 12 79
-2 136 -7 138 -13z m334 -2 c3 -8 -34 -11 -136 -11 -116 0 -141 2 -141 14 0
12 23 14 137 12 93 -2 138 -7 140 -15z m323 3 c0 -12 -24 -15 -135 -15 -111 0
-135 3 -135 15 0 11 24 14 135 14 111 0 135 -3 135 -14z m333 -1 c1 -6 -50
-11 -135 -12 -116 -2 -138 0 -138 13 0 12 21 14 135 12 79 -2 136 -7 138 -13z
m334 -2 c3 -9 -32 -12 -136 -12 -117 0 -141 3 -141 15 0 12 22 14 137 12 94
-2 138 -7 140 -15z m83 2 c0 -8 -9 -15 -20 -15 -20 0 -26 11 -13 23 12 13 33
7 33 -8z m288 3 c-5 -15 -68 -24 -68 -10 0 15 13 22 43 22 18 0 27 -4 25 -12z
m-928 -58 c6 -4 10 -18 8 -31 -2 -20 -9 -24 -45 -27 l-43 -3 0 -395 0 -394 45
0 c43 0 45 -1 45 -30 0 -29 -2 -30 -47 -31 -662 -7 -1418 -7 -1428 1 -18 15
-6 60 16 60 17 0 19 8 19 65 0 63 -1 65 -25 65 -14 0 -25 5 -25 10 0 6 11 10
25 10 l25 0 0 320 0 320 -25 0 c-21 0 -25 5 -25 28 0 16 2 31 5 34 8 8 1461 6
1475 -2z m-2680 -455 c0 -277 -3 -425 -10 -425 -7 0 -10 148 -10 425 0 277 3
425 10 425 7 0 10 -148 10 -425z m320 5 c0 -273 -3 -420 -10 -420 -7 0 -10
147 -10 420 0 273 3 420 10 420 7 0 10 -147 10 -420z m327 -2 c-2 -327 -5
-422 -14 -425 -10 -4 -13 85 -13 421 0 366 2 426 15 426 12 0 14 -58 12 -422z
m321 0 c-2 -276 -6 -422 -13 -421 -6 2 -11 154 -13 423 -2 370 0 420 13 420
13 0 15 -50 13 -422z m1952 2 c0 -273 -3 -420 -10 -420 -7 0 -10 147 -10 420
0 273 3 420 10 420 7 0 10 -147 10 -420z m320 -5 c0 -277 -3 -425 -10 -425 -7
0 -10 148 -10 425 0 277 3 425 10 425 7 0 10 -148 10 -425z m370 264 c0 -31
-4 -48 -10 -44 -5 3 -10 26 -10 51 0 24 5 44 10 44 6 0 10 -23 10 -51z m0
-140 c0 -31 -4 -48 -10 -44 -17 11 -12 95 7 95 2 0 3 -23 3 -51z m0 -140 c0
-31 -4 -48 -10 -44 -17 11 -12 95 7 95 2 0 3 -23 3 -51z m-3745 -79 c-3 -5
-42 -10 -86 -10 -46 0 -79 4 -79 10 0 6 35 10 86 10 54 0 83 -4 79 -10z m3745
-55 c0 -25 -4 -45 -10 -45 -5 0 -10 20 -10 45 0 25 5 45 10 45 6 0 10 -20 10
-45z m0 -141 c0 -34 -4 -53 -10 -49 -18 11 -12 105 7 105 2 0 3 -25 3 -56z
m-3745 -4 c4 -6 -27 -10 -85 -10 -58 0 -89 4 -85 10 3 6 42 10 85 10 43 0 82
-4 85 -10z m-72 -255 c-34 -30 -96 -35 -91 -7 2 10 14 18 33 20 16 2 41 16 55
30 25 27 25 27 28 5 2 -15 -6 -31 -25 -48z m170 45 c32 -17 56 -20 172 -20
113 0 143 3 187 21 81 32 155 23 274 -35 l96 -46 282 0 c208 0 285 -3 294 -12
15 -15 119 -15 135 1 7 7 49 11 109 11 91 0 98 -1 98 -20 0 -19 7 -20 130 -20
123 0 130 1 130 20 0 20 7 20 289 20 265 0 293 2 335 19 25 11 74 25 108 31
35 6 94 21 131 32 75 22 135 20 187 -7 43 -22 289 -21 332 1 38 20 119 24 125
6 3 -8 -8 -12 -39 -12 -24 0 -54 -7 -66 -16 -32 -22 -344 -21 -376 1 -11 8
-41 15 -67 15 -123 0 -180 -136 -93 -224 15 -14 41 -30 58 -35 19 -6 -446 -9
-1184 -10 -1059 0 -1210 2 -1175 14 60 21 95 65 95 121 0 25 -7 58 -15 74 -30
58 -118 80 -185 46 -46 -22 -345 -23 -374 -1 -11 8 -39 15 -63 15 -32 0 -43 4
-43 15 0 22 67 19 113 -5z m1294 -42 c-3 -10 -70 -13 -290 -13 -215 0 -289 3
-299 13 -10 9 49 12 291 12 238 0 302 -3 298 -12z m353 -3 c0 -13 -15 -15 -97
-13 -66 2 -98 7 -101 16 -3 9 21 12 97 12 84 0 101 -3 101 -15z m865 2 c-14
-8 -105 -13 -312 -15 -262 -3 -293 -2 -293 12 0 14 34 16 313 16 250 -1 308
-3 292 -13z m-2425 -82 c0 -25 -2 -45 -4 -45 -7 0 -46 67 -46 79 0 6 11 11 25
11 23 0 25 -4 25 -45z m240 39 c0 -13 -44 -84 -52 -84 -4 0 -8 20 -8 45 0 43
1 45 30 45 17 0 30 -3 30 -6z m2704 -10 c9 -24 7 -62 -4 -69 -10 -6 -34 27
-45 63 -5 19 -3 22 18 22 14 0 28 -7 31 -16z m226 -3 c0 -11 -11 -33 -25 -48
l-24 -28 -1 48 c0 44 2 47 25 47 18 0 25 -5 25 -19z m-3376 -43 c6 -25 11 -28
46 -28 33 0 40 3 40 19 0 37 20 32 69 -18 l50 -51 93 0 93 0 50 50 c55 54 65
59 65 32 0 -28 17 -38 55 -34 32 4 35 7 35 38 0 19 5 34 10 34 14 0 12 -64 -2
-78 -7 -7 -32 -12 -56 -12 -35 0 -45 4 -49 20 -7 26 -15 25 -43 -5 l-24 -25
29 -30 c16 -17 43 -35 60 -39 19 -6 -60 -9 -225 -10 -227 0 -251 1 -217 13 42
15 77 43 77 60 0 6 -9 22 -20 36 l-19 25 -16 -22 c-12 -17 -26 -23 -54 -23
-47 0 -61 14 -60 60 1 36 3 34 13 -12z m-7972 -84 c16 -17 44 -36 61 -42 23
-7 -57 -10 -293 -11 l-324 -1 44 23 c33 16 50 33 65 64 20 43 52 61 40 23 -6
-19 -2 -20 169 -20 164 0 176 1 176 18 0 32 14 35 24 5 4 -15 22 -42 38 -59z
m2524 -5 c10 -9 33 -24 49 -32 28 -15 8 -16 -290 -17 l-319 0 44 23 c33 16 50
33 65 64 20 43 52 61 40 23 -6 -19 -2 -20 175 -20 124 0 179 3 175 10 -4 6 -4
19 0 28 5 13 10 7 24 -23 10 -22 27 -47 37 -56z"/>
<path d="M11217 1583 c-4 -3 -7 -10 -7 -15 0 -4 327 -8 726 -8 576 0 725 3
722 13 -4 9 -158 13 -720 15 -393 1 -718 -1 -721 -5z"/>
<path d="M11269 1538 c-8 -26 -8 -60 -3 -140 l6 -98 334 0 334 0 0 120 0 120
-335 0 c-184 0 -335 -1 -336 -2z"/>
<path d="M11964 1524 c3 -9 6 -186 6 -395 l0 -379 140 0 140 0 0 395 0 395
-146 0 c-129 0 -145 -2 -140 -16z"/>
<path d="M12270 1145 l0 -395 150 0 150 0 0 395 0 395 -150 0 -150 0 0 -395z"/>
<path d="M11270 1155 l0 -125 335 0 335 0 0 125 0 125 -335 0 -335 0 0 -125z"/>
<path d="M11500 1003 l-235 -3 3 -125 3 -125 335 0 334 0 0 125 0 125 -74 0
c-40 0 -86 1 -102 3 -16 2 -135 2 -264 0z"/>
<path d="M11213 718 c3 -10 156 -13 722 -13 566 0 719 3 723 13 3 9 -146 12
-723 12 -577 0 -726 -3 -722 -12z"/>
<path d="M1448 1614 c-135 -24 -270 -84 -423 -187 -89 -60 -285 -214 -285
-225 0 -9 158 8 258 28 125 26 187 46 414 136 102 41 217 81 255 89 52 11 156
15 456 15 l387 0 0 80 0 80 -492 -1 c-374 -1 -512 -4 -570 -15z m-88 -198 c0
-41 -7 -48 -94 -80 -95 -36 -97 -36 -95 24 2 27 5 53 8 58 14 21 51 31 114 32
l67 0 0 -34z"/>
<path d="M2530 1550 l0 -80 508 0 c280 0 511 2 513 4 2 2 3 38 1 80 l-4 76
-509 0 -509 0 0 -80z"/>
<path d="M5794 1565 c-62 -31 -77 -35 -151 -35 -45 0 -93 -5 -107 -11 -27 -13
-52 -69 -42 -94 5 -13 248 -15 1896 -15 l1890 0 0 38 c0 27 -7 45 -21 58 -20
18 -62 19 -1393 24 l-1371 5 -65 32 -65 33 -251 0 -252 0 -68 -35z"/>
<path d="M13380 1435 l0 -55 60 0 60 0 0 55 0 55 -60 0 -60 0 0 -55z"/>
<path d="M1370 1326 c-171 -74 -201 -89 -560 -274 l-275 -142 -1 -88 c0 -67
-6 -98 -22 -136 -12 -27 -20 -51 -17 -54 3 -3 105 8 228 24 l222 29 2185 5
2185 5 3 348 2 347 -1902 -1 -1903 0 -145 -63z m338 -332 c-2 -142 -7 -217
-13 -214 -6 3 -9 76 -7 195 1 105 2 206 2 225 0 23 3 31 10 24 7 -7 9 -90 8
-230z m282 6 c0 -130 -4 -221 -10 -225 -9 -5 -20 442 -11 451 16 16 21 -36 21
-226z"/>
<path d="M5356 1382 c-3 -3 -6 -147 -6 -319 l0 -314 23 3 22 3 3 311 c2 302 2
312 -17 317 -11 3 -22 2 -25 -1z"/>
<path d="M5442 1383 l-22 -4 2 -312 3 -312 23 -3 22 -3 0 320 c0 177 -1 320
-2 320 -2 -1 -13 -4 -26 -6z"/>
<path d="M5492 1043 l3 -348 1893 -3 1892 -2 0 350 0 350 -1895 0 -1895 0 2
-347z m362 271 c14 -13 16 -53 16 -284 0 -231 -2 -271 -16 -284 -12 -13 -38
-16 -120 -16 -58 0 -114 5 -125 10 -18 10 -19 24 -19 290 0 255 1 280 18 289
9 6 65 11 124 11 84 0 110 -3 122 -16z m3320 -6 c14 -19 16 -63 16 -278 0
-215 -2 -259 -16 -278 -14 -21 -23 -22 -129 -22 -157 0 -147 -22 -143 307 2
202 6 264 17 276 11 14 34 17 127 17 105 0 114 -1 128 -22z m-2484 -127 c5
-11 10 -49 10 -85 0 -104 -4 -106 -204 -106 -200 0 -196 -2 -196 109 0 46 5
82 12 89 8 8 65 12 190 12 165 0 178 -1 188 -19z m510 0 c5 -11 10 -49 10 -85
0 -104 -4 -106 -204 -106 -200 0 -196 -2 -196 109 0 46 5 82 12 89 8 8 65 12
190 12 165 0 178 -1 188 -19z m508 -76 c2 -76 0 -92 -14 -102 -22 -16 -326
-18 -355 -3 -17 9 -19 22 -19 99 0 48 3 91 7 95 4 3 90 5 192 4 l186 -3 3 -90z
m500 83 c7 -7 12 -43 12 -89 0 -111 3 -109 -191 -109 -92 0 -169 4 -180 10
-17 9 -19 22 -19 99 0 48 3 91 7 94 12 13 358 8 371 -5z m510 0 c7 -7 12 -43
12 -89 0 -111 3 -109 -191 -109 -92 0 -169 4 -180 10 -17 9 -19 22 -19 99 0
48 3 91 7 94 12 13 358 8 371 -5z"/>
<path d="M5615 1297 c-3 -7 -4 -131 -3 -277 l3 -265 109 -3 c81 -2 112 1 118
10 9 15 11 508 2 532 -5 13 -25 16 -115 16 -79 0 -111 -4 -114 -13z m159 -83
c23 -23 23 -180 -1 -206 -18 -20 -54 -23 -84 -8 -17 10 -19 22 -19 110 0 84 3
101 18 109 26 15 69 13 86 -5z"/>
<path d="M8936 1302 c-9 -15 -16 -475 -8 -512 l8 -35 109 -3 c80 -2 111 1 117
10 12 19 10 506 -2 529 -10 17 -22 19 -115 19 -57 0 -106 -4 -109 -8z m152
-88 c20 -14 22 -24 22 -97 0 -95 -15 -127 -59 -127 -54 0 -62 16 -62 120 -1
79 2 96 17 107 24 17 55 16 82 -3z"/>
<path d="M9302 1074 c3 -311 3 -319 23 -319 20 0 20 8 23 313 1 188 -1 312 -7
312 -5 0 -17 3 -25 6 -15 6 -16 -24 -14 -312z"/>
<path d="M13380 1305 l0 -55 60 0 60 0 0 55 0 55 -60 0 -60 0 0 -55z"/>
<path d="M1005 1214 c-55 -13 -145 -27 -200 -30 -96 -6 -102 -8 -145 -43 -77
-62 -170 -153 -170 -166 0 -6 9 -20 19 -29 19 -17 29 -13 301 128 154 80 285
146 290 146 5 0 12 5 15 10 7 12 13 13 -110 -16z"/>
<path d="M13380 1175 l0 -55 60 0 60 0 0 55 0 55 -60 0 -60 0 0 -55z"/>
<path d="M13380 1045 l0 -55 60 0 60 0 0 55 0 55 -60 0 -60 0 0 -55z"/>
<path d="M13380 910 l0 -60 60 0 60 0 0 60 0 60 -60 0 -60 0 0 -60z"/>
<path d="M419 902 c-64 -78 -89 -132 -89 -187 0 -83 54 -156 142 -194 45 -19
47 -22 38 -46 -6 -15 -10 -31 -10 -36 0 -5 102 -9 250 -9 l250 0 6 40 c6 37 9
40 40 40 23 0 34 5 38 18 4 10 22 45 41 77 19 31 35 59 35 61 0 12 -176 0
-422 -31 -276 -34 -378 -42 -364 -28 3 4 25 9 49 12 40 6 43 8 66 66 31 75 35
192 8 243 -10 17 -21 32 -25 32 -4 0 -28 -26 -53 -58z"/>
<path d="M13380 780 l0 -60 54 0 c61 0 66 6 66 76 l0 44 -60 0 -60 0 0 -60z"/>
<path d="M13630 690 c0 -6 -10 -14 -22 -19 -21 -7 -19 -10 28 -44 50 -37 95
-54 114 -42 5 3 10 31 10 61 l0 54 -65 0 c-38 0 -65 -4 -65 -10z"/>
<path d="M2102 663 c2 -5 19 -40 38 -80 l35 -72 55 -3 c48 -3 55 -6 60 -28 l6
-25 591 -3 591 -2 7 30 c6 29 9 30 59 30 l52 0 41 80 41 80 -790 0 c-434 0
-788 -3 -786 -7z"/>
<path d="M5868 612 c-80 -49 -73 -183 11 -227 59 -30 139 -12 170 38 11 17 9
23 -12 45 l-25 25 -11 -22 c-9 -17 -21 -21 -57 -21 -38 0 -46 3 -54 25 -6 15
-6 34 0 47 8 20 9 18 9 -14 l1 -38 45 0 c41 0 45 2 45 25 0 14 4 25 8 25 4 0
30 -22 57 -50 l49 -50 94 0 93 0 49 50 c55 56 70 62 70 25 0 -22 4 -25 40 -25
35 0 40 3 46 28 10 47 12 48 13 6 1 -46 -8 -54 -64 -54 -22 0 -39 7 -48 20
-14 20 -14 19 -37 -5 -27 -29 -22 -48 22 -75 68 -41 159 -16 191 53 21 43 21
67 3 112 -28 66 -119 95 -187 60 -45 -24 -332 -25 -376 -2 -41 22 -110 21
-145 -1z m242 -99 l-1 -48 -24 28 c-33 37 -33 67 0 67 23 0 25 -3 25 -47z
m230 30 c-1 -10 -12 -31 -25 -48 l-25 -30 0 48 c0 44 2 47 25 47 17 0 25 -5
25 -17z"/>
<path d="M8246 609 c-103 -81 -51 -239 79 -239 43 0 90 23 106 51 9 17 7 25
-12 45 -22 23 -22 24 -36 4 -11 -15 -26 -20 -59 -20 -39 0 -46 3 -55 26 -5 15
-6 36 -2 48 6 18 8 16 13 -14 5 -33 7 -35 48 -38 39 -3 42 -1 42 22 0 14 3 26
7 26 3 0 30 -22 59 -50 l53 -50 93 0 94 0 49 50 c27 28 53 50 57 50 4 0 8 -11
8 -24 0 -17 7 -26 25 -30 37 -9 63 9 68 47 l4 32 1 -35 c2 -45 -12 -60 -60
-60 -28 0 -40 5 -49 21 l-11 22 -24 -25 c-30 -29 -24 -50 21 -78 66 -41 156
-16 188 53 30 63 16 123 -39 166 -32 25 -106 28 -144 6 -37 -21 -336 -21 -376
0 -43 22 -116 19 -148 -6z m244 -96 l-1 -48 -24 30 c-33 40 -33 65 0 65 23 0
25 -3 25 -47z m230 28 c0 -11 -11 -33 -25 -48 l-24 -28 -1 48 c0 44 2 47 25
47 18 0 25 -5 25 -19z"/>
<path d="M13385 478 c-8 -19 -19 -24 -58 -26 -42 -3 -49 0 -54 17 -7 28 -17
26 -43 -6 l-22 -28 36 -32 c45 -41 105 -45 156 -10 52 35 58 52 30 82 -29 31
-33 31 -45 3z"/>
</g>
</svg>
