<svg xmlns="http://www.w3.org/2000/svg" viewBox="944.00 25.60 445.00 183.00">
<g transform="translate(0.000000,768.000000) scale(0.100000,-0.100000)" fill="currentColor" stroke="none">
<path d="M12889 7370 c-1 -3 -1 -8 0 -12 0 -4 -15 -16 -33 -28 -32 -19 -66 -79 -66 -116 0 -8 32 -73 71 -145 66 -120 71 -134 72 -192 l1 -62 -110 4 c-60 2 -110 5 -112 6 -2 1 -5 14 -8 29 -4 22 -1 26 19 26 35 0 39 10 17 38 -11 13 -20 33 -20 43 0 11 -4 19 -10 19 -5 0 -10 9 -10 20 0 11 -4 20 -10 20 -9 0 -14 -14 -11 -33 1 -4 -6 -10 -14 -13 -9 -4 -15 -19 -15 -40 0 -19 -4 -34 -10 -34 -5 0 -10 -4 -10 -10 0 -5 12 -10 26 -10 22 0 25 -3 20 -22 -3 -13 -6 -26 -6 -30 0 -5 -43 -8 -95 -8 -78 0 -95 3 -95 15 0 8 -5 15 -11 15 -5 0 -7 5 -4 10 3 6 3 10 -2 10 -11 0 -10 103 1 112 9 6 -32 51 -72 78 -12 8 -22 25 -22 38 0 13 -4 20 -10 17 -5 -3 -10 -15 -10 -26 0 -10 -5 -19 -11 -19 -7 0 -9 10 -7 24 3 13 0 34 -7 45 l-11 22 -14 -25 c-10 -20 -22 -26 -59 -29 -44 -4 -43 -4 7 -3 33 1 52 -3 52 -11 0 -22 -12 -43 -25 -43 -18 0 -70 -63 -56 -68 17 -6 14 -107 -4 -122 -8 -7 -15 -18 -15 -24 0 -8 -37 -10 -124 -8 l-125 3 -3 42 c-2 35 -7 43 -25 45 -20 3 -23 9 -23 50 0 52 -19 97 -21 52 -1 -14 -2 -42 -1 -62 0 -33 -3 -38 -24 -38 -21 0 -24 -5 -24 -39 0 -38 -1 -39 -40 -43 l-40 -4 0 59 c0 39 4 59 13 63 9 3 15 23 16 53 l1 48 -82 6 c-46 3 -222 2 -393 -1 l-310 -7 -3 -36 c-5 -55 13 -66 115 -74 49 -3 100 -9 116 -11 l27 -6 0 -139 c0 -91 -4 -138 -10 -134 -6 4 -10 -43 -10 -135 0 -116 3 -142 15 -146 10 -4 15 -20 15 -50 0 -44 0 -44 -35 -44 -19 0 -35 5 -35 10 0 6 -25 10 -55 10 l-55 0 0 181 0 182 -40 -7 -40 -6 0 59 0 59 -65 4 c-58 3 -65 1 -68 -17 -4 -18 -4 -17 -6 3 l-1 22 -295 0 c-274 0 -295 -1 -295 -17 0 -17 -14 -18 -175 -15 -112 2 -175 0 -175 -7 0 -21 22 -67 37 -78 16 -12 15 -13 -1 -13 -15 0 -17 -14 -14 -175 2 -135 0 -175 -9 -175 -7 0 -13 11 -13 25 0 14 -4 25 -10 25 -5 0 -10 -6 -10 -14 0 -8 -6 -17 -12 -19 -10 -4 -10 -6 0 -6 10 -1 10 -6 2 -21 -12 -22 -36 -27 -43 -7 -3 6 -6 2 -6 -10 -1 -16 -7 -23 -21 -23 -11 0 -20 5 -20 10 0 6 -20 10 -45 10 l-45 0 0 -45 0 -45 39 0 c23 0 46 7 55 16 26 25 36 7 36 -62 l0 -64 -60 0 c-47 0 -60 -3 -60 -15 0 -13 12 -15 71 -13 l72 3 1 64 1 64 45 1 c37 1 44 4 42 19 -2 11 4 17 18 17 26 0 25 -8 -2 -38 -35 -36 -32 -102 6 -141 l30 -31 -257 0 -257 0 0 -30 0 -30 2175 0 2175 0 0 30 0 30 -557 0 -558 1 29 21 c53 40 78 67 71 77 -3 6 0 8 8 5 10 -3 18 4 25 23 l10 28 1 -27 1 -26 145 -1 c134 -2 145 0 145 17 0 27 111 76 156 67 19 -3 34 -10 34 -15 0 -6 14 -10 30 -10 l30 0 0 -60 0 -60 111 0 111 0 -77 72 c-67 62 -74 73 -59 81 13 7 19 7 22 -1 2 -7 23 -12 48 -12 l44 0 0 39 c0 32 -4 40 -22 45 -34 9 -68 7 -68 -3 0 -15 -29 -21 -42 -8 -7 7 -22 13 -33 15 -37 5 -45 11 -45 32 0 23 10 26 28 8 9 -9 12 -9 12 1 0 8 6 11 16 7 8 -3 12 -2 9 4 -3 6 -22 10 -41 10 -24 0 -34 5 -34 15 0 8 -4 15 -10 15 -5 0 -10 -18 -10 -39 0 -26 -5 -41 -16 -45 -8 -3 -13 -2 -10 2 3 5 -29 46 -70 91 -52 58 -72 86 -65 94 5 7 12 29 16 49 4 21 12 36 19 35 7 -1 12 18 14 52 2 40 0 52 -10 49 -8 -3 -19 13 -29 46 -9 28 -15 54 -13 57 2 4 32 12 66 19 82 15 104 30 87 61 -9 17 -9 24 0 27 7 2 11 31 11 79 0 63 -2 74 -15 69 -9 -3 -15 0 -15 9 0 8 -7 15 -15 15 -11 0 -15 11 -15 40 0 36 -2 40 -25 40 -22 0 -25 -4 -25 -35 0 -24 -6 -37 -20 -45 -18 -9 -20 -21 -20 -100 0 -109 -14 -130 -84 -130 l-43 0 -1 67 c-1 65 0 69 73 198 41 73 75 141 75 151 -1 25 -37 104 -48 104 -5 0 -21 11 -36 25 -26 24 -35 25 -147 28 -65 1 -120 0 -120 -3z m-1681 -387 c-32 -2 -86 -2 -120 0 -35 2 -9 3 57 3 66 0 94 -1 63 -3z m282 -198 l0 -116 -92 3 -93 3 -3 113 -3 112 96 0 95 0 0 -115z m153 105 c42 0 57 -4 57 -14 0 -9 -12 -14 -35 -14 -20 0 -35 5 -35 12 0 6 -5 4 -10 -4 -6 -8 -9 -45 -9 -82 2 -73 -9 -98 -45 -98 -17 0 -19 -2 -6 -11 13 -9 13 -10 0 -6 -12 3 -16 26 -18 117 l-3 113 23 -7 c13 -3 49 -6 81 -6z m122 -89 c3 -5 1 -12 -5 -16 -5 -3 -10 1 -10 9 0 18 6 21 15 7z m472 -7 c-3 -3 -12 -4 -19 -1 -8 3 -5 6 6 6 11 1 17 -2 13 -5z m300 0 c-3 -3 -12 -4 -19 -1 -8 3 -5 6 6 6 11 1 17 -2 13 -5z m266 -1 c-7 -2 -19 -2 -25 0 -7 3 -2 5 12 5 14 0 19 -2 13 -5z m77 -1 c0 -5 -13 -7 -30 -4 -16 2 -30 6 -30 8 0 2 14 4 30 4 17 0 30 -4 30 -8z m395 -7 c-68 -18 -85 -18 -85 0 0 12 14 15 68 14 l67 -1 -50 -13z m-1518 -82 c-2 -16 -4 -5 -4 22 0 28 2 40 4 28 2 -13 2 -35 0 -50z m1420 25 c-3 -8 -6 -5 -6 6 -1 11 2 17 5 13 3 -3 4 -12 1 -19z m-1162 -8 c10 -11 16 -20 13 -20 -3 0 -13 9 -23 20 -10 11 -16 20 -13 20 3 0 13 -9 23 -20z m160 -145 l30 -28 -30 21 c-16 11 -48 40 -70 64 l-40 43 40 -36 c22 -20 54 -48 70 -64z m-928 -122 c-2 -37 -3 -9 -3 62 0 72 1 102 3 68 2 -34 2 -93 0 -130z m510 75 c-2 -18 -4 -6 -4 27 0 33 2 48 4 33 2 -15 2 -42 0 -60z m1414 -51 c-10 -9 -11 -8 -5 6 3 10 9 15 12 12 3 -3 0 -11 -7 -18z m-1108 -44 c-29 -2 -77 -2 -105 0 -29 2 -6 3 52 3 58 0 81 -1 53 -3z m1258 -145 c9 -17 3 -18 -75 -18 -47 0 -88 5 -91 10 -3 6 -18 10 -33 11 -15 0 -21 3 -14 6 7 3 12 23 12 49 0 40 2 44 25 44 14 0 29 8 35 21 11 20 15 17 71 -43 33 -35 64 -71 70 -80z m-426 82 c8 0 11 -7 8 -20 -5 -17 -14 -20 -65 -20 -33 0 -69 5 -81 12 -12 6 -35 15 -52 19 -21 5 -5 8 55 10 47 1 91 2 98 2 6 -1 13 7 13 16 1 14 2 13 6 -1 2 -10 10 -18 18 -18z m-476 -38 c-1 -20 -3 -29 -6 -18 -4 17 -13 18 -96 14 -57 -3 -92 -9 -95 -16 -8 -26 -17 -10 -14 26 l4 37 104 -3 104 -3 -1 -37z m164 15 c-55 -29 -143 -26 -143 4 0 17 8 19 93 19 l92 -1 -42 -22z m-653 -21 c0 -2 -8 -10 -17 -17 -16 -13 -17 -12 -4 4 13 16 21 21 21 13z m970 -25 c0 -16 -38 -23 -60 -11 -29 16 -25 20 20 20 22 0 40 -4 40 -9z m-33 -53 c-3 -8 -6 -5 -6 6 -1 11 2 17 5 13 3 -3 4 -12 1 -19z m-387 8 c0 -2 -7 -6 -15 -10 -8 -3 -15 -1 -15 4 0 6 7 10 15 10 8 0 15 -2 15 -4z m-2453 -52 c-3 -3 -12 -4 -19 -1 -8 3 -5 6 6 6 11 1 17 -2 13 -5z m150 -6 c-5 -14 -21 -14 -87 0 l-45 10 68 1 c51 1 68 -2 64 -11z m178 -3 c-40 -18 -62 -18 -69 0 -4 12 4 15 47 14 l52 -1 -30 -13z m283 -1 c-35 -19 -48 -43 -48 -93 0 -28 8 -48 26 -70 l26 -31 -95 0 -95 0 29 29 c23 23 29 38 29 71 0 51 -12 75 -48 94 -25 14 -19 15 88 15 107 0 113 -1 88 -15z m182 1 c0 -19 -28 -19 -71 0 l-34 14 53 1 c40 0 52 -4 52 -15z m180 0 c-33 -19 -70 -19 -70 0 0 11 12 15 48 15 46 -1 46 -1 22 -15z m382 3 c-19 -19 -14 -28 17 -28 23 0 30 -5 33 -22 2 -19 10 -23 40 -24 23 -1 54 -12 78 -28 40 -26 44 -27 191 -25 148 1 151 0 177 -24 15 -13 41 -29 57 -35 22 -8 -96 -11 -428 -11 l-459 -1 30 25 c17 14 34 39 37 56 6 26 10 30 31 25 42 -11 100 12 151 59 43 40 75 63 45 33z m-118 -6 c3 -5 20 -6 38 -4 29 4 31 3 20 -11 -7 -8 -31 -24 -53 -35 -31 -16 -48 -18 -72 -11 -45 13 -65 49 -27 49 11 0 20 5 20 10 0 12 67 14 74 2z m247 -29 c13 -16 12 -17 -3 -4 -17 13 -22 21 -14 21 2 0 10 -8 17 -17z m-1192 -15 c0 -7 -4 -22 -9 -33 -7 -18 -8 -19 -15 -2 -4 9 -5 24 -1 32 7 18 26 20 25 3z m636 -26 c-6 -15 -8 -15 -15 3 -4 12 -3 23 4 27 14 9 20 -7 11 -30z m1640 28 c-3 -5 -12 -10 -18 -10 -7 0 -6 4 3 10 19 12 23 12 15 0z m930 -32 c24 -25 27 -32 9 -15 -17 15 -35 24 -40 20 -5 -5 -6 -4 -2 1 4 5 3 15 -3 23 -25 30 0 10 36 -29z m-3355 18 c0 -8 -4 -18 -10 -21 -5 -3 -10 -4 -10 -1 0 2 -3 11 -6 20 -4 11 -1 16 10 16 9 0 16 -6 16 -14z m642 -21 c2 -19 1 -35 -2 -35 -3 0 -10 16 -16 35 -9 27 -8 35 1 35 7 0 15 -16 17 -35z m1005 3 c-3 -8 -6 -5 -6 6 -1 11 2 17 5 13 3 -3 4 -12 1 -19z m613 2 c0 -5 -2 -10 -4 -10 -3 0 -8 5 -11 10 -3 6 -1 10 4 10 6 0 11 -4 11 -10z m-400 -4 c0 -3 -4 -8 -10 -11 -5 -3 -10 -1 -10 4 0 6 5 11 10 11 6 0 10 -2 10 -4z m278 -13 c-10 -2 -26 -2 -35 0 -10 3 -2 5 17 5 19 0 27 -2 18 -5z m205 0 c-7 -2 -21 -2 -30 0 -10 3 -4 5 12 5 17 0 24 -2 18 -5z m263 -21 c-17 -16 -18 -16 -5 5 7 12 15 20 18 17 3 -2 -3 -12 -13 -22z m-2606 8 c0 -5 -5 -10 -11 -10 -5 0 -7 5 -4 10 3 6 8 10 11 10 2 0 4 -4 4 -10z m3345 -10 c10 -11 16 -20 13 -20 -3 0 -13 9 -23 20 -10 11 -16 20 -13 20 3 0 13 -9 23 -20z m-930 -18 c-3 -3 -11 0 -18 7 -9 10 -8 11 6 5 10 -3 15 -9 12 -12z m-518 2 c-3 -3 -12 -4 -19 -1 -8 3 -5 6 6 6 11 1 17 -2 13 -5z m364 -6 c0 -10 2 -10 6 0 9 23 72 14 111 -17 20 -16 46 -31 57 -34 11 -3 -93 -5 -232 -6 -158 -1 -254 3 -258 9 -3 6 1 10 9 10 8 0 28 11 43 25 26 23 35 24 146 25 87 0 117 -3 118 -12z m-2076 -42 c18 -14 6 -15 -123 -16 -112 0 -141 3 -135 13 4 6 8 15 8 19 0 3 4 10 9 15 5 5 6 3 2 -4 -4 -7 -2 -13 3 -13 6 0 11 4 11 9 0 4 39 8 86 9 47 0 88 3 91 6 3 3 11 -1 17 -9 6 -8 20 -21 31 -29z m415 40 c0 -2 -8 -10 -17 -17 -16 -13 -17 -12 -4 4 13 16 21 21 21 13z m249 -53 c2 -2 -62 -3 -143 -3 l-148 0 29 23 c24 20 40 24 107 26 44 1 82 4 85 6 2 3 18 -7 35 -22 17 -16 33 -29 35 -30z"/>
<path d="M11557 5842 c-34 -37 -17 -73 46 -100 30 -13 36 -42 13 -61 -18 -15 -56 2 -56 24 0 8 -4 15 -10 15 -16 0 -12 -37 6 -54 21 -22 60 -20 84 4 36 36 20 82 -35 100 -27 9 -35 17 -35 36 0 34 29 43 51 16 21 -27 29 -28 29 -4 0 42 -63 58 -93 24z"/>
<path d="M11860 5846 c0 -8 4 -17 9 -20 10 -7 23 19 14 28 -11 11 -23 6 -23 -8z"/>
</g>
</svg>