<svg xmlns="http://www.w3.org/2000/svg" viewBox="928.20 379.00 485.30 196.40">
<g transform="translate(0.000000,768.000000) scale(0.100000,-0.100000)" fill="currentColor" stroke="none">
<path d="M9518 3833 c29 -2 74 -2 100 0 26 2 2 3 -53 3 -55 0 -76 -1 -47 -3z"/>
<path d="M9778 3833 c12 -2 30 -2 40 0 9 3 -1 5 -23 4 -22 0 -30 -2 -17 -4z"/>
<path d="M10227 3833 c105 -2 281 -2 390 0 109 1 23 2 -192 2 -214 0 -304 -1 -198 -2z"/>
<path d="M10848 3833 c18 -2 45 -2 60 0 15 2 0 4 -33 4 -33 0 -45 -2 -27 -4z"/>
<path d="M12418 3833 c12 -2 32 -2 45 0 12 2 2 4 -23 4 -25 0 -35 -2 -22 -4z"/>
<path d="M12753 3833 c70 -2 184 -2 255 0 70 1 12 3 -128 3 -140 0 -198 -2 -127 -3z"/>
<path d="M13168 3833 c17 -2 47 -2 65 0 17 2 3 4 -33 4 -36 0 -50 -2 -32 -4z"/>
<path d="M13293 3833 c15 -2 37 -2 50 0 12 2 0 4 -28 4 -27 0 -38 -2 -22 -4z"/>
<path d="M13383 3833 c9 -2 23 -2 30 0 6 3 -1 5 -18 5 -16 0 -22 -2 -12 -5z"/>
<path d="M13458 3833 c12 -2 30 -2 40 0 9 3 -1 5 -23 4 -22 0 -30 -2 -17 -4z"/>
<path d="M13528 3833 c6 -2 18 -2 25 0 6 3 1 5 -13 5 -14 0 -19 -2 -12 -5z"/>
<path d="M13578 3833 c7 -3 16 -2 19 1 4 3 -2 6 -13 5 -11 0 -14 -3 -6 -6z"/>
<path d="M12986 3383 c14 -32 16 -125 4 -149 -12 -21 -20 -23 -109 -26 l-97 -3 -2 35 c-5 87 -13 110 -45 127 -39 21 -87 28 -87 14 0 -6 -6 -11 -14 -11 -26 0 -46 -30 -46 -70 0 -21 -4 -50 -10 -64 -7 -20 -6 -27 8 -35 9 -6 12 -11 6 -11 -5 0 -15 5 -21 11 -6 6 -62 15 -124 21 -64 6 -117 15 -121 22 -4 6 -8 29 -8 52 0 58 -23 76 -100 76 -39 0 -69 -6 -85 -16 -24 -16 -29 -36 -28 -121 0 -6 -35 -9 -93 -7 -84 3 -93 5 -91 23 1 10 5 19 9 19 10 0 0 45 -15 75 -10 19 -11 18 -23 -10 -7 -19 -9 -38 -3 -52 6 -15 5 -23 -2 -23 -8 0 -7 -5 1 -15 11 -13 4 -15 -53 -15 l-66 0 -10 38 c-6 20 -11 45 -11 55 0 9 -4 17 -10 17 -5 0 -10 -9 -10 -20 0 -11 -4 -20 -10 -20 -5 0 -10 8 -10 19 0 14 -14 22 -62 36 -34 9 -68 19 -75 22 -7 3 -13 0 -13 -6 0 -6 8 -11 18 -11 26 0 112 -30 112 -39 0 -4 -5 -34 -12 -67 -9 -46 -13 -54 -18 -35 -7 29 -40 53 -47 33 -9 -24 -23 0 -23 39 l0 39 -70 0 c-40 0 -70 4 -70 10 0 6 -15 10 -32 10 -18 0 -50 4 -71 9 -28 7 -37 6 -34 -2 2 -7 32 -15 68 -18 35 -3 -54 -6 -198 -7 l-263 -2 0 -45 c0 -42 1 -44 38 -54 20 -6 45 -11 54 -11 9 0 40 -5 68 -11 l50 -11 0 -69 c0 -39 -4 -69 -10 -69 -6 0 -10 -50 -10 -130 0 -80 4 -130 10 -130 6 0 10 -9 10 -20 0 -17 -7 -20 -40 -20 -29 0 -40 4 -40 15 0 10 -11 15 -35 15 l-35 0 0 114 c0 66 -4 117 -10 121 -5 3 -10 33 -10 66 l0 59 -59 0 c-38 0 -61 -4 -64 -12 -3 -7 -6 -1 -6 15 l-1 27 -323 0 -324 0 5 30 c4 29 3 30 -37 30 -43 0 -57 -16 -18 -22 18 -2 23 -10 25 -43 3 -38 1 -41 -33 -53 -19 -8 -35 -17 -35 -22 0 -4 -13 -22 -29 -39 l-29 -31 -144 2 c-78 0 -128 3 -110 5 31 4 33 7 30 36 -2 24 -8 32 -23 33 -11 1 -28 5 -38 9 -9 4 -28 4 -42 1 l-25 -6 0 -199 0 -198 -26 5 c-22 4 -24 2 -19 -20 5 -18 2 -27 -9 -31 -9 -4 -16 -18 -16 -32 0 -18 -5 -25 -19 -25 -11 0 -23 4 -26 10 -3 5 -21 9 -40 8 -34 -1 -35 -2 -35 -43 0 -40 1 -41 34 -43 19 -1 37 2 41 8 10 16 25 12 25 -8 0 -26 -28 -62 -57 -73 -32 -12 -23 -24 11 -15 16 4 32 21 46 51 21 43 44 53 38 17 -2 -13 6 -18 40 -20 38 -3 42 -1 42 20 0 23 16 48 31 48 4 0 4 -14 -1 -32 -13 -44 -3 -74 34 -103 l31 -25 -157 0 -158 0 0 -25 0 -25 2174 0 c1973 0 2174 1 2180 16 3 9 6 20 6 25 0 5 -67 9 -152 9 -139 1 -150 2 -121 15 75 32 71 133 -7 165 -39 16 -85 -1 -105 -41 -27 -52 -15 -97 33 -123 24 -14 2 -15 -233 -15 -243 0 -258 1 -230 16 17 8 38 23 49 32 10 9 30 16 45 17 14 0 84 1 154 2 72 1 126 6 123 11 -3 5 1 14 9 21 8 7 15 9 15 4 1 -5 7 6 15 23 29 68 111 89 160 43 12 -11 29 -20 37 -20 39 0 48 -11 48 -61 l0 -49 59 0 c59 0 89 13 52 23 -21 5 -46 39 -55 77 -6 21 -5 22 4 7 8 -13 22 -17 51 -15 38 2 39 3 39 40 0 38 0 38 -39 38 -22 0 -41 -5 -44 -12 -3 -9 -8 -10 -15 -3 -8 7 -8 23 -1 54 10 47 3 61 -33 61 -14 0 -18 9 -18 40 0 22 -4 40 -10 40 -5 0 -10 -18 -10 -40 0 -23 -5 -40 -11 -40 -8 0 -8 -5 1 -15 7 -8 9 -15 4 -15 -5 0 -44 61 -88 136 -66 113 -82 135 -100 132 -20 -3 -21 -9 -24 -110 -2 -98 -10 -126 -27 -98 -3 6 -24 10 -46 10 -38 0 -44 6 -40 38 1 7 -7 21 -19 30 -20 16 -20 19 -5 61 8 24 15 52 15 63 0 14 5 18 15 14 12 -4 15 4 15 39 0 29 -4 44 -12 43 -10 -3 -21 27 -35 95 -3 15 -9 27 -14 27 -5 0 -9 9 -9 19 0 13 8 21 23 23 16 2 24 13 31 41 5 20 15 37 23 37 7 0 13 10 13 21 0 19 -4 21 -31 15 -17 -3 -54 -6 -81 -6 l-50 0 3 -44 c5 -53 -7 -66 -60 -66 -40 0 -40 0 -47 46 -3 25 -2 67 3 95 l10 49 -75 0 c-67 0 -73 -2 -66 -17z m-763 -190 c-7 -2 -19 -2 -25 0 -7 3 -2 5 12 5 14 0 19 -2 13 -5z m-556 -40 c-3 -10 -5 -4 -5 12 0 17 2 24 5 18 2 -7 2 -21 0 -30z m-377 -68 l0 -86 -62 3 -63 3 -3 83 -3 82 66 0 65 0 0 -85z m120 69 c0 -9 -7 -22 -15 -28 -8 -6 -17 -34 -21 -63 l-6 -52 38 -4 c28 -3 21 -4 -23 -5 -34 -1 -64 1 -66 6 -2 4 -2 42 1 85 l4 77 44 0 c34 0 44 -4 44 -16z m323 9 c-7 -2 -19 -2 -25 0 -7 3 -2 5 12 5 14 0 19 -2 13 -5z m135 0 c-21 -2 -57 -2 -80 0 -24 2 -7 4 37 4 44 0 63 -2 43 -4z m75 0 c-7 -2 -19 -2 -25 0 -7 3 -2 5 12 5 14 0 19 -2 13 -5z m44 1 c-3 -3 -12 -4 -19 -1 -8 3 -5 6 6 6 11 1 17 -2 13 -5z m166 -1 c-23 -2 -64 -2 -90 0 -26 2 -7 3 42 3 50 0 71 -1 48 -3z m80 0 c-7 -2 -19 -2 -25 0 -7 3 -2 5 12 5 14 0 19 -2 13 -5z m164 1 c-3 -3 -12 -4 -19 -1 -8 3 -5 6 6 6 11 1 17 -2 13 -5z m259 -1 c-6 -7 -219 -4 -225 3 -3 3 48 4 112 3 65 -1 116 -4 113 -6z m107 0 c-7 -2 -19 -2 -25 0 -7 3 -2 5 12 5 14 0 19 -2 13 -5z m44 1 c-3 -3 -12 -4 -19 -1 -8 3 -5 6 6 6 11 1 17 -2 13 -5z m176 -1 c-7 -2 -19 -2 -25 0 -7 3 -2 5 12 5 14 0 19 -2 13 -5z m104 1 c-3 -3 -12 -4 -19 -1 -8 3 -5 6 6 6 11 1 17 -2 13 -5z m40 0 c-3 -3 -12 -4 -19 -1 -8 3 -5 6 6 6 11 1 17 -2 13 -5z m-1457 -71 c0 -21 -3 -24 -9 -14 -5 8 -7 20 -4 28 8 21 13 15 13 -14z m-1940 -28 c0 -19 -4 -35 -10 -35 -5 0 -10 -16 -10 -35 0 -19 -4 -35 -10 -35 -11 0 -14 123 -3 133 17 18 33 5 33 -28z m2231 8 c13 -16 12 -17 -3 -4 -10 7 -18 15 -18 17 0 8 8 3 21 -13z m-834 -205 c-2 -35 -3 -7 -3 62 0 69 1 97 3 63 2 -35 2 -91 0 -125z m1393 112 c0 -5 -5 -10 -11 -10 -5 0 -7 5 -4 10 3 6 8 10 11 10 2 0 4 -4 4 -10z m-530 -4 c0 -2 -8 -10 -17 -17 -16 -13 -17 -12 -4 4 13 16 21 21 21 13z m-2280 -167 c0 -77 -4 -138 -9 -135 -12 8 -14 276 -2 276 7 0 11 -48 11 -141z m3845 25 c73 -129 90 -165 72 -158 -7 2 -17 14 -22 27 -9 19 -19 22 -77 25 l-68 3 0 104 c0 142 14 141 95 -1z m-1605 93 c0 -2 -10 -12 -22 -23 l-23 -19 19 23 c18 21 26 27 26 19z m-283 -29 c-3 -8 -6 -5 -6 6 -1 11 2 17 5 13 3 -3 4 -12 1 -19z m91 -15 c-16 -2 -40 -2 -55 0 -16 2 -3 4 27 4 30 0 43 -2 28 -4z m125 0 c-13 -2 -35 -2 -50 0 -16 2 -5 4 22 4 28 0 40 -2 28 -4z m-110 -50 c-18 -2 -48 -2 -65 0 -18 2 -4 4 32 4 36 0 50 -2 33 -4z m84 1 c-3 -3 -12 -4 -19 -1 -8 3 -5 6 6 6 11 1 17 -2 13 -5z m-24 -21 c-13 -2 -33 -2 -45 0 -13 2 -3 4 22 4 25 0 35 -2 23 -4z m440 0 c-7 -2 -21 -2 -30 0 -10 3 -4 5 12 5 17 0 24 -2 18 -5z m997 0 c0 -5 3 -18 6 -30 6 -22 4 -23 -55 -23 -48 0 -61 -3 -61 -15 0 -9 -9 -15 -25 -15 -23 0 -25 4 -25 45 l0 45 80 0 c44 0 80 -3 80 -7z m-530 -43 c0 -5 -2 -10 -4 -10 -3 0 -8 5 -11 10 -3 6 -1 10 4 10 6 0 11 -4 11 -10z m-62 -27 c3 -20 -1 -23 -29 -23 -28 0 -30 -2 -18 -16 7 -9 -3 -5 -24 9 -46 31 -107 43 -138 26 -17 -9 -24 -9 -27 0 -2 6 -27 11 -63 11 l-59 0 0 -34 c0 -26 -5 -36 -21 -41 -25 -8 -37 2 -40 35 -6 64 -20 61 209 58 206 -3 207 -3 210 -25z m-678 14 c0 -2 -10 -12 -22 -23 l-23 -19 19 23 c18 21 26 27 26 19z m856 -21 c2 -14 1 -14 -3 0 -3 9 -11 13 -19 10 -9 -3 -12 -1 -9 5 10 15 30 5 31 -15z m-3178 -49 c5 -24 -15 -21 -21 4 -3 13 -1 19 6 16 7 -2 13 -11 15 -20z m3446 8 c3 -8 1 -15 -4 -15 -6 0 -10 7 -10 15 0 8 2 15 4 15 2 0 6 -7 10 -15z m604 -11 c1 -14 -2 -23 -8 -19 -12 7 -14 45 -2 45 4 0 9 -11 10 -26z m-2590 -11 c-2 -23 -9 -29 -34 -31 -25 -2 -33 1 -37 18 -5 19 -11 21 -51 16 -37 -5 -44 -3 -40 9 5 12 25 15 86 15 l79 0 -3 -27z m242 -8 c0 -2 -10 -9 -22 -15 -22 -11 -22 -10 -4 4 21 17 26 19 26 11z m1787 -11 c-3 -3 -12 -4 -19 -1 -8 3 -5 6 6 6 11 1 17 -2 13 -5z m-3523 -50 c3 -8 2 -12 -4 -9 -6 3 -10 10 -10 16 0 14 7 11 14 -7z m140 -3 c3 -5 -1 -12 -10 -15 -8 -3 -13 -2 -9 3 3 5 -1 12 -7 14 -8 4 -7 6 4 6 9 1 19 -3 22 -8z m172 -3 c-11 -6 -36 -11 -57 -12 -29 -1 -35 2 -27 12 6 6 31 12 57 12 39 -1 43 -2 27 -12z m154 -3 c-7 -8 -25 -15 -40 -15 -16 0 -30 7 -34 15 -4 12 4 15 41 15 39 0 44 -2 33 -15z m134 1 c-4 -11 9 -15 58 -20 35 -2 77 -3 93 -2 17 2 38 4 49 5 12 1 16 6 12 16 -4 11 1 15 19 15 30 0 32 -11 4 -28 -12 -8 -18 -19 -15 -28 3 -8 2 -13 -3 -10 -16 10 -20 -37 -7 -69 8 -18 24 -40 37 -49 22 -15 14 -16 -134 -16 -142 0 -185 7 -142 24 22 8 44 66 38 99 -3 15 -19 38 -35 52 l-30 25 31 0 c22 0 29 -4 25 -14z m189 7 c-7 -2 -21 -2 -30 0 -10 3 -4 5 12 5 17 0 24 -2 18 -5z m232 -9 c-19 -10 -38 -12 -55 -8 -24 7 -24 8 10 14 64 13 78 11 45 -6z m164 0 c2 -1 -9 -6 -24 -10 -18 -4 -32 -2 -42 9 -14 14 -12 15 23 10 22 -3 41 -7 43 -9z m708 -16 c-3 -7 -5 -2 -5 12 0 14 2 19 5 13 2 -7 2 -19 0 -25z m1607 26 c15 -6 11 -34 -5 -34 -4 0 -6 6 -3 14 3 8 -2 16 -13 19 -10 3 -13 5 -6 6 6 0 18 -2 27 -5z m-2180 -21 c8 -8 14 -10 46 -12 11 0 24 -9 27 -18 4 -10 11 -21 17 -25 17 -11 3 -17 -26 -11 -19 4 -28 12 -28 24 0 11 -6 19 -14 19 -9 0 -12 -9 -10 -27 l4 -28 -9 28 c-5 16 -15 35 -22 43 -12 14 1 20 15 7z m1939 0 c-7 -2 -19 -2 -25 0 -7 3 -2 5 12 5 14 0 19 -2 13 -5z m-1704 -19 c7 -7 -15 -21 -66 -40 -50 -19 -73 -9 -73 34 0 25 0 25 67 18 37 -4 70 -9 72 -12z m156 -28 c0 -19 -3 -38 -7 -42 -4 -4 -5 -10 -3 -14 3 -4 148 -6 322 -4 297 3 319 2 338 -15 11 -10 34 -26 50 -34 28 -15 -16 -16 -559 -17 l-589 0 25 23 c14 13 29 34 33 46 6 20 12 22 78 20 81 -3 106 3 159 39 33 21 40 23 55 11 15 -12 16 -12 10 4 -5 15 0 17 41 17 47 0 47 0 47 -34z m-1285 9 c0 -8 -4 -15 -10 -15 -5 0 -10 7 -10 15 0 8 5 15 10 15 6 0 10 -7 10 -15z m-370 -10 c0 -10 -10 -15 -30 -15 -22 0 -28 4 -24 15 4 8 17 15 30 15 15 0 24 -6 24 -15z m953 8 c3 -5 1 -17 -3 -28 -6 -17 -7 -16 -12 8 -5 25 5 37 15 20z m136 -10 c-7 -10 -15 -20 -16 -22 -2 -2 -3 5 -3 17 0 14 6 22 16 22 14 0 15 -3 3 -17z m2345 2 c-4 -8 -8 -15 -10 -15 -2 0 -4 7 -4 15 0 8 4 15 10 15 5 0 7 -7 4 -15z m596 4 c0 -6 9 -24 21 -40 23 -32 22 -33 -15 -19 -20 7 -26 16 -26 40 0 16 5 30 10 30 6 0 10 -5 10 -11z m-1180 -3 c0 -3 -4 -8 -10 -11 -5 -3 -10 -1 -10 4 0 6 5 11 10 11 6 0 10 -2 10 -4z m527 -2 c-3 -3 -12 -4 -19 -1 -8 3 -5 6 6 6 11 1 17 -2 13 -5z m-1587 -8 c0 -2 3 -11 6 -20 5 -13 -2 -16 -40 -16 -39 0 -46 3 -46 20 0 17 7 20 40 20 22 0 40 -2 40 -4z m318 -13 c-38 -2 -98 -2 -135 0 -38 2 -7 3 67 3 74 0 105 -1 68 -3z m99 1 c-3 -3 -12 -4 -19 -1 -8 3 -5 6 6 6 11 1 17 -2 13 -5z m816 -1 c-7 -2 -21 -2 -30 0 -10 3 -4 5 12 5 17 0 24 -2 18 -5z m100 0 c-7 -2 -19 -2 -25 0 -7 3 -2 5 12 5 14 0 19 -2 13 -5z m70 0 c-7 -2 -19 -2 -25 0 -7 3 -2 5 12 5 14 0 19 -2 13 -5z m158 -26 c-10 -9 -11 -8 -5 6 3 10 9 15 12 12 3 -3 0 -11 -7 -18z m329 9 c8 -2 -36 -4 -97 -5 -62 0 -113 2 -113 7 0 7 178 5 210 -2z m-390 -6 c0 -3 -5 -12 -10 -20 -8 -13 -10 -13 -10 2 0 9 -6 18 -12 21 -7 3 -3 4 10 4 12 -1 22 -4 22 -7z m40 6 c0 -3 -4 -8 -10 -11 -5 -3 -10 -1 -10 4 0 6 5 11 10 11 6 0 10 -2 10 -4z m-765 -17 c-5 -7 14 -9 58 -8 55 2 69 -1 98 -23 19 -14 43 -28 54 -31 11 -2 -59 -5 -155 -5 -155 0 -172 1 -145 13 17 8 41 25 55 39 25 25 47 35 35 15z m248 -4 c-3 -9 -8 -14 -10 -11 -3 3 -2 9 2 15 9 16 15 13 8 -4z m417 11 c0 -2 -7 -7 -16 -10 -8 -3 -12 -2 -9 4 6 10 25 14 25 6z m-2938 -36 c24 0 57 4 75 9 23 7 30 6 27 -2 -2 -7 8 -20 23 -29 27 -17 24 -17 -115 -18 l-143 0 28 29 c21 21 32 26 45 20 9 -5 36 -9 60 -9z m2868 11 c0 -5 19 -18 43 -30 l42 -21 -200 1 c-135 0 -192 3 -177 10 13 5 35 18 49 29 22 17 41 20 134 20 60 0 109 -4 109 -9z m-2035 -29 l28 -22 -142 0 -142 0 26 23 c23 19 37 22 114 21 75 -1 93 -4 116 -22z"/>
<path d="M11325 2550 c-3 -5 -1 -10 4 -10 6 0 11 5 11 10 0 6 -2 10 -4 10 -3 0 -8 -4 -11 -10z"/>
<path d="M11311 2521 c-9 -6 -7 -10 8 -14 12 -3 21 -1 21 3 0 14 -15 19 -29 11z"/>
<path d="M11905 2266 c-21 -21 -25 -34 -25 -83 0 -37 6 -67 16 -81 28 -41 104 -20 104 29 0 27 -15 24 -28 -7 -9 -18 -19 -24 -35 -22 -30 4 -46 81 -26 124 17 36 48 44 56 15 6 -23 33 -29 33 -8 0 20 -22 44 -47 52 -17 4 -29 -1 -48 -19z"/>
<path d="M10350 2261 c-12 -23 -13 -51 -2 -51 4 0 12 10 17 23 13 30 49 29 53 -1 3 -16 -9 -37 -37 -67 -23 -25 -41 -54 -41 -65 0 -18 6 -20 55 -20 65 0 72 13 13 26 l-43 10 31 29 c41 39 57 71 48 98 -9 28 -22 37 -56 37 -17 0 -31 -7 -38 -19z"/>
<path d="M10574 2255 c-20 -31 -23 -120 -6 -152 27 -49 102 -16 102 44 0 34 -36 66 -66 59 -28 -7 -32 9 -10 39 14 19 15 19 35 1 24 -22 41 -14 25 12 -18 28 -60 27 -80 -3z m59 -87 c15 -23 0 -68 -22 -68 -30 0 -43 54 -19 78 15 15 28 11 41 -10z"/>
<path d="M10796 2265 c-30 -31 -33 -137 -5 -171 14 -17 63 -18 77 -1 27 33 13 104 -23 113 -13 3 -29 3 -34 -1 -18 -10 -13 31 5 46 14 11 18 10 30 -6 11 -14 17 -16 26 -7 8 8 8 15 -2 27 -16 19 -54 19 -74 0z m57 -97 c6 -8 7 -27 3 -42 -9 -38 -50 -33 -54 7 -6 48 28 72 51 35z"/>
<path d="M10998 2255 c-9 -19 -9 -28 0 -37 8 -8 14 -4 22 16 13 36 44 31 48 -7 2 -19 -5 -34 -26 -54 -30 -29 -52 -63 -52 -82 0 -7 23 -11 55 -11 30 0 55 5 55 10 0 6 -15 10 -33 10 -19 0 -37 3 -40 7 -4 3 11 26 33 49 41 44 48 70 30 105 -8 13 -21 19 -46 19 -27 0 -37 -5 -46 -25z"/>
<path d="M11190 2181 c0 -83 3 -101 15 -101 12 0 15 15 16 73 l1 72 20 -72 c23 -82 42 -93 57 -35 29 113 29 112 30 35 1 -58 4 -73 16 -73 12 0 15 18 15 101 0 97 -1 100 -22 97 -18 -2 -25 -15 -40 -77 -10 -41 -20 -76 -22 -78 -2 -2 -12 31 -23 74 -16 66 -22 79 -41 81 -21 3 -22 1 -22 -97z"/>
<path d="M11510 2181 c0 -93 10 -129 23 -82 10 40 2 174 -10 178 -10 4 -13 -20 -13 -96z"/>
<path d="M11570 2180 c0 -60 4 -100 10 -100 6 0 10 40 10 100 0 60 -4 100 -10 100 -6 0 -10 -40 -10 -100z"/>
<path d="M12960 2251 c0 -25 -3 -28 -25 -23 -39 7 -55 -14 -55 -73 0 -61 12 -75 63 -73 l37 1 0 99 c0 59 -4 98 -10 98 -5 0 -10 -13 -10 -29z m-12 -53 c25 -25 12 -98 -18 -98 -20 0 -30 19 -30 55 0 50 22 69 48 43z"/>
<path d="M11750 2251 c0 -11 -6 -22 -12 -24 -10 -4 -10 -7 -1 -14 6 -5 13 -35 15 -68 3 -53 5 -60 26 -63 25 -4 30 13 7 22 -11 4 -15 20 -15 56 0 38 4 50 15 50 8 0 15 4 15 9 0 5 -7 11 -15 15 -8 3 -15 12 -15 21 0 8 -4 15 -10 15 -5 0 -10 -9 -10 -19z"/>
<path d="M11400 2215 c-17 -20 -5 -32 15 -15 16 13 45 7 45 -10 0 -6 -14 -16 -30 -22 -38 -13 -55 -41 -40 -68 8 -15 20 -19 53 -18 l43 0 -4 62 c-2 33 -9 67 -14 74 -14 17 -53 15 -68 -3z m48 -87 c-4 -29 -38 -38 -38 -10 0 19 11 29 33 31 5 1 7 -9 5 -21z"/>
<path d="M11636 2208 c-19 -27 -21 -88 -3 -112 16 -22 65 -18 81 6 15 24 -3 37 -19 14 -17 -23 -45 -14 -45 14 0 16 6 20 35 20 29 0 35 4 35 21 0 56 -54 80 -84 37z m57 -12 c7 -18 -1 -26 -25 -26 -18 0 -25 20 -11 33 11 12 31 8 36 -7z"/>
<path d="M12039 2213 c-8 -9 -14 -35 -14 -58 0 -51 18 -75 56 -75 34 0 49 23 49 75 0 20 -5 45 -10 56 -13 24 -62 25 -81 2z m59 -15 c30 -30 3 -108 -33 -94 -15 6 -22 86 -8 99 10 11 28 8 41 -5z"/>
<path d="M12160 2154 c0 -43 4 -74 10 -74 6 0 10 24 10 53 0 59 11 83 34 74 12 -5 16 -21 16 -68 0 -81 23 -76 30 7 4 46 9 60 23 62 18 4 18 2 21 -77 0 -25 6 -46 14 -48 9 -4 12 13 12 60 0 40 -5 69 -12 75 -7 5 -46 10 -85 9 l-73 0 0 -73z"/>
<path d="M12360 2128 c0 -59 4 -98 10 -98 6 0 10 13 10 29 0 25 3 28 25 23 39 -7 55 14 55 73 0 61 -12 75 -63 73 l-37 -1 0 -99z m74 66 c9 -23 7 -67 -3 -83 -13 -20 -39 -6 -47 24 -12 49 33 103 50 59z"/>
<path d="M12500 2211 c-14 -27 -13 -104 2 -119 17 -17 63 -15 78 3 16 20 16 101 0 120 -18 22 -67 19 -80 -4z m64 -17 c16 -42 3 -94 -24 -94 -20 0 -30 19 -30 55 0 36 10 55 30 55 10 0 21 -7 24 -16z"/>
<path d="M12620 2167 c0 -74 9 -86 63 -84 l37 1 0 73 c0 57 -3 73 -15 73 -10 0 -15 -16 -17 -62 -2 -50 -7 -63 -20 -66 -14 -3 -17 7 -20 59 -2 39 -8 64 -15 67 -10 3 -13 -14 -13 -61z"/>
<path d="M12750 2152 c0 -54 3 -73 13 -69 8 2 11 18 9 45 -4 44 11 82 32 82 19 0 26 -23 26 -81 0 -27 5 -49 10 -49 15 0 13 125 -2 138 -7 6 -30 10 -50 9 l-38 -1 0 -74z"/>
<path d="M10470 2160 c0 -5 16 -10 35 -10 19 0 35 5 35 10 0 6 -16 10 -35 10 -19 0 -35 -4 -35 -10z"/>
<path d="M10680 2160 c0 -5 16 -10 35 -10 19 0 35 5 35 10 0 6 -16 10 -35 10 -19 0 -35 -4 -35 -10z"/>
<path d="M10900 2160 c0 -5 16 -10 35 -10 19 0 35 5 35 10 0 6 -16 10 -35 10 -19 0 -35 -4 -35 -10z"/>
<path d="M9336 1991 c-4 -5 -3 -11 1 -13 5 -2 1075 -1 2378 2 l2370 5 -2357 3 c-1296 1 -2363 5 -2371 8 -8 3 -18 1 -21 -5z"/>
</g>
</svg>