<svg xmlns="http://www.w3.org/2000/svg" viewBox="483.00 176.50 445.00 210.60">
<g transform="translate(0.000000,768.000000) scale(0.100000,-0.100000)" fill="currentColor" stroke="none">
<path d="M6285 5836 c-21 -21 -25 -34 -25 -86 0 -65 21 -100 59 -100 42 0 66 75 38 114 -10 14 -23 17 -45 14 -18 -2 -32 -3 -32 -2 0 2 4 14 10 28 9 25 50 38 50 16 0 -5 7 -10 16 -10 15 0 15 2 2 23 -22 31 -44 32 -73 3z m56 -100 c8 -17 8 -29 -1 -45 -15 -28 -42 -23 -50 9 -14 52 30 83 51 36z"/>
<path d="M6500 5840 c-16 -16 -20 -33 -20 -83 0 -96 41 -136 90 -87 16 16 20 33 20 85 0 68 -20 105 -55 105 -8 0 -24 -9 -35 -20z m56 -21 c3 -6 7 -35 7 -64 0 -60 -7 -75 -32 -75 -19 0 -31 35 -31 87 0 48 37 83 56 52z"/>
<path d="M6682 5758 c3 -117 20 -136 28 -31 l5 68 19 -73 c11 -42 23 -71 30 -69 6 2 21 39 32 83 l22 79 3 -78 c6 -113 24 -97 24 21 0 89 -2 97 -19 97 -16 0 -23 -13 -36 -65 -28 -111 -23 -113 -60 28 -8 32 -16 42 -31 42 -19 0 -20 -6 -17 -102z"/>
<path d="M7380 5845 c0 -9 9 -15 25 -15 25 0 25 -1 25 -90 0 -53 4 -90 10 -90 6 0 10 37 10 90 0 89 0 90 25 90 16 0 25 6 25 15 0 12 -13 15 -60 15 -47 0 -60 -3 -60 -15z"/>
<path d="M6897 5792 c-22 -24 -23 -105 -1 -126 39 -39 84 -4 84 66 0 68 -46 101 -83 60z m51 -14 c17 -17 15 -83 -3 -98 -12 -10 -18 -10 -30 0 -27 22 -15 110 15 110 3 0 11 -5 18 -12z"/>
<path d="M7029 5800 c-22 -13 -32 -71 -19 -106 13 -34 29 -45 53 -38 11 3 17 0 17 -10 0 -18 -31 -21 -47 -5 -8 8 -13 7 -18 -1 -20 -32 59 -46 82 -14 10 13 13 43 11 98 l-3 79 -30 3 c-16 2 -37 -1 -46 -6z m52 -37 c5 -14 7 -39 3 -55 -4 -23 -11 -28 -27 -26 -18 2 -23 11 -25 41 -5 61 30 90 49 40z"/>
<path d="M7146 5799 c-4 -9 -6 -42 -4 -74 3 -67 23 -89 58 -67 13 8 20 8 20 1 0 -5 5 -7 10 -4 6 3 10 37 10 75 0 38 -4 72 -10 75 -6 4 -10 -15 -10 -49 0 -84 -49 -120 -51 -38 -2 57 -14 101 -23 81z"/>
<path d="M7516 5788 c-35 -49 -11 -138 36 -138 15 0 48 30 48 43 0 14 -23 7 -36 -10 -13 -17 -15 -17 -29 2 -22 27 -14 40 26 41 31 0 34 3 32 28 -4 56 -49 75 -77 34z m52 -26 c3 -17 -1 -21 -17 -19 -29 5 -36 14 -21 32 17 20 34 14 38 -13z"/>
<path d="M7625 5798 c-10 -24 -1 -143 10 -141 6 2 11 27 13 57 3 54 21 84 42 71 5 -3 10 -35 10 -71 0 -36 4 -64 10 -64 6 0 10 30 10 69 0 77 -16 104 -50 84 -13 -8 -20 -9 -28 -1 -8 8 -13 7 -17 -4z"/>
<path d="M7896 5788 c-35 -49 -11 -138 36 -138 21 0 52 36 43 51 -6 8 -13 5 -27 -12 -18 -24 -18 -24 -33 -4 -22 28 -14 40 28 43 27 2 37 8 37 20 0 27 -29 62 -50 62 -10 0 -26 -10 -34 -22z m52 -25 c2 -15 -2 -19 -20 -17 -13 1 -24 3 -26 3 -1 1 2 10 8 22 14 24 34 20 38 -8z"/>
<path d="M8045 5800 c-3 -5 -12 -7 -20 -3 -12 4 -15 -8 -15 -66 0 -41 4 -71 10 -71 6 0 10 25 10 56 0 47 3 57 20 61 11 3 20 12 20 19 0 16 -16 19 -25 4z"/>
<path d="M6170 5735 c0 -10 11 -15 35 -15 24 0 35 5 35 15 0 10 -11 15 -35 15 -24 0 -35 -5 -35 -15z"/>
<path d="M6390 5736 c0 -12 10 -16 36 -16 45 0 42 24 -4 28 -24 2 -32 -1 -32 -12z"/>
<path d="M5583 5543 c20 -2 54 -2 75 0 20 2 3 4 -38 4 -41 0 -58 -2 -37 -4z"/>
<path d="M6153 5543 c240 -2 634 -2 875 0 240 1 43 2 -438 2 -481 0 -678 -1 -437 -2z"/>
<path d="M7643 5543 c97 -2 257 -2 355 0 97 1 17 2 -178 2 -195 0 -275 -1 -177 -2z"/>
<path d="M8238 5543 c34 -2 90 -2 125 0 34 2 6 3 -63 3 -69 0 -97 -1 -62 -3z"/>
<path d="M8553 5543 c64 -2 170 -2 235 0 64 1 11 3 -118 3 -129 0 -182 -2 -117 -3z"/>
<path d="M8988 5543 c46 -2 118 -2 160 0 42 1 5 3 -83 3 -88 0 -123 -2 -77 -3z"/>
<path d="M8475 5331 c3 -10 7 -83 9 -162 l4 -144 -91 3 c-51 2 -97 8 -104 14 -8 6 -13 36 -13 77 0 75 -13 102 -59 121 -38 15 -75 7 -107 -25 -20 -20 -24 -34 -24 -85 0 -87 -8 -96 -86 -92 -47 3 -64 7 -64 18 0 8 -4 14 -10 14 -6 0 -10 26 -10 58 0 64 -16 96 -54 106 -17 4 -26 15 -31 37 -6 27 -20 33 -20 8 0 -5 -4 -10 -10 -11 -5 -2 -11 12 -13 30 -2 17 -7 32 -13 32 -9 0 -11 -9 -13 -57 -1 -19 -11 -35 -31 -48 -26 -18 -30 -27 -33 -75 -5 -102 -3 -101 -171 -98 l-146 3 -2 25 c0 14 -1 31 -2 38 -1 6 -8 12 -16 12 -12 0 -15 13 -15 60 l0 60 -97 -2 c-93 -2 -94 -2 -23 -5 43 -3 78 -9 82 -16 4 -7 8 -31 8 -54 0 -37 -3 -43 -21 -43 -17 0 -20 -4 -15 -24 7 -30 -2 -56 -19 -56 -7 0 -16 -6 -19 -12 -3 -7 -4 11 -1 39 l6 53 -173 3 -173 3 183 -1 182 0 0 38 0 37 -80 0 c-47 0 -80 4 -80 10 0 6 -37 10 -91 10 -56 0 -88 -4 -84 -10 4 -6 -80 -11 -232 -12 l-238 -3 -3 -36 c-4 -48 12 -59 105 -70 136 -17 123 -5 123 -119 0 -55 -4 -102 -10 -105 -6 -4 -10 -60 -10 -136 0 -106 3 -131 15 -135 11 -4 15 -21 15 -56 l0 -50 -82 7 c-46 4 -84 8 -85 9 -1 1 -3 86 -3 189 l-1 187 -30 0 c-24 0 -29 -4 -29 -25 0 -14 -4 -25 -10 -25 -6 0 -10 31 -10 73 l0 74 -107 6 c-58 4 -238 7 -399 7 l-293 0 -3 -42 -3 -43 -165 0 -165 0 -3 53 -3 52 -55 0 -54 0 0 -49 0 -50 48 -4 c30 -2 23 -4 -21 -3 -37 1 -67 -3 -67 -7 0 -4 6 -23 14 -42 8 -18 12 -35 10 -38 -2 -2 -4 -73 -5 -157 0 -116 3 -155 13 -161 19 -13 3 -11 -27 3 -14 6 -25 20 -25 30 0 16 -3 17 -21 7 -15 -8 -18 -13 -10 -19 10 -5 9 -9 -3 -13 -8 -3 -16 0 -18 9 -3 13 -5 13 -23 -1 -13 -10 -15 -14 -5 -13 11 2 14 -4 12 -22 -5 -30 -13 -40 -19 -22 -3 7 -24 12 -54 12 l-49 0 0 -40 0 -40 43 0 c24 0 48 5 54 11 20 20 24 -8 6 -46 -10 -22 -32 -45 -53 -55 -31 -17 -32 -19 -11 -20 14 0 36 13 55 34 28 31 35 33 79 29 l47 -4 0 35 c0 24 5 36 14 36 8 0 21 2 29 5 8 4 14 0 14 -9 0 -8 -6 -12 -13 -9 -7 2 -17 -10 -24 -32 -14 -43 -1 -91 33 -117 21 -17 14 -18 -160 -18 l-183 0 0 -25 0 -24 913 -3 c501 -2 1480 -2 2175 0 l1262 3 0 24 0 25 -207 0 c-185 1 -205 2 -182 15 55 30 62 116 12 155 -47 37 -111 20 -138 -37 -23 -48 -1 -103 50 -124 11 -4 -96 -8 -242 -8 -145 -1 -263 1 -263 4 0 14 85 58 110 57 28 -1 30 2 31 41 2 30 3 34 6 15 l4 -28 135 0 134 0 0 39 c0 37 2 40 49 60 58 25 66 25 127 9 32 -9 49 -20 55 -35 6 -15 14 -20 28 -16 19 5 21 1 22 -38 1 -24 2 -51 3 -59 1 -12 20 -16 94 -18 109 -3 114 4 43 63 -27 22 -53 48 -60 58 -9 14 -8 17 9 17 11 0 20 -4 20 -10 0 -5 18 -10 40 -10 40 0 40 0 40 39 0 41 -11 51 -56 51 -13 0 -24 -4 -24 -10 0 -5 -13 -10 -30 -10 -24 0 -30 4 -31 23 -2 37 -4 42 -14 44 -5 1 -9 -6 -8 -15 1 -12 -5 -18 -17 -18 -18 0 -20 7 -20 58 0 65 -19 92 -21 29 -1 -23 -3 -45 -4 -51 -1 -5 -3 -18 -4 -27 -1 -13 -23 4 -71 55 -63 68 -92 114 -68 109 12 -2 36 57 37 90 1 16 6 21 16 17 12 -5 15 4 14 52 0 33 -3 53 -6 47 -10 -27 -21 -11 -33 50 -15 74 -20 83 -31 66 -7 -11 -9 -10 -9 4 0 13 8 17 33 17 l33 0 2 98 c3 97 3 97 -25 114 -17 10 -28 25 -28 40 0 13 -7 24 -17 26 -14 3 -18 -3 -18 -28 0 -18 -6 -33 -15 -36 -11 -5 -15 -24 -15 -81 0 -98 -9 -113 -64 -113 -37 0 -45 4 -50 23 -6 22 1 215 9 270 l5 27 -76 0 c-69 0 -75 -2 -69 -19z m-1752 -198 c-29 -2 -77 -2 -105 0 -29 2 -6 3 52 3 58 0 81 -1 53 -3z m145 0 c-15 -2 -42 -2 -60 0 -18 2 -6 4 27 4 33 0 48 -2 33 -4z m142 -168 l0 -105 -135 0 -135 0 0 105 0 105 135 0 135 0 0 -105z m633 18 c-73 -2 -193 -2 -265 0 -73 1 -14 3 132 3 146 0 205 -2 133 -3z m195 0 c-10 -2 -28 -2 -40 0 -13 2 -5 4 17 4 22 1 32 -1 23 -4z m130 0 c-21 -2 -55 -2 -75 0 -21 2 -4 4 37 4 41 0 58 -2 38 -4z m330 0 c-54 -2 -142 -2 -195 0 -54 1 -10 3 97 3 107 0 151 -2 98 -3z m190 0 c-15 -2 -42 -2 -60 0 -18 2 -6 4 27 4 33 0 48 -2 33 -4z m289 -90 c-2 -16 -4 -3 -4 27 0 30 2 43 4 28 2 -16 2 -40 0 -55z m-2090 -210 c-2 -37 -3 -9 -3 62 0 72 1 102 3 68 2 -34 2 -93 0 -130z m933 117 c0 -11 -28 -6 -41 7 -7 7 -3 9 15 6 14 -3 26 -9 26 -13z m380 0 c0 -6 -63 -9 -172 -8 l-173 2 170 6 c94 3 171 7 173 8 1 1 2 -2 2 -8z m68 -7 c-10 -2 -28 -2 -40 0 -13 2 -5 4 17 4 22 1 32 -1 23 -4z m-451 -69 c-3 -3 -12 -4 -19 -1 -8 3 -5 6 6 6 11 1 17 -2 13 -5z m160 0 c-3 -3 -12 -4 -19 -1 -8 3 -5 6 6 6 11 1 17 -2 13 -5z m370 -114 c239 0 287 -2 299 -15 14 -13 14 -15 1 -15 -9 0 -17 -4 -19 -9 -7 -20 -78 -17 -78 4 0 17 -26 21 -32 5 -2 -7 -21 -7 -59 0 -38 7 -78 7 -125 0 -38 -5 -72 -10 -76 -10 -5 0 -8 -8 -9 -17 0 -12 -4 -8 -11 10 -11 31 -17 33 -44 12 -25 -19 -44 -19 -44 0 0 8 -6 15 -14 15 -8 0 -16 -7 -20 -15 -8 -22 -36 -18 -36 5 0 11 -7 20 -15 20 -8 0 -15 8 -14 18 0 10 3 12 6 5 3 -10 71 -13 290 -13z m675 -50 l57 -65 -96 -3 c-52 -1 -97 -1 -100 1 -3 4 -7 24 -20 104 l-5 32 54 -2 c53 -2 54 -3 110 -67z m-2024 43 c-16 -2 -40 -2 -55 0 -16 2 -3 4 27 4 30 0 43 -2 28 -4z m399 1 c-3 -3 -12 -4 -19 -1 -8 3 -5 6 6 6 11 1 17 -2 13 -5z m176 -1 c-24 -2 -62 -2 -85 0 -24 2 -5 4 42 4 47 0 66 -2 43 -4z m-636 -65 c-3 -8 -6 -5 -6 6 -1 11 2 17 5 13 3 -3 4 -12 1 -19z m373 -1 c0 -2 -10 -12 -22 -23 l-23 -19 19 23 c18 21 26 27 26 19z m470 -1 c0 -2 -8 -10 -17 -17 -16 -13 -17 -12 -4 4 13 16 21 21 21 13z m490 -10 c0 -3 -4 -8 -10 -11 -5 -3 -10 -1 -10 4 0 6 5 11 10 11 6 0 10 -2 10 -4z m353 -12 c-7 -18 -64 -16 -71 4 -2 8 9 12 37 12 32 0 39 -3 34 -16z m-1293 2 c0 -2 -8 -10 -17 -17 -16 -13 -17 -12 -4 4 13 16 21 21 21 13z m808 -48 c2 -29 8 -58 14 -66 9 -10 6 -12 -15 -10 -30 4 -49 18 -24 18 11 0 15 9 15 30 -1 25 -5 30 -25 30 -18 0 -23 5 -23 25 0 21 5 25 28 25 26 0 27 -3 30 -52z m72 38 c0 -16 -34 -31 -50 -21 -14 8 10 34 33 35 9 0 17 -6 17 -14z m157 -32 c-3 -3 -12 -4 -19 -1 -8 3 -5 6 6 6 11 1 17 -2 13 -5z m-34 -31 c-7 -2 -19 -2 -25 0 -7 3 -2 5 12 5 14 0 19 -2 13 -5z m-2723 -18 c0 -19 -18 -19 -61 0 l-34 14 48 1 c35 0 47 -4 47 -15z m170 5 c0 -12 -45 -24 -60 -15 -5 3 -8 11 -5 16 8 12 65 12 65 -1z m200 -4 c0 -16 -68 -28 -77 -13 -3 4 -15 12 -27 17 -15 6 -4 9 42 9 47 1 62 -2 62 -13z m243 -6 c-54 -33 -57 -109 -5 -157 l25 -23 -189 0 c-168 0 -186 2 -168 15 30 20 48 69 41 110 -4 24 -2 33 5 29 19 -12 70 -18 158 -18 85 -1 85 -1 88 26 2 18 10 28 25 31 46 9 51 6 20 -13z m177 4 c0 -8 -4 -14 -9 -14 -5 0 -23 6 -41 14 l-33 13 42 0 c28 0 41 -4 41 -13z m174 7 c3 -5 -7 -11 -22 -14 -30 -6 -45 0 -37 14 8 12 52 12 59 0z m142 -29 c-4 -3 -14 2 -24 12 -16 18 -16 18 6 6 13 -6 21 -14 18 -18z m222 15 c23 -1 42 -4 42 -7 0 -14 -94 -50 -130 -50 -39 0 -40 1 -40 36 l0 37 43 -8 c23 -4 61 -8 85 -8z m-185 -5 c-6 -4 -13 -21 -16 -37 -4 -27 -4 -27 -6 8 -1 29 3 37 17 37 11 0 13 -3 5 -8z m1444 2 c-3 -3 -12 -4 -19 -1 -8 3 -5 6 6 6 11 1 17 -2 13 -5z m-2910 -36 c-3 -8 -6 -5 -6 6 -1 11 2 17 5 13 3 -3 4 -12 1 -19z m63 7 c0 -8 -4 -15 -10 -15 -5 0 -10 6 -10 13 0 8 -4 7 -10 -3 -8 -13 -10 -12 -10 3 0 10 8 17 20 17 11 0 20 -7 20 -15z m1743 -4 c22 -9 27 -17 27 -46 l0 -35 83 0 c71 0 87 -3 102 -20 10 -11 24 -20 31 -20 7 0 16 -4 19 -10 4 -7 -112 -10 -342 -10 -307 0 -345 2 -327 15 12 8 27 28 34 45 12 29 14 30 79 30 56 0 78 6 136 35 72 35 100 38 158 16z m2132 9 c3 -5 1 -10 -4 -10 -6 0 -11 5 -11 10 0 6 2 10 4 10 3 0 8 -4 11 -10z m-3625 -20 c0 -11 -4 -20 -10 -20 -5 0 -10 2 -10 4 0 2 -3 11 -6 20 -4 11 -1 16 10 16 9 0 16 -8 16 -20z m148 8 c-6 -18 -28 -21 -28 -4 0 9 7 16 16 16 9 0 14 -5 12 -12z m652 -14 c0 -8 -4 -14 -9 -14 -11 0 -22 26 -14 34 9 9 23 -3 23 -20z m144 11 c-4 -8 -10 -15 -15 -15 -5 0 -9 7 -9 15 0 8 7 15 15 15 9 0 12 -6 9 -15z m246 0 c0 -8 -9 -15 -20 -15 -11 0 -20 7 -20 15 0 8 9 15 20 15 11 0 20 -7 20 -15z m1090 11 c0 -2 -7 -9 -15 -16 -13 -11 -14 -10 -9 4 5 14 24 23 24 12z m30 -17 c0 -6 -4 -7 -10 -4 -5 3 -10 11 -10 16 0 6 5 7 10 4 6 -3 10 -11 10 -16z m-246 -14 c3 -8 1 -15 -4 -15 -6 0 -10 7 -10 15 0 8 2 15 4 15 2 0 6 -7 10 -15z m1591 -5 c10 -11 16 -20 13 -20 -3 0 -13 9 -23 20 -10 11 -16 20 -13 20 3 0 13 -9 23 -20z m-2000 -3 c7 4 7 2 0 -5 -6 -7 -31 -9 -70 -5 -38 4 -52 9 -40 13 10 4 37 3 59 -1 23 -4 45 -5 51 -2z m295 3 c0 -5 -5 -10 -11 -10 -5 0 -7 5 -4 10 3 6 8 10 11 10 2 0 4 -4 4 -10z m-1023 -22 c-3 -8 -6 -5 -6 6 -1 11 2 17 5 13 3 -3 4 -12 1 -19z m1206 15 c-7 -2 -21 -2 -30 0 -10 3 -4 5 12 5 17 0 24 -2 18 -5z m470 -37 c32 -2 64 -9 71 -15 8 -7 31 -20 52 -31 l39 -19 -225 0 -225 0 36 19 c19 10 41 26 48 34 17 20 107 22 114 4 4 -8 9 -4 13 10 4 14 10 19 13 13 4 -6 33 -13 64 -15z m307 20 c0 -2 -8 -10 -17 -17 -16 -13 -17 -12 -4 4 13 16 21 21 21 13z m720 -31 c0 -5 -5 -3 -10 5 -5 8 -10 20 -10 25 0 6 5 3 10 -5 5 -8 10 -19 10 -25z m-1760 21 c0 -3 -4 -8 -10 -11 -5 -3 -10 -1 -10 4 0 6 5 11 10 11 6 0 10 -2 10 -4z m1788 -21 c-3 -3 -9 2 -12 12 -6 14 -5 15 5 6 7 -7 10 -15 7 -18z m35 10 c-3 -9 -8 -14 -10 -11 -3 3 -2 9 2 15 9 16 15 13 8 -4z m-1510 -30 c15 -13 27 -27 27 -30 0 -3 -77 -5 -172 -5 l-172 0 34 30 c34 28 38 29 145 29 102 0 112 -1 138 -24z m-2007 -14 l27 -21 -142 0 -142 0 26 23 c23 19 36 22 115 21 74 -1 93 -5 116 -23z m797 0 l21 -21 -137 0 -138 0 26 23 c23 20 36 22 117 21 77 -1 93 -5 111 -23z"/>
<path d="M7653 5273 c9 -2 23 -2 30 0 6 3 -1 5 -18 5 -16 0 -22 -2 -12 -5z"/>
<path d="M7718 5273 c6 -2 18 -2 25 0 6 3 1 5 -13 5 -14 0 -19 -2 -12 -5z"/>
<path d="M8960 4525 c0 -8 2 -15 4 -15 2 0 6 7 10 15 3 8 1 15 -4 15 -6 0 -10 -7 -10 -15z"/>
<path d="M5730 4079 c-7 -11 -9 -28 -5 -37 5 -14 8 -12 18 8 16 32 51 33 55 2 3 -16 -9 -37 -37 -67 -23 -25 -41 -54 -41 -65 0 -19 5 -21 50 -18 56 3 68 20 18 26 -18 2 -35 6 -37 8 -3 2 11 21 31 42 45 47 52 69 33 98 -20 31 -70 33 -85 3z"/>
<path d="M5957 4082 c-12 -13 -17 -37 -17 -85 0 -72 14 -97 54 -97 31 0 50 25 50 65 0 45 -21 68 -56 63 -30 -5 -34 2 -18 33 13 24 29 24 46 2 16 -22 32 -8 18 15 -16 24 -57 27 -77 4z m61 -115 c2 -27 -1 -39 -13 -43 -35 -14 -61 46 -33 74 23 23 43 9 46 -31z"/>
<path d="M6173 4088 c-17 -22 -23 -47 -13 -53 6 -4 14 5 20 19 10 28 29 33 48 14 20 -20 14 -35 -33 -88 -61 -68 -59 -80 11 -80 64 0 73 23 10 28 l-37 3 40 44 c42 46 53 89 29 113 -16 16 -63 15 -75 0z"/>
<path d="M6360 4000 c0 -98 16 -141 22 -58 3 38 6 42 33 45 30 4 65 34 65 57 0 6 -7 22 -16 34 -12 17 -25 22 -60 22 l-44 0 0 -100z m85 45 c0 -27 -4 -30 -32 -33 -32 -3 -33 -2 -33 33 0 35 1 36 33 33 28 -3 32 -6 32 -33z"/>
<path d="M6702 4089 c2 -6 8 -10 13 -10 5 0 11 4 13 10 2 6 -4 11 -13 11 -9 0 -15 -5 -13 -11z"/>
<path d="M6847 4094 c-8 -8 1 -24 14 -24 5 0 9 7 9 15 0 15 -12 20 -23 9z"/>
<path d="M7090 4000 c0 -60 4 -100 10 -100 6 0 10 35 11 83 l1 82 21 -80 c15 -53 27 -80 36 -80 10 0 22 27 37 80 l22 80 1 -82 c1 -48 5 -83 11 -83 6 0 10 40 10 100 0 90 -2 100 -18 100 -15 0 -23 -16 -37 -75 -11 -41 -22 -75 -25 -75 -4 0 -14 34 -24 75 -14 61 -21 75 -37 75 -17 0 -19 -8 -19 -100z"/>
<path d="M7290 4085 c0 -8 5 -15 10 -15 6 0 10 7 10 15 0 8 -4 15 -10 15 -5 0 -10 -7 -10 -15z"/>
<path d="M7650 4075 c0 -20 -5 -25 -24 -25 -13 0 -29 -6 -35 -14 -19 -22 -23 -78 -9 -106 11 -20 21 -25 56 -26 l42 -1 0 99 c0 80 -3 98 -15 98 -9 0 -15 -9 -15 -25z m-5 -100 c0 -43 -3 -50 -20 -50 -16 0 -21 8 -23 39 -4 49 3 68 25 64 14 -3 18 -14 18 -53z"/>
<path d="M7760 4090 c0 -5 11 -10 25 -10 25 0 25 -1 25 -91 0 -68 3 -90 13 -87 8 3 13 33 15 91 3 85 3 87 27 87 14 0 25 5 25 10 0 6 -28 10 -65 10 -37 0 -65 -4 -65 -10z"/>
<path d="M8107 4093 c-4 -3 -7 -14 -7 -24 0 -9 -6 -20 -12 -23 -10 -5 -10 -7 0 -12 8 -4 12 -28 12 -70 0 -36 4 -64 10 -64 6 0 10 28 10 64 0 42 4 66 13 69 9 4 8 8 -3 16 -12 8 -12 13 4 30 19 21 19 21 -1 21 -11 0 -23 -3 -26 -7z"/>
<path d="M8174 4078 c-4 -13 -12 -26 -18 -30 -8 -6 -8 -10 1 -16 6 -4 13 -33 15 -65 2 -31 8 -57 13 -57 6 0 11 26 13 57 2 32 9 61 15 66 9 7 9 10 0 14 -18 7 -16 24 5 39 15 12 15 13 -10 14 -19 0 -29 -6 -34 -22z"/>
<path d="M8240 4084 c0 -17 22 -14 28 4 2 7 -3 12 -12 12 -9 0 -16 -7 -16 -16z"/>
<path d="M6597 4040 c-12 -10 -19 -22 -15 -26 5 -4 16 0 26 9 14 13 21 14 30 5 19 -19 14 -27 -24 -43 -31 -13 -35 -18 -32 -47 3 -32 5 -33 49 -35 l45 -2 -4 62 c-2 34 -5 67 -7 73 -6 21 -44 23 -68 4z m53 -78 c0 -21 -18 -42 -37 -42 -19 0 -16 37 5 49 25 15 32 13 32 -7z"/>
<path d="M6922 4044 c-17 -12 -22 -25 -22 -60 0 -25 5 -54 10 -65 14 -26 55 -24 74 3 21 29 7 46 -14 18 -20 -27 -50 -21 -50 9 0 16 8 20 38 23 35 3 37 5 34 33 -3 26 -25 55 -42 55 -3 0 -16 -7 -28 -16z m46 -37 c3 -12 -3 -17 -22 -17 -25 0 -35 18 -19 34 12 12 38 2 41 -17z"/>
<path d="M7935 4050 c-4 -6 -15 -8 -26 -5 -18 6 -19 1 -19 -70 0 -57 3 -76 12 -73 8 3 12 18 10 39 -4 44 13 89 33 89 17 0 20 16 6 25 -5 3 -13 1 -16 -5z"/>
<path d="M7985 4040 c-23 -26 -11 -39 14 -16 11 10 25 15 30 11 21 -13 10 -35 -25 -50 -31 -13 -35 -18 -32 -47 3 -32 5 -33 48 -33 l46 -1 -4 66 c-5 86 -37 115 -77 70z m55 -79 c0 -22 -25 -45 -40 -36 -14 9 -13 21 6 39 21 21 34 20 34 -3z"/>
<path d="M8327 4052 c-21 -4 -37 -40 -37 -80 0 -64 68 -99 92 -47 12 28 2 48 -12 25 -5 -8 -11 -19 -13 -24 -2 -5 -11 -7 -20 -3 -24 9 -25 107 -1 107 9 0 23 -8 30 -17 14 -20 30 -12 21 11 -8 19 -37 34 -60 28z"/>
<path d="M6500 3973 c0 -42 4 -73 10 -73 6 0 10 23 10 50 0 42 5 55 25 74 l26 24 -36 -1 -35 -1 0 -73z"/>
<path d="M6702 3978 c2 -46 7 -73 16 -76 9 -3 12 16 12 72 0 62 -3 76 -15 76 -13 0 -15 -12 -13 -72z"/>
<path d="M6760 3972 c0 -54 3 -73 13 -69 7 2 12 23 12 56 0 44 4 55 25 71 l24 18 -37 -1 -37 -1 0 -74z"/>
<path d="M6842 3978 c2 -46 7 -73 16 -76 9 -3 12 16 12 72 0 62 -3 76 -15 76 -13 0 -15 -12 -13 -72z"/>
<path d="M7290 3975 c0 -43 4 -75 10 -75 6 0 10 32 10 75 0 43 -4 75 -10 75 -6 0 -10 -32 -10 -75z"/>
<path d="M7351 4015 l21 -35 -21 -36 c-24 -40 -25 -44 -11 -44 6 0 18 13 28 30 l18 29 18 -29 c9 -17 21 -30 27 -30 13 0 11 9 -11 45 l-20 33 21 36 c16 28 18 36 7 36 -8 0 -21 -11 -28 -26 l-14 -25 -13 25 c-8 15 -20 26 -28 26 -11 0 -10 -8 6 -35z"/>
<path d="M7472 4038 c-18 -22 -23 -81 -9 -108 15 -30 64 -35 81 -8 15 24 -1 36 -18 13 -16 -23 -46 -13 -46 15 0 16 6 20 35 20 32 0 35 3 35 28 0 15 -5 33 -12 40 -16 16 -53 15 -66 0z m56 -31 c3 -12 -3 -17 -22 -17 -25 0 -35 18 -19 34 12 12 38 2 41 -17z"/>
<path d="M8240 3975 c0 -85 16 -102 22 -22 4 64 0 97 -13 97 -5 0 -9 -34 -9 -75z"/>
<path d="M5850 3985 c0 -10 10 -15 30 -15 20 0 30 5 30 15 0 10 -10 15 -30 15 -20 0 -30 -5 -30 -15z"/>
<path d="M6070 3980 c0 -5 14 -10 30 -10 17 0 30 5 30 10 0 6 -13 10 -30 10 -16 0 -30 -4 -30 -10z"/>
</g>
</svg>