<svg xmlns="http://www.w3.org/2000/svg" viewBox="15.50 177.00 544.00 211.70">
<g transform="translate(0.000000,768.000000) scale(0.100000,-0.100000)" fill="currentColor" stroke="none">
<path d="M1311 5788 c-22 -40 -38 -76 -35 -80 3 -4 21 -8 40 -8 30 0 34 -3 34 -25 0 -14 5 -25 10 -25 6 0 10 11 10 25 0 14 5 25 10 25 6 0 10 7 10 15 0 8 -4 15 -10 15 -6 0 -10 28 -10 65 0 36 -4 65 -10 65 -5 0 -27 -32 -49 -72z m39 -18 c0 -36 -2 -40 -25 -40 l-25 0 20 40 c11 22 23 40 25 40 3 0 5 -18 5 -40z"/>
<path d="M1531 5791 c-23 -38 -41 -74 -41 -80 0 -6 18 -11 39 -11 36 0 40 -3 43 -27 4 -25 5 -26 12 -8 4 11 12 28 17 37 5 11 5 19 -1 23 -6 3 -10 33 -10 65 0 32 -4 61 -9 65 -6 3 -28 -26 -50 -64z m35 -57 c-5 -13 -46 -21 -46 -9 0 3 10 25 22 48 l23 42 3 -33 c2 -19 1 -40 -2 -48z"/>
<path d="M1907 5854 c-11 -12 3 -24 29 -24 24 0 24 -1 24 -90 0 -53 4 -90 10 -90 6 0 10 36 10 89 0 84 1 90 22 93 12 2 23 9 26 16 3 9 -13 12 -55 12 -33 0 -63 -3 -66 -6z"/>
<path d="M2280 5761 c0 -56 4 -103 10 -106 6 -4 10 6 10 24 0 44 15 46 39 5 29 -49 46 -34 20 18 -20 40 -20 43 -4 70 24 42 12 45 -24 6 l-31 -33 0 58 c0 31 -4 57 -10 57 -6 0 -10 -40 -10 -99z"/>
<path d="M2470 5754 l0 -105 47 3 c60 4 72 28 14 28 l-41 0 0 90 c0 53 -4 90 -10 90 -6 0 -10 -42 -10 -106z"/>
<path d="M3305 5840 c-3 -5 -4 -14 0 -19 3 -6 -3 -14 -12 -20 -17 -9 -17 -10 0 -16 13 -6 17 -19 17 -66 0 -43 4 -61 15 -65 22 -9 41 7 21 18 -20 11 -23 113 -3 121 10 4 10 6 0 6 -7 1 -13 10 -13 20 0 23 -16 36 -25 21z"/>
<path d="M2042 5798 c-14 -14 -16 -38 -3 -38 5 0 11 7 15 15 8 21 36 19 36 -4 0 -11 -12 -23 -30 -31 -34 -14 -46 -41 -30 -70 11 -21 44 -27 55 -10 5 8 11 7 21 -1 16 -13 16 -12 14 61 -1 30 -6 62 -11 72 -11 21 -49 24 -67 6z m48 -92 c0 -27 -28 -43 -36 -21 -6 16 12 45 27 45 5 0 9 -11 9 -24z"/>
<path d="M2157 5803 c-11 -10 -8 -143 3 -143 6 0 10 22 10 48 0 51 19 90 38 78 7 -4 12 -33 12 -67 0 -46 3 -59 15 -59 12 0 15 13 15 56 0 30 -5 64 -10 75 -12 21 -45 26 -56 8 -5 -8 -8 -8 -13 0 -4 6 -10 8 -14 4z"/>
<path d="M2607 5792 c-22 -24 -23 -105 -1 -126 40 -40 84 -7 84 64 0 72 -44 105 -83 62z m51 -14 c17 -17 15 -83 -3 -98 -34 -28 -61 42 -35 91 12 22 21 24 38 7z"/>
<path d="M2737 5792 c-22 -24 -23 -105 -1 -126 8 -9 24 -16 34 -16 20 0 52 38 44 52 -8 13 -24 9 -24 -6 0 -22 -19 -30 -35 -16 -20 17 -19 84 1 101 14 11 18 10 29 -5 20 -27 39 -16 20 12 -19 27 -46 28 -68 4z"/>
<path d="M2855 5794 c-12 -12 -15 -31 -13 -72 3 -51 6 -57 30 -66 42 -15 68 14 68 74 0 69 -45 103 -85 64z m55 -23 c26 -49 -1 -119 -35 -91 -18 15 -20 81 -3 98 17 17 26 15 38 -7z"/>
<path d="M2970 5729 c0 -46 4 -79 10 -79 6 0 10 26 10 59 0 41 5 62 15 71 23 19 34 2 37 -63 2 -31 8 -57 13 -57 6 0 11 26 13 57 2 32 8 63 13 68 19 18 39 -26 39 -84 0 -38 3 -52 11 -44 5 5 9 38 7 73 -3 68 -19 90 -54 75 -11 -4 -23 -7 -29 -5 -5 2 -27 4 -47 5 l-38 3 0 -79z"/>
<path d="M3186 5794 c-10 -10 -16 -33 -16 -64 0 -52 18 -80 50 -80 32 0 50 28 50 80 0 52 -18 80 -50 80 -10 0 -26 -7 -34 -16z m52 -16 c17 -17 15 -83 -3 -98 -12 -10 -18 -10 -30 0 -27 22 -15 110 15 110 3 0 11 -5 18 -12z"/>
<path d="M3375 5798 c-9 -24 -1 -143 10 -143 13 0 19 135 6 148 -7 7 -12 5 -16 -5z"/>
<path d="M3501 5788 c-5 -13 -12 -38 -16 -57 -8 -40 -20 -27 -30 31 -4 24 -12 38 -22 38 -10 0 -12 -6 -7 -22 4 -13 13 -45 20 -72 14 -54 21 -64 33 -50 16 16 50 144 40 150 -5 3 -13 -5 -18 -18z"/>
<path d="M3560 5790 c-21 -21 -26 -64 -11 -103 17 -43 73 -46 87 -5 9 30 -3 34 -25 7 -21 -26 -37 -20 -43 16 -2 17 3 21 35 23 31 3 37 7 37 27 0 26 -24 55 -46 55 -8 0 -23 -9 -34 -20z m49 -19 c13 -23 6 -30 -20 -24 -19 5 -25 23 -12 36 11 12 22 8 32 -12z"/>
<path d="M1410 5735 c0 -12 8 -16 33 -13 17 2 32 8 32 13 0 6 -15 11 -32 13 -25 3 -33 -1 -33 -13z"/>
<path d="M1630 5735 c0 -10 10 -15 30 -15 20 0 30 5 30 15 0 10 -10 15 -30 15 -20 0 -30 -5 -30 -15z"/>
<path d="M3300 5550 l-1435 -5 1431 -3 c1096 -1 1433 -5 1442 -14 9 -9 12 -9 12 0 0 9 99 12 398 14 l397 3 -405 5 c-223 3 -1051 3 -1840 0z"/>
<path d="M462 5543 c258 -2 678 -2 935 0 258 1 47 2 -467 2 -514 0 -725 -1 -468 -2z"/>
<path d="M3870 5341 c-17 -5 -21 -9 -12 -15 13 -8 17 -129 6 -185 l-6 -31 -94 0 c-108 0 -114 5 -114 90 0 41 -5 56 -25 75 -13 14 -31 25 -39 25 -8 0 -16 5 -18 11 -3 8 -15 6 -38 -6 -60 -30 -70 -44 -70 -96 0 -26 -5 -60 -12 -75 -12 -26 -14 -26 -78 -20 -36 3 -75 6 -87 6 -18 0 -23 6 -23 25 0 16 6 25 15 25 8 0 15 1 15 3 0 11 -34 104 -41 111 -7 8 -26 -68 -21 -86 1 -5 -2 -8 -8 -8 -5 0 -10 -4 -10 -10 0 -5 7 -10 15 -10 16 0 19 -18 6 -38 -9 -15 -120 -15 -159 -1 -19 7 -22 16 -22 69 0 51 -4 65 -25 85 -21 21 -33 25 -88 25 -48 0 -71 -5 -88 -19 -22 -18 -23 -18 -41 3 -17 21 -17 21 -19 1 -3 -54 4 -101 17 -111 11 -9 12 -17 4 -35 -10 -23 -15 -24 -90 -21 l-80 4 0 29 c0 16 -4 29 -9 29 -5 0 -8 11 -7 25 2 13 -1 22 -5 19 -5 -3 -9 -13 -9 -24 0 -10 -6 -20 -14 -23 -9 -3 -12 -15 -9 -31 4 -19 1 -26 -11 -26 -11 0 -16 9 -16 29 0 17 -5 33 -10 36 -6 4 -10 14 -9 23 1 10 -1 24 -4 32 -3 8 -8 22 -10 30 -3 8 -6 -9 -6 -37 -1 -30 -6 -53 -11 -53 -6 0 -10 -6 -9 -12 4 -36 -2 -48 -25 -48 -13 0 -27 -6 -29 -12 -3 -7 -6 -4 -6 7 -1 11 6 33 14 49 8 15 15 44 15 62 l0 34 -64 0 c-36 0 -68 5 -71 10 -3 6 -42 10 -86 10 -46 0 -79 -4 -79 -10 0 -6 -83 -10 -230 -10 l-230 0 0 -39 c0 -57 16 -68 117 -76 143 -11 133 -2 133 -110 0 -75 -3 -94 -16 -99 -13 -5 -15 -28 -13 -168 2 -119 0 -163 -9 -166 -7 -2 -12 -12 -12 -23 0 -15 7 -19 35 -19 32 0 35 -2 35 -31 0 -29 -2 -30 -37 -27 -38 3 -38 3 -41 51 -3 46 -4 47 -37 47 -31 0 -34 -3 -38 -32 -4 -33 -11 262 -7 315 1 19 -3 27 -14 27 -16 0 -20 13 -16 63 l2 27 -75 0 c-40 0 -76 2 -79 6 -3 3 -149 5 -325 4 l-320 -1 1 23 c1 21 -4 23 -51 26 l-53 3 0 -65 0 -66 -145 0 -145 0 0 50 0 50 -50 2 c-27 0 -56 1 -62 2 -8 1 -14 -14 -16 -37 -2 -28 1 -39 15 -45 11 -4 19 -19 20 -37 1 -16 5 -45 9 -62 5 -25 2 -34 -10 -39 -23 -9 -24 -205 -1 -224 8 -7 15 -27 15 -46 0 -26 5 -33 23 -37 19 -4 18 -4 -6 -6 -21 -1 -30 5 -37 24 -10 26 -25 31 -50 15 -13 -8 -12 -10 3 -10 9 0 17 -7 17 -15 0 -8 -6 -15 -14 -15 -8 0 -17 -7 -20 -16 -4 -11 -12 -14 -24 -9 -9 4 -34 8 -55 9 l-38 1 3 -40 c3 -39 4 -40 41 -43 21 -2 45 2 53 9 17 14 18 2 3 -38 -14 -38 -48 -73 -71 -73 -10 0 -18 -4 -18 -10 0 -26 75 10 85 40 5 16 15 20 56 20 47 0 49 1 49 29 0 26 5 30 46 40 26 7 49 9 52 6 3 -3 -2 -5 -12 -5 -9 0 -28 -11 -41 -25 -36 -35 -35 -102 1 -139 l27 -26 -157 0 -156 0 0 -25 0 -25 1023 0 c3016 -1 3321 0 3329 13 18 28 -3 32 -201 35 l-203 2 26 27 c20 19 26 36 26 68 0 56 -34 90 -92 90 -82 0 -118 -96 -59 -156 l29 -29 -266 1 c-211 0 -263 3 -248 12 10 7 31 22 47 35 16 13 39 22 51 21 28 -4 48 7 44 24 -1 7 -1 9 1 5 3 -5 59 -9 126 -10 l122 -2 -112 -3 c-62 -2 -113 -7 -113 -11 0 -4 52 -7 115 -7 80 0 115 4 115 11 0 7 6 14 14 17 7 3 16 23 19 44 9 55 44 73 141 73 59 0 78 -3 82 -15 4 -8 17 -15 30 -15 23 0 24 -3 24 -75 l0 -75 110 0 c61 0 110 4 110 9 0 4 -34 39 -76 77 -64 57 -73 69 -57 75 10 4 22 3 27 -2 6 -5 27 -9 48 -9 38 0 38 0 38 40 l0 40 -45 0 c-25 0 -45 -4 -45 -10 0 -5 -13 -10 -30 -10 -19 0 -30 5 -30 14 0 9 -12 16 -27 18 -18 2 -29 10 -31 22 -3 16 2 18 45 14 26 -3 56 -8 66 -12 10 -5 17 -4 17 2 0 13 -35 22 -93 22 -30 0 -46 4 -42 10 3 6 0 10 -8 10 -8 0 -15 -6 -14 -12 1 -32 -5 -44 -25 -57 -13 -7 -20 -10 -16 -6 9 9 -15 44 -76 111 -30 34 -44 58 -43 75 2 18 7 25 18 22 12 -3 16 2 15 19 -1 13 1 28 5 33 3 6 9 27 13 48 4 21 11 35 17 32 5 -4 9 15 9 45 0 28 -4 49 -9 46 -10 -7 -21 16 -21 43 0 10 -11 40 -25 67 -14 27 -25 50 -25 52 0 1 15 2 33 3 17 0 41 4 52 8 18 7 18 8 1 18 -16 9 -16 11 -2 16 9 4 16 13 16 21 0 7 7 16 15 20 8 3 15 16 15 29 0 22 -2 23 -87 22 l-88 0 0 -65 0 -65 -44 2 c-25 2 -50 8 -55 13 -14 14 -17 191 -4 208 8 9 0 12 -35 12 -25 0 -51 2 -59 4 -7 2 -24 1 -38 -3z m-1056 -101 c-6 -6 -10 -3 -10 10 0 13 4 16 10 10 7 -7 7 -13 0 -20z m-624 -231 l0 -102 -46 7 c-26 3 -69 6 -95 6 l-49 0 0 73 c0 120 -2 117 101 117 l89 0 0 -101z m83 -92 c7 -2 5 -3 -3 -3 -12 1 -15 19 -16 91 l0 90 3 -87 c3 -56 8 -88 16 -91z m485 156 c-10 -2 -28 -2 -40 0 -13 2 -5 4 17 4 22 1 32 -1 23 -4z m65 0 c-7 -2 -21 -2 -30 0 -10 3 -4 5 12 5 17 0 24 -2 18 -5z m60 0 c-7 -2 -21 -2 -30 0 -10 3 -4 5 12 5 17 0 24 -2 18 -5z m205 0 c-32 -2 -84 -2 -115 0 -32 2 -6 3 57 3 63 0 89 -1 58 -3z m422 3 c0 -3 -4 -8 -10 -11 -5 -3 -10 -1 -10 4 0 6 5 11 10 11 6 0 10 -2 10 -4z m647 -68 c-3 -8 -6 -5 -6 6 -1 11 2 17 5 13 3 -3 4 -12 1 -19z m-707 -22 c0 -2 -8 -10 -17 -17 -16 -13 -17 -12 -4 4 13 16 21 21 21 13z m-720 -38 c0 -6 -6 -5 -15 2 -8 7 -15 14 -15 16 0 2 7 1 15 -2 8 -4 15 -11 15 -16z m680 9 c0 -2 -10 -12 -22 -23 l-23 -19 19 23 c18 21 26 27 26 19z m-2873 -23 c-3 -3 -12 -4 -19 -1 -8 3 -5 6 6 6 11 1 17 -2 13 -5z m2228 -14 c10 -11 16 -20 13 -20 -3 0 -13 9 -23 20 -10 11 -16 20 -13 20 3 0 13 -9 23 -20z m-806 -110 c-1 -66 -6 -120 -11 -120 -4 0 -8 54 -8 120 0 78 4 120 11 120 7 0 10 -40 8 -120z m1361 65 c-19 -19 -37 -35 -42 -35 -8 0 63 69 71 70 3 0 -10 -16 -29 -35z m-1565 -5 c3 -5 1 -10 -4 -10 -6 0 -11 5 -11 10 0 6 2 10 4 10 3 0 8 -4 11 -10z m1368 -27 c-7 -2 -21 -2 -30 0 -10 3 -4 5 12 5 17 0 24 -2 18 -5z m-676 -25 c-3 -8 -6 -5 -6 6 -1 11 2 17 5 13 3 -3 4 -12 1 -19z m-1927 -109 c0 -71 -4 -108 -10 -104 -11 7 -14 198 -3 208 12 13 13 7 13 -104z m2733 96 c-3 -9 -8 -14 -10 -11 -3 3 -2 9 2 15 9 16 15 13 8 -4z m-23 -19 c0 -2 -8 -10 -17 -17 -16 -13 -17 -12 -4 4 13 16 21 21 21 13z m60 -111 c0 -5 -5 -3 -10 5 -5 8 -10 20 -10 25 0 6 5 3 10 -5 5 -8 10 -19 10 -25z m-1310 -30 c0 -24 -5 -35 -15 -35 -10 0 -15 11 -15 35 0 24 5 35 15 35 10 0 15 -11 15 -35z m1300 -22 c0 -18 -4 -33 -10 -33 -5 0 -10 21 -10 48 0 34 3 43 10 32 5 -8 10 -30 10 -47z m904 -20 c45 -54 61 -80 53 -85 -7 -5 -52 -8 -100 -7 -84 2 -87 2 -71 20 19 21 11 97 -12 106 -8 3 -14 14 -14 24 0 15 7 19 40 19 37 0 43 -5 104 -77z m-344 44 c8 -3 -2 -6 -22 -6 -34 -1 -38 -4 -38 -26 0 -23 -4 -25 -44 -25 -30 0 -46 5 -50 15 -7 18 -20 19 -38 3 -7 -7 -43 -14 -79 -16 -55 -3 -68 0 -73 14 -5 13 -14 15 -42 11 -26 -4 -37 -2 -41 9 -5 13 -8 13 -24 -2 -11 -10 -28 -15 -44 -12 -14 3 -25 1 -25 -3 0 -5 -8 -9 -17 -8 -11 0 -13 3 -5 6 6 2 12 13 12 24 0 18 10 19 247 19 179 -1 249 2 252 11 2 7 6 7 10 2 3 -6 13 -13 21 -16z m-595 3 c4 -6 -20 -10 -65 -10 l-72 0 4 -40 c2 -22 0 -40 -4 -40 -5 0 -8 9 -8 20 0 17 -7 20 -40 20 -33 0 -40 3 -40 20 0 11 -3 20 -8 20 -4 0 -6 -20 -4 -45 2 -25 0 -45 -5 -45 -5 0 -7 18 -5 40 l4 40 -70 0 c-39 0 -77 3 -85 6 -12 4 -14 0 -10 -16 5 -19 3 -21 -17 -15 -14 4 -25 3 -30 -5 -11 -19 -19 2 -9 27 8 21 12 22 215 23 115 0 210 3 213 5 8 9 30 5 36 -5z m782 -6 c-3 -3 -12 -4 -19 -1 -8 3 -5 6 6 6 11 1 17 -2 13 -5z m-1863 -39 c3 -8 1 -15 -4 -15 -6 0 -10 7 -10 15 0 8 2 15 4 15 2 0 6 -7 10 -15z m106 -59 c0 -2 -8 -10 -17 -17 -16 -13 -17 -12 -4 4 13 16 21 21 21 13z m850 0 c0 -2 -8 -10 -17 -17 -16 -13 -17 -12 -4 4 13 16 21 21 21 13z m227 -11 c0 -8 -4 -15 -9 -15 -4 0 -8 7 -8 15 0 8 4 15 8 15 5 0 9 -7 9 -15z m441 -7 c5 -25 -33 -23 -66 3 l-26 20 44 -3 c33 -2 46 -8 48 -20z m-1925 -15 c-7 -2 -21 -2 -30 0 -10 3 -4 5 12 5 17 0 24 -2 18 -5z m1854 -59 c-3 -3 -12 -4 -19 -1 -8 3 -5 6 6 6 11 1 17 -2 13 -5z m-1728 -26 c39 -1 74 -4 76 -8 2 -4 -20 -20 -51 -35 -46 -23 -59 -26 -79 -17 -14 7 -25 20 -25 31 0 11 -3 28 -6 38 -4 13 -3 15 4 5 6 -9 33 -14 81 -14z m-1229 -3 c0 -19 -14 -19 -65 0 l-40 14 53 1 c40 0 52 -4 52 -15z m200 3 c-73 -20 -87 -20 -93 -4 -5 14 3 16 61 15 61 -1 64 -2 32 -11z m373 -3 c-59 -25 -72 -100 -27 -154 l26 -31 -152 0 -152 0 26 31 c18 21 26 42 26 68 0 43 -25 85 -47 77 -8 -3 -11 -2 -8 3 3 5 -3 12 -12 14 -10 3 65 5 167 5 166 1 182 0 153 -13z m167 0 c0 -17 -40 -21 -55 -6 -6 5 -26 11 -45 14 -20 2 -6 4 33 5 54 2 67 -1 67 -13z m175 6 c-49 -20 -75 -22 -75 -6 0 11 11 15 48 14 33 0 41 -3 27 -8z m1772 -7 c-3 -3 -12 -4 -19 -1 -8 3 -5 6 6 6 11 1 17 -2 13 -5z m-1621 -22 c-1 -12 8 -18 32 -20 40 -4 42 -22 2 -22 -16 0 -30 -4 -30 -10 0 -6 30 -10 70 -10 73 0 107 11 166 56 30 22 32 22 65 6 21 -10 35 -26 37 -39 2 -16 10 -23 25 -22 12 0 16 3 10 6 -7 2 -13 11 -13 19 0 11 7 13 28 8 40 -10 43 -13 36 -40 -6 -25 -5 -26 40 -23 38 3 50 -1 73 -23 16 -15 39 -31 53 -37 17 -7 -78 -10 -313 -10 l-339 -1 26 31 c30 35 35 92 12 125 -13 18 -12 20 4 21 11 1 17 -5 16 -15z m34 8 c0 -5 -2 -10 -4 -10 -3 0 -8 5 -11 10 -3 6 -1 10 4 10 6 0 11 -4 11 -10z m-1390 -9 c7 10 11 10 24 0 21 -18 12 -30 -19 -27 -31 3 -39 11 -29 27 6 10 9 10 12 0 4 -11 6 -11 12 0z m860 5 c0 -2 -8 -10 -17 -17 -16 -13 -17 -12 -4 4 13 16 21 21 21 13z m-580 -53 l-1 -38 -14 34 c-18 41 -18 41 0 41 11 0 15 -11 15 -37z m148 25 c-6 -18 -28 -21 -28 -4 0 9 7 16 16 16 9 0 14 -5 12 -12z m592 -8 c0 -11 -4 -20 -10 -20 -5 0 -10 2 -10 4 0 2 -3 11 -6 20 -4 11 -1 16 10 16 9 0 16 -8 16 -20z m150 11 c0 -5 -7 -14 -15 -21 -13 -10 -15 -9 -15 9 0 12 6 21 15 21 8 0 15 -4 15 -9z m2820 -16 c13 -14 21 -25 18 -25 -2 0 -15 11 -28 25 -13 14 -21 25 -18 25 2 0 15 -11 28 -25z m-9 -22 c13 -16 12 -17 -3 -4 -17 13 -22 21 -14 21 2 0 10 -8 17 -17z m-1024 1 c-3 -3 -12 -4 -19 -1 -8 3 -5 6 6 6 11 1 17 -2 13 -5z m-2540 -26 c-3 -8 -6 -5 -6 6 -1 11 2 17 5 13 3 -3 4 -12 1 -19z m683 -1 c11 -5 9 -6 -4 -4 -11 1 -21 9 -23 17 -3 10 -2 11 4 4 4 -6 15 -14 23 -17z m2931 -4 c13 -16 12 -17 -3 -4 -17 13 -22 21 -14 21 2 0 10 -8 17 -17z m-1331 3 c0 -2 -7 -7 -16 -10 -8 -3 -12 -2 -9 4 6 10 25 14 25 6z m-416 -44 l50 -32 -138 0 c-89 0 -135 4 -131 10 3 6 12 10 19 10 7 0 22 10 34 23 32 34 103 29 166 -11z m253 27 c8 -8 20 -9 40 -1 24 8 33 6 54 -12 15 -11 35 -26 45 -33 15 -9 -8 -12 -120 -12 l-138 -1 48 34 c56 40 56 40 71 25z m465 -15 c14 -10 34 -24 44 -31 15 -9 -10 -12 -126 -12 l-145 0 36 19 c19 10 40 25 46 32 18 21 115 16 145 -8z m-2546 -23 l27 -21 -138 0 c-114 0 -136 2 -126 13 6 8 7 18 3 22 -4 5 -2 5 5 1 6 -3 14 -3 16 1 3 5 46 7 96 7 75 -2 95 -5 117 -23z m728 7 c9 -9 16 -19 16 -22 0 -3 -57 -6 -127 -6 l-126 0 21 23 c19 20 30 22 110 21 69 0 94 -4 106 -16z m1533 16 c-3 -3 -12 -4 -19 -1 -8 3 -5 6 6 6 11 1 17 -2 13 -5z"/>
<path d="M1728 4100 c-40 -24 -48 -149 -12 -185 19 -18 68 -20 82 -2 19 24 24 57 9 57 -8 0 -17 -9 -20 -20 -7 -29 -37 -37 -53 -15 -17 23 -18 117 -2 133 19 19 49 14 55 -8 5 -20 33 -28 33 -10 0 15 -47 60 -62 60 -7 0 -21 -5 -30 -10z"/>
<path d="M3686 4103 c-3 -3 -6 -51 -6 -105 0 -75 3 -99 13 -96 7 3 14 29 17 64 4 51 8 59 25 59 18 0 20 -8 23 -62 2 -35 7 -63 13 -63 6 0 9 29 7 73 l-3 72 -32 0 c-29 0 -33 3 -33 27 0 27 -12 43 -24 31z"/>
<path d="M1074 4074 c-13 -18 -14 -28 -6 -36 8 -8 14 -4 22 16 12 34 43 32 48 -3 3 -15 -6 -34 -26 -55 -31 -32 -52 -67 -52 -85 0 -7 23 -11 55 -11 30 0 55 5 55 10 0 6 -12 10 -27 10 -54 0 -59 15 -20 54 42 42 54 75 37 105 -16 31 -65 28 -86 -5z"/>
<path d="M1290 4074 c-7 -17 -6 -32 1 -46 8 -14 8 -23 0 -31 -16 -16 -13 -63 5 -81 38 -39 101 -5 89 48 -3 17 -6 48 -5 70 1 47 -14 66 -51 66 -22 0 -32 -6 -39 -26z m65 -4 c10 -16 -5 -50 -21 -50 -17 0 -28 24 -20 45 6 17 32 20 41 5z m3 -108 c2 -22 -2 -34 -12 -38 -34 -13 -61 37 -34 64 21 21 43 9 46 -26z"/>
<path d="M1516 4084 c-11 -11 -16 -35 -16 -80 0 -81 11 -104 51 -104 25 0 32 6 46 37 17 41 13 124 -8 149 -15 19 -54 18 -73 -2z m52 -16 c18 -18 15 -123 -3 -138 -12 -10 -18 -10 -30 0 -29 24 -16 150 15 150 3 0 11 -5 18 -12z"/>
<path d="M2350 4000 c0 -91 8 -118 25 -90 9 15 -6 190 -16 190 -5 0 -9 -45 -9 -100z"/>
<path d="M2410 4085 c0 -8 5 -15 10 -15 6 0 10 7 10 15 0 8 -4 15 -10 15 -5 0 -10 -7 -10 -15z"/>
<path d="M2540 4074 c0 -21 -4 -24 -19 -19 -32 10 -61 -27 -61 -79 0 -55 19 -77 66 -73 l34 2 0 98 c0 58 -4 97 -10 97 -5 0 -10 -12 -10 -26z m-2 -89 c3 -46 -9 -70 -31 -62 -35 13 -26 112 11 105 12 -2 18 -14 20 -43z"/>
<path d="M2790 4084 c0 -9 5 -14 12 -12 18 6 21 28 4 28 -9 0 -16 -7 -16 -16z"/>
<path d="M3172 4003 c2 -66 7 -98 16 -101 8 -2 12 11 12 47 l0 51 36 0 c21 0 33 4 29 10 -3 6 -19 10 -36 10 -26 0 -29 3 -29 30 0 28 3 30 35 30 19 0 35 5 35 10 0 6 -23 10 -50 10 l-51 0 3 -97z"/>
<path d="M3492 4089 c2 -6 8 -10 13 -10 5 0 11 4 13 10 2 6 -4 11 -13 11 -9 0 -15 -5 -13 -11z"/>
<path d="M2720 4071 c0 -11 -6 -22 -12 -24 -10 -4 -10 -7 -1 -14 6 -5 13 -35 15 -68 3 -53 5 -60 26 -63 12 -2 22 1 22 7 0 6 -4 11 -10 11 -15 0 -13 107 2 112 9 3 8 9 -5 22 -9 10 -17 22 -17 27 0 5 -4 9 -10 9 -5 0 -10 -9 -10 -19z"/>
<path d="M3819 4083 c-1 -5 -1 -12 0 -17 1 -5 -4 -13 -11 -18 -10 -8 -10 -11 0 -15 8 -3 12 -26 12 -64 0 -45 4 -61 16 -66 8 -3 20 -1 27 6 8 8 7 11 -6 11 -14 0 -17 10 -17 54 0 34 5 57 13 60 10 5 10 7 0 12 -7 3 -13 14 -13 25 0 18 -19 28 -21 12z"/>
<path d="M1861 4041 c-23 -23 -29 -88 -11 -122 13 -24 62 -25 81 -2 16 19 19 107 4 121 -23 22 -54 23 -74 3z m54 -66 c0 -43 -3 -50 -20 -50 -27 0 -42 46 -27 80 8 17 19 25 30 23 13 -3 17 -14 17 -53z"/>
<path d="M2027 4053 c-4 -3 -17 -6 -29 -7 -22 -1 -23 -5 -23 -70 0 -45 4 -71 12 -73 8 -3 13 15 15 59 3 55 5 63 23 63 18 0 20 -8 23 -62 4 -86 22 -80 22 7 0 57 -3 71 -19 79 -10 6 -21 8 -24 4z"/>
<path d="M2128 4053 c-22 -6 -34 -49 -19 -67 7 -8 23 -17 36 -20 28 -7 33 -33 9 -43 -10 -4 -22 1 -30 12 -17 23 -33 11 -18 -13 17 -26 59 -27 77 -1 20 28 13 43 -30 69 -28 16 -33 24 -24 33 9 9 16 9 31 -1 25 -16 30 -15 30 3 0 12 -31 38 -42 34 -2 -1 -11 -3 -20 -6z"/>
<path d="M2242 4044 c-18 -12 -22 -25 -22 -64 0 -55 18 -80 55 -80 31 0 45 27 45 84 0 35 -5 48 -22 60 -12 9 -25 16 -28 16 -3 0 -16 -7 -28 -16z m54 -38 c9 -36 1 -68 -19 -80 -14 -8 -20 -8 -27 4 -11 17 -13 83 -3 93 15 16 43 6 49 -17z"/>
<path d="M2620 4047 c-28 -14 -38 -37 -16 -37 9 0 16 5 16 10 0 6 9 10 20 10 31 0 24 -30 -10 -41 -32 -12 -45 -37 -35 -69 5 -16 14 -19 51 -18 40 2 45 5 40 23 -3 11 -6 41 -6 67 0 56 -21 75 -60 55z m40 -92 c0 -29 -25 -44 -43 -26 -9 10 -7 17 12 32 30 24 31 24 31 -6z"/>
<path d="M2879 4053 c-20 -5 -39 -45 -39 -81 0 -60 57 -93 94 -56 24 23 21 99 -4 124 -20 20 -23 21 -51 13z m47 -58 c7 -39 -11 -77 -34 -73 -12 2 -18 15 -20 46 -5 73 41 96 54 27z"/>
<path d="M3021 4051 c-8 -5 -20 -7 -28 -4 -10 4 -13 -11 -13 -71 0 -91 18 -102 22 -13 3 56 5 62 26 65 21 3 22 0 22 -63 0 -49 3 -66 13 -62 19 6 16 135 -3 147 -18 12 -21 12 -39 1z"/>
<path d="M3335 4050 c-4 -6 -15 -8 -26 -5 -18 6 -19 1 -19 -69 0 -44 4 -76 10 -76 6 0 10 21 10 46 0 51 14 84 35 84 17 0 20 16 6 25 -5 3 -13 1 -16 -5z"/>
<path d="M3392 4044 c-17 -12 -22 -25 -22 -60 0 -57 14 -84 45 -84 24 0 55 23 55 41 0 15 -27 10 -34 -6 -7 -20 -32 -19 -40 1 -11 28 -7 33 32 36 29 2 38 8 40 25 3 20 -28 63 -46 63 -4 0 -18 -7 -30 -16z m48 -40 c0 -8 -10 -14 -25 -14 -28 0 -29 3 -14 31 8 16 13 18 25 8 8 -6 14 -18 14 -25z"/>
<path d="M3567 4040 c-15 -13 -20 -28 -20 -63 0 -54 17 -80 50 -74 15 3 23 -1 23 -10 0 -20 -28 -27 -45 -13 -20 17 -32 5 -15 -15 18 -22 56 -18 74 7 11 16 16 46 16 99 l0 77 -31 4 c-20 3 -38 -1 -52 -12z m54 -37 c13 -35 -2 -78 -27 -78 -15 0 -20 8 -22 39 -2 21 -1 44 2 52 9 23 36 16 47 -13z"/>
<path d="M2410 3975 c0 -43 4 -75 10 -75 6 0 10 32 10 75 0 43 -4 75 -10 75 -6 0 -10 -32 -10 -75z"/>
<path d="M2790 3975 c0 -43 4 -75 10 -75 6 0 10 32 10 75 0 43 -4 75 -10 75 -6 0 -10 -32 -10 -75z"/>
<path d="M3492 3978 c2 -46 7 -73 16 -76 9 -3 12 16 12 72 0 62 -3 76 -15 76 -13 0 -15 -12 -13 -72z"/>
<path d="M1197 3994 c-15 -16 -5 -24 29 -24 24 0 34 4 32 13 -5 13 -50 22 -61 11z"/>
<path d="M1417 3994 c-15 -16 -5 -24 29 -24 24 0 34 4 32 13 -5 13 -50 22 -61 11z"/>
</g>
</svg>