<svg xmlns="http://www.w3.org/2000/svg" viewBox="724.00 74.00 662.00 175.00">
<g transform="translate(0.000000,768.000000) scale(0.100000,-0.100000)" fill="currentColor" stroke="none">
<path d="M8080 6881 c0 -6 5 -13 10 -16 17 -11 12 -151 -6 -169 -14 -15 -13 -18 20 -31 42 -18 120 -19 165 -4 33 12 37 19 20 36 -8 8 -10 43 -7 102 l4 91 -103 0 c-58 0 -103 -4 -103 -9z"/>
<path d="M8875 6850 c-3 -5 -15 -10 -25 -10 -10 0 -30 -10 -44 -22 -21 -19 -26 -33 -27 -85 -3 -71 13 -97 62 -108 16 -4 29 -11 29 -16 0 -15 -41 0 -80 30 -34 25 -38 26 -157 23 l-123 -3 0 -40 0 -39 188 2 187 3 3 28 c2 15 8 27 13 27 5 0 8 -12 7 -27 -3 -24 1 -28 26 -31 26 -3 28 -1 22 22 -3 13 -2 27 3 30 5 3 11 -8 14 -24 l6 -29 306 -1 305 0 0 60 0 61 -32 -5 c-18 -3 -127 -11 -243 -17 -201 -10 -211 -12 -236 -35 -27 -26 -89 -49 -89 -33 0 5 7 9 16 9 9 0 29 8 45 17 28 17 29 20 29 89 0 82 -10 99 -65 110 -19 3 -35 10 -35 15 0 12 -97 11 -105 -1z"/>
<path d="M9807 6850 c-56 -10 -78 -37 -80 -96 -2 -44 0 -49 28 -63 46 -23 177 -27 231 -6 31 12 44 22 44 36 0 12 7 19 20 19 11 0 20 -4 20 -10 0 -13 37 -13 45 0 4 6 2 17 -4 24 -7 9 -7 16 0 23 18 18 7 77 -15 81 -10 2 -22 -2 -27 -10 -13 -19 -11 -62 3 -76 8 -8 9 -12 1 -12 -6 0 -18 -3 -27 -6 -12 -5 -16 0 -16 19 0 67 -98 101 -223 77z"/>
<path d="M10450 6810 c0 -16 -7 -33 -16 -38 -13 -7 -15 -18 -10 -46 l7 -36 63 0 64 0 4 38 c3 25 0 40 -10 48 -8 6 -12 16 -8 22 5 8 -1 12 -14 12 -17 0 -20 -4 -15 -20 5 -16 2 -20 -15 -20 -21 0 -41 35 -33 58 3 6 0 12 -6 12 -6 0 -11 -13 -11 -30z"/>
<path d="M10520 6830 c0 -5 5 -10 10 -10 6 0 10 5 10 10 0 6 -4 10 -10 10 -5 0 -10 -4 -10 -10z"/>
<path d="M10826 6814 c-5 -12 -19 -15 -63 -13 l-58 3 0 -100 0 -99 335 -5 c236 -4 366 -1 440 8 167 20 154 11 147 92 -9 112 14 103 -286 101 -231 -2 -261 -1 -261 13 0 24 -245 24 -254 0z"/>
<path d="M7696 6745 c-4 -19 -11 -35 -16 -35 -6 0 -10 -15 -10 -34 0 -19 -4 -38 -10 -41 -23 -14 -7 -25 40 -25 28 0 50 2 50 4 0 2 -9 26 -20 52 -11 26 -19 49 -17 51 3 2 10 -11 17 -29 7 -18 20 -40 27 -50 10 -11 11 -18 4 -23 -18 -10 -12 -32 9 -38 20 -5 20 -6 3 -39 -10 -18 -23 -36 -29 -40 -6 -4 -9 -19 -6 -33 2 -14 0 -25 -5 -25 -6 0 -9 -38 -7 -90 l2 -90 -71 0 c-52 0 -68 3 -57 10 8 6 35 9 60 8 l45 -2 3 57 3 57 -55 0 c-30 0 -58 5 -61 10 -3 6 -22 10 -41 10 -39 0 -44 -15 -14 -50 19 -22 25 -63 20 -147 -1 -24 3 -33 14 -33 9 0 16 8 16 20 0 18 7 20 71 20 70 0 71 0 65 -24 -4 -17 -1 -26 10 -30 11 -4 14 -13 10 -31 -4 -14 -2 -25 3 -25 5 0 14 -13 20 -30 26 -75 31 -27 31 275 0 255 -2 305 -14 305 -8 0 -23 14 -34 32 -19 29 -19 33 -5 55 19 29 9 44 -12 17 -13 -17 -14 -17 -15 -1 0 30 -18 18 -24 -18z"/>
<path d="M9610 6640 l0 -60 300 0 300 1 0 61 0 60 -82 -5 c-51 -3 -107 -13 -143 -27 -74 -27 -166 -24 -239 8 -27 12 -68 22 -92 22 l-44 0 0 -60z"/>
<path d="M10230 6640 l0 -60 173 2 172 3 3 46 3 46 -158 7 c-87 4 -166 9 -175 12 -16 5 -18 -2 -18 -56z"/>
<path d="M10594 6677 c-3 -8 -4 -32 -2 -53 l3 -39 70 -2 c43 -1 62 1 50 6 -14 6 -21 20 -25 52 -5 44 -5 44 -48 47 -30 2 -44 -1 -48 -11z"/>
<path d="M7810 6331 c0 -223 3 -331 10 -331 6 0 25 23 42 50 l31 50 107 0 108 0 4 60 c7 98 68 141 123 85 21 -20 25 -34 25 -85 l0 -60 60 0 60 0 0 55 0 55 58 0 57 0 -3 180 -3 180 -249 0 -249 0 -4 -22 -4 -23 -8 23 c-9 28 -45 29 -71 1 -16 -18 -19 -39 -21 -151 -1 -115 -5 -151 -16 -137 -2 2 -1 66 2 141 8 196 -21 180 335 178 l286 -1 0 41 0 40 -89 0 c-49 0 -117 -7 -151 -16 -51 -13 -69 -13 -108 -3 -26 7 -111 14 -189 16 l-143 4 0 -330z"/>
<path d="M12079 6609 c-8 -5 -27 -9 -43 -9 -16 0 -37 -7 -47 -16 -10 -9 -37 -17 -61 -19 -52 -3 -120 -20 -159 -40 -17 -9 -56 -15 -99 -15 l-70 0 0 -85 c0 -79 1 -85 21 -85 36 0 58 19 69 61 6 22 24 54 40 72 l28 32 536 3 536 3 0 49 c0 49 -15 74 -30 50 -4 -7 -8 -28 -8 -47 0 -19 -2 -36 -4 -39 -3 -2 -22 3 -44 12 -25 11 -66 17 -114 17 -41 0 -80 4 -86 9 -7 5 -37 10 -67 12 -31 1 -64 9 -73 17 -11 9 -46 15 -103 16 -47 1 -114 4 -147 6 -34 3 -68 1 -75 -4z"/>
<path d="M10750 6300 l0 -290 300 0 300 0 0 200 c0 132 4 200 10 200 7 0 10 -70 8 -210 -2 -163 0 -210 10 -210 9 0 12 47 12 203 0 111 3 212 6 225 5 16 2 22 -10 22 -9 0 -16 -5 -16 -11 0 -5 -4 -7 -10 -4 -5 3 -10 42 -10 86 l0 79 -300 0 -300 0 0 -290z m340 100 l0 -120 -80 0 -80 0 0 120 0 120 80 0 80 0 0 -120z m208 3 l-3 -118 -87 -3 -88 -3 0 121 0 120 90 0 91 0 -3 -117z"/>
<path d="M8510 6390 l0 -180 105 0 c93 0 105 2 105 18 1 29 44 126 104 230 31 54 56 101 56 105 0 4 -83 7 -185 7 l-185 0 0 -180z"/>
<path d="M8890 6558 c0 -6 -27 -59 -60 -118 -54 -96 -106 -218 -97 -227 2 -2 149 -2 325 -1 l322 3 -172 130 c-104 79 -185 149 -207 177 -31 43 -40 48 -73 48 -22 0 -38 -5 -38 -12z m104 -164 c9 -3 16 -14 16 -24 0 -20 -19 -30 -60 -30 -16 0 -35 3 -44 6 -16 6 -22 35 -9 47 8 9 76 9 97 1z"/>
<path d="M8900 6370 c0 -5 23 -10 50 -10 28 0 50 5 50 10 0 6 -22 10 -50 10 -27 0 -50 -4 -50 -10z"/>
<path d="M9007 6539 c18 -31 97 -98 299 -252 l101 -77 92 0 91 0 0 180 0 180 -219 0 c-218 0 -219 0 -226 -22 l-8 -23 -4 23 c-4 20 -10 22 -74 22 l-70 0 18 -31z"/>
<path d="M9610 6390 l0 -180 50 0 50 0 0 50 0 50 220 0 219 0 3 -72 c3 -71 4 -73 31 -76 l27 -3 0 205 0 206 -50 0 c-43 0 -50 -3 -50 -20 0 -11 -4 -20 -10 -20 -5 0 -10 9 -10 20 0 19 -7 20 -240 20 l-240 0 0 -180z"/>
<path d="M10230 6364 c0 -184 2 -205 16 -200 9 3 87 6 175 6 l159 0 0 200 0 200 -175 0 -175 0 0 -206z"/>
<path d="M10592 6368 l3 -203 68 -3 67 -3 0 206 0 205 -70 0 -70 0 2 -202z"/>
<path d="M11739 6461 c-16 -16 -29 -36 -29 -45 0 -53 -51 -96 -115 -96 l-35 0 0 -295 0 -295 985 0 c542 0 988 -1 993 -2 4 -2 8 6 10 17 2 11 13 25 25 30 22 10 22 11 25 324 3 372 6 361 -88 361 -70 0 -80 -11 -80 -89 l0 -51 -198 0 c-196 0 -198 0 -238 26 -22 14 -55 48 -73 74 -18 26 -44 52 -57 59 -18 8 -184 11 -560 11 l-536 0 -29 -29z m1831 -40 c15 -30 14 -596 -2 -624 -11 -18 -14 25 -18 248 l-5 270 -47 3 -48 3 0 53 c0 29 3 56 7 59 3 4 28 7 54 7 38 0 51 -4 59 -19z"/>
<path d="M13160 6350 c0 -18 7 -20 73 -20 78 0 89 4 80 26 -4 10 -25 14 -79 14 -67 0 -74 -2 -74 -20z"/>
<path d="M9720 6240 l0 -50 -660 0 -660 0 0 -55 0 -55 -250 0 -249 0 -64 -92 c-35 -51 -89 -130 -120 -175 l-57 -83 48 0 47 1 105 155 c57 85 107 157 111 160 15 9 286 14 314 5 l30 -9 -29 -1 c-27 -1 -28 -3 -22 -38 3 -21 6 -48 6 -61 0 -21 4 -23 43 -20 38 3 42 6 45 31 3 23 8 27 37 27 l34 0 3 88 3 87 643 3 c353 1 642 -1 642 -5 0 -5 -146 -7 -325 -5 l-325 3 0 -96 0 -95 74 0 c80 0 86 -4 86 -61 l0 -29 65 0 c37 0 65 -4 65 -10 0 -6 -37 -10 -90 -10 -87 0 -90 1 -90 23 0 37 -28 69 -58 65 -23 -3 -27 -8 -30 -40 -3 -38 -14 -48 -28 -27 -10 17 -85 49 -115 49 -29 0 -37 -19 -35 -84 1 -20 -2 -36 -6 -36 -5 0 -8 4 -8 8 0 5 -64 16 -142 26 -79 9 -162 19 -185 23 -36 5 -43 3 -43 -11 0 -11 -9 -16 -26 -16 -33 0 -64 17 -64 35 0 8 -5 15 -11 15 -9 0 -10 -23 -6 -80 5 -84 5 -84 -40 -83 -7 1 -13 -3 -13 -8 0 -5 45 -9 99 -9 l99 0 -11 35 c-10 34 -11 35 -64 35 -36 0 -52 4 -47 11 4 7 35 9 83 7 70 -3 76 -1 79 17 l3 20 150 -19 150 -20 -3 -50 -3 -50 -143 3 -144 3 7 -24 c4 -12 18 -33 31 -45 28 -26 30 -33 9 -33 -28 0 -15 -31 20 -46 45 -18 89 -18 105 1 7 9 16 12 19 7 6 -8 125 -31 516 -98 239 -40 222 -39 227 -12 4 24 2 24 -141 47 -80 13 -236 38 -346 57 -110 18 -215 34 -232 34 -18 0 -33 5 -33 10 0 6 7 10 15 10 8 0 15 8 15 19 0 15 10 20 54 25 l53 7 7 46 c3 25 6 77 6 115 0 86 12 93 88 52 31 -16 58 -30 62 -32 4 -1 7 16 8 39 2 48 5 54 27 46 10 -4 15 -20 15 -46 0 -35 -3 -41 -26 -47 -17 -5 -42 2 -77 20 -76 38 -87 36 -87 -19 l0 -45 53 0 c58 0 80 -19 66 -55 -11 -28 -11 -93 0 -99 4 -3 51 -12 102 -21 52 -8 146 -25 209 -36 63 -11 126 -22 140 -24 14 -2 33 -6 43 -10 26 -11 21 14 -5 25 -20 9 -293 56 -430 75 -56 7 -61 22 -28 91 25 51 40 56 161 53 110 -2 130 -19 23 -19 l-77 0 41 -44 c23 -25 44 -56 48 -69 10 -42 40 -40 59 3 21 46 54 82 107 118 37 24 51 27 123 27 73 0 86 -3 130 -30 89 -55 132 -152 114 -257 -5 -34 -4 -38 16 -38 20 0 22 4 21 73 0 61 4 80 29 126 60 109 174 154 300 120 56 -15 137 -100 154 -162 17 -61 10 -152 -16 -205 l-20 -42 47 0 c52 0 60 10 60 76 l0 32 99 7 c114 8 133 19 152 88 22 75 26 77 169 77 143 0 147 -2 168 -76 16 -54 43 -79 71 -64 12 6 21 15 21 20 0 6 19 10 43 10 39 0 47 -4 76 -40 49 -61 90 -54 106 18 6 29 10 32 46 32 l39 0 0 75 0 75 -41 0 -42 0 5 140 5 140 -306 2 -306 3 -3 78 -3 77 -294 0 -295 0 0 70 0 70 -210 0 -210 0 0 -50z m260 0 c0 -15 7 -20 24 -20 22 0 25 -5 28 -42 3 -42 4 -43 43 -49 l40 -6 -42 -2 c-41 -1 -43 -3 -43 -31 l0 -30 -125 0 -125 0 0 80 0 80 55 0 c48 0 55 2 55 20 0 17 7 20 45 20 38 0 45 -3 45 -20z m250 -191 l0 -82 67 -103 c64 -101 67 -104 97 -99 369 61 756 127 787 134 21 5 41 5 44 0 3 -4 -11 -11 -32 -15 -86 -15 -104 -19 -104 -27 -1 -5 24 -43 54 -85 31 -44 65 -106 78 -144 21 -62 25 -68 51 -68 21 0 28 -5 28 -19 0 -34 -22 -36 -47 -5 -12 16 -35 59 -49 96 -14 37 -51 103 -82 145 -30 43 -56 79 -57 81 -1 1 -150 -22 -330 -53 -181 -30 -340 -55 -355 -55 -23 0 -37 15 -98 110 l-72 109 0 81 c0 47 4 80 10 80 6 0 10 -34 10 -81z m475 61 c3 -5 1 -10 -4 -10 -6 0 -11 5 -11 10 0 6 2 10 4 10 3 0 8 -4 11 -10z m-10 -40 c3 -6 -1 -7 -9 -4 -18 7 -21 14 -7 14 6 0 13 -4 16 -10z m-2325 -19 c0 -5 -11 -8 -25 -8 -13 0 -22 3 -19 8 3 5 14 9 25 9 10 0 19 -4 19 -9z m1503 -14 c6 -17 128 -10 140 7 13 20 27 -16 27 -71 0 -45 3 -53 19 -53 10 0 21 9 24 20 4 16 13 20 49 20 39 -1 46 -5 78 -45 19 -25 37 -50 39 -56 2 -8 -40 -10 -142 -7 l-146 3 -3 -45 c-2 -25 -6 -44 -10 -42 -5 1 -46 2 -92 2 l-85 0 -3 53 c-3 45 -6 52 -25 55 -16 2 -23 -2 -23 -12 0 -14 -18 -16 -120 -16 -100 0 -120 3 -120 15 0 9 -9 15 -25 15 -24 0 -25 -3 -25 -54 0 -49 -2 -54 -25 -58 l-25 -5 0 88 0 88 -37 7 c-21 3 -58 12 -83 19 -45 13 -44 13 30 8 41 -3 77 -10 80 -14 3 -4 96 -9 207 -11 l202 -3 3 40 c3 37 5 40 36 43 17 2 32 7 32 13 0 14 17 11 23 -4z m807 3 c8 -5 11 -10 5 -10 -5 0 -17 5 -25 10 -8 5 -10 10 -5 10 6 0 17 -5 25 -10z m-405 -30 c3 -5 1 -10 -4 -10 -6 0 -11 5 -11 10 0 6 2 10 4 10 3 0 8 -4 11 -10z m125 0 c0 -5 -2 -10 -4 -10 -3 0 -8 5 -11 10 -3 6 -1 10 4 10 6 0 11 -4 11 -10z m-680 -36 c0 -8 -5 -12 -10 -9 -6 4 -8 11 -5 16 9 14 15 11 15 -7z m805 -24 c3 -5 1 -10 -4 -10 -6 0 -11 5 -11 10 0 6 2 10 4 10 3 0 8 -4 11 -10z m35 0 c0 -5 -5 -10 -11 -10 -5 0 -7 5 -4 10 3 6 8 10 11 10 2 0 4 -4 4 -10z m270 0 c0 -5 -2 -10 -4 -10 -3 0 -8 5 -11 10 -3 6 -1 10 4 10 6 0 11 -4 11 -10z m40 0 c0 -5 -4 -10 -10 -10 -5 0 -10 5 -10 10 0 6 5 10 10 10 6 0 10 -4 10 -10z m260 0 c0 -5 -2 -10 -4 -10 -3 0 -8 5 -11 10 -3 6 -1 10 4 10 6 0 11 -4 11 -10z m-425 -30 c3 -5 1 -10 -4 -10 -6 0 -11 5 -11 10 0 6 2 10 4 10 3 0 8 -4 11 -10z m-140 -30 c3 -5 1 -10 -4 -10 -6 0 -11 5 -11 10 0 6 2 10 4 10 3 0 8 -4 11 -10z m195 0 c0 -5 -4 -10 -10 -10 -5 0 -10 5 -10 10 0 6 5 10 10 10 6 0 10 -4 10 -10z m-306 -36 c3 -8 2 -12 -4 -9 -6 3 -10 10 -10 16 0 14 7 11 14 -7z m166 6 c0 -5 -2 -10 -4 -10 -3 0 -8 5 -11 10 -3 6 -1 10 4 10 6 0 11 -4 11 -10z m60 -4 c0 -2 -7 -7 -16 -10 -8 -3 -12 -2 -9 4 6 10 25 14 25 6z m-110 -26 c0 -5 -5 -10 -11 -10 -5 0 -7 5 -4 10 3 6 8 10 11 10 2 0 4 -4 4 -10z m-70 -4 c0 -2 -7 -7 -16 -10 -8 -3 -12 -2 -9 4 6 10 25 14 25 6z"/>
<path d="M9907 6244 c-15 -16 -5 -24 29 -24 24 0 34 4 32 13 -5 13 -50 22 -61 11z"/>
<path d="M9790 6140 l0 -61 113 3 112 3 3 58 3 57 -116 0 -115 0 0 -60z"/>
<path d="M9796 5956 c-8 -74 -2 -86 45 -86 l39 0 0 70 0 70 -39 0 -38 0 -7 -54z"/>
<path d="M9900 5940 l0 -71 63 3 62 3 3 68 3 67 -66 0 -65 0 0 -70z"/>
<path d="M8154 6235 c-20 -20 -24 -34 -24 -80 l0 -55 60 0 60 0 0 45 c0 90 -50 136 -96 90z"/>
<path d="M8455 6137 c-3 -7 -5 -49 -3 -93 3 -74 5 -79 26 -82 22 -3 22 -2 20 90 -3 79 -6 93 -21 96 -9 2 -19 -3 -22 -11z"/>
<path d="M8517 6143 c-4 -3 -7 -46 -7 -95 l0 -88 275 0 276 0 -3 93 -3 92 -266 3 c-146 1 -268 -1 -272 -5z"/>
<path d="M7966 6018 c-23 -33 -20 -38 24 -38 38 0 40 -2 40 -30 0 -28 2 -30 40 -30 l40 0 0 60 0 60 -64 0 c-56 0 -67 -3 -80 -22z"/>
<path d="M8122 5970 l4 -70 -48 0 -48 0 0 -240 0 -240 160 0 160 0 0 240 0 240 -50 0 -50 0 0 70 0 70 -66 0 -66 0 4 -70z"/>
<path d="M11364 5878 c1 -59 2 -62 29 -69 35 -10 57 -27 67 -55 6 -15 19 -23 44 -26 l36 -4 0 108 0 108 -88 0 -89 0 1 -62z"/>
<path d="M7970 5815 c0 -62 4 -86 14 -92 8 -4 -79 -8 -192 -8 l-207 0 -2 25 c0 14 -1 31 -2 38 -1 14 -141 18 -141 3 0 -4 27 -11 60 -15 55 -6 60 -9 60 -31 0 -20 -5 -25 -25 -25 -19 0 -25 -5 -25 -21 0 -12 -4 -17 -11 -14 -6 4 -13 -2 -16 -14 -6 -24 -48 -29 -56 -6 -5 10 -20 14 -59 12 l-53 -2 0 -60 0 -60 55 2 c30 1 56 7 58 13 5 14 52 13 52 -1 0 -6 -29 -56 -65 -110 l-65 -99 100 0 100 0 0 46 c0 39 7 54 44 103 66 85 70 87 189 98 67 6 107 -7 142 -48 13 -16 26 -29 29 -29 3 0 6 38 6 85 0 82 1 85 25 91 25 6 25 8 25 105 0 92 -1 99 -20 99 -18 0 -20 -7 -20 -85z m-505 -359 c-26 -47 -51 -86 -57 -86 -5 0 -8 4 -6 8 8 23 103 171 106 167 2 -2 -17 -42 -43 -89z m19 -32 c-15 -31 -30 -52 -32 -46 -4 13 49 115 56 108 2 -3 -9 -31 -24 -62z m28 -14 c-3 -25 -9 -40 -17 -40 -10 0 -11 7 -5 30 8 27 18 50 23 50 2 0 1 -18 -1 -40z"/>
<path d="M8368 5863 c-6 -119 -4 -133 20 -133 21 0 22 4 22 85 0 78 -2 85 -20 85 -16 0 -20 -7 -22 -37z"/>
<path d="M7948 5810 c-2 -44 0 -80 5 -80 4 0 7 36 7 80 0 44 -2 80 -4 80 -3 0 -6 -36 -8 -80z"/>
<path d="M9127 5877 c-3 -8 -1 -20 4 -28 6 -10 9 -7 9 14 0 29 -5 35 -13 14z"/>
<path d="M8620 5796 c0 -8 -6 -19 -13 -23 -12 -7 -12 -13 0 -40 l13 -33 140 0 140 0 0 34 c0 39 4 37 -135 56 -44 6 -95 13 -112 16 -25 4 -33 1 -33 -10z"/>
<path d="M9530 5778 c-66 -19 -160 -110 -160 -155 0 -25 28 -13 40 17 27 65 116 120 196 120 48 0 132 -47 161 -91 30 -45 41 -122 25 -168 -10 -27 -9 -31 7 -31 24 0 31 19 31 83 0 158 -148 269 -300 225z"/>
<path d="M10054 5776 c-96 -30 -164 -122 -164 -222 0 -61 7 -84 25 -84 10 0 12 13 8 55 -20 196 208 310 343 171 103 -107 74 -270 -59 -332 -76 -35 -157 -28 -205 16 -19 18 -33 20 -109 18 -80 -3 -84 -4 -60 -17 15 -8 33 -11 44 -6 39 17 55 14 99 -20 25 -19 58 -38 72 -41 37 -8 56 -14 51 -17 -2 -1 -107 0 -234 3 -126 3 -221 7 -209 8 23 2 103 51 123 75 12 15 11 17 -12 17 -14 0 -29 -5 -33 -11 -13 -21 -89 -49 -134 -49 -45 0 -121 28 -134 49 -4 6 -19 11 -34 11 -27 -1 -26 -1 16 -40 24 -22 65 -46 90 -55 37 -12 40 -14 13 -10 -18 3 -126 5 -240 6 -153 1 -197 3 -172 11 39 11 121 64 121 78 0 14 -47 12 -56 -1 -11 -18 -86 -49 -119 -49 -85 0 -184 67 -206 140 -10 32 -17 39 -46 45 -19 3 -40 2 -47 -4 -7 -6 -53 -8 -111 -5 l-100 4 35 -18 c29 -14 36 -23 38 -53 3 -30 -2 -41 -25 -58 -48 -39 -103 -9 -103 55 0 23 7 38 22 48 21 15 20 16 -34 16 -31 0 -63 3 -72 6 -11 4 -16 1 -16 -11 0 -11 5 -15 14 -12 11 4 13 -3 9 -34 -7 -50 11 -93 56 -129 l36 -30 -345 0 c-341 0 -345 0 -316 19 91 60 88 194 -6 251 -92 56 -208 -17 -208 -130 0 -51 23 -92 66 -121 29 -19 28 -19 -203 -19 l-233 0 0 -30 0 -30 3260 0 3260 0 0 30 0 30 -217 0 -218 0 33 21 c42 28 62 67 62 124 0 61 -22 100 -70 125 -50 25 -106 25 -148 0 -29 -18 -50 -20 -183 -20 -130 0 -155 3 -189 20 -72 37 -155 18 -196 -45 -22 -33 -22 -111 0 -153 9 -18 31 -42 49 -52 l32 -20 -215 0 -215 0 33 21 c42 27 64 70 64 125 0 111 -110 176 -214 125 -39 -18 -62 -21 -191 -21 -128 0 -152 3 -184 20 -47 25 -93 25 -142 1 -54 -28 -75 -65 -74 -128 0 -60 19 -95 66 -123 l32 -20 -414 0 -414 0 41 30 c23 17 42 35 42 40 0 6 -49 10 -125 10 -77 0 -125 4 -125 10 0 6 9 10 20 10 18 0 20 7 20 70 l0 70 75 0 75 0 0 -69 0 -68 46 -7 c26 -3 73 -6 105 -6 l59 0 0 45 c0 43 -1 45 -38 55 -48 12 -72 38 -93 98 l-16 47 -131 3 -132 3 -10 -28 c-42 -117 -64 -133 -174 -133 l-76 0 0 -45 0 -45 130 0 c106 0 130 -3 130 -14 0 -8 17 -28 37 -45 l38 -31 -325 0 -325 1 53 18 c61 21 94 49 130 111 22 37 27 57 27 115 -1 84 -24 135 -85 188 -62 53 -137 68 -216 43z m3119 -293 l-4 -48 30 35 c16 19 32 33 34 30 5 -5 -69 -90 -78 -90 -3 0 -5 27 -5 60 0 44 4 60 14 60 10 0 12 -12 9 -47z m-1223 -18 c0 -30 -4 -55 -9 -55 -12 0 -81 80 -81 94 0 6 16 -7 36 -29 l35 -40 -4 43 c-4 32 -2 42 9 42 10 0 14 -14 14 -55z m182 13 l-4 -43 36 40 c21 22 36 35 34 29 -3 -13 -75 -94 -83 -94 -3 0 -5 25 -5 55 0 38 4 55 13 55 9 0 11 -13 9 -42z m858 -13 c0 -30 -3 -55 -7 -55 -11 0 -83 73 -83 84 0 5 16 -6 36 -25 l37 -34 -6 43 c-4 32 -2 42 9 42 10 0 14 -14 14 -55z m-5140 25 c42 -42 11 -113 -50 -113 -61 0 -92 71 -50 113 11 11 33 20 50 20 17 0 39 -9 50 -20z m990 5 c0 -9 11 -38 25 -65 30 -59 85 -103 151 -119 26 -7 45 -13 43 -14 -2 -1 -101 -1 -218 1 l-215 3 31 19 c46 28 66 64 68 123 2 48 4 52 28 55 25 3 26 1 29 -55 l3 -58 44 -3 c23 -2 41 0 39 5 -37 73 -52 123 -39 123 6 0 11 -7 11 -15z m2960 3 c0 -5 -16 -8 -35 -8 -35 0 -35 0 -35 -45 l0 -45 39 0 40 0 4 53 c4 50 4 50 3 -8 l-1 -60 -45 0 -45 0 -3 49 c-2 27 -1 54 1 60 5 12 77 16 77 4z m538 -55 l-3 -58 -44 -3 c-53 -4 -61 5 -61 71 l0 47 55 0 56 0 -3 -57z m532 16 c0 -56 -14 -79 -50 -79 -53 0 -60 8 -60 66 l0 54 55 0 55 0 0 -41z m508 -16 l-3 -58 -38 -3 c-53 -4 -67 11 -67 69 l0 49 55 0 56 0 -3 -57z m-174 -47 c-8 -21 13 -55 49 -76 l32 -20 -219 0 -219 0 34 23 c19 12 38 33 44 45 11 24 20 28 30 12 3 -6 53 -10 113 -10 96 0 108 2 120 20 14 23 24 27 16 6z m-1174 -26 c63 0 110 4 117 11 8 8 16 3 28 -19 10 -16 29 -36 44 -45 25 -16 14 -16 -189 -16 -201 0 -213 1 -189 16 14 8 34 28 45 44 12 18 22 25 28 19 6 -6 58 -10 116 -10z"/>
<path d="M7760 5480 c-24 -24 -25 -38 -4 -68 35 -51 117 -8 95 50 -16 42 -59 50 -91 18z"/>
<path d="M12242 5448 c3 -43 3 -43 46 -46 l42 -3 0 45 0 46 -46 0 -45 0 3 -42z"/>
<path d="M12770 5445 l0 -45 40 0 40 0 0 45 0 45 -40 0 -40 0 0 -45z"/>
<path d="M13282 5448 c3 -43 3 -43 46 -46 l42 -3 0 45 0 46 -46 0 -45 0 3 -42z"/>
<path d="M8564 5754 c3 -11 19 -64 36 -118 30 -99 36 -113 44 -105 9 9 -60 233 -73 237 -9 3 -11 -2 -7 -14z"/>
<path d="M8960 5745 c0 -14 2 -25 4 -25 8 0 76 42 76 46 0 2 -18 4 -40 4 -36 0 -40 -2 -40 -25z"/>
<path d="M9140 5752 c0 -4 16 -16 36 -27 20 -11 48 -37 62 -57 14 -22 33 -38 44 -38 16 0 17 3 7 21 -6 12 -29 41 -51 65 -30 32 -48 44 -69 44 -16 0 -29 -3 -29 -8z"/>
<path d="M9005 5727 c-55 -31 -65 -65 -31 -101 21 -24 28 -26 41 -16 13 11 12 16 -6 41 -11 16 -16 29 -11 29 5 0 18 -12 28 -27 l18 -28 8 40 c4 22 10 50 13 63 7 28 -8 28 -60 -1z"/>
<path d="M9575 5745 c-5 -2 -22 -6 -37 -9 -34 -8 -94 -59 -114 -98 -9 -17 -14 -32 -11 -34 2 -2 31 -7 65 -10 44 -5 62 -3 62 5 0 6 8 11 18 11 14 0 15 -2 2 -10 -17 -10 -14 -15 18 -24 24 -8 29 3 10 23 -11 11 -10 13 2 9 10 -3 15 -18 15 -44 1 -49 10 -64 35 -57 16 4 20 14 20 44 0 57 -24 69 -140 70 l-95 1 60 10 c33 5 80 6 105 3 25 -3 54 -6 65 -6 16 0 17 -2 5 -9 -20 -12 -2 -18 68 -22 42 -2 52 0 52 13 0 27 -56 95 -91 111 -36 16 -97 29 -114 23z"/>
<path d="M10035 5721 c-72 -43 -113 -126 -100 -203 9 -50 24 -55 75 -27 57 32 53 49 -12 44 l-53 -4 48 11 c56 12 57 29 4 42 -20 5 -37 14 -37 19 0 5 8 6 18 2 9 -4 33 -9 52 -12 l35 -4 -39 35 c-46 42 -38 48 11 10 38 -29 51 -27 34 4 -6 12 -11 27 -11 34 1 7 8 0 16 -15 18 -34 39 -30 38 6 -1 15 3 27 7 27 5 0 9 -13 9 -30 0 -36 16 -39 32 -5 6 14 15 25 20 25 5 0 1 -14 -7 -31 -23 -44 -12 -46 35 -9 23 18 43 30 46 28 2 -3 -11 -17 -31 -32 -41 -32 -46 -51 -10 -42 14 3 37 9 51 12 18 5 25 3 20 -4 -3 -5 -24 -13 -46 -17 -57 -10 -54 -35 4 -35 25 0 48 -5 52 -11 5 -9 -7 -10 -44 -5 -64 8 -75 -7 -23 -33 22 -12 43 -26 46 -32 4 -6 -11 -1 -34 10 -59 31 -67 26 -31 -19 18 -23 29 -44 25 -48 -3 -4 -10 0 -15 9 -30 53 -79 83 -51 31 19 -36 13 -59 -19 -72 -26 -11 -33 -10 -50 5 -15 14 -20 15 -20 4 0 -11 -2 -12 -9 -1 -5 8 -22 12 -42 10 l-34 -3 35 -19 c41 -23 132 -26 170 -6 84 43 128 132 109 222 -13 57 -57 114 -106 134 -47 20 -132 18 -168 -5z"/>
<path d="M9116 5714 c-11 -28 -6 -64 8 -64 8 0 16 7 20 15 8 21 28 19 24 -2 -2 -13 6 -19 35 -24 20 -3 37 -2 37 3 0 4 -18 26 -40 48 -42 42 -74 51 -84 24z"/>
<path d="M11433 5633 c1 -43 -2 -108 -6 -145 l-9 -68 77 0 76 0 -5 33 c-7 43 -14 137 -9 115 9 -39 113 -9 113 32 0 6 53 10 140 10 l140 0 0 -25 c0 -25 1 -25 80 -25 79 0 80 0 80 25 l0 25 440 0 440 0 0 -25 c0 -25 1 -25 80 -25 79 0 80 0 80 25 l0 25 125 0 c69 0 125 -4 125 -8 0 -16 107 -53 133 -47 26 7 26 6 29 -62 l3 -68 68 -3 c45 -2 67 1 67 8 0 7 -9 14 -20 17 -12 3 -23 17 -26 32 -3 14 -7 34 -9 44 -2 11 -1 25 2 33 6 15 43 20 43 5 0 -10 87 -20 108 -13 9 3 12 21 10 61 l-3 56 -50 3 c-38 3 -52 -1 -62 -15 -18 -23 -47 -6 -51 31 l-3 26 -1104 0 -1104 0 2 -77z m67 -31 c0 -4 -9 -8 -20 -8 -11 0 -20 4 -20 8 0 4 9 8 20 8 11 0 20 -4 20 -8z m133 1 c-13 -2 -35 -2 -50 0 -16 2 -5 4 22 4 28 0 40 -2 28 -4z m1814 1 c-3 -3 -12 -4 -19 -1 -8 3 -5 6 6 6 11 1 17 -2 13 -5z m-1980 -46 c-3 -8 -6 -5 -6 6 -1 11 2 17 5 13 3 -3 4 -12 1 -19z m63 -68 c0 -16 0 -33 0 -37 0 -5 -17 -8 -37 -8 -32 0 -39 4 -41 23 -6 39 5 52 43 52 32 0 35 -2 35 -30z"/>
<path d="M8381 5681 c-10 -7 -14 -40 -15 -135 -1 -114 1 -126 17 -126 15 0 17 13 17 135 0 74 -1 135 -2 135 -2 0 -9 -4 -17 -9z"/>
<path d="M8420 5670 c0 -18 7 -20 81 -20 70 0 80 2 75 16 -3 9 -6 18 -6 20 0 2 -34 4 -75 4 -68 0 -75 -2 -75 -20z"/>
<path d="M7970 5550 c0 -123 1 -130 20 -130 19 0 20 7 20 130 0 123 -1 130 -20 130 -19 0 -20 -7 -20 -130z"/>
<path d="M8457 5633 c-68 -7 -30 -18 52 -15 46 2 79 8 76 13 -6 9 -53 10 -128 2z"/>
<path d="M8908 5633 c-17 -4 -26 -43 -10 -43 4 -1 26 -5 50 -9 23 -5 42 -6 42 -4 0 3 -9 18 -21 34 -20 29 -27 31 -61 22z"/>
<path d="M8845 5621 c-8 -15 3 -31 21 -31 9 0 14 7 12 17 -4 20 -24 28 -33 14z"/>
<path d="M9031 5603 c-32 -22 -26 -30 29 -42 51 -11 106 -14 83 -4 -7 2 -13 12 -13 20 0 12 3 13 14 4 9 -8 16 -8 20 -2 4 5 2 12 -4 16 -5 3 -10 4 -10 1 0 -2 -22 2 -49 9 -42 11 -53 11 -70 -2z"/>
<path d="M10087 5599 c-49 -38 -26 -109 36 -109 31 0 67 32 67 59 0 24 -29 57 -56 65 -13 4 -30 -1 -47 -15z"/>
<path d="M8420 5585 c0 -12 17 -15 90 -15 73 0 90 3 90 15 0 12 -17 15 -90 15 -73 0 -90 -3 -90 -15z"/>
<path d="M9670 5572 c0 -14 13 -22 53 -32 28 -7 47 -15 40 -17 -6 -2 -28 0 -48 6 -30 8 -37 7 -42 -6 -8 -21 34 -52 69 -53 23 0 29 6 37 38 20 71 11 82 -71 82 -30 0 -38 -4 -38 -18z"/>
<path d="M9175 5566 c-18 -13 -18 -14 1 -19 10 -3 34 -8 52 -12 29 -6 32 -5 32 19 0 23 -4 26 -33 26 -18 0 -42 -6 -52 -14z"/>
<path d="M9274 5566 c-7 -20 2 -46 16 -46 13 0 13 47 0 55 -6 3 -13 -1 -16 -9z"/>
<path d="M9322 5544 c2 -15 9 -29 16 -32 10 -3 13 4 10 24 -2 15 -9 29 -16 32 -10 3 -13 -4 -10 -24z"/>
<path d="M9360 5535 c0 -16 6 -25 15 -25 9 0 15 9 15 25 0 16 -6 25 -15 25 -9 0 -15 -9 -15 -25z"/>
<path d="M8425 5540 c-4 -6 28 -10 89 -10 57 0 96 4 96 10 0 6 -36 10 -89 10 -50 0 -93 -4 -96 -10z"/>
<path d="M9410 5527 c0 -22 5 -25 60 -34 41 -7 63 -6 71 1 8 8 13 7 16 -1 4 -10 8 -9 19 1 16 17 19 30 4 21 -6 -4 -17 -1 -25 5 -11 9 -15 9 -15 1 0 -6 -5 -11 -11 -11 -5 0 -8 4 -5 9 3 5 -11 12 -32 16 -20 3 -47 9 -59 12 -19 4 -23 1 -23 -20z"/>
<path d="M10790 5465 l0 -65 60 0 60 0 0 65 0 65 -60 0 -60 0 0 -65z"/>
<path d="M8887 5493 c42 -113 176 -170 273 -117 l35 19 -39 3 c-21 2 -42 -1 -45 -6 -11 -16 -43 -23 -57 -11 -7 6 -17 8 -22 5 -6 -3 -15 1 -22 9 -10 12 -10 19 1 33 8 9 20 27 26 39 20 35 -10 18 -42 -24 -15 -19 -29 -32 -32 -29 -3 3 6 19 21 36 14 18 23 36 20 42 -4 6 -9 6 -13 1 -9 -12 -63 -35 -69 -29 -2 3 7 11 22 17 39 18 32 29 -19 29 -38 0 -43 -2 -38 -17z"/>
<path d="M10030 5490 l-25 -20 32 0 c36 0 49 12 30 28 -9 8 -19 5 -37 -8z"/>
<path d="M8552 5484 c-24 -17 -30 -62 -10 -82 17 -17 64 -15 82 4 23 22 20 60 -6 78 -12 9 -27 16 -33 16 -6 0 -21 -7 -33 -16z"/>
<path d="M9645 5490 c-7 -11 18 -24 35 -18 6 2 1 9 -9 15 -13 8 -22 9 -26 3z"/>
<path d="M9574 5465 c-31 -48 9 -100 58 -74 24 13 24 61 0 82 -25 23 -39 21 -58 -8z m54 -13 c2 -8 -3 -10 -14 -5 -13 5 -16 3 -11 -10 3 -9 2 -17 -3 -17 -11 0 -13 11 -4 35 7 17 25 16 32 -3z"/>
<path d="M9052 5468 c-7 -7 -12 -18 -12 -25 0 -7 -4 -13 -10 -13 -5 0 -10 -7 -10 -15 0 -18 20 -20 20 -2 0 6 5 4 11 -5 12 -22 32 -23 49 -3 10 12 45 15 184 16 l171 2 -75 13 c-41 7 -118 15 -171 17 -52 2 -105 9 -116 16 -27 14 -26 14 -41 -1z"/>
<path d="M10103 5473 c-7 -2 -13 -12 -13 -21 0 -10 -3 -13 -8 -7 -4 6 -89 11 -214 11 -199 2 -208 1 -208 -17 0 -19 9 -19 213 -17 191 3 214 1 230 -14 20 -21 28 -22 51 -5 17 13 17 15 2 45 -16 31 -27 36 -53 25z m27 -44 c0 -6 -4 -7 -10 -4 -5 3 -10 11 -10 16 0 6 5 7 10 4 6 -3 10 -11 10 -16z"/>
<path d="M9480 5399 c0 -16 81 -49 120 -49 19 0 55 10 80 22 44 21 44 22 17 26 -17 2 -36 -3 -46 -12 -22 -20 -60 -21 -86 -3 -27 19 -85 29 -85 16z"/>
<path d="M9296 5391 c-3 -5 5 -12 19 -15 29 -7 75 2 75 15 0 12 -87 12 -94 0z"/>
</g>
</svg>