<svg xmlns="http://www.w3.org/2000/svg" viewBox="19.90 252.50 668.60 274.00">
<g transform="translate(0.000000,768.000000) scale(0.100000,-0.100000)" fill="currentColor" stroke="none">
<path d="M2627 5032 c-38 -94 -36 -112 8 -112 24 0 35 -5 35 -15 0 -24 27 -17 32 8 2 13 3 40 0 60 -5 46 -32 52 -32 7 0 -23 -4 -30 -20 -30 -25 0 -25 -4 5 76 29 78 29 74 12 74 -8 0 -26 -30 -40 -68z"/>
<path d="M2871 5019 c-17 -44 -29 -85 -25 -90 3 -5 21 -9 40 -9 24 0 34 -5 34 -15 0 -24 27 -17 32 8 2 13 3 40 0 60 -5 46 -32 52 -32 7 0 -23 -4 -30 -20 -30 -25 0 -25 3 0 68 22 57 25 82 11 82 -5 0 -23 -36 -40 -81z"/>
<path d="M3110 5085 c-15 -19 -14 -163 1 -182 17 -20 67 -16 79 6 5 11 10 51 10 89 0 54 -4 72 -18 85 -23 21 -56 22 -72 2z m58 -89 c2 -48 -1 -72 -10 -77 -24 -15 -38 12 -38 76 0 66 5 77 30 73 11 -3 16 -19 18 -72z"/>
<path d="M3330 5060 c0 -22 5 -40 10 -40 6 0 10 18 10 40 0 22 -4 40 -10 40 -5 0 -10 -18 -10 -40z"/>
<path d="M3402 5023 c-36 -134 -36 -133 -19 -133 9 0 17 10 19 23 2 17 10 22 33 22 23 0 31 -5 33 -22 3 -20 32 -34 32 -16 0 30 -55 203 -65 203 -7 0 -22 -33 -33 -77z m47 -40 c1 -16 -5 -23 -18 -23 -17 0 -18 4 -8 42 8 34 12 38 18 22 4 -10 8 -29 8 -41z"/>
<path d="M3957 5093 c-12 -11 -8 -23 8 -23 8 0 15 7 15 15 0 16 -12 20 -23 8z"/>
<path d="M4390 5060 c0 -29 4 -40 13 -37 6 2 12 19 12 37 0 18 -6 35 -12 38 -9 2 -13 -9 -13 -38z"/>
<path d="M4432 5064 c2 -22 8 -38 13 -36 15 3 12 65 -3 70 -10 3 -13 -6 -10 -34z"/>
<path d="M3290 5055 c0 -19 5 -35 10 -35 6 0 10 16 10 35 0 19 -4 35 -10 35 -5 0 -10 -16 -10 -35z"/>
<path d="M3530 4963 c0 -42 4 -73 10 -73 6 0 10 24 10 53 0 58 15 84 37 66 8 -7 13 -33 13 -65 0 -42 3 -54 15 -54 13 0 15 9 9 50 -4 34 -3 55 6 65 22 26 40 -1 40 -61 0 -31 4 -54 10 -54 7 0 10 27 8 73 l-3 72 -77 1 -78 0 0 -73z"/>
<path d="M3736 5018 c-32 -45 -9 -128 34 -128 29 0 50 11 50 26 0 16 -26 19 -35 4 -8 -13 -35 -1 -35 16 0 9 12 14 35 14 33 0 35 2 35 33 0 18 -5 38 -12 45 -19 19 -55 14 -72 -10z m64 -29 c0 -5 -11 -9 -25 -9 -27 0 -32 9 -13 28 12 12 38 -1 38 -19z"/>
<path d="M3850 4964 c0 -58 3 -74 15 -74 10 0 15 15 17 58 3 50 6 57 26 60 40 6 26 31 -18 30 l-40 0 0 -74z"/>
<path d="M3950 4965 c0 -60 3 -75 15 -75 12 0 15 15 15 75 0 60 -3 75 -15 75 -12 0 -15 -15 -15 -75z"/>
<path d="M4020 5021 c-15 -30 -12 -97 6 -115 20 -20 58 -21 74 -1 16 20 4 32 -18 19 -29 -18 -42 -5 -42 43 l0 45 35 -6 c36 -7 44 1 23 22 -19 19 -66 15 -78 -7z"/>
<path d="M4153 5033 c-14 -5 -18 -33 -5 -33 4 0 13 5 19 11 6 6 16 8 22 5 21 -13 11 -32 -21 -41 -23 -7 -34 -17 -36 -33 -5 -34 14 -51 59 -50 l39 0 0 62 c0 35 -5 67 -12 74 -12 12 -43 15 -65 5z m47 -92 c0 -11 -5 -23 -11 -27 -15 -9 -33 12 -26 30 9 23 37 20 37 -3z"/>
<path d="M4260 4964 c0 -59 3 -74 15 -74 12 0 15 13 15 59 0 96 41 96 44 0 0 -32 6 -54 14 -56 9 -4 12 13 12 60 0 74 -8 85 -62 85 l-38 0 0 -74z"/>
<path d="M2740 4965 c0 -11 11 -15 40 -15 29 0 40 4 40 15 0 11 -11 15 -40 15 -29 0 -40 -4 -40 -15z"/>
<path d="M2980 4965 c0 -11 11 -15 40 -15 29 0 40 4 40 15 0 11 -11 15 -40 15 -29 0 -40 -4 -40 -15z"/>
<path d="M1325 4033 c4 -10 10 -42 13 -71 3 -41 1 -57 -13 -72 -10 -11 -16 -21 -14 -23 39 -27 150 -36 208 -16 34 12 40 24 15 33 -13 5 -15 20 -12 86 l3 80 -103 0 c-95 0 -104 -1 -97 -17z"/>
<path d="M1000 3990 c0 -20 -5 -30 -15 -30 -11 0 -15 -13 -15 -54 0 -39 -4 -55 -15 -60 -34 -13 -12 -26 43 -26 32 0 61 -3 65 -6 8 -8 -11 -57 -25 -65 -6 -4 -13 -18 -14 -31 -4 -31 -9 -57 -19 -90 -8 -30 -32 -37 -41 -13 -13 34 -24 -1 -24 -76 0 -78 5 -90 27 -68 19 19 29 3 43 -65 8 -41 19 -66 27 -66 7 0 13 -11 13 -24 0 -13 7 -29 15 -36 13 -11 15 21 15 279 0 278 -1 292 -20 311 -12 12 -20 33 -20 54 0 19 -4 38 -10 41 -5 3 -10 17 -10 31 0 13 -4 24 -10 24 -5 0 -10 -13 -10 -30z"/>
<path d="M2822 4010 c-43 -10 -48 -16 -55 -63 -5 -34 -3 -39 21 -48 70 -27 126 -30 197 -12 l70 18 -3 35 c-5 54 -26 67 -117 73 -44 3 -95 2 -113 -3z"/>
<path d="M3240 4006 c0 -7 -7 -19 -16 -26 -8 -8 -14 -25 -12 -39 3 -24 7 -26 48 -26 44 0 45 1 42 30 -2 17 -10 35 -18 41 -8 6 -14 16 -14 23 0 6 -7 11 -15 11 -8 0 -15 -6 -15 -14z"/>
<path d="M3540 4006 c0 -7 -7 -27 -15 -42 -26 -50 -21 -54 55 -54 l70 0 0 29 c0 17 -4 33 -10 36 -5 3 -10 15 -10 26 0 34 -15 20 -29 -26 l-13 -46 -14 27 c-8 14 -14 35 -14 45 0 11 -4 19 -10 19 -5 0 -10 -6 -10 -14z"/>
<path d="M2055 4000 c-4 -6 18 -10 60 -10 42 0 64 4 60 10 -3 6 -30 10 -60 10 -30 0 -57 -4 -60 -10z"/>
<path d="M1948 3969 c-14 -7 -18 -23 -18 -62 0 -52 0 -52 55 -89 64 -43 75 -46 75 -18 0 11 5 20 11 20 6 0 8 -9 4 -20 -6 -18 -2 -20 34 -20 34 0 41 3 41 19 0 14 -8 21 -27 24 -27 4 -27 4 4 6 25 1 33 -4 40 -25 l8 -25 64 41 63 41 -5 44 c-7 74 -9 75 -181 75 -84 0 -159 -5 -168 -11z"/>
<path d="M3988 3973 l-38 -4 0 -110 0 -109 285 0 c269 0 287 1 313 20 17 12 57 24 107 31 44 6 90 17 103 25 20 13 22 20 16 72 -4 31 -9 60 -13 64 -7 7 -712 17 -773 11z"/>
<path d="M3698 3933 c-2 -10 -1 -34 2 -53 l5 -35 113 -3 112 -3 0 56 0 55 -114 0 c-100 0 -114 -2 -118 -17z"/>
<path d="M2545 3890 c-60 -4 -125 -8 -142 -9 -33 -1 -33 -2 -33 -51 l0 -50 155 0 155 0 0 60 c0 42 -4 59 -12 58 -7 -1 -62 -5 -123 -8z"/>
<path d="M2700 3841 l0 -61 205 0 205 0 0 60 c0 70 -1 70 -100 40 -79 -24 -118 -25 -190 -4 -30 9 -70 18 -87 21 l-33 5 0 -61z"/>
<path d="M3128 3873 c-2 -16 -1 -43 1 -60 l3 -33 124 0 124 0 0 60 0 60 -124 0 -125 0 -3 -27z"/>
<path d="M3390 3840 l0 -60 170 0 c156 0 170 1 170 18 0 9 -9 23 -20 30 -11 7 -20 18 -20 26 0 7 -8 20 -18 29 -15 14 -42 17 -150 17 l-132 0 0 -60z"/>
<path d="M5234 3880 c-6 -6 -31 -11 -55 -12 -24 0 -53 -7 -66 -15 -12 -8 -27 -12 -32 -8 -6 3 -23 -1 -39 -9 -16 -8 -32 -13 -35 -10 -3 3 -13 1 -24 -5 -10 -5 -29 -12 -43 -15 -14 -3 -34 -12 -45 -20 -18 -14 28 -15 443 -16 309 0 462 3 462 10 0 15 -48 31 -95 32 -22 1 -45 6 -52 11 -7 5 -36 10 -65 12 -29 2 -82 13 -118 24 -36 11 -83 20 -105 19 -22 0 -58 3 -80 6 -24 4 -45 2 -51 -4z"/>
<path d="M2310 3860 c-6 -11 -34 -33 -63 -50 l-52 -30 78 0 77 0 0 50 c0 54 -19 69 -40 30z"/>
<path d="M1100 3818 c0 -24 -1 -163 -3 -311 l-2 -267 73 0 72 0 0 55 0 55 875 0 c577 0 875 -3 875 -10 0 -7 -258 -10 -755 -10 -521 0 -755 -3 -755 -11 0 -7 68 -10 208 -9 114 1 235 1 270 1 l62 -1 0 -30 0 -30 113 -1 c61 0 138 0 170 1 44 1 58 -2 63 -15 4 -9 3 -19 -1 -23 -4 -4 -10 -1 -12 6 -3 7 -24 12 -54 12 l-49 0 -1 -37 c-2 -31 -3 -33 -6 -10 -2 15 -9 27 -14 27 -5 0 -8 6 -6 13 1 7 -10 13 -25 15 -25 3 -28 0 -28 -29 0 -36 -12 -33 -14 3 -1 21 -6 23 -68 26 l-68 3 0 -36 0 -35 69 0 c69 0 70 0 73 -27 2 -23 8 -29 36 -31 27 -3 32 0 32 17 0 12 5 21 10 21 6 0 10 -13 10 -30 l0 -30 65 0 c73 0 70 -5 65 103 -2 47 -1 48 40 51 9 1 16 13 18 34 l3 32 160 0 159 0 0 -30 0 -30 160 0 160 0 0 -40 c0 -53 18 -51 22 3 3 38 6 42 31 45 15 2 27 9 27 17 0 8 -12 15 -27 17 -27 3 -28 5 -31 71 l-3 67 56 0 c42 0 55 3 55 15 0 11 11 15 43 15 36 0 44 -4 55 -27 6 -15 12 -33 12 -40 0 -7 5 -13 10 -13 6 0 10 -5 10 -11 0 -5 -4 -7 -10 -4 -6 3 -10 -4 -10 -18 0 -14 -3 -39 -6 -56 -5 -24 -3 -31 10 -31 12 0 16 -10 16 -45 l0 -45 39 0 c35 0 41 -4 75 -56 l38 -56 96 7 c54 4 153 13 222 21 69 8 190 21 270 29 80 9 153 18 163 21 14 4 17 -1 17 -30 0 -19 2 -41 5 -49 5 -10 -1 -13 -25 -9 -22 3 -30 10 -30 24 0 18 -5 19 -77 14 -43 -3 -134 -8 -203 -11 -109 -6 -226 -21 -177 -24 15 -1 23 -24 18 -53 0 -5 8 -8 18 -8 11 0 26 -3 35 -6 12 -5 16 1 16 24 0 27 -4 31 -32 35 -28 3 -26 4 11 5 l44 2 -5 -50 c-5 -49 -4 -51 27 -64 33 -14 105 -91 105 -112 0 -11 29 -29 35 -22 2 2 10 20 18 40 20 47 86 95 143 104 110 16 214 -79 214 -196 -1 -40 -34 -103 -73 -137 -61 -53 -145 -57 -218 -8 -41 27 -73 33 -67 13 7 -20 98 -78 127 -80 14 -1 -41 -5 -124 -8 -82 -3 -161 -3 -175 -1 l-25 4 25 7 c40 11 83 36 109 64 l24 26 -21 0 c-13 0 -41 -12 -64 -27 -56 -38 -152 -40 -195 -5 -73 59 -113 52 -45 -8 29 -26 60 -42 98 -51 52 -13 45 -14 -140 -14 -108 0 -196 3 -196 8 0 4 9 7 21 7 11 0 30 5 42 11 27 14 87 70 87 81 0 14 -39 9 -47 -6 -16 -27 -78 -56 -120 -56 -93 0 -162 58 -182 154 -8 36 -31 47 -31 14 0 -79 70 -176 142 -197 22 -6 -88 -9 -339 -10 -204 -1 -378 -4 -387 -7 -9 -3 -16 -1 -16 5 0 6 8 11 18 11 35 0 108 58 135 109 22 39 27 62 27 115 0 74 -14 115 -55 164 -87 103 -270 103 -349 -1 -30 -39 -58 -102 -49 -111 12 -12 21 -5 32 24 56 163 284 184 367 36 63 -112 24 -239 -90 -292 -80 -37 -128 -31 -236 31 -13 8 -26 12 -29 10 -14 -15 88 -85 124 -85 8 0 15 -3 15 -7 0 -5 -89 -7 -197 -6 -256 2 -245 1 -200 17 61 22 134 86 98 86 -5 0 -32 -14 -60 -31 -83 -52 -172 -49 -248 7 -17 13 -39 24 -49 24 -16 0 -16 -2 1 -20 26 -29 81 -62 119 -70 17 -5 -70 -8 -194 -8 -150 0 -215 3 -194 9 17 5 51 26 75 48 l44 39 -66 1 c-42 0 -78 -5 -98 -15 -29 -14 -34 -14 -56 0 -27 18 -34 63 -13 84 15 15 64 16 73 2 3 -5 35 -10 70 -10 55 0 66 3 75 21 7 11 10 23 7 25 -2 3 -35 6 -72 7 -47 1 -70 -2 -72 -10 -3 -9 -11 -8 -29 3 -14 10 -36 14 -54 12 -17 -3 -33 -1 -36 4 -3 4 -30 8 -60 8 -48 0 -54 -2 -54 -20 0 -28 33 -90 62 -117 27 -26 98 -53 138 -53 14 0 49 11 76 25 56 28 58 29 48 14 -12 -20 -88 -49 -130 -49 -55 0 -143 45 -172 89 -12 19 -27 51 -32 73 -14 50 -35 51 -25 1 16 -85 71 -150 152 -179 33 -11 -12 -13 -337 -13 -331 0 -371 1 -343 14 45 19 73 69 73 129 0 43 -4 53 -40 88 -39 39 -42 40 -95 36 -66 -6 -109 -40 -126 -101 -9 -33 -7 -45 13 -85 15 -29 35 -52 57 -64 35 -17 34 -18 -175 -20 l-209 -3 0 -30 0 -30 3285 0 c3122 0 3285 1 3284 18 -1 9 -2 24 -3 32 -1 13 -31 15 -202 15 l-202 0 34 23 c90 60 88 181 -4 237 -33 21 -71 25 -126 14 -49 -10 -37 -21 31 -28 34 -3 66 -12 70 -19 4 -6 7 -41 6 -77 l-3 -65 -50 0 -50 0 -5 45 -5 45 -37 -48 -37 -48 26 -30 c14 -15 34 -31 44 -34 48 -16 4 -20 -178 -17 -195 3 -197 3 -167 21 16 10 37 29 46 43 15 23 15 26 -21 68 l-36 44 -5 -44 -5 -45 -50 0 -50 0 -3 72 c-3 81 -5 79 93 93 49 7 50 7 22 18 -42 18 -98 14 -134 -8 -91 -55 -93 -176 -3 -238 l33 -22 -224 0 -224 0 33 20 c90 55 95 188 8 241 -32 20 -104 24 -141 9 -25 -10 -11 -16 58 -25 57 -8 70 -29 65 -109 l-3 -51 -49 -3 c-54 -4 -66 5 -66 52 l0 29 -26 -24 c-46 -43 -49 -58 -18 -90 15 -16 36 -31 46 -35 47 -15 3 -19 -179 -16 l-197 3 31 19 c36 22 57 55 47 73 -4 6 -19 28 -33 47 l-26 35 -5 -45 -5 -45 -50 0 -50 0 -3 73 c-3 70 -2 72 23 82 15 6 44 10 66 10 40 0 52 13 23 24 -36 14 -102 6 -135 -17 -93 -62 -87 -186 11 -238 34 -19 33 -19 -251 -19 -158 0 -301 -3 -319 -7 -22 -4 -31 -3 -27 4 4 6 20 13 36 16 40 8 110 72 132 122 41 88 6 222 -70 273 -72 47 -169 52 -239 11 -18 -10 -30 -14 -26 -8 13 22 90 49 140 49 111 0 200 -77 224 -197 10 -47 14 -54 33 -51 17 2 23 11 25 36 3 26 7 32 28 32 23 0 24 3 24 60 l0 60 60 0 60 0 0 125 0 125 -49 0 c-27 0 -63 -3 -80 -6 l-31 -6 0 -69 c0 -55 3 -69 15 -69 9 0 18 -7 21 -15 4 -10 20 -15 50 -15 31 0 46 -5 51 -15 3 -9 4 -17 2 -19 -2 -2 -38 -6 -80 -10 l-76 -7 -2 122 c-2 115 -1 120 17 115 11 -4 27 -4 36 0 14 5 16 29 16 189 0 150 -3 185 -15 195 -11 9 -15 33 -15 91 l0 79 -197 -4 c-109 -2 -233 -4 -275 -5 l-78 -1 0 -250 0 -250 275 0 275 0 3 168 3 167 2 -175 2 -175 -277 2 c-153 2 -281 3 -285 3 -5 0 -8 34 -8 75 l0 75 -270 0 -270 0 0 65 0 65 -200 0 -200 0 0 -65 0 -65 -911 0 c-604 0 -908 3 -904 10 3 6 46 10 96 10 l89 0 0 38 c0 63 48 91 98 56 16 -11 22 -25 22 -55 l0 -39 140 0 140 0 0 185 0 185 -35 0 c-24 0 -35 -5 -35 -15 0 -8 -4 -15 -10 -15 -5 0 -10 7 -10 15 0 13 -29 15 -200 15 -171 0 -200 -2 -200 -15 0 -8 -4 -15 -10 -15 -5 0 -10 7 -10 15 0 24 -64 19 -95 -7 -35 -30 -46 -82 -43 -205 1 -89 -4 -128 -15 -112 -2 2 0 66 3 141 4 118 8 140 26 165 38 51 48 53 352 53 l282 0 0 40 0 40 -118 0 c-92 0 -127 -4 -153 -17 -44 -22 -150 -21 -203 1 -26 11 -68 16 -132 16 l-94 0 0 -42z m3190 -223 l0 -105 -70 0 -70 0 0 105 0 105 70 0 70 0 0 -105z m180 0 l0 -106 -77 3 -78 3 -3 79 c-6 125 -5 126 83 126 l75 0 0 -105z m-745 -265 c-3 -5 -12 -10 -18 -10 -7 0 -6 4 3 10 19 12 23 12 15 0z m25 -25 c0 -7 -30 -13 -34 -7 -3 4 4 9 15 9 10 1 19 0 19 -2z m110 -51 c0 -8 -19 -13 -24 -6 -3 5 1 9 9 9 8 0 15 -2 15 -3z m-370 -84 c0 -5 -5 -10 -11 -10 -5 0 -7 5 -4 10 3 6 8 10 11 10 2 0 4 -4 4 -10z m353 -5 c-3 -9 -8 -14 -10 -11 -3 3 -2 9 2 15 9 16 15 13 8 -4z m-243 -25 c0 -5 -5 -10 -11 -10 -5 0 -7 5 -4 10 3 6 8 10 11 10 2 0 4 -4 4 -10z m-56 -38 c-9 -2 -21 1 -28 8 -8 8 -7 10 7 5 11 -5 17 -2 17 6 0 11 3 11 10 -1 7 -11 5 -16 -6 -18z m226 24 c0 -3 -4 -8 -10 -11 -5 -3 -10 -1 -10 4 0 6 5 11 10 11 6 0 10 -2 10 -4z m-185 -16 c3 -5 1 -10 -4 -10 -6 0 -11 5 -11 10 0 6 2 10 4 10 3 0 8 -4 11 -10z m873 -89 c3 -27 0 -32 -14 -29 -12 2 -18 12 -17 31 1 39 2 39 16 35 6 -3 13 -19 15 -37z m-3708 -311 c47 -47 2 -122 -59 -98 -31 11 -41 25 -41 60 0 29 31 58 62 58 10 0 27 -9 38 -20z"/>
<path d="M675 2700 c-27 -29 -10 -74 28 -78 55 -7 79 52 35 82 -30 21 -41 20 -63 -4z"/>
<path d="M1820 3820 l0 -40 103 0 102 1 -35 19 c-19 10 -45 28 -57 39 -16 15 -35 21 -68 21 l-45 0 0 -40z"/>
<path d="M5826 3853 c-3 -3 -6 -24 -6 -45 0 -27 4 -38 15 -38 11 0 15 11 15 39 0 38 -10 57 -24 44z"/>
<path d="M3740 3800 c0 -19 7 -20 98 -20 91 0 98 1 98 20 0 19 -7 20 -98 20 -91 0 -98 -1 -98 -20z"/>
<path d="M1820 3574 l0 -185 31 3 c27 3 34 10 56 63 14 33 52 108 84 166 32 58 59 113 59 122 0 15 -15 17 -115 17 l-115 0 0 -186z"/>
<path d="M1987 3582 c-48 -97 -88 -180 -87 -184 0 -5 101 -8 225 -8 l225 0 0 72 0 71 -89 87 c-50 48 -93 98 -96 113 -6 24 -12 27 -49 27 l-41 -1 -88 -177z m166 -4 c9 -27 -6 -38 -49 -38 -47 0 -71 23 -43 41 21 13 87 11 92 -3z"/>
<path d="M2070 3560 c0 -5 16 -10 35 -10 19 0 35 5 35 10 0 6 -16 10 -35 10 -19 0 -35 -4 -35 -10z"/>
<path d="M2192 3719 c13 -23 53 -68 91 -101 l67 -60 0 101 0 101 -91 0 -90 0 23 -41z"/>
<path d="M2370 3652 c0 -124 -5 -115 124 -211 64 -48 73 -51 127 -51 l59 0 0 185 0 185 -69 0 c-58 0 -70 -3 -74 -17 -4 -17 -5 -17 -6 0 -1 15 -12 17 -81 17 l-80 0 0 -108z"/>
<path d="M2700 3575 l0 -185 155 0 154 0 3 63 3 62 48 3 47 3 0 120 0 119 -74 0 c-50 0 -76 -4 -79 -12 -4 -10 -6 -10 -6 0 -1 9 -33 12 -126 12 l-125 0 0 -185z"/>
<path d="M3130 3641 l0 -120 121 -3 c66 -2 123 -1 125 1 2 2 4 58 4 123 l0 118 -125 0 -125 0 0 -119z"/>
<path d="M3394 3637 c1 -101 4 -122 16 -123 8 0 21 -2 28 -2 8 -2 12 -21 12 -62 l0 -60 140 0 140 0 0 185 0 185 -169 -1 -168 0 1 -122z"/>
<path d="M3740 3575 l0 -185 115 0 115 0 0 168 c0 155 -1 169 -20 185 -24 20 -116 24 -123 5 -4 -10 -6 -10 -6 0 -1 7 -16 12 -41 12 l-39 0 -1 -185z"/>
<path d="M4730 3695 c0 -36 4 -65 10 -65 32 0 60 26 74 71 9 26 16 50 16 53 0 3 -22 6 -50 6 l-50 0 0 -65z"/>
<path d="M5329 3752 l-477 -2 -15 -33 c-8 -17 -18 -42 -21 -54 -8 -27 -63 -53 -110 -53 l-36 0 0 -143 c0 -79 3 -232 7 -340 l6 -197 979 0 978 0 0 29 c0 20 6 30 19 34 10 2 21 17 24 33 9 50 -4 698 -15 712 -14 16 -83 15 -97 -2 -16 -19 -25 -81 -16 -103 6 -13 11 -3 19 37 11 54 12 55 46 55 l35 0 8 -60 c4 -33 6 -192 5 -354 -2 -225 -6 -295 -15 -299 -10 -3 -13 61 -13 297 l0 301 -333 0 c-383 0 -382 0 -427 86 -17 33 -33 50 -50 54 -14 3 -239 4 -501 2z"/>
<path d="M5946 3651 c-10 -16 24 -21 140 -21 95 0 114 3 114 15 0 13 -20 15 -124 15 -69 0 -127 -4 -130 -9z"/>
<path d="M6337 3653 c-18 -18 0 -23 78 -23 69 0 85 3 85 15 0 12 -15 15 -78 15 -43 0 -82 -3 -85 -7z"/>
<path d="M2370 3455 l0 -65 82 0 c45 0 79 2 77 4 -2 2 -39 31 -81 65 l-78 61 0 -65z"/>
<path d="M1427 3472 c-10 -10 -17 -33 -17 -50 0 -32 1 -32 50 -32 49 0 50 1 50 30 0 31 -30 70 -53 70 -8 0 -21 -8 -30 -18z"/>
<path d="M743 3448 c-11 -13 -55 -75 -99 -138 l-79 -115 -3 -142 c-3 -133 -5 -143 -23 -143 -14 0 -19 7 -19 30 0 29 -2 30 -45 30 -42 0 -44 -1 -54 -37 -6 -21 -11 -48 -11 -59 0 -17 -5 -20 -25 -16 -14 2 -25 9 -25 14 0 5 -24 8 -52 6 l-53 -3 -3 -52 -3 -53 60 0 c34 0 61 5 63 11 2 6 14 9 27 7 23 -3 21 -7 -42 -101 -37 -54 -67 -100 -67 -103 0 -2 43 -4 95 -4 l95 0 0 79 0 78 35 6 c22 4 45 17 61 36 46 55 138 66 219 26 68 -33 75 -32 75 14 0 53 8 71 32 71 11 0 18 5 16 12 -3 8 -37 11 -116 9 -62 -1 -112 1 -111 6 0 4 41 69 92 143 l92 135 183 3 c110 1 182 6 182 12 0 6 -71 10 -185 10 l-185 0 0 108 c0 93 -3 111 -18 125 -27 25 -84 22 -109 -5z m98 -38 c4 -19 6 -69 5 -110 -1 -74 -1 -75 -29 -78 -15 -2 -25 -7 -22 -12 3 -5 -24 -51 -59 -102 -36 -51 -81 -117 -101 -145 -20 -29 -41 -53 -46 -53 -7 0 -9 49 -7 138 l3 137 69 100 c117 170 114 166 149 163 27 -3 32 -8 38 -38z m-343 -482 c2 -13 -3 -18 -17 -18 -16 0 -21 -6 -21 -25 0 -14 -4 -25 -10 -25 -5 0 -10 21 -10 46 0 44 1 45 27 42 17 -2 29 -10 31 -20z m-93 -238 c-42 -71 -65 -102 -65 -86 0 13 102 177 107 172 3 -3 -16 -41 -42 -86z m19 -44 c-36 -65 -41 -51 -7 19 15 31 29 51 31 43 1 -8 -9 -36 -24 -62z m22 -43 c-11 -11 -17 4 -9 23 7 18 8 18 11 1 2 -10 1 -21 -2 -24z"/>
<path d="M3220 3440 c0 -5 14 -10 30 -10 17 0 30 5 30 10 0 6 -13 10 -30 10 -16 0 -30 -4 -30 -10z"/>
<path d="M3184 3412 l-71 -3 -2 -49 -1 -50 95 0 95 0 0 49 c0 57 -2 58 -116 53z"/>
<path d="M1258 3253 c-3 -43 -3 -81 -1 -85 2 -5 26 -8 54 -8 l49 0 0 75 0 75 49 0 c28 0 53 5 56 10 4 6 -31 10 -98 10 l-105 0 -4 -77z"/>
<path d="M1372 3228 l3 -73 43 -3 42 -3 0 75 0 76 -45 0 -46 0 3 -72z"/>
<path d="M1480 3226 l0 -74 200 1 200 0 0 74 0 73 -200 0 -200 0 0 -74z"/>
<path d="M1900 3224 l0 -75 53 3 52 3 -1 50 c-3 103 1 95 -54 95 l-50 0 0 -76z"/>
<path d="M2452 3228 l3 -73 148 -3 147 -3 0 76 0 75 -150 0 -151 0 3 -72z"/>
<path d="M3174 3288 c-12 -19 11 -28 67 -28 52 0 60 2 57 18 -3 14 -14 17 -62 17 -32 0 -60 -3 -62 -7z"/>
<path d="M3120 3185 l0 -65 40 0 40 0 0 65 0 65 -40 0 -40 0 0 -65z"/>
<path d="M3222 3188 l3 -63 53 -2 52 -1 0 64 0 64 -55 0 -56 0 3 -62z"/>
<path d="M2760 3205 l0 -35 100 0 100 0 0 -45 0 -45 -40 0 -40 0 0 -199 c0 -172 2 -200 16 -205 9 -3 72 -6 140 -6 l124 0 0 205 0 205 -97 2 c-58 1 -77 3 -45 5 l52 4 0 75 0 74 -155 0 -155 0 0 -35z"/>
<path d="M2400 3200 c0 -23 4 -30 20 -30 16 0 20 7 20 30 0 23 -4 30 -20 30 -16 0 -20 -7 -20 -30z"/>
<path d="M1017 3173 c-4 -3 -7 -21 -7 -40 0 -27 4 -33 22 -33 12 0 18 -3 15 -7 -4 -4 -32 -5 -62 -4 l-55 2 0 -205 0 -206 145 0 145 0 0 205 0 205 -45 0 -45 0 0 45 0 45 -53 0 c-30 0 -57 -3 -60 -7z"/>
<path d="M1743 3113 c-21 -4 -23 -10 -23 -58 0 -30 -4 -57 -10 -60 -5 -3 -49 1 -97 10 -48 9 -137 18 -198 22 -60 3 -116 10 -122 16 -10 7 -13 0 -13 -32 0 -26 4 -40 10 -36 6 3 29 3 53 0 l42 -7 33 -104 c19 -57 38 -104 43 -104 5 0 9 6 9 13 0 9 2 9 8 -1 8 -12 46 -15 137 -12 17 0 118 -13 225 -29 300 -46 622 -91 651 -91 15 0 32 -7 39 -15 17 -21 54 -19 75 5 15 17 16 24 7 45 -23 50 -80 43 -74 -10 3 -19 0 -25 -8 -20 -6 4 -9 13 -6 21 3 8 2 14 -3 14 -4 0 -68 9 -142 20 -74 10 -269 37 -434 60 -165 22 -308 43 -317 46 -13 4 -18 0 -18 -12 0 -13 -3 -15 -11 -7 -13 13 -4 33 16 33 7 0 15 7 19 15 3 9 19 15 41 15 28 0 35 4 35 20 0 19 -7 20 -130 20 -97 0 -130 -3 -130 -12 0 -18 12 -33 33 -41 19 -7 23 -32 7 -42 -17 -11 -34 17 -61 98 -23 68 -24 80 -12 93 18 18 73 17 193 -4 l94 -17 9 -45 c15 -80 13 -107 -7 -91 -10 9 -16 8 -26 -4 -10 -13 -9 -15 8 -15 11 0 27 -3 36 -6 13 -5 16 3 16 50 0 72 21 96 84 96 l44 0 -15 -49 c-16 -47 -12 -88 6 -77 4 3 147 -10 317 -29 345 -39 353 -40 338 -25 -6 6 -73 18 -150 26 -332 36 -488 54 -492 59 -7 6 19 94 29 101 5 3 39 7 75 9 37 2 68 6 70 8 2 1 6 35 9 75 l6 72 -148 -1 c-81 -1 -158 -4 -170 -6z m75 -33 c17 -11 32 -25 32 -31 0 -5 -13 -1 -29 10 -16 12 -39 25 -52 30 -21 9 -22 10 -4 10 11 1 35 -8 53 -19z m122 1 c14 -27 13 -54 -2 -49 -7 3 -13 13 -13 23 0 10 -6 20 -14 23 -11 4 -13 -2 -8 -27 5 -23 3 -31 -8 -31 -9 0 -15 10 -15 24 0 13 -8 27 -17 31 -16 7 -15 9 7 15 42 13 59 11 70 -9z m-145 -23 c31 -14 32 -36 3 -47 -27 -11 -40 -1 -44 34 -3 28 4 30 41 13z m790 -398 c0 -17 -6 -26 -20 -28 l-20 -4 20 15 20 16 -20 16 -20 16 20 -3 c14 -2 20 -11 20 -28z"/>
<path d="M1358 3075 c-5 -22 -2 -25 26 -25 17 0 85 -9 151 -20 66 -11 128 -20 138 -20 20 0 22 25 6 67 -10 27 -11 27 -25 8 -13 -18 -27 -20 -139 -20 -110 0 -124 2 -129 18 -6 25 -23 21 -28 -8z"/>
<path d="M2160 3080 c0 -17 -7 -20 -45 -20 -38 0 -45 -3 -45 -19 0 -14 13 -24 49 -36 61 -20 124 -80 147 -141 23 -61 43 -57 76 15 71 152 253 189 385 77 50 -42 75 -104 77 -191 0 -41 4 -75 8 -75 4 0 9 44 11 98 l3 97 2 -101 c1 -77 5 -103 16 -107 8 -3 17 -3 20 0 3 3 2 55 -1 116 -5 101 -8 113 -29 130 -14 10 -24 29 -24 43 0 21 -5 24 -35 24 l-35 0 0 55 c0 40 -4 55 -14 55 -7 0 -16 -9 -19 -20 -5 -19 -14 -20 -136 -20 -124 0 -131 1 -131 20 0 11 -7 20 -15 20 -12 0 -15 -13 -15 -55 l0 -55 -105 0 -105 0 0 55 c0 48 -2 55 -20 55 -13 0 -20 -7 -20 -20z"/>
<path d="M892 3081 c-9 -5 -12 -28 -10 -72 2 -51 6 -64 21 -67 15 -3 17 5 17 67 0 71 -6 86 -28 72z"/>
<path d="M1236 3083 c-3 -4 -6 -37 -6 -75 0 -61 2 -69 18 -66 14 3 18 16 20 69 2 51 -1 68 -12 72 -8 3 -17 3 -20 0z"/>
<path d="M2834 3067 c-3 -8 -4 -41 -2 -73 2 -47 7 -59 21 -62 16 -3 18 4 15 69 -2 47 -7 74 -15 77 -7 2 -15 -3 -19 -11z"/>
<path d="M3170 2995 c0 -41 4 -75 8 -75 21 0 32 29 32 87 0 56 -2 63 -20 63 -18 0 -20 -7 -20 -75z"/>
<path d="M3310 3048 c0 -15 -8 -18 -45 -18 -44 0 -45 0 -45 -34 l0 -33 53 4 c63 6 117 21 117 34 0 6 5 7 12 3 6 -4 46 -13 87 -20 42 -7 84 -15 94 -19 11 -5 17 -2 17 8 0 15 -34 23 -195 48 -38 5 -71 12 -74 15 -9 9 57 3 157 -14 56 -10 104 -16 106 -14 2 2 2 12 -1 23 -5 16 -15 19 -72 20 -36 0 -99 4 -138 8 -66 6 -73 5 -73 -11z"/>
<path d="M3670 3049 c0 -6 10 -9 24 -7 20 4 23 1 22 -26 -1 -22 -7 -32 -20 -34 -23 -5 -47 23 -39 44 4 10 -3 14 -21 14 l-26 0 1 -125 c1 -69 6 -125 10 -125 5 0 9 10 9 23 0 12 5 39 11 60 8 30 18 42 44 53 19 8 36 14 39 14 2 0 2 -24 -1 -54 -4 -36 -2 -56 6 -61 7 -4 110 -23 229 -44 l217 -36 7 -54 c7 -59 17 -75 44 -69 26 4 30 45 8 70 -18 19 -18 20 -1 29 34 19 15 79 -25 79 -19 0 -24 -15 -8 -25 13 -8 13 -55 -1 -55 -5 0 -7 5 -3 11 3 6 1 22 -7 35 -8 15 -15 20 -19 13 -8 -12 -378 44 -412 62 -23 13 -23 60 0 88 11 14 29 23 50 23 47 1 40 18 -8 18 -37 0 -40 2 -40 29 0 19 -8 34 -25 45 -28 18 -65 21 -65 5z m550 -369 c6 -11 8 -26 4 -32 -5 -8 -10 -5 -15 8 -16 41 -8 59 11 24z"/>
<path d="M3670 3016 c0 -18 17 -29 30 -21 8 5 7 11 -1 21 -15 18 -29 18 -29 0z"/>
<path d="M2070 2986 c0 -7 13 -16 30 -19 37 -8 103 -67 124 -112 10 -19 24 -35 32 -35 12 0 12 5 -1 37 -24 58 -61 99 -108 122 -50 24 -77 27 -77 7z"/>
<path d="M1443 2983 c-13 -2 -23 -8 -23 -13 0 -10 56 -2 80 11 11 6 8 8 -10 7 -14 0 -35 -3 -47 -5z"/>
<path d="M3370 2967 c-16 -8 -26 -23 -28 -40 l-3 -27 126 0 126 0 -3 27 c-3 26 -8 29 -68 40 -84 16 -119 16 -150 0z"/>
<path d="M1468 2958 c-38 -10 -51 -34 -25 -44 7 -2 60 -3 118 -2 l104 3 -55 27 c-58 29 -82 32 -142 16z"/>
<path d="M1630 2949 c19 -12 37 -25 38 -30 7 -17 32 -9 32 10 0 14 -12 22 -44 30 -62 15 -66 14 -26 -10z"/>
<path d="M2515 2958 c-22 -5 -50 -17 -63 -26 -24 -18 -23 -18 113 -67 75 -27 144 -55 153 -62 10 -7 -21 1 -68 18 -122 44 -222 79 -231 79 -4 0 -16 -19 -28 -42 l-21 -43 22 -7 c44 -12 119 -8 134 7 22 22 60 18 78 -7 18 -25 21 -74 6 -83 -6 -4 -4 -15 6 -30 21 -32 14 -66 -17 -84 -23 -13 -32 -13 -82 3 -75 24 -105 18 -58 -11 96 -60 235 -18 277 84 18 42 18 124 0 166 -12 29 -77 96 -94 97 -4 1 -25 4 -47 8 -22 5 -58 4 -80 0z"/>
<path d="M1280 2950 c0 -6 -12 -15 -26 -20 -37 -14 -25 -36 17 -32 62 7 97 62 39 62 -16 0 -30 -5 -30 -10z"/>
<path d="M1343 2933 c-15 -32 -12 -37 21 -29 23 6 24 9 14 31 -14 32 -20 31 -35 -2z"/>
<path d="M1988 2953 c-21 -2 -38 -8 -38 -12 0 -5 19 -21 43 -36 23 -15 51 -36 62 -46 20 -18 165 -39 165 -24 0 22 -47 78 -84 100 -42 24 -62 27 -148 18z"/>
<path d="M3246 2945 c-21 -7 -46 -21 -55 -30 -15 -15 -11 -16 44 -13 57 3 60 4 63 31 4 31 2 31 -52 12z"/>
<path d="M3310 2862 l0 -98 33 -3 c73 -9 102 -6 103 9 1 8 2 22 3 30 0 8 16 22 34 30 38 17 38 17 82 19 28 1 35 5 35 21 0 19 -7 20 -130 20 l-130 0 0 -30 c0 -20 5 -30 15 -30 8 0 15 -9 15 -20 0 -15 -6 -19 -22 -16 -22 3 -23 7 -20 85 2 51 -1 81 -8 81 -6 0 -10 -37 -10 -98z"/>
<path d="M1901 2928 c-25 -69 -29 -64 66 -76 49 -5 89 -9 90 -8 2 1 -25 21 -58 45 -52 36 -62 41 -76 29 -15 -12 -15 -11 -4 10 8 14 8 22 1 22 -6 0 -14 -10 -19 -22z"/>
<path d="M1826 2914 c-6 -24 -2 -44 8 -33 9 11 15 59 7 59 -5 0 -12 -12 -15 -26z"/>
<path d="M3776 2924 c-19 -19 -21 -60 -3 -71 15 -10 200 -44 206 -38 2 3 -8 23 -24 44 -45 66 -143 101 -179 65z"/>
<path d="M1765 2918 c-2 -7 -5 -37 -8 -65 -3 -46 -2 -53 14 -53 13 0 20 13 28 50 6 28 11 58 11 65 0 18 -39 20 -45 3z"/>
<path d="M4124 2912 c-35 -22 -74 -72 -74 -95 0 -26 79 -36 124 -16 56 26 115 -27 83 -75 -12 -17 -12 -26 -1 -53 12 -27 12 -34 -2 -47 -17 -17 -59 -21 -68 -7 -8 12 -86 19 -86 8 0 -4 21 -17 46 -29 57 -25 110 -20 163 15 47 32 71 80 71 147 0 58 -15 92 -59 135 -28 26 -40 30 -99 33 -53 2 -73 -1 -98 -16z m71 -52 c63 -13 169 -49 162 -56 -2 -2 -28 4 -58 14 -30 10 -83 25 -119 32 -36 7 -69 17 -75 23 -7 6 -3 7 10 4 11 -3 47 -11 80 -17z"/>
<path d="M3677 2908 c-18 -15 -42 -107 -30 -118 4 -4 51 -15 103 -24 74 -12 96 -13 102 -3 5 8 8 8 8 1 0 -7 20 -17 44 -23 60 -15 66 -14 66 8 0 16 -13 21 -92 32 -74 11 -94 11 -96 2 -2 -7 -8 -13 -14 -13 -5 0 -8 7 -4 15 4 10 -1 15 -14 15 -30 0 -54 44 -47 85 6 37 1 42 -26 23z"/>
<path d="M4560 2790 l0 -120 61 0 60 0 -2 68 c-3 67 -2 67 27 73 16 4 104 7 197 8 142 1 167 -1 167 -14 0 -12 14 -15 70 -15 54 0 72 4 76 15 5 13 62 15 430 15 370 0 424 -2 424 -15 0 -12 14 -15 70 -15 54 0 72 4 76 15 5 12 31 15 146 15 143 0 188 -10 201 -45 4 -8 14 -15 23 -15 13 0 16 -7 12 -32 -3 -18 -3 -39 -1 -45 5 -15 133 -18 133 -4 0 5 -5 11 -11 13 -6 2 -12 21 -13 42 -3 36 -2 38 23 31 14 -3 44 -7 66 -8 l40 -2 0 55 0 55 -45 -3 c-25 -2 -49 -8 -54 -13 -18 -17 -26 -9 -26 26 l0 35 -1075 0 -1075 0 0 -120z m90 -60 c0 -38 -2 -40 -30 -40 -28 0 -30 2 -30 40 0 38 2 40 30 40 28 0 30 -2 30 -40z m2030 -5 c0 -32 -2 -35 -30 -35 -28 0 -30 3 -30 35 0 32 2 35 30 35 28 0 30 -3 30 -35z"/>
<path d="M1288 2883 c-25 -6 -10 -33 17 -33 13 0 26 6 28 13 4 10 6 10 6 0 1 -8 15 -13 35 -13 29 0 33 3 29 20 -4 16 -13 19 -52 18 -25 -1 -54 -3 -63 -5z"/>
<path d="M3176 2882 c-11 -19 -4 -203 8 -199 14 5 21 186 8 199 -6 6 -12 6 -16 0z"/>
<path d="M3212 2868 c3 -20 9 -23 41 -21 45 2 50 5 41 27 -4 11 -18 16 -46 16 -35 0 -39 -2 -36 -22z"/>
<path d="M890 2791 c0 -66 4 -92 15 -101 13 -11 15 0 15 89 0 83 -3 101 -15 101 -12 0 -15 -17 -15 -89z"/>
<path d="M1230 2785 c0 -78 3 -95 15 -95 15 0 15 4 17 130 1 48 -2 60 -17 60 -12 0 -15 -17 -15 -95z"/>
<path d="M1810 2848 c0 -7 -3 -23 -6 -35 -5 -20 -1 -22 53 -28 32 -3 71 -9 86 -12 24 -4 28 -2 25 14 -2 13 -15 20 -48 24 -25 4 -50 2 -57 -3 -16 -13 -33 -1 -33 22 0 10 -4 22 -10 25 -5 3 -10 0 -10 -7z"/>
<path d="M1300 2829 c-16 -4 1 -7 49 -8 41 -1 72 1 70 3 -9 8 -96 12 -119 5z"/>
<path d="M3578 2834 c-3 -2 -22 -5 -42 -6 -44 -2 -47 -13 -5 -22 46 -9 56 -8 62 9 6 14 -6 29 -15 19z"/>
<path d="M1470 2820 c0 -5 5 -10 10 -10 6 0 10 5 10 10 0 6 -4 10 -10 10 -5 0 -10 -4 -10 -10z"/>
<path d="M1645 2820 c3 -5 8 -10 11 -10 2 0 4 5 4 10 0 6 -5 10 -11 10 -5 0 -7 -4 -4 -10z"/>
<path d="M3215 2820 c3 -5 22 -10 41 -10 19 0 34 5 34 10 0 6 -18 10 -41 10 -24 0 -38 -4 -34 -10z"/>
<path d="M2536 2807 c-18 -13 -18 -15 -1 -50 9 -20 21 -37 26 -37 15 0 10 38 -7 55 -9 9 -13 19 -9 23 9 10 35 -27 35 -51 0 -23 24 -17 28 7 4 21 -24 66 -41 66 -7 0 -21 -6 -31 -13z"/>
<path d="M1280 2785 c0 -12 15 -15 75 -15 60 0 75 3 75 15 0 12 -15 15 -75 15 -60 0 -75 -3 -75 -15z"/>
<path d="M1987 2785 c-5 -10 4 -16 31 -20 20 -3 45 -8 55 -10 11 -2 17 3 17 15 0 28 -93 42 -103 15z"/>
<path d="M3212 2788 c3 -7 21 -14 41 -16 28 -2 37 1 37 12 0 12 -11 16 -41 16 -28 0 -39 -4 -37 -12z"/>
<path d="M3462 2783 c3 -16 104 -38 403 -87 50 -9 136 -24 193 -36 57 -11 105 -20 108 -20 2 0 4 9 4 20 0 12 -8 21 -22 24 -69 15 -657 116 -675 116 -8 0 -13 -7 -11 -17z"/>
<path d="M2110 2772 c0 -17 9 -22 55 -27 60 -8 71 -4 62 20 -4 9 -19 15 -39 15 -18 0 -43 3 -55 6 -18 5 -23 2 -23 -14z"/>
<path d="M4935 2767 l-70 -12 0 -65 0 -65 40 0 40 0 3 47 c3 42 1 47 -20 51 -21 4 -21 4 -2 6 21 1 114 -87 114 -109 0 -6 36 -10 98 -10 l97 0 50 60 c28 33 57 60 65 60 13 -1 13 -2 0 -9 -11 -7 -14 -22 -12 -55 l4 -46 39 0 39 0 0 65 c0 62 -1 66 -27 77 -40 15 -373 19 -458 5z m135 -64 c0 -52 -14 -53 -47 -3 -28 40 -28 47 -5 52 40 9 52 -3 52 -49z m206 43 c18 -14 18 -16 -18 -53 l-38 -38 0 53 c0 43 3 52 18 52 10 0 27 -7 38 -14z"/>
<path d="M5025 2720 c10 -11 20 -20 22 -20 1 0 3 9 3 20 0 14 -7 20 -22 20 -20 0 -21 -1 -3 -20z"/>
<path d="M5237 2743 c-11 -10 -8 -53 2 -53 6 0 17 10 25 22 12 17 13 24 3 30 -15 10 -22 10 -30 1z"/>
<path d="M5945 2768 c-91 -15 -86 -10 -83 -80 l3 -63 40 0 40 0 3 44 c2 28 -1 47 -10 52 -9 6 -9 9 -1 9 6 0 36 -27 66 -60 l54 -61 88 -1 87 -1 55 62 c30 33 59 61 65 61 7 0 6 -5 -1 -14 -7 -8 -11 -32 -9 -53 3 -37 4 -38 43 -38 l40 0 0 65 0 65 -75 12 c-88 14 -319 14 -405 1z m328 -20 c16 -12 15 -16 -8 -50 -14 -21 -30 -38 -35 -38 -11 0 -14 83 -3 93 10 11 27 8 46 -5z m-249 -12 c-7 -19 15 -31 29 -17 9 9 8 14 -3 21 -13 8 -12 10 3 10 14 0 17 -9 17 -45 0 -25 -3 -45 -7 -45 -13 1 -63 72 -57 81 9 15 24 10 18 -5z"/>
<path d="M6240 2730 c19 -13 30 -13 30 0 0 6 -10 10 -22 10 -19 0 -20 -2 -8 -10z"/>
<path d="M6236 2695 c-3 -8 -1 -15 3 -15 5 0 11 7 15 15 3 8 1 15 -3 15 -5 0 -11 -7 -15 -15z"/>
<path d="M2240 2750 c0 -11 7 -20 15 -20 8 0 15 9 15 20 0 11 -7 20 -15 20 -8 0 -15 -9 -15 -20z"/>
<path d="M2280 2751 c0 -10 7 -21 15 -25 11 -4 15 1 15 19 0 16 -6 25 -15 25 -8 0 -15 -9 -15 -19z"/>
<path d="M2330 2740 c0 -11 7 -20 15 -20 8 0 15 9 15 20 0 11 -7 20 -15 20 -8 0 -15 -9 -15 -20z"/>
<path d="M2373 2741 c4 -27 4 -27 65 -35 51 -7 52 -6 52 19 0 22 -4 25 -37 25 -21 0 -48 3 -61 6 -18 5 -22 3 -19 -15z"/>
<path d="M3254 2749 c-9 -16 17 -82 45 -113 30 -33 79 -56 118 -56 34 0 113 35 113 50 0 13 -53 13 -83 -1 -33 -15 -67 3 -67 37 0 32 42 54 71 36 10 -7 41 -12 68 -12 39 0 51 4 54 18 4 16 5 16 6 0 1 -22 27 -24 34 -3 8 19 4 20 -80 35 -57 10 -75 11 -87 1 -12 -10 -27 -10 -68 -2 -83 18 -117 20 -124 10z"/>
<path d="M3980 2752 c0 -4 5 -13 12 -20 18 -18 28 -15 28 8 0 13 -7 20 -20 20 -11 0 -20 -4 -20 -8z"/>
<path d="M2507 2744 c-4 -4 -7 -16 -7 -26 0 -20 25 -25 36 -7 8 13 -19 43 -29 33z"/>
<path d="M4030 2737 c0 -10 17 -19 50 -26 68 -15 90 -14 90 3 0 18 -13 22 -83 31 -48 6 -57 5 -57 -8z"/>
<path d="M856 2674 l3 -59 230 -3 c127 -1 231 -1 231 2 0 2 -10 25 -22 52 -19 45 -22 47 -31 27 -13 -29 -32 -33 -188 -33 -124 0 -199 11 -199 29 0 4 -6 15 -13 26 -12 16 -14 11 -11 -41z"/>
<path d="M1716 2714 c-4 -9 -4 -19 -2 -22 10 -9 36 8 36 23 0 20 -26 19 -34 -1z"/>
<path d="M1760 2711 c0 -16 6 -21 25 -21 16 0 25 6 25 15 0 8 -4 15 -9 15 -5 0 -16 3 -25 6 -12 4 -16 0 -16 -15z"/>
<path d="M1826 2705 c-3 -9 0 -15 9 -15 16 0 20 16 6 24 -5 3 -11 -1 -15 -9z"/>
<path d="M3630 2707 c0 -12 16 -15 78 -15 61 0 70 2 42 8 -82 20 -120 22 -120 7z"/>
<path d="M1860 2700 c0 -5 19 -10 43 -9 32 0 37 2 22 9 -28 12 -65 12 -65 0z"/>
<path d="M1492 2688 c-29 -29 -2 -72 40 -66 42 6 32 78 -11 78 -9 0 -22 -5 -29 -12z m38 -28 c0 -11 -4 -20 -10 -20 -5 0 -10 9 -10 20 0 11 5 20 10 20 6 0 10 -9 10 -20z"/>
<path d="M2014 2676 c-16 -42 28 -74 62 -46 18 16 18 25 -2 44 -19 20 -53 21 -60 2z m46 -27 c0 -5 -4 -9 -10 -9 -5 0 -10 7 -10 16 0 8 5 12 10 9 6 -3 10 -10 10 -16z"/>
<path d="M3394 2675 c-8 -21 4 -35 32 -35 19 0 24 5 24 25 0 20 -5 25 -25 25 -14 0 -28 -7 -31 -15z m41 -4 c3 -5 1 -12 -5 -16 -5 -3 -10 1 -10 9 0 18 6 21 15 7z"/>
<path d="M3794 2676 c-9 -23 13 -45 37 -39 14 4 19 12 17 27 -4 26 -45 35 -54 12z m46 -16 c0 -5 -4 -10 -9 -10 -6 0 -13 5 -16 10 -3 6 1 10 9 10 9 0 16 -4 16 -10z"/>
<path d="M1570 2664 c0 -11 25 -14 128 -14 70 0 164 -3 210 -7 80 -6 82 -5 82 16 0 22 -1 22 -210 20 -173 -1 -210 -3 -210 -15z"/>
<path d="M2100 2664 c0 -13 94 -23 132 -13 14 3 -7 9 -54 15 -59 7 -78 7 -78 -2z"/>
<path d="M3464 2671 c-16 -17 16 -21 157 -21 124 0 160 3 156 13 -3 9 -43 12 -156 12 -84 0 -155 -2 -157 -4z"/>
<path d="M3870 2666 c0 -11 9 -16 29 -16 15 0 57 -3 92 -6 82 -7 59 11 -26 20 -33 4 -68 9 -77 12 -12 4 -18 0 -18 -10z"/>
<path d="M1751 2630 l-24 -6 24 -15 c24 -16 60 -12 73 9 7 12 -41 20 -73 12z"/>
<path d="M3710 2631 c0 -15 47 -40 88 -47 42 -7 132 24 132 45 0 15 -56 14 -80 -1 -15 -10 -26 -10 -53 0 -39 14 -87 16 -87 3z"/>
<path d="M1930 2610 c58 -46 137 -48 215 -7 l40 22 -39 3 c-24 2 -52 -3 -72 -14 -30 -16 -34 -16 -58 -1 -14 9 -45 17 -68 17 l-43 0 25 -20z"/>
<path d="M2255 2620 c-3 -5 1 -10 9 -10 9 0 16 -4 16 -9 0 -5 8 -8 18 -6 9 2 23 4 30 4 6 1 12 8 12 16 0 17 -75 22 -85 5z"/>
</g>
</svg>