<svg xmlns="http://www.w3.org/2000/svg" viewBox="21.50 39.10 662.50 209.90">
<g transform="translate(0.000000,768.000000) scale(0.100000,-0.100000)" fill="currentColor" stroke="none">
<path d="M1400 7234 c-61 -6 -90 -13 -90 -22 0 -4 97 -8 215 -8 199 0 249 5 193 19 -32 8 -263 16 -318 11z"/>
<path d="M1260 7184 c-79 -10 -75 -5 -72 -89 l4 -75 333 0 333 0 -1 75 c-1 57 -5 76 -17 81 -17 7 -527 14 -580 8z"/>
<path d="M3291 7029 c-9 -22 -12 -50 -7 -92 3 -33 8 -62 9 -64 2 -2 68 -6 145 -10 l142 -6 0 -34 c0 -18 1 -36 3 -40 1 -5 -10 -9 -25 -11 -22 -3 -28 -9 -28 -28 0 -18 6 -24 23 -25 130 -3 1083 1 1086 6 2 3 1 14 -2 25 -5 20 -16 20 -521 20 l-516 0 0 55 0 55 -135 0 c-113 0 -135 2 -135 15 0 8 -7 15 -16 15 -8 0 -13 4 -9 10 3 5 12 7 20 3 12 -4 15 4 15 39 0 40 -18 98 -30 98 -3 0 -11 -14 -19 -31z"/>
<path d="M1228 7001 l-37 -6 102 -200 103 -200 126 -3 126 -3 87 173 c48 95 96 187 106 204 10 17 16 34 12 37 -8 9 -574 6 -625 -2z"/>
<path d="M1090 6870 c-6 -11 -8 -35 -5 -54 6 -29 3 -36 -27 -59 l-33 -27 105 0 105 0 -25 20 c-14 11 -29 20 -34 20 -5 0 -6 18 -2 40 3 23 2 49 -4 60 -15 27 -66 27 -80 0z m68 -18 c3 -11 0 -12 -15 -3 -14 7 -23 7 -31 -1 -8 -8 -12 -8 -12 -2 0 27 49 31 58 6z"/>
<path d="M3223 6848 c2 -9 28 -13 82 -13 54 0 80 4 83 13 3 9 -18 12 -83 12 -65 0 -86 -3 -82 -12z"/>
<path d="M3210 6805 c-14 -7 -32 -26 -40 -42 -8 -15 -21 -32 -27 -36 -34 -22 -2 -27 162 -27 110 0 175 4 175 10 0 12 11 11 -170 10 -79 -1 -141 3 -136 7 4 4 69 10 144 13 l136 5 -33 38 c-33 37 -34 37 -110 37 -45 -1 -86 -6 -101 -15z"/>
<path d="M2486 6763 c-3 -3 -6 -17 -6 -30 0 -12 -6 -23 -13 -23 -19 0 -91 -64 -86 -75 2 -6 51 -8 119 -5 l114 5 -37 38 c-21 20 -46 37 -56 37 -14 0 -18 6 -16 25 3 25 -7 40 -19 28z"/>
<path d="M1020 6575 l0 -145 110 0 110 0 0 145 0 145 -110 0 -110 0 0 -145z m188 -7 l3 -118 -81 0 -80 0 0 113 c0 63 3 117 7 121 4 4 39 5 78 4 l70 -3 3 -117z"/>
<path d="M1067 6674 c-4 -4 -7 -54 -7 -111 l0 -104 68 3 67 3 0 105 0 105 -60 3 c-34 2 -64 0 -68 -4z"/>
<path d="M1958 6683 c-3 -10 -5 -71 -6 -136 -1 -116 0 -118 21 -115 17 2 21 9 19 31 -2 24 1 27 26 27 38 0 46 9 26 31 -9 10 -18 36 -21 59 -3 23 -12 44 -19 47 -8 3 -14 20 -14 39 0 36 -24 49 -32 17z"/>
<path d="M3563 6687 c3 -8 8 -145 12 -305 l8 -292 363 0 364 0 0 110 c0 91 -3 110 -15 110 -13 0 -15 23 -15 149 0 112 3 151 13 160 8 6 76 20 153 31 76 11 147 23 157 26 63 20 -28 24 -514 24 -440 0 -530 -2 -526 -13z m337 -227 l0 -161 -132 3 -133 3 -3 158 -3 157 136 0 135 0 0 -160z m290 5 l0 -145 -125 0 -125 0 0 145 0 145 125 0 125 0 0 -145z m97 -312 c-2 -27 -3 -5 -3 47 0 52 1 74 3 48 2 -27 2 -69 0 -95z m-84 86 c10 -11 15 -24 12 -27 -4 -4 -14 3 -22 16 -15 22 -17 22 -269 22 l-254 0 -15 -24 c-15 -22 -15 -27 0 -55 l16 -31 253 0 254 0 21 33 c11 17 21 26 21 19 0 -7 -7 -24 -16 -37 l-16 -25 -263 0 -263 0 -16 25 c-20 31 -20 54 0 83 15 22 18 22 277 22 254 0 263 -1 280 -21z"/>
<path d="M3650 6460 l0 -150 120 0 120 0 0 150 0 150 -120 0 -120 0 0 -150z m220 0 l0 -131 -102 3 -103 3 -3 128 -3 127 106 0 105 0 0 -130z"/>
<path d="M985 6677 c-11 -28 0 -210 13 -215 15 -5 18 213 2 223 -6 3 -13 0 -15 -8z"/>
<path d="M3157 6684 c-1 -1 0 -32 1 -68 l4 -66 144 0 144 0 0 60 c0 33 0 63 0 68 0 6 -287 11 -293 6z"/>
<path d="M1930 6603 c0 -21 -9 -53 -20 -71 -25 -41 -25 -42 5 -42 24 0 25 2 25 75 0 41 -2 75 -5 75 -3 0 -5 -17 -5 -37z"/>
<path d="M2354 6611 c-17 -17 14 -21 139 -19 86 2 140 7 137 13 -5 9 -267 15 -276 6z"/>
<path d="M2370 6525 l0 -55 123 0 122 0 -1 53 -2 52 -121 3 -121 3 0 -56z"/>
<path d="M1400 6505 l0 -65 125 0 125 0 0 65 0 65 -125 0 -125 0 0 -65z"/>
<path d="M3130 6520 c0 -6 65 -10 176 -10 114 0 173 3 169 10 -4 6 -73 10 -176 10 -106 0 -169 -4 -169 -10z"/>
<path d="M3118 6468 c-3 -20 -10 -23 -53 -26 -74 -5 -68 -12 11 -12 45 0 87 -7 122 -20 70 -27 145 -25 223 3 38 14 79 22 102 20 21 -2 37 1 37 7 0 5 -16 10 -35 10 -28 0 -35 4 -35 20 0 19 -7 20 -184 20 -184 0 -185 0 -188 -22z"/>
<path d="M4997 6449 c-10 -6 -31 -8 -46 -4 -16 3 -32 2 -35 -3 -3 -5 -26 -7 -50 -5 -31 4 -51 1 -67 -11 -13 -9 -33 -16 -45 -16 -11 0 -29 -9 -39 -20 -15 -16 -31 -20 -87 -20 l-68 0 0 -50 0 -50 -45 0 c-25 0 -45 -4 -45 -10 0 -6 36 -10 89 -10 l89 0 7 37 c3 20 19 49 35 65 l28 28 329 1 c234 1 318 4 293 11 -19 5 -48 17 -63 25 -16 8 -39 12 -51 9 -15 -4 -28 0 -36 9 -15 18 -61 20 -78 3 -9 -9 -16 -8 -30 5 -21 19 -58 22 -85 6z"/>
<path d="M2350 6440 c0 -6 55 -10 146 -10 94 0 143 4 139 10 -4 6 -63 10 -146 10 -86 0 -139 -4 -139 -10z"/>
<path d="M6120 6431 c-4 -8 -5 -22 -3 -32 5 -18 18 -19 175 -19 l169 0 -3 31 -3 31 -163 2 c-131 1 -165 -2 -172 -13z"/>
<path d="M2958 6430 c-17 -10 -1202 -15 -1218 -5 -4 3 -19 1 -32 -4 -20 -8 -21 -10 -5 -16 15 -6 17 -27 17 -221 l0 -214 270 0 c149 0 273 -1 278 -2 4 -2 10 17 13 42 4 30 7 7 7 -67 l2 -113 48 -1 c26 -1 39 -3 30 -6 -13 -3 -18 -15 -18 -44 0 -38 -2 -40 -27 -37 -24 3 -29 9 -35 43 -4 22 -7 68 -7 103 l-1 62 -280 0 -280 0 0 -50 0 -50 253 -3 252 -2 -272 -3 c-168 -1 -274 -6 -278 -12 -4 -7 88 -10 269 -10 l276 0 0 -73 0 -74 138 -22 c75 -13 146 -25 158 -28 19 -4 22 1 27 49 4 29 21 81 38 116 116 236 465 226 577 -16 21 -46 26 -72 27 -134 l0 -78 150 0 150 0 0 83 c1 102 32 175 102 236 67 59 140 84 233 79 160 -10 268 -111 304 -285 8 -38 12 -83 9 -102 -4 -24 -2 -32 6 -27 6 4 11 25 11 47 0 21 4 39 10 39 5 0 23 -28 38 -62 16 -35 41 -74 55 -87 32 -29 93 -36 167 -19 53 13 55 14 58 50 2 29 8 38 25 41 l22 4 -22 2 c-19 1 -23 7 -23 36 l0 35 88 0 87 0 -41 -19 c-126 -57 -131 -216 -9 -292 29 -19 12 -19 -860 -18 -490 1 -864 5 -833 9 75 10 154 55 200 115 59 78 26 85 -43 10 -80 -87 -209 -113 -317 -66 -56 25 -138 106 -148 147 -4 17 -13 24 -30 24 l-24 0 29 -57 c48 -95 128 -156 228 -173 28 -4 -144 -8 -417 -9 -457 -1 -465 -1 -435 18 61 37 79 67 83 134 4 75 -17 115 -75 146 -47 25 -38 25 93 5 58 -9 107 -14 110 -11 17 17 -16 27 -89 28 -45 0 -91 4 -102 9 -13 6 18 9 87 9 93 1 107 3 111 19 3 9 5 -1 4 -23 0 -22 -4 -48 -9 -57 -7 -14 -4 -18 12 -18 16 0 20 6 20 36 0 29 3 34 18 30 15 -5 203 -42 312 -61 87 -16 260 -58 264 -64 4 -6 -29 -89 -39 -99 -6 -6 -55 30 -55 41 0 6 12 24 27 39 32 34 11 39 -24 6 -22 -21 -24 -21 -41 -5 -14 14 -14 19 -4 26 11 7 10 10 -3 15 -45 17 -47 -5 -6 -62 20 -27 51 -50 95 -72 60 -30 72 -32 133 -28 77 6 133 30 182 80 l32 33 -71 9 c-39 4 -74 5 -77 2 -3 -3 6 -21 21 -41 15 -19 23 -35 18 -35 -5 0 -20 16 -33 35 -18 27 -29 34 -44 30 -41 -12 -51 -12 -72 -4 -14 5 -24 20 -28 43 -7 34 -9 35 -74 50 -122 27 -325 65 -416 77 -49 6 -96 13 -102 15 -9 2 -13 24 -13 64 0 53 -2 60 -20 60 -21 0 -27 -15 -10 -25 6 -3 10 -21 10 -38 l0 -32 -157 3 c-256 4 -282 8 -65 10 172 2 202 4 202 17 0 12 -16 15 -85 15 -83 0 -85 1 -85 24 0 13 -7 30 -16 37 -14 11 -18 10 -30 -6 -8 -10 -14 -27 -14 -37 0 -16 -10 -18 -95 -18 l-95 0 0 -72 c1 -63 2 -71 14 -55 8 10 26 17 47 16 29 0 31 -2 13 -9 -31 -12 -72 -66 -84 -110 -19 -72 16 -151 82 -183 31 -16 14 -17 -297 -17 l-330 0 38 23 c55 34 77 72 77 136 0 147 -169 222 -269 119 -78 -79 -58 -208 39 -259 34 -19 29 -19 -381 -19 -388 0 -417 -1 -421 -17 -3 -10 -3 -24 -1 -30 4 -10 665 -13 3264 -13 l3259 0 0 30 0 30 -242 0 -241 0 40 29 c44 32 73 83 73 130 0 69 -54 141 -120 159 l-35 10 50 1 c47 1 52 -2 78 -39 28 -39 30 -40 87 -40 56 0 59 1 63 28 2 15 5 -10 6 -55 l1 -83 40 0 c42 0 56 16 18 22 -21 3 -23 9 -26 71 -3 61 -1 67 16 67 11 0 22 -7 26 -15 4 -11 21 -15 61 -15 l55 0 0 65 0 65 -55 0 c-40 0 -57 -4 -61 -15 -4 -8 -15 -15 -26 -15 -17 0 -20 5 -16 35 l4 35 -1128 0 c-745 0 -1128 3 -1128 10 0 6 -18 10 -40 10 l-40 0 0 145 0 145 25 0 c14 0 25 5 25 10 0 6 -20 10 -45 10 l-45 0 -3 -207 -2 -208 -3 208 -2 207 -850 0 -850 0 0 -119 c0 -133 10 -155 44 -105 43 60 118 123 174 145 87 35 216 32 298 -5 112 -50 208 -175 221 -286 8 -68 -3 -63 -17 8 -7 31 -21 75 -32 96 -31 60 -105 133 -167 163 -50 25 -66 28 -161 28 -91 0 -111 -3 -155 -25 -99 -49 -180 -159 -192 -261 -8 -69 -22 -62 -16 9 3 31 0 68 -5 82 -10 23 -11 21 -11 -17 -1 -42 -2 -43 -35 -43 -33 0 -34 1 -38 45 l-3 44 40 3 40 3 3 118 3 117 -256 0 c-163 0 -255 4 -255 10 0 6 92 10 255 10 l255 0 0 142 c0 78 3 138 7 135 3 -4 5 -68 4 -142 l-2 -135 530 0 531 0 0 165 c0 143 -2 165 -16 165 -13 0 -15 -20 -13 -150 1 -83 -1 -153 -5 -157 -3 -3 -6 64 -6 150 0 182 8 173 -114 132 -41 -14 -91 -25 -110 -25 -20 0 -65 11 -102 25 -36 14 -82 25 -100 25 l-34 0 0 -162 c0 -89 -3 -158 -7 -154 -8 8 -9 14 -11 184 l-2 132 -25 0 c-14 0 -25 5 -25 10 0 12 -10 12 -32 0z m-1011 -42 c-1 -8 10 -14 26 -16 19 -2 27 1 27 12 0 14 19 16 130 16 123 0 130 -1 130 -20 0 -19 -7 -20 -260 -20 -253 0 -260 1 -260 20 0 19 7 20 105 20 79 0 104 -3 102 -12z m393 -2 c0 -14 86 -56 114 -56 9 0 16 -4 16 -9 0 -11 -62 4 -102 25 -15 8 -38 14 -52 14 l-24 0 -1 -127 c-1 -70 -4 -129 -6 -132 -3 -2 -5 64 -5 147 l0 152 30 0 c19 0 30 -5 30 -14z m470 -3 c-36 -9 -71 -17 -77 -19 -10 -2 -13 -37 -13 -128 0 -72 -4 -127 -10 -131 -6 -4 -10 40 -10 124 0 129 0 131 -22 131 -13 0 -35 -6 -49 -14 -14 -7 -39 -16 -55 -20 -16 -4 -37 -9 -48 -13 -11 -3 -16 -1 -12 5 3 5 23 13 43 17 54 10 96 34 89 51 -4 12 14 14 112 13 l117 -1 -65 -15z m197 -210 c-1 -43 -3 -8 -3 77 0 85 2 120 3 78 2 -43 2 -113 0 -155z m-300 -160 c-3 -10 -5 -4 -5 12 0 17 2 24 5 18 2 -7 2 -21 0 -30z m708 7 c3 -5 1 -10 -4 -10 -6 0 -11 5 -11 10 0 6 2 10 4 10 3 0 8 -4 11 -10z m70 0 c3 -5 1 -10 -4 -10 -6 0 -11 5 -11 10 0 6 2 10 4 10 3 0 8 -4 11 -10z m105 0 c0 -5 -4 -10 -10 -10 -5 0 -10 5 -10 10 0 6 5 10 10 10 6 0 10 -4 10 -10z m40 6 c0 -3 -4 -8 -10 -11 -5 -3 -10 -1 -10 4 0 6 5 11 10 11 6 0 10 -2 10 -4z m300 -31 c97 -34 194 -132 224 -225 20 -62 27 -110 17 -110 -5 0 -11 20 -14 45 -14 101 -88 201 -189 256 -60 32 -68 34 -163 34 -93 0 -105 -2 -167 -33 -98 -48 -154 -122 -190 -252 l-18 -65 5 54 c6 72 44 147 104 208 102 103 252 137 391 88z m-660 -45 c0 -5 -4 -10 -10 -10 -5 0 -10 5 -10 10 0 6 5 10 10 10 6 0 10 -4 10 -10z m115 0 c3 -5 1 -10 -4 -10 -6 0 -11 5 -11 10 0 6 2 10 4 10 3 0 8 -4 11 -10z m35 0 c0 -5 -5 -10 -11 -10 -5 0 -7 5 -4 10 3 6 8 10 11 10 2 0 4 -4 4 -10z m95 0 c3 -5 1 -10 -4 -10 -6 0 -11 5 -11 10 0 6 2 10 4 10 3 0 8 -4 11 -10z m-330 -30 c3 -5 1 -10 -4 -10 -6 0 -11 5 -11 10 0 6 2 10 4 10 3 0 8 -4 11 -10z m40 -8 c-3 -3 -11 0 -18 7 -9 10 -8 11 6 5 10 -3 15 -9 12 -12z m30 8 c3 -5 1 -10 -4 -10 -6 0 -11 5 -11 10 0 6 2 10 4 10 3 0 8 -4 11 -10z m-988 -139 c5 -33 3 -41 -11 -41 -13 0 -16 11 -16 52 0 62 18 55 27 -11z m1143 45 c0 -3 -4 -8 -10 -11 -5 -3 -10 -1 -10 4 0 6 5 11 10 11 6 0 10 -2 10 -4z m-120 -58 c0 -11 -12 -10 -30 2 -12 7 -10 9 8 7 12 0 22 -5 22 -9z m16 -60 c23 -21 47 -16 60 11 7 14 14 16 29 10 14 -5 15 -8 5 -8 -9 -1 -22 -10 -30 -21 -8 -11 -20 -20 -27 -20 -7 0 -13 -5 -13 -11 0 -5 4 -8 9 -5 10 6 23 -33 15 -46 -13 -21 -34 -6 -34 25 -1 32 -29 77 -49 77 -6 0 -11 5 -11 11 0 12 16 4 46 -23z m-1356 -53 c0 -12 -17 -15 -95 -15 -78 0 -95 3 -95 15 0 12 17 15 95 15 78 0 95 -3 95 -15z m3205 -24 c19 -6 23 -10 11 -10 -23 -1 -86 -39 -86 -52 0 -14 36 -11 49 5 31 37 120 24 165 -23 61 -63 38 -163 -47 -204 -45 -23 -85 -16 -129 21 -60 50 -82 29 -25 -25 17 -17 39 -33 47 -36 8 -3 -82 -6 -200 -6 l-215 -1 31 19 c30 19 64 57 64 73 0 16 -27 7 -50 -17 -45 -47 -125 -51 -172 -8 -67 61 -61 170 12 208 37 19 110 19 136 0 23 -18 57 -20 52 -2 -2 6 -23 22 -47 34 l-43 22 63 3 c172 8 357 8 384 -1z m1083 -5 c3 -3 -7 -6 -21 -6 -16 0 -40 -12 -59 -30 -39 -35 -23 -39 39 -9 132 64 252 -101 152 -207 -49 -52 -128 -52 -190 0 -29 25 -49 33 -49 20 0 -17 47 -68 74 -80 27 -12 5 -13 -189 -14 -220 0 -220 0 -189 19 37 23 80 74 65 79 -6 2 -26 -8 -44 -22 -19 -14 -48 -31 -65 -37 -90 -31 -189 81 -152 171 22 53 64 80 125 80 34 0 57 -5 65 -15 7 -8 24 -15 38 -15 l25 0 -23 25 c-13 14 -39 28 -59 32 l-36 7 30 7 c34 9 454 4 463 -5z m-1778 -26 c0 -30 -1 -30 -54 -30 -75 0 -82 -18 -9 -22 54 -3 58 -5 58 -28 0 -24 -4 -25 -77 -34 -95 -11 -112 -2 -155 83 l-31 61 134 0 134 0 0 -30z m1217 16 c-72 -26 -107 -78 -107 -159 0 -52 29 -100 79 -134 l34 -23 -219 1 c-204 0 -217 1 -188 16 47 23 84 87 84 145 0 78 -35 128 -107 154 -34 12 -11 13 212 13 223 0 246 -1 212 -13z m-4446 -65 c34 -33 39 -45 39 -83 0 -58 -32 -107 -84 -127 -107 -41 -206 83 -151 189 20 38 59 59 114 60 37 0 49 -5 82 -39z m734 6 c19 -19 37 -46 41 -60 17 -71 -32 -150 -101 -163 -68 -12 -146 50 -148 118 -2 81 52 138 132 138 36 0 49 -6 76 -33z m885 -148 c0 -34 -1 -35 -30 -31 -40 6 -44 14 -26 57 14 32 17 34 36 23 14 -9 20 -23 20 -49z m89 14 c13 -29 8 -38 -31 -47 -27 -6 -28 -5 -28 33 0 56 36 65 59 14z"/>
<path d="M4853 5602 c10 -10 17 -24 17 -30 0 -8 23 -12 69 -12 67 0 70 1 85 30 l14 30 -100 0 c-97 0 -100 -1 -85 -18z"/>
<path d="M4623 5570 c-28 -11 -63 -66 -63 -98 0 -38 30 -92 61 -107 15 -8 43 -15 62 -15 37 0 91 35 81 52 -4 6 22 7 77 3 94 -8 123 -8 224 0 39 3 64 2 57 -1 -10 -5 -8 -12 9 -30 18 -19 33 -24 72 -24 40 0 53 5 77 28 55 56 48 145 -14 183 -38 23 -109 25 -126 4 -18 -22 -376 -22 -404 0 -22 17 -79 19 -113 5z m119 -70 c-5 -37 -22 -40 -22 -4 0 20 -4 25 -16 20 -9 -3 -27 -6 -40 -6 -22 0 -24 -4 -24 -45 l0 -45 40 0 c33 0 40 3 40 20 0 11 5 20 11 20 6 0 9 -12 7 -27 -3 -26 -7 -28 -51 -31 -53 -3 -53 -3 -60 76 l-4 52 62 0 62 0 -5 -30z m81 -30 l28 -25 -5 43 c-4 32 -2 42 10 42 10 0 14 -12 14 -45 0 -30 -4 -45 -13 -45 -21 0 -97 60 -97 77 0 12 3 11 18 -4 9 -10 30 -30 45 -43z m7 50 c0 -5 -2 -10 -4 -10 -3 0 -8 5 -11 10 -3 6 -1 10 4 10 6 0 11 -4 11 -10z m220 7 c0 -1 -4 -17 -9 -35 -11 -38 -5 -40 32 -7 32 28 33 32 10 38 -11 3 -7 5 10 6 36 1 34 -11 -10 -53 -53 -51 -73 -48 -73 9 0 38 3 45 20 45 11 0 20 -1 20 -3z m203 -49 c-7 -79 -7 -79 -60 -76 -48 3 -48 3 -51 42 -2 22 -1 50 2 63 6 20 12 23 60 23 l53 0 -4 -52z"/>
<path d="M5198 5513 c-38 -4 -38 -5 -38 -49 l0 -44 40 0 40 0 0 50 c0 28 -1 49 -2 48 -2 -1 -20 -3 -40 -5z"/>
<path d="M5912 5590 c20 -28 26 -30 90 -30 45 0 68 4 68 12 0 6 7 20 17 30 15 17 12 18 -91 18 l-107 0 23 -30z"/>
<path d="M5654 5546 c-29 -29 -34 -41 -34 -82 1 -75 41 -114 119 -114 28 0 48 7 68 25 l28 24 -25 2 c-14 1 -46 1 -72 -1 -54 -2 -54 -2 -61 78 l-4 53 56 -3 56 -3 3 -56 3 -56 112 -8 c62 -4 119 -7 127 -7 137 12 154 12 140 3 -8 -5 -12 -12 -10 -14 32 -26 62 -37 98 -37 37 0 50 6 78 34 29 29 34 41 34 81 0 40 -5 52 -35 82 -34 34 -38 35 -90 31 -57 -5 -78 -14 -58 -26 6 -4 -80 -7 -192 -7 -112 0 -198 3 -192 7 16 10 -36 28 -80 28 -27 0 -43 -8 -69 -34z m236 -26 c0 -5 -4 -10 -10 -10 -5 0 -10 5 -10 10 0 6 5 10 10 10 6 0 10 -4 10 -10z m38 -28 c2 -17 -1 -39 -6 -47 -7 -13 -17 -9 -60 26 -29 23 -50 44 -47 47 2 2 22 -10 45 -28 l40 -32 0 37 c0 46 24 43 28 -3z m166 32 c12 -4 13 -11 5 -31 -14 -36 -7 -37 26 -3 16 17 36 30 44 30 19 -1 -67 -79 -86 -80 -9 0 -13 16 -13 45 0 48 0 48 24 39z m220 -11 c-4 -10 -9 -39 -12 -65 l-4 -48 -49 0 -49 0 0 58 c0 32 3 62 7 65 3 4 31 7 61 7 48 0 53 -2 46 -17z"/>
<path d="M6210 5465 l0 -45 40 0 40 0 0 45 0 45 -40 0 -40 0 0 -45z"/>
<path d="M5697 5503 c-4 -3 -7 -24 -7 -45 l0 -38 45 0 45 0 0 45 0 45 -38 0 c-21 0 -42 -3 -45 -7z"/>
<path d="M1064 5546 c-29 -29 -34 -41 -34 -81 0 -40 5 -52 34 -81 29 -29 41 -34 81 -34 38 0 52 5 75 29 79 78 27 201 -83 201 -31 0 -46 -7 -73 -34z m119 -57 c13 -21 1 -65 -19 -73 -44 -17 -84 35 -57 73 17 26 60 25 76 0z"/>
<path d="M1122 5488 c-18 -18 -14 -46 7 -58 34 -18 67 30 39 58 -7 7 -17 12 -23 12 -6 0 -16 -5 -23 -12z"/>
<path d="M1822 5560 c-69 -42 -70 -144 -2 -197 22 -18 101 -16 129 3 47 33 62 120 28 164 -39 51 -100 63 -155 30z m92 -66 c22 -21 20 -47 -4 -69 -30 -27 -70 -7 -70 34 0 45 44 66 74 35z"/>
<path d="M1862 5488 c-18 -18 -14 -46 7 -58 15 -7 23 -6 35 6 21 21 20 41 -3 54 -24 13 -24 13 -39 -2z"/>
<path d="M980 6402 c0 -7 8 -16 18 -19 9 -4 24 -15 32 -26 10 -12 53 -26 135 -44 66 -14 121 -26 123 -28 1 -1 -4 -15 -13 -31 -8 -16 -18 -50 -21 -76 -7 -49 -24 -57 -24 -12 0 16 -5 24 -12 21 -9 -2 -13 -27 -13 -75 0 -62 2 -72 18 -72 12 0 17 8 18 28 1 19 4 15 10 -17 8 -44 8 -44 -51 -111 -33 -37 -90 -95 -125 -129 -57 -52 -62 -61 -42 -61 17 0 53 32 138 126 63 70 138 153 167 184 35 39 49 60 40 63 -9 4 -9 6 -1 6 29 2 22 -25 -18 -67 l-44 -47 3 -81 c2 -72 5 -83 22 -87 17 -4 20 0 20 33 0 35 2 38 38 44 20 3 54 6 75 6 l39 0 -4 55 c-1 30 0 55 4 55 11 0 20 -44 16 -81 -3 -29 0 -34 17 -31 10 2 43 1 72 -3 52 -6 53 -7 53 -41 0 -28 4 -34 21 -34 17 0 20 4 15 23 -3 12 -6 127 -6 255 l0 232 -30 0 c-17 0 -41 -7 -54 -15 -42 -28 -119 -30 -168 -6 -37 17 -98 29 -98 18 0 -1 9 -20 20 -42 11 -22 20 -48 20 -58 0 -17 -5 -19 -35 -14 l-35 6 0 -89 c0 -49 -4 -92 -10 -95 -13 -8 -13 195 0 215 8 13 10 12 10 -2 0 -13 8 -18 29 -18 28 0 29 1 20 28 -15 40 -41 68 -73 76 -27 7 -27 8 -10 21 11 7 17 16 14 18 -3 3 -76 7 -163 9 -123 2 -157 0 -157 -10z m128 -33 c7 20 49 12 55 -9 4 -15 0 -20 -15 -20 -30 0 -98 22 -98 31 0 5 12 4 27 -2 19 -7 29 -7 31 0z m135 2 c16 -2 -15 -41 -32 -41 -13 0 -18 7 -18 25 0 20 4 24 21 20 11 -2 25 -4 29 -4z m58 -31 c10 -6 19 -17 19 -26 0 -11 -4 -12 -19 -5 -10 6 -21 8 -24 5 -3 -3 -11 -3 -17 1 -8 5 -8 11 1 21 14 17 15 17 40 4z"/>
<path d="M1410 6405 c6 -8 9 -19 5 -25 -10 -16 58 -40 114 -40 67 0 98 15 103 51 l5 29 -120 0 c-103 0 -118 -2 -107 -15z"/>
<path d="M4691 6334 c-12 -15 -21 -40 -21 -55 l0 -29 893 1 892 0 26 55 26 54 -898 0 -898 0 -20 -26z"/>
<path d="M4477 6233 c-4 -3 -7 -105 -7 -225 l0 -218 -70 0 c-56 0 -70 -3 -70 -15 0 -13 125 -15 1065 -15 l1065 0 0 240 0 240 -988 0 c-544 0 -992 -3 -995 -7z m1014 -40 c-572 -3 -737 -6 -744 -16 -7 -9 -10 -9 -14 1 -8 19 -23 14 -16 -5 6 -17 6 -17 -10 -1 -9 9 -17 19 -17 22 0 3 345 5 768 4 l767 -3 -734 -2z m814 -3 c-3 -5 -13 -6 -22 -3 -10 4 -14 2 -9 -5 3 -6 2 -13 -4 -17 -17 -10 -11 -25 7 -18 13 5 15 2 10 -11 -5 -12 -2 -16 10 -14 9 2 18 -3 20 -9 7 -20 -19 -15 -44 9 -22 21 -68 34 -57 16 3 -4 1 -8 -5 -8 -22 0 -20 20 4 36 13 9 22 20 19 25 -3 5 13 9 36 9 24 0 39 -4 35 -10z m-1515 -19 c0 -5 -3 -11 -7 -14 -5 -2 -3 -2 4 -1 19 5 25 -13 7 -20 -9 -4 -23 -1 -31 6 -12 9 -19 6 -37 -17 -16 -20 -28 -26 -40 -22 -10 4 -14 11 -11 17 9 15 27 12 19 -2 -4 -8 -3 -10 2 -5 5 5 9 13 9 19 0 6 16 18 35 28 42 21 50 23 50 11z m777 -41 c41 -24 61 -59 42 -71 -8 -5 -15 -4 -17 1 -5 14 -42 12 -42 -2 0 -6 -6 -3 -14 8 -20 27 -29 12 -18 -30 6 -20 7 -34 2 -31 -11 7 -22 -39 -14 -59 3 -9 2 -16 -3 -16 -5 0 -14 14 -20 30 -6 17 -8 28 -3 25 4 -3 10 2 14 10 3 8 1 15 -5 15 -7 0 -9 12 -7 30 l5 30 -54 0 c-58 0 -64 7 -32 36 47 43 118 53 166 24z m796 -70 c-3 -14 -13 -34 -21 -45 -14 -19 -14 -19 -7 5 4 14 9 40 12 59 4 23 8 29 14 20 4 -8 5 -25 2 -39z m-1136 18 c-3 -8 -6 -5 -6 6 -1 11 2 17 5 13 3 -3 4 -12 1 -19z m-587 -44 c0 -8 7 -14 15 -14 17 0 20 -26 4 -35 -6 -4 -15 -17 -20 -29 -8 -17 -8 -16 -4 9 3 17 1 45 -4 63 -6 20 -6 30 0 27 5 -4 9 -13 9 -21z m990 6 c0 -5 -2 -10 -4 -10 -3 0 -8 5 -11 10 -3 6 -1 10 4 10 6 0 11 -4 11 -10z m200 -15 c0 -8 -4 -15 -10 -15 -5 0 -7 7 -4 15 4 8 8 15 10 15 2 0 4 -7 4 -15z m-660 -15 c0 -5 -8 -10 -17 -10 -15 0 -16 2 -3 10 19 12 20 12 20 0z m540 -4 c0 -3 -4 -8 -10 -11 -5 -3 -10 -1 -10 4 0 6 5 11 10 11 6 0 10 -2 10 -4z m648 -33 c0 -25 -1 -26 -14 -8 -11 15 -11 20 -1 27 6 4 13 8 13 8 1 0 2 -12 2 -27z m-797 -10 c13 -17 13 -17 -5 -3 -18 14 -18 13 -12 -8 4 -12 3 -22 -2 -22 -14 0 -22 38 -8 44 6 2 12 5 12 5 1 1 8 -7 15 -16z m28 -39 c-15 -18 -22 -13 -13 10 3 9 10 13 16 10 5 -3 4 -12 -3 -20z m-105 -15 c2 -13 5 -27 5 -31 1 -5 8 -8 17 -8 8 0 12 -4 9 -10 -6 -10 -40 -9 -51 3 -3 3 -3 22 0 43 8 40 13 41 20 3z m-844 -7 c0 -15 -2 -15 -10 -2 -13 20 -13 33 0 25 6 -3 10 -14 10 -23z m690 0 c-6 -2 -8 -8 -4 -13 11 -19 -14 -8 -32 14 -10 12 -12 16 -4 10 20 -18 30 -16 30 5 0 14 2 15 10 2 6 -10 6 -16 0 -18z m-280 8 c-20 -13 -33 -13 -25 0 3 6 14 10 23 10 15 0 15 -2 2 -10z m924 1 c4 -5 24 -12 46 -16 46 -8 66 -26 23 -21 -28 3 -93 32 -93 41 0 9 19 5 24 -4z m-866 -13 c-3 -7 -10 -14 -16 -14 -25 -3 -26 -6 -7 -14 16 -7 17 -9 3 -9 -23 -1 -32 17 -18 34 15 18 43 20 38 3z m47 3 c3 -6 -4 -15 -15 -21 -13 -7 -20 -7 -20 0 0 5 8 10 18 10 14 0 15 2 2 10 -9 6 -10 10 -3 10 6 0 14 -4 18 -9z m716 -13 c22 -12 39 -25 39 -29 0 -4 -20 4 -45 18 -42 23 -54 33 -39 33 4 0 24 -10 45 -22z m42 8 c27 -21 20 -28 -13 -11 -16 9 -30 18 -30 20 0 10 25 4 43 -9z m407 -2 c0 -10 -5 -14 -15 -10 -11 4 -15 0 -13 -12 2 -11 -5 -18 -19 -20 -31 -4 -20 23 16 43 33 18 31 18 31 -1z m-1602 -6 c15 -15 16 -48 2 -48 -9 0 -14 15 -11 33 1 5 -3 6 -9 2 -13 -8 -32 4 -25 16 8 13 29 11 43 -3z m276 -3 c-10 -8 -23 -15 -28 -15 -6 0 -1 7 10 15 10 8 23 15 28 15 6 0 1 -7 -10 -15z m536 5 c0 -5 -7 -10 -15 -10 -8 0 -15 5 -15 10 0 6 7 10 15 10 8 0 15 -4 15 -10z m-242 -15 c3 -3 2 -8 -3 -12 -4 -5 -10 -2 -12 5 -3 6 -9 10 -13 7 -5 -3 -11 -1 -15 4 -6 10 33 6 43 -4z m935 -9 c9 -7 17 -21 17 -30 0 -19 16 -22 23 -3 3 7 6 5 6 -6 1 -14 6 -16 27 -11 19 5 25 4 20 -5 -9 -14 -1636 -16 -1636 -2 0 14 28 21 34 8 4 -9 8 -8 12 2 12 26 44 51 65 51 11 0 17 -5 14 -10 -4 -6 -11 -7 -17 -4 -6 4 -8 2 -4 -4 3 -6 -1 -18 -10 -26 -14 -15 50 -16 720 -16 466 0 736 4 736 10 0 5 -9 14 -20 20 -11 6 -20 17 -20 25 0 18 10 19 33 1z m137 -10 c0 -3 -4 -8 -10 -11 -5 -3 -10 -1 -10 4 0 6 5 11 10 11 6 0 10 -2 10 -4z"/>
<path d="M6246 6181 c-4 -7 -5 -15 -2 -18 9 -9 19 4 14 18 -4 11 -6 11 -12 0z"/>
<path d="M1280 5980 c-11 -21 -4 -70 11 -70 5 0 9 20 9 45 0 50 -4 55 -20 25z"/>
<path d="M2777 5936 c-122 -34 -209 -145 -219 -281 -2 -30 1 -40 13 -43 13 -2 17 9 21 56 21 229 301 329 465 165 60 -60 78 -105 78 -195 0 -65 3 -78 16 -78 36 0 29 131 -11 215 -62 129 -224 201 -363 161z"/>
<path d="M3705 5930 c-105 -34 -179 -119 -205 -235 -15 -65 -5 -135 18 -135 15 0 17 9 14 66 -16 297 383 397 520 130 14 -26 23 -67 26 -114 4 -66 2 -78 -27 -137 -38 -77 -98 -128 -179 -151 -93 -27 -185 0 -270 80 -27 25 -56 46 -65 46 -25 0 15 -62 69 -106 54 -45 117 -64 210 -64 62 0 81 5 135 33 113 58 179 177 164 295 -28 225 -213 357 -410 292z"/>
<path d="M6480 5840 l0 -80 35 0 35 0 0 59 c0 52 -3 62 -26 80 -15 12 -31 21 -35 21 -5 0 -9 -36 -9 -80z"/>
<path d="M1370 5900 c0 -6 55 -10 145 -10 90 0 145 4 145 10 0 6 -55 10 -145 10 -90 0 -145 -4 -145 -10z"/>
<path d="M950 5845 c0 -31 -5 -65 -10 -76 -10 -17 -7 -19 19 -19 28 0 29 2 25 33 -2 17 -6 50 -7 71 -4 65 -27 57 -27 -9z"/>
<path d="M2820 5890 c0 -34 35 -160 45 -160 9 0 45 129 45 163 0 4 -20 7 -45 7 -25 0 -45 -4 -45 -10z"/>
<path d="M3754 5883 c3 -10 13 -48 22 -85 9 -38 20 -68 25 -68 4 0 13 19 19 43 6 23 15 58 21 77 13 51 14 50 -42 50 -43 0 -50 -2 -45 -17z"/>
<path d="M2747 5874 c-31 -17 -31 -13 26 -96 55 -78 68 -69 48 32 -16 87 -22 92 -74 64z"/>
<path d="M2908 5813 c-10 -52 -11 -80 -4 -85 5 -4 28 19 51 50 60 83 59 79 26 97 -52 26 -58 22 -73 -62z"/>
<path d="M3680 5871 c-62 -33 -112 -95 -134 -168 -6 -20 -3 -22 41 -28 26 -3 65 -8 86 -11 59 -9 47 19 -30 65 -38 23 -63 41 -56 41 7 0 40 -16 73 -36 37 -22 66 -32 71 -27 5 5 -9 34 -37 71 -26 35 -44 65 -41 68 3 4 27 -23 53 -59 27 -36 52 -63 57 -60 18 11 -16 163 -36 163 -7 -1 -28 -9 -47 -19z"/>
<path d="M3846 5814 c-25 -104 -12 -111 51 -27 l51 68 -31 17 c-18 9 -37 17 -43 18 -6 0 -18 -34 -28 -76z"/>
<path d="M1378 5850 c-3 -16 -2 -34 2 -40 4 -7 55 -10 141 -8 127 3 134 4 133 23 -3 59 7 55 -138 55 l-134 0 -4 -30z"/>
<path d="M2671 5816 l-32 -33 70 -42 c69 -40 91 -49 91 -33 0 7 -79 124 -93 138 -2 2 -18 -11 -36 -30z"/>
<path d="M2976 5786 c-69 -97 -61 -109 36 -50 32 20 62 34 64 31 3 -3 -24 -23 -60 -44 -87 -51 -87 -65 2 -57 108 10 107 10 104 30 -6 36 -42 100 -71 128 l-28 27 -47 -65z"/>
<path d="M3928 5808 c-63 -86 -70 -98 -55 -104 8 -3 42 12 76 32 34 20 64 34 67 32 3 -3 -25 -23 -61 -44 -81 -48 -86 -67 -12 -59 93 11 117 16 117 26 0 38 -70 149 -94 149 -8 0 -25 -15 -38 -32z"/>
<path d="M1370 5781 c0 -5 -3 -16 -6 -25 -5 -14 11 -16 145 -16 l151 0 0 25 0 25 -145 0 c-81 0 -145 -4 -145 -9z"/>
<path d="M1310 5655 c0 -108 1 -115 20 -115 19 0 20 7 20 115 0 108 -1 115 -20 115 -19 0 -20 -7 -20 -115z"/>
<path d="M1680 5656 c0 -109 1 -116 20 -116 18 0 20 7 22 95 1 52 2 103 2 113 1 10 -8 18 -21 20 -23 3 -23 2 -23 -112z"/>
<path d="M2621 5744 c-20 -44 -14 -63 22 -68 146 -23 166 -14 85 37 -93 59 -94 60 -107 31z"/>
<path d="M765 5671 c-60 -43 -177 -125 -260 -182 -142 -98 -148 -104 -117 -107 28 -3 50 11 168 103 161 126 167 123 13 -7 -103 -86 -109 -93 -84 -96 24 -3 46 14 153 120 69 68 111 105 94 82 -17 -22 -38 -47 -47 -54 -8 -7 -43 -44 -76 -81 -56 -63 -59 -69 -36 -69 19 0 45 26 127 130 56 72 106 133 111 136 6 3 -29 -50 -77 -117 -102 -145 -105 -152 -73 -147 19 2 41 33 109 150 46 81 86 145 88 144 1 -2 -29 -65 -68 -140 -38 -76 -70 -142 -70 -147 0 -6 10 -9 23 -7 18 2 30 23 69 128 54 143 62 141 18 -4 -17 -55 -30 -105 -30 -113 0 -19 38 -16 43 5 13 47 29 186 25 215 -3 17 -2 41 3 52 4 11 8 -45 8 -132 1 -146 2 -153 21 -153 18 0 20 7 20 58 0 45 6 66 26 97 37 56 74 94 107 112 43 22 147 19 196 -7 l41 -20 0 60 0 60 -139 0 -140 0 -3 -52 -3 -53 -45 0 -45 0 -3 58 c-2 46 -6 57 -20 56 -9 0 -66 -35 -127 -78z"/>
<path d="M930 5695 l0 -45 36 0 c29 0 35 3 30 16 -3 9 -6 29 -6 45 0 26 -4 29 -30 29 -29 0 -30 -2 -30 -45z"/>
<path d="M1360 5630 l0 -90 154 0 153 0 2 90 2 90 -155 0 -156 0 0 -90z"/>
<path d="M2804 5693 c-20 -21 -23 -33 -18 -57 3 -17 11 -37 16 -43 7 -9 7 -13 -1 -13 -7 0 -9 -5 -5 -11 4 -8 9 -8 17 0 6 6 22 11 37 12 23 0 23 1 5 9 -50 20 -59 75 -16 96 32 16 64 3 75 -29 8 -22 6 -31 -13 -51 -18 -19 -19 -24 -7 -29 8 -3 20 1 27 10 12 13 15 13 29 -5 12 -15 34 -22 86 -27 84 -9 76 3 -24 34 -55 17 -73 27 -71 39 5 58 -23 92 -76 92 -26 0 -43 -7 -61 -27z"/>
<path d="M3745 5695 c-29 -28 -32 -61 -9 -93 12 -17 25 -22 63 -22 56 0 81 21 81 67 0 66 -87 97 -135 48z m99 -21 c20 -19 20 -34 0 -62 -18 -26 -56 -29 -78 -6 -19 18 -21 55 -4 72 17 17 64 15 82 -4z"/>
<path d="M3772 5668 c-30 -30 5 -77 49 -63 16 5 19 14 17 38 -2 26 -8 33 -28 35 -14 2 -31 -3 -38 -10z"/>
<path d="M2832 5668 c-27 -27 -2 -68 43 -68 23 0 41 45 25 65 -15 18 -51 20 -68 3z"/>
<path d="M3540 5623 c0 -23 3 -44 8 -46 14 -8 162 44 162 57 0 9 -26 16 -85 22 l-85 9 0 -42z"/>
<path d="M2602 5634 c3 -25 8 -30 46 -37 33 -6 51 -4 82 10 44 20 53 43 16 43 -12 0 -51 3 -85 7 l-63 6 4 -29z"/>
<path d="M3007 5653 c-38 -3 -48 -8 -45 -21 3 -17 142 -67 159 -56 5 3 9 23 9 45 0 44 7 42 -123 32z"/>
<path d="M3941 5651 c-70 -9 -60 -26 31 -57 46 -15 78 -29 72 -31 -6 -2 -42 7 -79 21 -38 14 -72 23 -77 20 -28 -18 34 -77 71 -67 25 6 71 -4 71 -16 0 -5 -9 -19 -19 -32 l-19 -24 -29 26 c-15 14 -44 37 -64 51 l-35 26 4 -29 c2 -16 -1 -35 -7 -43 -14 -17 -51 -28 -51 -15 0 5 7 9 15 9 18 0 37 34 29 53 -13 34 -94 27 -94 -8 0 -24 12 -45 26 -45 8 0 14 -4 14 -10 0 -13 -13 -13 -27 1 -16 16 -50 2 -57 -24 -3 -12 -11 -30 -18 -40 -13 -18 -15 -18 -38 2 l-25 20 32 31 c18 17 43 30 57 30 19 0 26 5 26 20 0 20 -7 20 -410 20 -267 0 -410 3 -410 10 0 6 5 10 11 10 5 0 8 4 4 10 -13 22 -30 -2 -27 -38 l4 -37 376 3 c240 1 373 -1 367 -7 -6 -5 -28 -11 -49 -13 l-40 -3 34 -34 c164 -163 429 -68 456 163 l7 56 -44 -2 c-24 0 -64 -4 -88 -7z m8 -175 l32 -33 -25 -17 c-14 -9 -30 -16 -35 -16 -9 0 -51 70 -51 84 0 4 16 10 41 15 3 0 20 -14 38 -33z m-161 -54 c3 -45 -4 -50 -55 -36 l-22 6 20 40 c27 53 53 49 57 -10z m88 13 c18 -43 14 -51 -26 -57 -29 -4 -30 -4 -30 37 0 23 3 45 7 48 15 16 35 5 49 -28z"/>
<path d="M2220 5585 c0 -23 3 -26 23 -21 12 3 34 6 50 6 37 0 34 17 -5 25 -18 4 -41 9 -50 11 -14 4 -18 -1 -18 -21z"/>
<path d="M2734 5595 c-16 -12 -17 -14 -2 -15 9 0 23 -3 32 -6 12 -4 16 0 16 15 0 25 -18 27 -46 6z"/>
<path d="M3690 5600 c-8 -5 -39 -15 -68 -21 -75 -17 -73 -26 6 -25 66 1 91 13 92 44 0 14 -10 15 -30 2z"/>
<path d="M2330 5572 c0 -20 23 -61 36 -66 8 -3 20 -3 28 0 16 6 42 52 33 60 -12 12 -97 17 -97 6z"/>
<path d="M3726 5573 c-11 -11 -6 -23 8 -23 8 0 17 4 20 9 7 10 -19 23 -28 14z"/>
<path d="M2833 5563 c-7 -2 -13 -20 -13 -39 0 -28 4 -35 27 -40 32 -8 57 6 61 35 6 40 -32 62 -75 44z"/>
<path d="M1310 5470 l0 -50 203 0 202 0 0 50 0 50 -202 0 -203 0 0 -50z"/>
<path d="M3145 5450 c-8 -16 -15 -31 -15 -35 0 -3 95 -5 210 -5 l210 0 -22 35 -23 35 -172 0 -172 0 -16 -30z"/>
<path d="M320 5350 c0 -20 7 -20 300 -20 293 0 300 0 300 20 0 20 -7 20 -300 20 -293 0 -300 0 -300 -20z"/>
</g>
</svg>