<svg xmlns="http://www.w3.org/2000/svg" viewBox="697.00 250.20 690.20 276.30">
<g transform="translate(0.000000,768.000000) scale(0.100000,-0.100000)" fill="currentColor" stroke="none">
<path d="M9787 5082 c-10 -10 -17 -24 -17 -30 0 -17 27 -15 34 3 7 18 36 20 37 3 3 -26 -3 -40 -36 -96 -19 -31 -35 -60 -35 -64 0 -5 25 -8 56 -8 40 0 55 3 52 13 -3 6 -19 14 -36 17 l-32 5 30 45 c31 47 39 97 18 118 -18 18 -53 15 -71 -6z"/>
<path d="M10024 5075 c-14 -21 -15 -30 -5 -52 8 -18 9 -29 1 -37 -14 -14 -13 -69 2 -84 7 -7 24 -12 40 -12 38 0 64 39 51 77 -6 16 -8 45 -5 66 2 21 -1 44 -8 52 -19 23 -57 18 -76 -10z m60 -22 c8 -19 -17 -48 -33 -39 -12 8 -15 39 -4 49 12 12 31 7 37 -10z m4 -96 c5 -23 -15 -47 -34 -40 -8 3 -14 18 -14 35 0 25 4 29 22 26 13 -2 24 -11 26 -21z"/>
<path d="M10267 5082 c-10 -10 -17 -24 -17 -30 0 -17 27 -15 34 3 7 18 36 20 37 3 3 -26 -3 -41 -37 -93 -19 -30 -34 -59 -34 -65 0 -5 22 -10 50 -10 37 0 50 4 50 14 0 9 -12 16 -30 18 l-30 3 30 45 c31 47 39 97 18 118 -18 18 -53 15 -71 -6z"/>
<path d="M10486 5093 c-3 -3 -6 -21 -6 -40 0 -23 5 -33 15 -33 10 0 15 10 15 34 0 34 -11 52 -24 39z"/>
<path d="M10537 5093 c-4 -3 -7 -51 -7 -105 0 -80 3 -98 15 -98 12 0 15 14 16 63 l0 62 17 -44 c9 -24 22 -46 28 -48 6 -2 18 18 27 44 l16 48 0 -62 c1 -49 4 -63 16 -63 12 0 15 18 15 106 0 124 -11 132 -49 35 l-25 -62 -24 66 c-23 63 -31 73 -45 58z"/>
<path d="M10717 5093 c-12 -11 -8 -23 8 -23 8 0 15 7 15 15 0 16 -12 20 -23 8z"/>
<path d="M10770 4995 c0 -85 3 -105 14 -105 8 0 16 12 18 27 4 37 23 39 38 3 7 -16 19 -30 26 -30 18 0 18 3 -6 51 l-21 40 21 29 c31 43 0 40 -34 -2 l-26 -33 0 63 c0 48 -3 62 -15 62 -12 0 -15 -18 -15 -105z"/>
<path d="M11100 5066 c0 -32 -2 -34 -32 -32 -28 1 -32 -3 -40 -33 -5 -19 -6 -49 -1 -70 8 -34 11 -36 51 -37 l42 -2 0 104 c0 63 -4 104 -10 104 -5 0 -10 -15 -10 -34z m0 -101 c0 -34 -22 -61 -40 -50 -14 9 -13 78 2 93 18 18 38 -5 38 -43z"/>
<path d="M11280 5060 c0 -22 5 -40 10 -40 6 0 10 18 10 40 0 22 -4 40 -10 40 -5 0 -10 -18 -10 -40z"/>
<path d="M11319 5090 c-5 -38 0 -70 11 -70 6 0 10 18 10 40 0 22 -4 40 -10 40 -5 0 -11 -4 -11 -10z"/>
<path d="M10440 5054 c0 -45 24 -42 28 4 2 24 -1 32 -12 32 -12 0 -16 -10 -16 -36z"/>
<path d="M10710 4965 c0 -60 3 -75 15 -75 12 0 15 15 15 75 0 60 -3 75 -15 75 -12 0 -15 -15 -15 -75z"/>
<path d="M10910 5025 c-16 -20 -4 -32 18 -19 21 13 42 7 42 -12 0 -8 -10 -14 -24 -14 -31 0 -48 -22 -44 -57 3 -26 6 -28 52 -30 l49 -2 -6 66 c-4 37 -12 70 -19 75 -21 13 -55 9 -68 -7z m60 -85 c0 -24 -26 -38 -42 -22 -16 16 -2 42 22 42 13 0 20 -7 20 -20z"/>
<path d="M11165 5023 c-13 -13 -16 -28 -12 -66 4 -51 17 -67 53 -67 32 0 44 20 44 75 0 28 -5 56 -12 63 -17 17 -54 15 -73 -5z m59 -29 c16 -42 -2 -88 -30 -77 -14 5 -20 74 -7 86 11 12 31 7 37 -9z"/>
<path d="M9900 4965 c0 -11 11 -15 40 -15 29 0 40 4 40 15 0 11 -11 15 -40 15 -29 0 -40 -4 -40 -15z"/>
<path d="M10143 4968 c2 -8 20 -13 42 -13 22 0 40 5 43 13 2 8 -10 12 -43 12 -33 0 -45 -4 -42 -12z"/>
<path d="M7027 4638 c-7 -4 24 -7 68 -6 81 1 78 5 -8 10 -27 2 -54 0 -60 -4z"/>
<path d="M7945 4028 c5 -13 10 -55 12 -94 4 -57 1 -74 -12 -88 -19 -19 -19 -19 12 -35 29 -15 142 -13 171 3 21 11 22 14 8 25 -12 10 -16 33 -16 97 0 45 5 86 10 89 28 17 1 25 -91 25 -101 0 -101 0 -94 -22z"/>
<path d="M8603 4023 c-29 -11 -10 -23 37 -23 56 0 67 14 19 24 -35 7 -38 7 -56 -1z"/>
<path d="M9129 4018 c-1 -7 -1 -16 0 -20 0 -5 -3 -8 -8 -8 -5 0 -11 -17 -13 -37 -3 -21 -8 -46 -12 -55 -6 -14 -3 -18 12 -18 14 0 20 -7 20 -25 0 -23 -4 -25 -47 -25 -25 0 -76 -3 -113 -7 l-68 -6 0 -38 0 -39 250 0 250 0 0 56 c0 48 -2 55 -17 50 -10 -3 -63 -6 -118 -8 -96 -2 -100 -1 -103 20 -3 17 2 22 17 22 18 0 20 4 15 27 -4 14 -7 36 -8 47 -1 21 -37 76 -50 76 -3 0 -7 -6 -7 -12z m49 -53 c-3 -3 -9 2 -12 12 -6 14 -5 15 5 6 7 -7 10 -15 7 -18z"/>
<path d="M9854 4018 c-11 -18 -11 -81 0 -89 13 -10 -3 -29 -25 -29 -15 0 -19 7 -19 35 0 25 -8 44 -25 60 -22 23 -32 25 -109 25 -131 0 -144 -10 -149 -119 l-2 -55 40 -12 c90 -28 250 -8 250 31 0 16 7 20 34 20 19 0 36 6 38 13 3 6 0 12 -7 12 -8 0 -8 6 0 20 21 40 -4 124 -26 88z"/>
<path d="M8527 3978 c-12 -9 -19 -35 -23 -89 l-7 -76 43 -21 c24 -12 46 -19 50 -17 4 3 6 18 4 35 -3 25 1 33 21 42 39 18 73 -2 77 -47 l3 -35 42 21 41 20 -5 77 c-4 53 -10 81 -21 90 -10 8 -50 12 -112 12 -61 0 -102 -5 -113 -12z"/>
<path d="M10158 3973 c0 -10 0 -26 0 -36 1 -11 -6 -21 -18 -24 -21 -5 -25 -19 -14 -47 4 -11 19 -16 44 -16 31 0 39 4 44 23 9 32 8 35 -11 39 -10 2 -18 10 -19 18 -1 8 -2 25 -2 38 -2 26 -21 30 -24 5z"/>
<path d="M10632 3982 l-73 -3 3 -107 3 -107 308 -5 c285 -5 309 -4 320 12 11 17 67 33 199 58 43 9 59 16 64 32 6 20 -13 105 -26 113 -8 5 -696 11 -798 7z"/>
<path d="M10312 3888 l3 -53 118 -3 117 -3 0 56 0 55 -121 0 -120 0 3 -52z"/>
<path d="M12682 3848 c-7 -7 -12 -20 -12 -29 0 -10 -4 -20 -9 -23 -5 -3 -195 -6 -422 -6 -228 0 -503 -3 -611 -7 l-198 -6 0 -89 c0 -49 4 -88 10 -88 31 0 65 30 91 82 16 31 38 62 48 68 13 6 211 10 575 10 l556 0 0 50 c0 51 -6 60 -28 38z"/>
<path d="M9420 3796 l0 -56 285 0 285 0 0 55 0 55 -69 0 c-48 0 -83 -6 -117 -21 -64 -29 -189 -31 -254 -4 -25 9 -64 20 -87 22 l-43 5 0 -56z"/>
<path d="M10004 3835 c-3 -7 -4 -30 -2 -51 l3 -39 200 0 200 0 0 35 c0 34 -1 35 -45 38 -25 1 -54 7 -65 12 -11 5 -80 11 -153 13 -103 4 -135 2 -138 -8z"/>
<path d="M8610 3800 c0 -22 0 -43 0 -47 0 -4 16 -9 36 -11 31 -3 36 -1 30 13 -3 9 -6 32 -6 51 0 31 -3 34 -30 34 -28 0 -30 -2 -30 -40z"/>
<path d="M8761 3790 c-24 -17 -51 -30 -60 -30 -10 0 -12 -3 -5 -10 7 -7 47 -10 100 -8 87 3 89 3 90 28 1 42 -6 50 -45 50 -23 0 -51 -11 -80 -30z"/>
<path d="M10420 3780 l0 -40 82 0 c67 0 79 2 66 13 -9 6 -18 23 -20 37 -3 23 -7 25 -65 28 l-63 3 0 -41z"/>
<path d="M7720 3506 c0 -184 4 -306 9 -306 6 0 26 27 46 59 40 65 52 71 138 71 56 0 57 0 57 29 0 38 35 81 66 81 35 0 64 -34 64 -75 l0 -35 75 0 75 0 0 55 0 55 35 0 36 0 -3 143 c-3 139 -4 142 -25 145 -16 2 -23 -2 -23 -12 0 -20 -16 -21 -24 -1 -8 22 -344 22 -353 0 -7 -19 -23 -19 -23 0 0 19 -4 19 -40 0 -41 -21 -52 -65 -49 -210 2 -116 -2 -147 -17 -132 -12 12 -3 269 10 301 27 64 40 67 306 67 l240 0 0 35 0 35 -92 -4 c-51 -3 -117 -11 -146 -18 -43 -11 -60 -11 -95 0 -23 8 -93 16 -154 18 l-113 5 0 -306z m364 48 c19 -7 21 -53 4 -59 -26 -10 -75 -12 -96 -4 -24 9 -29 38 -10 57 13 13 75 16 102 6z"/>
<path d="M7991 3536 c-20 -24 -4 -36 50 -36 47 0 50 2 47 23 -2 18 -10 23 -44 25 -27 2 -45 -2 -53 -12z"/>
<path d="M8330 3775 l0 -35 130 0 c72 0 130 3 130 8 0 4 -26 19 -58 35 -46 22 -71 27 -129 27 l-73 0 0 -35z"/>
<path d="M7690 3765 c0 -19 -4 -35 -10 -35 -5 0 -10 -13 -10 -28 0 -16 -3 -32 -7 -36 -8 -8 -9 -14 -12 -83 0 -24 -5 -43 -11 -43 -5 0 -10 7 -10 15 0 12 -13 15 -60 15 -33 0 -60 4 -60 10 0 6 -18 10 -40 10 -22 0 -40 -4 -40 -10 0 -5 9 -10 20 -10 17 0 19 -8 22 -67 2 -48 7 -67 16 -65 14 2 14 5 3 -36 -7 -24 -7 -32 4 -32 7 0 15 9 18 20 5 19 12 21 74 18 68 -3 68 -3 65 -30 -2 -16 1 -28 7 -28 6 0 11 -13 11 -29 0 -17 5 -33 10 -36 6 -3 10 -15 10 -25 0 -10 3 -21 8 -23 4 -3 7 123 7 279 0 156 -3 284 -7 284 -5 0 -8 -16 -8 -35z m-45 -292 c0 -28 -1 -28 -70 -31 -38 -2 -66 0 -63 4 4 4 31 7 60 8 50 1 53 3 56 29 4 35 18 27 17 -10z"/>
<path d="M11592 3737 c-13 -6 -36 -36 -52 -67 -33 -65 -55 -79 -130 -82 l-55 -3 -3 -322 c-1 -214 1 -323 8 -323 6 0 10 106 10 305 l0 305 1098 2 c956 3 1097 5 1097 18 0 11 -11 14 -47 11 l-46 -2 5 43 c8 69 8 69 60 66 l48 -3 3 -342 c1 -227 -1 -343 -8 -343 -6 0 -10 94 -10 270 l0 270 -1090 0 -1090 0 0 -300 0 -300 1088 2 1087 3 3 23 c2 15 9 22 20 20 16 -3 17 26 20 346 2 249 -1 353 -9 362 -14 17 -110 19 -127 2 -7 -7 -12 -34 -12 -60 l0 -48 -269 0 c-167 0 -280 4 -298 11 -15 6 -60 42 -99 80 l-72 69 -553 -1 c-388 0 -561 -4 -577 -12z"/>
<path d="M10610 3485 l0 -255 285 0 285 0 0 151 c0 116 3 150 13 146 9 -3 12 -47 14 -170 1 -92 5 -167 10 -167 9 0 17 303 8 336 -2 12 -14 24 -25 27 -11 3 -20 9 -19 14 1 4 1 45 0 91 l-1 82 -285 0 -285 0 0 -255z m320 120 l0 -105 -64 0 -64 0 -4 45 c-3 38 0 45 16 47 28 4 31 26 4 30 -17 2 -24 11 -26 31 -6 51 2 57 73 57 l65 0 0 -105z m188 -2 l3 -102 -33 -3 c-18 -2 -54 -1 -80 0 l-48 4 0 104 0 105 78 -3 77 -3 3 -102z m-68 -243 l0 -61 -147 3 -148 3 -3 44 c-5 73 -9 71 153 71 l145 0 0 -60z"/>
<path d="M10764 3396 c-3 -8 -4 -29 -2 -48 l3 -33 138 -3 137 -3 0 51 0 50 -135 0 c-107 0 -137 -3 -141 -14z m246 -20 c0 -7 -5 -17 -12 -24 -9 -9 -9 -12 1 -12 7 0 10 -4 7 -9 -3 -5 -15 -7 -27 -4 -20 6 -20 6 2 29 20 21 20 24 5 24 -9 0 -15 4 -11 10 7 12 35 1 35 -14z m-180 5 c0 -5 -6 -12 -12 -14 -7 -3 1 -6 17 -7 18 -2 23 -4 13 -7 -10 -2 -18 -8 -18 -13 0 -4 -9 -6 -20 -3 -23 6 -26 23 -8 41 14 14 28 16 28 3z m77 2 c-4 -3 1 -12 11 -19 16 -12 16 -14 0 -30 -9 -9 -21 -13 -27 -10 -18 11 -13 26 7 20 15 -5 15 -4 -2 10 -18 15 -15 36 6 36 6 0 8 -3 5 -7z"/>
<path d="M8330 3585 l0 -145 74 0 74 0 21 69 c12 38 35 99 51 136 17 37 30 70 30 73 0 12 -174 9 -182 -2 -5 -8 -8 -7 -8 2 0 7 -13 12 -30 12 l-30 0 0 -145z"/>
<path d="M8562 3633 c-36 -88 -62 -165 -62 -185 0 -5 87 -8 194 -8 189 0 195 1 193 20 -1 18 -8 20 -94 20 -50 0 -95 5 -98 10 -4 6 35 10 110 10 l117 0 -53 47 c-30 26 -85 77 -122 115 -60 60 -73 68 -106 68 l-39 0 -40 -97z m146 -90 c3 -21 0 -23 -47 -23 -43 0 -51 3 -51 18 0 28 10 33 55 30 33 -2 41 -7 43 -25z"/>
<path d="M8620 3540 c0 -5 18 -10 40 -10 22 0 40 5 40 10 0 6 -18 10 -40 10 -22 0 -40 -4 -40 -10z"/>
<path d="M8710 3721 c0 -9 153 -153 168 -159 4 -1 6 35 5 80 l-1 83 -86 3 c-50 2 -86 -1 -86 -7z"/>
<path d="M8900 3633 c0 -87 1 -93 26 -112 25 -20 39 -21 250 -21 l224 0 0 113 0 112 -250 0 -250 0 0 -92z"/>
<path d="M9420 3613 l0 -113 35 0 c28 0 35 4 35 20 0 19 7 20 205 20 156 0 206 -3 209 -12 36 -132 51 -168 68 -168 17 0 18 13 18 183 l0 182 -285 0 -285 0 0 -112z"/>
<path d="M10005 3720 c-2 -3 -2 -55 0 -115 2 -61 3 -140 4 -178 l1 -67 198 2 197 3 0 177 0 178 -198 2 c-110 2 -200 1 -202 -2z"/>
<path d="M10420 3545 l0 -185 85 0 85 0 0 185 0 185 -60 0 c-47 0 -60 -3 -60 -15 0 -8 -4 -15 -10 -15 -5 0 -10 7 -10 15 0 8 -7 15 -15 15 -13 0 -15 -27 -15 -185z"/>
<path d="M9505 3522 c-3 -3 -5 -24 -5 -47 l0 -42 -61 -7 c-34 -3 -311 -6 -615 -6 l-553 0 -3 -52 -3 -53 -227 -3 c-140 -1 -228 -6 -228 -12 0 -6 -49 -91 -110 -190 l-109 -180 42 0 42 0 104 175 c62 103 111 175 120 176 73 5 391 2 391 -3 0 -5 -42 -8 -92 -8 l-93 0 3 -66 c3 -46 0 -64 -7 -60 -6 4 -11 34 -11 67 l0 59 -55 0 -54 0 -4 -62 -3 -63 -2 63 -2 62 -38 0 c-34 0 -41 -4 -61 -41 -13 -22 -21 -43 -18 -46 4 -3 26 -8 52 -10 50 -6 60 -20 18 -25 l-28 -3 -3 -207 -2 -208 144 0 145 0 -4 123 c-3 67 -5 161 -5 210 0 70 -3 87 -15 87 -8 0 -15 7 -15 16 0 14 72 15 703 13 l702 -2 5 39 c4 31 10 40 28 42 12 2 22 8 22 13 0 5 5 9 11 9 5 0 7 -4 4 -10 -4 -6 21 -10 69 -10 50 0 76 4 79 13 4 10 6 10 6 0 1 -7 12 -13 26 -13 23 0 25 -4 25 -45 l0 -45 74 0 74 0 58 -82 c83 -121 100 -137 138 -132 56 8 408 54 560 74 141 19 150 19 162 2 18 -23 17 -67 -1 -82 -12 -10 -15 -31 -13 -94 l3 -81 63 -3 c57 -3 64 -1 69 18 9 32 32 23 49 -20 9 -22 29 -49 44 -60 29 -21 94 -27 105 -10 10 16 23 12 21 -7 -1 -15 9 -18 67 -21 l67 -3 -6 69 -6 68 52 12 c28 7 116 12 196 12 123 0 144 -2 144 -15 0 -13 13 -15 78 -13 55 2 76 7 74 16 -1 9 47 12 214 12 206 0 216 -1 211 -19 -11 -43 8 -51 114 -51 112 0 139 9 139 45 l0 25 230 0 c201 0 230 -2 230 -15 0 -13 13 -15 78 -13 55 2 76 7 75 16 -2 9 35 12 161 12 159 0 165 -1 180 -22 9 -13 16 -43 16 -70 l0 -48 45 0 c33 0 45 -4 45 -15 0 -11 12 -15 45 -15 25 0 45 5 45 10 0 6 -14 10 -32 10 -30 0 -31 1 -12 14 18 14 18 15 2 21 -13 5 -18 18 -18 46 0 34 3 39 23 39 13 0 28 -5 34 -11 5 -5 30 -9 54 -7 l44 3 3 49 c4 56 -5 66 -60 66 -24 0 -40 -6 -46 -16 -12 -22 -52 -9 -52 17 0 19 -21 19 -1215 19 l-1215 0 0 -80 c0 -67 -3 -83 -20 -100 -30 -30 -73 -26 -104 11 -38 44 -34 61 11 57 22 -2 38 2 41 10 2 6 17 12 33 12 28 0 29 1 29 54 0 49 -2 54 -24 58 -14 3 -30 0 -35 -5 -8 -8 -11 29 -11 121 0 111 2 132 15 132 8 0 15 6 15 13 0 10 -61 13 -292 12 l-293 0 -3 68 -3 67 -324 0 -324 0 -27 84 -27 83 -66 6 c-78 7 -309 6 -316 -1z m245 -57 c0 -19 5 -25 18 -23 13 2 18 -5 20 -34 3 -33 6 -38 30 -39 l27 -1 -25 -7 c-18 -5 -26 -16 -30 -37 -5 -30 -6 -31 -57 -29 -29 1 -53 -2 -53 -7 0 -5 -4 -7 -8 -4 -5 3 -28 6 -53 7 -69 4 -69 4 -69 80 l0 69 61 0 c51 0 60 3 58 18 -3 30 0 32 41 32 36 0 40 -2 40 -25z m-280 -90 c0 -16 6 -25 15 -25 10 0 15 -10 15 -30 0 -16 -4 -30 -9 -30 -5 0 -7 8 -4 19 3 10 0 22 -7 26 -8 5 -10 -7 -9 -38 5 -83 47 -78 -585 -75 l-561 3 -5 80 c-4 57 -9 79 -17 78 -7 -2 -13 2 -13 7 0 7 203 10 590 10 l590 0 0 -25z m1090 -120 l0 -65 181 0 c161 0 180 -2 175 -16 -3 -9 -7 -39 -7 -67 -1 -29 -4 -40 -6 -25 -4 25 -7 27 -36 22 -18 -3 -38 -7 -44 -10 -7 -2 -13 1 -13 6 0 6 8 11 18 11 9 1 22 2 27 4 6 1 18 3 28 3 11 1 17 10 17 27 l0 25 -175 0 -175 0 0 70 0 70 -276 0 -275 0 4 -59 c3 -53 10 -68 55 -133 76 -107 77 -109 98 -103 12 4 11 1 -4 -6 -12 -7 -24 -10 -25 -8 -139 190 -137 186 -137 248 0 48 -3 60 -17 64 -10 3 118 5 285 6 l302 1 0 -65z m-420 -35 c0 -5 -5 -10 -11 -10 -5 0 -7 5 -4 10 3 6 8 10 11 10 2 0 4 -4 4 -10z m277 4 c-3 -3 -12 -4 -19 -1 -8 3 -5 6 6 6 11 1 17 -2 13 -5z m-257 -28 c0 -3 -4 -8 -10 -11 -5 -3 -10 -1 -10 4 0 6 5 11 10 11 6 0 10 -2 10 -4z m100 0 c0 -3 -4 -8 -10 -11 -5 -3 -10 -1 -10 4 0 6 5 11 10 11 6 0 10 -2 10 -4z m30 -6 c0 -5 -2 -10 -4 -10 -3 0 -8 5 -11 10 -3 6 -1 10 4 10 6 0 11 -4 11 -10z m70 6 c0 -3 -4 -8 -10 -11 -5 -3 -10 -1 -10 4 0 6 5 11 10 11 6 0 10 -2 10 -4z m180 0 c0 -2 -7 -7 -16 -10 -8 -3 -12 -2 -9 4 6 10 25 14 25 6z m-435 -36 c3 -5 1 -10 -4 -10 -6 0 -11 5 -11 10 0 6 2 10 4 10 3 0 8 -4 11 -10z m105 6 c0 -3 -4 -8 -10 -11 -5 -3 -10 -1 -10 4 0 6 5 11 10 11 6 0 10 -2 10 -4z m130 -6 c0 -5 -5 -10 -11 -10 -5 0 -7 5 -4 10 3 6 8 10 11 10 2 0 4 -4 4 -10z m40 6 c0 -3 -4 -8 -10 -11 -5 -3 -10 -1 -10 4 0 6 5 11 10 11 6 0 10 -2 10 -4z m100 -6 c0 -5 -4 -10 -10 -10 -5 0 -10 5 -10 10 0 6 5 10 10 10 6 0 10 -4 10 -10z m30 0 c0 -5 -4 -10 -10 -10 -5 0 -10 5 -10 10 0 6 5 10 10 10 6 0 10 -4 10 -10z m115 -20 c3 -5 1 -10 -4 -10 -6 0 -11 5 -11 10 0 6 2 10 4 10 3 0 8 -4 11 -10z m214 0 c-6 -5 -18 -6 -26 -3 -19 8 -16 11 13 11 17 0 22 -3 13 -8z m-714 -10 c3 -5 1 -10 -4 -10 -6 0 -11 5 -11 10 0 6 2 10 4 10 3 0 8 -4 11 -10z m35 0 c0 -5 -5 -10 -11 -10 -5 0 -7 5 -4 10 3 6 8 10 11 10 2 0 4 -4 4 -10z m200 0 c0 -5 -4 -10 -10 -10 -5 0 -10 5 -10 10 0 6 5 10 10 10 6 0 10 -4 10 -10z m100 -1 c0 -8 5 -8 15 1 9 7 15 8 15 2 0 -17 -28 -22 -40 -6 -9 10 -9 14 -1 14 6 0 11 -5 11 -11z m240 -13 c0 -2 -7 -7 -16 -10 -8 -3 -12 -2 -9 4 6 10 25 14 25 6z m-520 -10 c0 -3 -4 -8 -10 -11 -5 -3 -10 -1 -10 4 0 6 5 11 10 11 6 0 10 -2 10 -4z m200 0 c0 -3 -4 -8 -10 -11 -5 -3 -10 -1 -10 4 0 6 5 11 10 11 6 0 10 -2 10 -4z m160 -6 c0 -5 -5 -10 -11 -10 -5 0 -7 5 -4 10 3 6 8 10 11 10 2 0 4 -4 4 -10z m40 6 c0 -3 -4 -8 -10 -11 -5 -3 -10 -1 -10 4 0 6 5 11 10 11 6 0 10 -2 10 -4z m95 -28 c-71 -9 -175 -24 -230 -32 -145 -22 -211 -29 -205 -23 6 6 42 14 106 22 55 7 126 17 149 21 11 2 40 6 65 9 25 3 61 7 80 10 19 3 55 8 80 10 24 3 46 8 48 10 2 2 11 1 20 -3 10 -4 -41 -14 -113 -24z m-275 -2 c0 -3 -4 -8 -10 -11 -5 -3 -10 -1 -10 4 0 6 5 11 10 11 6 0 10 -2 10 -4z m-170 -57 c0 -5 -12 -9 -26 -9 -14 0 -23 4 -20 8 7 11 46 12 46 1z m1098 -211 c-3 -7 -21 -14 -41 -16 -28 -2 -37 1 -37 12 0 12 11 16 41 16 28 0 39 -4 37 -12z m2262 -63 c0 -8 -4 -17 -10 -20 -6 -4 -10 5 -10 20 0 15 4 24 10 20 6 -3 10 -12 10 -20z m-2260 -20 c0 -34 -1 -35 -40 -35 -39 0 -40 1 -40 35 0 34 1 35 40 35 39 0 40 -1 40 -35z"/>
<path d="M9680 3455 c0 -10 10 -15 30 -15 20 0 30 5 30 15 0 10 -10 15 -30 15 -20 0 -30 -5 -30 -15z"/>
<path d="M9570 3370 l0 -60 105 0 105 0 0 60 0 60 -105 0 -105 0 0 -60z"/>
<path d="M8893 3382 l-483 -2 0 -70 0 -70 490 0 490 0 0 69 c0 39 -3 71 -7 73 -5 2 -225 2 -490 0z"/>
<path d="M9423 3382 c-21 -3 -23 -9 -23 -73 l0 -70 28 3 c26 3 27 4 28 71 0 37 -2 69 -5 71 -3 1 -16 0 -28 -2z"/>
<path d="M8330 3310 l0 -70 35 0 35 0 0 70 0 70 -35 0 -35 0 0 -70z"/>
<path d="M8918 3483 c-10 -3 -18 -13 -18 -24 0 -16 7 -19 46 -19 41 0 45 2 34 16 -18 21 -42 31 -62 27z"/>
<path d="M8990 3460 c23 -18 42 -20 218 -20 185 0 192 1 192 20 0 19 -7 20 -217 20 l-218 0 25 -20z"/>
<path d="M9420 3460 c0 -16 7 -20 35 -20 28 0 35 4 35 20 0 16 -7 20 -35 20 -28 0 -35 -4 -35 -20z"/>
<path d="M8006 3414 c-9 -8 -16 -31 -16 -50 l0 -34 50 0 c49 0 50 1 50 30 0 32 -30 70 -54 70 -8 0 -22 -7 -30 -16z"/>
<path d="M9564 3241 c-2 -2 -4 -33 -4 -68 l0 -63 45 0 45 0 0 69 0 69 -41 -2 c-22 0 -43 -3 -45 -5z"/>
<path d="M9677 3243 c-4 -3 -7 -35 -7 -70 l0 -63 65 0 65 0 0 70 0 70 -58 0 c-32 0 -62 -3 -65 -7z"/>
<path d="M11160 3095 l0 -75 38 0 c43 0 72 -23 72 -58 0 -18 6 -22 35 -22 l35 0 0 115 0 115 -90 0 -90 0 0 -75z"/>
<path d="M8889 3108 c0 -46 -2 -50 -10 -28 -13 31 -48 70 -65 70 -6 0 -14 -7 -18 -15 -4 -11 -20 -15 -56 -15 l-50 0 0 -35 c0 -35 -1 -36 -32 -31 -18 3 -82 10 -143 16 -60 5 -125 12 -142 16 -27 5 -33 3 -33 -10 0 -23 -75 -22 -89 2 -8 13 -10 9 -11 -24 l0 -41 53 5 54 4 25 -73 c14 -41 29 -88 32 -105 6 -27 12 -31 64 -42 86 -18 102 -16 102 11 0 41 54 87 103 87 21 0 28 4 25 17 -3 15 -20 17 -138 19 -74 1 -138 0 -142 -2 -11 -7 14 -54 29 -54 7 0 13 -11 13 -25 0 -14 -5 -25 -11 -25 -6 0 -8 9 -4 23 4 15 3 18 -3 8 -12 -17 -17 -9 -48 81 -28 85 -28 78 -9 78 8 0 15 7 15 16 0 14 8 16 55 10 31 -3 96 -9 145 -13 l90 -6 0 -29 c0 -16 7 -44 15 -64 8 -19 15 -38 15 -42 1 -4 4 -9 7 -12 4 -5 0 32 -13 103 -7 34 10 41 68 30 50 -10 59 -33 34 -85 -14 -27 -14 -34 -3 -46 9 -8 99 -28 218 -48 112 -18 214 -39 227 -45 21 -12 32 -59 13 -59 -9 0 -259 43 -518 88 l-163 29 0 -22 c0 -17 7 -24 33 -28 17 -3 127 -22 242 -42 308 -52 407 -74 432 -97 17 -16 25 -18 41 -9 24 13 35 41 26 65 -3 9 -1 16 5 16 6 0 11 -11 11 -25 l0 -24 208 2 c114 1 213 -2 220 -6 19 -12 32 1 32 34 0 31 -8 36 -29 17 -11 -11 -13 -10 -8 5 8 21 0 22 -19 2 -22 -21 -356 -22 -396 -1 -16 8 -28 11 -28 7 0 -5 -9 -11 -21 -14 -16 -4 -19 -11 -14 -26 4 -12 2 -21 -4 -21 -16 0 -13 31 4 50 14 15 14 21 0 53 -13 32 -20 37 -48 36 -17 0 -93 11 -167 25 -74 14 -166 30 -204 37 l-68 11 5 40 c3 23 11 47 19 54 8 8 54 16 118 21 l105 8 0 70 0 70 -97 3 -98 3 -1 -53z m-29 -40 c0 -14 -18 -8 -24 7 -8 22 -26 18 -26 -5 0 -17 -7 -20 -52 -20 -34 0 -48 3 -39 9 7 5 11 13 7 19 -3 6 -2 13 4 17 5 3 10 -1 10 -9 0 -9 4 -16 9 -16 5 0 16 -2 23 -5 9 -4 19 7 28 30 l14 35 23 -27 c12 -16 22 -31 23 -35z m200 32 c0 -30 -1 -30 -54 -30 -30 0 -61 -3 -70 -6 -13 -5 -16 1 -16 30 l0 36 70 0 70 0 0 -30z m250 -331 c0 -5 -4 -9 -10 -9 -5 0 -10 7 -10 16 0 8 5 12 10 9 6 -3 10 -10 10 -16z"/>
<path d="M7850 3060 c0 -64 3 -80 15 -80 12 0 15 16 15 80 0 64 -3 80 -15 80 -12 0 -15 -16 -15 -80z"/>
<path d="M8190 3056 c0 -73 2 -84 15 -79 13 4 15 20 13 81 -2 49 -7 77 -15 80 -10 3 -13 -18 -13 -82z"/>
<path d="M9232 3052 c-64 -23 -105 -61 -138 -124 -27 -53 -30 -68 -11 -67 6 0 23 23 37 52 17 33 41 62 69 82 39 27 50 30 120 30 68 0 83 -3 119 -28 23 -15 54 -46 69 -69 23 -34 28 -53 30 -117 1 -55 6 -76 15 -76 17 0 23 91 9 142 -39 142 -185 222 -319 175z"/>
<path d="M9772 3052 c-114 -41 -183 -158 -164 -276 12 -69 29 -53 28 26 -1 89 27 147 92 192 57 41 158 49 218 18 81 -42 124 -113 124 -205 0 -134 -94 -230 -225 -230 -68 -1 -94 10 -146 60 -22 21 -44 33 -55 31 -30 -5 71 -103 121 -117 137 -37 261 20 318 148 25 58 20 177 -10 236 -55 106 -187 157 -301 117z"/>
<path d="M8534 2998 c-43 -47 -42 -48 60 -48 81 0 94 2 90 15 -4 8 -14 15 -23 16 -13 0 -12 2 4 10 15 7 11 8 -17 5 -26 -3 -37 -1 -35 7 1 7 -12 13 -28 15 -22 2 -37 -4 -51 -20z"/>
<path d="M9230 3004 c-19 -8 -45 -25 -58 -37 -23 -21 -67 -96 -60 -102 2 -2 31 -10 65 -18 60 -14 63 -13 83 8 29 31 26 49 -7 41 -73 -16 -90 -14 -24 3 71 19 77 19 152 3 72 -15 104 -32 62 -32 -20 0 -74 -39 -58 -41 6 0 35 -1 65 -1 30 0 44 -2 30 -4 -14 -2 -40 -7 -57 -10 -20 -3 -33 -11 -33 -19 0 -10 11 -15 33 -16 17 0 41 -5 52 -10 13 -6 1 -7 -37 -3 -37 4 -58 3 -58 -4 0 -13 55 -32 95 -32 37 0 45 12 45 68 0 157 -153 265 -290 206z m15 -135 c11 -17 -1 -21 -15 -4 -8 9 -8 15 -2 15 6 0 14 -5 17 -11z"/>
<path d="M9765 3002 c-80 -37 -119 -111 -113 -212 3 -49 5 -55 27 -58 34 -5 113 19 108 32 -2 6 -13 10 -23 9 -10 -2 -37 -5 -59 -8 -32 -4 -35 -3 -15 4 14 5 37 12 53 15 51 12 21 36 -45 36 -15 0 -30 5 -34 11 -4 8 3 9 25 5 17 -3 45 -9 61 -12 46 -9 37 12 -17 40 -27 14 -42 25 -35 26 7 0 31 -9 52 -20 48 -24 51 -15 10 25 -16 16 -30 33 -30 39 0 5 18 -7 40 -29 22 -21 42 -36 46 -33 3 3 -4 24 -16 47 -11 23 -16 41 -11 41 5 0 17 -19 27 -42 l19 -43 3 43 c4 54 22 55 22 1 0 -45 15 -45 25 1 4 16 11 33 17 37 8 4 9 0 4 -13 -13 -35 -19 -74 -10 -74 5 0 20 16 34 34 14 19 29 32 33 29 5 -3 -6 -20 -24 -39 -42 -43 -32 -53 20 -20 44 28 51 30 51 18 0 -5 -18 -17 -40 -27 -62 -28 -61 -38 4 -33 31 3 56 1 56 -4 0 -4 -12 -8 -27 -8 -36 0 -73 -10 -73 -20 0 -4 24 -14 53 -23 51 -16 51 -16 10 -12 -23 3 -48 8 -57 11 -33 13 -14 -16 31 -47 26 -18 41 -35 35 -37 -7 -2 -28 10 -48 27 -19 17 -39 31 -43 31 -18 0 3 -45 31 -69 27 -22 28 -25 14 -40 -12 -12 -19 -12 -28 -3 -9 9 -8 12 7 12 18 0 18 1 -3 23 -19 18 -24 20 -32 7 -5 -9 -5 -19 2 -27 23 -28 -14 -57 -40 -31 -9 9 -8 16 5 30 15 17 15 18 0 18 -28 0 -32 -4 -32 -30 0 -18 -5 -25 -20 -25 -15 0 -20 7 -20 28 1 15 -5 27 -12 27 -7 0 -13 -9 -13 -20 0 -12 -7 -20 -16 -20 -11 0 -15 6 -11 20 4 17 0 20 -24 20 -39 0 -37 -13 7 -47 29 -21 50 -28 99 -31 35 -2 79 1 98 7 48 16 113 89 127 143 25 91 -14 204 -86 248 -50 32 -146 37 -199 12z"/>
<path d="M10675 3005 c-55 -7 -183 -24 -285 -38 -244 -34 -264 -35 -290 -12 -25 23 -25 19 1 -58 26 -77 20 -160 -17 -226 -13 -24 -24 -45 -24 -47 0 -2 23 -4 50 -4 l50 0 0 60 0 60 93 0 c138 0 156 12 211 143 l16 38 142 -3 c161 -3 139 8 188 -100 35 -78 50 -64 50 47 0 57 4 95 10 95 14 0 13 33 -2 48 -15 15 -61 14 -193 -3z"/>
<path d="M8730 2972 c0 -16 5 -44 12 -62 9 -26 9 -35 0 -38 -19 -6 -14 -42 6 -42 9 0 34 -3 55 -6 49 -9 50 14 2 47 -22 15 -39 37 -45 59 -12 44 -12 53 0 45 6 -3 10 -17 10 -30 0 -52 33 -32 41 25 4 22 0 25 -38 28 -41 3 -43 2 -43 -26z"/>
<path d="M8934 2954 c20 -20 38 -45 41 -55 4 -11 13 -19 21 -19 19 0 18 5 -13 61 -22 41 -31 49 -55 49 l-29 0 35 -36z"/>
<path d="M8980 2986 c0 -14 53 -116 61 -116 7 0 46 65 67 113 2 4 -26 7 -62 7 -36 0 -66 -2 -66 -4z"/>
<path d="M9542 2934 c23 -47 28 -69 28 -130 0 -98 17 -95 21 4 3 60 10 90 31 130 l27 52 -68 0 -68 0 29 -56z"/>
<path d="M7410 2971 c0 -6 19 -11 42 -13 31 -2 44 -8 46 -20 2 -13 -3 -18 -17 -18 -14 0 -21 -6 -21 -20 0 -11 -7 -20 -15 -20 -9 0 -15 9 -15 25 0 14 -4 25 -10 25 -5 0 -10 -16 -10 -35 0 -37 -25 -50 -36 -20 -5 11 -21 15 -60 15 l-54 0 0 -55 0 -55 54 0 c31 0 56 5 58 11 2 6 13 9 25 7 19 -3 15 -12 -43 -101 -35 -54 -64 -102 -64 -107 0 -6 46 -10 109 -10 l108 0 7 80 c7 71 11 85 38 116 63 72 142 85 230 40 27 -14 52 -26 54 -26 2 0 4 29 4 65 l0 65 -160 0 -160 0 0 30 c0 30 -1 30 -55 30 -30 0 -55 -4 -55 -9z m30 -211 c-33 -65 -90 -150 -100 -150 -5 0 19 45 53 99 64 102 85 125 47 51z m-10 -89 c-16 -34 -35 -61 -40 -61 -5 0 8 31 28 69 45 85 56 77 12 -8z m33 -28 c-3 -20 -11 -33 -20 -33 -8 0 -12 4 -9 9 3 4 10 21 16 36 13 35 19 30 13 -12z"/>
<path d="M8230 2970 c0 -5 -9 -10 -20 -10 -19 0 -20 -7 -20 -115 0 -63 4 -115 9 -115 16 0 21 30 21 123 l0 92 69 -3 c66 -3 69 -3 64 17 -5 18 -13 21 -64 21 -33 0 -59 -4 -59 -10z"/>
<path d="M8867 2973 c-3 -5 -8 -23 -12 -40 -5 -24 -3 -33 7 -33 7 -1 32 -5 56 -9 54 -11 56 5 7 54 -36 35 -50 42 -58 28z"/>
<path d="M7862 2962 c-18 -12 -13 -223 6 -230 9 -3 12 22 12 102 0 72 -4 106 -11 106 -8 0 -8 5 1 15 14 17 11 19 -8 7z"/>
<path d="M8230 2916 c0 -11 18 -15 70 -18 61 -3 70 -1 70 15 0 14 -10 17 -70 17 -54 0 -70 -3 -70 -14z"/>
<path d="M9290 2895 c0 -9 5 -15 11 -13 6 2 11 8 11 13 0 5 -5 11 -11 13 -6 2 -11 -4 -11 -13z"/>
<path d="M10493 2903 c-7 -2 -17 -22 -23 -42 -27 -99 -85 -141 -197 -141 l-73 0 0 -40 0 -40 135 0 134 0 15 -28 c19 -36 37 -51 83 -68 41 -14 6 -15 -1257 -14 -973 0 -929 -1 -894 14 79 35 101 135 43 200 -52 60 -126 61 -186 1 -27 -27 -33 -40 -33 -77 0 -54 27 -99 71 -121 32 -16 20 -17 -281 -16 -270 0 -311 2 -285 13 47 21 67 51 72 103 5 58 -10 89 -56 120 -130 87 -270 -101 -150 -201 17 -14 36 -27 42 -28 7 -1 -85 -5 -203 -8 l-215 -5 0 -30 0 -30 3290 0 3290 0 0 30 0 30 -210 3 c-206 2 -209 3 -175 20 101 50 108 191 14 253 -35 23 -121 26 -149 5 -18 -13 -16 -15 28 -21 26 -4 47 -11 47 -15 0 -5 -28 -2 -62 7 -110 25 -478 5 -499 -28 -6 -9 -9 -10 -9 -2 0 19 34 33 79 33 22 0 42 4 46 9 9 16 -31 31 -84 31 -42 0 -56 -5 -86 -31 -44 -39 -62 -97 -46 -150 12 -38 53 -86 86 -100 11 -4 -140 -8 -335 -8 -351 -1 -354 -1 -320 18 41 21 80 83 80 126 0 43 -30 96 -69 122 -39 27 -116 31 -146 9 -21 -15 -27 -12 74 -32 44 -8 52 -25 49 -96 l-3 -63 -49 -3 c-58 -4 -69 7 -60 58 l6 35 -32 -30 c-51 -48 -55 -63 -28 -92 12 -14 37 -32 53 -39 26 -11 1 -13 -195 -14 l-225 0 42 25 c58 35 62 56 21 107 l-33 42 -5 -44 -5 -45 -55 0 -55 0 -3 73 c-3 70 -2 72 23 82 15 6 43 9 63 8 l37 -1 -35 -4 c-42 -4 -84 -24 -70 -33 6 -4 6 -18 0 -40 -18 -63 -15 -70 35 -70 l45 0 0 44 c0 34 -4 46 -17 49 -12 3 -8 5 9 6 21 1 36 -12 78 -64 l52 -66 93 2 94 1 56 64 c48 55 61 64 88 63 30 -2 31 -2 5 -6 -26 -4 -28 -8 -28 -49 l0 -44 45 0 45 0 0 53 c0 28 -4 58 -8 65 -15 24 -116 36 -299 36 -99 1 -179 4 -177 8 9 14 -36 28 -87 28 -46 0 -55 -4 -89 -38 -70 -70 -62 -173 19 -228 l36 -24 -435 1 c-261 0 -423 4 -406 9 34 11 75 47 87 78 8 20 15 22 94 22 l86 0 -3 42 c-3 42 -4 43 -47 50 -56 9 -72 25 -105 98 -15 33 -36 64 -46 70 -19 10 -224 13 -247 3z m267 -73 c0 -6 -51 -10 -134 -10 -79 0 -137 4 -141 10 -4 6 43 10 134 10 87 0 141 -4 141 -10z m-70 -120 l0 -70 -65 0 -65 0 0 70 0 70 65 0 65 0 0 -70z m2728 -23 l3 -78 -53 3 -53 3 -3 43 c-2 23 -6 42 -10 41 -4 0 -22 -18 -39 -41 l-33 -40 20 -28 c11 -15 34 -34 52 -43 31 -16 22 -17 -192 -16 -211 0 -223 1 -195 16 32 16 64 51 65 68 0 6 -15 28 -32 50 l-33 40 -5 -45 c-5 -45 -5 -45 -48 -48 -24 -2 -50 2 -58 9 -16 13 -20 109 -4 109 6 0 10 -23 10 -51 l0 -50 42 3 c41 3 41 3 41 43 0 33 -3 41 -24 46 l-24 7 23 1 c35 2 55 -13 102 -74 l44 -57 98 4 c91 3 99 5 115 28 25 35 84 100 92 100 3 0 4 -22 3 -50 l-4 -50 46 0 46 0 0 60 c0 45 -4 61 -17 70 -16 10 -16 10 2 8 18 -3 20 -12 23 -81z m-1678 23 c0 -62 -17 -66 -55 -11 -32 47 -27 61 21 61 l34 0 0 -50z m228 42 c9 -6 5 -19 -18 -50 -17 -23 -35 -42 -40 -42 -6 0 -10 23 -10 50 0 48 1 50 28 50 15 0 33 -4 40 -8z m1062 -42 c0 -62 -17 -66 -55 -11 -32 47 -27 61 21 61 l34 0 0 -50z m233 44 c12 -12 -44 -94 -65 -94 -4 0 -8 23 -8 50 l0 50 33 0 c19 0 37 -3 40 -6z m-5531 -51 c36 -32 15 -93 -32 -93 -53 0 -79 53 -43 92 20 22 51 23 75 1z m666 1 c24 -16 28 -44 12 -75 -15 -27 -64 -25 -84 3 -21 30 -20 44 4 68 24 24 38 25 68 4z m2322 -85 c0 -11 -107 -21 -155 -14 -78 12 -57 20 51 20 57 0 104 -3 104 -6z"/>
<path d="M10570 2710 l0 -60 55 0 55 0 0 60 0 60 -55 0 -55 0 0 -60z"/>
<path d="M11680 2739 c0 -6 9 -22 20 -36 l20 -26 0 37 c0 29 -4 36 -20 36 -11 0 -20 -5 -20 -11z"/>
<path d="M11917 2743 c-4 -3 -7 -20 -7 -37 l1 -31 24 30 c14 17 25 33 25 38 0 9 -34 9 -43 0z"/>
<path d="M12970 2738 c0 -7 9 -24 20 -38 l21 -25 -3 35 c-2 24 -9 36 -20 38 -10 2 -18 -2 -18 -10z"/>
<path d="M13207 2731 c-7 -26 20 -35 33 -11 14 26 13 30 -9 30 -10 0 -21 -9 -24 -19z"/>
<path d="M7668 2699 c-21 -12 -24 -49 -6 -67 28 -28 78 -7 78 33 0 40 -35 56 -72 34z"/>
<path d="M8339 2691 c-21 -16 -22 -22 -11 -45 19 -42 82 -30 82 15 0 18 -25 49 -40 49 -4 0 -18 -8 -31 -19z"/>
<path d="M9330 2891 c0 -18 18 -21 30 -6 10 13 9 15 -9 15 -11 0 -21 -4 -21 -9z"/>
<path d="M8635 2876 c-25 -18 -21 -22 33 -30 41 -6 43 -5 40 16 -4 28 -44 36 -73 14z"/>
<path d="M9371 2877 c-6 -8 -8 -17 -5 -20 9 -8 54 14 48 24 -8 13 -30 11 -43 -4z"/>
<path d="M8231 2876 c10 -10 149 -15 149 -6 0 6 -34 10 -77 10 -42 0 -74 -2 -72 -4z"/>
<path d="M9274 2848 l-19 -21 32 6 c29 6 33 4 43 -28 18 -54 48 -43 40 15 -3 24 -31 50 -55 50 -12 0 -30 -10 -41 -22z"/>
<path d="M9807 2852 c-37 -40 -11 -102 41 -102 35 0 49 10 61 42 22 57 -61 105 -102 60z"/>
<path d="M8230 2835 c0 -12 16 -15 80 -15 64 0 80 3 80 15 0 12 -16 15 -80 15 -64 0 -80 -3 -80 -15z"/>
<path d="M8856 2832 c8 -26 111 -47 117 -23 4 13 5 13 6 -1 1 -24 31 -23 31 1 0 16 -11 20 -67 26 -36 4 -72 9 -79 12 -8 3 -11 -2 -8 -15z"/>
<path d="M9030 2800 c0 -11 4 -20 9 -20 11 0 22 26 14 34 -12 12 -23 5 -23 -14z"/>
<path d="M9072 2797 c3 -24 21 -27 26 -4 2 8 -4 17 -13 21 -13 4 -16 1 -13 -17z"/>
<path d="M9110 2791 c0 -12 3 -21 8 -21 4 -1 27 -5 52 -10 44 -8 86 2 75 19 -2 5 -26 12 -52 15 -27 4 -56 9 -65 12 -13 4 -18 0 -18 -15z"/>
<path d="M8588 2783 c-28 -7 -22 -45 15 -99 75 -111 231 -131 316 -40 l24 26 -26 0 c-17 0 -27 -5 -27 -15 0 -8 -6 -15 -14 -15 -8 0 -16 7 -20 15 -9 24 -22 17 -21 -12 0 -22 -5 -29 -22 -31 -19 -3 -23 1 -23 22 0 16 6 26 15 26 8 0 15 4 15 10 0 5 -7 7 -15 4 -8 -4 -15 -2 -15 4 0 7 60 9 170 7 94 -2 170 0 170 5 0 7 -73 22 -185 36 -22 3 -53 8 -69 11 -19 3 -26 2 -22 -6 12 -18 -31 -13 -50 7 -18 18 -161 45 -169 31 -7 -10 -45 -18 -45 -9 0 5 8 10 18 12 9 2 13 6 7 9 -5 3 -18 4 -27 2z m82 -63 c-47 -43 -50 -45 -50 -30 0 9 77 70 88 70 3 0 -14 -18 -38 -40z m72 -15 c-3 -30 -1 -45 7 -45 6 0 11 15 11 33 0 17 5 39 11 47 8 12 9 10 5 -10 -3 -14 -6 -47 -6 -73 0 -44 -2 -48 -22 -45 -21 3 -23 8 -21 51 3 52 -7 55 -27 7 -12 -30 -21 -36 -33 -24 -6 7 63 103 74 104 4 0 4 -20 1 -45z"/>
<path d="M8243 2762 c-10 -12 -24 -28 -31 -36 -11 -13 -40 -16 -178 -16 l-165 0 -29 32 c-35 38 -48 32 -26 -11 9 -16 16 -50 16 -76 l0 -45 203 0 202 0 -3 45 c-3 33 2 55 17 81 25 42 22 55 -6 26z"/>
<path d="M8520 2763 c0 -31 46 -117 81 -152 100 -101 278 -93 367 15 45 55 16 58 -43 6 -91 -80 -202 -78 -294 4 -34 30 -55 60 -67 94 -17 48 -44 68 -44 33z"/>
<path d="M9245 2750 c-3 -5 -1 -10 4 -10 6 0 11 5 11 10 0 6 -2 10 -4 10 -3 0 -8 -4 -11 -10z"/>
<path d="M9857 2733 c-4 -3 -7 -17 -7 -30 0 -29 36 -32 45 -3 10 31 -17 55 -38 33z"/>
<path d="M9173 2672 c-33 -5 -28 -18 18 -49 43 -28 120 -41 182 -29 19 3 52 22 73 41 37 32 37 34 15 35 -13 0 -29 -7 -36 -17 -12 -16 -40 -9 -30 8 4 5 -1 9 -9 9 -11 0 -16 -9 -16 -30 0 -22 -5 -30 -18 -30 -10 0 -22 3 -26 7 -4 4 -23 6 -43 4 -34 -3 -35 -1 -29 23 4 15 2 26 -4 26 -5 0 -10 -7 -10 -15 0 -21 -38 -19 -42 3 -2 11 -10 16 -25 14z"/>
<path d="M9002 2650 c-6 -11 -12 -21 -12 -24 0 -10 64 -15 76 -5 7 6 18 8 24 4 5 -3 10 0 10 7 0 40 -76 53 -98 18z"/>
<path d="M9118 2638 c11 -18 42 -46 68 -63 43 -27 56 -30 128 -30 56 0 90 6 111 17 33 18 105 86 105 100 0 20 -36 5 -75 -31 -40 -37 -95 -61 -138 -61 -47 0 -110 25 -151 61 -55 48 -75 51 -48 7z"/>
<path d="M9540 2651 c-14 -27 -13 -31 8 -31 10 0 23 -5 29 -11 8 -8 13 -8 17 0 4 6 16 11 27 11 22 0 24 8 5 33 -18 24 -72 23 -86 -2z"/>
</g>
</svg>