<svg xmlns="http://www.w3.org/2000/svg" viewBox="23.00 614.00 446.00 158.50">
<g transform="translate(0.000000,768.000000) scale(0.100000,-0.100000)" fill="currentColor" stroke="none">
<path d="M935 1480 c-3 -5 -1 -10 4 -10 13 0 15 -69 3 -88 -6 -8 -43 -12 -123 -13 -63 -1 -119 -1 -126 0 -6 0 -17 17 -23 36 -6 19 -16 35 -21 35 -5 0 -9 7 -9 15 0 8 -5 15 -11 15 -6 0 -9 -7 -6 -15 4 -8 2 -17 -3 -20 -6 -4 -10 -16 -10 -29 0 -12 -5 -27 -11 -33 -17 -17 -1 -33 32 -33 18 0 29 -5 29 -14 0 -8 7 -16 15 -20 18 -7 20 -67 3 -85 -7 -6 -13 -24 -13 -39 0 -26 -2 -27 -50 -27 -27 1 -58 5 -67 9 -16 7 -18 0 -18 -78 0 -51 4 -86 10 -86 6 0 10 7 10 15 0 11 13 15 54 15 l54 0 13 -45 c7 -25 19 -45 27 -45 7 0 10 -5 7 -10 -4 -6 0 -24 8 -40 15 -29 14 -31 -41 -115 -56 -84 -92 -110 -92 -65 0 18 -7 20 -70 20 -40 0 -70 -4 -70 -10 0 -6 27 -10 62 -10 58 0 72 -13 23 -22 -11 -2 -26 -16 -33 -31 -11 -23 -19 -27 -58 -27 -24 0 -44 5 -44 10 0 6 -20 10 -45 10 l-45 0 0 -45 0 -45 49 0 c34 0 51 4 55 15 3 8 10 15 17 15 16 0 -19 -51 -74 -110 l-47 -50 115 0 115 0 0 48 c0 36 4 50 19 57 10 6 37 23 60 39 55 38 119 50 174 31 23 -8 50 -15 60 -15 11 0 17 -8 17 -25 0 -32 -7 -31 -50 5 -73 63 -180 23 -180 -67 0 -43 21 -80 54 -93 13 -5 -61 -9 -191 -9 l-213 -1 0 -30 0 -30 2180 0 2180 0 0 30 0 30 -324 0 -323 0 33 36 c25 26 41 35 61 33 57 -4 63 -1 63 36 0 27 -5 38 -22 44 -13 5 -36 30 -53 55 l-30 45 -110 3 -110 4 112 2 112 2 18 -30 c14 -24 24 -30 50 -30 29 0 35 -5 55 -47 32 -66 61 -84 137 -84 73 -1 109 18 118 61 4 21 11 30 24 30 11 0 19 5 19 10 0 16 56 12 70 -6 9 -10 26 -14 49 -12 35 3 36 4 39 51 l3 47 -45 0 c-25 0 -48 -4 -51 -10 -3 -5 -22 -10 -41 -10 -50 0 -86 40 -49 54 8 3 15 10 15 16 0 8 -37 10 -112 9 l-113 -2 -3 27 c-2 14 1 26 7 26 8 0 11 65 11 200 0 132 -4 200 -10 200 -7 0 -10 27 -8 73 l3 72 90 15 c122 21 129 26 121 84 l-7 46 -117 0 c-64 0 -199 5 -300 12 -142 9 -188 9 -203 0 -10 -7 -30 -12 -44 -12 -20 0 -25 -5 -26 -27 l-1 -28 -7 25 c-7 24 -11 25 -76 25 l-70 0 -3 -32 c-3 -29 -7 -33 -30 -32 -15 0 -21 3 -15 6 17 6 17 59 1 65 -24 9 -38 -3 -38 -32 0 -16 6 -31 13 -33 6 -3 -12 -6 -41 -6 -32 -1 -51 3 -47 9 3 5 12 7 20 3 19 -7 20 44 2 69 -12 15 -14 15 -25 -3 -7 -10 -12 -29 -12 -42 l0 -22 -367 3 c-203 2 -369 5 -370 6 -3 3 -11 46 -12 63 -1 7 -13 11 -31 10 -28 -2 -30 -5 -30 -39 0 -35 -2 -38 -30 -38 -25 0 -30 4 -30 24 0 45 -23 56 -119 56 -94 0 -121 -13 -121 -57 0 -19 -8 -20 -137 -26 -76 -4 -188 -10 -250 -13 l-112 -7 -7 37 c-5 28 -13 40 -33 48 -37 15 -179 15 -223 -1 -34 -11 -38 -16 -38 -46 0 -19 -4 -36 -8 -39 -5 -3 -86 -8 -181 -12 -129 -4 -179 -3 -203 7 -29 12 -30 14 -26 66 l5 53 -78 0 c-43 0 -81 -4 -84 -10z m2829 -122 c6 -4 -2 -7 -19 -7 -16 0 -24 3 -17 6 6 2 12 12 13 21 0 14 2 14 6 2 3 -8 11 -18 17 -22z m-144 -64 c0 -2 -15 -4 -32 -3 -27 0 -29 2 -13 8 18 8 45 4 45 -5z m-2262 1 c-7 -7 -319 -7 -326 0 -3 3 70 5 163 5 93 0 166 -2 163 -5z m69 -1 c-3 -3 -12 -4 -19 -1 -8 3 -5 6 6 6 11 1 17 -2 13 -5z m46 -1 c-7 -2 -19 -2 -25 0 -7 3 -2 5 12 5 14 0 19 -2 13 -5z m80 0 c-7 -2 -21 -2 -30 0 -10 3 -4 5 12 5 17 0 24 -2 18 -5z m60 0 c-7 -2 -21 -2 -30 0 -10 3 -4 5 12 5 17 0 24 -2 18 -5z m114 1 c-3 -3 -12 -4 -19 -1 -8 3 -5 6 6 6 11 1 17 -2 13 -5z m71 -1 c-10 -2 -26 -2 -35 0 -10 3 -2 5 17 5 19 0 27 -2 18 -5z m145 0 c-13 -2 -33 -2 -45 0 -13 2 -3 4 22 4 25 0 35 -2 23 -4z m250 0 c-40 -2 -107 -2 -150 0 -43 1 -10 3 72 3 83 0 118 -2 78 -3z m340 0 c-13 -2 -33 -2 -45 0 -13 2 -3 4 22 4 25 0 35 -2 23 -4z m130 0 c-7 -2 -19 -2 -25 0 -7 3 -2 5 12 5 14 0 19 -2 13 -5z m500 0 c-24 -2 -62 -2 -85 0 -24 2 -5 4 42 4 47 0 66 -2 43 -4z m174 1 c-3 -3 -12 -4 -19 -1 -8 3 -5 6 6 6 11 1 17 -2 13 -5z m433 -11 c0 -12 -3 -14 -8 -6 -4 6 -34 14 -67 16 l-60 3 68 2 c58 2 67 0 67 -15z m-3043 -45 c-3 -8 -6 -5 -6 6 -1 11 2 17 5 13 3 -3 4 -12 1 -19z m3459 -145 c-4 -9 -28 -13 -86 -13 l-80 0 0 85 0 84 83 3 82 3 3 -74 c2 -41 1 -80 -2 -88z m-188 92 c4 -85 -2 -105 -36 -105 -29 0 -29 -4 -23 148 1 19 6 23 29 20 26 -3 27 -6 30 -63z m-3218 5 c-6 -11 -13 -20 -16 -20 -2 0 0 9 6 20 6 11 13 20 16 20 2 0 0 -9 -6 -20z m3458 -232 c-1 -106 -3 -168 -5 -138 -3 30 -10 58 -16 62 -9 6 -9 8 1 8 9 0 12 33 12 130 0 72 2 130 5 130 3 0 4 -87 3 -192z m-331 126 c-3 -3 -12 -4 -19 -1 -8 3 -5 6 6 6 11 1 17 -2 13 -5z m-140 -171 c-2 -21 -4 -4 -4 37 0 41 2 58 4 38 2 -21 2 -55 0 -75z m-170 -20 c-3 -10 -5 -4 -5 12 0 17 2 24 5 18 2 -7 2 -21 0 -30z m-2684 10 c-7 -2 -19 -2 -25 0 -7 3 -2 5 12 5 14 0 19 -2 13 -5z m2284 -55 c-3 -7 -5 -2 -5 12 0 14 2 19 5 13 2 -7 2 -19 0 -25z m-1457 16 c0 -8 -19 -13 -24 -6 -3 5 1 9 9 9 8 0 15 -2 15 -3z m-180 -8 c0 -2 -9 -6 -20 -9 -11 -3 -18 -1 -14 4 5 9 34 13 34 5z m-683 -21 c0 -8 -4 -15 -9 -15 -6 0 -8 -30 -6 -68 l3 -67 -42 -3 c-39 -3 -42 -1 -45 25 -4 38 -44 44 -71 11 l-19 -23 16 25 c8 14 30 48 48 77 32 51 35 52 79 53 34 0 46 -4 46 -15z m31 -31 c-3 -14 -5 -12 -10 9 -3 19 -2 25 4 19 6 -6 8 -18 6 -28z m592 11 c0 -24 -3 -25 -52 -25 -29 0 -71 5 -93 10 -32 7 -42 6 -51 -5 -20 -27 -82 -19 -116 15 l-30 30 171 0 171 0 0 -25z m195 15 c4 -6 -18 -10 -59 -10 -37 0 -66 4 -66 10 0 6 26 10 59 10 33 0 63 -4 66 -10z m230 -5 c6 -2 -20 -4 -57 -4 -38 -1 -68 3 -68 7 0 8 102 5 125 -3z m95 -3 c0 -5 -3 -12 -7 -16 -4 -4 -7 -19 -8 -33 0 -14 -6 -28 -12 -30 -9 -3 -13 6 -13 26 0 16 -5 33 -10 36 -6 4 -8 11 -5 16 8 11 55 12 55 1z m290 -4 c0 -4 -63 -8 -140 -8 -77 0 -140 4 -140 9 0 5 63 9 140 8 77 0 140 -4 140 -9z m126 -10 c-3 -13 -6 -31 -6 -40 0 -15 -9 -18 -45 -18 -41 0 -45 2 -45 25 0 14 -4 25 -10 25 -5 0 -10 7 -10 15 0 12 13 15 61 15 59 0 61 -1 55 -22z m404 -17 l0 -38 -45 -1 c-44 -1 -45 -1 -45 31 l0 32 -145 -3 c-100 -3 -145 -1 -145 7 0 8 59 11 190 11 l190 0 0 -39z m280 29 c0 -6 -27 -10 -60 -10 -33 0 -60 4 -60 10 0 6 27 10 60 10 33 0 60 -4 60 -10z m104 -55 c20 -36 36 -70 36 -75 0 -6 -13 -10 -28 -10 -21 0 -36 10 -60 42 -18 23 -32 49 -32 59 0 10 -3 24 -6 33 -5 12 1 16 24 16 27 0 34 -7 66 -65z m759 38 c-18 -2 -48 -2 -65 0 -18 2 -4 4 32 4 36 0 50 -2 33 -4z m-126 -9 c-3 -3 -12 -4 -19 -1 -8 3 -5 6 6 6 11 1 17 -2 13 -5z m-80 -10 c-3 -3 -12 -4 -19 -1 -8 3 -5 6 6 6 11 1 17 -2 13 -5z m-2269 -30 c11 -12 11 -14 -2 -14 -9 0 -16 5 -16 11 0 9 -22 10 -75 6 -57 -4 -75 -2 -75 7 0 18 149 8 168 -10z m2195 19 c-7 -2 -19 -2 -25 0 -7 3 -2 5 12 5 14 0 19 -2 13 -5z m-1633 -6 c0 -2 -15 -16 -32 -33 l-33 -29 29 33 c28 30 36 37 36 29z m1910 -7 c0 -5 -2 -10 -4 -10 -3 0 -8 5 -11 10 -3 6 -1 10 4 10 6 0 11 -4 11 -10z m-2740 -24 c0 -2 -9 -6 -20 -9 -11 -3 -18 -1 -14 4 5 9 34 13 34 5z m2097 -12 c-3 -3 -12 -4 -19 -1 -8 3 -5 6 6 6 11 1 17 -2 13 -5z m778 -28 l30 1 -28 -4 c-20 -3 -27 -9 -23 -19 8 -22 0 -17 -19 12 -11 17 -12 23 -4 18 8 -4 27 -8 44 -8z m-2887 -13 c-10 -2 -26 -2 -35 0 -10 3 -2 5 17 5 19 0 27 -2 18 -5z m55 0 c-7 -2 -19 -2 -25 0 -7 3 -2 5 12 5 14 0 19 -2 13 -5z m2171 -55 c-54 -66 -69 -78 -93 -77 -24 1 -24 1 5 10 20 5 41 24 58 49 14 22 31 40 38 40 6 0 3 -10 -8 -22z m-2117 -10 c-3 -8 -6 -5 -6 6 -1 11 2 17 5 13 3 -3 4 -12 1 -19z m-31 0 c3 -4 -28 -8 -68 -8 -51 0 -69 3 -58 10 18 12 119 10 126 -2z m551 -14 c-3 -3 -12 -4 -19 -1 -8 3 -5 6 6 6 11 1 17 -2 13 -5z m2375 -26 c3 -20 8 -21 91 -19 73 2 87 0 87 -13 0 -31 -38 -56 -85 -56 -77 0 -125 30 -148 93 -5 14 -1 17 23 17 22 0 29 -5 32 -22z m-3055 -10 c-3 -8 -6 -5 -6 6 -1 11 2 17 5 13 3 -3 4 -12 1 -19z m73 15 c-8 -3 -21 -13 -28 -22 -11 -14 -14 -14 -22 -1 -16 25 -11 30 28 29 20 0 30 -3 22 -6z m413 -30 c-7 -2 -19 -2 -25 0 -7 3 -2 5 12 5 14 0 19 -2 13 -5z m-326 -25 c-3 -8 -6 -5 -6 6 -1 11 2 17 5 13 3 -3 4 -12 1 -19z m1966 15 c-20 -3 -33 -10 -33 -19 0 -8 -6 -14 -14 -14 -8 0 -17 -6 -19 -12 -3 -7 -6 -1 -6 14 -1 29 12 36 69 35 l35 0 -32 -4z m-1513 -13 c0 -5 -2 -10 -4 -10 -3 0 -8 5 -11 10 -3 6 -1 10 4 10 6 0 11 -4 11 -10z m-623 -26 c-3 -3 -12 -4 -19 -1 -8 3 -5 6 6 6 11 1 17 -2 13 -5z m366 -1 c-7 -2 -13 -13 -13 -24 0 -14 7 -19 29 -19 37 0 46 13 25 34 -13 13 -13 16 -1 16 8 0 17 -8 19 -18 7 -25 71 -73 111 -82 19 -5 -51 -8 -168 -9 -191 -1 -198 0 -175 16 35 24 49 44 50 71 0 21 4 22 68 21 37 0 61 -3 55 -6z m-1143 -17 c0 -2 -8 -10 -17 -17 -16 -13 -17 -12 -4 4 13 16 21 21 21 13z m30 0 c0 -2 -8 -10 -17 -17 -16 -13 -17 -12 -4 4 13 16 21 21 21 13z m1880 0 c0 -2 -8 -10 -17 -17 -16 -13 -17 -12 -4 4 13 16 21 21 21 13z m1165 -42 c11 -13 31 -28 45 -33 17 -7 -52 -10 -220 -10 -245 -1 -245 -1 -205 18 22 10 46 25 53 33 9 12 24 15 51 11 21 -3 41 -1 44 3 3 5 52 7 109 6 94 -3 105 -6 123 -28z m-1515 14 c16 -10 24 -10 41 0 18 12 26 10 59 -13 21 -14 51 -30 66 -35 19 -5 -38 -8 -156 -8 -109 0 -172 3 -152 8 18 4 49 19 70 33 44 30 46 31 72 15z m210 2 c0 -5 -2 -10 -4 -10 -3 0 -8 5 -11 10 -3 6 -1 10 4 10 6 0 11 -4 11 -10z m241 -2 c28 7 39 5 63 -11 16 -11 45 -26 65 -33 32 -12 14 -13 -149 -13 -104 1 -171 4 -154 9 18 4 45 16 60 27 34 24 66 33 75 20 3 -5 21 -4 40 1z m379 2 c0 -10 23 -8 53 5 12 5 30 -1 56 -19 21 -15 52 -31 67 -36 19 -5 -34 -9 -151 -9 l-180 -1 51 24 c28 13 55 29 58 35 9 14 46 15 46 1z m815 0 c-3 -5 -23 -9 -43 -9 l-37 2 40 7 c22 4 41 8 43 9 2 0 0 -3 -3 -9z m279 -25 l33 -35 -163 0 -164 0 38 35 c37 34 38 34 130 35 l93 0 33 -35z m99 18 c-7 -2 -21 -2 -30 0 -10 3 -4 5 12 5 17 0 24 -2 18 -5z m-2727 -28 l37 -25 -257 0 -257 0 28 25 c28 24 30 24 220 25 189 0 193 0 229 -25z m2731 -21 c-3 -3 -12 -4 -19 -1 -8 3 -5 6 6 6 11 1 17 -2 13 -5z"/>
<path d="M965 197 c-19 -35 -35 -69 -35 -75 0 -7 15 -12 35 -12 31 0 35 -3 35 -25 0 -14 5 -25 10 -25 6 0 10 8 10 18 0 10 6 24 13 31 10 11 10 14 0 18 -9 3 -13 27 -13 69 0 35 -4 64 -10 64 -5 0 -25 -29 -45 -63z m35 -27 c0 -36 -2 -40 -25 -40 l-25 0 20 40 c11 22 23 40 25 40 3 0 5 -18 5 -40z"/>
<path d="M1165 236 c-13 -19 -14 -29 -5 -45 7 -15 8 -27 0 -40 -26 -49 -4 -94 47 -93 46 0 72 64 38 92 -11 9 -13 16 -5 24 14 14 13 59 -2 74 -20 20 -56 14 -73 -12z m60 -26 c0 -29 -32 -41 -41 -16 -9 24 4 48 23 44 12 -2 18 -12 18 -28z m0 -95 c0 -23 -5 -31 -21 -33 -24 -3 -35 16 -27 48 4 14 12 20 27 18 16 -2 21 -10 21 -33z"/>
<path d="M1398 191 c-21 -38 -38 -71 -38 -74 0 -3 17 -7 38 -9 29 -2 37 -7 37 -22 0 -11 6 -21 13 -23 7 -3 12 5 12 21 0 14 5 26 12 26 9 0 9 3 0 12 -7 7 -12 39 -12 75 0 83 -15 82 -62 -6z m38 -47 c-5 -14 -46 -20 -46 -8 0 4 10 23 23 43 l22 36 3 -28 c2 -16 1 -35 -2 -43z"/>
<path d="M1570 161 c0 -122 18 -137 22 -18 l3 82 29 -82 c22 -63 34 -83 48 -83 16 0 18 10 18 100 0 121 -18 135 -22 18 l-3 -83 -30 80 c-20 52 -37 81 -48 83 -15 3 -17 -7 -17 -97z"/>
<path d="M2010 160 c0 -81 3 -100 15 -100 10 0 15 16 17 62 3 55 5 63 23 63 18 0 20 -8 23 -63 2 -34 7 -62 13 -62 6 0 9 29 7 73 l-3 72 -32 0 c-29 0 -33 3 -33 27 0 18 -5 28 -15 28 -12 0 -15 -18 -15 -100z"/>
<path d="M2540 160 c0 -81 3 -100 15 -100 11 0 15 17 17 73 l3 72 26 -70 c20 -56 30 -71 48 -73 23 -4 23 -3 18 94 -3 60 -9 100 -16 102 -7 2 -11 -22 -12 -80 l0 -83 -31 83 c-23 62 -35 82 -49 82 -17 0 -19 -9 -19 -100z"/>
<path d="M3383 252 c-32 -20 -42 -102 -18 -158 14 -33 16 -34 65 -33 l50 2 0 49 c0 47 -1 48 -30 48 -16 0 -30 -4 -30 -10 0 -5 9 -10 20 -10 22 0 25 -12 10 -41 -12 -21 -40 -25 -58 -7 -16 16 -16 120 0 136 18 18 46 14 58 -8 12 -23 30 -27 30 -7 0 34 -64 60 -97 39z"/>
<path d="M1943 230 c-5 -19 -28 -26 -75 -22 -16 2 -18 -8 -18 -73 0 -60 3 -75 15 -75 11 0 15 13 15 53 0 55 12 77 42 77 14 0 18 -11 20 -62 3 -57 5 -63 26 -66 12 -2 22 1 22 7 0 6 -4 11 -10 11 -15 0 -13 107 3 114 10 5 10 7 0 12 -7 3 -13 14 -13 25 0 25 -20 25 -27 -1z"/>
<path d="M1730 191 c-5 -11 -10 -36 -10 -56 0 -52 15 -75 50 -75 40 0 65 37 57 86 -3 20 -11 42 -18 50 -17 21 -66 18 -79 -5z m65 -56 c0 -43 -3 -50 -20 -50 -27 0 -42 46 -27 80 8 17 19 25 30 23 13 -3 17 -14 17 -53z"/>
<path d="M2150 191 c-15 -29 -12 -107 4 -120 24 -20 70 -10 74 17 4 26 -6 29 -23 5 -16 -21 -45 -10 -45 17 0 16 6 20 35 20 32 0 35 3 35 28 0 15 -5 33 -12 40 -18 18 -56 14 -68 -7z m58 -24 c3 -12 -3 -17 -22 -17 -28 0 -29 1 -20 25 8 20 38 15 42 -8z"/>
<path d="M2260 132 c0 -55 3 -73 13 -69 7 2 11 19 10 41 -3 46 12 86 32 86 8 0 15 4 15 9 0 5 -16 9 -35 8 l-35 -1 0 -74z"/>
<path d="M2350 133 c0 -42 4 -73 10 -73 6 0 10 26 10 59 0 45 4 60 16 65 27 10 34 -3 34 -65 0 -34 4 -59 10 -59 7 0 10 27 8 73 l-3 72 -42 1 -43 1 0 -74z"/>
<path d="M2700 191 c-7 -13 -7 -22 0 -26 6 -3 13 1 16 9 9 22 44 20 44 -2 0 -11 -13 -24 -32 -33 -27 -11 -33 -20 -33 -44 0 -29 1 -30 53 -31 28 -1 52 2 52 7 0 5 -5 9 -10 9 -6 0 -10 22 -9 54 1 29 -1 58 -5 65 -12 19 -64 13 -76 -8z m60 -81 c0 -24 -26 -38 -42 -22 -8 8 -8 15 2 27 18 21 40 19 40 -5z"/>
<path d="M2820 133 c0 -42 4 -73 10 -73 6 0 10 25 10 55 0 44 4 57 20 67 28 18 25 25 -10 25 l-30 0 0 -74z"/>
<path d="M2900 134 c0 -59 3 -74 15 -74 12 0 15 13 15 55 0 44 4 57 20 67 29 18 25 26 -15 26 l-35 0 0 -74z"/>
<path d="M2996 188 c-18 -26 -21 -80 -6 -109 15 -26 75 -26 90 0 27 52 0 131 -45 131 -13 0 -31 -10 -39 -22z m65 -25 c14 -37 0 -78 -26 -78 -16 0 -21 8 -23 39 -2 21 -1 44 2 52 9 23 36 16 47 -13z"/>
<path d="M3114 173 c11 -70 27 -114 39 -110 7 2 17 26 22 53 12 54 19 50 30 -14 4 -26 12 -41 18 -39 13 4 52 136 43 145 -10 10 -18 -6 -30 -59 l-12 -52 -13 57 c-16 70 -32 69 -47 -5 l-10 -54 -13 58 c-14 64 -37 81 -27 20z"/>
<path d="M3520 195 c-17 -20 -5 -32 15 -15 16 13 45 7 45 -10 0 -6 -16 -18 -35 -27 -31 -15 -36 -21 -33 -48 3 -28 6 -30 49 -32 l45 -2 -4 62 c-2 34 -9 68 -14 75 -14 17 -53 15 -68 -3z m60 -74 c0 -23 -14 -41 -31 -41 -22 0 -27 35 -6 43 20 9 37 8 37 -2z"/>
<path d="M3630 148 c0 -34 4 -68 8 -75 4 -7 26 -11 50 -10 l42 1 0 74 c0 53 -3 73 -12 70 -8 -3 -11 -21 -9 -52 3 -48 -10 -76 -35 -76 -9 0 -14 19 -16 62 -2 38 -8 63 -15 66 -10 3 -13 -13 -13 -60z"/>
<path d="M3771 197 c-6 -6 -11 -34 -11 -63 0 -58 16 -79 55 -72 29 6 32 -3 9 -23 -13 -10 -19 -10 -36 0 -24 15 -35 7 -18 -14 16 -20 54 -19 74 1 12 11 16 36 16 98 l0 82 -39 1 c-21 1 -43 -3 -50 -10z m58 -21 c17 -21 9 -77 -12 -90 -21 -13 -37 5 -37 46 0 54 23 75 49 44z"/>
<path d="M3900 191 c-15 -29 -12 -107 4 -120 8 -7 27 -11 43 -9 21 2 29 9 32 28 3 25 3 25 -18 6 -24 -22 -51 -15 -51 13 0 16 8 20 38 23 33 3 37 6 34 28 -2 14 -9 31 -14 38 -16 19 -56 14 -68 -7z m58 -24 c3 -12 -3 -17 -22 -17 -28 0 -29 1 -20 25 8 20 38 15 42 -8z"/>
<path d="M1060 140 c0 -5 16 -10 35 -10 19 0 35 5 35 10 0 6 -16 10 -35 10 -19 0 -35 -4 -35 -10z"/>
<path d="M1280 140 c0 -5 16 -10 35 -10 19 0 35 5 35 10 0 6 -16 10 -35 10 -19 0 -35 -4 -35 -10z"/>
</g>
</svg>