<svg xmlns="http://www.w3.org/2000/svg" viewBox="483.00 50.00 445.00 157.00">
<g transform="translate(0.000000,768.000000) scale(0.100000,-0.100000)" fill="currentColor" stroke="none">
<path d="M5230 7121 c0 -5 3 -11 8 -13 20 -9 50 -60 45 -79 l-6 -20 774 3 c426 2 747 1 714 -2 -42 -4 -55 -8 -42 -14 16 -8 17 -30 15 -285 l-3 -276 -2 268 c-3 215 -6 272 -17 283 -11 10 -44 14 -131 14 l-116 0 3 -345 c2 -225 0 -345 -7 -345 -7 0 -9 120 -7 345 l3 345 -141 0 -140 0 -3 -347 -2 -348 -3 348 -2 347 -140 0 -141 0 3 -345 c2 -190 0 -345 -4 -345 -5 0 -8 155 -8 345 l0 345 -275 0 -274 0 -4 -113 -3 -112 -2 113 -2 112 -26 0 c-24 0 -25 -2 -19 -44 4 -26 2 -52 -4 -64 -7 -14 -8 -23 -1 -27 13 -8 13 -62 1 -69 -5 -4 -5 -18 2 -35 8 -22 8 -39 0 -65 -7 -21 -7 -38 -2 -42 12 -7 11 -64 -1 -64 -5 0 -10 -8 -10 -17 0 -15 -2 -16 -10 -3 -6 10 -9 -25 -9 -102 0 -90 4 -118 14 -118 7 0 15 -11 17 -25 3 -13 2 -22 -3 -20 -4 3 -10 1 -14 -5 -3 -5 1 -10 9 -10 22 0 15 -38 -8 -44 -11 -3 -25 -1 -32 5 -7 6 -32 9 -56 7 -42 -3 -43 -4 -41 -38 1 -19 2 -39 2 -43 1 -4 22 -7 48 -5 39 2 50 7 60 28 9 17 13 20 13 8 0 -9 -6 -23 -13 -30 -7 -7 -22 -31 -33 -53 -12 -25 -32 -46 -54 -57 -33 -17 -34 -18 -9 -18 36 0 66 26 93 80 20 40 27 45 59 48 34 3 37 1 37 -22 0 -19 5 -26 20 -26 13 0 20 -7 20 -20 0 -33 28 -78 58 -94 24 -14 0 -15 -260 -16 l-288 0 0 -30 0 -30 2175 0 2175 0 0 30 0 30 -292 0 -293 0 32 20 c35 21 53 48 53 80 0 13 8 24 19 27 11 3 21 15 23 27 2 17 9 20 31 18 20 -3 27 1 28 15 0 16 1 16 9 -2 8 -19 8 -19 18 5 l9 25 7 -23 c6 -19 14 -22 57 -22 l49 0 0 39 c0 26 -5 41 -16 45 -25 10 -84 7 -84 -4 0 -14 -47 -13 -56 2 -4 6 1 17 11 24 16 12 18 35 19 258 1 244 1 244 25 270 24 25 24 26 4 26 -28 0 -33 18 -27 92 6 69 12 84 21 50 8 -31 19 -27 17 6 -1 15 -3 43 -4 62 l-2 35 -13 -40 c-9 -28 -13 -33 -14 -17 -1 27 -21 30 -21 2 0 -11 -5 -20 -11 -20 -17 0 -1 71 22 96 10 11 19 23 19 27 0 4 -819 7 -1820 7 -1096 0 -1820 -4 -1820 -9z m324 -23 c-5 -7 -46 -8 -132 -3 -99 5 -127 4 -133 -7 -7 -11 -11 -10 -19 2 -5 8 -10 17 -10 20 0 3 68 4 150 2 104 -2 149 -6 144 -14z m1184 12 c6 0 12 -4 12 -9 0 -5 -20 -11 -45 -13 -25 -2 -45 0 -45 4 0 5 -25 8 -55 8 -32 0 -55 -4 -55 -11 0 -5 -5 -7 -12 -3 -7 5 -27 8 -45 7 -30 0 -40 6 -29 18 2 2 62 3 133 2 70 -2 134 -3 141 -3z m296 0 c11 -3 13 -9 6 -20 -5 -8 -10 -10 -10 -4 0 8 -11 9 -35 4 -20 -4 -38 -4 -41 1 -8 13 -104 11 -104 -2 0 -7 -5 -8 -12 -2 -7 5 -28 8 -45 7 -32 -2 -41 5 -26 20 9 8 242 5 267 -4z m269 0 c28 0 37 -4 37 -17 0 -11 -3 -14 -8 -8 -10 15 -55 16 -65 2 -7 -9 -10 -9 -14 1 -6 16 -95 16 -111 0 -9 -9 -12 -9 -12 1 0 9 -8 11 -21 8 -23 -6 -51 1 -45 12 2 3 48 5 103 4 54 -1 115 -2 136 -3z m334 -7 c3 -8 -7 -10 -28 -6 -20 3 -35 0 -41 -9 -7 -10 -11 -10 -15 0 -3 7 -24 12 -53 12 -29 0 -50 -5 -53 -12 -4 -10 -7 -10 -14 0 -11 14 -64 13 -76 -3 -5 -6 -7 -4 -4 5 3 12 30 16 133 20 151 7 147 7 151 -7z m296 7 c4 0 7 -5 7 -11 0 -7 -12 -9 -34 -5 -23 5 -36 2 -40 -6 -5 -10 -7 -10 -12 0 -3 7 -26 12 -60 12 -36 0 -54 -4 -54 -12 0 -10 -2 -10 -8 0 -5 7 -22 10 -40 8 -30 -3 -54 8 -32 16 5 1 67 2 137 1 71 -2 131 -3 136 -3z m295 2 c6 -1 12 -8 12 -16 0 -12 -7 -13 -32 -6 -21 7 -36 6 -45 -1 -9 -8 -13 -8 -13 0 0 7 -21 11 -55 11 -30 0 -55 -4 -55 -10 0 -9 -51 -4 -80 8 -20 9 210 20 268 14z m376 2 c8 -3 12 -12 9 -20 -4 -11 9 -14 70 -14 57 0 76 4 81 15 3 10 19 15 46 15 38 0 40 -1 26 -16 -9 -8 -16 -24 -16 -35 0 -19 -19 -19 -1032 -17 -568 1 -967 4 -885 5 144 3 147 4 148 26 l2 22 4 -22 c4 -23 7 -23 149 -23 108 0 144 3 145 13 0 10 2 10 6 0 3 -10 72 -13 294 -13 224 0 289 3 290 13 0 10 2 10 6 0 4 -10 100 -13 434 -13 l429 0 0 25 c0 18 -5 25 -20 25 -11 0 -20 -7 -20 -15 0 -12 -16 -15 -85 -15 -64 0 -85 3 -85 13 0 9 -10 12 -30 9 -28 -4 -39 6 -23 21 8 9 36 9 57 1z m-2754 -15 c0 -8 -12 -10 -34 -6 -22 3 -37 1 -40 -6 -5 -9 -7 -9 -12 1 -3 7 -25 12 -54 12 -29 0 -51 -5 -54 -12 -5 -10 -7 -10 -12 -1 -3 7 -18 9 -40 6 -22 -4 -34 -2 -34 6 0 8 43 11 140 11 97 0 140 -3 140 -11z m300 0 c0 -8 -12 -10 -34 -6 -22 3 -37 1 -40 -6 -5 -9 -7 -9 -12 1 -6 13 -100 17 -108 4 -6 -10 -86 -2 -86 9 0 5 63 9 140 9 97 0 140 -3 140 -11z m300 0 c0 -6 -14 -9 -33 -8 -18 2 -38 0 -45 -5 -6 -4 -12 -2 -12 3 0 13 -96 15 -104 3 -6 -10 -86 -2 -86 9 0 5 63 9 140 9 93 0 140 -4 140 -11z m2080 2 c0 -11 -84 -20 -88 -9 -5 10 -102 11 -102 0 0 -10 -79 -2 -86 9 -3 5 55 9 135 9 78 0 141 -4 141 -9z m-2224 -51 c108 0 144 3 144 13 0 9 2 9 8 0 5 -9 52 -13 152 -16 80 -1 -136 -3 -480 -2 -344 0 -480 1 -302 2 247 3 322 6 323 16 0 9 2 9 6 0 3 -10 43 -13 149 -13z m-858 -7 c-26 -2 -71 -2 -100 0 -29 2 -8 3 47 3 55 0 79 -1 53 -3z m1625 -30 c-7 -2 -21 -2 -30 0 -10 3 -4 5 12 5 17 0 24 -2 18 -5z m264 1 c-3 -3 -12 -4 -19 -1 -8 3 -5 6 6 6 11 1 17 -2 13 -5z m1103 -5 c206 -1 367 -3 358 -6 -15 -4 -18 -18 -20 -96 l-2 -92 -3 93 -4 92 -59 0 c-41 0 -60 -4 -61 -12 0 -10 -2 -10 -6 0 -3 8 -27 12 -69 12 l-64 0 0 -345 c0 -190 -3 -345 -7 -345 -5 0 -7 155 -5 345 l3 345 -141 0 -140 0 -2 -347 -3 -348 -2 348 -3 348 -90 -3 c-50 -2 -90 0 -90 4 0 4 -8 9 -17 11 -10 2 -2 3 17 1 19 -2 204 -4 410 -5z m-510 -357 c3 -188 2 -342 -2 -342 -5 0 -8 153 -8 339 0 315 -1 340 -17 345 -14 4 -14 4 2 3 19 -2 20 -11 25 -345z m83 341 c-7 -2 -19 -2 -25 0 -7 3 -2 5 12 5 14 0 19 -2 13 -5z m-810 -10 c-84 -2 -222 -2 -305 0 -84 1 -16 3 152 3 168 0 236 -2 153 -3z m169 -416 c2 -152 0 -277 -4 -277 -5 0 -7 159 -6 353 1 193 3 318 5 277 2 -41 4 -200 5 -353z m1468 373 c0 -22 -4 -40 -10 -40 -11 0 -14 63 -3 73 11 12 13 8 13 -33z m-1642 3 c-82 -2 -214 -2 -295 0 -82 1 -15 3 147 3 162 0 229 -2 148 -3z m1454 -33 c-2 -22 -6 -40 -8 -40 -2 0 -4 18 -4 40 0 22 3 40 8 40 4 0 6 -18 4 -40z m101 33 c-7 -2 -19 -2 -25 0 -7 3 -2 5 12 5 14 0 19 -2 13 -5z m-3146 -75 c-3 -8 -6 -5 -6 6 -1 11 2 17 5 13 3 -3 4 -12 1 -19z m1591 5 c-82 -2 -214 -2 -295 0 -82 1 -15 3 147 3 162 0 229 -2 148 -3z m1641 -60 c0 -36 -3 -43 -9 -28 -12 28 -12 75 0 75 6 0 10 -21 9 -47z m-1641 20 c-82 -2 -214 -2 -295 0 -82 1 -15 3 147 3 162 0 229 -2 148 -3z m1510 -205 l57 -2 -57 -3 -58 -4 0 -49 0 -50 55 0 c30 0 55 -3 55 -7 0 -5 -25 -6 -55 -5 l-55 4 0 -51 0 -51 58 -2 57 -2 -57 -3 -58 -4 0 -44 0 -44 58 -4 c31 -2 8 -3 -53 -3 -60 0 -89 1 -62 3 l47 4 2 267 c1 147 4 219 5 160 l4 -108 57 -2z m-1510 175 c-82 -2 -214 -2 -295 0 -82 1 -15 3 147 3 162 0 229 -2 148 -3z m-1591 -25 c-3 -8 -6 -5 -6 6 -1 11 2 17 5 13 3 -3 4 -12 1 -19z m3170 -205 c-1 -43 -3 -8 -3 77 0 85 2 120 3 78 2 -43 2 -113 0 -155z m-3450 85 c-2 -24 -4 -7 -4 37 0 44 2 63 4 43 2 -21 2 -57 0 -80z m1835 23 c94 0 173 -3 176 -6 3 -3 -127 -4 -289 -3 -162 1 -243 4 -181 5 100 3 113 6 111 21 -1 9 0 31 2 47 2 21 4 16 6 -17 l4 -47 171 0z m-49 82 c-7 -2 -21 -2 -30 0 -10 3 -4 5 12 5 17 0 24 -2 18 -5z m227 -13 c0 -5 -17 -9 -37 -9 l-38 2 35 7 c19 4 36 8 38 9 1 0 2 -3 2 -9z m1500 -25 c0 -19 -4 -35 -10 -35 -5 0 -10 16 -10 35 0 19 5 35 10 35 6 0 10 -16 10 -35z m-1873 19 c-3 -3 -12 -4 -19 -1 -8 3 -5 6 6 6 11 1 17 -2 13 -5z m-1360 -246 c-1 -46 -3 -11 -3 77 0 88 2 125 3 83 2 -42 2 -114 0 -160z m1291 215 c-21 -2 -55 -2 -75 0 -21 2 -4 4 37 4 41 0 58 -2 38 -4z m442 0 c0 -5 -33 -7 -72 -5 -125 4 -137 9 -30 10 56 1 102 -1 102 -5z m1500 -88 c0 -25 -4 -45 -10 -45 -11 0 -14 73 -3 83 11 12 13 8 13 -38z m-1495 -5 c0 -13 -39 -15 -293 -15 l-292 0 290 2 c174 2 290 7 290 13 0 5 -39 11 -87 13 l-88 3 90 0 c73 -1 90 -4 90 -16z m3 -56 c0 -14 -4 -21 -7 -15 -5 7 -101 12 -296 14 l-290 2 293 3 c186 1 292 6 292 12 0 6 2 10 4 10 2 0 4 -12 4 -26z m-1943 -7 l70 -3 -72 -2 -73 -2 0 -76 0 -76 70 4 c39 2 70 0 70 -4 0 -4 -31 -8 -69 -8 -58 0 -70 -3 -74 -17 -3 -10 -5 34 -6 97 0 63 3 110 7 103 4 -7 38 -14 77 -16z m-125 -50 c0 -10 -5 -17 -12 -15 -11 4 -14 25 -9 56 2 13 21 -23 21 -41z m3560 7 c0 -21 -4 -33 -10 -29 -5 3 -10 19 -10 36 0 16 5 29 10 29 6 0 10 -16 10 -36z m-1642 9 c-82 -2 -214 -2 -295 0 -82 1 -15 3 147 3 162 0 229 -2 148 -3z m15 -30 c-72 -2 -194 -2 -270 0 -76 1 -16 3 132 3 149 0 211 -2 138 -3z m1567 -108 c0 -58 -3 -105 -7 -105 -5 0 -7 47 -5 105 2 58 5 105 8 105 2 0 4 -47 4 -105z m-1837 68 c-35 -2 -91 -2 -125 0 -35 2 -7 3 62 3 69 0 97 -1 63 -3z m124 -13 c4 -14 14 -20 34 -20 16 0 29 5 29 13 0 9 2 9 8 0 5 -8 44 -13 107 -16 55 -1 -33 -3 -195 -3 -162 0 -226 2 -142 3 122 3 152 6 152 18 0 7 -8 16 -17 18 -16 4 -16 5 0 6 11 1 21 -7 24 -19z m216 13 c-35 -2 -91 -2 -125 0 -35 2 -7 3 62 3 69 0 97 -1 63 -3z m1557 -42 c0 -55 -14 -59 -18 -5 -2 26 2 44 8 44 5 0 10 -18 10 -39z m-3560 3 c0 -8 -4 -14 -10 -14 -5 0 -10 9 -10 21 0 11 5 17 10 14 6 -3 10 -13 10 -21z m1440 11 c0 -8 -4 -15 -10 -15 -5 0 -10 7 -10 15 0 8 5 15 10 15 6 0 10 -7 10 -15z m17 -107 c-2 -18 -4 -4 -4 32 0 36 2 50 4 33 2 -18 2 -48 0 -65z m196 65 c-7 -2 -21 -2 -30 0 -10 3 -4 5 12 5 17 0 24 -2 18 -5z m134 1 c-3 -3 -12 -4 -19 -1 -8 3 -5 6 6 6 11 1 17 -2 13 -5z m86 -1 c-13 -2 -35 -2 -50 0 -16 2 -5 4 22 4 28 0 40 -2 28 -4z m191 -10 c5 -13 4 -13 -8 -4 -7 6 -20 9 -29 5 -8 -3 -17 -2 -20 3 -3 4 8 9 23 10 18 1 30 -4 34 -14z m-74 3 c0 -3 -4 -8 -10 -11 -5 -3 -10 -1 -10 4 0 6 5 11 10 11 6 0 10 -2 10 -4z m-1922 -69 c12 -3 10 -5 -5 -6 -19 -1 -23 4 -22 27 1 22 2 23 6 5 2 -12 12 -24 21 -26z m1850 36 c-82 -2 -214 -2 -295 0 -82 1 -15 3 147 3 162 0 229 -2 148 -3z m1642 -23 c0 -16 -4 -30 -10 -30 -11 0 -14 43 -3 53 11 12 13 8 13 -23z m-3230 0 c0 -5 -5 -10 -11 -10 -5 0 -7 5 -4 10 3 6 8 10 11 10 2 0 4 -4 4 -10z m1630 -23 c58 -1 -29 -4 -192 -5 -164 -1 -298 1 -298 6 0 6 226 6 490 -1z m809 -4 c0 -11 -3 -13 -6 -5 -2 6 -9 12 -15 12 -6 0 -8 -7 -4 -15 3 -8 1 -15 -4 -15 -5 0 -11 8 -13 18 -4 13 -5 11 -6 -5 l-1 -23 -612 2 -613 3 608 2 c599 3 607 3 607 23 0 16 7 20 30 20 22 0 30 -5 29 -17z m-1288 -31 c-7 -2 -18 1 -23 6 -8 8 -4 9 13 5 13 -4 18 -8 10 -11z m-1408 1 c-7 -2 -19 -2 -25 0 -7 3 -2 5 12 5 14 0 19 -2 13 -5z m195 0 c-10 -2 -26 -2 -35 0 -10 3 -2 5 17 5 19 0 27 -2 18 -5z m262 -18 c-13 -14 -33 -24 -44 -24 -20 2 -20 2 0 6 12 2 30 13 40 24 9 10 19 19 22 19 3 0 -5 -11 -18 -25z m2938 18 c-21 -2 -57 -2 -80 0 -24 2 -7 4 37 4 44 0 63 -2 43 -4z m-3133 -13 c3 -6 -1 -7 -9 -4 -18 7 -21 14 -7 14 6 0 13 -4 16 -10z m1064 -42 c306 -1 525 -4 486 -5 -39 -2 -73 -9 -77 -16 -6 -9 -8 -9 -8 1 0 9 -102 12 -475 12 -502 0 -508 1 -545 46 -8 9 3 5 24 -10 l39 -26 556 -2z m1381 41 c-74 -50 -66 -49 -449 -49 -278 0 -360 -3 -364 -12 -3 -8 -6 -6 -6 5 -1 16 23 17 367 17 l367 0 40 24 c39 24 75 36 45 15z m251 -6 c13 -16 12 -17 -3 -4 -10 7 -18 15 -18 17 0 8 8 3 21 -13z m199 13 c0 -2 -7 -9 -15 -16 -13 -11 -14 -10 -9 4 5 14 24 23 24 12z m-3040 -13 c-8 -3 -26 -15 -40 -27 l-25 -21 24 28 c14 15 32 27 40 26 14 0 14 -1 1 -6z m70 -23 c18 -12 2 -12 -25 0 -13 6 -15 9 -5 9 8 0 22 -4 30 -9z m133 3 c-7 -2 -21 -2 -30 0 -10 3 -4 5 12 5 17 0 24 -2 18 -5z m274 1 c-3 -3 -12 -4 -19 -1 -8 3 -5 6 6 6 11 1 17 -2 13 -5z m2251 -1 c-10 -2 -26 -2 -35 0 -10 3 -2 5 17 5 19 0 27 -2 18 -5z m255 0 c-13 -2 -33 -2 -45 0 -13 2 -3 4 22 4 25 0 35 -2 23 -4z m194 1 c-3 -3 -12 -4 -19 -1 -8 3 -5 6 6 6 11 1 17 -2 13 -5z m51 -20 c14 -10 22 -25 21 -42 -2 -26 -2 -26 -6 -3 -4 19 -7 21 -14 10 -6 -10 -9 -8 -9 11 0 19 -3 21 -9 11 -5 -8 -7 -21 -4 -30 4 -13 3 -14 -5 -2 -7 10 -7 21 -1 32 6 12 5 19 -4 22 -6 3 -7 6 -2 6 6 1 21 -6 33 -15z m-2941 0 c-3 -3 -12 -4 -19 -1 -8 3 -5 6 6 6 11 1 17 -2 13 -5z m71 -1 c-10 -2 -28 -2 -40 0 -13 2 -5 4 17 4 22 1 32 -1 23 -4z m179 -9 c2 -6 -3 -11 -10 -11 -8 0 -14 6 -14 14 0 15 19 12 24 -3z m2084 -10 c-32 -41 -29 -113 7 -146 15 -14 34 -28 42 -31 8 -3 -482 -6 -1090 -6 -1010 0 -1102 1 -1073 15 40 20 67 74 59 119 l-6 33 287 -2 c159 0 290 -4 293 -8 7 -9 150 -17 185 -10 14 2 24 10 22 16 -3 7 9 12 29 13 19 1 34 -3 34 -8 0 -5 34 -9 76 -9 47 0 73 4 69 10 -10 17 5 11 28 -10 20 -19 22 -20 29 -3 6 15 7 15 7 -4 1 -22 5 -23 76 -23 57 0 75 3 75 14 0 10 16 13 68 12 70 -2 95 2 88 13 -3 3 149 8 337 9 279 3 345 6 357 18 23 22 23 16 1 -12z m92 19 c-7 -2 -19 -2 -25 0 -7 3 -2 5 12 5 14 0 19 -2 13 -5z m175 0 c-10 -2 -26 -2 -35 0 -10 3 -2 5 17 5 19 0 27 -2 18 -5z m55 0 c-7 -2 -19 -2 -25 0 -7 3 -2 5 12 5 14 0 19 -2 13 -5z m-3020 -10 c-7 -2 -13 -13 -13 -23 0 -10 6 -21 13 -23 6 -3 -3 -6 -20 -6 -30 -1 -33 2 -33 29 0 27 3 30 33 29 17 0 26 -3 20 -6z m3367 -24 c0 -38 -24 -35 -28 4 -2 19 1 27 12 27 11 0 16 -10 16 -31z m-3310 17 c0 -2 -8 -10 -17 -17 -16 -13 -17 -12 -4 4 13 16 21 21 21 13z m1003 -13 c-46 -2 -120 -2 -165 0 -46 1 -9 3 82 3 91 0 128 -2 83 -3z m1994 1 c-3 -3 -12 -4 -19 -1 -8 3 -5 6 6 6 11 1 17 -2 13 -5z m-2637 -8 c0 -2 -8 -10 -17 -17 -16 -13 -17 -12 -4 4 13 16 21 21 21 13z m-184 -18 c5 -7 3 -8 -6 -3 -7 4 -16 2 -21 -6 -7 -11 -9 -10 -9 4 0 19 25 23 36 5z m2638 -4 c3 -8 2 -12 -4 -9 -6 3 -10 10 -10 16 0 14 7 11 14 -7z m166 12 c0 -3 -4 -8 -10 -11 -5 -3 -10 -1 -10 4 0 6 5 11 10 11 6 0 10 -2 10 -4z m77 -18 c-3 -8 -6 -5 -6 6 -1 11 2 17 5 13 3 -3 4 -12 1 -19z m-3077 2 c0 -5 -2 -10 -4 -10 -3 0 -8 5 -11 10 -3 6 -1 10 4 10 6 0 11 -4 11 -10z m2707 -22 c-3 -8 -6 -5 -6 6 -1 11 2 17 5 13 3 -3 4 -12 1 -19z m-2750 -20 c-3 -7 -5 -2 -5 12 0 14 2 19 5 13 2 -7 2 -19 0 -25z m237 17 c-4 -8 -11 -15 -16 -15 -6 0 -5 6 2 15 7 8 14 15 16 15 2 0 1 -7 -2 -15z m2682 -12 c-4 -4 -12 -1 -19 7 -9 10 -9 11 1 6 7 -4 12 -2 13 6 0 11 2 11 6 0 3 -7 2 -16 -1 -19z m192 2 c-3 -3 -9 2 -12 12 -6 14 -5 15 5 6 7 -7 10 -15 7 -18z m-134 8 c-5 -5 -12 -12 -16 -18 -4 -6 -8 -2 -8 8 0 9 7 17 17 17 9 0 12 -3 7 -7z m64 -7 c-7 -8 -15 -12 -17 -11 -5 6 10 25 20 25 5 0 4 -6 -3 -14z m-238 -6 c0 -5 -5 -10 -11 -10 -5 0 -7 5 -4 10 3 6 8 10 11 10 2 0 4 -4 4 -10z m-15 -28 c-3 -3 -11 0 -18 7 -9 10 -8 11 6 5 10 -3 15 -9 12 -12z m-2760 -22 l20 -25 -22 19 c-13 11 -23 24 -23 29 0 6 1 8 3 6 1 -2 11 -15 22 -29z m3295 17 c0 -2 -10 -12 -22 -23 l-23 -19 19 23 c18 21 26 27 26 19z m-3013 -25 c45 -2 90 1 101 7 15 8 23 7 32 -4 15 -18 34 -20 24 -3 -4 7 -3 8 5 4 6 -4 9 -11 6 -16 -3 -5 3 -13 12 -19 13 -7 -37 -10 -172 -11 l-190 0 33 20 c17 11 32 25 32 31 0 7 6 8 18 3 9 -5 54 -10 99 -12z m2698 -2 c49 0 97 5 105 10 11 6 22 3 40 -14 14 -13 34 -26 45 -29 11 -3 -70 -5 -180 -6 l-200 -1 31 19 c18 11 35 25 39 31 5 8 10 9 18 1 6 -6 49 -11 102 -11z m-2409 -5 c-11 -8 -25 -15 -30 -15 -6 1 0 7 14 15 32 19 40 18 16 0z m2159 -13 c-3 -3 -11 0 -18 7 -9 10 -8 11 6 5 10 -3 15 -9 12 -12z"/>
<path d="M5351 6174 c0 -11 3 -14 6 -6 3 7 2 16 -1 19 -3 4 -6 -2 -5 -13z"/>
<path d="M8860 6170 c0 -19 42 -95 59 -105 25 -16 60 -24 66 -15 2 4 -9 10 -25 13 -22 5 -35 17 -51 49 -23 46 -49 76 -49 58z"/>
<path d="M6762 5848 c-7 -7 -12 -20 -12 -30 0 -10 -5 -18 -12 -18 -9 0 -9 -3 0 -12 7 -7 12 -38 12 -70 0 -32 4 -58 10 -58 6 0 10 26 10 59 0 38 5 61 13 65 10 5 10 7 0 12 -18 8 -16 31 3 38 8 3 12 10 9 16 -8 13 -18 13 -33 -2z"/>
<path d="M6513 5791 c-18 -33 -33 -64 -33 -70 0 -6 16 -11 35 -11 31 0 35 -3 35 -25 0 -14 5 -25 10 -25 6 0 10 11 10 25 0 14 5 25 12 25 9 0 9 3 0 12 -7 7 -12 38 -12 70 0 76 -15 75 -57 -1z m37 -21 c0 -36 -2 -40 -26 -40 l-25 0 22 40 c13 22 24 40 26 40 2 0 3 -18 3 -40z"/>
</g>
</svg>