<svg xmlns="http://www.w3.org/2000/svg" viewBox="942.20 525.50 443.80 247.30">
<g transform="translate(0.000000,768.000000) scale(0.100000,-0.100000)" fill="currentColor" stroke="none">
<path d="M9956 2345 c-22 -23 -29 -57 -24 -117 6 -57 25 -78 69 -78 30 0 47 16 51 50 4 29 -19 38 -24 9 -4 -31 -32 -47 -53 -29 -23 19 -17 138 8 154 15 9 22 7 37 -12 25 -31 43 -25 27 8 -15 31 -66 39 -91 15z"/>
<path d="M10186 2338 c-10 -14 -16 -44 -16 -83 0 -73 18 -105 60 -105 35 0 60 23 60 56 0 33 -13 30 -27 -6 -12 -32 -33 -39 -52 -16 -19 23 -10 136 12 150 15 9 21 6 37 -14 23 -30 38 -20 22 15 -16 34 -73 36 -96 3z"/>
<path d="M10390 2255 l0 -105 51 0 c60 0 65 23 6 28 -35 3 -37 5 -37 38 0 33 1 34 41 34 24 0 38 4 34 10 -3 6 -22 10 -41 10 -34 0 -35 1 -32 33 3 29 6 32 41 35 55 5 45 22 -13 22 l-50 0 0 -105z"/>
<path d="M10500 2351 c0 -5 12 -11 28 -13 l27 -3 1 -90 c2 -123 22 -126 26 -3 3 88 4 93 26 96 48 7 19 22 -43 22 -36 0 -65 -4 -65 -9z"/>
<path d="M10702 2333 c-32 -46 -63 -113 -57 -123 3 -6 19 -10 35 -10 22 0 29 -5 32 -22 4 -31 28 -35 28 -5 0 14 6 27 13 30 10 4 10 7 0 18 -8 7 -13 39 -13 76 0 35 -4 63 -9 63 -5 0 -18 -12 -29 -27z m10 -68 c-3 -26 -9 -35 -23 -35 -18 0 -18 2 -2 35 9 19 19 35 23 35 3 0 4 -16 2 -35z"/>
<path d="M10810 2291 c-22 -38 -40 -74 -40 -80 0 -6 18 -11 40 -11 36 0 40 -2 40 -25 0 -14 5 -25 10 -25 6 0 10 11 10 25 0 14 5 25 10 25 6 0 10 7 10 15 0 8 -4 15 -10 15 -6 0 -10 28 -10 65 0 36 -4 65 -10 65 -5 0 -27 -31 -50 -69z m40 -21 c0 -36 -2 -40 -25 -40 l-25 0 20 40 c11 22 23 40 25 40 3 0 5 -18 5 -40z"/>
<path d="M10956 2352 c-3 -5 -14 -46 -26 -93 -12 -46 -23 -90 -25 -96 -3 -7 2 -13 10 -13 7 0 16 14 20 31 6 27 10 30 38 27 24 -2 33 -9 37 -28 3 -14 13 -26 22 -28 15 -3 15 3 -2 60 -10 35 -24 82 -30 106 -10 39 -31 55 -44 34z m38 -94 c6 -25 4 -28 -19 -28 -24 0 -26 2 -19 38 12 66 20 64 38 -10z"/>
<path d="M11079 2344 c-18 -22 -23 -133 -7 -164 10 -17 23 -26 46 -28 42 -4 62 12 62 49 0 34 -17 39 -22 8 -4 -31 -32 -46 -53 -29 -24 20 -17 138 8 154 15 9 22 7 34 -11 19 -28 33 -29 33 -3 0 37 -75 55 -101 24z"/>
<path d="M10080 2236 c0 -12 10 -16 36 -16 45 0 42 24 -4 28 -24 2 -32 -1 -32 -12z"/>
<path d="M12968 1792 c-26 -2 -38 -8 -38 -19 0 -11 6 -14 24 -9 21 5 36 -7 36 -30 0 -2 -126 -4 -280 -4 -217 0 -280 -3 -280 -12 0 -7 -2 -49 -3 -93 l-2 -80 298 -3 c198 -1 297 1 297 8 0 27 49 109 86 145 l41 40 -68 -3 c-58 -4 -69 -2 -69 12 0 18 0 18 58 7 41 -8 42 -8 42 18 0 26 -2 27 -52 27 -29 -1 -70 -2 -90 -4z"/>
<path d="M10954 1769 c-3 -5 6 -9 20 -9 31 0 34 6 6 13 -11 3 -23 1 -26 -4z"/>
<path d="M11010 1770 c0 -5 5 -10 10 -10 6 0 10 5 10 10 0 6 -4 10 -10 10 -5 0 -10 -4 -10 -10z"/>
<path d="M10070 1751 c0 -15 14 -21 83 -34 146 -28 180 -29 292 -12 58 9 108 15 111 12 3 -2 -35 -11 -83 -19 l-88 -16 163 -1 163 -1 -3 23 c-3 20 -8 22 -73 21 -38 0 -64 1 -57 4 6 2 12 12 12 23 0 18 -10 19 -260 19 -247 0 -260 -1 -260 -19z"/>
<path d="M9890 1737 c0 -10 9 -14 25 -13 23 1 37 16 16 16 -5 0 -16 3 -25 6 -10 4 -16 1 -16 -9z"/>
<path d="M10967 1743 c-4 -3 -7 -12 -7 -20 0 -11 73 -13 395 -13 257 0 395 4 395 10 0 6 -126 10 -359 10 -229 0 -362 4 -366 10 -7 11 -48 14 -58 3z"/>
<path d="M11880 1735 c0 -10 -16 -15 -62 -18 -35 -2 61 -3 212 -3 151 0 249 1 218 3 -42 3 -58 8 -58 18 0 13 -26 15 -155 15 -129 0 -155 -2 -155 -15z"/>
<path d="M10935 1731 c-3 -6 -47 -8 -100 -6 -56 3 -96 1 -100 -5 -4 -6 34 -10 104 -10 92 0 111 3 111 15 0 17 -6 19 -15 6z"/>
<path d="M9956 1723 c-3 -4 -6 -15 -6 -25 0 -17 11 -18 152 -18 83 0 149 2 147 4 -17 16 -281 51 -293 39z"/>
<path d="M13155 1718 c-38 -21 -77 -63 -101 -110 -21 -42 -24 -61 -24 -158 l0 -110 35 0 35 0 0 103 0 103 40 -4 40 -4 0 -60 0 -60 -35 4 -35 4 0 -43 0 -44 101 2 c55 1 101 0 103 -2 20 -28 58 -85 84 -128 32 -53 32 -55 32 -182 l0 -129 34 0 34 0 4 104 c2 58 2 168 0 245 l-4 141 -189 0 c-119 0 -189 4 -189 10 0 6 18 10 40 10 l40 0 1 78 c0 42 4 100 7 127 7 52 -6 115 -23 115 -5 0 -19 -6 -30 -12z m-53 -97 l-4 -50 43 -4 44 -4 -45 1 c-45 1 -45 1 -48 40 -3 35 2 66 11 66 2 0 2 -22 -1 -49z m86 -32 c-7 -5 -26 -8 -43 -8 -29 2 -29 2 5 8 29 5 36 11 38 34 3 25 1 27 -35 28 l-38 2 40 6 c40 6 40 6 43 -28 2 -20 -2 -37 -10 -42z m-108 -140 c0 -92 -1 -99 -20 -99 -19 0 -20 7 -20 98 0 103 3 114 26 105 11 -4 14 -28 14 -104z m399 -171 c-1 -39 -2 -40 -8 -13 -4 18 -13 29 -22 27 -9 -1 -7 3 5 13 11 8 21 15 23 15 2 0 2 -19 2 -42z m8 -160 c-2 -18 -4 -4 -4 32 0 36 2 50 4 33 2 -18 2 -48 0 -65z"/>
<path d="M9855 1712 c-9 -9 -5 -242 4 -242 5 0 7 9 4 20 -5 18 0 20 36 20 l41 0 0 100 c0 55 -3 100 -7 101 -5 0 -22 2 -40 3 -18 2 -35 1 -38 -2z"/>
<path d="M12310 1525 l0 -185 50 0 50 0 0 185 0 185 -50 0 -50 0 0 -185z"/>
<path d="M10720 1580 l0 -120 115 0 115 0 0 120 0 120 -115 0 -115 0 0 -120z"/>
<path d="M10960 1580 l0 -120 285 0 284 0 4 98 3 97 2 -97 2 -98 110 0 110 0 0 120 0 120 -400 0 -400 0 0 -120z m387 -67 c-2 -27 -3 -5 -3 47 0 52 1 74 3 48 2 -27 2 -69 0 -95z m-227 107 c0 -5 -3 -9 -7 -9 -20 3 -66 -3 -55 -8 6 -2 10 -9 6 -14 -9 -15 -24 -10 -24 7 0 30 -28 -11 -33 -47 -4 -32 -4 -31 -5 8 -1 23 -5 48 -8 57 -5 14 4 16 60 16 37 0 66 -4 66 -10z m64 -38 l-1 -48 58 0 59 0 0 42 c0 39 -2 42 -22 37 -13 -3 -20 -2 -15 2 4 5 16 10 27 12 18 3 20 -3 20 -52 l0 -55 -70 0 -70 0 0 55 c0 30 4 55 8 55 4 0 7 -22 6 -48z m66 38 c0 -6 -11 -10 -25 -10 -14 0 -25 4 -25 8 0 4 11 9 25 10 14 1 25 -3 25 -8z m260 -45 l0 -52 -65 -2 -65 -1 0 53 0 54 65 0 65 0 0 -52z m190 42 c0 -5 -25 -7 -55 -5 l-55 3 0 -42 c0 -24 4 -43 9 -43 6 0 7 16 4 35 -3 20 -1 35 4 35 6 0 10 -8 10 -17 0 -40 4 -53 14 -53 6 0 8 8 5 18 -5 15 -4 15 6 2 15 -18 44 -19 41 -2 -2 7 2 12 7 12 6 0 11 -8 12 -17 1 -10 4 7 8 37 l7 55 1 -57 2 -58 -70 0 -70 0 0 48 c0 27 3 51 6 54 9 10 114 5 114 -5z m-580 -57 c0 -36 -2 -40 -25 -38 -14 1 -25 6 -25 11 0 5 9 7 20 4 17 -4 20 0 20 29 0 19 2 34 5 34 3 0 5 -18 5 -40z m550 25 c0 -6 -7 -12 -15 -12 -8 0 -15 6 -15 12 0 6 7 12 15 12 8 0 15 -6 15 -12z m27 -7 c-3 -8 -6 -5 -6 6 -1 11 2 17 5 13 3 -3 4 -12 1 -19z m-637 -48 c0 -5 -5 -10 -11 -10 -5 0 -7 5 -4 10 3 6 8 10 11 10 2 0 4 -4 4 -10z"/>
<path d="M11390 1570 c0 -23 5 -40 11 -40 6 0 9 7 5 15 -3 8 -1 15 4 15 6 0 10 -6 10 -13 0 -8 7 -14 15 -14 10 0 15 10 14 31 0 17 -3 25 -6 19 -11 -28 -39 -11 -34 20 0 4 -3 7 -9 7 -5 0 -10 -18 -10 -40z"/>
<path d="M11490 1588 c0 -17 -3 -19 -9 -10 -6 10 -10 9 -14 -7 -3 -12 -1 -24 4 -27 5 -3 9 1 10 8 0 7 4 4 9 -7 7 -15 9 -10 9 23 1 23 -1 42 -4 42 -3 0 -5 -10 -5 -22z"/>
<path d="M11770 1555 l0 -145 200 0 199 0 3 -91 3 -91 40 58 c22 33 46 60 53 60 6 1 17 2 22 3 6 0 10 24 10 51 l0 50 -250 0 -250 0 0 105 0 105 170 0 170 0 0 -100 0 -100 80 0 80 0 0 120 0 120 -265 0 -265 0 0 -145z"/>
<path d="M9950 1620 l0 -50 380 0 380 0 0 50 0 50 -380 0 -380 0 0 -50z"/>
<path d="M11812 1553 c1 -82 2 -90 8 -48 l7 50 1 -47 c3 -87 22 -51 24 45 l2 92 6 -95 6 -95 4 95 4 95 6 -95 6 -95 2 98 2 97 -40 0 -40 0 2 -97z"/>
<path d="M11904 1555 c0 -55 1 -76 3 -47 2 29 2 74 0 100 -2 26 -3 2 -3 -53z"/>
<path d="M11922 1553 l2 -98 6 95 6 95 5 -95 5 -95 2 98 c2 80 -1 97 -13 97 -12 0 -15 -17 -13 -97z"/>
<path d="M11964 1555 c0 -55 1 -76 3 -47 2 29 2 74 0 100 -2 26 -3 2 -3 -53z"/>
<path d="M11984 1555 c0 -55 1 -76 3 -47 2 29 2 74 0 100 -2 26 -3 2 -3 -53z"/>
<path d="M12004 1555 c0 -55 1 -76 3 -47 2 29 2 74 0 100 -2 26 -3 2 -3 -53z"/>
<path d="M12024 1555 c0 -55 1 -76 3 -47 2 29 2 74 0 100 -2 26 -3 2 -3 -53z"/>
<path d="M12044 1555 c0 -55 1 -76 3 -47 2 29 2 74 0 100 -2 26 -3 2 -3 -53z"/>
<path d="M12064 1555 c0 -55 1 -76 3 -47 2 29 2 74 0 100 -2 26 -3 2 -3 -53z"/>
<path d="M12084 1555 c0 -55 1 -76 3 -47 2 29 2 74 0 100 -2 26 -3 2 -3 -53z"/>
<path d="M12102 1553 l2 -98 6 95 6 95 5 -95 5 -95 2 98 c2 80 -1 97 -13 97 -12 0 -15 -17 -13 -97z"/>
<path d="M9950 1529 c0 -29 -6 -33 -47 -29 -17 1 -23 -4 -23 -19 0 -12 -6 -21 -15 -21 -13 0 -15 -38 -15 -281 l0 -280 33 3 32 3 3 124 c1 69 7 130 13 137 6 7 27 14 47 16 l37 3 0 185 0 185 -32 1 c-30 1 -33 -2 -33 -27z m-40 -69 c0 -5 -2 -10 -4 -10 -3 0 -8 5 -11 10 -3 6 -1 10 4 10 6 0 11 -4 11 -10z"/>
<path d="M10030 1425 l0 -135 240 0 c185 0 240 3 240 13 0 8 4 7 10 -3 5 -8 10 -39 10 -67 0 -29 5 -53 10 -53 6 0 10 5 10 12 0 9 3 9 12 0 7 -7 40 -12 80 -12 l68 0 0 105 0 105 -75 0 -74 0 -4 -92 -3 -93 -2 98 -2 97 80 0 80 0 0 80 0 79 -340 1 -340 0 0 -135z m497 53 c-3 -8 -6 -5 -6 6 -1 11 2 17 5 13 3 -3 4 -12 1 -19z m30 -30 c-3 -8 -6 -5 -6 6 -1 11 2 17 5 13 3 -3 4 -12 1 -19z"/>
<path d="M9473 1500 c0 -25 2 -35 4 -22 2 12 2 32 0 45 -2 12 -4 2 -4 -23z"/>
<path d="M12420 1442 c0 -55 4 -92 12 -100 9 -9 9 -12 0 -12 -10 0 -12 -32 -10 -127 l3 -128 295 0 295 0 3 228 2 227 -300 0 -300 0 0 -88z m193 61 c-22 -4 -23 -9 -23 -99 l0 -94 130 0 130 0 0 95 0 94 -87 4 -88 3 93 2 92 2 0 -105 0 -105 -139 0 -140 0 -3 105 -3 105 30 -1 c24 -1 25 -3 8 -6z m103 -30 c13 -17 13 -17 14 0 0 14 9 17 55 17 l55 0 0 -85 0 -85 -55 0 -55 0 0 60 c0 36 -4 60 -11 60 -7 0 -10 -21 -7 -57 l3 -58 -57 -3 -58 -3 0 86 0 85 51 0 c38 0 55 -5 65 -17z"/>
<path d="M10727 1423 c-3 -15 -4 -75 -4 -133 l2 -105 53 -3 52 -3 0 135 0 136 -49 0 c-45 0 -49 -2 -54 -27z"/>
<path d="M10847 1443 c-4 -3 -7 -64 -7 -135 l0 -128 55 0 56 0 -2 135 -1 135 -47 0 c-26 0 -51 -3 -54 -7z"/>
<path d="M10960 1315 l0 -135 50 0 49 0 4 133 3 132 2 -132 2 -133 55 0 55 0 0 135 0 135 -110 0 -110 0 0 -135z"/>
<path d="M11190 1315 l0 -135 56 0 55 0 -3 100 c-2 55 0 100 5 100 4 0 7 -45 7 -100 l0 -100 50 0 50 0 0 135 0 135 -49 0 c-35 0 -51 -4 -55 -16 -3 -9 -4 -20 -1 -24 3 -5 1 -11 -5 -15 -6 -4 -10 6 -10 24 0 30 -1 31 -50 31 l-50 0 0 -135z"/>
<path d="M11420 1315 l0 -135 55 0 55 0 0 135 0 135 -55 0 -55 0 0 -135z"/>
<path d="M11540 1315 l0 -135 50 0 50 0 0 135 0 135 -50 0 -50 0 0 -135z"/>
<path d="M11650 1315 l0 -135 50 0 c30 0 50 4 50 11 0 8 4 8 13 2 6 -6 65 -11 130 -12 l117 -1 0 110 0 110 -120 0 -120 0 0 -66 c0 -41 -4 -63 -10 -59 -5 3 -10 44 -10 91 l0 84 -50 0 -50 0 0 -135z m223 38 c-13 -2 -33 -2 -45 0 -13 2 -3 4 22 4 25 0 35 -2 23 -4z m5 -20 c-10 -2 -28 -2 -40 0 -13 2 -5 4 17 4 22 1 32 -1 23 -4z m0 -20 c-10 -2 -28 -2 -40 0 -13 2 -5 4 17 4 22 1 32 -1 23 -4z m0 -20 c-10 -2 -28 -2 -40 0 -13 2 -5 4 17 4 22 1 32 -1 23 -4z m0 -20 c-10 -2 -28 -2 -40 0 -13 2 -5 4 17 4 22 1 32 -1 23 -4z m-108 -17 c0 -3 -4 -8 -10 -11 -5 -3 -10 -1 -10 4 0 6 5 11 10 11 6 0 10 -2 10 -4z m108 -3 c-10 -2 -28 -2 -40 0 -13 2 -5 4 17 4 22 1 32 -1 23 -4z m0 -30 c-10 -2 -28 -2 -40 0 -13 2 -5 4 17 4 22 1 32 -1 23 -4z m-5 -20 c-13 -2 -33 -2 -45 0 -13 2 -3 4 22 4 25 0 35 -2 23 -4z"/>
<path d="M13435 1410 c-4 -6 7 -10 25 -10 18 0 29 4 25 10 -3 6 -15 10 -25 10 -10 0 -22 -4 -25 -10z"/>
<path d="M12020 1290 l0 -109 68 2 67 2 3 108 3 107 -71 0 -70 0 0 -110z m108 63 c-10 -2 -28 -2 -40 0 -13 2 -5 4 17 4 22 1 32 -1 23 -4z m0 -20 c-10 -2 -28 -2 -40 0 -13 2 -5 4 17 4 22 1 32 -1 23 -4z m0 -20 c-10 -2 -28 -2 -40 0 -13 2 -5 4 17 4 22 1 32 -1 23 -4z m0 -20 c-10 -2 -28 -2 -40 0 -13 2 -5 4 17 4 22 1 32 -1 23 -4z m0 -20 c-10 -2 -28 -2 -40 0 -13 2 -5 4 17 4 22 1 32 -1 23 -4z m0 -20 c-10 -2 -28 -2 -40 0 -13 2 -5 4 17 4 22 1 32 -1 23 -4z m0 -30 c-10 -2 -28 -2 -40 0 -13 2 -5 4 17 4 22 1 32 -1 23 -4z m0 -20 c-10 -2 -28 -2 -40 0 -13 2 -5 4 17 4 22 1 32 -1 23 -4z"/>
<path d="M12248 1313 c-8 -10 -29 -41 -46 -69 l-32 -51 0 -141 0 -141 -77 -4 -78 -3 87 -2 c61 -1 88 2 91 11 3 10 9 10 26 0 12 -8 57 -13 111 -13 l90 0 0 80 0 80 -80 -1 c-86 -1 -96 -7 -102 -54 -2 -24 -8 -31 -28 -32 -25 -3 -25 -3 -2 7 13 6 22 18 22 32 1 26 22 58 39 58 8 0 11 39 11 130 0 72 -4 130 -8 130 -5 0 -16 -8 -24 -17z"/>
<path d="M12294 1200 c0 -74 1 -105 3 -67 2 37 2 97 0 135 -2 37 -3 6 -3 -68z"/>
<path d="M12310 1200 l0 -130 50 0 50 0 0 130 0 130 -50 0 -50 0 0 -130z"/>
<path d="M13030 1200 l0 -130 35 0 35 0 0 130 0 130 -35 0 -35 0 0 -130z"/>
<path d="M13110 1200 l0 -130 75 0 75 0 0 130 0 130 -75 0 -75 0 0 -130z m126 58 c3 -4 -18 -8 -45 -8 -29 0 -51 5 -51 10 0 13 89 10 96 -2z"/>
<path d="M13274 1200 c0 -74 1 -105 3 -67 2 37 2 97 0 135 -2 37 -3 6 -3 -68z"/>
<path d="M13290 1205 c0 -99 3 -130 15 -141 8 -9 15 -29 15 -45 0 -16 5 -29 10 -29 6 0 10 -5 10 -11 0 -5 -4 -7 -10 -4 -6 4 -10 -10 -10 -34 l0 -41 50 0 50 0 0 123 0 124 -54 88 c-30 49 -59 91 -65 93 -8 3 -11 -35 -11 -123z"/>
<path d="M10030 1230 c0 -27 5 -50 10 -50 6 0 10 23 10 50 0 28 -4 50 -10 50 -5 0 -10 -22 -10 -50z"/>
<path d="M10060 1231 c0 -36 4 -48 15 -48 8 0 15 5 15 11 0 6 5 4 10 -4 8 -12 11 -13 19 -1 7 11 9 11 14 0 3 -8 5 11 5 41 -1 49 -1 51 -8 20 l-7 -35 -2 31 c-1 27 -5 31 -31 32 -29 1 -30 -1 -30 -47z m17 -18 c-3 -10 -5 -2 -5 17 0 19 2 27 5 18 2 -10 2 -26 0 -35z"/>
<path d="M10153 1230 c0 -30 2 -43 4 -27 2 15 2 39 0 55 -2 15 -4 2 -4 -28z"/>
<path d="M10170 1232 c0 -41 3 -48 20 -49 18 -2 20 4 20 48 0 42 -3 49 -20 49 -17 0 -20 -7 -20 -48z"/>
<path d="M10223 1230 c0 -30 2 -43 4 -27 2 15 2 39 0 55 -2 15 -4 2 -4 -28z"/>
<path d="M10242 1228 l1 -53 7 50 7 50 1 -45 c2 -39 5 -46 22 -46 17 0 20 7 20 48 0 47 -1 48 -30 48 -30 0 -30 0 -28 -52z"/>
<path d="M10313 1230 c0 -30 2 -43 4 -27 2 15 2 39 0 55 -2 15 -4 2 -4 -28z"/>
<path d="M10333 1230 c0 -30 2 -43 4 -27 2 15 2 39 0 55 -2 15 -4 2 -4 -28z"/>
<path d="M10350 1230 c0 -43 3 -50 20 -50 17 0 20 7 20 50 0 43 -3 50 -20 50 -17 0 -20 -7 -20 -50z"/>
<path d="M10403 1230 c0 -30 2 -43 4 -27 2 15 2 39 0 55 -2 15 -4 2 -4 -28z"/>
<path d="M10423 1230 c0 -30 2 -43 4 -27 2 15 2 39 0 55 -2 15 -4 2 -4 -28z"/>
<path d="M10440 1232 c0 -41 3 -48 20 -48 17 0 20 7 20 46 0 39 -3 46 -20 47 -17 2 -20 -4 -20 -45z"/>
<path d="M10492 1228 l1 -53 7 50 6 50 5 -50 5 -50 2 53 c2 40 -1 52 -13 52 -12 0 -15 -12 -13 -52z"/>
<path d="M9719 1172 c-1 -4 -1 -69 1 -144 l2 -138 -25 0 c-40 0 -41 -17 -4 -35 19 -9 43 -25 55 -35 20 -19 20 -19 24 29 3 44 2 47 -19 43 -23 -4 -23 -4 -23 132 0 175 18 182 23 9 l3 -128 2 131 c2 124 1 132 -18 137 -11 3 -21 2 -21 -1z"/>
<path d="M13570 939 c0 -226 1 -243 20 -269 26 -37 124 -96 173 -105 l37 -7 0 66 0 66 -55 0 c-42 0 -55 -3 -55 -15 0 -24 -56 -20 -63 5 -3 11 -12 20 -21 20 -9 0 -16 3 -16 8 -1 4 -3 32 -6 62 l-5 55 50 22 c65 27 65 43 0 43 l-50 0 3 145 c2 80 0 145 -4 145 -5 0 -8 -108 -8 -241z"/>
<path d="M13605 1170 c4 -6 6 -69 6 -140 l0 -130 33 0 c30 0 34 3 38 32 6 38 -9 68 -34 68 -16 0 -18 11 -18 90 0 75 -3 90 -16 90 -8 0 -12 -5 -9 -10z"/>
<path d="M9937 1163 c-4 -3 -7 -64 -7 -135 l0 -128 50 0 50 0 0 40 c0 22 -4 40 -10 40 -6 0 -10 38 -10 95 l0 95 -33 0 c-19 0 -37 -3 -40 -7z"/>
<path d="M10031 1088 c1 -46 4 -108 9 -138 6 -43 7 -26 9 83 0 85 -3 137 -9 137 -6 0 -10 -34 -9 -82z"/>
<path d="M10064 1080 c0 -52 1 -74 3 -47 2 26 2 68 0 95 -2 26 -3 4 -3 -48z"/>
<path d="M10080 1150 c0 -9 9 -16 20 -17 13 -1 20 4 20 17 0 13 -7 18 -20 17 -11 -1 -20 -8 -20 -17z"/>
<path d="M10132 1150 c0 -14 2 -19 5 -12 2 6 2 18 0 25 -3 6 -5 1 -5 -13z"/>
<path d="M10152 1150 c0 -14 2 -19 5 -12 2 6 2 18 0 25 -3 6 -5 1 -5 -13z"/>
<path d="M10170 1150 c0 -9 8 -16 20 -16 12 0 20 7 20 16 0 9 -8 16 -20 16 -12 0 -20 -7 -20 -16z"/>
<path d="M10222 1150 c0 -14 2 -19 5 -12 2 6 2 18 0 25 -3 6 -5 1 -5 -13z"/>
<path d="M10244 1080 c0 -52 1 -74 3 -47 2 26 2 68 0 95 -2 26 -3 4 -3 -48z"/>
<path d="M10260 1149 c0 -11 5 -17 10 -14 6 3 10 13 10 21 0 8 -4 14 -10 14 -5 0 -10 -9 -10 -21z"/>
<path d="M10292 1150 c0 -14 2 -19 5 -12 2 6 2 18 0 25 -3 6 -5 1 -5 -13z"/>
<path d="M10314 1080 c0 -52 1 -74 3 -47 2 26 2 68 0 95 -2 26 -3 4 -3 -48z"/>
<path d="M10334 1080 c0 -52 1 -74 3 -47 2 26 2 68 0 95 -2 26 -3 4 -3 -48z"/>
<path d="M10354 1159 c-3 -6 -1 -16 5 -22 8 -8 11 -5 11 11 0 24 -5 28 -16 11z"/>
<path d="M10402 1150 c0 -14 2 -19 5 -12 2 6 2 18 0 25 -3 6 -5 1 -5 -13z"/>
<path d="M10424 1080 c0 -52 1 -74 3 -47 2 26 2 68 0 95 -2 26 -3 4 -3 -48z"/>
<path d="M10440 1152 c0 -11 8 -18 20 -18 12 0 20 7 20 16 0 9 -9 16 -20 17 -13 1 -20 -4 -20 -15z"/>
<path d="M10492 1150 c0 -14 2 -19 5 -12 2 6 2 18 0 25 -3 6 -5 1 -5 -13z"/>
<path d="M10512 1150 c0 -14 2 -19 5 -12 2 6 2 18 0 25 -3 6 -5 1 -5 -13z"/>
<path d="M10530 1073 l0 -93 -70 0 -70 0 0 -40 0 -40 80 0 80 0 2 103 2 102 5 -100 6 -100 57 -3 c55 -3 58 -2 64 23 4 15 4 73 1 128 -4 56 -7 106 -7 110 0 4 -34 7 -75 5 l-75 -2 0 -93z"/>
<path d="M10704 1000 c0 -96 2 -136 3 -87 2 48 2 126 0 175 -1 48 -3 8 -3 -88z"/>
<path d="M10726 1162 c-2 -4 -4 -58 -4 -119 l0 -111 54 -4 54 -3 0 123 0 122 -49 0 c-28 0 -52 -4 -55 -8z"/>
<path d="M10844 1157 c-2 -7 -3 -62 -2 -123 l3 -109 50 0 50 0 3 123 3 122 -51 0 c-33 0 -52 -5 -56 -13z"/>
<path d="M10960 1039 l0 -130 -120 3 c-66 2 -120 0 -120 -4 0 -5 65 -8 145 -8 l145 0 0 135 0 135 -25 0 -25 0 0 -131z"/>
<path d="M11024 1045 c0 -71 1 -99 3 -62 2 37 2 96 0 130 -2 34 -3 4 -3 -68z"/>
<path d="M11040 1035 l0 -135 150 0 150 0 0 135 c0 113 -2 135 -15 135 -13 0 -15 -21 -15 -125 0 -69 -3 -125 -7 -125 -5 0 -7 56 -5 125 l3 125 -55 0 -56 0 0 -125 c0 -69 -3 -125 -7 -125 -5 0 -7 56 -5 125 l3 125 -55 0 -56 0 0 -120 0 -120 48 -1 47 -2 -40 -6 c-66 -11 -65 -12 -65 125 0 76 -4 124 -10 124 -6 0 -10 -52 -10 -135z m187 -111 c-3 -3 -12 -4 -19 -1 -8 3 -5 6 6 6 11 1 17 -2 13 -5z"/>
<path d="M11354 1040 c0 -74 1 -105 3 -67 2 37 2 97 0 135 -2 37 -3 6 -3 -68z"/>
<path d="M11370 1035 l0 -135 150 0 150 0 -1 138 c0 75 -4 128 -8 118 -7 -18 -8 -18 -14 -3 -5 13 -19 17 -57 17 l-50 0 0 -120 0 -120 48 -1 c44 -1 45 -2 12 -8 -19 -3 -70 -5 -112 -3 l-78 4 0 124 c0 117 -1 124 -20 124 -19 0 -20 -7 -20 -135z m290 -10 c0 -58 -3 -105 -7 -105 -5 0 -10 47 -11 105 -3 71 0 105 7 105 7 0 11 -36 11 -105z"/>
<path d="M11420 1050 l0 -120 55 0 55 0 0 120 0 120 -55 0 -55 0 0 -120z"/>
<path d="M11684 1035 c0 -77 2 -107 3 -67 2 40 2 103 0 140 -2 37 -3 4 -3 -73z"/>
<path d="M11700 1035 l0 -135 24 0 c13 0 27 6 30 13 5 10 7 10 12 0 4 -10 36 -12 117 -11 l112 2 -95 6 -95 6 93 2 92 2 0 125 0 126 -112 -3 -113 -3 1 -82 c1 -46 -2 -83 -7 -83 -5 0 -9 38 -9 85 0 84 0 85 -25 85 l-25 0 0 -135z m178 118 c-10 -2 -28 -2 -40 0 -13 2 -5 4 17 4 22 1 32 -1 23 -4z m0 -20 c-10 -2 -28 -2 -40 0 -13 2 -5 4 17 4 22 1 32 -1 23 -4z m-5 -20 c-13 -2 -33 -2 -45 0 -13 2 -3 4 22 4 25 0 35 -2 23 -4z m0 -20 c-13 -2 -33 -2 -45 0 -13 2 -3 4 22 4 25 0 35 -2 23 -4z m0 -20 c-13 -2 -33 -2 -45 0 -13 2 -3 4 22 4 25 0 35 -2 23 -4z m0 -20 c-13 -2 -33 -2 -45 0 -13 2 -3 4 22 4 25 0 35 -2 23 -4z m17 -23 c0 -5 -16 -10 -35 -10 -19 0 -35 5 -35 10 0 6 16 10 35 10 19 0 35 -4 35 -10z m-12 -27 c-10 -2 -28 -2 -40 0 -13 2 -5 4 17 4 22 1 32 -1 23 -4z m-111 -60 c-3 -10 -5 -2 -5 17 0 19 2 27 5 18 2 -10 2 -26 0 -35z m111 40 c-10 -2 -28 -2 -40 0 -13 2 -5 4 17 4 22 1 32 -1 23 -4z"/>
<path d="M12004 1035 c0 -77 2 -107 3 -67 2 40 2 103 0 140 -2 37 -3 4 -3 -73z"/>
<path d="M12020 1045 l0 -125 70 0 70 0 0 125 0 125 -70 0 -70 0 0 -125z m98 108 c-10 -2 -26 -2 -35 0 -10 3 -2 5 17 5 19 0 27 -2 18 -5z m0 -20 c-10 -2 -26 -2 -35 0 -10 3 -2 5 17 5 19 0 27 -2 18 -5z m0 -20 c-10 -2 -26 -2 -35 0 -10 3 -2 5 17 5 19 0 27 -2 18 -5z m10 -20 c-10 -2 -28 -2 -40 0 -13 2 -5 4 17 4 22 1 32 -1 23 -4z m0 -20 c-10 -2 -28 -2 -40 0 -13 2 -5 4 17 4 22 1 32 -1 23 -4z m2 -22 c0 -4 -13 -8 -30 -9 -16 -1 -30 1 -30 5 0 5 14 8 30 9 17 1 30 -2 30 -5z m-2 -28 c-10 -2 -28 -2 -40 0 -13 2 -5 4 17 4 22 1 32 -1 23 -4z m0 -20 c-10 -2 -28 -2 -40 0 -13 2 -5 4 17 4 22 1 32 -1 23 -4z m0 -20 c-10 -2 -28 -2 -40 0 -13 2 -5 4 17 4 22 1 32 -1 23 -4z"/>
<path d="M10083 1055 c0 -38 2 -53 4 -32 2 20 2 52 0 70 -2 17 -4 1 -4 -38z"/>
<path d="M10100 1055 c0 -37 4 -65 10 -65 6 0 10 28 10 65 0 37 -4 65 -10 65 -6 0 -10 -28 -10 -65z"/>
<path d="M10133 1055 c0 -38 2 -53 4 -32 2 20 2 52 0 70 -2 17 -4 1 -4 -38z"/>
<path d="M10153 1055 c0 -38 2 -53 4 -32 2 20 2 52 0 70 -2 17 -4 1 -4 -38z"/>
<path d="M10170 1057 c0 -56 2 -63 20 -64 18 -2 20 4 20 63 0 57 -2 64 -20 64 -18 0 -20 -7 -20 -63z"/>
<path d="M10223 1055 c0 -38 2 -53 4 -32 2 20 2 52 0 70 -2 17 -4 1 -4 -38z"/>
<path d="M10260 1055 c0 -58 2 -65 20 -65 18 0 20 6 19 68 -1 52 -3 60 -9 37 l-8 -30 -1 28 c0 15 -5 27 -11 27 -6 0 -10 -28 -10 -65z"/>
<path d="M10350 1055 c0 -37 4 -65 10 -65 6 0 10 -21 10 -47 0 -64 6 -51 13 27 4 40 2 57 -3 45 -6 -14 -9 -2 -9 43 -1 34 -5 62 -11 62 -6 0 -10 -28 -10 -65z"/>
<path d="M10382 1100 c0 -14 2 -19 5 -12 2 6 2 18 0 25 -3 6 -5 1 -5 -13z"/>
<path d="M10403 1055 c0 -38 2 -53 4 -32 2 20 2 52 0 70 -2 17 -4 1 -4 -38z"/>
<path d="M10440 1056 c0 -59 2 -65 20 -63 18 1 20 8 18 67 l-1 65 -7 -60 -7 -60 -1 58 c-3 79 -22 73 -22 -7z"/>
<path d="M10493 1055 c0 -38 2 -53 4 -32 2 20 2 52 0 70 -2 17 -4 1 -4 -38z"/>
<path d="M10513 1055 c0 -38 2 -53 4 -32 2 20 2 52 0 70 -2 17 -4 1 -4 -38z"/>
<path d="M12434 1051 c-9 -9 -4 -140 6 -146 6 -3 10 1 10 9 0 14 18 16 128 15 70 -1 119 -3 110 -6 -24 -6 -23 -23 2 -23 18 0 20 7 20 80 l0 80 -136 -2 c-74 -1 -137 -4 -140 -7z m56 -19 c0 -4 -9 -8 -20 -9 -11 -1 -20 2 -20 8 0 5 9 9 20 9 11 0 20 -4 20 -8z m198 1 c-21 -5 -23 -19 -5 -26 7 -3 5 -6 -5 -6 -12 -1 -18 6 -18 19 0 14 6 20 23 19 16 -1 18 -2 5 -6z m-205 -30 c-7 -2 -19 -2 -25 0 -7 3 -2 5 12 5 14 0 19 -2 13 -5z"/>
<path d="M12724 1049 c-2 -4 -3 -39 -2 -78 2 -64 4 -71 23 -70 11 0 14 3 8 6 -39 15 1 23 120 22 72 -1 122 -4 110 -6 -31 -6 -29 -23 2 -23 24 0 25 2 25 75 0 41 -3 75 -7 76 -48 4 -276 2 -279 -2z m47 -28 c7 11 9 11 9 -3 0 -10 -7 -18 -15 -18 -9 0 -15 9 -14 23 1 19 2 19 6 3 4 -15 7 -16 14 -5z m196 -13 c-3 -7 -5 -2 -5 12 0 14 2 19 5 13 2 -7 2 -19 0 -25z m20 0 c-3 -7 -5 -2 -5 12 0 14 2 19 5 13 2 -7 2 -19 0 -25z"/>
<path d="M13020 980 l0 -81 143 3 142 3 -1 45 c-1 25 -2 60 -3 78 l-1 32 -140 0 -140 0 0 -80z m165 60 c-53 -12 -95 -12 -95 -1 0 5 30 9 68 9 61 0 63 -1 27 -8z m35 -32 c0 -17 -3 -19 -9 -9 -6 9 -25 12 -65 10 -65 -5 -77 8 -13 14 90 8 87 8 87 -15z"/>
<path d="M9473 955 c0 -22 2 -30 4 -17 2 12 2 30 0 40 -3 9 -5 -1 -4 -23z"/>
<path d="M10060 940 l0 -40 150 0 150 0 0 40 0 40 -150 0 -150 0 0 -40z"/>
<path d="M12490 910 c0 -6 35 -10 85 -10 50 0 85 4 85 10 0 6 -35 10 -85 10 -50 0 -85 -4 -85 -10z"/>
<path d="M12770 910 c0 -6 37 -10 90 -10 53 0 90 4 90 10 0 6 -37 10 -90 10 -53 0 -90 -4 -90 -10z"/>
<path d="M9790 845 l0 -45 60 0 60 0 0 45 0 45 -60 0 -60 0 0 -45z"/>
<path d="M9930 690 c1 -118 5 -200 11 -200 5 0 9 81 9 200 0 128 -4 200 -10 200 -7 0 -10 -71 -10 -200z"/>
<path d="M9960 860 c0 -29 2 -30 45 -30 44 0 45 0 44 33 l-1 32 -8 -30 -8 -30 -1 28 c-1 24 -5 27 -36 27 -32 0 -35 -2 -35 -30z"/>
<path d="M10060 860 l0 -30 150 0 150 0 0 30 0 30 -150 0 -150 0 0 -30z"/>
<path d="M10372 860 c0 -19 2 -27 5 -17 2 9 2 25 0 35 -3 9 -5 1 -5 -18z"/>
<path d="M10390 860 l0 -30 79 0 c75 0 80 -1 83 -22 2 -19 10 -24 46 -26 37 -3 42 -1 42 18 0 13 9 24 26 30 18 7 24 15 20 26 -3 9 -6 20 -6 25 0 5 -64 9 -145 9 l-145 0 0 -30z"/>
<path d="M10720 860 l0 -30 145 0 145 0 0 30 0 30 -145 0 -145 0 0 -30z"/>
<path d="M11022 860 c0 -19 2 -27 5 -17 2 9 2 25 0 35 -3 9 -5 1 -5 -18z"/>
<path d="M11040 860 l0 -30 150 0 150 0 0 30 0 30 -150 0 -150 0 0 -30z"/>
<path d="M11352 860 c0 -19 2 -27 5 -17 2 9 2 25 0 35 -3 9 -5 1 -5 -18z"/>
<path d="M11370 860 l0 -30 150 0 150 0 0 30 0 30 -150 0 -150 0 0 -30z"/>
<path d="M11682 860 c0 -19 2 -27 5 -17 2 9 2 25 0 35 -3 9 -5 1 -5 -18z"/>
<path d="M11700 860 l0 -30 145 0 145 0 0 30 0 30 -145 0 -145 0 0 -30z"/>
<path d="M12002 858 l-2 -38 -65 0 -65 0 0 -40 0 -40 325 0 c210 0 325 -4 325 -10 0 -5 7 -10 15 -10 9 0 15 -9 15 -25 l0 -25 180 0 180 0 0 25 c0 15 6 25 14 25 8 0 16 4 18 9 4 13 14 14 200 12 l167 -1 18 -32 c10 -18 20 -48 23 -67 3 -19 11 -36 18 -39 9 -3 12 23 12 107 l0 111 -285 0 c-241 0 -285 -2 -285 -14 0 -21 -16 -28 -68 -29 -39 -1 -49 3 -57 21 -10 22 -10 22 -342 22 l-332 0 -4 38 -4 37 -1 -37z"/>
<path d="M12020 860 l0 -30 335 0 c328 0 335 0 335 -20 0 -18 7 -20 55 -20 48 0 55 2 55 20 0 20 7 20 290 20 l290 0 0 30 0 30 -680 0 -680 0 0 -30z"/>
<path d="M13391 756 c0 -75 5 -136 10 -136 14 0 18 36 16 154 -2 78 -6 111 -15 114 -9 3 -12 -27 -11 -132z"/>
<path d="M13430 845 l0 -45 65 0 65 0 0 45 0 45 -65 0 -65 0 0 -45z"/>
<path d="M9961 663 c1 -175 7 -196 74 -241 32 -23 61 -29 50 -12 -3 6 1 7 10 4 9 -4 13 -9 11 -12 -12 -11 48 -32 91 -32 41 0 103 29 103 48 0 4 -42 7 -92 6 l-93 0 88 3 c115 5 105 23 -13 23 -62 0 -90 -4 -93 -12 -10 -28 -13 0 -7 57 7 58 7 58 9 14 l1 -46 75 0 74 -1 6 31 c2 18 7 46 9 62 2 17 3 5 3 -27 -2 -50 1 -58 25 -77 26 -21 34 -22 312 -19 214 2 287 0 290 -9 7 -17 52 -45 89 -53 17 -5 -292 -8 -689 -9 l-721 -1 5 -30 4 -30 2114 0 2114 0 0 30 0 30 -136 0 c-127 0 -136 -1 -141 -20 -7 -26 -19 -26 -26 0 -5 21 -10 21 -594 20 -1611 -2 -1900 0 -1860 14 45 17 74 40 94 79 16 33 22 111 10 144 -6 18 -4 22 15 25 24 3 37 33 21 49 -5 5 -21 10 -36 11 -15 1 -27 8 -27 15 0 8 -14 13 -40 13 l-40 0 0 -40 c0 -40 0 -40 39 -40 22 0 42 5 44 13 3 7 6 5 6 -5 1 -15 -7 -18 -42 -18 -44 0 -69 14 -61 34 3 8 -113 11 -435 11 l-440 0 -4 -25 c-2 -14 -5 -4 -6 23 l-1 47 -40 0 c-29 0 -40 -4 -40 -15 0 -10 -10 -15 -30 -15 -26 0 -30 -4 -30 -26 0 -18 6 -28 21 -31 17 -5 19 -10 13 -32 -13 -40 -8 -105 9 -140 21 -41 4 -40 -40 4 l-36 36 7 85 c4 55 13 99 26 125 l20 39 185 0 c117 0 185 -4 185 -10 0 -5 7 -10 15 -10 9 0 15 -9 15 -25 l0 -25 180 0 c177 0 180 0 180 21 0 46 16 48 333 49 l297 0 0 40 0 40 -385 0 -385 0 0 -26 c0 -24 -2 -25 -52 -22 -46 3 -53 6 -56 26 l-3 22 -290 0 -289 0 1 -157z m709 81 c0 -2 -30 -3 -67 -2 -67 1 -67 1 -18 7 47 6 85 3 85 -5z m-365 -114 c10 -11 16 -22 14 -24 -2 -3 -14 6 -26 20 -12 13 -18 24 -14 24 4 0 16 -9 26 -20z m-168 -16 c-3 -3 -12 -4 -19 -1 -8 3 -5 6 6 6 11 1 17 -2 13 -5z m747 -18 c-3 -9 -18 -16 -33 -17 -14 0 -20 -3 -13 -6 20 -8 14 -22 -8 -16 -11 3 -20 9 -20 14 0 5 -15 9 -32 8 -28 0 -30 -2 -13 -9 18 -8 18 -9 2 -9 -10 -1 -25 6 -33 14 -14 13 -7 15 61 15 59 0 77 3 82 15 3 9 7 14 9 12 3 -2 2 -12 -2 -21z m-630 6 c2 -4 -14 -6 -37 -4 -68 5 -76 10 -20 11 28 0 54 -2 57 -7z m799 1 c-18 -2 -48 -2 -65 0 -18 2 -4 4 32 4 36 0 50 -2 33 -4z m96 -63 c-1 -19 -3 -26 -6 -15 -2 11 -6 30 -9 43 -6 32 -24 18 -25 -21 -2 -30 -2 -30 -6 -5 -2 15 1 37 7 48 11 21 12 21 25 3 8 -10 14 -34 14 -53z m-1077 48 c-7 -7 -13 -35 -14 -62 -1 -46 -2 -47 -5 -12 -5 48 3 86 19 86 9 0 9 -3 0 -12z m870 -33 c-2 -25 -1 -57 2 -70 6 -23 11 -25 64 -25 64 0 77 6 85 35 4 16 5 15 6 -5 0 -15 7 -32 13 -38 10 -10 10 -15 -2 -22 -17 -11 -193 -14 -203 -3 -4 3 1 15 10 25 12 14 16 33 14 73 -2 46 3 75 12 75 1 0 1 -20 -1 -45z m-699 22 c2 -7 2 -30 -2 -52 -5 -29 -12 -41 -26 -43 -18 -2 -19 -2 -2 8 20 13 22 40 5 59 -11 11 -10 13 5 8 9 -4 17 -2 17 3 0 5 -11 13 -26 16 -18 5 -32 0 -51 -17 -24 -22 -24 -12 0 19 12 16 73 16 80 -1z m235 6 c-10 -2 -18 -8 -18 -13 0 -11 -39 -20 -45 -10 -3 5 3 11 12 13 10 3 -8 5 -41 6 l-59 1 6 -37 c5 -26 3 -33 -3 -23 -5 8 -10 27 -10 43 l0 27 88 -1 c48 -1 79 -3 70 -6z m185 -10 c-4 -11 -8 -12 -11 -5 -2 7 -23 12 -53 12 l-49 0 0 -35 0 -35 50 0 c37 0 50 4 50 14 0 11 -14 16 -47 19 l-48 3 53 2 c46 2 52 0 52 -18 0 -18 7 -20 74 -20 65 0 74 2 79 20 3 13 10 18 21 14 21 -8 20 -21 -1 -27 -14 -4 -13 -5 4 -6 12 0 24 5 26 12 3 7 6 5 6 -5 1 -17 -17 -18 -261 -16 -147 1 -239 4 -208 8 30 4 47 7 38 8 -25 3 -23 21 2 19 11 -1 20 -7 20 -14 0 -9 14 -13 41 -13 l41 0 -4 40 -4 40 68 0 c59 0 67 -2 61 -17z m401 1 c12 -30 6 -72 -11 -85 -15 -11 -16 -11 -5 1 15 17 16 76 1 85 -17 11 -25 -5 -9 -16 12 -9 12 -10 -3 -5 -10 3 -21 6 -23 6 -3 0 -2 5 2 11 4 8 -3 9 -26 4 -23 -5 -30 -4 -26 4 11 18 93 14 100 -5z m-681 -16 c6 -19 -3 -38 -19 -38 -8 0 -14 10 -14 25 0 26 25 35 33 13z m240 5 c-13 -2 -33 -2 -45 0 -13 2 -3 4 22 4 25 0 35 -2 23 -4z m-423 -14 c0 -5 -4 -8 -9 -4 -14 8 -24 -13 -16 -33 6 -16 8 -15 21 2 7 11 16 17 19 14 3 -3 -1 -13 -11 -22 -12 -13 -19 -14 -30 -5 -17 14 -18 31 -2 47 15 15 28 15 28 1z m765 -21 c1 -12 7 -24 15 -26 7 -3 10 0 6 7 -5 7 -1 9 9 4 13 -5 14 -7 3 -14 -10 -7 -8 -9 5 -9 11 0 21 9 24 20 3 11 9 20 14 20 5 0 3 -11 -3 -25 -21 -47 -88 -23 -88 32 0 31 13 23 15 -9z m35 28 c0 -3 -4 -8 -10 -11 -5 -3 -10 -1 -10 4 0 6 5 11 10 11 6 0 10 -2 10 -4z m-225 -26 c3 -5 -3 -10 -14 -10 -12 0 -21 5 -21 10 0 6 6 10 14 10 8 0 18 -4 21 -10z m-648 -22 c-3 -8 -6 -5 -6 6 -1 11 2 17 5 13 3 -3 4 -12 1 -19z m59 -35 c-6 -6 -36 9 -36 18 0 5 9 4 20 -3 10 -7 18 -14 16 -15z m-111 -13 c3 -5 1 -10 -4 -10 -6 0 -11 5 -11 10 0 6 2 10 4 10 3 0 8 -4 11 -10z"/>
<path d="M11003 452 c-46 -2 -83 -7 -83 -12 0 -13 177 -13 184 -1 9 14 -12 16 -101 13z"/>
<path d="M10361 544 c0 -11 3 -14 6 -6 3 7 2 16 -1 19 -3 4 -6 -2 -5 -13z"/>
<path d="M11430 769 c0 -46 2 -49 25 -49 23 0 25 3 25 48 0 43 -2 47 -25 48 -23 2 -25 -1 -25 -47z"/>
<path d="M11490 775 l0 -45 155 0 155 0 0 45 0 45 -155 0 -155 0 0 -45z"/>
<path d="M11810 769 c0 -47 2 -50 23 -47 19 3 22 10 25 48 3 42 1 46 -23 48 -24 2 -25 -1 -25 -49z"/>
<path d="M9763 745 c0 -27 2 -38 4 -22 2 15 2 37 0 50 -2 12 -4 0 -4 -28z"/>
<path d="M9789 775 c-1 -8 -1 -22 -1 -30 0 -57 -2 -56 60 -53 l57 3 3 46 3 47 -60 1 c-47 0 -61 -3 -62 -14z"/>
<path d="M13430 738 c0 -68 35 -65 64 4 l15 36 -39 4 -40 4 0 -48z"/>
<path d="M13536 768 c14 -48 23 -54 24 -15 0 27 -4 37 -16 37 -11 0 -14 -6 -8 -22z"/>
<path d="M10165 720 c-4 -6 28 -10 89 -10 57 0 96 4 96 10 0 6 -36 10 -89 10 -50 0 -93 -4 -96 -10z"/>
<path d="M10373 716 c9 -7 17 -21 17 -30 0 -9 7 -16 15 -16 8 0 15 7 15 16 0 19 -28 43 -50 43 -12 0 -12 -2 3 -13z"/>
<path d="M10856 721 c5 -5 25 -14 44 -19 33 -10 33 -10 8 -11 -16 -1 -28 -6 -28 -12 0 -6 7 -8 16 -5 9 3 45 6 80 6 77 0 87 19 12 22 l-53 2 50 3 c96 8 72 23 -35 23 -64 0 -100 -4 -94 -9z"/>
<path d="M11272 599 l3 -132 393 -4 392 -3 2 72 c0 40 2 100 2 133 l1 60 -89 3 c-49 2 -97 0 -105 -4 -23 -9 -451 -11 -451 -1 0 4 -34 7 -75 7 l-76 0 3 -131z"/>
<path d="M12300 721 c0 -24 145 -29 176 -6 17 13 9 14 -78 15 -54 0 -98 -4 -98 -9z"/>
<path d="M12500 720 c0 -5 5 -10 11 -10 5 0 7 5 4 10 -3 6 -8 10 -11 10 -2 0 -4 -4 -4 -10z"/>
<path d="M12950 715 c-7 -8 -16 -12 -21 -9 -5 3 -9 -4 -9 -15 0 -18 6 -21 50 -21 37 0 50 4 50 14 0 9 -13 16 -32 19 -18 2 -7 3 26 1 75 -3 166 6 166 17 0 5 -49 9 -109 9 -84 0 -111 -3 -121 -15z"/>
<path d="M10808 714 c-5 -4 -8 -16 -8 -26 0 -14 8 -18 35 -18 25 0 35 4 35 16 0 12 -6 15 -24 10 -18 -4 -25 -2 -28 10 -2 9 -6 12 -10 8z"/>
<path d="M10338 703 c-10 -2 -18 -10 -18 -16 0 -8 -4 -7 -12 1 -15 15 -148 16 -148 1 0 -7 24 -9 70 -7 39 2 70 0 70 -3 0 -3 18 -6 41 -7 33 -2 40 1 37 15 -3 18 -15 23 -40 16z"/>
<path d="M12209 658 c0 -29 -3 -78 -8 -108 l-8 -55 -2 52 c0 28 3 54 7 57 4 2 6 23 4 46 -3 31 -8 40 -19 36 -8 -3 -19 -6 -24 -6 -5 0 -9 -13 -9 -29 0 -21 5 -28 16 -27 15 1 17 -10 15 -72 -2 -60 2 -79 20 -108 31 -51 74 -74 136 -74 44 0 58 5 86 30 l35 30 284 0 c316 0 327 2 329 63 l1 32 7 -30 c6 -29 8 -30 71 -32 45 -2 59 1 45 7 -11 5 -14 9 -7 9 9 1 12 16 10 54 l-3 52 -57 3 c-54 3 -58 2 -59 -20 -1 -20 -2 -20 -6 -4 -7 27 22 46 61 40 79 -13 75 -9 78 -76 4 -81 25 -89 30 -11 2 32 8 66 12 76 7 14 2 17 -30 18 l-39 2 39 6 c26 4 42 13 47 26 6 16 7 13 5 -10 -1 -16 -8 -41 -15 -54 -8 -14 -12 -48 -9 -90 l3 -66 -108 0 c-59 0 -107 -3 -107 -8 0 -4 15 -16 33 -27 42 -26 112 -26 151 -1 17 11 33 18 38 15 11 -7 68 29 96 61 16 18 21 32 16 43 -6 14 -8 13 -11 -5 -4 -22 -77 -93 -95 -93 -5 0 1 13 12 28 29 39 39 112 16 112 -9 0 -16 5 -16 10 0 6 5 10 10 10 6 0 10 14 10 30 0 23 4 30 20 30 40 0 18 49 -23 52 -15 1 -29 8 -31 15 -3 7 -21 13 -41 13 -34 0 -35 -1 -36 -42 -1 -25 -4 -33 -6 -20 -4 23 -8 23 -76 19 -112 -7 -591 -8 -704 -1 -100 7 -101 7 -105 -16 -1 -13 -9 -25 -16 -26 -7 -1 -8 0 -2 3 5 2 10 22 10 44 0 39 0 39 -41 39 l-40 0 0 -52z m249 -38 c7 -11 11 -20 9 -20 -2 0 -12 9 -22 20 -10 11 -14 20 -9 20 5 0 15 -9 22 -20z m-208 0 c-10 -7 8 -10 61 -10 45 0 80 -5 87 -12 7 -7 12 -39 12 -75 0 -52 3 -64 20 -73 38 -20 9 -30 -90 -30 -76 0 -102 4 -114 16 -18 18 -21 28 -5 19 6 -4 13 3 16 14 5 20 6 20 19 4 12 -16 13 -10 14 43 0 46 4 63 15 68 8 3 15 1 15 -4 0 -6 -4 -10 -10 -10 -5 0 -10 -25 -10 -55 l0 -55 60 0 61 0 -3 68 -3 67 -70 3 c-38 1 -76 5 -83 7 -15 6 -7 25 11 25 7 0 6 -4 -3 -10z m783 -5 c-3 -9 -8 -14 -10 -11 -3 3 -2 9 2 15 9 16 15 13 8 -4z m144 -1 c-3 -3 -12 -4 -19 -1 -8 3 -5 6 6 6 11 1 17 -2 13 -5z m-340 -28 c4 -5 3 -6 -4 -2 -6 3 -17 1 -24 -6 -7 -8 -31 -12 -65 -10 -35 3 -54 0 -54 -7 0 -7 22 -11 55 -11 48 0 55 -2 55 -20 0 -17 7 -20 46 -20 25 0 43 3 41 8 -3 4 0 12 7 18 8 8 15 7 24 -2 9 -10 8 -14 -6 -17 -9 -3 8 -5 38 -4 54 2 55 2 58 35 l3 32 -58 -1 c-42 0 -52 -3 -38 -9 18 -8 17 -9 -8 -9 -16 -1 -26 3 -23 8 4 5 0 12 -6 14 -7 3 22 6 65 6 l77 1 0 -33 c0 -18 -5 -38 -12 -45 -9 -9 -80 -12 -259 -12 -136 0 -254 3 -263 6 -9 3 -16 14 -16 23 1 14 2 14 11 -1 5 -10 18 -18 27 -17 10 0 12 3 5 6 -7 2 -13 9 -13 14 0 6 5 7 10 4 6 -3 10 -1 10 4 0 6 4 11 9 11 6 0 8 -9 6 -20 -4 -19 2 -20 71 -20 l74 0 0 39 c0 22 5 41 10 43 22 7 139 2 147 -6z m-598 -55 c1 -35 -5 -22 -12 24 -5 28 -4 34 3 20 5 -11 9 -31 9 -44z m142 50 c3 0 3 -16 0 -33 l-5 -33 -6 30 c-4 22 -11 30 -27 30 -12 0 -24 3 -28 7 -5 5 44 5 66 -1z m219 0 c0 -6 -16 -7 -37 -4 -24 4 -34 3 -30 -4 4 -6 -2 -13 -13 -16 -22 -6 -28 8 -7 16 6 3 2 6 -10 6 -14 1 -23 -5 -23 -14 0 -8 -4 -15 -10 -15 -12 0 -12 3 -4 24 5 12 21 16 70 16 35 0 64 -4 64 -9z m579 -10 c10 -6 0 -8 -27 -4 -35 5 -42 3 -42 -11 0 -13 3 -14 19 -4 15 9 23 7 42 -11 23 -21 23 -22 4 -39 -14 -13 -16 -13 -7 -1 10 13 8 19 -8 34 -20 18 -21 18 -27 -3 -4 -18 -7 -19 -19 -7 -15 14 -18 37 -7 48 9 10 56 8 72 -2z m-589 -11 c13 -8 13 -10 -2 -10 -9 0 -20 5 -23 10 -8 13 5 13 25 0z m405 0 c3 -5 -3 -10 -14 -10 -11 0 -23 5 -26 10 -3 6 3 10 14 10 11 0 23 -4 26 -10z m-689 -27 c-10 -10 -19 5 -10 18 6 11 8 11 12 0 2 -7 1 -15 -2 -18z m48 19 c3 -5 -1 -9 -9 -9 -8 0 -15 4 -15 9 0 4 4 8 9 8 6 0 12 -4 15 -8z m246 -22 c0 -5 -10 -10 -22 -9 -22 0 -22 1 -3 9 11 5 21 9 23 9 1 1 2 -3 2 -9z m390 0 c0 -5 -10 -10 -22 -10 -19 0 -20 2 -8 10 19 13 30 13 30 0z m-635 -30 c-3 -5 -11 -10 -16 -10 -6 0 -7 5 -4 10 3 6 11 10 16 10 6 0 7 -4 4 -10z m19 -14 c-4 -11 -17 -15 -38 -15 -31 2 -31 2 -3 6 16 3 31 11 34 19 3 8 7 13 9 11 3 -2 2 -12 -2 -21z m764 -9 c24 -4 24 -4 -5 -6 -28 -1 -33 2 -32 22 1 15 3 17 6 5 2 -9 16 -19 31 -21z"/>
<path d="M12240 443 c0 -10 26 -13 97 -13 121 0 114 17 -10 22 -65 2 -87 0 -87 -9z"/>
<path d="M12690 525 c0 -11 12 -15 50 -15 38 0 50 4 50 15 0 11 -12 15 -50 15 -38 0 -50 -4 -50 -15z"/>
<path d="M12498 703 c-42 -6 -36 -33 7 -33 28 0 35 4 35 20 0 11 -3 19 -7 19 -5 -1 -20 -4 -35 -6z"/>
<path d="M12303 688 c-2 -5 25 -8 61 -8 35 0 71 -3 80 -6 9 -3 16 -2 16 4 0 12 -150 21 -157 10z"/>
<path d="M13073 693 c-24 -2 -43 -9 -43 -15 0 -5 7 -7 16 -4 9 3 42 6 75 6 33 0 59 4 59 10 0 10 -22 10 -107 3z"/>
<path d="M9590 625 l0 -65 56 0 c47 0 57 3 61 19 3 12 11 17 19 14 10 -4 14 -26 14 -89 0 -83 0 -84 25 -84 22 0 25 4 25 35 0 19 -4 35 -10 35 -6 0 -10 40 -10 100 0 60 -4 100 -10 100 -5 0 -10 -7 -10 -15 0 -8 -9 -15 -20 -15 -11 0 -23 7 -26 15 -5 11 -21 15 -60 15 l-54 0 0 -65z"/>
<path d="M9790 641 c0 -43 10 -51 68 -51 52 0 63 11 60 53 l-2 37 -63 0 -63 0 0 -39z"/>
<path d="M13430 664 c0 -14 3 -14 15 -4 8 7 15 14 15 16 0 2 -7 4 -15 4 -8 0 -15 -7 -15 -16z"/>
<path d="M9473 520 c0 -36 2 -50 4 -32 2 17 2 47 0 65 -2 17 -4 3 -4 -33z"/>
<path d="M9786 543 c1 -21 2 -41 3 -45 0 -5 30 -8 66 -8 l65 0 0 45 0 45 -68 0 -68 0 2 -37z"/>
<path d="M13616 476 c-39 -36 -46 -60 -20 -70 21 -8 134 -8 134 0 0 7 -70 104 -75 104 -2 0 -20 -15 -39 -34z"/>
<path d="M13153 452 c-51 -1 -93 -7 -93 -12 0 -14 177 -13 185 1 10 14 11 14 -92 11z"/>
<path d="M9473 285 c0 -27 2 -38 4 -22 2 15 2 37 0 50 -2 12 -4 0 -4 -28z"/>
<path d="M10984 229 c-14 -15 -19 -36 -19 -79 0 -66 15 -90 54 -90 34 0 51 17 51 49 l-1 26 -15 -27 c-16 -31 -48 -37 -58 -12 -12 31 -6 111 9 124 18 15 45 6 45 -15 0 -8 7 -15 15 -15 19 0 19 10 -1 38 -19 28 -55 28 -80 1z"/>
<path d="M11774 225 c-22 -34 -10 -60 37 -79 32 -13 40 -21 37 -39 -4 -31 -53 -37 -63 -8 -7 22 -25 29 -25 10 0 -29 22 -49 54 -49 40 0 59 19 54 57 -2 21 -12 33 -40 46 -25 12 -38 26 -38 38 0 30 30 36 51 10 22 -27 34 -12 13 17 -20 30 -59 28 -80 -3z"/>
<path d="M12060 235 c0 -8 5 -15 10 -15 6 0 10 7 10 15 0 8 -4 15 -10 15 -5 0 -10 -7 -10 -15z"/>
<path d="M12290 155 c0 -103 17 -132 22 -38 3 50 6 58 23 58 17 0 20 -8 23 -57 4 -73 22 -76 22 -5 0 63 -17 93 -49 84 -18 -4 -21 -1 -21 24 0 16 -4 29 -10 29 -6 0 -10 -38 -10 -95z"/>
<path d="M11340 221 c0 -11 -6 -22 -12 -25 -10 -5 -10 -7 0 -12 7 -3 12 -26 12 -60 0 -40 4 -56 15 -61 9 -3 19 -2 23 2 4 4 1 10 -5 12 -8 3 -13 23 -13 53 0 29 5 51 13 54 10 5 10 7 0 12 -7 3 -13 14 -13 25 0 10 -4 19 -10 19 -5 0 -10 -9 -10 -19z"/>
<path d="M12120 221 c0 -10 -6 -22 -12 -25 -10 -5 -10 -7 0 -12 7 -4 12 -27 12 -65 0 -52 2 -59 20 -59 11 0 20 5 20 10 0 6 -4 10 -10 10 -15 0 -12 97 3 104 10 5 10 7 0 12 -7 3 -13 12 -13 19 0 8 -4 17 -10 20 -5 3 -10 -3 -10 -14z"/>
<path d="M11110 181 c-14 -27 -13 -94 2 -109 18 -18 56 -14 67 7 13 24 2 36 -14 14 -16 -21 -45 -10 -45 17 0 16 6 20 35 20 38 0 40 5 25 44 -12 32 -54 36 -70 7z m50 -21 c0 -13 -7 -20 -20 -20 -19 0 -27 20 -13 33 13 14 33 6 33 -13z"/>
<path d="M11210 128 c0 -39 4 -68 10 -68 6 0 10 20 10 44 0 57 8 76 31 76 17 0 19 -8 19 -60 0 -35 4 -60 10 -60 7 0 10 25 8 68 l-3 67 -42 1 -43 1 0 -69z"/>
<path d="M11402 133 l3 -68 43 -1 42 -2 0 69 c0 39 -4 69 -10 69 -5 0 -10 -25 -10 -55 0 -43 -4 -56 -19 -64 -26 -15 -31 -5 -31 61 0 34 -4 58 -10 58 -7 0 -10 -25 -8 -67z"/>
<path d="M11520 128 c0 -39 4 -68 10 -68 6 0 10 20 10 44 0 54 8 76 26 76 8 0 14 4 14 9 0 5 -13 9 -30 9 l-30 -1 0 -69z"/>
<path d="M11590 192 c0 -4 10 -37 21 -72 l22 -63 -22 -18 c-14 -12 -18 -20 -10 -24 19 -13 40 20 64 101 12 44 21 81 19 83 -9 10 -23 -14 -29 -49 -6 -38 -25 -66 -25 -38 0 27 -21 88 -30 88 -6 0 -10 -4 -10 -8z"/>
<path d="M11894 168 c21 -106 40 -135 52 -80 15 66 17 68 29 23 6 -25 16 -46 22 -48 11 -4 46 127 37 137 -8 8 -22 -21 -29 -64 l-8 -41 -11 49 c-7 27 -17 51 -23 53 -11 4 -23 -28 -23 -64 0 -41 -19 -24 -26 22 -3 25 -11 45 -16 45 -6 0 -8 -13 -4 -32z"/>
<path d="M12060 130 c0 -40 4 -70 10 -70 6 0 10 30 10 70 0 40 -4 70 -10 70 -6 0 -10 -30 -10 -70z"/>
<path d="M12191 187 c-18 -22 -23 -70 -12 -100 9 -24 16 -28 43 -25 27 2 34 8 36 28 2 23 1 24 -11 8 -8 -10 -21 -18 -30 -18 -20 0 -32 53 -17 79 12 24 40 28 40 6 0 -8 5 -15 10 -15 14 0 13 23 -2 38 -16 16 -43 15 -57 -1z"/>
<path d="M12416 184 c-18 -18 -21 -76 -6 -105 6 -10 21 -19 34 -19 26 0 54 26 41 38 -4 4 -10 1 -12 -5 -7 -20 -40 -15 -46 6 -6 25 0 31 35 31 23 0 28 4 28 23 0 44 -43 62 -74 31z m52 -27 c2 -11 -3 -17 -16 -17 -24 0 -32 8 -25 26 7 20 37 13 41 -9z"/>
<path d="M12520 128 c0 -39 4 -68 10 -68 6 0 10 22 10 50 0 39 4 53 20 62 28 18 25 27 -10 26 l-30 -1 0 -69z"/>
</g>
</svg>