<svg xmlns="http://www.w3.org/2000/svg" viewBox="23.00 176.50 445.00 208.10">
<g transform="translate(0.000000,768.000000) scale(0.100000,-0.100000)" fill="currentColor" stroke="none">
<path d="M3000 5840 c-16 -16 -20 -33 -20 -85 0 -70 20 -105 60 -105 23 0 60 33 60 54 0 26 -17 26 -28 1 -25 -55 -72 -17 -72 56 0 63 45 93 72 49 15 -24 28 -26 28 -5 0 22 -37 55 -60 55 -11 0 -29 -9 -40 -20z"/>
<path d="M1452 5838 c-14 -14 -16 -48 -3 -48 5 0 11 9 14 20 6 25 42 27 52 3 4 -12 -1 -24 -16 -36 -19 -15 -20 -20 -8 -28 7 -5 18 -9 22 -9 5 0 7 -12 5 -27 -4 -36 -41 -44 -58 -13 -14 25 -30 18 -23 -11 7 -24 42 -40 71 -32 11 3 26 18 32 34 10 24 10 33 -4 53 -10 15 -12 27 -6 31 14 9 13 48 -2 63 -7 7 -24 12 -38 12 -14 0 -31 -5 -38 -12z"/>
<path d="M1660 5755 l0 -95 43 0 c24 0 48 5 55 12 15 15 16 60 1 75 -8 8 -8 17 1 33 9 17 9 29 1 46 -9 20 -18 24 -56 24 l-45 0 0 -95z m75 45 c0 -20 -6 -26 -27 -28 -25 -3 -28 0 -28 28 0 28 3 31 28 28 21 -2 27 -8 27 -28z m6 -66 c18 -21 0 -48 -35 -52 -24 -3 -26 0 -26 32 0 31 3 36 24 36 13 0 29 -7 37 -16z"/>
<path d="M2100 5755 c0 -57 4 -95 10 -95 6 0 10 20 10 45 0 45 0 45 35 45 35 0 35 0 35 -45 0 -33 4 -45 15 -45 12 0 15 17 15 95 0 78 -3 95 -15 95 -11 0 -15 -11 -15 -40 0 -39 -1 -40 -35 -40 -34 0 -35 1 -35 40 0 22 -4 40 -10 40 -6 0 -10 -38 -10 -95z"/>
<path d="M2919 5818 c-19 -45 -17 -135 4 -182 25 -56 30 -40 11 34 -15 61 -13 100 12 164 12 31 -14 16 -27 -16z"/>
<path d="M3370 5755 c0 -76 3 -95 14 -95 12 0 15 20 15 95 1 77 -2 95 -14 95 -12 0 -15 -18 -15 -95z"/>
<path d="M3435 5833 c21 -57 25 -110 11 -163 -15 -56 -13 -76 5 -50 31 49 35 144 8 204 -13 29 -35 37 -24 9z"/>
<path d="M1818 5799 c-10 -5 -18 -17 -18 -24 0 -20 10 -19 25 2 7 9 17 13 23 9 21 -13 12 -37 -17 -47 -16 -6 -32 -17 -35 -26 -14 -36 22 -75 49 -53 7 6 19 8 27 5 21 -8 12 115 -10 133 -19 14 -22 14 -44 1z m42 -93 c0 -28 -24 -41 -40 -21 -8 10 -7 17 5 29 23 23 35 20 35 -8z"/>
<path d="M2267 5795 c-43 -42 -21 -144 31 -145 49 0 73 114 30 144 -28 20 -43 20 -61 1z m53 -24 c14 -27 13 -64 -4 -86 -20 -28 -46 -3 -46 44 0 55 30 79 50 42z"/>
<path d="M2415 5800 c-3 -5 -12 -7 -20 -3 -13 4 -15 -11 -15 -91 0 -57 4 -96 10 -96 6 0 10 12 10 26 0 21 4 24 19 19 52 -16 84 92 41 135 -22 22 -36 25 -45 10z m35 -36 c14 -35 12 -57 -4 -79 -20 -28 -46 -3 -46 44 0 58 33 81 50 35z"/>
<path d="M2545 5800 c-3 -5 -12 -7 -20 -3 -13 4 -15 -11 -15 -91 0 -57 4 -96 10 -96 6 0 10 13 10 29 0 25 3 28 27 23 33 -6 53 19 53 68 0 55 -44 103 -65 70z m39 -46 c10 -40 -3 -76 -28 -72 -16 2 -22 11 -24 41 -5 63 38 88 52 31z"/>
<path d="M2650 5790 c-30 -30 -28 -104 4 -125 26 -18 52 -11 67 16 7 15 6 19 -6 19 -8 0 -15 -4 -15 -10 0 -16 -37 -11 -44 6 -9 24 2 34 41 34 33 0 35 1 29 28 -7 26 -31 52 -48 52 -4 0 -17 -9 -28 -20z m48 -23 c3 -12 -4 -17 -23 -17 -23 0 -25 2 -15 21 13 23 33 21 38 -4z"/>
<path d="M2795 5800 c-4 -6 -14 -8 -24 -5 -15 4 -17 -4 -16 -65 0 -49 4 -70 13 -70 8 0 12 18 12 56 0 47 3 57 20 61 21 6 26 18 11 28 -5 3 -13 1 -16 -5z"/>
<path d="M3140 5790 c-39 -39 -15 -140 33 -140 34 0 52 28 52 80 0 40 -5 55 -19 66 -27 19 -42 18 -66 -6z m65 -37 c11 -46 -16 -93 -42 -71 -17 14 -17 95 0 101 20 7 35 -3 42 -30z"/>
<path d="M3266 5794 c-30 -30 -16 -46 15 -18 10 9 23 13 28 9 20 -12 11 -31 -21 -46 -24 -10 -34 -22 -36 -41 -4 -30 25 -53 47 -39 7 5 21 7 30 4 15 -4 17 3 13 59 -5 81 -37 111 -76 72z m54 -84 c0 -26 -38 -47 -46 -25 -7 18 12 45 32 45 8 0 14 -9 14 -20z"/>
<path d="M1925 5730 c24 -72 24 -100 -1 -100 -8 0 -14 -5 -14 -11 0 -6 10 -9 22 -7 17 2 27 20 51 91 16 49 27 91 24 94 -12 11 -26 -9 -32 -47 -10 -57 -21 -57 -35 0 -7 29 -18 50 -25 50 -11 0 -8 -17 10 -70z"/>
<path d="M1570 5735 c0 -11 8 -15 27 -12 39 5 42 27 4 27 -21 0 -31 -5 -31 -15z"/>
<path d="M995 5391 c-11 -3 18 -9 65 -12 84 -6 -44 -4 -270 5 -84 3 -87 3 -25 -4 56 -5 44 -7 -62 -6 -104 2 -134 -1 -138 -12 -8 -21 -7 -22 22 -33 20 -7 28 -6 35 3 4 7 8 -158 8 -367 0 -209 2 -396 4 -415 2 -19 1 -25 -1 -12 -4 21 -33 32 -33 12 0 -5 -9 -10 -20 -10 -11 0 -20 5 -20 11 0 6 -19 9 -47 7 l-48 -3 -3 -42 -3 -43 50 0 c30 0 51 5 54 13 3 6 6 8 6 2 0 -5 -12 -32 -27 -60 -20 -38 -35 -52 -59 -60 -36 -10 -44 -25 -14 -25 29 0 78 46 93 86 9 26 20 37 40 41 15 3 29 13 32 22 3 9 3 -1 0 -21 -5 -37 -4 -38 26 -38 17 0 29 -4 25 -10 -8 -13 19 -72 44 -94 11 -11 21 -23 21 -28 0 -4 -100 -8 -222 -8 -123 1 -229 1 -235 1 -7 -1 -13 -12 -13 -26 l0 -25 2175 0 2175 0 0 25 0 25 -223 0 c-123 0 -227 3 -230 6 -3 4 5 15 18 26 14 10 30 37 36 59 9 27 18 39 31 39 16 0 19 5 17 26 0 4 10 12 23 19 29 15 41 6 66 -49 11 -23 26 -47 34 -53 20 -17 68 -27 68 -14 0 6 -9 11 -19 11 -21 0 -71 53 -71 75 0 7 -7 18 -15 25 -8 7 -15 18 -14 24 0 7 2 6 6 -1 3 -8 24 -13 54 -13 l49 0 0 45 0 45 -44 0 c-25 0 -48 -4 -51 -10 -3 -5 -15 -10 -25 -10 -18 0 -20 8 -19 111 1 61 5 122 9 137 l7 27 8 -27 c4 -16 11 -28 16 -28 12 0 11 117 -1 125 -6 4 -10 -5 -10 -19 0 -29 -17 -35 -27 -10 -5 13 -7 13 -14 2 -5 -8 -9 16 -9 59 0 48 4 73 12 76 10 4 10 6 1 6 -9 1 -13 18 -13 50 0 30 5 51 13 54 10 4 10 6 0 6 -17 1 -17 88 -1 94 10 4 10 6 1 6 -9 1 -13 20 -13 62 0 37 4 58 10 54 14 -9 50 13 50 30 0 17 -11 18 -150 18 -88 -1 -90 0 -35 7 47 5 29 7 -85 8 -80 1 -183 2 -230 3 -47 1 -134 1 -195 0 -60 -1 -148 -1 -195 -1 -47 1 -134 -1 -193 -5 -80 -5 -115 -4 -133 5 -26 14 -196 9 -201 -7 -4 -12 -164 -5 -190 9 -24 12 -175 5 -339 -16 -18 -3 -36 0 -42 6 -6 6 -12 6 -16 -1 -5 -7 -42 -10 -99 -9 l-92 2 95 6 c62 3 89 8 78 14 -10 4 -55 5 -100 1 -144 -12 -287 -14 -293 -4 -8 12 -152 12 -160 -1 -3 -5 28 -11 77 -13 l83 -3 -93 -2 c-68 -1 -91 1 -86 10 4 6 3 9 -2 5 -5 -3 -92 -7 -194 -10 -102 -2 -150 -2 -107 0 47 2 77 8 77 15 0 11 -16 10 -286 -8 -63 -5 -93 -3 -98 5 -8 12 -125 14 -161 2z m1713 -18 c-27 -2 -69 -2 -95 0 -27 2 -5 3 47 3 52 0 74 -1 48 -3z m395 0 c-23 -2 -64 -2 -90 0 -26 2 -7 3 42 3 50 0 71 -1 48 -3z m405 0 c-27 -2 -69 -2 -95 0 -27 2 -5 3 47 3 52 0 74 -1 48 -3z m395 0 c-23 -2 -64 -2 -90 0 -26 2 -7 3 42 3 50 0 71 -1 48 -3z m-3286 -19 c-3 -3 -12 -4 -19 -1 -8 3 -5 6 6 6 11 1 17 -2 13 -5z m43 -49 l0 -55 1800 0 1800 0 0 50 0 50 -89 0 -90 0 -4 -27 c-4 -26 -4 -26 -6 5 l-1 32 100 0 100 0 -2 -112 c0 -62 -3 -98 -5 -80 l-4 32 -155 0 -155 0 3 -270 c2 -175 -1 -270 -7 -270 -6 0 -9 95 -7 270 l3 270 -111 0 -110 0 0 -270 c0 -148 -3 -270 -7 -270 -5 0 -7 121 -5 270 l3 270 -211 0 -210 0 0 -270 c0 -148 -3 -270 -7 -270 -5 0 -7 121 -5 270 l3 270 -191 0 -190 0 -2 -272 -3 -273 -2 273 -3 272 -140 0 -140 0 -2 -272 -3 -273 -2 273 -3 272 -135 0 -135 0 -2 -272 -3 -273 -2 273 -3 272 -140 0 -140 0 -2 -272 -3 -273 -2 273 -3 272 -190 0 -190 0 -2 -272 -3 -273 -2 273 -3 272 -210 0 -210 0 0 -270 c0 -148 -3 -270 -7 -270 -5 0 -7 121 -5 270 l3 270 -116 0 -115 0 -2 -242 -3 -243 -2 243 -3 242 -155 0 -155 0 0 -47 c0 -43 4 -50 50 -92 49 -45 50 -47 50 -104 l0 -57 -55 0 -54 0 -3 230 c-2 127 0 230 5 230 4 0 7 -25 7 -55z m197 -12 c-2 -16 -4 -5 -4 22 0 28 2 40 4 28 2 -13 2 -35 0 -50z m37 59 c-7 -4 -14 -18 -17 -32 -4 -21 -4 -20 -6 8 -1 24 3 32 17 32 11 0 13 -3 6 -8z m63 2 c-3 -3 -12 -4 -19 -1 -8 3 -5 6 6 6 11 1 17 -2 13 -5z m302 -41 c-1 -53 -6 -49 -11 10 -2 20 0 37 4 37 4 0 8 -21 7 -47z m109 40 c-10 -2 -26 -2 -35 0 -10 3 -2 5 17 5 19 0 27 -2 18 -5z m220 0 c-27 -2 -69 -2 -95 0 -27 2 -5 3 47 3 52 0 74 -1 48 -3z m69 -60 c-2 -16 -4 -5 -4 22 0 28 2 40 4 28 2 -13 2 -35 0 -50z m36 60 c-7 -2 -14 -23 -15 -46 -1 -39 -2 -39 -5 -9 -5 41 2 62 19 61 10 0 10 -2 1 -6z m60 0 c-7 -2 -19 -2 -25 0 -7 3 -2 5 12 5 14 0 19 -2 13 -5z m290 0 c-7 -2 -19 -2 -25 0 -7 3 -2 5 12 5 14 0 19 -2 13 -5z m50 0 c-7 -2 -14 -23 -15 -46 -1 -39 -2 -39 -5 -9 -5 41 2 62 19 61 10 0 10 -2 1 -6z m275 0 c-49 -2 -127 -2 -175 0 -49 1 -9 3 87 3 96 0 136 -2 88 -3z m109 -60 c-2 -16 -4 -5 -4 22 0 28 2 40 4 28 2 -13 2 -35 0 -50z m372 45 c-1 -17 -3 -18 -6 -6 -3 14 -19 18 -76 21 l-72 3 78 2 c74 2 77 1 76 -20z m139 15 l-107 -4 -4 -42 -4 -42 -1 48 -2 47 113 -2 112 -2 -107 -3z m261 -40 c-1 -53 -6 -49 -11 10 -2 20 0 37 4 37 4 0 8 -21 7 -47z m24 -34 c-4 -4 -6 13 -3 39 l5 47 3 -39 c2 -21 0 -42 -5 -47z m375 34 l-1 -48 -4 42 -4 42 -72 4 -72 3 78 2 77 2 -2 -47z m62 43 c0 -2 -9 -6 -20 -9 -11 -3 -20 -1 -20 4 0 5 9 9 20 9 11 0 20 -2 20 -4z m73 -3 c-13 -2 -33 -2 -45 0 -13 2 -3 4 22 4 25 0 35 -2 23 -4z m154 1 c-3 -3 -12 -4 -19 -1 -8 3 -5 6 6 6 11 1 17 -2 13 -5z m110 -61 c-2 -16 -4 -5 -4 22 0 28 2 40 4 28 2 -13 2 -35 0 -50z m270 51 c-3 -3 -12 -4 -19 -1 -8 3 -5 6 6 6 11 1 17 -2 13 -5z m-47 -334 l0 -110 -50 0 c-54 0 -51 -4 -54 72 -1 32 7 46 49 92 28 29 51 54 53 55 1 1 2 -48 2 -109z m-120 -180 l0 -170 -50 0 c-27 0 -50 5 -50 10 0 6 -6 10 -14 10 -29 0 -56 50 -56 103 0 49 2 51 82 133 45 46 83 84 85 84 2 0 3 -76 3 -170z m-3223 20 c7 -9 13 -42 13 -77 0 -62 0 -63 -40 -88 -25 -16 -54 -25 -80 -25 l-40 0 0 167 0 167 67 -64 c37 -36 73 -72 80 -80z m-172 -10 l0 -45 -50 0 c-49 0 -50 0 -53 33 -5 54 1 61 55 59 l48 -2 0 -45z m3515 2 l0 -47 -50 -2 -50 -1 0 47 0 47 50 1 50 2 0 -47z m-3510 -107 l0 -45 -55 0 -55 0 0 45 0 45 55 0 55 0 0 -45z m3510 0 l0 -45 -50 0 -50 0 0 45 0 45 50 0 50 0 0 -45z m-3285 -65 c3 -5 1 -10 -4 -10 -6 0 -11 5 -11 10 0 6 2 10 4 10 3 0 8 -4 11 -10z m-274 -7 l-53 -4 4 -35 c2 -19 0 -34 -4 -34 -4 0 -8 18 -8 40 l0 40 58 -2 57 -2 -54 -3z m3563 -9 c5 -13 3 -14 -7 -6 -7 6 -35 12 -62 15 l-50 3 56 2 c45 2 58 -2 63 -14z m-124 -44 l0 -30 -94 0 c-90 0 -95 -1 -98 -22 -2 -16 -10 -23 -26 -24 -18 -1 -19 -1 -2 3 12 2 20 13 20 24 0 16 -7 19 -40 19 -25 0 -40 -5 -41 -12 0 -10 -2 -10 -6 0 -3 9 -38 12 -123 12 l-118 0 -46 -51 c-25 -28 -46 -55 -46 -60 0 -5 12 -9 26 -9 23 0 25 -3 19 -29 -8 -36 16 -95 44 -113 12 -7 21 -16 21 -20 0 -5 -541 -8 -1202 -7 -683 0 -1191 5 -1174 9 41 13 75 48 82 86 7 38 -4 83 -16 64 -5 -8 -9 -7 -15 7 -5 10 -9 20 -9 23 -1 3 -5 12 -10 20 -5 8 4 3 21 -12 22 -21 39 -28 70 -28 34 0 46 -6 72 -35 17 -20 28 -41 25 -50 -5 -13 16 -15 155 -15 142 0 161 2 161 16 0 11 -6 15 -20 11 -11 -3 -20 -1 -20 4 0 5 -13 6 -30 3 -37 -8 -38 2 -3 38 l27 28 271 0 272 0 23 -25 c23 -24 28 -25 144 -25 l121 1 75 82 74 82 -131 3 c-73 1 -194 1 -270 0 l-138 -3 50 -55 49 -55 -60 58 -60 57 -149 0 -149 0 -46 -42 -45 -43 40 43 39 42 -273 0 c-215 0 -271 -3 -265 -12 6 -10 4 -10 -7 0 -9 8 -50 12 -131 12 -87 0 -118 -3 -119 -12 0 -10 -2 -10 -6 0 -2 7 -22 12 -44 12 -24 0 -39 -5 -39 -12 0 -10 -2 -10 -8 -1 -5 8 -42 13 -97 16 -50 1 665 4 1588 5 l1677 2 0 25 c0 14 2 25 5 25 3 0 5 -13 5 -30z m150 -57 c-9 -15 -10 -12 -6 16 3 18 7 43 8 55 1 11 3 4 5 -16 2 -21 -1 -46 -7 -55z m-75 44 l50 -3 -57 -2 c-49 -2 -58 1 -58 16 0 11 3 13 8 5 4 -6 30 -13 57 -16z m-3552 -35 c-6 -4 -13 -23 -16 -42 -4 -33 -4 -33 -5 8 -2 34 1 42 16 42 11 0 13 -3 5 -8z m114 -39 c-3 -10 -5 -2 -5 17 0 19 2 27 5 18 2 -10 2 -26 0 -35z m3385 22 c-2 -14 -6 -25 -8 -25 -2 0 -4 11 -4 25 0 14 4 25 9 25 4 0 6 -11 3 -25z m45 19 c-3 -3 -12 -4 -19 -1 -8 3 -5 6 6 6 11 1 17 -2 13 -5z m50 -16 c-3 -8 -6 -5 -6 6 -1 11 2 17 5 13 3 -3 4 -12 1 -19z m-3202 -8 c-3 -5 -27 -9 -53 -8 l-47 1 50 7 c28 4 51 8 53 8 2 1 0 -2 -3 -8z m305 -25 c19 -19 32 -35 29 -35 -3 0 -20 16 -39 35 -19 19 -32 35 -29 35 3 0 20 -16 39 -35z m2521 17 c-7 -2 -18 1 -23 6 -8 8 -4 9 13 5 13 -4 18 -8 10 -11z m-3143 -21 c-7 -12 -18 -21 -25 -21 -7 0 -2 10 10 23 26 28 33 27 15 -2z m3397 9 c-3 -5 -14 -10 -23 -9 -14 0 -13 2 3 9 27 11 27 11 20 0z m-2868 -6 c-3 -3 -12 -4 -19 -1 -8 3 -5 6 6 6 11 1 17 -2 13 -5z m2368 -6 c-11 -6 -27 -16 -35 -22 -9 -6 -5 -1 8 12 13 12 28 22 35 22 7 0 3 -6 -8 -12z m593 -24 c2 -1 -8 -1 -22 0 -13 0 -22 3 -20 5 2 2 -2 11 -9 19 -11 14 -1 9 51 -24z m59 4 c-3 -7 -5 -2 -5 12 0 14 2 19 5 13 2 -7 2 -19 0 -25z m-3700 0 c-3 -8 -6 -5 -6 6 -1 11 2 17 5 13 3 -3 4 -12 1 -19z m284 5 c13 -16 12 -17 -3 -4 -10 7 -18 15 -18 17 0 8 8 3 21 -13z m289 2 c-7 -8 -20 -15 -29 -15 -11 0 -8 5 9 14 33 19 35 19 20 1z m2595 -6 c-4 -5 -12 -9 -18 -8 -9 0 -8 2 1 6 6 2 9 10 6 15 -4 7 -2 8 5 4 6 -4 9 -12 6 -17z m415 -1 c0 -6 -6 -5 -15 2 -8 7 -15 14 -15 16 0 2 7 1 15 -2 8 -4 15 -11 15 -16z m-135 2 c-3 -5 -12 -10 -18 -10 -7 0 -6 4 3 10 19 12 23 12 15 0z m231 -25 c-1 -14 -5 -25 -9 -25 -4 0 -16 0 -27 0 -11 0 -20 7 -20 16 0 8 4 13 9 9 6 -3 16 1 23 9 19 22 25 19 24 -9z m-3562 -10 c4 -12 -3 -15 -29 -15 -24 0 -35 5 -35 15 0 10 10 15 29 15 16 0 31 -6 35 -15z m284 -2 c-10 -2 -26 -2 -35 0 -10 3 -2 5 17 5 19 0 27 -2 18 -5z m75 0 c-7 -2 -21 -2 -30 0 -10 3 -4 5 12 5 17 0 24 -2 18 -5z m2815 0 c-10 -2 -28 -2 -40 0 -13 2 -5 4 17 4 22 1 32 -1 23 -4z m70 0 c-10 -2 -26 -2 -35 0 -10 3 -2 5 17 5 19 0 27 -2 18 -5z m242 -9 c0 -2 -9 -4 -20 -4 -11 0 -20 4 -20 9 0 5 9 7 20 4 11 -3 20 -7 20 -9z m-3262 -6 c-3 -7 -12 -14 -22 -14 -13 -2 -13 -1 -1 3 8 2 13 9 10 14 -4 5 -1 9 5 9 7 0 10 -6 8 -12z m202 -23 c0 -9 -9 -15 -22 -14 -17 1 -19 2 -5 6 9 2 17 9 17 14 0 5 2 9 5 9 3 0 5 -7 5 -15z m2677 -7 c-3 -8 -6 -5 -6 6 -1 11 2 17 5 13 3 -3 4 -12 1 -19z m200 -4 c-3 -3 -12 -4 -19 -1 -8 3 -5 6 6 6 11 1 17 -2 13 -5z m138 -23 c-3 -6 -11 -11 -16 -11 -5 0 -4 6 3 14 14 16 24 13 13 -3z m65 0 c0 -6 -11 -23 -25 -38 l-26 -28 23 37 c25 40 28 43 28 29z m-3340 -30 c-5 -11 -15 -23 -21 -27 -6 -3 -3 5 6 20 20 30 30 35 15 7z m142 -19 c45 2 90 7 98 11 9 4 28 -5 50 -23 l34 -30 -177 0 c-97 0 -177 3 -177 8 0 9 42 37 52 34 4 -1 4 6 1 16 -6 16 -5 15 14 -1 18 -16 35 -18 105 -15z m2741 13 c-3 -9 -8 -14 -10 -11 -3 3 -2 9 2 15 9 16 15 13 8 -4z m141 -15 c53 0 85 5 95 14 14 12 20 9 50 -20 l34 -34 -179 0 -179 0 32 29 c18 15 29 32 25 36 -4 5 4 1 18 -8 18 -12 46 -17 104 -17z"/>
<path d="M660 5225 c0 -13 207 -15 1800 -15 1593 0 1800 2 1800 15 0 13 -207 15 -1800 15 -1593 0 -1800 -2 -1800 -15z"/>
<path d="M2691 4519 l-53 -59 262 0 262 0 -52 60 -52 60 -156 -1 -157 0 -54 -60z"/>
<path d="M3118 4523 c27 -32 62 -69 76 -82 40 -37 34 -52 -19 -48 -40 3 -55 -5 -55 -29 0 -2 72 -4 160 -4 152 0 160 1 160 20 0 10 20 39 44 62 23 24 62 64 86 91 l43 47 -273 0 -272 0 50 -57z"/>
<path d="M2357 4381 c5 -20 11 -21 162 -21 134 0 158 2 158 15 0 8 -1 15 -1 16 -1 0 -74 3 -163 6 -161 6 -162 6 -156 -16z"/>
<path d="M1295 4135 c-21 -20 -25 -34 -25 -84 0 -52 3 -62 26 -80 15 -12 33 -21 40 -21 21 0 54 37 54 60 0 28 -15 25 -28 -6 -9 -18 -19 -24 -35 -22 -47 7 -48 139 0 146 14 2 26 -4 33 -17 13 -24 30 -28 30 -6 0 20 -36 55 -55 55 -9 0 -27 -11 -40 -25z"/>
<path d="M3093 4150 c-28 -11 -47 -78 -38 -132 8 -46 42 -74 77 -62 13 4 29 7 36 6 8 -2 12 13 12 48 l0 51 -32 -3 c-34 -3 -42 -23 -10 -23 15 0 18 -6 14 -35 -1 -5 -11 -14 -21 -20 -31 -16 -51 12 -51 70 0 27 3 55 6 64 9 23 51 20 64 -4 12 -23 30 -27 30 -7 0 36 -48 62 -87 47z"/>
<path d="M2050 4121 c0 -25 -3 -28 -27 -23 -34 6 -53 -19 -53 -70 0 -50 46 -99 65 -68 3 5 12 7 20 3 13 -4 15 11 15 91 0 57 -4 96 -10 96 -5 0 -10 -13 -10 -29z m0 -91 c0 -43 -23 -71 -43 -51 -17 17 -15 90 3 101 22 14 40 -8 40 -50z"/>
<path d="M2170 4055 c0 -57 4 -95 10 -95 6 0 10 20 10 45 l0 45 40 0 40 0 0 -45 c0 -25 5 -45 10 -45 6 0 10 38 10 95 0 53 -4 95 -9 95 -6 0 -11 -17 -13 -37 -3 -36 -5 -38 -38 -38 -33 0 -35 2 -38 38 -2 20 -7 37 -13 37 -5 0 -9 -42 -9 -95z"/>
<path d="M2993 4113 c-20 -48 -14 -150 11 -187 24 -37 30 -28 11 17 -19 46 -19 127 -1 172 9 20 11 35 5 35 -6 0 -17 -17 -26 -37z"/>
<path d="M3412 4139 c2 -6 8 -10 13 -10 5 0 11 4 13 10 2 6 -4 11 -13 11 -9 0 -15 -5 -13 -11z"/>
<path d="M3603 4136 c24 -63 27 -110 12 -169 -17 -68 -14 -83 9 -38 35 66 29 180 -11 212 -15 12 -16 12 -10 -5z"/>
<path d="M1443 4099 c-43 -16 -42 -123 2 -139 53 -20 92 45 65 109 -13 32 -35 42 -67 30z m47 -74 c0 -42 -11 -57 -37 -48 -8 3 -13 23 -13 53 0 30 5 50 13 53 22 8 37 -15 37 -58z"/>
<path d="M1682 4094 c-39 -27 -39 -114 -1 -135 16 -8 26 -7 45 6 25 16 32 35 13 35 -7 0 -17 -7 -23 -15 -13 -18 -33 -7 -38 20 -2 17 3 21 35 23 39 3 46 17 27 51 -14 26 -35 32 -58 15z m42 -45 c-3 -5 -14 -9 -25 -9 -21 0 -27 35 -6 43 14 5 39 -22 31 -34z"/>
<path d="M1871 4084 c-31 -39 -23 -113 12 -127 22 -8 55 3 62 20 8 23 -2 28 -22 11 -24 -20 -43 -12 -43 18 0 14 5 24 13 23 41 -5 57 2 57 25 0 22 -31 56 -51 56 -4 0 -17 -12 -28 -26z m59 -30 c0 -8 -10 -14 -25 -14 -18 0 -25 5 -25 19 0 11 6 21 13 24 15 6 37 -11 37 -29z"/>
<path d="M2340 4090 c-13 -13 -20 -33 -20 -60 0 -27 7 -47 20 -60 25 -25 32 -25 61 -2 30 25 32 107 4 128 -26 19 -42 17 -65 -6z m44 -6 c22 -8 22 -87 0 -105 -32 -26 -58 46 -34 92 12 21 12 21 34 13z"/>
<path d="M2621 4101 c-8 -5 -20 -7 -28 -4 -10 4 -13 -15 -13 -91 0 -57 4 -96 10 -96 6 0 10 14 10 30 0 28 2 30 21 20 17 -9 25 -8 40 6 27 25 23 111 -6 130 -12 8 -25 10 -34 5z m37 -67 c4 -50 -17 -74 -42 -49 -30 30 -17 98 18 93 17 -2 22 -11 24 -44z"/>
<path d="M2740 4102 c-8 -3 -18 -10 -22 -16 -11 -15 -10 -98 1 -115 18 -28 80 -11 81 22 0 12 -17 8 -30 -8 -16 -19 -40 -3 -40 26 0 15 7 19 36 19 32 0 35 2 32 26 -3 30 -35 55 -58 46z m30 -27 c15 -18 5 -35 -21 -35 -12 0 -19 7 -19 18 0 33 20 42 40 17z"/>
<path d="M2871 4101 c-8 -5 -20 -7 -28 -4 -10 4 -13 -11 -13 -66 0 -41 4 -71 10 -71 6 0 10 20 10 44 0 54 8 76 26 76 8 0 14 7 14 15 0 17 0 18 -19 6z"/>
<path d="M3309 4091 c-13 -11 -21 -23 -17 -27 5 -4 16 0 26 9 11 10 23 13 31 8 19 -12 6 -41 -17 -41 -25 0 -42 -19 -42 -47 0 -25 29 -46 49 -34 7 5 21 7 30 4 15 -4 17 3 13 59 -3 42 -9 67 -20 76 -21 16 -26 15 -53 -7z m51 -80 c0 -22 -25 -45 -40 -36 -16 10 -12 33 8 44 25 15 32 13 32 -8z"/>
<path d="M3511 4101 c-8 -5 -20 -7 -28 -4 -10 4 -13 -11 -13 -66 0 -54 3 -71 14 -71 10 0 13 14 12 55 -1 40 3 58 14 65 23 15 40 -16 40 -72 0 -26 5 -48 10 -48 17 0 12 116 -6 134 -18 18 -24 19 -43 7z"/>
<path d="M1553 4030 c11 -40 26 -70 33 -70 13 0 58 129 48 139 -8 8 -20 -13 -34 -59 l-14 -45 -14 53 c-8 28 -20 52 -27 52 -9 0 -7 -19 8 -70z"/>
<path d="M1780 4028 c0 -39 4 -68 10 -68 6 0 10 20 10 44 0 54 8 76 26 76 8 0 14 4 14 9 0 5 -13 9 -30 9 l-30 -1 0 -69z"/>
<path d="M2450 4003 c0 -76 3 -93 15 -93 9 0 15 10 15 26 0 18 4 25 14 21 7 -3 23 1 35 9 16 12 21 26 21 62 0 63 -8 72 -58 70 l-42 -1 0 -94z m78 34 c4 -42 -11 -69 -34 -60 -9 3 -14 21 -14 55 0 46 2 49 23 46 18 -2 23 -10 25 -41z"/>
<path d="M3210 4029 c0 -55 3 -69 15 -69 12 0 15 13 15 56 0 47 3 57 20 61 32 8 23 21 -15 21 l-35 0 0 -69z"/>
<path d="M3420 4030 c0 -40 4 -70 10 -70 6 0 10 30 10 70 0 40 -4 70 -10 70 -6 0 -10 -30 -10 -70z"/>
</g>
</svg>