<svg xmlns="http://www.w3.org/2000/svg" viewBox="697.10 253.00 689.40 274.00">
<g transform="translate(0.000000,768.000000) scale(0.100000,-0.100000)" fill="currentColor" stroke="none">
<path d="M9850 4995 l0 -105 44 0 c27 0 51 6 60 16 18 18 21 65 6 80 -8 8 -7 19 1 37 10 22 9 31 -5 52 -14 21 -24 25 -61 25 l-45 0 0 -105z m86 60 c8 -20 -13 -45 -37 -45 -14 0 -19 7 -19 30 0 25 4 30 25 30 14 0 28 -7 31 -15z m-12 -71 c25 -10 21 -60 -6 -67 -30 -8 -38 -1 -38 39 0 34 10 41 44 28z"/>
<path d="M10110 4995 l0 -105 43 0 c24 0 48 5 55 12 15 15 16 80 1 95 -8 8 -8 13 0 17 16 10 13 52 -5 70 -9 9 -32 16 -55 16 l-39 0 0 -105z m78 48 c2 -14 -3 -23 -17 -28 -28 -9 -41 1 -41 31 0 22 4 25 28 22 19 -2 28 -9 30 -25z m-3 -69 c25 -25 15 -49 -23 -52 -29 -3 -32 -1 -32 26 0 45 24 56 55 26z"/>
<path d="M10319 5038 c-1 -35 -2 -81 -3 -102 -2 -59 22 -58 26 1 3 46 4 48 36 51 43 4 41 22 -3 22 -32 0 -35 2 -35 30 0 28 3 30 35 30 24 0 35 5 35 15 0 11 -12 15 -45 15 l-45 0 -1 -62z"/>
<path d="M10430 5085 c0 -11 11 -15 43 -15 l44 0 -23 -47 c-32 -66 -46 -133 -28 -133 7 0 18 19 24 43 14 55 30 97 47 122 25 37 17 45 -47 45 -47 0 -60 -3 -60 -15z"/>
<path d="M10640 4995 l0 -105 36 0 c19 0 44 4 54 10 26 14 34 57 16 86 -10 14 -12 25 -6 29 15 9 12 52 -6 69 -9 9 -32 16 -55 16 l-39 0 0 -105z m80 51 c0 -16 -7 -27 -20 -31 -27 -9 -40 1 -40 31 0 20 5 24 30 24 25 0 30 -4 30 -24z m0 -75 c5 -11 7 -26 4 -35 -7 -18 -39 -30 -54 -21 -11 7 -14 58 -3 68 13 14 43 7 53 -12z"/>
<path d="M11150 5085 c0 -8 7 -15 15 -15 8 0 15 7 15 15 0 8 -7 15 -15 15 -8 0 -15 -7 -15 -15z"/>
<path d="M11220 5072 c0 -10 -6 -24 -12 -30 -10 -10 -10 -15 -1 -20 7 -4 13 -34 15 -67 3 -53 5 -60 26 -63 25 -4 30 13 7 22 -21 8 -19 106 2 106 7 0 13 7 13 15 0 8 -7 15 -15 15 -8 0 -15 9 -15 20 0 11 -4 20 -10 20 -5 0 -10 -8 -10 -18z"/>
<path d="M10892 4973 l3 -78 49 -2 49 -2 -7 52 c-3 29 -6 64 -6 80 0 15 -4 27 -10 27 -6 0 -10 -26 -10 -59 0 -39 -5 -63 -15 -71 -25 -20 -35 -1 -35 66 0 38 -4 64 -10 64 -7 0 -10 -29 -8 -77z"/>
<path d="M11020 4967 c0 -59 3 -78 13 -74 8 2 11 20 9 54 -3 37 1 54 13 67 26 25 35 10 35 -60 0 -50 3 -64 15 -64 12 0 15 13 15 61 0 82 -10 98 -60 96 l-40 -1 0 -79z"/>
<path d="M11150 4970 c0 -64 3 -80 15 -80 12 0 15 16 15 80 0 64 -3 80 -15 80 -12 0 -15 -16 -15 -80z"/>
<path d="M10000 4965 c0 -10 11 -15 35 -15 24 0 35 5 35 15 0 10 -11 15 -35 15 -24 0 -35 -5 -35 -15z"/>
<path d="M10780 4964 c0 -11 9 -14 37 -12 52 4 56 28 4 28 -30 0 -41 -4 -41 -16z"/>
<path d="M7024 4638 c-3 -4 37 -7 88 -7 104 1 100 6 -10 11 -41 2 -76 0 -78 -4z"/>
<path d="M7518 4633 c7 -3 16 -2 19 1 4 3 -2 6 -13 5 -11 0 -14 -3 -6 -6z"/>
<path d="M7558 4633 c7 -3 16 -2 19 1 4 3 -2 6 -13 5 -11 0 -14 -3 -6 -6z"/>
<path d="M7618 4633 c7 -3 16 -2 19 1 4 3 -2 6 -13 5 -11 0 -14 -3 -6 -6z"/>
<path d="M8173 4633 c9 -2 23 -2 30 0 6 3 -1 5 -18 5 -16 0 -22 -2 -12 -5z"/>
<path d="M8498 4633 c7 -3 16 -2 19 1 4 3 -2 6 -13 5 -11 0 -14 -3 -6 -6z"/>
<path d="M8823 4633 c9 -2 25 -2 35 0 9 3 1 5 -18 5 -19 0 -27 -2 -17 -5z"/>
<path d="M9093 4633 c9 -2 23 -2 30 0 6 3 -1 5 -18 5 -16 0 -22 -2 -12 -5z"/>
<path d="M9148 4633 c7 -3 16 -2 19 1 4 3 -2 6 -13 5 -11 0 -14 -3 -6 -6z"/>
<path d="M9298 4633 c12 -2 30 -2 40 0 9 3 -1 5 -23 4 -22 0 -30 -2 -17 -4z"/>
<path d="M9458 4633 c18 -2 45 -2 60 0 15 2 0 4 -33 4 -33 0 -45 -2 -27 -4z"/>
<path d="M9608 4633 c12 -2 32 -2 45 0 12 2 2 4 -23 4 -25 0 -35 -2 -22 -4z"/>
<path d="M9773 4633 c9 -2 23 -2 30 0 6 3 -1 5 -18 5 -16 0 -22 -2 -12 -5z"/>
<path d="M10108 4633 c7 -3 16 -2 19 1 4 3 -2 6 -13 5 -11 0 -14 -3 -6 -6z"/>
<path d="M10228 4633 c17 -2 47 -2 65 0 17 2 3 4 -33 4 -36 0 -50 -2 -32 -4z"/>
<path d="M10398 4633 c12 -2 30 -2 40 0 9 3 -1 5 -23 4 -22 0 -30 -2 -17 -4z"/>
<path d="M10558 4633 c23 -2 59 -2 80 0 20 2 1 4 -43 4 -44 0 -61 -2 -37 -4z"/>
<path d="M10703 4633 c15 -2 39 -2 55 0 15 2 2 4 -28 4 -30 0 -43 -2 -27 -4z"/>
<path d="M10902 4633 c37 -2 100 -2 140 0 40 1 10 3 -67 3 -77 0 -110 -1 -73 -3z"/>
<path d="M11778 4633 c7 -3 16 -2 19 1 4 3 -2 6 -13 5 -11 0 -14 -3 -6 -6z"/>
<path d="M11843 4633 c9 -2 25 -2 35 0 9 3 1 5 -18 5 -19 0 -27 -2 -17 -5z"/>
<path d="M11978 4633 c12 -2 30 -2 40 0 9 3 -1 5 -23 4 -22 0 -30 -2 -17 -4z"/>
<path d="M12188 4633 c12 -2 30 -2 40 0 9 3 -1 5 -23 4 -22 0 -30 -2 -17 -4z"/>
<path d="M12333 4633 c9 -2 23 -2 30 0 6 3 -1 5 -18 5 -16 0 -22 -2 -12 -5z"/>
<path d="M12648 4633 c6 -2 18 -2 25 0 6 3 1 5 -13 5 -14 0 -19 -2 -12 -5z"/>
<path d="M13283 4633 c9 -2 25 -2 35 0 9 3 1 5 -18 5 -19 0 -27 -2 -17 -5z"/>
<path d="M13453 4633 c9 -2 23 -2 30 0 6 3 -1 5 -18 5 -16 0 -22 -2 -12 -5z"/>
<path d="M13588 4633 c7 -3 16 -2 19 1 4 3 -2 6 -13 5 -11 0 -14 -3 -6 -6z"/>
<path d="M8650 4154 c0 -44 1 -46 23 -39 12 4 50 10 84 12 62 5 63 5 54 -19 -8 -22 -14 -23 -132 -29 -130 -7 -264 -31 -311 -55 -34 -18 -64 -57 -118 -157 -24 -43 -48 -80 -54 -82 -6 -2 -87 -11 -181 -20 -218 -21 -252 -29 -292 -67 -59 -57 -73 -105 -118 -395 -15 -92 -29 -178 -32 -190 l-5 -23 213 -3 214 -2 -247 -3 -247 -2 2 -30 2 -30 113 0 c68 0 112 -4 112 -10 0 -6 -45 -10 -116 -10 -88 0 -115 -3 -111 -12 3 -10 151 -14 687 -15 376 -2 685 -5 688 -8 4 -3 6 -71 6 -150 1 -138 2 -145 21 -145 11 0 26 4 33 9 10 6 9 10 -7 14 -19 5 -21 12 -21 86 l0 81 55 0 55 0 0 -70 c0 -43 -4 -70 -11 -70 -5 0 -7 5 -4 10 4 6 -12 10 -39 10 -35 0 -46 -4 -46 -15 0 -13 11 -15 58 -13 l57 3 3 128 3 127 24 0 25 0 0 405 c0 272 3 405 10 405 7 0 10 -131 8 -405 l-3 -405 1443 0 1442 0 0 411 c0 271 3 408 10 404 6 -4 10 -152 10 -411 l0 -404 23 0 c22 0 22 -2 22 -128 l0 -127 71 -3 c58 -2 73 0 78 13 3 9 6 67 7 130 1 106 2 115 20 115 18 0 19 14 21 408 l3 407 2 -402 3 -402 98 -3 c53 -2 355 -5 670 -6 507 -2 572 -1 572 13 0 12 -18 15 -110 15 -67 0 -110 4 -110 10 0 6 43 10 110 10 l110 0 0 30 0 30 -242 2 -243 3 208 2 c240 4 217 -13 192 138 -8 50 -24 148 -35 218 -22 146 -42 198 -93 249 -43 43 -74 51 -293 73 -87 9 -169 20 -180 25 -13 5 -44 49 -75 105 -30 53 -66 105 -80 116 -43 30 -192 60 -334 68 -127 6 -130 7 -133 29 -4 23 -2 24 55 19 32 -2 68 -8 81 -12 21 -7 22 -5 22 40 0 38 -3 45 -13 37 -18 -15 -121 -27 -144 -17 -10 5 -28 10 -40 11 -20 2 -23 -2 -23 -33 0 -28 3 -34 16 -29 12 5 15 2 10 -10 -3 -8 -6 -20 -6 -25 0 -5 -73 -9 -170 -9 l-170 0 0 -50 0 -50 -1362 2 -1363 3 -3 48 -3 47 -163 0 -164 0 -4 25 c-5 21 -2 25 13 20 16 -5 19 -1 19 29 0 33 -2 36 -27 33 -16 -2 -36 -7 -46 -11 -21 -10 -124 2 -132 15 -14 22 -25 6 -25 -37z m-266 -245 c14 -11 26 -28 26 -37 0 -25 -58 -122 -73 -122 -7 0 -28 13 -46 28 l-34 28 33 62 c36 68 51 75 94 41z m4428 -34 c35 -63 34 -74 -4 -104 -37 -30 -51 -23 -86 40 -29 51 -25 89 10 107 37 18 51 10 80 -43z m-160 -42 c23 -25 98 -147 98 -159 0 -15 -23 13 -51 64 -18 31 -43 69 -57 85 l-26 27 -2059 0 c-1407 0 -2064 -3 -2078 -10 -10 -6 -40 -47 -66 -91 -25 -43 -48 -77 -50 -75 -7 7 68 138 94 164 l22 22 2074 0 2073 0 26 -27z m-433 -27 c8 -5 11 -91 11 -297 l0 -289 -100 0 -100 0 0 290 0 291 23 9 c24 11 147 7 166 -4z m-3689 -106 l0 -111 -61 3 c-91 4 -93 15 -30 127 38 65 58 91 72 91 18 0 19 -8 19 -110z m235 0 l0 -105 -102 -3 -103 -3 0 111 0 111 103 -3 102 -3 0 -105z m303 -187 l2 -293 -100 0 -100 0 0 288 c0 159 3 292 7 296 4 4 48 5 98 4 l90 -3 3 -292z m3482 187 l0 -110 -99 0 c-55 0 -102 4 -105 8 -4 8 -10 166 -7 200 1 9 29 12 106 12 l105 0 0 -110z m72 93 c14 -17 57 -89 84 -142 23 -43 3 -61 -66 -61 l-60 0 0 110 c0 115 8 132 42 93z m-3772 -409 c0 -223 -4 -403 -8 -400 -9 6 -17 781 -7 796 3 5 8 10 11 10 2 0 4 -183 4 -406z m3120 166 c0 -7 -223 -10 -650 -10 l-650 0 0 -215 0 -215 645 0 c423 0 645 -3 645 -10 0 -7 -478 -10 -1415 -10 -937 0 -1415 3 -1415 10 0 7 222 10 645 10 l645 0 0 215 0 215 -645 0 c-423 0 -645 3 -645 10 0 7 480 10 1420 10 940 0 1420 -3 1420 -10z m-4075 -90 l0 -45 -105 0 -105 0 -3 33 c-6 61 -3 63 110 60 l103 -3 0 -45z m5530 0 l0 -45 -105 0 -105 0 -3 33 c-6 61 -3 63 110 60 l103 -3 0 -45z m-4390 -320 l0 -34 -55 1 c-30 1 -61 2 -67 2 -14 1 -18 53 -6 65 4 4 34 6 68 4 l60 -3 0 -35z m3165 -1 c0 -24 -5 -29 -32 -33 -28 -4 -71 -3 -101 2 -5 1 -7 14 -5 30 3 25 7 27 58 32 71 7 80 4 80 -31z m-3162 -96 l3 -33 -70 0 -71 0 0 35 0 36 68 -3 67 -3 3 -32z m3162 3 c0 -39 -20 -47 -96 -38 -40 4 -44 7 -44 32 0 15 3 30 7 33 3 4 35 7 70 7 l63 0 0 -34z m220 -6 c0 -18 -6 -20 -57 -18 l-58 2 53 3 c28 2 52 8 52 13 0 5 -24 11 -52 13 l-53 3 58 2 c51 2 57 0 57 -18z m-3400 -110 l0 -40 -54 0 -54 0 -4 40 -4 40 58 0 58 0 0 -40z m3169 -12 c0 -29 -3 -47 -6 -40 -3 7 -24 12 -54 12 l-49 0 0 40 0 40 55 0 55 0 -1 -52z m-1 -120 l-3 -63 -52 0 -53 0 0 62 0 63 55 0 56 0 -3 -62z"/>
<path d="M12047 3794 c-4 -4 -7 -133 -7 -286 l0 -278 89 0 89 0 -1 283 -2 282 -80 3 c-45 1 -84 0 -88 -4z m127 -14 c25 -9 26 -13 26 -89 0 -93 -8 -103 -77 -99 l-48 3 -3 92 c-2 81 -1 92 15 96 32 8 61 7 87 -3z"/>
<path d="M8887 3793 c-4 -3 -7 -132 -7 -285 l0 -278 85 0 85 0 2 138 c1 75 2 196 3 267 1 72 0 138 -2 148 -4 14 -16 17 -82 17 -43 0 -81 -3 -84 -7z m141 -105 l-3 -93 -48 -3 c-69 -4 -77 6 -77 98 0 42 3 80 7 83 3 4 33 7 65 7 l59 0 -3 -92z"/>
<path d="M10440 3325 l0 -215 110 0 110 0 0 215 0 215 -110 0 -110 0 0 -215z"/>
<path d="M7694 3486 c-3 -8 -4 -25 -2 -38 3 -22 8 -23 81 -26 l78 -3 -3 38 -3 38 -73 3 c-56 2 -74 0 -78 -12z"/>
<path d="M7860 3460 c0 -40 15 -54 26 -25 8 20 -4 65 -16 65 -6 0 -10 -18 -10 -40z"/>
<path d="M13224 3486 c-8 -22 -1 -59 14 -64 8 -2 12 9 12 37 0 40 -15 55 -26 27z"/>
<path d="M13267 3494 c-4 -4 -7 -23 -7 -41 l0 -34 78 3 77 3 0 35 0 35 -70 3 c-39 1 -74 0 -78 -4z"/>
<path d="M8910 3140 c0 -18 7 -20 59 -20 54 0 59 2 54 20 -5 17 -14 20 -59 20 -47 0 -54 -2 -54 -20z"/>
<path d="M12080 3140 c0 -18 7 -20 55 -20 48 0 55 2 55 20 0 18 -7 20 -55 20 -48 0 -55 -2 -55 -20z"/>
<path d="M8910 3045 c0 -24 3 -25 55 -25 52 0 55 1 55 25 0 24 -3 25 -55 25 -52 0 -55 -1 -55 -25z"/>
<path d="M12080 3045 c0 -24 3 -25 55 -25 52 0 55 1 55 25 0 24 -3 25 -55 25 -52 0 -55 -1 -55 -25z"/>
<path d="M8920 2935 c0 -22 4 -25 35 -25 19 0 38 -1 43 -2 4 -2 8 9 10 25 3 26 2 27 -42 27 -42 0 -46 -2 -46 -25z"/>
<path d="M12090 2935 c0 -23 4 -25 45 -25 41 0 45 2 45 25 0 23 -4 25 -45 25 -41 0 -45 -2 -45 -25z"/>
<path d="M12097 2844 c-4 -4 -7 -20 -7 -36 0 -27 2 -28 46 -28 45 0 45 0 41 33 -3 29 -7 32 -38 35 -19 2 -38 0 -42 -4z"/>
<path d="M12095 2760 c-3 -5 3 -10 14 -10 12 0 21 5 21 10 0 6 -6 10 -14 10 -8 0 -18 -4 -21 -10z"/>
<path d="M12146 2755 c4 -8 10 -15 15 -15 5 0 9 7 9 15 0 8 -7 15 -15 15 -9 0 -12 -6 -9 -15z"/>
<path d="M10780 4100 c0 -19 -7 -20 -127 -20 -81 0 -148 6 -183 15 -70 19 -144 19 -206 0 -63 -19 -138 -19 -200 0 -63 19 -128 19 -190 0 -39 -12 -114 -15 -361 -15 l-313 0 0 -40 0 -40 875 0 875 0 0 40 0 40 -60 0 c-53 0 -60 2 -60 20 0 15 -7 20 -25 20 -18 0 -25 -5 -25 -20z"/>
<path d="M11033 4091 c-53 -13 -63 -19 -63 -38 0 -12 -3 -28 -6 -37 -6 -14 39 -16 465 -16 l471 0 -3 38 -2 37 -325 6 c-213 3 -337 9 -360 17 -44 15 -99 13 -177 -7z"/>
<path d="M7637 3733 c-4 -3 -7 -43 -6 -87 l1 -81 14 42 c9 23 33 62 55 87 l41 46 -49 0 c-28 0 -53 -3 -56 -7z"/>
<path d="M13370 3737 c0 -3 14 -20 32 -38 17 -19 41 -56 54 -84 l23 -50 -2 85 -2 85 -52 3 c-29 2 -53 1 -53 -1z"/>
<path d="M7510 2920 c0 -35 -3 -40 -24 -40 -16 0 -26 7 -29 21 -5 17 -11 20 -29 15 -13 -3 -38 -6 -55 -6 l-33 0 0 -65 0 -65 56 0 c39 0 60 5 72 17 36 36 24 -28 -22 -124 -25 -52 -46 -97 -46 -99 0 -2 35 -4 78 -4 77 0 79 1 109 35 30 33 34 35 97 35 63 0 66 1 66 24 0 13 8 48 17 77 22 68 107 158 184 193 l54 24 -247 1 -248 1 0 -40z m200 -230 c0 -28 -2 -30 -40 -30 -38 0 -40 2 -40 30 0 28 2 30 40 30 38 0 40 -2 40 -30z"/>
<path d="M8587 2950 c-205 -10 -330 -44 -180 -49 56 -1 80 -6 86 -17 13 -24 207 -20 257 6 22 11 57 20 80 20 36 0 40 2 40 25 0 24 -2 25 -67 23 -38 0 -134 -4 -216 -8z"/>
<path d="M9062 2919 l3 -44 133 -3 c113 -2 132 0 132 13 0 15 32 20 102 18 16 -1 26 2 23 7 -7 11 -68 21 -185 31 -58 5 -129 11 -158 15 l-53 6 3 -43z"/>
<path d="M9800 2955 c0 -2 17 -13 38 -24 39 -20 110 -91 131 -130 8 -14 21 -21 41 -21 l30 0 0 90 0 90 -120 0 c-66 0 -120 -2 -120 -5z"/>
<path d="M10057 2954 c-4 -4 -7 -79 -7 -166 l0 -158 564 0 564 0 -5 163 c-3 89 -6 162 -7 163 0 0 -216 -2 -478 -4 l-478 -4 0 -44 0 -44 -46 0 -46 0 3 48 c3 46 3 47 -27 50 -16 2 -33 0 -37 -4z"/>
<path d="M11190 2870 c0 -54 4 -90 10 -90 6 0 43 33 83 73 40 39 84 80 97 89 24 17 22 17 -82 18 l-108 0 0 -90z"/>
<path d="M11996 2952 c-3 -5 -45 -12 -93 -15 -48 -4 -98 -10 -110 -13 -36 -10 -16 -24 33 -24 30 0 46 -5 50 -15 5 -12 24 -15 85 -15 l79 0 0 45 c0 38 -3 45 -19 45 -11 0 -22 -4 -25 -8z"/>
<path d="M12230 2936 c0 -26 0 -26 89 -26 67 0 99 -5 132 -20 35 -16 66 -20 157 -20 88 0 112 3 112 14 0 16 83 30 127 21 25 -5 24 -3 -7 12 -35 16 -124 24 -482 39 l-128 6 0 -26z"/>
<path d="M13211 2930 c31 -16 70 -45 87 -64 35 -40 62 -119 62 -183 l0 -43 64 0 c61 0 66 -2 95 -35 30 -35 31 -35 111 -35 44 0 80 2 80 4 0 3 -20 46 -45 97 -50 103 -57 140 -25 132 11 -3 20 -9 20 -14 0 -5 25 -9 55 -9 l55 0 0 65 0 65 -39 0 c-22 0 -47 3 -56 6 -11 5 -18 0 -22 -15 -3 -14 -13 -21 -28 -21 -19 0 -24 7 -30 40 l-7 40 -216 0 -217 -1 56 -29z m269 -240 c0 -28 -2 -30 -40 -30 -42 0 -58 15 -46 45 3 10 19 15 46 15 38 0 40 -2 40 -30z"/>
<path d="M10160 2941 c17 -5 21 -9 12 -15 -6 -4 -16 -4 -22 -1 -6 4 -10 -7 -10 -24 0 -28 3 -31 30 -31 28 0 30 2 30 40 0 39 -1 40 -32 39 -30 -1 -31 -2 -8 -8z"/>
<path d="M8170 2881 c0 -34 3 -39 29 -44 52 -11 67 -1 63 44 -4 39 -4 39 -48 39 l-44 0 0 -39z"/>
<path d="M9550 2880 l0 -40 50 0 50 0 0 40 0 40 -50 0 -50 0 0 -40z"/>
<path d="M11557 2913 c-4 -3 -7 -21 -7 -40 l0 -33 50 0 50 0 0 40 0 40 -43 0 c-24 0 -47 -3 -50 -7z"/>
<path d="M12947 2913 c-2 -5 -4 -23 -5 -40 l-2 -33 50 0 50 0 0 40 0 40 -44 0 c-25 0 -47 -3 -49 -7z"/>
<path d="M11661 2883 l-1 -33 94 0 c82 0 95 2 99 18 4 16 5 16 6 -1 0 -10 5 -16 11 -12 5 3 7 12 3 20 -4 12 -26 15 -103 15 -69 0 -100 4 -103 13 -3 6 -6 -3 -6 -20z"/>
<path d="M8108 2892 c-21 -2 -38 -9 -38 -15 0 -8 15 -11 45 -9 25 2 45 8 45 12 0 13 -11 16 -52 12z"/>
<path d="M8272 2877 c3 -20 10 -22 82 -25 44 -2 83 1 87 5 19 19 -11 30 -89 36 -81 5 -83 5 -80 -16z"/>
<path d="M8770 2883 c-25 -18 -65 -22 -390 -39 -58 -3 -109 -9 -114 -15 -17 -16 -96 -11 -103 7 -5 14 -20 15 -99 11 -76 -4 -94 -3 -98 9 -3 9 -10 12 -16 9 -16 -10 -12 -185 5 -218 14 -27 13 -29 -5 -34 -11 -3 -20 -12 -20 -19 0 -11 18 -14 74 -14 60 0 82 -5 117 -25 l44 -25 -432 0 -433 0 0 -35 0 -35 3258 2 3257 3 0 30 0 30 -384 3 -384 2 47 25 c37 20 62 25 117 25 43 0 69 4 69 11 0 6 -9 13 -20 16 -16 4 -19 11 -14 27 26 79 33 209 13 222 -6 3 -14 2 -18 -4 -4 -6 -37 -8 -93 -3 -77 6 -89 4 -103 -11 -16 -20 -105 -26 -105 -8 0 6 -43 10 -109 10 -63 0 -112 4 -116 10 -4 6 -55 10 -121 10 -95 0 -120 3 -151 20 -29 16 -57 20 -124 20 l-87 0 -4 -40 -4 -40 62 0 c46 0 68 -5 85 -19 22 -18 23 -21 7 -33 -12 -9 -18 -31 -20 -72 l-3 -60 -55 -1 c-30 0 -58 4 -62 10 -9 12 -10 87 -2 109 5 12 21 16 71 16 86 0 82 23 -4 30 -34 3 -59 2 -56 -2 2 -5 0 -8 -6 -8 -6 0 -13 -12 -17 -27 -4 -16 -13 -38 -21 -51 -8 -13 -13 -37 -11 -55 l3 -32 101 -3 102 -3 7 57 c11 89 52 115 170 109 22 -1 54 -3 71 -3 l31 -2 -1 -57 -1 -58 -59 0 c-57 1 -60 2 -100 48 -22 26 -47 47 -53 47 -22 0 -43 -46 -47 -103 -2 -30 -7 -60 -11 -66 -7 -12 -194 -15 -210 -3 -5 4 -10 12 -10 17 -1 6 -4 29 -9 53 -8 45 -21 53 -41 25 -25 -35 23 -108 93 -139 17 -8 32 -15 32 -17 0 -1 -139 -2 -310 -2 -170 0 -310 2 -310 5 0 4 15 11 33 18 17 7 40 19 50 26 17 13 17 15 -3 47 l-21 34 3 -35 3 -35 -110 -1 -110 0 103 3 c62 2 102 8 102 14 0 7 -36 9 -104 7 l-104 -3 -6 53 c-4 30 -14 68 -24 85 l-17 32 -3 -54 c-2 -29 2 -67 7 -84 14 -39 5 -48 -11 -11 -6 16 -11 57 -10 92 1 62 -9 77 -35 51 -8 -8 -14 -6 -22 9 -10 19 -8 20 32 15 23 -3 48 -10 54 -16 15 -11 43 -100 43 -134 0 -23 2 -23 100 -23 l99 0 7 51 c4 32 16 62 31 80 23 27 29 29 99 29 58 0 74 -3 74 -14 0 -11 -14 -16 -47 -18 -28 -2 -47 -8 -49 -16 -1 -7 0 -8 3 -2 5 11 52 14 77 4 22 -8 20 -44 -1 -45 -10 -1 -35 -2 -55 -1 -39 1 -52 -13 -20 -21 15 -4 15 -5 0 -6 -21 -1 -58 45 -58 73 -1 21 -1 21 -20 -3 -27 -32 -25 -67 6 -108 l25 -33 105 0 c138 0 186 13 224 59 17 19 30 39 30 43 0 16 -52 7 -80 -13 -25 -19 -37 -21 -91 -15 -41 4 -67 2 -76 -6 -11 -9 -18 -8 -31 5 -9 10 -11 17 -5 17 6 0 14 -6 16 -12 4 -10 8 -10 14 -2 4 7 17 13 28 16 17 3 20 11 18 48 -1 25 4 48 10 52 7 4 36 8 65 8 l52 0 0 35 0 35 -73 0 c-40 0 -77 -4 -83 -9 -5 -6 -61 -12 -124 -15 -63 -4 -137 -7 -163 -8 -32 -2 -51 2 -56 11 -7 11 -27 13 -94 8 -74 -6 -86 -5 -91 10 -5 13 -9 14 -19 4 -14 -14 -11 -200 4 -216 15 -15 10 -35 -9 -35 -10 0 -19 -7 -19 -15 0 -12 15 -15 71 -15 54 0 83 -5 118 -22 26 -13 47 -25 48 -28 0 -3 -427 -5 -949 -5 -522 0 -947 3 -944 8 2 4 10 7 17 7 7 0 25 9 39 20 20 16 40 20 101 20 61 0 76 3 76 15 0 8 -6 15 -14 15 -21 0 -30 19 -16 35 12 14 22 176 12 203 -2 6 -11 12 -19 12 -9 0 -13 -6 -10 -14 4 -11 -2 -12 -31 -6 -20 5 -61 10 -90 12 -45 4 -55 2 -63 -15 -9 -16 -18 -18 -62 -12 -29 3 -99 8 -157 11 -58 3 -109 9 -114 15 -6 5 -70 9 -143 9 l-133 0 0 -46 c0 -43 2 -46 23 -40 39 10 176 18 200 13 20 -6 22 -11 19 -52 -3 -28 0 -45 7 -45 6 0 11 9 11 20 0 11 5 20 11 20 6 0 9 -7 5 -15 -4 -10 1 -15 14 -15 11 0 20 -5 20 -11 0 -6 -9 -8 -20 -4 -11 3 -20 2 -20 -4 0 -15 100 -7 111 10 5 8 9 29 9 47 l0 32 -61 0 c-33 0 -58 -4 -55 -9 3 -4 24 -6 46 -4 24 2 40 0 40 -7 0 -5 -22 -10 -50 -10 -43 0 -50 3 -50 20 0 18 7 20 69 20 60 0 71 -3 95 -26 14 -15 27 -36 28 -48 1 -11 3 -30 4 -41 1 -11 2 -26 3 -32 1 -10 28 -13 99 -13 l98 0 17 73 c18 76 34 97 77 97 14 0 31 5 38 12 14 14 16 0 3 -21 -6 -8 -18 -11 -32 -8 -24 6 -24 5 -24 -73 -1 -74 0 -78 18 -68 20 10 33 5 23 -10 -3 -5 -22 -9 -42 -10 -28 -1 -34 1 -26 11 16 19 26 112 14 132 -9 17 -10 17 -21 -2 -6 -11 -16 -49 -23 -84 l-12 -64 -104 2 c-64 1 -107 6 -112 12 -4 8 -12 5 -23 -7 -17 -18 -16 -20 21 -46 21 -14 43 -26 50 -26 7 0 12 -4 12 -9 0 -5 -12 -8 -27 -6 -16 2 -152 4 -303 5 -238 1 -271 3 -245 14 17 7 42 26 55 42 19 21 33 29 57 28 l31 -1 -21 29 -22 30 -6 -24 c-6 -19 -7 -16 -8 13 -1 20 -7 42 -15 48 -16 13 -19 7 -31 -61 l-6 -38 -106 0 c-76 0 -104 -3 -96 -11 6 -6 47 -9 106 -7 52 2 93 0 90 -4 -5 -9 -168 -11 -198 -2 -16 4 -21 14 -21 42 0 20 -4 55 -8 77 l-8 40 -14 -25 c-33 -60 -2 -140 66 -168 22 -10 40 -19 40 -22 0 -3 -137 -5 -305 -5 -168 0 -305 3 -305 8 0 4 6 7 14 7 7 0 29 13 48 28 35 27 35 28 18 50 -21 26 -30 28 -30 7 0 -13 -16 -15 -107 -13 -107 3 -108 3 -111 28 -6 51 -33 130 -42 125 -13 -8 -13 -97 1 -132 8 -21 7 -25 -1 -17 -18 18 -31 92 -24 130 6 34 6 34 -21 24 -35 -13 -35 -13 -35 8 0 15 7 17 41 14 33 -4 44 -10 60 -36 10 -17 22 -47 25 -66 12 -74 6 -70 109 -70 l94 0 13 62 c12 53 19 65 47 82 21 12 53 19 89 20 52 1 57 -1 60 -22 3 -22 1 -23 -50 -20 -38 2 -52 7 -50 16 1 8 -3 12 -10 10 -31 -11 -8 -99 25 -97 9 0 9 2 0 6 -20 8 -15 21 10 26 l22 4 -22 2 c-46 2 -22 21 27 21 28 0 50 -5 50 -10 0 -6 -6 -10 -12 -9 -29 3 -38 -2 -38 -22 0 -16 5 -20 20 -16 11 3 20 1 20 -4 0 -5 -23 -8 -52 -6 -54 2 -64 11 -83 71 -4 14 -8 16 -19 7 -34 -28 -19 -118 24 -141 26 -14 214 -13 262 2 40 12 85 56 121 117 17 29 17 30 -4 42 -18 9 -24 8 -32 -7 -6 -11 -27 -36 -48 -57 -35 -35 -42 -38 -86 -35 l-48 3 -3 62 -3 63 93 -1 c144 -1 167 -17 183 -122 l7 -47 99 0 c91 0 99 2 99 19 0 11 3 26 6 35 8 21 -32 22 -52 1 -9 -8 -33 -15 -55 -15 l-39 0 -1 48 c-1 26 -3 39 -6 30 -2 -10 -8 -18 -13 -18 -5 0 -7 7 -3 15 3 9 -2 22 -13 30 -18 14 -18 16 9 39 20 19 27 34 27 61 0 34 -1 35 -38 35 -21 0 -49 -8 -62 -17z m2893 -95 c20 -10 22 -27 5 -33 -8 -3 -14 -25 -15 -50 -1 -24 -4 -49 -8 -55 -3 -5 -31 -10 -61 -10 l-54 0 -2 60 c-1 33 -2 68 -2 77 -2 31 86 38 137 11z m1577 2 c0 -16 -7 -20 -30 -20 -30 0 -30 -1 -30 -54 0 -30 -3 -61 -6 -70 -5 -13 1 -16 26 -16 29 0 30 -1 15 -17 -14 -14 -18 -14 -26 -2 -7 11 -12 12 -29 1 -11 -7 -20 -8 -20 -3 0 5 5 11 10 13 15 5 25 134 12 142 -15 9 -28 -18 -43 -92 l-13 -62 -97 0 c-130 0 -140 -18 -12 -23 l98 -3 -102 -2 -103 -2 0 33 0 32 -19 -24 c-17 -23 -18 -26 -2 -42 9 -10 33 -25 54 -34 20 -8 37 -16 37 -18 0 -2 -576 -1 -600 2 -8 1 1 10 20 20 44 24 67 49 73 81 l4 25 2 -26 c1 -22 5 -25 31 -21 l30 4 -23 28 c-12 15 -24 26 -27 24 -3 -1 -10 13 -16 31 -14 43 -1 36 30 -18 41 -69 71 -81 217 -85 l126 -4 26 32 c28 33 35 77 17 111 -16 28 -27 23 -34 -15 -8 -39 -27 -59 -49 -50 -9 3 -23 1 -33 -4 -25 -14 -63 8 -60 35 2 13 5 26 9 29 3 3 3 12 0 20 -4 11 6 14 48 12 51 -1 51 -2 12 -5 -24 -2 -43 -8 -43 -13 0 -4 10 -6 23 -4 16 3 15 1 -6 -7 -15 -6 -24 -15 -21 -21 4 -6 2 -13 -5 -17 -6 -4 7 -7 28 -6 22 0 37 3 34 8 -2 4 3 7 12 7 9 0 13 -4 10 -10 -3 -5 -1 -10 5 -10 12 0 30 42 30 70 0 17 -9 20 -72 23 l-73 3 76 2 c70 2 78 0 103 -24 14 -15 27 -37 27 -50 1 -13 3 -28 4 -34 1 -5 3 -19 4 -30 1 -19 8 -20 101 -20 90 0 100 2 100 18 0 33 30 121 47 137 12 12 26 15 50 10 18 -3 33 -2 32 2 -2 13 1 23 6 23 3 0 5 -9 5 -20z m-4959 -7 c11 -13 11 -17 2 -20 -8 -3 -13 -24 -13 -58 0 -30 -3 -56 -8 -59 -4 -2 -32 -6 -62 -7 l-55 -3 -6 74 c-3 41 -4 78 -2 83 2 4 33 7 67 7 47 0 67 -4 77 -17z m1399 -2 c7 -14 7 -22 0 -26 -6 -4 -8 -15 -5 -26 4 -11 2 -19 -4 -19 -6 0 -11 9 -11 19 0 21 -40 36 -71 26 -11 -4 -19 -2 -19 6 0 8 14 10 50 6 29 -4 50 -2 50 3 0 14 -40 22 -86 18 -30 -2 -39 -7 -38 -20 1 -10 -2 -18 -7 -18 -13 0 -11 24 3 38 7 7 38 12 70 12 46 0 59 -4 68 -19z m3385 3 c10 -11 13 -20 6 -28 -5 -6 -11 -34 -13 -61 l-3 -50 -57 -5 -58 -5 1 30 c1 24 3 26 6 7 4 -21 9 -23 51 -20 l47 3 3 44 c2 28 -1 47 -10 52 -24 15 -31 9 -14 -10 34 -37 -1 -100 -41 -75 -21 13 -25 76 -5 80 7 1 8 0 2 -3 -5 -2 -10 -17 -10 -33 0 -31 25 -47 46 -29 20 16 17 42 -6 62 -28 23 -60 22 -60 -2 0 -11 -5 -23 -12 -27 -8 -5 -9 -2 -5 11 4 9 2 24 -4 31 -9 11 -8 18 1 29 18 21 113 20 135 -1z m-3510 -63 c-4 -13 2 -23 20 -35 27 -18 65 -14 65 7 0 24 -18 40 -36 33 -16 -6 -17 -5 -6 6 18 18 46 -2 50 -35 3 -21 -2 -28 -21 -33 -14 -3 -35 -1 -46 6 -17 9 -21 8 -21 -5 0 -11 12 -15 49 -15 46 0 50 2 54 28 4 25 4 25 6 -5 l1 -33 -59 0 -59 0 -4 38 c-5 36 -1 62 9 62 2 0 2 -8 -2 -19z m3245 4 c0 -8 -6 -15 -12 -15 -7 0 -24 -3 -38 -7 -15 -3 -22 -2 -17 3 9 9 13 10 45 13 15 1 15 3 2 11 -13 8 -12 10 3 10 9 0 17 -7 17 -15z m-3400 -7 c0 -4 -14 -8 -31 -8 -17 0 -28 4 -24 10 7 11 55 9 55 -2z m-880 -27 c0 -5 -11 -8 -25 -8 -14 0 -25 3 -25 8 0 5 11 9 25 9 14 0 25 -4 25 -9z m343 -28 c4 -19 2 -33 -3 -33 -6 0 -10 17 -10 37 0 43 5 41 13 -4z m553 28 c-3 -5 -15 -7 -26 -4 -28 7 -25 13 6 13 14 0 23 -4 20 -9z m-441 -41 c-3 -5 -27 -9 -53 -8 l-47 1 45 7 c25 4 49 8 53 8 5 1 5 -2 2 -8z m-947 -28 c2 -7 -7 -12 -22 -12 -27 0 -35 15 -13 23 17 7 30 3 35 -11z m3378 3 c18 -14 18 -14 -8 -15 -18 0 -28 5 -28 15 0 19 11 19 36 0z m-3190 -43 c-60 -1 -113 1 -117 5 -5 4 45 6 109 3 l117 -5 -109 -3z m1447 1 c-29 -2 -78 -2 -110 0 -32 2 -8 3 52 3 61 0 87 -1 58 -3z"/>
<path d="M11537 2784 c-15 -16 -5 -19 58 -19 39 0 64 4 62 10 -4 12 -109 19 -120 9z"/>
<path d="M11547 2753 c-4 -3 -7 -28 -7 -55 l0 -49 47 3 c44 3 48 5 54 34 10 52 -5 74 -49 74 -21 0 -42 -3 -45 -7z m58 -15 c21 -9 25 -18 23 -42 -2 -26 -8 -32 -32 -34 -16 -2 -32 2 -37 10 -12 19 -11 52 3 66 15 15 11 15 43 0z"/>
<path d="M11564 2726 c-11 -29 1 -51 26 -51 31 0 40 33 14 52 -23 17 -33 16 -40 -1z"/>
<path d="M12728 2673 c6 -2 18 -2 25 0 6 3 1 5 -13 5 -14 0 -19 -2 -12 -5z"/>
<path d="M8150 2786 c-3 -2 -3 -34 -2 -71 l4 -66 51 3 52 3 3 44 c2 24 -1 48 -7 54 -7 7 -8 -1 -4 -26 7 -43 -9 -67 -42 -67 -30 0 -47 22 -43 57 2 19 10 29 23 31 19 4 19 3 1 -10 -21 -17 -18 -46 6 -62 14 -8 22 -7 35 7 27 27 7 70 -37 79 -26 5 -20 6 23 4 37 -1 56 2 54 8 -3 11 -108 21 -117 12z"/>
<path d="M12943 2783 c-29 -11 -9 -18 52 -18 63 0 81 7 49 19 -18 7 -83 7 -101 -1z"/>
<path d="M9453 2893 c-65 -3 -73 -6 -73 -23 0 -18 7 -20 80 -20 79 0 80 0 80 25 0 14 -3 24 -7 23 -5 -1 -41 -4 -80 -5z"/>
<path d="M9664 2891 c-14 -14 2 -21 46 -21 28 0 50 4 50 9 0 9 -88 20 -96 12z"/>
<path d="M11487 2893 c-21 -2 -37 -9 -35 -14 2 -6 7 -10 11 -10 4 1 23 1 42 1 24 0 35 5 35 15 0 8 -3 14 -7 13 -5 -1 -25 -3 -46 -5z"/>
<path d="M12838 2893 c-60 -3 -68 -6 -68 -23 0 -18 7 -20 80 -20 79 0 80 0 80 25 0 14 -5 24 -12 23 -7 -1 -43 -3 -80 -5z"/>
<path d="M13050 2886 c0 -12 10 -16 45 -16 25 0 45 5 45 10 0 6 -13 10 -29 10 -16 0 -36 3 -45 6 -11 4 -16 1 -16 -10z"/>
<path d="M8457 2870 c3 -11 11 -19 17 -17 17 6 13 31 -6 35 -12 2 -15 -2 -11 -18z"/>
<path d="M9340 2869 c0 -24 23 -21 28 4 2 10 -3 17 -12 17 -10 0 -16 -9 -16 -21z"/>
<path d="M12730 2870 c0 -11 7 -20 15 -20 8 0 15 9 15 20 0 11 -7 20 -15 20 -8 0 -15 -9 -15 -20z"/>
<path d="M8920 2824 c0 -23 3 -25 43 -22 34 2 42 7 42 23 0 17 -7 20 -42 22 -39 1 -43 -1 -43 -23z"/>
<path d="M8847 2796 c-15 -12 -16 -15 -2 -26 19 -16 28 -9 23 18 -3 18 -5 19 -21 8z"/>
<path d="M8920 2776 c0 -18 33 -30 60 -21 37 12 23 35 -20 35 -28 0 -40 -4 -40 -14z"/>
<path d="M8420 2766 c0 -8 48 -12 66 -5 13 5 7 8 -23 8 -24 1 -43 -1 -43 -3z"/>
<path d="M8540 2725 l0 -45 50 0 50 0 0 45 0 45 -50 0 -50 0 0 -45z"/>
<path d="M8650 2728 l0 -43 21 25 c41 52 43 60 9 60 -29 0 -30 -2 -30 -42z"/>
<path d="M9110 2762 c0 -4 13 -23 30 -42 l29 -35 1 43 c0 40 -1 42 -30 42 -16 0 -30 -4 -30 -8z"/>
<path d="M9180 2725 l0 -45 50 0 50 0 0 45 0 45 -50 0 -50 0 0 -45z"/>
<path d="M11760 2746 c0 -13 3 -31 6 -40 11 -28 24 -17 24 18 0 19 6 37 13 39 6 3 0 6 -15 6 -23 1 -28 -3 -28 -23z"/>
<path d="M11838 2763 c12 -2 30 -2 40 0 9 3 -1 5 -23 4 -22 0 -30 -2 -17 -4z"/>
<path d="M11930 2724 l0 -45 53 3 52 3 3 43 3 42 -55 0 -56 0 0 -46z"/>
<path d="M12501 2753 c48 -64 62 -73 113 -73 l51 0 -3 45 -4 45 -43 0 -44 0 -4 -42 -4 -43 -1 43 c-2 41 -3 42 -38 42 -33 0 -35 -2 -23 -17z"/>
<path d="M9061 2751 c-10 -7 -4 -21 28 -65 64 -86 75 -90 223 -94 l127 -4 26 27 c29 32 34 89 11 121 -14 19 -15 19 -21 -1 -19 -61 -29 -70 -80 -72 -27 -1 -55 3 -62 9 -10 8 -17 8 -25 0 -7 -7 -34 -12 -62 -12 -45 0 -52 4 -88 42 -21 23 -38 45 -38 50 0 10 -21 10 -39 -1z"/>
<path d="M12260 2721 c0 -46 5 -51 43 -44 26 5 28 9 25 39 -2 19 0 34 4 34 4 0 8 -21 8 -46 l0 -45 -42 3 c-43 3 -43 3 -49 48 l-7 45 2 -50 1 -50 53 -3 52 -3 0 55 0 56 -45 0 -45 0 0 -39z m45 19 c3 -5 -1 -10 -9 -10 -9 0 -16 5 -16 10 0 6 4 10 9 10 6 0 13 -4 16 -10z"/>
<path d="M11816 2715 c-18 -14 -16 -15 28 -15 34 0 46 4 44 13 -6 18 -50 19 -72 2z"/>
<path d="M8711 2640 l-22 -30 31 0 c28 0 30 2 24 28 -4 15 -8 28 -9 29 -1 2 -11 -11 -24 -27z"/>
<path d="M12096 2639 c-16 -23 -16 -24 5 -27 27 -5 31 0 21 28 l-9 23 -17 -24z"/>
<path d="M12200 2600 c0 -6 37 -10 100 -10 55 0 100 4 100 9 0 5 -45 9 -100 10 -64 1 -100 -2 -100 -9z"/>
</g>
</svg>