<svg xmlns="http://www.w3.org/2000/svg" viewBox="-5.50 522.20 1419.00 251.30">
<g transform="translate(0.000000,768.000000) scale(0.100000,-0.100000)" fill="currentColor" stroke="none">
<path d="M2836 2317 c-26 -89 -40 -157 -33 -163 11 -11 27 7 27 32 0 21 5 24 35 24 28 0 35 -4 35 -19 0 -20 17 -37 27 -27 3 3 0 27 -6 53 -42 171 -59 191 -85 100z m42 -39 c10 -36 9 -38 -13 -38 -22 0 -22 2 -13 40 12 47 13 47 26 -2z"/>
<path d="M3001 2352 c-7 -12 -18 -22 -26 -22 -8 0 -15 -4 -15 -10 0 -5 9 -10 20 -10 18 0 20 -7 20 -81 0 -60 3 -80 13 -77 15 6 22 180 9 205 -9 14 -11 14 -21 -5z"/>
<path d="M3125 2358 c-3 -7 -16 -55 -29 -106 -22 -84 -23 -93 -8 -90 9 2 18 14 20 26 3 19 9 23 35 20 24 -2 33 -8 35 -25 3 -22 32 -33 32 -13 0 6 -12 53 -26 105 -18 62 -31 95 -41 95 -7 0 -16 -6 -18 -12z m34 -100 c1 -12 -6 -18 -20 -18 -21 0 -21 -1 -1 65 5 18 6 18 13 -5 4 -14 7 -33 8 -42z"/>
<path d="M3530 2360 c0 -6 -11 -16 -25 -22 -30 -14 -33 -28 -5 -28 18 0 20 -7 20 -75 0 -60 3 -75 15 -75 12 0 15 18 15 99 0 56 -4 103 -10 106 -5 3 -10 1 -10 -5z"/>
<path d="M3640 2328 c-6 -24 -18 -65 -26 -92 -8 -27 -14 -56 -14 -63 0 -23 28 -14 32 10 2 17 11 23 34 25 27 3 33 -1 38 -22 3 -15 13 -26 20 -26 11 0 9 21 -13 103 -32 118 -52 137 -71 65z m38 -50 c10 -36 9 -38 -13 -38 -22 0 -22 2 -13 40 12 47 13 47 26 -2z"/>
<path d="M3993 2358 c-9 -12 -53 -175 -53 -197 0 -6 7 -8 15 -5 8 4 15 15 15 25 0 20 8 25 44 31 14 2 21 -4 26 -22 3 -14 13 -26 22 -28 14 -3 13 10 -11 99 -27 102 -39 121 -58 97z m25 -80 c10 -36 9 -38 -13 -38 -22 0 -22 2 -13 40 12 47 13 47 26 -2z"/>
<path d="M4242 2353 c-7 -13 -19 -23 -27 -23 -22 0 -18 -17 5 -23 18 -5 20 -14 20 -76 0 -50 4 -71 13 -71 11 0 13 50 4 180 -2 34 -2 34 -15 13z"/>
<path d="M3361 2323 c-24 -93 -41 -161 -41 -167 0 -16 29 9 34 30 5 18 13 24 34 24 22 0 30 -7 40 -32 7 -21 15 -29 21 -23 7 7 1 45 -16 108 -21 77 -30 97 -44 97 -13 0 -21 -12 -28 -37z m44 -50 c6 -29 4 -33 -15 -33 -18 0 -21 4 -16 23 3 12 6 31 6 42 0 28 17 6 25 -32z"/>
<path d="M3820 2260 c0 -82 3 -100 15 -100 11 0 15 11 15 40 0 36 3 40 25 40 32 0 65 33 65 64 0 37 -25 56 -76 56 l-44 0 0 -100z m83 59 c15 -24 1 -49 -28 -49 -22 0 -25 4 -25 36 0 31 3 35 21 32 12 -2 27 -10 32 -19z"/>
<path d="M3230 2235 c0 -10 11 -15 35 -15 24 0 35 5 35 15 0 10 -11 15 -35 15 -24 0 -35 -5 -35 -15z"/>
<path d="M4090 2235 c0 -13 8 -16 38 -13 20 2 37 8 37 13 0 6 -17 11 -37 13 -30 3 -38 0 -38 -13z"/>
<path d="M3520 1990 l-3525 -5 4192 -3 4193 -2 3 -992 2 -993 3 992 2 993 2848 2 2847 3 -3520 5 c-1936 3 -5106 3 -7045 0z"/>
<path d="M1530 1811 c0 -38 2 -42 20 -36 14 4 20 2 20 -8 0 -13 -32 -16 -197 -19 -226 -5 -259 -13 -296 -76 -12 -20 -36 -59 -54 -86 -18 -26 -33 -50 -33 -52 0 -2 9 -4 20 -4 19 0 96 -68 86 -77 -2 -3 -21 11 -41 31 -30 31 -48 40 -75 38 -3 0 -55 -5 -117 -11 -260 -26 -289 -62 -347 -432 -20 -124 -36 -231 -36 -237 0 -9 52 -12 185 -12 117 0 185 -4 185 -10 0 -6 -74 -10 -201 -10 l-200 0 3 -32 3 -33 190 3 c105 1 349 3 542 5 277 1 354 5 358 15 2 7 -3 16 -12 19 -9 3 -251 3 -539 0 -350 -5 -524 -4 -524 3 0 7 182 10 535 10 l535 0 0 364 c0 233 4 367 10 371 7 4 10 -127 10 -387 l0 -393 110 3 110 3 0 385 c0 249 4 384 10 384 6 0 10 -83 10 -230 l0 -230 535 0 535 0 0 140 0 140 -525 0 -525 0 0 115 0 115 2978 0 c1638 0 2981 -2 2983 -4 2 -2 3 -54 1 -115 l-3 -111 -1180 0 -1179 0 0 -140 0 -140 670 -2 670 -3 0 118 c0 71 4 117 10 117 6 0 10 -96 10 -269 l0 -270 106 -3 c58 -2 108 -1 110 1 2 2 4 126 4 274 0 149 3 268 6 264 3 -3 7 -56 7 -117 l2 -111 308 1 c201 0 307 -3 307 -10 0 -6 -108 -11 -307 -12 l-308 -3 -3 -122 -3 -123 313 -3 313 -2 -312 -3 c-271 -2 -313 -4 -313 -17 0 -13 42 -15 315 -15 l315 0 0 169 c0 103 4 172 10 176 7 4 10 -48 10 -149 l0 -156 75 0 75 0 0 155 c0 97 4 155 10 155 6 0 10 -66 10 -179 l0 -178 25 5 c28 5 34 32 8 32 -15 0 -16 2 -3 10 13 8 15 73 16 480 l2 470 -104 0 -104 0 0 -40 0 -39 -372 2 -373 2 -3 38 -3 37 -210 0 -209 0 0 -55 0 -55 -2240 0 -2240 0 0 55 0 55 -165 0 c-137 0 -165 2 -165 14 0 19 17 29 25 16 15 -24 35 -9 35 25 0 24 -5 35 -15 35 -8 0 -15 -4 -15 -9 0 -15 -155 -7 -174 8 -14 12 -16 9 -16 -28z m140 -41 c0 -17 -7 -20 -40 -20 -33 0 -40 3 -40 20 0 17 7 20 40 20 33 0 40 -3 40 -20z m-511 -116 c41 -34 40 -62 -5 -131 l-35 -56 -40 39 c-21 21 -39 42 -39 47 0 15 71 127 80 127 5 0 22 -12 39 -26z m376 -81 l-271 -3 -16 -28 c-79 -138 -101 -173 -105 -168 -3 3 21 50 53 105 l59 101 275 -2 275 -3 -270 -2z m-245 -108 l0 -85 -40 0 c-55 0 -61 20 -25 84 26 48 54 86 62 86 1 0 3 -38 3 -85z m200 0 l0 -85 -90 0 -90 0 0 85 0 85 90 0 90 0 0 -85z m270 -165 l0 -250 -71 0 c-116 0 -109 -18 -109 260 l0 240 90 0 90 0 0 -250z m5233 23 c4 -3 2 -11 -3 -18 -5 -6 -11 -110 -12 -236 l-3 -224 -82 -5 c-82 -5 -83 -5 -93 21 -7 17 -10 103 -8 237 2 117 0 212 -4 212 -5 0 -8 5 -8 10 0 11 202 14 213 3z m-4991 -53 c49 -38 37 -118 -21 -138 -42 -15 -76 -1 -96 37 -21 42 -19 59 14 92 34 34 68 37 103 9z m4623 -5 c28 -27 33 -79 11 -107 -33 -44 -98 -42 -130 4 -24 34 -19 66 13 99 36 36 73 37 106 4z m-5815 -37 c13 -25 13 -31 0 -55 -16 -28 -17 -28 -120 -28 l-104 0 -10 33 c-6 22 -5 40 2 58 12 24 13 25 114 22 100 -3 103 -4 118 -30z m5368 20 c5 -7 9 -24 7 -38 -1 -14 -3 -40 -4 -57 -1 -32 -2 -33 -46 -33 l-45 0 0 63 c0 35 3 67 7 70 11 12 70 8 81 -5z m-4763 -128 l0 -45 -57 -3 -58 -3 0 50 0 51 58 -3 57 -2 0 -45z m6385 -60 c0 -6 -28 -10 -65 -10 -37 0 -65 4 -65 10 0 6 28 10 65 10 37 0 65 -4 65 -10z m-6060 -80 l0 -50 -70 0 -70 0 0 50 0 50 70 0 70 0 0 -50z m-2 -128 c2 -30 7 -50 13 -47 5 4 9 1 9 -4 0 -7 -34 -11 -92 -10 -51 0 -87 3 -80 6 7 3 12 25 12 59 l0 55 68 -3 67 -3 3 -53z m5232 -54 c0 -5 -36 -8 -80 -8 -44 0 -80 3 -80 8 0 4 36 7 80 7 44 0 80 -3 80 -7z m-6217 -35 c-51 -2 -136 -2 -190 0 -54 1 -12 3 92 3 105 0 149 -2 98 -3z"/>
<path d="M1592 1308 l3 -233 78 -3 77 -3 0 236 0 235 -80 0 -80 0 2 -232z m111 213 c27 -1 27 -2 27 -71 l0 -70 -60 0 -60 0 0 68 c0 38 3 71 6 75 3 3 18 4 32 2 15 -1 39 -3 55 -4z m-50 -428 c-7 -2 -21 -2 -30 0 -10 3 -4 5 12 5 17 0 24 -2 18 -5z m75 0 c-10 -2 -28 -2 -40 0 -13 2 -5 4 17 4 22 1 32 -1 23 -4z"/>
<path d="M6810 1095 l0 -225 80 0 79 0 3 225 3 225 -82 0 -83 0 0 -225z"/>
<path d="M6848 853 c23 -2 61 -2 85 0 23 2 4 4 -43 4 -47 0 -66 -2 -42 -4z"/>
<path d="M594 1236 c-3 -8 -4 -29 -2 -48 l3 -33 88 -3 c57 -2 94 1 103 9 17 14 18 61 2 77 -18 18 -187 16 -194 -2z"/>
<path d="M6101 1185 l0 -55 34 0 35 0 0 55 0 55 -34 0 -34 0 -1 -55z"/>
<path d="M1310 1121 l0 -38 45 -1 c51 -1 57 4 49 47 -5 21 -12 31 -25 31 -24 0 -25 -26 -1 -39 14 -9 15 -10 1 -11 -9 0 -21 11 -27 25 -18 40 -42 32 -42 -14z m40 -11 c0 -5 -7 -7 -15 -4 -8 4 -15 8 -15 10 0 2 7 4 15 4 8 0 15 -4 15 -10z"/>
<path d="M1617 1013 c-4 -3 -7 -21 -7 -40 l0 -33 61 0 c52 0 60 2 55 16 -3 9 -6 27 -6 40 0 22 -4 24 -48 24 -27 0 -52 -3 -55 -7z"/>
<path d="M1613 883 c-2 -6 -3 -24 -1 -40 3 -27 5 -28 58 -28 l55 0 0 40 0 40 -54 0 c-31 0 -55 -5 -58 -12z"/>
<path d="M5450 1794 c-36 -9 -103 -18 -150 -21 -49 -3 -88 -10 -92 -16 -5 -7 -8 0 -8 16 0 23 -4 27 -30 27 -25 0 -30 -4 -30 -25 0 -27 -9 -32 -28 -13 -9 9 -12 9 -12 0 0 -9 -42 -12 -160 -12 -100 0 -160 -4 -160 -10 0 -7 217 -10 630 -10 l630 0 0 35 c0 32 -2 35 -30 35 -21 0 -30 -5 -30 -16 0 -13 -13 -15 -92 -11 -51 2 -111 9 -133 15 -71 20 -233 23 -305 6z"/>
<path d="M4843 1787 c-17 -6 -35 -15 -39 -19 -4 -5 56 -8 134 -8 132 0 168 7 125 25 -34 14 -187 15 -220 2z"/>
<path d="M6123 1789 c-68 -20 -32 -29 108 -29 141 0 167 8 91 30 -45 12 -155 12 -199 -1z"/>
<path d="M2080 1770 c0 -20 7 -20 650 -20 358 0 650 3 650 6 0 3 -16 12 -35 20 -29 12 -135 14 -650 14 -608 0 -615 0 -615 -20z"/>
<path d="M3914 1765 c-5 -13 -35 -15 -186 -15 l-179 0 3 -47 3 -48 558 -3 557 -2 0 50 0 50 -120 0 c-100 0 -120 3 -120 15 0 9 -9 15 -25 15 -14 0 -28 -7 -31 -15 -5 -13 -35 -15 -179 -15 -141 0 -175 3 -185 15 -7 9 -29 15 -52 15 -25 0 -41 -5 -44 -15z"/>
<path d="M6057 1763 c-4 -3 -7 -13 -7 -20 0 -11 31 -13 170 -11 94 2 170 0 170 -4 0 -5 -364 -8 -810 -8 -713 0 -810 2 -810 15 0 11 -12 15 -46 15 l-45 0 3 -47 3 -48 903 -3 902 -3 0 51 0 50 -205 0 c-130 0 -205 4 -205 10 0 11 -13 13 -23 3z"/>
<path d="M2030 1698 l0 -48 755 0 755 0 0 50 0 50 -70 0 c-38 0 -70 -3 -70 -7 0 -5 -80 -7 -177 -6 -98 2 -406 4 -686 5 l-507 3 0 -47z"/>
<path d="M1834 1561 c-31 -31 -41 -31 2966 -31 2630 0 2970 2 2970 15 0 13 -340 15 -2966 17 -1631 2 -2968 1 -2970 -1z"/>
<path d="M1830 1490 c0 -20 7 -20 2970 -20 2963 0 2970 0 2970 20 0 20 -7 20 -2970 20 -2963 0 -2970 0 -2970 -20z"/>
<path d="M540 1408 l0 -93 25 53 c25 54 67 97 114 119 23 11 16 12 -56 13 l-83 0 0 -92z"/>
<path d="M1830 1440 c0 -20 7 -20 2970 -20 2963 0 2970 0 2970 20 0 20 -7 20 -2970 20 -2963 0 -2970 0 -2970 -20z"/>
<path d="M1830 1388 c0 -17 148 -18 2971 -18 2824 0 2970 1 2967 18 -3 16 -153 17 -2971 17 -2819 0 -2967 -1 -2967 -17z"/>
<path d="M2880 1210 l0 -140 580 0 580 0 2 118 c1 64 5 -4 8 -153 l5 -270 112 -3 113 -3 3 273 2 273 3 -272 2 -273 1240 0 c1096 0 1240 2 1240 15 0 13 -145 15 -1237 17 -681 2 -1075 4 -875 5 l362 3 0 125 0 125 -360 0 c-233 0 -360 4 -360 10 0 7 192 10 555 10 l555 0 0 140 0 140 -1265 0 -1265 0 0 -140z m1382 -117 c-2 -131 -6 -241 -10 -245 -4 -4 -42 -8 -86 -9 -60 -2 -80 1 -87 13 -4 8 -9 118 -11 245 l-3 231 100 1 100 2 -3 -238z m-607 187 c62 -24 62 -120 -1 -146 -54 -23 -98 3 -110 64 -5 26 -1 36 24 62 33 32 46 35 87 20z m1106 -19 c34 -34 37 -68 9 -104 -48 -61 -139 -30 -140 49 0 33 14 55 45 72 33 18 55 14 86 -17z m-511 -463 c0 -5 -39 -8 -86 -8 -47 0 -83 3 -81 8 3 4 42 7 86 7 45 0 81 -3 81 -7z"/>
<path d="M4087 1313 c-2 -5 -2 -106 1 -225 l4 -218 77 -2 76 -2 -80 -6 -80 -6 82 -2 82 -2 3 235 3 235 -82 0 c-45 0 -84 -3 -86 -7z"/>
<path d="M1800 925 l0 -125 345 0 345 0 0 125 0 125 -345 0 -345 0 0 -125z"/>
<path d="M2510 925 l0 -125 415 0 415 0 0 125 0 125 -415 0 -415 0 0 -125z"/>
<path d="M3360 925 l0 -125 340 0 340 0 0 125 0 125 -340 0 -340 0 0 -125z"/>
<path d="M5030 925 l0 -125 435 0 435 0 0 125 0 125 -435 0 -435 0 0 -125z"/>
<path d="M5920 925 l0 -125 420 0 420 0 0 125 0 125 -420 0 -420 0 0 -125z"/>
<path d="M1797 784 c-4 -4 -4 -11 -1 -15 3 -5 509 -9 1125 -9 988 0 1119 2 1119 15 0 13 -131 15 -1118 15 -615 0 -1122 -3 -1125 -6z"/>
<path d="M1594 653 c4 -68 3 -93 -4 -83 -8 11 -10 -4 -9 -53 1 -37 -2 -72 -7 -76 -5 -5 -31 -5 -59 -1 l-50 7 53 2 c48 1 52 3 52 26 0 23 -3 25 -50 25 l-50 0 0 50 0 50 55 0 c54 0 55 0 55 30 0 20 -7 33 -22 42 l-23 12 25 7 25 7 -26 1 c-15 1 -32 8 -39 16 -10 12 -42 15 -172 15 -89 0 -157 -4 -154 -9 3 -5 72 -12 153 -16 176 -9 203 -15 144 -35 l-41 -13 -2 -116 c-2 -101 -3 -105 -5 -33 -2 45 -8 82 -12 82 -12 0 -22 -74 -11 -78 6 -2 10 -23 10 -47 l0 -44 43 -6 c23 -4 60 -5 82 -3 40 3 40 3 49 56 l9 52 51 0 c29 0 57 5 64 12 17 17 17 221 0 215 -7 -2 -13 -19 -13 -38 0 -33 -1 -34 -47 -37 l-48 -3 0 34 c0 23 -6 37 -16 41 -15 6 -16 -3 -10 -91z m126 -53 l0 -60 -49 0 -48 0 -6 51 c-4 29 -4 56 -1 60 3 5 27 9 55 9 l49 0 0 -60z m-165 -124 c6 -2 -11 -5 -37 -7 -30 -3 -48 0 -48 6 0 10 53 10 85 1z"/>
<path d="M1637 644 c-4 -4 -7 -16 -7 -26 0 -14 8 -18 41 -18 36 0 40 2 37 23 -2 16 -11 23 -33 25 -17 2 -34 0 -38 -4z"/>
<path d="M1631 572 c-1 -21 3 -23 36 -20 20 2 38 9 41 17 3 9 -2 11 -17 6 -12 -4 -21 -2 -21 4 0 6 -5 11 -11 11 -5 0 -7 -4 -4 -10 3 -5 2 -10 -4 -10 -5 0 -12 6 -14 13 -3 6 -6 2 -6 -11z"/>
<path d="M4098 708 c-3 -24 -2 -74 1 -113 l6 -70 59 -3 c40 -2 62 1 67 10 11 18 10 218 -1 218 -5 0 -10 -17 -12 -37 -3 -37 -4 -38 -46 -41 -38 -3 -43 0 -52 24 -6 15 -9 33 -6 41 3 7 2 13 -3 13 -5 0 -10 -19 -13 -42z m117 -108 l0 -55 -47 -3 c-44 -3 -48 -1 -49 20 -1 13 -3 37 -4 53 -3 43 1 46 53 43 l47 -3 0 -55z"/>
<path d="M4130 598 l0 -48 35 0 35 0 0 48 c0 47 0 47 -35 48 l-35 1 0 -49z"/>
<path d="M4130 720 c0 -28 3 -30 35 -30 32 0 35 2 35 30 0 28 -3 30 -35 30 -32 0 -35 -2 -35 -30z"/>
<path d="M6812 640 c2 -61 9 -115 14 -120 6 -6 36 -7 72 -4 l62 7 0 108 c0 61 -4 109 -9 109 -5 0 -11 -12 -13 -27 -3 -25 -7 -28 -47 -31 -47 -4 -61 6 -61 46 0 12 -5 22 -11 22 -8 0 -10 -32 -7 -110z m128 -41 l0 -59 -49 0 c-42 0 -49 3 -55 23 -9 36 -7 72 6 85 14 14 38 16 38 2 0 -5 -7 -7 -15 -4 -12 5 -15 -4 -15 -45 l0 -51 41 0 c33 0 40 3 37 18 -2 10 -14 18 -28 19 -23 2 -23 2 -5 -6 19 -9 19 -10 -2 -10 -14 -1 -23 5 -23 14 0 10 10 15 30 15 25 0 30 4 30 23 0 13 -6 29 -12 36 -11 10 -10 11 5 6 13 -6 17 -19 17 -66z"/>
<path d="M678 733 l-196 -3 9 -33 c5 -17 9 -33 9 -35 0 -5 -45 24 -55 36 -7 9 -27 12 -55 10 l-45 -3 0 -55 0 -55 40 -3 c23 -2 54 4 70 12 16 8 31 13 33 11 2 -2 -18 -52 -46 -112 l-50 -108 100 -3 101 -3 36 35 c30 29 45 35 86 38 l50 3 6 72 c6 78 34 132 93 179 17 13 27 23 21 22 -5 -2 -99 -4 -207 -5z m72 -223 c0 -28 -2 -30 -40 -30 -38 0 -40 2 -40 30 0 28 2 30 40 30 38 0 40 -2 40 -30z"/>
<path d="M1760 724 c0 -14 8 -16 53 -10 28 3 80 6 115 6 40 0 61 4 57 10 -4 6 -53 10 -116 10 -94 0 -109 -2 -109 -16z"/>
<path d="M2884 727 c10 -7 38 -24 62 -39 l44 -28 0 -70 c0 -60 3 -70 18 -71 9 0 49 -1 87 -2 l70 -2 3 38 c3 29 7 37 23 37 16 0 19 7 19 40 l0 41 435 -3 435 -3 0 38 0 37 -607 -1 c-474 0 -604 -3 -589 -12z"/>
<path d="M4250 705 l0 -35 178 0 178 0 -4 35 -4 35 -174 0 -174 0 0 -35z"/>
<path d="M4630 730 c13 -8 12 -10 -2 -10 -10 0 -18 -7 -18 -16 0 -20 51 -15 58 5 3 9 0 11 -8 6 -10 -6 -12 -4 -7 8 5 13 1 17 -16 17 -18 0 -19 -2 -7 -10z"/>
<path d="M4680 721 c0 -11 -3 -26 -6 -35 -6 -14 25 -16 295 -16 l301 0 0 -36 c0 -27 5 -37 20 -41 15 -4 20 -14 20 -38 0 -18 6 -35 13 -37 6 -2 49 -2 95 0 l82 4 0 69 0 70 63 39 62 40 -472 0 c-460 0 -473 -1 -473 -19z"/>
<path d="M6505 730 c-4 -6 35 -10 109 -10 71 0 116 4 116 10 0 6 -43 10 -109 10 -63 0 -112 -4 -116 -10z"/>
<path d="M6850 720 c0 -13 9 -22 25 -26 34 -8 55 1 55 26 0 17 -6 20 -40 20 -33 0 -40 -3 -40 -20z"/>
<path d="M1077 723 c-4 -3 -7 -26 -7 -50 l0 -43 50 0 50 0 0 50 0 50 -43 0 c-24 0 -47 -3 -50 -7z"/>
<path d="M2240 715 c0 -13 -34 -15 -246 -15 l-245 0 4 -87 c5 -99 15 -152 30 -171 14 -18 40 22 34 54 -2 13 0 24 4 24 5 0 9 -9 9 -19 0 -16 7 -19 45 -19 40 1 46 4 52 26 3 14 1 33 -6 44 -7 11 -7 18 -1 18 11 0 19 -33 18 -76 l-1 -30 -54 4 c-35 3 -53 1 -53 -7 0 -7 24 -11 65 -11 36 0 68 0 73 0 4 -1 10 14 13 32 13 79 51 114 129 120 33 3 35 6 38 41 3 32 7 37 28 37 24 0 32 -14 14 -25 -5 -3 -10 -1 -10 4 0 6 -4 11 -10 11 -16 0 -13 -247 3 -253 7 -2 45 -2 85 1 80 5 78 3 84 107 3 47 22 49 22 2 1 -29 4 -32 33 -35 20 -2 37 -12 47 -27 14 -21 14 -23 -4 -28 -43 -11 -19 -27 42 -27 57 0 60 1 45 18 -18 21 -40 99 -33 118 8 21 -22 32 -99 35 l-70 4 -3 -70 c-3 -69 -13 -98 -26 -76 -4 6 -2 11 3 11 7 0 11 37 11 104 0 99 -1 104 -22 111 -13 4 -28 7 -35 6 -6 -1 -14 3 -17 7 -7 11 52 19 207 28 65 4 120 11 123 15 3 5 -69 9 -160 9 -141 0 -166 -2 -166 -15z m-292 -107 c22 -22 12 -28 -49 -28 -52 0 -62 -3 -66 -20 -3 -11 -9 -20 -14 -20 -12 0 -11 7 1 31 9 15 22 19 71 19 38 0 58 4 54 10 -3 6 -33 10 -65 10 -46 0 -61 -4 -69 -17 -5 -10 -13 -14 -18 -10 -4 5 1 15 11 23 24 17 127 19 144 2z m342 -43 l0 -35 -50 0 c-27 0 -50 -4 -50 -10 0 -5 23 -10 51 -10 46 0 50 -2 47 -22 -3 -26 -34 -36 -52 -18 -8 9 -5 11 13 8 13 -1 26 3 28 10 3 8 -9 12 -41 12 -42 0 -46 -2 -46 -25 0 -23 4 -25 48 -26 l47 -1 -40 -8 c-22 -4 -45 -6 -52 -3 -10 4 -24 137 -15 156 2 4 28 7 58 7 l54 0 0 -35z m-402 -2 c-10 -2 -26 -2 -35 0 -10 3 -2 5 17 5 19 0 27 -2 18 -5z m522 -12 c0 -5 3 -18 6 -28 6 -16 5 -16 -9 2 -19 23 -21 35 -7 35 6 0 10 -4 10 -9z m-555 -30 c0 -16 -3 -27 -7 -24 -5 2 -8 15 -8 29 0 13 3 24 8 24 4 0 7 -13 7 -29z m59 14 c6 -16 -2 -45 -13 -45 -3 0 -6 14 -6 30 0 32 9 40 19 15z"/>
<path d="M2190 580 c0 -5 20 -10 45 -10 25 0 45 5 45 10 0 6 -20 10 -45 10 -25 0 -45 -4 -45 -10z"/>
<path d="M2190 550 c0 -5 20 -10 45 -10 25 0 45 4 45 8 0 5 -20 10 -45 10 -25 1 -45 -2 -45 -8z"/>
<path d="M2608 723 c-14 -3 -18 -15 -18 -49 0 -24 -4 -44 -10 -44 -5 0 -10 5 -10 10 0 6 -24 10 -54 10 -65 0 -87 7 -79 26 3 9 -1 14 -12 14 -9 0 -13 -4 -10 -10 3 -5 1 -10 -4 -10 -6 0 -11 5 -11 10 0 6 -22 10 -50 10 -27 0 -50 -4 -50 -10 0 -5 7 -10 15 -10 10 0 15 -11 15 -35 0 -19 1 -35 3 -36 1 0 39 -4 85 -8 95 -9 128 -30 137 -90 13 -80 15 -81 114 -81 l90 0 6 38 c3 20 14 57 23 82 16 42 21 45 60 51 23 3 42 2 42 -2 0 -11 -28 -19 -44 -13 -10 4 -15 -10 -18 -61 -3 -45 -9 -71 -21 -83 -17 -16 -17 -15 -2 20 18 44 21 128 4 111 -6 -6 -18 -42 -27 -79 l-17 -69 -91 -3 c-101 -3 -124 7 -124 54 0 14 -8 41 -17 62 l-17 37 -4 -43 c-4 -54 27 -112 77 -140 l36 -22 -355 0 -355 0 41 25 c45 27 69 72 77 143 3 23 3 42 1 42 -8 0 -44 -80 -44 -97 0 -10 -7 -29 -16 -41 -13 -19 -24 -22 -90 -22 -42 0 -84 5 -95 10 -11 6 -24 30 -30 55 -6 25 -15 45 -20 45 -36 0 9 -103 59 -133 17 -10 32 -21 32 -23 0 -2 -156 -4 -347 -4 l-348 0 35 21 c19 11 44 34 56 52 23 36 40 127 23 127 -13 0 -39 -62 -39 -93 0 -49 -21 -61 -106 -61 -85 0 -124 14 -124 43 0 9 -7 42 -16 72 -16 53 -17 53 -26 26 -6 -15 -7 -43 -4 -61 6 -32 53 -90 91 -113 16 -9 -63 -12 -366 -12 -412 -1 -399 0 -399 -47 0 -12 546 -14 3945 -14 l3945 0 0 30 0 30 -357 2 -358 3 38 23 c29 17 54 22 103 22 57 0 84 12 52 22 -10 4 -10 13 0 45 23 76 12 223 -13 182 -5 -7 -36 -8 -96 -3 -86 6 -89 6 -89 -15 0 -19 -6 -21 -57 -21 -31 0 -53 3 -49 7 4 4 24 6 45 4 22 -1 41 2 44 6 3 5 3 28 0 51 -5 37 -9 42 -32 42 -57 0 -71 -10 -71 -49 l0 -38 -57 5 c-100 7 -128 16 -128 37 0 18 8 20 80 23 44 2 84 7 89 12 7 7 -49 10 -152 10 -135 0 -162 -2 -162 -15 0 -10 17 -15 68 -18 l67 -3 -66 -2 c-60 -2 -67 -4 -73 -24 -13 -50 -7 -68 22 -69 23 -2 24 -2 5 -6 -13 -2 -23 -9 -23 -14 0 -6 4 -8 8 -5 4 2 14 1 22 -5 11 -6 8 -9 -12 -9 -16 0 -28 -5 -28 -11 0 -7 10 -9 26 -5 24 6 25 5 22 -31 l-3 -38 -53 -3 c-68 -4 -58 -22 12 -22 l53 0 7 61 c10 105 8 149 -9 149 -8 0 -15 5 -15 11 0 6 7 8 16 5 9 -3 18 -6 20 -6 2 0 4 -13 4 -28 0 -37 31 -52 108 -52 76 -1 101 -21 127 -102 l20 -63 85 -3 c64 -2 82 0 73 9 -7 7 -37 10 -82 7 -39 -2 -71 0 -71 4 0 4 4 8 10 8 5 0 10 28 12 63 l3 62 39 3 c22 2 49 1 61 -2 20 -5 22 -11 19 -53 -5 -77 28 -115 41 -46 4 20 16 55 27 76 17 35 23 39 48 33 18 -3 30 -1 33 7 2 7 8 9 12 5 12 -12 -5 -28 -31 -28 -22 0 -24 -3 -24 -53 0 -53 -20 -97 -43 -97 -8 0 -9 2 -1 8 21 14 34 51 34 99 -1 43 -2 46 -15 29 -7 -10 -19 -41 -25 -69 -16 -74 -20 -77 -121 -77 -100 0 -96 -2 -119 86 -5 23 -18 48 -27 55 -15 13 -16 10 -10 -35 4 -27 15 -58 24 -68 9 -10 14 -20 11 -23 -13 -14 -40 39 -45 89 -7 63 -3 61 -110 70 l-63 6 0 -63 c0 -34 -4 -68 -9 -75 -5 -9 -27 -12 -72 -10 -62 3 -64 4 -67 31 -2 15 -9 27 -18 27 -16 0 -18 -18 -4 -54 9 -25 13 -26 90 -26 57 0 82 4 86 13 2 7 6 41 7 75 1 40 6 62 14 62 7 0 11 -13 10 -32 -2 -29 2 -34 31 -44 37 -12 75 -54 48 -54 -9 0 -16 -7 -16 -15 0 -12 13 -15 59 -15 43 0 70 -6 95 -21 20 -12 36 -23 36 -25 0 -2 -156 -4 -347 -4 l-347 0 39 26 c43 27 70 75 79 137 8 62 -17 39 -35 -33 -9 -34 -23 -66 -30 -71 -8 -5 -52 -8 -98 -7 -94 3 -89 0 -115 91 -18 62 -36 75 -36 26 0 -48 36 -116 77 -144 l38 -25 -355 0 -355 1 37 20 c21 10 43 29 49 42 7 12 16 25 22 28 5 4 12 31 14 60 l4 54 -20 -24 c-12 -13 -21 -34 -21 -48 0 -13 -7 -37 -15 -54 l-16 -30 -91 3 c-102 3 -97 0 -125 93 l-18 60 -3 -54 c-2 -40 1 -58 14 -73 16 -17 16 -18 1 -12 -19 7 -37 62 -37 112 0 25 -4 32 -20 32 -11 0 -20 5 -20 10 0 6 13 10 29 10 37 0 56 -26 72 -97 13 -55 26 -63 45 -25 6 12 14 19 17 15 4 -3 7 -2 7 3 0 6 -5 15 -12 22 -14 14 4 62 23 62 7 0 5 -8 -6 -20 -16 -18 -17 -23 -5 -45 10 -19 21 -25 46 -25 28 0 35 5 40 27 8 32 -5 55 -37 64 l-24 7 26 1 c37 1 50 -19 47 -74 -1 -31 3 -50 13 -56 9 -5 -14 -9 -63 -9 -42 0 -80 -4 -83 -10 -4 -6 24 -10 78 -10 l84 0 11 39 c7 21 12 45 12 53 0 25 39 66 68 72 15 2 58 8 95 11 l69 7 -7 34 c-5 30 -3 36 17 44 19 7 15 9 -23 9 -31 1 -51 -4 -60 -15 -12 -14 -14 -14 -21 5 -7 19 -15 21 -83 21 -60 0 -75 -3 -75 -15 0 -12 14 -15 66 -15 41 0 63 4 59 10 -3 6 -1 10 4 10 17 0 13 -27 -5 -34 -9 -3 -40 -6 -70 -6 -36 0 -55 -4 -56 -12 0 -7 -4 10 -7 37 -5 43 -9 50 -30 53 -12 2 -34 1 -47 -2 -21 -6 -24 -12 -24 -51 l0 -44 48 -4 c40 -3 38 -4 -18 -5 -40 -1 -60 2 -51 7 7 5 10 14 6 20 -5 9 -30 10 -86 5 -51 -4 -83 -3 -92 4 -7 6 -18 7 -26 3 -11 -7 -12 -27 -8 -87 4 -44 9 -94 13 -111 5 -27 3 -33 -10 -33 -10 0 -14 -5 -11 -10 3 -6 35 -10 70 -10 47 0 73 -6 99 -21 20 -12 36 -23 36 -25 0 -2 -690 -4 -1532 -4 l-1533 0 44 25 c33 19 57 25 107 25 36 0 64 4 64 10 0 6 -7 10 -16 10 -13 0 -15 6 -10 28 18 80 24 141 18 171 -7 34 -32 56 -32 28 0 -11 -9 -12 -47 -6 -85 14 -131 11 -136 -8 -3 -10 -5 3 -6 28 -1 56 -21 68 -83 52z m62 -110 c-35 -2 -70 -9 -77 -15 -9 -7 -13 -7 -13 0 0 16 20 21 90 19 l65 -1 -65 -3z m3234 -11 c2 -4 -27 -6 -65 -4 -64 4 -69 3 -77 -18 -7 -19 -10 -20 -15 -7 -4 10 1 20 11 26 20 12 139 14 146 3z m1564 -12 c4 -12 2 -13 -9 -2 -17 15 -121 16 -137 0 -8 -8 -12 -9 -12 -1 0 18 20 22 89 20 47 -1 66 -6 69 -17z m-4728 -5 c0 -9 -5 -22 -12 -29 -10 -11 -15 -11 -25 0 -7 7 -13 17 -13 23 0 13 -66 15 -74 3 -3 -5 8 -9 25 -10 59 -2 83 -77 24 -77 -32 0 -47 27 -26 48 7 7 8 3 4 -11 -6 -25 21 -42 39 -24 16 16 -9 52 -37 52 -18 0 -25 -7 -30 -31 -8 -35 -1 -45 35 -52 21 -4 20 -4 -7 -6 -63 -2 -33 -20 40 -24 l72 -3 -88 -2 c-74 -2 -86 0 -75 12 9 8 13 33 11 72 -1 37 3 61 10 66 7 4 38 8 70 8 45 0 57 -3 57 -15z m3120 -58 c0 -18 -21 -37 -41 -37 -26 0 -36 40 -14 56 20 15 55 2 55 -19z m1281 5 c5 -13 4 -22 -1 -22 -6 0 -10 7 -10 15 0 8 -4 15 -10 15 -5 0 -10 5 -10 11 0 18 23 4 31 -19z m-4416 -37 c0 -21 -4 -25 -25 -24 -17 1 -19 3 -7 6 10 3 17 14 17 30 0 33 13 22 15 -12z m130 -44 c3 -5 1 -12 -5 -16 -5 -3 -10 1 -10 9 0 18 6 21 15 7z m2789 -12 c-3 -5 -10 -7 -15 -3 -5 3 -7 10 -3 15 3 5 10 7 15 3 5 -3 7 -10 3 -15z m1946 11 c0 -5 -4 -10 -10 -10 -5 0 -10 5 -10 10 0 6 5 10 10 10 6 0 10 -4 10 -10z"/>
<path d="M2705 581 c-6 -11 9 -23 19 -14 9 9 7 23 -3 23 -6 0 -12 -4 -16 -9z"/>
<path d="M5805 530 c-8 -14 3 -30 21 -30 8 0 14 9 14 20 0 21 -24 28 -35 10z"/>
<path d="M5920 721 c0 -4 62 -12 137 -16 141 -7 210 -23 148 -35 l-30 -5 -3 -104 c-2 -73 1 -108 10 -119 11 -13 10 -14 -2 -10 -11 3 -16 24 -18 81 -2 48 -7 77 -14 77 -11 0 -6 -140 7 -160 3 -5 42 -10 85 -10 93 0 92 -1 85 110 -2 41 -4 90 -4 108 -1 29 -4 33 -22 27 -16 -5 -20 -3 -17 6 4 13 14 15 48 10 6 0 10 -19 10 -41 l0 -40 43 0 c61 0 103 -38 120 -108 9 -40 15 -51 27 -46 8 3 41 6 73 5 34 -1 57 2 57 8 0 7 -23 11 -55 11 l-55 0 0 44 c0 35 5 48 22 60 12 9 29 16 38 16 8 -1 0 -7 -18 -15 -30 -13 -33 -18 -30 -52 3 -35 6 -38 36 -41 57 -6 82 39 45 80 -9 10 -11 18 -6 18 21 0 33 -28 31 -74 -2 -32 2 -50 12 -56 24 -16 27 -12 35 37 5 36 16 56 46 86 34 34 39 45 39 84 l0 44 -285 -3 c-209 -2 -281 0 -270 8 8 6 12 14 8 17 -10 10 -333 8 -333 -2z m754 -107 c9 -3 16 -10 16 -15 0 -6 -8 -5 -19 1 -27 14 -114 13 -131 -2 -12 -11 -12 -10 -1 5 10 12 28 17 66 17 30 0 60 -3 69 -6z m-366 -91 l-3 -78 -55 -1 -55 -1 53 4 c52 4 57 8 46 37 -4 11 -19 16 -51 16 -41 0 -44 -2 -38 -21 5 -15 4 -19 -4 -15 -6 4 -11 16 -11 27 0 20 21 25 83 20 15 -1 27 3 27 8 0 6 -25 12 -57 13 l-58 2 58 3 c65 5 79 25 15 23 -64 -3 -68 -2 -68 20 0 18 7 20 60 20 l61 0 -3 -77z m324 30 c19 -17 23 -38 9 -47 -5 -4 -7 3 -4 13 7 27 -30 47 -47 26 -7 -8 -10 -24 -7 -35 3 -11 1 -18 -4 -14 -16 9 -10 53 9 63 23 14 23 14 44 -6z m-12 -27 c0 -3 -4 -8 -10 -11 -5 -3 -10 -1 -10 4 0 6 5 11 10 11 6 0 10 -2 10 -4z m-344 -55 c-5 -8 -56 -3 -56 5 0 2 14 4 31 4 16 0 28 -4 25 -9z"/>
<path d="M6200 580 c0 -5 23 -10 51 -10 31 0 48 4 44 10 -3 6 -26 10 -51 10 -24 0 -44 -4 -44 -10z"/>
<path d="M1630 705 c0 -10 10 -15 35 -15 26 0 35 4 35 16 0 14 -3 14 -16 3 -12 -10 -20 -10 -35 -1 -16 10 -19 9 -19 -3z"/>
<path d="M1003 691 c-64 -11 -64 -21 0 -21 44 0 57 3 57 15 0 8 -3 14 -7 14 -5 -1 -27 -5 -50 -8z"/>
<path d="M1187 684 c4 -12 18 -15 62 -12 31 1 60 7 64 13 6 7 10 6 14 -3 2 -6 9 -10 14 -6 24 14 -9 24 -81 24 -68 0 -79 -2 -73 -16z"/>
<path d="M2450 685 c0 -12 13 -15 60 -15 47 0 60 3 60 15 0 12 -13 15 -60 15 -47 0 -60 -3 -60 -15z"/>
<path d="M2700 683 c0 -9 18 -13 57 -13 68 0 61 16 -9 22 -34 2 -48 -1 -48 -9z"/>
<path d="M5735 693 c-65 -7 -66 -23 -2 -23 44 0 57 3 57 15 0 8 -3 14 -7 13 -5 -1 -26 -3 -48 -5z"/>
<path d="M1357 676 c-9 -7 -49 -17 -89 -20 -39 -4 -77 -14 -85 -22 -10 -9 -37 -14 -80 -14 -55 0 -64 2 -54 14 17 21 -8 26 -111 23 -77 -2 -88 -4 -92 -22 -9 -33 -6 -87 8 -140 12 -43 12 -52 0 -61 -24 -20 -16 -24 48 -24 l61 0 -19 21 c-14 16 -19 36 -19 80 0 58 -1 59 -27 59 -19 0 -28 5 -28 16 0 11 4 14 13 7 6 -5 26 -10 42 -12 36 -4 41 -11 55 -76 18 -78 18 -79 35 -65 9 7 15 35 17 73 3 61 3 62 33 63 29 2 29 2 3 -3 -26 -4 -28 -8 -28 -49 l0 -44 50 0 c48 0 49 0 56 36 7 38 1 49 -31 57 -12 3 -8 5 10 4 30 -2 30 -3 30 -60 0 -40 5 -60 15 -67 20 -13 27 -6 34 39 3 22 17 52 30 68 21 24 32 28 107 33 l84 5 3 36 c2 28 9 38 30 46 24 10 22 11 -28 12 -32 0 -63 -5 -73 -13z m-179 -86 c5 -13 3 -13 -11 -1 -12 9 -37 12 -86 9 -38 -2 -67 0 -64 5 2 4 39 7 81 5 56 -2 77 -7 80 -18z m-54 -46 c12 -12 13 -20 6 -35 -6 -10 -16 -19 -22 -19 -9 0 -9 3 0 12 16 16 15 35 -3 42 -37 14 -61 -23 -27 -43 15 -9 16 -10 0 -11 -21 0 -33 37 -18 55 16 19 45 19 64 -1z m-214 -104 c0 -5 -2 -10 -4 -10 -3 0 -8 5 -11 10 -3 6 -1 10 4 10 6 0 11 -4 11 -10z"/>
<path d="M4640 670 c0 -5 5 -10 10 -10 6 0 10 5 10 10 0 6 -4 10 -10 10 -5 0 -10 -4 -10 -10z"/>
<path d="M3230 545 l0 -105 1015 0 1015 0 0 105 0 105 -505 0 -505 0 0 -58 c0 -32 -5 -63 -12 -70 -7 -7 -39 -12 -75 -12 -73 0 -83 10 -83 89 l0 51 -425 0 -425 0 0 -105z"/>
<path d="M1480 580 c0 -5 20 -10 45 -10 25 0 45 5 45 10 0 6 -20 10 -45 10 -25 0 -45 -4 -45 -10z"/>
<path d="M2064 583 c-6 -5 -15 -35 -21 -68 -6 -33 -13 -67 -17 -75 -5 -12 3 -14 46 -11 43 3 49 5 36 15 -10 7 -18 32 -21 66 -2 30 -2 45 0 33 2 -12 15 -29 29 -38 29 -19 37 -7 32 47 -3 30 -6 33 -38 36 -19 1 -40 -1 -46 -5z"/>
<path d="M6340 540 c0 -48 1 -50 20 -40 11 6 20 18 20 27 0 31 11 6 14 -32 1 -24 -2 -39 -11 -42 -27 -11 -11 -21 37 -25 55 -3 56 -2 35 26 -8 11 -15 41 -15 66 0 56 -12 70 -62 70 l-38 0 0 -50z"/>
<path d="M1283 572 c-6 -4 -14 -29 -18 -57 -4 -27 -16 -63 -27 -78 l-19 -28 55 3 c31 2 56 8 56 13 0 6 -4 10 -9 10 -5 0 -13 3 -17 8 -4 4 -3 7 3 7 6 0 13 9 16 20 4 15 14 20 40 20 32 0 35 3 39 34 2 19 2 39 0 45 -4 12 -100 15 -119 3z m107 -29 c0 -14 -2 -15 -9 -4 -7 10 -12 8 -25 -10 -18 -26 -22 -18 -6 12 13 24 40 25 40 2z"/>
<path d="M6009 573 c-12 -3 -18 -20 -22 -65 -4 -41 -11 -64 -21 -70 -31 -17 -16 -28 38 -28 56 0 82 13 46 23 -18 5 -19 8 -9 31 9 19 20 26 48 28 35 3 36 5 39 46 2 33 0 42 -12 42 -19 0 -21 -21 -3 -39 10 -11 8 -12 -10 -7 -16 5 -23 2 -26 -11 -4 -14 -5 -13 -6 5 0 12 3 22 7 22 5 0 9 7 9 15 0 15 -39 19 -78 8z m8 -129 c-3 -3 -12 -4 -19 -1 -8 3 -5 6 6 6 11 1 17 -2 13 -5z"/>
<path d="M6776 526 c-4 -30 -14 -62 -21 -72 -22 -29 -18 -33 35 -32 34 0 50 4 50 13 0 7 -7 16 -15 19 -12 4 -13 10 -6 23 6 13 5 24 -5 38 -8 10 -14 29 -14 42 0 45 -18 22 -24 -31z"/>
<path d="M1480 550 c0 -5 20 -10 45 -10 25 0 45 5 45 10 0 6 -20 10 -45 10 -25 0 -45 -4 -45 -10z"/>
<path d="M1480 520 c0 -5 20 -10 45 -10 25 0 45 5 45 10 0 6 -20 10 -45 10 -25 0 -45 -4 -45 -10z"/>
<path d="M6970 520 c0 -5 7 -10 15 -10 8 0 15 5 15 10 0 6 -7 10 -15 10 -8 0 -15 -4 -15 -10z"/>
<path d="M1677 503 c-14 -3 -18 -12 -14 -28 2 -15 -1 -26 -10 -29 -27 -11 -3 -24 42 -24 25 1 45 3 45 5 0 6 -40 83 -43 82 -1 -1 -10 -3 -20 -6z"/>
<path d="M6910 490 c0 -5 20 -10 44 -10 25 0 48 5 51 10 4 6 -13 10 -44 10 -28 0 -51 -4 -51 -10z"/>
<path d="M1040 459 c0 -5 25 -9 56 -9 30 0 53 4 50 9 -3 4 -28 8 -56 8 -27 0 -50 -4 -50 -8z"/>
<path d="M5770 460 c0 -5 23 -10 50 -10 28 0 50 5 50 10 0 6 -22 10 -50 10 -27 0 -50 -4 -50 -10z"/>
<path d="M1025 430 c-4 -6 22 -10 77 -10 49 0 78 4 70 9 -20 12 -139 13 -147 1z"/>
<path d="M1810 430 c0 -6 30 -10 70 -10 40 0 70 4 70 10 0 6 -30 10 -70 10 -40 0 -70 -4 -70 -10z"/>
<path d="M6535 430 c-4 -6 23 -10 75 -10 52 0 79 4 75 10 -3 6 -37 10 -75 10 -38 0 -72 -4 -75 -10z"/>
<path d="M3397 243 c-5 -8 -47 -159 -47 -168 0 -16 22 -1 30 20 12 32 60 36 60 6 0 -20 17 -37 27 -27 10 9 -41 176 -54 176 -6 0 -14 -3 -16 -7z m27 -75 c5 -24 3 -28 -15 -28 -15 0 -19 4 -15 16 3 9 6 25 6 37 0 27 15 11 24 -25z"/>
<path d="M3513 231 c-28 -24 -29 -31 -3 -31 18 0 20 -7 20 -65 0 -37 4 -65 10 -65 6 0 10 37 10 90 0 50 -3 90 -7 90 -5 -1 -18 -9 -30 -19z"/>
<path d="M3626 198 c-34 -121 -35 -128 -21 -128 7 0 16 11 19 25 9 35 53 35 62 0 3 -14 12 -25 19 -25 13 0 4 45 -31 163 -10 34 -33 17 -48 -35z m43 -40 c1 -10 -6 -18 -14 -18 -16 0 -20 26 -8 56 6 16 7 16 14 -2 4 -10 8 -27 8 -36z"/>
<path d="M3856 242 c-6 -10 -46 -153 -46 -164 0 -18 21 -6 30 17 6 15 17 25 30 25 13 0 24 -10 30 -25 14 -38 33 -32 25 8 -24 108 -52 166 -69 139z m24 -51 c0 -11 3 -26 6 -35 4 -12 0 -16 -16 -16 -16 0 -20 4 -16 16 3 9 6 24 6 35 0 10 5 19 10 19 6 0 10 -9 10 -19z"/>
<path d="M3973 231 c-28 -24 -29 -31 -3 -31 18 0 20 -7 20 -65 0 -37 4 -65 10 -65 6 0 10 37 10 90 0 50 -3 90 -7 90 -5 -1 -18 -9 -30 -19z"/>
<path d="M4090 208 c-6 -24 -18 -64 -25 -90 -12 -40 -12 -48 -1 -48 8 0 17 11 20 25 9 35 53 35 62 0 3 -14 13 -25 21 -25 9 0 12 7 9 18 -40 140 -48 162 -61 162 -8 0 -19 -18 -25 -42z m39 -50 c1 -10 -6 -18 -14 -18 -16 0 -18 12 -8 49 6 23 7 23 14 5 4 -10 8 -27 8 -36z"/>
<path d="M4250 160 l0 -90 45 0 c25 0 45 5 45 10 0 6 -16 10 -35 10 -32 0 -35 2 -35 30 0 27 3 30 29 30 42 0 48 18 9 22 -28 2 -34 8 -36 31 -3 25 -1 27 32 27 20 0 36 5 36 10 0 6 -20 10 -45 10 l-45 0 0 -90z"/>
<path d="M4376 234 c-19 -18 -20 -28 -5 -56 8 -14 8 -23 0 -31 -6 -6 -11 -21 -11 -33 0 -51 77 -61 94 -12 8 21 6 32 -8 47 -11 12 -14 21 -7 26 15 8 14 48 -1 63 -17 17 -44 15 -62 -4z m49 -30 c0 -10 -8 -20 -17 -22 -18 -3 -26 27 -11 42 12 11 28 0 28 -20z m5 -79 c0 -28 -25 -44 -42 -27 -15 15 1 52 23 52 14 0 19 -7 19 -25z"/>
<path d="M4555 193 c-9 -32 -21 -71 -26 -87 -12 -37 -12 -36 5 -36 8 0 17 11 20 25 9 35 53 35 62 0 3 -14 12 -25 20 -25 11 0 11 8 -1 47 -7 27 -19 67 -25 91 -15 60 -36 54 -55 -15z m44 -40 c1 -7 -6 -13 -14 -13 -16 0 -20 26 -8 57 6 16 8 15 14 -7 4 -14 7 -31 8 -37z"/>
<path d="M4980 235 c0 -8 5 -15 10 -15 6 0 10 7 10 15 0 8 -4 15 -10 15 -5 0 -10 -7 -10 -15z"/>
<path d="M5040 226 c0 -8 -6 -16 -12 -19 -10 -4 -10 -7 0 -18 6 -7 12 -37 12 -66 0 -46 3 -53 20 -53 11 0 20 5 20 10 0 6 -4 10 -10 10 -12 0 -13 87 -1 94 5 4 4 17 -2 31 -13 27 -27 33 -27 11z"/>
<path d="M4752 143 l3 -68 40 0 40 0 3 63 c2 51 0 62 -13 62 -12 0 -15 -12 -15 -56 0 -47 -3 -55 -17 -52 -14 2 -19 15 -21 61 -2 31 -7 57 -13 57 -6 0 -9 -27 -7 -67z"/>
<path d="M4864 201 c-2 -2 -4 -33 -4 -68 0 -48 3 -63 15 -63 10 0 15 15 17 58 2 43 7 57 18 57 11 0 16 -14 18 -57 2 -32 7 -58 12 -58 15 0 12 116 -2 128 -12 10 -65 12 -74 3z"/>
<path d="M4980 135 c0 -37 4 -65 10 -65 6 0 10 28 10 65 0 37 -4 65 -10 65 -6 0 -10 -28 -10 -65z"/>
<path d="M3737 144 c-11 -12 3 -24 29 -24 15 0 24 6 24 15 0 15 -40 21 -53 9z"/>
<path d="M4662 138 c5 -15 57 -18 61 -3 1 6 -13 11 -32 13 -24 3 -32 0 -29 -10z"/>
</g>
</svg>