<svg xmlns="http://www.w3.org/2000/svg" viewBox="699.30 77.00 687.80 172.00">
<g transform="translate(0.000000,768.000000) scale(0.100000,-0.100000)" fill="currentColor" stroke="none">
<path d="M8365 6840 c-18 -20 -17 -20 125 -20 142 0 143 0 125 20 -16 18 -31 20 -125 20 -94 0 -109 -2 -125 -20z"/>
<path d="M8720 6836 c0 -10 14 -16 43 -19 23 -2 -94 -4 -261 -5 l-303 -2 23 -41 23 -40 305 0 305 0 3 41 c3 38 2 40 -25 41 -15 0 -22 3 -15 6 6 2 12 11 12 19 0 10 -14 14 -55 14 -41 0 -55 -4 -55 -14z"/>
<path d="M10830 6820 c0 -27 2 -30 25 -24 21 5 25 3 25 -15 0 -16 6 -21 25 -21 18 0 25 5 25 19 0 21 22 33 45 25 11 -5 15 1 15 20 0 16 -6 26 -15 26 -8 0 -15 -4 -15 -10 0 -5 -9 -10 -20 -10 -11 0 -20 5 -20 10 0 6 -8 5 -20 -2 -16 -10 -24 -10 -40 0 -28 17 -30 16 -30 -18z"/>
<path d="M11360 6821 c0 -11 3 -21 8 -24 4 -2 1 -2 -5 -1 -16 4 -43 -6 -43 -15 0 -3 52 -6 115 -6 63 0 115 3 115 6 0 11 -29 19 -47 13 -14 -5 -15 -4 -4 4 8 6 11 17 8 26 -5 13 -21 16 -77 16 -62 0 -70 -2 -70 -19z"/>
<path d="M12530 6790 l0 -50 405 0 405 0 0 50 0 50 -405 0 -405 0 0 -50z m27 8 c-3 -8 -6 -5 -6 6 -1 11 2 17 5 13 3 -3 4 -12 1 -19z m243 -8 l8 25 2 -25 c2 -24 3 -23 10 5 l8 30 2 -30 c2 -30 2 -30 10 -5 l8 25 2 -25 2 -25 8 25 8 25 2 -25 2 -25 8 25 8 25 2 -25 c2 -24 3 -23 10 5 l8 30 2 -30 2 -30 8 30 8 30 2 -30 c2 -30 2 -30 10 -5 l8 25 2 -25 2 -25 8 25 8 25 1 -27 1 -28 -210 0 c-120 0 -210 4 -210 9 0 5 8 8 18 7 10 -2 20 5 24 18 6 19 6 19 8 -4 l2 -25 8 25 8 25 2 -25 2 -25 8 25 c8 24 8 24 9 3 1 -13 6 -23 11 -23 6 0 10 10 11 23 1 21 1 21 9 -3 l8 -25 2 25 2 25 8 -25 8 -25 2 25 2 25 8 -25 8 -25 2 25 2 25 8 -25 8 -25 2 25 2 25 8 -25 8 -25 2 25 2 25 8 -25 c8 -25 8 -25 11 5 l2 30 5 -30 5 -30 7 25z m280 5 l8 30 2 -30 c2 -30 2 -30 10 -5 l8 25 2 -25 2 -25 8 25 8 25 2 -25 2 -25 8 25 8 25 2 -25 2 -25 8 25 8 25 2 -25 2 -25 8 25 8 25 2 -25 2 -25 8 25 8 25 2 -25 2 -25 8 25 8 25 2 -25 2 -25 8 25 8 25 2 -25 2 -25 8 25 8 25 2 -25 2 -25 8 25 8 25 2 -25 2 -25 8 25 8 25 2 -25 2 -25 8 25 8 25 1 -27 1 -28 -175 0 -175 0 1 28 1 27 8 -25 8 -25 2 25 2 25 8 -25 8 -25 2 25 2 25 8 -25 8 -25 2 25 2 25 8 -25 c8 -25 8 -25 11 5 l2 30 5 -30 5 -30 7 30z"/>
<path d="M8102 6773 c3 -35 6 -38 36 -41 31 -3 32 -2 32 37 0 40 -1 41 -36 41 -35 0 -35 -1 -32 -37z"/>
<path d="M8180 6765 l0 -45 -40 0 c-43 0 -40 5 -70 -120 -21 -88 -21 -88 -3 -92 10 -2 -25 -17 -77 -35 l-95 -32 -63 21 c-35 11 -61 22 -59 25 3 2 28 -4 57 -13 50 -16 56 -16 126 0 41 10 76 22 80 27 3 5 -24 9 -61 9 -56 0 -66 -3 -61 -15 3 -9 0 -15 -9 -15 -8 0 -15 7 -15 16 0 12 -7 14 -29 9 -16 -3 -56 -6 -90 -7 -33 0 -61 -4 -61 -7 0 -4 26 -32 58 -64 l57 -56 147 53 c80 30 155 59 165 65 17 10 16 10 -4 11 -12 0 -25 5 -29 11 -4 7 8 10 36 8 51 -4 52 -2 74 114 17 87 17 89 -4 133 -12 24 -24 44 -26 44 -2 0 -4 -20 -4 -45z m17 -93 c8 -5 7 -24 -4 -75 l-15 -67 -44 0 c-54 0 -59 10 -41 81 12 47 17 55 43 60 42 9 48 10 61 1z"/>
<path d="M8872 6763 l3 -38 75 0 75 0 3 38 3 37 -81 0 -81 0 3 -37z"/>
<path d="M9042 6763 c3 -35 6 -38 33 -38 23 0 31 5 33 23 2 12 7 22 12 22 5 0 7 -7 4 -15 -5 -12 2 -15 32 -16 22 0 63 -1 92 -2 28 -1 52 1 52 6 0 4 -12 7 -27 7 -34 0 -23 11 17 16 26 3 30 0 30 -20 0 -19 4 -22 24 -19 13 3 26 14 29 24 5 17 15 19 106 19 l101 0 0 -26 c0 -20 4 -25 16 -20 9 3 22 6 30 6 8 0 14 9 14 20 0 19 7 20 100 20 93 0 100 -1 100 -20 0 -15 7 -20 25 -20 22 0 25 4 25 35 l0 35 -426 0 -425 0 3 -37z"/>
<path d="M9900 6760 c0 -40 0 -40 39 -40 36 0 43 -5 93 -67 31 -38 63 -80 73 -95 l17 -28 154 0 154 0 -2 -82 -2 -83 -3 78 -4 77 -139 0 c-77 0 -140 -2 -140 -4 0 -2 27 -37 60 -78 l60 -73 -2 -85 -2 -85 -3 73 -4 73 -62 -3 -62 -3 -3 -72 -3 -73 156 0 155 0 0 75 0 75 -75 0 -74 0 -4 -72 -3 -73 -2 78 -2 77 85 0 85 0 0 -80 c0 -47 4 -80 10 -80 16 0 13 571 -4 593 -12 15 -38 17 -280 17 l-266 0 0 -40z m458 -107 l-3 -88 -75 0 -75 0 -3 74 c-2 41 -1 80 2 88 4 9 27 13 81 13 l76 0 -3 -87z"/>
<path d="M10222 6722 c-19 -6 -17 -142 3 -142 10 0 15 17 18 68 l3 67 2 -67 2 -68 50 0 50 0 0 73 c0 66 -2 73 -20 73 -18 0 -20 -8 -22 -61 l-2 -60 -3 58 c-2 31 -7 57 -11 58 -31 4 -59 5 -70 1z m45 -64 c-2 -13 -4 -5 -4 17 -1 22 1 32 4 23 2 -10 2 -28 0 -40z m20 30 c-3 -8 -6 -5 -6 6 -1 11 2 17 5 13 3 -3 4 -12 1 -19z m50 -50 c-3 -7 -5 -2 -5 12 0 14 2 19 5 13 2 -7 2 -19 0 -25z m-50 -20 c-3 -8 -6 -5 -6 6 -1 11 2 17 5 13 3 -3 4 -12 1 -19z m-20 -20 c-3 -8 -6 -5 -6 6 -1 11 2 17 5 13 3 -3 4 -12 1 -19z"/>
<path d="M11740 6770 l0 -30 79 0 c76 0 79 1 83 25 3 13 3 27 0 30 -3 3 -41 5 -84 5 l-78 0 0 -30z"/>
<path d="M11920 6770 l0 -30 300 0 300 0 0 30 0 30 -300 0 -300 0 0 -30z"/>
<path d="M13350 6770 c0 -30 0 -30 58 -30 l59 0 -5 30 c-4 29 -6 30 -58 30 -53 0 -54 0 -54 -30z"/>
<path d="M10791 6763 c-1 -10 -37 -13 -144 -13 -101 0 -147 -4 -156 -12 -10 -9 -12 -9 -7 -1 3 6 2 14 -4 18 -7 4 -10 -89 -10 -279 0 -184 4 -286 10 -286 6 0 10 90 10 250 l0 250 133 0 132 0 0 -250 0 -250 58 0 57 0 0 244 0 245 -52 4 -53 3 57 2 58 2 3 -252 2 -253 3 253 2 252 43 -2 42 -1 -37 -4 -38 -4 0 -245 0 -244 60 0 60 0 0 244 0 245 -22 4 c-13 2 11 4 52 4 48 0 58 -2 28 -4 l-48 -4 0 -245 0 -244 55 0 56 0 -3 250 -3 250 73 0 72 0 0 -250 c0 -160 4 -250 10 -250 6 0 10 78 10 215 l0 215 210 0 210 0 0 70 0 70 -220 0 -220 0 -1 -27 c-2 -24 -2 -25 -6 -5 l-4 22 -234 0 c-177 0 -235 3 -238 13 -4 10 -6 10 -6 0z"/>
<path d="M9384 6748 c-8 -12 9 -13 101 -8 l90 5 -93 5 c-52 3 -96 2 -98 -2z"/>
<path d="M9650 6748 c0 -5 39 -9 88 -9 67 -1 79 -3 52 -9 l-35 -8 35 1 c25 2 36 7 38 20 3 17 -4 18 -87 15 -50 -2 -91 -6 -91 -10z"/>
<path d="M9438 6723 c18 -2 45 -2 60 0 15 2 0 4 -33 4 -33 0 -45 -2 -27 -4z"/>
<path d="M9713 6723 c9 -2 23 -2 30 0 6 3 -1 5 -18 5 -16 0 -22 -2 -12 -5z"/>
<path d="M11737 6633 c-11 -155 -8 -450 3 -433 6 10 10 11 10 3 0 -10 48 -13 205 -13 l205 0 0 35 0 35 -109 0 c-94 0 -110 2 -116 18 -5 14 -4 15 6 5 9 -9 46 -13 111 -13 l98 0 0 75 0 75 -104 0 -105 0 -4 -27 c-4 -23 -5 -23 -3 5 l1 32 163 4 c96 3 162 1 162 -5 0 -5 -23 -9 -51 -9 -48 0 -51 -1 -45 -22 3 -13 6 -65 6 -115 0 -76 3 -93 15 -93 12 0 15 13 15 55 0 30 3 55 8 55 4 0 5 -25 4 -55 -3 -35 0 -55 7 -55 6 0 12 22 13 53 l1 52 7 -55 7 -55 3 45 3 45 7 -45 7 -45 3 45 3 45 7 -45 7 -45 3 45 3 45 7 -45 7 -45 1 53 c2 38 -1 51 -10 46 -7 -4 -8 -3 -4 4 16 26 26 9 26 -43 l0 -55 35 0 c34 0 35 1 37 43 l1 42 7 -45 7 -45 3 45 3 45 7 -45 7 -45 1 53 c1 33 -2 51 -8 47 -5 -3 -10 -1 -10 4 0 6 11 11 25 11 14 0 25 -5 25 -11 0 -5 -4 -7 -10 -4 -6 4 -9 -14 -8 -47 l1 -53 7 45 7 45 3 -45 c3 -45 3 -45 10 15 l7 60 1 -57 c2 -44 6 -58 17 -58 12 0 15 19 15 115 l0 115 -99 0 c-58 0 -103 4 -106 10 -4 7 31 10 107 8 l113 -3 -3 -42 c-3 -42 -3 -43 27 -43 17 0 31 -4 31 -10 0 -5 -13 -10 -30 -10 l-30 0 0 -70 c0 -69 1 -70 26 -70 24 0 25 2 23 53 l-3 52 39 0 40 0 3 -53 c3 -44 6 -52 23 -52 17 0 19 7 19 70 l0 70 -42 1 c-24 1 -46 1 -50 0 -5 0 -8 3 -8 8 0 5 117 9 263 9 144 1 306 1 360 1 l97 1 0 110 0 110 -380 0 -380 0 0 -62 0 -63 -312 5 c-237 4 -312 8 -316 18 -2 6 1 12 7 12 6 0 11 -4 11 -10 0 -6 107 -10 300 -10 l300 0 0 55 0 55 -95 0 -95 0 0 -50 c0 -30 -4 -50 -11 -50 -7 0 -10 18 -7 50 l3 50 -200 -2 -200 -3 -6 -40 -6 -40 -2 43 -1 42 -85 0 -85 0 0 -145 0 -144 73 -4 72 -3 -72 -2 c-59 -2 -72 -5 -76 -19 -3 -10 -5 61 -6 157 l-1 175 859 -3 858 -2 7 37 c3 21 6 55 6 76 l0 37 -863 0 -864 0 -6 -97z m243 -120 c0 -25 -2 -44 -4 -42 -8 10 -13 89 -5 89 5 0 9 -21 9 -47z m40 30 c0 -15 -2 -16 -9 -3 -7 10 -11 1 -14 -30 l-4 -45 -1 48 c-2 36 2 47 13 47 8 0 15 -8 15 -17z m40 0 c0 -15 -2 -15 -9 -4 -7 11 -10 10 -14 -5 -4 -16 -5 -16 -6 4 -1 13 5 22 14 22 8 0 15 -8 15 -17z m17 -5 c-3 -8 -6 -5 -6 6 -1 11 2 17 5 13 3 -3 4 -12 1 -19z m241 -25 l-1 -48 -5 40 -6 40 -6 -40 -7 -40 -3 45 -3 45 -7 -45 -7 -45 -2 40 c-2 32 -4 36 -11 20 -7 -16 -9 -17 -9 -3 -1 11 -9 16 -22 15 -17 -1 -20 -7 -17 -34 3 -27 0 -33 -14 -33 -14 0 -18 9 -19 38 l-2 37 -7 -40 -7 -40 -3 40 -3 40 -7 -40 -7 -40 -2 39 c-1 29 -4 37 -16 32 -8 -3 -15 0 -15 7 0 8 -4 6 -10 -3 -8 -13 -10 -12 -10 3 0 15 12 17 115 17 l115 0 -2 -47z m602 -55 l0 -93 -185 0 c-178 0 -185 1 -185 20 0 17 2 17 10 5 7 -10 10 12 10 73 l0 87 175 0 175 0 0 -92z m380 2 l0 -90 -180 0 -180 0 0 90 0 90 180 0 180 0 0 -90z m-1173 23 c-3 -10 -5 -4 -5 12 0 17 2 24 5 18 2 -7 2 -21 0 -30z m-110 -5 c-3 -7 -5 -2 -5 12 0 14 2 19 5 13 2 -7 2 -19 0 -25z m90 0 c-3 -7 -5 -2 -5 12 0 14 2 19 5 13 2 -7 2 -19 0 -25z m-70 0 c-3 -8 -6 -5 -6 6 -1 11 2 17 5 13 3 -3 4 -12 1 -19z m20 0 c-3 -8 -6 -5 -6 6 -1 11 2 17 5 13 3 -3 4 -12 1 -19z m33 7 c0 -8 -4 -15 -10 -15 -5 0 -7 7 -4 15 4 8 8 15 10 15 2 0 4 -7 4 -15z m148 -10 c-3 -3 -9 2 -12 12 -6 14 -5 15 5 6 7 -7 10 -15 7 -18z m19 3 c-3 -8 -6 -5 -6 6 -1 11 2 17 5 13 3 -3 4 -12 1 -19z"/>
<path d="M12192 6510 c0 -19 2 -27 5 -17 2 9 2 25 0 35 -3 9 -5 1 -5 -18z"/>
<path d="M12583 6460 c0 -47 2 -66 4 -42 2 23 2 61 0 85 -2 23 -4 4 -4 -43z"/>
<path d="M12603 6460 c0 -47 2 -66 4 -42 2 23 2 61 0 85 -2 23 -4 4 -4 -43z"/>
<path d="M12623 6460 c0 -47 2 -66 4 -42 2 23 2 61 0 85 -2 23 -4 4 -4 -43z"/>
<path d="M12643 6460 c0 -47 2 -66 4 -42 2 23 2 61 0 85 -2 23 -4 4 -4 -43z"/>
<path d="M12663 6460 c0 -47 2 -66 4 -42 2 23 2 61 0 85 -2 23 -4 4 -4 -43z"/>
<path d="M12682 6456 c1 -74 2 -77 8 -31 l7 50 1 -47 c2 -41 5 -48 22 -48 18 0 20 7 22 73 l2 72 6 -75 6 -75 2 81 2 81 -40 0 -40 0 2 -81z"/>
<path d="M12773 6460 c0 -47 2 -66 4 -42 2 23 2 61 0 85 -2 23 -4 4 -4 -43z"/>
<path d="M12793 6460 c0 -47 2 -66 4 -42 2 23 2 61 0 85 -2 23 -4 4 -4 -43z"/>
<path d="M12813 6460 c0 -47 2 -66 4 -42 2 23 2 61 0 85 -2 23 -4 4 -4 -43z"/>
<path d="M12832 6463 l-2 -83 40 0 40 0 -2 83 -2 82 -6 -80 -6 -80 -2 78 c-2 70 -4 77 -22 77 -17 0 -20 -7 -22 -42 l-1 -43 -7 45 c-6 39 -7 33 -8 -37z"/>
<path d="M12950 6460 l0 -80 30 0 30 0 2 78 2 77 6 -80 6 -80 2 83 2 82 -40 0 -40 0 0 -80z m47 -22 c-2 -18 -4 -4 -4 32 0 36 2 50 4 33 2 -18 2 -48 0 -65z"/>
<path d="M13043 6460 c0 -47 2 -66 4 -42 2 23 2 61 0 85 -2 23 -4 4 -4 -43z"/>
<path d="M13063 6460 c0 -47 2 -66 4 -42 2 23 2 61 0 85 -2 23 -4 4 -4 -43z"/>
<path d="M13083 6460 c0 -47 2 -66 4 -42 2 23 2 61 0 85 -2 23 -4 4 -4 -43z"/>
<path d="M13101 6460 c1 -60 4 -76 9 -55 l8 30 1 -27 c1 -21 6 -28 21 -28 18 0 20 7 22 68 l2 67 6 -70 6 -70 2 80 2 81 -30 2 c-19 1 -30 -2 -30 -10 0 -9 -3 -8 -10 2 -7 10 -9 -12 -9 -70z"/>
<path d="M13193 6460 c0 -47 2 -66 4 -42 2 23 2 61 0 85 -2 23 -4 4 -4 -43z"/>
<path d="M13213 6460 c0 -47 2 -66 4 -42 2 23 2 61 0 85 -2 23 -4 4 -4 -43z"/>
<path d="M13233 6460 c0 -47 2 -66 4 -42 2 23 2 61 0 85 -2 23 -4 4 -4 -43z"/>
<path d="M13253 6460 c0 -47 2 -66 4 -42 2 23 2 61 0 85 -2 23 -4 4 -4 -43z"/>
<path d="M13273 6460 c0 -47 2 -66 4 -42 2 23 2 61 0 85 -2 23 -4 4 -4 -43z"/>
<path d="M8225 6633 c-9 -43 -18 -88 -21 -100 -5 -28 -57 -55 -219 -116 -66 -25 -128 -48 -137 -52 -16 -7 -18 -28 -18 -246 l0 -239 185 0 185 0 0 128 0 127 325 3 325 3 0 -136 0 -135 -75 0 c-68 0 -75 -2 -75 -20 0 -19 7 -20 100 -21 55 -1 106 -2 113 -3 8 -1 13 25 15 92 l3 92 -30 0 -30 0 -4 -77 c-1 -43 -4 114 -5 350 l-2 427 -309 0 -310 0 -16 -77z m145 42 c15 -8 30 -19 32 -24 5 -15 295 -18 310 -3 6 6 27 12 45 12 l33 0 0 -95 0 -95 -110 0 -110 0 0 80 c0 47 -4 80 -10 80 -6 0 -10 -33 -10 -80 l0 -80 -60 0 -60 0 0 74 c0 50 4 76 13 79 6 3 1 6 -12 6 -13 1 -37 13 -54 27 -23 19 -39 25 -63 22 -18 -2 -30 0 -28 4 8 13 53 9 84 -7z m384 4 c-17 -5 -37 -16 -44 -24 -7 -8 -20 -15 -29 -15 -9 0 2 12 24 25 22 14 49 25 60 24 13 -1 9 -4 -11 -10z m56 -114 l0 -115 -205 0 -205 0 2 53 1 52 6 -45 6 -45 193 -3 193 -2 -3 110 c-2 60 0 110 5 110 4 0 7 -52 7 -115z m-432 83 c8 -7 12 -40 12 -97 l0 -86 -38 1 c-20 1 -43 2 -49 3 -10 1 -13 27 -13 94 0 52 3 97 7 101 9 8 63 -3 81 -16z m262 -472 c0 -8 -4 -17 -9 -21 -12 -7 -24 12 -16 25 9 15 25 12 25 -4z m60 -6 c0 -11 -4 -20 -9 -20 -5 0 -7 9 -4 20 3 11 7 20 9 20 2 0 4 -9 4 -20z"/>
<path d="M8870 6651 c0 -48 3 -61 15 -61 13 0 15 11 13 57 -4 81 -28 85 -28 4z"/>
<path d="M8912 6563 c-2 -146 -3 -153 -22 -153 -11 0 -20 -7 -20 -15 0 -11 21 -15 103 -18 l102 -3 -102 -2 -103 -2 5 -167 c3 -91 6 -168 8 -169 1 -2 47 -4 101 -5 74 -1 100 2 107 12 6 10 9 11 9 2 0 -10 88 -13 405 -13 l405 0 0 66 c0 52 -4 70 -17 80 -17 13 -17 13 0 14 16 0 17 10 15 108 -2 87 -6 107 -18 108 -8 1 -77 2 -152 2 l-137 2 -4 68 -3 67 -2 -67 -2 -68 -160 0 -160 0 0 67 c0 36 -3 63 -7 60 -3 -4 -5 -34 -4 -67 l2 -60 -170 0 -170 0 -4 153 -3 152 -2 -152z m198 -338 c0 -144 0 -145 -22 -144 -13 0 -17 3 -10 6 9 3 12 42 12 144 0 86 4 139 10 139 6 0 10 -55 10 -145z"/>
<path d="M8930 6650 l0 -60 90 0 90 0 0 60 0 60 -90 0 -90 0 0 -60z"/>
<path d="M9120 6701 c0 -5 8 -12 18 -14 16 -4 16 -5 0 -6 -10 0 -18 -5 -18 -11 0 -6 27 -10 60 -10 59 0 82 14 38 23 l-23 4 23 2 c12 0 22 6 22 11 0 6 -27 10 -60 10 -33 0 -60 -4 -60 -9z"/>
<path d="M9259 6703 c-6 -41 -4 -145 3 -149 4 -3 8 31 8 75 0 45 -2 81 -5 81 -3 0 -5 -3 -6 -7z"/>
<path d="M9280 6650 c0 -33 4 -60 9 -60 4 0 8 27 9 60 0 33 -4 60 -9 60 -5 0 -9 -27 -9 -60z"/>
<path d="M9314 6688 c3 -13 5 -40 5 -60 1 -34 4 -38 26 -38 24 0 25 3 25 60 0 60 0 60 -30 60 -26 0 -29 -3 -26 -22z"/>
<path d="M9380 6686 l0 -26 90 0 c55 0 90 4 90 10 0 6 -18 9 -42 7 -24 -1 -61 0 -83 4 -26 5 -9 6 53 5 125 -2 115 18 -11 22 l-97 3 0 -25z"/>
<path d="M9593 6650 c0 -36 2 -50 4 -32 2 17 2 47 0 65 -2 17 -4 3 -4 -33z"/>
<path d="M9610 6650 c0 -47 3 -60 15 -60 12 0 15 13 15 60 0 47 -3 60 -15 60 -12 0 -15 -13 -15 -60z"/>
<path d="M9650 6700 c0 -6 30 -10 70 -10 39 0 70 -3 70 -7 0 -5 -31 -7 -70 -5 -44 2 -70 0 -70 -7 0 -6 36 -12 88 -14 l87 -3 -87 -2 c-118 -3 -116 -22 2 -22 l90 0 0 40 0 40 -90 0 c-53 0 -90 -4 -90 -10z m170 -20 c0 -5 -5 -10 -11 -10 -5 0 -7 5 -4 10 3 6 8 10 11 10 2 0 4 -4 4 -10z"/>
<path d="M9840 6650 c0 -53 2 -60 20 -60 18 0 20 7 20 60 0 53 -2 60 -20 60 -18 0 -20 -7 -20 -60z"/>
<path d="M9891 6566 c0 -82 1 -147 3 -145 7 8 12 215 5 254 -3 23 -7 -24 -8 -109z"/>
<path d="M9920 6450 l0 -260 85 0 85 0 0 110 0 110 -82 1 c-46 1 -75 3 -65 6 13 4 17 15 17 59 l0 54 73 -2 c62 -1 65 -2 20 -5 l-53 -4 0 -50 0 -49 50 0 50 0 2 -117 c2 -100 3 -106 5 -36 l4 82 70 3 70 3 -88 111 c-48 61 -112 140 -141 177 -39 50 -59 67 -77 67 l-25 0 0 -260z"/>
<path d="M10500 6435 l0 -245 60 0 60 0 0 245 0 245 -60 0 -60 0 0 -245z"/>
<path d="M10630 6435 l0 -245 55 0 55 0 0 245 0 245 -55 0 -55 0 0 -245z"/>
<path d="M11150 6435 l0 -245 60 0 60 0 0 245 0 245 -60 0 -60 0 0 -245z"/>
<path d="M9120 6640 c0 -6 27 -10 60 -10 33 0 60 4 60 10 0 6 -27 10 -60 10 -33 0 -60 -4 -60 -10z"/>
<path d="M9380 6639 c0 -7 32 -9 95 -7 77 2 95 0 99 -12 2 -8 4 -5 5 8 1 21 -2 22 -99 22 -64 0 -100 -4 -100 -11z"/>
<path d="M9120 6605 c0 -12 13 -15 60 -15 47 0 60 3 60 15 0 12 -13 15 -60 15 -47 0 -60 -3 -60 -15z"/>
<path d="M9390 6605 c0 -12 16 -15 85 -15 69 0 85 3 85 15 0 12 -16 15 -85 15 -69 0 -85 -3 -85 -15z"/>
<path d="M9650 6605 c0 -12 17 -15 90 -15 73 0 90 3 90 15 0 12 -17 15 -90 15 -73 0 -90 -3 -90 -15z"/>
<path d="M13480 6600 c-5 -23 -9 -25 -75 -28 -38 -2 -73 -8 -76 -14 -4 -7 -8 -92 -9 -190 l-1 -178 34 0 c54 0 57 -10 57 -167 l0 -143 30 0 30 0 0 283 c0 183 4 287 10 293 6 6 10 44 8 90 -2 43 -5 68 -8 54z"/>
<path d="M11310 6400 l0 -210 60 0 60 0 0 180 0 181 133 -3 132 -3 0 -178 c0 -111 4 -177 10 -177 6 0 10 76 10 208 l0 207 -202 3 -203 2 0 -210z"/>
<path d="M9008 6572 l-78 -3 0 -74 0 -75 155 0 155 0 0 60 0 59 -152 4 -153 3 153 2 c129 2 152 4 152 17 0 13 -13 15 -77 13 -43 -2 -113 -4 -155 -6z"/>
<path d="M9280 6565 c0 -13 21 -15 146 -15 112 0 145 3 142 13 -3 9 -44 13 -146 15 -123 3 -142 1 -142 -13z"/>
<path d="M9591 6564 c0 -11 3 -14 6 -6 3 7 2 16 -1 19 -3 4 -6 -2 -5 -13z"/>
<path d="M9617 6574 c-19 -20 4 -24 128 -24 125 0 173 10 108 23 -43 8 -228 9 -236 1z"/>
<path d="M8870 6495 c0 -43 4 -75 10 -75 6 0 10 32 10 75 0 43 -4 75 -10 75 -6 0 -10 -32 -10 -75z"/>
<path d="M9280 6480 l0 -60 150 0 151 0 -3 58 -3 57 -147 3 -148 3 0 -61z"/>
<path d="M9618 6523 c-2 -9 -1 -36 1 -60 l3 -43 129 0 129 0 0 60 0 60 -129 0 c-113 0 -130 -2 -133 -17z"/>
<path d="M11440 6365 l0 -175 60 0 60 0 0 159 c0 88 -3 166 -6 175 -5 12 -20 16 -60 16 l-54 0 0 -175z"/>
<path d="M11570 6365 l0 -175 55 0 55 0 0 175 0 175 -55 0 -55 0 0 -175z"/>
<path d="M9970 6470 c0 -27 5 -50 10 -50 6 0 10 23 10 50 0 28 -4 50 -10 50 -5 0 -10 -22 -10 -50z"/>
<path d="M7690 6182 l0 -301 33 -3 32 -3 5 -225 c5 -218 6 -225 26 -228 18 -3 22 5 33 65 12 72 41 288 41 310 0 8 -13 13 -36 13 l-35 0 3 -115 c2 -74 -1 -114 -7 -112 -6 2 -12 82 -15 198 -5 149 -10 204 -23 238 -10 26 -16 68 -16 105 l2 61 8 -75 c4 -41 15 -95 23 -119 9 -24 16 -59 16 -77 0 -27 4 -34 20 -34 19 0 20 6 19 243 l-1 242 -64 59 -64 59 0 -301z m49 162 c-4 -63 -19 -67 -19 -5 0 29 5 51 10 51 7 0 10 -19 9 -46z"/>
<path d="M12773 6333 l-73 -4 0 -69 c0 -56 3 -70 15 -70 11 0 15 13 15 54 0 50 1 54 25 54 24 0 25 -3 23 -52 l-1 -51 -7 50 -7 50 -1 -52 c-2 -41 1 -53 13 -53 12 0 15 13 15 56 0 73 24 70 28 -4 4 -72 20 -65 25 11 l3 62 2 -62 c2 -49 5 -63 17 -63 23 0 17 144 -5 145 -8 1 -48 0 -87 -2z"/>
<path d="M13088 6332 l-198 -2 0 -73 1 -72 20 28 c18 24 27 27 80 27 54 0 59 -2 65 -25 11 -43 24 -27 24 30 l0 55 80 0 80 0 0 -55 0 -55 35 0 36 0 -3 72 c-2 39 -7 72 -13 72 -5 1 -99 0 -207 -2z"/>
<path d="M12743 6240 c0 -30 2 -43 4 -27 2 15 2 39 0 55 -2 15 -4 2 -4 -28z"/>
<path d="M13090 6240 l0 -50 70 0 70 0 0 50 0 50 -70 0 -70 0 0 -50z"/>
<path d="M12582 6238 c-2 -42 1 -48 18 -48 17 0 20 7 20 45 0 57 -19 59 -22 3 l-1 -43 -7 45 -7 45 -1 -47z"/>
<path d="M12633 6235 c0 -27 2 -38 4 -22 2 15 2 37 0 50 -2 12 -4 0 -4 -28z"/>
<path d="M12803 6235 c0 -27 2 -38 4 -22 2 15 2 37 0 50 -2 12 -4 0 -4 -28z"/>
<path d="M12933 6223 c-18 -7 -16 -33 2 -33 9 0 12 6 9 18 -5 16 -5 16 6 0 6 -10 19 -18 30 -18 10 0 21 8 23 18 4 16 5 16 6 0 0 -10 6 -18 12 -18 6 0 8 8 5 18 -5 14 -3 13 10 -3 l16 -20 -4 20 c-4 25 -48 30 -65 7 -12 -14 -13 -14 -13 1 0 17 -13 20 -37 10z"/>
<path d="M7490 6079 c0 -76 -4 -105 -14 -113 -14 -11 -20 -33 -17 -68 1 -13 10 -18 35 -18 33 0 33 1 34 45 1 24 -3 47 -8 50 -6 4 -10 46 -10 94 0 80 2 89 20 94 19 5 20 0 20 -144 l0 -149 -55 0 c-52 0 -55 -1 -55 -25 0 -24 3 -25 58 -27 56 -1 56 -1 14 -7 l-43 -6 35 -34 c30 -29 36 -42 36 -76 0 -28 -6 -47 -18 -58 -23 -21 -62 -22 -62 -2 0 12 -13 15 -55 15 l-55 0 0 -65 0 -65 54 0 c41 0 55 4 60 17 4 11 10 13 16 7 13 -13 -9 -87 -44 -150 -14 -25 -26 -47 -26 -48 0 -1 16 0 35 2 33 4 58 25 92 78 10 17 12 14 12 -22 1 -65 50 -66 51 -1 0 4 -10 7 -22 7 l-21 0 7 385 7 385 -40 0 -41 0 0 -101z"/>
<path d="M12064 6000 c0 -102 2 -143 3 -92 2 50 2 134 0 185 -1 50 -3 9 -3 -93z"/>
<path d="M13602 6028 l2 -153 6 145 c3 80 8 144 13 143 4 -2 11 -3 17 -3 5 0 11 -56 12 -135 4 -186 23 -180 23 8 l0 142 -37 3 -38 3 2 -153z"/>
<path d="M9920 6031 l0 -139 60 -4 c33 -1 65 -1 70 0 13 5 13 102 1 102 -6 0 -12 -19 -14 -42 l-4 -43 -1 48 c-2 36 2 47 13 47 12 0 15 16 15 85 l0 85 -70 0 -70 0 0 -139z"/>
<path d="M10070 6030 c0 -87 4 -140 10 -140 6 0 10 53 10 140 0 87 -4 140 -10 140 -6 0 -10 -53 -10 -140z"/>
<path d="M10104 6085 c0 -49 1 -71 3 -48 2 23 2 64 0 90 -2 26 -3 8 -3 -42z"/>
<path d="M10120 6085 l0 -85 75 0 75 0 -2 88 -2 87 -6 -80 -6 -80 -2 78 -2 77 -65 0 -65 0 0 -85z"/>
<path d="M10280 6085 l0 -85 75 0 75 0 0 85 0 85 -75 0 -75 0 0 -85z"/>
<path d="M10440 6086 c0 -47 5 -88 10 -91 6 -4 10 27 10 84 0 54 -4 91 -10 91 -6 0 -10 -35 -10 -84z"/>
<path d="M10470 6081 l-5 -94 -183 2 -183 2 3 -53 3 -53 183 -3 c144 -2 184 0 188 11 2 7 3 74 2 148 -3 132 -3 133 -8 40z"/>
<path d="M10494 5995 c0 -99 2 -138 3 -87 2 51 2 132 0 180 -1 48 -3 6 -3 -93z"/>
<path d="M10511 6063 c1 -59 4 -114 7 -120 2 -8 23 -13 53 -13 l50 0 -3 118 -3 117 -53 3 -54 3 3 -108z"/>
<path d="M10630 6050 l0 -120 55 0 55 0 0 120 0 120 -55 0 -55 0 0 -120z"/>
<path d="M10753 6053 c3 -65 6 -119 6 -120 1 -2 26 -3 56 -3 l55 0 0 120 0 120 -61 0 -61 0 5 -117z"/>
<path d="M10882 6048 l-2 -128 -57 -1 c-32 -1 -116 -2 -186 -3 -109 0 -127 -3 -125 -16 3 -13 32 -15 191 -18 145 -2 188 0 192 10 2 7 1 74 -4 148 l-8 135 -1 -127z"/>
<path d="M10912 5993 l-2 -183 -495 0 -495 0 0 -30 0 -30 -612 0 -613 0 -1 32 c-3 95 3 88 -64 88 l-60 0 0 -34 c0 -33 1 -34 44 -37 24 -2 42 -1 39 4 -2 4 0 7 6 7 5 0 12 10 14 23 3 13 5 6 6 -17 l1 -39 -45 6 c-25 4 -47 2 -50 -3 -15 -24 -25 -6 -25 45 l0 55 141 0 140 0 -2 120 -2 120 -314 0 -313 0 0 -155 0 -155 -95 0 -96 0 16 -30 16 -31 87 3 87 3 3 173 2 172 110 0 110 0 0 -110 0 -110 45 0 45 0 0 -70 0 -70 -250 0 -250 0 -17 35 c-17 35 -17 35 -85 35 l-68 0 0 -55 0 -55 285 0 c163 0 285 -4 285 -9 0 -5 -117 -8 -276 -7 -151 1 -280 -2 -287 -6 -17 -10 -13 -178 4 -189 10 -6 11 -9 2 -9 -8 0 -13 -13 -13 -30 0 -27 3 -30 34 -30 31 0 34 3 49 53 14 46 15 47 10 12 -9 -62 -19 -75 -59 -75 -28 0 -35 -4 -32 -17 3 -16 21 -19 158 -23 143 -5 155 -4 172 14 17 18 18 18 18 2 0 -15 6 -16 33 -11 47 9 128 36 160 52 35 18 37 53 3 53 -18 0 -23 -4 -19 -18 3 -14 -7 -22 -54 -36 -32 -10 -64 -21 -72 -24 -11 -4 -13 -1 -8 12 23 60 21 65 -25 69 -23 2 23 4 103 5 142 2 146 1 157 -20 7 -15 11 -18 12 -8 1 10 4 9 10 -5 8 -19 9 -19 9 2 1 12 -2 23 -6 26 -5 2 -2 2 5 1 7 -2 12 6 12 20 0 51 7 56 86 56 l74 0 -1 -27 c-2 -25 -2 -25 -6 -5 -4 21 -9 23 -71 20 l-67 -3 -8 -54 c-9 -65 -19 -79 -60 -83 -20 -2 -32 -8 -32 -18 0 -13 25 -15 165 -15 140 0 165 2 165 15 0 9 -11 16 -27 18 -14 2 -31 9 -36 15 -12 14 -28 85 -17 75 4 -4 10 -22 14 -40 5 -26 12 -34 34 -36 16 -2 27 2 27 9 0 6 -8 9 -20 6 -30 -8 -33 8 -3 24 l25 14 -23 6 c-20 6 -17 7 13 8 30 1 36 -2 31 -15 -3 -8 0 -26 6 -38 14 -25 91 -51 174 -59 43 -4 47 -3 47 18 0 12 3 37 6 54 6 31 6 31 -35 31 -45 0 -47 -3 -26 -40 8 -14 14 -28 15 -32 0 -11 -57 -10 -78 1 -9 5 -29 14 -44 20 -21 8 -27 17 -26 36 l2 25 114 0 c63 0 122 -5 134 -11 25 -13 37 1 39 46 0 17 3 25 5 19 3 -8 26 -10 67 -7 66 6 81 -2 89 -42 4 -23 37 -33 48 -15 5 8 43 14 100 18 l92 5 -4 53 c-1 30 0 54 5 54 4 0 7 11 7 25 0 21 5 25 30 25 25 0 30 4 30 25 l0 25 176 0 c169 0 176 1 194 22 l17 22 7 -22 c6 -19 15 -22 57 -22 44 0 50 2 45 18 -10 29 24 53 59 44 23 -6 31 -15 33 -35 3 -26 5 -27 69 -27 51 0 69 4 79 18 13 16 15 16 28 0 12 -17 54 -18 625 -18 l611 0 0 -81 c0 -57 3 -80 12 -77 6 2 13 15 15 28 2 13 4 24 6 25 1 1 29 22 61 46 l59 44 419 2 c230 1 421 3 425 5 9 5 161 -7 153 -11 -3 -2 -30 -4 -61 -6 -31 -1 -62 -6 -69 -10 -8 -5 -11 -4 -6 3 3 6 2 13 -4 17 -5 3 -10 1 -10 -4 0 -6 -10 -10 -22 -9 -13 0 -35 -3 -50 -7 -18 -5 -28 -3 -28 4 0 8 -47 11 -150 11 -127 0 -150 -2 -150 -15 0 -16 -8 -16 408 -16 114 1 191 -3 187 -9 -3 -5 -21 -6 -40 -3 -40 6 -46 -6 -13 -26 30 -18 168 -18 179 1 13 20 11 26 -13 30 -13 2 9 5 47 6 39 1 129 4 201 7 l131 6 6 -27 c8 -41 -8 -73 -40 -80 -15 -3 -33 -7 -39 -9 -8 -2 -4 -19 9 -48 12 -25 25 -43 29 -41 4 3 8 1 8 -5 0 -5 -6 -12 -12 -15 -21 -8 20 -35 45 -29 18 4 19 2 6 -6 -36 -23 -79 16 -79 72 0 12 -4 28 -9 36 -13 21 -81 7 -103 -21 l-17 -23 2 23 c1 12 9 25 19 28 27 8 22 24 -7 24 -17 0 -25 -6 -25 -17 -1 -10 -7 -29 -15 -43 -18 -32 -18 -25 -1 25 11 31 20 41 41 43 22 3 26 8 23 30 -3 27 -3 27 -91 27 -70 0 -87 3 -87 15 -1 8 -8 3 -16 -12 -14 -27 -18 -28 -88 -28 -65 0 -78 3 -117 30 -43 29 -47 30 -170 30 -126 0 -126 0 -165 -30 -36 -29 -42 -31 -121 -29 -77 2 -83 3 -83 23 1 19 2 19 11 4 16 -29 135 -25 176 5 l31 23 -111 -1 c-62 -1 -125 -3 -142 -4 l-30 -2 25 -12 c22 -10 14 -12 -59 -15 -46 -2 -88 1 -93 6 -4 4 18 6 52 4 50 -4 60 -2 60 12 0 13 -12 16 -65 16 -37 0 -65 -4 -65 -10 0 -5 -4 -10 -10 -10 -5 0 -10 7 -10 15 0 11 11 15 38 16 70 1 2 18 -77 18 -73 1 -74 0 -117 -39 -40 -37 -48 -40 -99 -40 l-55 0 0 -50 0 -50 38 -2 c42 -1 111 -5 130 -7 6 -1 12 -9 12 -18 0 -15 -2 -16 -10 -3 -7 11 -10 7 -10 -17 0 -18 4 -33 10 -33 5 0 7 7 4 15 -4 10 0 15 14 15 11 0 23 6 25 13 3 7 6 5 6 -5 1 -10 -6 -18 -14 -18 -8 0 -15 -5 -15 -11 0 -6 8 -9 17 -7 18 3 48 100 39 124 -3 7 -17 14 -33 16 -26 3 -28 7 -31 51 -2 26 1 48 5 48 4 1 33 3 63 4 l55 3 -3 -65 c-3 -54 -7 -66 -23 -70 -12 -4 -23 -20 -30 -47 -5 -22 -12 -48 -15 -57 -3 -10 -20 -20 -39 -23 -21 -4 -35 -13 -35 -21 0 -13 27 -15 166 -15 152 0 165 1 162 18 -2 11 -14 18 -35 20 -29 3 -33 8 -47 57 -9 29 -16 58 -16 65 0 7 -7 10 -16 6 -9 -3 -18 -6 -20 -6 -3 0 2 -10 10 -22 22 -31 20 -51 -7 -76 -28 -26 -50 -28 -68 -5 -13 15 -12 15 9 2 24 -15 47 -7 66 23 14 23 -8 68 -34 68 -11 0 -20 5 -20 11 0 6 9 8 22 4 17 -6 20 -4 15 9 -5 13 -1 16 20 13 22 -3 29 -11 36 -38 4 -19 11 -47 15 -64 6 -25 14 -31 40 -33 30 -3 32 -1 32 29 0 26 -3 31 -20 26 -11 -3 -20 -1 -20 4 0 5 24 8 53 8 31 -1 40 -4 23 -6 -26 -4 -28 -7 -22 -35 3 -17 6 -41 6 -53 0 -22 3 -23 63 -18 34 3 67 9 72 13 6 4 25 11 43 15 22 5 36 15 43 32 14 36 11 43 -15 43 -18 0 -25 -7 -29 -29 -5 -25 -12 -29 -67 -41 -33 -7 -63 -10 -67 -7 -3 4 0 20 7 36 6 16 9 35 5 40 -4 8 28 11 102 11 73 0 103 -3 93 -10 -8 -5 -10 -10 -4 -10 19 0 25 -40 6 -41 -11 0 -13 -2 -4 -6 7 -3 24 -2 37 1 33 8 35 46 3 47 -22 1 -22 1 2 8 19 5 26 15 28 38 3 30 3 30 75 36 40 3 76 1 81 -4 6 -5 -20 -9 -66 -9 -66 0 -77 -2 -77 -17 -1 -74 -25 -113 -67 -113 -24 0 -41 -28 -21 -36 7 -2 82 -3 167 -2 128 3 155 6 155 18 0 8 -14 17 -34 21 -41 8 -51 23 -49 69 0 23 2 28 5 12 2 -12 9 -20 14 -17 5 4 9 -1 9 -9 0 -10 9 -16 25 -16 29 0 29 22 0 32 -11 3 63 6 165 6 105 0 172 -4 155 -8 -16 -4 -22 -8 -12 -9 9 0 17 -6 17 -12 0 -6 -6 -9 -13 -6 -8 3 -13 -3 -13 -14 0 -28 44 -25 56 4 5 12 9 17 9 10 2 -29 -12 -43 -45 -43 -27 0 -34 -4 -34 -20 0 -19 7 -20 158 -20 86 0 162 4 168 8 12 8 12 231 0 273 l-8 27 -232 7 c-129 4 -247 4 -264 0 -18 -4 -33 -2 -37 5 -5 8 69 10 267 8 l273 -3 -2 40 c-1 22 11 -36 27 -129 16 -92 30 -169 32 -171 2 -1 13 -6 26 -9 21 -7 22 -5 22 58 0 74 -6 96 -27 96 -8 0 -11 5 -7 12 4 6 7 64 7 127 l0 116 7 -90 6 -90 2 108 2 107 -25 0 c-20 0 -25 -5 -25 -24 0 -13 6 -27 13 -29 6 -3 -156 -6 -360 -6 l-373 -1 0 -25 c0 -24 -2 -25 -65 -25 -63 0 -65 1 -65 25 0 24 -2 25 -74 25 l-75 0 -4 38 -4 37 -1 -37 -2 -38 -505 0 -505 0 -3 182 -2 183 -3 -182 -2 -183 -200 0 -200 0 -3 183 -2 182 -3 -182z m-2280 8 l-3 -101 -79 0 c-43 0 -80 4 -82 10 -1 5 -2 50 0 99 l3 90 77 3 c42 2 79 2 82 1 3 0 4 -46 2 -102z m4758 -151 c0 -5 -5 -10 -11 -10 -5 0 -7 5 -4 10 3 6 8 10 11 10 2 0 4 -4 4 -10z m-4401 -151 l406 2 58 -36 c75 -48 77 -70 5 -62 -44 5 -59 13 -86 42 -32 35 -33 35 -116 35 -60 0 -89 -4 -99 -14 -8 -8 -29 -16 -48 -18 -59 -5 -37 -23 34 -26 52 -2 67 0 67 11 0 8 -10 19 -22 25 -18 9 -5 11 67 9 l90 -2 3 -52 3 -53 -55 0 c-47 0 -56 3 -55 18 0 10 3 12 6 5 3 -8 23 -13 49 -13 l45 0 -3 43 c-3 41 -4 42 -41 45 -26 2 -39 -1 -43 -12 -3 -9 -10 -13 -15 -10 -5 3 -7 10 -4 15 4 5 0 9 -8 9 -10 0 -13 -8 -9 -25 l4 -25 -106 0 c-66 0 -105 4 -101 10 3 5 12 7 20 3 8 -3 15 0 15 6 0 6 -6 11 -14 11 -8 0 -22 3 -32 7 -14 5 -16 3 -11 -12 13 -32 -11 -45 -85 -45 -61 0 -76 4 -115 30 -43 29 -46 30 -172 30 -127 0 -128 0 -166 -30 -34 -27 -45 -30 -111 -30 -63 0 -75 3 -84 20 -8 15 -16 18 -28 12 -9 -5 -56 -7 -104 -5 -83 3 -87 2 -91 -19 -2 -13 -5 -2 -6 25 l-1 47 59 0 c33 0 63 -4 66 -10 4 -6 -17 -10 -54 -10 -34 0 -61 -4 -61 -10 0 -6 28 -10 65 -10 37 0 65 4 65 10 0 6 16 10 35 10 25 0 43 -7 59 -25 20 -21 32 -25 83 -25 46 0 67 5 87 21 22 17 25 24 14 31 -10 7 -10 9 2 7 8 -1 63 -1 121 0 78 1 108 5 112 14 3 9 -5 13 -29 13 -19 0 -34 -4 -34 -9 0 -5 -10 -6 -22 -2 -13 3 -40 6 -61 5 -57 -1 -70 14 -17 20 25 3 49 4 54 2 4 -3 191 -4 415 -3z m-970 -76 c3 -60 5 -63 50 -63 l38 0 15 -67 14 -68 44 -6 45 -6 -41 -1 c-49 -2 -59 8 -71 68 l-9 45 -69 6 -70 5 70 4 c54 3 61 4 28 7 -24 2 -43 7 -43 11 0 4 -21 7 -47 6 -47 -1 -47 -1 -5 3 37 4 42 7 42 29 0 48 -17 64 -66 64 l-46 0 4 -45 c4 -51 -6 -60 -16 -14 -13 68 -13 69 62 69 l68 0 3 -47z m381 23 c8 -2 -17 -4 -57 -5 -39 0 -74 3 -77 7 -4 7 98 6 134 -2z m3580 -61 c0 -19 -4 -35 -10 -35 -5 0 -10 16 -10 35 0 19 5 35 10 35 6 0 10 -16 10 -35z m-3084 -52 c-10 -10 -19 5 -10 18 6 11 8 11 12 0 2 -7 1 -15 -2 -18z m29 18 c3 -5 1 -12 -5 -16 -5 -3 -10 1 -10 9 0 18 6 21 15 7z m283 2 c-10 -2 -28 -2 -40 0 -13 2 -5 4 17 4 22 1 32 -1 23 -4z m3087 -2 c3 -5 1 -12 -4 -15 -5 -4 -12 0 -14 6 -4 10 -8 9 -16 -2 -9 -13 -11 -13 -11 3 0 18 34 24 45 8z m565 -9 c0 -4 -9 -8 -20 -9 -22 -2 -27 13 -7 20 14 5 27 -1 27 -11z m-4505 -2 c-3 -5 -10 -10 -16 -10 -5 0 -9 5 -9 10 0 6 7 10 16 10 8 0 12 -4 9 -10z m318 -44 c7 -22 5 -33 -10 -55 -11 -14 -27 -27 -36 -29 -20 -4 -57 33 -56 56 0 13 2 14 6 2 9 -24 35 -50 49 -50 8 0 21 11 30 25 14 21 15 31 6 50 -14 29 -38 32 -65 8 -11 -10 -17 -12 -12 -4 4 8 2 16 -5 21 -7 4 9 7 35 6 44 -1 49 -4 58 -30z m3925 14 c12 -12 22 -28 21 -38 0 -14 -2 -13 -9 3 -20 51 -74 56 -86 8 -10 -38 17 -61 56 -46 38 14 39 8 1 -11 -25 -13 -31 -13 -50 0 -27 19 -27 58 -1 84 25 25 41 25 68 0z m-4528 0 c11 -8 8 -9 -13 -4 -33 8 -57 -10 -57 -41 0 -30 24 -48 51 -40 14 5 19 4 15 -4 -10 -16 -37 -13 -58 6 -47 42 10 118 62 83z m3911 0 c5 0 9 -5 9 -10 0 -7 -6 -7 -17 -2 -26 14 -43 4 -44 -26 -2 -25 -2 -25 -6 -4 -5 28 15 55 34 47 8 -3 19 -5 24 -5z m1203 -6 c21 -20 20 -53 -1 -76 -18 -20 -58 -24 -69 -7 -4 7 0 9 14 5 50 -16 81 37 45 76 -20 22 -11 24 11 2z m-4537 -20 c3 -8 1 -20 -5 -26 -8 -8 -9 -5 -6 10 4 14 0 22 -13 25 -17 4 -17 5 0 6 10 0 20 -6 24 -15z m-593 -3 c3 -5 -2 -8 -12 -7 -12 1 -16 -5 -14 -19 2 -16 1 -17 -7 -5 -7 9 -6 19 1 27 12 15 25 17 32 4z m28 -33 c-6 -6 -7 0 -4 19 5 21 7 23 10 9 2 -10 0 -22 -6 -28z m82 34 c-6 -4 -10 -15 -8 -24 1 -10 -1 -18 -6 -18 -4 0 -7 11 -7 25 0 16 5 25 16 25 10 0 12 -3 5 -8z m46 -34 c0 -11 -2 -11 -9 0 -4 8 -11 13 -15 13 -3 -1 -6 1 -6 4 0 3 0 10 0 16 0 6 7 4 15 -5 8 -8 15 -21 15 -28z m404 16 c3 -8 2 -12 -4 -9 -6 3 -10 10 -10 16 0 14 7 11 14 -7z m4686 -9 c0 -8 -2 -15 -4 -15 -2 0 -6 7 -10 15 -3 8 -1 15 4 15 6 0 10 -7 10 -15z m-1316 -10 c3 3 2 0 -3 -6 -10 -12 -31 -4 -31 13 0 7 4 7 13 -1 8 -6 17 -9 21 -6z m146 5 c0 -12 -28 -25 -36 -17 -9 9 6 27 22 27 8 0 14 -5 14 -10z m330 0 c0 -5 -5 -10 -11 -10 -5 0 -7 5 -4 10 3 6 8 10 11 10 2 0 4 -4 4 -10z"/>
<path d="M8480 5999 l0 -90 70 2 70 2 0 89 0 88 -70 0 -70 0 0 -91z"/>
<path d="M8696 5675 c-5 -13 16 -15 149 -15 131 0 155 2 155 15 0 13 -23 15 -149 15 -123 0 -150 -3 -155 -15z"/>
<path d="M8780 5647 c0 -3 15 -15 34 -26 25 -16 50 -21 100 -21 59 0 66 2 66 20 0 18 -7 20 -54 20 -29 0 -74 3 -100 6 -25 4 -46 4 -46 1z"/>
<path d="M8190 5630 c0 -5 5 -10 11 -10 5 0 7 5 4 10 -3 6 -8 10 -11 10 -2 0 -4 -4 -4 -10z"/>
<path d="M10930 6050 l0 -120 45 0 45 0 0 120 0 120 -45 0 -45 0 0 -120z"/>
<path d="M11030 6050 l0 -120 55 0 55 0 0 120 0 120 -55 0 -55 0 0 -120z"/>
<path d="M11150 6050 l0 -120 60 0 60 0 0 120 0 120 -60 0 -60 0 0 -120z"/>
<path d="M11280 6045 l0 -125 -122 -1 c-207 -1 -223 -2 -223 -19 0 -13 27 -15 180 -15 l180 0 3 143 c2 92 -1 142 -8 142 -6 0 -10 -46 -10 -125z"/>
<path d="M11340 6050 l0 -120 45 0 45 0 0 120 0 120 -45 0 -45 0 0 -120z"/>
<path d="M11440 6050 l0 -120 55 0 55 0 0 120 0 120 -55 0 -55 0 0 -120z"/>
<path d="M11570 6050 c0 -102 2 -120 15 -120 14 0 16 17 14 120 -2 91 -6 120 -16 120 -10 0 -13 -28 -13 -120z"/>
<path d="M11614 5995 c0 -99 2 -138 3 -87 2 51 2 132 0 180 -1 48 -3 6 -3 -93z"/>
<path d="M11630 6050 l0 -120 25 0 25 0 0 120 0 120 -25 0 -25 0 0 -120z"/>
<path d="M11692 6046 l5 -125 -31 -3 c-20 -2 -32 -9 -34 -21 -3 -16 2 -18 40 -15 33 2 43 7 42 21 0 9 -1 73 -2 142 -1 86 -6 125 -13 125 -8 0 -10 -35 -7 -124z"/>
<path d="M11724 6124 c3 -26 6 -91 6 -144 l0 -98 160 -1 160 -2 0 146 0 145 -150 0 -149 0 -4 -137 -3 -138 -2 138 c-1 94 -6 137 -13 137 -8 0 -10 -15 -5 -46z"/>
<path d="M12083 6079 c4 -51 7 -116 7 -146 l0 -54 32 3 33 3 0 140 0 140 -39 3 -39 3 6 -92z"/>
<path d="M12170 6026 l0 -143 73 1 72 1 3 38 c2 25 -1 37 -10 37 -10 0 -12 22 -8 102 l5 103 5 -100 6 -100 2 103 c2 95 1 102 -18 102 -18 0 -20 -8 -23 -107 l-3 -108 -2 108 c-2 87 -5 107 -17 107 -12 0 -15 -18 -15 -105 0 -98 -1 -105 -20 -105 -19 0 -20 7 -20 105 0 87 -3 105 -15 105 -13 0 -15 -23 -15 -144z m87 -18 c-2 -29 -3 -6 -3 52 0 58 1 81 3 53 2 -29 2 -77 0 -105z"/>
<path d="M12210 6070 c0 -60 4 -100 10 -100 6 0 10 40 10 100 0 60 -4 100 -10 100 -6 0 -10 -40 -10 -100z"/>
<path d="M12334 6030 c0 -80 2 -112 3 -72 2 39 2 105 0 145 -1 39 -3 7 -3 -73z"/>
<path d="M12360 6045 l0 -125 71 0 c38 0 68 -4 65 -9 -3 -5 -33 -8 -66 -8 -33 0 -63 -3 -67 -6 -3 -4 28 -7 70 -7 l77 0 0 140 c0 122 -2 140 -16 140 -14 0 -15 -12 -9 -104 5 -72 4 -106 -4 -110 -8 -5 -11 25 -11 103 0 92 -3 111 -15 111 -12 0 -15 -19 -17 -107 l-2 -108 -6 110 -6 110 -4 -110 -4 -110 -6 110 -6 110 -5 -110 -5 -110 -2 108 c-2 87 -5 107 -17 107 -13 0 -15 -21 -15 -125z m97 -37 c-2 -29 -3 -6 -3 52 0 58 1 81 3 53 2 -29 2 -77 0 -105z"/>
<path d="M12520 6031 l0 -140 119 -3 120 -3 5 29 c3 16 5 81 4 145 l-2 116 -6 -110 -6 -110 -4 110 -4 110 -6 -110 -6 -110 -2 108 c-2 88 -5 107 -17 107 -13 0 -15 -22 -15 -135 0 -83 -4 -135 -10 -135 -6 0 -10 52 -10 135 0 113 -2 135 -15 135 -12 0 -15 -18 -15 -105 l0 -105 -30 0 -30 0 0 100 c0 129 18 131 23 3 l3 -98 2 103 c2 100 2 102 -20 102 -23 0 -23 -2 -20 -105 2 -70 0 -105 -7 -105 -7 0 -11 37 -11 105 0 98 -1 105 -20 105 -19 0 -20 -7 -20 -139z m230 -115 c0 -3 -4 -8 -10 -11 -5 -3 -10 -1 -10 4 0 6 5 11 10 11 6 0 10 -2 10 -4z"/>
<path d="M12634 6070 c0 -58 1 -81 3 -52 2 28 2 76 0 105 -2 28 -3 5 -3 -53z"/>
<path d="M12782 6044 c-1 -72 -5 -153 -8 -180 -5 -37 -4 -46 5 -38 8 7 11 61 8 180 -2 162 -3 164 -5 38z"/>
<path d="M12804 6070 c0 -58 1 -81 3 -52 2 28 2 76 0 105 -2 28 -3 5 -3 -53z"/>
<path d="M12820 6065 c0 -63 -4 -105 -10 -105 -5 0 -10 -9 -10 -20 0 -13 7 -20 20 -20 19 0 20 7 20 125 0 77 -4 125 -10 125 -6 0 -10 -42 -10 -105z"/>
<path d="M12850 6040 l0 -130 -25 0 c-15 0 -25 -6 -25 -14 0 -12 34 -14 200 -13 l200 0 0 144 0 143 -55 0 -54 0 -4 -132 -3 -133 -2 133 c-1 80 -6 132 -12 132 -5 0 -10 -22 -10 -50 0 -48 -1 -49 -37 -59 -48 -14 -69 -14 -94 -1 -26 15 -24 34 6 50 14 7 25 23 26 34 0 13 3 16 6 8 7 -19 -16 -60 -36 -64 -35 -8 28 -29 65 -22 34 6 34 7 18 25 -13 15 -19 16 -25 7 -4 -7 -11 -10 -14 -6 -3 3 3 21 15 39 15 24 20 28 19 14 -3 -21 20 -65 33 -65 5 0 8 21 7 48 -1 38 -2 42 -9 22 -8 -24 -8 -24 -9 -2 -1 24 -35 32 -44 10 -4 -10 -6 -10 -6 0 -1 18 -29 14 -34 -5 -4 -17 -5 -17 -6 0 0 9 -5 17 -9 17 -16 0 -21 -13 -12 -30 7 -13 6 -20 -6 -24 -9 -3 -12 -2 -9 4 4 6 3 20 -2 33 -5 14 -10 -28 -13 -118 l-6 -140 -2 138 c-2 114 -4 137 -17 137 -13 0 -15 -21 -15 -130z"/>
<path d="M13211 6143 c0 -16 4 -37 9 -48 6 -15 9 -8 9 28 1 26 -3 47 -9 47 -5 0 -10 -12 -9 -27z"/>
<path d="M13240 6024 l0 -145 33 3 32 3 3 143 3 142 -36 0 -35 0 0 -146z"/>
<path d="M13324 6030 c0 -80 2 -112 3 -72 2 39 2 105 0 145 -1 39 -3 7 -3 -73z"/>
<path d="M13342 6028 l3 -143 28 -3 28 -3 -3 143 -3 143 -28 3 -28 3 3 -143z"/>
<path d="M8240 5926 c0 -91 4 -167 8 -170 4 -2 69 -2 145 1 l137 6 0 53 0 54 -45 0 -45 0 0 110 0 110 -100 0 -100 0 0 -164z m270 -106 c0 -5 -20 -10 -45 -10 -25 0 -45 5 -45 10 0 6 20 10 45 10 25 0 45 -4 45 -10z"/>
<path d="M13223 5960 c0 -41 2 -58 4 -37 2 20 2 54 0 75 -2 20 -4 3 -4 -38z"/>
<path d="M8942 5918 l3 -93 148 -3 147 -3 0 96 0 95 -150 0 -151 0 3 -92z"/>
<path d="M9255 5928 c2 -46 4 -89 4 -95 1 -10 40 -13 161 -13 l160 0 0 95 0 95 -164 0 -165 0 4 -82z"/>
<path d="M9590 5915 l0 -96 158 3 157 3 3 93 3 92 -161 0 -160 0 0 -95z"/>
<path d="M11368 5913 c-16 -2 -28 -11 -28 -19 0 -12 21 -14 128 -12 97 2 127 6 127 16 0 10 -25 14 -100 17 -55 1 -112 1 -127 -2z"/>
<path d="M13217 5873 c-11 -10 -8 -53 3 -53 6 0 10 14 10 30 0 31 -2 35 -13 23z"/>
<path d="M13322 5850 c0 -19 2 -27 5 -17 2 9 2 25 0 35 -3 9 -5 1 -5 -18z"/>
<path d="M7580 5830 l0 -40 86 0 85 0 -3 38 -3 37 -82 3 -83 3 0 -41z"/>
<path d="M7786 5862 c-2 -4 -1 -14 4 -22 7 -12 50 -15 209 -18 l201 -4 0 26 0 26 -204 0 c-113 0 -207 -4 -210 -8z"/>
<path d="M9920 5845 c0 -24 2 -25 70 -25 68 0 70 1 70 25 0 24 -2 25 -70 25 -68 0 -70 -1 -70 -25z"/>
<path d="M10070 5843 c0 -22 2 -25 10 -13 13 20 13 40 0 40 -5 0 -10 -12 -10 -27z"/>
<path d="M10100 5846 l0 -24 190 -1 190 -1 0 25 0 25 -190 0 -190 0 0 -24z"/>
<path d="M10520 5847 l0 -23 188 1 c186 0 187 0 190 23 l3 22 -190 0 -191 0 0 -23z"/>
<path d="M10930 5851 c0 -16 11 -19 92 -25 50 -3 133 -6 185 -6 93 0 93 0 93 25 l0 25 -185 0 c-173 0 -185 -1 -185 -19z"/>
<path d="M11342 5848 c3 -22 6 -23 128 -23 122 0 125 1 128 23 3 22 3 22 -128 22 -131 0 -131 0 -128 -22z"/>
<path d="M11630 5850 c0 -18 7 -20 63 -20 34 0 128 -3 210 -7 l147 -6 0 27 0 26 -210 0 c-203 0 -210 -1 -210 -20z"/>
<path d="M12080 5851 c0 -15 11 -19 68 -24 37 -4 91 -7 120 -7 49 0 52 1 52 25 l0 25 -120 0 c-110 0 -120 -2 -120 -19z"/>
<path d="M12360 5850 c0 -17 8 -19 73 -22 70 -3 72 -4 75 -30 3 -27 6 -28 58 -28 50 0 55 2 49 19 -8 26 2 30 79 32 62 1 66 3 66 25 l0 24 -200 0 c-192 0 -200 -1 -200 -20z"/>
<path d="M12800 5847 l0 -24 200 -2 200 -2 0 25 0 26 -200 0 -200 0 0 -23z"/>
<path d="M13242 5848 c2 -18 11 -24 36 -26 29 -3 32 -1 32 22 0 23 -4 26 -36 26 -31 0 -35 -3 -32 -22z"/>
<path d="M13420 5830 l0 -40 84 0 84 0 4 35 c2 20 2 38 -1 40 -2 3 -42 5 -88 5 l-83 0 0 -40z"/>
<path d="M13609 5813 c-1 -32 0 -135 1 -229 2 -166 1 -171 -19 -177 -13 -3 -21 -13 -21 -25 0 -25 12 -34 34 -26 13 5 16 23 16 90 0 46 4 84 8 84 5 0 24 -32 42 -71 34 -69 60 -96 80 -84 6 4 -2 19 -18 35 -39 38 -70 119 -51 131 9 6 18 3 25 -6 7 -10 29 -15 63 -15 l52 0 -3 63 -3 62 -53 3 c-40 2 -54 -1 -58 -12 -9 -23 -37 -19 -64 9 -33 35 -23 98 24 148 19 20 42 37 50 37 9 0 16 9 16 20 0 18 -7 20 -60 20 l-60 0 -1 -57z"/>
<path d="M8710 5783 l0 -26 182 6 c99 4 219 7 265 7 76 0 83 2 83 20 0 19 -7 20 -150 20 -149 0 -150 0 -151 -22 l0 -23 -11 23 c-10 21 -17 22 -115 22 l-103 0 0 -27z"/>
<path d="M9257 5796 c-3 -8 -3 -17 0 -20 4 -3 78 -6 165 -6 151 0 158 1 158 20 0 19 -7 20 -159 20 -127 0 -160 -3 -164 -14z"/>
<path d="M9590 5788 c0 -23 0 -23 157 -21 150 2 158 3 161 23 3 19 -1 20 -157 20 -160 0 -161 0 -161 -22z"/>
<path d="M7570 5756 c0 -52 6 -56 96 -56 l84 0 0 40 0 40 -90 0 c-89 0 -90 0 -90 -24z"/>
<path d="M13414 5734 c3 -26 6 -64 6 -85 l0 -39 85 0 85 0 0 40 0 39 -82 4 -83 3 83 2 82 2 0 40 0 40 -91 0 -92 0 7 -46z"/>
<path d="M10105 5749 c-12 -19 9 -39 41 -39 29 0 34 3 34 25 0 22 -4 24 -35 23 -20 -1 -38 -5 -40 -9z"/>
<path d="M9970 5720 c0 -5 5 -10 10 -10 6 0 10 5 10 10 0 6 -4 10 -10 10 -5 0 -10 -4 -10 -10z"/>
<path d="M10345 5720 c-3 -5 -1 -10 4 -10 6 0 11 5 11 10 0 6 -2 10 -4 10 -3 0 -8 -4 -11 -10z"/>
<path d="M7574 5650 l-1 -40 88 0 89 0 0 40 0 40 -88 0 -87 0 -1 -40z"/>
<path d="M9610 5620 l0 -70 354 0 c223 0 356 4 358 10 2 5 1 37 0 70 l-4 60 -354 0 -354 0 0 -70z"/>
<path d="M10338 5624 c-3 -63 5 -86 22 -68 9 11 0 134 -10 134 -5 0 -10 -30 -12 -66z"/>
<path d="M10380 5620 l0 -69 605 0 605 0 0 69 0 70 -605 0 -605 0 0 -70z"/>
<path d="M13059 5655 c-4 -3 -26 -9 -50 -14 -40 -8 -36 -9 39 -10 63 -1 83 2 80 12 -5 12 -59 22 -69 12z"/>
<path d="M13140 5600 c0 -57 1 -60 25 -60 14 0 25 5 25 11 0 6 -7 9 -15 5 -12 -4 -15 5 -15 49 0 30 -4 55 -10 55 -6 0 -10 -27 -10 -60z"/>
<path d="M13170 5615 l0 -45 43 0 c51 0 67 13 67 55 0 23 -3 26 -10 15 -8 -13 -10 -12 -10 3 0 14 -9 17 -45 17 l-45 0 0 -45z"/>
<path d="M11842 5613 c3 -38 3 -38 51 -41 l47 -3 0 40 0 41 -51 0 -50 0 3 -37z"/>
<path d="M9550 5595 c0 -41 2 -45 25 -45 23 0 25 4 25 45 0 41 -2 45 -25 45 -23 0 -25 -4 -25 -45z"/>
<path d="M7570 5555 l0 -35 90 0 90 0 0 35 0 35 -90 0 -90 0 0 -35z"/>
<path d="M13420 5555 l0 -35 85 0 85 0 0 35 0 35 -85 0 -85 0 0 -35z"/>
<path d="M7840 5513 c0 -27 -5 -64 -11 -82 -9 -26 -15 -31 -33 -26 -19 6 -19 5 4 -15 31 -25 90 -52 104 -47 6 3 -8 12 -31 22 -42 17 -53 30 -33 37 11 3 16 145 6 156 -3 3 -6 -17 -6 -45z"/>
<path d="M11910 5550 c0 -5 7 -10 15 -10 8 0 15 5 15 10 0 6 -7 10 -15 10 -8 0 -15 -4 -15 -10z"/>
<path d="M9610 5500 l0 -40 990 0 990 0 0 40 0 40 -990 0 -990 0 0 -40z"/>
<path d="M9165 5520 c-4 -6 -10 -8 -15 -5 -5 3 -12 -11 -16 -32 -11 -61 -21 -73 -59 -73 -28 0 -35 -4 -35 -20 0 -19 7 -20 165 -20 158 0 165 1 165 20 0 16 -7 20 -34 20 -32 0 -34 3 -46 47 -6 26 -16 53 -22 60 -12 15 -94 17 -103 3z m76 -10 c10 -6 19 -15 19 -21 0 -6 -7 -3 -16 5 -32 33 -79 10 -72 -36 2 -12 14 -28 28 -35 17 -9 20 -13 8 -13 -24 0 -48 27 -48 55 0 44 40 66 81 45z m-48 -35 c-3 -9 -8 -14 -10 -11 -3 3 -2 9 2 15 9 16 15 13 8 -4z m44 -17 c-3 -7 -5 -2 -5 12 0 14 2 19 5 13 2 -7 2 -19 0 -25z m23 -7 c-5 -11 -15 -23 -21 -27 -6 -3 -3 5 6 20 20 30 30 35 15 7z"/>
<path d="M13322 5510 c0 -14 3 -49 7 -79 8 -53 7 -54 -21 -65 -23 -9 -39 -26 -23 -26 9 0 80 42 95 56 12 12 11 14 -8 14 -14 0 -23 7 -26 23 -15 71 -24 100 -24 77z"/>
<path d="M7570 5459 l0 -40 90 2 90 3 0 38 0 38 -90 0 -90 0 0 -41z"/>
<path d="M13420 5460 l0 -40 85 1 85 1 0 39 0 39 -85 0 -85 0 0 -40z"/>
<path d="M9413 5483 c-31 -4 -32 -5 -35 -61 l-3 -57 -145 -5 -144 -5 29 -19 c16 -11 48 -26 70 -33 l40 -13 -40 5 c-22 2 -150 5 -285 6 -135 0 -238 3 -230 6 8 3 28 17 43 29 l29 24 -118 0 c-103 0 -116 -2 -104 -14 8 -8 29 -22 45 -30 28 -15 11 -16 -230 -16 l-260 0 38 22 c20 12 37 26 37 30 0 4 -52 8 -116 8 -125 0 -132 -5 -59 -43 l44 -22 -362 0 -362 0 -3 -27 -3 -28 3260 0 c2182 0 3262 3 3266 10 3 6 3 20 0 31 -7 21 -10 21 -353 19 -575 -4 -880 0 -854 11 13 5 35 18 49 29 l26 20 -117 0 c-126 0 -134 -5 -64 -41 22 -11 38 -21 36 -22 -1 -1 -122 0 -268 3 -146 3 -258 7 -250 8 8 2 29 14 45 27 l30 25 -119 0 c-109 0 -117 -1 -105 -17 8 -9 29 -22 48 -30 18 -8 32 -15 30 -16 -2 -1 -611 0 -1353 3 -1348 5 -1349 5 -1310 25 22 10 53 20 69 21 47 3 125 25 125 35 0 5 -5 9 -10 9 -7 0 -8 18 -4 50 5 39 4 50 -7 48 -8 0 -28 -3 -46 -5z"/>
<path d="M11725 5481 c-3 -2 -5 -24 -5 -47 0 -24 -5 -46 -11 -50 -11 -6 90 -44 119 -44 21 0 13 18 -10 22 -20 3 -22 8 -19 59 l2 57 -36 4 c-19 2 -38 2 -40 -1z"/>
<path d="M9053 5468 c2 -14 17 -28 30 -28 5 0 5 5 1 12 -4 7 -3 8 5 4 18 -12 1 -28 -25 -23 -13 2 -24 0 -24 -4 0 -5 16 -9 35 -9 28 0 35 4 35 20 0 10 -9 24 -19 30 -26 14 -42 13 -38 -2z"/>
<path d="M9350 5470 c0 -5 -11 -12 -24 -16 -34 -8 -22 -36 13 -32 20 2 27 9 29 31 2 15 -1 27 -7 27 -6 0 -11 -4 -11 -10z m7 -36 c-3 -3 -12 -4 -19 -1 -8 3 -5 6 6 6 11 1 17 -2 13 -5z"/>
<path d="M12743 5458 c3 -19 18 -28 78 -49 41 -14 91 -29 111 -33 31 -6 37 -4 37 11 1 10 4 35 7 56 l6 37 -41 0 c-37 0 -41 -3 -41 -24 0 -13 8 -27 17 -30 10 -4 13 -10 7 -15 -5 -6 -37 0 -76 12 -49 16 -68 27 -68 40 0 10 -8 17 -20 17 -15 0 -19 -6 -17 -22z"/>
<path d="M12650 5455 c0 -20 24 -35 54 -35 35 0 27 12 -11 16 -14 2 -30 9 -34 16 -5 7 -9 8 -9 3z"/>
<path d="M8480 5430 c-12 -8 -9 -10 13 -10 15 0 27 5 27 10 0 13 -20 13 -40 0z"/>
<path d="M9612 5408 l3 -33 988 -3 987 -2 0 35 0 35 -991 0 -990 0 3 -32z"/>
<path d="M7043 5350 c0 -30 2 -43 4 -27 2 15 2 39 0 55 -2 15 -4 2 -4 -28z"/>
<path d="M13035 5350 c12 -19 84 -50 117 -50 29 0 108 41 108 55 0 3 -52 5 -116 5 -75 0 -113 -4 -109 -10z"/>
</g>
</svg>