<svg xmlns="http://www.w3.org/2000/svg" viewBox="693.10 252.30 695.90 274.20">
<g transform="translate(0.000000,768.000000) scale(0.100000,-0.100000)" fill="currentColor" stroke="none">
<path d="M9930 4995 l0 -105 50 0 c44 0 52 3 62 26 9 19 9 33 0 56 -7 20 -8 38 -1 55 16 43 -11 73 -66 73 l-45 0 0 -105z m85 65 c12 -20 -6 -50 -31 -50 -20 0 -24 5 -24 30 0 25 4 30 24 30 14 0 28 -5 31 -10z m-11 -83 c28 -20 18 -61 -16 -65 -27 -3 -28 -1 -28 37 0 44 12 51 44 28z"/>
<path d="M10170 4995 l0 -105 50 0 c45 0 52 3 61 27 6 17 6 36 0 54 -5 16 -7 44 -4 62 7 44 -16 67 -68 67 l-39 0 0 -105z m78 48 c-2 -22 -8 -28 -27 -28 -19 0 -24 6 -27 28 -2 24 1 27 27 27 27 0 30 -3 27 -27z m2 -67 c6 -8 10 -25 8 -38 -2 -18 -9 -23 -33 -23 -24 0 -31 5 -33 23 -2 13 -1 30 2 38 7 18 40 18 56 0z"/>
<path d="M10380 4995 l0 -105 56 0 c34 0 53 4 49 10 -3 6 -22 10 -41 10 -32 0 -34 2 -34 34 0 32 3 35 33 38 17 2 32 8 32 13 0 6 -15 11 -32 13 -30 3 -33 6 -33 38 0 33 1 34 40 34 22 0 40 5 40 10 0 6 -25 10 -55 10 l-55 0 0 -105z"/>
<path d="M10526 5084 c-20 -19 -21 -58 -2 -77 8 -8 28 -20 46 -27 25 -10 30 -18 28 -39 -4 -35 -48 -37 -63 -3 -13 29 -25 28 -25 -3 0 -55 88 -71 112 -20 17 38 3 70 -42 90 -30 13 -40 24 -40 41 0 13 5 26 10 29 16 10 50 -5 50 -21 0 -8 5 -14 10 -14 14 0 13 33 -2 48 -17 17 -64 15 -82 -4z"/>
<path d="M10682 5027 c-23 -40 -42 -76 -42 -80 0 -4 18 -7 40 -7 36 0 40 -2 40 -25 0 -16 6 -25 15 -25 9 0 15 9 15 23 0 13 5 28 12 35 9 9 9 12 0 12 -7 0 -12 25 -14 67 -2 36 -8 68 -14 70 -5 2 -29 -30 -52 -70z m38 -22 c0 -34 -21 -57 -37 -41 -7 6 23 76 32 76 3 0 5 -16 5 -35z"/>
<path d="M10820 5031 c-22 -38 -40 -74 -40 -80 0 -6 16 -11 35 -11 31 0 35 -3 35 -25 0 -16 6 -25 15 -25 9 0 15 9 15 24 0 13 6 27 13 30 10 5 10 7 0 12 -9 4 -13 29 -13 75 0 38 -4 69 -10 69 -5 0 -27 -31 -50 -69z m30 -31 c0 -33 -3 -40 -20 -40 -11 0 -20 2 -20 5 0 7 33 75 37 75 2 0 3 -18 3 -40z"/>
<path d="M10941 5013 c-13 -49 -25 -96 -28 -105 -3 -11 1 -18 11 -18 8 0 17 13 21 30 6 25 11 30 36 30 25 0 30 -5 36 -30 3 -17 12 -30 20 -30 17 0 17 0 -19 133 -15 59 -24 77 -38 77 -13 0 -22 -20 -39 -87z m56 -6 c5 -33 3 -37 -17 -37 -20 0 -22 4 -16 31 3 17 6 39 6 47 0 29 20 -3 27 -41z"/>
<path d="M11089 5084 c-7 -9 -15 -46 -17 -83 -3 -56 -1 -70 18 -93 25 -32 49 -35 80 -10 16 13 21 26 18 47 l-3 30 -15 -30 c-16 -31 -45 -44 -62 -27 -14 14 -12 130 2 147 18 21 41 19 47 -5 3 -11 12 -20 19 -20 17 0 18 14 4 41 -13 24 -72 26 -91 3z"/>
<path d="M10070 4970 c0 -5 16 -10 35 -10 19 0 35 5 35 10 0 6 -16 10 -35 10 -19 0 -35 -4 -35 -10z"/>
<path d="M7042 4800 c0 -14 2 -19 5 -12 2 6 2 18 0 25 -3 6 -5 1 -5 -13z"/>
<path d="M7040 4675 c-4 -25 -11 -31 -40 -36 -19 -4 44 -6 140 -5 150 0 156 1 43 3 l-132 4 -3 32 -4 32 -4 -30z"/>
<path d="M7373 4633 c15 -2 37 -2 50 0 12 2 0 4 -28 4 -27 0 -38 -2 -22 -4z"/>
<path d="M7508 4633 c17 -2 47 -2 65 0 17 2 3 4 -33 4 -36 0 -50 -2 -32 -4z"/>
<path d="M7708 4633 c18 -2 45 -2 60 0 15 2 0 4 -33 4 -33 0 -45 -2 -27 -4z"/>
<path d="M7853 4633 c15 -2 37 -2 50 0 12 2 0 4 -28 4 -27 0 -38 -2 -22 -4z"/>
<path d="M8018 4633 c12 -2 32 -2 45 0 12 2 2 4 -23 4 -25 0 -35 -2 -22 -4z"/>
<path d="M8108 4633 c7 -3 16 -2 19 1 4 3 -2 6 -13 5 -11 0 -14 -3 -6 -6z"/>
<path d="M8173 4633 c15 -2 37 -2 50 0 12 2 0 4 -28 4 -27 0 -38 -2 -22 -4z"/>
<path d="M8298 4633 c6 -2 18 -2 25 0 6 3 1 5 -13 5 -14 0 -19 -2 -12 -5z"/>
<path d="M8353 4633 c9 -2 23 -2 30 0 6 3 -1 5 -18 5 -16 0 -22 -2 -12 -5z"/>
<path d="M8498 4633 c18 -2 45 -2 60 0 15 2 0 4 -33 4 -33 0 -45 -2 -27 -4z"/>
<path d="M8643 4633 c26 -2 67 -2 90 0 23 2 2 3 -48 3 -49 0 -68 -1 -42 -3z"/>
<path d="M8933 4633 c82 -2 212 -2 290 0 78 1 12 3 -148 3 -159 0 -223 -2 -142 -3z"/>
<path d="M9733 4633 c169 -2 445 -2 615 0 169 1 30 2 -308 2 -338 0 -477 -1 -307 -2z"/>
<path d="M10828 4633 c94 -2 250 -2 345 0 94 1 17 3 -173 3 -190 0 -267 -2 -172 -3z"/>
<path d="M11378 4633 c17 -2 47 -2 65 0 17 2 3 4 -33 4 -36 0 -50 -2 -32 -4z"/>
<path d="M11533 4633 c15 -2 39 -2 55 0 15 2 2 4 -28 4 -30 0 -43 -2 -27 -4z"/>
<path d="M11663 4633 c15 -2 39 -2 55 0 15 2 2 4 -28 4 -30 0 -43 -2 -27 -4z"/>
<path d="M11893 4633 c37 -2 97 -2 135 0 37 2 6 3 -68 3 -74 0 -105 -1 -67 -3z"/>
<path d="M12173 4633 c15 -2 39 -2 55 0 15 2 2 4 -28 4 -30 0 -43 -2 -27 -4z"/>
<path d="M12298 4633 c23 -2 61 -2 85 0 23 2 4 4 -43 4 -47 0 -66 -2 -42 -4z"/>
<path d="M12518 4633 c46 -2 118 -2 160 0 42 1 5 3 -83 3 -88 0 -123 -2 -77 -3z"/>
<path d="M12898 4633 c7 -3 16 -2 19 1 4 3 -2 6 -13 5 -11 0 -14 -3 -6 -6z"/>
<path d="M12973 4633 c15 -2 39 -2 55 0 15 2 2 4 -28 4 -30 0 -43 -2 -27 -4z"/>
<path d="M13098 4633 c17 -2 47 -2 65 0 17 2 3 4 -33 4 -36 0 -50 -2 -32 -4z"/>
<path d="M13283 4633 c9 -2 25 -2 35 0 9 3 1 5 -18 5 -19 0 -27 -2 -17 -5z"/>
<path d="M13458 4633 c17 -2 47 -2 65 0 17 2 3 4 -33 4 -36 0 -50 -2 -32 -4z"/>
<path d="M7041 4594 c0 -11 3 -14 6 -6 3 7 2 16 -1 19 -3 4 -6 -2 -5 -13z"/>
<path d="M7043 4230 c0 -25 2 -35 4 -22 2 12 2 32 0 45 -2 12 -4 2 -4 -23z"/>
<path d="M7042 4110 c0 -14 2 -19 5 -12 2 6 2 18 0 25 -3 6 -5 1 -5 -13z"/>
<path d="M7041 4054 c0 -11 3 -14 6 -6 3 7 2 16 -1 19 -3 4 -6 -2 -5 -13z"/>
<path d="M10237 4044 c-4 -23 -2 -25 24 -19 28 6 32 2 28 -32 -1 -11 39 -23 56 -17 8 4 15 12 15 20 0 8 10 14 25 14 18 0 25 5 25 20 0 17 -3 18 -26 10 -19 -7 -31 -7 -40 1 -8 6 -21 8 -30 5 -8 -3 -25 1 -37 9 -29 20 -34 19 -40 -11z"/>
<path d="M12622 4050 c-12 -20 -10 -20 135 -20 l148 0 -25 20 c-21 17 -41 20 -135 20 -99 0 -111 -2 -123 -20z"/>
<path d="M7766 4019 c-15 -76 -56 -69 418 -69 l423 0 6 42 c3 23 3 46 1 50 -3 4 -193 8 -423 8 l-418 0 -7 -31z m70 -26 c14 2 24 0 24 -7 0 -7 -18 -13 -40 -14 -23 -2 -40 2 -40 8 0 5 5 10 10 10 6 0 11 10 11 23 2 22 2 22 6 -2 4 -18 10 -22 29 -18z m4 27 c0 -5 -4 -10 -10 -10 -5 0 -10 5 -10 10 0 6 5 10 10 10 6 0 10 -4 10 -10z m37 -37 c-3 -10 -5 -2 -5 17 0 19 2 27 5 18 2 -10 2 -26 0 -35z m34 12 c5 4 9 0 9 -8 0 -7 -7 -14 -15 -14 -10 0 -15 10 -14 31 1 24 3 26 6 8 2 -12 9 -20 14 -17z m41 15 c5 23 5 22 7 -6 1 -21 -4 -31 -14 -31 -10 0 -15 10 -14 31 1 30 1 30 8 6 l8 -25 5 25z m25 -27 c-3 -10 -5 -2 -5 17 0 19 2 27 5 18 2 -10 2 -26 0 -35z m34 12 c5 4 9 0 9 -8 0 -7 -7 -14 -15 -14 -10 0 -15 10 -14 31 1 24 3 26 6 8 2 -12 9 -20 14 -17z m40 15 l7 25 2 -25 2 -25 8 25 c7 23 8 23 9 4 1 -18 7 -22 36 -22 29 0 35 4 36 22 1 20 1 20 7 -2 4 -13 12 -23 17 -23 6 0 13 10 17 23 5 20 6 20 7 -7 l1 -30 -85 0 -85 0 1 30 c2 28 2 28 7 5 l5 -25 8 25z m87 1 c3 -10 0 -10 -16 -2 -10 6 -23 7 -27 3 -5 -4 -5 -2 -2 5 9 14 40 10 45 -6z m93 -1 c7 24 7 24 8 3 1 -19 7 -23 31 -23 24 0 30 4 31 23 1 18 3 16 9 -8 l8 -30 2 30 c2 24 3 26 8 10 4 -11 14 -20 22 -20 8 0 18 9 22 20 5 18 6 17 8 -5 l2 -25 8 25 c8 24 8 24 9 -7 l1 -31 -95 1 -95 2 1 30 c2 28 2 28 7 5 l5 -25 8 25z m129 10 c0 -5 -4 -10 -10 -10 -5 0 -10 5 -10 10 0 6 5 10 10 10 6 0 10 -4 10 -10z m72 -10 c5 23 5 22 7 -6 1 -21 -4 -31 -14 -31 -10 0 -15 10 -14 31 1 30 1 30 8 6 l8 -25 5 25z m58 0 l3 25 5 -25 5 -25 8 25 c7 24 7 24 8 -5 1 -27 -3 -31 -24 -31 -21 0 -25 4 -24 31 1 29 1 29 9 5 l8 -25 2 25z m62 0 c5 24 5 23 8 -5 l2 -30 8 30 8 30 1 -32 c1 -29 -2 -33 -24 -31 -21 2 -25 7 -24 33 1 29 1 29 8 5 l8 -25 5 25z m-95 -32 c-3 -8 -6 -5 -6 6 -1 11 2 17 5 13 3 -3 4 -12 1 -19z"/>
<path d="M9710 4036 c0 -8 8 -17 18 -19 9 -3 0 -5 -20 -6 -21 0 -38 -5 -38 -11 0 -6 43 -10 110 -10 61 0 112 0 115 0 16 0 6 16 -11 18 -16 2 -20 8 -17 23 5 18 0 19 -76 19 -63 0 -81 -3 -81 -14z"/>
<path d="M7626 3976 c-11 -30 -16 -66 -14 -112 l3 -68 940 1 940 1 3 71 3 71 -943 2 c-519 1 -915 3 -881 5 57 4 63 6 69 29 4 14 5 26 3 28 -2 2 -27 6 -55 10 l-51 6 -17 -44z"/>
<path d="M12370 3979 l0 -39 308 0 307 0 18 31 c9 17 17 34 17 38 0 4 -146 8 -325 8 l-325 1 0 -39z"/>
<path d="M13012 3971 l-25 -44 23 -94 c14 -52 27 -98 30 -103 3 -6 81 -35 172 -66 l167 -56 58 47 c32 26 59 51 61 56 5 12 -43 22 -67 14 -12 -3 -21 -2 -21 3 0 4 -21 6 -47 3 -27 -3 -91 -3 -143 0 -52 3 -82 6 -66 7 33 2 33 -1 -10 169 l-27 101 -39 4 c-38 4 -41 2 -66 -41z m127 -128 c7 -27 16 -56 18 -66 5 -16 0 -18 -52 -15 -63 3 -66 6 -89 101 l-6 27 58 0 58 0 13 -47z"/>
<path d="M8630 3980 l0 -30 325 0 325 0 0 30 0 30 -325 0 -325 0 0 -30z"/>
<path d="M9290 3980 l0 -30 105 0 105 0 0 30 0 30 -105 0 -105 0 0 -30z"/>
<path d="M10803 3989 c4 -15 2 -19 -9 -15 -12 5 -14 -36 -14 -274 0 -180 4 -280 10 -280 6 0 10 57 10 150 l0 150 268 0 267 0 -3 -55 c-3 -45 -1 -55 12 -55 14 0 16 24 16 200 l0 200 -25 0 c-16 0 -25 -6 -25 -15 0 -8 5 -15 10 -15 6 0 10 -4 10 -8 0 -5 -7 -9 -15 -9 -9 0 -15 10 -15 24 l0 23 -251 0 c-250 0 -251 0 -246 -21z m119 -118 l2 -76 3 78 4 77 124 0 125 0 0 -84 c0 -83 0 -84 -25 -82 -24 1 -25 3 -25 79 l0 77 -30 0 -30 0 0 -80 c0 -64 -3 -80 -15 -80 -12 0 -15 17 -17 83 l-2 82 -6 -85 -6 -85 -4 85 -4 85 -5 -80 c-6 -79 -6 -80 -33 -81 l-28 -1 -2 81 -2 81 -3 -75 c-4 -72 -12 -89 -40 -90 -10 0 -13 25 -13 90 0 75 2 88 15 84 11 -5 16 -25 17 -83z m183 -71 c8 0 15 -4 15 -8 0 -4 -9 -8 -20 -8 -18 0 -20 6 -18 71 l2 70 3 -62 c3 -47 8 -63 18 -63z"/>
<path d="M10903 3870 c0 -41 2 -58 4 -37 2 20 2 54 0 75 -2 20 -4 3 -4 -38z"/>
<path d="M10960 3870 c0 -63 2 -70 20 -70 18 0 20 6 19 73 -1 54 -3 65 -9 42 l-8 -30 -1 28 c0 15 -5 27 -11 27 -6 0 -10 -30 -10 -70z"/>
<path d="M11053 3865 c0 -44 2 -61 4 -37 2 23 2 59 0 80 -2 20 -4 1 -4 -43z"/>
<path d="M11143 3870 c0 -41 2 -58 4 -37 2 20 2 54 0 75 -2 20 -4 3 -4 -38z"/>
<path d="M11163 3865 c0 -44 2 -61 4 -37 2 23 2 59 0 80 -2 20 -4 1 -4 -43z"/>
<path d="M11370 3880 l0 -130 240 0 240 0 0 65 0 65 80 0 80 0 0 -65 0 -65 135 0 135 0 0 130 0 130 -455 0 -455 0 0 -130z m220 -5 l0 -105 -90 0 -90 0 0 105 0 105 90 0 90 0 0 -105z m230 0 l0 -105 -80 0 -80 0 1 38 2 37 7 -35 7 -35 3 35 3 35 7 -35 7 -35 3 35 3 35 7 -35 c5 -25 8 -7 9 63 1 80 -2 97 -14 97 -8 0 -16 -8 -16 -17 -1 -17 -2 -17 -6 0 -2 9 -13 17 -23 17 -17 0 -20 -10 -23 -102 l-3 -103 -2 108 -2 107 95 0 95 0 0 -105z m418 -2 l3 -103 -96 0 -95 0 0 105 0 106 93 -3 92 -3 3 -102z m-306 29 l67 -3 4 38 4 38 1 -42 2 -43 -80 0 -80 0 1 43 2 42 6 -35 6 -35 67 -3z m-225 36 c-3 -8 -6 -5 -6 6 -1 11 2 17 5 13 3 -3 4 -12 1 -19z m-40 -30 c-3 -8 -6 -5 -6 6 -1 11 2 17 5 13 3 -3 4 -12 1 -19z m20 -15 c-3 -10 -5 -4 -5 12 0 17 2 24 5 18 2 -7 2 -21 0 -30z m20 -25 c-2 -13 -4 -5 -4 17 -1 22 1 32 4 23 2 -10 2 -28 0 -40z m-40 -10 c-3 -7 -5 -2 -5 12 0 14 2 19 5 13 2 -7 2 -19 0 -25z"/>
<path d="M11421 3873 c1 -65 4 -89 9 -73 8 24 8 24 9 3 1 -13 7 -22 14 -20 8 1 14 29 18 77 l5 75 4 -80 3 -80 7 60 7 60 2 -60 c2 -47 5 -54 11 -35 7 23 8 23 9 3 1 -15 7 -21 21 -20 15 1 20 9 21 32 l2 30 7 -35 c5 -25 8 -7 9 63 1 78 -2 97 -13 97 -8 0 -17 -12 -19 -27 l-4 -28 -2 28 c-1 25 -5 28 -28 25 -16 -2 -31 -10 -35 -18 -5 -12 -7 -12 -7 3 -1 11 -9 17 -26 17 l-25 0 1 -97z m16 35 c-3 -8 -6 -5 -6 6 -1 11 2 17 5 13 3 -3 4 -12 1 -19z m110 -60 c-2 -13 -4 -3 -4 22 0 25 2 35 4 23 2 -13 2 -33 0 -45z m-90 -5 c-3 -10 -5 -2 -5 17 0 19 2 27 5 18 2 -10 2 -26 0 -35z"/>
<path d="M11732 3875 c0 -64 2 -93 8 -80 7 17 9 17 9 3 1 -13 9 -18 31 -18 l30 0 0 95 0 95 -30 -2 c-27 -2 -30 -6 -31 -38 l-2 -35 -7 40 c-5 29 -7 13 -8 -60z m48 -15 c0 -5 -2 -10 -4 -10 -3 0 -8 5 -11 10 -3 6 -1 10 4 10 6 0 11 -4 11 -10z m0 -60 c0 -5 -2 -10 -4 -10 -3 0 -8 5 -11 10 -3 6 -1 10 4 10 6 0 11 -4 11 -10z"/>
<path d="M12061 3873 c1 -70 4 -88 9 -63 l7 35 3 -35 c3 -27 5 -21 10 25 l7 60 1 -57 c2 -51 5 -58 22 -58 18 0 20 7 22 78 l2 77 6 -80 c3 -44 7 -71 9 -60 l2 20 9 -20 c6 -13 9 15 9 80 0 65 -3 93 -9 80 l-9 -20 -1 20 -1 20 -9 -20 c-8 -18 -9 -18 -9 -2 -2 33 -36 15 -42 -23 l-6 -35 -2 38 c-1 26 -6 37 -16 37 -12 0 -15 -17 -14 -97z m16 25 c-2 -13 -4 -3 -4 22 0 25 2 35 4 23 2 -13 2 -33 0 -45z m90 10 c-3 -8 -6 -5 -6 6 -1 11 2 17 5 13 3 -3 4 -12 1 -19z m0 -50 c-3 -7 -5 -2 -5 12 0 14 2 19 5 13 2 -7 2 -19 0 -25z m-37 8 c0 -3 -4 -8 -10 -11 -5 -3 -10 -1 -10 4 0 6 5 11 10 11 6 0 10 -2 10 -4z m-8 -51 c-2 -14 -6 -25 -8 -25 -2 0 -4 11 -4 25 0 14 4 25 9 25 4 0 6 -11 3 -25z"/>
<path d="M12190 3875 c0 -78 3 -95 15 -95 12 0 15 17 15 95 0 78 -3 95 -15 95 -12 0 -15 -17 -15 -95z"/>
<path d="M12292 3813 l3 -198 33 -3 32 -3 0 200 0 201 -35 0 -35 0 2 -197z"/>
<path d="M9513 3695 c1 -173 6 -276 12 -277 6 -2 11 76 13 215 l2 217 195 0 195 0 0 -221 c0 -144 3 -218 10 -214 6 4 11 100 12 248 l2 242 6 -243 c3 -133 8 -242 13 -242 4 0 30 0 57 0 l50 0 0 235 0 235 -55 0 c-32 0 -55 4 -55 10 0 11 181 12 313 2 l57 -4 2 -241 3 -242 2 240 c3 234 9 273 35 247 9 -9 8 -12 -5 -12 -16 0 -17 -20 -17 -235 l0 -235 55 0 55 0 0 235 c0 217 -1 235 -17 235 -17 1 -17 1 -1 11 10 5 74 8 150 7 l133 -3 5 -243 c7 -340 24 -325 28 26 l2 272 -205 0 c-176 0 -205 -2 -205 -15 0 -8 -4 -15 -10 -15 -5 0 -10 7 -10 15 0 13 -28 15 -189 15 -172 0 -190 -2 -194 -17 -4 -14 -5 -12 -6 5 l-1 22 -219 0 -220 0 2 -275z"/>
<path d="M12383 3923 c-10 -3 -13 -44 -13 -153 0 -131 2 -150 18 -159 16 -10 16 -10 0 -11 -16 0 -18 -12 -18 -115 l0 -115 328 -2 327 -3 3 -127 3 -128 169 0 170 0 0 243 0 242 -170 59 c-191 67 -173 50 -205 194 l-17 72 -278 0 c-153 0 -284 2 -292 4 -7 3 -19 2 -25 -1z m185 -81 c-5 -2 -8 -41 -8 -86 0 -50 -5 -87 -12 -94 -13 -13 -85 -16 -112 -6 -9 3 -16 13 -16 21 0 12 2 12 16 -1 8 -9 30 -16 49 -16 63 0 65 3 65 104 0 58 -4 96 -12 104 -13 13 -84 16 -92 4 -2 -4 11 -6 30 -4 55 7 64 -9 64 -104 l0 -84 -50 0 -50 0 -1 88 c-1 64 -4 78 -9 52 l-7 -35 -2 34 c-1 43 23 71 61 71 15 0 28 4 28 9 0 5 15 -5 33 -22 17 -18 29 -33 25 -35z m306 37 c-39 -15 -54 -46 -54 -114 l0 -65 -55 0 -55 0 0 65 0 65 53 2 c47 1 44 2 -23 8 l-75 6 81 2 c71 2 83 5 104 27 12 13 28 22 33 18 6 -4 2 -9 -9 -14z m84 -107 l3 -113 -148 3 -147 3 -7 -25 -7 -25 -1 28 c-1 15 -5 27 -11 27 -5 0 -11 -12 -11 -27 l-2 -28 -4 27 c-3 18 -12 28 -26 31 -12 2 35 5 106 6 l127 1 2 43 1 42 6 -45 6 -45 53 -3 53 -3 -3 103 c-3 99 -4 102 -28 110 -23 6 -23 7 5 5 l30 -2 3 -113z m-20 1 l3 -93 -46 0 -45 0 0 83 c0 93 9 109 55 105 l30 -3 3 -92z m-247 53 c2 -2 2 -34 1 -71 l-4 -66 -56 3 -57 3 -3 68 -3 67 59 0 c32 0 61 -2 63 -4z m-264 -108 c-2 -13 -4 -5 -4 17 -1 22 1 32 4 23 2 -10 2 -28 0 -40z"/>
<path d="M10092 3653 l3 -238 55 0 55 0 3 238 2 237 -60 0 -60 0 2 -237z"/>
<path d="M10220 3655 l0 -235 55 0 55 0 0 235 0 235 -55 0 -55 0 0 -235z"/>
<path d="M10480 3656 l0 -234 56 -4 c31 -1 58 -1 60 1 2 2 4 109 4 238 l0 233 -60 0 -60 0 0 -234z"/>
<path d="M10610 3655 l0 -235 23 -1 c12 -1 38 -2 57 -3 l35 -1 3 238 2 237 -60 0 -60 0 0 -235z"/>
<path d="M11860 3740 l0 -130 70 0 70 0 0 130 0 130 -70 0 -70 0 0 -130z"/>
<path d="M9550 3631 c0 -138 4 -212 11 -216 6 -4 30 -4 54 -1 l44 7 3 82 c2 45 2 139 0 210 l-3 127 -55 0 -54 0 0 -209z"/>
<path d="M9679 3798 c-2 -73 -2 -139 0 -263 l1 -120 53 1 52 2 3 211 2 211 -55 0 -55 0 -1 -42z"/>
<path d="M9800 3630 c0 -115 3 -210 8 -211 4 0 21 -2 37 -5 17 -2 40 -2 53 1 22 5 22 6 22 215 l0 210 -60 0 -60 0 0 -210z"/>
<path d="M7627 3760 c3 -11 0 -20 -6 -20 -7 0 -10 -20 -9 -52 l1 -53 7 50 c4 28 8 -91 8 -262 l2 -313 30 0 30 0 -1 -167 c-1 -93 -4 -156 -6 -140 -4 27 -5 27 -84 27 l-79 0 0 -35 c0 -35 0 -35 48 -36 140 -4 127 1 130 -46 3 -37 6 -43 26 -43 25 0 24 -3 61 265 8 55 13 76 11 47 l-3 -52 779 1 779 1 33 -26 34 -25 6 22 c3 12 6 50 6 85 l0 62 -420 0 -420 0 0 -31 c0 -24 -3 -30 -16 -25 -9 3 -33 6 -55 6 -32 0 -39 3 -39 20 0 17 7 20 50 20 49 0 50 1 50 30 0 30 -1 30 -55 30 -52 0 -55 -1 -55 -25 0 -23 -4 -25 -47 -25 -27 0 -189 -1 -361 -1 -172 -1 -316 1 -319 5 -3 3 -1 6 5 6 7 0 12 9 12 20 0 13 -7 20 -20 20 -19 0 -20 -7 -20 -144 0 -129 2 -145 18 -149 13 -4 11 -5 -6 -6 l-22 -1 2 303 3 302 44 3 43 3 -4 167 c-3 92 -8 175 -13 185 -6 14 -20 17 -85 17 -73 0 -78 -1 -73 -20z"/>
<path d="M7794 3763 c14 -35 26 -172 24 -259 l-3 -89 38 -3 37 -3 0 56 0 56 58 -3 57 -3 6 -55 c4 -34 6 -43 7 -22 2 31 3 32 47 32 41 0 45 -2 45 -24 0 -14 5 -28 10 -31 6 -4 10 14 10 48 0 29 2 56 5 58 2 3 20 3 40 1 l35 -4 0 -56 c0 -72 17 -58 23 18 l3 55 2 -62 c1 -35 6 -63 11 -63 31 0 41 14 41 57 0 27 -4 42 -10 38 -5 -3 -10 -1 -10 4 0 6 9 11 19 11 11 0 26 3 35 6 12 5 16 -5 18 -50 3 -59 21 -81 26 -33 3 24 7 27 43 27 37 0 39 -2 39 -30 0 -16 5 -30 10 -30 6 0 10 25 10 55 l0 55 40 0 40 0 0 -57 c0 -59 15 -64 23 -8 4 27 4 26 6 -8 1 -34 4 -38 24 -35 20 3 22 8 23 71 1 63 0 67 -22 67 -16 0 -24 -7 -27 -22 l-4 -23 -2 22 -1 23 -372 3 -373 2 398 3 397 2 0 105 0 105 33 0 c17 0 55 -7 82 -15 34 -10 39 -13 15 -10 -19 3 -54 8 -77 12 l-43 6 0 -102 0 -102 98 1 c53 1 127 1 164 1 l67 -1 3 -72 c3 -65 5 -73 23 -73 19 0 20 8 23 127 l3 127 -93 0 c-102 -1 -114 -7 -121 -60 -4 -33 -4 -33 -5 7 -1 22 -7 45 -14 52 -9 9 -8 12 4 12 9 0 19 6 21 13 4 10 6 10 6 0 1 -7 6 -13 12 -13 7 0 10 17 7 45 l-3 45 236 0 236 0 -11 -50 -10 -50 -128 0 -128 0 0 -125 0 -125 138 -1 c75 -1 179 -3 230 -5 l92 -4 2 117 2 118 6 -115 c5 -102 6 -94 6 70 0 120 -2 160 -6 115 l-6 -70 -2 68 -2 67 -846 0 c-798 0 -846 -1 -840 -17z m384 -85 l3 -86 -103 -4 c-57 -1 -136 -2 -175 0 l-73 4 0 89 0 89 173 -2 172 -3 3 -87z m407 -3 c0 -79 -2 -90 -17 -89 -10 0 -96 1 -192 2 l-174 2 -1 90 -2 90 193 -2 193 -3 0 -90z m482 -21 c-3 -3 -12 -4 -19 -1 -8 3 -5 6 6 6 11 1 17 -2 13 -5z m219 -77 l0 -77 -3 75 -4 74 -87 4 -87 3 90 0 90 -1 1 -78z m-236 -23 c0 -24 -4 -44 -9 -44 -6 0 -9 22 -9 50 2 61 18 56 18 -6z m-773 -111 c-3 -10 -5 -2 -5 17 0 19 2 27 5 18 2 -10 2 -26 0 -35z"/>
<path d="M7860 3685 l-4 -80 -6 75 -6 75 -2 -77 -2 -78 75 0 75 0 0 80 c0 59 -3 79 -12 78 -9 -2 -15 -30 -19 -78 l-5 -75 -4 80 c-3 73 -4 76 -10 35 l-7 -45 -1 42 c-2 33 -5 41 -17 37 -11 -5 -15 -25 -17 -78 l-2 -71 -6 80 -6 80 -4 -80 -4 -80 -6 80 -6 80 -4 -80z m57 -42 c-2 -21 -4 -6 -4 32 0 39 2 55 4 38 2 -18 2 -50 0 -70z m60 0 c-2 -21 -4 -6 -4 32 0 39 2 55 4 38 2 -18 2 -50 0 -70z m-40 -25 c-3 -8 -6 -5 -6 6 -1 11 2 17 5 13 3 -3 4 -12 1 -19z"/>
<path d="M8000 3678 c0 -63 3 -78 15 -78 12 0 15 15 15 78 0 63 -3 79 -15 79 -12 0 -15 -16 -15 -79z m17 -55 c-3 -10 -5 -2 -5 17 0 19 2 27 5 18 2 -10 2 -26 0 -35z"/>
<path d="M8042 3683 l-2 -83 65 0 65 0 -2 78 -2 77 -6 -75 -6 -75 -2 73 c-2 56 -5 72 -17 72 -12 0 -15 -16 -17 -72 l-2 -73 -6 75 -6 75 -4 -75 -4 -75 -6 80 -6 80 -4 -80 -4 -80 -6 80 -6 80 -4 -80 -4 -80 -6 80 -6 80 -2 -82z m95 -45 c-2 -13 -4 -5 -4 17 -1 22 1 32 4 23 2 -10 2 -28 0 -40z"/>
<path d="M8220 3682 l-5 -82 183 0 183 0 -3 75 c-2 41 -6 75 -10 75 -5 0 -9 -33 -10 -72 l-2 -73 -6 75 -6 75 -5 -75 -5 -75 -4 75 -4 75 -6 -75 -6 -75 -4 75 -4 75 -6 -75 -6 -75 -4 75 -4 75 -6 -75 -6 -75 -2 71 c-2 53 -6 73 -17 78 -12 4 -15 -8 -17 -72 l-2 -77 -6 75 -6 75 -4 -75 -4 -75 -6 80 -6 80 -4 -80 -4 -80 -6 75 c-4 54 -7 66 -11 45 l-6 -30 -2 30 c-1 27 -4 30 -36 30 -19 0 -35 -4 -35 -10 0 -5 -5 -3 -10 5 -9 13 -10 13 -10 0 0 -13 -1 -13 -10 0 -8 12 -10 10 -11 -10 l-1 -25 -8 25 c-6 19 -9 7 -11 -45 l-3 -70 -6 70 -6 70 -4 -83z m237 -39 c-2 -21 -4 -6 -4 32 0 39 2 55 4 38 2 -18 2 -50 0 -70z m-150 -5 c-2 -18 -4 -4 -4 32 0 36 2 50 4 33 2 -18 2 -48 0 -65z m20 -5 c-2 -16 -4 -5 -4 22 0 28 2 40 4 28 2 -13 2 -35 0 -50z m-40 -5 c-2 -13 -4 -3 -4 22 0 25 2 35 4 23 2 -13 2 -33 0 -45z"/>
<path d="M8840 3720 l0 -40 214 0 214 0 4 40 4 40 -218 0 -218 0 0 -40z"/>
<path d="M7041 3734 c0 -11 3 -14 6 -6 3 7 2 16 -1 19 -3 4 -6 -2 -5 -13z"/>
<path d="M11370 3675 l0 -65 240 0 240 0 0 65 0 65 -240 0 -240 0 0 -65z"/>
<path d="M12014 3726 c-3 -7 -4 -35 -2 -62 l3 -49 133 -3 132 -3 0 66 0 65 -130 0 c-102 0 -132 -3 -136 -14z"/>
<path d="M7042 3685 c0 -16 2 -22 5 -12 2 9 2 23 0 30 -3 6 -5 -1 -5 -18z"/>
<path d="M10810 3565 l0 -145 55 0 55 0 0 145 0 145 -55 0 -55 0 0 -145z"/>
<path d="M10940 3566 c0 -158 -3 -151 68 -155 l42 -3 0 151 0 151 -55 0 -55 0 0 -144z"/>
<path d="M11062 3563 l3 -148 60 0 60 0 3 148 3 147 -66 0 -66 0 3 -147z"/>
<path d="M11201 3430 c0 -155 -3 -285 -6 -290 -3 -6 -20 -9 -37 -7 -17 1 -33 -3 -35 -10 -4 -10 18 -12 88 -9 l93 3 -3 97 c-2 67 1 96 9 96 8 0 11 40 9 140 -1 77 0 142 2 144 2 2 2 29 1 60 l-4 56 -59 0 -59 0 1 -280z m69 240 c0 -5 -5 -10 -11 -10 -5 0 -7 5 -4 10 3 6 8 10 11 10 2 0 4 -4 4 -10z m-5 -180 c-26 -39 -50 -69 -52 -66 -3 2 16 37 42 76 25 40 48 70 51 67 3 -3 -16 -37 -41 -77z"/>
<path d="M13486 3681 c-16 -17 -45 -42 -65 -55 l-36 -25 3 -246 c2 -226 4 -246 20 -243 24 4 50 128 51 241 1 58 5 87 12 87 15 0 6 -138 -16 -240 -10 -46 -15 -127 -15 -225 0 -85 -3 -156 -7 -158 -5 -3 -6 49 -5 115 2 66 1 131 -2 144 l-6 24 -375 0 c-368 0 -375 0 -375 -20 0 -20 7 -20 368 -21 202 -1 355 -4 340 -6 -24 -4 -28 -9 -28 -37 0 -18 4 -57 9 -87 5 -30 15 -100 21 -156 12 -97 14 -103 35 -103 21 0 23 6 31 78 5 49 10 65 12 45 l3 -33 80 0 79 0 0 35 0 35 -85 0 -85 0 1 68 c0 37 3 61 6 55 3 -9 30 -13 84 -13 l79 0 0 36 0 35 -85 -3 c-63 -2 -85 0 -85 10 0 9 24 12 85 12 l85 0 0 35 0 35 -79 0 c-54 0 -81 -4 -84 -12 -3 -8 -6 -6 -6 5 -1 13 7 17 39 17 l40 0 -1 278 c-1 152 -4 287 -8 300 l-6 23 -29 -30z m16 -129 c2 -28 0 -52 -4 -52 -5 0 -7 33 -7 73 2 76 6 68 11 -21z"/>
<path d="M7044 3415 c0 -132 2 -185 3 -117 2 68 2 176 0 240 -1 64 -3 9 -3 -123z"/>
<path d="M11371 3410 c-3 -107 -6 -176 -8 -152 -3 34 -8 42 -24 42 -17 0 -19 -8 -19 -95 0 -88 1 -95 20 -95 15 0 20 7 20 25 0 14 5 25 10 25 6 0 10 -11 10 -25 l0 -25 100 0 100 0 1 33 1 32 7 -30 6 -30 177 -3 177 -2 4 27 4 28 2 -27 1 -28 170 0 170 0 0 95 0 95 -165 0 -165 0 0 -35 c0 -24 -5 -35 -15 -35 -10 0 -15 11 -15 35 l0 35 -169 0 -170 0 -4 -37 c-2 -21 -5 48 -7 152 l-4 190 -6 -190 c-3 -104 -7 -173 -8 -152 l-2 37 -85 0 -85 0 0 -35 c0 -19 -4 -35 -10 -35 -6 0 -11 74 -13 188 l-2 187 -4 -195z m432 -157 c-18 -2 -48 -2 -65 0 -18 2 -4 4 32 4 36 0 50 -2 33 -4z m360 0 c-18 -2 -48 -2 -65 0 -18 2 -4 4 32 4 36 0 50 -2 33 -4z m-355 -20 c-15 -2 -42 -2 -60 0 -18 2 -6 4 27 4 33 0 48 -2 33 -4z m360 0 c-15 -2 -42 -2 -60 0 -18 2 -6 4 27 4 33 0 48 -2 33 -4z m-348 -23 c0 -5 -22 -10 -50 -10 -27 0 -50 5 -50 10 0 6 23 10 50 10 28 0 50 -4 50 -10z m370 0 c0 -6 -27 -9 -62 -9 -50 1 -57 3 -33 9 45 11 95 11 95 0z m-387 -27 c-18 -2 -48 -2 -65 0 -18 2 -4 4 32 4 36 0 50 -2 33 -4z m360 0 c-18 -2 -48 -2 -65 0 -18 2 -4 4 32 4 36 0 50 -2 33 -4z"/>
<path d="M11400 3455 l0 -145 85 0 85 0 0 145 0 145 -85 0 -85 0 0 -145z"/>
<path d="M11600 3455 l0 -145 125 0 125 0 0 145 0 145 -125 0 -125 0 0 -145z"/>
<path d="M11860 3455 l0 -145 40 0 40 0 0 145 0 145 -40 0 -40 0 0 -145z"/>
<path d="M11954 3425 c0 -99 2 -138 3 -87 2 51 2 132 0 180 -1 48 -3 6 -3 -93z"/>
<path d="M11972 3458 c2 -102 6 -143 16 -146 9 -3 12 30 12 142 0 124 -2 146 -15 146 -13 0 -15 -20 -13 -142z"/>
<path d="M12020 3455 l0 -145 130 0 130 0 0 145 0 145 -130 0 -130 0 0 -145z"/>
<path d="M12300 3465 c0 -74 -1 -138 -2 -142 -2 -5 12 -9 30 -11 l32 -3 0 145 0 146 -30 0 -30 0 0 -135z"/>
<path d="M11338 3567 c-7 -38 4 -257 13 -257 5 0 9 63 9 140 0 77 -4 140 -9 140 -5 0 -11 -10 -13 -23z"/>
<path d="M8640 3485 c0 -37 4 -65 10 -65 6 0 10 25 10 55 0 52 1 55 25 55 14 0 25 -4 25 -10 0 -5 -6 -9 -12 -7 -9 1 -13 -13 -13 -45 0 -57 17 -64 26 -11 l6 38 2 -40 c1 -34 5 -41 21 -41 14 0 20 7 20 23 0 25 -15 31 -23 11 -3 -8 -6 -6 -6 5 -1 12 7 17 28 17 25 0 30 -5 33 -27 2 -14 9 -28 16 -31 9 -3 12 15 12 67 l0 71 -90 0 -90 0 0 -65z"/>
<path d="M8830 3479 c0 -44 4 -68 10 -64 6 3 11 23 12 43 1 37 1 37 8 -8 l7 -45 1 53 c1 33 -2 51 -8 47 -5 -3 -10 -1 -10 4 0 6 16 11 34 11 l35 0 3 -52 c4 -76 22 -65 26 15 l3 67 -61 0 -60 0 0 -71z"/>
<path d="M7903 3460 c0 -30 2 -43 4 -27 2 15 2 39 0 55 -2 15 -4 2 -4 -28z"/>
<path d="M7922 3463 c4 -66 28 -70 28 -4 0 39 -4 51 -16 51 -12 0 -14 -10 -12 -47z"/>
<path d="M7962 3458 l1 -53 7 50 6 50 5 -50 5 -50 2 53 c2 40 -1 52 -13 52 -12 0 -15 -12 -13 -52z"/>
<path d="M8140 3465 c0 -25 5 -45 10 -45 6 0 10 20 10 45 0 25 -4 45 -10 45 -5 0 -10 -20 -10 -45z"/>
<path d="M8172 3458 l1 -53 7 50 6 50 5 -45 6 -45 1 48 c2 36 -2 47 -13 47 -12 0 -15 -12 -13 -52z"/>
<path d="M8303 3465 c0 -27 2 -38 4 -22 2 15 2 37 0 50 -2 12 -4 0 -4 -28z"/>
<path d="M8323 3460 c0 -30 2 -43 4 -27 2 15 2 39 0 55 -2 15 -4 2 -4 -28z"/>
<path d="M8482 3458 l1 -53 7 50 7 50 1 -41 c2 -33 6 -43 22 -47 18 -5 20 0 20 44 0 48 -1 49 -30 49 -30 0 -30 0 -28 -52z"/>
<path d="M8883 3460 c0 -30 2 -43 4 -27 2 15 2 39 0 55 -2 15 -4 2 -4 -28z"/>
<path d="M8903 3460 c0 -30 2 -43 4 -27 2 15 2 39 0 55 -2 15 -4 2 -4 -28z"/>
<path d="M8042 3435 c0 -16 2 -22 5 -12 2 9 2 23 0 30 -3 6 -5 -1 -5 -18z"/>
<path d="M8060 3437 c0 -16 6 -23 20 -23 14 0 20 7 20 23 0 16 -6 23 -20 23 -14 0 -20 -7 -20 -23z"/>
<path d="M8380 3434 c0 -17 4 -21 20 -17 11 3 20 13 20 22 0 10 -8 17 -20 17 -14 0 -20 -7 -20 -22z"/>
<path d="M8432 3435 c0 -16 2 -22 5 -12 2 9 2 23 0 30 -3 6 -5 -1 -5 -18z"/>
<path d="M8772 3435 c0 -16 2 -22 5 -12 2 9 2 23 0 30 -3 6 -5 -1 -5 -18z"/>
<path d="M7427 3414 c-4 -4 -7 -74 -7 -156 0 -125 2 -148 15 -148 13 0 15 23 15 146 0 140 1 145 20 142 19 -3 20 -12 23 -148 l2 -145 -57 -3 c-50 -3 -58 -6 -58 -22 0 -17 8 -20 58 -21 46 -1 50 -3 24 -8 l-34 -6 31 -29 c28 -27 31 -36 31 -88 l0 -58 -35 0 c-19 0 -35 5 -35 10 0 7 -22 10 -57 8 l-58 -3 0 -60 0 -60 53 -3 c40 -2 54 1 58 12 6 17 44 23 44 7 0 -24 -63 -142 -80 -151 -24 -13 -17 -32 8 -23 19 8 42 28 42 38 0 3 12 32 28 63 l27 57 3 -86 c3 -83 4 -87 27 -91 30 -6 35 -2 35 34 0 21 -5 28 -20 28 -20 0 -20 7 -20 380 0 355 -1 380 -17 380 -10 0 -27 3 -38 6 -11 3 -24 2 -28 -2z"/>
<path d="M13637 3414 c-4 -4 -7 -85 -7 -181 l0 -173 70 0 c63 0 70 2 70 20 0 18 -7 20 -60 20 l-60 0 0 150 c0 143 1 150 20 150 18 0 20 -8 22 -142 3 -119 5 -143 18 -143 13 0 15 23 15 150 l0 150 -40 3 c-23 2 -44 0 -48 -4z"/>
<path d="M7720 3255 c0 -138 1 -145 20 -145 19 0 20 7 20 145 0 138 -1 145 -20 145 -19 0 -20 -7 -20 -145z"/>
<path d="M7770 3230 c0 -107 4 -170 10 -170 6 0 10 63 10 170 0 107 -4 170 -10 170 -6 0 -10 -63 -10 -170z"/>
<path d="M7810 3255 l0 -145 35 0 35 0 0 145 0 145 -35 0 -35 0 0 -145z"/>
<path d="M7904 3230 c0 -96 2 -136 3 -87 2 48 2 126 0 175 -1 48 -3 8 -3 -88z"/>
<path d="M7930 3274 l0 -125 33 3 c23 2 32 8 31 21 0 9 -2 65 -4 125 l-4 107 -6 -105 -6 -105 -2 103 c-2 95 -3 102 -22 102 -19 0 -20 -7 -20 -126z m25 -64 c3 -5 1 -10 -4 -10 -6 0 -11 5 -11 10 0 6 2 10 4 10 3 0 8 -4 11 -10z"/>
<path d="M8003 3270 l6 -130 -46 0 c-31 0 -43 -4 -41 -12 4 -10 54 -14 196 -16 166 -2 192 0 192 13 0 8 -9 15 -20 15 -11 0 -20 4 -20 9 0 5 9 7 20 4 19 -5 20 -1 18 123 l-2 129 -6 -110 -6 -110 -4 110 -4 110 -6 -90 -6 -90 -2 88 c-2 69 -5 87 -17 87 -12 0 -15 -24 -18 -132 l-3 -133 -2 133 c-2 162 -21 181 -24 25 l-2 -108 -6 110 -6 110 -4 -105 -4 -105 -6 105 -6 105 -5 -105 -5 -105 -2 103 c-1 56 -5 102 -10 102 -4 0 -7 -56 -7 -125 l0 -124 35 -4 c33 -3 32 -4 -7 -5 l-43 -2 0 130 c0 80 -4 130 -10 130 -6 0 -10 -38 -10 -95 l0 -95 -40 0 -40 0 0 95 c0 82 -2 95 -17 95 -14 0 -15 -13 -10 -130z m274 -82 c-3 -7 -5 -2 -5 12 0 14 2 19 5 13 2 -7 2 -19 0 -25z"/>
<path d="M8040 3310 c0 -65 3 -90 10 -80 6 10 10 11 10 3 0 -7 9 -13 20 -13 19 0 20 6 18 93 l-2 92 -6 -90 -6 -90 -2 88 c-1 50 -6 87 -12 87 -5 0 -10 -6 -10 -12 0 -9 -4 -8 -10 2 -7 10 -10 -15 -10 -80z m17 8 c-3 -7 -5 -2 -5 12 0 14 2 19 5 13 2 -7 2 -19 0 -25z"/>
<path d="M8324 3255 c0 -82 2 -115 3 -72 2 43 2 110 0 150 -1 40 -3 5 -3 -78z"/>
<path d="M8340 3260 c0 -126 2 -140 18 -141 9 -1 74 -2 145 -3 l127 -2 0 143 0 143 -24 0 c-32 0 -35 -12 -33 -148 l2 -113 -50 3 -50 3 -3 128 c-1 70 -7 127 -12 127 -5 0 -11 -42 -12 -92 l-3 -93 -37 -3 c-36 -3 -37 -3 -44 43 -3 25 -4 68 -2 96 4 37 2 49 -8 49 -11 0 -14 -29 -14 -140z"/>
<path d="M8380 3310 c0 -53 4 -90 10 -90 6 0 10 37 10 90 0 53 -4 90 -10 90 -6 0 -10 -37 -10 -90z"/>
<path d="M8414 3310 c0 -52 1 -74 3 -47 2 26 2 68 0 95 -2 26 -3 4 -3 -48z"/>
<path d="M8434 3310 c0 -52 1 -74 3 -47 2 26 2 68 0 95 -2 26 -3 4 -3 -48z"/>
<path d="M8480 3275 l0 -125 40 0 40 0 -2 128 -2 127 -6 -105 -6 -105 -2 103 -2 102 -30 0 -30 0 0 -125z m50 -5 c0 -66 -1 -70 -22 -69 -17 1 -19 2 -5 6 14 4 17 16 17 69 0 35 2 64 5 64 3 0 5 -31 5 -70z"/>
<path d="M8644 3230 c0 -96 2 -136 3 -87 2 48 2 126 0 175 -1 48 -3 8 -3 -88z"/>
<path d="M8664 3305 c0 -55 1 -76 3 -47 2 29 2 74 0 100 -2 26 -3 2 -3 -53z"/>
<path d="M8683 3288 c4 -62 8 -122 9 -133 2 -11 -3 -20 -9 -20 -7 0 -13 -4 -13 -10 0 -6 63 -10 168 -10 l167 0 3 143 3 142 -26 0 -25 0 0 -130 0 -130 -70 0 -70 0 0 130 0 130 -25 0 -25 0 2 -92 2 -93 3 75 c2 41 8 79 14 85 7 7 9 -19 7 -75 l-3 -85 -42 -3 -43 -3 0 95 c0 82 -2 96 -16 96 -15 0 -16 -12 -11 -112z"/>
<path d="M8720 3310 c0 -53 4 -90 10 -90 6 0 11 12 11 28 l1 27 8 -30 c5 -21 8 -2 9 63 1 86 0 92 -19 92 -19 0 -20 -7 -20 -90z"/>
<path d="M8830 3275 l0 -125 60 0 60 0 0 125 c0 104 -2 125 -15 125 -12 0 -15 -19 -17 -107 l-2 -108 -6 110 -6 110 -4 -105 -4 -105 -6 105 -6 105 -4 -105 -4 -105 -5 105 c-4 58 -9 94 -12 80 -6 -24 -6 -24 -8 -2 0 12 -5 22 -11 22 -6 0 -10 -48 -10 -125z m27 -57 c-2 -13 -4 -3 -4 22 0 25 2 35 4 23 2 -13 2 -33 0 -45z"/>
<path d="M9022 3258 l3 -143 48 -3 47 -3 0 145 0 146 -50 0 -51 0 3 -142z"/>
<path d="M9134 3230 c0 -96 2 -136 3 -87 2 48 2 126 0 175 -1 48 -3 8 -3 -88z"/>
<path d="M9152 3258 l3 -143 128 -3 127 -3 0 146 0 145 -130 0 -131 0 3 -142z"/>
<path d="M9424 3230 c0 -96 2 -136 3 -87 2 48 2 126 0 175 -1 48 -3 8 -3 -88z"/>
<path d="M9442 3258 c3 -127 5 -143 21 -146 16 -3 17 9 17 142 0 140 -1 146 -20 146 -20 0 -20 -5 -18 -142z"/>
<path d="M9494 3255 c0 -82 2 -115 3 -72 2 43 2 110 0 150 -1 40 -3 5 -3 -78z"/>
<path d="M9510 3255 l0 -145 145 0 c122 0 145 2 145 15 0 13 -21 15 -130 15 l-130 0 0 130 c0 109 -2 130 -15 130 -13 0 -15 -23 -15 -145z"/>
<path d="M9550 3275 l0 -125 54 0 c34 0 57 5 60 13 5 10 7 10 12 0 4 -8 27 -13 65 -13 l59 0 0 73 c0 39 -3 96 -6 125 l-7 52 -118 0 -119 0 0 -125z m130 -11 c0 -46 -4 -84 -8 -84 -5 0 -9 40 -9 90 0 49 4 87 8 84 5 -3 9 -43 9 -90z"/>
<path d="M9814 3230 c0 -96 2 -136 3 -87 2 48 2 126 0 175 -1 48 -3 8 -3 -88z"/>
<path d="M9837 3328 c1 -40 2 -97 2 -125 l1 -53 40 0 40 0 0 125 0 125 -42 0 -43 0 2 -72z"/>
<path d="M9930 3271 l0 -130 -47 -3 c-27 -2 -48 -7 -48 -13 0 -6 74 -11 198 -13 174 -2 197 -1 197 13 0 14 -18 16 -140 13 l-140 -3 0 133 c0 81 -4 132 -10 132 -6 0 -10 -50 -10 -129z"/>
<path d="M9960 3275 l0 -125 60 0 60 0 0 125 0 125 -60 0 -60 0 0 -125z"/>
<path d="M10090 3275 l0 -125 60 0 60 0 0 125 0 125 -60 0 -60 0 0 -125z"/>
<path d="M10224 3275 c0 -71 1 -99 3 -62 2 37 2 96 0 130 -2 34 -3 4 -3 -68z"/>
<path d="M10244 3230 c0 -96 2 -136 3 -87 2 48 2 126 0 175 -1 48 -3 8 -3 -88z"/>
<path d="M10260 3275 l0 -125 35 0 36 0 -2 125 -1 125 -34 0 -34 0 0 -125z"/>
<path d="M10340 3275 l-5 -130 -33 -5 c-18 -3 -34 -9 -35 -15 -1 -6 71 -11 196 -13 171 -2 197 0 197 13 0 13 -23 15 -155 15 l-154 0 -3 133 -3 132 -5 -130z"/>
<path d="M10360 3275 l0 -125 55 0 55 0 0 125 0 125 -55 0 -55 0 0 -125z"/>
<path d="M10480 3275 l0 -125 60 0 60 0 0 125 0 125 -60 0 -60 0 0 -125z"/>
<path d="M10610 3275 l0 -125 25 0 25 0 0 125 0 125 -25 0 -25 0 0 -125z"/>
<path d="M10679 3368 c0 -18 -2 -95 -4 -170 -1 -76 1 -138 6 -138 5 0 9 77 9 170 0 94 -2 170 -5 170 -3 0 -5 -15 -6 -32z"/>
<path d="M10700 3255 c0 -122 2 -145 15 -145 13 0 15 23 15 145 0 122 -2 145 -15 145 -13 0 -15 -23 -15 -145z"/>
<path d="M10740 3254 c0 -112 3 -145 13 -142 9 3 13 44 15 146 2 122 0 142 -13 142 -13 0 -15 -22 -15 -146z"/>
<path d="M10780 3255 l0 -146 153 3 152 3 3 143 c2 124 1 142 -13 142 -14 0 -16 -17 -13 -130 2 -72 1 -130 -2 -131 -10 0 -146 -1 -202 0 l-58 1 0 130 c0 80 -4 130 -10 130 -6 0 -10 -55 -10 -145z"/>
<path d="M10810 3275 l0 -125 55 0 55 0 0 125 0 125 -55 0 -55 0 0 -125z"/>
<path d="M10934 3378 c3 -13 6 -69 6 -125 l0 -103 55 0 55 0 0 125 0 125 -61 0 c-59 0 -61 -1 -55 -22z"/>
<path d="M11104 3230 c0 -96 2 -136 3 -87 2 48 2 126 0 175 -1 48 -3 8 -3 -88z"/>
<path d="M11120 3275 l0 -125 35 0 35 0 0 125 0 125 -35 0 -35 0 0 -125z"/>
<path d="M12375 3347 c-3 -7 -4 -62 -3 -123 l3 -109 153 -3 153 -3 -3 123 -3 123 -148 3 c-118 3 -148 0 -152 -11z m213 -34 c-27 -2 -69 -2 -95 0 -27 2 -5 3 47 3 52 0 74 -1 48 -3z m-5 -20 c-23 -2 -64 -2 -90 0 -26 2 -7 3 42 3 50 0 71 -1 48 -3z m37 -22 c0 -5 -38 -10 -85 -10 -48 0 -85 4 -85 9 0 6 37 10 85 10 47 0 85 -4 85 -9z m-32 -28 c-27 -2 -69 -2 -95 0 -27 2 -5 3 47 3 52 0 74 -1 48 -3z m0 -20 c-27 -2 -69 -2 -95 0 -27 2 -5 3 47 3 52 0 74 -1 48 -3z m32 -23 c0 -6 -35 -10 -85 -10 -50 0 -85 4 -85 10 0 6 35 10 85 10 50 0 85 -4 85 -10z m-190 -15 c0 -8 -4 -15 -9 -15 -5 0 -11 7 -15 15 -3 9 0 15 9 15 8 0 15 -7 15 -15z m224 0 c3 -8 1 -15 -4 -15 -6 0 -10 7 -10 15 0 8 2 15 4 15 2 0 6 -7 10 -15z m-66 -12 c-27 -2 -69 -2 -95 0 -27 2 -5 3 47 3 52 0 74 -1 48 -3z m-5 -20 c-23 -2 -64 -2 -90 0 -26 2 -7 3 42 3 50 0 71 -1 48 -3z m0 -20 c-23 -2 -64 -2 -90 0 -26 2 -7 3 42 3 50 0 71 -1 48 -3z"/>
<path d="M12699 3358 c-1 -5 -1 -222 0 -236 1 -10 36 -12 159 -10 l157 3 2 110 c0 63 -3 115 -9 123 -8 8 -52 12 -159 12 -82 0 -149 -1 -150 -2z m209 -45 c-26 -2 -71 -2 -100 0 -29 2 -8 3 47 3 55 0 79 -1 53 -3z m-10 -20 c-27 -2 -69 -2 -95 0 -27 2 -5 3 47 3 52 0 74 -1 48 -3z m-38 -24 c-52 -5 -89 -4 -94 1 -7 7 25 10 85 9 l94 -2 -85 -8z m38 -26 c-27 -2 -69 -2 -95 0 -27 2 -5 3 47 3 52 0 74 -1 48 -3z m10 -20 c-26 -2 -71 -2 -100 0 -29 2 -8 3 47 3 55 0 79 -1 53 -3z m0 -20 c-27 -2 -69 -2 -95 0 -27 2 -5 3 47 3 52 0 74 -1 48 -3z m76 -30 c-9 -37 -18 -45 -12 -11 3 15 0 29 -6 32 -6 2 -3 5 7 5 14 1 16 -4 11 -26z m-244 7 c0 -5 -4 -10 -10 -10 -5 0 -10 5 -10 10 0 6 5 10 10 10 6 0 10 -4 10 -10z m200 0 c0 -6 -35 -10 -85 -10 -50 0 -85 4 -85 10 0 6 35 10 85 10 50 0 85 -4 85 -10z m-200 -24 c0 -3 -4 -8 -10 -11 -5 -3 -10 -1 -10 4 0 6 5 11 10 11 6 0 10 -2 10 -4z m158 -3 c-27 -2 -69 -2 -95 0 -27 2 -5 3 47 3 52 0 74 -1 48 -3z m0 -20 c-27 -2 -69 -2 -95 0 -27 2 -5 3 47 3 52 0 74 -1 48 -3z"/>
<path d="M12310 3205 c0 -95 0 -95 25 -95 25 0 25 0 25 95 0 95 0 95 -25 95 -25 0 -25 0 -25 -95z"/>
<path d="M8660 3165 c0 -8 5 -15 10 -15 6 0 10 7 10 15 0 8 -4 15 -10 15 -5 0 -10 -7 -10 -15z"/>
<path d="M7043 3105 c0 -38 2 -53 4 -32 2 20 2 52 0 70 -2 17 -4 1 -4 -38z"/>
<path d="M7520 3065 l0 -35 80 0 80 0 0 35 0 35 -80 0 -80 0 0 -35z"/>
<path d="M7800 3080 c0 -17 7 -20 45 -20 38 0 45 3 45 20 0 17 -7 20 -45 20 -38 0 -45 -3 -45 -20z"/>
<path d="M7920 3080 c0 -19 7 -20 195 -20 188 0 195 1 195 20 0 19 -7 20 -195 20 -188 0 -195 -1 -195 -20z"/>
<path d="M8322 3080 c0 -14 2 -19 5 -12 2 6 2 18 0 25 -3 6 -5 1 -5 -13z"/>
<path d="M8340 3080 c0 -18 7 -20 60 -20 53 0 60 2 60 20 0 18 -7 20 -60 20 -53 0 -60 -2 -60 -20z"/>
<path d="M8590 3080 c0 -13 7 -20 20 -20 13 0 20 7 20 20 0 13 -7 20 -20 20 -13 0 -20 -7 -20 -20z"/>
<path d="M8660 3080 c0 -19 7 -20 230 -20 223 0 230 1 230 20 0 19 -7 20 -230 20 -223 0 -230 -1 -230 -20z"/>
<path d="M9150 3080 c0 -19 7 -20 130 -20 123 0 130 1 130 20 0 19 -7 20 -130 20 -123 0 -130 -1 -130 -20z"/>
<path d="M9440 3080 c0 -19 7 -20 180 -20 173 0 180 1 180 20 0 19 -7 20 -180 20 -173 0 -180 -1 -180 -20z"/>
<path d="M9837 3094 c-3 -3 -3 -12 0 -20 4 -11 42 -14 199 -14 187 0 194 1 194 20 0 19 -7 20 -193 20 -107 0 -196 -3 -200 -6z"/>
<path d="M10260 3080 c0 -19 7 -20 200 -20 193 0 200 1 200 20 0 19 -7 20 -200 20 -193 0 -200 -1 -200 -20z"/>
<path d="M10700 3080 c0 -19 7 -20 195 -20 188 0 195 1 195 20 0 19 -7 20 -195 20 -188 0 -195 -1 -195 -20z"/>
<path d="M11120 3080 c0 -20 7 -20 710 -20 703 0 710 0 710 20 0 20 -7 20 -710 20 -703 0 -710 0 -710 -20z"/>
<path d="M12550 3073 l0 -28 -420 3 -420 3 0 -82 c0 -45 -3 -79 -6 -76 -8 8 -11 34 -13 105 l-1 52 -1125 0 -1125 0 0 -65 0 -65 30 0 c24 0 30 4 30 21 0 21 2 21 180 17 167 -3 180 -2 180 14 0 21 -24 19 292 18 224 -1 278 -8 278 -39 0 -35 49 -58 51 -23 0 13 2 12 9 -5 5 -13 13 -23 18 -23 13 0 39 33 43 54 6 32 52 37 321 34 l253 -3 3 -22 c3 -18 10 -23 33 -23 16 0 29 5 29 10 0 7 76 9 223 8 l222 -3 2 -40 1 -40 -6 35 -7 35 -147 0 -148 1 0 -78 0 -78 150 0 150 0 0 38 c1 32 2 35 13 20 16 -20 36 -11 91 44 34 32 46 38 85 38 26 1 379 2 786 3 l740 2 -3 40 c-6 82 20 76 -290 74 -152 -1 -303 -4 -335 -7 -52 -3 -58 -6 -55 -25 3 -20 -1 -22 -52 -22 -48 0 -55 2 -55 20 0 17 8 20 53 23 50 3 52 4 52 33 0 29 -1 29 -55 29 -53 0 -55 -1 -55 -27z m-1112 -86 c2 -12 -3 -17 -17 -17 -12 0 -21 4 -21 10 0 5 7 7 15 4 17 -7 21 11 5 19 -6 3 -5 4 2 3 7 -1 14 -10 16 -19z m75 16 c-20 -7 -15 -22 6 -20 11 0 17 5 14 10 -3 5 0 8 6 6 25 -9 15 -24 -16 -27 -23 -2 -33 1 -33 11 0 17 10 27 24 26 6 0 5 -3 -1 -6z m-193 -13 c8 13 10 12 10 -2 0 -11 -8 -18 -20 -18 -12 0 -20 7 -20 18 0 14 2 15 10 2 9 -13 11 -13 20 0z"/>
<path d="M13630 2850 c0 -195 0 -200 -21 -200 -17 0 -20 -5 -17 -32 l3 -33 93 -3 c50 -2 92 0 92 3 0 3 -16 36 -35 73 -19 37 -39 82 -44 100 -8 28 -7 32 8 32 10 0 24 -7 31 -15 8 -9 30 -15 56 -15 l44 0 0 65 0 65 -55 0 c-44 0 -55 -3 -55 -16 0 -13 -7 -15 -31 -10 -17 3 -35 6 -40 6 -5 0 -9 25 -9 56 0 48 4 59 30 86 17 16 30 31 30 34 0 2 -18 4 -40 4 l-40 0 0 -200z"/>
<path d="M8495 3020 c-4 -6 12 -10 40 -10 28 0 44 4 40 10 -3 6 -21 10 -40 10 -19 0 -37 -4 -40 -10z"/>
<path d="M12575 3010 c3 -5 22 -10 41 -10 19 0 34 5 34 10 0 6 -18 10 -41 10 -24 0 -38 -4 -34 -10z"/>
<path d="M7044 2860 c0 -85 2 -120 3 -77 2 42 2 112 0 155 -1 42 -3 7 -3 -78z"/>
<path d="M7520 2975 l0 -35 80 0 80 0 0 35 0 35 -80 0 -80 0 0 -35z"/>
<path d="M9870 2906 c0 -66 2 -75 20 -81 31 -10 40 2 40 58 0 76 -8 97 -36 97 -23 0 -24 -3 -24 -74z"/>
<path d="M9940 2905 c0 -69 2 -75 23 -80 12 -3 103 -4 202 -3 l180 3 0 75 0 75 -202 3 -203 2 0 -75z"/>
<path d="M10360 2898 l0 -79 27 3 c33 4 38 20 28 93 -5 46 -9 54 -31 58 -24 4 -24 4 -24 -75z"/>
<path d="M10630 2916 c0 -35 3 -71 6 -79 4 -12 40 -15 210 -16 l204 -2 0 81 0 80 -210 0 -210 0 0 -64z"/>
<path d="M11062 2904 c3 -76 3 -77 31 -80 l28 -3 -3 77 c-3 76 -3 77 -31 80 l-28 3 3 -77z"/>
<path d="M10570 2895 c0 -73 1 -75 25 -75 24 0 25 2 25 75 0 73 -1 75 -25 75 -24 0 -25 -2 -25 -75z"/>
<path d="M9512 2871 l3 -76 140 0 140 0 -3 69 c-1 38 -3 70 -5 71 -1 2 -64 5 -140 7 l-138 5 3 -76z"/>
<path d="M11203 2934 c-2 -6 -3 -40 -1 -75 l3 -64 43 -3 42 -3 0 74 0 75 -41 4 c-25 2 -43 -1 -46 -8z"/>
<path d="M11301 2873 c0 -46 2 -83 7 -83 4 0 6 26 4 57 -5 101 -9 111 -11 26z"/>
<path d="M9810 2859 l0 -80 52 3 c53 3 83 28 34 28 -13 0 -28 6 -33 13 -8 13 -9 18 -12 80 -1 30 -5 37 -21 37 -18 0 -20 -7 -20 -81z"/>
<path d="M11140 2886 c0 -62 -7 -76 -41 -76 -21 0 -27 -4 -23 -15 5 -11 21 -15 60 -15 l54 0 0 75 c0 73 -1 75 -25 75 -23 0 -25 -4 -25 -44z"/>
<path d="M13483 2923 c-19 -4 -23 -11 -23 -39 l0 -34 80 0 80 0 0 40 0 40 -57 -1 c-32 -1 -68 -4 -80 -6z"/>
<path d="M7520 2885 l0 -35 80 0 80 0 0 35 0 35 -80 0 -80 0 0 -35z"/>
<path d="M7805 2910 c-3 -5 -1 -10 4 -10 6 0 10 -18 10 -42 -2 -34 -3 -37 -6 -13 -9 61 -20 44 -27 -41 -7 -91 -3 -113 13 -73 7 17 8 4 5 -48 l-4 -73 159 0 c101 0 162 4 166 10 5 8 11 7 20 0 11 -9 36 -5 105 14 51 13 93 26 95 28 2 2 6 15 10 31 6 23 4 27 -15 27 -16 0 -21 -5 -18 -22 2 -16 -3 -23 -17 -26 -11 -2 -34 -10 -52 -18 -37 -17 -53 -18 -53 -3 0 5 -6 7 -12 3 -10 -6 -10 -4 0 7 6 7 12 23 12 36 0 20 -5 23 -39 23 -25 0 -41 -5 -45 -15 -3 -8 0 -15 6 -15 7 0 6 -5 -2 -15 -9 -10 -9 -15 -1 -15 6 0 11 -4 11 -8 0 -13 -59 -7 -73 8 -10 10 -8 10 12 0 19 -10 25 -9 32 1 12 19 11 29 -1 29 -5 0 -10 9 -10 20 0 19 7 20 158 20 159 0 202 -5 202 -22 0 -5 -8 -4 -19 2 -11 5 -24 10 -30 10 -15 0 -14 -37 2 -43 10 -4 10 -6 0 -6 -7 -1 -13 -5 -13 -10 0 -6 12 -6 30 -1 19 5 28 5 25 -1 -4 -5 -14 -9 -24 -9 -18 0 -41 -18 -41 -32 0 -4 71 -8 159 -8 158 0 159 0 163 23 4 20 1 23 -21 21 -14 -2 -19 -1 -10 2 11 3 15 13 11 29 -3 18 0 25 12 25 9 0 16 -5 16 -11 0 -5 -4 -7 -10 -4 -5 3 -10 2 -10 -3 0 -6 7 -12 15 -16 8 -3 19 -16 24 -29 8 -22 17 -25 93 -30 152 -12 144 -15 140 43 -4 52 5 62 32 35 8 -9 17 -11 21 -6 3 6 -3 15 -14 20 -24 13 -131 15 -131 2 0 -4 9 -20 20 -34 11 -14 20 -28 20 -32 0 -9 -125 1 -141 10 -6 4 -7 19 -4 37 l7 29 -54 -3 c-50 -3 -53 -4 -50 -28 2 -20 0 -22 -10 -12 -9 9 -10 17 -2 30 10 15 32 17 175 19 133 2 168 0 184 -12 18 -14 18 -16 2 -32 -16 -16 -18 -16 -32 2 -14 20 -14 20 -15 -2 0 -18 6 -23 28 -24 24 0 24 -1 7 -8 -11 -5 -23 -7 -27 -5 -3 2 -4 -5 -1 -16 5 -19 14 -20 159 -20 147 0 154 1 154 20 0 14 -7 20 -24 20 -30 0 -43 16 -59 71 -12 41 -15 43 -52 46 -38 2 -39 2 -12 -8 32 -13 47 -54 26 -74 -21 -20 -59 -2 -58 27 2 22 2 22 6 2 5 -27 42 -39 50 -17 18 45 -52 67 -74 23 -7 -14 -13 -18 -13 -10 0 9 7 26 16 39 16 22 15 23 -7 19 -18 -2 -25 -13 -35 -51 -15 -57 -27 -76 -18 -26 11 59 27 84 57 87 22 3 27 8 27 31 0 27 -2 28 -72 36 -40 4 -81 8 -90 8 -10 1 -18 6 -18 11 0 5 -10 0 -23 -12 -35 -33 -119 -31 -183 5 -44 24 -61 27 -174 31 -124 4 -126 3 -184 -27 -76 -40 -165 -44 -204 -8 -14 12 -22 16 -18 10 6 -10 -14 -13 -83 -13 -90 0 -91 0 -91 -24 0 -13 6 -27 13 -29 7 -3 5 -6 -5 -6 -15 -1 -18 7 -17 47 0 26 3 41 6 35 3 -9 27 -13 69 -13 106 0 73 28 -38 32 -31 2 -48 7 -48 15 0 8 -11 13 -27 12 -17 -1 -21 -3 -10 -6 13 -4 17 -15 17 -59 l0 -54 -52 2 -53 2 48 3 47 4 0 45 0 44 -56 0 c-34 0 -53 4 -49 10 3 6 2 10 -4 10 -5 0 -13 -4 -16 -10z m479 -141 c-3 -5 -10 -7 -15 -3 -5 3 -7 10 -3 15 3 5 10 7 15 3 5 -3 7 -10 3 -15z m336 -3 c0 -13 7 -43 15 -67 13 -38 13 -41 0 -25 -8 10 -17 38 -21 62 l-6 44 -64 0 -63 0 -9 -42 -10 -43 -1 41 c-1 22 2 44 6 47 3 4 39 7 80 7 70 0 73 -1 73 -24z m210 8 c0 -8 -4 -12 -10 -9 -5 3 -10 10 -10 16 0 5 5 9 10 9 6 0 10 -7 10 -16z m-806 -6 c-3 -5 0 -8 5 -8 6 0 11 -9 11 -19 0 -13 8 -21 22 -23 21 -3 21 -4 4 -21 -17 -17 -19 -16 -39 25 -26 50 -55 60 -88 29 -13 -12 -25 -19 -28 -16 -2 3 4 12 15 20 19 14 19 14 -1 15 -15 0 -26 -14 -43 -59 -13 -33 -30 -62 -39 -66 -14 -5 -14 -3 1 14 15 17 16 23 6 36 -7 9 -8 15 -2 15 6 0 13 -6 15 -12 3 -8 6 -5 6 5 1 10 8 32 17 48 15 29 17 30 79 27 35 -1 61 -6 59 -10z m540 -8 c15 -5 26 -17 26 -27 -1 -17 -1 -17 -11 0 -5 9 -15 17 -20 17 -6 0 -7 -4 -4 -10 3 -5 2 -10 -4 -10 -5 0 -11 5 -13 12 -3 7 -12 9 -22 5 -13 -5 -17 -14 -14 -32 3 -13 1 -22 -3 -19 -17 10 -9 43 13 58 27 19 21 18 52 6z m-550 -52 c-12 -22 -47 -58 -56 -58 -12 0 -48 38 -48 51 0 5 11 -2 24 -18 24 -27 24 -28 45 -9 12 11 21 25 21 33 0 7 5 13 11 13 5 0 7 -6 3 -12z m556 -8 c0 -6 -10 -15 -22 -20 l-23 -9 23 0 c15 -1 26 7 32 22 5 13 9 16 9 7 1 -23 -19 -40 -46 -40 -25 0 -26 1 -17 24 3 8 12 12 20 9 8 -3 14 0 14 6 0 6 2 11 5 11 3 0 5 -5 5 -10z m-130 -9 c0 -17 -15 -19 -28 -5 -11 12 -9 14 8 14 11 0 20 -4 20 -9z m693 -24 c4 3 7 -1 7 -10 0 -22 -2 -22 -31 10 -17 20 -18 23 -3 10 11 -9 24 -14 27 -10z"/>
<path d="M8040 2904 c36 -7 87 -13 114 -14 41 0 47 -2 37 -14 -17 -21 15 -36 75 -36 34 0 61 8 99 30 45 26 65 31 129 33 42 1 76 5 76 9 0 5 -134 7 -297 7 -276 -1 -293 -2 -233 -15z"/>
<path d="M8585 2910 c3 -5 25 -10 48 -10 27 0 62 -11 98 -30 45 -23 66 -29 105 -26 67 5 64 4 64 21 0 12 -16 15 -87 15 -47 0 -84 3 -81 6 3 3 81 6 172 7 163 2 184 -2 116 -21 -32 -9 -30 -10 33 -11 38 -1 67 3 67 9 0 6 -4 10 -10 10 -5 0 -10 4 -10 8 0 5 7 9 15 9 12 0 15 -13 15 -59 0 -57 0 -58 29 -58 36 0 61 -23 61 -56 0 -36 18 -64 40 -64 15 0 19 8 22 38 l3 37 45 -2 c25 -2 60 0 78 3 31 5 32 7 32 49 l0 45 -37 0 c-38 0 -97 29 -120 59 -10 13 -12 13 -8 1 2 -8 1 -31 -3 -50 -8 -34 -9 -35 -65 -40 l-57 -5 2 55 2 55 3 -48 4 -48 47 3 c43 3 47 5 53 35 11 54 -3 58 -192 57 -93 0 -169 4 -169 8 0 4 -72 8 -161 8 -104 0 -158 -3 -154 -10z m685 -215 c0 -8 -8 -15 -17 -14 -11 0 -13 3 -5 6 6 2 10 9 6 14 -3 5 0 9 5 9 6 0 11 -7 11 -15z"/>
<path d="M12244 2909 c-4 -8 -35 -9 -93 -6 -53 4 -76 3 -61 -2 14 -5 93 -10 175 -12 99 -2 123 -4 70 -6 -88 -4 -114 -16 -71 -33 45 -17 86 -12 148 20 44 22 72 30 113 30 30 0 55 5 55 10 0 14 -327 13 -336 -1z"/>
<path d="M12606 2911 c5 -5 38 -11 74 -13 46 -2 75 -10 95 -25 44 -30 71 -36 132 -28 47 6 53 9 48 26 -6 17 -1 19 37 20 24 0 75 6 113 13 65 13 51 14 -219 15 -171 1 -286 -3 -280 -8z"/>
<path d="M10430 2861 c0 -50 -1 -51 -30 -51 -23 0 -30 -4 -30 -20 0 -13 7 -20 20 -20 11 0 20 -4 20 -10 0 -17 165 -13 180 5 7 8 16 12 21 9 5 -3 9 4 9 15 0 16 -6 21 -29 21 -32 0 -41 14 -41 67 0 27 -3 33 -13 25 -12 -11 -78 -9 -97 3 -6 4 -10 -12 -10 -44z"/>
<path d="M11998 2853 l-3 -58 -45 4 c-25 1 -53 7 -62 12 -21 11 -24 59 -6 77 22 22 -1 12 -46 -19 -27 -20 -61 -33 -90 -36 l-46 -6 0 -42 c0 -52 9 -57 91 -48 53 5 62 3 80 -16 27 -29 36 -27 56 17 l18 37 71 3 71 3 6 -38 c8 -47 1 -56 -11 -12 -6 24 -15 35 -30 37 -22 3 -22 3 -4 -27 18 -32 11 -60 -19 -69 -8 -2 -5 2 5 10 14 11 17 22 12 42 -6 24 -11 27 -39 24 -44 -4 -50 -46 -11 -77 15 -11 22 -21 17 -21 -16 0 -53 45 -53 65 0 10 7 27 17 37 15 17 15 18 -5 18 -17 0 -25 -10 -36 -47 -8 -27 -15 -43 -15 -38 -1 6 -13 11 -28 12 -27 1 -27 1 -8 -14 20 -15 20 -15 0 -11 -11 2 -20 10 -20 18 -1 26 -15 40 -43 40 -45 0 -56 -13 -48 -59 4 -25 2 -41 -4 -41 -5 0 -10 -4 -10 -8 0 -9 87 -37 110 -35 8 1 27 -8 42 -19 16 -11 41 -24 56 -28 20 -6 -1292 -12 -2733 -12 -14 0 -40 1 -57 1 l-33 2 39 14 c22 7 48 23 60 34 l20 21 -127 0 c-70 0 -127 -3 -127 -8 0 -10 37 -33 86 -51 39 -15 23 -16 -265 -14 -168 1 -427 2 -576 3 -269 0 -270 0 -230 19 22 10 46 25 54 34 12 16 2 17 -137 17 -85 0 -153 4 -157 10 -9 15 -65 52 -65 43 0 -17 84 -73 109 -73 13 0 32 -6 40 -14 9 -7 30 -18 46 -24 22 -8 -42 -11 -255 -12 -157 -1 -300 -3 -319 -5 -35 -3 -53 -20 -48 -45 2 -13 372 -15 3262 -15 l3260 0 0 30 0 30 -305 5 c-168 3 -298 6 -289 8 9 1 33 13 54 27 20 14 42 24 49 22 15 -6 57 16 80 42 26 29 10 26 -26 -4 -29 -24 -35 -25 -174 -25 -79 0 -144 -3 -144 -7 1 -15 49 -43 87 -52 25 -6 -55 -9 -242 -9 -246 0 -276 1 -250 13 17 8 41 23 55 34 l25 21 -127 0 c-71 0 -128 -3 -128 -8 0 -8 32 -31 70 -49 20 -9 -31 -11 -250 -12 -244 0 -271 1 -237 13 21 8 48 22 59 33 20 18 17 18 -128 23 l-149 5 -1 55 c0 30 1 43 3 29 5 -30 30 -42 59 -26 15 8 17 7 7 -3 -7 -7 -23 -14 -35 -15 -13 -1 -23 -8 -23 -16 0 -11 30 -15 158 -17 135 -2 157 0 157 13 0 8 -6 15 -14 15 -8 0 -28 12 -43 26 l-28 26 30 -22 c26 -19 31 -20 41 -6 14 20 24 20 24 1 0 -8 6 -15 13 -15 9 0 8 -3 -2 -9 -7 -5 -10 -14 -6 -21 5 -8 30 -10 84 -6 42 3 91 5 110 6 26 0 32 3 27 15 -3 9 1 18 9 21 9 4 15 19 15 35 0 24 -4 29 -25 29 -21 0 -25 -5 -25 -28 0 -38 -32 -54 -99 -50 l-53 3 21 24 c33 38 27 51 -24 51 -30 0 -45 -4 -45 -13 0 -7 -10 -13 -22 -14 -13 0 -17 1 -10 4 6 3 12 9 12 15 0 6 -7 7 -16 4 -8 -3 -12 -2 -9 4 4 6 74 10 174 10 149 0 170 -2 182 -17 11 -15 11 -16 -1 -5 -20 17 -50 15 -50 -4 0 -18 23 -44 40 -44 15 0 40 62 40 100 l0 30 80 0 80 0 0 -29 c0 -41 9 -61 29 -61 13 0 13 -2 2 -9 -7 -5 -10 -14 -7 -20 4 -6 4 -11 1 -11 -10 0 -35 68 -35 95 0 26 -1 26 -67 23 -64 -3 -68 -4 -71 -28 -1 -14 -10 -42 -19 -62 -13 -31 -21 -38 -45 -38 -21 0 -28 -5 -28 -20 0 -19 7 -20 160 -20 136 0 160 2 160 15 0 9 -9 15 -22 16 -22 0 -22 1 2 11 l25 11 -25 7 -25 8 25 2 c20 2 21 3 6 7 -15 4 -16 7 -5 14 12 8 12 11 -1 19 -11 7 -6 10 23 10 35 0 37 -2 37 -33 0 -32 2 -34 68 -54 37 -12 85 -25 106 -29 34 -6 38 -5 33 9 -7 20 10 32 40 29 11 -2 25 2 29 9 5 8 2 11 -7 7 -8 -3 -23 -2 -34 2 -15 6 -12 8 13 7 19 0 38 6 43 14 14 22 11 32 -8 25 -13 -5 -12 -2 4 11 11 10 23 27 25 38 2 11 10 20 18 21 8 0 10 -1 4 -3 -7 -2 -15 -20 -19 -40 -3 -19 -14 -50 -22 -69 -13 -27 -23 -34 -45 -34 -18 0 -28 -5 -28 -15 0 -13 24 -15 160 -15 153 0 160 1 160 20 0 14 -7 20 -22 21 -18 1 -16 3 7 8 l30 6 -1 96 c-1 53 -6 105 -12 115 -10 16 -11 14 -12 -18 0 -43 -12 -52 -82 -61 l-48 -7 0 55 c0 33 -4 55 -11 55 -7 0 -10 -20 -7 -55 3 -56 -8 -78 -14 -27 -3 27 -4 27 -75 28 -40 1 -79 4 -87 7 -8 3 -22 -1 -33 -8 -11 -9 -43 -14 -83 -15 -53 0 -75 5 -120 30 -52 28 -62 29 -173 30 -111 0 -121 -2 -177 -30 -65 -33 -149 -41 -185 -17 -14 9 -47 12 -112 9 l-93 -4 0 -31 c0 -17 -3 -27 -7 -24 -4 4 -5 32 -4 62 1 33 -2 55 -8 55 -5 0 -11 -26 -13 -57z m892 -74 c0 -5 -7 -9 -15 -9 -15 0 -20 12 -9 23 8 8 24 -1 24 -14z m-550 1 c0 -5 -7 -10 -15 -10 -8 0 -15 5 -15 10 0 6 7 10 15 10 8 0 15 -4 15 -10z m879 -31 c16 -45 14 -63 -9 -84 -11 -10 -20 -15 -20 -10 0 4 7 13 16 20 13 9 15 20 10 48 -6 31 -11 37 -31 37 -31 0 -50 -32 -35 -59 5 -11 18 -18 27 -17 10 2 12 1 5 -1 -7 -3 -10 -9 -7 -14 13 -21 -11 -6 -28 17 -16 21 -17 30 -7 54 11 26 24 36 57 39 6 0 16 -13 22 -30z m40 4 c16 -39 32 -97 24 -90 -12 12 -51 117 -43 117 4 0 13 -12 19 -27z m-621 -5 c7 -7 12 -21 11 -32 -1 -18 -2 -17 -8 4 -6 21 -13 25 -41 25 -29 0 -36 -4 -38 -24 -5 -30 15 -52 28 -31 5 8 13 11 17 6 4 -5 2 -11 -5 -13 -6 -3 -9 -9 -6 -15 3 -5 15 -2 27 8 21 17 21 17 0 -6 l-23 -24 -25 24 c-42 40 -28 90 25 90 14 0 31 -5 38 -12z m702 -23 c0 -20 -5 -25 -22 -24 -17 1 -19 2 -5 6 9 2 17 13 17 24 0 10 2 19 5 19 3 0 5 -11 5 -25z m-310 -9 c0 -8 12 -17 28 -19 25 -4 25 -4 -5 -6 -23 -1 -33 3 -33 14 0 11 -11 15 -41 15 -37 0 -40 -2 -33 -22 3 -13 11 -24 15 -26 5 -2 9 -7 9 -12 0 -18 -33 -18 -90 1 -51 18 -60 24 -60 45 0 24 1 24 105 24 85 0 105 -3 105 -14z m-886 -45 c-5 -6 -34 20 -34 30 0 5 8 1 18 -8 10 -10 17 -20 16 -22z m332 24 c17 -16 14 -18 -10 -9 -9 3 -16 10 -16 15 0 13 9 11 26 -6z m860 -17 c-9 -5 -23 -5 -32 0 -12 6 -7 9 16 9 23 0 28 -3 16 -9z"/>
<path d="M12030 2885 c0 -24 2 -25 73 -25 80 0 77 14 -5 25 -26 4 -48 11 -48 16 0 5 -4 9 -10 9 -5 0 -10 -11 -10 -25z"/>
<path d="M9436 2883 c-8 -20 17 -43 46 -43 13 0 18 8 18 30 0 26 -3 30 -29 30 -18 0 -31 -6 -35 -17z"/>
<path d="M11892 2888 c-15 -15 -16 -50 0 -66 7 -7 29 -12 51 -12 l38 0 -3 43 c-3 40 -5 42 -38 45 -19 2 -41 -3 -48 -10z"/>
<path d="M13083 2888 c-35 -5 -63 -14 -63 -19 0 -5 32 -9 70 -9 63 0 70 2 70 20 0 11 -3 19 -7 19 -5 -1 -36 -6 -70 -11z"/>
<path d="M13210 2856 l0 -46 43 0 c57 0 69 10 65 51 -3 33 -4 34 -55 37 l-53 3 0 -45z"/>
<path d="M8125 2870 c-3 -5 -1 -10 4 -10 6 0 11 5 11 10 0 6 -2 10 -4 10 -3 0 -8 -4 -11 -10z"/>
<path d="M12968 2873 c7 -3 16 -2 19 1 4 3 -2 6 -13 5 -11 0 -14 -3 -6 -6z"/>
<path d="M9927 2796 c-6 -15 1 -26 14 -26 5 0 6 7 3 15 -4 8 -1 15 5 15 6 0 11 -4 11 -10 0 -6 65 -10 175 -10 149 0 175 2 175 15 0 22 -375 23 -383 1z"/>
<path d="M10332 2790 c-10 -17 -10 -20 3 -20 8 0 15 9 15 20 0 11 -1 20 -3 20 -1 0 -8 -9 -15 -20z"/>
<path d="M10634 2793 c4 -22 14 -25 24 -6 8 15 7 19 -8 19 -9 0 -17 -6 -16 -13z"/>
<path d="M10676 2795 c-5 -13 19 -15 179 -15 158 0 185 2 185 15 0 13 -27 15 -179 15 -150 0 -180 -2 -185 -15z"/>
<path d="M11051 2794 c0 -11 3 -14 6 -6 3 7 2 16 -1 19 -3 4 -6 -2 -5 -13z"/>
<path d="M9510 2736 l0 -46 1060 0 1060 0 0 45 0 45 -215 0 c-128 0 -215 -4 -215 -9 0 -6 -120 -10 -302 -11 -188 0 -304 -4 -306 -10 -5 -15 -175 -13 -191 3 -11 10 -13 10 -7 0 4 -7 3 -13 -3 -13 -5 0 -11 4 -13 10 -2 5 -121 12 -293 16 -159 3 -354 8 -432 11 l-143 4 0 -45z"/>
<path d="M7520 2705 l0 -35 85 0 85 0 0 35 0 35 -85 0 -85 0 0 -35z"/>
<path d="M13450 2705 l0 -35 85 0 85 0 0 35 0 35 -85 0 -85 0 0 -35z"/>
<path d="M9290 2694 c0 -14 5 -34 10 -44 8 -15 6 -24 -11 -41 -23 -23 -17 -39 9 -22 10 6 32 14 50 18 37 8 43 25 10 25 -16 0 -19 3 -10 8 7 5 15 25 19 45 l6 37 -42 0 c-37 0 -41 -2 -41 -26z"/>
<path d="M7781 2684 c0 -11 3 -14 6 -6 3 7 2 16 -1 19 -3 4 -6 -2 -5 -13z"/>
<path d="M7043 2615 c0 -44 2 -61 4 -37 2 23 2 59 0 80 -2 20 -4 1 -4 -43z"/>
<path d="M9510 2645 l0 -35 1060 0 1060 0 0 35 0 35 -1060 0 -1060 0 0 -35z"/>
<path d="M8430 2584 c49 -58 156 -63 217 -9 l28 24 -129 1 c-115 0 -127 -2 -116 -16z"/>
</g>
</svg>