<svg xmlns="http://www.w3.org/2000/svg" viewBox="-5.50 514.80 1415.70 255.70">
<g transform="translate(0.000000,768.000000) scale(0.100000,-0.100000)" fill="currentColor" stroke="none">
<path d="M7044 2370 c0 -80 2 -112 3 -72 2 39 2 105 0 145 -1 39 -3 7 -3 -73z"/>
<path d="M7043 2155 c0 -33 2 -45 4 -27 2 18 2 45 0 60 -2 15 -4 0 -4 -33z"/>
<path d="M7038 2008 c-7 -17 -187 -18 -3525 -20 l-3518 -3 4740 -5 c2607 -3 5777 -3 7045 0 2272 5 2255 5 -1212 8 -3340 2 -3517 3 -3520 20 -3 16 -4 16 -10 0z"/>
<path d="M5765 1770 c-18 -20 -17 -20 109 -20 124 0 126 0 114 20 -11 18 -24 20 -109 20 -83 0 -98 -3 -114 -20z"/>
<path d="M7330 1759 c0 -21 24 -31 39 -16 8 8 11 6 11 -10 0 -29 30 -39 37 -13 4 14 14 20 33 20 22 0 27 4 24 18 -7 25 -144 26 -144 1z"/>
<path d="M7770 1760 c0 -11 -4 -20 -10 -20 -5 0 -10 -4 -10 -10 0 -6 37 -10 93 -10 67 1 87 3 75 11 -10 5 -18 19 -18 29 0 18 -7 20 -65 20 -58 0 -65 -2 -65 -20z"/>
<path d="M8173 1760 c-4 -16 -14 -20 -49 -20 -40 0 -44 -2 -44 -25 l0 -25 425 0 425 0 0 29 c0 65 24 61 -382 61 -361 0 -370 0 -375 -20z m44 -47 c-3 -10 -5 -4 -5 12 0 17 2 24 5 18 2 -7 2 -21 0 -30z m20 0 c-3 -10 -5 -4 -5 12 0 17 2 24 5 18 2 -7 2 -21 0 -30z m20 0 c-3 -10 -5 -4 -5 12 0 17 2 24 5 18 2 -7 2 -21 0 -30z m93 12 c0 -18 -5 -25 -20 -25 -13 0 -20 6 -19 18 0 10 3 12 6 5 8 -20 23 -15 23 7 0 11 2 20 5 20 3 0 5 -11 5 -25z m17 -12 c-3 -10 -5 -4 -5 12 0 17 2 24 5 18 2 -7 2 -21 0 -30z m20 0 c-3 -10 -5 -4 -5 12 0 17 2 24 5 18 2 -7 2 -21 0 -30z m20 0 c-3 -10 -5 -4 -5 12 0 17 2 24 5 18 2 -7 2 -21 0 -30z m200 0 c-3 -10 -5 -4 -5 12 0 17 2 24 5 18 2 -7 2 -21 0 -30z m20 0 c-3 -10 -5 -4 -5 12 0 17 2 24 5 18 2 -7 2 -21 0 -30z m20 0 c-3 -10 -5 -4 -5 12 0 17 2 24 5 18 2 -7 2 -21 0 -30z m160 0 c-3 -10 -5 -4 -5 12 0 17 2 24 5 18 2 -7 2 -21 0 -30z m20 0 c-3 -10 -5 -4 -5 12 0 17 2 24 5 18 2 -7 2 -21 0 -30z m70 0 c-3 -10 -5 -4 -5 12 0 17 2 24 5 18 2 -7 2 -21 0 -30z m-620 -5 c-3 -8 -6 -5 -6 6 -1 11 2 17 5 13 3 -3 4 -12 1 -19z m600 0 c-3 -8 -6 -5 -6 6 -1 11 2 17 5 13 3 -3 4 -12 1 -19z m-22 2 c3 -5 1 -10 -4 -10 -6 0 -11 5 -11 10 0 6 2 10 4 10 3 0 8 -4 11 -10z"/>
<path d="M6080 1760 c0 -5 20 -10 45 -10 25 0 45 5 45 10 0 6 -20 10 -45 10 -25 0 -45 -4 -45 -10z"/>
<path d="M5540 1705 c0 -32 2 -35 30 -35 28 0 30 3 30 35 0 32 -2 35 -30 35 -28 0 -30 -3 -30 -35z"/>
<path d="M5615 1715 c7 -40 -3 -53 -44 -57 l-34 -3 -18 -85 c-9 -47 -14 -88 -11 -92 4 -4 23 -8 42 -10 33 -3 32 -4 -12 -8 -26 -3 -44 -1 -40 4 3 5 -5 6 -19 3 -13 -4 -64 -7 -114 -8 l-90 -1 45 -20 c46 -21 50 -21 145 6 11 4 7 0 -10 -8 -60 -30 -91 -30 -150 -1 -95 46 -90 60 -93 -258 l-2 -277 35 0 c19 0 35 -3 35 -8 0 -4 -36 -6 -80 -4 l-80 4 0 -42 0 -41 75 2 c41 1 78 -1 82 -4 3 -4 -30 -7 -75 -7 l-82 0 0 -36 0 -36 75 4 c41 2 75 0 75 -4 0 -5 -34 -8 -75 -8 l-75 0 0 -36 0 -36 80 4 c59 2 80 0 80 -9 0 -9 -23 -13 -80 -13 l-80 0 0 -39 0 -40 69 1 c63 1 70 3 73 22 3 18 4 17 9 -6 l6 -28 -78 0 -78 0 -4 -37 c-2 -21 -4 25 -5 103 -1 77 -5 236 -9 352 l-6 212 -29 0 -28 0 0 -100 c0 -82 -3 -100 -15 -100 -11 0 -15 -11 -15 -40 0 -33 3 -40 20 -40 12 0 20 7 21 18 0 14 2 14 9 -3 5 -12 7 35 3 118 -5 123 -4 137 10 137 15 0 17 -16 17 -140 l0 -140 -46 0 c-38 0 -45 -3 -42 -17 2 -13 16 -20 53 -24 l50 -6 -45 -1 -44 -2 37 -38 c41 -42 41 -42 26 -94 -9 -33 -14 -38 -39 -38 -20 0 -30 5 -30 15 0 16 -27 19 -79 9 -30 -6 -31 -7 -31 -65 l0 -59 50 0 c35 0 52 5 58 16 5 9 14 14 20 10 11 -7 -10 -102 -34 -148 -19 -36 -18 -38 11 -38 20 0 32 11 53 45 15 24 30 45 35 45 4 0 7 -18 7 -41 0 -33 3 -40 18 -37 10 2 17 12 16 26 -1 24 11 26 119 22 59 -2 77 12 77 60 0 20 7 81 15 136 8 54 15 116 15 137 0 34 -2 37 -30 37 l-29 0 -4 -112 -3 -113 -2 136 c-1 75 -4 152 -7 170 -4 26 -3 30 4 14 5 -11 10 -35 10 -52 l1 -33 173 -2 c94 -1 139 -4 100 -5 -73 -4 -78 -7 -67 -37 5 -14 33 -16 205 -16 l199 0 0 50 0 50 -40 0 -40 0 0 100 0 100 -86 0 -87 0 6 -140 c3 -82 1 -140 -4 -140 -5 0 -9 64 -9 145 l0 145 95 0 95 0 0 -100 0 -100 168 2 167 3 2 69 c1 37 4 71 8 74 3 4 5 -30 3 -73 l-3 -80 -72 -3 -73 -3 0 -39 0 -40 -50 0 c-27 0 -50 3 -50 8 0 4 20 6 45 4 l45 -4 0 36 0 36 -55 0 -55 0 0 -55 0 -55 -206 0 -206 0 -11 30 c-11 30 -14 31 -67 28 l-55 -3 0 -40 0 -40 180 -6 180 -5 -185 -1 -185 -1 -2 -24 c-1 -14 0 -17 3 -5 5 14 18 17 85 17 43 0 79 -3 79 -7 0 -5 38 -7 84 -7 70 1 83 -1 82 -14 -1 -9 14 -22 37 -30 35 -14 41 -14 75 4 l37 19 -65 6 c-60 5 -62 6 -20 9 25 2 52 2 60 1 8 -1 34 -4 57 -8 31 -4 46 -1 58 11 9 9 22 16 28 15 9 0 8 -2 0 -6 -7 -2 -13 -8 -13 -12 0 -8 99 -7 120 2 8 4 38 5 67 4 28 -2 60 1 70 5 10 4 -28 7 -85 5 -57 -1 -95 0 -85 4 15 5 14 7 -7 10 -14 2 79 4 205 4 l231 -1 48 -37 c41 -31 49 -43 51 -73 1 -20 8 -40 16 -45 11 -7 15 6 17 74 2 45 6 85 10 89 4 4 51 8 104 9 54 1 96 5 93 8 -2 4 0 13 6 21 7 12 9 10 9 -7 0 -22 4 -23 85 -23 84 0 85 0 85 25 0 16 6 25 15 25 8 0 15 -5 15 -11 0 -5 -4 -7 -10 -4 -6 3 -10 -4 -10 -17 0 -18 2 -20 10 -8 6 10 10 11 10 2 0 -6 3 -11 8 -11 4 1 157 1 340 0 l332 -1 0 -90 c0 -73 3 -90 15 -90 11 0 15 12 15 48 0 45 2 50 48 84 l47 36 535 4 535 4 3 42 3 42 -240 0 -241 0 0 -25 c0 -25 -2 -26 -57 -23 -53 3 -58 5 -56 26 3 20 -1 22 -46 22 -49 0 -50 1 -54 33 l-4 32 -1 -32 -2 -33 -79 0 -80 0 -4 33 -4 32 -1 -32 -2 -33 -569 0 -570 0 -4 33 -4 32 -1 -32 -2 -33 -65 0 -65 0 0 -30 0 -30 -352 2 -353 3 348 2 347 3 0 25 0 26 -340 -3 c-187 -2 -340 0 -340 5 0 4 153 7 340 7 l340 0 0 95 0 95 -32 1 c-84 1 -225 2 -355 0 l-142 -1 -4 -77 c-2 -67 -10 300 -11 595 l-1 92 -266 0 -265 0 -18 -77 c-10 -43 -22 -85 -26 -93 -5 -8 -70 -42 -147 -76 l-138 -61 -3 -216 -2 -217 140 0 c77 0 143 0 148 0 4 1 6 38 5 83 l-1 82 10 -78 c5 -43 7 -85 4 -93 -5 -13 -29 -15 -148 -13 -79 1 -150 3 -158 5 -13 3 -15 35 -12 226 l3 222 -53 53 c-29 29 -49 53 -46 53 4 0 28 -23 55 -50 l48 -50 105 46 c58 25 119 52 136 59 42 19 48 29 71 120 l19 80 -23 50 c-18 38 -22 43 -18 20z m10 -107 c4 -3 1 -32 -6 -62 l-12 -56 -44 0 c-23 0 -43 3 -43 8 1 9 19 93 24 107 4 12 70 14 81 3z m163 -16 c7 -10 12 -48 12 -99 l0 -83 60 0 60 0 -2 38 -1 37 -4 -33 c-4 -32 -5 -33 -50 -30 l-45 3 0 65 0 65 32 3 c18 2 43 1 56 -2 22 -6 24 -11 24 -76 l0 -70 105 0 105 0 0 95 0 95 -29 0 c-37 0 -61 -9 -61 -23 0 -7 4 -7 12 1 7 7 25 12 40 12 l28 0 0 -85 0 -85 -95 0 -95 0 0 69 0 70 48 4 c41 3 40 4 -10 3 -31 -1 -54 2 -51 7 2 4 26 7 53 7 31 0 61 7 84 21 19 11 45 19 58 17 22 -3 23 -7 26 -111 l3 -107 -178 2 -178 3 -3 85 c-2 46 -8 90 -14 97 -6 7 -27 13 -47 14 -29 0 -32 2 -16 9 25 11 56 3 73 -18z m-10 -95 l3 -88 -41 3 -40 2 0 89 0 88 38 -3 37 -3 3 -88z m110 76 c-16 -2 -40 -2 -55 0 -16 2 -3 4 27 4 30 0 43 -2 28 -4z m-638 -248 c0 -33 -15 -33 -16 0 -1 14 2 25 7 25 5 0 9 -11 9 -25z m-3 -252 c-2 -21 -4 -6 -4 32 0 39 2 55 4 38 2 -18 2 -50 0 -70z m760 70 c-3 -3 -11 -2 -17 2 -9 6 -9 10 1 16 14 8 27 -7 16 -18z m50 5 c-3 -8 -6 -5 -6 6 -1 11 2 17 5 13 3 -3 4 -12 1 -19z m-149 -35 l-277 -3 -4 -23 c-4 -19 -4 -18 -6 6 l-1 27 283 -2 282 -3 -277 -2z m281 -40 c0 -25 -1 -26 -9 -8 -12 27 -12 35 0 35 6 0 10 -12 9 -27z m-189 -73 l0 -90 -70 0 -70 0 0 90 0 90 70 0 70 0 0 -90z m-731 -15 c0 -5 -4 -3 -9 5 -5 8 -9 22 -9 30 0 16 17 -16 18 -35z m609 -152 c-16 -2 -40 -2 -55 0 -16 2 -3 4 27 4 30 0 43 -2 28 -4z m120 -99 c-8 -7 -248 -7 -255 0 -4 3 54 6 127 6 73 0 131 -2 128 -6z"/>
<path d="M5870 1000 l0 -80 60 0 60 0 0 80 0 80 -60 0 -60 0 0 -80z"/>
<path d="M5630 1733 c1 -5 9 -24 18 -43 l17 -35 265 0 265 0 3 43 3 42 -286 0 c-157 0 -285 -3 -285 -7z"/>
<path d="M8940 1715 c0 -23 3 -25 50 -25 47 0 50 2 50 25 0 23 -3 25 -50 25 -47 0 -50 -2 -50 -25z"/>
<path d="M6209 1660 c-1 -38 -2 -76 -3 -82 -1 -9 19 -14 61 -16 58 -3 63 -1 68 20 3 13 5 39 4 58 -3 62 -5 60 86 60 l85 0 0 -70 c0 -63 2 -70 20 -70 18 0 20 7 20 70 0 42 4 70 10 70 6 0 10 -8 8 -17 -3 -16 6 -18 70 -18 81 0 101 17 32 26 l-45 7 50 -2 50 -1 3 -67 c2 -38 7 -68 12 -68 6 0 10 -43 11 -97 0 -64 3 -91 9 -78 5 11 9 15 9 9 1 -7 7 -14 14 -17 10 -4 12 8 9 54 -2 32 0 59 4 59 5 0 7 -22 6 -50 l-4 -50 41 0 41 0 0 -105 0 -105 50 0 49 0 3 108 3 107 34 3 c18 2 38 -1 43 -6 6 -6 -5 -9 -29 -8 l-38 1 -3 -102 -3 -103 51 0 50 0 -1 150 0 149 -127 4 -127 3 133 2 132 2 2 -157 2 -158 6 165 6 165 2 -162 c1 -101 6 -163 12 -163 6 0 10 82 10 225 l0 225 280 0 280 0 0 -225 c0 -158 3 -225 11 -225 8 0 10 40 7 135 -2 74 0 135 4 135 5 0 8 -61 8 -135 l0 -135 46 0 45 0 -3 150 -3 150 118 0 117 0 0 -150 c0 -93 4 -150 10 -150 6 0 10 68 10 185 0 117 -4 185 -10 185 -5 0 -10 5 -10 11 0 5 5 7 10 4 6 -4 10 22 10 72 l0 78 -182 -6 c-101 -3 -184 -7 -185 -7 -1 -1 0 -10 3 -19 4 -13 3 -14 -3 -5 -8 10 -70 12 -286 10 -179 -2 -277 1 -278 7 -1 6 -5 -6 -9 -25 l-7 -35 -2 32 c-2 65 3 63 -182 63 l-168 0 -4 -137 -3 -138 -2 138 -2 137 -275 0 -275 0 -1 -70z m839 5 c-3 -3 -47 -6 -97 -7 l-91 0 0 -64 0 -64 40 0 c25 0 40 5 40 13 0 9 2 9 8 -1 5 -8 23 -11 50 -8 23 2 45 0 48 -5 3 -5 -39 -9 -95 -9 l-101 0 0 69 c0 46 -4 71 -12 74 -7 3 38 6 101 6 63 1 112 -1 109 -4z m-11 -92 c-2 -16 -4 -3 -4 27 0 30 2 43 4 28 2 -16 2 -40 0 -55z m-90 5 c-3 -8 -6 -5 -6 6 -1 11 2 17 5 13 3 -3 4 -12 1 -19z m180 0 c-3 -8 -6 -5 -6 6 -1 11 2 17 5 13 3 -3 4 -12 1 -19z m740 -25 c-93 -2 -146 -7 -142 -13 3 -6 1 -10 -4 -10 -6 0 -11 7 -11 15 0 13 23 15 153 13 l152 -2 -148 -3z m-137 -43 c0 -5 -2 -10 -4 -10 -3 0 -8 5 -11 10 -3 6 -1 10 4 10 6 0 11 -4 11 -10z m-5 -30 c3 -5 1 -10 -4 -10 -6 0 -11 5 -11 10 0 6 2 10 4 10 3 0 8 -4 11 -10z m-958 -62 c-3 -8 -6 -5 -6 6 -1 11 2 17 5 13 3 -3 4 -12 1 -19z"/>
<path d="M6350 1675 c0 -13 12 -15 72 -13 46 2 73 7 76 16 3 9 -16 12 -72 12 -62 0 -76 -3 -76 -15z"/>
<path d="M8080 1620 l0 -60 479 0 480 0 4 28 c4 25 4 25 6 -5 l1 -33 -70 0 -70 0 0 -185 0 -185 29 0 c17 0 32 -4 35 -8 2 -4 -11 -6 -30 -4 l-34 4 0 -136 0 -136 35 0 34 0 4 128 3 127 2 -127 2 -128 30 0 30 0 2 273 c3 353 3 435 -2 475 l-4 32 -483 0 -483 0 0 -60z"/>
<path d="M6388 1643 c23 -2 59 -2 80 0 20 2 1 4 -43 4 -44 0 -61 -2 -37 -4z"/>
<path d="M6598 1643 c23 -2 59 -2 80 0 20 2 1 4 -43 4 -44 0 -61 -2 -37 -4z"/>
<path d="M6350 1610 c0 -17 8 -20 68 -23 l67 -3 -67 -2 c-94 -3 -87 -22 7 -22 68 0 75 2 75 20 0 17 -8 20 -72 23 l-73 3 73 2 c96 3 94 22 -3 22 -68 0 -75 -2 -75 -20z"/>
<path d="M6560 1620 c0 -6 32 -10 75 -10 43 0 75 4 75 10 0 6 -32 10 -75 10 -43 0 -75 -4 -75 -10z"/>
<path d="M7150 1400 l0 -220 50 0 50 0 0 220 0 220 -50 0 -50 0 0 -220z"/>
<path d="M7260 1400 l0 -220 55 0 55 0 0 220 0 220 -55 0 -55 0 0 -220z"/>
<path d="M7380 1400 l0 -220 45 0 45 0 0 220 0 220 -45 0 -45 0 0 -220z"/>
<path d="M7480 1400 l0 -220 50 0 50 0 0 220 0 220 -50 0 -50 0 0 -220z"/>
<path d="M7590 1400 l0 -220 50 0 50 0 0 220 0 220 -50 0 -50 0 0 -220z"/>
<path d="M6598 1593 c23 -2 59 -2 80 0 20 2 1 4 -43 4 -44 0 -61 -2 -37 -4z"/>
<path d="M6565 1570 c3 -5 37 -10 76 -10 39 0 69 4 69 10 0 6 -32 10 -76 10 -47 0 -73 -4 -69 -10z"/>
<path d="M6210 1300 l0 -250 55 0 55 0 0 160 0 160 204 0 204 0 4 76 c2 41 0 83 -4 92 -4 11 -7 3 -7 -21 l-1 -38 -107 3 -108 3 -3 33 -3 32 -75 0 c-59 0 -74 -3 -74 -15 0 -8 -4 -15 -10 -15 -5 0 -10 7 -10 15 0 12 -13 15 -60 15 l-60 0 0 -250z m208 233 c-10 -2 -28 -2 -40 0 -13 2 -5 4 17 4 22 1 32 -1 23 -4z m57 -3 c8 -13 -5 -13 -25 0 -13 8 -13 10 2 10 9 0 20 -4 23 -10z m-102 -47 c-7 -2 -21 -2 -30 0 -10 3 -4 5 12 5 17 0 24 -2 18 -5z m100 0 c-13 -2 -35 -2 -50 0 -16 2 -5 4 22 4 28 0 40 -2 28 -4z m-163 -113 c0 -5 -4 -10 -10 -10 -5 0 -10 5 -10 10 0 6 5 10 10 10 6 0 10 -4 10 -10z"/>
<path d="M6510 1520 c0 -23 4 -30 20 -30 11 0 20 5 20 12 0 9 3 9 12 0 7 -7 40 -12 80 -12 54 0 68 3 68 15 0 8 -9 15 -19 15 -11 0 -22 4 -25 9 -4 5 2 7 13 4 10 -3 22 0 25 6 5 8 -17 11 -69 11 -44 0 -74 -4 -70 -9 3 -5 1 -12 -5 -16 -5 -3 -10 1 -10 9 0 9 -9 16 -20 16 -16 0 -20 -7 -20 -30z m100 10 c0 -5 -7 -10 -16 -10 -8 0 -12 5 -9 10 3 6 10 10 16 10 5 0 9 -4 9 -10z"/>
<path d="M8085 1450 c1 -55 5 -103 8 -107 11 -10 8 -25 -3 -18 -6 4 -10 -22 -10 -69 0 -74 1 -76 25 -76 24 0 25 2 25 73 0 40 -4 77 -9 82 -6 6 0 10 17 11 15 1 21 -1 15 -3 -9 -3 -13 -30 -13 -84 0 -72 2 -79 20 -79 18 0 20 7 20 54 0 44 -4 55 -17 59 -10 3 -3 5 15 6 l32 1 2 -62 1 -63 7 65 7 65 1 -62 2 -63 36 0 36 0 -6 40 c-3 21 -1 42 4 45 5 3 11 -16 13 -42 3 -47 3 -47 5 11 2 57 2 58 -23 54 -14 -3 -25 -1 -25 3 0 5 14 9 30 9 30 0 30 0 30 -60 l0 -59 45 1 c26 0 45 5 45 12 0 6 5 4 10 -4 7 -10 9 3 8 45 l-1 60 -7 -45 -7 -45 -1 48 c-3 69 21 57 28 -14 4 -41 9 -55 23 -57 9 -2 17 2 17 10 0 10 3 9 10 -2 7 -11 10 -4 10 28 0 31 4 42 15 42 11 0 15 -12 17 -42 l1 -43 7 50 7 50 1 -47 c1 -28 7 -48 13 -48 8 0 10 20 7 59 -2 33 -1 58 4 55 4 -3 8 -30 8 -60 0 -30 5 -54 10 -54 6 0 10 33 10 80 l0 80 -124 0 c-110 0 -125 -2 -129 -17 -4 -17 -5 -17 -6 0 -1 14 -11 17 -56 17 -41 0 -56 -4 -64 -17 -9 -16 -10 -16 -11 -1 0 9 -8 19 -17 22 -15 4 -15 5 2 4 11 0 172 0 358 1 l337 1 0 100 0 100 -409 0 -408 0 2 -100z m522 55 c1 -20 0 -23 -4 -7 -3 13 -12 22 -24 22 -17 0 -19 -8 -19 -70 l0 -70 30 0 30 0 0 80 0 80 135 0 135 0 0 -85 0 -85 -305 0 -305 0 0 85 0 85 163 -2 162 -3 2 -30z m-47 -209 c0 -2 -7 -7 -16 -10 -8 -3 -12 -2 -9 4 6 10 25 14 25 6z m-175 -45 c2 -17 -1 -31 -6 -31 -5 0 -9 17 -9 37 0 43 9 39 15 -6z m-128 -13 c-3 -7 -5 -2 -5 12 0 14 2 19 5 13 2 -7 2 -19 0 -25z m238 1 c4 -11 4 -23 1 -26 -3 -4 -6 1 -6 11 0 9 -4 14 -10 11 -5 -3 -10 1 -10 9 0 23 18 20 25 -5z"/>
<path d="M8301 1525 c-2 -5 -4 -40 -5 -77 l-1 -68 63 0 62 0 -2 73 -2 72 -6 -70 -6 -70 -4 70 -4 70 -6 -70 -6 -70 -2 66 c-2 66 -2 67 -32 71 l-30 5 -2 -71 -2 -71 -6 75 c-4 41 -8 71 -9 65z m66 -122 c-3 -10 -5 -4 -5 12 0 17 2 24 5 18 2 -7 2 -21 0 -30z"/>
<path d="M8631 1458 l-1 -78 95 0 95 0 -2 73 -2 72 -6 -70 -6 -70 -2 68 -2 67 -30 0 c-30 0 -30 0 -32 -62 l-1 -63 -7 65 -6 65 -5 -65 -5 -65 -4 65 -4 65 -6 -70 -6 -70 -2 68 c-2 60 -4 67 -22 67 -14 0 -20 -7 -21 -22 -1 -19 -3 -17 -9 7 -6 22 -8 9 -9 -47z m126 15 c-3 -10 -5 -4 -5 12 0 17 2 24 5 18 2 -7 2 -21 0 -30z m-80 -55 c-2 -13 -4 -5 -4 17 -1 22 1 32 4 23 2 -10 2 -28 0 -40z m80 0 c-3 -7 -5 -2 -5 12 0 14 2 19 5 13 2 -7 2 -19 0 -25z"/>
<path d="M8430 1450 l0 -70 40 0 40 0 -2 73 -2 72 -6 -70 -6 -70 -2 68 -2 67 -30 0 -30 0 0 -70z"/>
<path d="M8523 1450 c0 -41 2 -58 4 -37 2 20 2 54 0 75 -2 20 -4 3 -4 -38z"/>
<path d="M8543 1450 c0 -41 2 -58 4 -37 2 20 2 54 0 75 -2 20 -4 3 -4 -38z"/>
<path d="M8832 1453 c-2 -72 -2 -73 23 -73 25 0 25 1 23 73 l-2 72 -6 -70 -6 -70 -4 70 -4 70 -6 -70 -6 -70 -5 70 -5 70 -2 -72z"/>
<path d="M7830 1325 l0 -145 50 0 50 0 0 145 0 145 -50 0 -50 0 0 -145z"/>
<path d="M7940 1325 l0 -145 50 0 50 0 0 145 0 145 -50 0 -50 0 0 -145z"/>
<path d="M6810 1280 l0 -100 30 0 30 0 0 100 0 100 -30 0 -30 0 0 -100z"/>
<path d="M6330 1205 l0 -155 205 0 205 0 0 155 0 155 -205 0 -205 0 0 -155z"/>
<path d="M6750 1270 c0 -89 0 -90 25 -90 25 0 25 1 25 90 0 89 0 90 -25 90 -25 0 -25 -1 -25 -90z"/>
<path d="M8621 1258 c1 -46 4 -74 6 -64 3 11 12 26 20 34 7 8 11 17 8 20 -3 4 -10 0 -15 -8 -8 -13 -10 -12 -10 2 0 15 9 17 50 17 28 -1 53 -6 56 -11 4 -6 -2 -7 -15 -3 -16 5 -25 -1 -42 -27 -17 -27 -19 -28 -13 -8 6 22 5 23 -10 11 -32 -27 -19 -40 39 -40 l55 1 0 79 0 79 -65 0 -65 0 1 -82z m99 -31 c0 -2 -10 -12 -21 -23 -22 -19 -22 -19 -8 4 12 19 29 30 29 19z"/>
<path d="M8760 1260 l0 -80 70 0 70 0 0 80 0 80 -70 0 -70 0 0 -80z m88 33 c-16 -2 -40 -2 -55 0 -16 2 -3 4 27 4 30 0 43 -2 28 -4z"/>
<path d="M8193 1235 c0 -33 2 -45 4 -27 2 18 2 45 0 60 -2 15 -4 0 -4 -33z"/>
<path d="M8523 1215 c0 -22 2 -30 4 -17 2 12 2 30 0 40 -3 9 -5 -1 -4 -23z"/>
<path d="M9155 1172 c-3 -3 -5 -67 -5 -143 l0 -138 -77 -3 -78 -3 0 -35 0 -35 77 -3 77 -3 4 43 c2 24 4 -53 5 -169 2 -200 1 -213 -16 -213 -15 0 -18 -6 -14 -30 3 -21 10 -30 23 -30 17 0 19 8 19 85 0 47 3 85 8 85 4 0 18 -29 32 -65 24 -65 54 -105 67 -91 4 4 2 15 -5 24 -7 9 -23 41 -37 71 -19 41 -22 56 -13 62 7 4 17 1 23 -7 7 -11 24 -14 55 -12 l45 3 3 58 c3 49 0 57 -15 58 -10 1 -35 3 -55 4 -28 3 -38 0 -38 -11 0 -8 -9 -14 -20 -14 -22 0 -50 46 -50 83 0 25 68 107 89 107 6 0 11 9 11 20 0 15 -7 20 -25 20 l-24 0 -3 142 -3 142 -27 1 c-15 1 -30 0 -33 -3z m45 -147 c0 -128 -1 -135 -20 -135 -19 0 -20 7 -20 128 0 130 2 142 27 142 10 0 13 -29 13 -135z"/>
<path d="M6763 1163 c-10 -3 -13 -39 -13 -134 l0 -129 60 0 c77 0 79 18 3 23 l-58 3 58 2 57 2 0 114 c0 103 -2 114 -19 119 -35 9 -40 -6 -44 -118 l-3 -110 -2 111 c-2 112 -7 128 -39 117z"/>
<path d="M6900 1048 l0 -118 95 0 96 0 -3 118 -3 117 -45 0 -45 0 -6 -115 -5 -115 -2 117 -2 118 -40 -2 -40 -1 0 -119z"/>
<path d="M7102 1060 c-1 -63 -5 -124 -8 -136 -5 -18 -1 -21 30 -22 l36 -1 -2 137 -2 137 -6 -125 -6 -125 -2 123 c-1 73 -6 122 -12 122 -6 0 -11 -49 -12 -122 l-2 -123 -6 125 -6 125 -2 -115z"/>
<path d="M7190 1061 l0 -111 30 0 31 0 -3 108 -3 107 -27 3 -28 3 0 -110z"/>
<path d="M7303 1162 l-43 -3 0 -105 0 -104 55 0 55 0 0 104 c0 115 1 113 -67 108z"/>
<path d="M7380 1060 l0 -110 51 0 52 0 -7 31 c-3 17 -6 67 -6 110 l0 79 -45 0 -45 0 0 -110z"/>
<path d="M7494 1035 c0 -77 2 -107 3 -67 2 40 2 103 0 140 -2 37 -3 4 -3 -73z"/>
<path d="M7517 1163 c-4 -3 -7 -53 -7 -110 l0 -103 35 0 35 0 0 110 0 110 -28 0 c-16 0 -32 -3 -35 -7z"/>
<path d="M7597 1164 c-4 -4 -7 -54 -7 -111 l0 -103 50 0 51 0 -3 108 -3 107 -40 3 c-23 2 -44 0 -48 -4z"/>
<path d="M7700 1055 l0 -115 -95 0 c-88 0 -95 -1 -95 -20 0 -19 7 -20 109 -20 129 0 121 -10 121 151 0 105 -4 119 -36 119 -2 0 -4 -52 -4 -115z m27 -12 c-2 -16 -4 -5 -4 22 0 28 2 40 4 28 2 -13 2 -35 0 -50z m0 -55 c-3 -8 -6 -5 -6 6 -1 11 2 17 5 13 3 -3 4 -12 1 -19z"/>
<path d="M7763 1163 c-10 -3 -13 -36 -12 -121 0 -64 3 -111 6 -104 2 6 18 12 34 12 l29 0 0 105 c0 58 -3 105 -7 106 -5 0 -15 2 -23 3 -8 2 -21 1 -27 -1z"/>
<path d="M7863 1163 l-33 -4 0 -105 0 -104 50 0 51 0 -3 107 c-3 117 -1 114 -65 106z"/>
<path d="M7940 1060 l0 -110 40 0 40 0 0 110 0 110 -40 0 -40 0 0 -110z"/>
<path d="M8050 1035 l0 -135 70 0 69 0 6 33 c3 17 4 77 3 132 l-4 100 -4 -115 -4 -115 -5 115 c-5 98 -9 115 -23 118 -16 3 -18 -10 -21 -125 l-3 -128 -2 128 -2 127 -25 0 -24 0 -4 -132 -3 -133 -2 133 c-1 80 -6 132 -12 132 -6 0 -10 -52 -10 -135z"/>
<path d="M8228 1085 l-2 -90 -6 85 -6 85 -2 -110 c-1 -60 -5 -121 -7 -135 -5 -22 -4 -22 4 -5 8 17 10 17 10 3 1 -15 16 -17 131 -17 l130 -1 2 48 c1 47 1 47 5 7 3 -22 9 -44 14 -49 5 -6 8 43 7 130 -2 103 -3 116 -5 52 -2 -49 -7 -88 -11 -88 -4 0 -7 36 -7 80 0 44 -3 80 -7 80 -5 0 -11 0 -15 0 -5 0 -11 -37 -14 -82 l-5 -83 -4 85 c-2 71 -4 78 -10 45 l-7 -40 -2 42 c-1 37 -3 41 -22 36 -20 -6 -21 -10 -14 -84 4 -54 3 -79 -4 -79 -7 0 -11 31 -11 84 0 79 -1 85 -20 83 -18 -1 -20 -8 -20 -84 0 -76 -2 -83 -20 -83 -18 0 -20 7 -20 83 0 68 -3 84 -15 84 -10 0 -15 -11 -16 -31 -2 -27 -2 -28 -6 -6 -11 61 -23 39 -25 -45z m49 -62 c-2 -16 -4 -3 -4 27 0 30 2 43 4 28 2 -16 2 -40 0 -55z m70 -50 c-2 -21 -4 -4 -4 37 0 41 2 58 4 38 2 -21 2 -55 0 -75z m-91 29 c-11 -10 -15 4 -8 28 l7 25 3 -23 c2 -13 1 -26 -2 -30z"/>
<path d="M8313 1090 c0 -47 2 -66 4 -42 2 23 2 61 0 85 -2 23 -4 4 -4 -43z"/>
<path d="M8522 1038 l-2 -138 45 0 45 0 0 129 c0 76 -4 132 -10 136 -6 4 -10 -15 -10 -50 0 -68 -15 -66 -19 2 -4 80 -11 61 -11 -30 0 -70 -3 -87 -15 -87 -11 0 -15 19 -18 88 -2 66 -3 53 -5 -50z m61 -13 c4 -8 3 -16 -1 -19 -4 -3 -9 4 -9 15 -2 23 3 25 10 4z"/>
<path d="M8543 1090 c0 -47 2 -66 4 -42 2 23 2 61 0 85 -2 23 -4 4 -4 -43z"/>
<path d="M8651 1161 c-12 -8 -13 -14 -2 -37 9 -21 15 -24 21 -15 9 15 30 6 30 -12 0 -8 -3 -8 -9 2 -6 9 -11 10 -15 2 -10 -16 -26 -4 -42 33 -12 28 -13 19 -14 -102 l0 -133 110 2 110 2 0 134 c0 73 -4 133 -8 133 -5 0 -7 -52 -5 -115 2 -74 0 -115 -7 -115 -5 0 -10 7 -10 15 0 10 -10 15 -30 15 l-30 0 0 95 c0 81 -2 95 -16 95 -9 0 -23 -8 -30 -17 -13 -17 -14 -17 -8 0 3 9 3 17 -1 17 -4 0 -14 -8 -21 -17 -12 -16 -12 -16 -7 5 6 24 4 26 -16 13z m70 -38 c-12 -20 -14 -14 -5 12 4 9 9 14 11 11 3 -2 0 -13 -6 -23z"/>
<path d="M8760 1075 c0 -95 0 -95 25 -95 25 0 25 0 25 95 0 95 0 95 -25 95 -25 0 -25 0 -25 -95z"/>
<path d="M8850 1076 c0 -90 1 -95 23 -99 l22 -4 -22 -2 c-19 -1 -23 -7 -23 -36 0 -31 3 -35 25 -35 l25 0 0 135 0 135 -25 0 c-25 0 -25 0 -25 -94z"/>
<path d="M6884 1035 c0 -71 1 -99 3 -62 2 37 2 96 0 130 -2 34 -3 4 -3 -68z"/>
<path d="M7174 1030 c0 -74 1 -105 3 -67 2 37 2 97 0 135 -2 37 -3 6 -3 -68z"/>
<path d="M7190 920 c0 -19 7 -20 145 -20 138 0 145 1 145 20 0 19 -7 20 -145 20 -138 0 -145 -1 -145 -20z"/>
<path d="M7770 920 c0 -19 7 -20 125 -20 118 0 125 1 125 20 0 19 -7 20 -125 20 -118 0 -125 -1 -125 -20z"/>
<path d="M8032 920 c0 -14 2 -19 5 -12 2 6 2 18 0 25 -3 6 -5 1 -5 -13z"/>
<path d="M6900 910 c0 -6 37 -10 90 -10 53 0 90 4 90 10 0 6 -37 10 -90 10 -53 0 -90 -4 -90 -10z"/>
<path d="M6750 865 c0 -24 3 -25 60 -25 57 0 60 1 60 25 0 24 -3 25 -60 25 -57 0 -60 -1 -60 -25z"/>
<path d="M6900 865 l0 -25 130 0 130 0 0 25 0 25 -130 0 -130 0 0 -25z"/>
<path d="M7172 865 c0 -16 2 -22 5 -12 2 9 2 23 0 30 -3 6 -5 -1 -5 -18z"/>
<path d="M7190 865 l0 -25 145 0 145 0 0 25 0 25 -145 0 -145 0 0 -25z"/>
<path d="M7492 865 c0 -16 2 -22 5 -12 2 9 2 23 0 30 -3 6 -5 -1 -5 -18z"/>
<path d="M7510 865 l0 -25 110 0 110 0 0 25 0 25 -110 0 -110 0 0 -25z"/>
<path d="M7742 870 c0 -14 2 -19 5 -12 2 6 2 18 0 25 -3 6 -5 1 -5 -13z"/>
<path d="M7762 868 c3 -22 7 -23 131 -26 l127 -3 0 26 0 25 -131 0 c-130 0 -130 0 -127 -22z"/>
<path d="M8050 865 c0 -24 2 -25 70 -25 68 0 70 1 70 25 0 24 -2 25 -70 25 -68 0 -70 -1 -70 -25z"/>
<path d="M8220 865 c0 -23 3 -25 51 -25 46 0 50 -2 47 -22 -3 -21 2 -23 45 -26 45 -3 47 -2 47 22 0 23 4 26 35 26 31 0 35 3 35 25 l0 25 -130 0 -130 0 0 -25z"/>
<path d="M8490 865 c0 -14 5 -25 10 -25 6 0 10 11 10 25 0 14 -4 25 -10 25 -5 0 -10 -11 -10 -25z"/>
<path d="M8520 865 l0 -25 146 0 c143 0 146 0 152 23 6 22 6 22 13 -3 l7 -25 1 28 1 27 -160 0 -160 0 0 -25z"/>
<path d="M8850 865 c0 -20 5 -25 25 -25 20 0 25 5 25 25 0 20 -5 25 -25 25 -20 0 -25 -5 -25 -25z"/>
<path d="M8909 813 c-1 -43 0 -84 1 -92 1 -11 -2 -11 -14 2 -9 9 -28 14 -44 12 -15 -2 -243 -4 -507 -4 -321 -1 -475 -5 -465 -11 8 -6 41 -8 74 -4 32 3 70 1 85 -4 14 -6 35 -13 46 -18 23 -8 55 -6 70 6 17 13 114 20 121 8 4 -6 0 -8 -12 -4 -11 3 -26 1 -34 -4 -11 -7 -5 -10 23 -10 20 0 37 5 37 10 0 6 4 10 10 10 5 0 7 -7 3 -16 -5 -14 -17 -16 -72 -10 -36 3 -79 2 -96 -3 l-30 -8 28 -13 c21 -10 33 -11 55 -1 26 11 26 10 7 -4 -13 -11 -29 -14 -45 -10 -14 4 -50 10 -80 14 -38 6 -45 9 -22 10 74 3 17 30 -72 35 -33 1 -36 -1 -37 -29 l-2 -30 -4 28 c-4 23 -9 27 -37 27 -20 0 -40 -8 -51 -20 -11 -12 -31 -20 -52 -20 -28 0 -33 -3 -33 -24 0 -15 7 -26 17 -28 14 -2 16 -13 14 -60 -2 -41 3 -67 19 -97 11 -23 25 -41 30 -41 5 0 26 -11 46 -25 l37 -25 -779 0 c-774 1 -779 1 -743 20 72 38 107 103 97 185 -3 29 -1 35 14 35 13 0 18 8 18 28 0 25 -4 29 -29 30 -34 1 -71 18 -71 32 0 6 -16 10 -34 10 l-35 0 -3 -52 c-3 -52 -4 -53 -37 -56 -19 -2 -31 1 -27 6 3 5 17 7 31 4 24 -4 25 -2 25 47 l0 51 -48 0 c-27 0 -51 -2 -54 -5 -3 -3 -92 -8 -199 -11 -172 -5 -199 -8 -235 -26 -41 -21 -43 -21 -94 -5 -29 9 -71 18 -94 19 l-41 1 50 7 50 6 -36 8 c-19 4 -51 6 -70 4 -31 -3 -34 -6 -40 -43 l-6 -40 -2 41 c-1 53 -26 62 -72 28 -18 -13 -41 -24 -51 -24 -13 0 -18 -8 -18 -30 0 -24 4 -30 23 -30 20 -1 20 -2 5 -11 -14 -8 -18 -23 -18 -65 0 -61 13 -94 35 -94 8 0 15 -4 15 -10 0 -15 -52 8 -82 38 -16 14 -28 21 -28 14 0 -18 68 -64 97 -66 16 -1 44 -12 63 -24 l35 -22 -321 0 c-176 0 -323 -2 -326 -5 -3 -3 -3 -17 0 -30 l4 -25 2235 0 2234 0 -3 28 -3 27 -303 5 c-260 4 -298 7 -270 18 18 7 58 25 88 40 47 23 55 31 57 57 1 20 0 22 -4 8 -6 -30 -103 -98 -103 -73 0 5 6 10 13 10 8 0 21 8 30 18 22 24 29 143 8 150 -10 3 -11 -2 -6 -19 4 -17 3 -20 -3 -10 -8 11 -13 8 -27 -15 -18 -32 -14 -15 7 28 7 16 21 28 31 28 12 0 17 8 17 29 0 23 -5 30 -27 34 -16 3 -39 16 -52 28 -16 15 -26 19 -29 11 -2 -7 -10 -12 -18 -12 -10 0 -14 -12 -14 -39 0 -33 4 -40 26 -45 33 -9 26 -31 -12 -32 -29 -1 -29 -1 -1 3 30 5 27 23 -4 23 -18 0 -20 6 -17 58 l3 57 63 3 c78 4 92 -6 93 -67 2 -45 2 -45 8 -11 7 31 8 27 15 -35 12 -118 19 -140 44 -143 13 -2 28 1 35 6 7 5 30 10 52 10 97 0 95 0 95 32 l0 30 -81 0 -82 0 6 -35 c3 -21 2 -33 -4 -30 -5 4 -9 40 -9 81 0 48 -4 73 -10 69 -6 -4 -10 32 -10 99 0 99 -1 106 -20 106 -15 0 -20 6 -19 28 0 26 1 26 9 5 12 -31 30 -29 30 2 0 20 -5 25 -25 25 -24 0 -25 -2 -26 -77z m-774 -103 c3 -5 2 -10 -4 -10 -5 0 -13 5 -16 10 -3 6 -2 10 4 10 5 0 13 -4 16 -10z m255 6 c0 -2 -7 -6 -15 -10 -8 -3 -15 -1 -15 4 0 6 7 10 15 10 8 0 15 -2 15 -4z m50 -5 c0 -5 -9 -7 -20 -4 -11 3 -20 7 -20 9 0 2 9 4 20 4 11 0 20 -4 20 -9z m64 -3 c-5 -8 -2 -9 12 -4 25 11 214 16 214 6 0 -4 -27 -10 -60 -12 -33 -2 -66 -10 -73 -17 -10 -10 -8 -12 8 -11 11 1 34 1 50 0 19 -2 9 -6 -30 -11 -33 -4 -76 -10 -95 -14 l-35 -6 39 15 c21 8 42 19 45 24 3 5 15 14 26 21 19 12 18 12 -5 7 -14 -3 -36 -6 -50 -7 l-25 -1 25 -7 c14 -4 -35 -8 -109 -9 -74 -1 -131 1 -128 5 4 3 36 5 72 4 43 -1 65 2 65 10 0 6 7 9 15 5 8 -3 15 -1 15 4 0 6 7 10 16 10 9 0 12 -5 8 -12z m-2937 -55 c-3 -10 -5 -4 -5 12 0 17 2 24 5 18 2 -7 2 -21 0 -30z m611 8 c19 10 43 13 82 8 l55 -6 -57 -1 c-31 -1 -68 -7 -82 -13 -19 -9 -32 -9 -56 1 -17 7 -33 17 -36 21 -3 5 11 2 31 -8 32 -15 38 -15 63 -2z m1792 -1 c0 -5 -5 -10 -11 -10 -5 0 -7 5 -4 10 3 6 8 10 11 10 2 0 4 -4 4 -10z m515 0 c3 -6 -1 -7 -9 -4 -18 7 -21 14 -7 14 6 0 13 -4 16 -10z m232 4 c-3 -3 -12 -4 -19 -1 -8 3 -5 6 6 6 11 1 17 -2 13 -5z m-780 -46 c-3 -8 -6 -5 -6 6 -1 11 2 17 5 13 3 -3 4 -12 1 -19z m-2370 -10 c-3 -8 -6 -5 -6 6 -1 11 2 17 5 13 3 -3 4 -12 1 -19z m63 -17 c0 -5 -12 -6 -27 -3 -24 5 -25 6 -8 12 21 8 35 4 35 -9z m2300 3 c0 -2 -9 -4 -21 -4 -11 0 -18 4 -14 10 5 8 35 3 35 -6z m80 0 c0 -2 -16 -4 -36 -4 -19 0 -33 4 -30 8 5 8 66 4 66 -4z m-1971 -26 c-2 -31 -2 -31 -6 -5 -4 27 -5 27 -83 27 -74 0 -79 -1 -83 -22 -4 -20 -4 -19 -6 5 l-1 27 90 0 90 0 -1 -32z m374 25 c-7 -2 -21 -2 -30 0 -10 3 -4 5 12 5 17 0 24 -2 18 -5z m64 -50 c1 -58 1 -58 -6 -13 -7 43 -8 44 -18 20 -7 -14 -12 -20 -12 -13 -1 16 21 63 29 63 4 0 7 -26 7 -57z m1340 -20 c-2 -16 -4 -3 -4 27 0 30 2 43 4 28 2 -16 2 -40 0 -55z m612 45 c-2 -31 -2 -31 -6 -5 -4 27 -5 27 -83 27 -78 0 -79 0 -83 -27 -4 -26 -4 -26 -6 5 l-1 32 90 0 90 0 -1 -32z m259 11 c15 -1 20 -3 11 -6 -22 -6 -43 -47 -36 -72 3 -12 1 -19 -4 -15 -13 8 -11 48 4 63 10 11 10 14 0 18 -7 3 -13 12 -12 21 0 11 2 12 6 5 2 -7 17 -14 31 -14z m-3148 1 c13 -8 12 -10 -4 -10 -10 0 -25 -8 -33 -17 -12 -16 -12 -14 -2 10 13 30 17 31 39 17z m-115 -9 c3 -5 1 -12 -5 -16 -5 -3 -10 1 -10 9 0 18 6 21 15 7z m178 2 c-7 -2 -19 -2 -25 0 -7 3 -2 5 12 5 14 0 19 -2 13 -5z m390 0 c-7 -2 -19 -2 -25 0 -7 3 -2 5 12 5 14 0 19 -2 13 -5z m375 0 c-15 -2 -42 -2 -60 0 -18 2 -6 4 27 4 33 0 48 -2 33 -4z m1567 -2 c-23 -5 -33 -14 -42 -41 -9 -28 -12 -30 -12 -12 -1 41 17 62 52 61 l32 -1 -30 -7z m93 -11 c4 -12 2 -13 -9 -4 -8 7 -23 14 -34 17 -13 4 -9 5 9 4 16 -1 32 -9 34 -17z m380 0 c4 -12 2 -13 -9 -3 -8 6 -39 14 -69 16 -51 4 -50 4 9 3 48 -1 66 -5 69 -16z m-2865 -18 c-10 -10 -20 -17 -22 -16 -6 5 20 34 30 34 5 0 1 -8 -8 -18z m379 11 c-12 -2 -20 -9 -17 -14 4 -5 1 -9 -4 -9 -6 0 -11 7 -11 15 0 10 9 15 28 14 23 -2 24 -2 4 -6z m88 -1 c0 -5 -13 -7 -30 -4 -16 2 -30 6 -30 8 0 2 14 4 30 4 17 0 30 -4 30 -8z m263 -7 c-3 -9 -8 -14 -10 -11 -3 3 -2 9 2 15 9 16 15 13 8 -4z m47 2 c-17 -9 -25 -21 -25 -39 1 -15 -3 -24 -7 -22 -25 16 7 74 40 74 12 0 9 -4 -8 -13z m80 -8 c6 -11 9 -30 7 -42 -4 -19 -4 -18 -6 5 0 15 -8 34 -17 42 -8 9 -11 16 -5 16 6 0 15 -9 21 -21z m1912 11 c2 -6 13 -12 26 -13 12 0 22 -5 22 -8 0 -7 -70 -1 -79 7 -5 5 9 24 19 24 4 0 10 -5 12 -10z m398 6 c0 -2 -8 -10 -17 -17 -16 -13 -17 -12 -4 4 13 16 21 21 21 13z m43 -10 c18 -14 23 -51 8 -60 -4 -3 -6 5 -4 18 4 17 -2 28 -18 40 -13 9 -19 16 -14 16 6 0 18 -7 28 -14z m-3294 -36 c0 -10 -3 -8 -9 5 -12 27 -12 43 0 25 5 -8 9 -22 9 -30z m385 3 c-3 -21 -10 -43 -15 -50 -18 -20 13 -27 124 -28 121 0 140 8 117 50 -11 20 -11 27 1 42 9 11 10 14 2 9 -7 -4 -13 -2 -13 3 0 6 17 11 38 11 21 0 32 -4 25 -8 -9 -6 -9 -17 2 -47 13 -39 13 -40 -11 -43 -42 -6 -15 -22 36 -22 38 0 59 -7 101 -35 l54 -35 -355 0 -355 0 40 23 c26 15 49 40 67 72 28 51 40 53 14 3 l-15 -28 55 0 c30 0 54 5 54 10 0 6 -10 10 -21 10 -22 0 -22 7 -3 68 7 23 6 24 -46 18 -30 -3 -57 -11 -62 -18 -6 -10 -8 -10 -8 -1 0 22 34 32 107 33 l73 0 -6 -37z m320 31 c9 -3 14 -10 11 -14 -3 -4 2 -27 10 -51 9 -24 12 -39 7 -34 -5 6 -15 28 -22 50 -7 22 -18 43 -24 47 -13 9 -3 10 18 2z m68 -42 l12 -37 7 30 c6 29 7 29 8 4 0 -15 -6 -32 -15 -39 -8 -8 -14 -9 -12 -4 4 15 -20 74 -31 74 -6 0 -11 4 -11 10 0 23 30 -5 42 -38z m138 27 c0 -6 -4 -7 -10 -4 -5 3 -10 11 -10 16 0 6 5 7 10 4 6 -3 10 -11 10 -16z m1570 11 c-20 -13 -33 -13 -25 0 3 6 14 10 23 10 15 0 15 -2 2 -10z m69 -30 c0 -10 -3 -8 -9 5 -12 27 -12 43 0 25 5 -8 9 -22 9 -30z m225 3 c-2 -20 -9 -42 -14 -48 -19 -23 14 -31 122 -30 117 1 138 9 119 44 -7 12 -16 21 -21 21 -21 0 -9 20 13 21 17 1 18 2 4 6 -29 8 -8 23 31 23 26 0 33 -3 23 -9 -12 -8 -13 -14 -3 -36 17 -38 15 -55 -9 -55 -11 0 -17 -4 -14 -10 3 -5 27 -10 52 -10 36 0 44 3 39 15 -19 46 -19 50 -3 30 9 -11 17 -25 17 -31 0 -14 38 -48 75 -67 28 -15 5 -16 -325 -16 -354 0 -355 0 -319 19 42 22 53 34 79 86 11 22 19 32 20 24 0 -9 -7 -26 -16 -38 -15 -22 -15 -22 40 -22 31 0 56 5 56 10 0 6 -11 10 -25 10 -29 0 -29 -2 -10 43 8 20 15 39 15 43 0 6 -100 -1 -104 -8 -1 -2 -7 -14 -14 -28 l-12 -25 6 25 c10 40 32 50 110 50 l73 0 -5 -37z m156 27 c0 -5 -4 -10 -10 -10 -5 0 -10 5 -10 10 0 6 5 10 10 10 6 0 10 -4 10 -10z m167 2 c8 -5 9 -13 3 -22 -8 -13 -10 -13 -10 2 0 9 -6 19 -12 21 -7 3 -8 6 -3 6 6 0 15 -3 22 -7z m240 -14 c-3 -8 -6 -5 -6 6 -1 11 2 17 5 13 3 -3 4 -12 1 -19z m-3373 -38 c4 -31 3 -40 -4 -30 -5 8 -10 30 -10 49 0 45 6 37 14 -19z m566 46 c0 -9 -50 -12 -62 -5 -8 6 1 9 25 9 20 0 37 -2 37 -4z m1870 -33 c0 -32 -5 -28 -14 10 -4 19 -3 26 4 22 5 -3 10 -18 10 -32z m177 15 c-3 -8 -6 -5 -6 6 -1 11 2 17 5 13 3 -3 4 -12 1 -19z m581 -8 c25 -33 27 -46 10 -56 -7 -4 -8 -3 -4 4 7 11 -19 60 -39 74 -7 5 -7 8 1 8 5 0 20 -13 32 -30z m-3121 -27 c-3 -10 -5 -2 -5 17 0 19 2 27 5 18 2 -10 2 -26 0 -35z m73 43 c0 -3 -4 -8 -10 -11 -5 -3 -10 -1 -10 4 0 6 5 11 10 11 6 0 10 -2 10 -4z m17 -18 c-3 -8 -6 -5 -6 6 -1 11 2 17 5 13 3 -3 4 -12 1 -19z m63 7 c0 -8 5 -15 10 -15 6 0 10 -5 10 -11 0 -5 -4 -7 -10 -4 -5 3 -10 1 -10 -4 0 -6 5 -11 11 -11 5 0 7 -5 4 -11 -10 -15 -15 -6 -25 35 -4 21 -4 36 1 36 5 0 9 -7 9 -15z m673 -5 c-6 -22 22 -29 30 -7 4 9 6 9 6 -1 1 -17 -28 -27 -41 -14 -6 6 -8 18 -5 26 9 23 16 20 10 -4z m-313 0 c0 -6 -26 -9 -62 -8 l-63 1 60 7 c33 4 61 7 63 8 1 1 2 -2 2 -8z m427 -12 c-3 -8 -6 -5 -6 6 -1 11 2 17 5 13 3 -3 4 -12 1 -19z m1507 -17 c-5 -6 -34 20 -34 30 0 5 8 1 18 -8 10 -10 17 -20 16 -22z m436 25 c8 -2 -11 -4 -42 -5 -32 0 -58 2 -58 7 0 7 64 6 100 -2z m477 -8 c-3 -8 -6 -5 -6 6 -1 11 2 17 5 13 3 -3 4 -12 1 -19z m-2990 -20 c-3 -7 -5 -2 -5 12 0 14 2 19 5 13 2 -7 2 -19 0 -25z m2104 9 c-10 -9 -11 -8 -5 6 3 10 9 15 12 12 3 -3 0 -11 -7 -18z m286 -9 c-3 -7 -5 -2 -5 12 0 14 2 19 5 13 2 -7 2 -19 0 -25z m554 5 c-12 -20 -14 -14 -5 12 4 9 9 14 11 11 3 -2 0 -13 -6 -23z m-3246 7 c3 -5 1 -10 -4 -10 -6 0 -11 5 -11 10 0 6 2 10 4 10 3 0 8 -4 11 -10z m2489 -30 c10 -13 9 -13 -6 -1 -10 7 -18 21 -17 30 0 13 1 14 6 1 3 -8 11 -22 17 -30z m-2458 4 c-11 -8 -25 -14 -30 -13 -6 0 -1 5 12 11 12 6 22 16 22 21 0 6 3 7 7 3 5 -4 -1 -14 -11 -22z m387 19 c-18 -2 -48 -2 -65 0 -18 2 -4 4 32 4 36 0 50 -2 33 -4z m2390 0 c-18 -2 -48 -2 -65 0 -18 2 -4 4 32 4 36 0 50 -2 33 -4z m354 1 c-3 -3 -12 -4 -19 -1 -8 3 -5 6 6 6 11 1 17 -2 13 -5z m-2400 -20 c-3 -3 -12 -4 -19 -1 -8 3 -5 6 6 6 11 1 17 -2 13 -5z m123 -30 c0 -11 -23 -14 -112 -12 l-113 2 108 3 c60 2 107 8 107 13 0 6 -4 10 -10 10 -5 0 -10 5 -10 11 0 8 5 8 15 -1 8 -7 15 -19 15 -26z m1420 21 c-7 -9 -15 -13 -19 -10 -3 3 1 10 9 15 21 14 24 12 10 -5z m861 6 c-8 -5 -20 -7 -28 -4 -21 8 -15 13 15 13 20 0 23 -3 13 -9z m-3251 -5 c0 -2 -7 -7 -16 -10 -8 -3 -12 -2 -9 4 6 10 25 14 25 6z m513 -3 c-24 -2 -62 -2 -85 0 -24 2 -5 4 42 4 47 0 66 -2 43 -4z m2385 0 c-21 -2 -57 -2 -80 0 -24 2 -7 4 37 4 44 0 63 -2 43 -4z m462 -8 c0 -12 -19 -12 -23 0 -4 9 -1 12 9 8 7 -3 14 -7 14 -8z m-3171 -18 c-10 -8 -41 -10 -109 -6 l-95 5 103 2 c70 1 102 6 102 14 0 6 3 8 7 4 4 -3 0 -12 -8 -19z m2339 -4 c-32 -2 -84 -2 -115 0 -32 2 -6 3 57 3 63 0 89 -1 58 -3z m760 0 c-26 -2 -71 -2 -100 0 -29 2 -8 3 47 3 55 0 79 -1 53 -3z"/>
<path d="M8974 765 c0 -71 1 -99 3 -62 2 37 2 96 0 130 -2 34 -3 4 -3 -68z"/>
<path d="M8990 765 l0 -35 80 0 80 0 0 35 0 35 -80 0 -80 0 0 -35z"/>
<path d="M6610 660 l0 -80 540 0 540 0 0 80 0 80 -540 0 -540 0 0 -80z"/>
<path d="M6278 713 c23 -2 61 -2 85 0 23 2 4 4 -43 4 -47 0 -66 -2 -42 -4z"/>
<path d="M8992 684 l3 -37 78 -1 77 -1 0 38 0 37 -81 0 -80 0 3 -36z"/>
<path d="M8990 595 l0 -35 80 0 80 0 0 35 0 35 -80 0 -80 0 0 -35z"/>
<path d="M8913 555 c0 -27 2 -38 4 -22 2 15 2 37 0 50 -2 12 -4 0 -4 -28z"/>
<path d="M6610 530 l0 -40 540 0 540 0 0 40 0 40 -540 0 -540 0 0 -40z"/>
<path d="M6610 450 l0 -30 540 0 540 0 0 30 0 30 -540 0 -540 0 0 -30z"/>
<path d="M6280 155 l0 -95 45 0 c25 0 45 5 45 10 0 6 -16 10 -36 10 -34 0 -35 1 -32 33 3 28 7 32 36 35 43 4 41 22 -4 22 -33 0 -35 2 -32 28 2 22 8 28 36 30 48 5 39 22 -13 22 l-45 0 0 -95z"/>
<path d="M6630 156 c0 -57 4 -96 10 -96 6 0 10 36 10 89 0 50 -4 93 -10 96 -6 4 -10 -28 -10 -89z"/>
<path d="M6870 236 c0 -9 5 -16 10 -16 6 0 10 4 10 9 0 6 -4 13 -10 16 -5 3 -10 -1 -10 -9z"/>
<path d="M7231 236 c-7 -8 -11 -27 -9 -43 2 -21 12 -32 41 -46 30 -14 38 -23 35 -40 -4 -31 -54 -37 -63 -8 -7 22 -25 29 -25 10 0 -29 22 -49 54 -49 40 0 59 19 54 57 -2 21 -12 33 -40 46 -25 12 -38 26 -38 38 0 30 30 36 50 11 10 -12 20 -18 24 -15 10 10 7 20 -10 37 -19 20 -58 21 -73 2z"/>
<path d="M7516 241 c-4 -7 -5 -15 -2 -18 9 -9 19 4 14 18 -4 11 -6 11 -12 0z"/>
<path d="M6798 213 c-9 -18 -13 -33 -8 -33 5 0 10 -26 12 -57 3 -51 6 -58 26 -61 25 -4 30 13 7 22 -10 4 -15 20 -15 51 0 36 3 45 18 45 16 1 16 2 1 13 -9 7 -18 21 -21 32 -3 17 -6 15 -20 -12z"/>
<path d="M7570 221 c0 -11 -6 -22 -12 -25 -10 -5 -10 -7 0 -12 7 -4 12 -27 12 -65 0 -52 2 -59 20 -59 11 0 20 5 20 10 0 6 -4 10 -10 10 -15 0 -12 97 3 104 10 5 10 7 0 12 -7 3 -13 14 -13 25 0 10 -4 19 -10 19 -5 0 -10 -9 -10 -19z"/>
<path d="M7740 150 c0 -99 17 -125 22 -32 3 49 6 57 23 57 17 0 20 -8 23 -57 4 -76 22 -75 22 1 0 64 -15 87 -50 78 -16 -4 -20 0 -20 19 0 13 -4 24 -10 24 -6 0 -10 -37 -10 -90z"/>
<path d="M6394 178 c4 -13 12 -44 18 -71 6 -26 17 -47 24 -47 11 0 58 130 49 138 -10 10 -24 -12 -30 -46 -11 -64 -21 -67 -34 -7 -7 30 -17 55 -23 55 -6 0 -8 -9 -4 -22z"/>
<path d="M6522 191 c-19 -11 -27 -83 -13 -110 8 -14 21 -21 41 -21 34 0 50 23 50 70 0 59 -36 88 -78 61z m52 -27 c20 -53 -7 -109 -38 -79 -17 17 -19 36 -10 73 7 25 39 30 48 6z"/>
<path d="M6682 133 l3 -68 43 -1 42 -1 0 69 c0 82 -18 91 -22 11 -3 -51 -6 -58 -25 -61 -22 -3 -23 0 -23 57 0 36 -4 61 -10 61 -7 0 -10 -25 -8 -67z"/>
<path d="M6870 130 c0 -40 4 -70 10 -70 6 0 10 30 10 70 0 40 -4 70 -10 70 -6 0 -10 -30 -10 -70z"/>
<path d="M6926 178 c-32 -45 -8 -118 38 -118 33 0 46 19 46 70 0 25 -5 51 -12 58 -19 19 -55 14 -72 -10z m62 -44 c4 -50 -17 -74 -42 -49 -29 29 -12 99 22 93 12 -2 18 -15 20 -44z"/>
<path d="M7040 128 c0 -82 18 -91 22 -10 3 49 6 57 23 57 17 0 20 -8 23 -57 2 -32 7 -58 12 -58 12 0 13 110 2 127 -4 7 -25 12 -45 11 l-37 -1 0 -69z"/>
<path d="M7340 190 c0 -16 29 -123 35 -129 9 -9 22 18 30 63 l8 41 11 -49 c13 -57 32 -70 42 -29 3 15 10 44 15 63 11 44 11 50 0 50 -5 0 -12 -15 -16 -32 -14 -72 -18 -75 -29 -24 -15 67 -32 69 -41 5 -8 -56 -19 -51 -30 13 -4 21 -11 38 -16 38 -5 0 -9 -4 -9 -10z"/>
<path d="M7510 130 c0 -40 4 -70 10 -70 6 0 10 30 10 70 0 40 -4 70 -10 70 -6 0 -10 -30 -10 -70z"/>
<path d="M7642 188 c-15 -15 -16 -100 0 -116 18 -18 56 -14 67 7 13 24 2 36 -14 14 -21 -28 -45 -9 -45 37 0 47 22 64 46 34 14 -18 14 -18 12 6 -2 18 -10 26 -28 28 -14 2 -31 -3 -38 -10z"/>
<path d="M7872 188 c-13 -13 -16 -85 -6 -112 8 -21 63 -21 71 -1 3 9 2 19 -2 23 -4 4 -10 1 -12 -5 -7 -20 -40 -15 -46 6 -6 25 0 31 35 31 23 0 28 4 28 23 0 27 -17 47 -40 47 -9 0 -21 -5 -28 -12z m48 -28 c0 -13 -7 -20 -20 -20 -13 0 -20 7 -20 20 0 13 7 20 20 20 13 0 20 -7 20 -20z"/>
<path d="M7970 128 c0 -39 4 -68 10 -68 6 0 10 22 10 50 0 39 4 53 20 62 28 18 25 27 -10 26 l-30 -1 0 -69z"/>
</g>
</svg>