<svg xmlns="http://www.w3.org/2000/svg" viewBox="20.90 59.00 663.10 190.00">
<g transform="translate(0.000000,768.000000) scale(0.100000,-0.100000)" fill="currentColor" stroke="none">
<path d="M1960 6985 c0 -47 0 -47 28 -39 15 5 54 8 87 9 53 0 60 -2 60 -20 0 -19 -8 -20 -292 -25 -344 -6 -318 3 -403 -138 -31 -51 -60 -96 -65 -101 -6 -6 -79 -17 -164 -25 -144 -15 -157 -18 -185 -43 -82 -76 -121 -151 -147 -284 -22 -113 -69 -420 -69 -449 0 -19 8 -20 133 -21 72 -1 170 -4 217 -8 71 -7 47 -9 -140 -12 l-225 -4 208 -2 c277 -4 277 -22 0 -25 l-208 -2 210 -6 210 -6 -207 -2 c-294 -3 -270 -21 32 -24 166 -2 250 1 273 9 22 8 135 12 358 12 l327 1 7 -135 c8 -155 8 -155 100 -155 70 0 73 7 76 157 1 59 4 114 6 121 4 9 110 12 484 12 l479 0 2 110 c0 61 1 121 1 135 0 14 -1 50 -1 80 l-2 55 -454 0 c-293 0 -457 4 -461 10 -4 7 207 10 625 10 l631 0 -3 130 -3 130 -633 3 -632 2 0 -324 c0 -178 -2 -322 -5 -319 -7 7 -8 879 -1 886 3 3 6 -47 6 -111 l0 -117 2055 0 c1130 0 2055 -4 2055 -8 0 -4 -602 -9 -1337 -10 -736 -1 -1373 -2 -1415 -2 l-78 0 0 -130 0 -130 950 0 950 0 0 101 c0 64 4 98 10 94 13 -8 13 -545 0 -565 -6 -10 -10 46 -10 168 l0 182 -180 0 -180 0 0 -185 c0 -117 -4 -185 -10 -185 -6 0 -10 68 -10 185 l0 185 -460 0 -460 0 0 -190 0 -190 664 0 c476 0 667 -3 672 -11 3 -6 8 -61 11 -123 6 -168 1 -160 82 -154 38 3 73 8 78 11 6 4 14 68 18 142 l7 135 360 0 c289 0 358 -2 350 -13 -6 -7 -12 -30 -14 -52 l-3 -40 -49 -3 c-56 -4 -66 5 -66 61 0 28 -4 37 -16 37 -15 0 -16 -13 -10 -122 4 -67 12 -130 17 -140 8 -14 22 -18 75 -18 60 0 65 2 74 26 6 14 10 79 10 145 l0 119 25 0 25 0 0 513 c0 537 -1 520 44 590 l18 27 -130 0 -131 0 -3 -32 -3 -33 -332 -3 -333 -2 0 35 0 35 -80 0 -79 0 -3 -57 -3 -58 -1450 0 -1450 0 -3 58 -3 57 -149 0 -150 0 0 27 c0 21 3 24 12 15 25 -25 45 -14 46 27 2 46 -13 61 -34 35 -11 -14 -17 -15 -20 -6 -7 15 -34 16 -34 1 0 -16 -146 -5 -166 11 -12 11 -14 5 -14 -35z m-394 -188 l36 -32 -34 -64 c-46 -89 -59 -95 -105 -48 l-38 37 34 62 c50 91 55 93 107 45z m671 -61 c3 -3 -120 -6 -273 -6 -209 0 -284 -3 -296 -12 -8 -7 -39 -57 -67 -110 -29 -54 -56 -98 -61 -98 -11 0 86 177 113 207 20 22 26 23 266 25 287 3 309 3 318 -6z m4063 -146 l0 -110 -2025 0 -2025 0 0 110 0 110 2025 0 2025 0 0 -110z m-4600 10 l0 -90 -39 0 c-64 0 -71 20 -31 93 62 115 70 115 70 -3z m198 -2 l3 -88 -91 0 -90 0 0 90 0 91 88 -3 87 -3 3 -87z m81 -246 c-1 -180 -5 -376 -9 -437 -4 -71 -7 48 -8 333 -1 293 1 441 8 437 6 -4 10 -125 9 -333z m179 241 l3 -83 -71 0 -70 0 0 78 c0 43 3 82 7 86 4 4 34 6 68 4 l60 -3 3 -82z m-118 -137 c0 -9 -30 -14 -35 -6 -4 6 3 10 14 10 12 0 21 -2 21 -4z m3593 -251 c-3 -307 -6 -396 -10 -352 l-4 37 -85 0 -84 0 0 -36 c0 -21 -4 -33 -10 -29 -11 7 -15 562 -4 590 5 13 22 15 103 13 l96 -3 -2 -220z m-2895 169 c51 -58 11 -154 -65 -154 -47 0 -93 45 -93 92 0 88 100 127 158 62z m2430 11 c39 -32 48 -74 28 -114 -56 -107 -211 -30 -165 81 12 29 55 57 91 58 9 0 30 -11 46 -25z m-1830 8 c-21 -2 -55 -2 -75 0 -21 2 -4 4 37 4 41 0 58 -2 38 -4z m580 0 c-21 -2 -55 -2 -75 0 -21 2 -4 4 37 4 41 0 58 -2 38 -4z m440 0 c-21 -2 -57 -2 -80 0 -24 2 -7 4 37 4 44 0 63 -2 43 -4z m280 0 c-21 -2 -57 -2 -80 0 -24 2 -7 4 37 4 44 0 63 -2 43 -4z m-253 -23 c4 -6 -22 -10 -70 -10 -48 0 -74 4 -70 10 3 6 35 10 70 10 35 0 67 -4 70 -10z m1285 -96 l0 -94 337 0 c231 0 334 -3 327 -10 -7 -7 -123 -10 -337 -8 l-327 3 0 -178 c0 -116 -3 -176 -10 -172 -6 4 -10 110 -10 286 0 184 3 278 10 274 6 -3 10 -48 10 -101z m-2332 89 c-21 -2 -55 -2 -75 0 -21 2 -4 4 37 4 41 0 58 -2 38 -4z m580 0 c-21 -2 -55 -2 -75 0 -21 2 -4 4 37 4 41 0 58 -2 38 -4z m720 0 c-21 -2 -57 -2 -80 0 -24 2 -7 4 37 4 44 0 63 -2 43 -4z m192 -53 l0 -61 -57 3 -58 3 -3 58 -3 57 61 0 60 0 0 -60z m-3652 38 c16 -16 16 -100 0 -116 -8 -8 -50 -12 -125 -12 -126 0 -133 4 -133 74 0 58 17 66 139 66 70 0 111 -4 119 -12z m2160 -5 c-21 -2 -55 -2 -75 0 -21 2 -4 4 37 4 41 0 58 -2 38 -4z m580 0 c-21 -2 -55 -2 -75 0 -21 2 -4 4 37 4 41 0 58 -2 38 -4z m440 0 c-21 -2 -57 -2 -80 0 -24 2 -7 4 37 4 44 0 63 -2 43 -4z m280 0 c-21 -2 -57 -2 -80 0 -24 2 -7 4 37 4 44 0 63 -2 43 -4z m-1300 -30 c-21 -2 -55 -2 -75 0 -21 2 -4 4 37 4 41 0 58 -2 38 -4z m580 0 c-21 -2 -55 -2 -75 0 -21 2 -4 4 37 4 41 0 58 -2 38 -4z m440 0 c-21 -2 -57 -2 -80 0 -24 2 -7 4 37 4 44 0 63 -2 43 -4z m280 0 c-21 -2 -57 -2 -80 0 -24 2 -7 4 37 4 44 0 63 -2 43 -4z m-1300 -20 c-21 -2 -55 -2 -75 0 -21 2 -4 4 37 4 41 0 58 -2 38 -4z m580 0 c-21 -2 -55 -2 -75 0 -21 2 -4 4 37 4 41 0 58 -2 38 -4z m440 0 c-21 -2 -57 -2 -80 0 -24 2 -7 4 37 4 44 0 63 -2 43 -4z m280 0 c-21 -2 -57 -2 -80 0 -24 2 -7 4 37 4 44 0 63 -2 43 -4z m-2810 -61 c2 -24 -1 -49 -7 -55 -5 -7 -33 -12 -63 -12 l-53 0 -3 44 c-5 68 0 72 65 69 l58 -3 3 -43z m1510 31 c-21 -2 -57 -2 -80 0 -24 2 -7 4 37 4 44 0 63 -2 43 -4z m580 0 c-21 -2 -55 -2 -75 0 -21 2 -4 4 37 4 41 0 58 -2 38 -4z m440 0 c-21 -2 -57 -2 -80 0 -24 2 -7 4 37 4 44 0 63 -2 43 -4z m280 0 c-21 -2 -57 -2 -80 0 -24 2 -7 4 37 4 44 0 63 -2 43 -4z m-1300 -20 c-21 -2 -55 -2 -75 0 -21 2 -4 4 37 4 41 0 58 -2 38 -4z m580 0 c-21 -2 -55 -2 -75 0 -21 2 -4 4 37 4 41 0 58 -2 38 -4z m440 0 c-21 -2 -57 -2 -80 0 -24 2 -7 4 37 4 44 0 63 -2 43 -4z m280 0 c-21 -2 -57 -2 -80 0 -24 2 -7 4 37 4 44 0 63 -2 43 -4z m-1300 -30 c-21 -2 -57 -2 -80 0 -24 2 -7 4 37 4 44 0 63 -2 43 -4z m580 0 c-21 -2 -55 -2 -75 0 -21 2 -4 4 37 4 41 0 58 -2 38 -4z m440 0 c-21 -2 -57 -2 -80 0 -24 2 -7 4 37 4 44 0 63 -2 43 -4z m280 0 c-21 -2 -57 -2 -80 0 -24 2 -7 4 37 4 44 0 63 -2 43 -4z m-2468 -63 c0 -6 -33 -10 -80 -10 -47 0 -80 4 -80 10 0 6 33 10 80 10 47 0 80 -4 80 -10z m4190 -172 c0 -100 -2 -179 -5 -176 -4 4 -10 323 -6 351 1 4 3 7 6 7 3 0 5 -82 5 -182z m-160 -3 c0 -110 -4 -175 -10 -175 -6 0 -10 65 -10 175 0 110 4 175 10 175 6 0 10 -65 10 -175z m-4178 80 l-4 -55 71 0 71 0 0 50 0 49 -57 4 c-57 4 -57 4 7 3 l65 -1 0 -60 0 -60 -82 -3 -83 -3 0 66 c0 36 3 65 8 65 4 0 5 -25 4 -55z m-1044 -92 c-10 -2 -28 -2 -40 0 -13 2 -5 4 17 4 22 1 32 -1 23 -4z m1197 -73 l0 -65 -79 -3 c-91 -3 -96 0 -96 69 0 63 11 70 100 67 l75 -3 0 -65z m-1190 50 c-3 -5 -20 -10 -36 -10 -18 0 -28 4 -24 10 3 6 20 10 36 10 18 0 28 -4 24 -10z m-7 -27 c-10 -2 -28 -2 -40 0 -13 2 -5 4 17 4 22 1 32 -1 23 -4z m0 -20 c-10 -2 -28 -2 -40 0 -13 2 -5 4 17 4 22 1 32 -1 23 -4z m0 -20 c-10 -2 -26 -2 -35 0 -10 3 -2 5 17 5 19 0 27 -2 18 -5z m1172 -137 l0 -44 -54 -4 -54 -3 -5 35 c-6 54 -1 60 59 60 l54 0 0 -44z m3444 22 c15 -59 10 -66 -54 -70 l-60 -3 0 48 0 47 54 0 c47 0 54 -3 60 -22z m-3468 -108 c23 0 24 -3 24 -71 l0 -70 -52 3 -53 3 0 70 c0 67 1 70 23 68 15 -2 22 3 23 15 1 16 2 16 6 0 3 -11 14 -18 29 -18z m3464 -62 l0 -68 -55 0 -55 0 0 68 0 68 55 0 55 0 0 -68z m740 -3 l0 -65 -54 0 -55 0 -6 54 c-4 30 -4 59 0 65 3 6 31 11 61 11 l54 0 0 -65z"/>
<path d="M2270 6665 l0 -25 105 0 105 0 0 25 0 25 -105 0 -105 0 0 -25z"/>
<path d="M2492 6668 c3 -22 8 -23 104 -26 86 -2 103 0 108 14 11 29 -4 34 -110 34 -104 0 -105 0 -102 -22z"/>
<path d="M2720 6665 l0 -25 105 0 105 0 0 25 0 25 -105 0 -105 0 0 -25z"/>
<path d="M2940 6665 l0 -26 108 3 c99 3 107 4 107 23 0 19 -8 20 -107 23 l-108 3 0 -26z"/>
<path d="M3170 6665 l0 -26 103 3 c97 3 102 4 105 26 3 22 2 22 -102 22 l-106 0 0 -25z"/>
<path d="M3390 6665 l0 -25 105 0 105 0 0 25 0 25 -105 0 -105 0 0 -25z"/>
<path d="M3610 6665 l0 -25 105 0 105 0 0 25 0 25 -105 0 -105 0 0 -25z"/>
<path d="M3833 6674 c-11 -28 12 -35 113 -32 94 3 99 4 102 26 3 22 2 22 -103 22 -87 0 -107 -3 -112 -16z"/>
<path d="M4060 6665 l0 -25 105 0 105 0 0 25 0 25 -105 0 -105 0 0 -25z"/>
<path d="M4280 6665 l0 -25 105 0 105 0 0 25 0 25 -105 0 -105 0 0 -25z"/>
<path d="M4510 6665 l0 -26 103 3 c97 3 102 4 105 26 3 22 2 22 -102 22 l-106 0 0 -25z"/>
<path d="M4730 6665 l0 -25 105 0 105 0 0 25 0 25 -105 0 -105 0 0 -25z"/>
<path d="M4952 6668 c3 -22 8 -23 106 -26 l102 -3 0 26 0 25 -106 0 c-104 0 -105 0 -102 -22z"/>
<path d="M5178 6684 c-3 -3 -4 -14 -1 -25 5 -17 15 -19 109 -19 l104 0 0 25 0 25 -103 0 c-57 0 -106 -3 -109 -6z"/>
<path d="M5400 6665 l0 -25 105 0 105 0 0 25 0 25 -105 0 -105 0 0 -25z"/>
<path d="M5622 6668 c3 -22 8 -23 106 -26 l102 -3 0 26 0 25 -106 0 c-104 0 -105 0 -102 -22z"/>
<path d="M5850 6665 l0 -25 105 0 105 0 0 25 0 25 -105 0 -105 0 0 -25z"/>
<path d="M6070 6665 l0 -25 105 0 105 0 0 25 0 25 -105 0 -105 0 0 -25z"/>
<path d="M2323 6623 c32 -2 81 -2 110 0 29 2 3 3 -58 3 -60 0 -84 -1 -52 -3z"/>
<path d="M2548 6623 c28 -2 76 -2 105 0 28 2 5 3 -53 3 -58 0 -81 -1 -52 -3z"/>
<path d="M2778 6623 c28 -2 76 -2 105 0 28 2 5 3 -53 3 -58 0 -81 -1 -52 -3z"/>
<path d="M2993 6623 c32 -2 81 -2 110 0 29 2 3 3 -58 3 -60 0 -84 -1 -52 -3z"/>
<path d="M3223 6623 c32 -2 81 -2 110 0 29 2 3 3 -58 3 -60 0 -84 -1 -52 -3z"/>
<path d="M3443 6623 c32 -2 81 -2 110 0 29 2 3 3 -58 3 -60 0 -84 -1 -52 -3z"/>
<path d="M3663 6623 c32 -2 81 -2 110 0 29 2 3 3 -58 3 -60 0 -84 -1 -52 -3z"/>
<path d="M3933 6623 c20 -2 54 -2 75 0 20 2 3 4 -38 4 -41 0 -58 -2 -37 -4z"/>
<path d="M4113 6623 c32 -2 81 -2 110 0 29 2 3 3 -58 3 -60 0 -84 -1 -52 -3z"/>
<path d="M4333 6623 c32 -2 81 -2 110 0 29 2 3 3 -58 3 -60 0 -84 -1 -52 -3z"/>
<path d="M4563 6623 c32 -2 81 -2 110 0 29 2 3 3 -58 3 -60 0 -84 -1 -52 -3z"/>
<path d="M4783 6623 c32 -2 81 -2 110 0 29 2 3 3 -58 3 -60 0 -84 -1 -52 -3z"/>
<path d="M5008 6623 c28 -2 76 -2 105 0 28 2 5 3 -53 3 -58 0 -81 -1 -52 -3z"/>
<path d="M5233 6623 c32 -2 81 -2 110 0 29 2 3 3 -58 3 -60 0 -84 -1 -52 -3z"/>
<path d="M5453 6623 c32 -2 81 -2 110 0 29 2 3 3 -58 3 -60 0 -84 -1 -52 -3z"/>
<path d="M5683 6623 c32 -2 81 -2 110 0 29 2 3 3 -58 3 -60 0 -84 -1 -52 -3z"/>
<path d="M5903 6623 c32 -2 81 -2 110 0 29 2 3 3 -58 3 -60 0 -84 -1 -52 -3z"/>
<path d="M6123 6623 c32 -2 81 -2 110 0 29 2 3 3 -58 3 -60 0 -84 -1 -52 -3z"/>
<path d="M2270 6590 c0 -19 7 -20 105 -20 98 0 105 1 105 20 0 19 -7 20 -105 20 -98 0 -105 -1 -105 -20z"/>
<path d="M2490 6590 c0 -20 5 -21 107 -18 93 3 108 5 111 21 3 15 -7 17 -107 17 -105 0 -111 -1 -111 -20z"/>
<path d="M2720 6590 c0 -19 7 -20 105 -20 98 0 105 1 105 20 0 19 -7 20 -105 20 -98 0 -105 -1 -105 -20z"/>
<path d="M2940 6590 c0 -19 7 -20 105 -20 75 0 105 3 105 12 0 9 3 9 12 0 8 -8 48 -12 115 -12 96 0 103 1 103 20 0 19 -7 20 -220 20 -213 0 -220 -1 -220 -20z"/>
<path d="M3390 6590 c0 -19 7 -20 105 -20 98 0 105 1 105 20 0 19 -7 20 -105 20 -98 0 -105 -1 -105 -20z"/>
<path d="M3610 6590 c0 -19 7 -20 105 -20 98 0 105 1 105 20 0 19 -7 20 -105 20 -98 0 -105 -1 -105 -20z"/>
<path d="M3832 6593 c3 -16 18 -18 111 -21 102 -3 107 -2 107 18 0 19 -6 20 -111 20 -100 0 -110 -2 -107 -17z"/>
<path d="M4060 6590 c0 -19 7 -20 105 -20 98 0 105 1 105 20 0 19 -7 20 -105 20 -98 0 -105 -1 -105 -20z"/>
<path d="M4280 6590 c0 -19 7 -20 104 -20 101 0 116 5 116 36 0 2 -49 4 -110 4 -103 0 -110 -1 -110 -20z"/>
<path d="M4510 6590 c0 -19 7 -20 105 -20 98 0 105 1 105 20 0 19 -7 20 -105 20 -98 0 -105 -1 -105 -20z"/>
<path d="M4730 6590 c0 -19 7 -20 105 -20 98 0 105 1 105 20 0 19 -7 20 -105 20 -98 0 -105 -1 -105 -20z"/>
<path d="M4950 6590 c0 -19 7 -20 105 -20 93 0 105 2 105 18 1 16 1 16 11 0 8 -15 26 -18 114 -18 98 0 105 1 105 20 0 19 -7 20 -220 20 -213 0 -220 -1 -220 -20z"/>
<path d="M5400 6590 c0 -19 7 -20 105 -20 98 0 105 1 105 20 0 19 -7 20 -105 20 -98 0 -105 -1 -105 -20z"/>
<path d="M5620 6590 c0 -19 7 -20 104 -20 101 0 116 5 116 36 0 2 -49 4 -110 4 -103 0 -110 -1 -110 -20z"/>
<path d="M5850 6590 c0 -19 7 -20 105 -20 98 0 105 1 105 20 0 19 -7 20 -105 20 -98 0 -105 -1 -105 -20z"/>
<path d="M6070 6590 c0 -19 7 -20 105 -20 98 0 105 1 105 20 0 19 -7 20 -105 20 -98 0 -105 -1 -105 -20z"/>
<path d="M2323 6553 c32 -2 81 -2 110 0 29 2 3 3 -58 3 -60 0 -84 -1 -52 -3z"/>
<path d="M2548 6553 c28 -2 76 -2 105 0 28 2 5 3 -53 3 -58 0 -81 -1 -52 -3z"/>
<path d="M2773 6553 c32 -2 81 -2 110 0 29 2 3 3 -58 3 -60 0 -84 -1 -52 -3z"/>
<path d="M2993 6553 c32 -2 81 -2 110 0 29 2 3 3 -58 3 -60 0 -84 -1 -52 -3z"/>
<path d="M3223 6553 c32 -2 81 -2 110 0 29 2 3 3 -58 3 -60 0 -84 -1 -52 -3z"/>
<path d="M3443 6553 c32 -2 81 -2 110 0 29 2 3 3 -58 3 -60 0 -84 -1 -52 -3z"/>
<path d="M3663 6553 c32 -2 81 -2 110 0 29 2 3 3 -58 3 -60 0 -84 -1 -52 -3z"/>
<path d="M3888 6553 c28 -2 76 -2 105 0 28 2 5 3 -53 3 -58 0 -81 -1 -52 -3z"/>
<path d="M4113 6553 c32 -2 81 -2 110 0 29 2 3 3 -58 3 -60 0 -84 -1 -52 -3z"/>
<path d="M4333 6553 c31 -2 83 -2 115 0 31 2 5 3 -58 3 -63 0 -89 -1 -57 -3z"/>
<path d="M4563 6553 c32 -2 81 -2 110 0 29 2 3 3 -58 3 -60 0 -84 -1 -52 -3z"/>
<path d="M4783 6553 c32 -2 81 -2 110 0 29 2 3 3 -58 3 -60 0 -84 -1 -52 -3z"/>
<path d="M5003 6553 c32 -2 81 -2 110 0 29 2 3 3 -58 3 -60 0 -84 -1 -52 -3z"/>
<path d="M5233 6553 c32 -2 81 -2 110 0 29 2 3 3 -58 3 -60 0 -84 -1 -52 -3z"/>
<path d="M5453 6553 c32 -2 81 -2 110 0 29 2 3 3 -58 3 -60 0 -84 -1 -52 -3z"/>
<path d="M5678 6553 c28 -2 76 -2 105 0 28 2 5 3 -53 3 -58 0 -81 -1 -52 -3z"/>
<path d="M5903 6553 c32 -2 81 -2 110 0 29 2 3 3 -58 3 -60 0 -84 -1 -52 -3z"/>
<path d="M6123 6553 c32 -2 81 -2 110 0 29 2 3 3 -58 3 -60 0 -84 -1 -52 -3z"/>
<path d="M2270 6520 c0 -19 7 -20 105 -20 98 0 105 1 105 20 0 19 -7 20 -105 20 -98 0 -105 -1 -105 -20z"/>
<path d="M2495 6530 c-14 -23 11 -30 108 -30 96 0 103 1 104 20 2 19 -4 20 -102 20 -58 0 -107 -4 -110 -10z"/>
<path d="M2720 6520 c0 -19 7 -20 105 -20 98 0 105 1 105 20 0 19 -7 20 -105 20 -98 0 -105 -1 -105 -20z"/>
<path d="M2940 6520 c0 -19 7 -20 105 -20 98 0 105 1 105 20 0 19 -7 20 -105 20 -98 0 -105 -1 -105 -20z"/>
<path d="M3170 6520 c0 -19 7 -20 105 -20 98 0 105 1 105 20 0 19 -7 20 -105 20 -98 0 -105 -1 -105 -20z"/>
<path d="M3390 6520 c0 -19 7 -20 105 -20 98 0 105 1 105 20 0 19 -7 20 -105 20 -98 0 -105 -1 -105 -20z"/>
<path d="M3610 6520 c0 -19 7 -20 105 -20 98 0 105 1 105 20 0 19 -7 20 -105 20 -98 0 -105 -1 -105 -20z"/>
<path d="M3830 6520 c0 -19 7 -20 110 -20 103 0 110 1 110 20 0 19 -7 20 -110 20 -103 0 -110 -1 -110 -20z"/>
<path d="M4060 6520 c0 -19 7 -20 105 -20 98 0 105 1 105 20 0 19 -7 20 -105 20 -98 0 -105 -1 -105 -20z"/>
<path d="M4280 6520 c0 -20 5 -21 107 -18 93 3 108 5 111 21 3 15 -7 17 -107 17 -105 0 -111 -1 -111 -20z"/>
<path d="M4510 6520 c0 -19 7 -20 105 -20 98 0 105 1 105 20 0 19 -7 20 -105 20 -98 0 -105 -1 -105 -20z"/>
<path d="M4730 6520 c0 -19 7 -20 105 -20 98 0 105 1 105 20 0 19 -7 20 -105 20 -98 0 -105 -1 -105 -20z"/>
<path d="M4950 6520 c0 -19 7 -20 103 -20 57 0 106 3 110 6 3 3 3 12 0 20 -4 11 -29 14 -109 14 -97 0 -104 -1 -104 -20z"/>
<path d="M5180 6520 c0 -19 7 -20 105 -20 98 0 105 1 105 20 0 19 -7 20 -105 20 -98 0 -105 -1 -105 -20z"/>
<path d="M5400 6520 c0 -19 7 -20 105 -20 98 0 105 1 105 20 0 19 -7 20 -105 20 -98 0 -105 -1 -105 -20z"/>
<path d="M5620 6520 c0 -19 7 -20 110 -20 103 0 110 1 110 20 0 19 -7 20 -110 20 -103 0 -110 -1 -110 -20z"/>
<path d="M5850 6520 c0 -19 7 -20 105 -20 98 0 105 1 105 20 0 19 -7 20 -105 20 -98 0 -105 -1 -105 -20z"/>
<path d="M6070 6520 c0 -19 7 -20 105 -20 98 0 105 1 105 20 0 19 -7 20 -105 20 -98 0 -105 -1 -105 -20z"/>
<path d="M5454 6411 c-2 -2 -4 -116 -4 -252 l0 -248 85 -3 85 -3 0 255 0 255 -81 0 c-44 0 -82 -2 -85 -4z m39 -258 c-7 -2 -19 -2 -25 0 -7 3 -2 5 12 5 14 0 19 -2 13 -5z"/>
<path d="M4729 6348 c-7 -85 -8 -83 44 -86 l47 -3 0 50 0 51 -45 0 c-29 0 -45 -4 -46 -12z"/>
<path d="M946 6334 c-18 -18 -21 -56 -6 -85 10 -17 22 -19 113 -19 67 0 107 4 115 12 7 7 12 29 12 50 0 49 -21 58 -135 58 -63 0 -88 -4 -99 -16z"/>
<path d="M1717 6263 c-4 -3 -7 -24 -7 -45 0 -31 3 -38 20 -38 17 0 20 7 20 45 0 43 -14 58 -33 38z"/>
<path d="M1760 6260 c0 -5 5 -10 10 -10 6 0 10 -12 9 -27 l-1 -28 -8 25 c-5 15 -8 18 -9 8 -2 -28 10 -48 30 -48 16 0 19 8 19 45 0 41 -2 45 -25 45 -14 0 -25 -4 -25 -10z"/>
<path d="M2020 5890 l0 -60 70 0 71 0 -3 58 -3 57 -67 3 -68 3 0 -61z"/>
<path d="M2050 5715 c0 -11 12 -15 45 -15 33 0 45 4 45 15 0 11 -12 15 -45 15 -33 0 -45 -4 -45 -15z"/>
<path d="M5490 5715 c0 -11 12 -15 45 -15 33 0 45 4 45 15 0 11 -12 15 -45 15 -33 0 -45 -4 -45 -15z"/>
<path d="M2050 5605 c0 -26 4 -35 16 -35 12 0 15 7 12 30 -2 16 0 32 6 34 6 2 1 5 -11 5 -20 1 -23 -4 -23 -34z"/>
<path d="M2102 5628 c-19 -19 -15 -55 7 -61 26 -6 31 0 31 40 0 34 -16 43 -38 21z"/>
<path d="M2050 5545 c0 -11 12 -15 45 -15 26 0 45 5 45 11 0 6 -6 9 -14 6 -7 -3 -19 0 -25 6 -8 8 -11 8 -11 -1 0 -7 -5 -12 -11 -12 -5 0 -7 5 -4 10 3 6 -1 10 -9 10 -9 0 -16 -7 -16 -15z"/>
<path d="M5522 5633 c-29 -4 -33 -8 -30 -31 3 -23 7 -27 35 -26 30 2 32 0 27 -23 -5 -19 -3 -24 7 -21 19 6 26 109 7 106 -7 0 -28 -3 -46 -5z m35 -35 c-3 -7 -5 -2 -5 12 0 14 2 19 5 13 2 -7 2 -19 0 -25z"/>
<path d="M5490 5545 c0 -9 9 -15 25 -15 16 0 25 6 25 15 0 9 -9 15 -25 15 -16 0 -25 -6 -25 -15z"/>
<path d="M6230 5606 c0 -36 0 -36 46 -36 45 0 45 0 42 33 -3 30 -6 32 -45 35 l-43 3 0 -35z"/>
<path d="M3858 6960 c-6 -38 -3 -40 44 -40 37 0 38 1 38 35 0 34 -1 35 -39 35 -35 0 -39 -3 -43 -30z"/>
<path d="M4690 6955 c0 -34 1 -35 40 -35 39 0 40 1 40 35 0 34 -1 35 -40 35 -39 0 -40 -1 -40 -35z"/>
<path d="M3563 6947 c-24 -5 -43 -14 -43 -18 0 -5 71 -9 157 -9 158 0 180 7 91 29 -56 13 -146 13 -205 -2z"/>
<path d="M4020 6948 c-77 -21 -52 -28 105 -28 87 0 155 4 150 8 -33 29 -182 41 -255 20z"/>
<path d="M4388 6947 c-21 -6 -38 -14 -38 -19 0 -4 71 -8 157 -8 86 0 153 4 148 8 -34 30 -190 41 -267 19z"/>
<path d="M4848 6946 c-20 -6 -40 -14 -44 -18 -4 -5 66 -8 156 -8 93 0 160 4 155 9 -32 28 -196 39 -267 17z"/>
<path d="M5544 6924 c3 -9 6 -27 6 -40 l0 -24 320 0 320 0 0 24 c0 13 3 33 6 43 5 17 5 17 -9 1 -13 -16 -41 -18 -321 -18 -265 0 -306 2 -306 15 0 8 -5 15 -11 15 -6 0 -8 -7 -5 -16z"/>
<path d="M2484 6894 c3 -9 6 -31 6 -50 l0 -34 375 0 375 0 0 50 0 50 -381 0 c-343 0 -381 -2 -375 -16z"/>
<path d="M3250 6860 l0 -50 1058 0 1058 0 2 50 2 50 -1060 0 -1060 0 0 -50z"/>
<path d="M6427 6703 c-4 -3 -7 -208 -7 -455 l0 -448 48 0 47 0 -2 432 c-2 238 -3 443 -3 456 0 19 -5 22 -38 22 -21 0 -42 -3 -45 -7z"/>
<path d="M884 6617 c-3 -8 -4 -54 -2 -103 l3 -89 28 54 c16 29 49 76 74 102 l46 49 -72 0 c-50 0 -73 -4 -77 -13z"/>
<path d="M3170 5970 l0 -190 458 2 457 3 3 188 2 187 -460 0 -460 0 0 -190z"/>
<path d="M747 5833 c-3 -5 -3 -21 -2 -38 2 -16 3 -36 4 -42 1 -7 10 -13 21 -13 17 0 20 7 20 50 0 43 -3 50 -19 50 -11 0 -22 -3 -24 -7z"/>
<path d="M2700 5753 c42 -17 96 -67 116 -105 l15 -28 852 0 852 1 27 44 c17 29 45 54 80 74 l53 31 -168 0 c-140 0 -169 -2 -173 -15 -5 -11 -23 -15 -75 -15 -55 0 -69 3 -69 15 0 12 -19 15 -109 15 -115 0 -121 -2 -121 -51 0 -10 -5 -19 -11 -19 -7 0 -10 14 -7 35 4 31 1 35 -19 35 -13 0 -24 -3 -24 -7 -1 -5 -3 -18 -4 -31 -4 -38 -15 -38 -15 1 l0 37 -320 0 c-278 0 -320 -2 -320 -15 0 -13 -21 -15 -130 -15 -109 0 -130 2 -130 15 0 13 -25 15 -167 14 -159 -1 -166 -1 -133 -16z m1358 -32 c21 -13 10 -46 -16 -49 -24 -4 -38 18 -28 43 6 17 24 19 44 6z"/>
<path d="M4025 5710 c-7 -12 2 -30 16 -30 5 0 9 9 9 20 0 21 -15 27 -25 10z"/>
<path d="M3010 5760 c0 -6 47 -10 120 -10 73 0 120 4 120 10 0 6 -47 10 -120 10 -73 0 -120 -4 -120 -10z"/>
<path d="M4230 5760 c0 -5 25 -10 55 -10 30 0 55 5 55 10 0 6 -25 10 -55 10 -30 0 -55 -4 -55 -10z"/>
<path d="M6090 5767 c0 -5 68 -47 76 -47 3 0 4 10 2 23 -2 18 -10 23 -40 25 -21 2 -38 1 -38 -1z"/>
<path d="M6230 5727 l0 -42 45 3 45 4 0 39 0 39 -45 0 -45 0 0 -43z"/>
<path d="M6376 5733 c-3 -21 -6 -69 -6 -106 0 -58 2 -67 17 -65 12 2 26 -16 50 -65 26 -54 40 -71 68 -83 44 -18 55 -18 55 1 0 8 -9 15 -19 15 -29 0 -55 28 -94 103 -32 59 -34 67 -18 67 10 0 21 -9 24 -20 4 -17 14 -20 67 -20 l61 0 -3 73 -3 72 -58 1 c-33 0 -61 -5 -65 -11 -4 -6 -15 -14 -24 -18 -16 -6 -18 0 -18 43 0 61 -24 70 -34 13z"/>
<path d="M813 5727 c2 -12 8 -29 11 -38 11 -25 -21 -32 -43 -10 -15 15 -32 19 -77 17 l-59 -1 0 -65 0 -65 63 -3 c49 -2 64 0 68 13 3 8 15 15 25 15 19 0 19 -1 -2 -42 -22 -44 -89 -197 -89 -204 0 -2 49 -4 110 -4 l110 0 26 40 c25 38 30 40 75 40 l49 0 0 58 c0 43 7 72 25 108 14 27 25 50 25 51 0 1 -64 4 -142 5 -83 2 -143 7 -145 13 -2 7 50 8 149 5 l153 -5 35 30 c19 17 46 38 60 47 24 17 15 17 -204 17 l-228 0 5 -22z m257 -252 c0 -35 0 -35 -45 -35 -45 0 -45 0 -45 35 0 35 0 35 45 35 45 0 45 0 45 -35z"/>
<path d="M1457 5724 c-4 -4 -7 -24 -7 -45 0 -35 2 -39 34 -44 60 -12 71 -5 71 45 l0 45 -45 3 c-25 2 -49 0 -53 -4z"/>
<path d="M1620 5720 c0 -6 68 -10 185 -10 117 0 185 4 185 10 0 6 -68 10 -185 10 -117 0 -185 -4 -185 -10z"/>
<path d="M2200 5719 c0 -5 6 -9 14 -9 8 0 18 -5 22 -12 4 -6 3 -8 -2 -5 -11 6 -42 -9 -34 -16 3 -3 26 -7 53 -10 47 -6 47 -6 47 24 0 26 -2 29 -19 19 -25 -13 -32 -13 -28 2 1 6 -10 13 -25 14 -16 2 -28 -1 -28 -7z"/>
<path d="M2317 5723 c-4 -3 -7 -23 -7 -44 0 -32 4 -40 24 -45 13 -3 37 -4 52 -2 27 3 29 6 32 51 l3 47 -49 0 c-27 0 -52 -3 -55 -7z"/>
<path d="M4960 5680 l0 -50 50 0 50 0 0 50 0 50 -50 0 -50 0 0 -50z"/>
<path d="M5120 5720 c0 -6 58 -10 155 -10 97 0 155 4 155 10 0 6 -58 10 -155 10 -97 0 -155 -4 -155 -10z"/>
<path d="M5640 5720 c0 -6 27 -10 60 -10 33 0 60 4 60 10 0 6 -27 10 -60 10 -33 0 -60 -4 -60 -10z"/>
<path d="M5827 5718 c-2 -7 -4 -29 -3 -48 l1 -35 50 0 50 0 3 48 3 47 -49 0 c-31 0 -52 -5 -55 -12z"/>
<path d="M4905 5706 c-16 -6 -32 -13 -35 -16 -27 -28 -56 -44 -88 -49 -33 -6 -37 -10 -40 -39 -3 -30 -1 -32 28 -32 34 0 41 -11 67 -118 12 -48 20 -62 32 -60 13 3 15 15 13 62 -1 36 3 69 13 89 14 30 18 32 62 28 59 -4 84 -30 82 -86 -3 -82 0 -95 21 -95 15 0 20 7 20 28 0 32 31 102 52 120 9 7 44 17 79 23 34 5 66 12 71 15 4 3 7 -16 6 -43 -1 -44 -2 -45 -5 -10 -6 53 -27 42 -33 -16 -3 -26 -3 -47 0 -47 4 0 12 -12 18 -26 7 -14 17 -22 22 -19 6 3 10 -4 10 -17 0 -54 14 -59 149 -56 l125 3 8 30 c4 16 14 34 21 40 22 16 37 51 37 87 l0 33 -13 -25 c-7 -14 -23 -26 -35 -28 -18 -3 -22 -10 -22 -41 0 -64 -17 -76 -112 -79 -46 -2 -95 1 -110 7 l-28 11 0 119 c0 112 -1 119 -21 124 -31 8 -21 41 14 45 15 2 27 -1 27 -7 0 -6 20 -11 45 -11 38 0 45 3 45 20 0 19 -7 20 -95 20 -64 0 -103 -5 -118 -14 -12 -7 -47 -16 -76 -20 -34 -3 -58 -11 -63 -21 -7 -11 -26 -15 -68 -15 -56 0 -59 1 -62 27 -2 19 -9 27 -25 28 -36 3 -40 15 -5 15 18 0 32 4 32 9 0 16 -14 18 -45 7z m355 -70 c0 -11 -19 -15 -25 -6 -3 5 1 10 9 10 9 0 16 -2 16 -4z m-239 -36 c22 0 29 -5 29 -20 0 -12 -7 -20 -16 -20 -13 0 -14 3 -5 14 10 11 -2 14 -70 15 -53 1 -78 -2 -74 -9 3 -5 1 -10 -4 -10 -6 0 -11 4 -11 10 0 19 36 30 79 25 24 -3 57 -5 72 -5z"/>
<path d="M5074 5705 c-11 -28 3 -45 33 -40 15 2 45 7 66 10 48 8 38 25 -14 25 -22 0 -49 5 -60 10 -15 9 -21 7 -25 -5z"/>
<path d="M5783 5709 c-7 -7 -29 -12 -50 -13 -65 -2 -53 -21 15 -24 61 -3 62 -2 62 23 0 27 -9 32 -27 14z"/>
<path d="M5940 5705 c0 -7 8 -16 18 -18 15 -4 15 -5 0 -6 -10 -1 -18 -11 -20 -28 -3 -26 -6 -28 -58 -31 -41 -2 -57 1 -66 13 -7 10 -34 18 -75 21 -37 4 -69 12 -75 20 -19 24 -27 16 -21 -21 3 -19 2 -37 -3 -40 -13 -8 0 -44 19 -49 9 -2 32 -7 52 -10 47 -8 63 -28 84 -101 21 -71 18 -67 39 -59 13 5 16 19 15 70 -1 36 3 69 10 78 9 11 7 15 -9 19 -11 3 -20 12 -20 21 0 12 9 16 33 15 30 -2 30 -2 5 -6 -52 -8 -28 -23 37 -23 58 0 66 -3 81 -25 12 -18 15 -38 11 -67 -3 -22 -1 -51 4 -64 11 -31 39 -32 39 -1 0 36 30 130 48 150 8 9 23 17 33 17 10 0 19 9 22 23 2 12 5 3 6 -21 1 -39 0 -42 -15 -28 -8 9 -17 16 -19 16 -2 0 -3 -28 -3 -62 0 -59 -16 -127 -28 -116 -2 3 0 17 6 32 13 35 14 134 0 120 -13 -13 -43 -132 -36 -143 4 -5 -9 -19 -28 -30 -26 -16 -50 -21 -104 -21 -97 0 -116 10 -130 71 -15 64 -39 119 -51 119 -14 0 -2 -100 16 -128 20 -32 9 -40 -11 -9 -9 13 -20 51 -24 83 -7 57 -8 59 -39 62 -32 3 -33 2 -33 -35 0 -21 7 -51 15 -67 20 -38 19 -46 -5 -46 -11 0 -20 -7 -20 -15 0 -12 14 -15 69 -15 38 0 71 -4 73 -9 2 -5 21 -20 42 -35 l39 -26 -424 0 -424 0 40 23 c26 15 48 38 62 67 23 46 39 118 31 142 -7 19 -46 -62 -54 -110 -9 -55 -41 -72 -136 -72 -54 0 -80 5 -101 18 -15 10 -25 21 -23 23 6 5 -29 148 -38 157 -13 13 -5 -111 9 -138 9 -17 11 -30 6 -30 -17 0 -44 100 -37 141 5 31 3 39 -9 39 -8 0 -15 -4 -15 -10 0 -5 -5 -10 -11 -10 -7 0 -10 20 -7 55 3 57 -7 70 -33 39 -19 -24 -17 -161 5 -201 14 -29 15 -33 1 -33 -8 0 -15 -7 -15 -15 0 -12 13 -15 56 -15 47 0 62 -5 94 -30 21 -16 43 -30 49 -30 6 0 11 -3 11 -7 0 -5 -548 -7 -1217 -5 -1109 2 -1215 4 -1188 18 17 8 39 23 50 33 14 13 39 19 80 20 68 2 77 7 52 26 -17 12 -17 16 -3 59 16 47 21 140 10 170 -4 9 -15 21 -26 27 -18 10 -19 8 -13 -13 6 -19 5 -21 -6 -10 -7 6 -25 12 -40 12 -22 0 -73 29 -89 51 -9 13 -80 22 -80 10 0 -6 17 -12 38 -12 l37 -2 -35 -6 c-29 -5 -36 -11 -38 -33 -3 -27 -5 -28 -62 -28 -39 0 -62 5 -67 14 -4 7 -32 16 -60 20 l-53 7 0 -50 c0 -47 1 -50 31 -56 34 -8 61 -54 74 -127 8 -40 11 -43 35 -28 10 6 14 25 12 66 -2 42 2 62 14 75 16 18 16 19 -4 19 -12 0 -22 5 -22 11 0 5 5 7 12 3 6 -4 33 -6 59 -5 68 2 89 -22 87 -99 -2 -60 5 -80 26 -80 8 0 16 18 20 48 3 26 16 68 29 93 17 35 28 44 49 45 18 1 28 -5 31 -18 3 -10 1 -18 -4 -18 -5 0 -9 5 -9 10 0 6 -7 10 -15 10 -12 0 -15 -14 -15 -62 0 -75 -16 -112 -50 -116 -13 -2 -33 -10 -44 -18 -26 -18 -152 -19 -185 -1 -18 9 -29 28 -41 72 -9 33 -23 71 -31 85 -14 25 -14 25 -17 -18 -2 -28 4 -57 16 -83 11 -21 16 -39 11 -39 -15 0 -38 55 -45 108 -3 29 -9 52 -13 52 -9 -1 -51 -70 -51 -85 0 -8 5 -17 10 -20 17 -10 11 -32 -10 -38 -11 -3 -20 -10 -20 -16 0 -7 26 -11 69 -11 52 0 72 -4 82 -17 8 -9 28 -24 44 -35 29 -18 22 -18 -390 -18 -312 1 -415 3 -400 12 64 35 105 104 105 174 0 39 -2 45 -14 34 -18 -14 -37 -69 -38 -107 -1 -41 -50 -63 -141 -63 -81 0 -117 17 -117 54 0 32 -27 118 -44 141 -13 17 -18 18 -35 8 -18 -12 -21 -10 -27 21 -3 19 -3 44 1 55 8 28 -20 29 -35 2 -15 -29 -12 -147 5 -188 14 -33 14 -38 0 -45 -31 -18 -13 -28 46 -28 52 0 66 -4 94 -27 17 -16 40 -32 49 -38 12 -7 -167 -10 -551 -10 l-568 0 -3 -27 -3 -28 3265 0 3266 0 0 30 0 30 -407 0 c-376 0 -406 1 -378 16 16 8 38 22 47 31 10 9 41 17 74 19 68 4 83 12 59 30 -16 12 -17 17 -5 38 10 20 10 42 0 120 -7 53 -16 96 -21 96 -5 0 -9 -4 -9 -10 0 -27 -111 21 -133 57 -5 7 -12 11 -17 8 -4 -3 -20 -1 -34 5 -20 7 -26 6 -26 -5z m67 -21 c-3 -3 -12 -4 -19 -1 -8 3 -5 6 6 6 11 1 17 -2 13 -5z m-3537 -81 c20 -5 14 -8 -29 -13 -57 -6 -121 -2 -121 9 0 9 120 12 150 4z m3449 -22 c-15 -5 -22 6 -14 19 6 9 10 9 16 -1 5 -8 4 -15 -2 -18z m91 14 c0 -2 -13 -5 -30 -7 -19 -3 -30 0 -30 7 0 7 11 10 30 7 17 -2 30 -5 30 -7z m-3510 -25 c0 -5 -4 -10 -10 -10 -5 0 -10 5 -10 10 0 6 5 10 10 10 6 0 10 -4 10 -10z m-1195 -170 c10 -11 13 -20 7 -20 -22 0 -42 58 -41 117 l2 58 7 -67 c4 -44 13 -75 25 -88z m-41 -2 c-4 -6 -10 -5 -15 3 -14 22 -10 33 6 19 8 -7 12 -17 9 -22z m1364 20 c-2 -6 -10 -14 -16 -16 -7 -2 -10 2 -6 12 7 18 28 22 22 4z m2146 -20 c-4 -6 -10 -5 -15 3 -14 22 -10 33 6 19 8 -7 12 -17 9 -22z m1366 23 c0 -5 -7 -14 -15 -21 -16 -14 -18 -10 -9 14 6 17 24 22 24 7z m-420 -11 c0 -5 -4 -10 -10 -10 -5 0 -10 5 -10 10 0 6 5 10 10 10 6 0 10 -4 10 -10z"/>
<path d="M1381 5699 c-13 -5 -37 -20 -53 -34 -16 -14 -42 -25 -58 -25 -28 0 -40 -15 -40 -51 0 -15 7 -19 35 -19 34 0 35 -1 55 -66 11 -36 20 -77 20 -91 0 -18 5 -24 18 -21 14 3 18 16 20 68 2 42 9 71 19 82 15 17 14 18 -6 18 -30 0 -24 32 7 40 43 10 152 -1 152 -15 0 -8 -9 -17 -21 -20 -14 -5 -17 -10 -10 -19 5 -6 11 -43 13 -81 2 -52 7 -70 18 -73 11 -2 20 15 32 56 26 88 40 101 126 114 40 6 75 9 77 6 3 -2 1 -24 -4 -49 l-9 -44 -1 42 c-1 42 -1 42 -33 37 -79 -13 -76 -11 -83 -66 -4 -29 -14 -65 -21 -80 -20 -39 -17 -47 14 -43 15 2 42 4 60 4 35 1 44 20 12 28 -24 6 -25 12 -5 49 8 16 15 44 15 62 0 17 4 32 8 32 4 0 6 -16 4 -35 -3 -26 2 -44 20 -68 13 -17 30 -47 37 -64 l13 -33 123 0 c121 0 122 0 133 25 7 14 12 32 12 40 0 8 6 15 13 15 7 0 18 14 24 30 11 30 11 30 -23 30 -34 0 -34 0 -34 -45 0 -65 -25 -79 -134 -73 -49 2 -91 10 -100 17 -13 11 -16 36 -16 126 0 107 -1 113 -22 118 -20 6 -20 8 -6 28 19 30 32 33 51 14 11 -11 36 -15 86 -15 64 0 71 2 71 19 0 19 -9 20 -144 23 -109 2 -142 0 -139 -9 5 -13 -17 -20 -86 -27 -24 -3 -48 -12 -55 -21 -9 -12 -25 -15 -66 -13 -51 3 -55 5 -58 30 -3 23 -9 27 -40 31 l-37 4 38 1 c20 1 37 7 37 12 0 12 -27 12 -59 -1z m369 -63 c0 -3 -4 -8 -10 -11 -5 -3 -10 -1 -10 4 0 6 5 11 10 11 6 0 10 -2 10 -4z m-80 -226 c0 -5 -4 -10 -10 -10 -5 0 -10 5 -10 10 0 6 5 10 10 10 6 0 10 -4 10 -10z"/>
<path d="M1570 5685 c0 -22 3 -26 18 -20 9 4 35 8 56 9 47 1 63 26 18 26 -16 0 -44 3 -61 6 -29 6 -31 4 -31 -21z"/>
<path d="M1790 5645 c0 -8 9 -15 20 -15 11 0 20 7 20 15 0 8 -9 15 -20 15 -11 0 -20 -7 -20 -15z"/>
<path d="M5295 5651 c-3 -5 -1 -12 5 -16 12 -7 30 2 30 16 0 12 -27 12 -35 0z"/>
<path d="M1832 5628 c-7 -7 -12 -22 -12 -35 0 -22 3 -23 83 -23 46 0 86 2 89 5 2 3 3 18 0 35 l-4 30 -72 0 c-43 0 -77 -5 -84 -12z"/>
<path d="M5335 5631 c-3 -2 -5 -17 -5 -33 0 -27 1 -28 55 -28 50 0 55 2 55 23 0 38 -14 48 -59 46 -23 -2 -44 -5 -46 -8z"/>
<path d="M2922 5603 c-22 -4 -23 -8 -20 -76 l3 -72 230 0 230 0 0 75 0 75 -210 1 c-115 1 -220 -1 -233 -3z"/>
<path d="M3440 5503 l0 -103 515 0 516 0 -3 103 -3 102 -512 1 -513 1 0 -104z"/>
<path d="M1386 5581 c-6 -9 110 -21 132 -13 6 2 12 8 12 13 0 12 -137 12 -144 0z"/>
<path d="M1420 5547 c-21 -11 -25 -20 -25 -57 0 -37 4 -45 20 -49 19 -3 19 -3 3 16 -23 25 -23 46 0 66 26 23 58 21 76 -5 20 -29 20 -34 -4 -58 -15 -15 -16 -20 -5 -20 37 0 47 80 13 104 -27 19 -45 20 -78 3z"/>
<path d="M1825 5478 c2 -46 4 -86 4 -90 2 -13 196 -9 209 4 13 13 16 47 6 72 -10 26 -24 18 -24 -14 l0 -30 -85 0 c-78 0 -85 2 -85 20 0 11 4 20 10 20 5 0 7 -6 5 -12 -4 -10 14 -13 70 -13 41 0 75 3 75 8 0 4 -8 7 -17 8 -15 0 -15 2 2 9 16 7 12 9 -20 11 l-40 2 40 7 40 7 -40 3 c-38 3 -39 3 -7 7 28 4 32 8 32 34 l0 29 -89 0 -89 0 3 -82z m50 13 l-20 -8 20 -5 c18 -5 18 -6 -2 -7 -14 -1 -23 5 -23 14 0 9 9 15 23 14 21 0 21 -1 2 -8z m52 3 c-3 -3 -12 -4 -19 -1 -8 3 -5 6 6 6 11 1 17 -2 13 -5z m0 -20 c-3 -3 -12 -4 -19 -1 -8 3 -5 6 6 6 11 1 17 -2 13 -5z m0 -20 c-3 -3 -12 -4 -19 -1 -8 3 -5 6 6 6 11 1 17 -2 13 -5z"/>
<path d="M2372 5544 c-31 -22 -28 -84 6 -99 30 -13 28 -23 -3 -17 -18 3 -25 0 -25 -12 0 -13 12 -16 66 -16 48 0 64 3 61 13 -2 7 -19 11 -38 11 -19 -1 -28 1 -20 3 10 4 11 7 1 13 -9 6 -7 11 9 19 25 14 28 56 5 65 -28 11 -43 7 -54 -15 -9 -16 -8 -25 6 -40 9 -10 12 -19 6 -19 -17 0 -34 38 -27 60 7 21 45 36 69 27 8 -3 19 -15 25 -25 8 -16 6 -26 -11 -47 -20 -25 -20 -27 -2 -23 10 2 23 16 28 31 22 63 -47 110 -102 71z m58 -43 c0 -17 -21 -24 -33 -12 -9 9 -7 10 7 5 13 -5 17 -4 12 4 -4 7 -2 12 3 12 6 0 11 -4 11 -9z"/>
<path d="M4912 5548 c-30 -38 -24 -99 11 -117 l22 -11 -22 6 c-17 4 -23 1 -23 -11 0 -13 10 -15 63 -13 35 2 61 7 59 13 -2 6 -12 10 -22 9 -11 0 -20 3 -20 8 0 4 -10 8 -23 8 -13 0 -28 5 -35 12 -24 24 -9 88 22 88 5 0 2 -6 -8 -13 -26 -19 -18 -71 12 -75 49 -7 75 60 30 78 -17 6 -18 9 -6 9 20 1 48 -25 48 -45 0 -8 -9 -23 -20 -34 -15 -15 -16 -20 -5 -20 35 0 46 69 15 100 -23 23 -82 27 -98 8z m68 -54 c0 -20 -30 -30 -40 -13 -11 17 7 40 26 32 8 -3 14 -12 14 -19z"/>
<path d="M4950 5490 c0 -5 5 -10 10 -10 6 0 10 5 10 10 0 6 -4 10 -10 10 -5 0 -10 -4 -10 -10z"/>
<path d="M5332 5473 l3 -88 108 -3 107 -3 0 51 0 50 -72 1 c-40 1 -76 1 -80 0 -5 0 -8 4 -8 9 0 6 11 10 25 10 21 0 25 5 25 30 0 30 -1 30 -55 30 l-56 0 3 -87z m39 13 c-8 -9 -8 -21 -2 -37 l10 -24 0 23 c1 13 5 21 11 17 5 -3 7 -12 4 -20 -4 -10 8 -13 55 -14 33 0 63 4 66 10 4 5 -17 9 -49 9 -34 0 -56 4 -56 11 0 6 7 8 16 5 9 -3 36 -6 60 -6 37 0 44 -3 44 -20 0 -19 -7 -20 -89 -20 l-90 0 1 33 c1 37 5 47 20 47 7 0 7 -4 -1 -14z"/>
<path d="M5870 5540 c-15 -29 -9 -92 10 -98 12 -4 13 -2 3 9 -7 7 -13 25 -13 41 0 47 62 65 95 28 15 -17 16 -24 7 -45 -6 -14 -17 -25 -23 -25 -8 0 -8 4 1 14 19 23 8 61 -18 64 -49 7 -70 -44 -30 -72 47 -33 88 -11 88 48 0 50 -97 79 -120 36z m68 -47 c-5 -26 -38 -29 -38 -4 0 15 6 21 21 21 14 0 19 -5 17 -17z"/>
<path d="M5910 5490 c0 -5 5 -10 10 -10 6 0 10 5 10 10 0 6 -4 10 -10 10 -5 0 -10 -4 -10 -10z"/>
<path d="M2574 5535 c-16 -27 -36 -124 -28 -136 10 -16 33 10 39 45 4 18 5 50 3 71 -3 36 -4 38 -14 20z"/>
<path d="M5172 5538 c-7 -7 -12 -30 -12 -53 0 -22 -9 -57 -19 -78 -10 -20 -16 -39 -12 -40 3 -2 30 -2 59 1 36 3 52 8 52 18 0 8 -9 14 -20 14 -20 0 -20 0 0 50 11 28 20 62 20 75 0 21 -5 25 -28 25 -15 0 -33 -5 -40 -12z"/>
<path d="M1426 5514 c-9 -8 -16 -19 -16 -22 0 -15 31 -52 43 -52 8 0 7 4 -2 9 -11 7 -9 10 10 13 42 6 35 67 -8 68 -6 0 -19 -7 -27 -16z m44 -14 c0 -5 -9 -14 -20 -20 -16 -8 -20 -8 -20 4 0 13 13 23 33 25 4 1 7 -3 7 -9z"/>
<path d="M1507 5434 c-3 -4 -31 -6 -62 -5 -43 1 -55 -2 -55 -14 0 -12 14 -15 64 -15 59 0 65 2 63 20 -1 22 -1 22 -10 14z"/>
<path d="M5900 5432 c0 -9 -7 -11 -20 -7 -14 5 -20 2 -20 -9 0 -13 13 -16 66 -16 48 0 65 3 62 13 -3 6 -20 12 -39 12 -19 0 -37 4 -41 10 -5 6 -8 5 -8 -3z"/>
<path d="M1374 5379 c-11 -19 112 -26 151 -9 11 5 18 9 15 10 -17 5 -163 4 -166 -1z"/>
<path d="M2324 5379 c-7 -12 26 -19 84 -18 66 1 119 16 67 19 -84 6 -147 5 -151 -1z"/>
<path d="M4882 5382 c-19 -13 18 -22 88 -22 56 0 95 13 68 22 -26 8 -143 8 -156 0z"/>
<path d="M5840 5370 c8 -5 44 -10 80 -10 36 0 72 5 80 10 10 7 -15 10 -80 10 -65 0 -90 -3 -80 -10z"/>
</g>
</svg>