<svg xmlns="http://www.w3.org/2000/svg" viewBox="486.70 74.00 442.90 175.00">
<g transform="translate(0.000000,768.000000) scale(0.100000,-0.100000)" fill="currentColor" stroke="none">
<path d="M7432 6868 c3 -23 6 -23 161 -26 l157 -3 0 26 0 25 -161 0 -160 0 3 -22z"/>
<path d="M8090 6873 c0 -10 -3 -28 -6 -40 l-6 -23 161 0 161 0 0 40 0 40 -155 0 c-141 0 -155 -2 -155 -17z"/>
<path d="M7030 6844 c-6 -14 -10 -27 -10 -30 0 -2 29 -4 65 -4 36 0 65 2 65 5 0 16 -42 43 -74 48 -33 5 -38 3 -46 -19z"/>
<path d="M5270 6825 c0 -19 5 -35 10 -35 6 0 10 5 10 10 0 6 16 10 36 10 21 0 33 -4 29 -10 -10 -17 25 -11 43 6 10 11 17 13 20 5 8 -24 32 -11 32 19 0 29 -9 38 -24 23 -11 -11 -136 -13 -136 -3 0 6 -4 10 -10 10 -5 0 -10 -16 -10 -35z"/>
<path d="M6572 6848 c-33 -33 -15 -37 166 -41 l177 -2 -222 -3 -223 -2 0 -195 0 -195 30 -6 c21 -5 37 -19 57 -53 l28 -46 5 120 5 120 158 3 157 3 0 -151 0 -150 24 0 c20 0 25 6 29 33 l4 32 1 -32 2 -33 61 0 c52 0 60 -2 55 -16 -3 -9 -6 -21 -7 -27 0 -7 -4 -2 -10 11 -8 20 -14 22 -51 19 -23 -3 -44 -9 -46 -16 -2 -7 -8 -6 -18 4 -8 8 -21 12 -29 9 -12 -5 -15 -33 -15 -150 l0 -144 24 0 c19 0 26 6 29 28 l4 27 2 -28 c1 -27 2 -28 53 -25 46 3 53 6 59 28 5 18 7 12 8 -25 0 -39 -2 -46 -10 -32 -9 14 -26 17 -119 17 l-110 0 0 -35 0 -36 113 3 c83 2 111 6 110 16 -2 6 2 12 7 12 6 0 10 -18 10 -40 0 -22 -4 -40 -9 -40 -5 0 -8 8 -7 18 1 15 -13 17 -151 20 l-152 3 -4 -28 c-2 -16 -5 72 -6 195 0 122 -5 222 -10 222 -5 0 -6 -97 -3 -220 3 -144 1 -220 -5 -220 -6 0 -8 11 -5 25 l4 25 -686 0 -686 0 2 43 1 42 4 -37 c4 -35 7 -38 35 -38 l31 0 -6 133 c-4 72 -7 194 -7 270 0 76 -4 136 -9 133 -5 -3 -30 -59 -56 -123 -27 -65 -51 -121 -54 -125 -4 -4 -13 -3 -21 2 -13 8 -13 10 1 10 10 0 30 35 59 106 24 58 51 115 61 128 16 20 19 47 22 182 l3 159 2 -162 2 -163 80 0 80 0 0 160 0 159 -72 4 c-40 1 32 4 160 5 225 2 232 3 232 22 0 19 -7 20 -239 20 -220 0 -240 -1 -244 -17 -4 -17 -5 -17 -6 0 -1 16 -10 18 -78 15 l-78 -3 -3 -32 c-2 -18 -7 -33 -13 -33 -5 0 -9 -36 -9 -80 0 -47 4 -80 10 -80 6 0 10 -122 10 -346 0 -341 0 -346 20 -341 11 3 20 0 20 -6 0 -13 -130 -15 -149 -2 -7 4 -11 65 -11 168 l0 163 -32 -2 c-18 -1 -36 -2 -40 -3 -12 -2 -10 -321 2 -321 6 0 10 58 10 155 l0 155 25 0 25 0 0 -160 0 -160 -55 0 c-30 0 -55 -3 -55 -6 0 -3 16 -21 35 -40 19 -18 35 -38 35 -43 0 -5 9 -12 20 -16 16 -5 19 -12 14 -43 -3 -20 -8 -40 -11 -44 -2 -5 1 -8 6 -8 6 0 11 -5 11 -11 0 -5 -4 -8 -9 -5 -4 3 -22 1 -40 -4 -27 -7 -31 -6 -31 10 0 16 -7 19 -51 18 -60 -2 -72 -16 -67 -86 l3 -47 58 -3 c46 -2 57 0 57 13 0 8 7 15 16 15 14 0 16 -8 11 -49 -3 -27 -15 -68 -26 -90 -12 -22 -21 -45 -21 -51 0 -6 24 -10 58 -10 l58 0 -2 248 c0 136 1 192 3 125 l4 -123 89 0 90 0 0 -80 0 -80 -87 2 -88 2 83 3 82 4 0 51 c0 36 -5 55 -17 65 -10 8 -13 12 -6 9 6 -4 14 -2 18 4 4 6 -24 10 -79 10 l-86 0 0 -80 0 -80 100 0 100 0 0 175 0 175 275 0 c231 0 275 -2 275 -14 0 -8 6 -17 13 -19 7 -4 8 -6 1 -6 -6 -1 -17 6 -24 14 -10 13 -53 15 -271 15 l-259 0 0 -71 0 -72 23 34 c16 23 20 36 13 41 -6 4 232 8 530 8 l541 0 13 -25 c15 -28 58 -60 68 -51 3 4 -23 36 -59 72 l-64 65 -223 -3 c-122 -2 -222 0 -222 5 0 4 103 7 228 7 l228 0 56 -62 55 -63 106 3 107 3 0 45 c0 24 -3 44 -6 44 -3 0 -26 -18 -51 -40 -25 -22 -51 -40 -57 -40 -6 0 1 7 14 16 14 10 43 34 66 56 l40 39 317 0 317 0 0 34 0 35 -149 0 -150 0 -4 -27 c-4 -29 -9 366 -7 580 1 90 -2 117 -12 117 -9 0 -9 3 -2 8 6 4 14 14 17 22 5 13 12 -240 8 -282 -2 -16 10 -18 133 -18 l135 0 4 33 4 32 1 -32 2 -33 60 0 c53 0 60 2 60 20 0 11 5 20 11 20 6 0 8 -9 4 -20 -4 -11 -2 -20 4 -20 11 0 15 13 12 38 -1 6 3 12 10 12 7 0 9 -10 6 -26 -4 -25 -4 -25 62 -24 36 1 83 1 104 1 l37 -1 0 -197 c0 -117 4 -192 9 -184 5 7 7 32 4 55 -3 31 -2 37 6 26 6 -8 11 -32 11 -52 l0 -38 150 0 150 0 0 35 0 35 -137 0 -138 0 3 155 c2 125 0 155 -11 155 -7 0 -18 -5 -25 -12 -9 -9 -12 -8 -12 5 0 11 8 17 25 17 l24 0 4 148 3 147 2 -147 2 -148 60 0 60 0 0 175 0 175 -199 0 c-182 0 -200 -2 -204 -17 -4 -17 -5 -17 -6 -1 -1 17 -22 18 -286 17 l-284 0 -4 -142 -3 -142 -2 148 -2 147 511 0 c385 -1 509 -4 500 -13 -14 -14 -15 -77 0 -77 8 0 8 -4 0 -14 -17 -20 -12 -256 5 -256 7 0 15 6 17 13 4 10 6 10 6 0 1 -9 18 -13 51 -13 l50 0 -1 -227 c-1 -126 -4 -216 -6 -200 l-4 27 -149 0 c-109 0 -150 -3 -153 -12 -4 -10 -6 -10 -6 0 -2 23 -20 12 -24 -15 l-4 -28 -2 28 -1 27 -165 0 -165 0 0 -29 c0 -17 6 -31 16 -35 9 -3 191 -6 405 -6 339 0 389 -2 389 -15 0 -9 9 -15 23 -15 18 0 19 -2 7 -10 -11 -7 -19 -5 -32 10 -16 20 -29 20 -732 20 l-716 0 0 -55 0 -55 449 0 449 0 46 53 c25 28 46 48 46 44 0 -5 -23 -33 -51 -63 -33 -35 -46 -54 -36 -54 9 0 28 16 43 35 l27 35 526 -2 c510 -3 526 -4 529 -22 2 -11 10 -26 18 -34 10 -10 14 -42 14 -118 l0 -104 94 0 95 0 3 -37 3 -38 63 -3 c34 -2 62 -1 62 1 0 3 -11 29 -24 58 -34 76 -42 124 -21 132 9 4 18 1 21 -8 4 -10 21 -15 54 -15 l47 0 6 57 c3 32 2 62 -3 67 -15 15 -105 13 -102 -2 4 -20 -25 -25 -50 -8 -12 9 -20 16 -17 16 4 0 3 18 -1 40 -4 22 -4 40 1 40 4 0 11 9 14 21 7 22 62 79 76 79 5 0 9 5 9 10 0 6 -9 10 -19 10 -18 0 -19 10 -21 162 0 88 -3 165 -6 170 -3 4 -23 8 -45 8 l-39 0 0 -164 c0 -133 -3 -166 -15 -176 -9 -8 -15 -9 -15 -2 0 10 -26 10 -102 4 -15 -2 -18 -12 -18 -62 l0 -60 75 0 74 0 4 63 c2 34 4 2 5 -70 l2 -133 -90 0 c-49 0 -90 -4 -90 -9 0 -5 8 -12 18 -14 16 -4 16 -5 0 -6 -15 -1 -18 -11 -18 -56 l0 -55 84 0 c47 0 87 -3 89 -7 3 -5 -37 -7 -89 -5 l-94 3 0 205 0 204 -35 0 c-32 0 -35 -2 -35 -29 0 -23 5 -30 23 -33 20 -3 22 -9 23 -63 1 -58 1 -59 -3 -7 l-4 53 -264 -3 c-145 -2 -261 0 -258 5 2 4 31 7 64 7 l59 0 0 35 0 35 -154 0 -155 0 -4 -27 c-2 -16 -5 37 -6 116 -1 145 6 194 10 68 2 -56 5 -67 20 -67 9 0 20 6 22 13 4 10 6 10 6 0 1 -10 34 -13 131 -13 l131 0 -3 113 -3 112 -27 3 -28 3 -2 -83 -2 -83 -5 80 -6 80 -59 3 c-39 2 -69 10 -87 23 -15 10 -30 19 -33 19 -3 0 -7 -48 -9 -107 l-3 -108 -2 122 c-2 123 -5 131 -39 110 -8 -5 -13 -3 -13 7 0 10 9 16 25 16 25 0 25 0 27 103 l2 102 3 -94 c2 -52 9 -101 15 -108 8 -10 7 -13 -3 -13 -8 0 2 -14 21 -30 30 -26 43 -29 98 -30 l62 0 0 170 0 170 -94 0 c-82 0 -95 -2 -99 -17 -4 -17 -5 -17 -6 0 -1 14 -11 17 -56 17 -32 0 -55 4 -55 11 0 5 4 8 9 5 5 -3 134 -7 287 -8 154 -1 261 -4 239 -6 -22 -2 -43 -9 -47 -15 -6 -9 -8 -9 -8 1 0 8 -23 12 -80 12 l-80 0 0 -170 0 -170 34 0 34 0 2 -197 c0 -108 3 -199 5 -202 3 -2 5 86 5 197 l0 202 119 0 c86 0 121 3 124 13 4 10 6 10 6 0 1 -9 17 -13 46 -13 l45 0 0 310 0 310 -375 0 c-293 0 -375 -3 -375 -12 0 -10 -2 -10 -8 -1 -4 6 -45 19 -92 28 -108 21 -584 22 -695 0 -85 -16 -325 -20 -325 -6 0 6 7 8 15 5 18 -7 19 5 1 29 -12 15 -33 17 -183 17 -118 0 -173 -4 -181 -12z m-16 -70 c4 -7 3 -8 -4 -4 -9 5 -12 -20 -12 -93 0 -94 1 -101 20 -101 16 0 20 7 21 38 l2 37 7 -40 7 -40 3 40 3 40 7 -40 c5 -30 8 -33 10 -15 l2 25 8 -25 c4 -14 9 -18 9 -10 1 9 4 11 9 5 11 -17 82 -19 82 -3 0 10 3 9 10 -2 7 -10 10 18 10 87 0 86 -2 101 -15 97 -10 -4 -15 -25 -18 -67 l-3 -62 -2 66 -2 66 -30 -5 c-16 -2 -30 0 -30 6 0 6 53 9 135 9 74 0 135 -4 135 -8 0 -4 -18 -7 -40 -5 l-40 3 0 -98 0 -99 30 0 30 0 2 93 2 92 3 -90 c3 -55 8 -92 16 -97 7 -4 -79 -8 -190 -8 l-203 0 0 110 c0 102 7 129 26 98z m745 -38 c64 0 109 -4 109 -10 0 -5 -7 -7 -15 -4 -12 5 -15 -4 -15 -44 0 -40 4 -52 18 -55 9 -3 3 -5 -14 -6 -18 -1 -68 17 -120 43 l-90 43 5 44 c4 34 6 38 9 17 l3 -28 110 0z m-744 -62 c-2 -18 -4 -6 -4 27 0 33 2 48 4 33 2 -15 2 -42 0 -60z m60 15 c-2 -16 -4 -5 -4 22 0 28 2 40 4 28 2 -13 2 -35 0 -50z m20 -10 c-2 -16 -4 -3 -4 27 0 30 2 43 4 28 2 -16 2 -40 0 -55z m20 15 c-2 -13 -4 -3 -4 22 0 25 2 35 4 23 2 -13 2 -33 0 -45z m20 -15 c-2 -16 -4 -3 -4 27 0 30 2 43 4 28 2 -16 2 -40 0 -55z m20 45 c-3 -7 -5 -2 -5 12 0 14 2 19 5 13 2 -7 2 -19 0 -25z m1223 9 l95 -3 -97 -2 -98 -2 0 -50 c0 -27 2 -50 5 -50 3 0 46 20 95 45 49 25 93 45 97 44 5 0 -35 -22 -87 -49 l-95 -49 -110 1 c-60 0 -100 3 -87 5 16 3 22 12 23 31 l2 27 4 -27 c4 -27 6 -28 74 -28 l69 0 0 51 c0 31 -4 48 -10 44 -14 -9 -12 3 3 19 6 8 14 10 17 5 3 -4 48 -10 100 -12z m-430 -5 c0 -4 -11 -8 -25 -8 -14 0 -25 4 -25 8 0 4 11 8 25 8 14 0 25 -4 25 -8z m266 1 c-10 -10 -256 -11 -256 -1 0 5 59 8 132 8 72 0 128 -3 124 -7z m1002 -90 l-2 -98 -3 93 -4 92 -344 0 -344 0 -4 -92 -3 -93 -2 98 -2 97 355 0 355 0 -2 -97z m-665 70 c-7 -2 -13 -9 -13 -14 0 -6 5 -7 10 -4 6 3 10 1 10 -4 0 -6 -4 -11 -10 -11 -5 0 -11 -26 -13 -57 -3 -52 -3 -50 -5 20 -2 68 0 77 16 76 10 0 12 -3 5 -6z m205 0 c-36 -3 -48 -8 -49 -21 -1 -16 -2 -16 -6 0 -3 14 -18 18 -71 21 -37 2 -13 3 53 3 66 0 99 -1 73 -3z m85 0 c-7 -2 -19 -2 -25 0 -7 3 -2 5 12 5 14 0 19 -2 13 -5z m85 0 l-37 -4 -4 -82 -3 -82 -2 88 -2 87 43 -2 42 -1 -37 -4z m71 -15 c0 -16 -2 -18 -6 -8 -3 8 -11 18 -17 22 -7 5 -4 8 7 8 11 0 17 -7 16 -22z m191 2 c0 -14 -6 -20 -22 -19 -17 1 -19 2 -5 6 23 6 22 23 -3 23 -12 0 -20 -7 -21 -17 -1 -17 -2 -17 -6 0 -3 11 -14 17 -34 17 -20 0 -29 -5 -30 -17 -1 -17 -2 -17 -6 0 -5 18 -43 24 -43 6 0 -6 7 -9 15 -5 8 3 15 1 15 -4 0 -6 -9 -10 -20 -10 -13 0 -20 7 -20 20 0 19 7 20 90 20 83 0 90 -1 90 -20z m-3160 6 c0 -3 -4 -8 -10 -11 -5 -3 -10 -1 -10 4 0 6 5 11 10 11 6 0 10 -2 10 -4z m1027 -18 c-3 -8 -6 -5 -6 6 -1 11 2 17 5 13 3 -3 4 -12 1 -19z m813 12 c0 -5 -2 -10 -4 -10 -3 0 -8 5 -11 10 -3 6 -1 10 4 10 6 0 11 -4 11 -10z m-523 -67 c-2 -16 -4 -5 -4 22 0 28 2 40 4 28 2 -13 2 -35 0 -50z m1273 55 c0 -4 -7 -8 -15 -8 -8 0 -15 4 -15 8 0 5 7 9 15 9 8 0 15 -4 15 -9z m70 0 c0 -5 -13 -8 -30 -8 -16 0 -30 3 -30 8 0 4 14 7 30 7 17 0 30 -3 30 -7z m70 -4 c0 -2 -9 -4 -20 -4 -11 0 -20 4 -20 9 0 5 9 7 20 4 11 -3 20 -7 20 -9z m85 6 c3 -5 1 -10 -4 -10 -6 0 -11 5 -11 10 0 6 2 10 4 10 3 0 8 -4 11 -10z m108 -7 c-7 -2 -19 -2 -25 0 -7 3 -2 5 12 5 14 0 19 -2 13 -5z m-1026 -50 c-3 -10 -5 -2 -5 17 0 19 2 27 5 18 2 -10 2 -26 0 -35z m20 15 c-3 -7 -5 -2 -5 12 0 14 2 19 5 13 2 -7 2 -19 0 -25z m60 0 c-3 -7 -5 -2 -5 12 0 14 2 19 5 13 2 -7 2 -19 0 -25z m20 0 c-3 -7 -5 -2 -5 12 0 14 2 19 5 13 2 -7 2 -19 0 -25z m20 0 c-3 -7 -5 -2 -5 12 0 14 2 19 5 13 2 -7 2 -19 0 -25z m20 0 c-3 -7 -5 -2 -5 12 0 14 2 19 5 13 2 -7 2 -19 0 -25z m20 0 c-3 -7 -5 -2 -5 12 0 14 2 19 5 13 2 -7 2 -19 0 -25z m20 0 c-3 -7 -5 -2 -5 12 0 14 2 19 5 13 2 -7 2 -19 0 -25z m40 0 c-3 -7 -5 -2 -5 12 0 14 2 19 5 13 2 -7 2 -19 0 -25z m410 -10 c-3 -7 -5 -2 -5 12 0 14 2 19 5 13 2 -7 2 -19 0 -25z m20 0 c-3 -7 -5 -2 -5 12 0 14 2 19 5 13 2 -7 2 -19 0 -25z m44 15 c1 -17 2 -17 6 0 5 17 63 26 63 8 0 -4 -11 -6 -25 -3 -14 2 -25 0 -25 -6 0 -6 12 -13 28 -15 15 -2 3 -5 -25 -6 -32 0 -53 3 -53 10 0 5 5 7 10 4 6 -3 10 -2 10 4 0 5 -6 12 -12 14 -8 3 -6 6 5 6 9 1 18 -7 18 -16z m139 13 c0 -2 -9 -6 -20 -9 -11 -3 -20 -1 -20 4 0 5 9 9 20 9 11 0 20 -2 20 -4z m37 -28 c-3 -7 -5 -2 -5 12 0 14 2 19 5 13 2 -7 2 -19 0 -25z m163 28 c0 -2 -9 -6 -20 -9 -11 -3 -20 -1 -20 4 0 5 9 9 20 9 11 0 20 -2 20 -4z m17 -28 c-3 -7 -5 -2 -5 12 0 14 2 19 5 13 2 -7 2 -19 0 -25z m20 0 c-3 -7 -5 -2 -5 12 0 14 2 19 5 13 2 -7 2 -19 0 -25z m53 24 c0 -4 -9 -8 -20 -8 -11 0 -20 4 -20 8 0 4 9 8 20 8 11 0 20 -4 20 -8z m17 -24 c-3 -7 -5 -2 -5 12 0 14 2 19 5 13 2 -7 2 -19 0 -25z m20 0 c-3 -7 -5 -2 -5 12 0 14 2 19 5 13 2 -7 2 -19 0 -25z m33 22 c0 -5 -2 -10 -4 -10 -3 0 -8 5 -11 10 -3 6 -1 10 4 10 6 0 11 -4 11 -10z m17 -22 c-3 -7 -5 -2 -5 12 0 14 2 19 5 13 2 -7 2 -19 0 -25z m33 28 c0 -3 -4 -8 -10 -11 -5 -3 -10 -1 -10 4 0 6 5 11 10 11 6 0 10 -2 10 -4z m-1300 -16 c0 -5 -5 -10 -11 -10 -5 0 -7 5 -4 10 3 6 8 10 11 10 2 0 4 -4 4 -10z m-2012 -53 c-3 -52 -3 -52 -35 -51 -76 3 -73 1 -73 48 0 26 -5 46 -12 49 -7 3 18 5 55 5 l68 0 -3 -51z m2895 36 c-7 -2 -19 -2 -25 0 -7 3 -2 5 12 5 14 0 19 -2 13 -5z m90 0 c-7 -2 -19 -2 -25 0 -7 3 -2 5 12 5 14 0 19 -2 13 -5z m110 0 c-7 -2 -19 -2 -25 0 -7 3 -2 5 12 5 14 0 19 -2 13 -5z m90 0 c-7 -2 -19 -2 -25 0 -7 3 -2 5 12 5 14 0 19 -2 13 -5z m150 0 c-7 -2 -21 -2 -30 0 -10 3 -4 5 12 5 17 0 24 -2 18 -5z m-1286 -9 c-3 -3 -12 -4 -19 -1 -8 3 -5 6 6 6 11 1 17 -2 13 -5z m130 -1 c-20 -2 -52 -2 -70 0 -17 2 0 4 38 4 39 0 53 -2 32 -4z m633 -13 c0 -5 -4 -10 -10 -10 -5 0 -10 5 -10 10 0 6 5 10 10 10 6 0 10 -4 10 -10z m65 0 c3 -5 1 -10 -4 -10 -6 0 -11 5 -11 10 0 6 2 10 4 10 3 0 8 -4 11 -10z m115 0 c0 -5 -4 -10 -10 -10 -5 0 -10 5 -10 10 0 6 5 10 10 10 6 0 10 -4 10 -10z m17 -37 c-3 -10 -5 -2 -5 17 0 19 2 27 5 18 2 -10 2 -26 0 -35z m93 37 c0 -5 -4 -10 -10 -10 -5 0 -10 5 -10 10 0 6 5 10 10 10 6 0 10 -4 10 -10z m90 -2 c0 -4 -9 -8 -20 -8 -11 0 -20 4 -20 8 0 4 9 8 20 8 11 0 20 -4 20 -8z m70 2 c0 -5 -4 -10 -10 -10 -5 0 -10 5 -10 10 0 6 5 10 10 10 6 0 10 -4 10 -10z m50 0 c0 -5 -4 -10 -10 -10 -5 0 -10 5 -10 10 0 6 5 10 10 10 6 0 10 -4 10 -10z m-463 -52 c-3 -7 -5 -2 -5 12 0 14 2 19 5 13 2 -7 2 -19 0 -25z m53 24 c0 -4 -9 -8 -20 -8 -11 0 -20 4 -20 8 0 4 9 8 20 8 11 0 20 -4 20 -8z m37 -24 c-3 -7 -5 -2 -5 12 0 14 2 19 5 13 2 -7 2 -19 0 -25z m53 12 c0 -13 -7 -20 -20 -20 -13 0 -20 7 -20 20 0 13 7 20 20 20 13 0 20 -7 20 -20z m110 12 c0 -4 -9 -8 -20 -8 -11 0 -20 4 -20 8 0 4 9 8 20 8 11 0 20 -4 20 -8z m17 -24 c-3 -7 -5 -2 -5 12 0 14 2 19 5 13 2 -7 2 -19 0 -25z m20 0 c-3 -7 -5 -2 -5 12 0 14 2 19 5 13 2 -7 2 -19 0 -25z m53 24 c0 -4 -9 -8 -20 -8 -11 0 -20 4 -20 8 0 4 9 8 20 8 11 0 20 -4 20 -8z m17 -24 c-3 -7 -5 -2 -5 12 0 14 2 19 5 13 2 -7 2 -19 0 -25z m53 22 c0 -5 -2 -10 -4 -10 -3 0 -8 5 -11 10 -3 6 -1 10 4 10 6 0 11 -4 11 -10z m17 -22 c-3 -7 -5 -2 -5 12 0 14 2 19 5 13 2 -7 2 -19 0 -25z m59 25 c-10 -10 -46 -11 -46 -1 0 4 12 8 27 8 14 0 23 -3 19 -7z m-1049 -200 c-2 -38 -3 -7 -3 67 0 74 1 105 3 68 2 -38 2 -98 0 -135z m173 187 c0 -5 -4 -10 -10 -10 -5 0 -10 5 -10 10 0 6 5 10 10 10 6 0 10 -4 10 -10z m-613 -47 c-3 -10 -5 -4 -5 12 0 17 2 24 5 18 2 -7 2 -21 0 -30z m140 -145 c-2 -35 -3 -7 -3 62 0 69 1 97 3 63 2 -35 2 -91 0 -125z m134 76 c-1 -54 -4 -100 -6 -103 -3 -2 -5 44 -5 104 0 60 3 106 6 102 4 -3 6 -50 5 -103z m29 -9 l-6 -80 -4 81 c-3 45 -3 90 -1 100 9 45 17 -24 11 -101z m743 108 c-7 -2 -19 -2 -25 0 -7 3 -2 5 12 5 14 0 19 -2 13 -5z m200 0 c-7 -2 -19 -2 -25 0 -7 3 -2 5 12 5 14 0 19 -2 13 -5z m90 0 c-7 -2 -19 -2 -25 0 -7 3 -2 5 12 5 14 0 19 -2 13 -5z m150 0 c-7 -2 -21 -2 -30 0 -10 3 -4 5 12 5 17 0 24 -2 18 -5z m-868 -13 c-3 -5 -12 -10 -18 -10 -7 0 -6 4 3 10 19 12 23 12 15 0z m892 -6 c-3 -3 -12 -4 -19 -1 -8 3 -5 6 6 6 11 1 17 -2 13 -5z m-1510 -96 c-2 -13 -4 -3 -4 22 0 25 2 35 4 23 2 -13 2 -33 0 -45z m1327 55 c-5 -5 -12 -12 -16 -18 -4 -6 -8 -2 -8 8 0 9 7 17 17 17 9 0 12 -3 7 -7z m-377 -45 c-3 -8 -6 -5 -6 6 -1 11 2 17 5 13 3 -3 4 -12 1 -19z m340 -13 c0 -8 -4 -15 -9 -15 -10 0 -11 14 -1 23 9 10 10 9 10 -8z m164 -108 c1 -60 -1 -111 -5 -114 -3 -4 -6 47 -6 112 0 65 2 116 5 114 2 -3 5 -53 6 -112z m-1014 -39 c-3 -8 -6 -5 -6 6 -1 11 2 17 5 13 3 -3 4 -12 1 -19z m853 2 c0 -5 -4 -10 -10 -10 -5 0 -10 5 -10 10 0 6 5 10 10 10 6 0 10 -4 10 -10z m-763 -102 c-3 -8 -6 -5 -6 6 -1 11 2 17 5 13 3 -3 4 -12 1 -19z m340 0 c-3 -8 -6 -5 -6 6 -1 11 2 17 5 13 3 -3 4 -12 1 -19z m-2782 -48 c-4 -12 -9 -19 -12 -17 -3 3 -2 15 2 27 4 12 9 19 12 17 3 -3 2 -15 -2 -27z m2442 -103 c-2 -23 -3 -1 -3 48 0 50 1 68 3 42 2 -26 2 -67 0 -90z m340 71 c-2 -13 -4 -3 -4 22 0 25 2 35 4 23 2 -13 2 -33 0 -45z m987 -89 c-6 -124 -5 -152 7 -160 10 -6 4 -9 -18 -9 l-33 0 0 160 0 160 25 0 25 0 -6 -151z m-2137 94 c-3 -10 -5 -2 -5 17 0 19 2 27 5 18 2 -10 2 -26 0 -35z m-1640 -65 c-2 -13 -4 -3 -4 22 0 25 2 35 4 23 2 -13 2 -33 0 -45z m1640 -20 c-2 -13 -4 -3 -4 22 0 25 2 35 4 23 2 -13 2 -33 0 -45z m-1569 17 c-11 -20 -21 -48 -21 -63 0 -15 -2 -21 -4 -14 -3 6 -13 12 -24 12 -17 0 -19 -8 -19 -60 0 -50 3 -60 18 -61 16 -1 16 -2 -1 -6 -15 -4 -18 -14 -16 -59 1 -30 -1 -57 -4 -61 -4 -3 -7 51 -7 120 0 125 0 127 -22 128 l-23 2 23 4 c12 2 22 12 22 21 1 16 2 15 11 0 12 -21 39 -24 39 -5 0 13 37 77 45 77 2 0 -5 -16 -17 -35z m2819 -57 c-3 -8 -6 -5 -6 6 -1 11 2 17 5 13 3 -3 4 -12 1 -19z m-1503 -195 c7 -18 -10 -43 -30 -43 -18 0 -28 38 -14 55 13 16 36 10 44 -12z m1596 -49 c0 -8 -19 -13 -24 -6 -3 5 1 9 9 9 8 0 15 -2 15 -3z m-1676 -21 c4 -9 1 -23 -7 -30 -7 -8 -21 -11 -30 -7 -17 6 -23 35 -10 47 12 13 41 7 47 -10z m-1371 0 c-18 -2 -48 -2 -65 0 -18 2 -4 4 32 4 36 0 50 -2 33 -4z m44 -45 c-3 -8 -6 -5 -6 6 -1 11 2 17 5 13 3 -3 4 -12 1 -19z m33 -33 c0 -18 -4 -23 -16 -18 -13 5 -13 7 -2 14 10 7 10 9 -2 9 -13 0 -13 1 0 10 20 13 20 13 20 -15z m-82 -82 c-15 -2 -42 -2 -60 0 -18 2 -6 4 27 4 33 0 48 -2 33 -4z m3779 -45 c-2 -13 -4 -5 -4 17 -1 22 1 32 4 23 2 -10 2 -28 0 -40z m20 10 c-3 -8 -6 -5 -6 6 -1 11 2 17 5 13 3 -3 4 -12 1 -19z m-3777 2 c0 -5 -25 -10 -55 -10 -30 0 -55 5 -55 10 0 6 25 10 55 10 30 0 55 -4 55 -10z m3740 0 c0 -5 -22 -10 -50 -10 -27 0 -50 5 -50 10 0 6 23 10 50 10 28 0 50 -4 50 -10z"/>
<path d="M6764 6680 c0 -58 1 -81 3 -52 2 28 2 76 0 105 -2 28 -3 5 -3 -53z"/>
<path d="M6784 6680 c0 -58 1 -81 3 -52 2 28 2 76 0 105 -2 28 -3 5 -3 -53z"/>
<path d="M6802 6676 l2 -101 6 95 6 95 5 -95 5 -95 2 101 c2 84 -1 101 -13 101 -12 0 -15 -17 -13 -101z"/>
<path d="M7190 6719 c0 -9 156 -89 174 -89 3 0 6 23 6 50 l0 50 -90 0 c-57 0 -90 -4 -90 -11z"/>
<path d="M8360 6570 c0 -5 5 -10 10 -10 6 0 10 5 10 10 0 6 -4 10 -10 10 -5 0 -10 -4 -10 -10z"/>
<path d="M6672 5784 c4 -21 22 -23 26 -1 2 10 -3 17 -13 17 -10 0 -15 -6 -13 -16z"/>
<path d="M6590 5716 c0 -8 4 -17 8 -20 13 -8 35 11 28 23 -10 16 -36 14 -36 -3z"/>
<path d="M8460 6851 c0 -5 -3 -16 -6 -25 -5 -14 11 -16 140 -16 80 0 146 3 146 6 0 3 -5 14 -10 25 -10 17 -22 19 -140 19 -72 0 -130 -4 -130 -9z"/>
<path d="M5930 6735 l0 -95 265 0 265 0 0 95 0 95 -265 0 -265 0 0 -95z"/>
<path d="M6493 6818 c-2 -5 10 -8 26 -8 17 0 31 4 31 9 0 11 -50 9 -57 -1z"/>
<path d="M6965 6820 c3 -5 10 -10 16 -10 5 0 9 5 9 10 0 6 -7 10 -16 10 -8 0 -12 -4 -9 -10z"/>
<path d="M8834 6819 c-5 -8 -2 -11 8 -7 8 4 21 2 29 -3 9 -6 0 -9 -28 -9 l-43 0 0 -310 0 -310 35 0 c19 0 35 -4 35 -10 0 -5 6 -10 13 -10 9 0 11 -19 9 -73 -3 -67 -2 -73 17 -74 19 -2 21 4 21 67 0 45 -4 70 -12 73 -10 4 -10 7 0 15 9 6 12 28 10 68 l-3 59 -35 3 c-19 2 -38 6 -42 10 -4 4 13 5 37 4 l45 -4 0 72 c0 60 -3 71 -15 66 -8 -3 -15 -1 -15 4 0 6 6 10 13 10 8 0 13 19 15 55 2 51 0 55 -20 56 -15 0 -18 2 -8 6 8 3 18 11 22 17 5 7 8 7 8 -2 0 -7 5 -10 10 -7 13 8 13 82 1 90 -5 3 -12 -5 -14 -17 -2 -13 -5 9 -6 48 0 40 -7 82 -13 95 -14 26 -61 38 -74 18z m11 -309 c3 -5 1 -10 -4 -10 -6 0 -11 5 -11 10 0 6 2 10 4 10 3 0 8 -4 11 -10z m15 -50 c0 -5 -2 -10 -4 -10 -3 0 -8 5 -11 10 -3 6 -1 10 4 10 6 0 11 -4 11 -10z"/>
<path d="M5610 6570 l0 -160 80 0 80 0 0 160 0 160 -80 0 -80 0 0 -160z"/>
<path d="M5780 6570 l0 -160 70 0 70 0 0 160 0 160 -70 0 -70 0 0 -160z"/>
<path d="M5930 6520 c0 -107 1 -110 23 -110 17 0 19 -2 7 -9 -8 -6 -18 -7 -22 -5 -4 3 -8 -67 -8 -155 l0 -161 265 0 265 0 0 155 c0 131 -2 155 -15 155 -8 0 -15 5 -15 10 0 6 7 10 15 10 12 0 15 19 15 110 l0 110 -265 0 -265 0 0 -110z m390 -65 l0 -125 -125 0 -125 0 0 125 0 125 125 0 125 0 0 -125z"/>
<path d="M6080 6455 l0 -115 115 0 115 0 0 115 0 115 -115 0 -115 0 0 -115z m108 3 l-3 -103 -47 -3 -48 -3 0 105 0 106 50 0 51 0 -3 -102z m112 -3 l0 -105 -50 0 -50 0 0 105 0 105 50 0 50 0 0 -105z"/>
<path d="M6600 6412 c0 -175 -7 -168 164 -164 l136 3 0 145 0 144 -150 0 -150 0 0 -128z"/>
<path d="M5441 6258 c1 -79 5 -201 8 -273 7 -113 8 -94 9 143 1 176 -2 272 -8 272 -6 0 -10 -53 -9 -142z"/>
<path d="M5470 6238 c0 -131 2 -158 14 -158 10 0 16 13 19 38 l4 37 1 -37 c2 -44 19 -51 25 -10 l4 27 2 -27 c0 -16 6 -28 11 -28 6 0 10 30 10 69 l0 70 -32 4 c-32 4 -32 4 5 5 l37 2 0 -75 c0 -68 2 -75 20 -75 19 0 20 7 20 155 0 117 -3 155 -12 156 -7 0 -39 2 -70 3 l-58 2 0 -158z m80 -42 c0 -2 -11 -6 -25 -8 -14 -3 -25 -1 -25 3 0 5 11 9 25 9 14 0 25 -2 25 -4z"/>
<path d="M5621 6200 c-3 -113 -6 -188 -8 -167 l-4 37 -69 0 -68 0 -1 -103 -1 -102 77 -3 c53 -2 79 1 85 10 6 10 8 10 8 1 0 -7 6 -13 14 -13 8 0 17 6 20 13 5 10 7 10 12 0 7 -17 180 -18 190 -2 5 8 9 8 14 -1 19 -31 30 6 30 101 l0 99 -140 0 -140 0 -2 -42 c-1 -24 -5 52 -8 167 l-6 210 -3 -205z m57 -173 c2 -11 -3 -17 -15 -17 -15 0 -16 2 -3 10 13 9 13 11 0 21 -13 9 -13 10 0 6 8 -2 16 -11 18 -20z m140 16 c-21 -2 -55 -2 -75 0 -21 2 -4 4 37 4 41 0 58 -2 38 -4z m82 3 c0 -3 -4 -8 -10 -11 -5 -3 -10 -1 -10 4 0 6 5 11 10 11 6 0 10 -2 10 -4z m7 -32 c-3 -3 -12 -4 -19 -1 -8 3 -5 6 6 6 11 1 17 -2 13 -5z"/>
<path d="M5640 6238 l0 -158 65 0 65 0 0 155 c0 85 -3 155 -7 156 -5 0 -34 2 -65 3 l-58 3 0 -159z"/>
<path d="M5793 6393 c-10 -3 -13 -45 -13 -159 l0 -154 70 0 70 0 0 155 c0 117 -3 155 -12 156 -74 6 -105 7 -115 2z"/>
<path d="M6472 6238 l3 -153 57 -3 57 -3 3 98 3 98 -38 58 c-30 43 -44 57 -63 57 l-25 0 3 -152z"/>
<path d="M6602 6174 l3 -89 63 -1 62 -2 0 74 0 74 -47 0 c-30 0 -53 6 -65 17 -18 16 -19 14 -16 -73z"/>
<path d="M6770 6158 l0 -78 40 0 40 0 0 -70 c0 -68 1 -70 25 -70 l25 0 0 145 0 145 -32 1 c-18 0 -48 2 -65 3 l-33 2 0 -78z"/>
<path d="M7117 6234 c-4 -4 -7 -72 -7 -151 l0 -143 135 0 136 0 -3 148 -3 147 -62 0 c-56 0 -63 -2 -64 -20 -1 -17 -2 -17 -6 -2 -3 12 -15 17 -41 17 -20 0 -46 3 -57 6 -11 3 -24 2 -28 -2z"/>
<path d="M7392 6085 l3 -155 -142 0 -143 0 0 -35 0 -35 150 0 150 0 0 190 c0 126 -4 190 -10 190 -7 0 -10 -52 -8 -155z"/>
<path d="M7422 6054 l-2 -191 165 -2 165 -2 0 36 0 36 -157 -2 c-147 -1 -158 0 -160 18 -2 10 0 12 3 6 3 -8 25 -13 54 -13 29 0 50 5 53 13 4 10 6 10 6 0 1 -10 28 -13 101 -13 l100 0 0 150 0 150 -22 -4 c-13 -2 -27 -5 -33 -7 -5 -1 -17 1 -26 5 -9 4 -38 6 -65 4 l-49 -3 -2 -110 c-2 -158 -2 -159 -9 -152 -3 3 -5 65 -5 138 1 117 0 130 -14 119 -11 -9 -15 -9 -15 -1 0 8 -12 11 -32 9 l-33 -3 -5 -115 -4 -115 -6 120 c-6 113 -6 109 -8 -71z m265 -6 c-2 -29 -3 -8 -3 47 0 55 1 79 3 53 2 -26 2 -71 0 -100z m-170 -11 c-2 -23 -3 -1 -3 48 0 50 1 68 3 42 2 -26 2 -67 0 -90z"/>
<path d="M7840 6232 c-6 -2 -10 -56 -10 -148 l0 -144 130 0 130 0 0 145 0 145 -65 0 -64 0 -4 -92 -3 -93 -2 93 c-1 50 -5 92 -9 93 -31 3 -94 4 -103 1z m130 -201 c0 -6 -4 -12 -8 -15 -5 -3 -9 1 -9 9 0 8 4 15 9 15 4 0 8 -4 8 -9z"/>
<path d="M8460 6014 l0 -155 148 3 147 3 3 151 3 151 -28 -1 -28 -1 -1 -78 c-1 -43 -4 -81 -8 -84 -3 -4 -6 33 -6 80 l0 87 -115 -1 -115 -1 0 -154z m80 82 c0 -19 -3 -37 -7 -39 -5 -3 -8 13 -8 34 0 21 3 39 7 39 5 0 8 -15 8 -34z m0 -71 c0 -8 -4 -15 -10 -15 -5 0 -10 7 -10 15 0 8 5 15 10 15 6 0 10 -7 10 -15z m160 -75 c0 -19 -7 -20 -117 -20 -64 0 -114 3 -110 6 3 3 53 5 111 5 88 -1 106 1 106 14 0 8 2 15 5 15 3 0 5 -9 5 -20z"/>
<path d="M8774 5975 c0 -110 2 -156 3 -103 2 53 2 143 0 200 -1 57 -3 13 -3 -97z"/>
<path d="M8790 6016 l0 -156 35 0 35 0 0 61 c0 33 -5 69 -10 79 -8 16 -8 18 5 14 12 -5 15 -38 18 -192 2 -170 3 -164 5 69 2 279 3 273 -55 278 l-33 3 0 -156z m78 63 l-3 -64 -5 72 c-3 40 -1 68 3 64 4 -4 7 -37 5 -72z"/>
<path d="M5930 5965 c0 -87 3 -105 15 -105 8 0 15 5 15 10 0 6 -5 10 -12 10 -6 0 -9 2 -6 5 8 9 38 -6 32 -16 -3 -5 43 -9 105 -9 141 0 148 18 9 22 -57 2 -20 4 82 4 102 0 154 -2 115 -4 -119 -5 -101 -22 24 -22 96 0 112 2 107 15 -4 11 1 15 19 15 22 0 24 4 28 63 3 61 3 61 5 -15 l2 -78 135 0 135 0 0 105 0 105 -134 0 -135 0 -4 -27 -4 -28 -2 28 -1 27 -265 0 -265 0 0 -105z m40 81 c0 -2 -7 -7 -16 -10 -8 -3 -12 -2 -9 4 6 10 25 14 25 6z m476 -20 c2 -13 1 -13 -3 -1 -2 8 -9 13 -14 10 -5 -4 -9 -1 -9 5 0 18 25 5 26 -14z"/>
<path d="M6770 5965 l0 -105 35 0 35 0 0 105 0 105 -35 0 -35 0 0 -105z"/>
<path d="M8890 5930 c0 -63 2 -70 20 -70 18 0 20 7 20 70 0 63 -2 70 -20 70 -18 0 -20 -7 -20 -70z"/>
<path d="M8128 5925 c-2 -3 -3 -18 0 -35 l4 -30 149 0 149 0 0 35 0 35 -148 0 c-82 0 -151 -2 -154 -5z"/>
<path d="M6430 5870 c0 -5 7 -10 15 -10 8 0 15 5 15 10 0 6 -7 10 -15 10 -8 0 -15 -4 -15 -10z"/>
<path d="M8460 5815 l0 -36 147 3 c134 3 146 5 149 22 6 44 -1 46 -152 46 l-144 0 0 -35z"/>
<path d="M8890 5675 c0 -25 -4 -45 -10 -45 -5 0 -10 -7 -10 -15 0 -12 16 -15 85 -15 l85 0 0 60 0 60 -75 0 -75 0 0 -45z"/>
<path d="M5536 5684 c-3 -8 -10 -12 -16 -9 -5 3 -10 0 -10 -7 0 -17 -74 -52 -94 -45 -20 8 -29 -8 -22 -39 4 -16 13 -24 29 -24 23 0 62 -20 40 -20 -6 0 -14 -15 -16 -32 -4 -29 -4 -28 -3 5 1 32 -1 37 -21 37 -22 0 -23 -4 -23 -67 0 -48 3 -64 10 -53 8 12 10 9 10 -11 0 -15 7 -32 15 -39 8 -7 15 -9 15 -5 0 4 10 -5 22 -20 12 -15 35 -33 52 -41 27 -11 -11 -13 -281 -14 -325 0 -326 0 -315 -42 4 -17 115 -18 2154 -18 l2149 0 -3 28 -3 27 -299 0 c-227 0 -290 3 -261 11 46 13 108 63 129 105 9 18 16 56 16 86 0 44 -3 53 -18 53 -10 0 -23 -5 -30 -12 -7 -7 -12 -8 -12 -2 0 14 48 36 61 29 5 -4 9 8 9 24 0 17 -3 31 -7 32 -35 3 -60 12 -76 26 -16 15 -20 15 -28 3 -9 -13 -10 -13 -7 0 12 44 -77 67 -138 35 -16 -8 -54 -15 -83 -15 -53 0 -61 -12 -16 -23 15 -3 13 -5 -8 -6 -16 -1 -30 5 -33 14 -9 23 -273 22 -312 -1 -25 -15 -25 -15 -8 0 19 15 18 16 -25 17 -82 2 -113 7 -117 18 -4 13 -102 15 -102 2 0 -16 -84 -64 -112 -64 -28 0 -46 -26 -33 -47 4 -6 8 -41 9 -78 2 -37 9 -78 16 -92 18 -37 85 -91 123 -100 17 -4 -328 -8 -768 -8 -440 1 -780 4 -755 7 91 13 160 95 160 191 0 47 -6 56 -33 51 -5 -1 -6 3 -2 9 3 5 14 10 25 10 10 0 20 6 23 14 8 21 -15 46 -38 42 -25 -4 -66 16 -99 49 -19 19 -35 25 -69 25 -28 0 -47 -5 -50 -13 -4 -10 -25 -14 -69 -14 -34 1 -54 2 -43 5 11 2 24 8 29 13 6 5 -87 9 -230 9 -158 0 -234 -4 -224 -10 8 -5 97 -10 198 -10 111 0 188 -4 195 -10 7 -6 21 -17 32 -25 18 -13 17 -13 -12 -3 -18 7 -33 16 -33 20 0 4 -65 8 -145 8 -80 0 -145 -4 -145 -8 0 -9 -62 -34 -68 -27 -3 3 10 11 29 19 l34 15 -55 2 c-30 1 -65 1 -77 2 -13 0 -23 6 -23 13 0 21 -106 19 -114 -2z m2372 -87 c24 -3 24 -4 -3 -3 -26 1 -30 5 -32 34 -3 30 -3 31 3 3 4 -23 12 -31 32 -34z m-2236 19 c7 4 8 2 4 -4 -13 -21 -26 -13 -25 16 2 23 2 24 6 4 3 -13 9 -19 15 -16z m218 24 c0 -5 -7 -10 -16 -10 -8 0 -12 5 -9 10 3 6 10 10 16 10 5 0 9 -4 9 -10z m175 0 c15 -6 11 -7 -17 -7 -20 1 -35 5 -32 9 6 10 22 9 49 -2z m191 -33 c-2 -7 -5 -4 -5 6 -1 13 -11 17 -43 18 l-43 2 40 6 c41 6 62 -7 51 -32z m83 -11 c-9 -8 -10 -7 -5 7 3 10 7 26 7 35 1 9 4 6 6 -7 3 -13 -1 -28 -8 -35z m1867 39 c5 -11 24 -15 80 -15 l74 0 -1 -62 c-1 -35 -3 -55 -6 -45 -4 14 -17 17 -84 17 l-80 0 3 -57 3 -58 75 -6 75 -5 -76 -2 c-62 -2 -78 1 -83 14 -3 9 -5 57 -4 107 1 51 3 75 5 55 l4 -38 80 0 79 0 0 35 0 35 -68 0 c-55 0 -71 4 -85 20 -9 11 -12 20 -7 20 6 0 13 -7 16 -15z m168 9 c9 -3 16 -11 16 -16 0 -6 -6 -5 -15 2 -8 7 -22 10 -30 6 -9 -3 -13 -2 -10 4 7 12 17 12 39 4z m201 -4 c-3 -5 -25 -9 -48 -8 l-42 1 45 7 c25 4 46 8 48 8 2 1 0 -2 -3 -8z m88 -41 c-6 -6 -7 3 -4 23 4 28 6 29 9 9 2 -13 0 -27 -5 -32z m-2945 34 c-10 -2 -26 -2 -35 0 -10 3 -2 5 17 5 19 0 27 -2 18 -5z m2315 0 c-13 -2 -33 -2 -45 0 -13 2 -3 4 22 4 25 0 35 -2 23 -4z m137 3 c0 -2 -7 -7 -16 -10 -8 -3 -12 -2 -9 4 6 10 25 14 25 6z m-2220 -96 c66 0 79 3 83 18 3 11 5 9 6 -8 l1 -25 -90 3 -90 3 2 47 1 47 4 -42 4 -43 79 0z m37 73 c-20 -2 -52 -2 -70 0 -17 2 0 4 38 4 39 0 53 -2 32 -4z m1983 -3 c0 -5 -5 -10 -11 -10 -5 0 -7 5 -4 10 3 6 8 10 11 10 2 0 4 -4 4 -10z m-1883 -22 c-3 -8 -6 -5 -6 6 -1 11 2 17 5 13 3 -3 4 -12 1 -19z m2304 -1 c-10 -9 -11 -8 -5 6 3 10 9 15 12 12 3 -3 0 -11 -7 -18z m-2541 -3 c0 -2 -7 -4 -15 -4 -8 0 -15 4 -15 10 0 5 7 7 15 4 8 -4 15 -8 15 -10z m2295 6 c3 -5 1 -10 -4 -10 -6 0 -11 5 -11 10 0 6 2 10 4 10 3 0 8 -4 11 -10z m-2538 -17 c-20 -2 -52 -2 -70 0 -17 2 0 4 38 4 39 0 53 -2 32 -4z m673 3 c0 -2 -7 -6 -15 -10 -8 -3 -15 -1 -15 4 0 6 7 10 15 10 8 0 15 -2 15 -4z m37 -2 c-3 -3 -12 -4 -19 -1 -8 3 -5 6 6 6 11 1 17 -2 13 -5z m79 -17 c1 -11 0 -12 -3 -3 -2 8 -17 17 -34 20 -28 6 -28 6 3 4 23 -2 33 -8 34 -21z m1557 16 c3 -5 -2 -15 -11 -23 -14 -13 -15 -12 -9 2 5 14 -2 18 -46 21 l-52 3 57 2 c31 1 59 -1 61 -5z m755 -5 c7 -7 12 -16 12 -22 0 -5 -6 -2 -13 8 -11 16 -24 18 -75 14 -34 -2 -57 -1 -50 4 20 12 113 9 126 -4z m-3168 -12 c0 -2 -8 -10 -17 -17 -16 -13 -17 -12 -4 4 13 16 21 21 21 13z m2235 -6 c3 -5 2 -10 -4 -10 -5 0 -12 -17 -14 -37 -4 -36 -4 -36 -3 4 1 30 -3 44 -14 47 -9 2 -6 4 7 5 12 0 25 -3 28 -9z m128 3 c-7 -2 -19 -2 -25 0 -7 3 -2 5 12 5 14 0 19 -2 13 -5z m757 -8 c7 -9 8 -15 2 -15 -5 0 -12 7 -16 15 -3 8 -4 15 -2 15 2 0 9 -7 16 -15z m-3025 -5 c-3 -5 -12 -10 -18 -10 -7 0 -6 4 3 10 19 12 23 12 15 0z m2220 0 c3 -5 1 -10 -4 -10 -6 0 -11 5 -11 10 0 6 2 10 4 10 3 0 8 -4 11 -10z m-2265 -4 c0 -3 -4 -8 -10 -11 -5 -3 -10 -1 -10 4 0 6 5 11 10 11 6 0 10 -2 10 -4z m257 -18 c2 -20 1 -21 -8 -5 -16 28 -29 20 -29 -18 0 -19 4 -35 9 -35 6 0 13 -20 17 -45 8 -54 15 -57 134 -53 l85 3 10 43 c6 24 16 46 21 50 6 4 14 14 17 22 4 12 6 11 6 -2 1 -10 6 -18 11 -18 6 0 10 -13 10 -30 0 -24 -4 -30 -21 -30 -12 0 -19 -5 -17 -12 5 -14 98 -24 98 -11 0 17 -18 35 -29 29 -6 -4 -11 -2 -11 3 0 6 4 11 9 11 6 0 8 17 5 38 -4 36 -4 35 9 -8 22 -75 40 -103 82 -127 l40 -23 -345 1 c-238 0 -337 3 -320 10 48 19 85 68 101 134 l7 30 1 -28 c1 -15 -7 -39 -16 -54 l-17 -26 52 5 c74 7 88 26 23 31 -25 2 -28 4 -16 13 8 6 15 18 15 27 0 9 5 19 10 22 6 3 10 17 10 31 0 20 -5 24 -31 24 -17 0 -40 -5 -52 -12 -20 -10 -21 -10 -9 5 8 9 33 18 60 20 26 2 54 4 62 5 10 1 16 -7 17 -20z m356 -10 c9 -11 17 -28 17 -37 -1 -9 -7 -1 -15 17 -14 31 -45 45 -45 20 0 -9 -3 -9 -8 -2 -13 19 -42 25 -42 9 0 -8 -4 -15 -10 -15 -5 0 -10 7 -10 16 0 10 -6 14 -15 10 -8 -3 -15 0 -15 6 0 20 123 0 143 -24z m264 0 c-3 -7 -5 -2 -5 12 0 14 2 19 5 13 2 -7 2 -19 0 -25z m1693 22 c0 -5 -7 -7 -15 -4 -12 5 -15 -2 -15 -29 0 -20 5 -39 10 -42 6 -3 10 -21 10 -39 0 -51 15 -57 126 -54 l99 3 3 39 c2 22 10 45 19 51 11 8 14 23 12 46 l-4 34 52 -3 c41 -3 56 -9 64 -24 6 -11 8 -22 6 -25 -3 -2 -8 5 -12 16 -7 23 -34 29 -36 9 0 -10 -2 -10 -6 0 -2 6 -16 12 -29 12 -20 0 -24 -5 -24 -29 0 -16 6 -31 14 -34 21 -8 8 -57 -16 -57 -36 0 -12 -25 26 -28 58 -5 71 3 52 30 -9 12 -15 38 -15 58 1 35 2 35 8 -7 4 -23 16 -52 27 -64 10 -11 19 -24 19 -28 0 -3 4 -5 8 -3 5 1 6 -2 2 -7 -3 -6 11 -19 32 -30 l38 -20 -345 0 -345 0 38 20 c32 17 67 57 81 94 2 6 9 4 17 -4 8 -8 9 -11 2 -7 -7 4 -17 -2 -23 -14 -10 -19 -8 -20 40 -20 38 0 50 4 50 15 0 8 -9 15 -19 15 -15 0 -19 6 -17 25 2 14 8 31 14 37 7 7 12 22 12 35 0 20 -5 23 -38 23 -38 0 -63 -16 -75 -50 -5 -13 -6 -13 -6 1 -2 31 26 53 75 60 74 10 84 10 84 -1z m478 -15 c-3 -3 -9 2 -12 12 -6 14 -5 15 5 6 7 -7 10 -15 7 -18z m149 -27 c-2 -13 -4 -5 -4 17 -1 22 1 32 4 23 2 -10 2 -28 0 -40z m-3297 -2 c0 -26 -6 -18 -14 19 -5 22 -4 26 4 15 5 -8 10 -24 10 -34z m907 22 c-3 -8 -6 -5 -6 6 -1 11 2 17 5 13 3 -3 4 -12 1 -19z m2300 8 c-3 -8 -2 -29 3 -46 5 -17 5 -28 1 -25 -18 11 -21 85 -4 85 3 0 3 -6 0 -14z m-3157 -6 c0 -5 -5 -10 -11 -10 -5 0 -7 5 -4 10 3 6 8 10 11 10 2 0 4 -4 4 -10z m733 -10 c-3 -11 -7 -20 -9 -20 -2 0 -4 9 -4 20 0 11 4 20 9 20 5 0 7 -9 4 -20z m2474 -2 c-3 -8 -6 -5 -6 6 -1 11 2 17 5 13 3 -3 4 -12 1 -19z m-3091 -42 c-2 -6 -5 -3 -5 7 -1 9 -5 17 -11 17 -5 0 -7 7 -3 17 5 14 8 12 15 -7 5 -13 7 -28 4 -34z m91 32 c-3 -8 -6 -5 -6 6 -1 11 2 17 5 13 3 -3 4 -12 1 -19z m273 7 c0 -8 -2 -15 -4 -15 -2 0 -6 7 -10 15 -3 8 -1 15 4 15 6 0 10 -7 10 -15z m290 11 c0 -2 -7 -9 -15 -16 -13 -11 -14 -10 -9 4 5 14 24 23 24 12z m60 -11 c11 7 7 -22 -5 -32 -4 -4 -5 -3 -1 4 3 6 2 14 -4 18 -5 3 -10 12 -9 18 0 9 2 8 6 -1 2 -6 8 -10 13 -7z m57 -17 c-3 -7 -5 -2 -5 12 0 14 2 19 5 13 2 -7 2 -19 0 -25z m1460 10 c-3 -8 -6 -5 -6 6 -1 11 2 17 5 13 3 -3 4 -12 1 -19z m37 -18 c-5 -5 -10 3 -11 18 -1 22 0 24 9 8 6 -10 6 -22 2 -26z m137 -2 c-4 -35 -6 -38 -9 -15 -3 26 3 57 10 57 2 0 1 -19 -1 -42z m279 27 c0 -8 -2 -15 -4 -15 -2 0 -6 7 -10 15 -3 8 -1 15 4 15 6 0 10 -7 10 -15z m-543 -17 c-3 -8 -6 -5 -6 6 -1 11 2 17 5 13 3 -3 4 -12 1 -19z m73 18 c0 -3 -4 -8 -10 -11 -5 -3 -10 -1 -10 4 0 6 5 11 10 11 6 0 10 -2 10 -4z m-2230 -60 c0 -4 -11 4 -24 16 -13 13 -21 27 -19 31 4 7 43 -35 43 -47z m57 32 c-3 -8 -6 -5 -6 6 -1 11 2 17 5 13 3 -3 4 -12 1 -19z m170 -40 c-2 -13 -4 -3 -4 22 0 25 2 35 4 23 2 -13 2 -33 0 -45z m454 39 c-10 -9 -11 -8 -5 6 3 10 9 15 12 12 3 -3 0 -11 -7 -18z m145 -20 c-3 -18 -13 -42 -21 -53 -13 -17 -13 -14 0 18 8 21 15 47 15 59 0 12 3 20 6 16 4 -3 4 -21 0 -40z m1774 33 c0 -5 -7 -7 -15 -4 -8 4 -15 8 -15 10 0 2 7 4 15 4 8 0 15 -4 15 -10z m-2650 -33 c0 -3 -6 -7 -12 -10 -8 -3 -14 5 -14 19 -2 20 0 21 12 9 8 -7 14 -16 14 -18z m807 11 c-3 -8 -6 -5 -6 6 -1 11 2 17 5 13 3 -3 4 -12 1 -19z m2340 0 c-3 -8 -6 -5 -6 6 -1 11 2 17 5 13 3 -3 4 -12 1 -19z m-2742 2 c3 -5 -1 -10 -9 -10 -9 0 -16 5 -16 10 0 6 4 10 9 10 6 0 13 -4 16 -10z m22 -12 c-3 -8 -6 -5 -6 6 -1 11 2 17 5 13 3 -3 4 -12 1 -19z m283 -3 c14 -19 14 -19 -2 -6 -10 7 -18 18 -18 24 0 6 1 8 3 6 1 -2 9 -13 17 -24z m41 2 c-10 -9 -11 -8 -5 6 3 10 9 15 12 12 3 -3 0 -11 -7 -18z m1516 1 c-3 -8 -6 -5 -6 6 -1 11 2 17 5 13 3 -3 4 -12 1 -19z m44 -3 c5 4 9 1 9 -4 0 -6 -4 -11 -8 -11 -12 0 -32 22 -32 35 0 5 5 2 11 -8 6 -9 14 -15 20 -12z m42 10 c-3 -9 -8 -14 -10 -11 -3 3 -2 9 2 15 9 16 15 13 8 -4z m594 -17 c-3 -7 -5 -2 -5 12 0 14 2 19 5 13 2 -7 2 -19 0 -25z m-3080 0 c-3 -8 -6 -5 -6 6 -1 11 2 17 5 13 3 -3 4 -12 1 -19z m457 10 c-3 -4 -9 -8 -15 -8 -5 0 -9 4 -9 8 0 5 7 9 15 9 8 0 12 -4 9 -9z m1893 -40 c-2 -13 -4 -5 -4 17 -1 22 1 32 4 23 2 -10 2 -28 0 -40z m451 45 c-10 -2 -26 -2 -35 0 -10 3 -2 5 17 5 19 0 27 -2 18 -5z m75 0 c-7 -2 -19 -2 -25 0 -7 3 -2 5 12 5 14 0 19 -2 13 -5z m427 -52 c-28 -57 -33 -51 -7 8 12 27 23 45 25 41 2 -5 -6 -27 -18 -49z m-2374 11 c-4 -3 -11 0 -16 8 -15 24 -11 33 6 15 9 -9 13 -19 10 -23z m31 16 c-3 -8 -6 -5 -6 6 -1 11 2 17 5 13 3 -3 4 -12 1 -19z m-787 -11 c10 -4 8 -6 -7 -6 -16 -1 -23 5 -23 17 0 10 3 13 8 6 4 -6 14 -14 22 -17z m2215 13 c3 -5 1 -10 -4 -10 -6 0 -11 5 -11 10 0 6 2 10 4 10 3 0 8 -4 11 -10z m-2327 -33 c12 -3 10 -5 -5 -6 -18 -1 -23 4 -22 22 1 15 3 17 6 5 2 -9 12 -19 21 -21z m169 8 c-4 -8 -14 -14 -24 -14 -17 1 -17 2 0 6 9 2 17 12 17 20 0 9 3 14 6 10 4 -3 4 -13 1 -22z m613 9 c0 -2 -7 -4 -15 -4 -8 0 -15 4 -15 10 0 5 7 7 15 4 8 -4 15 -8 15 -10z m1650 6 c0 -5 -4 -10 -10 -10 -5 0 -10 5 -10 10 0 6 5 10 10 10 6 0 10 -4 10 -10z m780 -10 c0 -11 -4 -20 -9 -20 -5 0 -7 9 -4 20 3 11 7 20 9 20 2 0 4 -9 4 -20z m-3173 4 c-3 -3 -12 -4 -19 -1 -8 3 -5 6 6 6 11 1 17 -2 13 -5z m473 -4 c0 -6 -31 -9 -77 -8 l-78 2 75 6 c41 4 76 7 78 8 1 1 2 -2 2 -8z m1764 -25 l17 -30 -20 24 c-12 13 -21 28 -21 34 0 12 0 11 24 -28z m109 28 c-7 -2 -19 -2 -25 0 -7 3 -2 5 12 5 14 0 19 -2 13 -5z m644 -15 c-3 -8 -6 -5 -6 6 -1 11 2 17 5 13 3 -3 4 -12 1 -19z m120 16 c-3 -3 -12 -4 -19 -1 -8 3 -5 6 6 6 11 1 17 -2 13 -5z m-3183 -30 c3 -8 2 -12 -4 -9 -6 3 -10 10 -10 16 0 14 7 11 14 -7z m884 9 c-21 -2 -57 -2 -80 0 -24 2 -7 4 37 4 44 0 63 -2 43 -4z m1575 0 c-24 -2 -62 -2 -85 0 -24 2 -5 4 42 4 47 0 66 -2 43 -4z m-1940 -10 c-23 -2 -64 -2 -90 0 -26 2 -7 3 42 3 50 0 71 -1 48 -3z m2310 0 c-23 -2 -64 -2 -90 0 -26 2 -7 3 42 3 50 0 71 -1 48 -3z m-2638 -13 c-3 -5 -12 -10 -18 -10 -7 0 -6 4 3 10 19 12 23 12 15 0z m603 -7 c-10 -2 -26 -2 -35 0 -10 3 -2 5 17 5 19 0 27 -2 18 -5z m2309 1 c-3 -3 -12 -4 -19 -1 -8 3 -5 6 6 6 11 1 17 -2 13 -5z"/>
<path d="M7978 5693 c6 -2 18 -2 25 0 6 3 1 5 -13 5 -14 0 -19 -2 -12 -5z"/>
<path d="M8040 5690 c19 -13 490 -12 490 1 0 5 -108 9 -252 9 -171 0 -248 -4 -238 -10z"/>
<path d="M6580 5635 c0 -13 66 -15 533 -15 468 0 534 2 534 15 0 13 -66 15 -534 15 -467 0 -533 -2 -533 -15z"/>
<path d="M6577 5508 l2 -103 527 -3 c290 -1 530 1 533 5 4 5 5 52 3 106 l-3 97 -532 0 -532 0 2 -102z"/>
</g>
</svg>