<svg xmlns="http://www.w3.org/2000/svg" viewBox="339.60 251.80 592.50 275.20">
<g transform="translate(0.000000,768.000000) scale(0.100000,-0.100000)" fill="currentColor" stroke="none">
<path d="M6834 5079 c-15 -16 -19 -36 -19 -89 0 -53 4 -73 19 -89 21 -23 65 -28 84 -9 9 9 12 9 12 0 0 -7 5 -12 10 -12 6 0 10 24 10 54 0 40 -4 55 -16 60 -28 11 -54 6 -54 -9 0 -9 9 -15 25 -15 29 0 32 -16 9 -48 -18 -26 -37 -28 -58 -6 -19 18 -22 114 -6 145 15 27 46 24 66 -7 11 -17 20 -22 27 -15 7 7 4 18 -7 35 -21 33 -74 36 -102 5z"/>
<path d="M6990 4990 c0 -67 4 -110 10 -110 6 0 10 20 10 45 0 43 1 45 29 45 31 0 69 26 72 50 6 56 -17 80 -77 80 l-44 0 0 -110z m85 77 c13 -10 16 -21 11 -40 -5 -23 -12 -27 -41 -27 -33 0 -35 2 -35 33 0 19 3 37 7 40 11 11 38 8 58 -6z"/>
<path d="M7170 5070 l-34 -30 27 0 27 0 0 -80 c0 -47 4 -80 10 -80 6 0 10 43 10 110 0 61 -1 110 -2 110 -2 -1 -19 -14 -38 -30z"/>
<path d="M7295 5077 c-12 -19 -13 -30 -5 -52 7 -20 8 -31 0 -39 -15 -15 -12 -73 6 -90 24 -25 71 -20 90 9 16 25 12 79 -7 90 -5 3 -3 14 3 25 9 13 9 27 2 47 -13 39 -66 45 -89 10z m64 -11 c9 -11 10 -20 1 -36 -12 -23 -28 -23 -43 2 -22 34 17 65 42 34z m-1 -88 c25 -25 8 -78 -25 -78 -22 0 -37 44 -24 69 13 24 31 27 49 9z"/>
<path d="M3935 4640 c-489 -3 -128 -5 950 -5 957 0 1621 1 1475 2 -620 6 -1690 8 -2425 3z"/>
<path d="M6708 4633 c18 -2 45 -2 60 0 15 2 0 4 -33 4 -33 0 -45 -2 -27 -4z"/>
<path d="M6888 4633 c7 -3 16 -2 19 1 4 3 -2 6 -13 5 -11 0 -14 -3 -6 -6z"/>
<path d="M6947 4633 c18 -2 50 -2 70 0 21 2 7 4 -32 4 -38 0 -55 -2 -38 -4z"/>
<path d="M7113 4633 c32 -2 81 -2 110 0 29 2 3 3 -58 3 -60 0 -84 -1 -52 -3z"/>
<path d="M7293 4633 c9 -2 25 -2 35 0 9 3 1 5 -18 5 -19 0 -27 -2 -17 -5z"/>
<path d="M7373 4633 c15 -2 39 -2 55 0 15 2 2 4 -28 4 -30 0 -43 -2 -27 -4z"/>
<path d="M7528 4633 c7 -3 16 -2 19 1 4 3 -2 6 -13 5 -11 0 -14 -3 -6 -6z"/>
<path d="M7663 4633 c42 -2 112 -2 155 0 42 1 7 3 -78 3 -85 0 -120 -2 -77 -3z"/>
<path d="M5620 4145 c0 -32 3 -36 18 -30 41 18 63 17 77 -1 13 -18 14 -18 21 -1 5 15 14 18 35 13 26 -5 29 -3 29 19 0 22 -3 25 -25 19 -14 -3 -31 -1 -39 5 -11 9 -16 9 -21 0 -7 -11 -40 -8 -77 6 -15 6 -18 1 -18 -30z"/>
<path d="M8180 4160 c0 -19 7 -20 170 -20 163 0 170 1 170 20 0 19 -7 20 -170 20 -163 0 -170 -1 -170 -20z"/>
<path d="M8600 4161 c0 -20 5 -21 176 -21 162 0 175 1 172 18 -3 15 -21 17 -176 20 -168 3 -172 3 -172 -17z"/>
<path d="M7390 4145 l0 -25 176 0 175 0 -3 23 c-3 22 -5 22 -175 25 l-173 2 0 -25z"/>
<path d="M7905 4161 c-3 -5 -1 -12 5 -16 5 -3 10 -15 10 -26 0 -24 20 -26 21 -1 0 13 2 14 6 2 3 -8 11 -18 17 -22 6 -4 -19 -8 -56 -8 l-68 0 0 -44 c0 -34 4 -46 18 -49 16 -4 16 -5 0 -6 -14 -1 -18 -10 -18 -46 0 -25 2 -45 5 -45 18 0 186 93 194 107 9 16 10 16 11 1 0 -11 -36 -35 -110 -73 l-110 -56 0 113 0 113 -260 0 c-214 0 -260 -2 -260 -14 0 -10 -3 -11 -14 -2 -10 8 -38 10 -90 5 l-76 -7 0 -43 c0 -24 5 -44 13 -47 10 -4 10 -6 0 -6 -9 -1 -13 -18 -13 -51 l0 -50 85 0 85 0 0 49 0 50 -52 4 -53 3 52 2 c40 2 53 6 56 20 3 9 5 -18 6 -60 l1 -78 -86 0 c-81 0 -92 3 -190 47 -57 25 -102 48 -100 50 2 2 43 -14 91 -37 48 -22 89 -40 91 -40 2 0 4 20 4 45 l0 44 -97 4 -98 3 98 2 98 2 -3 48 c-2 38 -6 46 -20 44 -12 -2 -16 2 -12 11 3 10 -4 17 -20 21 -14 3 -26 11 -26 16 0 6 -22 10 -50 10 -27 0 -50 -4 -50 -9 0 -5 -9 -13 -20 -16 -36 -11 -21 -24 33 -27 125 -8 -95 -13 -328 -8 l-240 6 249 2 c216 2 284 7 221 16 -9 1 -20 8 -24 14 -12 19 -379 22 -390 3 -5 -8 -17 -15 -28 -16 -26 -3 -71 -24 -53 -25 13 0 13 -2 0 -10 -13 -7 -16 -41 -18 -209 l-2 -201 28 0 c24 0 36 -10 68 -57 l39 -58 3 123 3 122 27 -1 c23 -1 23 -2 5 -6 -21 -4 -22 -10 -25 -124 l-3 -119 317 1 c235 0 318 3 322 12 3 9 5 9 5 0 1 -7 6 -13 11 -13 6 0 10 58 10 155 0 106 -3 155 -11 155 -7 0 -10 -18 -7 -50 3 -28 1 -53 -4 -56 -4 -3 -8 20 -8 50 l0 56 -54 0 -55 0 -4 -42 -4 -43 -1 43 -2 44 -65 -4 c-36 -1 -65 0 -65 5 0 4 278 6 618 5 339 -1 587 -3 550 -5 l-68 -4 0 -154 0 -155 139 0 139 0 43 -35 c55 -47 79 -60 79 -43 0 9 3 9 10 -2 6 -10 10 35 10 138 l0 152 325 0 325 0 0 160 0 160 -27 0 c-16 0 -253 1 -528 3 l-500 2 3 43 c2 25 -1 42 -7 42 -6 0 -12 -12 -12 -27 -2 -24 -2 -25 -6 -5 -5 24 -18 29 -26 10 -3 -8 -6 -6 -6 5 -1 18 -16 23 -26 8z m-868 -67 c-3 -3 -12 -4 -19 -1 -8 3 -5 6 6 6 11 1 17 -2 13 -5z m-249 -151 l3 -113 -186 0 -185 0 0 115 0 115 183 -2 182 -3 3 -112z m729 55 c-3 -7 -5 -2 -5 12 0 14 2 19 5 13 2 -7 2 -19 0 -25z m-20 -55 c-2 -16 -4 -3 -4 27 0 30 2 43 4 28 2 -16 2 -40 0 -55z m322 40 c-1 -24 -3 -29 -6 -15 -3 17 -12 22 -36 24 l-32 1 33 4 c17 2 32 8 32 14 0 5 2 9 5 9 3 0 4 -17 4 -37z m-899 6 c0 -4 -7 -6 -15 -3 -8 4 -15 10 -15 15 0 4 7 6 15 3 8 -4 15 -10 15 -15z m407 -26 c-3 -10 -5 -4 -5 12 0 17 2 24 5 18 2 -7 2 -21 0 -30z m20 0 c-3 -10 -5 -4 -5 12 0 17 2 24 5 18 2 -7 2 -21 0 -30z m106 30 c-18 -2 -48 -2 -65 0 -18 2 -4 4 32 4 36 0 50 -2 33 -4z m155 0 c-16 -2 -40 -2 -55 0 -16 2 -3 4 27 4 30 0 43 -2 28 -4z m120 0 c-10 -2 -26 -2 -35 0 -10 3 -2 5 17 5 19 0 27 -2 18 -5z m1282 -107 l0 -104 -40 -4 -40 -4 2 61 2 60 3 -52 c4 -51 5 -53 34 -53 26 0 29 3 29 30 0 20 -5 30 -15 30 -8 0 -15 9 -15 20 0 11 7 20 15 20 11 0 15 11 15 43 0 42 -1 44 -30 45 -20 0 -30 -4 -30 -14 0 -8 -4 -14 -10 -14 -5 0 -7 6 -4 14 4 10 -1 14 -15 13 -18 -1 -21 -8 -21 -44 0 -34 4 -43 18 -44 16 -1 16 -2 0 -6 -14 -3 -18 -15 -18 -48 0 -33 4 -45 18 -48 13 -4 11 -5 -5 -6 -22 -1 -23 2 -23 98 0 89 -2 99 -17 96 -29 -6 -29 -6 -8 -15 19 -8 19 -9 -2 -9 -13 -1 -23 5 -23 12 0 8 -7 14 -15 14 -19 0 -22 -87 -2 -88 10 0 10 -2 0 -6 -8 -3 -13 -23 -13 -49 0 -38 3 -44 21 -44 17 0 20 5 17 25 -3 14 -1 25 3 25 5 0 9 -11 9 -24 0 -13 6 -27 13 -29 6 -3 -107 -5 -253 -5 -146 0 -259 2 -252 5 7 3 12 23 12 49 0 28 -5 44 -12 45 -10 0 -10 2 0 6 7 3 12 23 12 48 0 36 -3 43 -17 40 -10 -1 -17 -8 -15 -14 1 -6 -2 -11 -8 -11 -5 0 -10 6 -10 13 0 8 -7 14 -15 14 -12 0 -15 -18 -15 -99 l0 -98 -47 1 c-27 1 -40 3 -30 6 13 3 17 15 17 49 0 35 -4 44 -17 45 -17 1 -17 2 0 6 13 3 17 15 17 48 0 38 -3 44 -20 42 -19 -1 -20 -8 -20 -99 l0 -98 -30 0 -30 0 0 105 0 105 440 0 440 0 0 -104z m-1663 32 c-3 -8 -6 -5 -6 6 -1 11 2 17 5 13 3 -3 4 -12 1 -19z m73 12 c0 -5 -10 -10 -22 -9 -22 0 -22 1 -3 9 11 5 21 9 23 9 1 1 2 -3 2 -9z m397 -27 c-3 -10 -5 -4 -5 12 0 17 2 24 5 18 2 -7 2 -21 0 -30z m523 27 c0 -5 -4 -10 -10 -10 -5 0 -10 5 -10 10 0 6 5 10 10 10 6 0 10 -4 10 -10z m507 -10 c-1 -11 -5 -20 -9 -20 -4 0 -8 9 -8 20 0 11 4 20 9 20 6 0 9 -9 8 -20z m90 -12 c-3 -7 -5 -2 -5 12 0 14 2 19 5 13 2 -7 2 -19 0 -25z m53 28 c0 -3 -4 -8 -10 -11 -5 -3 -10 -1 -10 4 0 6 5 11 10 11 6 0 10 -2 10 -4z m-1595 -46 c3 -5 1 -10 -4 -10 -6 0 -11 5 -11 10 0 6 2 10 4 10 3 0 8 -4 11 -10z m340 0 c3 -5 1 -10 -4 -10 -6 0 -11 5 -11 10 0 6 2 10 4 10 3 0 8 -4 11 -10z m1128 -7 c-7 -2 -19 -2 -25 0 -7 3 -2 5 12 5 14 0 19 -2 13 -5z m-13 -23 c0 -5 -2 -10 -4 -10 -3 0 -8 5 -11 10 -3 6 -1 10 4 10 6 0 11 -4 11 -10z m-845 -30 c3 -5 1 -10 -4 -10 -6 0 -11 5 -11 10 0 6 2 10 4 10 3 0 8 -4 11 -10z m335 -20 c0 -5 -4 -10 -10 -10 -5 0 -10 5 -10 10 0 6 5 10 10 10 6 0 10 -4 10 -10z m645 0 c3 -5 1 -10 -4 -10 -6 0 -11 5 -11 10 0 6 2 10 4 10 3 0 8 -4 11 -10z m-2402 -17 c-7 -2 -19 -2 -25 0 -7 3 -2 5 12 5 14 0 19 -2 13 -5z m60 0 c-7 -2 -19 -2 -25 0 -7 3 -2 5 12 5 14 0 19 -2 13 -5z m44 1 c-3 -3 -12 -4 -19 -1 -8 3 -5 6 6 6 11 1 17 -2 13 -5z m76 -1 c-13 -2 -33 -2 -45 0 -13 2 -3 4 22 4 25 0 35 -2 23 -4z m1570 -10 c-7 -2 -19 -2 -25 0 -7 3 -2 5 12 5 14 0 19 -2 13 -5z m-1326 -80 c-2 -16 -4 -5 -4 22 0 28 2 40 4 28 2 -13 2 -35 0 -50z m1306 50 c-40 -2 -106 -2 -145 0 -40 1 -8 3 72 3 80 0 112 -2 73 -3z m-1186 -120 c-2 -21 -4 -4 -4 37 0 41 2 58 4 38 2 -21 2 -55 0 -75z m1110 61 c-3 -3 -12 -4 -19 -1 -8 3 -5 6 6 6 11 1 17 -2 13 -5z"/>
<path d="M6430 3945 l0 -105 173 2 172 3 0 102 0 103 -172 0 -173 0 0 -105z"/>
<path d="M8140 3933 c0 -36 3 -43 20 -43 17 0 20 7 20 44 0 39 -3 45 -20 43 -17 -1 -20 -8 -20 -44z m30 -17 c0 -3 -4 -8 -10 -11 -5 -3 -10 -1 -10 4 0 6 5 11 10 11 6 0 10 -2 10 -4z"/>
<path d="M8240 3933 c0 -36 3 -43 20 -43 27 0 29 56 3 63 -17 4 -17 5 0 6 9 0 17 5 17 10 0 6 -9 9 -20 8 -17 -1 -20 -8 -20 -44z"/>
<path d="M8380 3883 l0 -93 30 0 c26 0 30 4 31 28 l1 27 8 -30 c7 -28 8 -27 10 15 1 25 4 37 7 28 2 -9 14 -19 26 -21 l22 -4 -22 -2 c-16 -1 -23 -7 -23 -21 0 -16 7 -20 35 -20 l35 0 0 93 0 92 -35 2 c-35 2 -35 2 -35 -42 0 -37 3 -44 23 -48 19 -4 18 -4 -5 -6 -27 -1 -28 1 -28 47 l0 47 -40 0 -40 0 0 -92z m43 70 c-7 -2 -19 -2 -25 0 -7 3 -2 5 12 5 14 0 19 -2 13 -5z m84 1 c-3 -3 -12 -4 -19 -1 -8 3 -5 6 6 6 11 1 17 -2 13 -5z m20 -66 c-3 -8 -6 -5 -6 6 -1 11 2 17 5 13 3 -3 4 -12 1 -19z m-104 -5 c-7 -2 -19 -2 -25 0 -7 3 -2 5 12 5 14 0 19 -2 13 -5z m104 -45 c-3 -7 -5 -2 -5 12 0 14 2 19 5 13 2 -7 2 -19 0 -25z m-102 -28 c3 -5 1 -10 -4 -10 -6 0 -11 5 -11 10 0 6 2 10 4 10 3 0 8 -4 11 -10z"/>
<path d="M8553 3935 c0 -27 2 -38 4 -22 2 15 2 37 0 50 -2 12 -4 0 -4 -28z"/>
<path d="M8573 3883 l1 -93 38 0 38 0 0 93 0 92 -39 1 -39 1 1 -94z m44 1 c-3 -3 -12 -4 -19 -1 -8 3 -5 6 6 6 11 1 17 -2 13 -5z m3 -34 c0 -13 -6 -20 -17 -19 -11 0 -13 3 -5 6 6 2 12 11 12 19 0 8 2 14 5 14 3 0 5 -9 5 -20z"/>
<path d="M8660 3933 c0 -36 3 -43 19 -43 14 0 21 8 24 28 l4 27 2 -27 c0 -18 7 -28 16 -28 11 0 15 11 15 43 0 32 -4 44 -15 44 -8 0 -15 -6 -15 -14 0 -7 -10 -12 -22 -12 -17 1 -19 2 -5 6 24 6 22 22 -3 20 -17 -1 -20 -8 -20 -44z"/>
<path d="M8755 3971 c-3 -5 3 -12 12 -14 17 -4 17 -5 1 -6 -27 -2 -25 -61 2 -61 17 0 20 7 20 45 0 33 -4 45 -14 45 -8 0 -17 -4 -21 -9z"/>
<path d="M8140 3835 c0 -38 3 -45 20 -45 17 0 20 7 20 45 0 38 -3 45 -20 45 -17 0 -20 -7 -20 -45z m30 31 c0 -3 -4 -8 -10 -11 -5 -3 -10 -1 -10 4 0 6 5 11 10 11 6 0 10 -2 10 -4z m-5 -56 c3 -5 1 -10 -4 -10 -6 0 -11 5 -11 10 0 6 2 10 4 10 3 0 8 -4 11 -10z"/>
<path d="M8240 3835 c0 -38 3 -45 20 -45 17 0 20 7 20 45 0 38 -3 45 -20 45 -17 0 -20 -7 -20 -45z"/>
<path d="M8660 3835 c0 -38 3 -45 20 -45 25 0 27 37 3 43 -17 4 -17 5 0 6 25 2 23 41 -3 41 -17 0 -20 -7 -20 -45z"/>
<path d="M8710 3835 c0 -33 4 -45 15 -45 11 0 15 12 15 45 0 33 -4 45 -15 45 -11 0 -15 -12 -15 -45z"/>
<path d="M8750 3835 c0 -38 3 -45 20 -45 17 0 20 7 20 45 0 38 -3 45 -20 45 -17 0 -20 -7 -20 -45z"/>
<path d="M8980 3870 c0 -5 5 -10 10 -10 6 0 10 5 10 10 0 6 -4 10 -10 10 -5 0 -10 -4 -10 -10z"/>
<path d="M8552 3810 c0 -14 2 -19 5 -12 2 6 2 18 0 25 -3 6 -5 1 -5 -13z"/>
<path d="M8175 4119 c-16 -24 18 -29 181 -27 142 3 169 5 169 18 0 13 -27 15 -172 18 -118 2 -174 -1 -178 -9z"/>
<path d="M8600 4116 c0 -19 91 -28 235 -24 95 3 110 5 113 21 3 16 -10 17 -172 17 -145 0 -176 -2 -176 -14z"/>
<path d="M9080 4096 c0 -9 -7 -16 -15 -16 -13 0 -15 -51 -17 -392 -2 -255 -4 -313 -5 -165 l-3 227 -59 0 c-38 0 -61 -4 -64 -12 -4 -10 -6 -10 -6 0 -1 8 -23 12 -76 12 l-75 0 0 -150 0 -150 75 0 c53 0 75 4 75 13 0 9 2 9 8 0 4 -6 29 -13 56 -15 l48 -3 -1 -275 c-1 -151 -4 -276 -6 -279 -3 -2 -5 41 -5 97 l0 102 -39 0 c-37 0 -40 -2 -44 -32 -2 -19 -4 -9 -4 22 0 30 1 47 4 38 3 -13 15 -18 44 -18 39 0 39 0 39 40 0 40 0 40 -39 40 -33 0 -40 -4 -44 -22 -2 -13 -5 25 -6 85 0 59 3 107 8 107 5 0 7 -17 6 -37 -1 -21 2 -44 8 -50 6 -9 6 -13 -1 -13 -6 0 -9 -12 -8 -27 3 -24 8 -28 40 -31 l36 -3 0 126 0 126 -37 -3 c-30 -2 -37 -7 -35 -20 2 -10 -2 -18 -7 -18 -5 0 -8 9 -6 20 2 11 0 20 -6 20 -5 0 -10 -83 -10 -202 -1 -112 -4 -191 -6 -175 l-4 27 -170 0 -169 0 -1 -27 -1 -28 -8 30 -7 30 -5 -30 -5 -30 -2 28 -1 27 -180 0 c-137 0 -180 -3 -180 -12 0 -9 -3 -9 -9 1 -7 11 -10 7 -14 -15 l-4 -29 -2 28 -1 27 -185 0 c-178 0 -185 -1 -185 -20 0 -17 7 -20 43 -20 42 0 67 -13 67 -34 0 -6 -5 -3 -11 7 -9 16 -41 17 -434 17 -418 0 -425 0 -425 -20 0 -19 8 -20 423 -23 l422 -2 -423 -3 -423 -2 3 -42 3 -43 428 -3 c421 -2 429 -2 434 18 5 19 15 20 549 22 356 2 545 0 548 -7 2 -5 3 -57 3 -115 0 -84 -1 -90 -4 -30 l-4 76 -43 23 c-24 13 -48 21 -55 17 -6 -4 -11 -3 -11 2 0 17 -73 25 -85 10 -11 -15 -49 -12 -40 3 4 5 -119 9 -309 9 -174 0 -316 -4 -316 -8 0 -5 19 -12 42 -18 37 -8 66 -34 38 -34 -6 0 -9 4 -5 9 6 11 -100 35 -115 26 -5 -3 -10 -1 -10 4 0 6 -20 11 -45 11 -29 0 -45 -4 -45 -12 0 -9 -3 -8 -10 2 -7 12 -16 9 -55 -18 -25 -17 -52 -32 -59 -32 -32 0 -46 -13 -46 -41 0 -17 5 -29 13 -29 9 0 11 -17 9 -61 -2 -33 2 -74 8 -90 14 -33 83 -99 104 -99 8 0 18 -4 21 -10 4 -7 -254 -10 -767 -10 -641 1 -767 3 -737 14 95 34 147 112 136 205 -4 38 -2 51 9 55 25 9 16 45 -13 57 -55 22 -98 44 -115 62 -10 9 -18 12 -18 7 0 -5 -5 -10 -11 -10 -5 0 -7 5 -4 10 11 17 -67 11 -87 -7 -10 -9 -18 -11 -18 -5 0 6 6 13 13 15 7 3 4 6 -6 6 -10 1 -25 -6 -33 -14 -9 -8 -23 -14 -32 -14 -15 1 -15 2 1 6 9 2 17 9 17 14 0 5 -129 9 -317 9 -174 0 -313 -3 -309 -7 4 -4 19 -9 34 -11 15 -2 29 -6 32 -9 3 -3 -17 -3 -45 1 -27 3 -51 11 -53 16 -5 14 -66 12 -81 -2 -11 -10 -13 -10 -7 0 4 7 1 12 -8 12 -9 0 -16 -7 -16 -17 0 -9 -3 -14 -6 -10 -3 3 -27 -8 -52 -24 -25 -16 -52 -29 -59 -29 -8 0 -13 -13 -13 -35 0 -25 4 -33 13 -29 15 5 44 -23 33 -33 -3 -3 -6 -1 -6 5 0 7 -7 12 -15 12 -31 0 -32 -89 -1 -150 19 -39 7 -38 -44 5 -50 41 -57 44 -33 10 10 -14 36 -33 57 -42 92 -42 150 -73 131 -72 -11 1 -149 1 -307 0 l-288 -1 0 -30 0 -30 2171 0 2170 0 -3 31 -3 31 -182 -1 c-116 -1 -184 2 -188 9 -3 5 -1 10 5 10 6 0 31 19 56 42 31 28 44 48 41 60 -3 11 0 18 9 18 9 0 15 12 15 33 2 30 2 30 6 5 4 -27 6 -28 71 -29 37 0 75 -2 85 -4 22 -4 35 -15 19 -15 -7 0 -12 -15 -12 -36 0 -28 3 -35 18 -32 16 3 17 32 20 421 1 276 -1 417 -8 417 -6 0 -10 -80 -11 -222 0 -123 -3 -217 -6 -210 -3 8 -30 12 -84 12 l-79 0 0 -35 0 -35 79 0 c75 0 80 1 84 23 3 17 5 16 6 -8 l1 -30 -85 3 -85 3 0 -47 0 -47 85 6 c51 4 85 2 85 -3 0 -6 -43 -11 -97 -11 -69 -1 -86 -4 -58 -8 l40 -7 -38 -5 c-21 -3 -40 -3 -42 0 -3 2 -4 23 -4 45 1 39 2 40 9 11 5 -18 8 29 9 120 1 116 4 146 13 137 7 -7 37 -12 67 -12 49 1 54 2 38 14 -15 12 -15 15 -3 19 13 5 15 40 15 224 0 156 -4 220 -12 225 -9 6 -9 8 1 8 15 0 17 93 1 122 -8 15 -8 19 0 14 6 -4 11 0 11 8 0 10 -6 13 -17 10 -15 -5 -16 -4 -3 5 20 14 24 318 4 329 -7 4 -13 12 -13 17 0 6 -12 11 -26 13 -17 2 -25 -1 -25 -12z m33 -263 c-31 -4 -33 -7 -33 -43 0 -21 6 -41 13 -43 7 -3 5 -6 -5 -6 -15 -1 -18 7 -18 42 0 52 4 57 44 55 l31 -1 -32 -4z m-196 -155 c-3 -7 -5 -2 -5 12 0 14 2 19 5 13 2 -7 2 -19 0 -25z m0 -105 c-2 -16 -4 -3 -4 27 0 30 2 43 4 28 2 -16 2 -40 0 -55z m194 -171 c-7 -2 -18 1 -23 6 -8 8 -4 9 13 5 13 -4 18 -8 10 -11z m-171 -21 c0 -6 -4 -13 -10 -16 -5 -3 -10 1 -10 9 0 9 5 16 10 16 6 0 10 -4 10 -9z m97 -233 c-3 -8 -6 -5 -6 6 -1 11 2 17 5 13 3 -3 4 -12 1 -19z m-68 -160 c-1 -22 -3 -26 -6 -12 -4 22 -5 22 -261 17 -141 -2 -254 -2 -251 1 3 3 117 8 255 12 137 4 251 8 253 10 9 8 11 3 10 -28z m-599 12 c0 -5 7 -16 16 -24 8 -9 11 -16 5 -16 -5 0 -14 7 -19 16 -7 13 -41 15 -253 15 -166 -1 -239 2 -229 9 18 12 480 12 480 0z m80 -30 c-8 -5 -22 -9 -30 -9 -10 0 -8 3 5 9 27 12 43 12 25 0z m-2280 -75 c24 -13 24 -14 3 -12 -13 1 -23 5 -23 9 0 4 -71 9 -157 11 l-158 3 155 1 c117 2 161 -1 180 -12z m2247 8 c-124 -3 -162 -7 -174 -18 -8 -8 -20 -15 -26 -15 -7 1 -1 10 12 20 21 18 37 20 185 18 l161 -2 -158 -3z m300 1 c-3 -3 -12 -4 -19 -1 -8 3 -5 6 6 6 11 1 17 -2 13 -5z m-2947 -21 c0 -10 -4 -14 -8 -8 -4 6 -11 13 -16 18 -5 4 -2 7 7 7 10 0 17 -8 17 -17z m60 7 c0 -5 -4 -10 -9 -10 -5 0 -18 -3 -28 -6 -16 -5 -16 -4 1 10 23 18 36 20 36 6z m404 -5 c-25 -19 -38 -19 -22 0 7 8 19 14 27 15 11 0 9 -4 -5 -15z m2432 7 c-15 -3 -16 -6 -5 -13 19 -12 -40 -6 -63 7 -12 6 -3 9 35 10 29 0 43 -1 33 -4z m-2760 -27 c-9 -9 -16 -13 -16 -8 0 12 22 34 28 28 2 -2 -3 -11 -12 -20z m2964 -5 c0 -16 -4 -30 -8 -30 -5 0 -7 14 -4 30 2 17 6 30 8 30 2 0 4 -13 4 -30z m-3120 10 c0 -5 -5 -10 -11 -10 -5 0 -7 5 -4 10 3 6 8 10 11 10 2 0 4 -4 4 -10z m362 -10 c7 -11 18 -20 25 -20 7 0 13 -5 13 -10 0 -7 -6 -7 -20 0 -11 6 -20 15 -20 19 0 17 -33 21 -44 6 -9 -13 -27 -15 -86 -12 l-75 3 78 2 c61 2 77 5 77 17 0 22 38 18 52 -5z m148 10 c0 -5 -2 -10 -4 -10 -3 0 -8 5 -11 10 -3 6 -1 10 4 10 6 0 11 -4 11 -10z m-713 -32 c-3 -7 -5 -2 -5 12 0 14 2 19 5 13 2 -7 2 -19 0 -25z m137 21 c3 -3 -6 -6 -19 -7 -14 -1 -25 2 -25 6 0 9 36 9 44 1z m2603 -16 c-11 -3 -16 -11 -13 -19 3 -8 1 -14 -4 -14 -11 0 -13 23 -3 33 3 4 13 6 22 6 12 -1 12 -2 -2 -6z m61 0 c-10 -2 -18 -12 -18 -20 0 -9 -3 -14 -6 -10 -12 11 5 37 23 36 17 -1 17 -2 1 -6z m115 0 c-18 -2 -48 -2 -65 0 -18 2 -4 4 32 4 36 0 50 -2 33 -4z m106 -12 c9 -6 10 -11 2 -15 -6 -4 -11 -2 -11 5 0 6 -8 9 -20 6 -11 -3 -18 -1 -14 4 7 11 25 11 43 0z m-2171 -8 c-10 -2 -26 -2 -35 0 -10 3 -2 5 17 5 19 0 27 -2 18 -5z m2522 -11 c0 -4 -15 -8 -32 -9 -30 -1 -31 -1 -8 7 34 11 40 11 40 2z m-3370 -6 c0 -2 -16 -6 -35 -8 -19 -2 -35 0 -35 4 0 4 16 8 35 8 19 0 35 -2 35 -4z m37 -2 c-3 -3 -12 -4 -19 -1 -8 3 -5 6 6 6 11 1 17 -2 13 -5z m57 -20 c7 -19 2 -18 -19 6 -16 17 -16 20 -3 15 9 -4 19 -13 22 -21z m354 -16 l97 -2 -97 -3 c-81 -3 -97 -6 -101 -21 -2 -9 -3 3 -4 28 0 25 2 35 4 23 4 -22 9 -23 101 -25z m499 22 c3 -10 2 -11 -4 -4 -4 6 -15 14 -23 17 -11 5 -9 6 4 4 11 -1 21 -9 23 -17z m1433 16 c0 -2 -7 -7 -16 -10 -8 -3 -12 -2 -9 4 6 10 25 14 25 6z m37 -2 c-3 -3 -12 -4 -19 -1 -8 3 -5 6 6 6 11 1 17 -2 13 -5z m40 0 c-3 -3 -12 -4 -19 -1 -8 3 -5 6 6 6 11 1 17 -2 13 -5z m54 -11 c13 -17 13 -17 -6 -3 -11 8 -22 16 -24 17 -2 2 0 3 6 3 6 0 17 -8 24 -17z m1149 9 c0 -5 -13 -7 -30 -4 -16 2 -30 6 -30 8 0 2 14 4 30 4 17 0 30 -4 30 -8z m-2824 -9 c-10 -10 -46 -11 -40 -1 3 4 15 8 26 8 12 0 18 -3 14 -7z m54 -2 c0 -5 -9 -7 -20 -4 -11 3 -20 7 -20 9 0 2 9 4 20 4 11 0 20 -4 20 -9z m1430 -31 c0 -16 -26 -5 -27 12 -2 16 1 17 13 8 8 -7 14 -16 14 -20z m640 3 c0 -17 -3 -23 -8 -16 -4 6 -30 13 -57 16 l-50 3 53 2 c28 1 52 7 52 12 0 6 2 10 5 10 3 0 5 -12 5 -27z m-2393 -5 c-3 -8 -6 -5 -6 6 -1 11 2 17 5 13 3 -3 4 -12 1 -19z m2710 16 c-3 -3 -12 -4 -19 -1 -8 3 -5 6 6 6 11 1 17 -2 13 -5z m-2377 -14 c0 -5 -2 -10 -4 -10 -3 0 -8 5 -11 10 -3 6 -1 10 4 10 6 0 11 -4 11 -10z m1850 0 c0 -5 -7 -7 -15 -4 -8 4 -15 8 -15 10 0 2 7 4 15 4 8 0 15 -4 15 -10z m65 3 c-16 -3 -33 -10 -37 -16 -5 -8 -8 -8 -8 -1 0 18 12 24 44 23 l31 -2 -30 -4z m304 -9 c2 -2 -14 -4 -37 -4 -37 0 -42 -3 -42 -23 0 -13 7 -32 15 -43 23 -30 19 -54 -10 -54 -16 0 -25 -6 -25 -15 0 -12 13 -15 60 -15 65 0 73 9 41 44 -16 18 -17 23 -5 34 12 11 14 10 14 -3 0 -29 39 -93 69 -115 17 -11 50 -25 73 -29 27 -6 -113 -9 -364 -10 -224 -1 -409 2 -411 7 -3 4 12 18 33 31 22 14 46 41 58 67 12 24 28 44 36 44 11 0 8 -8 -9 -26 -14 -15 -25 -31 -25 -35 0 -5 27 -9 60 -9 47 0 60 3 60 15 0 9 -9 15 -24 15 -28 0 -40 29 -18 45 7 6 15 25 17 43 4 31 3 32 -30 32 -18 0 -36 -5 -38 -10 -3 -6 -4 -5 -3 2 2 8 21 14 49 16 42 3 47 1 47 -17 0 -12 -4 -21 -9 -21 -5 0 -7 -9 -4 -20 3 -11 12 -20 19 -20 8 0 14 -10 14 -24 0 -13 8 -33 18 -44 15 -18 29 -21 112 -23 52 0 100 -1 106 0 13 1 34 45 34 71 0 11 7 20 15 20 9 0 15 9 15 23 0 27 -9 40 -34 54 -15 8 -3 10 50 6 38 -3 71 -7 73 -9z m-2821 -1 c-13 -3 -18 -15 -18 -39 0 -30 3 -34 28 -35 15 0 21 -3 15 -6 -17 -6 -17 -44 0 -66 11 -15 27 -17 122 -15 l110 3 9 43 c6 23 16 42 23 42 17 0 18 67 1 73 -7 3 10 5 37 5 30 -1 38 -3 19 -5 -27 -4 -30 -7 -28 -35 1 -16 7 -35 13 -41 21 -21 13 -47 -14 -47 -16 0 -25 -6 -25 -16 0 -13 12 -15 65 -13 59 2 68 0 94 -25 16 -15 44 -33 63 -39 27 -10 -43 -12 -342 -11 -206 1 -382 2 -390 3 -9 0 -3 8 15 19 32 20 63 52 50 52 -5 0 0 9 11 21 10 11 21 41 25 67 l6 47 2 -41 c0 -22 -6 -49 -14 -60 -8 -10 -15 -22 -15 -26 0 -5 30 -8 66 -8 48 0 65 3 62 13 -3 6 -14 13 -26 15 -16 2 -22 10 -22 28 0 13 5 24 10 24 6 0 10 16 10 35 0 33 -2 35 -33 35 -18 0 -43 -7 -55 -16 -26 -18 -30 -7 -4 12 10 8 42 13 82 13 36 -1 57 -3 48 -6z m432 -36 c0 -5 -9 1 -21 14 l-20 24 6 -40 c3 -22 8 -53 12 -70 l5 -30 -24 25 c-24 24 -28 47 -6 34 7 -5 9 5 4 30 -9 47 0 62 25 40 10 -9 19 -21 19 -27z m2620 33 c0 -5 -2 -10 -4 -10 -3 0 -8 5 -11 10 -3 6 -1 10 4 10 6 0 11 -4 11 -10z m290 0 c0 -7 -26 -10 -65 -9 -36 1 -65 6 -65 10 0 5 29 9 65 9 38 0 65 -4 65 -10z m-3640 -20 c0 -5 -4 -10 -10 -10 -5 0 -10 5 -10 10 0 6 5 10 10 10 6 0 10 -4 10 -10z m400 6 c0 -2 -7 -6 -15 -10 -8 -3 -15 -1 -15 4 0 6 7 10 15 10 8 0 15 -2 15 -4z m65 -25 c-6 -5 -25 10 -25 20 0 5 6 4 14 -3 8 -7 12 -15 11 -17z m53 -14 c2 -20 -1 -37 -6 -37 -5 0 -8 15 -5 34 2 26 -1 36 -14 40 -14 4 -14 4 2 3 15 -2 21 -11 23 -40z m279 11 c-3 -7 -5 -2 -5 12 0 14 2 19 5 13 2 -7 2 -19 0 -25z m2043 28 c0 -2 -9 -6 -20 -9 -11 -3 -20 -1 -20 4 0 5 9 9 20 9 11 0 20 -2 20 -4z m78 -3 c-10 -2 -28 -2 -40 0 -13 2 -5 4 17 4 22 1 32 -1 23 -4z m199 -15 c-3 -8 -6 -5 -6 6 -1 11 2 17 5 13 3 -3 4 -12 1 -19z m210 16 c-3 -3 -12 -4 -19 -1 -8 3 -5 6 6 6 11 1 17 -2 13 -5z m-2310 -36 c-3 -7 -5 -2 -5 12 0 14 2 19 5 13 2 -7 2 -19 0 -25z m1760 10 c-3 -8 -6 -5 -6 6 -1 11 2 17 5 13 3 -3 4 -12 1 -19z m384 -1 c-10 -9 -11 -8 -5 6 3 10 9 15 12 12 3 -3 0 -11 -7 -18z m195 -43 c-4 -13 -12 -24 -18 -24 -9 0 -9 3 0 12 7 7 13 28 13 48 1 25 3 28 6 11 3 -12 2 -34 -1 -47z m-3326 42 c0 -3 -4 -8 -10 -11 -5 -3 -10 -1 -10 4 0 6 5 11 10 11 6 0 10 -2 10 -4z m897 -18 c-3 -8 -6 -5 -6 6 -1 11 2 17 5 13 3 -3 4 -12 1 -19z m1370 -10 c-3 -7 -5 -2 -5 12 0 14 2 19 5 13 2 -7 2 -19 0 -25z m1033 22 c0 -5 -2 -10 -4 -10 -3 0 -8 5 -11 10 -3 6 -1 10 4 10 6 0 11 -4 11 -10z m-2860 -10 c0 -5 -2 -10 -4 -10 -3 0 -8 5 -11 10 -3 6 -1 10 4 10 6 0 11 -4 11 -10z m280 -25 c0 -5 -5 -3 -10 5 -5 8 -10 20 -10 25 0 6 5 3 10 -5 5 -8 10 -19 10 -25z m80 25 c0 -5 -2 -10 -4 -10 -3 0 -8 5 -11 10 -3 6 -1 10 4 10 6 0 11 -4 11 -10z m50 0 c0 -5 -4 -10 -10 -10 -5 0 -10 5 -10 10 0 6 5 10 10 10 6 0 10 -4 10 -10z m1545 0 c3 -5 1 -10 -4 -10 -6 0 -11 5 -11 10 0 6 2 10 4 10 3 0 8 -4 11 -10z m430 0 c3 -5 1 -10 -4 -10 -6 0 -11 5 -11 10 0 6 2 10 4 10 3 0 8 -4 11 -10z m72 4 c-3 -3 -12 -4 -19 -1 -8 3 -5 6 6 6 11 1 17 -2 13 -5z m-2580 -36 c-3 -7 -5 -2 -5 12 0 14 2 19 5 13 2 -7 2 -19 0 -25z m620 10 c-3 -8 -6 -5 -6 6 -1 11 2 17 5 13 3 -3 4 -12 1 -19z m1986 1 c-6 -6 -43 -8 -89 -6 l-79 3 83 2 c55 1 82 6 82 14 0 6 3 8 7 5 4 -4 2 -12 -4 -18z m-2893 -5 c0 -2 -9 -4 -20 -4 -11 0 -20 4 -20 9 0 5 9 7 20 4 11 -3 20 -7 20 -9z m27 -6 c-3 -8 -6 -5 -6 6 -1 11 2 17 5 13 3 -3 4 -12 1 -19z m710 0 c-3 -8 -6 -5 -6 6 -1 11 2 17 5 13 3 -3 4 -12 1 -19z m203 -18 c-7 -17 -22 -36 -34 -42 -20 -10 -20 -10 1 11 13 12 26 33 29 47 4 14 9 23 12 20 2 -3 -1 -19 -8 -36z m2409 -24 c-23 -20 -23 -20 -6 0 9 11 18 31 18 45 l2 24 4 -24 c3 -16 -3 -31 -18 -45z m-3278 27 c-12 -20 -14 -14 -5 12 4 9 9 14 11 11 3 -2 0 -13 -6 -23z m332 20 c-18 -2 -48 -2 -65 0 -18 2 -4 4 32 4 36 0 50 -2 33 -4z m407 3 c0 -2 -7 -6 -15 -10 -8 -3 -15 -1 -15 4 0 6 7 10 15 10 8 0 15 -2 15 -4z m1600 -6 c0 -5 -4 -10 -10 -10 -5 0 -10 5 -10 10 0 6 5 10 10 10 6 0 10 -4 10 -10z m30 6 c0 -3 -4 -8 -10 -11 -5 -3 -10 -1 -10 4 0 6 5 11 10 11 6 0 10 -2 10 -4z m-1573 -31 c-5 -10 -18 -14 -44 -13 l-38 1 38 4 c26 3 37 9 37 20 0 9 3 14 6 10 4 -3 4 -13 1 -22z m2300 3 c-3 -8 -6 -5 -6 6 -1 11 2 17 5 13 3 -3 4 -12 1 -19z m-686 -11 c-10 -9 -11 -8 -5 6 3 10 9 15 12 12 3 -3 0 -11 -7 -18z m839 8 c-7 -8 -17 -15 -23 -15 -6 0 -2 7 9 15 25 19 30 19 14 0z m-860 -5 c0 -5 -10 -10 -22 -9 -22 0 -22 1 -3 9 11 5 21 9 23 9 1 1 2 -3 2 -9z m393 3 c-24 -2 -62 -2 -85 0 -24 2 -5 4 42 4 47 0 66 -2 43 -4z m-558 -41 c-5 -5 -45 22 -45 31 0 4 11 0 24 -10 13 -10 23 -19 21 -21z m440 10 c-3 -3 -11 0 -18 7 -9 10 -8 11 6 5 10 -3 15 -9 12 -12z m-2860 -10 c-3 -3 -11 0 -18 7 -9 10 -8 11 6 5 10 -3 15 -9 12 -12z m563 11 c-26 -2 -71 -2 -100 0 -29 2 -8 3 47 3 55 0 79 -1 53 -3z m287 -3 c3 -5 1 -10 -4 -10 -6 0 -11 5 -11 10 0 6 2 10 4 10 3 0 8 -4 11 -10z m2143 3 c-21 -2 -57 -2 -80 0 -24 2 -7 4 37 4 44 0 63 -2 43 -4z"/>
<path d="M5662 4078 c-7 -7 -12 -22 -12 -34 0 -12 -6 -25 -12 -28 -10 -5 -10 -7 0 -12 14 -7 16 -50 2 -59 -6 -4 -2 -15 10 -27 15 -16 32 -22 67 -22 l48 -1 3 -86 3 -86 -83 -6 c-133 -11 -380 -8 -373 3 4 6 -7 10 -24 10 -17 0 -31 -3 -31 -8 0 -4 -10 -12 -22 -17 -22 -10 -23 -17 -28 -150 -3 -77 -4 -181 -2 -232 3 -85 5 -92 25 -96 22 -4 22 -4 0 -6 -21 -1 -23 -6 -23 -62 l0 -60 53 3 52 3 2 124 c1 68 5 126 8 129 3 3 5 -64 4 -149 -1 -84 -4 -146 -6 -136 -4 16 -14 18 -89 15 l-84 -3 0 165 0 166 -45 -1 -45 0 0 -158 c0 -126 -3 -159 -14 -163 -8 -3 -13 -13 -12 -22 2 -12 16 -19 52 -23 39 -5 42 -6 15 -7 -34 -2 -34 -2 -16 -22 10 -12 25 -18 32 -16 10 4 13 -7 13 -39 0 -43 -1 -45 -30 -45 -16 0 -30 5 -30 10 0 6 -18 10 -40 10 -22 0 -40 -3 -40 -6 0 -13 30 -34 49 -34 12 0 21 -3 21 -7 0 -5 -28 -8 -62 -8 l-63 0 -3 -62 -3 -63 61 0 c53 0 62 3 69 22 4 12 10 17 13 12 6 -9 -24 -113 -48 -171 -8 -17 -14 -34 -14 -37 0 -3 36 -6 80 -6 l80 0 0 36 c0 21 -4 33 -10 29 -6 -4 -9 25 -8 82 l2 88 5 -76 6 -75 58 -3 c32 -1 71 0 87 4 27 6 29 10 33 58 l3 52 2 -57 c2 -44 6 -58 17 -58 12 0 15 24 17 138 l3 137 584 3 585 2 26 -25 c17 -16 33 -23 43 -19 15 6 17 -8 17 -140 0 -122 2 -146 15 -146 12 0 15 27 18 158 l3 157 2 -157 2 -158 525 0 525 0 0 140 0 140 -400 0 -400 0 0 -24 c0 -13 -6 -29 -13 -35 -14 -11 -27 -5 -27 13 0 6 4 4 10 -4 14 -22 23 9 19 64 -2 24 -1 42 4 39 4 -2 7 -13 7 -24 0 -15 7 -19 35 -19 l35 0 0 70 0 70 -75 0 c-52 0 -83 5 -99 16 -23 15 -44 5 -32 -14 3 -5 -46 -10 -109 -11 l-115 -2 -2 78 -2 78 -6 -75 c-4 -41 -7 -63 -8 -47 l-2 27 -555 0 -555 0 0 -40 0 -40 218 0 c242 0 284 -4 299 -29 9 -14 8 -18 -3 -18 -8 0 -14 6 -14 14 0 10 -49 13 -247 14 -137 1 -251 1 -255 0 -5 0 -8 116 -8 259 l0 260 58 -2 57 -2 -52 -3 -53 -4 0 -95 c0 -61 4 -93 10 -89 6 3 11 25 12 48 l1 42 4 -38 c3 -24 -2 -48 -11 -62 -12 -18 -16 -50 -16 -115 l0 -90 50 0 49 0 4 98 3 97 2 -98 2 -97 389 0 c295 1 391 4 395 13 3 9 5 9 5 0 1 -10 29 -13 106 -13 l105 0 0 40 0 40 -105 0 c-96 0 -105 -2 -105 -19 0 -23 -25 -47 -35 -31 -3 5 1 10 9 10 13 0 16 15 16 90 l0 90 -389 0 c-298 0 -391 -3 -394 -13 -3 -7 -6 -5 -6 5 -1 12 -6 15 -18 11 -10 -3 -15 -3 -11 2 4 4 68 7 143 6 l135 -2 0 166 0 166 -117 -3 -118 -3 -31 -48 c-17 -26 -35 -51 -39 -55 -9 -8 43 85 58 106 7 8 45 12 128 12 l119 0 0 210 0 210 -58 0 c-32 0 -63 -5 -70 -12z m5 -40 c-3 -8 -6 -5 -6 6 -1 11 2 17 5 13 3 -3 4 -12 1 -19z m91 -25 c-16 -2 -40 -2 -55 0 -16 2 -3 4 27 4 30 0 43 -2 28 -4z m-91 -40 c-3 -10 -5 -4 -5 12 0 17 2 24 5 18 2 -7 2 -21 0 -30z m53 -43 c29 0 50 5 53 13 3 7 6 4 6 -6 1 -16 -6 -18 -56 -15 -36 2 -57 8 -59 16 -1 7 0 8 3 2 2 -5 26 -10 53 -10z m-373 -252 c-3 -8 -6 -5 -6 6 -1 11 2 17 5 13 3 -3 4 -12 1 -19z m-30 -70 c-3 -8 -6 -5 -6 6 -1 11 2 17 5 13 3 -3 4 -12 1 -19z m101 -70 l67 -2 -67 -3 -68 -4 0 -214 0 -215 29 0 c25 0 30 5 34 28 4 25 4 25 6 -5 1 -31 -1 -33 -34 -33 l-34 0 -3 -147 -3 -148 -35 -2 c-34 -1 -34 -1 -5 5 l30 7 2 365 c2 324 1 363 -12 346 -8 -11 -15 -15 -15 -9 0 7 7 18 15 27 8 8 16 30 17 48 1 33 1 33 5 -4 l4 -38 67 -2z m-1 -70 c-3 -8 -6 -5 -6 6 -1 11 2 17 5 13 3 -3 4 -12 1 -19z m210 8 c-3 -8 -1 -17 6 -20 7 -2 3 -5 -9 -5 -12 -1 -21 5 -21 14 0 8 4 12 9 9 4 -3 8 0 8 5 0 6 3 11 6 11 3 0 4 -6 1 -14z m-117 -23 c0 -5 -11 -8 -25 -8 -14 0 -25 3 -25 8 0 4 11 7 25 7 14 0 25 -3 25 -7z m0 -43 c0 -11 -5 -20 -11 -20 -5 0 -7 5 -4 10 3 6 0 10 -7 10 -9 0 -9 3 2 10 20 13 20 13 20 -10z m-267 -7 c-7 -2 -19 -2 -25 0 -7 3 -2 5 12 5 14 0 19 -2 13 -5z m44 1 c-3 -3 -12 -4 -19 -1 -8 3 -5 6 6 6 11 1 17 -2 13 -5z m-157 -160 l0 -155 -22 3 c-23 3 -23 6 -26 156 l-3 152 26 0 25 0 0 -156z m287 79 c-2 -16 -4 -5 -4 22 0 28 2 40 4 28 2 -13 2 -35 0 -50z m88 18 c-6 -21 -25 -29 -25 -11 0 6 5 10 10 10 6 0 10 8 10 17 0 9 3 14 6 10 3 -3 3 -15 -1 -26z m804 -74 c0 -21 -1 -21 -9 -2 -8 19 -9 19 -9 1 -1 -11 -4 -17 -7 -13 -9 9 6 48 17 42 5 -4 9 -16 8 -28z m-892 1 c-3 -8 -6 -5 -6 6 -1 11 2 17 5 13 3 -3 4 -12 1 -19z m281 15 c-21 -2 -55 -2 -75 0 -21 2 -4 4 37 4 41 0 58 -2 38 -4z m72 -13 c0 -11 -4 -20 -9 -20 -6 0 -9 9 -8 20 1 11 5 20 9 20 4 0 8 -9 8 -20z m74 12 c-7 -4 -14 -16 -17 -27 -4 -15 -5 -14 -6 8 -1 20 4 27 17 27 11 0 13 -3 6 -8z m229 -12 c-3 -11 -7 -20 -9 -20 -2 0 -4 9 -4 20 0 11 4 20 9 20 5 0 7 -9 4 -20z m-773 -50 c0 -5 -7 -7 -15 -4 -8 4 -15 8 -15 10 0 2 7 4 15 4 8 0 15 -4 15 -10z m117 -12 c-3 -8 -6 -5 -6 6 -1 11 2 17 5 13 3 -3 4 -12 1 -19z m0 -40 c-3 -8 -6 -5 -6 6 -1 11 2 17 5 13 3 -3 4 -12 1 -19z m443 -43 c0 -8 -5 -15 -11 -15 -5 0 -7 5 -4 10 4 7 -2 9 -19 4 -14 -3 -26 -2 -26 3 0 5 14 10 30 11 21 2 30 -2 30 -13z m327 8 c-66 -2 -105 -7 -102 -13 3 -6 1 -10 -4 -10 -6 0 -11 6 -11 13 0 8 -4 7 -10 -3 -6 -9 -10 -10 -10 -3 0 8 -29 13 -92 16 -51 1 4 3 122 3 118 0 166 -2 107 -3z m-770 -100 c-3 -10 -5 -2 -5 17 0 19 2 27 5 18 2 -10 2 -26 0 -35z m-177 -13 c66 0 79 3 83 18 3 9 5 -13 6 -50 l1 -68 -85 0 -85 0 0 -46 0 -45 85 3 c47 2 85 0 85 -4 0 -5 -40 -8 -90 -8 l-90 0 1 118 c1 64 3 109 6 100 4 -15 17 -18 83 -18z m1584 -40 c-6 -5 -24 21 -24 34 0 6 6 1 14 -10 8 -10 12 -21 10 -24z m-1420 22 c-7 -4 -14 -16 -17 -27 -4 -15 -5 -14 -6 8 -1 20 4 27 17 27 11 0 13 -3 6 -8z m1149 1 c3 -4 -115 -9 -261 -10 -147 -1 -251 1 -232 5 52 11 487 15 493 5z m221 -12 c3 -5 -1 -14 -9 -21 -9 -8 -15 -8 -15 -2 0 6 6 13 13 15 7 3 5 6 -5 6 -12 1 -18 -6 -18 -19 0 -21 34 -29 43 -10 3 6 4 5 3 -2 -4 -19 -45 -22 -52 -4 -12 32 23 65 40 37z m113 -7 c-3 -3 -12 -4 -19 -1 -8 3 -5 6 6 6 11 1 17 -2 13 -5z m100 0 c-3 -3 -12 -4 -19 -1 -8 3 -5 6 6 6 11 1 17 -2 13 -5z m-950 -10 c-3 -3 -12 -4 -19 -1 -8 3 -5 6 6 6 11 1 17 -2 13 -5z m855 -54 l-4 -30 -102 2 -101 2 98 3 c85 3 97 6 97 22 0 14 8 31 15 31 1 0 0 -13 -3 -30z m-1562 -26 c0 -8 -4 -12 -10 -9 -5 3 -10 10 -10 16 0 5 5 9 10 9 6 0 10 -7 10 -16z m-255 -34 c3 -5 1 -10 -4 -10 -6 0 -11 5 -11 10 0 6 2 10 4 10 3 0 8 -4 11 -10z m230 -110 c4 -6 -20 -10 -65 -10 -45 0 -69 4 -65 10 3 6 33 10 65 10 32 0 62 -4 65 -10z"/>
<path d="M5160 2970 l0 -40 81 0 80 0 -3 38 -3 37 -77 3 -78 3 0 -41z"/>
<path d="M5800 4000 l0 -90 265 0 265 0 0 90 0 90 -265 0 -265 0 0 -90z"/>
<path d="M9160 3906 c0 -31 5 -56 10 -56 6 0 10 22 10 49 0 28 -4 53 -10 56 -6 4 -10 -15 -10 -49z"/>
<path d="M5800 3791 c0 -78 4 -111 13 -115 10 -5 10 -7 0 -12 -10 -4 -13 -48 -13 -170 l0 -164 265 0 265 0 0 164 c0 122 -3 166 -12 169 -10 4 -10 6 0 6 9 1 12 31 12 116 l0 115 -265 0 -265 0 0 -109z m400 -66 l0 -135 -140 0 -140 0 2 53 2 52 3 -47 4 -48 130 0 129 0 -2 78 -2 77 -3 -67 -4 -68 -54 0 -55 0 0 105 0 105 54 0 55 0 4 -37 c3 -35 4 -34 5 10 l2 47 -129 0 c-94 0 -131 -3 -134 -12 -3 -8 -6 -6 -6 5 -1 15 12 17 139 17 l140 0 0 -135z m-150 0 l0 -105 -55 0 -55 0 0 105 0 105 55 0 55 0 0 -105z"/>
<path d="M7160 3705 l0 -155 60 0 60 0 0 155 0 155 -60 0 -60 0 0 -155z"/>
<path d="M7290 3705 l0 -155 60 0 60 0 0 155 0 155 -60 0 -60 0 0 -155z"/>
<path d="M7420 3705 l0 -155 60 0 59 0 4 133 3 132 2 -132 c2 -119 10 -158 25 -120 4 10 6 10 6 0 1 -9 20 -13 60 -13 38 0 61 4 64 13 4 10 6 10 6 0 1 -9 20 -13 61 -13 l60 0 0 155 0 155 -205 0 -205 -1 0 -154z m158 28 l-1 -88 -6 65 c-3 36 -4 75 -2 88 7 45 11 20 9 -65z m129 -65 c-2 -29 -3 -8 -3 47 0 55 1 79 3 53 2 -26 2 -71 0 -100z m-130 -50 c-3 -8 -6 -5 -6 6 -1 11 2 17 5 13 3 -3 4 -12 1 -19z"/>
<path d="M7840 3705 l0 -155 60 0 60 0 0 155 0 155 -60 0 -60 0 0 -155z"/>
<path d="M8400 3600 l0 -150 80 0 80 0 0 150 0 150 -80 0 -80 0 0 -150z m35 120 c3 -5 -1 -10 -9 -10 -9 0 -16 5 -16 10 0 6 4 10 9 10 6 0 13 -4 16 -10z"/>
<path d="M8570 3600 l0 -150 90 0 90 0 0 150 0 150 -90 0 -90 0 0 -150z"/>
<path d="M6340 3615 c0 -38 3 -45 20 -45 11 0 20 -7 20 -15 0 -8 -8 -15 -17 -15 -15 0 -16 2 -3 10 13 8 13 10 -2 10 -15 0 -17 -19 -18 -185 l0 -185 50 0 50 0 -2 172 -3 172 -25 6 c-14 3 -20 9 -14 13 6 3 20 -1 32 -9 21 -15 22 -22 22 -185 0 -144 2 -169 15 -169 13 0 15 26 15 171 l0 170 -46 65 c-35 48 -52 64 -70 64 -22 0 -24 -4 -24 -45z"/>
<path d="M6495 3532 c-3 -3 -5 -81 -5 -174 l0 -168 30 0 30 0 2 168 2 167 6 -170 6 -170 2 173 c1 94 -1 173 -5 174 -23 4 -63 4 -68 0z"/>
<path d="M7302 3531 c-7 -4 -13 -51 -15 -121 l-3 -115 -2 118 -2 117 -60 0 -60 0 0 -170 0 -170 59 0 60 0 4 53 3 52 2 -52 c2 -49 4 -53 27 -53 l25 0 0 169 c0 132 -3 170 -13 174 -8 3 -19 2 -25 -2z"/>
<path d="M7354 3365 c0 -99 2 -138 3 -87 2 51 2 132 0 180 -1 48 -3 6 -3 -93z"/>
<path d="M7374 3527 c-2 -7 -3 -85 -2 -172 3 -142 5 -160 20 -163 15 -3 18 8 21 90 l3 93 2 -92 2 -93 74 0 c50 0 76 4 79 13 4 10 6 10 6 0 1 -9 24 -13 81 -13 l80 0 0 170 c0 143 -2 170 -15 170 -11 0 -15 -20 -18 -92 l-3 -93 -2 93 -2 92 -60 0 c-47 0 -60 -3 -60 -15 0 -8 -7 -15 -15 -15 -12 0 -15 -26 -18 -152 l-3 -153 -2 168 -2 167 -60 0 -59 0 -4 -77 -3 -78 -2 76 c-2 59 -6 78 -17 83 -9 3 -18 0 -21 -7z m206 -158 c0 -60 -3 -108 -7 -106 -8 5 -5 217 3 217 2 0 4 -50 4 -111z m127 -141 c-2 -13 -4 -3 -4 22 0 25 2 35 4 23 2 -13 2 -33 0 -45z m-130 0 c-3 -8 -6 -5 -6 6 -1 11 2 17 5 13 3 -3 4 -12 1 -19z"/>
<path d="M7873 3532 l-33 -3 -3 -167 -3 -167 -2 168 -2 167 -30 0 -30 0 0 -170 0 -170 183 2 182 3 3 168 3 167 -85 0 -86 0 -3 -167 -3 -168 -2 166 -2 167 -27 3 c-16 2 -43 3 -60 1z m224 -109 c-3 -10 -5 -4 -5 12 0 17 2 24 5 18 2 -7 2 -21 0 -30z m4 -140 c-12 -20 -14 -14 -5 12 4 9 9 14 11 11 3 -2 0 -13 -6 -23z m-91 -27 c0 -3 -4 -8 -10 -11 -5 -3 -10 -1 -10 4 0 6 5 11 10 11 6 0 10 -2 10 -4z m0 -30 c0 -3 -4 -8 -10 -11 -5 -3 -10 -1 -10 4 0 6 5 11 10 11 6 0 10 -2 10 -4z"/>
<path d="M6582 3363 l3 -168 141 -3 142 -3 1 147 c0 81 3 149 6 152 3 3 5 -63 5 -147 l0 -152 33 3 32 3 3 168 2 167 -34 0 c-19 0 -37 -6 -39 -12 -4 -10 -6 -10 -6 0 -1 9 -37 12 -146 12 l-145 0 2 -167z"/>
<path d="M6964 3360 c0 -96 2 -136 3 -87 2 48 2 126 0 175 -1 48 -3 8 -3 -88z"/>
<path d="M6980 3358 c1 -154 2 -171 15 -154 13 17 15 18 15 3 0 -14 11 -17 70 -17 l70 0 0 155 c0 167 -17 217 -23 68 l-3 -88 -2 103 -2 102 -70 0 -70 0 0 -172z m153 -87 c-7 -42 -13 -37 -13 10 0 30 3 39 9 30 5 -8 7 -26 4 -40z"/>
<path d="M7130 3520 c0 -5 5 -10 10 -10 6 0 10 5 10 10 0 6 -4 10 -10 10 -5 0 -10 -4 -10 -10z"/>
<path d="M7550 3519 c0 -5 5 -7 10 -4 6 3 10 8 10 11 0 2 -4 4 -10 4 -5 0 -10 -5 -10 -11z"/>
<path d="M7754 3290 c0 -135 2 -190 3 -122 2 67 2 177 0 245 -1 67 -3 12 -3 -123z"/>
<path d="M8154 3315 c0 -121 2 -169 3 -107 2 62 2 161 0 220 -1 59 -3 8 -3 -113z"/>
<path d="M8170 3360 l0 -171 110 2 110 1 0 124 c0 68 -4 124 -9 124 -5 0 -36 20 -69 45 -48 36 -68 45 -101 45 l-41 0 0 -170z m207 23 c-3 -10 -5 -2 -5 17 0 19 2 27 5 18 2 -10 2 -26 0 -35z m0 -85 c-3 -8 -6 -5 -6 6 -1 11 2 17 5 13 3 -3 4 -12 1 -19z"/>
<path d="M8400 3315 l0 -125 65 0 65 0 0 125 0 125 -65 0 -65 0 0 -125z"/>
<path d="M8541 3268 c1 -95 3 -166 5 -158 7 32 9 330 2 330 -5 0 -7 -78 -7 -172z"/>
<path d="M8570 3315 l0 -124 165 0 165 0 0 125 0 124 -69 0 c-58 0 -70 -3 -74 -17 -4 -17 -5 -17 -6 0 -1 15 -12 17 -91 17 l-90 0 0 -125z m193 3 c3 -38 1 -68 -4 -68 -5 0 -9 35 -8 78 1 89 5 86 12 -10z"/>
<path d="M6580 3140 l0 -40 185 0 185 0 0 40 0 40 -185 0 -185 0 0 -40z"/>
<path d="M6963 3140 c0 -25 2 -35 4 -22 2 12 2 32 0 45 -2 12 -4 2 -4 -23z"/>
<path d="M6980 3140 l0 -40 180 0 180 0 0 40 0 40 -180 0 -180 0 0 -40z"/>
<path d="M7350 3140 c0 -34 3 -41 11 -30 8 11 12 12 16 3 3 -10 50 -13 184 -13 l179 0 0 40 0 40 -185 0 c-141 0 -185 -3 -185 -12 0 -9 -4 -8 -10 2 -7 11 -10 3 -10 -30z"/>
<path d="M7770 3140 l0 -40 185 0 185 0 0 40 0 40 -185 0 -185 0 0 -40z"/>
<path d="M8170 3140 l0 -40 180 0 180 0 0 40 0 40 -180 0 -180 0 0 -40z"/>
<path d="M8560 3140 l0 -40 170 0 170 0 0 40 0 40 -170 0 -170 0 0 -40z"/>
<path d="M6582 3069 c3 -21 8 -22 98 -20 67 2 100 7 111 17 16 14 49 10 49 -7 0 -5 25 -9 55 -9 45 0 55 3 56 18 0 14 2 14 9 -3 8 -19 9 -19 9 3 l1 22 -196 0 c-194 0 -195 0 -192 -21z"/>
<path d="M6980 3070 c0 -19 7 -20 180 -20 173 0 180 1 180 20 0 19 -7 20 -180 20 -173 0 -180 -1 -180 -20z"/>
<path d="M7352 3070 c0 -14 2 -19 5 -12 2 6 2 18 0 25 -3 6 -5 1 -5 -13z"/>
<path d="M7370 3070 c0 -19 7 -20 185 -20 178 0 185 1 185 20 0 19 -7 20 -185 20 -178 0 -185 -1 -185 -20z"/>
<path d="M9040 3055 l0 -35 80 0 80 0 0 35 0 35 -80 0 -80 0 0 -35z"/>
<path d="M8078 2923 c7 -3 16 -2 19 1 4 3 -2 6 -13 5 -11 0 -14 -3 -6 -6z"/>
</g>
</svg>