<svg xmlns="http://www.w3.org/2000/svg" viewBox="23.00 524.80 444.00 243.70">
<g transform="translate(0.000000,768.000000) scale(0.100000,-0.100000)" fill="currentColor" stroke="none">
<path d="M2684 2352 c-36 -23 -47 -139 -18 -180 31 -45 111 -14 102 40 -4 23 -5 23 -16 -5 -14 -33 -37 -44 -58 -27 -23 20 -16 139 9 154 15 9 22 7 34 -11 9 -13 19 -23 24 -23 13 0 11 34 -3 48 -13 13 -57 16 -74 4z"/>
<path d="M2907 2342 c-25 -27 -24 -153 1 -175 39 -35 102 -9 102 41 0 32 -16 27 -29 -8 -19 -57 -71 -30 -71 38 0 84 29 123 62 83 19 -24 38 -27 38 -8 0 41 -74 61 -103 29z"/>
<path d="M3117 2342 c-32 -36 -14 -80 40 -96 34 -11 46 -31 33 -55 -15 -29 -48 -27 -62 4 -13 30 -28 33 -28 6 0 -47 71 -69 103 -33 10 10 17 28 17 40 0 25 -33 62 -54 62 -27 0 -47 29 -36 51 13 24 46 25 59 2 5 -10 13 -14 17 -10 14 14 -12 42 -43 45 -19 2 -35 -4 -46 -16z"/>
<path d="M3250 2255 l0 -105 39 0 c23 0 48 8 62 19 21 17 24 28 24 84 0 83 -18 107 -82 107 l-43 0 0 -105z m78 69 c18 -12 22 -25 22 -69 0 -60 -18 -88 -54 -83 -14 2 -21 10 -20 26 0 12 1 49 2 82 2 65 10 72 50 44z"/>
<path d="M3400 2345 c0 -11 11 -15 41 -15 35 0 40 -2 33 -17 -22 -51 -52 -148 -48 -155 12 -19 22 -5 33 45 6 29 23 74 36 99 13 25 21 48 18 52 -4 3 -30 6 -60 6 -40 0 -53 -4 -53 -15z"/>
<path d="M3557 2342 c-13 -14 -17 -37 -17 -90 0 -80 15 -105 59 -100 33 4 51 39 51 103 0 28 -6 61 -13 75 -16 32 -57 38 -80 12z m51 -14 c7 -7 12 -41 12 -80 0 -54 -3 -70 -16 -75 -25 -10 -44 24 -44 80 0 47 13 87 28 87 5 0 13 -5 20 -12z"/>
<path d="M3715 2348 c-20 -52 -50 -190 -43 -194 5 -3 14 8 21 26 10 26 16 30 41 28 23 -2 32 -9 36 -27 6 -26 30 -42 30 -20 0 7 -12 55 -27 106 -25 87 -45 115 -58 81z m34 -95 c1 -17 -5 -23 -20 -23 -19 0 -21 4 -14 37 4 21 10 42 13 48 7 11 19 -27 21 -62z"/>
<path d="M3845 2346 c-27 -19 -34 -135 -11 -171 32 -48 113 -19 104 37 -3 22 -4 21 -21 -9 -35 -65 -69 -34 -65 58 2 47 7 65 21 73 15 9 22 7 37 -11 21 -26 30 -29 30 -9 0 39 -58 59 -95 32z"/>
<path d="M4170 2351 c0 -5 10 -11 23 -13 21 -3 22 -8 25 -95 1 -51 7 -93 12 -93 5 0 11 42 12 93 3 88 4 92 26 91 12 0 22 5 22 13 0 9 -17 13 -60 13 -33 0 -60 -4 -60 -9z"/>
<path d="M4341 2290 c-23 -39 -39 -75 -36 -80 3 -6 22 -10 41 -10 30 0 34 -3 34 -25 0 -14 5 -25 10 -25 6 0 10 11 10 25 0 14 5 25 10 25 6 0 10 7 10 15 0 8 -4 15 -10 15 -6 0 -10 28 -10 65 0 36 -4 65 -9 65 -5 0 -27 -32 -50 -70z m39 -20 c0 -36 -2 -40 -25 -40 l-25 0 20 40 c11 22 23 40 25 40 3 0 5 -18 5 -40z"/>
<path d="M3982 2298 c-16 -16 -16 -120 0 -136 18 -18 53 -14 73 8 13 15 15 24 8 31 -8 8 -14 5 -22 -10 -15 -27 -38 -27 -46 0 -9 26 2 37 40 41 26 3 29 7 27 28 -2 14 -9 31 -14 38 -13 15 -50 16 -66 0z m55 -24 c6 -16 -12 -34 -34 -34 -16 0 -17 22 -1 38 16 16 27 15 35 -4z"/>
<path d="M2800 2235 c0 -10 10 -15 30 -15 20 0 30 5 30 15 0 10 -10 15 -30 15 -20 0 -30 -5 -30 -15z"/>
<path d="M4087 2243 c-16 -15 -5 -23 33 -23 29 0 40 4 40 15 0 10 -10 15 -33 15 -19 0 -37 -3 -40 -7z"/>
<path d="M1060 1798 c0 -32 2 -34 35 -35 19 -1 35 3 35 7 0 16 38 -2 43 -21 7 -25 37 -14 37 13 0 17 5 19 25 14 22 -6 25 -3 25 19 0 19 -4 24 -12 18 -19 -11 -111 -12 -125 -1 -7 5 -17 7 -23 3 -6 -4 -17 -1 -25 5 -13 11 -15 7 -15 -22z"/>
<path d="M3530 1765 l0 -35 163 2 c135 1 148 3 77 8 l-85 6 80 4 c74 5 80 7 83 28 l3 22 -160 0 -161 0 0 -35z"/>
<path d="M3872 1766 l1 -34 161 2 c89 1 160 5 159 9 -2 4 -3 18 -3 32 l0 25 -160 0 -159 0 1 -34z"/>
<path d="M2400 1775 c0 -11 11 -15 40 -15 29 0 40 4 40 15 0 11 -11 15 -40 15 -29 0 -40 -4 -40 -15z"/>
<path d="M2065 1773 c-77 -2 -149 -7 -160 -12 -11 -6 -29 -12 -40 -14 -11 -3 84 -5 212 -6 203 -1 232 1 227 14 -4 8 -18 15 -33 15 -14 0 -35 2 -46 3 -11 2 -83 2 -160 0z"/>
<path d="M2817 1773 c-4 -3 -7 -12 -7 -20 0 -10 34 -13 165 -13 158 0 165 1 165 20 0 19 -7 20 -158 20 -87 0 -162 -3 -165 -7z"/>
<path d="M2363 1748 c-2 -5 35 -8 83 -8 48 0 85 2 82 6 -9 8 -159 10 -165 2z"/>
<path d="M4291 1738 c-1 -11 -6 -15 -16 -12 -13 5 -15 -46 -15 -425 l0 -431 55 0 c41 0 55 4 55 14 0 9 -7 12 -18 10 -9 -3 -28 0 -42 5 -25 11 -25 11 5 10 55 -2 55 -1 55 51 0 28 -4 50 -10 50 -5 0 -10 5 -10 11 0 5 5 7 10 4 6 -4 10 17 10 54 l0 61 -35 0 c-19 0 -35 4 -35 10 0 5 7 7 15 4 8 -4 25 -4 38 -1 20 6 22 11 19 61 -4 51 -6 55 -30 59 l-27 4 28 2 c26 1 27 3 27 60 0 54 -2 59 -20 54 -11 -3 -20 0 -20 6 0 6 9 11 20 11 12 0 20 7 20 16 0 10 -6 14 -15 10 -8 -3 -15 -1 -15 4 0 6 7 10 15 10 10 0 15 10 15 30 0 28 -2 30 -41 30 -41 0 -41 0 -37 -35 2 -19 0 -35 -5 -35 -4 0 -7 17 -5 38 3 35 5 37 40 40 35 3 37 5 41 45 l4 42 1 -42 c2 -33 5 -41 17 -37 16 7 22 74 6 74 -5 0 -12 24 -16 53 -8 61 -19 77 -50 77 -13 0 -26 6 -28 13 -3 7 -6 5 -6 -5z m29 -339 c0 -4 -7 -6 -15 -3 -8 4 -15 10 -15 15 0 4 7 6 15 3 8 -4 15 -10 15 -15z m20 -379 c0 -5 -5 -10 -11 -10 -5 0 -7 5 -4 10 3 6 8 10 11 10 2 0 4 -4 4 -10z"/>
<path d="M1067 1723 c-4 -3 -7 -34 -8 -67 0 -42 -3 -55 -9 -41 -7 19 -8 19 -15 2 -12 -29 25 -55 81 -59 32 -2 49 -7 48 -15 -1 -7 -2 -40 -2 -73 l-2 -60 -225 0 -226 0 3 -77 3 -78 78 2 79 1 35 51 36 51 118 0 119 0 0 105 0 105 -37 1 c-70 2 -68 0 -71 57 l-3 54 55 -4 c54 -3 55 -3 53 24 -2 27 -5 28 -53 28 -28 0 -54 -3 -57 -7z"/>
<path d="M1190 1655 l0 -75 229 0 c125 0 256 3 290 6 l61 7 0 68 0 69 -290 0 -290 0 0 -75z"/>
<path d="M1780 1550 c0 -177 0 -179 23 -185 12 -4 41 -29 65 -56 24 -27 48 -49 54 -49 6 0 9 41 7 113 l-4 112 173 3 172 2 0 -120 c0 -113 1 -120 20 -120 19 0 20 7 20 150 l0 150 565 0 565 0 0 -45 0 -45 403 -2 c221 -1 381 -3 355 -5 l-48 -4 0 -140 0 -139 45 0 45 0 0 -250 c0 -137 -3 -250 -7 -250 -5 0 -6 43 -5 95 l4 95 -36 0 c-32 0 -36 -3 -36 -25 0 -20 5 -25 26 -25 l26 0 -3 -77 c-5 -155 0 -243 14 -243 20 0 27 190 27 752 l0 478 -342 0 c-189 0 -373 3 -410 7 l-68 6 0 -39 0 -39 -98 -48 c-53 -26 -102 -47 -107 -47 -6 0 -9 19 -7 45 2 25 0 45 -5 45 -6 0 -10 -19 -11 -42 -3 -64 -12 -59 -12 6 0 46 3 57 14 53 9 -4 17 1 19 11 4 16 5 15 6 0 1 -16 13 -18 96 -18 l95 0 0 35 0 35 -94 0 c-82 0 -95 -2 -99 -17 -4 -17 -5 -17 -6 0 -1 16 -40 17 -721 17 l-720 -1 0 -179z m490 159 c0 -6 -7 -9 -15 -5 -13 4 -15 -9 -15 -89 0 -61 4 -95 11 -95 7 0 9 29 7 84 -2 46 0 82 5 79 4 -2 8 -41 9 -86 l2 -82 6 105 6 105 2 -107 2 -108 -200 0 -200 0 -2 103 -2 102 -6 -105 -6 -105 -2 108 -2 107 200 0 c140 0 200 -3 200 -11z m506 -52 c4 -4 0 -7 -9 -7 -13 0 -17 -10 -17 -45 l0 -45 -52 1 c-29 0 -62 4 -73 8 -13 5 4 8 45 7 l65 -1 3 47 c3 44 17 57 38 35z m144 1 c0 -5 -26 -8 -57 -7 -35 0 -51 3 -40 8 24 9 97 8 97 -1z m100 0 c0 -5 -13 -8 -30 -8 -28 0 -44 -19 -17 -21 10 0 10 -2 0 -6 -22 -8 -14 -21 10 -16 12 3 19 2 14 -2 -4 -5 -16 -10 -27 -12 -17 -2 -20 3 -20 35 0 36 1 38 35 37 19 0 35 -3 35 -7z m80 0 c0 -4 -7 -8 -15 -8 -10 0 -15 -11 -16 -32 -1 -18 -3 -25 -6 -15 -2 9 -9 17 -14 17 -6 0 -8 -4 -4 -9 3 -5 1 -12 -5 -16 -6 -4 -10 9 -10 33 0 38 1 39 35 39 19 0 35 -4 35 -9z m50 0 c0 -4 -6 -8 -14 -8 -9 0 -16 -13 -19 -32 -3 -30 -4 -30 -5 7 -2 35 1 41 18 41 11 0 20 -4 20 -8z m30 2 c0 -5 -5 -10 -11 -10 -5 0 -7 5 -4 10 3 6 8 10 11 10 2 0 4 -4 4 -10z m1050 -85 l0 -95 -362 2 c-200 0 -348 3 -330 5 l32 4 -2 72 -2 72 -6 -70 -6 -70 -3 70 c-2 50 -5 64 -11 50 l-9 -20 -2 20 c-1 11 -5 -9 -9 -45 l-7 -65 -1 83 -2 82 360 0 360 0 0 -95z m-1655 75 l-159 -5 93 -30 c51 -16 89 -31 84 -32 -4 -2 -62 15 -128 37 l-120 39 195 -1 195 -2 -160 -6z m227 -35 c3 -14 1 -25 -3 -25 -5 0 -9 11 -9 25 0 14 2 25 4 25 2 0 6 -11 8 -25z m135 -12 c-3 -10 -5 -4 -5 12 0 17 2 24 5 18 2 -7 2 -21 0 -30z m80 0 c-3 -10 -5 -4 -5 12 0 17 2 24 5 18 2 -7 2 -21 0 -30z m82 10 c0 -25 -1 -25 -8 -8 -5 11 -7 23 -4 28 8 14 13 7 12 -20z m51 -15 c0 -47 -6 -48 -13 -1 -4 28 -1 43 10 43 2 0 3 -19 3 -42z m30 32 c0 -5 -5 -10 -11 -10 -5 0 -7 5 -4 10 3 6 8 10 11 10 2 0 4 -4 4 -10z m-263 -32 c-3 -7 -5 -2 -5 12 0 14 2 19 5 13 2 -7 2 -19 0 -25z m183 -28 c0 -5 -2 -10 -4 -10 -3 0 -8 5 -11 10 -3 6 -1 10 4 10 6 0 11 -4 11 -10z m80 0 c0 -5 -2 -10 -4 -10 -3 0 -8 5 -11 10 -3 6 -1 10 4 10 6 0 11 -4 11 -10z m1005 -150 c3 -5 2 -17 -3 -26 -6 -11 -11 -13 -16 -5 -4 6 -2 11 3 11 6 0 11 5 11 11 0 5 -4 7 -10 4 -5 -3 -10 -1 -10 4 0 14 17 14 25 1z"/>
<path d="M1904 1615 c0 -55 1 -76 3 -47 2 29 2 74 0 100 -2 26 -3 2 -3 -53z"/>
<path d="M1924 1615 c0 -55 1 -76 3 -47 2 29 2 74 0 100 -2 26 -3 2 -3 -53z"/>
<path d="M1944 1615 c0 -55 1 -76 3 -47 2 29 2 74 0 100 -2 26 -3 2 -3 -53z"/>
<path d="M1964 1615 c0 -55 1 -76 3 -47 2 29 2 74 0 100 -2 26 -3 2 -3 -53z"/>
<path d="M1984 1615 c0 -55 1 -76 3 -47 2 29 2 74 0 100 -2 26 -3 2 -3 -53z"/>
<path d="M2004 1615 c0 -55 1 -76 3 -47 2 29 2 74 0 100 -2 26 -3 2 -3 -53z"/>
<path d="M2020 1615 c0 -57 4 -95 10 -95 6 0 10 38 10 95 0 57 -4 95 -10 95 -6 0 -10 -38 -10 -95z"/>
<path d="M2054 1615 c0 -55 1 -76 3 -47 2 29 2 74 0 100 -2 26 -3 2 -3 -53z"/>
<path d="M2074 1615 c0 -55 1 -76 3 -47 2 29 2 74 0 100 -2 26 -3 2 -3 -53z"/>
<path d="M2094 1615 c0 -55 1 -76 3 -47 2 29 2 74 0 100 -2 26 -3 2 -3 -53z"/>
<path d="M2112 1610 c1 -89 2 -91 8 -35 l7 60 1 -57 c2 -51 5 -58 22 -58 19 0 20 6 18 98 -1 81 -2 89 -8 47 l-7 -50 -1 45 c-2 39 -5 46 -22 46 -19 0 -20 -6 -18 -96z m45 -67 c-3 -10 -5 -4 -5 12 0 17 2 24 5 18 2 -7 2 -21 0 -30z"/>
<path d="M2184 1615 c0 -55 1 -76 3 -47 2 29 2 74 0 100 -2 26 -3 2 -3 -53z"/>
<path d="M2204 1615 c0 -55 1 -76 3 -47 2 29 2 74 0 100 -2 26 -3 2 -3 -53z"/>
<path d="M2224 1615 c0 -55 1 -76 3 -47 2 29 2 74 0 100 -2 26 -3 2 -3 -53z"/>
<path d="M3040 1640 c0 -5 5 -10 10 -10 6 0 10 5 10 10 0 6 -4 10 -10 10 -5 0 -10 -4 -10 -10z"/>
<path d="M3520 1650 c0 -7 115 -10 350 -10 205 0 350 4 350 9 0 5 -146 10 -350 11 -236 0 -350 -3 -350 -10z"/>
<path d="M3580 1562 c0 -65 2 -72 20 -72 18 0 20 6 18 73 l-2 72 -3 -62 c-5 -79 -17 -82 -21 -6 -5 83 -12 79 -12 -5z"/>
<path d="M3630 1561 c0 -64 2 -71 20 -71 18 0 20 6 18 73 -1 70 -1 71 -8 22 l-7 -50 -1 42 c-3 74 -22 60 -22 -16z m27 -53 c-3 -8 -6 -5 -6 6 -1 11 2 17 5 13 3 -3 4 -12 1 -19z"/>
<path d="M3680 1558 c0 -61 2 -68 20 -68 18 0 20 7 20 68 0 61 -2 68 -20 68 -18 0 -20 -7 -20 -68z m27 -25 c-2 -16 -4 -3 -4 27 0 30 2 43 4 28 2 -16 2 -40 0 -55z"/>
<path d="M3730 1560 c0 -43 4 -70 11 -70 5 0 7 5 4 10 -3 6 -2 10 4 10 5 0 12 -6 14 -12 3 -7 5 21 5 62 l-1 75 -7 -60 -7 -60 -1 58 c-3 82 -22 71 -22 -13z"/>
<path d="M3780 1559 c0 -62 2 -69 20 -69 18 0 20 7 20 68 0 61 -2 68 -20 69 -18 2 -20 -4 -20 -68z m25 -16 c4 -27 2 -43 -5 -43 -5 0 -10 21 -10 47 0 55 6 54 15 -4z"/>
<path d="M3830 1558 c0 -61 2 -68 20 -68 18 0 20 7 20 68 0 61 -2 68 -20 68 -18 0 -20 -7 -20 -68z m30 -5 c0 -31 -3 -53 -7 -49 -10 10 -11 106 -1 106 5 0 8 -25 8 -57z"/>
<path d="M3880 1558 c0 -61 2 -68 20 -68 18 0 20 7 20 69 0 64 -2 70 -20 68 -18 -1 -20 -8 -20 -69z m17 -30 c-2 -18 -4 -6 -4 27 0 33 2 48 4 33 2 -15 2 -42 0 -60z"/>
<path d="M3933 1560 c0 -41 2 -58 4 -37 2 20 2 54 0 75 -2 20 -4 3 -4 -38z"/>
<path d="M3957 1623 c-11 -10 -8 -133 3 -133 6 0 10 30 10 70 0 70 -1 76 -13 63z"/>
<path d="M3982 1563 c-2 -67 0 -73 18 -73 18 0 20 7 20 70 0 90 -19 93 -22 3 l-2 -68 -6 70 -6 70 -2 -72z"/>
<path d="M4032 1563 c-2 -67 0 -73 18 -73 18 0 20 7 20 71 0 88 -19 84 -22 -4 l-2 -62 -6 70 -6 70 -2 -72z"/>
<path d="M4082 1563 c-2 -67 0 -73 18 -73 18 0 20 7 20 70 0 90 -19 93 -22 3 l-2 -68 -6 70 -6 70 -2 -72z"/>
<path d="M4132 1563 c-2 -67 0 -73 18 -73 18 0 20 7 20 72 0 83 -14 83 -17 0 -3 -79 -5 -78 -13 3 l-6 70 -2 -72z"/>
<path d="M4182 1563 c-2 -67 0 -73 18 -73 18 0 20 7 20 70 0 90 -19 93 -22 3 l-2 -68 -6 70 -6 70 -2 -72z"/>
<path d="M1037 1677 c-3 -8 -1 -20 4 -28 6 -10 9 -7 9 14 0 29 -5 35 -13 14z"/>
<path d="M1080 1632 l0 -40 50 -4 c28 -1 50 0 50 5 0 4 -3 7 -8 7 -4 0 -7 15 -7 33 0 31 -2 32 -42 35 l-43 3 0 -39z"/>
<path d="M3230 1610 c0 -38 1 -39 24 -30 39 14 126 60 126 65 0 3 -34 5 -75 5 l-75 0 0 -40z"/>
<path d="M1190 1471 c0 -70 4 -101 13 -105 10 -5 10 -7 0 -12 -10 -4 -13 -43 -13 -145 l0 -139 290 0 290 0 0 140 c0 118 -2 140 -15 140 -8 0 -15 5 -15 10 0 6 7 10 15 10 12 0 15 18 15 100 l0 100 -290 0 -290 0 0 -99z m433 -54 l2 -118 -145 3 -145 3 -3 104 c-1 58 0 111 2 118 4 11 36 13 146 11 l141 -3 2 -118z"/>
<path d="M1344 1517 c-3 -8 -3 -56 -2 -108 l3 -94 133 -3 132 -3 0 111 0 110 -130 0 c-99 0 -132 -3 -136 -13z m126 -102 l0 -96 -57 3 -58 3 -3 93 -3 92 61 0 60 0 0 -95z m130 0 l0 -95 -55 0 -55 0 0 95 0 95 55 0 55 0 0 -95z"/>
<path d="M2322 1398 l3 -143 63 -3 62 -3 0 146 0 145 -65 0 -66 0 3 -142z"/>
<path d="M2460 1395 l0 -145 60 0 60 0 0 145 0 145 -60 0 -60 0 0 -145z m34 118 c-5 -5 -12 -12 -16 -18 -4 -6 -8 -2 -8 8 0 9 7 17 17 17 9 0 12 -3 7 -7z"/>
<path d="M2590 1500 c0 -22 5 -40 10 -40 6 0 10 18 10 40 0 22 -4 40 -10 40 -5 0 -10 -18 -10 -40z"/>
<path d="M2620 1395 l0 -145 60 0 60 0 0 145 0 145 -60 0 -60 0 0 -145z"/>
<path d="M2750 1395 l0 -145 60 0 60 0 0 145 0 145 -60 0 -60 0 0 -145z"/>
<path d="M2880 1395 l0 -145 60 0 60 0 0 145 0 145 -60 0 -60 0 0 -145z m36 98 c-3 -4 -6 0 -7 8 0 8 -4 6 -9 -6 -8 -20 -9 -20 -9 1 -1 28 11 38 22 19 5 -9 6 -19 3 -22z"/>
<path d="M3011 1395 c-1 -93 2 -145 9 -145 6 0 11 42 12 108 l2 107 5 -105 6 -105 58 -3 57 -3 0 146 0 145 -74 0 -74 0 -1 -145z m31 105 c3 -16 1 -30 -4 -30 -4 0 -8 14 -8 30 0 17 2 30 4 30 2 0 6 -13 8 -30z"/>
<path d="M3173 1398 l2 -143 58 -3 57 -3 0 146 0 145 -59 0 -59 0 1 -142z"/>
<path d="M3303 1398 l2 -143 63 -3 62 -3 0 146 0 145 -65 0 -64 0 2 -142z m42 122 c3 -5 -1 -10 -9 -10 -9 0 -16 5 -16 10 0 6 4 10 9 10 6 0 13 -4 16 -10z m-5 -30 c0 -5 -2 -10 -4 -10 -3 0 -8 5 -11 10 -3 6 -1 10 4 10 6 0 11 -4 11 -10z"/>
<path d="M1940 1400 l0 -80 160 0 161 0 -3 78 -3 77 -157 3 -158 3 0 -81z"/>
<path d="M2590 1350 c0 -60 4 -100 10 -100 6 0 10 40 10 100 0 60 -4 100 -10 100 -6 0 -10 -40 -10 -100z"/>
<path d="M3440 1350 l0 -100 85 0 85 0 2 73 2 72 3 -70 c4 -67 6 -72 46 -112 36 -37 47 -43 84 -43 l43 0 0 140 0 140 -84 0 c-58 0 -86 -4 -89 -12 -4 -10 -6 -10 -6 0 -1 8 -25 12 -86 12 l-85 0 0 -100z m225 60 c0 -7 -6 -15 -12 -17 -8 -3 -13 4 -13 17 0 13 5 20 13 18 6 -3 12 -11 12 -18z m-171 -12 c-3 -4 -9 -8 -15 -8 -5 0 -9 4 -9 8 0 5 7 9 15 9 8 0 12 -4 9 -9z"/>
<path d="M3802 1313 l3 -138 73 -3 72 -4 0 31 c0 41 18 40 23 -1 2 -18 5 19 7 82 l4 115 5 -110 6 -110 70 0 70 0 3 138 3 137 -76 0 c-64 0 -75 -2 -76 -17 0 -15 -2 -15 -9 2 -9 21 -12 -3 -14 -127 -1 -31 -5 -60 -10 -65 -5 -4 -6 37 -3 100 l6 107 -80 0 -80 0 3 -137z m43 107 c-3 -5 -11 -10 -16 -10 -6 0 -7 5 -4 10 3 6 11 10 16 10 6 0 7 -4 4 -10z m182 -6 c-3 -3 -12 -4 -19 -1 -8 3 -5 6 6 6 11 1 17 -2 13 -5z m-174 -25 c-8 -8 -13 -7 -18 2 -5 8 -4 10 3 5 7 -4 12 -2 12 5 0 7 3 9 7 6 4 -4 2 -12 -4 -18z"/>
<path d="M640 1415 c0 -10 -10 -15 -29 -15 -45 0 -52 -18 -50 -128 1 -55 -2 -105 -5 -111 -5 -7 10 -12 46 -13 l53 -2 -47 -3 -48 -4 0 -75 c0 -72 1 -74 25 -74 14 0 25 -4 25 -10 0 -5 -11 -10 -25 -10 -23 0 -25 -3 -25 -50 l0 -50 55 0 55 0 0 190 c0 160 2 192 15 196 11 5 15 23 15 75 0 67 -1 69 -26 69 -14 0 -23 4 -20 9 3 5 15 7 26 4 11 -3 20 0 20 6 0 6 -13 11 -30 11 -20 0 -30 -5 -30 -15z m18 -93 c-10 -2 -18 -10 -18 -18 0 -17 16 -19 23 -1 3 7 6 5 6 -5 1 -22 -27 -24 -35 -3 -8 19 15 47 30 38 7 -5 5 -9 -6 -11z m-1 -264 c-3 -8 -6 -5 -6 6 -1 11 2 17 5 13 3 -3 4 -12 1 -19z m-2 -79 c11 -17 2 -18 -19 -3 -17 12 -17 14 -4 14 9 0 20 -5 23 -11z m0 -59 c3 -5 1 -10 -4 -10 -6 0 -11 5 -11 10 0 6 2 10 4 10 3 0 8 -4 11 -10z m-45 -14 c0 -8 -4 -17 -8 -20 -13 -8 -35 11 -28 23 10 16 36 14 36 -3z"/>
<path d="M585 900 c3 -5 8 -10 11 -10 2 0 4 5 4 10 0 6 -5 10 -11 10 -5 0 -7 -4 -4 -10z"/>
<path d="M916 1303 c-26 -36 -31 -49 -20 -51 11 -3 14 -22 14 -88 l0 -84 135 0 135 0 0 135 0 135 -115 0 -115 0 -34 -47z m91 -108 c0 -16 -28 -16 -39 0 -8 12 11 25 27 19 6 -3 12 -11 12 -19z"/>
<path d="M1780 1316 c0 -58 7 -66 61 -66 l49 0 0 -150 0 -150 27 0 c21 0 24 3 15 12 -8 8 -12 55 -12 143 l0 130 -51 58 c-60 67 -89 75 -89 23z"/>
<path d="M1940 1281 l0 -29 160 -1 160 -2 0 31 0 30 -160 0 -160 0 0 -29z"/>
<path d="M680 1055 c1 -110 5 -185 10 -185 6 0 10 74 10 185 0 116 -4 185 -10 185 -6 0 -10 -68 -10 -185z"/>
<path d="M710 1055 l0 -185 30 0 30 0 0 185 0 185 -30 0 -30 0 0 -185z"/>
<path d="M784 1025 c0 -121 2 -162 3 -90 3 101 7 131 18 138 10 5 15 25 16 55 0 26 3 41 6 35 6 -15 33 -17 33 -3 0 6 -6 10 -12 10 -10 0 -9 3 1 9 10 7 10 10 1 16 -7 4 -16 1 -21 -6 -7 -11 -9 -10 -9 4 0 13 6 18 23 15 31 -4 38 -57 8 -65 -15 -4 -21 -13 -21 -34 0 -37 15 -37 28 -1 l10 27 1 -27 c1 -18 6 -28 16 -28 12 0 15 16 15 80 l0 80 -34 0 c-62 0 -66 -5 -68 -89 l-2 -76 -6 85 c-4 54 -6 6 -6 -135z"/>
<path d="M1790 1096 l0 -146 39 0 c23 0 40 5 42 13 2 6 4 71 4 142 l0 130 -42 3 -43 3 0 -145z"/>
<path d="M1940 1195 c0 -33 4 -45 15 -45 11 0 15 12 15 45 0 33 -4 45 -15 45 -11 0 -15 -12 -15 -45z"/>
<path d="M1984 1095 c0 -82 2 -115 3 -72 2 43 2 110 0 150 -1 40 -3 5 -3 -78z"/>
<path d="M2000 1195 l0 -45 130 0 130 0 0 45 0 45 -130 0 -130 0 0 -45z"/>
<path d="M2270 1095 c0 -144 0 -145 23 -145 22 0 22 0 19 145 -3 136 -4 145 -23 145 -18 0 -19 -8 -19 -145z"/>
<path d="M2328 1233 c-2 -5 -1 -71 3 -148 l5 -140 2 148 c2 132 0 163 -10 140z"/>
<path d="M2354 1055 c0 -104 2 -146 3 -92 2 54 2 139 0 190 -1 51 -3 7 -3 -98z"/>
<path d="M2370 1095 l0 -145 40 0 40 0 0 145 0 145 -40 0 -40 0 0 -145z"/>
<path d="M2460 1095 l0 -145 60 0 60 0 0 145 0 145 -60 0 -60 0 0 -145z m38 -102 c-4 -22 -22 -20 -26 1 -2 10 3 16 13 16 10 0 15 -7 13 -17z"/>
<path d="M2590 1141 c0 -56 4 -103 10 -106 6 -4 10 32 10 99 0 64 -4 106 -10 106 -6 0 -10 -40 -10 -99z"/>
<path d="M2620 1130 c0 -91 -3 -110 -15 -110 -10 0 -15 -11 -15 -35 0 -44 17 -46 23 -2 l4 32 1 -32 c2 -32 3 -33 47 -33 29 0 45 4 45 13 0 8 4 7 10 -3 6 -10 10 35 10 135 0 100 -4 145 -10 135 -6 -10 -10 -11 -10 -2 0 8 -16 12 -45 12 l-45 0 0 -110z"/>
<path d="M2750 1095 l0 -145 60 0 60 0 0 145 0 145 -60 0 -60 0 0 -145z"/>
<path d="M2880 1095 l0 -145 60 0 60 0 0 145 0 145 -60 0 -60 0 0 -145z m38 -102 c-5 -25 -28 -28 -28 -4 0 12 6 21 16 21 9 0 14 -7 12 -17z"/>
<path d="M3011 1095 l1 -145 39 0 39 0 0 145 0 145 -25 0 -25 0 1 -131 c0 -72 -2 -133 -5 -136 -3 -4 -6 55 -6 130 0 86 -4 137 -10 137 -7 0 -10 -53 -9 -145z"/>
<path d="M3104 1150 c0 -52 1 -74 3 -47 2 26 2 68 0 95 -2 26 -3 4 -3 -48z"/>
<path d="M3122 1098 c3 -127 5 -143 21 -146 16 -3 17 9 17 142 0 140 -1 146 -20 146 -20 0 -20 -5 -18 -142z"/>
<path d="M3172 1098 l3 -143 58 -3 57 -3 0 146 0 145 -60 0 -61 0 3 -142z"/>
<path d="M3300 1095 l0 -145 64 0 65 0 0 145 1 145 -65 0 -65 0 0 -145z m46 -96 c3 -6 1 -16 -5 -22 -9 -9 -14 -8 -21 3 -9 15 -4 30 10 30 5 0 12 -5 16 -11z"/>
<path d="M3325 990 c3 -5 8 -10 11 -10 2 0 4 5 4 10 0 6 -5 10 -11 10 -5 0 -7 -4 -4 -10z"/>
<path d="M3440 1095 c0 -122 2 -145 15 -145 13 0 15 23 15 145 0 122 -2 145 -15 145 -13 0 -15 -23 -15 -145z"/>
<path d="M3482 1040 c-1 -113 -6 -199 -10 -192 -6 9 -89 11 -368 10 -311 -3 -359 -5 -359 -18 0 -13 27 -15 169 -18 129 -2 171 1 178 10 6 10 8 10 9 -2 0 -10 3 -8 9 5 7 15 9 16 9 4 1 -20 110 -31 291 -28 67 1 123 -1 126 -4 3 -2 -290 -2 -650 1 l-654 5 -4 -24 c-2 -18 -10 -25 -30 -27 -27 -3 -33 4 -28 37 1 12 -26 13 -172 8 -95 -4 -259 -7 -365 -7 -174 0 -192 -2 -196 -17 -4 -14 -5 -12 -6 5 l-1 22 248 0 c136 0 257 3 270 6 13 4 22 14 22 25 0 18 -19 19 -580 19 -509 0 -580 -2 -580 -15 0 -8 0 -18 0 -22 0 -5 111 -10 247 -13 l248 -6 -288 -2 -288 -2 3 -27 c2 -16 8 -27 16 -25 6 1 12 -2 12 -8 0 -5 -4 -10 -10 -10 -5 0 -10 -15 -10 -32 l0 -33 15 28 c29 57 21 55 303 53 160 0 262 3 262 9 0 5 5 4 12 -3 20 -20 48 -14 49 11 0 21 1 21 10 2 9 -19 20 -20 222 -20 308 0 343 -3 379 -33 25 -21 33 -24 49 -14 12 8 19 8 19 2 0 -5 8 -10 18 -10 15 0 17 6 14 36 -4 33 -2 35 19 32 19 -2 25 -10 27 -35 l3 -33 404 0 403 0 32 26 31 27 274 -1 c231 -1 274 1 279 13 3 9 -1 15 -9 15 -8 0 -15 4 -15 9 0 5 9 7 20 4 12 -3 19 -12 18 -22 -2 -11 4 -16 22 -16 15 0 24 5 22 13 -6 30 41 51 111 52 65 0 67 1 67 25 l0 25 -150 0 c-135 0 -150 -2 -152 -17 -1 -10 -5 76 -8 192 l-6 210 -2 -205z m-2142 -266 c0 -2 -9 -4 -20 -4 -11 0 -20 4 -20 9 0 5 9 7 20 4 11 -3 20 -7 20 -9z m80 6 c0 -5 -5 -10 -11 -10 -5 0 -7 5 -4 10 3 6 8 10 11 10 2 0 4 -4 4 -10z"/>
<path d="M3500 1095 l0 -145 55 0 55 0 0 145 0 145 -55 0 -55 0 0 -145z"/>
<path d="M3620 1092 l0 -142 84 0 85 0 3 95 c2 53 2 100 0 105 -2 6 -24 10 -50 10 -40 0 -51 5 -84 37 l-38 37 0 -142z m50 -97 c0 -8 -6 -15 -14 -15 -8 0 -16 7 -20 15 -4 10 1 15 14 15 11 0 20 -7 20 -15z"/>
<path d="M408 1020 c-2 -113 0 -150 9 -150 9 0 13 38 15 143 3 134 4 142 23 142 19 0 20 -8 25 -148 l5 -147 -52 0 c-29 0 -53 -4 -53 -10 0 -5 5 -10 11 -10 6 0 28 -19 49 -41 44 -48 58 -106 31 -126 -23 -18 -71 -16 -71 2 0 11 -13 15 -54 15 -61 0 -66 -6 -66 -75 0 -49 8 -55 75 -55 35 0 45 4 50 21 4 11 12 18 18 16 19 -7 10 -54 -22 -124 -30 -64 -30 -64 -8 -61 18 2 28 19 52 85 17 46 33 83 38 83 4 0 7 -40 7 -90 0 -72 3 -88 14 -84 18 7 26 84 9 84 -14 0 -17 124 -13 508 l2 172 -46 0 -45 0 -3 -150z"/>
<path d="M4426 831 c6 -291 5 -341 -7 -341 -11 0 -14 -10 -11 -40 3 -26 9 -40 18 -40 11 0 14 19 14 85 0 50 4 85 10 85 6 0 10 -7 10 -15 0 -22 55 -141 69 -150 24 -14 21 3 -14 77 -22 45 -33 82 -29 92 6 16 8 15 26 -3 13 -15 31 -21 63 -21 l45 0 0 65 0 65 -55 0 c-42 0 -55 -3 -55 -15 0 -22 -37 -18 -50 4 -22 42 -12 77 35 125 25 26 45 49 45 51 0 3 -22 5 -50 5 l-50 0 0 145 0 145 25 0 25 0 0 -140 c0 -105 3 -140 13 -140 9 0 12 36 11 148 l-1 147 -48 3 -47 3 8 -340z"/>
<path d="M3814 985 c0 -99 2 -138 3 -87 2 51 2 132 0 180 -1 48 -3 6 -3 -93z"/>
<path d="M3830 1055 l0 -105 64 0 c42 0 66 4 69 13 4 10 6 10 6 0 1 -9 24 -13 81 -13 l80 0 0 105 0 105 -70 0 -69 0 -4 -97 -3 -98 -2 98 c-2 91 -16 130 -25 70 l-4 -28 -2 28 c-1 26 -3 27 -61 27 l-60 0 0 -105z m140 0 c0 -25 -5 -45 -10 -45 -10 0 -12 65 -3 83 9 16 13 5 13 -38z m60 -49 c0 -2 -7 -6 -15 -10 -8 -3 -15 -1 -15 4 0 6 7 10 15 10 8 0 15 -2 15 -4z"/>
<path d="M4141 1053 c2 -125 6 -118 12 15 2 50 0 92 -5 92 -4 0 -7 -48 -7 -107z"/>
<path d="M4168 1055 l-3 -105 33 0 32 0 0 105 0 105 -29 0 -30 0 -3 -105z"/>
<path d="M1940 1061 c0 -82 6 -111 21 -111 5 0 9 43 9 95 0 78 -3 95 -15 95 -12 0 -15 -15 -15 -79z"/>
<path d="M2000 1046 l0 -95 128 2 127 2 3 93 3 92 -131 0 -130 0 0 -94z"/>
<path d="M810 1056 c-8 -11 -10 -39 -5 -101 l7 -85 44 0 44 0 0 48 c0 26 -3 70 -6 98 -6 48 -8 50 -39 52 -19 2 -37 -4 -45 -12z"/>
<path d="M910 970 l0 -100 141 0 141 0 -6 23 c-3 12 -6 57 -6 100 l0 77 -135 0 -135 0 0 -100z m167 63 c-20 -2 -52 -2 -70 0 -17 2 0 4 38 4 39 0 53 -2 32 -4z m60 -8 c0 -8 -4 -12 -9 -9 -5 3 -6 10 -3 15 9 13 12 11 12 -6z m20 -7 c-3 -8 -6 -5 -6 6 -1 11 2 17 5 13 3 -3 4 -12 1 -19z"/>
<path d="M1197 1053 c-4 -3 -7 -39 -7 -80 l0 -73 290 0 290 0 0 80 0 80 -283 0 c-156 0 -287 -3 -290 -7z m43 -21 c0 -5 -7 -9 -15 -9 -8 0 -15 4 -15 9 0 4 7 8 15 8 8 0 15 -4 15 -8z m257 -12 c0 -9 -6 -17 -12 -17 -6 0 -12 8 -12 17 -1 9 5 17 12 17 7 0 13 -8 12 -17z m259 9 c3 -6 1 -16 -6 -22 -10 -9 -11 -9 -6 0 3 6 -2 16 -11 22 -16 9 -16 10 -1 11 9 0 20 -5 24 -11z"/>
<path d="M1780 905 l0 -35 95 0 95 0 0 35 0 35 -95 0 -95 0 0 -35z"/>
<path d="M1983 880 c0 -36 2 -50 4 -32 2 17 2 47 0 65 -2 17 -4 3 -4 -33z"/>
<path d="M2000 905 l0 -35 170 0 170 0 0 35 0 35 -170 0 -170 0 0 -35z"/>
<path d="M2370 905 l0 -35 180 0 180 0 0 35 0 35 -180 0 -180 0 0 -35z"/>
<path d="M2740 905 l0 -35 175 0 175 0 0 35 0 35 -175 0 -175 0 0 -35z"/>
<path d="M3103 905 c0 -22 2 -30 4 -17 2 12 2 30 0 40 -3 9 -5 -1 -4 -23z"/>
<path d="M3124 916 c-3 -14 -3 -30 1 -35 4 -7 67 -11 176 -11 l169 0 0 35 0 35 -170 0 -170 0 -6 -24z"/>
<path d="M3500 905 l0 -35 150 0 150 0 0 35 0 35 -150 0 -150 0 0 -35z"/>
<path d="M3830 905 l0 -35 150 0 150 0 0 35 0 35 -150 0 -150 0 0 -35z"/>
<path d="M4143 875 c0 -38 2 -53 4 -32 2 20 2 52 0 70 -2 17 -4 1 -4 -38z"/>
<path d="M4160 905 c0 -33 2 -35 35 -35 33 0 35 2 35 35 0 33 -2 35 -35 35 -33 0 -35 -2 -35 -35z"/>
<path d="M1200 880 c0 -5 7 -10 15 -10 8 0 15 5 15 10 0 6 -7 10 -15 10 -8 0 -15 -4 -15 -10z"/>
<path d="M1240 880 c0 -5 5 -10 10 -10 6 0 10 5 10 10 0 6 -4 10 -10 10 -5 0 -10 -4 -10 -10z"/>
<path d="M1270 880 c0 -12 176 -12 205 0 13 6 -20 9 -92 9 -69 1 -113 -3 -113 -9z"/>
<path d="M1500 880 c0 -6 42 -10 105 -10 63 0 105 4 105 10 0 6 -42 10 -105 10 -63 0 -105 -4 -105 -10z"/>
<path d="M1730 880 c0 -5 9 -10 20 -10 11 0 20 5 20 10 0 6 -9 10 -20 10 -11 0 -20 -4 -20 -10z"/>
<path d="M510 805 l0 -54 78 -4 77 -3 -77 -2 -78 -2 0 -55 0 -55 84 0 c58 0 86 4 89 13 3 6 6 -25 6 -70 1 -56 -3 -83 -11 -86 -9 -4 -8 -6 2 -6 29 -1 38 15 42 79 3 36 8 74 12 85 6 16 6 17 -3 5 -8 -11 -11 7 -11 73 0 86 0 87 25 87 20 0 25 5 25 25 0 22 -4 25 -35 25 -26 0 -35 -4 -36 -17 0 -15 -2 -15 -9 2 -6 13 -8 -14 -8 -75 l2 -95 6 70 6 70 2 -76 c2 -61 -1 -76 -13 -76 -12 0 -15 18 -15 99 l0 98 -80 0 -80 0 0 -55z"/>
<path d="M2000 840 c0 -18 7 -20 83 -20 52 0 88 5 95 12 10 10 17 10 32 0 11 -6 45 -12 75 -12 48 0 55 2 55 20 0 19 -7 20 -170 20 -163 0 -170 -1 -170 -20z"/>
<path d="M2352 840 c0 -14 2 -19 5 -12 2 6 2 18 0 25 -3 6 -5 1 -5 -13z"/>
<path d="M2370 840 c0 -20 5 -21 181 -20 162 2 180 3 177 18 -3 15 -24 17 -181 20 -173 2 -177 2 -177 -18z"/>
<path d="M3830 835 l0 -25 150 0 150 0 0 25 0 25 -150 0 -150 0 0 -25z"/>
<path d="M4260 805 l0 -55 80 0 80 0 0 55 0 55 -80 0 -80 0 0 -55z"/>
<path d="M2186 823 c-3 -3 -6 -17 -6 -30 0 -16 6 -23 19 -23 14 0 17 6 13 25 -5 27 -15 38 -26 28z"/>
<path d="M3660 785 c0 -8 -4 -15 -10 -15 -5 0 -10 -6 -10 -13 0 -10 43 -13 203 -12 287 2 332 -1 345 -28 9 -18 11 -14 11 31 l1 52 -270 0 c-233 0 -270 -2 -270 -15z"/>
<path d="M2100 733 c0 -10 4 -24 9 -32 7 -11 10 -9 16 8 7 22 0 41 -16 41 -5 0 -9 -8 -9 -17z"/>
<path d="M2994 719 c-10 -12 -31 -27 -46 -35 -24 -12 -28 -21 -28 -54 0 -53 14 -51 36 5 9 25 32 59 51 75 18 17 27 30 20 30 -8 0 -22 -9 -33 -21z"/>
<path d="M4260 708 c0 -18 -3 -43 -6 -55 -6 -22 -4 -23 64 -23 97 0 102 3 102 61 l0 49 -80 0 -80 0 0 -32z"/>
<path d="M865 694 c-27 -19 -58 -34 -67 -34 -13 0 -18 -8 -18 -25 0 -18 5 -25 20 -25 19 0 41 -28 39 -52 0 -7 -4 -4 -9 7 -9 22 -15 12 -23 -35 -3 -17 -5 -14 -6 13 0 20 4 37 10 37 5 0 7 5 4 10 -12 20 -24 9 -31 -26 -14 -75 38 -163 111 -189 36 -13 8 -14 -277 -15 l-318 0 0 -30 0 -30 2160 0 2160 0 0 30 0 30 -292 0 c-293 0 -293 0 -253 19 46 21 79 54 94 94 26 68 0 160 -30 105 -7 -13 -16 -39 -20 -58 -6 -32 -7 -33 -8 -7 -1 41 27 97 50 97 14 0 19 7 19 25 0 14 -6 25 -12 25 -7 0 -26 7 -42 15 -16 9 -31 13 -34 10 -3 -3 -11 4 -19 15 -8 11 -20 17 -28 14 -8 -4 -15 -1 -15 5 0 6 -17 11 -40 11 -22 0 -40 -4 -40 -10 0 -5 -11 -10 -24 -10 -37 0 -86 -12 -86 -21 0 -4 12 -10 28 -12 15 -3 5 -5 -23 -4 -27 0 -60 6 -72 13 -27 17 -343 20 -343 4 0 -5 -7 -10 -15 -10 -8 0 -12 6 -9 14 4 12 41 15 190 16 106 0 184 -3 184 -8 0 -20 44 -21 57 -2 7 10 23 21 36 23 12 2 -104 5 -258 5 -165 1 -274 -2 -266 -7 9 -6 -5 -10 -43 -12 -40 -3 -56 0 -56 9 0 16 -84 16 -102 -1 -18 -18 -101 -57 -121 -57 -11 0 -17 -8 -17 -25 0 -14 3 -25 8 -25 4 0 7 -28 7 -63 0 -80 34 -139 98 -168 42 -18 38 -19 -648 -18 -597 0 -685 2 -652 14 44 15 83 48 103 87 17 33 19 124 2 134 -10 7 -15 2 -45 -43 -7 -10 -5 -1 4 20 14 32 21 37 40 32 20 -5 23 -2 23 24 0 25 -5 30 -32 36 -18 4 -38 12 -45 17 -7 5 -17 7 -23 3 -5 -3 -10 1 -10 9 0 9 -4 17 -10 17 -5 1 -14 2 -19 3 -5 0 -13 4 -17 9 -4 4 -25 7 -46 7 l-38 0 0 -51 c0 -31 -4 -48 -10 -44 -6 4 -8 10 -5 15 7 12 -20 19 -85 21 -30 1 -65 8 -77 15 -15 9 -71 14 -185 17 l-163 3 178 2 c124 1 177 -1 177 -9 0 -6 7 -9 15 -6 8 4 17 2 21 -4 3 -6 13 -2 23 9 9 11 25 22 36 25 11 2 -115 4 -280 4 -165 0 -285 -2 -268 -4 18 -2 39 -13 47 -24 12 -17 16 -18 28 -6 11 11 16 11 25 2 14 -15 -32 -25 -114 -25 -31 0 -53 -4 -53 -11 0 -5 5 -7 11 -3 7 4 10 2 8 -5 -7 -20 -24 -13 -27 11 -3 22 0 23 58 20 53 -3 59 -2 54 13 -6 13 -17 16 -60 13 -38 -2 -54 1 -54 10 0 8 -16 12 -47 11 -37 -1 -59 -9 -98 -35z m60 -4 c3 -5 1 -10 -4 -10 -6 0 -11 5 -11 10 0 6 2 10 4 10 3 0 8 -4 11 -10z m2459 -5 c4 -12 -6 -15 -58 -15 -58 0 -64 -2 -59 -19 4 -17 -23 -38 -35 -26 -3 3 0 5 6 5 7 0 12 12 12 28 0 27 1 27 55 24 35 -3 55 0 55 7 0 16 17 13 24 -4z m566 -21 c0 -21 -4 -33 -10 -29 -6 4 -8 11 -5 16 4 5 -1 9 -9 9 -8 0 -18 5 -22 12 -5 8 -2 9 10 5 10 -4 19 -1 22 8 10 24 14 17 14 -21z m-2656 17 c3 -5 -6 -8 -20 -8 -19 0 -22 2 -13 8 18 11 26 11 33 0z m513 -38 c-3 -10 -5 -2 -5 17 0 19 2 27 5 18 2 -10 2 -26 0 -35z m2240 0 c-3 -10 -5 -2 -5 17 0 19 2 27 5 18 2 -10 2 -26 0 -35z m-2563 24 c17 -13 18 -14 2 -20 -9 -4 -15 -3 -12 2 7 11 -22 23 -35 15 -5 -3 -9 0 -9 5 0 15 33 14 54 -2z m2049 6 c-7 -2 -21 -2 -30 0 -10 3 -4 5 12 5 17 0 24 -2 18 -5z m185 -2 c9 -5 3 -8 -17 -7 -17 1 -31 4 -31 9 0 10 32 9 48 -2z m-2788 -36 c0 -5 -5 -3 -10 5 -5 8 -10 20 -10 25 0 6 5 3 10 -5 5 -8 10 -19 10 -25z m369 12 c-2 -1 -12 -9 -21 -16 -15 -12 -18 -11 -18 3 0 10 8 16 22 16 12 0 19 -1 17 -3z m99 -4 c-15 -2 -42 -2 -60 0 -18 2 -6 4 27 4 33 0 48 -2 33 -4z m62 -8 c0 -8 -2 -15 -4 -15 -2 0 -6 7 -10 15 -3 8 -1 15 4 15 6 0 10 -7 10 -15z m2141 -55 l89 0 2 38 1 37 4 -37 c5 -42 5 -42 114 -38 60 2 86 -20 92 -80 l6 -45 -11 47 c-12 51 -27 62 -85 63 -31 0 -33 -2 -33 -32 0 -18 5 -33 10 -33 6 0 10 -9 10 -20 0 -11 -4 -21 -10 -21 -5 -1 -14 -3 -20 -4 -5 -1 -15 -3 -21 -4 -5 0 -7 -5 -4 -11 3 -5 34 -10 68 -10 50 1 59 3 47 13 -8 7 -16 21 -17 32 -1 11 -4 32 -7 48 -3 15 -2 27 3 27 5 0 11 -17 15 -38 8 -55 44 -104 96 -129 l44 -23 -394 0 c-391 0 -395 1 -355 19 22 10 48 27 57 38 20 22 48 96 48 125 0 30 -22 16 -37 -23 -11 -30 -13 -30 -9 -6 2 15 -2 27 -8 27 -6 1 2 8 18 17 17 8 59 18 95 21 36 3 69 10 73 16 4 6 8 -15 8 -46 0 -33 -4 -58 -10 -58 -15 0 -1 -53 18 -68 10 -7 49 -12 108 -12 100 0 109 5 120 58 4 18 13 32 20 32 9 0 14 12 14 35 0 28 -4 35 -20 35 -17 0 -20 -7 -22 -42 l-1 -43 -4 43 c-2 23 -9 42 -15 42 -5 0 -8 -7 -4 -15 3 -8 1 -15 -4 -15 -6 0 -10 7 -10 15 0 11 -19 15 -87 17 l-88 3 -1 35 c-1 35 -1 35 3 3 l4 -33 90 0z m26 63 c-20 -2 -52 -2 -70 0 -17 2 0 4 38 4 39 0 53 -2 32 -4z m-2754 -18 c-3 -9 -8 -14 -10 -11 -3 3 -2 9 2 15 9 16 15 13 8 -4z m352 6 c3 -5 1 -12 -5 -16 -5 -3 -10 1 -10 9 0 18 6 21 15 7z m282 -13 c-3 -8 -6 -5 -6 6 -1 11 2 17 5 13 3 -3 4 -12 1 -19z m351 -18 c4 -12 2 -13 -9 -4 -15 13 -112 13 -144 0 -12 -4 -10 -1 5 8 33 21 141 18 148 -4z m1404 1 c4 -4 -24 -5 -62 -3 -46 3 -75 0 -85 -8 -10 -9 -15 -9 -15 -1 0 6 6 11 13 11 9 0 9 2 0 8 -6 4 23 6 65 4 42 -2 80 -7 84 -11z m834 10 c1 -1 5 -8 8 -17 6 -14 4 -15 -10 -3 -9 7 -37 15 -62 17 -26 2 -49 6 -52 9 -4 4 105 -2 116 -6z m-3072 -9 c3 -5 -23 -7 -57 -5 -93 6 -101 11 -20 12 39 0 74 -3 77 -7z m337 -22 l89 0 0 -49 c0 -79 -2 -81 -86 -81 -41 0 -74 3 -74 8 0 4 23 5 50 4 28 -2 62 -1 75 2 22 6 25 12 25 56 l0 50 -84 0 -85 0 -4 -42 c-2 -27 -4 -18 -3 22 0 36 1 57 4 48 3 -16 16 -18 93 -18z m2609 26 c0 -2 -9 -6 -20 -9 -11 -3 -18 -1 -14 4 5 9 34 13 34 5z m-2724 -91 c-7 -103 -5 -105 118 -105 95 0 126 16 126 65 0 16 6 25 15 25 10 0 15 11 15 35 0 28 -4 35 -20 35 -17 0 -20 -7 -22 -42 l-1 -43 -6 45 c-7 51 -3 79 9 60 5 -8 34 -13 76 -13 43 0 53 -2 27 -4 -42 -4 -43 -5 -43 -39 0 -19 5 -34 10 -34 6 0 10 -9 10 -20 0 -19 -10 -24 -37 -21 -7 1 -13 -5 -13 -14 0 -12 13 -15 60 -15 33 0 60 4 60 10 0 6 -6 10 -12 10 -8 0 -14 18 -16 50 -1 29 2 50 7 50 6 0 8 -7 5 -15 -15 -39 44 -130 100 -156 41 -18 39 -19 -354 -19 -393 0 -395 1 -354 19 48 22 80 59 96 114 9 31 13 36 19 21 3 -11 2 -25 -4 -32 -5 -7 -7 -15 -4 -19 4 -3 -1 -12 -11 -19 -15 -12 -8 -13 46 -14 35 0 62 4 62 10 0 6 -11 10 -25 10 -20 0 -25 5 -25 24 0 13 5 26 10 28 6 2 11 17 13 33 2 24 -2 31 -19 33 -12 2 -28 -4 -37 -12 -11 -12 -17 -13 -20 -3 -3 9 -9 9 -26 -1 -11 -7 -21 -8 -21 -3 0 15 68 31 128 31 28 0 52 5 52 10 0 6 3 10 6 10 4 0 4 -38 0 -85z m567 71 c15 -4 27 -12 27 -18 0 -9 -3 -9 -12 0 -7 7 -21 12 -32 12 -12 0 -28 5 -36 11 -12 8 -11 9 5 6 11 -3 32 -8 48 -11z m-940 -16 c-3 -11 -7 -20 -9 -20 -2 0 -4 9 -4 20 0 11 4 20 9 20 5 0 7 -9 4 -20z m87 10 c-8 -5 -19 -10 -25 -10 -5 0 -3 5 5 10 8 5 20 10 25 10 6 0 3 -5 -5 -10z m756 -28 c-10 -11 -16 -12 -16 -4 0 7 5 12 10 12 6 0 10 8 11 18 0 11 2 13 6 4 3 -8 -2 -21 -11 -30z m1484 28 c0 -5 -9 -10 -21 -10 -11 0 -17 5 -14 10 3 6 13 10 21 10 8 0 14 -4 14 -10z m770 -9 c-14 -27 -30 -35 -30 -16 0 9 5 13 10 10 6 -3 10 1 10 9 0 9 5 16 10 16 7 0 7 -6 0 -19z m108 -1 c4 -12 2 -13 -9 -3 -8 6 -30 13 -49 16 -28 4 -26 4 9 3 30 -1 46 -6 49 -16z m-2318 0 c0 -5 -5 -10 -11 -10 -5 0 -7 5 -4 10 3 6 8 10 11 10 2 0 4 -4 4 -10z m157 -22 c-3 -7 -5 -2 -5 12 0 14 2 19 5 13 2 -7 2 -19 0 -25z m1170 -8 c1 -33 1 -33 -5 -6 -10 42 -30 44 -35 4 -4 -33 -4 -33 -5 5 -2 34 0 38 21 35 18 -2 22 -10 24 -38z m160 32 c9 -6 10 -16 3 -37 l-10 -30 4 28 c2 18 -2 31 -13 37 -9 5 -11 9 -6 10 6 0 15 -4 22 -8z m-2227 -17 c0 -8 -4 -15 -10 -15 -5 0 -7 7 -4 15 4 8 8 15 10 15 2 0 4 -7 4 -15z m639 -34 l-2 -26 -4 28 c-2 15 -9 27 -14 27 -5 0 -9 5 -9 11 0 8 5 8 15 -1 8 -7 14 -24 14 -39z m162 24 c14 9 11 -19 -6 -41 -13 -18 -14 -18 -8 5 4 14 1 26 -8 32 -20 13 -29 11 -29 -6 0 -8 5 -15 10 -15 6 0 10 -7 10 -15 0 -8 -5 -15 -11 -15 -5 0 -8 4 -4 10 3 5 -6 15 -21 23 -17 9 -23 17 -15 21 6 4 11 1 11 -6 0 -7 7 -2 16 10 14 20 17 21 30 7 9 -8 20 -13 25 -10z m36 3 c-3 -8 -6 -5 -6 6 -1 11 2 17 5 13 3 -3 4 -12 1 -19z m2185 14 c-6 -2 -10 -8 -6 -13 3 -5 0 -8 -8 -7 -7 2 -13 -4 -13 -12 0 -8 -4 -20 -10 -26 -11 -13 -25 -9 -25 7 0 6 4 8 9 5 5 -3 11 4 14 16 4 12 2 25 -4 28 -5 4 5 7 23 7 18 0 27 -2 20 -5z m-3155 -34 c-3 -7 -5 -2 -5 12 0 14 2 19 5 13 2 -7 2 -19 0 -25z m26 17 c-3 -9 -8 -14 -10 -11 -3 3 -2 9 2 15 9 16 15 13 8 -4z m74 -5 c3 -10 2 -11 -4 -4 -4 6 -15 14 -23 17 -11 5 -9 6 4 4 11 -1 21 -9 23 -17z m2202 -1 c12 -12 20 -24 17 -27 -3 -3 -14 5 -25 16 -22 26 -31 28 -31 6 0 -8 -5 -12 -10 -9 -8 5 -7 11 1 21 15 19 21 18 48 -7z m35 6 c3 -8 3 -15 0 -15 -3 0 -12 7 -20 15 -13 13 -13 15 -1 15 8 0 17 -7 21 -15z m936 -43 c-7 -13 -9 -8 -9 23 0 35 1 37 10 17 6 -15 5 -30 -1 -40z m-2730 28 c0 -14 -9 -21 -34 -26 -19 -3 -41 -4 -48 -1 -7 3 -2 6 12 7 l25 2 -25 8 -25 8 25 3 c14 1 3 5 -25 9 -49 7 -48 7 23 8 65 2 72 0 72 -18z m2208 13 c-21 -2 -55 -2 -75 0 -21 2 -4 4 37 4 41 0 58 -2 38 -4z m352 3 c0 -3 -4 -8 -10 -11 -5 -3 -10 -1 -10 4 0 6 5 11 10 11 6 0 10 -2 10 -4z m80 -6 c0 -5 -4 -10 -10 -10 -5 0 -10 5 -10 10 0 6 5 10 10 10 6 0 10 -4 10 -10z m-3106 -15 c3 -8 1 -15 -4 -15 -6 0 -10 7 -10 15 0 8 2 15 4 15 2 0 6 -7 10 -15z m352 -10 c14 -13 13 -15 -5 -15 -12 0 -21 6 -21 15 0 8 3 15 6 15 3 0 12 -7 20 -15z m561 -7 c-3 -8 -6 -5 -6 6 -1 11 2 17 5 13 3 -3 4 -12 1 -19z m1683 -1 c10 -4 8 -6 -7 -6 -16 -1 -23 5 -23 17 0 10 3 13 8 6 4 -6 14 -14 22 -17z m108 11 c-6 -18 -25 -21 -25 -3 0 8 7 15 15 15 7 0 12 -5 10 -12z m419 -10 c-3 -8 -6 -5 -6 6 -1 11 2 17 5 13 3 -3 4 -12 1 -19z m-3240 -10 c-3 -8 -6 -5 -6 6 -1 11 2 17 5 13 3 -3 4 -12 1 -19z m179 -16 c-15 -15 -15 -15 -4 10 7 15 15 23 17 17 2 -6 -4 -18 -13 -27z m39 8 c-4 -12 -9 -19 -12 -17 -3 3 -2 15 2 27 4 12 9 19 12 17 3 -3 2 -15 -2 -27z m653 -1 c-3 -8 -7 -3 -11 10 -4 17 -3 21 5 13 5 -5 8 -16 6 -23z m1449 17 c-3 -7 0 -19 6 -26 10 -10 7 -10 -10 -1 -13 6 -23 16 -23 22 0 6 5 7 10 4 6 -3 10 -1 10 4 0 6 3 11 6 11 3 0 4 -6 1 -14z m103 -15 c-6 -12 -18 -20 -28 -20 -16 1 -16 2 0 6 9 2 20 13 23 24 4 11 9 18 12 16 2 -3 0 -15 -7 -26z m426 -47 c-8 -22 -190 -16 -192 6 0 9 1 10 3 3 3 -9 31 -13 94 -13 l89 0 2 43 c1 38 2 39 5 9 3 -19 2 -40 -1 -48z m-2740 35 c12 0 14 -3 6 -6 -16 -6 -62 16 -62 30 0 6 8 3 18 -6 10 -10 27 -17 38 -18z m799 14 c11 -14 10 -20 -4 -30 -13 -10 -8 -12 35 -13 27 0 55 5 62 12 9 9 12 8 12 -5 0 -15 -12 -17 -85 -17 -56 0 -85 -4 -85 -11 0 -8 -5 -8 -15 1 -8 7 -14 24 -14 39 1 20 2 22 6 6 6 -25 23 -44 23 -26 0 8 7 10 20 6 14 -5 20 -2 20 10 0 9 5 13 10 10 14 -9 13 8 -2 23 -7 7 -8 12 -4 12 5 0 14 -8 21 -17z m1475 7 c0 -5 -5 -10 -11 -10 -5 0 -7 5 -4 10 3 6 8 10 11 10 2 0 4 -4 4 -10z m277 -12 c-3 -8 -6 -5 -6 6 -1 11 2 17 5 13 3 -3 4 -12 1 -19z m116 15 c-7 -2 -21 -2 -30 0 -10 3 -4 5 12 5 17 0 24 -2 18 -5z m431 -17 c-3 -9 -10 -16 -15 -16 -5 0 -4 9 3 20 14 22 21 20 12 -4z m-3203 -53 c8 -7 51 -14 94 -16 l80 -3 -88 -2 -87 -2 -20 33 c-11 17 -20 39 -20 47 1 8 7 1 14 -15 7 -17 19 -35 27 -42z m153 52 c-4 -8 -11 -15 -16 -15 -6 0 -5 6 2 15 7 8 14 15 16 15 2 0 1 -7 -2 -15z m2989 -6 c12 0 16 -3 10 -6 -27 -10 -11 -20 32 -21 25 -1 45 3 45 8 0 6 -5 10 -11 10 -5 0 -7 5 -4 10 4 6 12 5 21 -4 29 -29 15 -36 -71 -36 -54 0 -85 4 -85 11 0 6 8 8 19 4 21 -6 38 10 21 20 -5 3 -10 12 -9 18 0 9 2 9 6 0 2 -7 14 -13 26 -14z m-2595 4 c-21 -2 -55 -2 -75 0 -21 2 -4 4 37 4 41 0 58 -2 38 -4z m2240 0 c-21 -2 -55 -2 -75 0 -21 2 -4 4 37 4 41 0 58 -2 38 -4z m-1815 -10 c-7 -2 -19 -2 -25 0 -7 3 -2 5 12 5 14 0 19 -2 13 -5z m70 -25 l-19 -33 -87 -1 -87 0 85 3 c83 4 85 5 100 33 9 17 18 30 21 30 3 0 -3 -15 -13 -32z m2240 0 c-19 -33 -19 -33 -109 -36 -80 -2 -92 0 -109 18 -10 11 -13 20 -8 20 6 0 13 -7 17 -15 4 -12 25 -15 95 -15 90 0 91 0 106 30 9 17 18 30 21 30 3 0 -3 -15 -13 -32z m-950 -31 l82 -3 -82 -2 c-71 -2 -86 1 -103 18 -11 11 -20 25 -20 31 0 7 9 0 20 -14 19 -24 28 -27 103 -30z m-23 43 c12 -8 9 -10 -12 -10 -14 0 -33 -3 -42 -6 -9 -3 -16 -1 -16 4 0 6 10 13 23 15 12 2 24 5 27 5 3 1 12 -3 20 -8z m495 -4 c11 -2 -13 -4 -52 -5 -40 0 -73 2 -73 7 0 6 79 5 125 -2z m-2716 0 c-10 -8 -89 -13 -89 -5 0 5 21 9 47 9 25 0 44 -2 42 -4z m96 -5 c-6 -5 -28 -6 -50 -1 l-40 8 50 1 c29 1 45 -3 40 -8z m2245 -2 c0 -5 5 -7 10 -4 16 10 11 -1 -7 -16 -11 -10 -14 -10 -9 -1 5 9 -3 12 -33 12 -22 0 -43 5 -46 10 -4 6 12 10 39 10 26 0 46 -5 46 -11z m-2220 -3 c0 -2 -8 -10 -17 -17 -16 -13 -17 -12 -4 4 13 16 21 21 21 13z m400 -8 c0 -5 -43 -8 -95 -8 -52 0 -95 3 -95 8 0 4 43 7 95 7 52 0 95 -3 95 -7z"/>
<path d="M3371 561 c-8 -5 -11 -16 -8 -25 3 -8 1 -18 -5 -22 -7 -4 -6 -9 3 -15 11 -7 11 -9 1 -9 -8 0 -12 -8 -10 -17 2 -10 -3 -23 -12 -30 -12 -10 -2 -12 53 -13 43 0 66 4 62 10 -3 6 -17 10 -29 10 -27 0 -43 38 -20 47 8 3 14 19 14 39 0 35 -18 44 -49 25z"/>
<path d="M3440 535 c0 -28 4 -35 20 -35 16 0 20 7 20 35 0 28 -4 35 -20 35 -16 0 -20 -7 -20 -35z"/>
<path d="M1200 535 c0 -28 4 -35 20 -35 16 0 20 7 20 35 0 28 -4 35 -20 35 -16 0 -20 -7 -20 -35z"/>
<path d="M1390 525 c0 -9 6 -12 15 -9 8 4 15 10 15 15 0 5 -7 9 -15 9 -8 0 -15 -7 -15 -15z"/>
<path d="M1978 696 c18 -21 31 -45 28 -52 -3 -8 1 -17 9 -20 8 -4 15 -14 15 -23 0 -14 2 -14 10 -1 7 11 10 -4 10 -50 0 -36 3 -75 6 -87 l6 -23 424 0 424 0 0 120 0 120 -424 0 c-330 0 -426 -3 -430 -12 -5 -10 -7 -10 -12 0 -3 6 -14 12 -24 12 -11 0 -23 6 -27 13 -4 6 -17 19 -28 27 -11 8 -5 -2 13 -24z"/>
<path d="M1628 703 c-34 -9 -17 -23 27 -23 33 0 45 4 45 15 0 15 -33 19 -72 8z"/>
<path d="M4333 623 l-83 -4 0 -63 0 -62 73 2 c39 1 78 2 85 3 8 1 12 18 12 51 l0 49 -82 4 -83 3 83 2 c46 1 82 6 82 12 0 6 -1 9 -2 8 -2 -1 -40 -4 -85 -5z m46 -59 c2 -2 -17 -4 -42 -4 -26 0 -47 4 -47 10 0 9 79 3 89 -6z"/>
<path d="M553 613 c26 -2 67 -2 90 0 23 2 2 3 -48 3 -49 0 -68 -1 -42 -3z"/>
<path d="M510 550 l0 -50 85 0 85 0 0 50 c0 46 -2 50 -24 50 -13 0 -27 -6 -30 -12 -5 -10 -7 -10 -12 0 -3 7 -25 12 -55 12 l-49 0 0 -50z m135 10 c-3 -5 -31 -10 -61 -10 -30 0 -54 5 -54 10 0 6 27 10 61 10 37 0 58 -4 54 -10z"/>
<path d="M638 483 c7 -3 16 -2 19 1 4 3 -2 6 -13 5 -11 0 -14 -3 -6 -6z"/>
<path d="M1610 230 c-15 -15 -20 -33 -20 -78 0 -73 19 -95 77 -90 38 4 38 4 38 48 0 42 -2 45 -27 48 -21 3 -28 -1 -28 -13 0 -11 5 -15 15 -12 19 8 24 -3 14 -30 -9 -25 -38 -30 -57 -11 -15 15 -16 92 -2 119 14 25 34 24 60 -3 l20 -22 0 22 c0 41 -57 55 -90 22z"/>
<path d="M1740 154 c0 -61 4 -93 10 -89 6 3 10 22 10 41 0 32 2 34 35 34 29 0 37 5 45 25 11 30 -1 70 -25 79 -9 3 -30 6 -46 6 l-29 0 0 -96z m75 41 c0 -25 -4 -30 -27 -33 -26 -3 -28 -1 -28 33 0 34 2 36 28 33 23 -3 27 -8 27 -33z"/>
<path d="M1882 238 c-7 -7 -12 -21 -12 -32 0 -20 1 -20 18 2 12 15 24 21 35 16 24 -9 21 -41 -4 -55 l-21 -11 22 -15 c25 -18 24 -56 -3 -61 -10 -2 -25 5 -32 15 -16 22 -34 9 -19 -15 13 -21 60 -28 80 -11 17 14 19 60 2 77 -9 9 -9 15 0 24 17 17 15 44 -4 62 -18 19 -45 21 -62 4z"/>
<path d="M2005 233 c-11 -11 -15 -27 -12 -47 2 -17 0 -43 -5 -58 -13 -37 5 -68 40 -68 35 0 52 16 52 50 0 14 -5 31 -12 38 -9 9 -9 15 0 24 17 17 15 44 -4 62 -20 20 -38 20 -59 -1z m44 -17 c14 -16 4 -46 -14 -46 -19 0 -27 17 -20 40 7 23 18 25 34 6z m4 -88 c14 -22 1 -48 -23 -48 -15 0 -20 7 -20 28 0 44 22 54 43 20z"/>
<path d="M2206 237 c-11 -8 -16 -22 -14 -38 4 -23 5 -23 13 -4 11 25 25 35 42 28 22 -8 15 -48 -13 -74 -23 -22 -54 -69 -54 -84 0 -3 23 -5 50 -5 58 0 68 17 13 22 l-38 3 38 41 c43 48 50 96 18 114 -25 13 -33 13 -55 -3z"/>
<path d="M2381 236 c-7 -8 -11 -27 -9 -43 2 -21 12 -32 41 -46 30 -14 38 -23 35 -40 -4 -30 -47 -37 -55 -8 -7 29 -23 26 -23 -3 0 -42 70 -51 95 -12 21 32 6 62 -41 82 -27 12 -35 20 -32 37 4 30 44 36 53 7 6 -19 25 -19 25 0 0 33 -67 53 -89 26z"/>
<path d="M2666 241 c-4 -7 -5 -15 -2 -18 9 -9 19 4 14 18 -4 11 -6 11 -12 0z"/>
<path d="M2898 244 c-12 -11 -10 -184 2 -184 5 0 10 26 12 58 3 49 6 57 23 57 17 0 20 -8 23 -57 2 -32 7 -58 13 -58 6 0 9 27 7 68 l-3 67 -32 -1 c-28 -2 -32 1 -35 28 -2 16 -6 26 -10 22z"/>
<path d="M2725 225 c-5 -11 -13 -24 -19 -28 -8 -6 -7 -10 2 -14 7 -3 12 -25 12 -59 0 -40 4 -56 15 -61 9 -3 19 -2 23 2 4 4 1 10 -5 12 -8 3 -13 23 -13 53 0 29 5 50 13 53 9 4 9 8 1 14 -7 4 -14 17 -16 28 l-5 20 -8 -20z"/>
<path d="M2490 195 c0 -29 35 -135 44 -132 6 2 15 23 22 48 l11 44 9 -45 c13 -63 34 -59 50 10 16 67 17 80 5 80 -6 0 -13 -20 -17 -45 -8 -58 -20 -57 -29 1 -8 56 -25 53 -40 -7 -12 -45 -14 -43 -29 24 -4 15 -11 27 -16 27 -6 0 -10 -2 -10 -5z"/>
<path d="M2660 130 c0 -40 4 -70 10 -70 6 0 10 30 10 70 0 40 -4 70 -10 70 -6 0 -10 -30 -10 -70z"/>
<path d="M2792 188 c-16 -16 -16 -100 0 -116 19 -19 56 -14 68 9 15 27 4 38 -14 14 -22 -30 -46 -12 -46 35 0 45 25 67 42 36 13 -24 31 -10 18 15 -12 21 -50 25 -68 7z"/>
<path d="M3022 188 c-16 -16 -16 -100 0 -116 19 -19 56 -14 68 8 9 16 8 20 -5 20 -8 0 -15 -4 -15 -10 0 -5 -9 -10 -21 -10 -15 0 -20 5 -17 22 2 18 9 23 31 21 23 -2 27 2 27 26 0 45 -40 67 -68 39z m46 -31 c2 -12 -3 -17 -17 -17 -12 0 -21 6 -21 13 0 31 32 34 38 4z"/>
<path d="M3120 128 c0 -39 4 -68 10 -68 6 0 10 22 10 50 0 39 4 53 20 62 28 18 25 27 -10 26 l-30 -1 0 -69z"/>
<path d="M2100 136 c0 -11 10 -16 31 -16 38 0 35 24 -4 28 -19 2 -27 -1 -27 -12z"/>
</g>
</svg>