<svg xmlns="http://www.w3.org/2000/svg" viewBox="482.90 591.90 446.10 176.90">
<g transform="translate(0.000000,768.000000) scale(0.100000,-0.100000)" fill="currentColor" stroke="none">
<path d="M8502 1705 c3 -3 -9 -21 -27 -41 -65 -71 -65 -73 -1 -169 51 -76 58 -92 64 -152 4 -40 3 -77 -3 -91 -9 -20 -16 -22 -62 -20 -28 2 -49 6 -47 10 9 14 -8 57 -24 61 -15 4 -15 5 1 6 13 1 17 10 17 40 0 58 -16 91 -50 104 -17 6 -30 15 -30 19 0 4 -9 8 -20 8 -11 0 -20 -4 -20 -10 0 -5 -6 -10 -14 -10 -28 0 -56 -50 -56 -101 0 -28 5 -49 11 -49 6 0 3 -7 -5 -16 -15 -14 -20 -28 -17 -46 0 -4 -9 -4 -22 1 -12 5 -43 11 -68 15 -41 6 -46 10 -42 27 5 19 11 20 77 16 l71 -6 -56 11 -56 10 -18 58 c-21 69 -38 70 -54 3 l-12 -45 -64 4 c-35 2 -61 0 -59 -4 3 -4 22 -8 43 -8 63 0 99 -11 104 -31 6 -22 -6 -24 -84 -9 -30 6 -56 15 -57 20 -2 6 -10 17 -19 25 -8 8 -10 15 -4 15 6 0 11 20 11 48 0 51 -21 92 -47 92 -9 0 -13 6 -10 14 3 8 3 17 -1 21 -4 4 -8 11 -8 16 -1 5 -2 14 -3 19 -2 19 -21 10 -21 -10 0 -11 -4 -20 -10 -20 -5 0 -10 20 -10 44 0 46 -16 69 -31 45 -5 -8 -6 -22 -3 -31 4 -13 0 -18 -13 -19 -10 0 -13 -3 -5 -6 23 -9 13 -54 -18 -83 -26 -24 -30 -35 -30 -79 l0 -50 -185 2 c-169 2 -185 4 -185 20 0 9 -4 17 -10 17 -5 0 -10 20 -10 45 0 25 -4 45 -9 45 -14 0 -19 -21 -13 -57 3 -21 0 -33 -7 -33 -6 0 -11 -9 -11 -20 0 -15 -7 -20 -26 -20 l-25 0 7 85 7 85 -62 0 c-33 0 -61 4 -61 9 0 4 -29 11 -65 15 -36 4 -80 9 -98 13 -27 5 -30 3 -19 -8 7 -7 36 -16 65 -20 28 -3 -86 -7 -255 -8 l-308 -1 0 -48 c0 -58 10 -65 110 -81 41 -7 90 -17 108 -22 l32 -11 0 -84 c0 -49 -4 -84 -10 -84 -6 0 -10 -63 -10 -170 l0 -170 -54 0 c-51 0 -55 2 -60 28 -3 15 -4 81 -1 146 2 65 1 124 -3 130 -4 6 -9 -56 -12 -139 l-6 -150 -2 198 -2 198 -50 -2 c-27 -2 -53 1 -57 6 -5 4 -3 5 4 1 8 -4 11 3 11 24 l-1 30 -179 0 -179 0 -24 -27 c-13 -16 -27 -40 -30 -55 -7 -30 -45 -41 -45 -13 0 13 -22 15 -140 15 -129 0 -141 -2 -138 -17 3 -17 -14 -18 -222 -19 -124 -1 -215 1 -202 3 20 4 22 10 22 59 l0 54 -70 0 -70 0 0 -41 c0 -40 11 -60 40 -72 8 -3 0 -6 -17 -6 -31 -1 -32 -2 -23 -27 6 -14 10 -72 10 -130 0 -86 -3 -104 -15 -104 -23 0 -21 -118 2 -135 9 -7 14 -19 10 -29 -9 -24 -26 -20 -37 10 -7 17 -14 23 -22 17 -7 -4 -22 -9 -32 -10 -33 -5 -31 -13 2 -13 33 0 43 -14 17 -24 -8 -3 -15 -13 -15 -21 0 -12 -6 -15 -20 -10 -19 6 -20 3 -15 -39 l6 -46 -36 0 c-19 0 -35 5 -35 10 0 6 -20 10 -46 10 l-45 0 3 -47 c3 -43 5 -47 32 -50 16 -2 46 3 67 11 21 9 45 13 54 10 9 -4 19 2 25 17 9 21 10 20 5 -10 -3 -18 -5 -53 -5 -77 l0 -44 -40 0 c-56 0 -50 -17 8 -22 68 -6 72 -3 72 56 0 48 2 52 30 63 19 7 28 16 25 25 -4 9 3 14 22 16 15 1 31 9 36 17 4 8 15 15 22 15 8 0 15 9 15 20 0 19 7 20 114 20 114 0 156 -12 94 -26 -31 -6 -32 -7 -10 -15 25 -9 30 -39 7 -39 -18 0 -20 16 -2 23 6 3 3 6 -8 6 -11 1 -38 8 -61 16 -36 12 -48 12 -101 -2 -49 -14 -61 -21 -61 -37 0 -12 -4 -42 -8 -68 -8 -56 8 -87 59 -118 l32 -20 -212 0 -213 0 0 -30 0 -30 2180 0 2180 0 0 30 0 30 -226 0 -227 0 26 20 c14 11 39 20 56 20 30 0 41 13 21 25 -5 3 -10 15 -10 26 0 11 5 17 10 14 18 -11 24 27 7 40 -22 16 -22 59 0 76 13 11 17 11 20 2 3 -7 11 -13 18 -13 9 0 15 16 18 48 3 39 4 36 5 -20 2 -65 3 -67 30 -70 26 -3 27 -6 30 -67 3 -60 4 -63 25 -57 12 3 37 6 55 6 45 0 40 18 -5 22 l-38 3 -2 65 c-1 36 0 60 3 53 3 -7 18 -9 41 -6 27 5 38 2 45 -10 6 -11 22 -17 48 -17 l40 0 0 50 0 50 -45 0 c-31 0 -45 -4 -45 -13 0 -9 -10 -12 -30 -9 -17 2 -30 10 -30 18 0 20 -18 17 -23 -3 -3 -10 -5 1 -6 25 0 23 4 42 9 42 6 0 10 -10 11 -22 0 -22 1 -22 8 -3 11 27 3 45 -20 45 -11 0 -19 7 -19 16 0 9 -5 12 -12 8 -6 -4 -8 -3 -5 3 3 5 0 21 -8 36 -7 14 -11 28 -7 31 7 7 -17 9 -89 6 -62 -2 -96 18 -83 49 4 9 10 39 14 66 4 28 8 44 9 38 0 -7 8 -13 16 -13 11 0 15 11 15 39 0 51 -8 71 -26 64 -11 -4 -14 5 -14 40 0 25 -4 49 -10 52 -19 12 -10 24 22 33 32 8 32 9 36 78 3 84 -5 144 -19 123 -7 -12 -9 -11 -9 3 0 9 -7 24 -16 32 -9 9 -13 24 -9 35 3 12 0 21 -11 25 -24 9 -34 -2 -34 -40 0 -24 -5 -34 -15 -34 -12 0 -15 -16 -15 -83 0 -93 -13 -117 -62 -117 -25 0 -25 1 -27 84 -2 81 0 87 32 133 18 26 45 69 60 94 l26 46 -32 45 c-57 79 -54 78 -168 78 -56 0 -100 -2 -97 -5z m-1759 -282 c-23 -2 -64 -2 -90 0 -26 2 -7 3 42 3 50 0 71 -1 48 -3z m100 0 c-7 -2 -19 -2 -25 0 -7 3 -2 5 12 5 14 0 19 -2 13 -5z m105 0 c-15 -2 -42 -2 -60 0 -18 2 -6 4 27 4 33 0 48 -2 33 -4z m65 0 c-7 -2 -19 -2 -25 0 -7 3 -2 5 12 5 14 0 19 -2 13 -5z m60 0 c-7 -2 -21 -2 -30 0 -10 3 -4 5 12 5 17 0 24 -2 18 -5z m-155 -75 c7 -7 12 -42 12 -86 0 -64 -3 -76 -22 -93 -19 -15 -33 -17 -88 -12 -36 3 -71 10 -77 16 -17 13 -18 158 -1 175 7 7 42 12 88 12 46 0 81 -5 88 -12z m178 -14 c-3 -9 -6 -22 -6 -30 0 -11 -16 -14 -65 -14 l-65 0 0 30 0 30 71 0 c61 0 70 -2 65 -16z m164 -8 c0 -16 -27 -29 -41 -20 -19 11 -9 34 16 34 15 0 25 -6 25 -14z m429 -7 c-10 -20 -17 -21 -78 -15 -36 3 -112 6 -168 6 -85 0 -103 3 -103 15 0 13 27 15 180 15 l181 0 -12 -21z m-409 -96 c-30 -3 -58 -10 -62 -16 -5 -8 -8 -8 -8 -1 0 20 13 24 69 22 l56 -2 -55 -3z m515 -65 l70 -73 -70 67 -70 68 -195 3 -195 2 195 3 196 2 69 -72z m542 -90 c-2 -29 -3 -8 -3 47 0 55 1 79 3 53 2 -26 2 -71 0 -100z m-1644 -220 c8 -5 7 -8 -5 -8 -17 0 -18 14 -16 173 l2 172 3 -165 c3 -116 7 -166 16 -172z m462 312 c-3 -5 -12 -10 -18 -10 -7 0 -6 4 3 10 19 12 23 12 15 0z m-28 -55 c-7 -13 -14 -20 -15 -14 -2 5 2 16 8 24 18 21 20 18 7 -10z m236 -30 c-3 -9 -8 -14 -10 -11 -3 3 -2 9 2 15 9 16 15 13 8 -4z m571 -44 c-2 -3 -12 3 -22 13 -16 17 -16 18 5 5 12 -7 20 -15 17 -18z m-577 -23 c-3 -8 -6 -5 -6 6 -1 11 2 17 5 13 3 -3 4 -12 1 -19z m-240 -130 c-2 -18 -4 -6 -4 27 0 33 2 48 4 33 2 -15 2 -42 0 -60z m248 72 c3 -5 1 -10 -4 -10 -6 0 -11 5 -11 10 0 6 2 10 4 10 3 0 8 -4 11 -10z m-2208 -97 c-2 -16 -4 -5 -4 22 0 28 2 40 4 28 2 -13 2 -35 0 -50z m3354 9 c-7 -2 -18 1 -23 6 -8 8 -4 9 13 5 13 -4 18 -8 10 -11z m-1984 -59 c-3 -10 -5 -2 -5 17 0 19 2 27 5 18 2 -10 2 -26 0 -35z m133 27 c0 -5 -2 -10 -4 -10 -3 0 -8 5 -11 10 -3 6 -1 10 4 10 6 0 11 -4 11 -10z m1207 -32 c-3 -7 -5 -2 -5 12 0 14 2 19 5 13 2 -7 2 -19 0 -25z m1116 25 c-7 -2 -19 -2 -25 0 -7 3 -2 5 12 5 14 0 19 -2 13 -5z m-1030 -30 c-13 -2 -33 -2 -45 0 -13 2 -3 4 22 4 25 0 35 -2 23 -4z m64 1 c-3 -3 -12 -4 -19 -1 -8 3 -5 6 6 6 11 1 17 -2 13 -5z m-1490 -36 c-3 -8 -6 -5 -6 6 -1 11 2 17 5 13 3 -3 4 -12 1 -19z m1240 -10 c-3 -8 -6 -5 -6 6 -1 11 2 17 5 13 3 -3 4 -12 1 -19z m-560 6 c-3 -3 -12 -4 -19 -1 -8 3 -5 6 6 6 11 1 17 -2 13 -5z m-614 -11 c-7 -2 -21 -2 -30 0 -10 3 -4 5 12 5 17 0 24 -2 18 -5z m-1436 -95 c-2 -18 -4 -4 -4 32 0 36 2 50 4 33 2 -18 2 -48 0 -65z m-87 32 c0 -16 -4 -30 -10 -30 -5 0 -10 14 -10 30 0 17 5 30 10 30 6 0 10 -13 10 -30z m2055 -108 c-3 -4 -16 0 -28 8 -12 7 -69 33 -127 57 -58 23 -100 43 -94 43 7 0 57 -18 112 -40 55 -22 107 -37 116 -34 11 4 17 20 18 53 1 37 3 34 5 -18 2 -35 1 -66 -2 -69z m-275 108 c-5 -3 38 -25 96 -49 95 -40 104 -46 103 -70 0 -14 -3 -20 -6 -13 -3 9 -42 12 -144 12 -117 0 -139 2 -139 15 0 8 -9 15 -20 15 -11 0 -20 -4 -20 -9 0 -4 -11 -6 -24 -4 -20 4 -24 12 -29 51 -3 26 -3 51 0 55 3 4 47 7 98 5 52 -1 90 -5 85 -8z m1632 -2 c-9 -9 -48 -14 -110 -15 -53 -1 -115 -4 -137 -6 l-40 -4 3 -42 c3 -31 0 -41 -12 -41 -8 0 -18 5 -21 10 -10 16 -55 12 -55 -5 0 -14 -20 -16 -145 -14 -80 0 -145 5 -145 9 0 4 54 30 121 56 67 27 116 50 110 52 -7 2 -58 -15 -116 -38 -57 -23 -116 -43 -131 -45 -16 -1 -30 -8 -32 -14 -2 -6 -11 -11 -19 -11 -13 0 -15 9 -10 45 2 26 8 49 11 53 12 11 162 18 456 20 229 2 282 0 272 -10z m392 -4 c10 -25 8 -26 -36 -19 -24 4 -87 7 -140 6 -57 -1 -98 2 -98 8 0 5 -8 12 -17 14 -10 3 50 5 133 6 130 1 153 -1 158 -15z m-3042 0 c10 -3 15 -11 11 -20 -3 -9 2 -14 15 -14 12 0 24 -4 27 -10 3 -5 26 -10 50 -10 24 0 47 5 50 10 3 6 12 10 19 10 13 0 13 -7 1 -100 -7 -54 7 -86 54 -117 l34 -23 -159 1 c-108 0 -152 3 -136 10 13 5 21 13 18 18 -3 5 2 15 12 22 15 13 16 12 3 -3 -7 -10 -9 -18 -3 -18 34 0 55 106 31 153 -9 16 -9 22 0 25 17 6 13 21 -6 21 -10 -1 -37 6 -60 15 -38 14 -48 14 -85 1 -54 -18 -58 -18 -58 0 0 9 -9 15 -24 15 -14 0 -27 4 -31 10 -6 9 204 13 237 4z m452 -4 c-5 -5 -22 -10 -39 -12 -19 -2 -29 -8 -27 -17 2 -10 -2 -11 -15 -5 -22 11 -120 10 -150 0 -19 -7 -23 -5 -23 12 0 11 6 23 13 25 21 9 250 6 241 -3z m236 -4 c0 -8 -7 -17 -16 -20 -24 -9 -54 -7 -54 4 0 6 -13 10 -29 10 -17 0 -33 5 -36 10 -4 6 20 10 64 10 54 0 71 -3 71 -14z m130 4 c0 -5 -22 -10 -50 -10 -27 0 -50 5 -50 10 0 6 23 10 50 10 28 0 50 -4 50 -10z m-343 -26 c-3 -3 -12 -4 -19 -1 -8 3 -5 6 6 6 11 1 17 -2 13 -5z m-47 -34 c0 -13 -5 -18 -15 -14 -8 4 -15 12 -15 20 0 8 7 14 15 14 8 0 15 -9 15 -20z m178 2 c2 -7 -3 -12 -12 -12 -9 0 -16 7 -16 16 0 17 22 14 28 -4z m-793 -2 c3 -5 -3 -10 -14 -10 -12 0 -21 5 -21 10 0 6 6 10 14 10 8 0 18 -4 21 -10z m2816 -3 c-1 -4 -1 -15 -1 -24 0 -15 -2 -16 -10 -3 -13 20 -13 43 1 38 6 -2 10 -7 10 -11z m179 1 c0 -7 -9 -23 -18 -36 l-18 -24 2 34 c2 40 1 38 19 38 8 0 15 -6 15 -12z m-1390 -2 c0 -2 -9 -6 -20 -9 -11 -3 -18 -1 -14 4 5 9 34 13 34 5z m-1780 -36 c-8 -5 -19 -10 -25 -10 -5 0 -3 5 5 10 8 5 20 10 25 10 6 0 3 -5 -5 -10z m188 -9 c-26 -57 -45 -91 -51 -91 -5 0 3 20 17 45 l27 45 -31 0 c-16 0 -30 4 -30 8 0 4 16 6 35 4 20 -2 35 -7 33 -11z m-228 -1 c0 -5 -5 -10 -11 -10 -5 0 -7 5 -4 10 3 6 8 10 11 10 2 0 4 -4 4 -10z m835 0 c-4 -6 -15 -8 -26 -5 -22 7 -23 2 -9 -26 6 -10 8 -19 6 -19 -10 0 -27 41 -21 50 3 6 17 10 31 10 15 0 23 -4 19 -10z m168 -32 c-10 -17 -25 -34 -32 -36 -8 -3 -5 5 7 18 12 13 22 30 22 37 0 7 5 13 11 13 6 0 3 -13 -8 -32z m-964 -23 c0 -5 -6 -1 -14 9 -8 11 -15 24 -15 30 0 5 7 1 15 -10 8 -10 14 -23 14 -29z m1248 23 c-3 -8 -6 -5 -6 6 -1 11 2 17 5 13 3 -3 4 -12 1 -19z m-452 -14 c9 -15 12 -23 6 -20 -11 7 -35 46 -28 46 3 0 12 -12 22 -26z m785 -19 c0 -8 9 -15 20 -15 11 0 23 7 26 15 9 23 44 19 44 -6 0 -18 5 -20 53 -17 28 1 55 7 59 13 5 6 8 5 8 -2 0 -18 27 -16 34 2 3 9 19 15 41 15 24 0 35 -4 35 -15 0 -22 69 -20 86 3 13 16 14 16 8 0 -4 -12 -1 -18 10 -18 9 0 16 7 16 15 0 9 9 15 25 15 16 0 25 -6 25 -15 0 -17 35 -20 46 -4 5 8 8 8 14 0 9 -15 38 -4 43 17 3 12 5 10 6 -5 1 -19 7 -23 36 -23 28 0 35 4 35 20 0 24 45 29 53 6 6 -15 47 -11 47 5 0 5 64 9 141 9 123 0 143 -2 155 -17 11 -15 16 -16 33 -5 28 16 51 15 51 -3 0 -8 -4 -15 -10 -15 -5 0 -10 -7 -10 -15 0 -10 10 -15 28 -15 15 0 36 -6 47 -14 11 -7 29 -16 40 -19 11 -2 -374 -5 -855 -5 -481 0 -867 3 -857 7 10 4 19 11 19 16 0 16 19 35 29 30 4 -3 13 4 20 16 10 19 17 21 60 16 39 -5 49 -3 49 8 0 13 25 15 145 15 122 0 145 -2 145 -15z m-792 -20 c-3 -3 -9 2 -12 12 -6 14 -5 15 5 6 7 -7 10 -15 7 -18z m1319 19 c-3 -3 -12 -4 -19 -1 -8 3 -5 6 6 6 11 1 17 -2 13 -5z m-2082 -14 c3 -5 1 -10 -4 -10 -6 0 -11 5 -11 10 0 6 2 10 4 10 3 0 8 -4 11 -10z m932 -6 c-3 -3 -12 -4 -19 -1 -8 3 -5 6 6 6 11 1 17 -2 13 -5z m-757 -39 c7 -8 27 -19 44 -24 21 -6 -27 -9 -157 -10 l-188 -1 28 25 c26 23 35 24 144 25 92 0 119 -3 129 -15z m786 4 c3 -6 20 -17 38 -25 28 -12 11 -13 -154 -13 -178 0 -184 0 -157 17 15 9 27 20 27 24 0 13 238 10 246 -3z m2226 -18 l33 -21 -185 1 c-178 0 -184 0 -155 16 41 23 95 31 192 28 64 -2 90 -8 115 -24z"/>
<path d="M6615 440 c-3 -5 -1 -10 4 -10 6 0 11 5 11 10 0 6 -2 10 -4 10 -3 0 -8 -4 -11 -10z"/>
<path d="M7670 1550 c-13 -9 -13 -10 0 -9 8 1 26 5 40 9 l25 8 -25 1 c-14 0 -32 -4 -40 -9z"/>
<path d="M5112 915 c0 -16 2 -22 5 -12 2 9 2 23 0 30 -3 6 -5 -1 -5 -18z"/>
<path d="M9030 798 c0 -13 7 -18 28 -17 21 1 22 2 7 6 -11 3 -23 10 -27 17 -5 7 -8 5 -8 -6z"/>
<path d="M5697 253 c-4 -3 -7 -48 -7 -100 0 -76 3 -93 15 -93 11 0 15 12 15 51 0 43 3 50 16 45 9 -3 24 -6 35 -6 16 0 19 -7 19 -45 0 -25 5 -45 10 -45 6 0 10 40 10 100 0 60 -4 100 -10 100 -5 0 -10 -18 -10 -40 0 -39 -1 -40 -35 -40 -34 0 -35 1 -35 40 0 38 -8 49 -23 33z"/>
<path d="M5970 245 c0 -8 5 -15 10 -15 6 0 10 7 10 15 0 8 -4 15 -10 15 -5 0 -10 -7 -10 -15z"/>
<path d="M6140 160 c0 -60 4 -100 10 -100 6 0 10 40 10 100 0 60 -4 100 -10 100 -6 0 -10 -40 -10 -100z"/>
<path d="M6479 244 c-21 -25 -24 -129 -5 -159 14 -22 23 -25 66 -23 l50 2 0 48 0 48 -36 0 c-21 0 -33 -4 -29 -10 3 -5 15 -10 26 -10 21 0 24 -12 9 -41 -12 -21 -40 -25 -58 -7 -7 7 -12 37 -12 68 0 31 5 61 12 68 19 19 49 14 55 -8 3 -11 12 -20 19 -20 18 0 18 10 -2 38 -18 26 -75 30 -95 6z"/>
<path d="M7140 230 c0 -27 -2 -30 -25 -24 -39 10 -55 -11 -55 -70 0 -62 11 -76 62 -76 l38 0 0 100 c0 60 -4 100 -10 100 -5 0 -10 -14 -10 -30z m-12 -52 c17 -17 15 -74 -4 -93 -22 -22 -44 -2 -44 40 0 60 20 81 48 53z"/>
<path d="M7260 160 l0 -100 49 0 c62 0 77 18 19 22 l-43 3 -3 88 c-4 121 -22 111 -22 -13z"/>
<path d="M8170 245 c0 -8 5 -15 10 -15 6 0 10 7 10 15 0 8 -4 15 -10 15 -5 0 -10 -7 -10 -15z"/>
<path d="M8100 231 c0 -11 -6 -22 -12 -24 -10 -4 -10 -7 -1 -14 6 -5 13 -35 15 -68 3 -53 5 -60 26 -63 12 -2 22 1 22 7 0 6 -7 11 -15 11 -12 0 -15 13 -15 55 0 46 3 55 18 55 16 1 16 1 0 14 -10 7 -18 21 -18 30 0 9 -4 16 -10 16 -5 0 -10 -9 -10 -19z"/>
<path d="M5854 185 c-19 -29 -14 -102 8 -117 20 -13 60 -5 72 14 15 24 -1 36 -18 13 -16 -23 -46 -13 -46 15 0 16 6 20 35 20 29 0 35 4 35 21 0 59 -55 81 -86 34z m56 1 c0 -2 3 -11 6 -20 5 -12 0 -16 -20 -16 -24 0 -35 18 -19 33 7 8 33 10 33 3z"/>
<path d="M5970 135 c0 -43 4 -75 10 -75 6 0 10 32 10 75 0 43 -4 75 -10 75 -6 0 -10 -32 -10 -75z"/>
<path d="M6030 195 c-19 -23 -8 -49 28 -64 19 -9 32 -22 32 -33 0 -21 -30 -24 -48 -6 -15 15 -26 4 -18 -17 4 -12 16 -15 43 -13 35 3 38 6 41 36 3 29 -1 34 -32 47 -20 9 -36 20 -36 25 0 17 29 23 45 10 20 -17 32 -5 15 15 -16 19 -54 19 -70 0z"/>
<path d="M6206 188 c-19 -27 -21 -88 -3 -112 16 -22 65 -18 81 6 15 24 -3 37 -19 14 -17 -23 -45 -14 -45 14 0 16 6 20 35 20 29 0 35 4 35 21 0 56 -54 80 -84 37z m54 -18 c0 -13 -7 -20 -20 -20 -19 0 -27 20 -13 33 13 14 33 6 33 -13z"/>
<path d="M6320 133 c0 -42 4 -73 10 -73 6 0 10 25 10 55 0 44 4 57 20 67 28 18 25 27 -10 26 l-30 -1 0 -74z"/>
<path d="M6631 196 c-16 -19 -16 -102 -1 -121 17 -20 59 -16 74 7 15 24 -1 36 -18 13 -16 -23 -46 -13 -46 15 0 16 6 20 35 20 32 0 35 3 35 28 0 15 -5 33 -12 40 -16 16 -53 15 -67 -2z m49 -10 c0 -2 3 -11 6 -20 5 -12 0 -16 -20 -16 -28 0 -29 1 -20 24 5 14 34 24 34 12z"/>
<path d="M6753 203 c-7 -2 -13 -14 -13 -25 0 -20 1 -20 18 -5 25 23 42 21 42 -3 0 -13 -9 -22 -25 -26 -30 -7 -49 -37 -40 -64 5 -16 15 -19 56 -18 47 1 57 6 42 22 -4 4 -6 24 -4 46 4 65 -25 94 -76 73z m45 -95 c-4 -29 -38 -38 -38 -10 0 22 8 32 27 32 9 0 13 -8 11 -22z"/>
<path d="M6860 133 c0 -42 4 -73 10 -73 6 0 10 24 10 54 0 48 3 57 27 74 l28 20 -38 -1 -37 -1 0 -73z"/>
<path d="M6956 194 c-19 -19 -22 -104 -4 -122 20 -20 66 -15 73 9 9 28 -2 37 -19 14 -16 -23 -46 -13 -46 15 0 16 6 20 35 20 32 0 35 3 35 28 0 49 -42 69 -74 36z m52 -27 c3 -12 -3 -17 -22 -17 -28 0 -29 1 -20 25 8 20 38 15 42 -8z"/>
<path d="M7396 188 c-18 -26 -21 -80 -6 -109 8 -13 21 -19 46 -19 28 0 36 5 44 26 23 60 0 124 -45 124 -13 0 -31 -10 -39 -22z m65 -25 c13 -35 -2 -78 -27 -78 -26 0 -41 46 -26 80 15 33 40 32 53 -2z"/>
<path d="M7526 188 c-19 -27 -21 -88 -3 -112 9 -12 23 -17 41 -14 30 3 56 31 42 45 -4 4 -12 0 -17 -10 -6 -9 -18 -17 -28 -17 -22 0 -32 39 -22 79 8 29 41 42 41 17 0 -9 7 -16 15 -16 18 0 18 5 5 31 -14 26 -55 24 -74 -3z"/>
<path d="M7647 192 c-19 -21 -22 -83 -7 -113 13 -24 62 -25 81 -2 17 20 17 97 -1 118 -17 20 -53 19 -73 -3z m58 -57 c0 -43 -3 -50 -20 -50 -27 0 -42 46 -27 80 8 17 19 25 30 23 13 -3 17 -14 17 -53z"/>
<path d="M7763 194 c-9 -23 2 -127 14 -131 8 -3 13 15 15 59 3 55 5 63 23 63 18 0 20 -8 23 -62 4 -81 20 -81 24 0 3 54 5 62 23 62 18 0 20 -8 23 -62 2 -35 7 -63 13 -63 6 0 9 29 7 73 l-3 72 -79 0 c-49 0 -80 -4 -83 -11z"/>
<path d="M7977 192 c-19 -21 -22 -83 -7 -113 15 -27 64 -25 84 3 49 69 -23 170 -77 110z m58 -57 c0 -44 -3 -50 -22 -53 -18 -3 -23 3 -28 31 -8 41 9 80 33 75 13 -3 17 -14 17 -53z"/>
<path d="M8170 135 c0 -43 4 -75 10 -75 6 0 10 32 10 75 0 43 -4 75 -10 75 -6 0 -10 -32 -10 -75z"/>
<path d="M8218 205 c-9 -10 36 -145 49 -145 6 0 21 31 33 69 23 79 23 81 10 81 -12 0 -14 -5 -31 -70 l-12 -45 -14 50 c-15 52 -25 69 -35 60z"/>
<path d="M8352 198 c-7 -7 -12 -35 -12 -63 0 -58 12 -75 51 -75 19 0 30 6 34 21 9 28 -2 37 -19 14 -16 -23 -46 -13 -46 15 0 16 6 20 35 20 32 0 35 3 35 28 0 33 -16 52 -45 52 -12 0 -26 -5 -33 -12z m48 -12 c0 -2 3 -11 6 -20 5 -12 0 -16 -20 -16 -24 0 -35 18 -19 33 7 8 33 10 33 3z"/>
</g>
</svg>