<svg xmlns="http://www.w3.org/2000/svg" viewBox="-5.50 522.40 1103.50 248.00">
<g transform="translate(0.000000,768.000000) scale(0.100000,-0.100000)" fill="currentColor" stroke="none">
<path d="M1910 2280 c0 -53 4 -90 10 -90 6 0 10 18 10 40 0 38 2 40 30 40 28 0 30 -2 30 -40 0 -22 5 -40 10 -40 6 0 10 37 10 90 0 88 -16 126 -22 53 -3 -33 -7 -38 -30 -41 -27 -3 -28 -1 -28 37 0 23 -4 41 -10 41 -6 0 -10 -37 -10 -90z"/>
<path d="M2528 2346 c-15 -34 -5 -53 37 -73 19 -9 35 -23 35 -30 0 -20 -30 -28 -51 -15 -25 16 -38 -7 -14 -25 39 -28 85 -7 85 38 0 23 -7 34 -35 50 -19 12 -35 27 -35 35 0 20 30 30 40 14 4 -7 13 -9 19 -5 20 11 -8 35 -40 35 -21 0 -32 -7 -41 -24z"/>
<path d="M3170 2280 l0 -90 45 0 c33 0 45 4 45 15 0 10 -11 15 -35 15 l-35 0 0 75 c0 43 -4 75 -10 75 -6 0 -10 -37 -10 -90z"/>
<path d="M3970 2355 c0 -8 5 -15 10 -15 6 0 10 7 10 15 0 8 -4 15 -10 15 -5 0 -10 -7 -10 -15z"/>
<path d="M2648 2338 c-2 -13 -1 -50 2 -83 4 -46 9 -61 23 -63 10 -2 17 3 17 12 0 9 -4 16 -10 16 -15 0 -12 77 3 84 10 5 10 7 0 12 -7 3 -13 14 -13 25 0 26 -17 24 -22 -3z"/>
<path d="M3899 2338 c-6 -101 15 -168 43 -140 9 9 9 12 0 12 -16 0 -16 87 1 93 8 4 9 8 1 14 -6 4 -13 16 -17 26 -9 24 -27 21 -28 -5z"/>
<path d="M2052 2308 c-7 -7 -12 -31 -12 -55 0 -32 5 -45 20 -53 25 -14 60 -4 60 16 0 11 -4 12 -18 5 -13 -7 -23 -6 -30 1 -20 20 -13 28 23 28 38 0 40 5 25 44 -10 28 -47 35 -68 14z m48 -23 c0 -8 -9 -15 -20 -15 -20 0 -26 11 -13 23 12 13 33 7 33 -8z"/>
<path d="M2167 2313 c-15 -14 -6 -23 18 -17 18 4 25 2 25 -9 0 -8 -13 -17 -30 -20 -23 -5 -30 -12 -30 -31 0 -31 19 -46 55 -42 28 3 29 4 26 57 -1 30 -5 57 -7 61 -6 10 -48 10 -57 1z m43 -77 c0 -20 -19 -31 -32 -18 -6 6 -7 15 -4 21 10 16 36 13 36 -3z"/>
<path d="M2253 2313 c3 -5 12 -34 21 -65 9 -32 20 -58 24 -58 8 0 42 96 42 118 0 27 -20 9 -26 -23 -9 -50 -21 -52 -29 -5 -4 25 -12 40 -21 40 -9 0 -13 -3 -11 -7z"/>
<path d="M2371 2268 c23 -66 24 -94 3 -102 -15 -6 -11 -26 6 -26 14 0 27 29 49 109 14 50 16 71 8 68 -6 -2 -17 -21 -23 -43 l-11 -39 -12 43 c-7 23 -18 42 -25 42 -10 0 -9 -12 5 -52z"/>
<path d="M2720 2301 c-16 -31 -12 -76 10 -96 17 -15 24 -16 46 -7 31 15 24 31 -11 24 -18 -3 -25 0 -25 12 0 11 9 16 30 16 25 0 30 4 30 23 0 13 -5 28 -12 35 -18 18 -56 14 -68 -7z m58 -18 c2 -8 -6 -13 -22 -13 -19 0 -24 4 -19 15 6 18 34 16 41 -2z"/>
<path d="M2837 2313 c-14 -13 -6 -22 19 -20 36 3 43 -21 8 -25 -64 -7 -56 -72 10 -74 l36 -1 0 48 c0 26 -3 54 -6 63 -6 16 -54 22 -67 9z m53 -77 c0 -18 -30 -30 -43 -17 -5 5 -6 14 -3 20 10 16 46 13 46 -3z"/>
<path d="M2940 2253 c0 -76 18 -85 22 -10 2 38 7 52 18 52 11 0 16 -14 18 -52 4 -61 22 -72 22 -14 0 49 8 71 26 71 9 0 14 -17 16 -52 2 -29 7 -52 13 -51 14 3 17 66 6 96 -9 23 -14 25 -75 24 l-66 0 0 -64z"/>
<path d="M3292 2308 c-17 -17 -15 -84 4 -102 34 -34 74 -6 74 53 0 42 -14 61 -45 61 -12 0 -26 -5 -33 -12z m53 -28 c9 -27 -3 -60 -21 -60 -19 0 -28 24 -20 55 8 30 32 33 41 5z"/>
<path d="M3402 2308 c-17 -17 -15 -84 4 -102 20 -20 48 -20 64 -1 13 16 9 18 -27 16 -26 -3 -39 29 -23 59 8 15 17 19 37 14 19 -5 24 -3 21 7 -6 18 -60 23 -76 7z"/>
<path d="M3504 2309 c-12 -20 -5 -92 10 -107 12 -13 20 -13 41 -4 21 10 25 18 25 55 0 24 -5 48 -12 55 -15 15 -55 16 -64 1z m54 -52 c3 -32 0 -37 -17 -37 -17 0 -21 6 -21 33 0 61 33 63 38 4z"/>
<path d="M3610 2254 c0 -77 18 -86 22 -12 2 41 7 54 21 56 14 3 17 -4 17 -47 0 -27 5 -53 10 -56 6 -4 10 10 10 34 0 48 8 71 25 71 17 0 25 -23 25 -71 0 -24 4 -38 10 -34 14 9 12 101 -2 113 -7 5 -41 9 -75 9 l-63 0 0 -63z"/>
<path d="M3791 2301 c-33 -62 27 -147 68 -97 7 8 11 36 9 63 -3 46 -4 48 -35 51 -23 2 -34 -2 -42 -17z m57 -44 c3 -32 0 -37 -17 -37 -17 0 -21 6 -21 33 0 61 33 63 38 4z"/>
<path d="M3970 2255 c0 -37 4 -65 10 -65 6 0 10 28 10 65 0 37 -4 65 -10 65 -6 0 -10 -28 -10 -65z"/>
<path d="M4013 2313 c3 -5 12 -34 21 -65 9 -32 21 -58 26 -58 5 0 16 24 25 53 9 28 19 58 21 65 3 6 -1 12 -10 12 -9 0 -18 -13 -22 -35 -3 -19 -10 -35 -15 -35 -4 0 -11 16 -15 35 -4 21 -12 35 -21 35 -8 0 -12 -3 -10 -7z"/>
<path d="M4130 2301 c-34 -65 26 -149 70 -96 13 16 9 18 -26 16 -12 -1 -24 5 -27 13 -5 13 1 16 28 16 30 0 35 3 35 23 0 13 -5 28 -12 35 -18 18 -56 14 -68 -7z m58 -18 c2 -8 -5 -13 -17 -13 -12 0 -21 6 -21 16 0 18 31 15 38 -3z"/>
<path d="M5962 2060 c0 -14 2 -19 5 -12 2 6 2 18 0 25 -3 6 -5 1 -5 -13z"/>
<path d="M2975 1990 l-2980 -5 3720 0 c2046 0 3603 1 3460 2 -670 7 -1432 8 -4200 3z"/>
<path d="M4370 1909 c0 -11 -16 -23 -42 -34 -75 -29 -298 -138 -298 -144 0 -4 64 -38 143 -76 l142 -70 -85 -5 c-77 -5 -85 -7 -90 -28 l-5 -22 -1343 0 -1343 0 -57 33 -57 32 -264 3 -265 3 -73 -36 c-66 -33 -82 -36 -163 -38 -103 -2 -131 -18 -133 -78 l-2 -34 2415 0 2415 0 3 32 c2 24 -3 39 -22 58 l-26 26 -242 -1 -243 -1 -5 23 c-5 21 -12 23 -94 28 l-88 5 141 70 c78 38 141 72 141 76 0 3 -76 42 -170 87 -122 59 -168 85 -164 95 4 12 -8 14 -60 14 -55 -1 -66 -4 -66 -18z m87 -39 c6 -22 19 -27 25 -9 4 12 132 -40 248 -101 l55 -28 -120 -57 c-66 -31 -138 -65 -160 -75 -63 -28 -116 -20 -225 35 -52 26 -119 58 -147 71 -29 12 -53 25 -53 27 0 2 66 35 147 73 100 47 148 65 151 56 6 -18 19 -14 25 8 3 12 14 20 27 20 13 0 24 -8 27 -20z"/>
<path d="M5616 1294 c-3 -8 -6 -132 -6 -275 l0 -259 23 -5 c12 -3 65 -5 117 -3 l95 3 0 275 0 275 -111 3 c-95 2 -113 0 -118 -14z m155 -74 c17 -10 19 -22 19 -110 0 -88 -2 -100 -19 -110 -29 -15 -62 -12 -83 7 -25 23 -27 177 -1 205 18 20 54 23 84 8z"/>
<path d="M367 1384 c-4 -4 -7 -146 -7 -316 l0 -308 30 0 30 0 -2 313 c-3 305 -3 312 -23 315 -12 2 -24 0 -28 -4z"/>
<path d="M430 1040 l0 -350 2420 0 2420 0 0 350 0 350 -2420 0 -2420 0 0 -350z m360 270 c19 -19 20 -33 20 -282 0 -229 -2 -264 -17 -280 -14 -15 -32 -18 -120 -18 -57 0 -113 5 -124 10 -18 10 -19 24 -19 285 0 235 2 276 16 289 12 13 38 16 120 16 91 0 107 -3 124 -20z m4391 10 c18 -10 19 -24 19 -290 0 -266 -1 -280 -19 -290 -11 -5 -65 -10 -120 -10 -149 0 -141 -17 -141 302 0 317 -9 298 141 298 55 0 109 -5 120 -10z m-3553 -132 c16 -16 16 -170 0 -186 -8 -8 -64 -12 -184 -12 -204 0 -204 0 -204 108 0 106 -8 102 198 102 125 0 182 -4 190 -12z m510 0 c7 -7 12 -42 12 -87 0 -112 1 -111 -192 -111 -91 0 -168 4 -179 10 -17 9 -19 22 -19 99 0 48 3 91 7 94 12 13 358 8 371 -5z m512 -7 c5 -11 10 -50 10 -87 0 -104 0 -104 -200 -104 -116 0 -170 4 -178 12 -13 13 -17 179 -5 191 3 4 86 7 184 7 166 0 179 -1 189 -19z m508 -74 c2 -57 -1 -94 -9 -103 -18 -22 -341 -20 -363 2 -20 19 -23 163 -4 182 9 9 61 12 193 10 l180 -3 3 -88z m500 81 c7 -7 12 -43 12 -93 0 -50 -5 -86 -12 -93 -8 -8 -63 -12 -179 -12 -203 0 -199 -2 -199 109 0 46 5 82 12 89 17 17 349 17 366 0z m510 0 c7 -7 12 -44 12 -95 0 -71 -3 -84 -19 -93 -11 -6 -88 -10 -180 -10 -194 0 -191 -2 -191 109 0 46 5 82 12 89 17 17 349 17 366 0z m512 -7 c5 -11 10 -50 10 -87 0 -104 -1 -104 -192 -104 -91 0 -168 4 -179 10 -17 9 -19 22 -19 99 0 48 3 91 7 94 3 4 86 7 184 7 166 0 179 -1 189 -19z"/>
<path d="M557 1303 c-4 -3 -7 -127 -7 -274 l0 -269 23 -5 c12 -3 65 -5 117 -3 l95 3 3 255 c1 140 0 265 -3 278 -5 21 -10 22 -114 22 -59 0 -111 -3 -114 -7z m155 -90 c15 -13 18 -32 18 -103 0 -74 -3 -90 -20 -105 -23 -21 -84 -14 -94 11 -3 9 -6 53 -6 99 0 63 4 88 16 99 20 21 63 20 86 -1z"/>
<path d="M4946 1294 c-3 -9 -6 -129 -6 -268 0 -183 3 -255 12 -264 16 -16 210 -16 226 0 9 9 12 82 12 268 0 186 -3 259 -12 268 -8 8 -49 12 -119 12 -88 0 -108 -3 -113 -16z m164 -84 c17 -17 20 -33 20 -100 0 -91 -17 -120 -69 -120 -47 0 -61 30 -61 127 0 73 2 83 22 97 31 22 64 20 88 -4z"/>
<path d="M5290 1075 l0 -315 25 0 25 0 0 309 c0 323 0 321 -41 321 -5 0 -9 -130 -9 -315z"/>
<path d="M5373 1383 c-10 -4 -13 -76 -13 -314 l0 -309 25 0 25 0 -2 312 c-2 197 -7 312 -13 314 -5 1 -16 0 -22 -3z"/>
<path d="M5443 1383 c-10 -4 -13 -76 -13 -313 0 -322 0 -320 41 -320 5 0 9 132 9 320 0 329 0 329 -37 313z"/>
<path d="M5310 685 c0 -13 -278 -15 -2440 -15 l-2440 0 0 -61 c0 -99 0 -99 143 -99 l122 1 35 55 c19 31 47 62 62 70 36 18 139 18 185 -1 52 -22 288 -21 332 1 25 13 53 15 117 12 76 -4 87 -7 114 -33 16 -15 39 -52 52 -82 l22 -53 1237 0 1237 0 13 33 c20 49 55 98 86 118 36 24 184 26 223 4 36 -21 264 -21 313 0 46 19 147 19 192 1 24 -10 43 -31 65 -70 l32 -56 117 0 c78 0 121 4 129 12 7 7 12 29 12 50 0 34 3 38 25 38 14 0 25 -4 25 -10 0 -6 28 -10 65 -10 39 0 65 4 65 11 0 6 10 9 23 7 17 -2 23 -11 25 -38 6 -57 12 -60 148 -60 l124 0 20 38 c44 83 74 102 161 102 37 0 86 -7 109 -15 58 -20 284 -20 320 0 31 18 172 20 203 3 33 -17 75 -68 94 -115 l18 -43 1266 0 1266 0 14 42 c7 24 32 62 55 85 l41 43 87 0 c60 0 97 -5 118 -16 48 -25 271 -25 317 0 27 14 51 17 114 14 l80 -3 72 -78 c44 -45 76 -89 80 -107 l7 -30 245 0 245 0 -5 23 c-3 12 -8 32 -12 44 -5 16 -2 23 17 28 26 8 131 76 126 81 -2 2 -148 16 -323 31 l-320 27 -2367 3 c-2080 3 -2368 5 -2368 18 0 12 -15 15 -70 15 -56 0 -70 -3 -70 -15z"/>
<path d="M809 607 c-77 -52 -75 -165 5 -217 l39 -25 -292 -3 c-242 -2 -291 -5 -291 -16 0 -8 -3 -21 -6 -30 -6 -15 468 -16 5330 -16 l5336 0 0 30 0 30 -472 0 c-469 0 -473 0 -442 19 49 30 74 72 74 125 0 39 -6 52 -33 83 -30 31 -41 37 -90 41 -42 3 -63 0 -82 -12 -34 -22 -336 -23 -375 -1 -33 19 -104 19 -140 0 -38 -19 -63 -68 -63 -120 0 -48 22 -86 66 -114 l32 -21 -1450 1 c-1449 0 -1450 0 -1413 20 45 23 68 64 68 119 0 82 -49 130 -132 130 -24 0 -56 -7 -72 -15 -40 -21 -329 -21 -366 0 -29 17 -107 19 -144 5 -66 -25 -89 -142 -39 -201 15 -17 41 -38 58 -45 25 -11 -54 -13 -520 -13 -513 -1 -548 1 -517 16 86 42 105 159 37 223 -33 31 -118 39 -163 16 -43 -22 -322 -23 -375 -1 -133 55 -248 -53 -185 -174 14 -28 36 -51 58 -63 34 -17 -5 -18 -1388 -18 -782 0 -1422 2 -1422 4 0 2 16 13 35 25 70 41 82 135 26 201 -23 28 -35 34 -82 38 -39 3 -65 -1 -87 -12 -43 -22 -347 -23 -376 -1 -31 23 -107 19 -147 -8z m241 -87 c0 -47 -9 -51 -33 -11 -23 40 -21 51 8 51 23 0 25 -4 25 -40z m234 18 c-7 -26 -33 -58 -46 -58 -8 0 -9 57 -1 73 2 4 15 7 29 7 22 0 24 -3 18 -22z m3196 -16 c0 -51 -9 -58 -32 -25 -26 40 -23 63 7 63 22 0 25 -4 25 -38z m230 21 c0 -18 -37 -63 -52 -63 -5 0 -7 12 -4 28 2 15 5 33 5 40 1 19 51 15 51 -5z m1420 -28 c0 -25 -2 -45 -5 -45 -8 0 -45 64 -45 78 0 6 11 12 25 12 23 0 25 -4 25 -45z m230 23 c0 -22 -26 -58 -42 -58 -4 0 -8 18 -8 40 0 36 3 40 25 40 19 0 25 -5 25 -22z m3250 -18 c0 -46 -11 -51 -34 -15 -23 36 -20 55 9 55 23 0 25 -4 25 -40z m226 23 c-6 -31 -17 -51 -32 -57 -11 -4 -14 4 -14 34 0 36 3 40 25 40 18 0 24 -5 21 -17z m-8968 -70 c28 -22 51 -15 65 19 l13 33 56 -53 55 -52 93 0 93 0 46 50 c25 27 49 50 53 50 4 0 8 -10 10 -22 4 -29 50 -47 72 -28 9 7 16 25 16 41 0 16 5 29 10 29 14 0 12 -64 -2 -78 -19 -19 -79 -14 -104 9 l-22 20 -21 -27 c-20 -26 -21 -28 -4 -47 10 -11 32 -28 48 -38 30 -19 28 -19 -200 -19 -224 1 -229 1 -198 18 18 10 40 28 49 41 16 22 15 24 -11 50 -15 14 -29 22 -31 16 -12 -28 -25 -37 -57 -38 -44 -1 -67 17 -67 53 0 37 14 48 18 13 2 -15 11 -34 20 -40z m4012 31 c0 -29 -33 -64 -60 -64 -12 0 -32 11 -46 25 -24 24 -25 24 -44 5 -33 -33 -22 -61 36 -97 15 -9 -29 -12 -211 -12 -163 0 -223 3 -205 10 34 14 70 49 70 69 0 9 -9 25 -20 35 -19 17 -20 17 -37 -3 -43 -48 -113 -29 -112 31 l0 32 12 -35 c9 -27 18 -36 38 -38 27 -3 63 23 54 38 -3 5 -1 11 3 14 5 3 32 -17 59 -44 l51 -50 97 0 97 0 50 51 c49 51 63 53 70 14 4 -23 42 -32 64 -15 7 7 14 26 14 42 0 17 4 27 10 23 6 -3 10 -17 10 -31z m4520 -4 c0 -24 5 -31 27 -36 32 -8 57 6 61 35 2 11 7 21 11 21 4 0 29 -22 56 -50 l49 -50 96 0 96 0 48 50 c26 27 52 50 56 50 5 0 10 -12 12 -27 3 -25 7 -28 38 -28 31 0 36 4 46 34 8 26 12 30 17 17 13 -32 -27 -76 -68 -76 -9 0 -27 11 -40 24 -23 23 -24 24 -44 4 -34 -31 -27 -53 29 -87 l35 -21 -230 0 c-220 0 -229 1 -197 17 19 9 41 27 49 40 15 22 14 25 -7 48 -27 29 -40 32 -40 10 0 -15 -37 -35 -66 -35 -24 0 -54 38 -54 71 0 17 4 28 10 24 6 -3 10 -19 10 -35z m-3470 1 c0 -21 6 -32 20 -36 29 -9 60 4 60 25 0 35 16 30 68 -20 l50 -50 94 0 94 0 49 50 c27 28 53 50 57 50 4 0 8 -11 8 -24 0 -17 7 -26 26 -30 42 -11 64 1 64 35 0 16 5 29 10 29 18 0 11 -49 -10 -70 -31 -31 -100 -20 -100 15 0 8 -3 15 -7 15 -12 0 -53 -43 -53 -55 0 -16 39 -52 70 -64 18 -7 -43 -10 -210 -10 -219 -1 -233 0 -205 15 38 20 65 44 65 59 0 6 -11 21 -24 34 l-23 22 -15 -22 c-16 -25 -67 -30 -92 -9 -18 14 -22 70 -6 70 6 0 10 -13 10 -29z"/>
<path d="M4850 165 c0 -69 3 -85 15 -85 10 0 15 11 15 35 0 31 3 35 25 35 22 0 25 -4 25 -35 0 -24 5 -35 15 -35 12 0 15 16 15 85 0 69 -3 85 -15 85 -10 0 -15 -11 -15 -35 0 -31 -3 -35 -25 -35 -22 0 -25 4 -25 35 0 24 -5 35 -15 35 -12 0 -15 -16 -15 -85z"/>
<path d="M4990 240 c0 -5 5 -10 10 -10 6 0 10 5 10 10 0 6 -4 10 -10 10 -5 0 -10 -4 -10 -10z"/>
<path d="M5150 165 c0 -70 3 -85 16 -85 11 0 15 9 13 38 -3 54 -1 62 16 62 11 0 15 -12 15 -50 0 -38 4 -50 15 -50 11 0 15 12 15 49 0 55 -18 82 -50 74 -16 -4 -20 0 -20 21 0 14 -4 26 -10 26 -6 0 -10 -35 -10 -85z"/>
<path d="M5369 229 c-16 -31 3 -66 40 -74 22 -5 31 -12 31 -26 0 -25 -27 -36 -52 -20 -25 15 -35 7 -18 -14 15 -18 61 -20 78 -3 7 7 12 25 12 41 0 23 -7 31 -35 43 -36 15 -46 40 -20 50 8 4 22 1 30 -6 18 -15 30 -7 22 15 -10 24 -74 20 -88 -6z"/>
<path d="M5880 225 c0 -16 -4 -23 -14 -19 -21 8 -46 -24 -46 -61 0 -55 8 -65 51 -65 l39 0 0 85 c0 69 -3 85 -15 85 -9 0 -15 -9 -15 -25z m0 -85 c0 -29 -4 -40 -15 -40 -20 0 -29 23 -21 55 11 42 36 31 36 -15z"/>
<path d="M5990 165 l0 -85 50 0 c28 0 50 5 50 10 0 6 -16 10 -35 10 -30 0 -35 3 -35 24 0 19 6 25 25 28 14 2 26 8 26 13 0 6 -12 11 -26 13 -19 3 -25 9 -25 28 0 21 5 24 35 24 19 0 35 5 35 10 0 6 -22 10 -50 10 l-50 0 0 -85z"/>
<path d="M6110 165 c0 -50 4 -85 10 -85 6 0 10 23 10 51 0 54 14 59 25 9 10 -46 23 -45 44 2 l20 43 0 -52 c1 -29 6 -53 11 -53 6 0 10 35 10 85 0 51 -4 85 -10 85 -6 0 -21 -24 -33 -52 l-23 -53 -19 53 c-29 80 -45 68 -45 -33z"/>
<path d="M6270 177 c0 -43 5 -78 12 -85 15 -15 61 -15 76 0 15 15 17 158 2 158 -6 0 -10 -26 -10 -59 0 -72 -6 -91 -30 -91 -24 0 -30 19 -30 91 0 33 -4 59 -10 59 -6 0 -10 -31 -10 -73z"/>
<path d="M5052 198 c-17 -17 -15 -103 2 -117 7 -6 21 -8 31 -5 13 5 16 3 13 -7 -3 -9 -16 -13 -33 -11 -19 2 -26 -1 -23 -10 6 -18 46 -22 64 -8 20 17 20 160 0 160 -8 0 -20 2 -28 5 -7 3 -19 0 -26 -7z m43 -59 c0 -24 -5 -34 -15 -34 -16 0 -25 37 -16 62 10 26 31 8 31 -28z"/>
<path d="M5490 118 c0 -52 4 -88 10 -88 6 0 10 12 10 26 0 19 4 25 15 20 20 -7 55 28 55 57 0 44 -23 72 -58 72 l-32 0 0 -87z m60 21 c0 -33 -3 -40 -17 -37 -32 6 -30 78 2 78 11 0 15 -11 15 -41z"/>
<path d="M5617 192 c-20 -22 -22 -83 -5 -100 17 -17 68 -15 68 2 0 10 -9 14 -26 13 -40 -3 -42 21 -2 25 40 4 48 28 19 57 -26 26 -33 26 -54 3z m43 -27 c0 -8 -9 -15 -20 -15 -20 0 -26 11 -13 23 12 13 33 7 33 -8z"/>
<path d="M5727 192 c-20 -22 -22 -83 -5 -100 17 -17 53 -15 69 4 12 15 10 16 -17 10 -24 -5 -33 -3 -37 8 -5 13 1 16 28 16 30 0 35 3 35 23 0 24 -27 57 -47 57 -5 0 -17 -8 -26 -18z m51 -29 c2 -8 -5 -13 -17 -13 -21 0 -35 13 -24 24 10 10 36 3 41 -11z"/>
<path d="M4990 140 c0 -33 4 -60 10 -60 6 0 10 27 10 60 0 33 -4 60 -10 60 -6 0 -10 -27 -10 -60z"/>
<path d="M5265 140 c3 -5 22 -10 41 -10 19 0 34 5 34 10 0 6 -18 10 -41 10 -24 0 -38 -4 -34 -10z"/>
</g>
</svg>