<svg xmlns="http://www.w3.org/2000/svg" viewBox="23.00 597.10 446.00 173.50">
<g transform="translate(0.000000,768.000000) scale(0.100000,-0.100000)" fill="currentColor" stroke="none">
<path d="M1760 1613 c-22 -49 -26 -78 -10 -68 6 3 10 2 10 -4 0 -5 69 -52 153 -104 l152 -95 18 -79 c10 -43 20 -100 22 -128 l3 -50 -7 45 c-8 56 -17 70 -42 70 -16 0 -19 -5 -14 -22 5 -20 5 -21 -5 -5 -7 11 -18 16 -30 12 -10 -3 -21 -2 -24 3 -3 6 0 10 7 9 35 -1 47 5 47 23 0 20 -7 20 -705 20 -698 0 -705 0 -705 -20 0 -14 7 -20 21 -20 15 0 19 -4 15 -16 -3 -9 -6 -117 -6 -240 l0 -224 -47 0 c-96 0 -93 -4 -93 131 0 97 3 119 14 119 8 0 18 5 21 10 4 6 -15 10 -50 10 -35 0 -54 -4 -50 -10 3 -5 15 -10 26 -10 18 0 19 -8 19 -119 0 -96 -3 -120 -15 -125 -9 -3 -15 -18 -15 -36 l0 -30 80 0 c70 0 80 -2 79 -17 0 -11 -3 -13 -6 -5 -5 14 -143 18 -143 3 0 -5 -10 -12 -23 -16 -42 -14 -67 -16 -67 -5 0 5 -22 10 -50 10 l-50 0 0 -40 0 -40 50 0 c39 0 53 4 62 20 7 11 16 20 20 20 4 0 -10 -28 -31 -63 -29 -47 -46 -65 -72 -74 -26 -8 -30 -13 -17 -18 26 -11 77 23 96 63 9 20 20 39 25 40 4 2 7 11 8 20 0 11 2 12 6 5 2 -7 17 -13 33 -13 22 0 29 -5 32 -22 3 -21 10 -23 63 -26 62 -3 90 13 78 44 -3 9 2 14 16 14 12 0 24 0 29 0 4 1 21 14 37 30 17 17 46 32 65 35 29 4 31 3 10 -4 -20 -7 -14 -9 30 -9 47 0 51 2 25 9 -25 6 -23 7 10 2 80 -11 337 -14 349 -4 7 6 70 11 142 12 l129 1 199 -96 c197 -95 226 -106 226 -85 0 5 -6 7 -12 3 -8 -4 -10 -3 -5 2 5 5 13 10 18 10 5 1 11 2 14 3 3 0 -3 11 -14 23 l-20 21 -21 -24 c-12 -13 -3 4 20 39 22 34 43 62 46 62 3 0 -4 -13 -15 -29 -25 -34 -26 -41 -7 -41 8 0 28 25 45 55 18 31 36 53 41 50 6 -3 10 1 10 9 0 14 -71 16 -679 16 -639 0 -680 -1 -684 -18 -4 -13 -5 -11 -6 6 l-1 22 760 0 c584 0 760 3 760 12 0 9 3 9 12 0 9 -9 88 -12 294 -12 l283 0 4 43 4 42 1 -42 2 -43 760 0 760 0 0 -80 0 -80 70 0 70 0 2 68 c1 48 3 55 5 25 4 -41 5 -43 38 -43 31 0 37 -5 59 -49 26 -51 41 -61 84 -61 27 1 27 1 -5 15 -20 9 -44 33 -64 65 -23 37 -36 50 -48 45 -13 -5 -13 -4 -4 6 10 10 16 9 31 -4 12 -11 36 -17 65 -17 l47 0 0 40 0 40 -49 0 c-28 0 -53 -4 -56 -10 -8 -13 -45 -13 -45 0 0 6 -9 10 -21 10 -11 0 -17 5 -14 10 3 6 -5 10 -19 10 -13 0 -27 -6 -29 -12 -4 -10 -6 -10 -6 0 -1 8 -17 12 -46 12 -41 0 -45 -2 -45 -25 0 -23 4 -25 44 -25 26 0 46 5 49 13 3 7 6 5 6 -5 1 -15 -8 -18 -49 -18 -43 0 -50 -3 -50 -20 0 -17 7 -20 50 -20 38 0 50 -4 50 -15 0 -12 -13 -15 -55 -15 l-55 0 0 70 0 70 80 0 80 0 0 35 c0 23 -4 34 -12 33 -10 -2 -14 30 -16 130 -1 74 -7 132 -12 132 -5 0 -11 -58 -12 -132 l-3 -133 -67 -3 -67 -3 -3 241 c-3 223 -2 240 15 240 10 0 17 8 17 20 0 20 -7 20 -705 20 -685 0 -705 -1 -705 -19 0 -12 -9 -21 -25 -25 -14 -4 -25 -14 -25 -23 0 -9 -2 -14 -5 -11 -3 3 1 38 10 77 8 40 13 77 9 82 -3 5 0 9 5 9 7 0 11 26 11 65 l0 65 -352 0 c-194 0 -358 4 -365 8 -6 4 157 6 363 4 331 -2 374 -1 374 13 0 13 -42 15 -347 15 l-348 0 -150 59 c-82 32 -173 68 -202 80 l-52 20 -21 -46z m25 -23 c-9 -16 -18 -30 -21 -30 -2 0 2 14 11 30 9 17 18 30 21 30 2 0 -2 -13 -11 -30z m75 4 c23 -9 39 -18 37 -20 -2 -3 -24 4 -48 15 -54 24 -45 27 11 5z m80 -34 c8 -5 11 -10 5 -10 -5 0 -17 5 -25 10 -8 5 -10 10 -5 10 6 0 17 -5 25 -10z m60 -25 c14 -8 21 -14 15 -14 -5 0 -21 6 -35 14 -14 8 -20 14 -15 14 6 0 21 -6 35 -14z m60 -25 c8 -5 11 -10 5 -10 -5 0 -17 5 -25 10 -8 5 -10 10 -5 10 6 0 17 -5 25 -10z m50 -20 c8 -5 11 -10 5 -10 -5 0 -17 5 -25 10 -8 5 -10 10 -5 10 6 0 17 -5 25 -10z m-1059 -303 c-7 -7 -11 -96 -11 -249 0 -204 2 -238 15 -238 12 0 15 37 18 248 l2 247 3 -253 2 -253 -22 3 c-21 3 -23 9 -26 64 -3 58 -4 62 -30 67 -15 3 -89 3 -164 0 l-137 -5 -3 145 -3 145 65 -46 c36 -26 102 -74 146 -109 71 -54 81 -66 77 -88 -3 -15 -1 -25 6 -25 6 0 11 7 11 16 0 10 6 14 15 10 13 -5 15 17 15 159 l0 164 -117 4 -118 3 133 1 c93 0 130 -3 123 -10z m217 6 c-32 -2 -86 -2 -120 0 -35 2 -9 3 57 3 66 0 94 -1 63 -3z m102 -8 c-4 -5 -10 -19 -13 -30 -4 -16 -5 -14 -6 7 0 14 -7 28 -13 31 -7 2 -1 4 14 3 16 -1 23 -5 18 -11z m248 8 c-15 -2 -42 -2 -60 0 -18 2 -6 4 27 4 33 0 48 -2 33 -4z m100 -13 c3 -13 2 -13 -7 0 -10 13 -13 12 -26 -4 -12 -16 -15 -17 -15 -4 0 9 -6 18 -12 21 -7 2 2 4 21 3 21 -1 36 -7 39 -16z m165 13 c-29 -2 -77 -2 -105 0 -29 2 -6 3 52 3 58 0 81 -1 53 -3z m1011 -7 c-10 -8 -21 -12 -24 -10 -5 6 21 24 34 24 6 0 1 -6 -10 -14z m991 -241 c0 -243 -1 -250 -20 -250 -19 0 -20 8 -23 248 l-2 247 -135 0 -135 0 -1 -27 -2 -28 -4 28 c-2 15 -11 27 -19 27 -8 0 -15 -11 -15 -27 l-2 -28 -4 28 -4 27 -135 0 -134 0 -1 -27 -1 -28 -7 25 c-7 24 -10 25 -111 28 -234 6 -100 10 315 9 l440 -2 0 -250z m258 248 c-40 -2 -106 -2 -145 0 -40 1 -8 3 72 3 80 0 112 -2 73 -3z m-1216 -25 c-3 -8 -6 -5 -6 6 -1 11 2 17 5 13 3 -3 4 -12 1 -19z m-110 -80 c-2 -13 -4 -3 -4 22 0 25 2 35 4 23 2 -13 2 -33 0 -45z m750 -230 c-1 -51 -3 -10 -3 92 0 102 2 143 3 93 2 -51 2 -135 0 -185z m-640 155 c-2 -21 -4 -4 -4 37 0 41 2 58 4 38 2 -21 2 -55 0 -75z m621 -316 c12 -3 11 -5 -5 -6 l-23 -1 2 218 3 217 2 -212 c3 -191 5 -212 21 -216z m670 216 c-3 -179 -4 -188 -23 -191 -19 -4 -19 -3 -1 10 31 24 15 43 -35 40 -38 -3 -45 0 -54 20 -5 13 -17 24 -25 26 -26 5 -13 -77 14 -88 17 -6 14 -8 -15 -7 l-36 2 5 48 c4 41 2 47 -14 48 -18 0 -18 1 1 10 15 6 7 8 -29 6 -46 -2 -51 0 -57 23 -7 24 -7 24 -8 3 -1 -13 -6 -23 -12 -23 -7 0 -10 -21 -7 -59 2 -46 0 -57 -11 -53 -10 4 -12 22 -9 70 4 63 6 67 47 101 80 66 256 200 264 200 4 1 6 -83 5 -186z m-1333 70 c-3 -29 -10 -55 -13 -57 -4 -2 -3 35 3 82 5 48 11 74 13 57 2 -16 1 -53 -3 -82z m-1528 75 c-3 -8 -6 -5 -6 6 -1 11 2 17 5 13 3 -3 4 -12 1 -19z m1103 -58 l339 0 4 33 c2 18 4 6 5 -28 1 -33 -4 -77 -11 -97 -15 -42 -29 -62 -20 -29 l5 21 -316 0 c-269 0 -316 -2 -316 -15 0 -7 8 -19 18 -24 19 -12 12 -14 -12 -5 -9 3 -16 16 -16 28 0 11 -7 30 -15 40 -10 14 -14 41 -13 85 1 42 3 52 5 29 l4 -38 339 0z m-1103 -172 c-1 -40 -3 -10 -3 67 0 77 1 110 3 73 2 -37 2 -100 0 -140z m712 82 l12 -25 -20 25 c-11 14 -20 39 -20 55 l1 30 7 -30 c4 -16 13 -41 20 -55z m858 -27 c-3 -10 -5 -4 -5 12 0 17 2 24 5 18 2 -7 2 -21 0 -30z m-77 7 c-6 -11 -13 -20 -16 -20 -2 0 0 9 6 20 6 11 13 20 16 20 2 0 0 -9 -6 -20z m950 -50 l0 -50 -97 2 c-54 1 -77 3 -50 5 l47 4 0 39 0 39 -47 4 c-27 2 -4 4 50 5 l97 2 0 -50z m-1671 -29 c22 -38 41 -75 41 -82 0 -7 -8 2 -18 21 -10 19 -30 56 -46 83 -15 26 -26 47 -23 47 3 0 23 -31 46 -69z m494 42 c-78 -2 -208 -2 -290 0 -81 1 -17 3 142 3 160 0 226 -2 148 -3z m182 -40 c-29 -50 -45 -72 -45 -61 0 9 62 108 67 108 3 0 -7 -21 -22 -47z m-1997 -50 l3 -33 99 0 99 0 4 38 4 37 1 -42 2 -43 -160 0 -160 0 0 41 0 40 53 -3 c51 -3 52 -4 55 -35z m450 30 c-21 -2 -55 -2 -75 0 -21 2 -4 4 37 4 41 0 58 -2 38 -4z m142 -83 c0 -14 -6 -20 -22 -19 -17 1 -19 2 -5 6 9 2 17 11 17 19 0 8 2 14 5 14 3 0 5 -9 5 -20z m2767 14 c-3 -3 -12 -4 -19 -1 -8 3 -5 6 6 6 11 1 17 -2 13 -5z m-1273 -19 c3 -8 1 -15 -4 -15 -6 0 -10 7 -10 15 0 8 2 15 4 15 2 0 6 -7 10 -15z m-1174 -5 c0 -5 -10 -10 -22 -9 -22 0 -22 1 -3 9 11 5 21 9 23 9 1 1 2 -3 2 -9z m1495 0 c3 -5 1 -10 -4 -10 -6 0 -11 5 -11 10 0 6 2 10 4 10 3 0 8 -4 11 -10z m-1182 -7 c-7 -2 -19 -2 -25 0 -7 3 -2 5 12 5 14 0 19 -2 13 -5z m-73 -73 c-6 -11 -13 -20 -16 -20 -2 0 0 9 6 20 6 11 13 20 16 20 2 0 0 -9 -6 -20z m-1330 -20 c0 -5 -10 -10 -22 -9 -22 0 -22 1 -3 9 11 5 21 9 23 9 1 1 2 -3 2 -9z m-133 -22 c-3 -8 -6 -5 -6 6 -1 11 2 17 5 13 3 -3 4 -12 1 -19z m50 16 c-3 -3 -12 -4 -19 -1 -8 3 -5 6 6 6 11 1 17 -2 13 -5z m75 -49 c-4 -23 -9 -25 -53 -25 -37 0 -49 4 -49 15 0 11 12 15 44 15 25 0 48 5 51 10 10 16 13 12 7 -15z"/>
<path d="M843 843 c4 -3 25 -6 47 -6 22 0 43 3 47 6 3 4 -18 7 -47 7 -29 0 -50 -3 -47 -7z"/>
<path d="M3850 945 c0 -211 2 -245 15 -245 13 0 15 34 15 245 0 211 -2 245 -15 245 -13 0 -15 -34 -15 -245z"/>
<path d="M2120 969 c0 -11 5 -29 10 -40 10 -18 25 -19 334 -19 352 0 336 -3 336 56 l0 24 -340 0 c-337 0 -340 0 -340 -21z"/>
<path d="M3710 840 l0 -40 40 0 40 0 0 40 0 40 -40 0 -40 0 0 -40z"/>
<path d="M1693 1615 c-51 -22 -83 -87 -117 -233 -14 -62 -14 -63 7 -71 13 -5 -137 -9 -342 -10 l-364 -2 -29 -24 -30 -25 514 0 513 0 -37 25 c-31 21 -49 25 -115 26 -43 1 -70 3 -61 6 19 5 21 11 38 120 7 40 20 83 29 95 10 13 28 42 40 66 20 39 20 42 4 42 -10 -1 -33 -7 -50 -15z"/>
<path d="M3110 1275 l-34 -25 514 0 515 1 -28 24 -28 25 -452 0 -452 -1 -35 -24z"/>
<path d="M2020 635 c0 -12 20 -15 119 -15 118 0 119 0 125 -25 4 -17 17 -27 44 -35 62 -19 201 -23 272 -8 55 12 65 17 71 38 6 24 6 24 11 -5 4 -23 5 -19 7 18 l1 47 -325 0 c-282 0 -325 -2 -325 -15z"/>
<path d="M2680 590 l0 -60 41 0 c48 0 69 18 72 60 2 29 3 30 55 30 39 0 52 4 52 15 0 12 -19 15 -110 15 l-110 0 0 -60z"/>
<path d="M2920 645 c0 -3 68 -121 77 -134 1 -2 9 2 17 8 11 9 16 9 22 0 4 -7 3 -10 -2 -7 -5 3 -17 -5 -26 -17 -16 -22 -16 -25 -2 -39 8 -9 19 -16 23 -16 4 0 99 43 210 96 l201 96 126 0 c73 0 130 -5 138 -11 7 -6 77 -12 167 -14 107 -2 88 -3 -66 -3 -121 0 -195 3 -165 6 l55 7 -53 1 c-88 3 -132 -34 -132 -111 0 -37 26 -81 42 -71 6 4 8 2 4 -4 -3 -6 2 -15 11 -21 13 -7 -331 -10 -1112 -10 -621 0 -1123 3 -1115 6 73 27 92 132 35 189 -21 20 -34 24 -89 24 -36 0 -68 -5 -71 -11 -5 -7 -83 -10 -236 -8 -172 1 -232 -1 -244 -11 -21 -18 -33 -70 -24 -104 8 -29 45 -76 60 -76 4 0 -6 13 -22 29 -16 16 -29 38 -29 48 1 11 6 6 15 -14 16 -38 34 -48 98 -57 43 -5 51 -3 74 20 18 18 29 22 36 15 18 -18 212 -14 231 4 13 14 16 13 26 -5 6 -11 23 -27 38 -35 25 -14 8 -15 -213 -14 -132 1 -354 1 -492 0 l-253 -1 0 -30 0 -30 2180 0 2180 0 0 30 0 30 -247 0 c-174 1 -243 4 -230 11 26 15 47 63 47 109 0 33 -6 48 -29 71 -16 16 -26 29 -22 29 4 0 20 -13 36 -30 16 -16 39 -30 52 -30 21 0 23 5 23 45 l0 45 -675 0 c-371 0 -675 -2 -675 -5z m70 -60 c17 -25 29 -45 26 -45 -3 0 -19 20 -36 45 -17 25 -29 45 -26 45 3 0 19 -20 36 -45z m1128 38 c-15 -2 -42 -2 -60 0 -18 2 -6 4 27 4 33 0 48 -2 33 -4z m-2810 -20 c-16 -2 -40 -2 -55 0 -16 2 -3 4 27 4 30 0 43 -2 28 -4z m2805 0 c-13 -2 -33 -2 -45 0 -13 2 -3 4 22 4 25 0 35 -2 23 -4z m-3334 -6 c-2 -1 -15 -11 -29 -22 l-25 -20 19 23 c11 12 24 22 29 22 6 0 8 -1 6 -3z m596 -17 c26 -28 15 -31 -12 -3 -12 13 -19 23 -14 23 4 0 16 -9 26 -20z m2800 0 c26 -28 15 -31 -12 -3 -12 13 -19 23 -14 23 4 0 16 -9 26 -20z m-3204 -27 c13 -16 12 -17 -3 -4 -10 7 -18 15 -18 17 0 8 8 3 21 -13z m187 -3 c-7 -10 -14 -17 -17 -15 -4 4 18 35 25 35 2 0 -1 -9 -8 -20z m2592 16 c0 -2 -7 -7 -16 -10 -8 -3 -12 -2 -9 4 6 10 25 14 25 6z m-2548 -38 c-8 -8 -9 -4 -5 13 4 13 8 18 11 10 2 -7 -1 -18 -6 -23z m-475 0 c-3 -8 -6 -5 -6 6 -1 11 2 17 5 13 3 -3 4 -12 1 -19z m138 12 c3 -6 -1 -7 -9 -4 -18 7 -21 14 -7 14 6 0 13 -4 16 -10z m453 -15 c-3 -3 -9 2 -12 12 -6 14 -5 15 5 6 7 -7 10 -15 7 -18z m-515 0 c-3 -9 -8 -14 -10 -11 -3 3 -2 9 2 15 9 16 15 13 8 -4z m125 -10 c-3 -3 -9 2 -12 12 -6 14 -5 15 5 6 7 -7 10 -15 7 -18z m469 -12 c-3 -10 -5 -4 -5 12 0 17 2 24 5 18 2 -7 2 -21 0 -30z m2130 0 c-3 -10 -5 -4 -5 12 0 17 2 24 5 18 2 -7 2 -21 0 -30z m83 33 c0 -3 -4 -8 -10 -11 -5 -3 -10 -1 -10 4 0 6 5 11 10 11 6 0 10 -2 10 -4z m-2603 -38 c-3 -7 -5 -2 -5 12 0 14 2 19 5 13 2 -7 2 -19 0 -25z m100 0 c-3 -7 -5 -2 -5 12 0 14 2 19 5 13 2 -7 2 -19 0 -25z m193 22 c0 -5 -4 -10 -10 -10 -5 0 -10 5 -10 10 0 6 5 10 10 10 6 0 10 -4 10 -10z m2527 4 c-3 -3 -12 -4 -19 -1 -8 3 -5 6 6 6 11 1 17 -2 13 -5z m-2857 -14 c0 -5 -5 -10 -11 -10 -5 0 -7 5 -4 10 3 6 8 10 11 10 2 0 4 -4 4 -10z m2731 -7 c13 -16 12 -17 -3 -4 -17 13 -22 21 -14 21 2 0 10 -8 17 -17z m373 2 c3 -8 1 -15 -4 -15 -6 0 -10 7 -10 15 0 8 2 15 4 15 2 0 6 -7 10 -15z m-2897 -1 c-3 -3 -12 -4 -19 -1 -8 3 -5 6 6 6 11 1 17 -2 13 -5z m44 -8 c-14 -17 -2 -48 27 -66 10 -7 11 -10 3 -7 -38 9 -63 87 -29 87 6 0 6 -6 -1 -14z m2546 8 c-3 -3 -12 -4 -19 -1 -8 3 -5 6 6 6 11 1 17 -2 13 -5z m335 -16 c-7 -7 -12 -8 -12 -2 0 14 12 26 19 19 2 -3 -1 -11 -7 -17z m-465 6 c-3 -3 -12 -4 -19 -1 -8 3 -5 6 6 6 11 1 17 -2 13 -5z m415 -67 c8 -3 9 -6 1 -6 -13 -1 -53 46 -53 63 0 6 9 -3 19 -20 11 -18 25 -34 33 -37z m-3035 47 c-3 -3 -12 -4 -19 -1 -8 3 -5 6 6 6 11 1 17 -2 13 -5z m353 -29 c-13 -14 -27 -25 -31 -25 -4 0 4 13 19 28 15 15 29 26 31 25 3 -2 -6 -14 -19 -28z m2287 29 c-3 -3 -12 -4 -19 -1 -8 3 -5 6 6 6 11 1 17 -2 13 -5z m203 -34 c50 0 101 5 113 11 16 9 22 9 25 0 2 -7 18 -21 36 -32 l31 -19 -198 0 -197 0 32 29 c24 22 37 27 50 20 9 -5 58 -9 108 -9z m301 -10 c-13 -11 -28 -20 -35 -20 -6 0 3 9 19 19 39 25 46 25 16 1z m-476 0 c-3 -5 -12 -10 -18 -10 -7 0 -6 4 3 10 19 12 23 12 15 0z m-2372 -17 c-7 -2 -21 -2 -30 0 -10 3 -4 5 12 5 17 0 24 -2 18 -5z"/>
<path d="M1770 160 c0 -60 4 -100 10 -100 6 0 10 20 10 45 0 45 0 45 35 45 35 0 35 0 35 -45 0 -33 4 -45 15 -45 12 0 15 18 15 100 0 82 -3 100 -15 100 -11 0 -15 -11 -15 -40 0 -39 -1 -40 -35 -40 -34 0 -35 1 -35 40 0 22 -4 40 -10 40 -6 0 -10 -40 -10 -100z"/>
<path d="M2200 160 c0 -118 18 -136 22 -22 l3 77 19 -78 c25 -99 43 -100 67 -4 9 38 20 71 23 74 3 4 6 -28 6 -70 0 -45 4 -77 10 -77 6 0 10 40 10 100 0 92 -2 100 -19 100 -16 0 -23 -14 -37 -75 -10 -41 -21 -75 -25 -75 -4 0 -15 34 -25 75 -14 59 -21 75 -36 75 -16 0 -18 -10 -18 -100z"/>
<path d="M2710 160 c0 -82 3 -100 15 -100 12 0 15 18 15 100 0 82 -3 100 -15 100 -12 0 -15 -18 -15 -100z"/>
<path d="M2849 244 c-7 -9 -15 -42 -17 -75 -6 -76 13 -109 61 -109 39 0 57 15 57 47 0 31 -16 29 -24 -2 -7 -28 -36 -34 -55 -11 -16 19 -16 113 -1 131 17 21 38 19 52 -5 7 -11 16 -20 20 -20 12 0 9 35 -4 48 -17 17 -73 15 -89 -4z"/>
<path d="M2060 231 c0 -11 -6 -22 -12 -24 -10 -4 -10 -7 -1 -14 6 -5 13 -35 15 -68 3 -53 5 -60 26 -63 12 -2 22 1 22 7 0 6 -7 11 -15 11 -12 0 -15 13 -15 55 0 42 3 55 15 55 8 0 15 5 15 10 0 6 -7 10 -15 10 -8 0 -15 9 -15 20 0 11 -4 20 -10 20 -5 0 -10 -9 -10 -19z"/>
<path d="M2520 231 c0 -11 -6 -22 -12 -24 -10 -4 -10 -7 -1 -14 6 -5 13 -35 15 -68 3 -53 5 -60 26 -63 12 -2 22 1 22 7 0 6 -4 11 -10 11 -15 0 -13 107 3 113 8 4 9 8 1 14 -6 4 -13 16 -17 26 -9 23 -27 22 -27 -2z"/>
<path d="M1936 194 c-19 -19 -22 -107 -3 -121 44 -35 97 -2 97 59 0 65 -55 101 -94 62z m59 -15 c12 -19 7 -81 -8 -96 -32 -32 -62 40 -37 88 12 21 35 25 45 8z"/>
<path d="M2406 188 c-19 -27 -21 -88 -3 -112 9 -12 23 -17 41 -14 30 3 56 31 42 45 -4 4 -12 0 -17 -10 -10 -18 -49 -24 -49 -8 0 5 -3 16 -6 25 -5 13 2 16 35 16 35 0 41 3 41 21 0 56 -54 80 -84 37z m54 -18 c0 -13 -7 -20 -20 -20 -19 0 -27 20 -13 33 13 14 33 6 33 -13z"/>
<path d="M2602 198 c-7 -7 -12 -19 -12 -27 0 -12 3 -11 18 2 24 22 42 21 42 -2 0 -11 -12 -23 -29 -31 -33 -13 -44 -33 -36 -61 5 -15 16 -18 54 -18 l47 2 -4 61 c-2 33 -9 67 -14 74 -13 15 -50 16 -66 0z m48 -93 c0 -18 -5 -25 -20 -25 -35 0 -24 45 13 49 4 1 7 -10 7 -24z"/>
<path d="M2990 195 c-17 -20 -5 -32 15 -15 16 13 45 7 45 -10 0 -6 -15 -17 -34 -25 -36 -15 -50 -37 -41 -66 5 -15 16 -18 54 -18 l48 2 -4 51 c-7 88 -10 96 -42 96 -16 0 -34 -7 -41 -15z m58 -82 c-2 -20 -9 -29 -25 -31 -28 -4 -31 24 -5 44 26 20 34 17 30 -13z"/>
<path d="M3103 194 c-9 -24 2 -128 15 -132 8 -3 12 12 12 52 0 45 4 58 20 68 11 7 20 16 20 20 0 12 -62 4 -67 -8z"/>
</g>
</svg>