<svg xmlns="http://www.w3.org/2000/svg" viewBox="943.90 177.00 445.10 207.00">
<g transform="translate(0.000000,768.000000) scale(0.100000,-0.100000)" fill="currentColor" stroke="none">
<path d="M12226 5847 c-22 -16 -38 -89 -30 -134 9 -45 45 -70 80 -54 35 15 54 71 24 71 -5 0 -10 -10 -12 -22 -3 -27 -46 -38 -59 -16 -13 20 -11 112 3 126 19 19 49 14 55 -8 7 -26 23 -26 23 -1 0 20 -34 51 -55 51 -6 0 -19 -6 -29 -13z"/>
<path d="M10840 5755 c0 -78 3 -95 15 -95 11 0 15 11 15 41 0 38 1 40 28 37 22 -2 29 -10 36 -40 5 -21 14 -38 19 -38 5 0 6 16 3 38 -9 49 -9 62 0 95 10 40 -10 57 -67 57 l-49 0 0 -95z m88 46 c4 -25 -12 -41 -40 -41 -14 0 -18 8 -18 36 0 33 2 35 28 32 20 -2 28 -9 30 -27z"/>
<path d="M11547 5818 c5 -27 3 -31 -8 -20 -34 32 -69 -2 -69 -68 0 -39 4 -52 22 -64 13 -9 27 -12 37 -7 9 5 22 6 29 4 9 -4 12 19 12 91 0 78 -3 96 -15 96 -11 0 -13 -8 -8 -32z m-13 -44 c34 -33 5 -122 -30 -93 -17 14 -18 81 -2 97 15 15 13 15 32 -4z"/>
<path d="M11650 5840 c0 -5 11 -10 25 -10 25 0 25 -1 25 -85 0 -50 4 -85 10 -85 6 0 10 35 10 85 0 84 0 85 25 85 14 0 25 5 25 10 0 6 -27 10 -60 10 -33 0 -60 -4 -60 -10z"/>
<path d="M12020 5755 c0 -57 4 -95 10 -95 6 0 10 11 10 24 0 37 17 40 35 6 8 -16 22 -30 30 -30 13 0 12 8 -6 42 -20 39 -20 43 -5 70 23 38 3 35 -28 -4 l-26 -33 0 58 c0 31 -4 57 -10 57 -6 0 -10 -38 -10 -95z"/>
<path d="M11282 5812 c-8 -17 -9 -28 -2 -30 5 -2 10 -30 10 -63 0 -52 2 -59 20 -59 11 0 20 5 20 10 0 6 -4 10 -10 10 -15 0 -12 97 3 104 10 5 10 7 0 12 -7 3 -13 14 -13 25 0 27 -13 23 -28 -9z"/>
<path d="M11177 5792 c-11 -12 -17 -36 -17 -65 0 -38 4 -49 24 -62 31 -20 66 -5 66 27 0 22 0 22 -22 -1 -20 -23 -22 -23 -35 -5 -19 26 -11 39 25 42 28 3 32 7 32 32 0 45 -44 64 -73 32z m51 -30 c3 -16 -2 -22 -16 -22 -27 0 -33 10 -21 32 13 24 33 19 37 -10z"/>
<path d="M11372 5794 c-18 -12 -22 -25 -22 -64 0 -41 4 -52 24 -65 19 -13 29 -14 45 -5 12 6 21 17 21 25 0 19 -8 19 -27 0 -18 -19 -43 -4 -43 26 0 15 7 19 35 19 32 0 35 2 35 30 0 19 -7 33 -19 40 -25 13 -22 13 -49 -6z m46 -33 c-2 -10 -11 -15 -23 -13 -27 5 -30 9 -16 26 15 18 43 9 39 -13z"/>
<path d="M11786 5794 c-31 -31 -16 -46 16 -17 17 15 20 15 28 3 14 -22 13 -25 -22 -41 -24 -10 -34 -22 -36 -41 -4 -30 25 -53 47 -39 7 5 21 7 30 4 14 -3 16 5 13 59 -4 81 -37 112 -76 72z m54 -84 c0 -26 -38 -47 -46 -25 -7 18 12 45 32 45 8 0 14 -9 14 -20z"/>
<path d="M11931 5801 c-8 -5 -20 -7 -28 -4 -10 4 -13 -11 -13 -66 0 -41 4 -71 10 -71 6 0 10 22 10 49 0 33 6 55 16 66 24 24 36 6 42 -60 6 -73 22 -71 22 4 0 74 -23 105 -59 82z"/>
<path d="M12358 5799 c-10 -5 -18 -17 -18 -24 0 -19 8 -19 27 0 8 8 19 13 24 10 18 -11 9 -34 -18 -47 -31 -15 -42 -51 -22 -74 7 -9 19 -12 28 -8 9 4 27 6 40 5 17 -1 22 3 17 15 -3 9 -6 35 -6 59 0 62 -30 89 -72 64z m47 -79 c7 -12 -12 -50 -26 -50 -16 0 -22 29 -9 45 14 17 26 19 35 5z"/>
<path d="M12500 5800 c-7 -4 -19 -6 -27 -3 -10 4 -13 -11 -13 -66 0 -41 4 -71 10 -71 6 0 10 22 10 49 0 42 4 52 27 69 26 19 20 39 -7 22z"/>
<path d="M10990 5730 c0 -56 3 -70 15 -70 12 0 15 14 15 70 0 56 -3 70 -15 70 -12 0 -15 -14 -15 -70z"/>
<path d="M11046 5775 c34 -136 50 -145 80 -45 17 54 19 70 8 70 -12 0 -34 -57 -34 -89 0 -25 -15 -1 -25 41 -6 23 -16 43 -23 46 -9 3 -11 -4 -6 -23z"/>
<path d="M13343 5345 c0 -24 1 -25 73 -25 61 0 73 3 77 18 4 13 5 11 6 -5 1 -22 -2 -23 -84 -23 -84 0 -85 0 -85 25 0 18 -5 25 -20 25 -16 0 -20 -7 -20 -30 l0 -30 130 0 130 0 0 25 c0 20 5 25 28 27 41 2 -93 15 -169 17 -65 1 -66 0 -66 -24z"/>
<path d="M9798 5318 c-3 -24 -1 -47 3 -52 13 -14 11 -60 -3 -74 -9 -9 -9 -15 0 -24 16 -16 15 -81 0 -96 -10 -10 -10 -17 0 -32 15 -24 16 -65 1 -92 -8 -14 -8 -23 0 -31 15 -15 14 -39 -4 -73 -13 -26 -13 -30 0 -40 18 -13 20 -40 4 -50 -7 -4 -9 -21 -5 -47 4 -26 3 -43 -5 -47 -7 -5 -8 -13 -1 -26 5 -11 13 -37 16 -59 6 -30 5 -37 -4 -29 -13 13 -50 7 -50 -7 0 -5 -4 -9 -10 -9 -5 0 -10 7 -10 16 0 12 -9 15 -47 12 l-48 -3 -3 -43 -3 -42 50 0 c41 0 51 3 56 21 4 11 9 19 11 16 7 -6 -41 -105 -61 -127 -10 -11 -26 -20 -36 -20 -10 0 -21 -4 -24 -10 -4 -6 5 -10 20 -10 28 0 85 48 85 72 0 8 11 29 25 48 16 22 25 28 25 18 0 -13 7 -16 35 -11 33 5 35 4 35 -21 0 -22 4 -26 29 -26 24 0 30 -5 34 -29 4 -16 21 -46 38 -66 l32 -36 -244 2 -244 1 -3 -26 -3 -26 2175 0 2176 0 0 25 0 25 -237 0 -238 0 27 23 c30 26 48 57 48 86 0 17 6 21 35 21 30 0 35 3 35 24 0 19 4 23 19 19 12 -3 24 3 35 18 16 23 16 23 16 2 0 -11 7 -23 15 -26 8 -4 21 -21 28 -40 17 -38 61 -77 88 -77 30 0 22 15 -13 25 -25 8 -40 23 -65 69 -18 32 -33 61 -33 65 0 3 5 -2 11 -11 7 -13 23 -18 60 -18 l50 0 -3 42 c-3 42 -3 42 -47 46 -32 3 -47 0 -53 -11 -6 -11 -16 -13 -36 -8 -23 6 -27 13 -30 49 -2 25 1 42 7 42 6 0 11 -14 11 -31 0 -17 4 -28 10 -24 6 4 10 94 10 236 0 227 0 231 23 250 l22 18 -22 1 c-22 0 -23 4 -23 80 0 47 4 80 10 80 6 0 10 -9 10 -20 0 -11 5 -20 10 -20 6 0 10 27 10 60 0 33 -4 60 -10 60 -5 0 -10 -9 -10 -19 0 -29 -17 -34 -25 -8 -4 13 -8 17 -12 10 -4 -10 -389 -13 -1886 -11 -1035 1 -1822 4 -1749 5 l132 4 0 29 0 30 -134 0 -134 0 -4 -42z m3772 -100 c0 -38 -3 -49 -10 -38 -5 8 -10 27 -10 43 0 15 -6 27 -12 27 -9 0 -8 4 2 10 26 17 30 11 30 -42z m-69 -15 c-3 -32 -6 -50 -8 -40 -4 13 -15 17 -58 17 -33 0 -55 -5 -58 -12 -3 -7 -5 1 -5 17 0 17 2 24 5 18 3 -8 25 -13 59 -13 53 0 54 0 54 30 l0 30 -140 0 -140 0 0 -326 0 -325 78 1 c42 1 84 0 92 -4 8 -3 42 -7 75 -9 l60 -3 -67 -2 c-42 -1 -68 -7 -71 -14 -3 -8 -6 -6 -6 5 -1 16 -20 17 -251 17 -137 0 -250 3 -250 8 0 4 74 6 165 4 l165 -3 0 326 0 325 -162 -2 -163 -3 -6 -35 -6 -35 -2 38 -1 37 -160 0 -160 0 0 -325 0 -325 163 -3 c89 -1 10 -4 -175 -5 -316 -2 -338 -1 -337 16 0 10 3 12 6 5 3 -10 47 -13 169 -13 l164 0 0 325 0 325 -165 0 -165 0 -2 -312 -3 -313 -2 313 -3 312 -510 0 -510 0 0 -325 0 -324 103 -4 c56 -1 -241 -4 -660 -5 l-762 -2 -3 335 -3 335 1830 0 1830 0 -4 -57z m-1771 11 c0 -2 -7 -4 -15 -4 -8 0 -15 4 -15 10 0 5 7 7 15 4 8 -4 15 -8 15 -10z m-102 -1 c-32 -2 -86 -2 -120 0 -35 2 -9 3 57 3 66 0 94 -1 63 -3z m209 0 c-20 -2 -52 -2 -70 0 -17 2 0 4 38 4 39 0 53 -2 32 -4z m-167 -22 c0 -5 9 -11 20 -14 22 -6 28 8 8 16 -9 4 -8 6 2 6 13 1 15 -35 12 -276 -2 -202 0 -278 8 -283 9 -6 8 -14 -4 -32 -9 -14 -13 -29 -9 -33 5 -5 1 -4 -8 2 -8 7 -60 14 -120 16 l-104 3 108 2 c81 1 112 6 123 17 14 13 13 15 -9 15 -14 0 -28 -6 -30 -12 -3 -7 -5 16 -4 52 0 54 1 57 4 18 3 -34 8 -48 19 -48 12 0 14 41 14 265 0 229 -2 265 -15 265 -13 0 -15 -30 -15 -206 0 -208 -5 -237 -38 -226 -7 2 -19 -2 -28 -8 -8 -7 -17 -10 -21 -6 -3 3 -1 6 5 6 7 0 12 3 12 8 0 4 -17 7 -37 6 -29 -1 -31 0 -8 3 16 3 33 10 37 16 6 9 8 8 8 -1 0 -9 10 -12 28 -10 l27 3 0 223 c0 122 3 222 8 222 4 0 7 -4 7 -9z m-200 -31 c12 -7 10 -9 -8 -7 -12 0 -22 5 -22 9 0 11 12 10 30 -2z m450 -20 c0 -16 -4 -30 -10 -30 -5 0 -10 -26 -12 -57 l-3 -58 -5 66 c-4 51 -2 65 8 62 7 -3 12 3 12 17 0 11 -4 18 -10 15 -5 -3 -10 -1 -10 4 0 6 7 11 15 11 10 0 15 -10 15 -30z m1457 -12 c-3 -8 -6 -5 -6 6 -1 11 2 17 5 13 3 -3 4 -12 1 -19z m193 -30 c0 -38 -3 -49 -10 -38 -13 20 -13 90 0 90 6 0 10 -24 10 -52z m-2098 -180 c-2 -4 -9 -2 -17 5 -7 6 -9 14 -4 15 14 6 11 156 -3 171 -10 11 -10 13 0 7 7 -5 13 0 14 11 1 10 4 -31 7 -92 4 -60 5 -113 3 -117z m2026 25 c-1 -104 -4 -146 -5 -95 l-4 92 -54 0 -55 0 -1 -32 -1 -33 -7 30 c-4 17 -6 37 -5 45 1 8 3 44 4 80 1 36 4 59 7 53 3 -8 25 -13 59 -13 53 0 54 0 54 30 0 17 2 30 5 30 3 0 4 -84 3 -187z m72 51 c0 -19 -4 -34 -10 -34 -5 0 -10 18 -10 41 0 24 4 38 10 34 6 -3 10 -22 10 -41z m-1659 -54 c5 0 9 -13 9 -30 0 -16 -4 -30 -10 -30 -14 0 -13 -163 1 -177 6 -6 9 -21 6 -34 -4 -22 -4 -22 -6 4 0 15 -5 27 -11 27 -6 0 -10 38 -10 94 0 66 -4 96 -12 100 -7 3 -3 3 10 0 18 -4 22 -1 22 16 0 14 -5 20 -13 17 -9 -3 -11 5 -8 32 5 32 6 33 9 9 2 -16 8 -28 13 -28z m1657 -62 c1 -45 -1 -57 -8 -43 -11 26 -13 105 -2 105 5 0 9 -28 10 -62z m-2099 -95 c0 -65 -3 -111 -6 -103 -3 8 -11 18 -17 22 -8 5 -7 8 2 8 9 0 12 24 12 85 0 61 -3 85 -12 85 -9 0 -8 4 2 10 8 5 16 10 18 10 1 0 2 -53 1 -117z m1931 44 c12 -4 12 -6 -2 -6 -9 -1 -19 -9 -21 -18 -3 -10 -5 -2 -6 17 0 19 3 30 7 24 4 -6 14 -14 22 -17z m68 -4 c-10 -2 -26 -2 -35 0 -10 3 -2 5 17 5 19 0 27 -2 18 -5z m102 -48 c0 -19 -4 -35 -10 -35 -5 0 -10 16 -10 35 0 19 5 35 10 35 6 0 10 -16 10 -35z m-2240 -75 c0 -16 -3 -30 -8 -30 -4 0 -8 14 -8 30 -1 17 2 30 7 30 5 0 9 -13 9 -30z m2167 1 c-1 -11 -6 -17 -14 -14 -10 4 -11 9 -2 19 15 19 18 18 16 -5z m-113 0 c3 -5 -1 -11 -9 -14 -9 -4 -12 -1 -8 9 6 16 10 17 17 5z m186 -21 c0 -16 -4 -30 -10 -30 -5 0 -10 14 -10 30 0 17 5 30 10 30 6 0 10 -13 10 -30z m-1680 -5 c0 -8 -2 -15 -4 -15 -2 0 -6 7 -10 15 -3 8 -1 15 4 15 6 0 10 -7 10 -15z m-420 -50 c0 -32 -2 -35 -27 -34 -24 2 -25 2 -5 6 24 5 32 47 10 56 -8 3 -6 6 5 6 13 1 17 -7 17 -34z m468 -28 c20 -2 -21 -3 -93 -3 -87 0 -101 1 -42 3 87 4 87 4 88 31 l2 27 4 -27 c4 -23 10 -27 41 -31z m195 -4 c-29 -2 -77 -2 -105 0 -29 2 -6 3 52 3 58 0 81 -1 53 -3z m1362 -42 c-10 -10 -107 -16 -160 -10 -16 1 13 6 65 9 52 3 97 7 100 8 2 1 0 -2 -5 -7z m-3552 -8 c-7 -2 -21 -2 -30 0 -10 3 -4 5 12 5 17 0 24 -2 18 -5z m30 -44 c-6 -6 -7 3 -4 23 4 28 6 29 9 9 2 -13 0 -27 -5 -32z m417 44 c-19 -3 -43 -12 -52 -20 -22 -20 -24 -10 -2 11 9 10 30 15 52 14 l37 -1 -35 -4z m148 0 c-10 -2 -26 -2 -35 0 -10 3 -2 5 17 5 19 0 27 -2 18 -5z m80 -10 c27 -13 75 -19 177 -23 l140 -6 -135 -2 c-125 -2 -139 0 -185 23 -57 28 -54 34 3 8z m2195 10 c-7 -2 -21 -2 -30 0 -10 3 -4 5 12 5 17 0 24 -2 18 -5z m175 0 c-16 -2 -40 -2 -55 0 -16 2 -3 4 27 4 30 0 43 -2 28 -4z m295 0 c-7 -2 -19 -2 -25 0 -7 3 -2 5 12 5 14 0 19 -2 13 -5z m-3416 -25 c-3 -8 -6 -5 -6 6 -1 11 2 17 5 13 3 -3 4 -12 1 -19z m138 13 c-3 -6 16 -12 42 -14 l48 -3 -52 -2 c-41 -2 -53 1 -53 13 0 8 5 15 11 15 5 0 8 -4 4 -9z m3029 -7 c3 -8 2 -12 -4 -9 -6 3 -10 10 -10 16 0 14 7 11 14 -7z m181 6 c-3 -5 -11 -10 -16 -10 -6 0 -7 5 -4 10 3 6 11 10 16 10 6 0 7 -4 4 -10z m-495 -15 c-14 -8 -32 -14 -40 -14 -8 0 -1 6 15 14 40 18 57 18 25 0z m700 -29 c0 -12 -5 -7 -19 24 -11 24 -11 24 3 6 9 -11 16 -24 16 -30z m-3573 12 c-3 -8 -6 -5 -6 6 -1 11 2 17 5 13 3 -3 4 -12 1 -19z m99 -4 c-4 -9 -9 -15 -11 -12 -3 3 -3 13 1 22 4 9 9 15 11 12 3 -3 3 -13 -1 -22z m332 19 c-21 -2 -57 -2 -80 0 -24 2 -7 4 37 4 44 0 63 -2 43 -4z m162 3 c0 -2 -9 -6 -20 -9 -11 -3 -18 -1 -14 4 5 9 34 13 34 5z m57 -2 c-3 -3 -12 -4 -19 -1 -8 3 -5 6 6 6 11 1 17 -2 13 -5z m3030 -16 c-3 -8 -6 -5 -6 6 -1 11 2 17 5 13 3 -3 4 -12 1 -19z m-2409 5 c-32 -2 -86 -2 -120 0 -35 2 -9 3 57 3 66 0 94 -1 63 -3z m125 0 c-13 -2 -33 -2 -45 0 -13 2 -3 4 22 4 25 0 35 -2 23 -4z m85 0 c-10 -2 -28 -2 -40 0 -13 2 -5 4 17 4 22 1 32 -1 23 -4z m585 0 c-7 -2 -21 -2 -30 0 -10 3 -4 5 12 5 17 0 24 -2 18 -5z m490 0 c-7 -2 -19 -2 -25 0 -7 3 -2 5 12 5 14 0 19 -2 13 -5z m105 0 c-15 -2 -42 -2 -60 0 -18 2 -6 4 27 4 33 0 48 -2 33 -4z m59 1 c-3 -3 -12 -4 -19 -1 -8 3 -5 6 6 6 11 1 17 -2 13 -5z m273 3 c0 -2 -10 -12 -22 -23 l-23 -19 19 23 c18 21 26 27 26 19z m-2289 -24 c13 -16 12 -17 -3 -4 -10 7 -18 15 -18 17 0 8 8 3 21 -13z m2394 7 c13 -6 5 -7 -25 -3 -25 3 -47 7 -49 9 -9 8 55 2 74 -6z m193 3 c-15 -2 -42 -2 -60 0 -18 2 -6 4 27 4 33 0 48 -2 33 -4z m-279 -6 c-2 -1 -15 -11 -29 -22 l-25 -20 19 23 c11 12 24 22 29 22 6 0 8 -1 6 -3z m-2919 -27 c13 -8 13 -11 1 -22 -8 -7 -11 -8 -7 -1 4 8 -5 10 -34 6 -35 -5 -39 -3 -34 11 7 18 50 21 74 6z m608 -15 c-3 -3 -9 2 -12 12 -6 14 -5 15 5 6 7 -7 10 -15 7 -18z m2942 5 c0 -15 -7 -20 -25 -20 -14 0 -28 6 -31 14 -3 8 -13 12 -22 9 -15 -4 -15 -3 -2 6 8 6 30 11 48 11 25 0 32 -4 32 -20z m-3372 -4 c-7 -8 -15 -12 -17 -11 -5 6 10 25 20 25 5 0 4 -6 -3 -14z m1152 1 l465 -1 -415 -6 c-262 -3 -391 -8 -351 -12 35 -5 220 -8 411 -8 297 0 349 -2 360 -15 9 -11 32 -15 81 -15 l69 0 0 30 0 30 283 -2 282 -3 -277 -2 -278 -3 0 -23 c0 -13 3 -17 8 -11 5 8 93 13 267 17 143 3 272 10 287 15 14 6 96 13 182 15 146 5 154 4 144 -12 -19 -31 -1 -87 40 -121 l37 -30 -1185 0 -1185 1 28 20 c40 31 60 74 52 117 l-6 35 118 -7 c65 -4 327 -8 583 -9z m1717 -14 c1 -22 -1 -24 -8 -10 -6 9 -7 22 -4 27 9 14 10 13 12 -17z m111 20 c-10 -2 -26 -2 -35 0 -10 3 -2 5 17 5 19 0 27 -2 18 -5z m65 0 c-7 -2 -21 -2 -30 0 -10 3 -4 5 12 5 17 0 24 -2 18 -5z m-3003 -7 c0 -2 -7 -7 -16 -10 -8 -3 -12 -2 -9 4 6 10 25 14 25 6z m1597 -18 c-3 -8 -6 -5 -6 6 -1 11 2 17 5 13 3 -3 4 -12 1 -19z m1281 -3 c-3 -3 -9 2 -12 12 -6 14 -5 15 5 6 7 -7 10 -15 7 -18z m195 1 c7 -17 -1 -26 -22 -25 -12 0 -11 3 4 9 11 5 14 9 8 9 -7 1 -13 6 -13 11 0 15 17 12 23 -4z m-3077 -23 c-3 -3 -16 -1 -28 5 l-23 12 23 -6 c14 -3 22 -1 23 8 0 11 2 11 6 0 3 -7 2 -16 -1 -19z m187 12 c-3 -9 -8 -14 -10 -11 -3 3 -2 9 2 15 9 16 15 13 8 -4z m122 5 c3 -5 1 -10 -4 -10 -6 0 -11 5 -11 10 0 6 2 10 4 10 3 0 8 -4 11 -10z m2445 0 c0 -5 -4 -10 -10 -10 -5 0 -10 5 -10 10 0 6 5 10 10 10 6 0 10 -4 10 -10z m435 0 c3 -5 1 -10 -4 -10 -6 0 -11 5 -11 10 0 6 2 10 4 10 3 0 8 -4 11 -10z m-3384 -78 c8 -10 4 -7 -8 6 -13 13 -23 35 -22 50 1 25 2 25 9 -6 4 -18 14 -41 21 -50z m256 72 c-3 -3 -12 -4 -19 -1 -8 3 -5 6 6 6 11 1 17 -2 13 -5z m340 -16 c-3 -8 -6 -5 -6 6 -1 11 2 17 5 13 3 -3 4 -12 1 -19z m2470 6 c-3 -3 -12 -4 -19 -1 -8 3 -5 6 6 6 11 1 17 -2 13 -5z m-2562 -22 c-3 -3 -11 0 -18 7 -9 10 -8 11 6 5 10 -3 15 -9 12 -12z m2635 -2 c-6 -11 -12 -20 -14 -20 -2 0 -2 9 1 20 3 11 9 20 15 20 5 0 4 -9 -2 -20z m-2906 -5 c3 -8 1 -15 -4 -15 -6 0 -10 7 -10 15 0 8 2 15 4 15 2 0 6 -7 10 -15z m2871 -5 c3 -5 1 -10 -4 -10 -6 0 -11 5 -11 10 0 6 2 10 4 10 3 0 8 -4 11 -10z m80 -8 c-3 -3 -11 0 -18 7 -9 10 -8 11 6 5 10 -3 15 -9 12 -12z m-2614 -25 l-24 -22 19 27 c10 14 21 24 23 22 3 -3 -6 -15 -18 -27z m-137 7 c3 -8 2 -12 -4 -9 -6 3 -10 10 -10 16 0 14 7 11 14 -7z m2441 -4 c10 -11 16 -20 13 -20 -3 0 -13 9 -23 20 -10 11 -16 20 -13 20 3 0 13 -9 23 -20z m445 -46 c0 -2 -82 -4 -182 -4 -139 1 -178 3 -163 12 11 6 30 20 42 30 17 16 25 18 41 9 29 -16 178 -14 193 2 10 10 18 7 40 -16 16 -16 29 -30 29 -33z m-3180 52 c0 -2 -8 -10 -17 -17 -16 -13 -17 -12 -4 4 13 16 21 21 21 13z m145 -16 c42 0 85 5 95 10 15 8 24 6 38 -7 10 -10 27 -23 38 -30 15 -9 -21 -12 -176 -12 -172 1 -191 2 -164 14 17 8 36 21 43 29 10 11 18 13 31 6 10 -6 53 -10 95 -10z m3155 5 c-7 -8 -17 -15 -23 -15 -6 0 -2 7 9 15 25 19 30 19 14 0z m-2903 -21 c-3 -3 -12 -4 -19 -1 -8 3 -5 6 6 6 11 1 17 -2 13 -5z"/>
<path d="M9860 5044 l0 -206 70 4 c39 2 70 0 70 -4 0 -5 -31 -8 -70 -8 l-70 0 0 -71 0 -71 69 4 c38 2 67 0 64 -4 -2 -5 -33 -8 -69 -8 l-64 0 0 -40 0 -40 310 0 310 0 0 325 0 325 -158 0 c-110 0 -162 -4 -170 -12 -9 -9 -12 -9 -12 0 0 9 -38 12 -140 12 l-140 0 0 -206z m287 24 c-3 -8 -6 -5 -6 6 -1 11 2 17 5 13 3 -3 4 -12 1 -19z m0 -165 c-3 -10 -5 -4 -5 12 0 17 2 24 5 18 2 -7 2 -21 0 -30z"/>
<path d="M10490 4925 l0 -325 165 0 165 0 0 325 0 325 -165 0 -165 0 0 -325z"/>
<path d="M10830 4925 l0 -325 165 0 165 0 0 325 0 325 -165 0 -165 0 0 -325z"/>
<path d="M13380 5005 l0 -55 55 0 55 0 0 55 0 55 -55 0 -55 0 0 -55z"/>
<path d="M10080 5330 l0 -30 140 0 140 0 0 30 0 30 -140 0 -140 0 0 -30z"/>
<path d="M10370 5330 l0 -30 140 0 140 0 0 30 0 30 -140 0 -140 0 0 -30z"/>
<path d="M10660 5330 l0 -30 139 0 c124 0 140 2 144 18 4 16 5 16 6 0 1 -16 23 -18 291 -18 l290 0 0 30 0 30 -289 0 c-220 0 -291 -3 -294 -13 -4 -9 -6 -9 -6 1 -1 9 -36 12 -141 12 l-140 0 0 -30z"/>
<path d="M11540 5330 l0 -30 140 0 140 0 0 30 0 30 -140 0 -140 0 0 -30z"/>
<path d="M11830 5330 l0 -30 140 0 140 0 0 30 0 30 -140 0 -140 0 0 -30z"/>
<path d="M12120 5330 l0 -30 140 0 140 0 0 30 0 30 -140 0 -140 0 0 -30z"/>
<path d="M12410 5330 l0 -30 140 0 140 0 0 30 0 30 -140 0 -140 0 0 -30z"/>
<path d="M12700 5330 l0 -30 144 0 c106 0 146 3 149 13 4 10 6 10 6 0 1 -10 36 -13 141 -13 l140 0 0 30 0 30 -290 0 -290 0 0 -30z"/>
<path d="M11280 4129 c0 -26 -3 -30 -19 -26 -11 3 -29 -2 -40 -10 -31 -21 -30 -106 1 -127 13 -9 27 -12 37 -7 9 5 22 6 29 4 15 -6 18 182 2 192 -6 4 -10 -7 -10 -26z m-10 -58 c24 -46 -4 -117 -36 -90 -25 20 -12 109 16 109 5 0 14 -9 20 -19z"/>
<path d="M10400 4055 c0 -78 3 -95 15 -95 12 0 15 17 15 95 0 78 -3 95 -15 95 -12 0 -15 -17 -15 -95z"/>
<path d="M10840 4055 c0 -57 4 -95 10 -95 6 0 10 38 10 95 0 57 -4 95 -10 95 -6 0 -10 -38 -10 -95z"/>
<path d="M11400 4055 l0 -96 47 3 c41 3 49 7 57 29 5 15 5 35 1 45 -4 11 -9 39 -9 64 l-1 45 -47 3 -48 3 0 -96z m75 45 c0 -20 -6 -26 -27 -28 -25 -3 -28 0 -28 28 0 28 3 31 28 28 21 -2 27 -8 27 -28z m4 -68 c13 -25 -5 -52 -34 -52 -22 0 -25 5 -25 35 0 31 3 35 25 35 13 0 29 -8 34 -18z"/>
<path d="M12193 4138 c-36 -45 -40 -129 -9 -202 19 -46 33 -42 17 5 -14 40 -14 139 -1 175 12 30 8 41 -7 22z"/>
<path d="M12250 4055 c0 -57 4 -95 10 -95 6 0 10 18 10 40 0 37 2 40 29 40 30 0 41 -14 41 -56 0 -13 6 -24 13 -24 15 0 11 67 -5 87 -6 7 -5 14 2 18 14 9 13 58 -2 73 -7 7 -31 12 -55 12 l-43 0 0 -95z m85 55 c9 -28 -2 -40 -36 -40 -26 0 -29 3 -29 30 0 27 3 30 29 30 21 0 32 -6 36 -20z"/>
<path d="M12640 4126 c0 -13 -6 -27 -12 -30 -10 -5 -10 -7 0 -12 7 -4 12 -27 12 -65 0 -33 4 -59 10 -59 6 0 10 26 10 59 0 38 4 61 13 64 9 4 8 8 -3 16 -12 9 -13 14 -2 31 11 18 10 20 -8 20 -14 0 -20 -7 -20 -24z"/>
<path d="M12918 4094 c16 -55 11 -111 -14 -179 -6 -18 -5 -18 8 -5 38 38 49 133 22 200 -24 59 -34 49 -16 -16z"/>
<path d="M11012 4112 c-8 -17 -9 -28 -2 -30 5 -2 10 -30 10 -63 0 -52 2 -59 20 -59 11 0 20 5 20 10 0 6 -4 10 -10 10 -15 0 -12 97 3 104 10 5 10 7 0 12 -7 3 -13 14 -13 25 0 27 -13 23 -28 -9z"/>
<path d="M10510 4100 c-7 -4 -19 -6 -27 -3 -10 4 -13 -11 -13 -66 0 -85 18 -96 22 -13 3 49 6 57 23 57 17 0 20 -8 23 -57 4 -79 22 -73 22 7 0 52 -4 66 -18 74 -10 5 -24 6 -32 1z"/>
<path d="M10618 4103 c-20 -5 -31 -33 -22 -56 3 -9 19 -20 35 -26 31 -11 39 -35 14 -45 -8 -3 -22 2 -30 11 -18 17 -30 11 -22 -10 7 -19 37 -26 66 -16 30 12 26 59 -7 75 -38 19 -48 32 -34 46 9 9 16 7 31 -6 14 -13 21 -14 27 -5 6 11 -21 41 -35 38 -3 -1 -14 -3 -23 -6z"/>
<path d="M10912 4099 c-12 -5 -22 -15 -22 -24 0 -20 10 -19 26 3 12 16 14 16 31 -2 10 -10 14 -20 8 -22 -44 -18 -60 -32 -63 -56 -4 -30 25 -52 47 -39 7 5 21 6 31 4 16 -4 17 1 13 44 -9 95 -20 111 -71 92z m46 -91 c-2 -15 -11 -24 -25 -26 -25 -4 -31 16 -11 36 20 20 40 14 36 -10z"/>
<path d="M11102 4094 c-18 -12 -22 -25 -22 -64 0 -41 4 -52 24 -65 19 -13 29 -14 45 -5 21 11 30 50 11 50 -5 0 -10 -7 -10 -16 0 -25 -44 -13 -48 14 -3 20 1 22 36 22 37 0 39 1 34 28 -4 24 -26 52 -42 52 -3 0 -16 -7 -28 -16z m48 -34 c0 -21 -33 -29 -45 -10 -9 15 4 30 26 30 12 0 19 -7 19 -20z"/>
<path d="M11563 4099 c-44 -16 -42 -122 4 -140 51 -19 85 29 67 99 -10 38 -36 54 -71 41z m50 -45 c10 -54 -12 -93 -44 -74 -17 11 -17 89 1 100 20 12 37 1 43 -26z"/>
<path d="M11804 4102 c-6 -4 -16 -17 -23 -29 -33 -63 15 -142 69 -113 20 11 28 50 10 50 -5 0 -10 -6 -10 -14 0 -19 -25 -27 -39 -13 -16 16 -14 82 3 96 11 9 17 8 29 -4 19 -19 27 -19 27 0 0 8 -9 19 -19 25 -23 12 -32 12 -47 2z"/>
<path d="M11906 4094 c-31 -31 -16 -46 16 -17 17 15 20 15 28 3 14 -22 13 -25 -22 -41 -24 -10 -34 -22 -36 -41 -4 -30 25 -53 47 -39 7 5 21 7 30 4 15 -4 17 3 13 59 -5 81 -37 111 -76 72z m54 -83 c0 -22 -25 -45 -40 -36 -16 10 -12 33 8 44 25 15 32 13 32 -8z"/>
<path d="M12055 4100 c-4 -6 -15 -8 -26 -5 -17 6 -19 1 -19 -64 0 -56 3 -71 15 -71 12 0 15 13 15 56 0 47 3 57 20 61 21 6 26 18 11 28 -5 3 -13 1 -16 -5z"/>
<path d="M12430 4102 c-25 -7 -40 -34 -40 -70 0 -60 32 -92 71 -72 20 11 27 40 9 40 -5 0 -10 -4 -10 -10 0 -18 -38 -10 -43 9 -6 26 0 31 40 31 35 0 42 15 23 49 -11 22 -29 30 -50 23z m30 -37 c0 -9 -9 -15 -25 -15 -18 0 -23 4 -19 15 4 8 15 15 25 15 10 0 19 -7 19 -15z"/>
<path d="M12532 4094 c-18 -12 -22 -25 -22 -64 0 -41 4 -52 24 -65 19 -13 29 -14 45 -5 21 11 30 50 11 50 -5 0 -10 -6 -10 -14 0 -8 -5 -18 -10 -21 -15 -9 -40 14 -40 36 0 15 7 19 35 19 32 0 35 2 35 30 0 19 -7 33 -19 40 -25 13 -22 13 -49 -6z m48 -30 c0 -8 -10 -14 -25 -14 -27 0 -32 9 -14 27 14 14 39 6 39 -13z"/>
<path d="M12721 4094 c-17 -12 -21 -26 -21 -64 0 -41 4 -52 24 -65 19 -13 29 -14 45 -5 12 6 21 17 21 25 0 19 -8 19 -27 0 -18 -19 -43 -4 -43 26 0 15 7 19 35 19 30 0 35 3 35 23 0 44 -35 64 -69 41z m45 -43 c-9 -14 -33 -14 -41 -1 -4 6 -1 18 6 26 11 13 14 13 27 0 8 -8 11 -19 8 -25z"/>
<path d="M12860 4100 c-7 -4 -19 -6 -27 -3 -10 4 -13 -11 -13 -66 0 -41 4 -71 10 -71 6 0 10 20 10 45 0 36 5 51 25 70 26 23 22 42 -5 25z"/>
<path d="M10712 4033 l3 -68 43 -1 42 -2 0 69 c0 39 -4 69 -10 69 -5 0 -10 -24 -10 -53 0 -55 -13 -79 -36 -70 -10 4 -14 23 -14 64 0 34 -4 59 -10 59 -7 0 -10 -25 -8 -67z"/>
<path d="M11662 4093 c2 -5 10 -20 17 -35 12 -24 11 -31 -7 -62 -14 -24 -17 -36 -9 -36 7 0 20 12 29 27 l16 27 13 -27 c7 -15 19 -27 27 -27 11 0 9 8 -7 36 l-21 36 21 34 c16 26 17 34 6 34 -7 0 -19 -12 -26 -27 l-13 -28 -14 28 c-8 15 -19 27 -25 27 -6 0 -9 -3 -7 -7z"/>
</g>
</svg>