<svg xmlns="http://www.w3.org/2000/svg" viewBox="687.10 524.10 698.90 246.90">
<g transform="translate(0.000000,768.000000) scale(0.100000,-0.100000)" fill="currentColor" stroke="none">
<path d="M10667 2304 c-46 -84 -47 -94 -2 -94 31 0 35 -3 35 -25 0 -34 26 -32 32 3 7 43 -6 175 -18 179 -5 2 -27 -27 -47 -63z m33 -34 c0 -33 -3 -40 -20 -40 -11 0 -20 2 -20 5 0 7 33 75 37 75 2 0 3 -18 3 -40z"/>
<path d="M10922 2343 c-25 -36 -62 -109 -62 -123 0 -5 16 -10 35 -10 31 0 35 -3 35 -25 0 -16 6 -25 15 -25 9 0 15 9 15 24 0 13 6 27 13 30 10 5 10 7 0 12 -9 4 -13 28 -13 69 0 35 -4 66 -9 70 -5 3 -18 -7 -29 -22z m8 -73 c0 -33 -3 -40 -20 -40 -11 0 -20 2 -20 5 0 7 33 75 37 75 2 0 3 -18 3 -40z"/>
<path d="M11141 2351 c-7 -12 -18 -21 -26 -21 -8 0 -15 -4 -15 -10 0 -5 9 -10 20 -10 17 0 19 -8 22 -77 4 -111 22 -94 26 24 3 99 -7 132 -27 94z"/>
<path d="M9780 2262 l0 -99 30 -7 c62 -12 102 32 77 84 -9 18 -10 33 -3 53 15 42 -2 61 -58 65 l-46 3 0 -99z m75 48 c0 -18 -6 -26 -22 -28 -20 -3 -23 1 -23 28 0 27 3 31 23 28 16 -2 22 -10 22 -28z m10 -71 c4 -5 4 -21 1 -35 -5 -17 -13 -24 -31 -24 -22 0 -25 4 -25 35 0 30 3 35 24 35 14 0 28 -5 31 -11z"/>
<path d="M10025 2258 l2 -103 32 -3 c47 -5 81 21 81 61 0 18 -5 38 -11 44 -8 8 -8 17 0 31 7 14 8 29 1 46 -8 23 -15 26 -59 26 l-49 0 3 -102z m80 52 c0 -20 -6 -26 -27 -28 -25 -3 -28 0 -28 28 0 28 3 31 28 28 21 -2 27 -8 27 -28z m3 -92 c-2 -28 -8 -34 -30 -36 -26 -3 -28 -1 -28 32 0 33 2 36 31 36 28 0 30 -2 27 -32z"/>
<path d="M10230 2262 c0 -54 2 -101 4 -103 3 -2 26 -3 51 -1 43 4 48 7 62 40 17 41 13 122 -7 147 -8 10 -30 15 -61 15 l-49 0 0 -98z m84 62 c18 -18 22 -95 6 -125 -6 -11 -21 -19 -35 -19 -24 0 -25 2 -25 80 0 72 2 80 19 80 11 0 27 -7 35 -16z"/>
<path d="M10390 2260 c0 -85 2 -100 16 -100 12 0 15 9 12 42 -2 35 0 43 15 46 27 6 47 -17 47 -54 0 -31 15 -53 27 -40 3 3 1 29 -5 58 -7 36 -7 59 1 75 7 16 7 30 -1 48 -10 22 -18 25 -62 25 l-50 0 0 -100z m87 64 c9 -24 -10 -49 -38 -49 -19 0 -23 5 -22 28 1 15 1 29 2 32 3 13 52 3 58 -11z"/>
<path d="M11237 2353 c-10 -9 -9 -103 1 -103 4 0 13 5 18 10 27 27 63 -25 43 -62 -12 -22 -49 -24 -49 -3 0 8 -7 15 -15 15 -21 0 -19 -23 3 -43 40 -37 92 -7 92 52 0 49 -16 71 -51 71 -24 0 -30 4 -25 16 3 9 6 20 6 25 0 5 14 9 30 9 17 0 30 5 30 10 0 11 -73 14 -83 3z"/>
<path d="M9920 2235 c0 -13 8 -16 38 -13 20 2 37 8 37 13 0 6 -17 11 -37 13 -30 3 -38 0 -38 -13z"/>
<path d="M10537 2244 c-13 -13 5 -24 39 -24 24 0 34 5 34 15 0 10 -10 15 -33 15 -19 0 -37 -3 -40 -6z"/>
<path d="M10770 2235 c0 -10 11 -15 35 -15 24 0 35 5 35 15 0 10 -11 15 -35 15 -24 0 -35 -5 -35 -15z"/>
<path d="M11000 2235 c0 -10 11 -15 35 -15 24 0 35 5 35 15 0 10 -11 15 -35 15 -24 0 -35 -5 -35 -15z"/>
<path d="M6924 1764 c3 -9 6 -29 6 -45 l0 -29 365 0 365 0 0 23 c0 12 3 32 6 45 4 13 2 22 -5 22 -6 0 -11 -7 -11 -15 0 -13 -46 -15 -355 -15 -309 0 -355 2 -355 15 0 8 -5 15 -11 15 -6 0 -8 -7 -5 -16z"/>
<path d="M12212 1678 l3 -103 348 -3 347 -2 0 105 0 105 -350 0 -351 0 3 -102z"/>
<path d="M10740 1723 c0 -16 -3 -58 -7 -95 l-6 -68 62 0 61 0 0 58 c0 31 -3 74 -6 95 -7 37 -7 37 -55 37 -47 0 -49 -1 -49 -27z"/>
<path d="M11476 1698 c-3 -29 -6 -72 -6 -95 l0 -43 60 0 c69 0 66 -7 53 123 l-6 67 -47 0 -47 0 -7 -52z"/>
<path d="M12930 1725 c-1 0 -2 -26 -4 -57 l-3 -58 39 0 38 0 0 54 0 54 -35 4 c-19 2 -35 4 -35 3z m37 -61 c-3 -3 -12 -4 -19 -1 -8 3 -5 6 6 6 11 1 17 -2 13 -5z"/>
<path d="M10599 1708 c-1 -7 -1 -16 0 -20 0 -4 -4 -20 -11 -35 -6 -15 -13 -38 -14 -51 -2 -18 0 -21 10 -13 17 15 24 6 18 -24 l-4 -25 -630 -2 c-617 -3 -630 -3 -641 -23 -8 -13 -12 -78 -12 -192 l0 -173 100 0 c65 0 105 -4 113 -12 8 -8 12 -57 12 -155 l0 -143 1350 0 1350 0 0 34 c0 34 -1 35 -47 39 l-48 3 48 2 47 2 -2 248 -3 247 -25 3 c-40 5 -254 60 -353 92 -55 17 -121 30 -164 33 l-73 3 0 -83 0 -83 270 0 c172 0 270 -4 270 -10 0 -14 -2766 -14 -2775 0 -4 6 38 10 120 10 l126 0 -3 25 c-2 13 2 25 7 27 6 2 11 -9 13 -24 l3 -28 195 0 194 0 0 25 c0 14 5 25 10 25 6 0 10 -11 10 -25 l0 -25 291 0 292 0 -5 105 c-3 61 -1 108 5 114 6 6 4 22 -7 44 -9 19 -16 42 -16 50 0 20 -20 33 -21 15z m208 -736 c-1 -70 -3 -12 -3 128 0 140 2 198 3 127 2 -70 2 -184 0 -255z m163 127 c0 -134 -3 -245 -5 -248 -3 -2 -5 110 -5 249 0 139 3 251 6 248 3 -3 5 -115 4 -249z m166 1 c-1 -132 -5 -243 -9 -246 -4 -4 -7 106 -7 245 0 155 4 250 9 246 6 -3 9 -103 7 -245z m164 -1 c0 -164 -3 -248 -10 -244 -6 4 -10 98 -10 251 0 156 4 244 10 244 6 0 10 -90 10 -251z m160 0 c0 -152 -4 -248 -9 -244 -11 6 -15 477 -5 488 4 4 9 7 11 7 2 0 3 -113 3 -251z m-1312 -1 l2 -238 -22 -5 c-13 -3 -57 -5 -98 -3 l-75 3 -3 243 -2 243 97 -3 98 -3 3 -237z m239 -131 c-1 -67 -3 -9 -3 128 0 138 2 192 3 122 2 -71 2 -183 0 -250z m191 131 l2 -238 -23 -5 c-13 -4 -48 -5 -78 -3 l-54 3 -8 228 c-5 125 -6 234 -3 243 5 12 21 14 83 12 l78 -3 3 -237z m69 -131 c-1 -67 -3 -9 -3 128 0 138 2 192 3 122 2 -71 2 -183 0 -250z m973 133 c0 -158 -3 -240 -10 -240 -6 0 -10 82 -10 240 0 142 4 240 9 240 6 0 10 -98 11 -240z m230 -5 l0 -245 -94 0 c-76 0 -95 3 -100 16 -8 21 -8 459 1 467 3 4 48 7 100 7 l93 0 0 -245z m198 4 l-3 -241 -85 0 -85 -1 -3 241 -2 242 90 0 90 0 -2 -241z m-1288 21 c0 -5 -16 -10 -35 -10 -19 0 -35 5 -35 10 0 6 16 10 35 10 19 0 35 -4 35 -10z m160 0 c0 -5 -15 -11 -32 -11 l-33 -2 35 -7 35 -7 -36 -2 c-29 -1 -38 3 -42 19 -4 17 0 20 34 20 21 0 39 -4 39 -10z m167 -10 c-1 -17 -8 -20 -42 -19 -38 1 -39 2 -10 9 23 6 25 8 8 9 -41 2 -36 21 6 21 34 0 40 -3 38 -20z m153 10 c0 -5 -12 -11 -27 -11 l-28 -1 30 -8 30 -8 -35 -2 -35 -3 33 -4 c31 -4 32 -6 32 -49 0 -44 0 -44 -35 -44 l-35 0 0 70 0 70 35 0 c19 0 35 -4 35 -10z m170 -60 l0 -70 -35 0 -35 0 0 70 0 70 35 0 35 0 0 -70z m155 61 c-6 -5 -21 -11 -35 -14 -23 -4 -23 -4 5 -7 l30 -3 -35 -7 -35 -7 35 -3 35 -3 -35 -7 -35 -7 33 -2 c30 -1 32 -3 32 -36 0 -33 -2 -35 -32 -32 l-33 2 -3 68 -3 67 43 0 c25 0 38 -4 33 -9z m-817 -28 c-10 -2 -28 -2 -40 0 -13 2 -5 4 17 4 22 1 32 -1 23 -4z m12 -56 l0 -43 -35 4 c-39 5 -48 21 -12 23 21 1 21 1 -3 9 -23 7 -23 8 10 10 l35 3 -35 7 -35 7 35 3 35 3 -35 7 -35 7 38 2 37 1 0 -43z m148 36 c-10 -2 -28 -2 -40 0 -13 2 -5 4 17 4 22 1 32 -1 23 -4z m180 -35 c-3 -40 -5 -43 -35 -46 -26 -3 -33 1 -34 15 -1 10 -2 30 -3 46 -3 25 0 27 36 27 l39 0 -3 -42z m-170 -13 c3 -34 1 -35 -33 -35 -33 0 -35 2 -35 35 0 33 2 35 33 35 31 0 33 -3 35 -35z"/>
<path d="M9960 1100 l0 -230 85 0 85 0 0 230 0 230 -85 0 -85 0 0 -230z"/>
<path d="M10430 1100 l0 -230 65 0 65 0 0 230 0 230 -65 0 -65 0 0 -230z m100 20 c0 -5 -16 -10 -35 -10 -19 0 -35 5 -35 10 0 6 16 10 35 10 19 0 35 -4 35 -10z m-17 -27 c-13 -2 -33 -2 -45 0 -13 2 -3 4 22 4 25 0 35 -2 23 -4z m2 -23 l-20 -9 20 -2 c12 -1 6 -5 -15 -9 l-35 -7 31 -2 c25 -1 31 -5 30 -21 0 -11 -4 -20 -8 -20 -5 0 -19 0 -33 0 -22 0 -25 4 -25 40 0 40 0 40 38 39 30 0 33 -2 17 -9z"/>
<path d="M10478 1023 c6 -2 18 -2 25 0 6 3 1 5 -13 5 -14 0 -19 -2 -12 -5z"/>
<path d="M11670 1100 l0 -230 85 0 85 0 0 230 0 230 -85 0 -85 0 0 -230z"/>
<path d="M11887 1324 c-4 -4 -7 -108 -7 -230 l0 -224 80 0 80 0 0 230 0 230 -73 0 c-41 0 -77 -3 -80 -6z"/>
<path d="M11193 1063 c9 -2 23 -2 30 0 6 3 -1 5 -18 5 -16 0 -22 -2 -12 -5z"/>
<path d="M11188 1043 c7 -3 16 -2 19 1 4 3 -2 6 -13 5 -11 0 -14 -3 -6 -6z"/>
<path d="M11363 1083 c9 -2 23 -2 30 0 6 3 -1 5 -18 5 -16 0 -22 -2 -12 -5z"/>
<path d="M11358 1063 c6 -2 18 -2 25 0 6 3 1 5 -13 5 -14 0 -19 -2 -12 -5z"/>
<path d="M11513 1043 c9 -2 23 -2 30 0 6 3 -1 5 -18 5 -16 0 -22 -2 -12 -5z"/>
<path d="M11513 1023 c9 -2 23 -2 30 0 6 3 -1 5 -18 5 -16 0 -22 -2 -12 -5z"/>
<path d="M11038 1063 c6 -2 18 -2 25 0 6 3 1 5 -13 5 -14 0 -19 -2 -12 -5z"/>
<path d="M10868 1043 c6 -2 18 -2 25 0 6 3 1 5 -13 5 -14 0 -19 -2 -12 -5z"/>
<path d="M7890 1184 l0 -395 38 3 37 3 3 393 2 392 -40 0 -40 0 0 -396z"/>
<path d="M9210 1485 l0 -65 45 0 45 0 0 44 c0 26 6 48 15 56 27 22 16 30 -45 30 l-60 0 0 -65z m40 -6 c0 -5 -4 -9 -10 -9 -5 0 -10 7 -10 16 0 8 5 12 10 9 6 -3 10 -10 10 -16z"/>
<path d="M10673 1543 c-22 -4 -23 -9 -23 -84 l0 -79 155 0 155 0 0 80 0 80 -112 0 c-62 0 -122 2 -133 4 -11 2 -30 2 -42 -1z"/>
<path d="M12250 1290 l0 -260 310 0 310 0 2 208 c1 114 3 231 3 260 l1 52 -313 0 -313 0 0 -260z m305 120 l0 -105 -67 -3 -68 -3 0 104 c0 57 3 107 7 111 4 4 34 6 68 4 l60 -3 0 -105z m155 0 l0 -111 -67 3 -68 3 -3 94 c-1 52 -1 100 2 108 4 9 26 13 71 13 l65 0 0 -110z"/>
<path d="M10972 1463 l3 -78 153 -3 152 -3 0 81 0 80 -155 0 -156 0 3 -77z"/>
<path d="M11300 1460 l0 -80 150 0 150 0 0 80 0 80 -150 0 -150 0 0 -80z"/>
<path d="M12894 1401 c-2 -2 -4 -15 -4 -28 0 -23 1 -23 118 -23 l117 0 0 -97 0 -98 45 0 45 0 4 55 c2 41 5 50 11 35 8 -19 9 -19 9 2 1 12 -3 24 -8 27 -5 3 -12 27 -16 53 -13 87 -7 84 -171 81 -80 -2 -147 -5 -150 -7z"/>
<path d="M9259 1366 c-2 -2 -3 -52 -1 -110 3 -97 5 -106 23 -106 18 0 19 8 19 110 0 100 -2 110 -18 110 -10 0 -21 -2 -23 -4z"/>
<path d="M12890 1188 l0 -153 110 -3 110 -3 0 155 0 156 -110 0 -110 0 0 -152z"/>
<path d="M8960 1015 c0 -113 -2 -135 -15 -135 -18 0 -20 -16 -2 -23 17 -6 10 -72 -9 -88 -8 -6 -14 -29 -14 -50 0 -34 -3 -39 -24 -39 -13 0 -26 6 -29 13 -3 8 -21 11 -56 9 l-51 -4 0 -59 0 -59 49 0 c34 0 51 4 55 15 3 8 17 15 31 15 20 0 25 -5 25 -25 0 -16 6 -25 15 -25 11 0 15 -13 15 -54 0 -46 -3 -56 -20 -61 -11 -3 -20 -15 -20 -26 0 -16 7 -19 40 -19 39 0 40 1 40 35 l0 35 88 0 87 0 -3 60 -4 60 -84 0 -84 0 0 -52 c0 -29 -5 -60 -11 -68 -7 -11 -8 88 -4 333 5 250 4 347 -4 347 -7 0 -11 -43 -11 -135z"/>
<path d="M9170 1140 c-12 -7 -16 -41 -20 -162 l-5 -153 -77 -3 -78 -3 0 -44 0 -45 70 -1 c39 -1 76 -2 83 -3 8 -1 12 15 13 47 0 26 4 50 7 54 4 3 7 -71 7 -166 l0 -172 26 3 c22 3 37 22 97 136 l71 132 1872 0 1872 0 70 -132 c60 -115 72 -133 95 -136 22 -3 27 1 27 18 0 12 -5 30 -10 41 -7 13 -7 19 0 19 6 0 10 46 10 125 l0 125 -2027 1 c-1116 1 -2044 2 -2063 3 l-35 1 0 150 0 150 39 0 40 0 0 -140 c1 -137 1 -140 24 -143 22 -3 22 -3 22 142 0 139 -1 146 -20 146 -11 0 -20 5 -20 10 0 13 -70 13 -90 0z"/>
<path d="M13175 1141 l-50 -6 -3 -147 -3 -148 51 0 50 0 0 70 c0 40 4 70 10 70 6 0 10 8 10 18 0 14 -2 15 -10 2 -7 -10 -10 7 -10 58 l0 73 38 -3 37 -3 7 -160 c4 -88 8 -177 10 -198 l3 -38 83 -2 82 -2 0 51 c0 42 -3 51 -17 51 -10 -1 -46 0 -80 1 l-63 2 0 148 c0 102 -4 152 -12 160 -12 12 -47 13 -133 3z"/>
<path d="M13491 998 c0 -84 4 -173 8 -198 l7 -45 9 50 c4 28 13 53 19 58 7 5 5 11 -6 18 -16 9 -18 27 -18 139 0 80 -4 130 -10 130 -6 0 -10 -57 -9 -152z"/>
<path d="M9318 985 l3 -145 104 0 104 0 -5 133 c-2 72 -4 138 -4 145 0 9 -27 12 -102 12 l-103 0 3 -145z"/>
<path d="M12250 930 l0 -90 310 0 310 0 0 90 0 90 -290 0 c-183 0 -290 -4 -290 -10 0 -6 6 -10 13 -10 6 0 4 -5 -5 -11 -14 -8 -18 -23 -18 -64 l0 -55 139 0 140 0 4 38 4 37 1 -37 2 -38 146 0 c94 0 143 -4 139 -10 -4 -6 -114 -10 -297 -10 l-290 0 3 85 c3 63 1 85 -8 85 -10 0 -13 -25 -13 -90z m300 60 c0 -5 -4 -10 -10 -10 -5 0 -10 5 -10 10 0 6 5 10 10 10 6 0 10 -4 10 -10z m40 -1 c0 -5 -4 -7 -10 -4 -5 3 -10 -2 -10 -11 0 -10 -3 -15 -6 -11 -9 9 3 37 16 37 5 0 10 -5 10 -11z m266 -44 c-4 -77 -16 -82 -16 -7 0 34 4 62 10 62 5 0 8 -25 6 -55z"/>
<path d="M12890 930 l0 -90 110 0 110 0 0 90 0 90 -110 0 -110 0 0 -90z m128 63 c-10 -2 -28 -2 -40 0 -13 2 -5 4 17 4 22 1 32 -1 23 -4z m0 -30 c-10 -2 -28 -2 -40 0 -13 2 -5 4 17 4 22 1 32 -1 23 -4z m0 -20 c-10 -2 -28 -2 -40 0 -13 2 -5 4 17 4 22 1 32 -1 23 -4z"/>
<path d="M7660 775 c0 -12 15 -15 75 -15 60 0 75 3 75 15 0 12 -15 15 -75 15 -60 0 -75 -3 -75 -15z"/>
<path d="M13536 755 c4 -8 8 -15 10 -15 2 0 4 7 4 15 0 8 -4 15 -10 15 -5 0 -7 -7 -4 -15z"/>
<path d="M9380 737 c-20 -10 15 -13 195 -17 l220 -5 3 -27 3 -26 189 -2 c213 -1 238 3 242 33 3 22 6 22 218 25 229 3 267 -3 274 -42 22 -121 40 -177 59 -191 18 -13 89 -15 477 -15 350 0 460 3 472 13 12 9 17 37 21 105 3 69 9 98 21 110 14 15 49 17 251 20 l235 3 0 -24 c0 -22 5 -25 68 -30 92 -9 344 -8 358 1 7 4 13 16 15 27 4 19 13 20 207 23 156 2 203 5 199 15 -3 9 -159 12 -703 12 l-699 0 -3 -123 -3 -122 -432 2 -432 3 -3 122 -3 122 -27 -3 c-25 -3 -27 -7 -30 -49 -3 -41 -1 -46 15 -41 15 6 15 4 -2 -9 -11 -8 -16 -19 -12 -23 4 -5 12 -2 17 6 8 13 10 12 10 -2 0 -12 -8 -18 -22 -18 -22 0 -23 4 -23 67 l0 68 -675 2 c-505 1 -681 -1 -700 -10z"/>
<path d="M10850 628 l0 -118 70 0 71 0 -3 116 -3 116 -68 1 -67 2 0 -117z"/>
<path d="M11000 629 l0 -119 258 2 257 3 0 115 0 115 -257 2 -258 2 0 -120z"/>
<path d="M11534 741 c-2 -2 -4 -55 -4 -118 l0 -113 80 0 80 0 0 114 0 114 -76 4 c-42 2 -78 1 -80 -1z"/>
<path d="M7625 728 c36 -19 45 -40 45 -109 0 -97 1 -99 75 -99 48 0 64 4 69 16 3 9 6 58 6 110 0 77 -3 94 -15 94 -10 0 -15 -10 -15 -30 0 -29 -1 -30 -50 -30 -49 0 -50 1 -50 30 0 29 -2 30 -42 30 -37 -1 -40 -2 -23 -12z m175 -97 c0 -16 -3 -43 -6 -60 -6 -29 -9 -31 -49 -31 -47 0 -55 11 -55 83 l0 37 55 0 c54 0 55 -1 55 -29z"/>
<path d="M7706 642 c-3 -5 -2 -18 1 -30 4 -17 13 -22 39 -22 31 0 34 3 34 30 0 28 -3 30 -34 30 -19 0 -37 -4 -40 -8z"/>
<path d="M7710 715 c0 -22 4 -25 35 -25 31 0 35 3 35 25 0 22 -4 25 -35 25 -31 0 -35 -3 -35 -25z"/>
<path d="M7830 661 c0 -74 2 -81 20 -81 14 0 27 -15 45 -50 26 -52 52 -74 98 -85 20 -6 27 -4 27 8 0 9 -12 18 -29 22 -16 3 -35 14 -43 23 -14 16 -68 110 -68 118 0 12 42 2 46 -11 4 -11 21 -15 55 -15 l49 0 0 60 0 60 -55 0 c-42 0 -55 -3 -55 -15 0 -8 -7 -15 -15 -15 -8 0 -15 -4 -15 -10 0 -5 -3 -10 -7 -10 -5 0 -8 17 -8 37 0 32 -4 39 -22 41 -22 3 -23 1 -23 -77z"/>
<path d="M8990 655 l0 -55 85 0 85 0 0 55 0 55 -85 0 -85 0 0 -55z"/>
<path d="M9535 691 c-46 -22 -36 -25 34 -10 34 7 66 7 96 1 54 -11 58 -6 10 14 -46 19 -92 17 -140 -5z"/>
<path d="M10353 696 c-45 -20 -41 -26 8 -15 26 6 62 6 101 -1 65 -12 82 -8 48 10 -36 19 -121 22 -157 6z"/>
<path d="M12013 697 c-55 -21 -46 -25 44 -20 100 5 127 -4 158 -54 20 -32 21 -32 101 -33 82 0 104 -9 104 -42 0 -15 9 -18 60 -18 51 0 60 3 60 18 0 34 21 42 106 42 74 0 83 2 89 20 3 11 13 27 22 35 22 22 13 26 -31 14 -24 -7 -128 -9 -270 -7 -228 3 -232 3 -290 31 -62 29 -102 33 -153 14z"/>
<path d="M12811 694 c-44 -20 -35 -26 22 -15 26 4 66 5 89 0 24 -4 52 -8 63 -8 16 0 15 3 -8 15 -42 23 -125 27 -166 8z"/>
<path d="M13312 658 c3 -46 6 -53 26 -56 29 -4 83 29 116 73 l27 35 -86 0 -86 0 3 -52z"/>
<path d="M13610 693 c0 -6 -6 -14 -12 -17 -15 -6 40 -58 85 -82 34 -18 40 -8 35 62 l-3 49 -52 0 c-34 0 -53 -4 -53 -12z"/>
<path d="M7140 685 c0 -8 5 -15 10 -15 6 0 10 7 10 15 0 8 -4 15 -10 15 -5 0 -10 -7 -10 -15z"/>
<path d="M7180 685 c0 -12 13 -15 60 -15 47 0 60 3 60 15 0 12 -13 15 -60 15 -47 0 -60 -3 -60 -15z"/>
<path d="M7430 684 c0 -10 14 -14 52 -14 60 0 54 15 -9 23 -33 4 -43 2 -43 -9z"/>
<path d="M10630 670 c0 -10 -30 -11 -145 -5 l-144 7 -31 -30 c-20 -20 -30 -40 -30 -60 0 -65 12 -62 -259 -62 -265 0 -271 1 -271 52 0 35 -18 75 -39 85 -9 4 -89 7 -178 8 l-163 0 -6 -44 c-4 -24 -2 -73 5 -110 9 -56 8 -68 -4 -77 -32 -24 -15 -34 55 -34 49 0 81 -6 103 -17 31 -17 17 -18 -410 -21 l-443 -2 0 -30 0 -30 2570 0 2570 0 0 30 0 30 -136 0 c-127 0 -136 -1 -141 -20 -3 -11 -9 -20 -13 -20 -4 0 -10 9 -13 20 -5 19 -14 20 -294 20 l-288 1 35 19 c26 14 56 19 113 20 60 0 77 3 77 14 0 8 -9 18 -21 21 -16 5 -19 12 -14 28 14 42 17 174 5 197 -16 29 -23 19 -24 -33 -1 -35 -4 -42 -21 -42 -17 0 -20 -8 -22 -54 -2 -64 -20 -111 -42 -111 -10 0 -12 3 -5 8 22 15 34 52 34 108 0 75 -14 62 -39 -36 -14 -53 -20 -66 -20 -43 -1 18 8 57 20 88 19 52 22 55 55 55 31 0 34 3 34 29 l0 28 -133 7 c-179 9 -199 1 -214 -89 l-8 -50 -255 0 -254 0 -8 42 c-16 98 -41 108 -218 97 -71 -5 -130 -6 -130 -1 0 19 -30 4 -36 -18 -7 -29 0 -159 11 -192 6 -19 4 -23 -15 -23 -13 0 -20 -5 -17 -12 2 -9 27 -13 73 -14 50 0 80 -6 109 -22 l40 -21 -785 0 c-779 0 -785 0 -750 19 25 14 56 19 108 20 57 0 72 3 72 15 0 8 -7 15 -16 15 -13 0 -15 6 -10 28 4 15 10 63 13 107 5 73 3 82 -16 99 -14 13 -21 15 -21 6z m-1187 -72 c30 -3 34 -8 53 -66 12 -35 25 -64 30 -65 5 -1 11 32 14 73 l5 75 52 3 c77 4 89 -6 97 -79 4 -44 13 -70 28 -86 21 -23 22 -23 295 -23 l274 0 24 25 c21 20 25 34 25 84 0 50 3 62 20 71 11 6 26 8 32 4 6 -4 17 1 23 10 11 14 13 15 19 1 3 -8 17 -15 31 -15 27 0 30 -7 26 -92 -2 -58 23 -69 35 -16 3 18 14 48 22 65 13 27 21 33 48 33 26 0 34 5 37 23 4 15 5 12 4 -8 -2 -27 -5 -30 -32 -27 -27 2 -33 -2 -48 -33 -9 -19 -20 -54 -23 -78 -4 -23 -13 -48 -22 -54 -20 -17 -168 -18 -178 -2 -5 9 6 10 42 6 62 -7 136 4 142 21 3 11 -13 13 -77 10 -50 -2 -81 1 -81 7 0 6 24 9 60 7 l60 -4 0 67 0 66 -62 -3 -63 -3 -6 -69 c-7 -88 -26 -106 -107 -106 -30 0 -53 -3 -50 -6 4 -3 28 -6 54 -6 42 0 124 -29 124 -43 0 -3 -163 -5 -362 -5 l-363 1 45 24 c29 16 64 25 100 26 46 2 48 3 15 6 -22 2 -50 6 -63 8 -33 8 -62 62 -62 117 0 37 -4 50 -19 58 -26 13 -31 13 -31 -4 0 -8 -5 -18 -12 -22 -8 -5 -9 0 -5 15 5 20 2 22 -26 19 l-32 -3 -3 -67 -3 -68 68 -2 68 -1 -77 -6 c-42 -3 -80 -10 -84 -14 -18 -18 25 -27 101 -21 58 4 76 2 65 -5 -21 -15 -153 -14 -172 2 -9 6 -18 30 -21 52 -2 22 -12 57 -21 78 -14 35 -18 38 -45 32 -33 -7 -44 9 -33 47 7 23 7 23 10 -4 3 -22 9 -27 35 -30z m2462 2 c29 0 35 -5 49 -40 9 -22 19 -58 22 -80 9 -56 21 -63 114 -58 44 2 80 0 80 -5 0 -4 -41 -6 -91 -5 -104 3 -99 -1 -125 102 -13 54 -19 65 -27 51 -11 -21 -2 -102 14 -121 9 -11 8 -14 0 -14 -17 0 -31 45 -31 101 0 46 -2 49 -25 49 -22 0 -25 4 -24 33 1 23 3 26 6 10 4 -18 11 -23 38 -23z m239 1 c11 -9 16 -31 16 -66 0 -37 6 -60 19 -76 l19 -24 276 -3 276 -3 23 24 c18 17 26 40 31 85 8 71 23 85 84 80 l37 -3 3 -62 c3 -67 1 -69 -53 -63 -27 3 -35 17 -35 62 l0 37 40 -3 c23 -2 39 1 38 6 -2 5 -7 9 -11 9 -4 -1 -25 -1 -47 -1 -40 0 -40 0 -40 -37 0 -57 -18 -111 -43 -128 -12 -8 -44 -15 -72 -16 -44 0 -47 -2 -25 -10 14 -6 39 -8 55 -6 21 4 43 -2 70 -19 l40 -24 -365 1 -365 0 45 24 c27 14 55 21 70 18 14 -2 36 0 49 5 21 7 16 10 -35 15 -75 8 -94 28 -94 101 0 64 -7 74 -54 81 -35 6 -37 5 -31 -14 5 -16 3 -20 -9 -15 -9 3 -16 1 -16 -5 0 -6 5 -11 12 -11 9 0 9 -3 0 -12 -32 -32 8 -70 45 -43 17 13 17 14 -2 36 -17 20 -18 22 -2 16 9 -4 17 -2 17 3 0 5 -8 13 -17 19 -16 9 -15 10 5 8 19 -1 22 -7 22 -45 0 -35 -4 -45 -20 -49 -30 -8 -24 -23 10 -23 17 0 30 -3 30 -8 0 -6 -67 -8 -127 -3 -9 1 -13 22 -13 69 0 41 5 73 13 81 15 16 109 10 131 -8z m818 -71 l3 -70 -75 2 -75 2 68 3 69 4 -4 64 c-2 36 0 65 4 65 3 0 8 -32 10 -70z m-3374 53 c-31 -8 -19 -23 17 -23 19 0 35 5 35 11 0 5 4 8 8 5 4 -2 6 -23 4 -46 l-4 -41 -42 3 -41 3 -3 48 c-3 44 -1 47 20 46 17 -1 18 -3 6 -6z m880 -40 c3 -46 -12 -62 -58 -58 -21 1 -25 7 -28 39 -5 58 2 68 45 64 37 -3 38 -4 41 -45z m-988 -108 c13 -16 13 -18 0 -13 -19 6 -39 61 -39 109 -1 63 14 53 19 -14 3 -35 12 -72 20 -82z m1116 88 c-7 -60 -28 -103 -49 -103 -6 0 -3 7 8 15 14 12 20 31 23 80 2 36 9 65 15 65 6 0 7 -21 3 -57z m-1171 -83 c3 -5 1 -10 -4 -10 -6 0 -11 5 -11 10 0 6 2 10 4 10 3 0 8 -4 11 -10z m1195 0 c0 -5 -4 -10 -10 -10 -5 0 -10 5 -10 10 0 6 5 10 10 10 6 0 10 -4 10 -10z m1280 0 c0 -5 -4 -10 -10 -10 -5 0 -10 5 -10 10 0 6 5 10 10 10 6 0 10 -4 10 -10z m1180 0 c0 -5 -4 -10 -10 -10 -5 0 -10 5 -10 10 0 6 5 10 10 10 6 0 10 -4 10 -10z m-110 -22 c0 -5 -40 -8 -90 -8 -49 0 -90 3 -90 8 0 4 40 7 90 7 49 0 90 -3 90 -7z"/>
<path d="M12028 602 c-15 -3 -18 -15 -18 -68 l0 -65 28 5 c39 6 39 6 15 16 -19 8 -23 17 -23 54 0 26 5 46 13 49 17 6 5 14 -15 9z"/>
<path d="M12855 562 c3 -7 5 -25 5 -38 0 -19 5 -24 25 -24 33 0 43 26 19 46 -17 14 -17 15 -1 10 9 -3 17 -2 17 3 0 5 -16 11 -35 13 -27 3 -34 1 -30 -10z"/>
<path d="M9570 524 c0 -23 3 -25 33 -22 24 2 33 8 35 26 3 19 -1 22 -32 22 -32 0 -36 -3 -36 -26z"/>
<path d="M10397 573 c-4 -3 -7 -22 -7 -40 0 -33 2 -34 32 -31 46 4 50 34 6 47 l-33 9 33 1 c19 1 31 5 27 11 -7 11 -48 14 -58 3z"/>
<path d="M9738 646 c12 -16 22 -35 22 -42 0 -11 20 -14 84 -14 87 0 116 -12 116 -46 0 -10 14 -14 54 -14 48 0 56 3 62 23 10 33 21 37 109 37 l81 0 17 37 c9 20 15 38 13 40 -1 2 -16 -2 -33 -7 -37 -13 -499 -9 -528 5 -18 8 -18 7 3 -19z"/>
<path d="M9768 574 c-12 -11 5 -44 23 -44 14 0 19 7 19 25 0 18 -5 25 -18 25 -10 0 -21 -3 -24 -6z"/>
<path d="M9827 573 c-4 -3 -7 -15 -7 -25 0 -16 9 -18 65 -18 67 0 77 7 49 34 -15 16 -94 23 -107 9z"/>
<path d="M10120 571 c-24 -3 -39 -16 -40 -33 0 -5 29 -8 65 -8 53 0 63 3 59 15 -4 8 -1 15 5 15 6 0 11 -7 11 -16 0 -10 7 -14 23 -12 14 2 22 10 22 23 0 18 -7 20 -60 20 -33 0 -71 -2 -85 -4z"/>
<path d="M12230 559 c0 -26 21 -35 33 -13 12 22 9 28 -15 29 -11 1 -18 -5 -18 -16z"/>
<path d="M12290 554 c0 -23 3 -24 60 -24 47 0 60 3 60 15 0 18 -9 22 -72 28 -45 4 -48 3 -48 -19z"/>
<path d="M12568 573 c-10 -2 -18 -13 -18 -24 0 -17 7 -19 60 -19 57 0 60 1 60 25 0 23 -4 25 -42 24 -24 -1 -51 -3 -60 -6z"/>
<path d="M12687 574 c-11 -11 7 -45 22 -42 24 5 26 43 2 45 -10 1 -21 -1 -24 -3z"/>
<path d="M7347 563 c-4 -3 -7 -30 -7 -60 l0 -53 55 0 c33 0 55 4 55 11 0 6 -12 10 -27 9 -55 -4 -79 3 -33 9 40 5 45 9 48 34 2 16 -2 35 -9 43 -12 14 -70 20 -82 7z m67 -19 c19 -19 20 -26 4 -42 -30 -30 -78 0 -58 37 13 25 33 27 54 5z"/>
<path d="M7373 539 c-16 -16 -5 -39 17 -39 25 0 35 18 20 35 -15 18 -22 19 -37 4z"/>
<path d="M13308 505 l-4 -35 66 0 c45 0 60 3 50 10 -8 5 -24 7 -35 4 -16 -5 -18 -4 -8 7 10 10 7 16 -15 31 -39 26 -49 23 -54 -17z"/>
<path d="M10110 160 l0 -90 40 0 c33 0 42 4 52 25 8 18 8 32 1 48 -6 13 -9 35 -6 50 7 36 -12 57 -53 57 l-34 0 0 -90z m65 45 c0 -13 -8 -21 -22 -23 -19 -3 -23 1 -23 23 0 22 4 26 23 23 14 -2 22 -10 22 -23z m0 -85 c0 -18 -6 -26 -22 -28 -20 -3 -23 1 -23 28 0 27 3 31 23 28 16 -2 22 -10 22 -28z"/>
<path d="M10320 160 l0 -90 38 0 c21 0 43 5 50 12 15 15 16 60 1 75 -8 8 -8 13 0 17 15 9 14 49 -1 64 -7 7 -29 12 -50 12 l-38 0 0 -90z m68 42 c3 -18 -1 -22 -22 -22 -19 0 -26 5 -26 18 0 39 43 43 48 4z m7 -82 c0 -20 -5 -25 -25 -25 -20 0 -26 6 -28 28 -3 26 -1 28 25 25 22 -2 28 -8 28 -28z"/>
<path d="M10500 160 l0 -90 45 0 c25 0 45 5 45 10 0 6 -13 10 -29 10 -28 0 -28 0 -35 80 -4 44 -12 80 -17 80 -5 0 -9 -40 -9 -90z"/>
<path d="M10700 160 c0 -53 4 -90 10 -90 6 0 10 18 10 40 0 38 2 40 30 40 28 0 30 -2 30 -41 0 -28 4 -39 13 -36 8 2 12 29 12 87 0 58 -4 85 -12 88 -9 2 -13 -8 -13 -32 0 -33 -2 -36 -30 -36 -28 0 -30 3 -30 35 0 19 -4 35 -10 35 -6 0 -10 -37 -10 -90z"/>
<path d="M10926 235 c-3 -8 -12 -15 -21 -15 -8 0 -15 -4 -15 -10 0 -5 9 -10 20 -10 18 0 20 -7 20 -65 0 -37 4 -65 10 -65 6 0 10 37 10 90 0 83 -9 112 -24 75z"/>
<path d="M11016 234 c-19 -19 -22 -134 -4 -152 17 -17 53 -15 68 3 18 22 18 128 1 149 -17 20 -45 21 -65 0z m52 -72 c2 -50 0 -64 -13 -68 -9 -4 -18 -4 -22 -1 -12 13 -15 95 -3 116 20 37 35 19 38 -47z"/>
<path d="M11130 235 c-17 -20 -24 -84 -13 -125 7 -29 14 -36 38 -38 19 -3 33 2 42 14 19 26 17 129 -3 148 -19 20 -48 20 -64 1z m50 -24 c12 -24 13 -91 1 -110 -5 -8 -16 -11 -25 -8 -12 5 -16 20 -16 65 0 32 3 62 7 65 11 12 22 8 33 -12z"/>
<path d="M11246 234 c-11 -10 -16 -34 -16 -70 0 -71 12 -94 50 -94 26 0 31 5 40 42 12 43 6 104 -12 126 -14 17 -43 15 -62 -4z m52 -72 c2 -50 0 -63 -14 -69 -9 -3 -20 0 -25 8 -12 19 -11 86 2 110 19 36 34 15 37 -49z"/>
<path d="M11350 160 c0 -53 4 -90 10 -90 6 0 10 22 10 49 0 28 6 53 13 60 21 16 27 3 27 -56 0 -40 4 -53 15 -53 11 0 15 13 15 53 0 63 -17 93 -49 84 -17 -4 -21 -1 -21 19 0 13 -4 24 -10 24 -6 0 -10 -37 -10 -90z"/>
<path d="M11640 230 c-16 -30 -3 -59 36 -77 42 -21 49 -63 10 -63 -15 0 -26 7 -29 20 -6 25 -27 26 -27 2 0 -27 20 -42 57 -42 66 0 67 72 3 105 -33 17 -39 42 -14 52 10 4 22 -1 30 -12 17 -23 33 -11 18 13 -17 26 -70 28 -84 2z"/>
<path d="M11920 235 c0 -9 5 -15 11 -13 6 2 11 8 11 13 0 5 -5 11 -11 13 -6 2 -11 -4 -11 -13z"/>
<path d="M12147 243 c-4 -3 -7 -44 -7 -90 0 -66 3 -83 15 -83 10 0 15 15 17 58 2 43 7 57 18 57 11 0 16 -14 18 -57 4 -76 22 -75 22 1 0 61 -16 89 -45 77 -11 -4 -15 1 -15 19 0 24 -10 32 -23 18z"/>
<path d="M11979 233 c-1 -5 -1 -11 0 -15 0 -5 -3 -8 -9 -8 -5 0 -10 -7 -10 -15 0 -8 5 -15 10 -15 6 0 10 -25 10 -55 0 -48 2 -55 20 -55 11 0 20 5 20 10 0 6 -4 10 -10 10 -14 0 -12 84 2 98 9 9 9 12 0 12 -7 0 -12 9 -12 20 0 18 -19 29 -21 13z"/>
<path d="M11470 113 c0 -56 4 -93 10 -93 6 0 10 11 10 25 0 20 5 25 25 25 28 0 45 25 45 67 0 43 -25 73 -60 70 l-30 -2 0 -92z m60 21 c0 -38 -3 -45 -17 -42 -22 4 -30 62 -13 84 19 22 30 7 30 -42z"/>
<path d="M11756 202 c-3 -5 -1 -24 3 -43 5 -19 12 -46 15 -61 10 -42 32 -34 41 15 l8 42 12 -39 c13 -44 31 -57 38 -29 25 94 29 114 23 120 -10 11 -23 -14 -31 -61 l-7 -41 -12 48 c-6 27 -15 49 -21 50 -5 1 -15 -18 -21 -43 l-12 -45 -7 43 c-8 42 -19 60 -29 44z"/>
<path d="M11920 140 c0 -40 4 -70 10 -70 6 0 10 30 10 70 0 40 -4 70 -10 70 -6 0 -10 -30 -10 -70z"/>
<path d="M12053 198 c-18 -22 -24 -73 -13 -102 8 -23 15 -27 42 -24 25 2 34 8 36 26 4 26 -6 29 -23 5 -18 -24 -35 -7 -35 37 0 45 15 60 35 34 16 -23 34 -10 19 14 -14 21 -47 27 -61 10z"/>
<path d="M12273 198 c-16 -21 -23 -76 -13 -103 7 -19 17 -25 40 -25 18 0 33 6 37 15 8 22 -4 30 -21 16 -17 -15 -36 -7 -36 15 0 9 11 14 30 14 27 0 30 3 30 30 0 40 -45 66 -67 38z m45 -31 c2 -12 -3 -17 -17 -17 -12 0 -21 6 -21 13 0 31 32 34 38 4z"/>
<path d="M12370 141 c0 -41 4 -71 10 -71 6 0 10 23 10 51 0 42 3 52 20 56 11 3 20 12 20 19 0 16 -16 19 -25 4 -5 -8 -11 -7 -21 1 -12 10 -14 0 -14 -60z"/>
<path d="M10232 138 c5 -15 57 -18 61 -3 1 6 -13 11 -32 13 -24 3 -32 0 -29 -10z"/>
<path d="M10610 134 c0 -11 5 -14 16 -10 9 3 25 6 35 6 11 0 17 5 14 10 -11 17 -65 12 -65 -6z"/>
</g>
</svg>