<svg xmlns="http://www.w3.org/2000/svg" viewBox="14.40 435.50 453.70 139.40">
<g transform="translate(0.000000,768.000000) scale(0.100000,-0.100000)" fill="currentColor" stroke="none">
<path d="M1910 3271 c-41 -4 -109 -17 -150 -29 -41 -11 -111 -24 -155 -28 -44 -3 -99 -13 -122 -21 -38 -12 -49 -12 -95 2 -66 19 -122 19 -182 -1 -45 -15 -50 -15 -81 2 -33 18 -34 17 -129 -14 -53 -18 -106 -32 -120 -32 -44 0 -84 -12 -105 -31 -18 -17 -36 -19 -146 -19 -118 0 -125 -1 -125 -20 0 -11 6 -20 13 -20 9 0 11 -46 9 -205 -2 -122 -7 -205 -12 -205 -6 0 -10 5 -10 10 0 16 -42 12 -62 -7 -17 -15 -19 -15 -37 1 -13 12 -32 16 -58 14 -37 -3 -38 -4 -41 -45 l-3 -43 50 0 c41 0 51 3 56 21 4 11 9 18 13 15 6 -7 -32 -81 -57 -110 -9 -10 -27 -23 -41 -28 -14 -6 -20 -12 -13 -15 25 -9 75 29 94 73 11 24 24 44 29 44 5 0 11 8 13 18 4 16 5 16 6 0 1 -15 11 -18 61 -18 53 0 60 -2 60 -20 0 -18 7 -20 55 -20 l55 0 0 37 c0 35 1 36 15 17 14 -18 16 -18 25 -2 6 10 21 23 33 28 20 10 20 10 5 -3 -21 -16 -24 -32 -5 -21 7 4 9 3 4 -2 -5 -5 -14 -9 -20 -9 -17 0 -31 -48 -23 -80 4 -15 20 -40 36 -56 l28 -29 -244 0 -244 0 0 -30 0 -30 2170 0 2170 0 0 24 c0 23 -4 25 -82 31 -46 4 -163 5 -261 3 -151 -2 -174 -1 -148 10 36 14 71 65 71 103 0 36 -34 77 -73 88 -24 7 -26 9 -10 10 12 1 35 -10 51 -24 40 -34 50 -32 55 13 l4 37 1 -38 2 -39 50 4 c30 2 49 -1 47 -7 -5 -15 -76 -18 -93 -4 -11 9 -14 7 -14 -10 0 -19 6 -21 60 -21 53 0 60 2 60 20 0 18 7 20 78 20 l78 0 19 -42 c23 -48 64 -82 91 -76 15 3 11 8 -17 20 -26 11 -43 30 -64 69 -16 31 -21 48 -12 41 9 -8 34 -12 59 -10 43 3 43 3 43 42 0 39 0 39 -43 43 -32 3 -47 0 -55 -11 -11 -14 -15 -14 -41 -1 -32 17 -63 20 -68 6 -1 -5 -19 -11 -38 -13 -19 -1 -38 -10 -42 -18 -5 -13 -7 -12 -7 2 -1 9 4 20 9 23 6 4 10 82 10 201 l0 195 -240 -2 -240 -1 -2 -196 c-1 -109 -3 -180 -5 -159 l-4 37 -129 0 c-93 0 -130 -3 -133 -12 -3 -7 -5 -4 -4 7 1 19 7 20 134 17 l133 -3 0 155 0 156 -130 0 -129 0 -4 -102 -3 -103 -2 103 c-2 83 -5 102 -17 102 -13 0 -15 -24 -15 -160 l0 -160 -112 2 -113 2 108 3 107 4 0 155 0 155 -136 -2 -135 -1 3 -193 c2 -106 0 -191 -4 -188 -5 2 -8 17 -8 33 l0 29 -117 4 -118 3 118 2 117 2 0 155 0 155 -110 0 -110 0 -2 -97 -2 -98 -5 95 c-5 79 -9 95 -23 98 -16 3 -18 -10 -21 -125 l-3 -128 -2 128 -2 128 -135 -2 -136 -1 3 -189 c2 -104 0 -189 -4 -189 -5 0 -8 14 -8 30 l0 30 -114 0 c-82 0 -116 -4 -120 -12 -4 -9 -5 -8 -5 2 1 8 1 86 0 173 -1 132 -3 157 -16 157 -13 0 -15 -25 -15 -162 l0 -163 -112 5 -113 5 108 3 107 3 0 154 0 155 -115 0 -114 0 -4 -157 -3 -158 -2 158 c-2 135 -4 157 -18 157 -13 0 -15 -24 -12 -194 2 -107 0 -192 -4 -189 -5 2 -8 17 -8 34 l0 29 -114 0 c-82 0 -116 -3 -119 -12 -2 -7 -4 1 -4 17 0 17 2 24 4 18 3 -10 37 -13 119 -13 l114 0 0 155 0 156 -136 -2 -135 -1 3 -193 c2 -106 0 -191 -4 -188 -5 2 -8 17 -8 34 l0 29 -114 0 c-111 0 -115 -1 -119 -22 -2 -13 -4 -5 -4 17 0 22 2 34 5 27 2 -8 36 -12 118 -12 l114 0 0 155 0 155 -114 0 -115 0 -4 -32 -4 -33 -1 33 c-1 21 -7 32 -17 32 -13 0 -15 -29 -17 -192 0 -106 -3 -178 -5 -160 l-4 32 -114 0 -114 0 -4 -37 c-2 -21 -4 51 -5 160 -2 168 -4 197 -17 197 -13 0 -15 -29 -17 -197 -1 -109 -3 -181 -5 -160 l-4 37 -124 0 -124 0 -4 -37 c-2 -21 -4 51 -5 160 -2 190 -3 197 -22 197 -19 0 -20 -7 -22 -192 0 -106 -3 -178 -5 -160 l-4 32 -215 0 -214 0 0 -57 c0 -31 -2 -54 -5 -51 -3 3 -7 103 -8 222 l-2 216 1930 0 c1928 0 1930 0 1933 20 3 19 -2 20 -116 20 -66 0 -122 3 -124 8 -1 4 -25 22 -52 40 -36 25 -55 32 -75 27 -45 -9 -167 12 -226 40 -53 25 -61 26 -106 15 -35 -9 -62 -9 -96 -2 -27 6 -68 13 -93 17 -25 3 -58 11 -75 16 -25 9 -41 7 -90 -12 -51 -19 -75 -23 -160 -20 -70 2 -112 -2 -140 -12 -45 -17 -278 -42 -294 -32 -6 3 -30 6 -54 6 -23 1 -76 8 -117 16 -41 9 -102 15 -135 15 -33 -1 -107 8 -165 20 -58 12 -130 22 -160 24 -30 1 -77 4 -105 7 -27 2 -84 2 -125 -2z m-1097 -168 c-7 -2 -21 -2 -30 0 -10 3 -4 5 12 5 17 0 24 -2 18 -5z m1310 0 c-7 -2 -21 -2 -30 0 -10 3 -4 5 12 5 17 0 24 -2 18 -5z m75 0 c-10 -2 -28 -2 -40 0 -13 2 -5 4 17 4 22 1 32 -1 23 -4z m115 0 c-13 -2 -35 -2 -50 0 -16 2 -5 4 22 4 28 0 40 -2 28 -4z m1005 0 c-10 -2 -26 -2 -35 0 -10 3 -2 5 17 5 19 0 27 -2 18 -5z m140 0 c-21 -2 -57 -2 -80 0 -24 2 -7 4 37 4 44 0 63 -2 43 -4z m140 0 c-16 -2 -40 -2 -55 0 -16 2 -3 4 27 4 30 0 43 -2 28 -4z m642 -196 c11 -5 9 -6 -4 -4 -11 1 -21 9 -23 17 -3 10 -2 11 4 4 4 -6 15 -14 23 -17z m-323 -94 c-3 -10 -5 -4 -5 12 0 17 2 24 5 18 2 -7 2 -21 0 -30z m-2280 -25 c-2 -13 -4 -5 -4 17 -1 22 1 32 4 23 2 -10 2 -28 0 -40z m1684 -22 c1 -37 -1 -69 -4 -72 -2 -3 -5 30 -6 72 -1 43 1 75 4 73 2 -3 5 -36 6 -73z m276 52 c-3 -8 -6 -5 -6 6 -1 11 2 17 5 13 3 -3 4 -12 1 -19z m638 -26 c-8 -8 -25 10 -25 26 0 13 2 13 14 -4 8 -10 13 -21 11 -22z m102 13 c-4 -8 -11 -15 -17 -15 -6 0 -6 7 2 20 14 22 24 19 15 -5z m-1456 -63 c75 2 119 -1 119 -7 0 -6 -43 -9 -117 -7 -77 2 -118 0 -123 -8 -4 -6 -7 11 -7 37 0 33 1 38 4 15 l4 -33 120 3z m1252 -4 l212 -3 -212 -2 -212 -3 -4 -38 c-2 -20 -4 -5 -4 33 0 39 2 58 4 43 l4 -28 212 -2z m-1936 -60 c-2 -13 -4 -5 -4 17 -1 22 1 32 4 23 2 -10 2 -28 0 -40z m246 12 c3 -11 1 -20 -4 -20 -5 0 -9 9 -9 20 0 11 2 20 4 20 2 0 6 -9 9 -20z m34 -22 c-3 -7 -5 -2 -5 12 0 14 2 19 5 13 2 -7 2 -19 0 -25z m286 7 c-7 -21 -13 -19 -13 6 0 11 4 18 10 14 5 -3 7 -12 3 -20z m247 -8 c0 -5 -4 -5 -10 -2 -5 3 -10 14 -10 23 0 15 2 15 10 2 5 -8 10 -19 10 -23z m1308 26 c-16 -2 -40 -2 -55 0 -16 2 -3 4 27 4 30 0 43 -2 28 -4z m-721 -25 c-3 -8 -6 -5 -6 6 -1 11 2 17 5 13 3 -3 4 -12 1 -19z m-1960 -4 c-3 -3 -12 -4 -19 -1 -8 3 -5 6 6 6 11 1 17 -2 13 -5z m-1045 -39 c-2 -14 -6 -25 -8 -25 -2 0 -4 11 -4 25 0 14 4 25 9 25 4 0 6 -11 3 -25z m168 18 c-35 -2 -68 -9 -72 -16 -5 -8 -8 -6 -8 6 0 15 9 17 73 15 l72 -2 -65 -3z m2753 0 l-703 -3 1 -53 c1 -28 3 -44 6 -34 4 16 32 17 381 19 l377 3 -380 5 -380 5 378 3 c362 2 380 3 404 22 14 11 31 20 37 20 6 -1 -1 -8 -16 -16 -16 -8 -28 -20 -28 -26 0 -7 5 -6 15 2 22 19 25 8 3 -13 -12 -11 -18 -13 -18 -5 0 9 -4 8 -10 -2 -21 -33 -11 -81 24 -116 l34 -34 -1175 0 -1176 0 26 20 c63 49 49 152 -23 177 -28 9 -30 12 -12 12 13 1 37 -12 54 -29 l30 -30 519 0 c339 0 519 -3 519 -10 0 -5 25 -10 55 -10 30 0 55 5 55 10 0 6 17 10 38 10 30 0 41 5 50 23 9 19 10 15 6 -21 l-4 -43 97 3 98 3 3 52 3 53 -982 0 c-540 0 -985 2 -987 5 -3 3 757 4 1689 3 932 -2 1378 -4 992 -5z m-2323 -29 c-20 -9 -53 -13 -80 -11 l-45 3 52 2 c28 1 55 7 58 12 3 6 16 10 28 10 17 -1 15 -4 -13 -16z m2544 7 c3 -4 -6 -6 -19 -3 -14 2 -25 6 -25 8 0 8 39 4 44 -5z m349 2 c-7 -2 -19 -2 -25 0 -7 3 -2 5 12 5 14 0 19 -2 13 -5z m274 -25 c-3 -7 -5 -2 -5 12 0 14 2 19 5 13 2 -7 2 -19 0 -25z m-3452 4 c-3 -3 -11 0 -18 7 -9 10 -8 11 6 5 10 -3 15 -9 12 -12z m98 1 c-13 -2 -35 -2 -50 0 -16 2 -5 4 22 4 28 0 40 -2 28 -4z m2774 1 c-3 -3 -12 -4 -19 -1 -8 3 -5 6 6 6 11 1 17 -2 13 -5z m81 -1 c-10 -2 -28 -2 -40 0 -13 2 -5 4 17 4 22 1 32 -1 23 -4z m100 0 c-16 -2 -40 -2 -55 0 -16 2 -3 4 27 4 30 0 43 -2 28 -4z m-2619 -67 c-1 -17 -2 -16 -9 7 -5 16 -12 34 -17 41 -4 6 0 3 10 -7 9 -11 17 -29 16 -41z m2832 47 c13 -16 12 -17 -3 -4 -17 13 -22 21 -14 21 2 0 10 -8 17 -17z m-3501 -14 c0 -5 -20 -9 -45 -9 -29 0 -45 4 -45 13 0 8 14 11 45 9 25 -2 45 -8 45 -13z m1472 14 c-144 -2 -380 -2 -525 0 -144 1 -26 2 263 2 289 0 407 -1 262 -2z m426 0 c-10 -2 -28 -2 -40 0 -13 2 -5 4 17 4 22 1 32 -1 23 -4z m-1658 -13 c0 -5 -5 -10 -11 -10 -5 0 -7 5 -4 10 3 6 8 10 11 10 2 0 4 -4 4 -10z m40 -16 c0 -12 -2 -12 -14 -2 -8 7 -12 16 -9 21 7 11 23 -2 23 -19z m117 20 c-3 -3 -12 -4 -19 -1 -8 3 -5 6 6 6 11 1 17 -2 13 -5z m93 2 c0 -2 -7 -7 -16 -10 -8 -3 -12 -2 -9 4 6 10 25 14 25 6z m2636 -8 c4 -7 4 -10 0 -6 -5 4 -20 2 -35 -3 -24 -9 -25 -8 -7 6 24 18 33 19 42 3z m234 -7 c0 -6 -4 -12 -8 -15 -5 -3 -9 1 -9 9 0 8 4 15 9 15 4 0 8 -4 8 -9z m-3010 -13 c0 -9 4 -8 10 2 8 13 10 12 10 -2 0 -22 -26 -24 -34 -3 -3 8 -1 15 4 15 6 0 10 -6 10 -12z m65 2 c3 -5 1 -10 -4 -10 -6 0 -11 5 -11 10 0 6 2 10 4 10 3 0 8 -4 11 -10z m2895 -20 c12 -23 12 -24 -3 -11 -10 7 -17 20 -17 29 0 18 3 16 20 -18z m-3055 2 c-3 -3 -11 0 -18 7 -9 10 -8 11 6 5 10 -3 15 -9 12 -12z m2662 -19 c-3 -10 -5 -4 -5 12 0 17 2 24 5 18 2 -7 2 -21 0 -30z m-2434 15 c-2 -5 -13 -8 -24 -8 -10 0 -19 3 -19 8 0 4 11 7 24 7 13 0 22 -3 19 -7z m-126 -30 c-3 -8 -6 -5 -6 6 -1 11 2 17 5 13 3 -3 4 -12 1 -19z m2910 0 c-3 -8 -6 -5 -6 6 -1 11 2 17 5 13 3 -3 4 -12 1 -19z m-3082 2 c-3 -5 -12 -10 -18 -10 -7 0 -6 4 3 10 19 12 23 12 15 0z m52 -6 c4 -12 -34 -54 -48 -54 -6 0 3 11 18 25 24 21 26 26 13 36 -12 9 -12 10 -1 7 8 -3 16 -9 18 -14z m424 -7 c-10 -9 -11 -8 -5 6 3 10 9 15 12 12 3 -3 0 -11 -7 -18z m2732 -46 c-4 -6 -53 41 -53 50 0 4 13 -4 28 -19 15 -15 26 -29 25 -31z m103 21 c-17 -16 -18 -16 -5 5 7 12 15 20 18 17 3 -2 -3 -12 -13 -22z m-2957 -39 c2 -2 -76 -3 -174 -3 l-178 0 29 22 c26 21 37 22 135 19 74 -2 109 1 114 9 5 8 17 3 39 -17 17 -15 33 -29 35 -30z m2694 38 c94 3 105 2 131 -19 l29 -22 -179 1 c-136 0 -174 3 -156 11 12 6 22 15 22 20 0 5 -5 6 -12 2 -7 -4 -8 -3 -4 5 4 6 11 9 16 6 5 -3 12 -1 15 5 5 8 11 8 21 0 9 -8 49 -11 117 -9z m-3076 -27 c-3 -3 -12 -4 -19 -1 -8 3 -5 6 6 6 11 1 17 -2 13 -5z"/>
<path d="M4457 3053 c-4 -3 -7 -17 -7 -30 0 -12 -4 -23 -10 -23 -5 0 -10 9 -10 19 0 11 -4 23 -10 26 -6 4 -11 -55 -13 -157 l-3 -163 -2 163 c-2 155 -3 162 -22 162 -19 0 -20 -7 -20 -195 l0 -195 26 0 c20 0 24 4 20 18 -4 10 1 27 9 38 11 14 14 49 15 137 0 76 4 116 10 112 6 -3 10 -15 10 -26 0 -10 5 -19 10 -19 6 0 10 30 10 70 0 70 -1 76 -13 63z"/>
<path d="M490 2885 c0 -103 4 -165 10 -165 6 0 10 62 10 165 0 103 -4 165 -10 165 -6 0 -10 -62 -10 -165z"/>
<path d="M570 2895 l0 -155 215 0 215 0 0 155 0 155 -215 0 -215 0 0 -155z m140 -80 c0 -11 -11 -15 -42 -13 l-43 1 38 4 c20 2 37 8 37 14 0 5 2 9 5 9 3 0 5 -7 5 -15z"/>
<path d="M1060 2895 l0 -155 125 0 125 0 0 155 0 155 -125 0 -125 0 0 -155z"/>
<path d="M1360 2895 l0 -155 115 0 115 0 0 155 0 155 -115 0 -115 0 0 -155z"/>
<path d="M2480 2895 l0 -155 115 0 115 0 0 155 0 155 -115 0 -115 0 0 -155z"/>
<path d="M1540 2181 l0 -101 50 0 c28 0 50 5 50 10 0 6 -16 10 -35 10 l-34 0 -3 87 c-2 58 -7 88 -15 91 -10 3 -13 -21 -13 -97z"/>
<path d="M2066 2264 c-9 -8 -16 -24 -16 -35 0 -22 34 -59 54 -59 8 0 22 -7 30 -16 12 -12 13 -20 5 -35 -14 -26 -51 -21 -64 9 -5 12 -13 22 -17 22 -11 0 -10 -28 2 -51 14 -25 71 -26 93 -1 34 37 17 73 -46 100 -21 9 -28 18 -25 34 4 32 37 35 59 7 18 -23 19 -23 19 -3 0 11 -5 25 -12 32 -17 17 -64 15 -82 -4z"/>
<path d="M2200 2265 c0 -8 5 -15 10 -15 6 0 10 7 10 15 0 8 -4 15 -10 15 -5 0 -10 -7 -10 -15z"/>
<path d="M2330 2251 c0 -24 -3 -28 -23 -24 -34 7 -57 -21 -57 -68 0 -62 14 -79 60 -77 l40 1 0 99 c0 59 -4 98 -10 98 -5 0 -10 -13 -10 -29z m-6 -57 c16 -42 3 -94 -24 -94 -20 0 -30 19 -30 59 0 44 41 70 54 35z"/>
<path d="M2587 2265 c-21 -21 -30 -68 -22 -115 9 -55 27 -70 80 -68 l45 2 0 48 c0 53 -4 57 -45 47 -29 -7 -29 -7 -7 -14 18 -6 22 -14 20 -34 -3 -29 -31 -40 -53 -21 -20 17 -20 123 0 140 17 14 55 4 55 -16 0 -8 7 -14 15 -14 21 0 19 23 -3 43 -23 21 -66 22 -85 2z"/>
<path d="M3059 2273 c-1 -5 0 -18 1 -30 1 -20 -2 -22 -28 -17 -37 8 -52 -15 -52 -79 0 -53 14 -67 63 -65 l37 1 0 99 c0 59 -4 98 -10 98 -5 0 -10 -3 -11 -7z m-11 -75 c14 -14 16 -67 3 -86 -15 -24 -46 -10 -49 22 -7 61 16 94 46 64z"/>
<path d="M3240 2180 c0 -60 4 -100 10 -100 6 0 10 40 10 100 0 60 -4 100 -10 100 -6 0 -10 -40 -10 -100z"/>
<path d="M1674 2205 c-19 -29 -14 -102 8 -116 41 -27 88 8 88 66 0 68 -63 101 -96 50z m67 -22 c13 -35 -2 -78 -27 -78 -26 0 -41 46 -26 80 15 33 40 32 53 -2z"/>
<path d="M1787 2224 c-5 -6 28 -133 38 -143 9 -9 22 18 30 63 8 44 8 43 25 -21 6 -24 15 -43 20 -43 12 0 55 139 46 148 -10 10 -24 -17 -32 -61 -7 -45 -15 -41 -29 16 -13 55 -28 53 -39 -5 -5 -27 -13 -48 -17 -48 -3 0 -10 20 -13 45 -7 43 -17 61 -29 49z"/>
<path d="M2200 2155 c0 -43 4 -75 10 -75 6 0 10 32 10 75 0 43 -4 75 -10 75 -6 0 -10 -32 -10 -75z"/>
<path d="M2396 2214 c-21 -20 -22 -107 -2 -124 20 -15 56 -9 70 12 15 24 -1 36 -18 13 -16 -23 -46 -13 -46 15 0 17 6 20 40 20 39 0 40 1 34 28 -13 53 -46 68 -78 36z m52 -27 c3 -12 -3 -17 -22 -17 -25 0 -35 18 -19 34 12 12 38 2 41 -17z"/>
<path d="M2736 2214 c-18 -18 -21 -85 -6 -115 13 -24 62 -25 81 -2 17 20 17 97 -1 118 -16 19 -54 19 -74 -1z m62 -38 c5 -44 -6 -76 -27 -76 -21 0 -31 19 -31 59 0 54 52 70 58 17z"/>
<path d="M2850 2153 c0 -42 4 -73 10 -73 6 0 10 21 10 46 0 50 14 84 34 84 19 0 26 -23 26 -81 0 -27 5 -49 10 -49 15 0 13 125 -2 138 -7 6 -30 10 -50 9 l-38 -1 0 -73z"/>
<path d="M3126 2214 c-19 -19 -22 -104 -4 -122 19 -19 66 -15 78 7 15 30 12 97 -6 115 -8 9 -24 16 -34 16 -10 0 -26 -7 -34 -16z m58 -20 c9 -22 7 -67 -3 -82 -5 -8 -17 -12 -27 -10 -23 4 -32 71 -13 94 15 19 35 18 43 -2z"/>
<path d="M3300 2211 c-7 -13 -7 -22 0 -26 6 -3 13 1 16 9 8 20 44 21 44 1 0 -9 -10 -19 -23 -24 -32 -12 -49 -36 -45 -63 3 -20 9 -23 49 -24 l47 -1 -5 61 c-2 34 -6 67 -8 74 -7 20 -63 15 -75 -7z m60 -76 c0 -29 -25 -44 -43 -26 -9 10 -7 17 12 32 30 24 31 24 31 -6z"/>
<path d="M1960 2160 c0 -5 16 -10 35 -10 19 0 35 5 35 10 0 6 -16 10 -35 10 -19 0 -35 -4 -35 -10z"/>
<path d="M438 1983 c244 -2 640 -2 880 0 240 1 41 2 -443 2 -484 0 -681 -1 -437 -2z"/>
<path d="M1993 1983 c130 -2 344 -2 475 0 130 1 23 2 -238 2 -261 0 -368 -1 -237 -2z"/>
<path d="M2903 1983 c9 -2 25 -2 35 0 9 3 1 5 -18 5 -19 0 -27 -2 -17 -5z"/>
<path d="M3433 1983 c247 -2 647 -2 890 0 243 1 42 2 -448 2 -490 0 -688 -1 -442 -2z"/>
</g>
</svg>