<svg xmlns="http://www.w3.org/2000/svg" viewBox="20.90 55.80 1366.10 193.70">
<g transform="translate(0.000000,768.000000) scale(0.100000,-0.100000)" fill="currentColor" stroke="none">
<path d="M4310 7019 c0 -39 0 -40 22 -25 34 24 48 20 48 -14 0 -29 2 -30 45 -30 44 0 44 0 39 30 -7 33 9 40 47 20 17 -10 19 -7 19 25 0 34 -8 43 -24 28 -11 -11 -165 -13 -172 -2 -13 21 -24 6 -24 -32z"/>
<path d="M9380 7007 c0 -30 3 -56 6 -60 4 -3 19 0 35 8 32 17 105 20 114 5 3 -5 1 -19 -5 -30 -10 -19 -20 -20 -271 -20 -332 0 -305 12 -420 -183 -20 -34 -42 -59 -54 -62 -101 -19 -238 -35 -299 -35 -74 0 -76 -1 -83 -27 -6 -25 -8 -134 -3 -188 1 -11 -3 -58 -10 -105 -25 -187 -50 -395 -50 -412 0 -17 14 -18 215 -18 137 0 215 -4 215 -10 0 -6 -88 -10 -245 -10 l-245 0 0 -50 c0 -44 3 -50 25 -56 19 -5 65 -60 65 -80 0 -11 -69 -2 -80 11 -9 10 -32 15 -76 15 l-64 0 0 -70 0 -70 69 0 c38 0 71 4 73 9 4 12 68 25 68 13 0 -5 -22 -57 -50 -116 -27 -59 -50 -109 -50 -111 0 -3 53 -5 118 -5 124 1 144 7 166 52 10 19 21 23 68 26 l56 3 7 52 c13 111 18 127 48 173 21 32 45 53 76 68 43 20 63 21 298 21 162 0 253 -4 253 -10 0 -6 -71 -12 -182 -15 l-183 -5 -75 -37 c-41 -21 -80 -38 -88 -38 -17 0 -12 -74 6 -76 6 -1 16 -2 21 -3 11 -1 51 -94 51 -118 0 -35 21 -43 117 -43 l93 0 6 28 c18 79 26 100 43 116 21 20 102 34 146 26 l30 -5 3 -83 3 -83 102 3 102 3 6 42 c8 63 23 67 16 4 -4 -30 -12 -58 -19 -63 -19 -11 -186 -10 -209 2 -13 8 -19 21 -19 48 0 20 -3 53 -6 73 -5 30 -11 37 -29 37 -21 0 -22 -4 -18 -42 4 -40 12 -64 37 -116 11 -24 14 -25 137 -28 93 -2 129 1 136 10 14 17 41 105 45 143 3 26 -1 30 -24 33 -16 2 -28 8 -28 13 0 5 32 8 72 6 62 -3 74 -7 94 -30 12 -14 28 -51 34 -82 l11 -55 100 0 99 0 6 28 c19 89 37 124 65 134 23 8 29 16 29 38 0 25 -9 32 -92 74 l-93 46 -152 0 c-135 0 -153 2 -153 16 0 15 22 16 248 12 280 -6 276 -5 357 -87 l49 -51 757 0 756 0 68 60 c38 33 80 64 94 67 42 12 611 9 613 -2 2 -6 -78 -12 -217 -15 -219 -5 -220 -5 -260 -32 -22 -15 -55 -31 -73 -34 -23 -5 -37 -15 -43 -32 -11 -30 -5 -52 14 -52 25 0 48 -38 64 -105 l15 -66 101 3 100 3 12 58 c17 85 37 101 135 105 l80 4 0 -70 c0 -105 -4 -102 111 -102 l99 0 0 34 c0 19 5 38 10 41 13 8 13 -51 0 -76 -10 -17 -22 -19 -109 -19 -123 0 -134 8 -130 102 3 58 1 63 -19 66 -30 5 -36 -16 -22 -85 21 -103 21 -103 165 -103 140 0 146 3 160 82 9 50 30 68 39 33 4 -14 4 -30 1 -35 -3 -5 -1 -11 5 -15 15 -10 12 -35 -5 -35 -18 0 -20 -29 -2 -31 6 -1 32 -1 57 0 33 2 53 -3 72 -18 14 -12 37 -25 50 -30 20 -9 21 -10 3 -10 -90 -4 -772 -5 -763 -2 7 2 32 17 55 32 33 23 52 29 97 29 58 0 70 11 37 32 -14 9 -17 17 -11 33 5 12 10 44 11 71 3 39 0 49 -13 52 -29 6 -77 -27 -84 -56 -12 -55 -16 -67 -30 -89 -13 -21 -22 -23 -112 -23 -53 0 -102 4 -108 8 -7 4 -20 41 -30 82 -17 66 -22 75 -44 78 -36 5 -40 12 -31 55 10 42 2 52 -25 32 -26 -19 -27 -154 -1 -204 21 -41 21 -41 2 -41 -8 0 -15 -7 -15 -15 0 -11 13 -15 54 -15 37 0 61 -6 77 -19 13 -10 38 -26 54 -35 l30 -17 -55 5 c-30 3 -514 6 -1075 6 l-1020 0 45 31 c35 23 52 29 79 25 19 -3 43 0 54 6 19 10 19 12 4 23 -16 11 -16 16 -1 56 21 60 22 151 0 183 -25 39 -36 31 -33 -26 2 -50 1 -53 -27 -58 -26 -5 -31 -12 -51 -80 l-22 -75 -113 0 -114 0 -17 69 c-10 37 -21 72 -26 76 -4 4 -25 10 -46 13 l-39 6 5 -57 c2 -31 8 -67 12 -79 6 -18 4 -23 -9 -23 -9 0 -16 -7 -16 -15 0 -11 12 -15 51 -15 41 0 61 -7 100 -32 27 -17 49 -32 49 -32 0 -1 -176 -1 -391 -1 -265 0 -385 3 -374 10 10 6 33 20 52 33 25 16 49 22 88 22 42 0 55 3 55 15 0 8 -7 15 -16 15 -13 0 -15 6 -10 28 3 15 9 51 13 81 l6 54 -34 -7 c-46 -9 -67 -33 -78 -89 -13 -73 -19 -77 -131 -77 -106 0 -130 11 -130 61 -1 41 -37 109 -58 109 -25 0 -32 19 -25 64 7 43 -9 48 -33 11 -24 -36 -22 -129 4 -187 18 -40 18 -48 6 -48 -9 0 -14 -7 -12 -17 3 -15 12 -17 53 -15 39 3 56 -1 77 -17 14 -12 37 -25 50 -30 14 -6 -344 -11 -980 -13 -551 -2 -1002 -3 -1002 -2 0 1 23 15 50 32 57 36 89 91 90 155 0 47 -27 51 -54 7 -19 -32 -36 -32 -36 1 0 55 -43 76 -130 64 -50 -7 -50 -7 -75 -80 -6 -19 -8 -18 -21 8 -10 18 -23 27 -39 27 -35 0 -38 -12 -15 -72 21 -56 67 -110 110 -127 17 -7 -60 -10 -255 -10 l-280 0 36 19 c20 11 48 33 63 50 27 33 51 103 42 126 -9 23 -44 16 -62 -12 l-17 -25 -13 38 c-17 48 -38 63 -90 63 -64 0 -91 -14 -105 -54 -15 -41 -24 -45 -39 -16 -14 26 -60 27 -60 2 0 -68 63 -158 127 -183 14 -5 24 -11 22 -12 -2 -1 -130 -1 -283 1 l-279 3 45 28 c47 30 98 112 98 158 0 34 -44 31 -67 -3 l-17 -26 -13 38 c-17 50 -37 64 -89 64 -64 0 -93 -15 -111 -57 l-15 -38 -15 23 c-9 12 -26 22 -39 22 -20 0 -24 -5 -24 -30 0 -63 46 -128 115 -164 27 -14 -104 -16 -1450 -15 -1474 0 -1480 0 -1443 19 57 30 108 112 108 171 0 29 -46 25 -66 -7 l-17 -25 -20 46 c-23 53 -42 60 -122 50 -53 -6 -54 -7 -71 -52 l-17 -45 -14 26 c-9 18 -22 26 -40 26 -25 0 -26 -1 -19 -47 7 -56 45 -108 102 -140 l39 -23 -280 1 -280 0 37 19 c46 24 84 74 93 120 3 19 9 43 11 53 4 13 -1 17 -25 17 -23 0 -34 -7 -45 -27 -13 -26 -15 -27 -21 -8 -22 66 -28 74 -56 80 -17 4 -52 4 -79 0 -45 -6 -50 -9 -65 -48 -17 -42 -17 -42 -32 -19 -9 12 -26 22 -39 22 -20 0 -24 -5 -24 -27 1 -62 49 -132 115 -166 28 -15 11 -16 -250 -17 -260 0 -278 1 -250 16 67 34 115 103 115 163 0 26 -4 31 -25 31 -17 0 -29 -8 -37 -25 -13 -28 -28 -33 -28 -10 0 9 -7 29 -15 45 -15 29 -18 30 -89 30 l-73 0 -18 -40 c-10 -22 -20 -40 -23 -40 -2 0 -13 11 -24 25 -11 14 -29 25 -40 25 -19 0 -20 -4 -14 -47 8 -60 49 -121 101 -150 l40 -23 -450 -2 -450 -3 -3 -27 -3 -28 3818 0 c2100 0 5149 -1 6776 -3 l2958 -2 6 23 c3 13 1 28 -4 33 -7 7 -146 9 -391 7 l-381 -3 44 22 c24 13 46 27 50 33 3 5 30 10 60 10 56 0 77 12 49 28 -15 8 -14 15 6 71 26 71 23 138 -10 173 l-20 22 0 -52 c0 -45 -3 -52 -20 -52 -26 0 -51 -39 -61 -97 -13 -70 -19 -73 -126 -73 -104 0 -133 9 -134 43 0 12 -8 42 -18 67 -17 42 -21 45 -61 50 -52 6 -68 30 -20 30 17 0 43 -6 59 -14 26 -14 30 -23 59 -126 7 -25 9 -25 107 -25 l99 0 8 35 c21 85 39 118 70 129 27 9 29 14 23 38 -7 29 -21 43 -42 43 -7 0 -41 16 -76 35 -63 35 -64 35 -191 35 -98 0 -127 3 -124 13 6 15 166 21 327 12 111 -7 114 -8 150 -41 21 -18 46 -53 55 -76 32 -76 27 -73 110 -76 64 -2 76 0 76 13 0 24 31 31 45 11 10 -14 26 -16 76 -14 l64 3 0 65 0 65 -64 3 c-50 2 -66 0 -76 -14 -20 -29 -43 -10 -47 38 l-3 43 -370 0 -370 0 -8 -124 c-4 -69 -12 -130 -17 -136 -12 -15 -119 -3 -129 14 -9 14 -22 233 -15 240 9 9 24 -23 24 -51 0 -27 1 -28 61 -28 l60 0 -3 43 -3 42 -1576 3 -1576 2 -7 -121 c-4 -66 -10 -127 -13 -135 -4 -10 -23 -14 -68 -14 -76 0 -71 -9 -80 153 l-7 117 -524 0 c-343 0 -524 3 -524 10 0 7 865 10 2575 10 l2575 0 0 500 c0 435 2 506 16 538 9 20 20 47 25 60 l9 22 -465 0 -465 0 0 -60 0 -60 -1310 0 -1310 0 0 60 0 60 -184 0 c-178 0 -185 1 -200 22 -8 12 -13 25 -10 30 8 13 73 9 104 -7 17 -9 31 -11 35 -6 5 10 5 111 -1 111 -2 0 -18 -9 -36 -20 -57 -34 -288 -24 -288 13 0 4 -7 7 -15 7 -11 0 -15 -13 -15 -53z m-413 -192 c44 -31 38 -79 -19 -168 l-31 -48 -33 32 c-19 18 -34 39 -34 45 0 20 79 154 90 154 3 0 15 -7 27 -15z m4443 -242 l0 -133 -1885 0 -1885 0 0 128 c0 71 2 131 4 133 2 2 851 4 1885 4 l1881 0 0 -132z m-4135 22 l0 -90 -124 -3 c-183 -4 -186 3 -84 166 13 21 19 23 111 20 l97 -3 0 -90z m279 17 c6 -43 5 -70 -2 -87 -11 -23 -17 -25 -77 -25 -61 0 -66 2 -75 26 -13 34 -13 110 1 135 9 17 19 20 77 17 l67 -3 9 -63z m-196 -368 c-2 -265 -7 -415 -13 -417 -10 -2 -20 805 -10 831 3 7 10 10 16 7 7 -5 10 -132 7 -421z m252 -5 c0 -284 -3 -428 -10 -424 -6 4 -10 156 -10 424 0 369 2 431 17 431 2 0 3 -194 3 -431z m541 141 c29 -16 51 -67 44 -100 -4 -16 -21 -41 -38 -56 -87 -73 -206 57 -128 140 26 28 85 35 122 16z m2139 -10 c34 -34 42 -66 26 -105 -40 -96 -166 -76 -183 28 -5 31 -1 40 25 67 38 37 100 42 132 10z m258 -281 c-2 -174 -7 -274 -13 -274 -11 0 -20 528 -10 554 4 9 9 11 15 5 7 -7 9 -114 8 -285z m242 182 l0 -109 233 5 c127 3 277 2 332 -2 l100 -7 -3 -166 c-1 -92 -6 -174 -10 -182 -4 -8 -9 64 -12 160 l-5 175 -25 -1 c-14 -1 -37 -2 -52 -3 l-28 -1 0 -165 c0 -103 -4 -165 -10 -165 -6 0 -10 62 -10 165 l0 165 -255 0 -255 0 -2 -142 c-1 -79 -1 -153 0 -165 0 -13 -3 -23 -7 -23 -14 0 -21 114 -20 320 0 203 4 250 20 250 5 0 9 -49 9 -109z m-4096 73 c10 -10 16 -33 16 -64 0 -72 -17 -80 -157 -80 -135 0 -143 5 -143 89 0 32 3 61 7 64 3 4 64 7 134 7 103 0 131 -3 143 -16z m3796 -189 c0 -7 -483 -11 -1425 -13 -784 -1 -1425 2 -1425 6 0 5 2 11 5 14 10 10 2845 3 2845 -7z m-2951 -59 c7 -8 11 -34 9 -58 l-3 -43 -70 0 -70 0 -3 43 c-4 59 9 72 73 72 33 0 57 -5 64 -14z m6 -201 l0 -50 -70 0 -70 0 -3 53 -3 53 73 -3 73 -3 0 -50z m3195 -50 c0 -12 -16 -15 -85 -15 -69 0 -85 3 -85 15 0 12 16 15 85 15 69 0 85 -3 85 -15z m-11486 -321 c9 -8 16 -23 16 -31 0 -25 -30 -53 -56 -53 -23 0 -54 33 -54 57 0 19 30 43 55 43 13 0 31 -7 39 -16z m656 -4 c11 -11 20 -24 20 -30 0 -17 -39 -50 -59 -50 -44 0 -70 68 -33 89 26 16 50 13 72 -9z m664 1 c23 -26 17 -52 -16 -70 -38 -22 -78 -2 -78 38 0 49 60 69 94 32z m3047 9 c23 -13 26 -62 4 -80 -11 -9 -25 -10 -48 -4 -26 8 -33 15 -35 42 -3 26 1 34 20 41 31 13 36 13 59 1z m675 -15 c15 -23 15 -27 0 -50 -29 -45 -96 -24 -96 30 0 47 69 61 96 20z m648 9 c31 -30 9 -84 -35 -84 -27 0 -60 36 -52 57 14 41 59 55 87 27z m1706 -39 c0 -34 -1 -35 -39 -35 -37 0 -39 2 -43 35 l-4 35 43 0 c42 0 43 0 43 -35z m-7335 -95 c-29 -12 -195 -12 -195 0 0 6 42 10 108 9 69 0 100 -3 87 -9z m650 0 c-28 -12 -193 -12 -200 0 -4 6 34 10 107 9 72 0 106 -3 93 -9z m655 0 c-37 -12 -188 -12 -195 0 -4 6 34 10 107 9 72 -1 104 -4 88 -9z m3055 0 c-45 -11 -183 -11 -190 0 -4 6 34 10 107 9 74 -1 103 -4 83 -9z m690 0 c-8 -13 -195 -13 -215 0 -10 7 23 10 103 10 76 0 116 -4 112 -10z m650 0 c-8 -13 -185 -13 -205 0 -10 7 21 10 98 10 73 0 111 -4 107 -10z"/>
<path d="M1198 5519 c-39 -22 -5 -79 34 -58 22 12 24 55 2 63 -19 7 -15 8 -36 -5z"/>
<path d="M1846 5514 c-9 -8 -16 -19 -16 -24 0 -11 29 -40 40 -40 14 0 40 30 40 45 0 8 -9 19 -19 25 -25 13 -27 13 -45 -6z"/>
<path d="M2504 5516 c-26 -20 -7 -51 32 -51 32 0 44 26 24 50 -16 19 -31 19 -56 1z"/>
<path d="M5578 5523 c-37 -9 -27 -63 11 -63 20 0 41 19 41 37 0 16 -30 31 -52 26z"/>
<path d="M6232 5518 c-30 -30 3 -77 40 -57 30 16 16 69 -17 69 -6 0 -16 -5 -23 -12z"/>
<path d="M6882 5518 c-18 -18 -14 -46 7 -58 38 -20 71 13 51 51 -12 21 -40 25 -58 7z"/>
<path d="M1588 7030 c-11 -18 -24 -20 -105 -20 -51 0 -93 -3 -92 -7 0 -5 10 -27 22 -51 l22 -43 338 -3 337 -2 0 37 c0 21 3 44 6 53 5 14 -8 16 -104 16 -101 0 -110 2 -115 20 -5 19 -14 20 -151 20 -135 0 -147 -1 -158 -20z"/>
<path d="M4936 7038 c-3 -7 -7 -25 -10 -40 l-6 -28 100 0 c108 0 109 1 94 58 -6 21 -12 22 -90 22 -59 0 -86 -4 -88 -12z"/>
<path d="M6262 6973 l3 -48 438 -3 437 -2 -4 22 c-3 13 -7 35 -11 51 l-5 27 -431 0 -430 0 3 -47z m93 7 c-7 24 -7 24 9 5 9 -12 15 -15 16 -7 0 7 5 10 10 7 6 -3 10 0 10 7 1 8 6 6 15 -6 11 -14 15 -16 15 -5 0 12 2 12 10 -1 8 -12 10 -12 10 5 0 17 3 15 20 -10 21 -32 27 -28 9 8 -10 21 -9 21 10 -2 12 -13 21 -26 21 -30 0 -11 -114 -8 -122 3 -5 7 -8 7 -8 1 0 -15 -40 -16 -40 -2 0 8 -3 7 -9 -2 -11 -17 -31 -6 -31 19 0 27 22 31 44 6 l19 -21 -8 25z m178 0 c-5 24 -5 25 10 5 l16 -20 1 20 c1 18 2 17 16 -5 l15 -25 -6 25 -6 25 20 -25 20 -25 -5 25 -5 25 15 -25 c8 -14 15 -27 16 -30 0 -10 -65 -6 -72 4 -5 7 -8 8 -8 1 0 -6 -9 -11 -19 -12 -14 -1 -23 8 -30 30 l-11 32 20 -25 19 -25 -6 25z m127 -29 c-1 -10 -6 -7 -15 9 -19 33 -18 50 0 26 8 -11 15 -27 15 -35z m25 29 c-6 23 -5 24 8 7 11 -14 16 -15 20 -5 4 10 10 8 22 -7 17 -20 17 -20 10 5 l-6 25 20 -25 20 -25 -5 25 -5 25 16 -25 16 -25 -6 25 -6 25 20 -25 20 -25 -5 25 -5 25 16 -25 16 -25 -6 25 c-6 24 -5 24 9 6 9 -11 16 -14 16 -8 0 16 23 10 32 -8 5 -11 7 -10 7 5 1 17 3 17 11 5 9 -13 10 -13 10 0 0 13 1 13 10 0 9 -13 10 -13 10 0 0 13 1 13 10 0 5 -8 10 -20 10 -26 0 -16 -71 -9 -81 7 -7 11 -9 11 -9 -1 0 -14 -16 -16 -101 -15 -103 1 -119 7 -118 45 0 9 6 5 15 -10 l15 -25 -6 25z m314 -35 c0 -5 -6 -1 -14 9 -8 11 -15 27 -15 35 1 17 29 -26 29 -44z m21 6 c-1 -10 -6 -7 -15 9 -19 33 -18 50 0 26 8 -11 15 -27 15 -35z m40 34 c1 10 30 -24 30 -35 0 -4 -13 -6 -30 -6 -16 0 -30 3 -30 7 0 4 -3 15 -7 25 -4 12 -3 15 5 10 7 -4 12 -2 12 6 0 9 3 9 10 -2 5 -8 10 -10 10 -5z"/>
<path d="M1318 6993 c-35 -4 -38 -7 -39 -36 -1 -18 -2 -45 -4 -62 -2 -31 -41 -204 -47 -210 -2 -2 -85 -5 -185 -6 -101 -2 -183 -6 -183 -9 0 -3 31 -36 68 -73 l69 -68 104 36 c57 20 141 50 185 67 78 29 82 32 88 67 4 20 15 72 24 116 l18 81 -23 52 c-12 29 -26 51 -30 50 -5 -1 -25 -3 -45 -5z m62 -155 c0 -13 -6 -45 -13 -73 l-13 -50 -48 -3 c-46 -3 -48 -2 -43 20 4 13 11 47 17 76 l12 52 44 0 c39 0 44 -3 44 -22z"/>
<path d="M2130 6915 l0 -85 75 0 75 0 0 85 0 85 -75 0 -75 0 0 -85z"/>
<path d="M2300 6915 l0 -85 50 0 49 0 4 63 3 62 2 -63 2 -63 108 3 107 3 6 60 6 60 1 -62 c2 -60 3 -63 27 -63 24 0 25 3 25 60 0 33 4 60 10 60 6 0 10 -27 10 -60 l0 -60 105 0 105 0 0 60 c0 33 4 60 10 60 6 0 10 -27 10 -61 0 -57 1 -60 23 -57 20 3 22 7 19 61 -3 36 0 57 7 57 7 0 11 -23 11 -59 l0 -58 105 -1 105 -1 0 64 c0 37 4 65 10 65 6 0 10 -28 10 -65 l0 -65 53 0 52 -1 119 -149 120 -150 158 0 c119 0 158 -3 159 -12 1 -7 1 -52 -1 -99 -2 -79 0 -87 18 -91 12 -3 22 -4 24 -3 2 2 1 140 -2 307 -4 229 -8 302 -17 301 -7 -2 -15 13 -19 32 l-6 35 -794 0 -794 0 0 -85z m304 24 c-7 -11 -160 -6 -172 5 -3 3 36 6 87 6 65 0 90 -3 85 -11z m296 1 c0 -6 -35 -10 -85 -10 -50 0 -85 4 -85 10 0 6 35 10 85 10 50 0 85 -4 85 -10z m285 0 c-28 -12 -153 -12 -160 0 -4 6 27 10 87 9 61 0 86 -3 73 -9z m-579 -39 c-8 -12 -166 -14 -166 -1 0 6 33 10 86 10 47 0 83 -4 80 -9z m291 2 c-10 -10 -167 -11 -167 -1 0 4 39 8 87 8 47 0 83 -3 80 -7z m292 3 c-7 -7 -159 -10 -166 -3 -3 4 33 7 82 7 49 0 86 -2 84 -4z m613 -96 l-3 -100 -95 0 -94 0 0 100 0 100 98 0 97 0 -3 -100z m-905 56 c3 -3 -34 -5 -83 -4 -76 1 -82 2 -39 8 57 7 113 6 122 -4z m293 4 c0 -6 -35 -10 -86 -10 -54 0 -83 4 -79 10 3 6 42 10 86 10 46 0 79 -4 79 -10z m-622 -7 c-27 -2 -69 -2 -95 0 -27 2 -5 3 47 3 52 0 74 -1 48 -3z"/>
<path d="M3647 6892 c-21 -3 -27 -8 -23 -19 3 -8 6 -46 6 -84 l0 -70 77 3 76 3 -1 55 c-1 118 4 108 -54 112 -29 1 -66 2 -81 0z"/>
<path d="M5379 6970 c-6 -48 -38 -45 434 -48 l437 -2 0 30 0 30 -435 0 c-282 0 -435 -4 -436 -10z"/>
<path d="M4872 6823 l3 -128 230 0 230 -1 3 -182 2 -182 255 0 255 0 0 55 0 55 60 0 60 0 0 -55 c0 -48 2 -55 20 -55 18 0 20 7 20 55 l0 55 55 0 55 0 0 -61 c0 -81 24 -77 28 4 3 53 5 57 27 57 14 0 25 -4 25 -10 0 -5 -9 -10 -19 -10 -16 0 -19 -7 -17 -47 l1 -47 40 -1 40 0 3 63 c2 36 7 60 13 57 5 -4 6 -29 3 -59 -4 -35 -3 -56 5 -60 8 -5 11 11 11 53 l0 61 50 0 50 0 0 -60 c0 -47 3 -60 15 -60 12 0 15 13 15 60 l0 60 100 0 100 0 0 -56 0 -55 69 7 c46 4 71 3 75 -5 4 -6 18 -11 32 -11 23 0 24 3 24 60 l0 60 111 0 110 0 -2 -57 c-3 -62 -5 -60 54 -55 16 2 17 17 15 200 l-3 197 -417 3 -418 2 -2 -137 c-1 -76 -3 -108 -5 -70 l-4 67 -339 0 -339 0 -3 68 -3 67 -102 3 -103 3 0 109 0 110 -245 0 -246 0 3 -127z m1796 -215 l-3 -103 -192 -3 -193 -2 0 105 0 105 195 0 196 0 -3 -102z m402 -3 l0 -105 -190 0 -190 0 0 105 0 105 190 0 190 0 0 -105z"/>
<path d="M6300 6605 l0 -85 165 0 c91 0 168 -1 173 -2 4 -2 8 36 10 85 l3 87 -176 0 -175 0 0 -85z"/>
<path d="M6710 6605 l0 -85 175 0 175 0 0 85 0 85 -175 0 -175 0 0 -85z"/>
<path d="M3950 6895 l0 -35 220 0 220 0 0 35 0 35 -220 0 -220 0 0 -35z"/>
<path d="M4410 6895 l0 -35 220 0 220 0 0 35 0 35 -220 0 -220 0 0 -35z"/>
<path d="M5380 6825 l0 -75 944 0 c863 0 945 1 948 16 2 9 1 43 0 75 l-4 59 -944 0 -944 0 0 -75z"/>
<path d="M1429 6864 c-4 -13 -16 -66 -25 -118 -12 -66 -22 -97 -33 -101 -15 -6 -331 -121 -358 -130 -10 -3 -13 -69 -12 -280 l0 -275 199 0 200 0 0 140 0 140 355 0 355 0 0 325 0 325 -336 -2 -336 -2 -9 -22z m162 -36 c2 -7 3 -61 1 -120 l-3 -108 -60 0 -59 0 0 120 0 120 59 0 c38 0 60 -4 62 -12z m457 -110 l3 -118 -96 0 -95 0 -2 63 c-4 143 -8 132 43 133 53 1 79 11 79 31 0 10 9 13 33 11 l32 -3 3 -117z m-218 -23 l0 -95 -90 0 -90 0 0 95 0 95 90 0 90 0 0 -95z"/>
<path d="M4758 6842 l-48 -3 0 -255 0 -254 70 0 70 0 0 254 0 254 -22 3 c-13 2 -44 3 -70 1z"/>
<path d="M3950 6585 l0 -255 70 0 70 0 0 255 0 255 -70 0 -70 0 0 -255z"/>
<path d="M4104 6818 c3 -13 6 -128 6 -255 l0 -233 60 0 60 0 0 233 c0 127 3 242 6 255 6 21 4 22 -66 22 -70 0 -72 -1 -66 -22z"/>
<path d="M4250 6585 l0 -255 70 0 70 0 0 255 0 255 -70 0 -70 0 0 -255z"/>
<path d="M4410 6585 l0 -255 70 0 70 0 0 255 0 255 -70 0 -70 0 0 -255z"/>
<path d="M4561 6585 l2 -255 69 0 69 0 -2 255 -1 255 -69 0 -70 0 2 -255z"/>
<path d="M2417 6813 c-4 -4 -4 -22 -1 -40 4 -21 2 -33 -5 -33 -6 0 -11 16 -11 35 l0 35 -50 0 -50 0 0 -50 0 -50 115 0 c98 0 114 2 109 15 -4 10 -20 15 -45 15 -21 0 -39 5 -39 10 0 6 27 10 60 10 33 0 60 4 60 10 0 6 -27 10 -60 10 -33 0 -60 4 -60 10 0 6 27 10 61 10 37 0 58 4 54 10 -7 11 -128 14 -138 3z"/>
<path d="M2584 6809 c-3 -5 2 -9 10 -9 22 0 20 -20 -1 -20 -16 -1 -16 -2 1 -15 17 -13 18 -15 3 -15 -10 0 -17 -8 -17 -20 0 -19 7 -20 120 -20 102 0 119 2 114 15 -4 9 -19 15 -39 15 -19 0 -37 5 -40 10 -4 6 23 10 74 10 47 0 81 -4 81 -10 0 -5 -13 -10 -30 -10 -20 0 -30 -5 -30 -15 0 -11 11 -15 40 -15 l40 0 0 50 0 50 -100 0 -100 0 0 -35 c0 -19 -4 -35 -10 -35 -5 0 -10 16 -10 35 0 31 -3 35 -25 35 -22 0 -25 -4 -26 -37 -1 -38 -1 -38 -9 -9 -5 16 -7 33 -5 37 3 3 -4 9 -15 12 -11 3 -23 1 -26 -4z m306 -19 c0 -6 -33 -10 -80 -10 -47 0 -80 4 -80 10 0 6 33 10 80 10 47 0 80 -4 80 -10z"/>
<path d="M3005 6811 c-3 -2 -5 -23 -6 -45 0 -36 -1 -38 -10 -17 -5 13 -7 32 -4 42 5 15 1 19 -19 19 -22 0 -26 -5 -26 -27 0 -16 -3 -38 -6 -50 -6 -23 -5 -23 81 -23 75 0 86 2 81 16 -3 9 -6 18 -6 20 0 2 -13 4 -30 4 -16 0 -30 3 -30 8 0 4 36 6 80 4 81 -4 115 -22 40 -22 -29 0 -40 -4 -40 -15 0 -12 14 -15 70 -15 l70 0 0 44 c0 25 -4 48 -10 51 -6 4 -10 -8 -10 -29 0 -20 -4 -36 -10 -36 -5 0 -10 15 -10 34 l0 34 -62 6 c-67 6 -136 5 -143 -3z m185 -21 c0 -6 -33 -10 -80 -10 -47 0 -80 4 -80 10 0 6 33 10 80 10 47 0 80 -4 80 -10z"/>
<path d="M2132 6698 c2 -93 6 -113 18 -113 12 0 16 20 18 113 3 107 2 112 -18 112 -20 0 -21 -5 -18 -112z"/>
<path d="M2182 6700 l5 -110 186 -3 187 -2 0 53 0 52 -140 0 -140 0 0 60 0 60 -51 0 -51 0 4 -110z"/>
<path d="M3265 6703 c4 -60 9 -111 12 -115 2 -5 44 -8 94 -8 64 0 89 -4 90 -12 1 -7 2 -47 3 -88 2 -41 3 -92 4 -112 l2 -38 125 0 125 0 0 90 0 89 -77 3 -77 3 -119 148 c-113 139 -121 147 -154 147 l-35 0 7 -107z"/>
<path d="M2540 6725 c0 -8 5 -15 10 -15 6 0 10 7 10 15 0 8 -4 15 -10 15 -5 0 -10 -7 -10 -15z"/>
<path d="M5587 6723 c-2 -5 -2 -32 1 -60 l4 -53 329 0 330 0 -3 58 -3 57 -327 3 c-180 1 -328 -1 -331 -5z"/>
<path d="M7117 6723 c-2 -5 -4 -93 -3 -197 1 -204 -3 -187 54 -215 16 -7 17 -37 20 -375 1 -239 -1 -366 -8 -366 -6 0 -11 131 -12 368 l-3 367 -27 3 -28 3 -2 -163 -2 -163 -6 160 -5 160 -32 3 -33 3 0 -98 c0 -150 -9 -203 -32 -203 -14 0 -19 -6 -16 -22 3 -21 9 -23 76 -26 73 -3 73 -3 70 -30 l-3 -27 -1630 -2 c-896 -1 -1762 -2 -1922 -2 l-293 -1 0 -50 0 -50 -657 2 -657 3 -6 25 c-5 23 -10 25 -78 28 -64 3 -72 1 -72 -16 0 -40 -14 -42 -290 -42 l-265 0 -18 50 -18 50 -113 0 -113 0 -5 43 c-3 23 -4 161 -2 307 l3 265 -72 73 -72 73 -5 -348 -5 -348 -55 0 -55 0 -5 175 -5 175 -60 0 -60 0 -3 -177 c-2 -152 -5 -178 -18 -178 -11 0 -14 -9 -12 -32 3 -33 4 -33 60 -36 67 -3 71 -10 66 -107 -3 -57 -4 -60 -30 -63 -19 -2 -28 -9 -28 -21 0 -27 -12 -33 -31 -16 -12 12 -33 15 -78 13 l-62 -3 -3 -67 -2 -68 68 0 c39 0 68 4 68 10 0 6 7 10 15 10 12 0 15 -22 17 -117 3 -110 4 -118 23 -118 11 0 30 5 43 11 l23 12 0 257 c-1 253 8 369 19 260 l5 -50 76 3 c48 2 79 -1 84 -7 4 -8 -21 -11 -78 -11 l-85 0 2 -57 1 -58 88 -3 c113 -4 106 -22 -8 -22 l-84 0 1 -55 2 -55 83 0 c49 0 83 -4 83 -10 0 -6 -35 -10 -85 -10 l-85 0 0 -60 0 -60 125 0 c69 0 125 2 125 4 0 16 31 276 35 294 l5 22 909 0 909 0 6 -45 c4 -25 11 -45 16 -45 5 0 15 -3 24 -6 13 -5 16 2 16 45 l0 51 1160 0 1160 0 0 -40 c0 -38 2 -40 30 -40 24 0 30 4 30 23 0 12 7 30 14 40 13 16 65 17 912 15 l898 -3 7 -40 c3 -22 12 -93 19 -157 l13 -118 119 0 118 0 0 60 0 60 -80 0 c-47 0 -80 4 -80 10 0 6 33 10 80 10 l80 0 0 55 0 55 -85 0 c-50 0 -85 4 -85 10 0 6 35 10 85 10 l85 0 0 60 0 59 -82 4 -83 3 82 2 81 2 10 53 10 52 2 -45 c1 -25 2 -153 3 -285 2 -228 3 -240 21 -240 17 0 19 8 17 93 -2 80 0 92 14 92 9 0 19 9 22 20 5 19 7 19 28 6 18 -12 83 -20 133 -17 8 1 12 22 12 71 l0 70 -70 0 c-40 0 -70 -4 -70 -10 0 -5 -7 -10 -15 -10 -8 0 -15 7 -15 15 0 8 -11 17 -25 21 -24 6 -25 9 -25 90 l0 84 66 0 65 0 -3 35 c-2 20 -7 34 -13 33 -6 -2 -12 64 -15 177 l-5 180 -62 3 c-39 2 -63 -1 -64 -8 -1 -5 -3 -14 -4 -20 -1 -5 -3 -82 -4 -170 l-1 -160 -60 0 -60 0 0 309 c0 196 4 312 10 316 14 9 12 119 -2 133 -13 13 -154 17 -161 5z m-6417 -593 l0 -170 -40 0 -40 0 0 170 0 170 40 0 40 0 0 -170z m6800 0 l0 -170 -40 0 -40 0 0 170 0 170 40 0 40 0 0 -170z m-6594 94 c1 -32 10 -86 20 -119 13 -47 18 -110 21 -292 4 -165 2 -233 -6 -233 -8 0 -11 65 -11 213 0 190 -3 223 -25 317 -27 116 -32 184 -13 178 7 -3 13 -28 14 -64z"/>
<path d="M2580 6637 l0 -53 165 1 165 0 0 53 0 52 -165 0 -165 0 0 -53z"/>
<path d="M2930 6640 l0 -50 135 -2 c74 -1 145 -2 158 -2 20 -1 22 4 25 52 l3 52 -160 0 -161 0 0 -50z"/>
<path d="M4870 6505 l0 -175 70 0 70 0 0 175 0 175 -70 0 -70 0 0 -175z"/>
<path d="M5030 6505 l0 -175 65 0 65 0 0 175 0 175 -65 0 -65 0 0 -175z"/>
<path d="M5180 6505 l0 -175 70 0 70 0 0 175 0 175 -70 0 -70 0 0 -175z"/>
<path d="M2498 6562 l-128 -3 0 -209 0 -210 445 0 445 0 0 210 0 210 -77 2 c-111 4 -535 3 -685 0z"/>
<path d="M2130 6260 c0 -293 0 -300 20 -300 18 0 20 7 20 84 l0 83 53 7 c28 3 69 6 90 6 l37 0 0 210 0 210 -110 0 -110 0 0 -300z"/>
<path d="M3280 6445 l0 -115 85 0 85 0 0 115 0 115 -85 0 -85 0 0 -115z"/>
<path d="M3740 6421 l0 -89 66 -4 c36 -1 68 -1 70 1 2 2 4 44 4 93 l0 88 -70 0 -70 0 0 -89z"/>
<path d="M5870 6375 c0 -39 3 -45 25 -51 42 -11 55 1 55 51 l0 45 -40 0 -40 0 0 -45z"/>
<path d="M6032 6373 c3 -46 4 -48 33 -48 29 0 30 2 33 48 l3 47 -36 0 -36 0 3 -47z"/>
<path d="M6302 6373 c3 -44 5 -48 30 -50 25 -2 26 1 30 48 l3 49 -33 0 -33 0 3 -47z"/>
<path d="M6430 6371 c0 -48 1 -50 28 -47 25 3 27 7 30 50 3 45 3 46 -27 46 -30 0 -31 -1 -31 -49z"/>
<path d="M6510 6375 c0 -36 4 -45 18 -46 9 0 27 -2 40 -5 20 -4 22 0 22 46 l0 50 -40 0 -40 0 0 -45z"/>
<path d="M6832 6373 c2 -31 7 -48 16 -47 6 1 46 2 87 3 l75 1 0 45 0 45 -91 0 -90 0 3 -47z"/>
<path d="M6718 6323 c7 -3 16 -2 19 1 4 3 -2 6 -13 5 -11 0 -14 -3 -6 -6z"/>
<path d="M3280 6135 l0 -175 85 0 85 0 -2 173 -3 172 -82 3 -83 3 0 -176z"/>
<path d="M3470 6306 c-3 -2 -4 -80 -3 -173 l1 -168 41 -3 41 -3 -2 173 -3 173 -35 3 c-20 2 -38 1 -40 -2z"/>
<path d="M3570 6135 l0 -175 198 2 197 3 3 164 c1 103 -1 168 -8 175 -7 7 -10 -40 -10 -148 0 -102 -3 -155 -10 -151 -6 4 -10 67 -10 156 0 138 -1 150 -17 147 -16 -3 -19 -21 -23 -158 l-4 -155 -6 155 -5 155 -67 3 -68 3 0 -151 c0 -198 -19 -201 -22 -2 l-3 147 -72 3 -73 3 0 -176z"/>
<path d="M3987 6303 c-3 -4 -4 -82 -3 -173 l1 -165 194 -3 c107 -1 197 1 200 5 3 5 5 83 3 176 l-3 167 -65 0 -64 0 0 -156 c0 -101 -3 -153 -10 -149 -6 4 -10 67 -10 156 l0 150 -61 -3 -61 -3 1 -147 c1 -90 -2 -149 -8 -153 -7 -4 -11 46 -13 147 l-3 153 -47 3 c-25 2 -48 -1 -51 -5z"/>
<path d="M4410 6135 l0 -175 200 0 200 0 -2 173 -3 172 -45 0 -45 0 -5 -155 c-3 -85 -8 -150 -12 -144 -4 6 -6 63 -4 125 2 63 1 129 -2 147 l-5 33 -61 -3 -61 -3 -2 -150 c-1 -82 -3 -152 -4 -155 -2 -3 -6 65 -9 150 l-5 155 -67 3 -68 3 0 -176z"/>
<path d="M4830 6135 l0 -175 198 0 c109 0 201 2 203 4 2 2 3 81 1 175 l-3 171 -24 0 -25 0 0 -155 c0 -97 -4 -155 -10 -155 -6 0 -10 58 -10 155 l0 155 -65 0 -65 0 0 -156 c0 -101 -3 -153 -10 -149 -6 4 -10 67 -10 156 l0 149 -70 0 -70 0 0 -156 c0 -101 -3 -153 -10 -149 -6 4 -10 67 -10 156 0 93 -4 149 -10 149 -6 0 -10 -65 -10 -175z"/>
<path d="M5250 6135 l0 -175 205 0 205 0 -2 173 -3 172 -157 3 -158 3 0 -156 c0 -97 -4 -155 -10 -155 -6 0 -10 58 -10 155 l0 155 -35 0 -35 0 0 -175z"/>
<path d="M5680 6135 l0 -175 205 0 205 0 0 25 c0 23 -4 25 -40 25 l-40 0 0 150 c0 143 -1 150 -20 150 -19 0 -20 -7 -20 -150 l0 -150 -61 0 c-60 0 -60 0 -59 28 1 15 2 82 1 150 l-1 122 -85 0 -85 0 0 -175z"/>
<path d="M5870 6170 l0 -140 40 0 40 0 0 140 0 140 -40 0 -40 0 0 -140z"/>
<path d="M6030 6170 l0 -140 30 0 30 0 0 140 0 140 -30 0 -30 0 0 -140z"/>
<path d="M6110 6136 l0 -176 205 0 205 0 0 175 c0 117 -4 175 -11 175 -6 0 -9 -23 -7 -62 1 -35 1 -102 0 -150 l-2 -88 -45 0 -45 0 0 150 c0 127 -2 150 -15 150 -13 0 -15 -23 -15 -150 l0 -150 -50 0 -50 0 0 151 c0 103 -3 148 -11 144 -7 -5 -8 -41 -4 -108 3 -56 2 -124 -3 -152 -8 -41 -10 -20 -11 108 l-1 158 -42 -3 -43 -3 -2 -140 c0 -77 -3 -144 -4 -150 -2 -5 -6 57 -9 140 -4 132 -7 150 -22 153 -17 3 -18 -10 -18 -172z"/>
<path d="M6300 6170 l0 -140 30 0 30 0 0 140 0 140 -30 0 -30 0 0 -140z"/>
<path d="M6430 6171 l0 -141 30 0 31 0 -3 138 -3 137 -27 3 -28 3 0 -140z"/>
<path d="M6540 6170 l0 -140 25 0 25 0 0 140 0 140 -25 0 -25 0 0 -140z"/>
<path d="M6610 6160 l0 -150 -35 0 c-31 0 -35 -3 -35 -25 l0 -25 213 2 c211 3 212 3 215 26 3 21 1 22 -77 22 l-81 0 0 150 c0 93 -4 150 -10 150 -6 0 -10 -30 -10 -71 0 -51 -3 -70 -12 -67 -8 3 -12 27 -13 69 l0 64 -54 0 -54 0 -4 -48 c-3 -29 0 -54 8 -63 8 -10 8 -14 0 -14 -6 0 -11 -4 -11 -9 0 -5 27 -7 59 -5 34 3 62 0 66 -6 6 -10 -101 -15 -127 -5 -10 4 -12 25 -10 80 3 63 1 75 -12 75 -14 0 -16 -20 -16 -150z"/>
<path d="M6830 6170 l0 -140 65 0 65 0 0 140 0 140 -65 0 -65 0 0 -140z"/>
<path d="M6980 6170 c0 -118 2 -140 15 -140 13 0 15 22 15 140 0 118 -2 140 -15 140 -13 0 -15 -22 -15 -140z"/>
<path d="M1594 6222 l-172 -2 -6 -33 c-4 -17 -4 -76 0 -129 l7 -98 343 0 344 0 0 130 0 130 -92 1 c-51 0 -129 1 -173 2 -44 1 -157 1 -251 -1z m266 -127 l0 -106 -97 3 -98 3 -2 103 -1 102 99 0 99 0 0 -105z"/>
<path d="M1682 6093 l3 -88 78 -3 77 -3 0 91 0 90 -80 0 -81 0 3 -87z"/>
<path d="M2197 6113 c-4 -3 -7 -39 -7 -80 l0 -73 169 0 c103 0 172 4 176 10 3 6 3 42 -1 80 l-7 70 -162 0 c-89 0 -165 -3 -168 -7z"/>
<path d="M2554 6106 c-3 -7 -4 -42 -2 -77 l3 -64 173 -3 172 -2 0 80 0 80 -170 0 c-134 0 -172 -3 -176 -14z"/>
<path d="M2920 6040 l0 -80 170 0 170 0 0 80 0 80 -170 0 -170 0 0 -80z"/>
<path d="M1240 5895 c0 -2 8 -20 17 -40 l17 -35 255 2 256 3 3 38 3 37 -275 0 c-152 0 -276 -2 -276 -5z"/>
<path d="M1800 5890 c0 -6 35 -10 85 -10 l85 0 0 -30 0 -30 645 0 645 1 0 39 0 40 -730 0 c-480 0 -730 -3 -730 -10z"/>
<path d="M1492 5708 c3 -21 9 -23 66 -26 61 -3 62 -2 62 23 0 24 -2 25 -66 25 -62 0 -65 -1 -62 -22z"/>
<path d="M1865 5723 c-38 -2 -79 -7 -90 -12 -11 -4 -38 -16 -60 -26 -33 -15 -63 -18 -175 -16 -137 2 -201 13 -221 38 -8 9 -40 13 -113 13 -98 0 -103 -1 -129 -27 -41 -44 -61 -149 -29 -160 9 -3 25 -13 34 -21 16 -13 19 -11 34 22 l18 36 82 0 c81 0 83 -1 101 -30 10 -18 23 -28 33 -25 8 2 97 5 197 7 134 2 186 -1 195 -10 10 -10 16 -6 28 20 15 33 15 33 98 36 81 3 83 2 98 -25 l16 -28 144 3 144 3 0 -25 c0 -34 20 -76 37 -76 24 0 10 87 -16 93 -9 3 12 5 47 6 35 1 62 -3 62 -9 0 -20 15 -9 31 23 l16 32 87 3 87 3 15 -37 c14 -33 16 -35 32 -21 12 11 42 17 92 19 l75 3 3 63 3 62 -43 0 c-60 0 -116 18 -131 41 -10 17 -24 19 -114 19 -92 0 -106 -2 -139 -25 -35 -24 -43 -25 -190 -25 -109 0 -163 4 -186 14 -18 8 -46 20 -63 27 -37 17 -27 15 -110 12z"/>
<path d="M2132 5708 c3 -21 9 -23 66 -26 61 -3 62 -2 62 23 0 24 -2 25 -66 25 -62 0 -65 -1 -62 -22z"/>
<path d="M2920 5655 l0 -75 1140 0 1140 0 0 75 0 75 -1140 0 -1140 0 0 -75z"/>
<path d="M5862 5708 c3 -21 9 -23 71 -26 66 -3 67 -3 67 23 0 24 -2 25 -71 25 -67 0 -70 -1 -67 -22z"/>
<path d="M6150 5710 c-93 -49 -104 -51 -253 -44 -124 6 -148 9 -186 30 -38 21 -57 24 -143 24 -91 0 -101 -2 -118 -22 -14 -17 -35 -26 -87 -33 l-68 -10 0 -60 0 -60 79 -3 c57 -2 83 -7 91 -18 9 -13 13 -10 28 20 l17 36 78 0 c82 0 99 -8 116 -54 5 -14 9 -16 20 -7 10 9 75 12 217 10 l202 -1 16 26 c15 25 20 26 99 26 l83 0 15 -36 c12 -28 18 -33 29 -24 9 8 74 10 213 8 l200 -3 15 28 c15 26 19 27 97 27 l81 0 21 -35 c19 -33 22 -35 38 -20 9 8 24 15 34 15 14 0 16 6 11 38 -14 82 -18 97 -38 124 -20 27 -23 28 -122 28 -94 0 -106 -2 -161 -31 l-59 -31 -140 7 c-77 4 -151 12 -165 19 -14 7 -38 19 -55 27 -45 23 -162 22 -205 -1z"/>
<path d="M6510 5705 c0 -25 1 -26 63 -23 56 3 62 5 65 26 3 21 0 22 -62 22 -64 0 -66 -1 -66 -25z"/>
<path d="M2920 5470 l0 -90 1144 0 1145 0 -5 88 -4 87 -1140 3 -1140 2 0 -90z"/>
<path d="M1440 5488 c0 -13 -3 -33 -6 -45 -8 -29 21 -32 36 -4 18 34 13 71 -10 71 -14 0 -20 -7 -20 -22z"/>
<path d="M1620 5475 c0 -44 -17 -52 -130 -61 -74 -6 -101 -16 -86 -31 8 -9 200 15 229 28 19 9 24 19 25 55 2 38 -1 44 -18 44 -16 0 -20 -7 -20 -35z"/>
<path d="M2088 5504 c-11 -11 2 -79 18 -90 15 -12 51 -18 167 -30 58 -5 67 -4 67 10 0 13 -11 16 -52 17 -29 0 -78 6 -108 12 l-55 12 3 38 c3 31 0 37 -16 37 -10 0 -21 -3 -24 -6z"/>
<path d="M5817 5503 c-14 -13 -8 -83 7 -83 13 0 36 48 36 76 0 14 -31 19 -43 7z"/>
<path d="M6000 5475 c0 -44 -20 -53 -132 -62 -78 -6 -105 -17 -72 -30 22 -8 198 13 225 27 14 8 19 22 19 55 0 38 -3 45 -20 45 -16 0 -20 -7 -20 -35z"/>
<path d="M6467 5496 c-3 -8 -1 -30 4 -50 9 -32 14 -35 62 -45 29 -5 85 -13 126 -17 60 -5 73 -4 69 7 -3 9 -28 17 -69 21 -35 4 -82 11 -104 15 -38 9 -40 11 -40 46 0 31 -3 37 -21 37 -12 0 -24 -6 -27 -14z"/>
<path d="M6647 5478 c7 -39 20 -58 40 -58 10 0 13 6 9 16 -3 9 -6 29 -6 45 0 24 -4 29 -25 29 -22 0 -24 -3 -18 -32z"/>
</g>
</svg>