<svg xmlns="http://www.w3.org/2000/svg" viewBox="22.00 55.40 1364.00 193.60">
<g transform="translate(0.000000,768.000000) scale(0.100000,-0.100000)" fill="currentColor" stroke="none">
<path d="M5370 7073 c-30 -2 -79 -5 -107 -9 -51 -5 -53 -7 -53 -35 l0 -29 235 0 235 0 0 29 c0 27 -3 30 -42 35 -61 7 -204 12 -268 9z"/>
<path d="M4180 7020 c0 -51 8 -61 29 -36 6 8 23 16 37 19 24 4 25 3 22 -37 -3 -39 -1 -41 26 -44 15 -2 40 -1 53 3 22 5 24 10 19 40 -6 32 -5 35 17 35 14 0 30 -7 37 -15 22 -26 30 -16 30 35 0 28 -2 50 -4 50 -3 0 -22 -10 -42 -22 -26 -15 -39 -18 -42 -10 -5 15 -74 16 -89 1 -9 -9 -21 -6 -48 10 -20 11 -38 21 -41 21 -2 0 -4 -22 -4 -50z"/>
<path d="M5928 7063 c-23 -4 -28 -9 -28 -34 l0 -29 235 0 235 0 0 29 c0 25 -4 29 -37 35 -41 6 -360 6 -405 -1z"/>
<path d="M9380 7000 c0 -64 8 -72 44 -45 25 19 116 20 116 3 0 -7 -7 -21 -14 -30 -12 -16 -37 -18 -270 -18 -280 0 -291 -2 -338 -58 -13 -16 -44 -63 -68 -106 -28 -49 -51 -78 -64 -81 -100 -19 -238 -35 -300 -35 -41 0 -77 -4 -81 -9 -12 -20 -18 -173 -7 -179 7 -5 1 -71 -18 -212 -15 -113 -31 -238 -35 -277 l-7 -73 216 0 c137 0 216 -4 216 -10 0 -6 -88 -10 -245 -10 l-245 0 0 -49 c0 -43 3 -50 24 -55 21 -5 66 -60 66 -80 0 -14 -78 -6 -84 9 -4 11 -22 15 -71 15 l-65 0 0 -70 0 -70 65 0 c49 0 67 4 71 15 7 16 41 20 62 7 9 -7 0 -34 -38 -113 -27 -57 -50 -107 -50 -111 0 -5 56 -8 125 -8 l125 0 26 40 c25 38 29 40 79 40 l52 0 10 78 c6 43 18 96 28 116 26 54 81 104 124 113 20 4 146 7 280 8 187 0 245 -3 248 -12 4 -10 -36 -13 -179 -13 l-183 0 -75 -37 c-41 -20 -82 -40 -90 -43 -20 -9 -26 -70 -8 -70 31 0 51 -29 68 -96 l18 -69 101 -3 100 -3 6 28 c26 125 40 138 144 138 l76 0 5 -80 5 -80 100 0 100 0 3 40 c5 59 22 69 22 13 0 -70 -13 -78 -129 -78 -68 0 -102 4 -109 13 -6 7 -12 44 -14 82 -3 59 -6 70 -22 73 -33 7 -39 -12 -21 -79 28 -110 26 -109 169 -109 87 0 126 4 133 13 14 16 41 104 45 142 3 26 -1 30 -27 36 -49 10 -4 22 60 17 79 -7 96 -26 120 -141 l6 -28 100 3 101 3 18 69 c17 67 37 96 68 96 18 0 12 61 -8 70 -8 3 -47 23 -87 43 l-72 37 -156 0 c-136 0 -155 2 -155 16 0 15 24 16 249 11 281 -6 276 -5 356 -86 l49 -51 758 0 758 0 66 60 c36 33 78 63 93 68 14 4 158 7 320 7 227 0 295 -3 298 -12 4 -10 -43 -13 -211 -13 l-215 0 -64 -35 c-35 -19 -71 -35 -80 -35 -18 0 -37 -29 -37 -57 0 -10 14 -24 33 -33 32 -15 38 -29 61 -132 l6 -28 101 0 c71 0 101 4 103 13 2 6 9 35 15 62 18 76 37 89 131 93 l79 4 3 -83 3 -84 103 -3 102 -3 0 35 c0 19 5 38 10 41 14 9 13 -68 -2 -83 -14 -14 -196 -16 -218 -2 -10 6 -16 32 -18 84 -4 67 -6 76 -23 76 -11 0 -22 -7 -25 -15 -8 -20 25 -151 41 -165 8 -7 60 -10 141 -8 l129 3 19 68 c19 65 36 88 36 47 0 -12 7 -34 15 -50 14 -27 14 -29 -5 -35 -11 -4 -20 -13 -20 -21 0 -10 13 -14 50 -14 38 0 64 -8 103 -30 l52 -30 -385 0 -385 0 45 27 c31 18 63 28 102 31 41 3 58 9 58 18 0 8 -9 14 -21 14 -17 0 -19 4 -13 23 13 40 24 92 24 116 0 22 -3 23 -37 18 -45 -8 -68 -33 -78 -84 -14 -77 -23 -83 -133 -83 -53 0 -102 4 -108 8 -6 4 -17 32 -24 62 -16 72 -34 100 -65 100 -27 0 -29 6 -16 63 7 28 6 37 -4 37 -46 0 -61 -129 -25 -209 24 -52 24 -51 5 -51 -8 0 -15 -6 -15 -14 0 -9 18 -15 55 -19 32 -3 72 -16 97 -31 l43 -26 -1070 0 -1070 0 40 25 c27 16 55 24 86 25 25 0 54 7 65 15 19 14 19 15 -3 21 l-22 6 20 41 c13 25 21 61 22 96 1 67 -8 98 -33 111 -16 9 -18 5 -16 -43 1 -47 -1 -52 -20 -49 -29 4 -39 -12 -59 -88 -9 -36 -22 -68 -28 -72 -15 -10 -199 -10 -213 0 -7 4 -17 33 -24 65 -17 74 -27 86 -73 94 l-37 6 0 -42 c0 -23 7 -58 15 -78 19 -44 19 -43 -5 -43 -11 0 -20 -7 -20 -15 0 -11 13 -15 53 -15 41 0 61 -7 96 -30 l44 -30 -384 0 -383 0 39 22 c22 11 67 24 100 27 44 4 61 10 63 22 2 10 -5 19 -17 22 -20 5 -20 7 -6 41 8 19 15 54 15 76 0 35 -3 40 -24 40 -40 0 -73 -35 -85 -92 -7 -28 -16 -58 -23 -65 -12 -15 -194 -19 -216 -4 -7 4 -20 36 -28 71 -17 73 -30 93 -55 87 -23 -6 -32 21 -23 68 8 42 -8 47 -32 9 -24 -36 -23 -127 3 -186 l21 -46 -21 -6 c-17 -4 -18 -7 -7 -21 10 -12 27 -16 60 -14 33 2 57 -3 81 -18 19 -11 41 -23 49 -26 8 -3 -439 -6 -995 -6 -854 0 -1005 2 -980 13 70 31 108 95 108 176 0 30 -7 71 -16 90 l-15 35 -1 -31 c-1 -36 -43 -170 -58 -185 -5 -5 -48 -9 -99 -7 l-88 3 -16 41 c-19 53 -37 74 -63 74 -17 0 -19 -5 -14 -40 8 -62 50 -124 99 -149 l43 -21 -285 0 c-261 0 -282 1 -255 15 41 21 92 80 100 116 8 35 27 37 49 4 19 -28 60 -41 169 -50 63 -6 77 -5 77 7 0 11 -24 17 -95 25 -122 13 -150 33 -47 33 41 0 72 -4 72 -10 0 -5 9 -10 21 -10 14 0 19 5 16 14 -3 8 -1 16 6 19 8 2 6 11 -6 30 -9 14 -17 29 -17 32 0 3 22 5 50 5 32 0 61 7 82 20 43 26 171 28 206 4 13 -9 25 -14 28 -11 2 2 7 34 11 71 9 97 -2 106 -129 106 -82 0 -103 -3 -126 -20 -15 -10 -49 -24 -75 -30 -65 -14 -285 -3 -311 16 -11 8 -30 14 -43 14 -12 0 -25 5 -28 10 -10 17 -170 13 -185 -5 -7 -8 -27 -15 -46 -15 -18 0 -36 -4 -39 -10 -4 -6 -70 -10 -164 -10 -152 0 -160 1 -195 25 -33 22 -47 25 -136 25 -96 0 -99 -1 -120 -27 -19 -24 -31 -29 -88 -33 l-67 -5 0 -60 0 -60 73 -3 c60 -2 80 1 108 18 48 28 159 28 214 0 22 -11 58 -20 80 -20 40 0 41 -1 36 -27 -3 -16 -8 -45 -12 -65 l-6 -38 126 0 127 0 -6 53 c-4 28 -8 58 -10 65 -3 8 9 12 38 12 25 0 54 8 72 20 43 28 176 28 223 0 18 -11 50 -20 72 -20 39 0 39 -1 28 -25 -14 -30 -28 -33 -28 -5 0 52 -61 -6 -75 -72 -8 -34 -27 -40 -125 -36 -72 3 -75 4 -88 33 -28 66 -39 80 -60 83 -19 3 -22 -1 -22 -29 0 -54 38 -118 88 -150 l46 -29 -280 0 -279 1 38 20 c48 25 85 82 93 143 7 46 6 48 -17 44 -22 -3 -30 -13 -69 -98 -6 -12 -27 -15 -96 -15 l-89 0 -13 30 c-28 66 -39 80 -60 83 -19 3 -22 -1 -22 -33 0 -63 41 -126 105 -159 27 -14 -101 -16 -1435 -15 -981 0 -1457 4 -1440 10 61 25 110 94 110 159 0 78 -48 42 -83 -62 -6 -15 -20 -18 -96 -18 l-90 0 -28 58 c-20 41 -34 58 -50 60 -26 4 -29 -11 -13 -70 13 -44 52 -93 95 -119 30 -19 27 -19 -250 -19 -278 0 -279 0 -245 19 55 29 92 82 98 141 4 46 3 50 -17 50 -16 0 -28 -14 -49 -57 l-27 -58 -86 -3 c-96 -3 -96 -3 -123 71 -15 39 -22 47 -43 47 -18 0 -24 -4 -19 -15 8 -22 -12 -18 -24 4 -15 29 -13 31 23 31 18 0 49 9 70 20 52 28 179 28 222 0 18 -12 47 -20 72 -20 l42 0 -6 -65 -6 -65 127 0 c126 0 126 0 121 23 -3 12 -9 41 -14 65 l-9 42 47 0 c30 0 55 7 71 20 37 29 169 28 216 0 27 -17 46 -20 106 -18 l73 3 3 63 3 62 -65 0 c-59 0 -66 2 -89 30 -25 30 -27 30 -127 30 -94 0 -104 -2 -132 -25 -29 -24 -33 -25 -193 -25 -98 0 -166 4 -170 10 -3 6 -19 10 -34 10 -16 0 -34 7 -41 15 -9 11 -34 15 -101 15 -48 0 -91 -4 -94 -10 -3 -5 -16 -10 -29 -10 -12 0 -31 -7 -42 -15 -15 -11 -54 -14 -174 -15 -147 0 -157 1 -195 25 -35 21 -52 24 -136 25 -133 0 -144 -9 -134 -108 4 -40 10 -74 15 -77 4 -2 15 4 25 15 26 29 160 29 207 0 21 -12 51 -20 81 -20 35 0 47 -4 47 -15 0 -9 -7 -18 -15 -21 -8 -4 -15 -13 -15 -21 0 -8 5 -11 12 -7 8 5 9 0 6 -14 -5 -16 -2 -22 11 -22 9 0 21 4 27 9 13 12 110 20 126 10 22 -14 0 -22 -98 -33 -67 -8 -99 -16 -102 -25 -4 -12 10 -13 79 -7 111 9 159 24 170 53 10 26 49 32 49 7 0 -36 36 -88 79 -115 l45 -29 -280 0 c-261 1 -277 2 -249 17 17 8 39 23 49 32 26 23 56 90 56 129 0 29 -3 33 -22 30 -21 -3 -32 -17 -60 -83 -13 -30 -14 -30 -99 -33 -63 -2 -89 1 -97 11 -18 22 -62 145 -62 174 0 52 -22 7 -27 -56 -9 -97 24 -163 102 -204 28 -15 -4 -16 -422 -17 l-453 0 0 -30 0 -30 6770 0 6770 0 0 30 0 30 -377 0 -378 0 44 25 c27 16 59 25 86 25 24 0 50 3 59 6 20 8 21 34 1 34 -19 0 -19 10 0 46 31 61 31 167 -1 199 -25 24 -29 18 -26 -35 4 -48 3 -50 -23 -50 -29 0 -47 -32 -60 -105 -4 -22 -12 -46 -18 -52 -12 -16 -189 -18 -217 -3 -11 6 -21 26 -25 52 -14 82 -38 107 -103 108 -13 0 -20 4 -17 10 9 15 52 12 85 -5 29 -15 43 -44 56 -118 l6 -38 101 3 101 3 8 35 c20 81 39 120 64 126 22 6 25 11 22 43 -2 29 -8 37 -28 41 -14 3 -50 19 -80 35 -51 28 -64 30 -185 35 -79 3 -129 9 -128 15 4 13 158 18 313 10 l125 -7 41 -43 c25 -26 49 -63 59 -94 l17 -51 79 0 c64 0 79 3 79 15 0 24 31 31 45 11 10 -14 26 -16 76 -14 l64 3 0 65 0 65 -64 3 c-50 2 -66 0 -76 -14 -20 -29 -43 -10 -47 38 l-3 43 -371 3 -371 2 -7 -127 c-4 -70 -9 -130 -12 -135 -3 -4 -34 -8 -69 -8 l-64 0 -5 33 c-3 17 -8 76 -11 131 -5 79 -4 97 7 94 7 -3 14 -21 16 -41 l3 -37 60 0 59 0 0 45 0 45 -1579 0 -1579 0 -7 -117 c-9 -162 -4 -153 -80 -153 l-64 0 -6 33 c-3 17 -6 78 -8 134 l-2 103 -527 0 c-345 0 -528 3 -528 10 0 7 865 10 2575 10 l2575 0 0 500 0 499 25 57 c14 31 25 58 25 60 0 2 -209 4 -465 4 l-465 0 0 -60 0 -60 -1310 0 -1310 0 0 60 0 60 -188 0 -189 0 -11 25 c-7 14 -12 28 -12 30 0 12 97 3 114 -10 32 -24 36 -18 36 45 0 33 -3 60 -7 60 -3 0 -15 -8 -26 -17 -37 -34 -297 -27 -297 7 0 6 -7 10 -15 10 -12 0 -15 -13 -15 -60z m-389 -223 c10 -24 8 -35 -21 -92 -46 -90 -52 -94 -89 -53 -17 18 -31 39 -31 47 0 15 68 132 83 143 15 10 45 -13 58 -45z m3457 -77 l962 0 0 -130 0 -130 -1885 0 -1885 0 0 129 0 130 33 3 c17 2 433 2 922 0 490 -1 1323 -2 1853 -2z m-3169 -28 c11 -21 5 -152 -7 -164 -5 -5 -64 -7 -132 -6 -164 4 -170 14 -85 148 l25 40 95 0 c80 0 96 -3 104 -18z m266 -82 l0 -85 -65 -3 c-52 -2 -67 0 -77 14 -17 23 -17 136 -1 152 8 8 36 12 78 10 l65 -3 0 -85z m-185 -351 c0 -239 -4 -419 -9 -419 -18 0 -18 -14 -12 683 1 109 5 166 11 162 6 -4 10 -157 10 -426z m250 0 c0 -284 -3 -428 -10 -424 -6 4 -10 158 -10 431 0 276 3 424 10 424 7 0 10 -150 10 -431z m538 141 c61 -37 66 -108 10 -155 -16 -14 -42 -25 -58 -25 -36 0 -87 42 -95 80 -8 36 16 85 53 104 36 20 51 20 90 -4z m2155 -21 c25 -31 22 -92 -7 -126 -66 -77 -198 12 -154 104 29 61 118 73 161 22z m242 -265 c0 -201 -3 -278 -12 -281 -8 -3 -11 68 -12 272 -1 152 1 281 5 286 16 26 19 -22 19 -277z m245 170 l0 -104 333 0 332 0 -3 -175 c-2 -102 -7 -175 -12 -175 -6 0 -10 67 -10 165 l0 165 -55 0 -55 0 0 -166 c0 -107 -3 -163 -10 -159 -6 4 -10 71 -10 168 l0 162 -255 0 -255 0 0 -162 c0 -97 -4 -164 -10 -168 -7 -4 -10 92 -10 280 0 188 3 284 10 280 6 -3 10 -52 10 -111z m-4101 87 c7 -5 16 -31 19 -59 4 -41 1 -53 -17 -71 -19 -19 -32 -21 -135 -21 -137 0 -146 5 -146 84 0 28 5 57 12 64 14 14 245 17 267 3z m2744 -191 c710 0 1066 -3 1062 -10 -8 -14 -2855 -14 -2855 0 0 11 203 16 510 12 118 -1 696 -2 1283 -2z m-1894 -64 c7 -8 11 -34 9 -58 l-3 -43 -70 0 -70 0 -3 43 c-4 59 9 72 73 72 33 0 57 -5 64 -14z m9 -203 l3 -53 -75 0 -76 0 0 48 c0 27 3 52 7 56 4 4 37 6 73 4 l65 -3 3 -52z m3192 -48 c0 -12 -16 -15 -85 -15 -69 0 -85 3 -85 15 0 12 16 15 85 15 69 0 85 -3 85 -15z m-4090 -361 l0 -35 -42 3 c-32 2 -44 8 -46 21 -7 35 6 47 48 47 39 0 40 -1 40 -36z"/>
<path d="M1212 7018 c-17 -17 -15 -95 2 -105 13 -7 12 -23 -4 -116 -10 -60 -20 -111 -23 -113 -3 -3 -222 -14 -280 -14 -4 0 16 -29 44 -65 28 -36 56 -65 61 -65 6 0 89 28 184 61 l172 62 22 115 21 116 -40 57 c-23 32 -41 63 -41 69 0 14 -103 13 -118 -2z m168 -165 c0 -7 -11 -57 -25 -120 -5 -21 -11 -23 -71 -23 -58 0 -65 2 -60 18 3 9 8 40 12 67 3 28 8 53 11 58 2 4 33 7 69 7 35 0 64 -3 64 -7z"/>
<path d="M3432 6995 l-12 -25 170 0 c94 0 170 3 170 6 0 3 -5 14 -10 25 -10 17 -23 19 -159 19 l-148 0 -11 -25z"/>
<path d="M1360 7005 c0 -2 14 -25 32 -50 l32 -45 353 0 353 0 0 50 0 50 -385 0 c-212 0 -385 -2 -385 -5z"/>
<path d="M2150 6930 l0 -70 380 0 380 0 0 70 0 70 -380 0 -380 0 0 -70z"/>
<path d="M2930 6930 c0 -56 3 -70 15 -70 11 0 15 12 15 50 0 28 5 50 10 50 6 0 10 -22 10 -50 0 -67 20 -64 22 3 l1 52 4 -45 c6 -66 23 -75 23 -12 0 29 5 52 10 52 6 0 10 -23 10 -51 0 -31 4 -48 10 -44 6 3 10 26 10 51 0 24 3 44 8 44 4 0 6 -18 4 -41 -3 -22 1 -46 7 -52 8 -8 11 3 11 41 0 29 5 52 10 52 6 0 10 -23 10 -52 0 -63 17 -54 23 12 l4 45 1 -52 c2 -67 22 -70 22 -3 0 28 5 50 10 50 6 0 10 -23 10 -52 0 -63 17 -54 23 12 l4 45 1 -47 c3 -65 22 -73 22 -9 0 28 5 51 10 51 6 0 10 -23 10 -51 0 -34 4 -48 11 -43 7 4 9 23 5 50 -3 26 -2 44 4 44 6 0 10 -22 10 -50 0 -43 3 -50 20 -50 18 0 20 7 20 70 l0 70 -200 0 -200 0 0 -70z"/>
<path d="M5046 6958 c-9 -12 -16 -26 -16 -30 0 -5 344 -8 765 -8 421 0 765 2 765 5 0 3 -7 17 -16 30 l-16 25 -734 0 -733 0 -15 -22z"/>
<path d="M6610 6964 c0 -9 -6 -14 -13 -11 -10 4 -12 -19 -10 -112 4 -102 1 -125 -21 -191 l-24 -75 -761 -3 -761 -2 0 -120 0 -120 535 0 534 0 4 83 3 82 2 -82 c3 -108 22 -110 22 -3 0 47 4 80 10 80 6 0 10 -33 10 -80 0 -106 18 -104 23 3 l3 82 2 -82 c3 -105 22 -111 22 -8 0 43 4 75 10 75 6 0 10 -32 10 -75 0 -43 4 -75 10 -75 6 0 10 34 10 81 0 55 3 78 11 74 7 -5 8 -32 4 -81 -5 -52 -4 -74 4 -74 7 0 11 26 11 74 0 41 5 78 10 81 6 4 10 -23 10 -74 l0 -81 395 0 395 0 0 325 0 325 -230 0 c-205 0 -230 -2 -230 -16z m30 -549 c0 -51 -3 -65 -15 -65 -12 0 -15 14 -15 65 0 51 3 65 15 65 12 0 15 -14 15 -65z m40 0 c0 -37 -4 -65 -10 -65 -6 0 -10 28 -10 65 0 37 4 65 10 65 6 0 10 -28 10 -65z m50 0 c0 -37 -4 -65 -10 -65 -6 0 -10 28 -10 65 0 37 4 65 10 65 6 0 10 -28 10 -65z m50 0 c0 -37 -4 -65 -10 -65 -6 0 -10 28 -10 65 0 37 4 65 10 65 6 0 10 -28 10 -65z m40 0 c0 -37 -4 -65 -10 -65 -6 0 -10 28 -10 65 0 37 4 65 10 65 6 0 10 -28 10 -65z m50 0 c0 -37 -4 -65 -10 -65 -6 0 -10 28 -10 65 0 37 4 65 10 65 6 0 10 -28 10 -65z m50 0 c0 -37 -4 -65 -10 -65 -6 0 -10 28 -10 65 0 37 4 65 10 65 6 0 10 -28 10 -65z m50 31 c0 -47 -11 -96 -21 -96 -5 0 -9 29 -9 65 0 51 3 65 15 65 10 0 15 -10 15 -34z m40 -31 c0 -37 -4 -65 -10 -65 -6 0 -10 28 -10 65 0 37 4 65 10 65 6 0 10 -28 10 -65z"/>
<path d="M3563 6953 l-213 -3 0 -48 c0 -32 12 -78 35 -135 l35 -87 0 -175 0 -175 790 0 790 0 -2 288 -3 287 -590 0 -590 0 -3 -63 c-4 -92 -22 -66 -22 34 0 46 -3 83 -7 82 -5 -2 -104 -4 -220 -5z"/>
<path d="M7090 6641 l0 -308 41 -6 c23 -3 46 -11 50 -19 11 -16 12 -689 2 -715 -5 -10 -10 146 -13 347 l-5 365 -35 0 -35 0 -3 -172 -2 -173 25 0 c20 0 25 -5 25 -24 0 -23 -5 -25 -62 -31 -35 -3 -1417 -4 -3073 -3 l-3010 3 -5 315 -5 315 -54 68 c-56 68 -74 79 -85 51 -3 -9 -6 -168 -6 -355 l0 -340 -58 3 -57 3 -3 178 -2 178 -63 -3 -62 -3 -3 -177 c-2 -149 -5 -178 -17 -178 -10 0 -15 -11 -15 -35 l0 -35 65 0 65 0 0 -85 0 -85 -30 0 c-23 0 -30 -5 -30 -19 0 -27 -20 -38 -32 -17 -7 12 -24 16 -73 16 l-65 0 0 -70 0 -70 65 0 c49 0 67 4 71 15 4 8 11 15 16 15 20 0 -1 -103 -36 -177 l-35 -73 69 0 c40 0 70 4 70 10 0 6 9 10 20 10 20 0 20 7 20 285 0 183 4 285 10 285 6 0 10 -21 10 -47 l0 -48 80 3 c51 2 80 0 80 -7 0 -6 -34 -11 -82 -13 l-83 -3 0 -55 0 -55 83 -3 c105 -4 108 -22 3 -22 l-78 0 -7 -37 c-12 -76 -15 -73 79 -73 109 0 112 -18 3 -22 l-83 -3 0 -55 0 -55 126 -3 126 -3 6 63 c4 35 9 107 13 161 l7 97 3047 0 3047 0 7 -46 c3 -26 6 -77 6 -114 0 -37 3 -88 6 -114 l7 -46 123 0 124 0 0 60 0 60 -86 0 c-54 0 -83 4 -79 10 3 6 42 10 86 10 l79 0 0 55 0 55 -80 0 c-47 0 -80 4 -80 10 0 6 33 10 80 10 l80 0 0 60 0 60 -80 0 c-44 0 -80 3 -80 8 0 4 36 6 80 4 l80 -4 0 51 c0 28 5 51 10 51 6 0 10 -102 10 -285 0 -278 0 -285 20 -285 19 0 20 7 20 95 0 80 2 95 16 95 9 0 18 9 21 20 5 19 7 20 29 5 14 -9 46 -15 84 -15 l60 0 0 70 0 70 -64 0 c-44 0 -67 -5 -76 -15 -17 -21 -30 -19 -30 5 0 13 -7 20 -20 20 -17 0 -20 7 -20 44 0 24 -3 64 -6 89 l-7 46 64 3 c64 3 64 3 67 34 2 25 -1 33 -17 37 -20 5 -21 12 -21 182 l0 176 -62 -3 -63 -3 -3 -177 -2 -178 -60 0 -60 0 0 364 c0 320 2 365 16 377 16 13 16 34 -1 129 -3 19 -8 54 -11 78 l-5 42 -90 0 -89 0 0 -309z m-6390 -511 l0 -170 -40 0 -40 0 0 170 0 170 40 0 40 0 0 -170z m6800 0 l0 -170 -40 0 -40 0 0 170 0 170 40 0 40 0 0 -170z m-6551 -362 c-1 -137 -4 -173 -9 -126 -4 38 -6 96 -5 130 4 160 5 188 10 188 3 0 4 -87 4 -192z"/>
<path d="M5020 6855 l0 -45 343 -1 c188 0 537 -1 775 -2 l432 -2 0 48 0 47 -775 0 -775 0 0 -45z"/>
<path d="M1426 6873 c-2 -10 -12 -64 -22 -120 -12 -72 -22 -104 -33 -108 -9 -4 -86 -32 -171 -62 -85 -30 -163 -59 -173 -65 -16 -8 -17 -30 -15 -281 l3 -272 190 0 190 0 102 135 102 135 263 5 263 5 0 320 0 320 -347 3 c-324 2 -347 1 -352 -15z m164 -163 l0 -110 -60 0 -60 0 0 110 0 110 60 0 60 0 0 -110z m450 0 l0 -110 -65 0 -65 0 0 103 c0 57 3 107 7 110 3 4 33 7 65 7 l58 0 0 -110z m-227 81 l57 -1 0 -90 0 -90 -67 -2 c-38 -1 -90 -2 -118 -2 l-50 -1 -3 92 -3 92 43 3 c24 2 52 2 63 1 11 -1 46 -2 78 -2z"/>
<path d="M2150 6715 l0 -130 42 1 43 1 3 126 3 125 -46 4 -45 3 0 -130z"/>
<path d="M2260 6714 l0 -132 158 3 157 3 3 125 3 126 -161 3 -160 3 0 -131z"/>
<path d="M2600 6714 l0 -131 155 1 155 1 0 127 0 127 -155 3 -155 3 0 -131z"/>
<path d="M2930 6770 l0 -70 153 0 c85 0 156 2 158 4 8 8 -3 136 -11 136 -5 0 -11 -28 -13 -62 l-3 -63 -2 63 c-2 76 -22 83 -22 7 0 -30 -4 -55 -10 -55 -5 0 -10 25 -10 55 0 76 -18 70 -23 -7 l-3 -63 -2 63 c-3 80 -22 82 -22 1 0 -37 -4 -58 -10 -54 -5 3 -10 31 -10 61 0 75 -18 68 -23 -8 l-3 -63 -2 63 c-3 80 -22 82 -22 1 0 -37 -4 -58 -10 -54 -5 3 -10 31 -10 61 0 75 -18 68 -23 -8 l-3 -63 -2 63 c-2 76 -22 83 -22 7 0 -30 -4 -55 -10 -55 -5 0 -10 25 -10 55 0 42 -3 55 -15 55 -12 0 -15 -14 -15 -70z"/>
<path d="M3272 6773 l-2 -73 30 0 30 0 0 70 c0 63 -2 70 -20 70 -18 0 -20 -7 -22 -62 l-1 -63 -7 65 -7 65 -1 -72z"/>
<path d="M3348 6740 l-3 -55 -37 -3 c-38 -3 -38 -4 -38 -47 0 -43 0 -44 38 -47 l37 -3 5 -310 5 -310 68 -3 67 -3 0 175 0 175 -42 3 -43 3 -5 190 c-4 166 -8 196 -27 240 l-21 50 -4 -55z"/>
<path d="M5020 6684 l0 -105 243 3 242 3 8 90 c4 50 5 96 2 103 -3 9 -63 12 -250 12 l-245 0 0 -106z m60 1 c0 -41 -4 -77 -10 -80 -6 -4 -10 25 -10 80 0 55 4 84 10 80 6 -3 10 -39 10 -80z m30 -1 c0 -54 -4 -83 -10 -79 -5 3 -10 42 -10 86 0 46 4 79 10 79 6 0 10 -35 10 -86z m27 -47 c-2 -23 -3 -1 -3 48 0 50 1 68 3 42 2 -26 2 -67 0 -90z m43 54 c0 -44 -4 -83 -10 -86 -6 -4 -10 25 -10 79 0 51 4 86 10 86 6 0 10 -33 10 -79z m30 -7 c0 -54 -4 -83 -10 -79 -5 3 -10 42 -10 86 0 46 4 79 10 79 6 0 10 -35 10 -86z m32 -10 l-9 -79 -2 90 c-1 61 2 86 9 79 7 -7 8 -37 2 -90z m38 11 c0 -50 -4 -85 -10 -85 -6 0 -10 35 -10 85 0 50 4 85 10 85 6 0 10 -35 10 -85z m27 -48 c-2 -23 -3 -1 -3 48 0 50 1 68 3 42 2 -26 2 -67 0 -90z m43 48 c0 -50 -4 -85 -10 -85 -6 0 -10 35 -10 85 0 50 4 85 10 85 6 0 10 -35 10 -85z m30 -1 c0 -54 -4 -83 -10 -79 -5 3 -10 42 -10 86 0 46 4 79 10 79 6 0 10 -35 10 -86z m40 1 c0 -41 -4 -77 -10 -80 -6 -4 -10 25 -10 80 0 55 4 84 10 80 6 -3 10 -39 10 -80z m30 0 c0 -50 -4 -85 -10 -85 -6 0 -10 35 -10 85 0 50 4 85 10 85 6 0 10 -35 10 -85z m27 -48 c-2 -23 -3 -1 -3 48 0 50 1 68 3 42 2 -26 2 -67 0 -90z"/>
<path d="M5534 6777 c-2 -7 -3 -53 -2 -102 l3 -90 258 -1 257 0 0 103 0 103 -255 0 c-199 0 -257 -3 -261 -13z m56 -92 c0 -50 -4 -85 -10 -85 -6 0 -10 35 -10 85 0 50 4 85 10 85 6 0 10 -35 10 -85z m27 -48 c-2 -23 -3 -1 -3 48 0 50 1 68 3 42 2 -26 2 -67 0 -90z m43 48 c0 -41 -4 -77 -10 -80 -6 -4 -10 25 -10 80 0 55 4 84 10 80 6 -3 10 -39 10 -80z m30 0 c0 -50 -4 -85 -10 -85 -6 0 -10 35 -10 85 0 50 4 85 10 85 6 0 10 -35 10 -85z m27 -48 c-2 -23 -3 -1 -3 48 0 50 1 68 3 42 2 -26 2 -67 0 -90z m43 48 c0 -50 -4 -85 -10 -85 -6 0 -10 35 -10 85 0 50 4 85 10 85 6 0 10 -35 10 -85z m27 -48 c-2 -23 -3 -1 -3 48 0 50 1 68 3 42 2 -26 2 -67 0 -90z m43 54 c0 -44 -4 -83 -10 -86 -6 -4 -10 25 -10 79 0 51 4 86 10 86 6 0 10 -33 10 -79z m30 -7 c0 -54 -4 -83 -10 -79 -5 3 -10 42 -10 86 0 46 4 79 10 79 6 0 10 -35 10 -86z m31 -1 c-3 -107 -11 -106 -11 2 0 49 3 85 7 82 3 -4 5 -42 4 -84z m39 2 c0 -50 -4 -85 -10 -85 -6 0 -10 35 -10 85 0 50 4 85 10 85 6 0 10 -35 10 -85z m27 -48 c-2 -23 -3 -1 -3 48 0 50 1 68 3 42 2 -26 2 -67 0 -90z m43 42 c0 -46 -4 -79 -10 -79 -6 0 -10 35 -10 86 0 54 4 83 10 79 6 -3 10 -42 10 -86z m30 5 c0 -54 -4 -83 -10 -79 -5 3 -10 42 -10 86 0 46 4 79 10 79 6 0 10 -35 10 -86z"/>
<path d="M6074 6777 c-3 -8 -4 -54 -2 -103 l3 -89 224 0 224 0 23 70 c13 39 24 85 24 103 l0 32 -245 0 c-195 0 -247 -3 -251 -13z m36 -92 c0 -50 -4 -85 -10 -85 -6 0 -10 35 -10 85 0 50 4 85 10 85 6 0 10 -35 10 -85z m30 -1 c0 -54 -4 -83 -10 -79 -11 7 -14 148 -3 158 12 13 13 7 13 -79z m40 1 c0 -41 -4 -77 -10 -80 -6 -4 -10 25 -10 80 0 55 4 84 10 80 6 -3 10 -39 10 -80z m30 0 c0 -50 -4 -85 -10 -85 -6 0 -10 35 -10 85 0 50 4 85 10 85 6 0 10 -35 10 -85z m27 -48 c-2 -23 -3 -1 -3 48 0 50 1 68 3 42 2 -26 2 -67 0 -90z m43 48 c0 -50 -4 -85 -10 -85 -6 0 -10 35 -10 85 0 50 4 85 10 85 6 0 10 -35 10 -85z m30 -1 c0 -54 -4 -83 -10 -79 -11 7 -14 148 -3 158 12 13 13 7 13 -79z m40 1 c0 -41 -4 -77 -10 -80 -6 -4 -10 25 -10 80 0 55 4 84 10 80 6 -3 10 -39 10 -80z m30 0 c0 -50 -4 -85 -10 -85 -6 0 -10 35 -10 85 0 50 4 85 10 85 6 0 10 -35 10 -85z m27 -48 c-2 -23 -3 -1 -3 48 0 50 1 68 3 42 2 -26 2 -67 0 -90z m43 48 c0 -50 -4 -85 -10 -85 -6 0 -10 35 -10 85 0 50 4 85 10 85 6 0 10 -35 10 -85z m27 -48 c-2 -23 -3 -1 -3 48 0 50 1 68 3 42 2 -26 2 -67 0 -90z m43 42 c0 -46 -4 -79 -10 -79 -6 0 -10 35 -10 86 0 54 4 83 10 79 6 -3 10 -42 10 -86z"/>
<path d="M2992 6683 l-63 -4 3 -47 3 -47 155 3 155 2 3 44 3 43 -77 6 c-42 4 -86 6 -98 5 -12 -1 -49 -3 -84 -5z"/>
<path d="M2150 6265 l0 -305 590 0 590 0 0 299 0 299 -31 6 c-17 3 -283 6 -590 6 l-559 0 0 -305z"/>
<path d="M3514 6297 c-2 -7 -3 -85 -2 -172 l3 -160 148 -3 147 -3 0 176 0 175 -145 0 c-110 0 -147 -3 -151 -13z"/>
<path d="M3835 6297 c-3 -7 -4 -85 -3 -172 l3 -160 193 0 193 0 0 170 0 170 -191 3 c-150 2 -192 0 -195 -11z"/>
<path d="M4250 6135 l0 -175 195 0 195 0 0 175 0 175 -195 0 -195 0 0 -175z"/>
<path d="M4664 6297 c-2 -7 -3 -85 -2 -172 l3 -160 165 0 165 0 3 173 2 172 -165 0 c-126 0 -167 -3 -171 -13z"/>
<path d="M5020 6136 c0 -150 2 -176 15 -176 13 0 15 25 15 165 0 91 0 168 1 173 0 4 -7 8 -15 10 -14 3 -16 -19 -16 -172z"/>
<path d="M5080 6135 l0 -175 195 0 195 0 0 175 0 175 -195 0 -195 0 0 -175z"/>
<path d="M5495 6297 c-3 -7 -4 -85 -3 -172 l3 -160 195 0 195 0 0 170 0 170 -193 3 c-151 2 -194 0 -197 -11z"/>
<path d="M5910 6135 l0 -175 195 0 195 0 0 170 c0 107 -4 170 -10 170 -6 0 -10 -53 -10 -140 0 -87 -4 -140 -10 -140 -6 0 -10 56 -10 147 0 103 -3 144 -11 136 -6 -6 -9 -60 -7 -147 2 -75 0 -136 -4 -136 -5 0 -8 63 -8 140 0 87 -4 140 -10 140 -6 0 -10 -53 -10 -140 0 -87 -4 -140 -10 -140 -6 0 -10 56 -10 147 0 103 -3 144 -11 136 -6 -6 -9 -60 -7 -147 2 -75 0 -136 -4 -136 -5 0 -8 63 -8 139 0 83 -4 142 -10 146 -6 4 -10 -45 -10 -139 0 -91 -4 -146 -10 -146 -6 0 -10 55 -10 146 0 94 -4 143 -10 139 -6 -4 -11 -67 -12 -148 l-2 -142 -6 145 -5 145 -87 3 -88 3 0 -176z"/>
<path d="M6327 6303 c-4 -3 -7 -82 -7 -175 l0 -168 195 0 195 0 0 175 c0 149 -2 175 -15 175 -12 0 -15 -14 -15 -65 0 -37 -4 -65 -10 -65 -6 0 -10 29 -10 66 0 46 -4 64 -12 62 -8 -3 -11 -25 -9 -66 2 -51 0 -62 -13 -62 -13 0 -16 13 -16 65 l0 65 -138 0 c-76 0 -142 -3 -145 -7z m311 -215 c-2 -38 -8 -63 -15 -66 -10 -3 -13 14 -13 62 0 53 3 66 15 66 13 0 15 -11 13 -62z m42 -3 c0 -37 -4 -65 -10 -65 -6 0 -10 28 -10 65 0 37 4 65 10 65 6 0 10 -28 10 -65z"/>
<path d="M6735 6298 c-3 -8 -4 -86 -3 -173 l3 -160 168 -3 167 -2 0 175 0 175 -30 0 -30 0 0 -65 c0 -83 -18 -85 -22 -2 -2 34 -7 60 -12 57 -5 -3 -8 -31 -7 -62 2 -48 0 -58 -14 -58 -14 0 -16 10 -14 62 2 41 -1 63 -9 66 -8 2 -12 -16 -12 -62 0 -37 -4 -66 -10 -66 -6 0 -10 28 -10 65 0 51 -3 65 -15 65 -12 0 -15 -14 -15 -65 0 -37 -4 -65 -10 -65 -6 0 -10 28 -10 65 0 51 -3 65 -15 65 -12 0 -15 -14 -15 -65 0 -37 -4 -65 -10 -65 -6 0 -10 28 -10 65 0 37 -4 65 -10 65 -6 0 -10 -28 -10 -65 0 -37 -4 -65 -10 -65 -6 0 -10 26 -10 59 0 56 -14 88 -25 59z m45 -213 c0 -37 -4 -65 -10 -65 -6 0 -10 28 -10 65 0 37 4 65 10 65 6 0 10 -28 10 -65z m42 15 c0 -27 1 -55 2 -62 1 -6 -5 -13 -11 -15 -10 -4 -13 13 -13 61 0 77 19 91 22 16z m48 -15 c0 -37 -4 -65 -10 -65 -6 0 -10 28 -10 65 0 37 4 65 10 65 6 0 10 -28 10 -65z m50 0 c0 -37 -4 -65 -10 -65 -6 0 -10 28 -10 65 0 37 4 65 10 65 6 0 10 -28 10 -65z m45 32 c9 -45 3 -90 -12 -95 -10 -3 -13 14 -13 62 0 70 15 89 25 33z m45 -32 c0 -37 -4 -65 -10 -65 -6 0 -10 28 -10 65 0 37 4 65 10 65 6 0 10 -28 10 -65z"/>
<path d="M1531 6111 c-45 -60 -88 -115 -96 -121 -8 -7 -15 -16 -15 -21 0 -5 151 -8 353 -7 l352 3 3 128 3 127 -260 0 -259 0 -81 -109z"/>
<path d="M1502 5708 c3 -21 8 -23 68 -23 60 0 65 2 68 23 3 21 0 22 -68 22 -68 0 -71 -1 -68 -22z"/>
<path d="M2140 5705 c0 -24 2 -25 65 -25 63 0 65 1 65 25 0 24 -2 25 -65 25 -63 0 -65 -1 -65 -25z"/>
<path d="M2920 5555 l0 -175 1143 2 1142 3 0 170 0 170 -1142 3 -1143 2 0 -175z"/>
<path d="M5850 5705 c0 -26 1 -26 68 -23 61 3 67 5 70 26 3 21 0 22 -67 22 -69 0 -71 -1 -71 -25z"/>
<path d="M6490 5705 c0 -24 2 -25 65 -25 63 0 65 1 65 25 0 24 -2 25 -65 25 -63 0 -65 -1 -65 -25z"/>
<path d="M2491 5553 c-14 -3 -34 -11 -47 -19 -21 -15 -21 -15 -3 -51 11 -21 19 -45 19 -55 0 -16 10 -18 85 -18 73 0 86 3 91 18 3 9 13 33 23 53 l18 36 -26 15 c-28 16 -120 28 -160 21z"/>
<path d="M5530 5552 c-33 -4 -80 -23 -80 -31 0 -4 9 -24 20 -46 11 -22 20 -45 20 -52 0 -10 22 -13 85 -13 70 0 85 3 85 15 0 9 9 33 20 55 l20 39 -27 14 c-30 15 -102 25 -143 19z"/>
<path d="M6157 5546 c-21 -8 -40 -16 -42 -18 -2 -2 6 -30 18 -61 l22 -57 85 2 84 3 7 33 c4 18 14 41 23 50 14 17 13 19 -13 35 -41 24 -137 31 -184 13z"/>
<path d="M6812 5540 l-42 -19 20 -33 c11 -18 20 -43 20 -56 0 -22 2 -23 86 -20 l86 3 15 40 c26 72 26 71 -4 83 -54 22 -135 23 -181 2z"/>
<path d="M1126 5535 c-18 -14 -18 -16 -2 -70 l18 -55 84 0 c62 0 84 3 84 13 0 7 9 31 20 52 l21 40 -22 18 c-28 22 -174 24 -203 2z"/>
<path d="M1783 5535 l-21 -14 22 -56 21 -55 83 0 c60 0 82 3 82 13 0 7 9 31 20 52 l20 40 -22 17 c-30 23 -173 25 -205 3z"/>
</g>
</svg>