<svg xmlns="http://www.w3.org/2000/svg" viewBox="22.00 334.00 1364.00 192.00">
<g transform="translate(0.000000,768.000000) scale(0.100000,-0.100000)" fill="currentColor" stroke="none">
<path d="M1306 4268 c4 -13 9 -64 11 -114 4 -73 1 -93 -11 -103 -24 -20 -20 -28 19 -41 46 -15 129 -15 183 -1 45 13 51 21 27 41 -11 9 -15 35 -15 106 0 51 4 96 10 99 6 3 10 13 10 21 0 11 -22 14 -121 14 l-121 0 8 -22z"/>
<path d="M2198 4244 c-66 -20 -78 -42 -78 -142 l0 -83 48 -22 c67 -31 197 -31 266 1 l48 22 -3 84 c-3 72 -7 88 -27 109 -43 45 -161 60 -254 31z"/>
<path d="M3313 4249 c-62 -15 -83 -47 -83 -125 0 -61 1 -64 32 -80 82 -43 299 -20 306 32 2 17 12 23 43 27 23 3 42 7 43 9 2 1 6 28 9 59 6 61 -3 85 -27 76 -12 -5 -16 -20 -16 -57 0 -46 -2 -50 -24 -50 -20 0 -26 7 -33 38 -7 29 -16 41 -46 56 -45 22 -145 29 -204 15z"/>
<path d="M956 4213 c-3 -3 -6 -19 -6 -34 0 -15 -6 -29 -14 -32 -8 -3 -18 -26 -21 -51 -4 -25 -13 -51 -21 -57 -8 -6 -14 -18 -14 -25 0 -13 11 -15 90 -19 15 0 30 -10 39 -26 13 -23 12 -33 -8 -95 -12 -38 -26 -92 -30 -119 -7 -41 -10 -46 -16 -27 -6 19 -14 22 -61 22 -30 0 -54 5 -54 10 0 6 -25 10 -55 10 -62 0 -73 -16 -30 -44 22 -14 25 -24 25 -71 0 -41 4 -57 18 -65 12 -8 13 -13 5 -16 -19 -8 -17 -74 2 -74 8 0 15 9 15 20 0 18 7 20 78 20 l78 0 12 -47 c7 -27 23 -70 36 -98 l24 -50 1 343 c1 329 0 345 -19 369 -11 14 -20 33 -20 42 0 10 -7 26 -15 37 -8 10 -15 31 -15 46 0 27 -12 43 -24 31z m14 -628 c0 -12 -14 -15 -65 -15 -80 0 -86 18 -7 23 31 2 60 4 65 5 4 1 7 -5 7 -13z"/>
<path d="M4890 4203 c-58 -2 -109 -8 -114 -13 -6 -6 -43 -10 -83 -10 l-73 0 0 -125 0 -125 375 0 c356 0 376 1 413 20 26 14 75 24 153 31 63 6 120 16 128 22 10 9 12 28 8 79 -3 38 -9 73 -12 78 -4 6 -122 10 -321 10 -311 0 -315 0 -309 20 6 17 2 20 -27 18 -18 -1 -80 -4 -138 -5z"/>
<path d="M4241 4147 c-6 -6 -11 -28 -11 -49 l0 -38 -130 0 -130 0 0 -60 0 -60 313 0 312 0 -1 57 -2 58 -106 3 -106 3 0 32 c0 18 -4 38 -9 46 -11 17 -114 24 -130 8z"/>
<path d="M6475 4057 c-32 -19 -88 -37 -116 -37 -15 0 -32 -6 -38 -14 -9 -10 -32 -14 -79 -13 -59 2 -77 -3 -144 -35 -43 -20 -78 -42 -78 -48 0 -7 191 -10 610 -10 568 0 673 5 578 25 -18 4 -50 19 -71 33 -35 23 -42 24 -72 13 -44 -16 -112 1 -162 40 -40 32 -86 38 -119 15 -33 -23 -133 -7 -189 31 -24 16 -93 17 -120 0z"/>
<path d="M2960 4000 l0 -60 495 0 495 0 0 60 0 60 -179 0 c-139 0 -181 -3 -190 -14 -6 -7 -36 -21 -67 -31 -82 -26 -205 -18 -274 18 -47 25 -62 27 -166 27 l-114 0 0 -60z"/>
<path d="M2680 4032 c-141 -11 -179 -18 -199 -33 -13 -10 -41 -24 -62 -29 -87 -24 -34 -30 241 -30 l280 0 0 55 0 55 -42 -1 c-24 -1 -122 -8 -218 -17z"/>
<path d="M1070 3666 c0 -304 2 -355 15 -358 10 -2 -14 -47 -83 -155 -96 -151 -97 -152 -134 -153 -37 0 -38 1 -38 35 l0 36 -110 -3 c-142 -4 -151 -22 -12 -26 94 -2 102 -4 102 -22 0 -16 -7 -20 -30 -20 -25 0 -30 -4 -30 -25 0 -23 -4 -25 -45 -25 -25 0 -45 -4 -45 -10 0 -16 -37 -11 -44 5 -5 13 -20 15 -73 13 l-68 -3 -3 -67 -3 -68 71 0 c54 0 72 4 76 15 7 17 44 21 44 5 0 -5 19 -10 42 -10 l41 0 -44 -32 c-71 -50 -219 -189 -213 -199 3 -5 72 -9 155 -9 l149 0 0 125 0 125 36 0 c22 0 47 9 67 24 64 49 166 53 248 11 15 -8 30 -15 34 -15 3 0 5 31 5 70 l0 69 -95 3 -94 3 114 175 c63 96 121 177 130 178 15 3 15 1 -1 -23 l-17 -26 59 3 c52 3 59 5 62 26 6 42 22 22 22 -28 l0 -50 60 0 60 0 0 50 c0 28 5 50 10 50 6 0 10 -11 10 -25 l0 -25 120 0 120 0 0 95 0 95 763 0 c580 0 766 -3 775 -12 8 -8 12 -46 12 -105 l0 -93 60 0 c50 0 60 3 61 18 0 9 1 64 2 122 l2 105 135 0 135 0 3 -101 c2 -92 5 -102 22 -107 12 -3 20 -14 20 -26 0 -20 5 -21 110 -21 l110 0 0 75 c0 43 4 75 10 75 6 0 10 -37 10 -91 l0 -91 76 -112 c42 -61 80 -115 84 -119 6 -6 791 100 878 118 20 5 22 11 22 75 l0 70 -185 0 -185 0 0 90 0 90 -415 0 -415 0 0 85 0 85 -250 0 -250 0 0 -50 0 -50 -820 0 -820 0 0 -70 0 -70 -290 0 c-187 0 -290 4 -290 10 0 12 5 12 130 14 l95 1 3 55 c4 86 9 100 47 116 70 29 115 -15 115 -113 l0 -63 85 0 85 0 0 70 0 70 55 0 55 0 0 185 0 185 -294 0 c-254 0 -297 -2 -310 -16 -13 -13 -16 -43 -16 -175 0 -99 -4 -159 -10 -159 -6 0 -10 62 -10 165 0 152 2 167 20 185 19 19 33 20 320 20 l300 0 0 40 0 40 -100 0 c-72 0 -110 -4 -131 -16 -68 -35 -190 -35 -261 0 -21 11 -60 16 -125 16 l-93 0 0 -354z m-430 -976 c-33 -38 -60 -60 -73 -60 -12 0 -17 4 -11 9 73 66 125 111 130 111 3 0 -17 -27 -46 -60z m53 -8 c-15 -28 -36 -53 -45 -56 -10 -2 -18 -2 -18 0 0 7 84 113 88 110 2 -2 -9 -27 -25 -54z m40 -29 c-3 -19 -11 -33 -19 -33 -18 0 -18 4 2 41 19 37 23 35 17 -8z"/>
<path d="M1800 3980 l0 -40 221 0 c208 0 259 7 176 26 -41 9 -97 35 -97 46 0 4 -67 8 -150 8 l-150 0 0 -40z"/>
<path d="M2283 3943 c15 -2 39 -2 55 0 15 2 2 4 -28 4 -30 0 -43 -2 -27 -4z"/>
<path d="M1800 3735 l0 -186 126 3 126 3 88 160 c48 88 91 170 94 183 l7 22 -220 0 -221 0 0 -185z"/>
<path d="M2255 3893 c-3 -14 -45 -96 -91 -180 -47 -85 -84 -157 -81 -159 2 -2 168 -3 368 -2 l364 3 -190 140 c-104 77 -209 159 -232 183 -37 37 -48 42 -87 42 -39 0 -45 -3 -51 -27z"/>
<path d="M2392 3908 c2 -7 107 -90 233 -185 213 -159 233 -172 273 -173 l42 0 0 185 0 185 -276 0 c-216 0 -275 -3 -272 -12z"/>
<path d="M2960 3735 l0 -185 175 0 175 0 0 50 0 50 270 0 270 0 0 -85 0 -85 50 0 50 0 0 220 0 220 -495 0 -495 0 0 -185z"/>
<path d="M3970 3700 l0 -220 345 0 345 0 0 214 0 213 -37 7 c-21 3 -176 6 -345 6 l-308 0 0 -220z"/>
<path d="M4690 3908 c0 -2 -3 -139 -6 -305 l-5 -303 346 0 345 0 0 205 c0 176 2 205 15 205 13 0 15 -31 15 -220 l0 -220 -25 0 c-24 0 -25 -2 -25 -70 0 -68 1 -70 25 -70 22 0 24 -3 15 -19 -7 -14 -7 -22 1 -27 20 -12 39 27 41 80 1 51 2 51 5 9 2 -24 8 -43 14 -43 5 0 29 -18 52 -40 24 -21 55 -44 70 -49 42 -16 35 -41 -12 -41 -25 0 -41 -5 -45 -15 -4 -12 -25 -15 -101 -15 l-95 0 0 155 0 155 -130 0 -130 0 0 -63 c0 -37 -6 -71 -13 -81 -12 -16 -85 -29 -448 -82 -239 -35 -454 -64 -478 -64 -37 0 -42 -2 -35 -17 4 -10 10 -51 12 -90 3 -65 -8 -128 -34 -190 -4 -10 21 -13 109 -13 124 0 127 1 127 59 0 40 18 51 81 51 31 0 70 5 87 11 31 11 72 63 72 91 0 16 44 60 77 77 12 6 61 11 108 11 120 0 148 -14 185 -96 20 -44 37 -67 59 -78 40 -21 101 -21 101 -1 0 11 11 15 39 15 35 0 42 -5 84 -59 56 -71 102 -96 178 -96 44 0 64 6 97 28 32 21 42 24 42 12 0 -12 15 -15 75 -15 l75 0 0 55 c0 54 1 55 39 75 22 11 42 24 46 30 8 14 365 14 365 0 0 -6 43 -10 110 -10 67 0 110 4 110 10 0 6 80 10 219 10 l220 0 3 -37 c3 -38 4 -38 50 -41 42 -3 47 -6 50 -30 l3 -27 155 0 c152 0 155 0 158 22 3 19 11 22 50 25 l47 3 3 43 3 42 220 0 c139 0 219 -4 219 -10 0 -6 43 -10 110 -10 67 0 110 4 110 10 0 6 85 10 235 10 l235 0 0 -90 0 -90 75 0 c41 0 75 3 75 8 0 4 -11 29 -25 56 -29 57 -31 76 -10 76 8 0 15 5 15 10 0 21 29 21 49 1 16 -16 34 -21 76 -21 l55 0 0 75 0 75 -60 0 c-49 0 -62 -4 -72 -20 -15 -23 -48 -27 -48 -5 0 8 -4 15 -10 15 -5 0 -10 6 -10 14 0 9 -12 16 -32 18 l-33 3 -5 402 c-4 311 -8 405 -18 415 -17 17 -95 17 -115 -1 -11 -9 -17 -29 -17 -57 l0 -44 -396 0 c-454 0 -420 -6 -508 95 -27 32 -64 64 -82 71 -27 11 -153 14 -686 14 -738 0 -694 5 -754 -80 -63 -89 -78 -100 -131 -100 -26 0 -58 -3 -71 -6 l-22 -6 2 -342 3 -341 1365 0 1365 0 0 345 0 345 -30 0 c-27 1 -30 4 -33 33 -4 43 12 62 54 62 23 0 37 -6 44 -20 7 -12 9 -149 8 -402 l-3 -383 -1397 -3 -1398 -2 0 150 0 151 -97 -3 -98 -3 -6 -30 c-4 -16 -7 78 -8 210 -1 200 -4 244 -17 263 -8 12 -22 22 -30 22 -11 0 -14 18 -14 85 l0 85 -340 0 c-187 0 -340 -1 -340 -2z m374 -44 c13 -5 16 -26 16 -125 l0 -120 -87 3 -88 3 -3 109 c-2 71 1 113 9 122 12 14 122 20 153 8z m244 -122 l3 -123 -98 3 -98 3 -2 110 c-1 65 3 115 9 123 8 9 36 12 97 10 l86 -3 3 -123z m212 -926 c0 -38 -5 -48 -36 -76 -43 -38 -73 -50 -121 -50 -34 0 -123 42 -123 58 0 4 -16 24 -35 44 -19 20 -35 38 -35 40 0 2 31 2 70 0 57 -3 71 -1 76 12 5 13 24 16 105 16 l99 0 0 -44z m180 34 c-20 -13 -40 -13 -40 0 0 6 12 10 28 10 21 0 24 -2 12 -10z m1170 -5 c0 -10 -10 -15 -30 -15 -20 0 -30 5 -30 15 0 10 10 15 30 15 20 0 30 -5 30 -15z m370 -5 c0 -15 -7 -20 -25 -20 -18 0 -25 5 -25 20 0 15 7 20 25 20 18 0 25 -5 25 -20z m1270 -86 c11 -25 20 -46 20 -47 0 -1 -20 -1 -45 1 -45 4 -45 4 -45 41 0 43 5 51 32 51 13 0 25 -15 38 -46z"/>
<path d="M5793 3893 c-15 -5 -19 -173 -5 -173 12 0 45 38 71 82 12 21 39 51 59 68 l37 30 -75 -1 c-41 0 -81 -3 -87 -6z"/>
<path d="M1400 3573 c-29 -10 -40 -37 -40 -100 l0 -63 60 0 60 0 0 60 c0 51 -4 65 -25 85 -25 26 -29 27 -55 18z"/>
<path d="M3430 3435 l0 -85 120 0 120 0 0 85 0 85 -120 0 -120 0 0 -85z"/>
<path d="M1762 3398 l3 -83 445 0 445 0 3 83 3 82 -451 0 -451 0 3 -82z"/>
<path d="M2672 3398 c3 -69 6 -83 21 -86 15 -3 17 5 17 66 0 39 3 77 6 86 5 12 0 16 -21 16 l-27 0 4 -82z"/>
<path d="M2734 3467 c-3 -8 -4 -54 -2 -103 3 -89 3 -89 31 -92 l27 -3 0 105 0 106 -25 0 c-14 0 -28 -6 -31 -13z"/>
<path d="M2810 3375 l0 -105 190 0 190 0 0 105 0 105 -190 0 -190 0 0 -105z"/>
<path d="M3210 3375 l0 -106 28 3 27 3 0 100 0 100 -27 3 -28 3 0 -106z"/>
<path d="M3552 3313 l-123 -4 3 -87 3 -87 138 -3 138 -3 -3 93 c-2 74 -6 93 -18 93 -8 1 -70 -1 -138 -2z"/>
<path d="M2470 3225 c0 -25 -2 -45 -4 -45 -2 0 -20 16 -39 35 l-35 35 -204 -2 -203 -3 0 -30 c0 -23 5 -31 23 -33 15 -2 22 2 22 12 0 13 15 16 95 16 52 0 95 -2 95 -4 0 -3 -4 -16 -10 -30 -8 -21 -6 -26 5 -26 9 0 20 11 26 24 15 33 114 53 142 28 26 -23 21 -27 -36 -27 -38 0 -60 -6 -82 -23 l-30 -22 -209 32 c-154 23 -211 28 -214 20 -2 -8 -30 -12 -78 -12 l-74 0 0 -35 0 -35 70 0 69 0 6 -32 c3 -18 10 -73 15 -123 6 -49 13 -102 16 -117 l6 -28 124 0 c101 0 124 3 124 14 0 8 -10 16 -22 19 -21 3 -22 4 -4 12 12 5 114 -9 285 -39 146 -26 353 -62 459 -80 l192 -33 0 27 c0 26 -2 27 -117 48 -65 11 -165 28 -223 37 -58 9 -188 32 -290 50 -102 19 -209 37 -237 41 -29 4 -53 8 -53 10 0 2 9 13 20 24 15 15 33 20 70 20 46 0 50 2 50 25 l0 24 -175 3 -175 3 0 -30 c0 -24 6 -33 30 -43 37 -17 30 -32 -14 -32 l-33 0 -9 99 c-8 91 -8 100 8 105 10 2 18 14 18 26 0 18 4 20 33 15 17 -3 88 -14 157 -26 69 -11 172 -24 230 -27 l105 -7 -3 -65 c-2 -43 1 -70 10 -81 10 -12 73 -24 258 -49 319 -42 313 -40 335 -91 11 -23 18 -56 17 -74 -4 -60 60 -89 92 -43 22 30 21 32 -19 77 -19 21 -44 59 -55 84 -20 45 -22 46 -63 45 -53 -2 -519 62 -531 72 -4 4 -1 33 8 63 l16 55 115 7 116 7 -3 87 -3 86 -107 3 -108 3 0 -46z m175 -21 c0 -29 -1 -29 -67 -32 l-68 -3 0 36 0 36 68 -4 c66 -5 67 -5 67 -33z m-683 -362 c9 -9 -2 -12 -45 -12 -49 0 -57 3 -57 18 0 17 5 18 45 12 26 -4 51 -12 57 -18z"/>
<path d="M1267 3234 c-4 -4 -7 -115 -7 -246 l0 -238 160 0 160 0 -2 243 -3 242 -151 3 c-82 1 -153 -1 -157 -4z"/>
<path d="M1201 3216 c-8 -9 -11 -43 -9 -93 3 -72 5 -78 26 -81 21 -3 22 -1 22 92 0 75 -3 96 -14 96 -7 0 -19 -6 -25 -14z"/>
<path d="M1594 3217 c-3 -8 -4 -49 -2 -93 3 -73 5 -79 26 -82 21 -3 22 -1 22 86 0 73 -3 91 -16 96 -22 8 -24 8 -30 -7z"/>
<path d="M2953 3172 c-95 -34 -165 -96 -199 -177 -19 -46 -18 -62 5 -68 15 -4 23 5 37 41 51 133 202 203 347 160 62 -19 142 -98 167 -166 22 -57 24 -148 5 -194 -6 -14 -2 -18 19 -18 31 0 40 26 40 115 0 173 -130 312 -302 322 -48 2 -82 -2 -119 -15z"/>
<path d="M3734 3177 c-10 -26 5 -37 49 -37 53 0 132 -37 176 -81 52 -52 75 -112 75 -194 0 -83 -23 -144 -78 -198 -53 -54 -91 -70 -176 -75 -63 -4 -85 0 -127 18 -28 12 -59 30 -69 41 -10 11 -30 19 -48 19 l-30 0 35 -36 c18 -20 57 -48 84 -62 43 -23 62 -27 140 -27 101 0 143 16 216 82 204 184 90 527 -185 559 -46 6 -57 4 -62 -9z"/>
<path d="M2962 3107 c-62 -20 -136 -97 -157 -166 -7 -23 -6 -24 46 -19 36 4 63 1 81 -8 15 -8 39 -11 55 -8 33 6 43 -3 63 -56 14 -37 57 -90 73 -90 5 0 7 7 3 15 -7 20 7 19 54 -5 22 -11 52 -20 67 -20 24 0 18 6 -41 42 -81 48 -76 56 37 57 52 1 67 4 67 16 0 11 -19 15 -87 17 l-88 3 53 30 c72 40 99 62 89 71 -4 4 -41 -9 -82 -29 -41 -20 -75 -32 -75 -27 0 5 14 32 30 59 20 32 40 51 58 56 l27 7 -29 23 c-53 43 -165 58 -244 32z m149 -119 c-22 -36 -34 -39 -40 -12 -3 19 23 44 47 44 11 0 9 -8 -7 -32z m-71 -18 c0 -11 -4 -20 -10 -20 -5 0 -10 2 -10 4 0 2 -3 11 -6 20 -4 11 -1 16 10 16 9 0 16 -8 16 -20z m-57 -20 c6 -24 -24 -28 -42 -6 -12 14 -6 18 30 25 4 0 9 -8 12 -19z"/>
<path d="M3678 3106 c-55 -20 -85 -42 -118 -88 l-30 -42 70 -39 c38 -21 70 -43 70 -48 0 -5 -36 -9 -80 -9 -64 0 -80 -3 -80 -15 0 -12 16 -15 81 -15 97 0 99 -9 13 -60 -47 -28 -55 -35 -37 -38 12 -2 44 8 72 22 61 31 65 32 51 5 -16 -28 -6 -34 29 -20 57 24 82 12 121 -56 19 -34 41 -63 48 -63 17 0 16 3 -25 79 -21 38 -35 72 -32 76 4 3 33 -10 66 -29 68 -40 88 -46 88 -28 0 7 -29 30 -65 50 -36 21 -65 42 -65 48 0 5 37 10 83 12 60 2 82 6 79 15 -2 8 -35 14 -88 17 l-84 5 35 21 c19 12 54 32 78 44 23 13 42 27 42 31 0 21 -24 15 -90 -21 -40 -22 -74 -40 -76 -40 -12 0 1 33 35 90 37 61 42 80 22 80 -5 0 -27 -31 -50 -70 -23 -38 -46 -70 -51 -70 -6 0 -10 29 -10 64 0 61 1 64 30 76 16 7 27 16 24 21 -8 14 -114 10 -156 -5z m72 -96 c0 -33 -4 -60 -9 -60 -5 0 -23 22 -40 49 l-30 50 27 10 c49 18 52 15 52 -49z m-75 -26 c15 -25 24 -48 21 -52 -8 -7 -126 49 -126 60 0 9 50 37 67 38 6 0 23 -21 38 -46z"/>
<path d="M1982 3068 c2 -35 7 -44 25 -46 35 -5 57 59 28 80 -5 4 -20 8 -33 8 -21 0 -23 -4 -20 -42z"/>
<path d="M3531 3085 c-64 -55 -105 -194 -84 -290 7 -34 13 -41 36 -43 26 -3 27 -2 20 25 -4 15 -8 60 -8 98 1 58 5 79 30 124 16 29 45 66 64 82 l36 29 -32 0 c-19 0 -43 -10 -62 -25z"/>
<path d="M2070 3058 l-20 -33 21 -3 c20 -4 79 41 79 60 0 4 -14 8 -30 8 -23 0 -35 -7 -50 -32z"/>
<path d="M2159 3063 c-37 -43 -35 -46 19 -39 l51 7 21 -43 c11 -23 20 -46 20 -50 0 -5 -20 -6 -45 -2 -25 3 -45 3 -45 0 0 -17 95 -46 210 -64 206 -34 200 -33 200 -11 0 16 -7 19 -50 19 -82 0 -142 20 -154 53 -6 15 -16 27 -23 27 -7 0 -13 19 -15 53 -4 68 -22 63 -28 -9 -5 -53 -6 -55 -21 -38 -23 28 -51 75 -47 79 2 2 15 8 28 14 25 10 25 10 -5 10 -16 1 -46 4 -65 7 -27 4 -39 1 -51 -13z"/>
<path d="M2560 3028 c16 -22 30 -47 30 -55 0 -13 48 -38 57 -29 8 8 -17 73 -38 100 -14 17 -30 26 -50 26 l-29 0 30 -42z"/>
<path d="M2630 3061 c0 -16 44 -116 55 -123 18 -13 35 -8 35 10 0 10 11 41 25 68 14 27 25 50 25 52 0 1 -31 2 -70 2 -38 0 -70 -4 -70 -9z"/>
<path d="M3362 3005 c29 -62 30 -72 26 -160 l-4 -95 28 0 c26 0 28 2 21 28 -5 15 -7 60 -6 101 1 59 7 86 31 133 l29 58 -78 0 -78 0 31 -65z"/>
<path d="M2466 3044 c-9 -24 -2 -26 12 -4 7 11 8 20 3 20 -5 0 -12 -7 -15 -16z"/>
<path d="M1597 3013 c-7 -11 -7 -182 0 -226 5 -36 6 -37 24 -21 16 14 19 32 19 98 0 103 -9 156 -26 156 -7 0 -15 -3 -17 -7z"/>
<path d="M1200 2896 c0 -91 3 -118 16 -130 8 -9 17 -16 20 -16 2 0 4 59 4 130 0 123 -1 130 -20 130 -19 0 -20 -7 -20 -114z"/>
<path d="M1660 2975 c0 -24 2 -25 70 -25 68 0 70 1 70 25 0 24 -2 25 -70 25 -68 0 -70 -1 -70 -25z"/>
<path d="M2515 2979 l-30 -19 43 0 c35 0 43 3 40 17 -4 23 -19 24 -53 2z"/>
<path d="M4613 2944 c-22 -11 -37 -29 -49 -59 -9 -24 -31 -57 -49 -75 -30 -29 -41 -33 -112 -39 l-78 -6 -6 -43 c-3 -23 -3 -44 -1 -47 3 -3 53 -5 111 -5 l106 0 16 -33 c9 -17 34 -45 57 -61 95 -67 246 -35 297 65 14 26 20 28 78 31 l62 3 3 46 3 46 -39 5 c-58 8 -89 34 -119 99 -20 43 -36 63 -59 74 -44 20 -178 20 -221 -1z m165 -114 l32 0 0 -80 0 -80 30 0 c27 0 29 -2 19 -18 -23 -37 -77 -64 -127 -64 -52 0 -83 11 -119 45 -30 27 -29 37 2 37 24 0 25 2 25 75 0 85 11 99 70 90 19 -2 50 -5 68 -5z"/>
<path d="M4668 2814 c-5 -4 -8 -40 -8 -81 l0 -73 65 0 65 0 0 75 c0 71 -1 75 -22 75 -13 0 -39 3 -58 6 -19 3 -38 2 -42 -2z"/>
<path d="M1660 2880 c0 -18 7 -20 73 -20 78 0 89 4 80 26 -4 10 -25 14 -79 14 -67 0 -74 -2 -74 -20z"/>
<path d="M2617 2873 c-4 -3 -7 -15 -7 -25 0 -13 7 -18 25 -18 29 0 36 34 9 44 -19 7 -19 7 -27 -1z"/>
<path d="M2680 2846 c0 -19 5 -26 20 -26 16 0 18 4 11 22 -12 32 -31 34 -31 4z"/>
<path d="M2732 2838 c2 -15 11 -24 26 -26 20 -3 23 0 20 20 -2 15 -11 24 -26 26 -20 3 -23 0 -20 -20z"/>
<path d="M9788 2853 c-35 -3 -48 -9 -53 -23 -11 -36 -7 -127 9 -164 15 -36 15 -38 -4 -43 -11 -3 -20 -12 -20 -19 0 -10 14 -14 53 -14 34 0 63 -7 84 -20 18 -10 47 -23 65 -29 21 -6 -281 -9 -862 -9 -695 0 -888 2 -865 11 56 22 73 37 95 82 65 135 -69 269 -208 209 -57 -25 -422 -26 -474 -2 -110 52 -228 -19 -228 -137 0 -75 40 -134 105 -154 19 -6 -144 -9 -455 -9 -357 0 -476 3 -452 11 104 33 144 165 75 247 -50 60 -118 76 -191 44 -29 -13 -78 -17 -237 -18 -179 -2 -205 0 -243 17 -52 23 -121 19 -161 -10 -31 -23 -71 -97 -71 -134 0 -47 42 -111 90 -136 l43 -23 -2806 0 -2807 0 0 -30 0 -30 6770 0 6770 0 0 30 0 30 -437 1 c-392 0 -434 2 -399 15 21 8 46 20 54 26 8 7 42 15 75 18 36 3 62 10 65 18 2 7 -5 12 -17 12 -25 0 -25 -4 -5 54 17 50 15 149 -5 169 -5 5 -77 12 -159 15 -140 4 -153 3 -192 -17 -38 -20 -55 -21 -252 -21 -196 0 -215 2 -256 22 -42 20 -54 21 -195 15 -83 -4 -155 -11 -160 -16 -10 -10 -4 -162 8 -199 5 -16 4 -22 -6 -20 -7 2 -15 -5 -17 -14 -3 -15 4 -18 47 -18 38 0 66 -8 108 -30 l56 -30 -683 0 -683 0 49 26 c29 16 73 29 108 33 34 3 61 11 64 19 2 7 -5 12 -17 12 -25 0 -25 -4 -5 54 15 45 17 157 2 171 -3 3 -75 9 -161 12 -146 6 -158 5 -196 -15 -39 -21 -56 -22 -252 -22 -190 0 -213 2 -249 20 -33 17 -57 20 -152 18 -62 -1 -134 -3 -160 -5z m38 -78 c9 -13 21 -48 28 -77 l11 -53 94 -3 c78 -2 95 0 105 14 12 16 15 15 40 -1 23 -15 58 -19 235 -23 201 -5 211 -4 244 17 41 25 47 26 47 6 0 -12 18 -15 98 -15 l99 0 12 55 c12 54 52 117 66 103 4 -3 -2 -19 -13 -35 -11 -15 -28 -54 -36 -85 l-17 -58 -109 0 c-63 0 -111 4 -115 10 -4 6 -12 7 -18 3 -7 -4 -32 -10 -57 -13 -56 -6 -55 -23 2 -30 24 -3 68 -18 98 -33 l55 -27 -350 1 c-198 0 -338 4 -323 9 15 4 40 17 56 28 15 12 48 22 72 24 60 4 66 28 8 28 -24 0 -50 6 -57 13 -11 10 -14 10 -18 0 -3 -9 -36 -13 -114 -13 l-110 0 -15 35 c-7 19 -14 43 -14 53 0 11 -9 31 -20 45 -11 14 -20 30 -20 36 0 19 19 12 36 -14z m2215 -65 l21 -70 90 0 c74 0 93 3 103 17 12 16 14 16 41 -3 27 -17 48 -19 245 -19 193 0 219 2 236 18 24 21 43 22 43 2 0 -13 15 -15 96 -13 l96 3 18 58 c18 56 43 97 62 97 14 0 9 -19 -11 -39 -11 -11 -25 -39 -31 -63 -18 -74 -16 -73 -130 -76 -56 -1 -107 2 -114 7 -7 6 -17 6 -26 1 -8 -6 -32 -10 -52 -10 -27 0 -38 -4 -38 -15 0 -11 11 -15 39 -15 24 0 61 -12 96 -30 l57 -30 -348 1 c-260 0 -341 3 -319 11 17 6 42 19 56 29 14 10 45 19 69 21 60 4 66 28 8 28 -24 0 -50 6 -56 12 -10 10 -14 10 -21 0 -6 -9 -36 -12 -117 -10 l-109 3 -22 70 c-13 38 -27 71 -33 73 -5 2 -10 10 -10 18 0 12 4 12 20 4 12 -7 27 -36 41 -80z m-6116 60 c-3 -5 -17 -10 -31 -10 -13 0 -24 5 -24 10 0 6 14 10 31 10 17 0 28 -4 24 -10z m193 -24 c4 -36 -5 -76 -18 -76 -14 0 -52 80 -46 97 4 9 16 13 33 11 22 -2 29 -9 31 -32z m269 26 c10 -6 8 -19 -10 -52 -32 -65 -47 -63 -47 4 0 51 2 56 23 56 12 0 28 -4 34 -8z m183 -2 c0 -5 -13 -10 -30 -10 -16 0 -30 5 -30 10 0 6 14 10 30 10 17 0 30 -4 30 -10z m979 6 c-12 -10 -60 -16 -54 -6 3 5 18 10 32 10 15 0 24 -2 22 -4z m189 -54 c4 -65 -18 -71 -48 -12 -25 48 -25 57 -2 63 39 11 47 3 50 -51z m276 49 c7 -11 -36 -94 -51 -99 -9 -3 -13 12 -13 52 0 55 0 56 29 56 17 0 32 -4 35 -9z m164 2 c-10 -2 -26 -2 -35 0 -10 3 -2 5 17 5 19 0 27 -2 18 -5z m-1589 -139 c-13 -16 -91 -19 -120 -4 -11 6 -19 21 -19 35 0 32 -10 31 -38 -5 -17 -22 -21 -34 -13 -47 14 -28 53 -59 86 -71 22 -8 -44 -11 -260 -11 l-289 -1 43 23 c24 12 51 34 60 49 15 27 15 29 -17 60 l-32 33 0 -26 c0 -14 -5 -30 -12 -37 -16 -16 -110 -16 -126 0 -14 14 -16 118 -2 118 6 0 10 -25 10 -55 l0 -55 55 0 55 0 0 39 c0 22 4 42 9 45 4 3 34 -22 66 -55 l58 -61 121 1 121 1 53 60 c30 33 57 60 62 60 5 0 10 -19 12 -42 l3 -43 53 -3 52 -3 0 45 c0 71 15 90 18 23 2 -35 -2 -64 -9 -73z m946 6 c54 0 55 1 55 29 0 66 9 66 80 -3 l67 -65 114 6 114 5 55 59 c31 33 59 59 62 59 4 0 8 -19 10 -42 l3 -43 53 -3 52 -3 1 43 c1 72 17 92 18 23 1 -35 -4 -66 -11 -73 -16 -16 -110 -16 -126 0 -7 7 -12 23 -12 37 l0 25 -30 -29 c-16 -16 -30 -34 -30 -40 0 -16 60 -72 90 -84 17 -7 -61 -10 -260 -10 l-284 -1 44 23 c25 12 51 34 59 48 14 24 13 29 -10 57 -29 37 -39 40 -39 9 0 -35 -19 -47 -75 -47 -28 0 -56 5 -63 12 -13 13 -17 110 -4 122 4 4 8 -20 10 -53 l3 -61 54 0z"/>
<path d="M966 2840 c-67 -21 -115 -102 -102 -172 15 -80 74 -128 158 -128 149 0 203 191 78 281 -30 22 -95 31 -134 19z m107 -102 c9 -11 17 -31 17 -45 0 -30 -42 -73 -72 -73 -57 0 -93 61 -63 107 30 46 83 51 118 11z"/>
<path d="M980 2730 c-24 -24 -25 -38 -4 -68 27 -39 94 -19 94 29 0 23 -34 59 -55 59 -8 0 -24 -9 -35 -20z"/>
<path d="M1731 2818 c-40 -27 -71 -81 -71 -124 0 -46 40 -114 80 -135 49 -26 119 -25 161 4 60 40 86 128 58 191 -10 22 -19 25 -72 28 -56 3 -62 5 -67 28 -8 34 -46 37 -89 8z m149 -94 c18 -32 4 -73 -32 -93 -57 -33 -123 28 -98 89 22 54 102 56 130 4z"/>
<path d="M1780 2730 c-24 -24 -25 -38 -4 -68 27 -39 94 -19 94 29 0 23 -34 59 -55 59 -8 0 -24 -9 -35 -20z"/>
<path d="M2913 2806 c-44 -21 -25 -32 35 -20 21 4 29 11 25 20 -6 16 -28 16 -60 0z"/>
<path d="M2168 2782 c-45 -25 -63 -52 -35 -52 20 1 128 66 120 73 -12 13 -38 6 -85 -21z"/>
<path d="M2242 2723 c-23 -42 -40 -78 -38 -81 13 -12 35 11 65 67 28 54 36 61 62 61 17 0 39 -5 50 -11 11 -6 25 -9 32 -6 20 6 -36 35 -83 41 l-45 6 -43 -77z"/>
<path d="M2045 2743 c83 -200 320 -265 489 -136 27 21 51 44 54 51 6 19 -53 15 -69 -5 -8 -9 -36 -27 -64 -39 -134 -63 -298 -3 -363 132 -11 24 -22 34 -39 34 -23 0 -23 0 -8 -37z"/>
<path d="M2480 2760 c8 -5 26 -9 40 -9 l25 1 -25 8 c-14 4 -32 8 -40 9 -13 1 -13 0 0 -9z"/>
<path d="M2322 2753 c-18 -7 -33 -39 -26 -58 11 -29 41 -37 73 -20 24 12 76 15 278 16 244 1 247 1 178 16 -39 8 -153 17 -255 20 -135 4 -190 9 -204 19 -22 15 -24 15 -44 7z"/>
<path d="M3725 2740 c-4 -6 -115 -10 -301 -10 -287 0 -294 0 -294 -20 0 -20 7 -20 289 -20 256 0 293 -2 319 -17 29 -17 31 -17 51 1 38 34 21 76 -30 76 -15 0 -31 -4 -34 -10z"/>
<path d="M1190 2693 c0 -23 -3 -48 -6 -57 -5 -14 19 -16 230 -16 l237 0 -7 53 c-4 28 -7 53 -8 54 -1 1 -102 3 -224 5 l-222 3 0 -42z"/>
<path d="M2440 2656 c0 -18 17 -29 30 -21 8 5 7 11 -1 21 -15 18 -29 18 -29 0z"/>
<path d="M2829 2636 c53 -55 125 -88 201 -94 98 -7 166 16 232 78 52 48 52 49 25 50 -16 0 -43 -11 -61 -25 -52 -39 -104 -57 -171 -56 -71 0 -100 9 -160 51 -24 17 -56 30 -71 30 l-28 0 33 -34z"/>
<path d="M2924 2659 c-3 -6 -1 -16 5 -22 9 -9 14 -8 21 3 5 8 10 18 10 23 0 11 -28 8 -36 -4z"/>
<path d="M3160 2650 c12 -22 30 -18 30 6 0 8 -9 14 -20 14 -18 0 -19 -3 -10 -20z"/>
<path d="M3633 2655 c-3 -9 -3 -18 0 -21 9 -9 27 6 27 22 0 19 -19 18 -27 -1z"/>
<path d="M2330 2626 c0 -14 5 -26 10 -26 6 0 10 7 10 15 0 8 0 18 1 22 0 4 -4 9 -10 11 -6 2 -11 -8 -11 -22z"/>
<path d="M3756 2643 c-12 -12 -6 -43 9 -43 8 0 15 9 15 19 0 21 -13 34 -24 24z"/>
<path d="M3040 2620 c0 -11 7 -20 15 -20 8 0 15 9 15 20 0 11 -7 20 -15 20 -8 0 -15 -9 -15 -20z"/>
</g>
</svg>