<svg xmlns="http://www.w3.org/2000/svg" viewBox="913.50 334.10 461.90 179.40">
<g transform="translate(0.000000,768.000000) scale(0.100000,-0.100000)" fill="currentColor" stroke="none">
<path d="M12180 4242 c0 -48 7 -55 34 -37 11 8 40 15 63 15 36 0 43 -3 43 -20 0 -15 -7 -20 -25 -20 -35 0 -32 -20 11 -85 l37 -55 362 0 362 0 37 55 c20 30 36 61 36 70 0 13 -50 15 -387 17 -360 3 -388 4 -391 21 -4 19 32 25 43 7 3 -5 13 -10 21 -10 10 0 14 12 14 40 0 41 -7 49 -28 28 -18 -18 -150 -20 -185 -3 -43 21 -47 19 -47 -23z"/>
<path d="M10947 4133 c-4 -3 -7 -27 -7 -52 0 -25 -3 -76 -7 -113 l-6 -68 -43 0 c-33 0 -44 4 -44 15 0 9 6 18 14 21 10 4 12 17 8 47 -3 23 -8 44 -12 47 -3 3 -10 14 -14 25 -7 16 -9 17 -13 5 -3 -8 -11 -22 -18 -30 -20 -24 -26 -90 -9 -97 7 -3 14 -11 14 -19 0 -10 -28 -14 -127 -16 l-128 -3 -3 -62 -3 -63 -364 0 -365 0 0 65 0 65 -73 0 c-43 0 -78 -5 -85 -12 -7 -7 -12 -37 -12 -68 0 -31 5 -61 12 -68 9 -9 322 -12 1345 -12 l1333 0 0 35 c0 19 -2 35 -5 35 -3 0 -90 18 -193 41 -138 30 -219 42 -308 46 l-122 6 -6 36 c-3 20 -6 59 -6 87 0 28 -3 66 -6 83 -6 29 -9 31 -54 31 l-47 0 -7 -77 c-3 -42 -6 -96 -6 -120 l0 -43 -259 0 -258 0 -7 61 c-3 34 -6 88 -6 120 l0 59 -48 0 c-27 0 -52 -3 -55 -7z"/>
<path d="M12360 3680 l0 -340 -38 0 c-27 0 -48 -8 -75 -31 -37 -30 -37 -31 -37 -105 l0 -74 500 0 500 0 0 125 0 125 -80 0 -80 0 0 169 c0 104 4 172 10 176 25 15 49 -13 113 -130 l67 -125 0 -180 0 -180 -1800 0 -1800 0 0 164 c0 140 2 165 16 170 9 3 18 6 20 6 2 0 4 -72 4 -160 l0 -160 30 0 30 0 0 160 0 160 -25 0 c-14 0 -25 5 -25 10 0 6 11 10 25 10 l26 0 -3 123 -3 122 -27 3 -28 3 0 -120 0 -120 -27 -13 -28 -13 -3 -173 -2 -172 -95 0 -95 0 0 181 c0 140 -3 180 -12 177 -10 -4 -14 -51 -16 -181 l-2 -177 -65 0 c-51 0 -65 -3 -65 -15 0 -12 14 -15 65 -15 l65 0 0 -50 c0 -38 -4 -50 -15 -50 -10 0 -15 -10 -15 -34 0 -41 -25 -51 -53 -23 -14 14 -31 17 -75 15 l-57 -3 0 -70 0 -70 61 -3 c45 -2 64 1 74 13 16 19 40 20 40 0 0 -8 9 -15 20 -15 18 0 20 -7 20 -54 0 -29 -7 -70 -15 -89 -8 -20 -15 -39 -15 -42 0 -3 18 -5 40 -5 39 0 40 1 40 35 l0 34 107 3 107 3 28 80 c85 240 81 230 90 205 8 -22 10 -22 116 -16 80 5 125 3 180 -8 40 -9 96 -16 123 -16 l49 0 0 -40 0 -40 95 0 95 0 0 39 0 38 83 6 c45 4 98 11 117 17 19 5 79 10 132 10 l98 0 0 38 c0 21 5 43 12 50 9 9 147 12 558 12 531 0 547 -1 565 -20 11 -13 16 -30 13 -50 l-5 -30 103 0 c57 0 115 -4 129 -10 14 -5 64 -13 111 -16 l84 -7 0 -38 0 -39 95 0 95 0 0 40 0 40 54 0 c30 0 87 7 126 15 46 10 113 14 183 13 85 -2 111 0 110 10 -4 19 14 14 20 -5 3 -10 26 -76 50 -148 l45 -130 111 -3 111 -3 0 -33 c0 -31 3 -34 35 -38 29 -3 35 -1 35 15 0 10 -4 26 -9 35 -5 9 -12 43 -16 75 -6 54 -5 59 14 64 12 3 21 11 21 19 0 24 21 26 41 5 16 -17 32 -21 79 -21 32 0 60 4 62 10 2 5 1 39 0 76 l-4 66 -64 -4 c-48 -3 -67 -9 -79 -23 -15 -20 -15 -20 -30 -1 -8 11 -15 30 -15 43 0 14 -6 23 -15 23 -11 0 -15 12 -15 50 l0 50 70 0 c56 0 70 3 70 15 0 12 -14 15 -70 15 l-70 0 0 181 c0 130 -3 180 -11 177 -8 -3 -11 -57 -10 -181 l2 -177 -95 0 -96 0 0 177 0 176 -56 106 c-90 168 -100 181 -134 181 l-30 0 0 135 0 135 -345 0 -345 0 0 -340z m330 161 c0 -133 1 -131 -82 -131 -68 0 -68 0 -68 124 0 62 3 116 7 119 3 4 37 7 75 7 l68 0 0 -119z m178 0 c2 -85 -1 -117 -10 -123 -7 -4 -41 -8 -75 -8 l-63 0 0 125 0 126 73 -3 72 -3 3 -114z m-3228 -931 c0 -120 -4 -190 -10 -190 -5 0 -10 23 -10 50 l0 50 -90 0 c-53 0 -90 4 -90 10 0 6 37 10 90 10 l90 0 0 60 0 60 -90 0 c-53 0 -90 4 -90 10 0 6 37 10 90 10 l90 0 0 60 c0 33 4 60 10 60 6 0 10 -70 10 -190z m3630 130 l0 -60 90 0 c53 0 90 -4 90 -10 0 -6 -38 -10 -92 -10 l-93 0 -2 -60 -1 -60 88 0 c49 0 92 -4 95 -10 4 -6 -27 -10 -84 -10 l-91 0 0 -50 c0 -27 -4 -50 -10 -50 -5 0 -10 19 -10 43 0 23 -3 108 -7 190 -5 132 -4 147 11 147 13 0 16 -11 16 -60z"/>
<path d="M9844 3886 c-3 -8 -4 -31 -2 -52 l3 -39 343 -3 342 -2 0 55 0 55 -340 0 c-282 0 -342 -2 -346 -14z"/>
<path d="M9760 3596 l0 -126 1177 2 1177 3 69 80 c73 85 98 104 135 105 18 0 22 6 22 29 l0 29 -1290 1 -1290 2 0 -125z m200 24 l0 -70 -65 0 -65 0 0 70 0 70 65 0 65 0 0 -70z"/>
<path d="M9850 3620 l0 -50 45 0 45 0 0 50 0 50 -45 0 -45 0 0 -50z"/>
<path d="M12215 3559 c-79 -95 -99 -109 -151 -109 l-44 0 0 -160 0 -160 85 0 85 0 0 73 c0 43 5 80 13 90 23 32 81 67 109 67 l28 0 0 135 0 135 -33 0 c-29 0 -41 -9 -92 -71z"/>
<path d="M9770 3290 l0 -160 175 0 175 0 0 160 0 160 -175 0 -175 0 0 -160z"/>
<path d="M10145 3373 c0 -43 1 -115 3 -160 l2 -83 170 0 169 0 3 160 3 160 -175 0 -176 0 1 -77z"/>
<path d="M10520 3290 l0 -160 175 0 175 0 0 160 0 160 -175 0 -175 0 0 -160z"/>
<path d="M10897 3442 c-3 -4 -4 -75 -4 -157 l2 -150 173 -3 172 -2 0 160 0 160 -169 0 c-94 0 -172 -3 -174 -8z"/>
<path d="M11270 3290 l0 -160 175 0 175 0 0 160 0 160 -175 0 -175 0 0 -160z"/>
<path d="M11650 3290 l0 -160 175 0 175 0 0 160 0 160 -175 0 -175 0 0 -160z"/>
<path d="M10902 3018 c-7 -7 -12 -29 -12 -50 0 -32 4 -40 26 -48 15 -6 227 -10 532 -10 443 0 510 2 530 16 24 16 29 53 12 85 -10 18 -27 19 -543 19 -401 0 -536 -3 -545 -12z"/>
<path d="M9890 2902 l-35 -16 115 -6 c87 -4 121 -9 140 -22 29 -21 74 -24 67 -5 -2 6 -17 11 -33 10 -15 -1 -35 4 -44 11 -53 47 -146 59 -210 28z"/>
<path d="M10650 2913 c-8 -3 -26 -14 -40 -24 -14 -9 -41 -19 -60 -21 -18 -2 -35 -9 -38 -15 -6 -19 34 -16 71 5 23 12 64 19 142 22 l110 6 -37 17 c-36 16 -116 22 -148 10z"/>
<path d="M12085 2903 l-30 -18 105 -5 c73 -3 115 -10 137 -22 41 -23 85 -24 76 -2 -3 9 -15 14 -32 12 -15 -1 -44 8 -66 22 -52 32 -146 38 -190 13z"/>
<path d="M12840 2907 c-14 -8 -36 -20 -50 -27 -14 -8 -38 -15 -54 -15 -16 0 -31 -6 -33 -12 -7 -19 33 -16 70 5 23 12 64 18 142 22 l110 5 -32 18 c-38 20 -117 22 -153 4z"/>
<path d="M11060 2755 l0 -135 383 2 382 3 3 133 3 132 -386 0 -385 0 0 -135z"/>
</g>
</svg>