<svg xmlns="http://www.w3.org/2000/svg" viewBox="21.00 251.80 668.10 274.70">
<g transform="translate(0.000000,768.000000) scale(0.100000,-0.100000)" fill="currentColor" stroke="none">
<path d="M2820 4995 l0 -105 44 0 c27 0 51 6 60 16 18 18 21 65 6 80 -8 8 -7 19 1 37 10 22 9 31 -5 52 -14 21 -24 25 -61 25 l-45 0 0 -105z m84 59 c8 -21 -11 -44 -35 -44 -14 0 -19 7 -19 30 0 25 4 30 24 30 13 0 27 -7 30 -16z m-10 -70 c10 -4 16 -18 16 -35 0 -26 -4 -29 -30 -29 -28 0 -30 3 -30 35 0 36 10 42 44 29z"/>
<path d="M3080 4994 l0 -105 47 3 c40 3 50 7 63 31 14 25 13 30 -2 57 -10 17 -13 32 -7 35 14 10 11 52 -7 69 -9 9 -32 16 -55 16 l-39 0 0 -106z m78 49 c-2 -22 -8 -28 -27 -28 -19 0 -24 5 -25 28 -2 23 2 27 27 27 25 0 28 -3 25 -27z m5 -74 c16 -26 1 -49 -33 -49 -26 0 -30 3 -30 28 0 16 3 32 7 36 12 11 45 2 56 -15z"/>
<path d="M3290 4994 c0 -80 3 -105 13 -101 7 2 12 22 13 48 0 42 2 44 32 47 41 4 42 22 2 22 -27 0 -30 3 -30 29 0 26 4 30 32 33 55 5 46 28 -11 28 l-51 0 0 -106z"/>
<path d="M3422 5088 c-12 -12 -17 -48 -6 -48 3 0 14 10 23 22 21 25 41 17 41 -17 0 -15 -9 -29 -22 -36 l-22 -12 27 -14 c27 -14 32 -28 21 -57 -9 -23 -45 -20 -51 4 -3 11 -12 20 -19 20 -18 0 -18 -10 2 -38 22 -32 73 -27 93 9 12 22 12 29 -2 57 -8 18 -11 34 -6 38 13 8 11 58 -3 72 -7 7 -24 12 -38 12 -14 0 -31 -5 -38 -12z"/>
<path d="M3647 5093 c-3 -5 -15 -44 -27 -88 -12 -44 -24 -88 -26 -97 -9 -31 21 -20 33 12 9 23 18 30 37 30 21 0 28 -6 33 -30 3 -20 12 -30 23 -30 16 0 16 4 -2 68 -10 37 -23 84 -29 105 -9 33 -31 49 -42 30z m32 -105 c1 -12 -6 -18 -19 -18 -23 0 -24 2 -8 55 l12 40 7 -30 c3 -16 7 -38 8 -47z"/>
<path d="M4122 5088 c6 -18 28 -21 28 -4 0 9 -7 16 -16 16 -9 0 -14 -5 -12 -12z"/>
<path d="M4190 5072 c0 -10 -6 -24 -12 -30 -10 -10 -10 -15 -1 -20 7 -4 13 -34 15 -67 3 -53 5 -60 26 -63 12 -2 22 1 22 7 0 6 -4 11 -10 11 -5 0 -10 25 -10 55 0 30 5 55 10 55 6 0 10 7 10 15 0 8 -4 15 -9 15 -5 0 -11 9 -14 20 -6 25 -27 26 -27 2z"/>
<path d="M3862 4973 l3 -78 48 -2 48 -2 -3 76 c-2 50 -7 78 -15 81 -10 3 -13 -13 -13 -56 0 -40 -5 -64 -15 -72 -25 -20 -35 -1 -35 66 0 38 -4 64 -10 64 -7 0 -10 -29 -8 -77z"/>
<path d="M3990 4968 c0 -62 3 -78 15 -78 10 0 15 16 17 62 2 50 6 63 21 66 15 3 17 -5 17 -62 0 -52 3 -66 15 -66 12 0 15 14 15 69 0 78 -8 90 -62 88 l-38 -1 0 -78z"/>
<path d="M4120 4970 c0 -64 3 -80 15 -80 12 0 15 16 15 80 0 64 -3 80 -15 80 -12 0 -15 -16 -15 -80z"/>
<path d="M2970 4965 c0 -10 11 -15 35 -15 24 0 35 5 35 15 0 10 -11 15 -35 15 -24 0 -35 -5 -35 -15z"/>
<path d="M3750 4965 c0 -11 11 -15 40 -15 29 0 40 4 40 15 0 11 -11 15 -40 15 -29 0 -40 -4 -40 -15z"/>
<path d="M473 4633 c15 -2 39 -2 55 0 15 2 2 4 -28 4 -30 0 -43 -2 -27 -4z"/>
<path d="M638 4633 c12 -2 32 -2 45 0 12 2 2 4 -23 4 -25 0 -35 -2 -22 -4z"/>
<path d="M813 4633 c9 -2 23 -2 30 0 6 3 -1 5 -18 5 -16 0 -22 -2 -12 -5z"/>
<path d="M977 4633 c18 -2 50 -2 70 0 21 2 7 4 -32 4 -38 0 -55 -2 -38 -4z"/>
<path d="M1133 4633 c9 -2 23 -2 30 0 6 3 -1 5 -18 5 -16 0 -22 -2 -12 -5z"/>
<path d="M1613 4633 c9 -2 25 -2 35 0 9 3 1 5 -18 5 -19 0 -27 -2 -17 -5z"/>
<path d="M1773 4633 c9 -2 25 -2 35 0 9 3 1 5 -18 5 -19 0 -27 -2 -17 -5z"/>
<path d="M1933 4633 c9 -2 23 -2 30 0 6 3 -1 5 -18 5 -16 0 -22 -2 -12 -5z"/>
<path d="M1993 4633 c9 -2 23 -2 30 0 6 3 -1 5 -18 5 -16 0 -22 -2 -12 -5z"/>
<path d="M2063 4633 c15 -2 39 -2 55 0 15 2 2 4 -28 4 -30 0 -43 -2 -27 -4z"/>
<path d="M2278 4633 c23 -2 59 -2 80 0 20 2 1 4 -43 4 -44 0 -61 -2 -37 -4z"/>
<path d="M2408 4633 c7 -3 16 -2 19 1 4 3 -2 6 -13 5 -11 0 -14 -3 -6 -6z"/>
<path d="M2573 4633 c15 -2 39 -2 55 0 15 2 2 4 -28 4 -30 0 -43 -2 -27 -4z"/>
<path d="M2668 4633 c7 -3 16 -2 19 1 4 3 -2 6 -13 5 -11 0 -14 -3 -6 -6z"/>
<path d="M2723 4633 c15 -2 39 -2 55 0 15 2 2 4 -28 4 -30 0 -43 -2 -27 -4z"/>
<path d="M2883 4633 c15 -2 37 -2 50 0 12 2 0 4 -28 4 -27 0 -38 -2 -22 -4z"/>
<path d="M3018 4633 c12 -2 30 -2 40 0 9 3 -1 5 -23 4 -22 0 -30 -2 -17 -4z"/>
<path d="M3378 4633 c12 -2 32 -2 45 0 12 2 2 4 -23 4 -25 0 -35 -2 -22 -4z"/>
<path d="M3503 4633 c9 -2 25 -2 35 0 9 3 1 5 -18 5 -19 0 -27 -2 -17 -5z"/>
<path d="M3703 4633 c15 -2 39 -2 55 0 15 2 2 4 -28 4 -30 0 -43 -2 -27 -4z"/>
<path d="M3818 4633 c17 -2 47 -2 65 0 17 2 3 4 -33 4 -36 0 -50 -2 -32 -4z"/>
<path d="M4033 4633 c37 -2 97 -2 135 0 37 2 6 3 -68 3 -74 0 -105 -1 -67 -3z"/>
<path d="M4328 4633 c12 -2 32 -2 45 0 12 2 2 4 -23 4 -25 0 -35 -2 -22 -4z"/>
<path d="M4448 4633 c7 -3 16 -2 19 1 4 3 -2 6 -13 5 -11 0 -14 -3 -6 -6z"/>
<path d="M4493 4633 c9 -2 23 -2 30 0 6 3 -1 5 -18 5 -16 0 -22 -2 -12 -5z"/>
<path d="M4688 4633 c6 -2 18 -2 25 0 6 3 1 5 -13 5 -14 0 -19 -2 -12 -5z"/>
<path d="M4808 4633 c6 -2 18 -2 25 0 6 3 1 5 -13 5 -14 0 -19 -2 -12 -5z"/>
<path d="M4983 4633 c15 -2 39 -2 55 0 15 2 2 4 -28 4 -30 0 -43 -2 -27 -4z"/>
<path d="M5108 4633 c18 -2 45 -2 60 0 15 2 0 4 -33 4 -33 0 -45 -2 -27 -4z"/>
<path d="M5238 4633 c23 -2 59 -2 80 0 20 2 1 4 -43 4 -44 0 -61 -2 -37 -4z"/>
<path d="M5378 4633 c7 -3 16 -2 19 1 4 3 -2 6 -13 5 -11 0 -14 -3 -6 -6z"/>
<path d="M5453 4633 c9 -2 23 -2 30 0 6 3 -1 5 -18 5 -16 0 -22 -2 -12 -5z"/>
<path d="M5773 4633 c9 -2 23 -2 30 0 6 3 -1 5 -18 5 -16 0 -22 -2 -12 -5z"/>
<path d="M5928 4633 c7 -3 16 -2 19 1 4 3 -2 6 -13 5 -11 0 -14 -3 -6 -6z"/>
<path d="M6083 4633 c9 -2 25 -2 35 0 9 3 1 5 -18 5 -19 0 -27 -2 -17 -5z"/>
<path d="M6253 4633 c9 -2 23 -2 30 0 6 3 -1 5 -18 5 -16 0 -22 -2 -12 -5z"/>
<path d="M1800 4075 c0 -25 2 -45 4 -45 2 0 17 7 32 15 16 8 48 15 72 15 38 0 42 -2 42 -25 0 -28 12 -25 -210 -49 -171 -19 -269 -39 -318 -63 -24 -12 -57 -47 -97 -103 l-61 -85 -179 -12 c-241 -15 -420 -32 -475 -45 -25 -6 -72 -10 -106 -9 l-60 2 -1 -301 -1 -300 409 0 c266 0 409 -3 409 -10 0 -7 -143 -10 -410 -10 l-410 0 0 -25 0 -25 133 -2 132 -2 -127 -3 c-71 -2 -128 -8 -128 -12 0 -5 56 -7 125 -5 77 2 125 0 125 -6 0 -6 -53 -10 -132 -10 -170 0 -160 -18 12 -23 l125 -3 -132 -2 -133 -2 0 -50 c0 -28 -7 -94 -15 -148 -8 -53 -17 -112 -19 -129 l-5 -33 64 0 c62 0 64 1 67 28 l3 27 213 3 212 2 0 108 c0 102 2 111 29 153 51 82 58 83 489 87 l372 4 0 384 c0 249 4 384 10 384 6 0 10 -138 10 -395 l0 -395 -240 0 c-208 0 -241 -2 -247 -15 -9 -24 1 -28 89 -32 46 -2 92 -9 103 -14 11 -5 85 -8 165 -7 l145 3 -1 43 c-1 23 3 42 8 42 4 0 8 -58 8 -129 0 -71 4 -141 10 -155 9 -24 14 -26 79 -26 38 0 73 4 76 10 3 5 9 70 12 145 5 121 4 135 -10 135 -14 0 -17 -11 -17 -65 l0 -65 -59 0 -59 0 -4 70 -3 70 68 2 c37 1 75 2 85 2 12 1 17 -7 17 -24 0 -23 5 -26 50 -31 28 -3 63 -11 78 -17 34 -14 303 -16 312 -3 3 5 39 10 79 10 95 0 128 8 124 30 -3 14 -36 16 -306 19 -196 1 -301 6 -297 12 4 6 260 10 715 10 l710 0 3 398 2 397 3 -397 2 -398 125 0 125 0 0 389 c0 249 4 392 10 396 7 4 10 -128 10 -389 l0 -396 715 0 715 0 0 145 0 145 -712 3 c-392 1 -135 2 572 2 707 0 1030 -1 718 -2 l-568 -3 0 -145 0 -145 585 0 584 0 3 -152 3 -153 80 0 80 0 3 143 c2 92 -1 142 -8 142 -5 0 -10 -18 -10 -40 l0 -40 -65 0 -65 0 0 50 0 51 105 -3 105 -3 1 145 c5 686 8 790 30 832 31 61 23 68 -76 68 l-85 0 0 -30 0 -30 -350 0 -350 0 0 30 0 30 -77 0 c-43 0 -132 -10 -198 -21 -201 -34 -369 -35 -578 -5 -98 14 -200 26 -227 26 l-50 0 0 -40 0 -40 -1265 0 -1265 0 0 41 0 41 -92 -3 c-90 -4 -93 -3 -96 19 -4 23 23 32 30 10 8 -23 38 1 38 31 0 33 -15 48 -33 33 -17 -13 -194 -15 -202 -2 -3 5 -13 10 -21 10 -10 0 -14 -12 -14 -45z m-327 -217 c24 -12 22 -24 -14 -79 -45 -71 -51 -74 -99 -53 -22 10 -40 23 -40 28 0 6 18 37 41 68 43 61 56 65 112 36z m5207 -18 c0 -7 -741 -10 -2202 -11 l-2203 -1 108 -23 c132 -29 192 -48 276 -87 60 -28 65 -34 92 -94 l29 -64 375 0 c243 0 375 -4 375 -10 0 -7 -237 -10 -690 -10 -453 0 -690 3 -690 10 0 6 108 10 305 10 168 0 305 3 305 6 0 3 -10 28 -22 55 -19 46 -28 54 -92 86 -39 19 -121 48 -182 64 -198 50 -294 59 -612 59 l-290 0 -29 -24 c-16 -13 -52 -63 -81 -110 -33 -53 -64 -92 -82 -101 -25 -13 -96 -15 -464 -15 l-435 0 -10 -32 -9 -33 -1 30 c-1 29 30 93 53 107 26 17 29 6 3 -13 -15 -11 -27 -25 -27 -30 0 -13 866 -12 890 1 11 6 43 48 71 95 67 110 88 128 152 136 91 11 5087 10 5087 -1z m-923 -37 c-17 -4 -18 -15 -15 -119 l3 -114 -485 2 -485 3 -3 118 -3 117 503 -1 c277 -1 495 -3 485 -6z m-1999 -10 c-32 -2 -86 -2 -120 0 -35 2 -9 3 57 3 66 0 94 -1 63 -3z m-1663 -25 c3 -13 4 -138 3 -278 l-3 -255 -105 0 -105 0 -3 264 c-2 189 0 267 9 277 8 10 37 14 105 14 89 0 94 -1 99 -22z m-307 3 c10 -1 12 -24 10 -93 l-3 -93 -97 -3 -98 -3 0 95 0 95 53 3 c46 3 97 2 135 -1z m-223 -97 l0 -89 -48 -3 c-49 -3 -82 11 -74 33 14 36 101 155 110 152 8 -2 12 -34 12 -93z m565 -307 c0 -229 -4 -388 -10 -397 -6 -10 -10 124 -10 388 0 266 3 401 10 397 6 -4 10 -144 10 -388z m1593 372 c28 -15 37 -28 37 -58 0 -33 -27 -61 -59 -61 -36 0 -50 11 -61 49 -8 28 -6 36 15 57 27 27 37 29 68 13z m2541 -11 c23 -32 20 -65 -9 -93 -30 -30 -54 -31 -89 -4 -31 24 -35 72 -9 101 24 27 87 24 107 -4z m396 -178 c0 -7 -475 -10 -1406 -10 -934 0 -1403 3 -1399 10 9 14 2805 14 2805 0z m-5842 -107 c3 -34 -1 -44 -18 -53 -26 -14 -209 -11 -227 3 -14 10 -18 79 -6 91 4 3 61 5 127 4 l121 -3 3 -42z m2799 -59 c-3 -3 -12 -4 -19 -1 -8 3 -5 6 6 6 11 1 17 -2 13 -5z m2830 -317 c-1 -45 -3 -5 -3 88 0 94 2 130 3 82 2 -48 2 -125 0 -170z m213 88 c0 -103 -4 -165 -10 -165 -6 0 -10 62 -10 165 0 103 4 165 10 165 6 0 10 -62 10 -165z m-3462 118 c-190 -2 -505 -2 -700 0 -194 1 -38 2 347 2 385 0 544 -1 353 -2z m3375 0 c-18 -2 -48 -2 -65 0 -18 2 -4 4 32 4 36 0 50 -2 33 -4z m-4515 -125 l-3 -33 -65 0 -65 0 -3 33 -3 32 71 0 71 0 -3 -32z m0 -100 l3 -38 -70 0 -71 0 0 34 c0 38 14 45 95 42 39 -1 40 -2 43 -38z m1705 15 c-29 -2 -78 -2 -110 0 -32 2 -8 3 52 3 61 0 87 -1 58 -3z m-1995 -10 c-72 -5 -76 -21 -5 -26 l52 -3 -57 -2 c-52 -2 -58 0 -58 18 0 18 6 20 63 18 l62 -2 -57 -3z m2002 -43 c0 -6 -30 -10 -70 -10 -40 0 -70 4 -70 10 0 6 30 10 70 10 40 0 70 -4 70 -10z m2820 -185 c0 -24 -3 -25 -56 -25 -40 0 -54 -3 -51 -12 2 -8 23 -13 55 -13 l52 0 0 -43 0 -43 -57 3 -58 3 -3 78 -3 77 61 0 c57 0 60 -1 60 -25z m-4542 -72 l-3 -58 -57 -3 -58 -3 0 61 0 60 60 0 61 0 -3 -57z m-1350 -60 l3 -43 -45 0 -46 0 0 46 0 45 43 -3 c42 -3 42 -3 45 -45z"/>
<path d="M4790 3695 c0 -87 3 -105 15 -105 12 0 15 18 15 105 0 87 -3 105 -15 105 -12 0 -15 -18 -15 -105z"/>
<path d="M4830 3695 c0 -63 4 -105 10 -105 6 0 10 42 10 105 0 63 -4 105 -10 105 -6 0 -10 -42 -10 -105z"/>
<path d="M4870 3798 c0 -2 -3 -49 -6 -105 -4 -88 -3 -103 11 -103 12 0 15 17 15 99 0 56 -4 103 -10 106 -5 3 -10 5 -10 3z"/>
<path d="M4900 3695 c0 -63 4 -105 10 -105 6 0 10 42 10 105 0 63 -4 105 -10 105 -6 0 -10 -42 -10 -105z"/>
<path d="M4930 3695 c0 -63 4 -105 10 -105 6 0 10 42 10 105 0 63 -4 105 -10 105 -6 0 -10 -42 -10 -105z"/>
<path d="M4960 3695 c0 -63 4 -105 10 -105 6 0 10 42 10 105 0 63 -4 105 -10 105 -6 0 -10 -42 -10 -105z"/>
<path d="M4990 3695 c0 -63 4 -105 10 -105 6 0 10 42 10 105 0 63 -4 105 -10 105 -6 0 -10 -42 -10 -105z"/>
<path d="M5020 3696 c0 -89 3 -106 15 -106 13 0 15 16 13 102 -2 70 -7 103 -15 106 -10 3 -13 -22 -13 -102z"/>
<path d="M5060 3695 c0 -63 4 -105 10 -105 6 0 10 42 10 105 0 63 -4 105 -10 105 -6 0 -10 -42 -10 -105z"/>
<path d="M5090 3695 c0 -63 4 -105 10 -105 6 0 10 42 10 105 0 63 -4 105 -10 105 -6 0 -10 -42 -10 -105z"/>
<path d="M5120 3695 c0 -63 4 -105 10 -105 6 0 10 42 10 105 0 63 -4 105 -10 105 -6 0 -10 -42 -10 -105z"/>
<path d="M5150 3695 c0 -63 4 -105 10 -105 6 0 10 42 10 105 0 63 -4 105 -10 105 -6 0 -10 -42 -10 -105z"/>
<path d="M5180 3695 c0 -63 4 -105 10 -105 6 0 10 42 10 105 0 63 -4 105 -10 105 -6 0 -10 -42 -10 -105z"/>
<path d="M5219 3796 c-8 -9 3 -206 12 -206 5 0 9 47 9 105 0 92 -5 116 -21 101z"/>
<path d="M5250 3695 c0 -63 4 -105 10 -105 6 0 10 42 10 105 0 63 -4 105 -10 105 -6 0 -10 -42 -10 -105z"/>
<path d="M5280 3695 c0 -63 4 -105 10 -105 6 0 10 42 10 105 0 63 -4 105 -10 105 -6 0 -10 -42 -10 -105z"/>
<path d="M5310 3695 c0 -63 4 -105 10 -105 6 0 10 42 10 105 0 63 -4 105 -10 105 -6 0 -10 -42 -10 -105z"/>
<path d="M5340 3695 c0 -77 3 -105 13 -105 9 0 11 26 9 105 -2 58 -7 105 -13 105 -5 0 -9 -46 -9 -105z"/>
<path d="M5379 3796 c-8 -9 3 -206 12 -206 5 0 9 47 9 105 0 92 -5 116 -21 101z"/>
<path d="M5410 3695 c0 -63 4 -105 10 -105 6 0 10 42 10 105 0 63 -4 105 -10 105 -6 0 -10 -42 -10 -105z"/>
<path d="M5440 3695 c0 -63 4 -105 10 -105 6 0 10 42 10 105 0 63 -4 105 -10 105 -6 0 -10 -42 -10 -105z"/>
<path d="M5470 3695 c0 -63 4 -105 10 -105 6 0 10 42 10 105 0 63 -4 105 -10 105 -6 0 -10 -42 -10 -105z"/>
<path d="M5500 3695 c0 -63 4 -105 10 -105 6 0 10 42 10 105 0 63 -4 105 -10 105 -6 0 -10 -42 -10 -105z"/>
<path d="M5539 3796 c-8 -9 3 -206 12 -206 11 0 12 197 0 204 -4 3 -10 4 -12 2z"/>
<path d="M5570 3695 c0 -63 4 -105 10 -105 6 0 10 42 10 105 0 63 -4 105 -10 105 -6 0 -10 -42 -10 -105z"/>
<path d="M5600 3695 c0 -63 4 -105 10 -105 6 0 10 42 10 105 0 63 -4 105 -10 105 -6 0 -10 -42 -10 -105z"/>
<path d="M5630 3695 c0 -63 4 -105 10 -105 6 0 10 42 10 105 0 63 -4 105 -10 105 -6 0 -10 -42 -10 -105z"/>
<path d="M5660 3695 c0 -87 3 -105 15 -105 12 0 15 18 15 105 0 87 -3 105 -15 105 -12 0 -15 -18 -15 -105z"/>
<path d="M5700 3695 c0 -87 3 -105 15 -105 12 0 15 18 15 105 0 87 -3 105 -15 105 -12 0 -15 -18 -15 -105z"/>
<path d="M1900 3636 c0 -132 0 -135 23 -139 l22 -4 -22 -2 c-23 -1 -23 -3 -23 -126 l0 -125 90 0 90 0 0 265 0 265 -90 0 -90 0 0 -134z m144 98 c19 -19 22 -124 4 -142 -7 -7 -33 -12 -58 -12 -25 0 -51 5 -58 12 -15 15 -16 112 -2 139 14 24 91 27 114 3z"/>
<path d="M6167 3722 c-22 -25 -21 -55 2 -76 27 -25 72 -17 90 15 13 24 13 29 -2 53 -21 31 -66 35 -90 8z"/>
<path d="M577 3474 c-4 -4 -7 -22 -7 -41 l0 -33 121 0 120 0 -3 38 -3 37 -111 3 c-60 1 -113 -1 -117 -4z"/>
<path d="M1930 3150 c0 -18 7 -20 60 -20 53 0 60 2 60 20 0 18 -7 20 -60 20 -53 0 -60 -2 -60 -20z"/>
<path d="M1930 3045 c0 -24 3 -25 60 -25 57 0 60 1 60 25 0 24 -3 25 -60 25 -57 0 -60 -1 -60 -25z"/>
<path d="M6490 2825 c0 -11 12 -15 45 -15 33 0 45 4 45 15 0 11 -12 15 -45 15 -33 0 -45 -4 -45 -15z"/>
<path d="M1944 2786 c-3 -8 -4 -29 -2 -48 3 -30 6 -33 36 -32 60 2 59 2 60 49 l1 45 -45 0 c-29 0 -46 -5 -50 -14z m83 -13 c3 -7 -4 -9 -18 -6 -18 5 -21 3 -16 -10 4 -10 2 -17 -3 -17 -15 0 -12 37 3 43 16 7 30 3 34 -10z m-17 -53 c-8 -5 -17 -7 -19 -4 -3 3 1 9 9 14 8 5 17 7 19 4 3 -3 -1 -9 -9 -14z"/>
<path d="M6340 4055 c0 -24 2 -25 75 -25 73 0 75 1 75 25 0 24 -2 25 -75 25 -73 0 -75 -1 -75 -25z"/>
<path d="M3942 4044 c-22 -10 45 -12 328 -12 314 0 350 2 312 14 -57 18 -599 16 -640 -2z"/>
<path d="M4870 4040 c0 -5 1 -10 3 -10 1 0 39 -7 84 -14 177 -32 309 -38 463 -21 167 17 260 34 260 46 0 5 -182 9 -405 9 -263 0 -405 -3 -405 -10z"/>
<path d="M3615 4030 c-3 -5 -22 -10 -41 -10 -31 0 -34 -2 -34 -30 l0 -30 125 0 125 0 0 30 c0 27 -3 30 -29 30 -17 0 -33 5 -36 10 -3 6 -28 10 -55 10 -27 0 -52 -4 -55 -10z"/>
<path d="M2210 3990 l0 -30 640 -2 c352 -1 648 -2 658 -2 12 -1 18 8 20 32 l3 32 -660 0 -661 0 0 -30z"/>
<path d="M3800 3988 l0 -28 450 0 450 0 0 28 0 28 -450 -1 -450 0 0 -27z"/>
<path d="M5870 3995 l0 -25 335 0 335 0 0 25 0 25 -335 0 -335 0 0 -25z"/>
<path d="M6700 3414 l0 -405 33 3 32 3 3 403 2 402 -35 0 -35 0 0 -406z"/>
<path d="M370 2970 c0 -27 3 -30 30 -30 27 0 30 3 30 30 0 27 -3 30 -30 30 -27 0 -30 -3 -30 -30z"/>
<path d="M1940 2945 c0 -11 12 -15 50 -15 38 0 50 4 50 15 0 11 -12 15 -50 15 -38 0 -50 -4 -50 -15z"/>
<path d="M3055 2935 c22 -13 51 -41 65 -61 22 -33 25 -50 28 -141 l4 -103 544 0 544 0 0 91 c0 80 3 97 27 140 14 27 41 59 60 70 18 11 33 23 33 25 0 2 -133 4 -295 4 l-295 0 0 -140 0 -140 -70 0 -70 0 0 140 0 140 -307 0 -308 0 40 -25z m1140 -5 c14 -43 -44 -67 -68 -28 -8 12 -7 21 2 32 19 23 58 20 66 -4z"/>
<path d="M4140 2919 c0 -12 7 -19 20 -19 13 0 20 7 20 18 0 11 -8 18 -20 19 -14 1 -20 -4 -20 -18z"/>
<path d="M3640 2935 c0 -24 3 -25 59 -25 57 0 59 1 57 25 -1 24 -4 25 -58 25 -55 0 -58 -1 -58 -25z"/>
<path d="M4640 2945 c0 -24 36 -36 116 -37 41 -1 77 -5 80 -10 3 -4 68 -8 145 -8 116 0 150 4 202 21 52 18 79 20 162 17 66 -3 111 -10 132 -21 26 -14 61 -17 177 -17 80 0 147 4 150 9 3 4 33 9 67 9 57 1 115 9 131 18 4 3 5 11 1 19 -8 22 -1363 23 -1363 0z"/>
<path d="M6309 2930 c44 -33 56 -52 66 -112 5 -34 9 -38 35 -38 l30 0 0 90 0 90 -87 0 -86 0 42 -30z"/>
<path d="M6490 2925 c0 -35 0 -35 45 -35 45 0 45 0 45 35 0 35 0 35 -45 35 -45 0 -45 0 -45 -35z"/>
<path d="M6630 2865 c0 -53 4 -95 9 -95 6 0 24 -27 42 -59 38 -73 56 -90 103 -98 29 -4 36 -2 36 11 0 11 -9 16 -28 16 -34 0 -59 25 -96 95 l-26 50 22 3 c12 2 24 -1 26 -7 2 -6 29 -11 63 -11 l60 0 -3 63 -3 62 -54 3 c-45 3 -56 0 -68 -17 -23 -33 -33 -25 -33 29 0 47 -2 50 -25 50 -25 0 -25 0 -25 -95z"/>
<path d="M1274 2915 c-11 -8 -41 -14 -71 -15 -40 0 -53 -4 -53 -15 0 -11 13 -15 54 -15 39 0 55 -4 60 -15 4 -11 20 -15 57 -15 43 0 50 3 45 16 -3 9 -6 29 -6 45 0 26 -3 29 -33 29 -18 0 -42 -7 -53 -15z"/>
<path d="M2754 2916 c-3 -8 -4 -27 -2 -43 3 -26 7 -28 51 -31 l48 -3 -3 43 c-3 43 -3 43 -46 46 -30 2 -44 -1 -48 -12z"/>
<path d="M4533 2916 c-6 -10 -26 -16 -61 -17 -36 -2 -52 -6 -52 -16 0 -17 96 -18 103 0 3 6 6 -1 6 -16 1 -27 3 -28 49 -25 36 2 47 7 47 20 0 9 4 20 8 24 4 4 7 0 7 -10 0 -15 12 -16 100 -14 72 2 100 7 100 16 0 15 -6 16 -152 20 -48 1 -67 6 -65 15 3 19 -79 22 -90 3z"/>
<path d="M6020 2884 l0 -45 48 3 c45 3 47 5 48 33 2 42 -12 55 -57 55 l-39 0 0 -46z"/>
<path d="M1940 2880 l0 -41 48 3 c47 3 47 3 47 38 0 35 0 35 -47 38 l-48 3 0 -41z m68 -7 c-10 -2 -28 -2 -40 0 -13 2 -5 4 17 4 22 1 32 -1 23 -4z"/>
<path d="M1376 2903 c-2 -2 -2 -13 1 -24 5 -16 14 -19 64 -19 50 0 81 12 67 26 -6 6 -127 21 -132 17z"/>
<path d="M2090 2865 c0 -31 4 -45 13 -45 8 0 22 -9 32 -20 17 -19 17 -21 2 -33 -10 -7 -17 -30 -19 -62 l-3 -50 -65 2 c-36 1 -82 2 -103 2 -29 1 -40 6 -47 24 -8 21 -9 21 -9 -6 -1 -15 6 -41 14 -56 17 -33 70 -81 90 -81 8 0 16 -3 18 -7 3 -5 -148 -8 -334 -9 -186 0 -339 1 -339 3 0 2 18 10 40 19 22 9 40 20 40 25 0 5 9 13 21 17 l20 8 -21 27 c-12 15 -17 27 -13 27 5 0 19 -13 31 -30 l23 -30 127 0 c151 0 187 13 245 83 40 49 46 77 21 98 -13 10 -17 10 -24 -2 -5 -8 -24 -33 -42 -56 l-33 -43 -64 3 -64 2 -1 63 -2 62 107 0 c61 0 111 -4 114 -10 14 -23 25 -7 25 40 l0 50 -150 0 c-125 0 -152 -3 -156 -15 -5 -12 -26 -15 -105 -15 -78 0 -101 -3 -105 -14 -7 -19 -101 -10 -126 11 -13 12 -32 13 -102 6 -71 -7 -86 -7 -86 5 0 7 -6 12 -12 10 -20 -7 -23 -172 -3 -210 19 -39 19 -38 -5 -38 -13 0 -20 -7 -20 -20 0 -18 7 -20 73 -20 57 0 82 -5 121 -25 l49 -25 -489 0 c-269 0 -495 -4 -502 -9 -8 -4 -12 -19 -10 -32 l3 -24 3285 0 3285 0 0 30 0 30 -352 0 c-194 0 -353 2 -353 5 0 3 19 15 43 28 32 17 59 22 115 22 76 0 93 12 51 38 -17 11 -18 16 -8 28 7 8 14 57 17 114 4 88 3 100 -12 100 -9 0 -16 -3 -16 -8 0 -4 -41 -3 -91 2 -81 8 -93 7 -101 -7 -7 -13 -23 -17 -63 -17 -30 0 -57 4 -60 10 -3 6 -37 10 -76 10 -61 0 -69 2 -69 19 0 18 -33 35 -44 23 -15 -14 -5 -34 14 -29 11 3 18 1 14 -4 -8 -14 -34 -11 -50 6 -12 12 -44 15 -153 15 -101 0 -148 4 -174 15 -45 19 -242 21 -284 3 -15 -7 -95 -15 -177 -18 -107 -3 -151 -9 -154 -17 -2 -9 -33 -13 -107 -13 -59 0 -107 -4 -110 -10 -3 -5 -31 -10 -61 -10 -41 0 -56 4 -61 16 -5 14 -18 15 -93 9 -61 -5 -90 -3 -95 4 -16 26 -25 -6 -25 -88 0 -59 5 -98 15 -117 14 -27 13 -29 -11 -42 -40 -21 -18 -32 61 -32 60 0 83 -5 121 -25 l47 -25 -749 0 c-412 -1 -791 -3 -841 -6 -51 -4 -93 -4 -93 -1 0 3 21 17 46 31 39 22 59 26 125 26 64 0 79 3 79 15 0 8 -6 15 -14 15 -21 0 -30 18 -17 34 6 7 14 53 17 102 5 71 3 93 -9 109 -13 17 -17 18 -21 5 -6 -13 -19 -14 -93 -6 -67 7 -88 7 -91 -3 -8 -25 -49 -30 -118 -15 -38 8 -103 14 -146 14 -48 0 -78 4 -80 11 -3 8 -58 14 -158 18 -90 4 -164 12 -177 19 -12 7 -40 12 -62 12 l-41 0 0 -45z m3301 -55 c20 -11 27 -40 9 -40 -5 0 -11 -19 -12 -42 -1 -37 -2 -39 -5 -11 -4 34 -9 37 -78 47 -16 2 -7 3 20 2 32 -2 55 2 63 10 18 20 15 26 -10 19 -18 -5 -20 -4 -8 4 11 8 2 11 -37 11 -56 0 -83 -7 -83 -22 0 -5 5 -6 10 -3 6 4 10 3 9 -2 -1 -4 -1 -36 0 -70 l1 -63 49 0 c39 0 50 4 53 18 2 10 6 13 10 7 13 -21 -8 -32 -64 -37 l-58 -5 0 68 c0 53 -3 68 -16 73 -15 6 -15 8 1 26 14 15 31 20 72 20 30 0 63 -5 74 -10z m-4321 -13 c0 -9 12 -11 40 -9 38 4 41 2 54 -29 7 -19 19 -58 26 -86 l12 -53 99 0 c89 0 99 2 99 18 0 10 7 42 15 70 20 67 48 82 147 81 40 -1 63 -4 50 -6 -12 -2 -20 -9 -17 -14 4 -5 1 -9 -4 -9 -6 0 -11 5 -11 10 0 6 -7 10 -16 10 -8 0 -13 -4 -9 -9 3 -5 -5 -12 -17 -14 -13 -2 -2 -5 24 -6 29 0 48 4 51 12 3 7 6 5 6 -5 1 -10 -6 -18 -14 -18 -8 0 -15 -5 -15 -11 0 -6 7 -9 15 -5 8 3 15 1 15 -4 0 -5 -24 -11 -52 -13 l-53 -3 58 -2 c40 -1 57 -6 55 -14 -2 -6 -11 -13 -19 -16 -11 -3 -11 -2 1 7 12 9 9 11 -14 11 -24 0 -27 -2 -16 -15 15 -18 -1 -20 -19 -2 -11 10 -14 10 -18 0 -12 -32 -62 7 -80 62 l-10 30 -15 -30 c-9 -17 -19 -52 -23 -78 l-7 -47 -106 0 c-133 0 -126 -18 8 -23 l95 -3 -104 0 -104 1 -17 70 c-10 39 -22 81 -28 95 -10 25 -10 24 -17 -12 -7 -39 1 -95 17 -115 13 -17 -4 -17 -20 -1 -7 7 -12 42 -12 85 0 73 -5 84 -29 61 -10 -11 -15 -9 -27 6 -16 23 -18 36 -4 36 6 0 10 -6 10 -13z m279 0 c14 -6 27 -19 29 -27 4 -11 1 -10 -12 3 -25 24 -121 24 -135 0 -10 -17 -10 -17 -11 -1 0 35 79 51 129 25z m1531 -2 c14 -9 2 -104 -17 -133 -12 -20 -21 -23 -61 -20 l-47 3 -3 50 c-2 28 -7 54 -13 60 -16 16 -10 35 14 45 22 10 109 6 127 -5z m176 -10 c-4 -12 -14 -14 -40 -10 l-34 7 8 -35 c4 -20 4 -55 -1 -79 -4 -24 -8 -46 -9 -50 0 -5 -4 -8 -9 -8 -6 0 -6 12 0 32 12 43 12 128 -1 128 -8 0 -28 -57 -44 -132 l-6 -28 -109 0 c-102 0 -109 1 -104 19 3 10 0 22 -6 25 -6 4 -11 0 -11 -8 0 -8 -7 -22 -16 -30 -21 -21 -11 -34 50 -62 28 -13 42 -24 31 -24 -11 1 -163 -1 -337 -4 -175 -2 -318 -1 -318 3 0 4 16 13 35 19 18 7 44 25 57 40 19 23 30 27 66 24 l43 -3 -28 40 c-29 40 -38 41 -46 6 -2 -11 -3 -4 -2 17 3 33 -9 58 -26 58 -3 0 -12 -27 -19 -60 l-13 -60 -103 0 c-63 0 -104 -4 -104 -10 0 -14 185 -13 213 1 22 10 22 10 2 -6 -16 -12 -40 -15 -119 -13 l-100 3 -13 33 c-8 19 -9 32 -3 32 5 0 10 -7 10 -15 0 -12 18 -15 104 -15 l104 0 7 33 c27 130 50 147 203 147 l100 0 -2 -57 c-2 -79 -7 -85 -69 -78 -47 5 -56 11 -97 56 -44 49 -77 62 -87 34 -4 -14 81 -121 114 -142 36 -24 271 -33 311 -12 48 26 67 112 32 144 -19 17 -20 17 -20 -1 0 -10 -9 -34 -20 -52 -17 -27 -24 -31 -45 -26 -15 4 -32 1 -40 -6 -10 -9 -15 -9 -15 -1 0 6 -9 11 -19 11 -26 0 -35 16 -15 24 9 3 43 6 75 6 l60 0 -3 38 c-3 33 -6 37 -33 39 -18 1 -21 -1 -9 -3 16 -4 20 -11 17 -25 -5 -16 -12 -18 -51 -15 -44 5 -62 17 -62 44 0 8 21 12 71 12 104 0 136 -28 154 -132 l6 -38 94 0 95 0 6 28 c20 92 37 132 61 138 13 4 33 4 44 1 12 -3 22 0 26 9 3 8 8 13 10 10 3 -3 3 -12 -1 -21z m1331 5 c26 0 36 -6 47 -29 32 -61 42 -172 14 -155 -5 4 -5 11 1 18 11 13 -12 122 -29 140 -12 12 -24 -57 -16 -91 15 -62 15 -67 1 -38 -8 17 -14 56 -15 87 l0 58 -26 -10 c-34 -13 -34 -14 -34 17 0 21 3 24 12 15 7 -7 27 -12 45 -12z m248 6 c13 -9 16 -19 10 -32 -4 -10 -7 -30 -6 -44 1 -14 -3 -38 -8 -53 -10 -25 -15 -27 -65 -27 -41 0 -55 4 -60 16 -4 9 -4 19 -1 22 2 3 7 -3 11 -12 9 -25 90 -22 104 3 24 47 0 91 -50 91 -46 0 -60 -10 -61 -44 -1 -23 -3 -19 -10 19 -7 42 -6 52 8 63 22 16 104 15 128 -2z m1492 8 c25 -7 38 -33 24 -47 -6 -6 -9 -2 -8 9 2 16 -7 19 -57 22 -62 3 -89 -9 -68 -30 9 -9 12 -9 12 0 0 7 15 12 40 12 56 0 83 -31 74 -85 -7 -47 -11 -55 -26 -55 -7 0 -7 4 0 13 5 6 13 26 16 44 9 41 -21 74 -63 71 -35 -3 -50 -29 -43 -76 4 -30 7 -33 36 -30 19 2 30 8 28 16 -1 7 4 20 13 28 13 14 15 14 15 0 0 -9 -6 -16 -12 -17 -10 0 -10 -2 0 -6 24 -9 -8 -33 -45 -33 -38 0 -47 14 -47 70 0 19 -4 38 -9 41 -6 4 -7 14 -4 23 11 29 73 44 124 30z m189 -20 c-4 -11 -13 -14 -31 -10 -24 6 -25 5 -25 -46 0 -29 -3 -64 -7 -77 -6 -22 -4 -23 21 -17 21 5 27 3 24 -6 -3 -7 -19 -13 -36 -13 -25 0 -31 4 -26 15 12 32 16 108 6 126 -8 15 -14 6 -31 -54 -12 -40 -19 -77 -16 -83 4 -5 1 -16 -5 -24 -9 -11 -37 -15 -111 -15 -107 0 -115 4 -111 55 2 29 2 29 -12 10 -9 -11 -20 -26 -27 -33 -13 -16 3 -30 69 -63 23 -11 42 -22 42 -22 0 -1 -151 -2 -335 -2 -184 0 -335 3 -335 8 0 4 6 7 14 7 21 0 74 47 91 81 19 35 19 83 1 98 -11 9 -16 0 -30 -49 l-17 -60 -107 0 c-77 0 -103 -3 -95 -11 7 -7 47 -10 111 -7 55 1 98 0 95 -4 -8 -14 -200 -9 -210 5 -6 6 -16 43 -23 81 -12 62 -14 67 -26 51 -19 -26 -17 -86 3 -115 17 -26 27 -34 75 -61 27 -16 28 -17 6 -20 -50 -8 -642 6 -618 15 14 5 39 18 56 30 l30 21 -22 32 c-18 28 -23 30 -29 16 -3 -10 0 -22 9 -28 28 -21 -35 -36 -131 -32 l-88 3 97 2 c134 3 138 21 6 24 l-103 2 96 3 97 4 17 64 c24 89 38 99 142 104 69 2 85 0 81 -10 -3 -9 -26 -16 -59 -20 -30 -3 -41 -6 -26 -7 16 -1 26 -6 22 -12 -3 -5 -12 -7 -19 -4 -8 3 -17 1 -21 -5 -4 -7 8 -11 34 -11 39 0 55 13 29 23 -7 3 -4 6 7 6 14 1 21 -6 22 -19 2 -18 -4 -20 -53 -20 -53 0 -54 0 -54 30 0 30 1 30 58 32 l57 2 -54 3 c-85 6 -100 0 -92 -39 7 -32 8 -33 66 -36 81 -3 96 -9 71 -28 -23 -17 -46 -18 -46 -3 0 5 4 8 8 5 4 -2 14 -1 21 3 7 5 -11 9 -43 9 -35 0 -54 -3 -50 -10 3 -5 15 -8 25 -5 11 3 19 1 19 -4 0 -11 -30 -12 -47 -1 -7 4 -21 27 -31 50 -17 38 -20 41 -33 26 -7 -9 -14 -34 -14 -56 0 -33 7 -46 33 -69 32 -29 34 -29 152 -29 153 0 186 12 243 89 22 31 44 58 49 59 15 6 8 19 -16 30 -23 10 -28 6 -71 -44 l-47 -54 -59 0 c-32 0 -59 3 -60 8 0 4 -1 32 -2 62 l-1 55 111 0 c143 0 161 -11 182 -108 l14 -67 98 0 97 0 21 69 c29 95 45 104 187 109 l111 4 -7 -46 c-4 -25 -3 -49 1 -53 17 -17 -9 -32 -60 -34 l-54 -3 -52 58 c-50 57 -51 58 -72 39 l-22 -18 55 -67 c41 -51 63 -70 92 -78 47 -13 257 -13 282 0 10 5 28 26 40 45 23 37 21 83 -5 105 -10 9 -16 4 -25 -24 -6 -19 -18 -40 -27 -47 -29 -25 -133 -16 -133 11 0 5 8 10 18 11 14 0 14 2 2 7 -8 4 -14 14 -14 22 1 8 2 21 3 28 1 8 19 12 56 12 l55 0 -3 -37 c-1 -28 -7 -40 -22 -45 -19 -6 -19 -6 1 -7 26 -1 42 16 53 57 11 36 -2 42 -91 42 -32 0 -58 4 -58 9 0 5 26 7 58 4 133 -9 147 -18 164 -112 l12 -61 96 0 97 0 11 50 c6 27 18 65 26 85 14 32 19 35 55 35 25 0 41 5 41 12 0 6 3 9 6 5 4 -3 4 -14 0 -23z m-4954 -38 c2 -38 -3 -81 -13 -90 -4 -5 -31 -12 -59 -16 -49 -6 -50 -6 -51 19 0 14 -2 36 -5 49 -2 13 1 32 7 43 8 17 19 20 65 18 47 -2 54 -5 56 -23z m3243 -47 c0 -32 -2 -34 -34 -34 -45 0 -61 24 -38 58 14 21 21 24 44 18 24 -6 28 -13 28 -42z m749 35 c9 -8 16 -22 16 -29 0 -35 -53 -58 -78 -33 -13 13 -16 60 -5 71 12 13 51 7 67 -9z m756 -4 c0 -5 -2 -10 -4 -10 -3 0 -8 5 -11 10 -3 6 -1 10 4 10 6 0 11 -4 11 -10z m-50 -4 c0 -3 -4 -8 -10 -11 -5 -3 -10 -1 -10 4 0 6 5 11 10 11 6 0 10 -2 10 -4z m-3477 -13 c-18 -2 -48 -2 -65 0 -18 2 -4 4 32 4 36 0 50 -2 33 -4z m3482 -42 c-6 -5 -25 10 -25 20 0 5 6 4 14 -3 8 -7 12 -15 11 -17z m-4948 -47 c2 -7 -6 -10 -21 -7 -14 3 -23 10 -20 15 8 12 36 6 41 -8z m1921 7 c10 -6 8 -10 -9 -14 -26 -7 -34 -3 -24 12 7 13 15 14 33 2z m1350 -11 c4 -12 3 -13 -10 -3 -8 7 -18 10 -21 6 -4 -3 -7 -1 -7 6 0 17 32 10 38 -9z m-1475 -32 c-2 -5 -51 -8 -109 -8 -57 0 -104 3 -104 8 0 4 49 7 109 7 60 0 107 -3 104 -7z"/>
<path d="M1481 2771 c-9 -6 -11 -18 -7 -34 7 -31 42 -74 51 -65 4 4 0 14 -9 23 -22 23 -13 33 29 29 19 -1 35 2 35 7 0 5 -16 9 -35 9 -37 0 -50 25 -17 33 11 3 9 5 -8 6 -14 0 -31 -3 -39 -8z"/>
<path d="M2747 2783 c-16 -15 -4 -20 43 -15 30 3 55 0 64 -7 16 -13 32 1 21 19 -7 11 -118 14 -128 3z"/>
<path d="M2767 2753 c-4 -3 -7 -25 -7 -49 0 -45 10 -54 60 -54 47 0 68 61 32 93 -18 17 -73 23 -85 10z m43 -9 c0 -4 -8 -13 -17 -20 -15 -11 -16 -16 -5 -33 16 -28 15 -36 -3 -21 -18 15 -19 34 -3 60 12 19 28 27 28 14z m41 -28 c4 -33 -11 -56 -36 -56 -5 1 -2 5 8 11 20 12 22 40 5 58 -11 10 -10 11 5 6 9 -4 18 -12 18 -19z"/>
<path d="M2270 2782 c0 -12 72 -94 77 -88 3 2 7 25 10 50 l4 46 -45 0 c-25 0 -46 -4 -46 -8z"/>
<path d="M2375 2780 c-4 -6 12 -10 40 -10 28 0 44 4 40 10 -3 6 -21 10 -40 10 -19 0 -37 -4 -40 -10z"/>
<path d="M2513 2773 c9 -2 25 -2 35 0 9 3 1 5 -18 5 -19 0 -27 -2 -17 -5z"/>
<path d="M2370 2739 c0 -21 44 -33 70 -19 29 15 17 27 -30 32 -32 3 -40 0 -40 -13z"/>
<path d="M2528 2753 c12 -2 32 -2 45 0 12 2 2 4 -23 4 -25 0 -35 -2 -22 -4z"/>
<path d="M2370 2696 c0 -12 10 -16 40 -16 22 0 40 5 40 10 0 6 -11 10 -24 10 -13 0 -31 3 -40 6 -11 4 -16 1 -16 -10z"/>
<path d="M2543 2683 c15 -2 37 -2 50 0 12 2 0 4 -28 4 -27 0 -38 -2 -22 -4z"/>
<path d="M4507 2784 c-4 -4 -7 -10 -7 -13 0 -10 130 -6 132 4 3 11 -114 19 -125 9z"/>
<path d="M4930 2780 c0 -5 18 -10 41 -10 24 0 38 4 34 10 -3 6 -22 10 -41 10 -19 0 -34 -4 -34 -10z"/>
<path d="M5020 2767 c0 -20 -4 -22 -45 -19 -36 3 -45 1 -45 -12 0 -12 10 -16 39 -16 40 0 76 23 66 41 -4 5 -1 9 4 9 15 0 14 -26 -2 -42 -8 -7 -14 -22 -14 -32 0 -14 11 -7 45 29 49 52 46 65 -15 65 -28 0 -33 -4 -33 -23z"/>
<path d="M5546 2781 c-3 -5 12 -28 34 -52 l39 -44 1 53 0 52 -34 0 c-19 0 -37 -4 -40 -9z m64 -30 c0 -6 -4 -13 -10 -16 -5 -3 -10 1 -10 9 0 9 5 16 10 16 6 0 10 -4 10 -9z"/>
<path d="M5670 2780 l-35 -7 43 -2 c27 0 41 3 37 9 -3 6 -7 9 -8 9 -1 -1 -18 -5 -37 -9z"/>
<path d="M5800 2750 c13 -8 13 -10 -2 -10 -36 0 -25 -17 12 -18 38 -2 59 17 23 19 -12 1 -10 4 7 9 22 7 20 8 -15 9 -29 0 -36 -2 -25 -9z"/>
<path d="M5630 2735 c0 -11 12 -15 45 -15 33 0 45 4 45 15 0 11 -12 15 -45 15 -33 0 -45 -4 -45 -15z"/>
<path d="M4937 2704 c-16 -16 -5 -24 34 -24 28 0 39 4 37 13 -5 13 -60 22 -71 11z"/>
<path d="M5637 2703 c-16 -16 -4 -23 38 -23 33 0 45 4 45 15 0 11 -11 15 -38 15 -21 0 -42 -3 -45 -7z"/>
<path d="M5803 2703 c9 -2 25 -2 35 0 9 3 1 5 -18 5 -19 0 -27 -2 -17 -5z"/>
<path d="M5117 2655 c-15 -19 -27 -36 -27 -38 0 -3 16 -7 35 -9 l35 -4 -7 41 c-3 22 -6 41 -7 42 -1 1 -14 -13 -29 -32z"/>
<path d="M5783 2679 c14 -8 22 -8 30 0 8 8 3 11 -18 11 -26 -1 -28 -2 -12 -11z"/>
<path d="M5497 2658 c-2 -13 -7 -30 -11 -38 -5 -13 1 -15 34 -12 22 2 40 7 40 11 -1 7 -47 61 -53 61 -3 0 -7 -10 -10 -22z"/>
<path d="M5980 2600 c0 -13 180 -13 200 0 10 7 -19 10 -92 10 -66 0 -108 -4 -108 -10z"/>
<path d="M1256 2752 c-3 -3 -6 -27 -6 -53 l0 -47 38 2 c21 1 44 6 50 10 16 10 16 86 0 87 -50 6 -77 6 -82 1z m79 -48 c0 -24 -5 -29 -25 -31 -25 -3 -25 -3 -2 7 12 5 22 16 22 24 0 20 -38 30 -55 16 -9 -8 -15 -8 -15 -2 0 14 20 21 50 18 20 -2 25 -8 25 -32z m-61 -19 c3 -8 1 -15 -4 -15 -6 0 -10 7 -10 15 0 8 2 15 4 15 2 0 6 -7 10 -15z"/>
<path d="M4537 2716 c-11 -27 3 -45 31 -43 21 2 27 8 27 27 0 20 -6 26 -26 28 -17 2 -29 -3 -32 -12z"/>
<path d="M5297 2734 c-12 -12 -8 -41 7 -53 24 -20 57 3 47 32 -8 22 -40 34 -54 21z"/>
<path d="M2672 2900 c-29 -4 -56 -10 -59 -13 -15 -15 15 -27 68 -27 56 0 59 1 59 25 0 14 -3 24 -7 24 -5 -1 -32 -5 -61 -9z"/>
<path d="M5932 2900 c-29 -5 -56 -10 -59 -13 -15 -16 15 -27 73 -27 61 0 65 1 62 22 -4 26 -9 27 -76 18z"/>
<path d="M270 2835 l0 -65 55 0 c62 0 95 22 95 65 0 43 -33 65 -95 65 l-55 0 0 -65z"/>
<path d="M2542 2887 c-9 -11 -10 -17 -2 -22 15 -9 23 -1 18 21 -3 15 -4 16 -16 1z"/>
<path d="M2575 2890 c-7 -12 2 -30 16 -30 12 0 12 27 0 35 -5 3 -12 1 -16 -5z"/>
<path d="M2863 2887 c2 -7 25 -13 50 -15 36 -2 47 0 47 12 0 11 -12 15 -51 14 -33 0 -49 -4 -46 -11z"/>
<path d="M3640 2890 c0 -6 27 -10 61 -10 37 0 58 4 54 10 -3 6 -31 10 -61 10 -30 0 -54 -4 -54 -10z"/>
<path d="M6130 2885 c0 -11 12 -15 50 -15 36 0 50 4 50 14 0 9 -15 14 -50 15 -38 0 -50 -3 -50 -14z"/>
<path d="M1520 2875 c0 -9 9 -15 25 -15 16 0 25 6 25 15 0 9 -9 15 -25 15 -16 0 -25 -6 -25 -15z"/>
<path d="M3640 2830 l0 -40 55 0 55 0 0 40 0 40 -55 0 -55 0 0 -40z"/>
<path d="M2090 2790 c0 -19 5 -20 50 -10 7 1 -32 30 -42 30 -4 0 -8 -9 -8 -20z"/>
<path d="M1660 2780 c0 -5 20 -10 45 -10 25 0 45 5 45 10 0 6 -20 10 -45 10 -25 0 -45 -4 -45 -10z"/>
<path d="M1759 2773 c-3 -38 0 -85 4 -90 6 -5 77 86 77 98 0 5 -18 9 -40 9 -31 0 -40 -4 -41 -17z"/>
<path d="M3640 2735 l0 -45 53 0 c30 0 56 2 58 4 3 3 3 23 1 45 l-4 41 -54 0 -54 0 0 -45z"/>
<path d="M1667 2753 c-19 -19 -5 -33 33 -33 33 0 40 3 40 20 0 16 -7 20 -33 20 -19 0 -37 -3 -40 -7z"/>
<path d="M2090 2732 c0 -18 5 -32 10 -32 6 0 9 11 7 25 -5 37 -17 42 -17 7z"/>
<path d="M1660 2695 c0 -11 11 -15 40 -15 29 0 40 4 40 15 0 11 -11 15 -40 15 -29 0 -40 -4 -40 -15z"/>
<path d="M2090 2674 c0 -8 5 -12 10 -9 6 3 10 10 10 16 0 5 -4 9 -10 9 -5 0 -10 -7 -10 -16z"/>
<path d="M1847 2646 l-28 -36 41 0 c27 0 39 4 35 11 -4 6 -10 22 -14 36 l-7 25 -27 -36z"/>
</g>
</svg>