<svg xmlns="http://www.w3.org/2000/svg" viewBox="21.50 81.00 663.90 168.00">
<g transform="translate(0.000000,768.000000) scale(0.100000,-0.100000)" fill="currentColor" stroke="none">
<path d="M4820 6800 c0 -19 7 -20 195 -20 188 0 195 1 195 20 0 19 -7 20 -195 20 -188 0 -195 -1 -195 -20z"/>
<path d="M5364 6804 c3 -9 6 -18 6 -20 0 -2 88 -4 195 -4 188 0 195 1 195 20 0 19 -7 20 -201 20 -179 0 -200 -2 -195 -16z"/>
<path d="M3930 6781 c0 -28 2 -30 19 -19 26 16 54 -7 48 -39 -4 -20 0 -23 29 -23 32 0 34 2 34 36 l0 37 40 -6 c34 -4 40 -2 40 13 0 21 -16 35 -24 21 -8 -12 -77 -11 -93 2 -9 6 -13 5 -13 -3 0 -12 -27 -10 -62 5 -15 6 -18 2 -18 -24z"/>
<path d="M1140 6756 c0 -25 5 -48 11 -52 8 -4 9 -35 4 -100 -7 -93 -7 -94 16 -94 19 0 129 -66 129 -77 0 -6 -20 6 -59 35 -32 24 -43 25 -182 30 l-149 5 0 -45 c0 -34 6 -50 23 -66 30 -29 49 -28 104 5 43 25 52 26 158 24 l113 -2 4 133 c5 142 5 141 -51 216 -22 28 -30 32 -73 32 l-48 0 0 -44z m90 -6 c0 -40 0 -40 -37 -38 -37 1 -37 1 -5 5 28 4 32 8 32 33 0 15 -6 31 -12 33 -8 3 -6 6 5 6 13 1 17 -7 17 -39z m68 -163 l3 -67 -66 0 -65 0 0 53 c0 28 4 57 8 63 9 15 38 22 82 20 l35 -1 3 -68z m-323 -116 c-3 -5 -1 -12 5 -16 5 -3 10 -1 10 4 0 6 8 11 18 11 15 -1 15 -2 -3 -16 -11 -8 -20 -19 -20 -24 0 -4 -4 -12 -9 -17 -5 -4 -7 1 -4 14 3 12 2 21 -2 20 -4 -1 -8 1 -9 6 -3 20 0 27 10 27 5 0 8 -4 4 -9z"/>
<path d="M3226 6769 c-19 -19 -18 -19 142 -19 160 0 162 0 150 20 -12 18 -23 20 -143 19 -115 0 -132 -2 -149 -20z"/>
<path d="M1276 6768 c4 -7 19 -28 32 -45 l24 -33 334 0 334 0 0 45 0 45 -366 0 c-289 0 -364 -3 -358 -12z"/>
<path d="M6409 6768 c-1 -7 -1 -16 0 -20 0 -5 -6 -8 -14 -8 -13 0 -15 -54 -15 -430 l0 -430 95 0 95 0 0 325 c0 210 4 325 10 325 6 0 10 20 10 45 0 25 -4 45 -10 45 -6 0 -10 27 -10 60 l0 60 -75 0 c-56 0 -75 3 -75 13 0 16 81 18 92 2 9 -13 22 1 13 14 -9 16 -115 14 -116 -1z m46 -248 c3 -5 1 -10 -4 -10 -6 0 -11 5 -11 10 0 6 2 10 4 10 3 0 8 -4 11 -10z m85 -16 c0 -10 -13 -14 -52 -14 -28 0 -48 3 -45 7 4 3 25 6 47 5 33 -2 38 1 33 15 -4 11 -3 14 5 9 7 -4 12 -14 12 -22z"/>
<path d="M2010 6725 l0 -45 175 0 c168 0 175 1 175 20 0 19 7 20 174 20 169 0 175 -1 190 -22 16 -22 16 -22 16 10 0 17 5 32 10 32 6 0 10 -13 10 -30 0 -20 5 -30 15 -30 18 0 21 46 3 53 -7 3 65 6 160 6 l172 1 0 -30 c0 -20 5 -30 15 -30 10 0 15 10 15 29 0 66 44 61 -571 61 l-559 0 0 -45z m767 -27 c-3 -8 -6 -5 -6 6 -1 11 2 17 5 13 3 -3 4 -12 1 -19z"/>
<path d="M4710 6760 c0 -5 1 -10 3 -11 1 0 264 -3 585 -5 525 -5 582 -4 582 10 0 14 -59 16 -585 16 -383 0 -585 -3 -585 -10z"/>
<path d="M5950 6760 c0 -6 77 -10 210 -10 133 0 210 4 210 10 0 6 -77 10 -210 10 -133 0 -210 -4 -210 -10z"/>
<path d="M3170 6730 c0 -6 70 -10 189 -10 116 0 192 4 196 10 4 7 -62 10 -189 10 -124 0 -196 -4 -196 -10z"/>
<path d="M4650 6718 c0 -17 37 -18 645 -18 608 0 645 1 645 18 0 16 -37 17 -645 17 -608 0 -645 -1 -645 -17z"/>
<path d="M5950 6460 c0 -242 2 -280 15 -280 12 0 15 16 17 78 2 69 2 71 5 20 3 -49 7 -58 23 -58 16 0 20 9 23 58 l3 57 2 -57 c2 -51 5 -58 22 -58 18 0 20 7 20 60 l0 60 -57 0 c-31 0 -54 2 -52 5 9 9 356 13 370 4 8 -5 10 -9 4 -9 -6 0 -9 -28 -7 -70 l4 -71 -26 7 c-20 5 -26 2 -26 -11 0 -12 6 -16 20 -12 10 3 23 0 28 -7 4 -6 9 -66 11 -133 2 -107 1 -123 -13 -123 -9 0 -16 -8 -16 -20 0 -13 7 -20 20 -20 19 0 20 -7 20 -150 0 -106 3 -150 11 -150 9 0 10 36 6 133 -4 72 -7 333 -7 580 l-1 447 -209 0 -210 0 0 -280z m90 220 c0 -5 -2 -10 -4 -10 -3 0 -8 5 -11 10 -3 6 -1 10 4 10 6 0 11 -4 11 -10z m140 0 c0 -5 -4 -10 -9 -10 -6 0 -13 5 -16 10 -3 6 1 10 9 10 9 0 16 -4 16 -10z m-140 -30 c0 -5 -2 -10 -4 -10 -3 0 -8 5 -11 10 -3 6 -1 10 4 10 6 0 11 -4 11 -10z m140 6 c0 -11 -19 -15 -25 -6 -3 5 1 10 9 10 9 0 16 -2 16 -4z m-3 -32 c-3 -3 -12 -4 -19 -1 -8 3 -5 6 6 6 11 1 17 -2 13 -5z m-1 -39 c-4 -24 -13 -27 -19 -5 -3 13 0 20 8 20 7 0 12 -7 11 -15z m154 11 c0 -11 -19 -15 -25 -6 -3 5 1 10 9 10 9 0 16 -2 16 -4z m3 -33 c-7 -2 -21 -2 -30 0 -10 3 -4 5 12 5 17 0 24 -2 18 -5z"/>
<path d="M2800 6705 c0 -34 40 -36 41 -2 1 21 1 21 9 -3 l8 -25 1 28 c1 24 -3 27 -29 27 -25 0 -30 -4 -30 -25z"/>
<path d="M2871 6703 l1 -28 8 25 c8 24 8 24 9 3 1 -13 5 -23 10 -23 5 0 12 10 14 23 4 21 4 21 7 -3 l2 -25 8 25 8 25 2 -25 2 -25 8 25 c8 24 8 24 9 3 1 -34 41 -32 41 2 0 24 -2 25 -65 25 -64 0 -65 0 -64 -27z"/>
<path d="M3012 6705 c0 -16 2 -22 5 -12 2 9 2 23 0 30 -3 6 -5 -1 -5 -18z"/>
<path d="M3030 6705 c0 -31 20 -33 21 -2 1 21 1 21 9 -3 l8 -25 1 28 c1 21 -4 27 -19 27 -15 0 -20 -7 -20 -25z"/>
<path d="M3080 6705 c0 -14 3 -25 8 -25 4 0 7 11 7 25 0 14 -3 25 -7 25 -5 0 -8 -11 -8 -25z"/>
<path d="M2370 6696 c0 -11 33 -14 165 -15 143 -2 165 0 165 14 0 13 -23 15 -165 15 -133 0 -165 -3 -165 -14z"/>
<path d="M3150 6692 c0 -9 9 -23 21 -30 20 -13 20 -20 18 -236 -1 -122 1 -228 5 -234 19 -32 24 3 22 181 l-1 192 698 3 697 2 1 -22 c1 -13 2 -30 3 -38 2 -8 3 -86 4 -172 1 -98 6 -158 12 -158 6 0 10 93 10 260 0 153 -4 260 -9 260 -5 0 -12 -8 -14 -17 -4 -17 -5 -17 -6 0 -2 31 -21 18 -22 -15 -1 -30 -2 -31 -8 -8 l-7 25 -502 3 -502 2 0 -30 0 -30 513 -3 512 -2 -517 -3 -518 -2 0 45 0 45 -205 0 c-189 0 -205 -1 -205 -18z"/>
<path d="M4748 6683 l-98 -4 0 -34 0 -35 210 0 210 0 2 -97 2 -98 6 80 6 80 2 -77 c3 -110 22 -100 22 11 0 77 -2 90 -17 94 -10 3 170 5 400 6 229 0 420 0 425 -1 4 -2 5 -7 3 -13 -3 -5 -7 -50 -10 -100 l-6 -90 -6 100 -5 100 -2 -97 -2 -98 -605 0 -605 0 0 95 c0 78 -3 95 -15 95 -13 0 -15 -30 -15 -210 l0 -211 83 3 82 3 -1 78 c-1 42 3 77 7 77 5 0 9 -36 9 -80 l0 -80 70 0 70 0 1 78 c0 42 3 70 6 62 3 -8 11 -18 17 -22 8 -5 7 -8 -1 -8 -9 0 -13 -18 -13 -55 l0 -55 75 0 75 0 0 85 c0 75 2 84 17 78 11 -4 12 -8 5 -11 -8 -2 -12 -26 -12 -62 0 -88 2 -90 76 -90 l64 0 0 90 0 90 -147 2 -148 2 150 6 c83 3 151 4 153 3 2 0 3 -44 3 -97 l-1 -97 108 3 107 3 3 73 3 72 99 0 c113 0 107 5 112 -95 l3 -50 108 -3 107 -3 0 90 0 91 -315 0 c-173 0 -315 3 -315 8 0 4 141 7 312 7 l313 0 3 74 c2 51 -1 77 -9 82 -10 6 -10 11 0 22 7 10 11 38 9 74 l-3 58 -545 0 c-300 1 -589 -1 -642 -2z m232 -330 c0 -13 -3 -14 -8 -6 -5 9 -53 13 -157 16 l-150 3 158 2 c144 2 157 1 157 -15z m-305 -53 c0 -22 -3 -40 -7 -40 -10 0 -11 64 -1 73 3 4 7 7 8 7 0 0 1 -18 0 -40z m1191 11 c-3 -5 -15 -7 -26 -4 -28 7 -25 13 6 13 14 0 23 -4 20 -9z"/>
<path d="M1334 6668 c-4 -6 -9 -67 -12 -135 l-5 -123 -113 0 c-103 0 -119 -2 -169 -27 l-55 -27 0 -238 0 -238 169 0 168 0 79 102 c43 56 82 106 85 110 3 5 120 10 260 11 l254 2 0 285 0 285 -327 2 c-235 2 -329 -1 -334 -9z m167 -132 l-3 -95 139 -4 138 -3 -145 -2 -145 -2 5 96 c6 114 0 123 -73 116 l-48 -4 3 -104 c2 -57 0 -104 -4 -104 -5 0 -8 50 -8 110 l0 110 45 0 c26 0 45 5 45 11 0 6 12 2 27 -9 26 -19 27 -21 24 -116z m334 124 c-4 -6 11 -10 39 -10 25 0 47 -3 49 -7 3 -5 -25 -8 -61 -8 l-67 0 -3 -97 c-2 -63 1 -98 8 -98 5 0 9 3 9 8 -1 4 -1 46 0 95 l1 87 51 0 50 0 -3 -95 c-2 -52 0 -95 4 -95 4 0 9 39 11 88 l3 87 2 -92 2 -93 -74 0 -75 0 -3 100 c-3 94 -2 100 20 111 12 7 22 16 22 21 0 4 5 8 11 8 5 0 7 -4 4 -10z m-357 -122 l-3 -93 -45 0 -45 0 -3 93 -3 92 51 0 51 0 -3 -92z m157 -7 l0 -75 -57 -3 -58 -3 0 80 0 81 58 -3 57 -3 0 -74z m125 9 c0 -38 0 -73 0 -77 0 -5 -25 -9 -55 -11 l-55 -3 0 81 0 80 55 0 55 0 0 -70z m173 -127 c3 -5 -83 -7 -191 -5 -324 4 -353 8 -75 10 144 1 264 -1 266 -5z m-136 -30 c-81 -2 -213 -2 -295 0 -81 1 -14 3 148 3 162 0 229 -2 147 -3z"/>
<path d="M2070 6546 c0 -77 4 -126 10 -126 6 0 10 46 10 119 0 69 -4 122 -10 126 -6 4 -10 -38 -10 -119z"/>
<path d="M2402 6543 l-2 -133 -160 0 -160 0 0 -110 c0 -60 3 -110 8 -110 4 0 5 27 4 60 l-4 60 314 0 313 0 -3 -65 c-2 -41 0 -65 7 -65 6 0 12 35 14 88 l3 87 2 -94 2 -93 -157 6 c-87 3 -163 5 -170 6 -8 0 -13 23 -16 63 l-3 62 -2 -62 c-2 -61 -3 -63 -29 -64 -16 0 -86 -1 -158 -2 l-130 -1 -3 117 -3 117 -29 0 -30 0 0 -265 0 -265 30 0 29 0 3 133 3 132 333 3 332 2 0 -135 0 -135 200 0 200 0 0 265 0 265 -195 0 -194 0 -4 123 c-3 110 -3 107 -3 -26 1 -81 -2 -147 -6 -147 -5 0 -8 11 -8 25 l0 25 -160 0 -159 0 -4 133 -3 132 -2 -132z m33 -193 c0 -8 -11 -17 -24 -18 -18 -3 -22 0 -18 11 3 9 1 18 -6 20 -7 3 2 4 18 3 19 -1 30 -7 30 -16z m508 -347 c-6 -14 -43 -18 -43 -5 0 14 11 21 30 19 10 -1 16 -7 13 -14z"/>
<path d="M2762 6613 l-2 -63 155 0 155 0 0 59 c0 54 -2 59 -20 54 -16 -4 -20 -14 -22 -52 l-1 -46 -7 50 -6 50 -5 -50 -5 -50 -2 46 c-2 37 -6 48 -22 52 -18 5 -20 0 -22 -46 l-1 -52 -7 55 -7 55 -3 -55 -3 -55 -7 55 -7 55 -3 -55 c-3 -49 -4 -51 -7 -15 -6 67 -17 74 -23 15 l-7 -55 -3 55 -3 55 -7 -55 -7 -55 -3 50 -3 50 -7 -55 -7 -55 -1 55 c-2 49 -5 56 -22 56 -17 0 -20 -8 -22 -56 l-1 -55 -7 60 -7 60 -3 -60 -3 -60 -7 60 -7 60 -1 -62z"/>
<path d="M2010 6540 l0 -120 25 0 25 0 0 120 0 120 -25 0 -25 0 0 -120z"/>
<path d="M2100 6540 l0 -120 140 0 140 0 0 25 c0 14 -4 25 -10 25 -6 0 -10 38 -10 95 l0 95 -130 0 -130 0 0 -120z"/>
<path d="M2372 6568 c1 -95 5 -83 10 30 2 34 0 62 -4 62 -5 0 -7 -42 -6 -92z"/>
<path d="M2420 6570 l0 -90 140 0 140 0 0 90 0 90 -140 0 -140 0 0 -90z m190 50 c0 -12 -29 -20 -35 -9 -4 5 -11 7 -16 4 -5 -4 -9 -2 -9 4 0 11 29 19 48 13 6 -2 12 -8 12 -12z"/>
<path d="M2712 6565 l3 -95 -147 0 -148 0 0 -25 0 -25 155 0 155 0 0 120 c0 80 -4 120 -11 120 -7 0 -10 -31 -7 -95z"/>
<path d="M3083 6605 c0 -33 2 -45 4 -27 2 18 2 45 0 60 -2 15 -4 0 -4 -33z"/>
<path d="M3110 6540 c0 -100 3 -120 15 -120 13 0 15 20 15 120 0 100 -2 120 -15 120 -12 0 -15 -20 -15 -120z"/>
<path d="M3150 6266 l0 -396 -1085 0 c-1078 0 -1085 0 -1085 -20 0 -20 7 -20 1130 -20 1123 0 1130 0 1130 20 0 17 -7 20 -42 22 -37 1 -39 2 -10 5 31 4 32 6 34 56 l1 52 7 -55 c4 -36 7 -4 7 95 0 99 -3 131 -7 95 -7 -55 -7 -55 -8 -11 -2 32 -8 50 -27 67 l-25 23 0 225 c0 139 -4 227 -10 231 -7 4 -10 -128 -10 -389z m77 -263 c-3 -10 -5 -2 -5 17 0 19 2 27 5 18 2 -10 2 -26 0 -35z"/>
<path d="M4690 6510 c0 -53 4 -90 10 -90 6 0 10 37 10 90 0 53 -4 90 -10 90 -6 0 -10 -37 -10 -90z"/>
<path d="M4720 6510 c0 -53 4 -90 10 -90 6 0 10 37 10 90 0 53 -4 90 -10 90 -6 0 -10 -37 -10 -90z"/>
<path d="M4750 6510 c0 -83 1 -90 20 -90 19 0 20 7 20 90 0 83 -1 90 -20 90 -19 0 -20 -7 -20 -90z"/>
<path d="M4800 6510 c0 -53 4 -90 10 -90 6 0 10 37 10 90 0 53 -4 90 -10 90 -6 0 -10 -37 -10 -90z"/>
<path d="M4830 6511 c0 -84 1 -90 20 -88 18 1 20 8 20 89 0 81 -2 88 -20 88 -19 0 -20 -7 -20 -89z m27 32 c-3 -10 -5 -4 -5 12 0 17 2 24 5 18 2 -7 2 -21 0 -30z"/>
<path d="M4880 6510 c0 -53 4 -90 10 -90 6 0 10 37 10 90 0 53 -4 90 -10 90 -6 0 -10 -37 -10 -90z"/>
<path d="M4910 6510 c0 -83 1 -90 20 -90 19 0 20 7 20 90 0 83 -1 90 -20 90 -19 0 -20 -7 -20 -90z"/>
<path d="M4960 6510 c0 -53 4 -90 10 -90 6 0 10 37 10 90 0 53 -4 90 -10 90 -6 0 -10 -37 -10 -90z"/>
<path d="M4990 6510 c0 -83 1 -90 20 -90 19 0 20 7 20 90 0 83 -1 90 -20 90 -19 0 -20 -7 -20 -90z"/>
<path d="M5040 6510 c0 -53 4 -90 10 -90 6 0 10 37 10 90 0 53 -4 90 -10 90 -6 0 -10 -37 -10 -90z"/>
<path d="M5120 6510 c0 -53 4 -90 10 -90 6 0 10 37 10 90 0 53 -4 90 -10 90 -6 0 -10 -37 -10 -90z"/>
<path d="M5154 6510 c0 -52 1 -74 3 -47 2 26 2 68 0 95 -2 26 -3 4 -3 -48z"/>
<path d="M5170 6510 c0 -53 4 -90 10 -90 6 0 10 37 10 90 0 53 -4 90 -10 90 -6 0 -10 -37 -10 -90z"/>
<path d="M5200 6510 c0 -83 1 -90 20 -90 19 0 20 7 20 93 0 63 -3 87 -10 77 -6 -10 -10 -11 -10 -2 0 6 -4 12 -10 12 -6 0 -10 -37 -10 -90z"/>
<path d="M5250 6510 c0 -53 4 -90 10 -90 6 0 10 37 10 90 0 53 -4 90 -10 90 -6 0 -10 -37 -10 -90z"/>
<path d="M5280 6510 c0 -56 4 -90 11 -90 6 0 9 33 8 90 -1 50 -6 90 -10 90 -5 0 -9 -40 -9 -90z"/>
<path d="M5312 6510 c-1 -64 1 -90 8 -80 6 10 10 11 10 3 0 -7 5 -13 10 -13 6 0 10 37 10 90 0 102 -19 126 -22 28 l-1 -63 -7 65 c-6 64 -7 63 -8 -30z"/>
<path d="M5360 6510 l0 -90 35 0 35 0 0 90 c0 97 -17 124 -23 38 l-3 -53 -4 55 c-3 49 -4 45 -10 -35 l-6 -90 -2 88 c-3 117 -22 115 -22 -3z"/>
<path d="M5440 6510 c0 -53 4 -90 10 -90 6 0 10 37 10 90 0 53 -4 90 -10 90 -6 0 -10 -37 -10 -90z"/>
<path d="M5472 6515 c-2 -84 -1 -91 18 -92 19 -2 20 4 20 88 0 111 -19 121 -22 12 l-2 -78 -6 80 -6 80 -2 -90z"/>
<path d="M5520 6510 l0 -90 35 0 35 0 0 90 c0 110 -18 120 -23 13 l-3 -78 -4 80 -4 80 -6 -90 -6 -90 -2 88 c-3 117 -22 115 -22 -3z"/>
<path d="M5600 6510 c0 -53 4 -90 10 -90 6 0 10 6 10 13 0 8 4 7 10 -3 7 -10 9 15 8 80 -1 84 -2 89 -8 40 l-7 -55 -1 53 c-3 91 -22 58 -22 -38z"/>
<path d="M5650 6510 c0 -53 4 -90 10 -90 6 0 10 37 10 90 0 53 -4 90 -10 90 -6 0 -10 -37 -10 -90z"/>
<path d="M5680 6509 c0 -82 1 -89 20 -89 18 0 20 7 20 88 0 81 -2 88 -20 89 -19 2 -20 -4 -20 -88z"/>
<path d="M5730 6510 c0 -53 4 -90 10 -90 6 0 10 37 10 90 0 53 -4 90 -10 90 -6 0 -10 -37 -10 -90z"/>
<path d="M5760 6510 c0 -83 1 -90 20 -90 19 0 20 7 20 90 0 83 -1 90 -20 90 -19 0 -20 -7 -20 -90z"/>
<path d="M5810 6510 c0 -53 4 -90 10 -90 6 0 10 37 10 90 0 53 -4 90 -10 90 -6 0 -10 -37 -10 -90z"/>
<path d="M5840 6510 c0 -83 1 -90 20 -90 19 0 20 7 20 90 0 83 -1 90 -20 90 -19 0 -20 -7 -20 -90z"/>
<path d="M3230 6366 l0 -184 73 1 72 2 5 180 6 180 2 -183 2 -183 70 3 70 2 0 183 0 183 -150 0 -150 0 0 -184z"/>
<path d="M3543 6368 l2 -183 70 2 70 1 5 179 6 178 2 -183 2 -183 68 3 67 3 0 180 0 180 -147 3 -146 3 1 -183z"/>
<path d="M3850 6365 l0 -185 78 2 77 3 5 170 6 170 2 -172 2 -173 65 1 c48 1 65 5 65 15 0 8 1 79 1 159 0 80 -1 156 -1 170 l0 25 -150 0 -150 0 0 -185z"/>
<path d="M4170 6365 l0 -185 49 0 c85 0 81 -10 81 191 l0 179 -65 0 -65 0 0 -185z"/>
<path d="M4312 6368 l3 -183 73 -2 72 -3 0 185 0 185 -75 0 -75 0 2 -182z"/>
<path d="M4470 6365 l0 -186 68 3 67 3 3 70 c2 39 1 121 -3 183 l-7 112 -64 0 -64 0 0 -185z"/>
<path d="M2760 6480 l0 -60 155 0 155 0 0 60 0 60 -155 0 -155 0 0 -60z"/>
<path d="M3083 6480 c0 -36 2 -50 4 -32 2 17 2 47 0 65 -2 17 -4 3 -4 -33z"/>
<path d="M790 6385 c0 -112 0 -111 53 -107 11 1 15 -2 11 -9 -3 -6 -19 -9 -35 -5 l-29 6 0 -195 0 -195 65 0 c36 0 65 3 65 8 0 4 -14 50 -30 102 -17 51 -30 101 -29 110 0 8 17 -37 37 -100 23 -71 43 -116 52 -118 13 -2 15 31 15 234 l0 236 -32 27 c-28 23 -33 34 -33 69 l0 42 -55 0 -55 0 0 -105z m70 -2 c0 -5 -14 -8 -30 -9 -17 -1 -30 3 -30 7 0 5 14 9 30 9 17 0 30 -3 30 -7z m0 -225 c0 -4 -13 -8 -30 -8 -16 0 -30 4 -30 8 0 5 14 9 30 9 17 0 30 -4 30 -9z"/>
<path d="M6090 6280 c0 -53 2 -60 20 -60 18 0 20 7 20 60 0 53 -2 60 -20 60 -18 0 -20 -7 -20 -60z"/>
<path d="M6140 6280 c0 -54 2 -60 21 -60 19 0 21 5 17 55 -1 30 0 55 5 55 4 0 7 -25 7 -55 0 -42 3 -55 15 -55 12 0 15 13 15 55 0 30 5 55 10 55 6 0 10 -25 10 -55 0 -42 3 -55 15 -55 12 0 15 13 15 56 0 34 4 53 10 49 6 -3 10 -28 10 -56 0 -37 4 -49 15 -49 12 0 15 13 15 60 l0 60 -90 0 -90 0 0 -60z"/>
<path d="M5520 6250 c0 -90 18 -92 23 -2 l3 67 2 -67 c1 -38 7 -68 12 -68 6 0 11 30 12 68 l2 67 5 -65 c5 -52 9 -65 24 -66 15 -2 17 8 17 67 l0 69 -50 0 -50 0 0 -70z m77 8 c-2 -13 -4 -5 -4 17 -1 22 1 32 4 23 2 -10 2 -28 0 -40z"/>
<path d="M5630 6250 c0 -90 19 -93 22 -2 l2 67 6 -70 c4 -49 8 -65 14 -52 5 10 6 40 4 67 -3 28 -1 50 3 50 5 0 9 -30 10 -67 0 -38 3 -60 7 -51 4 9 5 42 4 73 l-4 55 -34 0 -34 0 0 -70z"/>
<path d="M2110 6245 c0 -48 2 -55 20 -55 18 0 20 6 18 58 l-1 57 -7 -55 -7 -55 -1 53 c-3 69 -22 67 -22 -3z"/>
<path d="M2163 6245 c0 -33 2 -45 4 -27 2 18 2 45 0 60 -2 15 -4 0 -4 -33z"/>
<path d="M2183 6245 c0 -33 2 -45 4 -27 2 18 2 45 0 60 -2 15 -4 0 -4 -33z"/>
<path d="M2200 6243 c0 -66 19 -71 22 -5 l1 47 7 -50 7 -50 1 55 c2 50 0 56 -18 56 -17 0 -20 -7 -20 -53z"/>
<path d="M2253 6245 c0 -33 2 -45 4 -27 2 18 2 45 0 60 -2 15 -4 0 -4 -33z"/>
<path d="M2270 6246 c0 -49 2 -56 20 -56 18 0 20 6 18 58 l-1 57 -7 -55 -7 -55 -1 47 c-3 68 -22 72 -22 4z"/>
<path d="M2323 6245 c0 -33 2 -45 4 -27 2 18 2 45 0 60 -2 15 -4 0 -4 -33z"/>
<path d="M2341 6248 c-1 -52 1 -58 19 -58 18 0 20 7 20 56 0 47 -2 55 -14 45 -11 -9 -15 -9 -19 1 -3 7 -6 -13 -6 -44z"/>
<path d="M2410 6243 c0 -46 3 -53 20 -53 17 0 20 7 20 53 0 46 -3 53 -20 53 -17 0 -20 -7 -20 -53z"/>
<path d="M2463 6245 c0 -33 2 -45 4 -27 2 18 2 45 0 60 -2 15 -4 0 -4 -33z"/>
<path d="M2483 6245 c0 -33 2 -45 4 -27 2 18 2 45 0 60 -2 15 -4 0 -4 -33z"/>
<path d="M2500 6245 c0 -30 5 -55 10 -55 6 0 10 25 10 55 0 30 -4 55 -10 55 -5 0 -10 -25 -10 -55z"/>
<path d="M2533 6245 c0 -33 2 -45 4 -27 2 18 2 45 0 60 -2 15 -4 0 -4 -33z"/>
<path d="M2553 6240 c0 -36 2 -50 4 -32 2 17 2 47 0 65 -2 17 -4 3 -4 -33z"/>
<path d="M2570 6243 c0 -66 19 -71 22 -5 l1 47 7 -50 7 -50 1 55 c2 50 0 56 -18 56 -17 0 -20 -7 -20 -53z"/>
<path d="M2623 6245 c0 -33 2 -45 4 -27 2 18 2 45 0 60 -2 15 -4 0 -4 -33z"/>
<path d="M2640 6243 c0 -57 19 -75 21 -20 2 31 2 31 9 -8 7 -38 7 -36 9 20 1 55 -1 61 -19 61 -17 0 -20 -7 -20 -53z"/>
<path d="M2693 6240 c0 -36 2 -50 4 -32 2 17 2 47 0 65 -2 17 -4 3 -4 -33z"/>
<path d="M5990 6195 c0 -8 9 -15 20 -15 11 0 20 7 20 15 0 8 -9 15 -20 15 -11 0 -20 -7 -20 -15z"/>
<path d="M6040 6195 c0 -8 9 -15 20 -15 11 0 20 7 20 15 0 8 -9 15 -20 15 -11 0 -20 -7 -20 -15z"/>
<path d="M6090 6195 c0 -8 9 -15 20 -15 11 0 20 7 20 15 0 8 -9 15 -20 15 -11 0 -20 -7 -20 -15z"/>
<path d="M6140 6195 c0 -8 9 -15 20 -15 11 0 20 7 20 15 0 8 -9 15 -20 15 -11 0 -20 -7 -20 -15z"/>
<path d="M6190 6195 c0 -10 7 -15 18 -13 21 4 19 22 -2 26 -10 2 -16 -3 -16 -13z"/>
<path d="M6240 6195 c0 -8 7 -15 15 -15 8 0 15 7 15 15 0 8 -7 15 -15 15 -8 0 -15 -7 -15 -15z"/>
<path d="M580 6076 c0 -59 -4 -108 -10 -111 -5 -3 -10 -24 -10 -46 0 -35 3 -39 24 -39 l25 0 -6 140 -6 140 41 0 42 0 0 -145 0 -145 -37 -2 c-21 -1 -51 -2 -68 -3 -28 -1 -31 -5 -26 -35 0 -6 33 -10 74 -10 68 0 73 -1 74 -22 2 -21 1 -22 -11 -5 -9 12 -27 17 -57 17 l-44 -1 48 -40 c40 -35 47 -46 47 -78 0 -40 -14 -54 -69 -66 -40 -9 -47 -24 -26 -64 19 -39 8 -92 -36 -164 -16 -26 -29 -50 -29 -53 0 -3 28 -4 61 -2 l62 3 28 55 28 55 -6 -52 c-5 -49 -4 -53 16 -53 17 0 21 6 21 30 0 17 -4 30 -10 30 -6 0 -9 78 -8 218 1 119 3 200 5 180 l4 -38 90 0 89 0 0 45 0 45 -52 1 c-29 0 -64 3 -78 5 -36 7 -68 -3 -72 -23 -2 -9 -3 61 -3 157 l0 175 -57 3 -58 3 0 -105z m110 -498 c0 -5 -4 -8 -10 -8 -5 0 -10 10 -10 23 0 18 2 19 10 7 5 -8 10 -18 10 -22z m27 -210 c-3 -8 -6 -5 -6 6 -1 11 2 17 5 13 3 -3 4 -12 1 -19z"/>
<path d="M6602 6003 l3 -178 68 -3 c66 -3 67 -3 67 23 0 24 -2 25 -65 25 l-65 0 0 145 0 145 35 0 35 0 0 -140 c0 -118 2 -140 15 -140 13 0 15 23 15 150 l0 150 -55 0 -55 0 2 -177z"/>
<path d="M3254 5995 c0 -99 2 -138 3 -87 2 51 2 132 0 180 -1 48 -3 6 -3 -93z"/>
<path d="M3272 6038 l3 -133 50 0 50 0 3 133 3 132 -57 0 -56 0 4 -132z"/>
<path d="M3390 6035 l0 -135 100 0 100 0 0 135 0 135 -27 0 -26 0 6 -125 c4 -79 3 -125 -3 -125 -6 0 -10 50 -10 125 l0 125 -70 0 -70 0 0 -135z"/>
<path d="M3602 5993 l-2 -183 -1032 0 -1033 0 -6 -37 -6 -38 -2 37 -1 36 -65 4 -65 3 0 -37 c0 -34 2 -37 33 -41 31 -4 31 -4 -5 -5 -37 -2 -38 -1 -38 32 0 19 -5 38 -11 41 -6 4 -97 6 -204 6 l-194 -2 -3 27 c-2 15 -9 29 -16 32 -10 3 -13 -27 -11 -148 0 -83 -2 -154 -5 -157 -3 -4 -6 62 -6 145 0 90 -4 153 -10 157 -7 4 -10 -70 -10 -214 0 -214 1 -221 20 -221 17 0 20 7 20 43 1 23 11 80 24 127 l23 85 203 3 c148 2 206 6 212 15 6 9 8 9 8 -1 0 -17 346 -16 354 1 3 9 7 8 14 -1 15 -22 302 -43 302 -22 0 5 -30 10 -67 12 -38 2 74 2 247 0 l315 -3 37 -42 c36 -40 38 -45 38 -112 0 -51 -5 -78 -19 -101 -22 -37 -76 -64 -125 -64 -20 0 -36 -5 -36 -11 0 -16 87 -2 124 19 48 28 69 66 74 132 6 76 -1 102 -38 143 l-29 34 47 -8 c70 -12 72 -11 72 16 l0 25 451 0 451 0 35 30 c33 30 63 39 63 20 0 -5 -6 -7 -14 -4 -8 3 -26 -8 -42 -25 l-27 -31 -451 -2 c-349 -2 -451 -6 -451 -15 0 -10 111 -13 492 -15 l492 -3 3 30 c2 25 8 30 28 30 21 0 26 -5 28 -31 l3 -31 384 3 384 2 3 -26 c4 -34 45 -43 66 -15 13 17 14 17 7 -4 -8 -27 11 -31 19 -5 4 11 16 28 29 39 21 20 38 21 340 26 194 3 317 1 317 -5 0 -12 153 -7 163 6 5 8 9 8 15 0 4 -7 54 -9 145 -6 129 4 137 5 132 23 -4 11 -2 19 4 19 6 0 11 -9 11 -20 0 -16 7 -20 30 -20 26 0 30 4 30 26 0 26 -1 26 -54 22 l-54 -4 6 38 5 38 -204 0 c-112 1 -284 0 -381 0 l-178 -1 -3 183 -2 183 -3 -182 -2 -183 -520 0 -520 0 -3 182 -2 183 -3 -182 -2 -183 -170 0 -170 0 -3 183 -2 182 -3 -182z m286 -245 c17 -17 15 -45 -4 -52 -21 -8 -20 -8 -39 10 -15 15 -15 18 1 35 20 22 26 23 42 7z m-2389 -24 c-9 -11 -15 -12 -23 -4 -8 8 -7 13 4 20 20 12 33 1 19 -16z"/>
<path d="M3853 5734 c-8 -21 13 -42 28 -27 13 13 5 43 -11 43 -6 0 -13 -7 -17 -16z"/>
<path d="M3625 6038 l2 -133 32 -3 32 -3 -3 133 -3 133 -31 3 -32 3 3 -133z"/>
<path d="M3700 6035 l0 -135 68 0 67 0 3 135 3 135 -70 0 -71 0 0 -135z"/>
<path d="M3850 6034 l0 -135 43 3 42 3 3 133 3 132 -46 0 -45 0 0 -136z"/>
<path d="M3970 6035 c0 -128 1 -135 20 -135 19 0 20 7 20 135 0 128 -1 135 -20 135 -19 0 -20 -7 -20 -135z"/>
<path d="M4020 6035 l0 -135 65 0 65 0 0 135 0 135 -65 0 -65 0 0 -135z"/>
<path d="M4170 6035 l0 -135 60 0 60 0 2 133 2 132 6 -175 6 -175 2 178 2 177 -70 0 -70 0 0 -135z"/>
<path d="M4320 6035 l0 -135 70 0 70 0 0 135 0 135 -70 0 -70 0 0 -135z"/>
<path d="M4470 6035 l0 -135 71 0 72 0 -7 38 c-3 20 -6 81 -6 135 l0 97 -65 0 -65 0 0 -135z"/>
<path d="M4620 6030 l0 -139 -152 -4 -153 -3 163 -2 162 -2 0 145 c0 90 -4 145 -10 145 -6 0 -10 -53 -10 -140z"/>
<path d="M4654 5995 c0 -99 2 -138 3 -87 2 51 2 132 0 180 -1 48 -3 6 -3 -93z"/>
<path d="M4680 6045 c0 -69 0 -128 0 -132 0 -5 30 -8 68 -8 l67 0 -1 130 -1 130 -67 3 -66 3 0 -126z"/>
<path d="M4831 6035 l1 -136 66 3 67 3 3 133 3 132 -71 0 -70 0 1 -135z"/>
<path d="M4980 6030 l0 -139 -157 -4 -158 -3 163 -2 162 -2 0 145 c0 80 -2 145 -5 145 -3 0 -5 -63 -5 -140z"/>
<path d="M5024 6157 c-2 -7 -3 -67 -2 -133 l3 -119 53 -3 52 -3 0 135 0 136 -50 0 c-33 0 -52 -5 -56 -13z"/>
<path d="M5147 6149 c-3 -11 -5 -70 -4 -132 l2 -112 65 0 65 0 3 133 3 132 -65 0 c-56 0 -64 -3 -69 -21z"/>
<path d="M5290 6068 c1 -57 1 -120 1 -140 l-1 -37 -137 -4 -138 -3 163 -2 162 -2 0 145 0 145 -26 0 -25 0 1 -102z"/>
<path d="M5350 5995 c0 -98 2 -176 5 -173 8 8 9 337 1 345 -3 3 -6 -74 -6 -172z"/>
<path d="M5380 6025 l0 -145 155 0 c131 0 155 2 155 15 0 12 -17 15 -90 15 l-89 0 -3 128 -3 127 -62 3 -63 3 0 -146z"/>
<path d="M5520 6045 l0 -125 65 0 65 0 0 125 c0 164 -18 166 -23 3 l-3 -123 -2 123 c-2 114 -3 122 -22 122 -18 0 -20 -8 -23 -122 l-3 -123 -2 123 c-1 70 -6 122 -12 122 -5 0 -11 -52 -13 -122 l-3 -123 -2 123 c-3 165 -22 163 -22 -3z m87 -62 c-2 -32 -3 -8 -3 52 0 61 1 87 3 58 2 -29 2 -78 0 -110z"/>
<path d="M5661 6048 c0 -80 3 -128 9 -128 12 0 12 131 0 205 -6 39 -8 23 -9 -77z"/>
<path d="M5704 6000 c0 -96 2 -136 3 -87 2 48 2 126 0 175 -1 48 -3 8 -3 -88z"/>
<path d="M5730 6025 l0 -145 128 0 128 0 -3 123 c-4 135 -9 167 -23 167 -6 0 -10 -50 -10 -125 0 -111 2 -125 17 -125 14 0 14 -3 5 -12 -23 -23 -32 13 -32 140 l0 122 -105 0 -105 0 0 -145z"/>
<path d="M6010 6120 c0 -27 5 -50 10 -50 6 0 10 23 10 50 0 28 -4 50 -10 50 -5 0 -10 -22 -10 -50z"/>
<path d="M6040 6120 c0 -43 3 -50 20 -50 17 0 20 7 20 50 0 43 -3 50 -20 50 -17 0 -20 -7 -20 -50z"/>
<path d="M6090 6120 c0 -43 3 -50 20 -50 17 0 20 7 20 50 0 43 -3 50 -20 50 -17 0 -20 -7 -20 -50z"/>
<path d="M6140 6120 c0 -43 3 -50 20 -50 17 0 20 7 20 50 0 43 -3 50 -20 50 -17 0 -20 -7 -20 -50z"/>
<path d="M6190 6120 c0 -38 4 -50 15 -50 11 0 15 12 15 50 0 38 -4 50 -15 50 -11 0 -15 -12 -15 -50z"/>
<path d="M6240 6120 c0 -38 4 -50 15 -50 11 0 15 12 15 50 0 38 -4 50 -15 50 -11 0 -15 -12 -15 -50z"/>
<path d="M6287 6163 c-11 -10 -8 -93 3 -93 6 0 10 23 10 50 0 51 -1 55 -13 43z"/>
<path d="M6310 6120 c0 -27 5 -50 10 -50 6 0 10 23 10 50 0 28 -4 50 -10 50 -5 0 -10 -22 -10 -50z"/>
<path d="M2087 6133 c-4 -3 -7 -24 -7 -45 l0 -38 315 0 315 0 0 -60 c0 -33 4 -60 10 -60 6 0 10 42 10 105 l0 105 -318 0 c-175 0 -322 -3 -325 -7z m317 -38 c-4 -8 -1 -15 5 -15 6 0 11 5 11 10 0 6 5 10 11 10 8 0 8 -5 -1 -15 -21 -25 -62 -12 -45 15 10 16 25 12 19 -5z"/>
<path d="M5991 6084 c0 -11 3 -14 6 -6 3 7 2 16 -1 19 -3 4 -6 -2 -5 -13z"/>
<path d="M1416 5991 c-42 -55 -76 -102 -76 -105 0 -3 45 -6 101 -6 64 0 98 4 94 10 -3 6 -1 10 4 10 6 0 11 -4 11 -10 0 -6 50 -10 131 -10 84 0 128 4 124 10 -3 6 -1 10 4 10 6 0 11 -4 11 -10 0 -6 37 -10 90 -10 l90 0 0 105 0 105 -254 0 -253 0 -77 -99z m141 17 c-3 -7 -5 -2 -5 12 0 14 2 19 5 13 2 -7 2 -19 0 -25z m150 25 c-20 -2 -52 -2 -70 0 -17 2 0 4 38 4 39 0 53 -2 32 -4z m123 -14 c0 -5 -4 -9 -10 -9 -5 0 -10 7 -10 16 0 8 5 12 10 9 6 -3 10 -10 10 -16z m-290 1 c0 -5 -4 -10 -10 -10 -5 0 -10 5 -10 10 0 6 5 10 10 10 6 0 10 -4 10 -10z m260 0 c0 -5 -4 -10 -10 -10 -5 0 -10 5 -10 10 0 6 5 10 10 10 6 0 10 -4 10 -10z m-93 -7 c-20 -2 -52 -2 -70 0 -17 2 0 4 38 4 39 0 53 -2 32 -4z m33 -23 c0 -6 -28 -9 -67 -8 l-68 1 65 7 c36 4 66 7 68 8 1 1 2 -2 2 -8z m-33 -27 c-20 -2 -52 -2 -70 0 -17 2 0 4 38 4 39 0 53 -2 32 -4z m23 -23 c10 -7 -5 -10 -53 -10 -43 0 -66 4 -62 10 8 13 95 13 115 0z"/>
<path d="M5998 6051 c11 -6 12 -32 6 -124 l-7 -116 -41 -3 c-39 -3 -41 -4 -40 -35 2 -27 -2 -33 -18 -33 -14 0 -19 -6 -16 -22 3 -23 4 -23 210 -26 l207 -2 16 -57 c9 -32 19 -90 22 -129 5 -60 9 -73 24 -77 17 -5 19 2 19 70 0 43 -4 72 -9 68 -19 -11 -24 19 -25 158 -1 107 -4 141 -14 145 -10 3 -13 -4 -10 -24 l3 -29 -155 0 -155 0 -3 58 c-2 35 1 57 8 57 6 0 10 26 10 65 0 61 -1 65 -22 65 -17 0 -19 -3 -10 -9z"/>
<path d="M6048 5995 l-3 -65 90 0 90 0 -3 65 c-3 48 -7 65 -18 65 -10 0 -14 -16 -16 -62 l-1 -63 -6 60 c-5 46 -10 61 -23 63 -15 3 -18 -5 -18 -51 0 -35 5 -57 13 -60 7 -3 5 -6 -5 -6 -15 -1 -18 8 -18 59 0 53 -2 60 -20 60 -16 0 -20 -8 -23 -62 l-3 -63 -2 63 c-2 46 -6 62 -16 62 -11 0 -15 -17 -18 -65z"/>
<path d="M6240 5995 c0 -51 3 -65 15 -65 12 0 15 14 15 65 0 51 -3 65 -15 65 -12 0 -15 -14 -15 -65z"/>
<path d="M6310 5995 c0 -37 4 -65 10 -65 6 0 10 28 10 65 0 37 -4 65 -10 65 -6 0 -10 -28 -10 -65z"/>
<path d="M6280 5992 c0 -34 4 -62 8 -62 8 0 4 111 -4 119 -2 2 -4 -23 -4 -57z"/>
<path d="M2093 5985 c0 -33 2 -45 4 -27 2 18 2 45 0 60 -2 15 -4 0 -4 -33z"/>
<path d="M2110 5985 c0 -48 2 -55 20 -55 18 0 20 7 20 55 0 48 -2 55 -20 55 -18 0 -20 -7 -20 -55z m17 -32 c-3 -10 -5 -4 -5 12 0 17 2 24 5 18 2 -7 2 -21 0 -30z"/>
<path d="M2163 5985 c0 -33 2 -45 4 -27 2 18 2 45 0 60 -2 15 -4 0 -4 -33z"/>
<path d="M2182 5983 l1 -58 7 55 7 55 1 -52 c3 -70 22 -68 22 2 0 48 -2 55 -20 55 -18 0 -20 -6 -18 -57z"/>
<path d="M2233 5985 c0 -33 2 -45 4 -27 2 18 2 45 0 60 -2 15 -4 0 -4 -33z"/>
<path d="M2253 5985 c0 -33 2 -45 4 -27 2 18 2 45 0 60 -2 15 -4 0 -4 -33z"/>
<path d="M2270 5985 c0 -30 5 -55 10 -55 6 0 10 8 11 18 0 14 2 14 9 -3 6 -14 9 -4 9 38 1 51 -1 57 -19 57 -18 0 -20 -7 -20 -55z"/>
<path d="M2323 5985 c0 -33 2 -45 4 -27 2 18 2 45 0 60 -2 15 -4 0 -4 -33z"/>
<path d="M2340 5985 c0 -48 2 -55 20 -55 18 0 20 7 20 55 0 48 -2 55 -20 55 -18 0 -20 -7 -20 -55z"/>
<path d="M2393 5985 c0 -33 2 -45 4 -27 2 18 2 45 0 60 -2 15 -4 0 -4 -33z"/>
<path d="M2412 5980 l1 -55 7 50 7 50 1 -47 c3 -65 22 -61 24 5 l1 52 7 -55 7 -55 1 58 2 57 -30 -2 c-30 -2 -30 -3 -28 -58z"/>
<path d="M2482 5988 c-2 -52 0 -58 18 -58 18 0 20 7 20 55 0 70 -19 72 -22 3 l-1 -53 -7 55 -7 55 -1 -57z"/>
<path d="M2533 5985 c0 -33 2 -45 4 -27 2 18 2 45 0 60 -2 15 -4 0 -4 -33z"/>
<path d="M2553 5985 c0 -33 2 -45 4 -27 2 18 2 45 0 60 -2 15 -4 0 -4 -33z"/>
<path d="M2570 5985 c0 -30 5 -55 10 -55 6 0 10 25 10 55 0 30 -4 55 -10 55 -5 0 -10 -25 -10 -55z"/>
<path d="M2603 5985 c0 -33 2 -45 4 -27 2 18 2 45 0 60 -2 15 -4 0 -4 -33z"/>
<path d="M2623 5985 c0 -33 2 -45 4 -27 2 18 2 45 0 60 -2 15 -4 0 -4 -33z"/>
<path d="M2640 5985 c0 -30 5 -55 10 -55 6 0 10 8 11 18 0 14 2 14 9 -3 6 -14 9 -4 9 38 1 51 -1 57 -19 57 -18 0 -20 -7 -20 -55z"/>
<path d="M2693 5985 c0 -33 2 -45 4 -27 2 18 2 45 0 60 -2 15 -4 0 -4 -33z"/>
<path d="M2083 5900 c1 -20 8 -20 327 -18 179 1 300 4 270 8 l-55 7 53 1 c28 1 52 7 52 12 0 6 -115 10 -324 10 -319 0 -325 0 -323 -20z"/>
<path d="M6020 5898 c0 -16 13 -18 125 -18 112 0 125 2 125 18 0 15 -13 17 -125 17 -112 0 -125 -2 -125 -17z"/>
<path d="M6291 5894 c0 -11 3 -14 6 -6 3 7 2 16 -1 19 -3 4 -6 -2 -5 -13z"/>
<path d="M3358 5883 c46 -2 118 -2 160 0 42 1 5 3 -83 3 -88 0 -123 -2 -77 -3z"/>
<path d="M3698 5883 c45 -2 119 -2 165 0 45 1 8 3 -83 3 -91 0 -128 -2 -82 -3z"/>
<path d="M4048 5883 c45 -2 119 -2 165 0 45 1 8 3 -83 3 -91 0 -128 -2 -82 -3z"/>
<path d="M3270 5850 c0 -19 7 -20 160 -20 153 0 160 1 160 20 0 19 -7 20 -160 20 -153 0 -160 -1 -160 -20z"/>
<path d="M3627 5864 c-3 -3 -3 -12 0 -20 4 -11 36 -14 159 -14 147 0 154 1 154 20 0 19 -7 20 -153 20 -85 0 -156 -3 -160 -6z"/>
<path d="M3970 5850 c0 -19 6 -20 161 -20 147 0 160 1 157 18 -3 15 -20 17 -161 20 -152 2 -157 2 -157 -18z"/>
<path d="M4320 5850 c0 -19 7 -20 160 -20 153 0 160 1 160 20 0 19 -7 20 -160 20 -153 0 -160 -1 -160 -20z"/>
<path d="M4670 5850 c0 -19 7 -20 160 -20 153 0 160 1 160 20 0 19 -7 20 -160 20 -153 0 -160 -1 -160 -20z"/>
<path d="M5020 5850 c0 -19 7 -20 160 -20 153 0 160 1 160 20 0 19 -7 20 -160 20 -153 0 -160 -1 -160 -20z"/>
<path d="M5370 5850 c0 -19 7 -20 160 -20 153 0 160 1 160 20 0 19 -7 20 -160 20 -153 0 -160 -1 -160 -20z"/>
<path d="M5730 5850 c0 -19 7 -20 130 -20 123 0 130 1 130 20 0 19 -7 20 -130 20 -123 0 -130 -1 -130 -20z"/>
<path d="M6020 5850 c0 -19 7 -20 125 -20 118 0 125 1 125 20 0 19 -7 20 -125 20 -118 0 -125 -1 -125 -20z"/>
<path d="M6287 5863 c-12 -11 -8 -33 6 -33 7 0 13 9 13 20 0 20 -7 25 -19 13z"/>
<path d="M6580 5640 c-2 -129 -5 -207 -7 -172 l-4 62 -89 0 -90 0 0 -50 0 -49 83 -3 82 -3 3 -37 c3 -38 28 -59 38 -33 4 8 4 51 2 95 -3 76 -2 81 17 78 13 -2 22 -14 27 -41 14 -66 45 -117 73 -117 29 0 34 20 6 27 -19 5 -52 67 -66 126 -6 24 -5 27 19 27 17 0 26 -5 26 -16 0 -12 10 -14 52 -12 l52 3 -1 48 c0 26 -1 54 -2 62 -1 11 -14 15 -57 15 -34 0 -53 -4 -49 -10 10 -17 -24 -23 -55 -10 -27 11 -30 17 -30 57 0 40 5 49 42 84 l43 39 -48 0 c-44 0 -47 -2 -49 -27 -1 -16 -4 -1 -8 32 -4 38 -8 -25 -10 -175z"/>
<path d="M6390 5815 l0 -45 90 0 90 0 0 45 0 45 -90 0 -90 0 0 -45z"/>
<path d="M5838 5813 c-57 -4 -58 -5 -58 -33 0 -30 0 -30 60 -30 l60 0 0 35 c0 19 -1 34 -2 33 -2 -1 -29 -3 -60 -5z"/>
<path d="M720 5711 l0 -51 90 0 90 0 0 45 c0 43 -1 45 -29 45 -15 0 -56 3 -90 6 l-61 7 0 -52z"/>
<path d="M6390 5650 l0 -105 90 3 90 3 0 45 0 44 -85 0 c-50 0 -85 4 -85 10 0 6 35 10 85 10 l85 0 0 48 0 48 -90 0 -90 -1 0 -105z"/>
<path d="M3747 5724 c-4 -4 -7 -27 -7 -51 0 -35 3 -43 18 -43 16 0 19 8 18 47 -1 43 -13 63 -29 47z"/>
<path d="M5195 5680 c-4 -6 20 -10 64 -10 41 0 71 4 71 10 0 6 -28 10 -64 10 -36 0 -68 -4 -71 -10z"/>
<path d="M1133 5673 c15 -2 37 -2 50 0 12 2 0 4 -28 4 -27 0 -38 -2 -22 -4z"/>
<path d="M1220 5672 c0 -13 258 -35 315 -28 28 4 73 9 100 12 28 3 54 10 59 15 6 5 -87 9 -232 9 -133 0 -242 -4 -242 -8z m213 -9 c-7 -2 -19 -2 -25 0 -7 3 -2 5 12 5 14 0 19 -2 13 -5z m70 0 c-7 -2 -21 -2 -30 0 -10 3 -4 5 12 5 17 0 24 -2 18 -5z"/>
<path d="M5610 5670 c0 -5 13 -10 28 -10 16 0 50 -6 75 -14 25 -7 48 -11 51 -8 4 3 6 0 6 -7 0 -8 21 -11 73 -9 56 2 72 6 72 18 0 12 -16 16 -72 18 -40 2 -73 7 -73 12 0 6 -36 10 -80 10 -47 0 -80 -4 -80 -10z m273 -37 c-18 -2 -48 -2 -65 0 -18 2 -4 4 32 4 36 0 50 -2 33 -4z"/>
<path d="M5845 5670 c39 -3 77 -9 85 -13 8 -4 44 -1 80 7 l65 14 -150 0 c-116 -1 -134 -3 -80 -8z"/>
<path d="M6130 5670 l45 -7 -48 -1 c-48 -2 -48 -2 -45 -34 3 -32 5 -33 48 -33 l45 0 3 43 3 42 -48 -2 -48 -1 45 -7z"/>
<path d="M1709 5665 c-3 -2 -3 -20 -1 -40 4 -34 5 -35 48 -35 30 0 46 5 50 15 4 8 17 15 30 15 15 0 24 6 24 16 0 12 -7 15 -24 12 -15 -3 -27 0 -30 8 -5 13 -86 21 -97 9z"/>
<path d="M5487 5663 c-4 -3 -7 -19 -7 -35 0 -27 2 -28 50 -28 l50 0 0 35 c0 35 0 35 -43 35 -24 0 -47 -3 -50 -7z"/>
<path d="M1110 5625 l0 -35 50 0 50 0 0 35 0 35 -50 0 -50 0 0 -35z"/>
<path d="M1993 5653 c20 -2 54 -2 75 0 20 2 3 4 -38 4 -41 0 -58 -2 -37 -4z"/>
<path d="M2744 5647 c-2 -7 -3 -67 -2 -133 l3 -119 903 -3 902 -2 0 135 0 135 -379 0 c-370 0 -379 0 -384 -20 -3 -14 -14 -20 -31 -20 -19 0 -26 5 -26 20 0 20 -7 20 -490 20 -395 0 -492 -3 -496 -13z"/>
<path d="M5193 5640 c-2 -19 4 -20 75 -19 64 2 70 3 37 9 -27 5 -32 8 -15 9 14 1 32 6 40 11 10 7 -8 10 -60 10 -69 0 -76 -2 -77 -20z m44 -6 c-3 -3 -12 -4 -19 -1 -8 3 -5 6 6 6 11 1 17 -2 13 -5z"/>
<path d="M470 5584 l0 -64 55 0 c59 0 61 1 44 49 -9 26 -8 35 6 50 21 24 12 29 -52 29 l-53 0 0 -64z"/>
<path d="M1031 5636 c-9 -11 -9 -20 -2 -35 12 -22 15 -119 4 -107 -4 4 -6 24 -5 44 1 20 -2 44 -7 52 -14 21 -50 -62 -51 -116 0 -89 81 -174 167 -174 42 0 104 31 131 65 26 33 37 97 22 125 -14 26 -11 31 18 23 17 -4 22 -13 22 -40 0 -32 2 -34 28 -31 19 2 27 9 28 23 1 11 2 26 3 33 1 9 29 12 103 12 83 0 110 4 145 21 81 39 225 13 230 -41 3 -24 2 -24 -6 -3 -7 15 -16 20 -33 17 -21 -4 -21 -4 -3 5 17 7 14 10 -25 21 -64 17 -144 9 -174 -19 -14 -13 -29 -19 -39 -15 -14 5 -17 0 -17 -30 0 -83 60 -148 149 -164 24 -4 -294 -7 -706 -7 l-748 0 0 -25 0 -25 3263 -3 3263 -2 -3 27 -3 28 -2219 0 c-1348 0 -2206 4 -2187 9 18 5 50 25 72 45 36 32 41 42 46 94 4 38 2 57 -5 57 -6 0 -13 -17 -15 -37 l-4 -38 -1 36 c-1 21 -10 43 -22 54 -19 17 -19 17 -14 -26 7 -56 -20 -90 -69 -88 l-32 2 35 6 c48 8 69 45 49 86 -18 39 -55 51 -116 39 -48 -9 -48 -9 -51 -52 -3 -41 -2 -43 40 -62 38 -17 40 -20 17 -20 -16 0 -37 10 -50 25 -39 41 -62 30 -38 -18 10 -21 10 -21 -5 -3 -9 11 -16 26 -16 33 0 7 -4 13 -10 13 -14 0 -13 -15 4 -53 18 -44 54 -74 107 -92 l44 -15 -40 5 c-22 3 -152 5 -290 5 -233 0 -248 1 -220 16 45 23 83 63 90 94 5 23 10 26 33 22 19 -4 22 -7 10 -10 -21 -4 -22 -11 -4 -34 11 -15 30 -18 124 -18 95 0 111 2 106 15 -4 10 0 15 12 15 18 1 18 1 0 15 -11 8 -14 15 -7 15 8 0 11 11 9 32 -3 26 -8 32 -33 35 -20 3 -33 -1 -42 -13 -12 -16 -13 -16 -13 -1 0 20 -40 23 -58 5 -10 -10 -15 -10 -22 2 -5 8 -13 11 -17 6 -4 -5 -2 -11 5 -13 17 -6 15 -20 -3 -20 -9 0 -15 10 -15 24 0 24 0 24 118 23 99 -1 124 2 165 20 61 27 181 23 206 -7 9 -10 23 -18 31 -17 8 1 45 2 83 3 l67 1 0 49 0 49 -47 -3 c-48 -2 -76 7 -101 32 -19 18 -38 17 -22 -2 7 -9 8 -15 2 -15 -5 0 -12 7 -16 15 -8 22 -218 22 -236 0 -7 -8 -22 -15 -34 -15 -11 0 -66 -3 -122 -6 -97 -6 -101 -5 -107 15 -4 17 -13 21 -46 21 -23 0 -40 -3 -40 -7 4 -23 -3 -33 -22 -33 -11 0 -27 -7 -36 -15 -11 -11 -31 -15 -67 -13 -49 3 -51 4 -51 33 0 30 -1 30 -52 30 -29 0 -53 -4 -53 -10 0 -5 19 -9 43 -8 l42 2 -40 -9 c-70 -15 -253 -12 -279 5 -21 14 -24 14 -36 0 -8 -9 -29 -15 -56 -15 -33 0 -44 -4 -44 -15 0 -13 -11 -15 -57 -13 -53 3 -58 5 -62 28 -5 40 -46 55 -70 26z m897 -23 c-10 -2 -26 -2 -35 0 -10 3 -2 5 17 5 19 0 27 -2 18 -5z m-848 -27 c0 -8 3 -23 6 -33 5 -15 4 -15 -5 -3 -8 12 -11 5 -11 -29 0 -24 -3 -41 -7 -38 -10 10 -10 87 0 87 5 0 7 7 3 15 -3 8 -1 15 4 15 6 0 10 -6 10 -14z m1350 -3 c0 -5 -5 -15 -10 -23 -8 -12 -10 -11 -10 8 0 12 5 22 10 22 6 0 10 -3 10 -7z m-1184 -58 c13 -8 24 -23 24 -32 0 -14 -3 -13 -16 5 -9 14 -22 21 -31 18 -8 -3 -11 -2 -8 4 11 17 -62 23 -94 7 -33 -16 -43 -6 -13 13 22 14 108 5 138 -15z m-241 -92 c3 -12 17 -36 32 -55 23 -27 23 -30 4 -13 -35 31 -51 69 -49 122 1 46 2 46 5 8 2 -22 6 -50 8 -62z m753 70 c6 -15 12 -37 12 -50 0 -19 -5 -23 -30 -23 -27 0 -30 3 -30 30 0 28 18 70 30 70 3 0 11 -12 18 -27z m615 18 c14 -5 27 -21 31 -35 7 -28 -8 -66 -25 -66 -6 0 -3 7 5 16 9 8 16 20 16 25 0 17 -20 49 -30 49 -6 0 -5 -8 2 -19 16 -27 -7 -71 -37 -71 -32 0 -52 21 -58 62 -5 35 -4 37 26 41 18 2 35 5 39 5 4 1 18 -2 31 -7z m-1176 -33 c-3 -7 -5 -2 -5 12 0 14 2 19 5 13 2 -7 2 -19 0 -25z m491 25 c-32 -5 -44 -35 -29 -74 8 -23 15 -26 64 -27 43 -1 58 3 72 18 11 12 13 20 7 20 -7 0 -12 11 -12 25 0 13 -8 29 -17 35 -16 10 -16 10 2 8 13 -2 21 -12 23 -31 3 -25 7 -27 49 -27 43 0 45 1 39 25 -6 22 -3 25 21 24 17 -1 21 -3 11 -6 -11 -3 -18 -14 -17 -26 0 -21 1 -21 9 -2 5 11 9 17 9 13 1 -3 4 -13 7 -22 5 -13 -1 -16 -25 -16 -22 0 -31 -5 -31 -16 0 -38 -72 -104 -112 -104 -7 0 5 9 27 19 41 18 75 57 75 86 0 23 -26 18 -54 -10 -21 -21 -35 -25 -80 -25 -45 0 -58 4 -70 22 -17 23 -20 55 -10 82 4 10 17 15 38 15 30 -2 30 -2 4 -6z m-512 -30 c12 -55 16 -63 25 -58 5 4 9 2 9 -3 0 -15 -27 -22 -85 -22 -46 0 -57 4 -74 26 -12 15 -21 34 -21 43 1 9 7 1 15 -16 16 -38 45 -45 45 -10 0 17 -2 19 -10 7 -5 -8 -13 -11 -17 -6 -4 5 -2 11 5 13 6 3 12 11 12 19 0 8 4 14 8 14 5 0 8 -18 8 -40 l-1 -40 43 0 c28 0 41 4 37 11 -4 5 -12 8 -18 6 -15 -5 -47 11 -47 23 0 6 9 5 20 -2 17 -11 22 -10 30 2 17 25 7 45 -23 45 -15 -1 -27 3 -27 7 0 4 13 8 30 8 24 0 31 -5 36 -27z m524 -24 c0 -21 -5 -29 -17 -29 -14 0 -15 2 -4 9 9 6 11 18 7 36 -4 17 -3 24 4 20 5 -3 10 -19 10 -36z m-61 -85 c12 -13 37 -28 55 -33 20 -6 24 -9 11 -10 -24 -1 -70 28 -90 56 -7 10 -16 37 -19 59 l-6 39 13 -43 c6 -24 23 -54 36 -68z m471 48 c-8 -3 -8 -8 1 -18 10 -12 -2 -14 -72 -14 -76 1 -82 2 -65 15 11 8 14 15 8 15 -7 0 -12 4 -12 8 0 4 9 8 19 8 11 0 17 -4 15 -8 -3 -4 9 -8 25 -8 37 0 41 17 6 26 -14 3 -25 10 -25 15 0 5 12 4 26 -1 14 -6 30 -7 36 -4 7 4 8 2 4 -4 -5 -8 0 -12 13 -12 15 0 21 7 22 23 2 16 3 14 6 -8 3 -17 0 -31 -7 -33z m-900 37 c0 -6 9 -9 20 -6 11 3 20 1 20 -4 0 -15 -47 -10 -54 6 -3 8 -1 15 4 15 6 0 10 -5 10 -11z m62 -20 c-5 -33 -61 -99 -83 -99 -8 1 -2 7 12 15 33 18 59 57 59 90 0 14 4 25 8 25 5 0 7 -14 4 -31z m1184 -51 c-18 -26 -22 -17 -5 14 6 11 13 17 16 15 3 -3 -2 -16 -11 -29z m-45 -38 c-16 -14 -37 -20 -70 -19 l-46 2 52 6 c29 4 58 12 65 19 6 6 14 12 18 12 3 -1 -6 -10 -19 -20z m-126 -8 c-3 -3 -11 0 -18 7 -9 10 -8 11 6 5 10 -3 15 -9 12 -12z m-1116 -8 c9 -8 -75 -3 -88 5 -8 5 5 7 35 4 27 -3 51 -7 53 -9z"/>
<path d="M1733 5493 c-7 -3 -13 -16 -13 -29 0 -17 6 -24 20 -24 15 0 20 7 20 24 0 27 -8 36 -27 29z"/>
<path d="M2320 5507 c-29 -14 -37 -41 -20 -62 29 -35 85 -1 62 36 -7 11 -10 24 -7 29 8 13 -5 12 -35 -3z"/>
<path d="M1220 5635 c0 -10 10 -15 34 -15 18 0 39 7 46 15 11 13 6 15 -34 15 -34 0 -46 -4 -46 -15z"/>
<path d="M4790 5631 c-14 -10 -47 -21 -73 -25 -64 -8 -67 -10 -67 -57 l0 -39 70 0 c39 0 70 -4 70 -9 0 -5 -9 -7 -20 -4 -18 5 -20 0 -20 -34 0 -26 7 -48 20 -63 26 -30 32 -23 19 24 -6 21 -8 40 -6 42 2 3 9 -15 15 -39 27 -105 119 -154 216 -113 40 17 96 83 96 113 0 34 -14 28 -29 -12 -12 -34 -53 -75 -75 -75 -6 0 3 9 20 19 38 23 64 78 43 92 -14 8 -10 11 21 13 8 1 16 9 18 19 3 14 -1 18 -16 15 -11 -2 -29 5 -40 15 -25 23 -120 34 -150 18 -17 -9 -22 -22 -24 -54 -1 -37 -2 -38 -5 -9 -2 18 -9 30 -14 27 -14 -10 -11 -47 7 -66 24 -27 47 0 42 49 -3 32 0 37 19 38 20 2 21 0 7 -14 -11 -11 -14 -26 -11 -49 3 -18 2 -31 -3 -28 -5 3 -11 1 -15 -5 -4 -6 14 -10 49 -10 30 0 58 5 62 11 5 9 -2 10 -22 6 -16 -3 -23 -4 -16 -1 19 9 15 71 -5 83 -16 9 -16 10 -1 11 9 0 19 -6 21 -12 4 -10 7 -10 15 0 7 11 12 10 26 -3 20 -21 21 -32 1 -15 -9 7 -18 11 -21 8 -12 -13 -11 -48 2 -58 11 -10 16 -8 23 11 7 18 10 19 10 7 2 -37 -35 -58 -101 -58 -84 1 -114 21 -105 74 4 27 2 36 -8 36 -9 0 -15 -15 -18 -42 l-4 -43 -1 48 c-2 41 1 47 18 47 16 0 20 7 20 35 0 25 4 35 16 35 9 0 18 -9 21 -20 5 -17 14 -20 62 -20 37 0 70 -7 96 -20 33 -17 59 -20 157 -20 l118 0 0 -40 c0 -38 1 -40 31 -40 27 0 30 2 19 15 -9 10 -9 15 -1 15 6 0 11 9 11 20 0 34 -28 23 -33 -12 -4 -32 -4 -32 -5 5 -2 35 -1 37 31 37 17 1 57 9 87 20 72 25 145 25 195 0 28 -14 63 -21 121 -23 76 -2 99 -17 27 -17 -26 0 -33 -4 -33 -20 0 -15 7 -20 26 -20 14 0 32 -6 40 -14 7 -8 32 -17 54 -21 22 -4 40 -10 40 -15 0 -4 -21 -3 -47 4 -27 7 -54 11 -61 8 -7 -2 -11 2 -10 9 2 7 -5 15 -14 17 -36 8 -17 -26 24 -43 41 -16 178 -33 178 -22 0 3 -4 17 -10 31 -9 24 -15 26 -67 27 -32 0 -52 3 -45 6 21 8 14 32 -8 26 -11 -3 -20 0 -20 6 0 6 9 11 20 11 22 0 27 15 8 23 -8 3 -6 6 5 6 12 1 17 -7 17 -29 0 -33 19 -47 48 -34 9 4 20 6 25 6 4 -1 7 3 7 9 0 6 -7 8 -16 5 -12 -4 -15 0 -12 17 2 16 11 23 32 25 16 2 39 10 52 19 12 8 57 17 98 20 75 6 76 6 69 31 -4 17 -2 23 6 18 18 -11 15 -162 -4 -170 -8 -3 -15 -1 -15 4 0 5 -7 7 -15 4 -29 -11 -16 -27 18 -20 49 10 59 30 55 114 -2 40 -2 69 0 63 2 -6 9 -8 15 -4 7 4 8 0 4 -11 -4 -10 -7 -43 -7 -75 0 -45 -5 -62 -21 -80 -19 -21 -29 -23 -86 -19 -54 3 -68 8 -83 28 -11 15 -23 21 -34 17 -16 -6 -16 -9 1 -38 29 -49 52 -64 112 -70 l56 -6 -52 -2 c-42 -1 -57 4 -83 25 -17 15 -38 40 -46 56 -18 34 -29 31 -20 -6 17 -70 96 -114 180 -102 58 9 100 44 122 102 20 54 12 116 -26 197 -20 42 -26 47 -56 47 -31 0 -34 -3 -34 -29 0 -33 -14 -41 -71 -41 -26 0 -42 5 -45 15 -4 9 -19 15 -40 15 -18 0 -45 5 -59 12 -21 9 -31 9 -47 -1 -16 -10 -55 -11 -177 -5 -121 7 -142 10 -96 14 47 4 54 7 35 12 -14 4 -42 8 -64 8 -37 0 -38 -1 -34 -30 5 -33 -5 -40 -61 -40 -43 0 -61 14 -61 47 0 18 -6 23 -25 23 -16 0 -25 -6 -25 -16 0 -11 6 -15 20 -11 12 3 18 1 14 -5 -4 -7 -70 -9 -187 -6 -153 4 -182 7 -192 21 -19 26 -219 25 -243 -1 -10 -9 -14 -13 -9 -8 21 29 2 33 -33 7z m1510 -152 c0 -22 -5 -50 -11 -62 -15 -28 -60 -77 -72 -77 -5 0 5 11 21 25 38 32 55 74 50 124 -2 22 0 37 4 35 5 -3 8 -23 8 -45z m-1330 -14 c0 -13 -4 -26 -8 -29 -4 -2 -8 10 -8 29 0 19 4 31 8 29 4 -3 8 -16 8 -29z m-130 -70 c14 -19 14 -19 -2 -6 -10 7 -18 18 -18 24 0 6 1 8 3 6 1 -2 9 -13 17 -24z m38 -37 c7 -7 36 -15 65 -19 l52 -6 -45 -2 c-30 0 -55 6 -75 19 -16 11 -25 20 -19 20 5 0 16 -6 22 -12z"/>
<path d="M5350 5634 c0 -11 8 -14 27 -12 39 4 42 28 4 28 -21 0 -31 -5 -31 -16z"/>
<path d="M5980 5641 c0 -12 26 -21 61 -21 19 0 29 5 29 15 0 11 -12 15 -45 15 -25 0 -45 -4 -45 -9z"/>
<path d="M720 5595 l0 -45 90 0 90 0 0 45 0 45 -90 0 -90 0 0 -45z"/>
<path d="M1366 5628 c3 -4 51 -7 107 -7 119 2 111 6 -20 11 -50 2 -90 0 -87 -4z"/>
<path d="M1970 5628 c0 -5 30 -8 67 -8 36 0 63 3 59 8 -4 4 -34 7 -67 7 -32 0 -59 -3 -59 -7z"/>
<path d="M4610 5547 c0 -81 30 -145 80 -169 46 -23 120 -34 120 -19 0 6 -14 11 -30 11 -42 0 -90 22 -120 54 -21 24 -25 39 -29 107 -4 94 -21 107 -21 16z"/>
<path d="M4860 5550 c0 -16 4 -30 9 -30 5 0 9 14 9 30 -1 17 -5 30 -10 30 -4 0 -8 -13 -8 -30z"/>
<path d="M5515 5533 c-11 -2 -30 -6 -42 -9 -13 -2 -23 -12 -23 -22 0 -11 -3 -13 -8 -6 -10 16 -52 -1 -52 -21 0 -8 9 -15 20 -15 12 0 20 -7 20 -17 0 -10 10 -34 21 -53 15 -23 16 -30 5 -21 -8 7 -21 28 -28 47 -13 35 -36 41 -30 8 5 -29 28 -60 67 -90 100 -76 241 -11 253 119 5 47 4 50 -17 44 -11 -3 -21 -2 -21 2 0 11 -50 32 -60 26 -5 -3 -11 -1 -15 5 -6 10 -51 12 -90 3z m92 -24 c7 -6 12 -19 12 -28 -1 -14 -2 -14 -6 1 -6 24 -66 42 -93 28 -21 -11 -22 -15 -24 -63 -1 -18 4 -29 17 -33 27 -9 33 3 12 26 -31 34 10 80 43 47 13 -14 14 -21 4 -44 l-12 -28 20 24 c11 13 20 18 20 13 0 -6 -4 -14 -10 -17 -14 -9 -12 -25 3 -25 27 0 49 37 45 74 -2 19 0 32 4 30 14 -9 8 -77 -9 -96 -12 -13 -31 -18 -73 -18 -48 0 -61 4 -88 28 -18 16 -32 33 -32 37 0 5 12 -2 26 -16 l26 -24 -7 30 c-4 17 -9 37 -11 45 -3 8 -2 12 1 8 4 -3 18 0 33 8 28 15 76 12 99 -7z m79 -93 c-3 -14 -19 -37 -34 -51 -40 -37 -45 -30 -6 9 19 19 34 44 34 57 0 12 3 20 6 16 4 -3 4 -17 0 -31z m-181 -74 c-3 -3 -11 0 -18 7 -9 10 -8 11 6 5 10 -3 15 -9 12 -12z m78 -9 c-13 -2 -33 -2 -45 0 -13 2 -3 4 22 4 25 0 35 -2 23 -4z"/>
<path d="M5527 5477 c-3 -8 -2 -20 3 -27 11 -18 42 -4 38 17 -4 22 -34 29 -41 10z"/>
<path d="M720 5478 l0 -53 90 3 90 3 0 50 0 49 -90 0 -90 0 0 -52z"/>
<path d="M6053 5518 c-39 -19 -41 -58 -2 -58 14 0 19 7 19 29 0 16 6 32 13 34 6 3 8 5 2 6 -5 0 -20 -5 -32 -11z"/>
<path d="M6092 5510 c-6 -11 -12 -33 -12 -50 0 -24 6 -33 26 -40 37 -15 40 -12 16 10 -29 27 -28 56 3 76 23 15 27 15 51 -1 20 -13 24 -22 20 -41 -4 -14 -2 -24 4 -24 5 0 10 20 10 45 l0 45 -53 0 c-41 0 -55 -4 -65 -20z"/>
<path d="M2224 5495 c-5 -11 -10 -13 -19 -5 -13 11 -25 4 -25 -17 0 -8 12 -13 30 -13 25 0 30 4 30 25 0 28 -8 33 -16 10z"/>
<path d="M1307 5493 c-2 -5 -1 -19 4 -33 7 -23 7 -23 8 8 1 31 -3 40 -12 25z"/>
<path d="M1400 5488 c0 -5 5 -8 10 -8 6 0 10 -5 10 -11 0 -5 -4 -7 -10 -4 -5 3 -10 -1 -10 -11 0 -12 6 -15 23 -10 12 3 39 6 60 6 34 0 38 3 35 23 -3 20 -8 22 -60 22 -32 0 -58 -3 -58 -7z"/>
<path d="M2507 5448 c-2 -29 -3 -55 0 -58 3 -3 14 6 24 19 24 29 22 84 -2 89 -13 2 -17 -8 -22 -50z"/>
<path d="M5132 5483 c-18 -18 -15 -83 3 -83 9 0 12 -6 9 -15 -9 -23 208 -22 226 0 16 19 5 32 -30 37 -21 2 -26 9 -29 43 -3 36 -5 37 -11 15 -8 -24 -8 -24 -9 -2 -1 12 -6 22 -12 22 -5 0 -7 -6 -3 -12 6 -10 4 -10 -7 0 -20 19 -77 15 -82 -5 -4 -16 -5 -16 -6 -1 -1 19 -32 20 -49 1z m139 -32 c-8 -5 -20 -7 -28 -4 -21 8 -15 13 15 13 20 0 23 -3 13 -9z m-121 -26 c-7 -9 -15 -13 -19 -10 -3 3 1 10 9 15 21 14 24 12 10 -5z m109 -9 c12 -9 13 -8 8 7 -6 15 -3 17 15 11 12 -3 31 -15 42 -25 19 -19 18 -19 -70 -19 -50 0 -83 4 -76 8 7 5 10 15 7 24 -5 12 1 14 27 10 18 -2 39 -10 47 -16z"/>
<path d="M5960 5490 c0 -5 5 -10 10 -10 6 0 10 5 10 10 0 6 -4 10 -10 10 -5 0 -10 -4 -10 -10z"/>
<path d="M6000 5500 c-7 -23 -7 -41 0 -45 13 -8 18 8 9 30 -4 11 -8 18 -9 15z"/>
<path d="M6113 5484 c-8 -22 10 -49 32 -49 10 0 22 7 28 16 15 24 1 49 -28 49 -15 0 -28 -7 -32 -16z m47 -14 c0 -5 -4 -10 -10 -10 -5 0 -10 5 -10 10 0 6 5 10 10 10 6 0 10 -4 10 -10z"/>
<path d="M1370 5431 c-63 -6 -65 -7 -68 -35 l-4 -29 66 7 c75 8 116 20 116 37 0 10 -30 7 -82 -7 -10 -3 -18 -1 -18 5 0 6 12 11 28 11 15 0 34 5 42 10 13 9 13 10 0 8 -8 -1 -44 -4 -80 -7z"/>
<path d="M1480 5431 c0 -18 18 -21 30 -6 10 13 9 15 -9 15 -11 0 -21 -4 -21 -9z"/>
</g>
</svg>