<svg xmlns="http://www.w3.org/2000/svg" viewBox="468.00 177.10 473.80 212.90">
<g transform="translate(0.000000,768.000000) scale(0.100000,-0.100000)" fill="currentColor" stroke="none">
<path d="M6626 5828 c-24 -34 -22 -132 4 -158 25 -25 32 -25 60 -2 28 23 38 113 18 152 -18 34 -61 39 -82 8z m59 -73 c0 -60 -3 -70 -19 -73 -25 -5 -36 14 -36 66 0 52 15 84 38 80 14 -3 17 -16 17 -73z"/>
<path d="M6950 5755 l0 -95 45 0 c37 0 47 4 62 26 16 25 16 28 1 55 -10 16 -13 31 -7 34 13 9 11 49 -3 63 -7 7 -31 12 -55 12 l-43 0 0 -95z m86 60 c8 -20 -13 -45 -37 -45 -14 0 -19 7 -19 30 0 25 4 30 25 30 14 0 28 -7 31 -15z m-1 -100 c0 -25 -4 -30 -27 -33 -26 -3 -28 -1 -28 33 0 34 2 36 28 33 23 -3 27 -8 27 -33z"/>
<path d="M6820 5821 c0 -11 -6 -22 -12 -25 -10 -5 -10 -7 0 -12 7 -4 12 -27 12 -65 0 -56 1 -59 25 -59 14 0 25 5 25 10 0 6 -7 10 -15 10 -23 0 -21 88 3 106 16 13 16 13 0 14 -11 0 -18 8 -18 20 0 11 -4 20 -10 20 -5 0 -10 -9 -10 -19z"/>
<path d="M7112 5794 c-18 -12 -22 -25 -22 -64 0 -42 4 -52 25 -66 23 -15 27 -15 50 0 21 14 25 24 25 66 0 39 -4 52 -22 64 -12 9 -25 16 -28 16 -3 0 -16 -7 -28 -16z m46 -16 c17 -17 15 -83 -3 -98 -34 -28 -61 42 -35 91 12 22 21 24 38 7z"/>
<path d="M7351 5791 c-35 -35 -25 -120 14 -135 24 -9 55 12 55 37 l0 22 -19 -23 c-16 -22 -19 -23 -34 -7 -21 20 -22 65 -2 91 15 19 15 19 30 0 18 -23 34 -13 19 12 -16 25 -40 26 -63 3z"/>
<path d="M7468 5799 c-10 -5 -18 -17 -18 -24 0 -20 10 -19 25 2 7 9 17 13 23 9 18 -11 14 -36 -5 -43 -26 -9 -53 -34 -53 -49 0 -24 30 -45 49 -34 10 5 28 6 41 3 20 -5 21 -4 11 15 -6 11 -11 41 -11 66 0 35 -5 48 -19 56 -23 12 -22 12 -43 -1z m42 -93 c0 -23 -22 -41 -34 -29 -11 11 -6 41 7 46 23 10 27 7 27 -17z"/>
<path d="M7610 5800 c-7 -4 -19 -6 -27 -3 -10 4 -13 -11 -13 -66 0 -41 4 -71 10 -71 6 0 10 22 10 49 0 42 4 52 27 69 26 19 20 39 -7 22z"/>
<path d="M7229 5766 l21 -34 -21 -36 c-16 -28 -18 -36 -7 -36 8 0 20 12 27 27 l13 28 14 -28 c8 -15 21 -27 29 -27 11 0 10 8 -7 36 -20 35 -21 37 -4 66 22 36 11 51 -14 20 -19 -23 -19 -23 -32 -3 -7 12 -19 21 -26 21 -10 0 -8 -9 7 -34z"/>
<path d="M4735 5540 c3 -5 8 -10 11 -10 2 0 4 5 4 10 0 6 -5 10 -11 10 -5 0 -7 -4 -4 -10z"/>
<path d="M9340 5539 c0 -5 5 -7 10 -4 6 3 10 8 10 11 0 2 -4 4 -10 4 -5 0 -10 -5 -10 -11z"/>
<path d="M5144 5152 c-7 -4 -13 -52 -16 -126 -2 -83 -7 -121 -16 -124 -6 -2 -12 -8 -12 -13 0 -6 5 -7 10 -4 6 4 9 -15 9 -52 -2 -56 -2 -56 -9 -18 -5 29 -8 33 -9 14 0 -15 -8 -40 -16 -55 l-15 -29 0 43 c0 26 -4 41 -10 37 -5 -3 -10 -33 -10 -66 0 -33 4 -59 10 -59 6 0 10 8 10 18 0 10 7 19 15 19 12 0 15 -17 15 -94 0 -85 -2 -93 -19 -93 -11 0 -21 -5 -23 -11 -3 -8 -10 -6 -20 5 -11 10 -33 16 -63 16 l-46 0 3 -42 3 -43 47 -3 c39 -3 49 1 62 20 9 12 16 17 16 11 0 -6 -7 -16 -14 -23 -8 -6 -20 -27 -26 -46 -13 -37 -53 -74 -81 -74 -11 0 -19 -4 -19 -10 0 -32 94 17 104 54 3 12 14 34 25 47 16 21 26 24 65 21 41 -4 46 -7 46 -28 0 -23 3 -24 60 -24 l60 0 0 30 c0 20 5 30 15 30 11 0 13 -10 8 -48 -6 -52 14 -108 43 -119 7 -3 14 -10 14 -15 0 -6 -41 -9 -107 -8 -60 2 -168 2 -240 1 l-133 -1 0 -25 0 -25 2181 0 c1985 0 2181 1 2175 16 -3 9 -6 20 -6 25 0 5 -104 9 -247 9 l-248 0 32 25 c40 32 59 84 44 126 -8 24 -8 34 3 45 22 21 25 17 19 -26 l-6 -40 62 0 c58 0 61 1 61 25 0 25 13 31 63 26 11 -2 17 5 18 21 1 20 2 21 6 3 3 -11 11 -27 18 -35 7 -8 20 -32 28 -52 9 -22 28 -43 46 -52 34 -18 61 -21 61 -6 0 6 -8 10 -19 10 -26 0 -71 38 -71 59 0 10 -9 30 -20 44 -11 14 -20 31 -19 39 0 7 4 3 10 -10 8 -20 15 -23 56 -20 l48 3 0 40 0 40 -52 3 c-32 2 -53 -1 -53 -7 0 -17 -30 -13 -48 6 -16 16 -17 14 -20 -25 l-3 -42 -41 0 c-42 0 -46 11 -5 16 12 1 25 3 30 3 4 1 7 53 7 117 0 74 4 113 10 109 6 -3 10 1 10 9 0 9 -4 16 -9 16 -5 0 -11 27 -13 60 -2 43 1 60 10 60 6 0 12 5 12 10 0 6 -7 10 -15 10 -13 0 -15 20 -15 124 l0 124 -26 6 c-15 4 -28 5 -30 3 -2 -2 -4 -128 -4 -280 l-1 -277 -75 0 c-70 0 -74 -1 -75 -22 0 -22 -1 -22 -9 -3 -5 11 -9 147 -9 303 -1 277 -1 282 -21 282 -20 0 -21 -4 -20 -291 1 -207 -2 -295 -10 -303 -8 -8 -10 -7 -5 7 5 12 2 17 -11 17 -11 1 -112 0 -226 0 l-208 -1 0 286 c0 278 0 285 -20 285 -19 0 -20 -7 -21 -267 -1 -148 -3 -260 -6 -250 -4 15 -23 17 -219 17 l-214 0 0 -25 0 -26 220 3 c169 2 221 0 225 -9 3 -10 -46 -13 -228 -14 -128 0 -226 -3 -219 -6 6 -2 12 -9 12 -14 0 -4 -6 -6 -12 -4 -10 4 -12 71 -10 300 3 292 3 295 -17 295 -21 0 -21 -4 -21 -294 0 -184 -4 -297 -10 -301 -6 -3 -7 1 -4 9 5 14 -16 16 -184 16 -173 0 -191 -2 -195 -17 -3 -10 -5 -5 -6 12 l-1 30 195 -3 195 -3 0 26 0 25 -189 0 c-172 0 -190 -2 -194 -17 -3 -10 -5 102 -6 250 -1 259 -2 267 -21 267 -19 0 -19 -9 -22 -286 -2 -157 1 -289 5 -293 5 -5 1 -11 -7 -14 -10 -4 -16 -1 -16 8 0 13 -32 15 -210 15 -195 0 -209 -1 -203 -17 6 -15 4 -16 -9 -5 -9 7 -14 20 -11 30 4 15 23 17 224 14 l219 -3 0 26 0 25 -214 0 c-196 0 -215 -2 -219 -17 -3 -10 -5 102 -6 250 -1 261 -1 267 -21 267 -20 0 -21 -4 -18 -289 3 -241 1 -291 -11 -302 -13 -11 -14 -11 -8 4 6 16 -9 17 -191 17 -125 0 -192 -4 -182 -10 8 -5 12 -11 9 -14 -2 -3 -9 -2 -15 2 -7 5 -8 39 -4 97 4 50 8 82 8 73 2 -16 18 -18 192 -18 182 0 190 1 190 20 0 17 -8 20 -77 23 l-78 3 78 2 77 2 0 50 0 50 -191 0 -191 0 4 -55 c1 -30 0 -55 -4 -55 -5 0 -8 90 -8 200 0 195 -1 200 -20 200 -21 0 -21 -4 -18 -294 2 -162 1 -290 -2 -285 -8 13 -446 12 -443 -1 4 -16 -14 -12 -21 5 -3 8 -1 15 4 15 6 0 10 70 11 178 0 97 3 171 6 165 3 -10 57 -13 219 -13 207 0 214 1 214 20 0 19 -7 20 -220 20 -121 0 -220 3 -220 8 0 4 99 6 219 4 l219 -3 0 76 0 75 -219 0 c-188 0 -219 2 -219 15 0 8 -9 15 -20 15 -20 0 -20 -7 -20 -285 l0 -285 -245 2 c-135 2 -240 5 -235 6 6 2 10 109 10 283 0 274 0 279 -20 279 -20 0 -21 -4 -20 -282 1 -343 2 -317 -11 -295 -8 14 -26 17 -116 17 l-105 0 4 -55 c3 -30 1 -52 -4 -49 -4 3 -7 65 -6 137 1 89 3 107 5 55 4 -75 5 -78 28 -78 l25 0 2 168 2 167 6 -170 c5 -160 6 -153 8 108 2 258 1 277 -15 277 -10 0 -23 -4 -29 -8z m3793 -304 c-1 -57 -3 -11 -3 102 0 113 2 159 3 103 2 -57 2 -149 0 -205z m-2379 -85 c-27 -2 -69 -2 -95 0 -27 2 -5 3 47 3 52 0 74 -1 48 -3z m2405 -156 c18 -4 17 -5 -5 -6 -27 -1 -28 1 -26 47 l1 47 4 -42 c3 -33 8 -43 26 -46z m-3550 -78 c-6 -6 -19 -9 -29 -6 -16 4 -15 5 4 6 12 0 22 6 22 13 0 6 3 8 7 5 4 -4 2 -12 -4 -18z m457 1 c10 0 20 5 22 12 3 7 7 6 11 -5 5 -14 0 -17 -28 -17 -27 0 -35 4 -34 18 0 10 3 12 6 5 2 -7 13 -13 23 -13z m1404 5 c3 -8 1 -15 -4 -15 -6 0 -10 7 -10 15 0 8 2 15 4 15 2 0 6 -7 10 -15z m506 0 c0 -8 -7 -15 -15 -15 -13 0 -14 3 -3 15 16 18 18 18 18 0z m485 -4 c-7 -13 -61 -15 -69 -3 -2 4 11 6 30 4 23 -3 34 0 34 9 0 7 3 10 6 6 3 -3 3 -10 -1 -16z m-2910 -1 c3 -5 1 -10 -4 -10 -6 0 -11 5 -11 10 0 6 2 10 4 10 3 0 8 -4 11 -10z m1052 -4 c4 -3 -12 -6 -35 -6 -23 0 -42 3 -42 8 0 9 68 7 77 -2z m403 -2 c0 -2 -9 -4 -20 -4 -11 0 -20 4 -20 9 0 5 9 7 20 4 11 -3 20 -7 20 -9z m40 6 c0 -5 -8 -10 -17 -10 -15 0 -16 2 -3 10 19 12 20 12 20 0z m460 0 c0 -5 -5 -10 -11 -10 -5 0 -7 5 -4 10 3 6 8 10 11 10 2 0 4 -4 4 -10z m30 0 c0 -5 -5 -10 -11 -10 -5 0 -7 5 -4 10 3 6 8 10 11 10 2 0 4 -4 4 -10z m1375 -8 c-3 -3 -11 0 -18 7 -9 10 -8 11 6 5 10 -3 15 -9 12 -12z m55 8 c0 -5 -10 -10 -22 -9 -22 0 -22 1 -3 9 11 5 21 9 23 9 1 1 2 -3 2 -9z m-3485 -30 c3 -5 1 -10 -4 -10 -6 0 -11 5 -11 10 0 6 2 10 4 10 3 0 8 -4 11 -10z m353 -7 c-27 -2 -69 -2 -95 0 -27 2 -5 3 47 3 52 0 74 -1 48 -3z m219 1 c-3 -3 -12 -4 -19 -1 -8 3 -5 6 6 6 11 1 17 -2 13 -5z m50 0 c-3 -3 -12 -4 -19 -1 -8 3 -5 6 6 6 11 1 17 -2 13 -5z m33 -4 c0 -5 -2 -10 -4 -10 -3 0 -8 5 -11 10 -3 6 -1 10 4 10 6 0 11 -4 11 -10z m967 -67 c-2 -16 -4 -3 -4 27 0 30 2 43 4 28 2 -16 2 -40 0 -55z m249 24 c9 -3 8 -4 -3 -3 -12 1 -18 10 -19 26 -1 21 0 21 3 3 2 -12 11 -24 19 -26z m31 47 c-3 -3 -12 -4 -19 -1 -8 3 -5 6 6 6 11 1 17 -2 13 -5z m93 -34 l0 -40 70 0 70 0 0 34 c0 24 -5 36 -17 39 -10 3 0 5 22 6 39 1 40 0 40 -34 0 -19 -3 -35 -7 -35 -5 0 -8 14 -8 30 0 17 -4 30 -10 30 -5 0 -10 -18 -10 -40 l0 -40 -79 0 -79 0 -4 45 c-2 25 0 45 4 45 5 0 8 -18 8 -40z m93 33 c-7 -2 -21 -2 -30 0 -10 3 -4 5 12 5 17 0 24 -2 18 -5z m140 0 c-7 -2 -19 -2 -25 0 -7 3 -2 5 12 5 14 0 19 -2 13 -5z m77 -28 c0 -19 -4 -35 -8 -35 -4 0 -6 16 -4 35 2 19 6 35 8 35 2 0 4 -16 4 -35z m687 29 c-3 -3 -12 -4 -19 -1 -8 3 -5 6 6 6 11 1 17 -2 13 -5z m275 -1 c-40 -2 -103 -2 -140 0 -37 2 -4 3 73 3 77 0 107 -2 67 -3z m-2613 -47 c-3 -3 -11 5 -18 17 -13 21 -12 21 5 5 10 -10 16 -20 13 -22z m2271 30 c0 -2 -8 -10 -17 -17 -16 -13 -17 -12 -4 4 13 16 21 21 21 13z m-2942 -23 c-3 -14 -13 -18 -48 -18 -35 0 -45 4 -48 18 -3 14 4 17 48 17 44 0 51 -3 48 -17z m937 -39 l190 -44 680 2 680 3 203 48 c112 27 206 47 208 44 3 -2 0 -16 -5 -30 -13 -35 3 -91 34 -115 14 -11 25 -23 25 -26 0 -3 -527 -6 -1170 -6 l-1171 0 42 40 c41 39 42 41 36 91 l-6 50 32 -6 c18 -4 118 -27 222 -51z m2733 39 c-3 -14 -13 -18 -48 -18 -35 0 -45 4 -48 18 -3 14 4 17 48 17 44 0 51 -3 48 -17z m-3388 -8 c0 -2 -9 -3 -19 -2 -11 0 -18 5 -15 9 4 6 34 0 34 -7z m63 8 c-7 -2 -21 -2 -30 0 -10 3 -4 5 12 5 17 0 24 -2 18 -5z m44 1 c-3 -3 -12 -4 -19 -1 -8 3 -5 6 6 6 11 1 17 -2 13 -5z m93 -4 c0 -5 -5 -10 -11 -10 -5 0 -7 5 -4 10 3 6 8 10 11 10 2 0 4 -4 4 -10z m2640 -30 c8 13 10 13 10 -2 0 -10 -5 -18 -12 -18 -14 0 -48 30 -48 43 0 5 9 -1 20 -14 17 -21 21 -22 30 -9z m-833 14 c-3 -3 -12 -4 -19 -1 -8 3 -5 6 6 6 11 1 17 -2 13 -5z m644 -92 c8 -10 4 -7 -8 6 -16 16 -23 34 -22 60 l2 37 6 -42 c4 -23 14 -51 22 -61z m-2342 74 c7 -8 8 -17 3 -20 -6 -3 -12 3 -15 14 -6 24 -4 25 12 6z m1072 -9 c-10 -9 -11 -8 -5 6 3 10 9 15 12 12 3 -3 0 -11 -7 -18z m1664 1 c6 -4 2 -8 -7 -8 -10 0 -18 7 -18 17 0 9 3 12 8 7 4 -5 12 -12 17 -16z m110 12 c3 -5 1 -10 -4 -10 -6 0 -11 5 -11 10 0 6 2 10 4 10 3 0 8 -4 11 -10z m-2875 -15 c0 -8 -2 -15 -4 -15 -2 0 -6 7 -10 15 -3 8 -1 15 4 15 6 0 10 -7 10 -15z m2630 11 c0 -2 -7 -6 -15 -10 -8 -3 -15 -1 -15 4 0 6 7 10 15 10 8 0 15 -2 15 -4z m-3143 -28 c-3 -8 -6 -5 -6 6 -1 11 2 17 5 13 3 -3 4 -12 1 -19z m420 16 c-3 -3 -12 -4 -19 -1 -8 3 -5 6 6 6 11 1 17 -2 13 -5z m-307 -8 c0 -3 -4 -8 -10 -11 -5 -3 -10 -1 -10 4 0 6 5 11 10 11 6 0 10 -2 10 -4z m3280 0 c0 -3 -4 -8 -10 -11 -5 -3 -10 -1 -10 4 0 6 5 11 10 11 6 0 10 -2 10 -4z m-276 -21 c3 -8 1 -15 -4 -15 -6 0 -10 7 -10 15 0 8 2 15 4 15 2 0 6 -7 10 -15z m366 6 c0 -6 -11 -23 -25 -38 l-26 -28 23 37 c25 40 28 43 28 29z m-3205 -19 c-3 -3 -11 0 -18 7 -9 10 -8 11 6 5 10 -3 15 -9 12 -12z m-232 -41 c-4 -6 -43 30 -43 40 0 5 10 -2 23 -14 13 -12 22 -24 20 -26z m314 43 c-3 -3 -12 -4 -19 -1 -8 3 -5 6 6 6 11 1 17 -2 13 -5z m263 3 c0 -2 -12 -14 -27 -28 l-28 -24 24 28 c23 25 31 32 31 24z m-135 -66 c15 -8 -24 -10 -156 -11 -97 0 -178 3 -181 6 -3 3 5 16 19 30 19 19 28 22 43 14 29 -16 173 -13 196 4 17 13 21 12 39 -9 11 -12 29 -28 40 -34z m2535 45 c0 -2 -8 -10 -17 -17 -16 -13 -17 -12 -4 4 13 16 21 21 21 13z m145 -16 c42 0 85 4 95 10 14 8 25 3 50 -20 l32 -30 -193 0 c-172 1 -191 2 -164 14 17 8 39 21 50 29 13 10 25 12 37 6 9 -5 51 -9 93 -9z"/>
<path d="M5590 5111 c0 -11 8 -22 18 -24 11 -3 8 -5 -9 -6 -42 -2 -51 -51 -10 -51 14 0 17 -6 13 -25 l-4 -25 125 0 125 0 0 75 0 75 -129 0 c-121 0 -129 -1 -129 -19z"/>
<path d="M6400 5055 l0 -75 189 0 189 0 0 75 0 75 -189 0 -189 0 0 -75z"/>
<path d="M6840 5055 l0 -75 214 0 214 0 -1 75 0 75 -213 0 -214 0 0 -75z"/>
<path d="M7330 5055 l0 -75 190 0 190 0 -1 75 -1 75 -189 0 -189 0 0 -75z"/>
<path d="M7770 5055 l0 -75 215 0 215 0 0 75 0 75 -215 0 -215 0 0 -75z"/>
<path d="M8260 5055 l0 -75 145 0 145 0 0 25 c0 20 -5 25 -25 25 -18 0 -25 5 -25 20 0 11 -7 23 -15 26 -8 4 -15 17 -15 30 0 24 -1 24 -105 24 l-105 0 0 -75z"/>
<path d="M5600 4950 c0 -19 7 -20 125 -20 118 0 125 1 125 20 0 19 -7 20 -125 20 -118 0 -125 -1 -125 -20z"/>
<path d="M6400 4950 c0 -19 7 -20 190 -20 183 0 190 1 190 20 0 19 -7 20 -190 20 -183 0 -190 -1 -190 -20z"/>
<path d="M6840 4950 c0 -19 7 -20 215 -20 208 0 215 1 215 20 0 19 -7 20 -215 20 -208 0 -215 -1 -215 -20z"/>
<path d="M7330 4950 c0 -19 7 -20 190 -20 183 0 190 1 190 20 0 19 -7 20 -190 20 -183 0 -190 -1 -190 -20z"/>
<path d="M7770 4950 c0 -19 7 -20 215 -20 208 0 215 1 215 20 0 19 -7 20 -215 20 -208 0 -215 -1 -215 -20z"/>
<path d="M8260 4950 c0 -19 7 -20 130 -20 123 0 130 1 130 20 0 19 -7 20 -130 20 -123 0 -130 -1 -130 -20z"/>
<path d="M5566 4870 c6 -42 4 -50 -10 -50 -10 0 -16 -9 -16 -25 0 -14 6 -25 14 -25 9 0 12 -8 8 -25 -2 -14 0 -25 5 -25 6 0 8 -11 5 -25 l-4 -25 141 0 c134 0 141 1 141 20 0 18 -8 20 -132 23 l-133 3 133 2 c124 2 132 3 132 22 0 18 -8 20 -137 23 l-138 3 136 2 137 2 0 50 0 49 -137 4 -136 3 138 2 c130 2 137 3 137 22 0 19 -7 20 -145 20 l-146 0 7 -50z"/>
<path d="M5910 4900 c0 -19 7 -20 215 -20 208 0 215 1 215 20 0 19 -7 20 -215 20 -208 0 -215 -1 -215 -20z"/>
<path d="M6400 4900 c0 -19 7 -20 190 -20 183 0 190 1 190 20 0 19 -7 20 -190 20 -183 0 -190 -1 -190 -20z"/>
<path d="M6840 4900 c0 -19 7 -20 215 -20 208 0 215 1 215 20 0 19 -7 20 -215 20 -208 0 -215 -1 -215 -20z"/>
<path d="M7330 4900 c0 -19 7 -20 190 -20 183 0 190 1 190 20 0 19 -7 20 -190 20 -183 0 -190 -1 -190 -20z"/>
<path d="M7770 4900 c0 -19 7 -20 215 -20 208 0 215 1 215 20 0 19 -7 20 -215 20 -208 0 -215 -1 -215 -20z"/>
<path d="M8260 4901 c0 -19 9 -20 131 -23 72 -2 133 1 136 5 3 4 2 14 -1 22 -4 12 -31 15 -136 15 -122 0 -130 -1 -130 -19z"/>
<path d="M5910 4820 l0 -50 188 -3 187 -2 -187 -3 c-181 -2 -188 -3 -188 -22 0 -19 7 -20 215 -20 208 0 215 1 215 20 0 11 -6 20 -12 20 -10 0 -10 2 -1 8 6 4 11 28 11 55 l0 47 -214 0 -214 0 0 -50z"/>
<path d="M6840 4820 l0 -50 214 0 215 0 -1 50 0 50 -214 0 -214 0 0 -50z"/>
<path d="M7330 4820 l0 -50 190 0 190 0 0 50 0 50 -190 0 -190 0 0 -50z"/>
<path d="M7770 4821 c0 -30 5 -51 13 -54 10 -4 10 -6 0 -6 -7 -1 -13 -10 -13 -21 0 -19 7 -20 215 -20 208 0 215 1 215 20 0 19 -8 20 -202 23 l-203 2 203 3 202 2 0 50 0 50 -215 0 -215 0 0 -49z"/>
<path d="M8261 4795 l1 -75 124 0 c117 0 124 1 124 20 0 18 -8 20 -102 23 l-103 3 123 2 c116 2 122 3 122 23 0 13 -8 23 -20 26 -14 4 -20 12 -18 27 3 20 -1 21 -125 24 l-127 3 1 -76z"/>
<path d="M6840 4740 c0 -19 7 -20 215 -20 208 0 215 1 215 20 0 19 -7 20 -215 20 -208 0 -215 -1 -215 -20z"/>
<path d="M7330 4740 c0 -19 7 -20 190 -20 183 0 190 1 190 20 0 19 -7 20 -190 20 -183 0 -190 -1 -190 -20z"/>
<path d="M9003 4680 c0 -25 2 -35 4 -22 2 12 2 32 0 45 -2 12 -4 2 -4 -23z"/>
<path d="M5910 4690 c0 -19 7 -20 215 -20 208 0 215 1 215 20 0 19 -7 20 -215 20 -208 0 -215 -1 -215 -20z"/>
<path d="M6400 4690 c0 -19 7 -20 190 -20 183 0 190 1 190 20 0 19 -7 20 -190 20 -183 0 -190 -1 -190 -20z"/>
<path d="M6840 4690 c0 -19 7 -20 215 -20 208 0 215 1 215 20 0 19 -7 20 -215 20 -208 0 -215 -1 -215 -20z"/>
<path d="M7330 4690 c0 -19 7 -20 190 -20 183 0 190 1 190 20 0 19 -7 20 -190 20 -183 0 -190 -1 -190 -20z"/>
<path d="M7770 4690 c0 -19 7 -20 215 -20 208 0 215 1 215 20 0 19 -7 20 -215 20 -208 0 -215 -1 -215 -20z"/>
<path d="M8260 4690 c0 -19 7 -20 135 -20 74 0 138 0 143 0 4 -1 8 8 10 20 3 19 -1 20 -142 20 -139 0 -146 -1 -146 -20z"/>
<path d="M5600 4635 l0 -25 125 0 125 0 0 25 0 25 -125 0 -125 0 0 -25z"/>
<path d="M5910 4635 l0 -25 215 0 215 0 0 25 0 25 -215 0 -215 0 0 -25z"/>
<path d="M6400 4635 l0 -25 190 0 190 0 0 25 0 25 -190 0 -190 0 0 -25z"/>
<path d="M8260 4635 l0 -26 133 3 c128 3 132 4 135 26 3 22 3 22 -132 22 l-136 0 0 -25z"/>
<path d="M5932 4144 c-14 -10 -22 -25 -22 -45 0 -26 6 -32 45 -49 48 -21 60 -50 28 -69 -22 -12 -53 3 -53 25 0 9 -5 14 -11 12 -6 -2 -10 -7 -10 -11 1 -4 1 -13 1 -21 0 -7 13 -19 30 -26 25 -10 34 -10 56 4 20 14 25 24 22 49 -2 26 -11 36 -43 53 -46 23 -56 48 -26 64 17 9 24 7 38 -10 19 -22 33 -26 33 -10 0 14 -38 50 -53 50 -7 0 -23 -7 -35 -16z"/>
<path d="M6240 4055 c0 -78 3 -95 15 -95 10 0 15 10 15 30 0 17 4 30 9 30 5 0 14 -13 21 -30 7 -16 19 -30 27 -30 12 0 11 7 -6 36 -25 42 -26 52 -4 76 9 10 13 21 9 25 -4 5 -20 -7 -35 -26 l-28 -34 5 57 c4 47 2 56 -12 56 -14 0 -16 -14 -16 -95z"/>
<path d="M6540 4055 c0 -95 16 -133 22 -52 3 39 5 42 36 45 43 4 41 22 -3 22 -32 0 -35 2 -35 30 0 28 3 30 34 30 19 0 38 5 41 10 4 6 -13 10 -44 10 l-51 0 0 -95z"/>
<path d="M6654 4108 c1 -24 3 -67 4 -95 3 -94 22 -58 22 42 0 75 -3 95 -14 95 -10 0 -13 -12 -12 -42z"/>
<path d="M6840 4133 c0 -11 -6 -25 -12 -31 -10 -10 -10 -15 1 -21 9 -6 11 -21 7 -50 -3 -22 -3 -48 0 -56 7 -17 44 -21 44 -5 0 6 -4 10 -10 10 -15 0 -12 97 3 104 10 5 10 7 0 12 -7 3 -13 14 -13 24 0 10 -4 22 -10 25 -5 3 -10 -2 -10 -12z"/>
<path d="M7307 4123 c-32 -63 -28 -144 8 -199 23 -35 28 -25 10 19 -19 46 -19 127 -1 172 18 41 3 47 -17 8z"/>
<path d="M7370 4055 l0 -95 50 0 c28 0 50 5 50 10 0 6 -18 10 -40 10 l-40 0 0 85 c0 50 -4 85 -10 85 -6 0 -10 -38 -10 -95z"/>
<path d="M7820 4057 l0 -94 40 -1 c46 -2 60 15 60 72 0 44 -31 80 -61 71 -15 -5 -19 -2 -19 19 0 14 -4 26 -10 26 -6 0 -10 -38 -10 -93z m76 -2 c10 -42 -3 -77 -29 -73 -17 2 -23 11 -25 36 -4 45 3 62 27 62 14 0 23 -9 27 -25z"/>
<path d="M8157 4128 c4 -13 8 -57 8 -98 0 -41 -4 -85 -8 -97 -12 -32 7 -29 22 3 23 50 25 110 5 163 -10 28 -22 51 -27 51 -4 0 -5 -10 0 -22z"/>
<path d="M6060 4125 c0 -7 -8 -18 -17 -24 -16 -8 -16 -10 -3 -16 12 -4 16 -19 15 -53 -1 -26 1 -53 3 -59 5 -15 42 -18 42 -3 0 6 -4 10 -10 10 -15 0 -12 97 3 104 10 5 10 7 0 12 -7 3 -13 14 -13 25 0 10 -4 19 -10 19 -5 0 -10 -7 -10 -15z"/>
<path d="M6138 4099 c-10 -5 -18 -17 -18 -24 0 -20 10 -19 26 3 12 16 14 16 31 -2 10 -10 14 -20 8 -22 -44 -18 -60 -32 -63 -56 -4 -30 25 -52 47 -39 7 5 21 7 30 4 14 -3 16 5 13 59 -4 79 -28 104 -74 77z m42 -93 c0 -27 -28 -43 -36 -21 -6 16 12 45 27 45 5 0 9 -11 9 -24z"/>
<path d="M6376 4097 c-11 -8 -20 -31 -23 -59 -4 -37 -2 -49 16 -67 26 -26 33 -26 62 -2 18 15 21 22 12 31 -8 9 -14 7 -22 -9 -14 -26 -41 -17 -41 14 0 20 5 23 33 22 26 -2 33 2 35 20 3 20 -28 63 -46 63 -5 0 -16 -6 -26 -13z m44 -37 c0 -13 -7 -20 -20 -20 -19 0 -27 20 -13 33 13 14 33 6 33 -13z"/>
<path d="M6726 4094 c-31 -31 -16 -46 16 -17 16 15 21 15 28 3 11 -18 4 -29 -25 -40 -36 -14 -47 -42 -28 -69 10 -15 20 -20 32 -15 9 4 25 6 36 6 19 -1 20 3 15 64 -7 80 -36 107 -74 68z m49 -74 c7 -12 -12 -50 -26 -50 -16 0 -22 29 -9 45 14 17 26 19 35 5z"/>
<path d="M6922 4094 c-18 -12 -22 -25 -22 -64 0 -41 4 -52 24 -65 19 -13 29 -14 45 -5 21 11 30 50 11 50 -5 0 -10 -6 -10 -14 0 -19 -25 -27 -39 -13 -16 16 -14 82 3 96 11 9 17 8 29 -4 19 -19 27 -19 27 0 0 8 -9 19 -19 25 -25 13 -22 13 -49 -6z"/>
<path d="M7029 4091 c-13 -11 -21 -23 -17 -27 5 -4 17 1 27 10 11 10 25 15 30 11 21 -12 11 -36 -19 -47 -38 -13 -52 -55 -25 -74 10 -7 23 -10 29 -7 6 4 24 6 41 5 23 -2 27 0 17 10 -6 6 -12 36 -12 65 0 41 -4 54 -19 63 -25 13 -25 13 -52 -9z m51 -80 c0 -22 -25 -45 -40 -36 -14 9 -13 21 6 39 21 21 34 20 34 -3z"/>
<path d="M7496 4103 c-3 -3 -6 -32 -6 -64 0 -64 19 -96 47 -80 9 4 24 6 34 4 17 -5 19 1 19 66 0 56 -3 71 -15 71 -12 0 -15 -13 -15 -59 0 -41 -4 -60 -14 -64 -22 -9 -26 2 -26 64 0 54 -9 77 -24 62z"/>
<path d="M7661 4101 c-8 -5 -20 -7 -28 -4 -10 4 -13 -11 -13 -66 0 -41 4 -71 10 -71 6 0 10 22 10 48 0 51 19 90 38 78 7 -4 12 -33 12 -67 0 -33 4 -59 10 -59 6 0 10 22 10 48 0 27 6 57 14 67 12 17 16 17 31 5 13 -11 16 -26 13 -67 -4 -40 -1 -53 9 -53 9 0 13 16 13 58 0 74 -8 86 -54 79 -20 -3 -38 -1 -41 4 -8 11 -16 11 -34 0z"/>
<path d="M7973 4100 c-14 -6 -24 -21 -29 -44 -9 -50 2 -85 32 -98 21 -10 28 -8 46 10 25 25 17 43 -9 20 -24 -20 -43 -12 -43 19 0 22 4 24 33 21 29 -3 32 -1 32 26 0 35 -30 58 -62 46z m44 -43 c-2 -6 -13 -12 -25 -14 -16 -2 -22 2 -22 16 0 11 6 21 13 24 15 5 39 -12 34 -26z"/>
<path d="M7140 4028 c0 -39 4 -68 10 -68 6 0 10 25 10 56 0 47 3 57 20 61 30 8 24 22 -10 21 l-30 -1 0 -69z"/>
<path d="M8070 4028 c0 -39 4 -68 10 -68 6 0 10 25 10 56 0 47 3 57 20 61 30 8 24 22 -10 21 l-30 -1 0 -69z"/>
<path d="M4730 3840 c0 -5 7 -10 16 -10 8 0 12 5 9 10 -3 6 -10 10 -16 10 -5 0 -9 -4 -9 -10z"/>
<path d="M9335 3840 c-3 -5 3 -10 15 -10 12 0 18 5 15 10 -3 6 -10 10 -15 10 -5 0 -12 -4 -15 -10z"/>
</g>
</svg>