<svg xmlns="http://www.w3.org/2000/svg" viewBox="710.00 14.10 653.40 247.20">
<g transform="translate(0.000000,768.000000) scale(0.100000,-0.100000)" fill="currentColor" stroke="none">
<path d="M7902 7470 c0 -14 2 -19 5 -12 2 6 2 18 0 25 -3 6 -5 1 -5 -13z"/>
<path d="M7903 7350 c0 -36 2 -50 4 -32 2 17 2 47 0 65 -2 17 -4 3 -4 -33z"/>
<path d="M7903 7220 c0 -25 2 -35 4 -22 2 12 2 32 0 45 -2 12 -4 2 -4 -23z"/>
<path d="M7904 6985 c0 -66 1 -92 3 -57 2 34 2 88 0 120 -2 31 -3 3 -3 -63z"/>
<path d="M9662 6668 l3 -23 1863 -2 1863 -3 -3 23 -3 22 -1863 3 -1863 2 3 -22z"/>
<path d="M9664 6621 c-2 -2 -4 -13 -4 -23 0 -17 63 -18 1865 -18 1858 0 1865 0 1865 20 0 20 -7 20 -427 20 -236 1 -1073 2 -1861 3 -789 1 -1436 0 -1438 -2z"/>
<path d="M11468 6563 c-1800 -3 -1808 -3 -1808 -23 0 -20 8 -20 1865 -20 l1865 0 0 25 c0 24 -2 25 -57 23 -32 -2 -871 -4 -1865 -5z"/>
<path d="M9660 6480 c0 -20 7 -20 1865 -20 1858 0 1865 0 1865 20 0 20 -7 20 -1865 20 -1858 0 -1865 0 -1865 -20z"/>
<path d="M8432 6283 l3 -58 123 -3 122 -3 0 61 0 60 -125 0 -126 0 3 -57z"/>
<path d="M11210 6944 c0 -25 -4 -34 -12 -30 -98 41 -231 47 -297 13 -25 -12 -59 -17 -124 -17 -77 0 -88 -2 -83 -16 3 -9 6 -31 6 -50 l0 -34 945 0 945 0 0 50 0 50 -73 0 c-49 0 -85 6 -108 17 -55 27 -182 30 -248 4 -30 -11 -57 -18 -59 -16 -3 3 -5 17 -6 32 -1 23 -6 29 -28 31 -26 3 -28 1 -28 -32 0 -41 -4 -42 -51 -19 -50 25 -182 29 -239 8 -73 -28 -113 -29 -175 -6 -67 25 -171 27 -230 5 -77 -30 -75 -30 -75 10 0 33 -2 36 -30 36 -28 0 -30 -3 -30 -36z"/>
<path d="M7150 6945 c0 -24 3 -25 60 -25 l60 0 -12 25 c-10 22 -18 25 -60 25 -45 0 -48 -2 -48 -25z"/>
<path d="M10010 6860 l0 -50 336 0 335 0 -3 50 -3 50 -332 0 -333 0 0 -50z"/>
<path d="M13510 6245 l0 -465 34 0 c24 0 35 5 38 18 2 9 2 218 0 465 l-4 447 -34 0 -34 0 0 -465z"/>
<path d="M7902 6560 c0 -14 2 -19 5 -12 2 6 2 18 0 25 -3 6 -5 1 -5 -13z"/>
<path d="M7902 6505 c0 -16 2 -22 5 -12 2 9 2 23 0 30 -3 6 -5 -1 -5 -18z"/>
<path d="M7902 6395 c0 -16 2 -22 5 -12 2 9 2 23 0 30 -3 6 -5 -1 -5 -18z"/>
<path d="M7902 6240 c0 -19 2 -27 5 -17 2 9 2 25 0 35 -3 9 -5 1 -5 -18z"/>
<path d="M7904 6025 c0 -66 1 -92 3 -57 2 34 2 88 0 120 -2 31 -3 3 -3 -63z"/>
<path d="M9414 5754 c3 -9 6 -29 6 -45 0 -29 1 -29 55 -29 l55 0 0 45 0 45 -61 0 c-52 0 -60 -2 -55 -16z"/>
<path d="M7904 5495 c0 -93 2 -133 3 -88 2 45 2 122 0 170 -1 48 -3 12 -3 -82z"/>
<path d="M9420 5603 c0 -74 6 -83 51 -83 46 0 59 18 59 83 l0 45 -55 4 -55 3 0 -52z"/>
<path d="M12604 5651 c-6 -6 -5 -83 2 -109 6 -20 12 -23 53 -20 l46 3 3 62 3 61 -51 4 c-29 1 -54 1 -56 -1z"/>
<path d="M10262 5513 l3 -78 223 -3 222 -2 0 80 0 80 -225 0 -226 0 3 -77z"/>
<path d="M10738 5505 c-2 -47 -1 -90 0 -95 5 -13 964 -14 977 -1 6 6 9 48 7 95 l-3 86 -489 0 -489 0 -3 -85z"/>
<path d="M7903 5160 c0 -30 2 -43 4 -27 2 15 2 39 0 55 -2 15 -4 2 -4 -28z"/>
</g>
</svg>