<svg xmlns="http://www.w3.org/2000/svg" viewBox="483.00 589.10 446.10 180.70">
<g transform="translate(0.000000,768.000000) scale(0.100000,-0.100000)" fill="currentColor" stroke="none">
<path d="M5535 1711 c-22 -3 -70 -23 -105 -43 -50 -28 -85 -39 -148 -48 -105 -14 -106 -14 -124 -53 -14 -29 -14 -36 -2 -60 12 -21 22 -27 49 -27 26 0 35 4 36 18 0 13 2 14 6 2 3 -8 12 -23 21 -32 14 -17 9 -18 -91 -18 l-107 0 0 -25 0 -25 250 0 250 0 0 -39 c0 -37 -2 -39 -37 -46 -21 -4 -65 -22 -99 -41 -41 -23 -83 -37 -133 -44 -40 -6 -77 -13 -82 -16 -5 -3 -9 -32 -9 -65 0 -44 3 -59 14 -59 8 0 18 10 22 23 10 35 35 57 64 57 25 0 60 -26 60 -46 0 -4 -7 2 -16 14 -12 17 -24 22 -47 20 -60 -6 -72 -90 -15 -101 13 -2 0 -5 -29 -6 -45 -1 -52 -4 -57 -23 -2 -13 -4 33 -4 102 1 209 -2 260 -12 260 -5 0 -10 -13 -10 -30 0 -29 -2 -30 -45 -30 -41 0 -45 2 -45 24 0 15 7 26 18 29 10 3 6 5 -10 6 l-28 1 0 -360 0 -360 443 -1 c257 0 450 -4 462 -10 17 -8 17 -9 -5 -4 -14 2 -224 5 -467 5 l-443 0 0 480 c0 473 0 480 -20 480 -20 0 -20 -7 -20 -489 0 -269 3 -496 6 -505 5 -14 54 -16 438 -16 306 -1 446 -4 484 -13 29 -7 50 -15 47 -19 -7 -6 76 -35 195 -68 72 -19 101 -20 865 -20 690 0 798 2 846 16 30 8 85 24 122 35 38 11 66 23 63 27 -7 6 67 32 93 32 11 0 10 -4 -3 -19 -35 -38 -25 -151 12 -143 7 1 11 -3 10 -9 -2 -6 3 -14 11 -17 8 -3 11 0 7 7 -5 7 -1 9 9 4 13 -5 14 -7 3 -14 -7 -5 -536 -9 -1176 -9 l-1164 0 31 26 c36 30 49 81 31 124 -7 17 -17 30 -22 30 -5 0 -6 -5 -2 -12 4 -7 3 -8 -5 -4 -6 4 -8 12 -5 18 5 8 1 9 -10 5 -10 -4 -15 -3 -11 3 4 7 -114 10 -339 10 -266 0 -345 -3 -349 -12 -4 -10 -6 -10 -6 0 -1 8 -20 12 -60 12 l-58 0 -6 -36 c-10 -58 -2 -65 62 -62 53 3 56 5 59 30 3 23 8 28 29 28 15 0 35 8 47 17 19 18 19 18 3 -7 -20 -28 -22 -98 -4 -120 7 -9 23 -24 37 -33 23 -16 14 -17 -203 -17 l-227 0 0 -30 0 -30 2170 0 c1194 0 2173 0 2178 0 4 0 7 12 7 28 l0 27 -221 3 -222 2 29 31 c23 25 29 40 29 77 0 28 -6 52 -17 64 -9 10 -11 18 -6 18 6 0 16 -7 23 -15 7 -8 23 -15 36 -15 17 0 23 -6 26 -27 3 -27 6 -28 61 -31 l57 -3 0 50 0 50 -412 1 c-226 0 -414 2 -416 5 -3 3 195 4 439 4 244 -1 434 -4 422 -6 -31 -6 -33 -53 -2 -53 11 0 17 5 14 10 -3 5 -2 10 3 10 5 0 21 -22 36 -50 29 -54 68 -90 97 -90 30 0 22 16 -13 26 -24 7 -38 20 -51 48 -10 22 -25 46 -33 54 -8 8 -12 17 -9 20 3 3 15 -5 26 -17 16 -17 30 -21 57 -19 36 3 37 4 40 45 l3 43 -51 0 c-35 0 -52 -5 -56 -14 -3 -8 -11 -16 -17 -19 -9 -3 -11 119 -9 509 l3 514 -25 0 c-26 0 -26 0 -26 -87 l0 -88 -125 3 c-112 3 -124 5 -110 18 29 29 15 70 -29 90 -19 8 -24 13 -13 14 22 0 67 -43 67 -65 0 -23 82 -21 104 4 15 16 16 23 5 43 -7 13 -15 36 -19 53 -5 27 -11 31 -54 37 -27 4 -76 21 -109 39 -109 58 -286 51 -395 -15 -44 -27 -76 -37 -140 -46 -106 -14 -109 -16 -127 -54 -12 -25 -13 -39 -5 -61 10 -25 14 -27 54 -23 34 4 45 2 55 -13 11 -18 4 -19 -186 -19 -153 0 -194 3 -185 12 7 7 12 21 13 33 0 11 3 14 6 8 6 -17 74 -16 98 0 12 10 16 21 12 38 -3 13 -10 40 -14 59 -8 33 -12 35 -58 42 -28 3 -77 21 -110 39 -59 33 -62 34 -186 34 l-126 -1 -69 -40 c-57 -34 -84 -43 -159 -53 -49 -7 -93 -15 -97 -17 -18 -12 -38 -65 -32 -88 6 -24 29 -36 72 -36 17 0 22 6 22 24 0 26 23 56 43 56 6 0 1 -7 -11 -16 -27 -19 -30 -68 -4 -83 12 -7 -45 -10 -192 -11 -208 0 -209 0 -191 20 11 12 31 20 51 20 18 0 45 5 59 10 29 11 29 13 8 100 -8 32 -12 35 -53 41 -25 3 -74 20 -110 37 -121 59 -284 54 -395 -11 -48 -27 -79 -37 -149 -46 -50 -7 -94 -15 -98 -17 -18 -12 -38 -65 -32 -88 9 -39 94 -53 94 -15 0 51 49 81 93 58 28 -15 37 -28 37 -56 l0 -23 190 0 190 0 0 24 c0 34 46 69 80 61 32 -8 47 -21 53 -45 4 -16 -2 -13 -24 11 -22 23 -34 29 -51 24 -29 -9 -48 -33 -48 -61 0 -13 6 -26 13 -31 21 -14 -57 -18 -251 -15 -156 2 -182 5 -172 17 19 23 8 68 -21 84 -24 13 -29 13 -53 -2 -28 -19 -36 -63 -14 -85 9 -9 -33 -12 -192 -12 -159 0 -201 3 -192 12 21 21 14 66 -13 84 -31 20 -70 7 -85 -28 -5 -14 -9 -17 -9 -7 -1 23 21 47 49 54 31 7 80 -27 80 -56 0 -15 7 -19 33 -19 17 0 42 3 54 6 25 7 38 46 24 71 -5 10 -12 30 -16 46 -5 24 -10 27 -45 27 -27 0 -64 12 -110 36 -63 33 -78 37 -162 40 -51 1 -111 -1 -133 -5z m1053 -77 c-3 -2 -43 -7 -91 -10 -59 -5 -87 -4 -87 4 0 19 71 54 123 61 52 6 52 6 55 -22 2 -16 2 -31 0 -33z m-980 29 c-4 -33 -26 -41 -116 -42 -47 -1 -63 2 -60 12 7 22 90 57 136 57 41 0 43 -1 40 -27z m151 12 c16 -8 31 -21 34 -30 5 -13 -6 -15 -78 -15 l-85 0 0 30 c0 29 1 30 50 30 28 0 64 -7 79 -15z m992 -2 c56 -33 45 -43 -46 -43 l-85 0 0 30 c0 29 1 30 51 30 30 0 63 -7 80 -17z m819 -12 c0 -27 -3 -29 -52 -35 -85 -10 -130 -8 -126 6 8 23 90 58 135 58 41 0 43 -2 43 -29z m164 8 c14 -11 26 -25 26 -30 0 -5 -36 -9 -80 -9 l-80 0 0 30 c0 30 1 30 54 30 39 0 60 -6 80 -21z m826 4 c0 -40 -17 -48 -106 -52 -99 -4 -107 7 -34 46 55 29 140 33 140 6z m151 0 c52 -31 37 -43 -51 -43 l-80 0 0 30 c0 29 1 30 51 30 30 0 63 -7 80 -17z m-3356 -128 c14 -13 25 -33 25 -45 0 -20 3 -21 194 -18 176 3 195 1 205 -14 12 -19 0 -20 -179 -20 -239 0 -262 2 -246 18 35 34 8 87 -44 87 -20 0 -38 -7 -46 -18 -8 -10 -14 -14 -14 -7 0 15 40 42 63 42 10 0 29 -11 42 -25z m1950 13 c15 -7 28 -24 33 -42 l8 -31 187 -3 c174 -2 187 -1 187 16 0 21 27 62 41 62 5 0 0 -9 -11 -20 -24 -24 -26 -53 -4 -74 14 -15 3 -16 -125 -17 -309 -2 -317 -1 -303 13 7 7 12 25 12 40 0 21 -8 33 -32 48 -37 22 -33 26 7 8z m523 -4 c12 -8 22 -20 22 -26 0 -7 -6 -4 -12 5 -7 9 -24 21 -38 26 -14 5 -18 10 -10 10 9 1 26 -6 38 -15z m455 5 c28 -15 37 -28 37 -56 l0 -23 190 0 c175 0 190 1 190 18 0 21 27 62 41 62 5 0 0 -9 -11 -20 -24 -24 -26 -53 -5 -74 14 -13 1 -15 -117 -18 -164 -4 -327 4 -310 15 22 15 14 65 -13 83 -31 20 -70 7 -85 -28 -5 -13 -9 -16 -9 -8 -1 20 9 34 34 48 25 14 32 15 58 1z m-2942 -36 c12 -16 12 -17 -1 -7 -8 6 -22 14 -30 17 -13 5 -12 6 1 6 9 1 23 -7 30 -16z m503 8 c4 -5 -3 -7 -14 -4 -23 6 -26 13 -6 13 8 0 17 -4 20 -9z m480 -13 c20 -32 -29 -77 -55 -51 -5 5 3 9 19 8 22 0 27 4 27 25 0 21 -5 25 -27 25 -14 -1 -24 3 -21 8 8 13 45 3 57 -15z m513 -3 c1 -16 1 -16 -3 -2 -6 20 -34 22 -54 5 -12 -11 -12 -10 0 5 17 23 54 18 57 -8z m467 16 c4 -5 -3 -7 -14 -4 -11 3 -27 0 -35 -7 -15 -12 -22 0 -8 13 9 10 51 8 57 -2z m487 0 c-13 -3 -28 -15 -32 -26 -5 -14 -8 -15 -8 -4 -1 21 19 39 44 38 17 -1 17 -2 -4 -8z m490 -8 c13 -15 12 -15 -8 -3 -19 12 -24 12 -42 -4 -24 -22 -28 -15 -5 8 20 21 38 20 55 -1z m517 5 c7 -7 12 -17 12 -22 0 -6 -5 -3 -11 7 -14 24 -48 21 -59 -5 -5 -14 -9 -17 -9 -7 -1 19 18 39 39 39 9 0 21 -5 28 -12z m-1524 -67 c-2 -3 -12 3 -22 13 -16 17 -16 18 5 5 12 -7 20 -15 17 -18z m547 6 c-10 -9 -11 -8 -5 6 3 10 9 15 12 12 3 -3 0 -11 -7 -18z m435 -4 c-6 -6 -36 9 -36 18 0 5 9 4 20 -3 10 -7 18 -14 16 -15z m-2940 -1 c-10 -2 -22 0 -28 6 -6 6 0 7 19 4 21 -5 23 -7 9 -10z m1519 8 c-3 -5 -12 -10 -18 -10 -7 0 -6 4 3 10 19 12 23 12 15 0z m-195 -94 l0 -53 -77 -5 c-66 -4 -88 -11 -143 -41 -47 -26 -87 -39 -139 -47 -41 -6 -85 -13 -98 -16 -28 -8 -56 -65 -47 -100 5 -20 12 -24 44 -24 31 0 40 4 46 23 11 36 35 57 66 57 33 0 68 -31 68 -60 0 -19 7 -20 137 -20 l136 0 -6 105 c-4 67 -3 105 3 105 6 0 10 -117 10 -325 l0 -325 -162 0 c-116 1 -158 4 -145 11 9 5 17 22 17 36 0 53 -59 83 -94 47 -19 -18 -21 -65 -4 -82 20 -20 -61 -14 -109 8 l-43 19 -1 68 c-1 37 -2 96 -3 130 0 33 2 59 6 57 4 -2 18 7 31 20 l25 25 -32 4 c-17 2 89 5 237 5 l267 2 0 25 0 25 -264 0 -264 0 -6 58 c-3 31 -4 94 -3 139 3 75 5 85 31 112 20 21 24 30 14 34 -7 3 101 6 240 6 217 1 252 3 252 16 0 8 2 15 5 15 3 0 5 -24 5 -54z m1076 24 l234 0 30 -32 29 -33 0 -195 c-1 -107 -4 -186 -6 -175 -3 11 -10 23 -17 27 -8 6 -7 8 2 8 6 0 12 11 12 25 l0 25 -107 1 c-60 1 -99 4 -88 6 30 8 45 23 45 46 0 53 -75 77 -104 35 -21 -30 -20 -44 4 -68 l20 -20 -145 0 -145 0 0 -25 0 -25 229 0 229 0 36 -36 36 -36 0 -124 0 -124 -27 -11 c-15 -6 -56 -13 -91 -16 -63 -6 -64 -6 -51 15 16 25 4 69 -23 86 -48 29 -111 -42 -73 -84 l18 -20 -146 0 -147 0 0 119 0 119 31 6 c62 12 71 9 67 -26 -3 -31 -6 -33 -46 -36 l-43 -3 3 -72 3 -72 118 -3 c114 -4 117 -3 117 18 0 29 43 70 74 70 26 0 66 -41 66 -67 0 -12 9 -14 48 -8 53 8 65 19 57 55 -4 14 -9 40 -12 58 -5 29 -8 32 -42 32 -22 0 -67 15 -111 37 -67 32 -86 37 -172 41 -55 2 -110 0 -128 -6 l-30 -11 0 195 c0 148 3 194 13 194 6 0 29 3 50 6 l37 7 0 -37 0 -36 -45 0 -45 0 0 -70 0 -70 120 0 c95 0 120 3 120 14 0 28 41 66 71 66 33 0 69 -31 69 -60 0 -22 15 -25 70 -14 39 8 54 39 34 71 -8 12 -14 34 -14 48 0 22 -4 25 -37 25 -21 0 -72 17 -125 41 l-89 41 -115 -4 -114 -3 1 60 c1 33 3 52 6 43 4 -17 24 -18 239 -18z m-296 -365 l0 -385 -62 0 c-48 1 -59 3 -45 11 37 22 9 99 -36 99 -48 0 -73 -56 -40 -92 16 -17 9 -18 -192 -18 -206 0 -208 0 -190 20 39 43 -15 107 -70 82 -33 -15 -41 -38 -28 -73 11 -29 11 -29 -28 -29 l-39 0 0 178 0 177 360 -3 360 -2 0 25 c0 24 -3 25 -57 25 -44 1 -54 3 -40 11 21 13 23 62 1 83 -37 38 -97 7 -92 -48 2 -25 8 -32 33 -37 17 -4 -73 -7 -200 -8 -210 -1 -228 0 -207 15 12 8 22 23 22 32 0 30 -29 62 -57 62 -57 0 -84 -64 -41 -94 22 -15 21 -16 -24 -16 -36 0 -48 -4 -51 -17 -3 -10 -5 70 -6 177 l-1 195 360 -3 c241 -2 360 1 360 8 0 5 2 10 5 10 2 0 5 -173 5 -385z m1376 365 l254 0 0 -364 c0 -282 3 -365 13 -369 6 -3 -197 -5 -453 -4 l-465 2 448 2 447 3 0 360 c0 292 -2 360 -13 360 -9 0 -12 -10 -9 -30 4 -30 4 -30 -43 -30 -47 0 -47 0 -43 30 3 20 0 30 -9 30 -10 0 -13 -35 -13 -170 l0 -170 -185 0 -185 0 0 -25 0 -25 179 0 c178 0 180 0 184 23 2 12 5 -53 6 -145 l1 -168 -55 0 c-43 0 -55 3 -55 15 0 9 -10 20 -22 25 -17 6 -18 9 -6 9 9 1 24 -9 32 -21 18 -25 36 -16 20 10 -17 26 -83 23 -101 -5 -14 -21 -13 -21 21 -19 19 2 33 0 31 -4 -3 -4 -49 -8 -102 -9 -150 -3 -138 -37 -140 371 -1 189 1 337 3 331 4 -10 66 -13 260 -13z m-2779 -7 l-28 -4 26 -30 c24 -30 25 -35 25 -172 l0 -142 -208 0 -208 0 -1 110 c-1 61 0 118 3 128 10 34 128 15 163 -26 9 -11 10 -17 2 -18 -6 -1 -15 -3 -21 -4 -5 -1 -39 -3 -75 -4 l-65 -1 0 -70 0 -70 69 0 c53 0 70 -4 75 -16 4 -11 18 -14 53 -12 46 3 48 5 51 34 4 41 -21 66 -62 62 -20 -2 -34 -11 -42 -26 -15 -30 -27 -41 -18 -17 13 37 36 55 70 55 35 0 64 -28 64 -63 0 -15 5 -18 23 -13 12 3 35 6 50 6 38 0 47 29 28 90 -14 45 -16 48 -56 53 -23 4 -75 22 -116 42 -57 27 -86 35 -130 35 l-57 0 -3 43 -4 42 210 -4 c116 -3 197 -6 182 -8z m2463 -33 c0 -44 -2 -50 -21 -50 -12 0 -44 -14 -72 -31 -27 -17 -73 -35 -101 -40 -173 -32 -161 -27 -177 -62 -8 -18 -12 -44 -9 -57 5 -21 13 -25 48 -28 35 -3 42 0 42 16 0 10 7 27 15 38 13 17 13 16 2 -14 -14 -39 -3 -63 34 -73 13 -4 -20 -7 -73 -8 -92 -1 -97 -2 -100 -23 -2 -13 -2 51 0 142 2 163 3 165 29 192 19 20 23 29 12 30 -8 1 72 5 176 8 105 3 191 7 193 8 1 1 2 -20 2 -48z m-3302 -82 l3 -38 -45 0 -46 0 0 41 0 40 43 -3 c41 -3 42 -4 45 -40z m3842 3 l0 -39 -45 -4 -45 -3 0 42 0 43 45 0 45 0 0 -39z m-3446 -38 c7 -60 5 -256 -2 -215 -3 21 -7 22 -130 23 -82 0 -119 3 -106 9 12 5 25 13 29 19 4 7 46 11 106 11 l99 0 0 70 0 70 -70 0 c-38 0 -70 4 -70 8 0 16 88 58 126 61 7 1 14 -24 18 -56z m1016 22 l0 -35 -92 0 -93 1 30 24 c30 25 80 42 128 44 24 1 27 -2 27 -34z m1126 19 c70 -34 52 -54 -48 -54 l-68 0 0 35 c0 34 1 35 41 35 23 0 56 -7 75 -16z m764 -174 c0 -182 -1 -190 -19 -190 -11 0 -47 -16 -80 -35 -48 -29 -81 -39 -158 -51 -53 -7 -97 -15 -98 -17 -1 -1 -9 -17 -18 -36 -21 -42 -7 -76 26 -67 12 3 30 6 40 6 9 0 17 6 17 14 0 7 7 20 17 27 15 13 15 12 2 -9 -11 -19 -12 -24 -1 -31 8 -5 -9 -10 -46 -14 -32 -4 -66 -9 -75 -13 -14 -5 -17 2 -19 42 -4 112 -4 211 0 237 l5 27 198 0 199 0 0 25 c0 25 0 25 -102 26 -72 0 -96 3 -80 9 17 7 22 17 22 43 0 41 -15 57 -54 58 l-31 2 28 4 c35 5 67 -20 67 -54 0 -22 3 -23 75 -23 l75 0 0 70 0 70 -52 0 c-46 0 -51 2 -38 15 12 11 85 53 98 55 1 0 2 -85 2 -190z m-3302 103 c-2 -5 -12 -25 -21 -46 -14 -30 -23 -38 -40 -35 -18 2 -23 10 -25 46 l-3 42 46 0 c26 0 45 -3 43 -7z m3842 -33 c0 -39 -1 -40 -35 -40 -28 0 -35 4 -35 20 0 11 -4 20 -10 20 -5 0 -10 9 -10 20 0 17 7 20 45 20 l45 0 0 -40z m-3210 -44 c0 -2 -8 -10 -17 -17 -16 -13 -17 -12 -4 4 13 16 21 21 21 13z m45 -6 c3 -6 -1 -7 -9 -4 -18 7 -21 14 -7 14 6 0 13 -4 16 -10z m934 -6 c-11 -13 -10 -19 1 -37 12 -20 12 -21 -3 -8 -20 16 -22 32 -5 49 17 17 23 15 7 -4z m60 -23 c-2 -6 -10 2 -17 17 -11 25 -11 25 4 10 9 -9 15 -21 13 -27z m421 35 c0 -2 -7 -7 -16 -10 -8 -3 -12 -2 -9 4 6 10 25 14 25 6z m35 -6 c3 -6 -1 -7 -9 -4 -18 7 -21 14 -7 14 6 0 13 -4 16 -10z m464 -6 c-11 -13 -10 -19 1 -37 12 -20 12 -21 -3 -8 -20 16 -22 32 -5 49 17 17 23 15 7 -4z m58 -15 c1 -19 1 -20 -4 -4 -3 11 -10 24 -17 28 -7 6 -6 7 4 4 8 -2 16 -14 17 -28z m423 27 c0 -2 -7 -7 -16 -10 -8 -3 -12 -2 -9 4 6 10 25 14 25 6z m-3087 -36 c30 -35 22 -50 -28 -50 -45 0 -45 0 -45 35 0 32 3 35 28 35 15 0 35 -9 45 -20z m3857 -15 c0 -35 0 -35 -45 -35 -45 0 -45 0 -45 35 0 35 0 35 45 35 45 0 45 0 45 -35z m-738 -7 c-8 -8 -9 -4 -5 13 4 13 8 18 11 10 2 -7 -1 -18 -6 -23z m-1012 -1 c11 -5 9 -6 -4 -4 -11 1 -21 9 -23 17 -3 10 -2 11 4 4 4 -6 15 -14 23 -17z m980 0 c11 -5 9 -6 -4 -4 -11 1 -21 9 -23 17 -3 10 -2 11 4 4 4 -6 15 -14 23 -17z m-2419 -5 c-13 -2 -27 0 -32 5 -6 6 3 7 23 4 28 -4 29 -6 9 -9z m-498 1 c-7 -2 -21 -2 -30 0 -10 3 -4 5 12 5 17 0 24 -2 18 -5z m1504 1 c-3 -3 -12 -4 -19 -1 -8 3 -5 6 6 6 11 1 17 -2 13 -5z m-1650 -78 c4 -3 -17 -6 -45 -6 -29 0 -52 4 -52 9 0 9 87 7 97 -3z m853 -150 l0 -158 -22 7 c-13 4 -48 9 -79 12 -43 4 -57 10 -65 26 -13 29 -37 41 -68 33 -31 -8 -45 -34 -25 -47 20 -13 -108 -11 -132 1 -14 8 -19 20 -18 48 2 34 2 34 6 7 7 -43 20 -55 65 -55 31 0 46 6 68 30 34 36 71 39 100 8 11 -12 20 -26 20 -30 0 -5 26 -8 57 -6 63 3 76 18 55 62 -6 11 -12 30 -14 41 -2 14 -16 23 -53 31 -28 6 -79 25 -115 42 -45 21 -84 32 -125 34 -63 3 -75 13 -68 52 4 20 10 21 209 21 l204 0 0 -159z m2986 151 c4 -4 -16 -7 -44 -7 -29 0 -52 3 -52 8 0 9 87 8 96 -1z m-3456 -31 c0 -31 -3 -34 -37 -38 -21 -3 -66 -22 -100 -42 -44 -26 -81 -39 -133 -46 -40 -6 -76 -13 -81 -16 -5 -3 -9 -2 -10 3 0 4 -1 45 -3 91 l-2 82 183 0 183 0 0 -34z m-390 -31 l0 -45 -45 0 -45 0 0 45 0 45 45 0 45 0 0 -45z m3840 0 l0 -45 -45 0 -45 0 0 45 0 45 45 0 45 0 0 -45z m-3448 -65 l3 -35 -80 3 -80 4 30 24 c30 24 118 57 122 45 1 -3 3 -22 5 -41z m195 20 c46 -30 36 -40 -37 -40 -39 0 -73 0 -77 1 -4 0 -10 -8 -14 -18 -5 -11 -8 1 -8 32 l-1 51 58 -6 c31 -3 67 -12 79 -20z m2713 -17 l0 -38 -55 3 c-30 2 -55 7 -55 11 0 6 97 61 107 61 2 0 3 -17 3 -37z m-743 -5 c12 -11 20 -25 17 -29 -3 -5 -39 -9 -80 -9 l-74 0 0 36 0 37 57 -7 c38 -4 65 -14 80 -28z m-2557 -33 l0 -45 -45 0 -45 0 0 45 0 45 45 0 45 0 0 -45z m3840 0 l0 -45 -52 1 c-29 0 -48 3 -43 5 6 2 9 22 7 44 l-4 40 46 0 46 0 0 -45z m-550 -105 c-9 -18 -20 -20 -91 -20 -54 0 -78 3 -74 11 11 16 -25 49 -54 50 -14 0 -20 3 -13 6 24 9 63 -7 74 -32 10 -23 17 -25 73 -25 70 0 84 10 87 60 l1 35 4 -32 c2 -18 -1 -41 -7 -53z m-2895 31 c-4 -17 -15 -36 -25 -41 -22 -12 -180 -14 -180 -2 0 4 38 6 84 4 78 -3 85 -2 100 20 9 12 16 31 16 42 0 11 3 17 6 13 3 -3 3 -19 -1 -36z m-385 15 c0 -11 -19 -15 -25 -6 -3 5 1 10 9 10 9 0 16 -2 16 -4z m161 -6 c10 -6 19 -16 19 -22 0 -6 -9 -3 -19 6 -26 24 -73 17 -86 -12 -12 -27 -43 -39 -59 -22 -8 9 -6 11 10 6 15 -5 26 2 42 24 24 32 57 39 93 20z m-201 -16 c0 -9 9 -18 20 -21 33 -9 11 -23 -36 -23 -42 0 -44 1 -44 30 0 27 3 30 30 30 21 0 30 -5 30 -16z m3870 -15 c0 -30 -1 -30 -47 -27 -26 2 -48 9 -51 16 -2 7 2 10 12 6 10 -4 16 -1 16 9 0 9 -8 18 -17 20 -10 3 6 5 35 6 52 1 52 1 52 -30z m-780 7 c0 -3 -4 -8 -10 -11 -5 -3 -10 -1 -10 4 0 6 5 11 10 11 6 0 10 -2 10 -4z m45 -7 c11 -16 1 -19 -13 -3 -7 8 -8 14 -3 14 5 0 13 -5 16 -11z m-1960 -10 c11 -16 1 -19 -13 -3 -7 8 -8 14 -3 14 5 0 13 -5 16 -11z m475 7 c0 -2 -8 -10 -17 -17 -16 -13 -17 -12 -4 4 13 16 21 21 21 13z m458 -10 c-7 -8 -15 -12 -17 -11 -5 6 10 25 20 25 5 0 4 -6 -3 -14z m531 11 c-2 -1 -13 -9 -24 -17 -19 -14 -19 -14 -6 3 7 9 18 17 24 17 6 0 8 -1 6 -3z m36 -8 c11 -16 1 -19 -13 -3 -7 8 -8 14 -3 14 5 0 13 -5 16 -11z m-1958 -15 c-3 -3 -12 -4 -19 -1 -8 3 -5 6 6 6 11 1 17 -2 13 -5z m1398 -42 c-3 -3 -11 0 -18 7 -9 10 -8 11 6 5 10 -3 15 -9 12 -12z m-968 2 c-3 -3 -12 -4 -19 -1 -8 3 -5 6 6 6 11 1 17 -2 13 -5z m1490 0 c-3 -3 -12 -4 -19 -1 -8 3 -5 6 6 6 11 1 17 -2 13 -5z m-1717 -41 c49 -16 147 -18 960 -23 l905 -5 -873 -3 c-756 -2 -883 0 -948 14 -41 8 -85 19 -97 24 -38 15 -5 11 53 -7z m1995 1 c-27 -7 -57 -13 -65 -13 -21 1 70 27 95 27 11 0 -2 -6 -30 -14z m-92 -21 c-7 -2 -19 -2 -25 0 -7 3 -2 5 12 5 14 0 19 -2 13 -5z m-2663 -41 c-12 -9 -25 -33 -30 -52 -7 -30 -8 -31 -9 -9 -1 27 32 79 51 79 6 0 0 -8 -12 -18z m1503 -12 c-3 -11 -7 -20 -9 -20 -2 0 -4 9 -4 20 0 11 4 20 9 20 5 0 7 -9 4 -20z m119 -12 c-8 -8 -9 -4 -5 13 4 13 8 18 11 10 2 -7 -1 -18 -6 -23z m1256 12 c-7 -10 -14 -17 -17 -15 -4 4 18 35 25 35 2 0 -1 -9 -8 -20z m-2521 4 c-3 -3 -12 -4 -19 -1 -8 3 -5 6 6 6 11 1 17 -2 13 -5z m400 0 c-3 -3 -12 -4 -19 -1 -8 3 -5 6 6 6 11 1 17 -2 13 -5z m2000 0 c-3 -3 -12 -4 -19 -1 -8 3 -5 6 6 6 11 1 17 -2 13 -5z m443 2 c0 -2 -16 -6 -35 -8 -19 -2 -35 0 -35 4 0 4 16 8 35 8 19 0 35 -2 35 -4z m60 -13 c0 -11 -3 -14 -8 -7 -4 6 -14 14 -22 17 -10 4 -8 6 8 6 15 1 22 -5 22 -16z m90 3 c0 -15 -16 -29 -38 -32 -6 -1 -10 2 -6 7 3 5 9 7 14 4 5 -3 12 0 16 6 3 6 0 15 -7 20 -11 7 -10 9 4 9 9 0 17 -6 17 -14z m-3480 -16 c0 -17 -7 -20 -45 -20 -38 0 -45 3 -45 20 0 17 7 20 45 20 38 0 45 -3 45 -20z m927 14 c-3 -3 -12 -4 -19 -1 -8 3 -5 6 6 6 11 1 17 -2 13 -5z m2311 -30 c-2 -10 -10 -19 -18 -20 -11 -1 -11 0 -2 3 9 3 12 14 9 30 -3 16 -1 21 5 15 6 -6 8 -18 6 -28z m179 14 c-3 -8 -6 -5 -6 6 -1 11 2 17 5 13 3 -3 4 -12 1 -19z m423 2 c0 -17 -7 -20 -45 -20 -38 0 -45 3 -45 20 0 17 7 20 45 20 38 0 45 -3 45 -20z m-3526 -9 c-5 -3 -12 -10 -15 -14 -4 -4 -9 -1 -13 8 -3 9 -2 13 4 10 6 -3 10 -1 10 5 0 6 5 8 11 4 6 -3 7 -9 3 -13z m246 15 c0 -2 -7 -9 -15 -16 -13 -11 -14 -10 -9 4 5 14 24 23 24 12z m2257 -2 c-3 -3 -12 -4 -19 -1 -8 3 -5 6 6 6 11 1 17 -2 13 -5z m246 -14 c-3 -12 -8 -19 -11 -16 -5 6 5 36 12 36 2 0 2 -9 -1 -20z m-2066 4 c-3 -3 -12 -4 -19 -1 -8 3 -5 6 6 6 11 1 17 -2 13 -5z m1780 0 c-3 -3 -12 -4 -19 -1 -8 3 -5 6 6 6 11 1 17 -2 13 -5z m-2630 -26 c-3 -8 -6 -5 -6 6 -1 11 2 17 5 13 3 -3 4 -12 1 -19z m890 16 c-3 -3 -12 -4 -19 -1 -8 3 -5 6 6 6 11 1 17 -2 13 -5z m1700 0 c-3 -3 -12 -4 -19 -1 -8 3 -5 6 6 6 11 1 17 -2 13 -5z m250 -16 c-3 -8 -6 -5 -6 6 -1 11 2 17 5 13 3 -3 4 -12 1 -19z m318 12 c-3 -5 -12 -7 -20 -4 -9 4 -15 -4 -18 -28 l-4 -33 -1 38 c-2 33 0 37 24 37 14 0 23 -4 19 -10z m58 3 c-7 -2 -21 -2 -30 0 -10 3 -4 5 12 5 17 0 24 -2 18 -5z m-3028 -13 c-3 -5 -12 -10 -18 -10 -7 0 -6 4 3 10 19 12 23 12 15 0z m758 3 c-7 -2 -21 -2 -30 0 -10 3 -4 5 12 5 17 0 24 -2 18 -5z m640 0 c-7 -2 -21 -2 -30 0 -10 3 -4 5 12 5 17 0 24 -2 18 -5z m960 0 c-7 -2 -21 -2 -30 0 -10 3 -4 5 12 5 17 0 24 -2 18 -5z m-2143 -13 c-18 -12 -30 -13 -30 -2 0 4 10 9 22 9 18 2 20 0 8 -7z m2780 0 c0 -5 -4 -10 -10 -10 -5 0 -10 5 -10 10 0 6 5 10 10 10 6 0 10 -4 10 -10z m115 0 c-3 -5 -11 -10 -16 -10 -6 0 -7 5 -4 10 3 6 11 10 16 10 6 0 7 -4 4 -10z m-3228 -6 c-3 -3 -12 -4 -19 -1 -8 3 -5 6 6 6 11 1 17 -2 13 -5z m-52 -14 c3 -5 1 -10 -4 -10 -6 0 -11 5 -11 10 0 6 2 10 4 10 3 0 8 -4 11 -10z m220 -12 c6 -4 2 -8 -7 -8 -10 0 -18 7 -18 17 0 9 3 12 8 7 4 -5 12 -12 17 -16z m2680 12 c3 -5 1 -10 -4 -10 -6 0 -11 5 -11 10 0 6 2 10 4 10 3 0 8 -4 11 -10z m-61 -16 c3 -8 2 -12 -4 -9 -6 3 -10 10 -10 16 0 14 7 11 14 -7z m505 -32 c14 -11 14 -11 -2 -6 -10 4 -22 15 -27 25 -14 25 -12 38 2 14 6 -11 19 -26 27 -33z m18 42 c-3 -3 -12 -4 -19 -1 -8 3 -5 6 6 6 11 1 17 -2 13 -5z m-3212 -24 c8 -13 201 -13 225 0 13 7 21 7 25 -1 4 -6 21 -19 39 -30 l31 -19 -205 0 -205 0 33 20 c17 11 32 24 32 30 0 13 17 13 25 0z m286 -7 c13 -16 12 -17 -3 -4 -17 13 -22 21 -14 21 2 0 10 -8 17 -17z m149 14 c0 -2 -10 -12 -22 -23 l-23 -19 19 23 c18 21 26 27 26 19z m2577 -17 c66 0 103 4 112 13 10 10 15 8 29 -9 9 -12 26 -26 37 -32 15 -9 -29 -11 -180 -11 -142 0 -195 3 -182 10 9 6 15 14 12 20 -3 5 0 6 8 3 8 -3 17 2 21 11 4 12 10 14 25 5 11 -5 64 -10 118 -10z m294 -10 c-13 -11 -28 -20 -35 -20 -6 0 3 9 19 19 39 25 46 25 16 1z"/>
<path d="M6250 1145 c-17 -20 -16 -65 1 -76 20 -13 73 -11 87 3 18 18 15 53 -6 71 -23 21 -66 22 -82 2z m23 -23 c-10 -10 -20 -17 -22 -16 -6 5 20 34 30 34 5 0 1 -8 -8 -18z m57 -10 c0 -15 -2 -15 -10 -2 -13 20 -13 33 0 25 6 -3 10 -14 10 -23z"/>
<path d="M6505 910 c-16 -4 -59 -23 -95 -42 -44 -24 -84 -38 -125 -42 -96 -11 -130 -23 -143 -51 -26 -56 -9 -85 49 -85 33 0 37 3 43 30 13 65 101 65 122 0 l12 -35 78 -3 c44 -2 103 0 132 3 l52 6 0 69 c0 38 -4 71 -10 75 -5 3 -7 11 -5 18 2 7 6 24 9 40 6 27 6 27 -41 26 -27 -1 -61 -4 -78 -9z m85 -50 l0 -30 -91 0 c-58 0 -88 4 -84 10 14 23 82 49 128 50 46 0 47 -1 47 -30z"/>
<path d="M6700 1312 c0 -6 17 -19 38 -29 20 -10 38 -26 40 -35 3 -15 -4 -18 -37 -18 l-41 0 0 -70 c0 -63 2 -70 20 -70 13 0 20 7 20 20 0 29 36 60 69 60 30 0 71 -38 71 -66 0 -11 10 -13 43 -8 23 3 48 7 55 10 14 4 16 55 3 70 -5 5 -11 20 -13 34 -2 21 -10 26 -43 30 -22 3 -69 20 -105 37 -76 37 -120 50 -120 35z"/>
<path d="M7340 1249 c-30 -10 -88 -23 -127 -30 -69 -10 -74 -13 -89 -45 -13 -28 -14 -40 -6 -60 10 -20 19 -24 52 -24 32 0 40 4 40 18 0 57 82 86 114 40 9 -12 16 -30 16 -40 0 -14 8 -18 35 -18 l35 0 0 69 c0 47 -4 71 -12 74 -10 3 -10 7 1 20 16 20 12 20 -59 -4z"/>
<path d="M6700 912 c0 -5 17 -19 38 -29 54 -29 55 -53 3 -53 l-41 0 0 -70 c0 -63 2 -70 20 -70 13 0 20 7 20 19 0 25 45 61 76 61 24 0 64 -42 64 -67 0 -12 9 -14 48 -8 26 4 50 9 55 12 11 6 9 61 -3 68 -5 3 -10 19 -10 36 0 27 -3 29 -38 29 -23 0 -65 13 -108 34 -79 39 -124 53 -124 38z"/>
<path d="M7373 858 c-18 -11 -72 -25 -120 -33 -48 -7 -95 -16 -103 -19 -21 -9 -39 -58 -33 -90 4 -21 11 -26 33 -26 16 0 35 -3 44 -6 12 -5 16 0 16 20 0 33 33 66 65 66 30 0 65 -32 65 -60 0 -16 7 -20 35 -20 l35 0 0 69 c0 46 -4 71 -12 74 -10 4 -10 8 1 15 28 20 5 28 -26 10z"/>
<path d="M8540 1311 c0 -6 5 -11 10 -11 6 0 10 -13 10 -29 0 -17 -4 -33 -10 -36 -5 -3 -10 -37 -10 -76 l0 -69 80 0 c61 0 80 3 80 14 0 7 9 25 21 40 35 44 98 31 117 -24 8 -23 17 -30 36 -30 26 0 26 1 26 74 l0 74 -32 7 c-18 3 -60 20 -93 38 -51 26 -74 32 -147 35 -61 3 -88 1 -88 -7z m159 -25 c15 -8 33 -21 39 -29 10 -12 4 -15 -40 -21 -29 -3 -68 -6 -85 -6 -31 0 -33 2 -33 35 0 35 0 35 45 35 26 0 58 -6 74 -14z"/>
<path d="M8724 1135 c-14 -21 -15 -31 -6 -50 9 -20 19 -25 50 -25 43 0 62 14 62 46 0 54 -76 75 -106 29z m34 -6 c-10 -5 -18 -18 -19 -27 0 -11 -2 -12 -6 -4 -6 15 14 42 31 42 6 0 3 -5 -6 -11z m25 -56 c-7 -2 -19 -2 -25 0 -7 3 -2 5 12 5 14 0 19 -2 13 -5z"/>
<path d="M8540 932 c0 -6 5 -14 10 -17 6 -3 10 -17 10 -30 0 -13 -4 -27 -10 -30 -5 -3 -10 -26 -10 -51 0 -64 23 -84 100 -84 51 0 61 3 71 23 16 30 28 37 65 37 31 0 64 -25 64 -48 0 -7 14 -12 30 -12 l30 0 0 65 c0 62 -1 65 -27 70 -16 4 -60 22 -98 40 -54 27 -89 36 -153 41 -56 5 -82 4 -82 -4z m182 -52 l33 -29 -77 -1 c-43 0 -81 -1 -85 -2 -5 -2 -9 12 -11 30 l-3 32 55 0 c48 0 60 -4 88 -30z"/>
<path d="M4890 585 l0 -45 43 0 c30 0 48 6 60 20 18 21 37 26 37 10 0 -6 -5 -9 -11 -8 -6 2 -20 -13 -31 -32 -23 -41 -63 -80 -84 -80 -8 0 -14 -4 -14 -10 0 -13 12 -13 44 0 15 5 40 31 56 57 17 27 41 50 53 53 13 4 23 15 25 28 3 19 -1 22 -33 22 -22 0 -38 6 -41 15 -4 11 -21 15 -55 15 l-49 0 0 -45z"/>
<path d="M5950 250 c0 -5 11 -10 25 -10 25 0 25 -1 25 -90 0 -116 18 -118 22 -2 3 87 3 87 31 90 15 2 25 8 22 13 -8 12 -125 12 -125 -1z"/>
<path d="M6170 245 c0 -8 5 -15 10 -15 6 0 10 7 10 15 0 8 -4 15 -10 15 -5 0 -10 -7 -10 -15z"/>
<path d="M6320 160 l0 -100 50 0 c58 0 68 17 13 22 l-38 3 -3 88 c-4 121 -22 111 -22 -13z"/>
<path d="M6800 160 c0 -82 3 -100 15 -100 12 0 15 18 15 100 0 82 -3 100 -15 100 -12 0 -15 -18 -15 -100z"/>
<path d="M6967 253 c-3 -5 -15 -44 -27 -88 -12 -43 -24 -85 -27 -92 -3 -7 1 -13 9 -13 7 0 19 14 25 31 10 25 16 30 40 27 19 -2 29 -10 33 -27 3 -14 11 -26 18 -29 15 -5 15 4 -2 64 -8 27 -20 68 -26 92 -10 38 -31 55 -43 35z m20 -111 c-28 -5 -30 1 -16 49 l12 44 12 -45 c10 -41 10 -45 -8 -48z"/>
<path d="M7483 223 c-17 -42 -14 -123 7 -148 15 -18 73 -20 88 -2 15 18 19 49 6 54 -7 2 -14 -8 -18 -22 -7 -28 -36 -34 -55 -11 -19 23 -10 127 12 140 15 9 22 7 37 -11 22 -28 30 -29 30 -5 0 27 -20 42 -58 42 -29 0 -35 -5 -49 -37z"/>
<path d="M7920 245 c0 -8 5 -15 10 -15 6 0 10 7 10 15 0 8 -4 15 -10 15 -5 0 -10 -7 -10 -15z"/>
<path d="M7210 231 c0 -11 -6 -22 -12 -24 -10 -4 -10 -7 -1 -14 6 -5 13 -35 15 -68 3 -53 5 -60 26 -63 25 -4 30 13 7 22 -11 4 -15 20 -15 56 0 38 4 50 15 50 8 0 15 5 15 10 0 6 -7 10 -15 10 -8 0 -15 9 -15 20 0 11 -4 20 -10 20 -5 0 -10 -9 -10 -19z"/>
<path d="M6085 202 c-3 -3 -5 -36 -5 -74 0 -54 3 -68 15 -68 12 0 15 13 15 59 0 51 3 61 20 66 11 3 20 10 20 14 0 8 -57 11 -65 3z"/>
<path d="M6170 135 c0 -43 4 -75 10 -75 6 0 10 32 10 75 0 43 -4 75 -10 75 -6 0 -10 -32 -10 -75z"/>
<path d="M6450 191 c-14 -27 -13 -104 2 -119 20 -20 66 -15 78 9 15 26 3 40 -14 16 -16 -21 -42 -22 -50 -1 -11 29 -6 34 34 34 32 0 40 4 40 18 0 51 -68 84 -90 43z m58 -24 c3 -12 -3 -17 -22 -17 -28 0 -29 1 -20 25 8 20 38 15 42 -8z"/>
<path d="M6560 196 c0 -9 8 -44 18 -77 22 -77 39 -74 63 11 22 77 22 80 9 80 -5 0 -17 -26 -26 -57 l-17 -58 -16 52 c-17 55 -31 78 -31 49z"/>
<path d="M6690 191 c-14 -27 -13 -104 2 -119 19 -19 66 -15 78 7 7 13 7 22 0 26 -6 3 -13 -1 -16 -9 -8 -21 -40 -21 -48 0 -11 29 -6 34 29 34 32 0 35 3 35 28 0 15 -5 33 -12 40 -18 18 -56 14 -68 -7z m58 -24 c3 -12 -3 -17 -22 -17 -28 0 -29 1 -20 25 8 20 38 15 42 -8z"/>
<path d="M7077 203 c-9 -8 -7 -80 2 -113 6 -21 13 -25 49 -26 l42 -2 0 74 c0 43 -4 74 -10 74 -5 0 -10 -24 -10 -54 0 -36 -5 -60 -16 -70 -25 -25 -34 -10 -34 60 0 59 -6 74 -23 57z"/>
<path d="M7292 198 c-7 -7 -12 -36 -12 -64 0 -42 4 -56 21 -68 23 -16 47 -12 67 12 17 22 15 97 -4 116 -18 19 -55 21 -72 4z m62 -24 c9 -22 7 -67 -3 -82 -5 -8 -17 -12 -27 -10 -14 2 -20 13 -22 42 -2 21 -1 44 2 52 7 19 42 18 50 -2z"/>
<path d="M7630 195 c-18 -21 -6 -29 19 -13 17 10 23 10 33 -1 11 -11 9 -15 -6 -25 -11 -6 -30 -21 -43 -33 -19 -19 -22 -27 -13 -43 8 -15 20 -19 53 -18 l43 0 -4 62 c-2 33 -5 67 -7 74 -6 17 -60 15 -75 -3z m58 -87 c-2 -15 -11 -24 -25 -26 -25 -4 -31 16 -11 36 20 20 40 14 36 -10z"/>
<path d="M7747 203 c-1 -1 -1 -33 1 -72 4 -83 22 -96 22 -16 0 44 4 57 20 67 29 18 25 28 -11 25 -17 -1 -31 -3 -32 -4z"/>
<path d="M7830 134 c0 -43 4 -74 10 -74 6 0 10 21 10 48 0 48 11 77 30 77 25 0 7 20 -20 21 l-30 2 0 -74z"/>
<path d="M7920 135 c0 -43 4 -75 10 -75 6 0 10 32 10 75 0 43 -4 75 -10 75 -6 0 -10 -32 -10 -75z"/>
<path d="M7987 192 c-19 -21 -22 -83 -7 -113 15 -27 66 -26 80 2 15 27 2 40 -15 16 -18 -24 -49 -18 -53 11 -3 19 1 22 33 22 43 0 54 20 31 55 -19 30 -46 32 -69 7z m51 -25 c3 -12 -3 -17 -22 -17 -28 0 -29 1 -20 25 8 20 38 15 42 -8z"/>
<path d="M8095 200 c-2 -3 -2 -34 0 -70 3 -82 25 -96 25 -16 0 45 4 58 20 68 11 7 20 16 20 20 0 8 -60 6 -65 -2z"/>
<path d="M6220 140 c0 -5 16 -10 35 -10 19 0 35 5 35 10 0 6 -16 10 -35 10 -19 0 -35 -4 -35 -10z"/>
</g>
</svg>