<svg xmlns="http://www.w3.org/2000/svg" viewBox="483.00 51.00 445.00 156.60">
<g transform="translate(0.000000,768.000000) scale(0.100000,-0.100000)" fill="currentColor" stroke="none">
<path d="M8479 7102 c8 -15 14 -174 12 -289 -1 -23 -3 -23 -125 -23 -119 0 -124 1 -129 22 -7 25 -1 38 17 38 11 0 11 8 3 40 -6 22 -15 40 -19 40 -4 0 -8 9 -8 19 0 11 -4 23 -10 26 -5 3 -10 -3 -10 -14 0 -12 -4 -21 -9 -21 -5 0 -11 -12 -13 -27 -3 -16 -9 -36 -13 -45 -5 -13 -3 -18 10 -18 12 0 16 -7 13 -27 -2 -16 -9 -28 -15 -27 -7 1 -58 2 -112 3 -115 1 -110 -4 -118 114 -5 68 -9 80 -31 97 -13 11 -33 20 -44 20 -10 0 -21 7 -24 15 -5 13 -8 13 -21 0 -8 -8 -20 -15 -27 -15 -7 0 -25 -9 -40 -21 -24 -19 -26 -26 -26 -97 -1 -103 -10 -115 -80 -102 -29 5 -94 10 -144 10 l-92 0 4 41 c4 33 1 41 -15 45 -15 4 -18 12 -15 35 2 16 1 41 -3 56 -9 37 -25 12 -25 -39 0 -28 -4 -38 -15 -38 -9 0 -15 6 -14 13 4 34 -2 87 -11 87 -5 0 -7 -7 -4 -15 4 -8 2 -15 -3 -15 -5 0 -8 -18 -6 -40 2 -30 -1 -40 -12 -40 -11 0 -15 -11 -15 -40 0 -35 -3 -40 -27 -46 -16 -4 -31 -11 -34 -16 -3 -5 -7 17 -8 50 -1 41 3 61 11 65 8 2 14 26 16 56 l3 51 -43 1 c-24 0 -85 4 -136 7 -50 4 -92 4 -92 0 0 -5 -114 -8 -254 -8 l-254 0 -7 -29 c-7 -32 8 -71 28 -71 21 -1 161 -20 190 -26 l27 -6 0 -94 c0 -56 -4 -94 -10 -94 -6 0 -10 -65 -10 -176 0 -167 1 -176 20 -181 11 -3 20 -13 20 -22 0 -9 3 -26 6 -38 6 -21 3 -23 -27 -23 -47 0 -57 9 -61 55 -3 38 -5 40 -40 43 l-38 3 0 133 c0 144 -5 159 -51 149 l-29 -5 0 71 0 71 -70 0 c-40 0 -70 4 -70 10 0 6 -108 10 -304 10 l-305 0 6 -35 6 -35 -157 0 c-97 0 -156 4 -156 10 0 6 -7 10 -15 10 -8 0 -15 -4 -15 -10 0 -6 -56 -10 -148 -10 -82 0 -151 -3 -155 -6 -3 -3 1 -25 9 -47 20 -55 17 -417 -3 -417 -8 0 -13 14 -13 35 0 19 -4 35 -10 35 -5 0 -10 -7 -10 -15 0 -8 -8 -14 -17 -13 -31 2 -53 -2 -53 -10 0 -4 16 -6 35 -4 27 3 35 1 35 -12 0 -9 -8 -16 -19 -16 -11 0 -23 -9 -27 -22 -11 -37 -25 -46 -51 -33 -12 6 -36 10 -53 7 -27 -4 -30 -7 -30 -43 0 -33 3 -39 23 -40 41 -2 62 2 73 17 22 28 23 0 1 -39 -14 -26 -36 -46 -62 -58 -36 -17 -37 -19 -14 -19 36 0 72 31 98 82 11 24 21 37 21 31 0 -9 15 -13 44 -13 34 0 47 5 59 23 9 12 16 17 16 10 1 -6 -3 -15 -9 -18 -5 -3 -10 -26 -10 -50 0 -32 7 -51 26 -74 l26 -31 -156 0 -156 0 0 -30 0 -30 2175 0 2175 0 0 30 0 30 -194 0 -194 0 29 29 c61 62 24 161 -60 161 -47 0 -77 -21 -91 -64 -16 -49 10 -101 60 -119 8 -3 -104 -6 -250 -6 -209 0 -261 3 -246 12 11 7 36 27 56 44 20 18 40 29 44 26 4 -4 4 1 0 11 -5 13 -4 17 4 13 6 -4 13 1 15 10 4 14 5 13 6 -4 1 -23 3 -23 141 -23 l140 0 0 39 c0 37 3 41 46 62 43 20 52 21 108 11 41 -8 65 -18 75 -32 7 -11 24 -20 37 -20 21 0 23 -5 26 -57 l3 -58 98 -3 c53 -1 97 1 97 5 0 5 -25 33 -55 63 -54 53 -65 70 -45 70 6 0 10 -7 10 -15 0 -11 12 -15 45 -15 l45 0 0 40 c0 37 -2 39 -36 46 -22 4 -40 2 -47 -5 -19 -19 -55 -12 -82 15 -14 14 -30 22 -35 19 -6 -3 -10 1 -10 9 0 11 10 16 33 17 l32 2 -37 10 c-23 6 -38 18 -42 31 -7 27 -15 17 -19 -24 -1 -18 -7 -35 -13 -37 -6 -2 -43 33 -83 77 -40 44 -66 80 -58 80 10 0 20 20 29 58 8 32 20 56 26 54 8 -1 12 17 12 55 0 32 -4 52 -8 46 -5 -8 -14 8 -25 43 -10 31 -15 59 -12 64 3 4 -2 10 -9 13 -8 3 -17 1 -20 -6 -3 -9 -5 -9 -5 1 -1 15 43 34 63 26 8 -3 17 0 22 7 4 7 2 15 -4 17 -15 5 -16 32 -2 32 6 0 10 32 10 77 0 42 -3 74 -6 71 -11 -12 -53 38 -48 58 6 25 -19 49 -42 40 -11 -4 -14 -13 -10 -31 5 -18 1 -30 -14 -42 -17 -15 -20 -30 -20 -109 0 -103 -1 -104 -72 -104 l-41 0 6 148 c3 81 8 155 12 165 6 15 -1 17 -74 17 -76 0 -81 -1 -72 -18z m311 -52 c0 -5 -7 -10 -16 -10 -8 0 -12 5 -9 10 3 6 10 10 16 10 5 0 9 -4 9 -10z m-1832 -282 l-3 -103 -97 -3 -98 -3 0 106 0 105 100 0 101 0 -3 -102z m219 80 c-3 -8 -6 -5 -6 6 -1 11 2 17 5 13 3 -3 4 -12 1 -19z m0 -50 c-3 -7 -5 -2 -5 12 0 14 2 19 5 13 2 -7 2 -19 0 -25z m0 -85 c-2 -16 -4 -5 -4 22 0 28 2 40 4 28 2 -13 2 -35 0 -50z m-827 32 c0 -8 -7 -15 -15 -15 -13 0 -14 3 -3 15 16 18 18 18 18 0z m885 5 c3 -5 1 -10 -4 -10 -6 0 -11 5 -11 10 0 6 2 10 4 10 3 0 8 -4 11 -10z m298 -7 c-18 -2 -48 -2 -65 0 -18 2 -4 4 32 4 36 0 50 -2 33 -4z m250 0 c-40 -2 -106 -2 -145 0 -40 1 -8 3 72 3 80 0 112 -2 73 -3z m690 0 c-106 -2 -280 -2 -385 0 -106 1 -20 2 192 2 212 0 298 -1 193 -2z m-1246 -45 c-3 -8 -6 -5 -6 6 -1 11 2 17 5 13 3 -3 4 -12 1 -19z m364 -24 c9 -11 2 -9 -18 6 -18 13 -33 25 -33 27 0 8 38 -17 51 -33z m-884 -166 c-2 -35 -3 -7 -3 62 0 69 1 97 3 63 2 -35 2 -91 0 -125z m943 117 c13 -14 21 -25 18 -25 -2 0 -15 11 -28 25 -13 14 -21 25 -18 25 2 0 15 -11 28 -25z m65 -55 c10 -11 16 -20 13 -20 -3 0 -13 9 -23 20 -10 11 -16 20 -13 20 3 0 13 -9 23 -20z m842 -152 c-3 -8 -6 -5 -6 6 -1 11 2 17 5 13 3 -3 4 -12 1 -19z m-1827 -24 c0 -15 -6 -24 -15 -24 -10 0 -15 10 -15 30 0 22 4 28 15 24 8 -4 15 -17 15 -30z m1710 -48 c-10 -30 -16 -36 -41 -36 -19 0 -29 5 -29 15 0 24 -31 31 -46 11 -11 -16 -15 -16 -43 -2 -38 20 -101 20 -148 1 -47 -20 -78 -19 -99 2 -13 13 -19 14 -22 5 -6 -19 -49 -15 -55 7 -4 17 7 18 236 18 178 0 242 4 245 12 2 7 6 10 9 7 3 -2 0 -21 -7 -40z m382 -12 c83 -87 84 -84 -32 -84 -90 0 -100 2 -100 18 0 10 -4 22 -9 28 -6 5 -13 28 -17 52 l-7 42 56 0 c55 0 57 -1 109 -56z m-944 15 c-11 -17 -20 -19 -53 -15 -130 18 -145 19 -171 1 -14 -9 -28 -14 -32 -11 -3 3 0 6 6 6 7 0 12 5 12 10 0 6 -12 10 -27 10 -22 0 -25 2 -13 10 8 5 77 10 153 10 136 0 137 0 125 -21z m66 -1 c-3 -35 -4 -38 -18 -38 -14 0 -26 21 -26 47 0 9 8 13 23 11 14 -2 22 -9 21 -20z m-737 -4 c-3 -3 -12 -4 -19 -1 -8 3 -5 6 6 6 11 1 17 -2 13 -5z m108 -24 c3 -6 -1 -7 -9 -4 -18 7 -21 14 -7 14 6 0 13 -4 16 -10z m-222 -34 c-10 -13 -20 -22 -22 -20 -4 4 29 44 36 44 2 0 -4 -11 -14 -24z m517 20 c0 -2 -8 -10 -17 -17 -16 -13 -17 -12 -4 4 13 16 21 21 21 13z m241 -13 c13 -16 12 -17 -3 -4 -10 7 -18 15 -18 17 0 8 8 3 21 -13z m135 2 c-1 -8 -5 -17 -8 -21 -5 -4 -4 16 1 34 3 9 9 -1 7 -13z m-50 -30 c1 -14 -2 -23 -7 -20 -5 4 -9 18 -9 32 0 32 12 23 16 -12z m-97 -9 c-3 -3 -11 5 -18 17 -13 21 -12 21 5 5 10 -10 16 -20 13 -22z m181 14 c6 -11 7 -20 2 -20 -6 0 -12 9 -15 20 -3 11 -3 20 -1 20 2 0 8 -9 14 -20z m410 5 c0 -10 -10 -15 -29 -15 -16 0 -34 7 -41 15 -11 13 -7 15 29 15 30 0 41 -4 41 -15z m-1465 -15 c-3 -5 -16 -15 -28 -21 -19 -9 -19 -8 3 10 28 23 34 26 25 11z m-159 -82 c10 -11 -82 -58 -113 -58 -29 0 -31 2 -34 43 l-4 43 72 -11 c40 -6 75 -14 79 -17z m-1441 12 c4 -6 -9 -10 -32 -9 -38 1 -38 1 -8 9 17 4 31 8 32 9 1 0 5 -3 8 -9z m161 1 c-10 -16 -56 -20 -56 -5 0 9 11 14 31 14 16 0 28 -4 25 -9z m214 -10 c0 -12 -8 -21 -22 -24 -20 -4 -20 -4 4 -6 15 0 30 -5 33 -11 10 -16 194 -13 211 4 9 9 10 17 4 21 -5 3 -10 13 -10 21 0 11 14 14 58 13 46 0 53 -2 36 -11 -30 -14 -48 -52 -47 -96 1 -27 9 -43 32 -64 l31 -28 -219 0 c-190 0 -219 2 -217 15 1 8 8 21 16 28 12 10 12 9 1 -5 -9 -13 -10 -18 -2 -18 6 0 19 15 27 34 22 45 12 98 -23 126 l-26 20 57 0 c49 0 56 -3 56 -19z m490 9 c0 -12 -47 -12 -75 0 -15 6 -8 9 28 9 26 1 47 -3 47 -9z m170 0 c-20 -13 -70 -13 -70 0 0 6 19 10 43 10 31 0 38 -3 27 -10z m647 -32 c-3 -7 -5 -2 -5 12 0 14 2 19 5 13 2 -7 2 -19 0 -25z m-477 -13 c0 -33 26 -45 97 -45 50 0 68 6 117 35 l58 35 53 -14 c58 -15 113 -46 82 -46 -10 0 -17 -8 -17 -20 0 -18 7 -20 56 -20 46 0 61 -5 92 -29 20 -16 46 -31 57 -34 11 -3 -135 -5 -324 -6 -286 -1 -342 1 -332 12 6 8 7 17 3 21 -4 4 -1 6 7 4 32 -7 48 64 26 115 -5 12 -3 17 9 17 10 0 16 -9 16 -25z m1840 5 c0 -5 -8 -10 -17 -10 -15 0 -16 2 -3 10 19 12 20 12 20 0z m-3061 -37 c-1 -35 -1 -36 -9 -11 -4 14 -11 31 -15 37 -3 6 1 11 9 11 12 0 16 -10 15 -37z m151 29 c0 -13 -12 -22 -22 -16 -10 6 -1 24 13 24 5 0 9 -4 9 -8z m870 4 c0 -15 -14 -35 -21 -30 -15 9 -10 34 6 34 8 0 15 -2 15 -4z m-150 -21 c0 -8 -4 -15 -10 -15 -5 0 -10 7 -10 15 0 8 5 15 10 15 6 0 10 -7 10 -15z m2876 -17 l29 -33 -32 29 c-31 28 -38 36 -30 36 2 0 16 -15 33 -32z m-2066 2 c13 -8 13 -10 -2 -10 -9 0 -20 5 -23 10 -8 13 5 13 25 0z m230 0 c0 -5 -2 -10 -4 -10 -3 0 -8 5 -11 10 -3 6 -1 10 4 10 6 0 11 -4 11 -10z m570 -24 c0 -2 -8 -10 -17 -17 -16 -13 -17 -12 -4 4 13 16 21 21 21 13z m-1345 -16 c-3 -5 -12 -10 -18 -10 -7 0 -6 4 3 10 19 12 23 12 15 0z m1655 -54 c33 -14 22 -15 -165 -15 l-200 0 35 29 c34 28 39 29 138 30 72 0 102 3 102 12 0 6 12 0 28 -15 15 -14 43 -33 62 -41z m874 49 c3 -8 1 -15 -4 -15 -6 0 -10 7 -10 15 0 8 2 15 4 15 2 0 6 -7 10 -15z m-1357 -50 c34 -13 16 -14 -182 -14 -156 0 -213 3 -195 10 14 6 34 19 45 29 17 16 39 20 135 22 100 3 118 1 137 -15 11 -10 38 -25 60 -32z m-2120 0 c16 -13 0 -14 -119 -15 -103 0 -136 3 -134 13 4 30 16 34 104 29 65 -3 92 -1 97 8 6 10 11 9 21 -4 7 -10 21 -24 31 -31z m860 7 l28 -21 -143 -1 -143 0 26 23 c23 19 36 22 115 21 73 -1 94 -5 117 -22z"/>
<path d="M5295 6030 c-3 -5 -1 -10 4 -10 6 0 11 5 11 10 0 6 -2 10 -4 10 -3 0 -8 -4 -11 -10z"/>
<path d="M5030 6120 c0 -5 18 -10 39 -10 22 0 43 5 46 10 4 6 -12 10 -39 10 -25 0 -46 -4 -46 -10z"/>
<path d="M6060 5840 c-11 -11 -20 -27 -20 -35 0 -22 27 -18 33 5 3 12 14 20 26 20 36 0 27 -47 -20 -97 -53 -58 -49 -78 15 -78 63 0 75 22 15 27 l-42 3 41 48 c47 54 53 88 20 111 -30 21 -44 20 -68 -4z"/>
<path d="M7276 5853 c-3 -3 -6 -48 -6 -100 0 -76 3 -93 15 -93 12 0 15 17 15 94 0 87 -7 116 -24 99z"/>
<path d="M7837 5853 c-4 -3 -7 -17 -7 -30 0 -20 -4 -22 -24 -17 -32 8 -56 -27 -56 -81 0 -56 12 -69 59 -70 l41 -1 0 103 c0 103 -1 109 -13 96z m-19 -75 c18 -18 15 -83 -4 -99 -14 -11 -18 -10 -30 6 -16 22 -18 44 -4 79 11 29 20 32 38 14z"/>
</g>
</svg>