<svg xmlns="http://www.w3.org/2000/svg" viewBox="-5.50 378.40 940.00 196.90">
<g transform="translate(0.000000,768.000000) scale(0.100000,-0.100000)" fill="currentColor" stroke="none">
<path d="M4660 3840 l-75 -6 78 -2 c42 -1 79 -2 82 -2 9 0 7 14 -2 15 -4 1 -42 -2 -83 -5z"/>
<path d="M53 3833 c32 -2 81 -2 110 0 29 2 3 3 -58 3 -61 0 -84 -1 -52 -3z"/>
<path d="M338 3833 c12 -2 32 -2 45 0 12 2 2 4 -23 4 -25 0 -35 -2 -22 -4z"/>
<path d="M618 3833 c84 -2 219 -2 300 0 81 1 12 3 -153 3 -165 0 -231 -2 -147 -3z"/>
<path d="M1108 3833 c23 -2 61 -2 85 0 23 2 4 4 -43 4 -47 0 -66 -2 -42 -4z"/>
<path d="M1343 3833 c59 -2 154 -2 210 0 56 1 8 3 -108 3 -115 0 -161 -2 -102 -3z"/>
<path d="M1713 3833 c26 -2 68 -2 95 0 26 2 4 3 -48 3 -52 0 -74 -1 -47 -3z"/>
<path d="M1943 3833 c43 -2 110 -2 150 0 40 1 5 3 -78 3 -82 0 -115 -2 -72 -3z"/>
<path d="M2178 3833 c6 -2 18 -2 25 0 6 3 1 5 -13 5 -14 0 -19 -2 -12 -5z"/>
<path d="M2258 3833 c12 -2 32 -2 45 0 12 2 2 4 -23 4 -25 0 -35 -2 -22 -4z"/>
<path d="M2363 3833 c20 -2 54 -2 75 0 20 2 3 4 -38 4 -41 0 -58 -2 -37 -4z"/>
<path d="M2568 3833 c7 -3 16 -2 19 1 4 3 -2 6 -13 5 -11 0 -14 -3 -6 -6z"/>
<path d="M2698 3833 c6 -2 18 -2 25 0 6 3 1 5 -13 5 -14 0 -19 -2 -12 -5z"/>
<path d="M2768 3833 c6 -2 18 -2 25 0 6 3 1 5 -13 5 -14 0 -19 -2 -12 -5z"/>
<path d="M2838 3833 c7 -3 16 -2 19 1 4 3 -2 6 -13 5 -11 0 -14 -3 -6 -6z"/>
<path d="M2923 3833 c31 -2 83 -2 115 0 31 2 5 3 -58 3 -63 0 -89 -1 -57 -3z"/>
<path d="M3177 3833 c18 -2 50 -2 70 0 21 2 7 4 -32 4 -38 0 -55 -2 -38 -4z"/>
<path d="M3313 3833 c15 -2 37 -2 50 0 12 2 0 4 -28 4 -27 0 -38 -2 -22 -4z"/>
<path d="M3538 3833 c12 -2 32 -2 45 0 12 2 2 4 -23 4 -25 0 -35 -2 -22 -4z"/>
<path d="M3803 3833 c71 -2 183 -2 250 0 67 1 10 3 -128 3 -137 0 -192 -2 -122 -3z"/>
<path d="M4333 3833 c15 -2 39 -2 55 0 15 2 2 4 -28 4 -30 0 -43 -2 -27 -4z"/>
<path d="M4438 3833 c7 -3 16 -2 19 1 4 3 -2 6 -13 5 -11 0 -14 -3 -6 -6z"/>
<path d="M4488 3833 c7 -3 16 -2 19 1 4 3 -2 6 -13 5 -11 0 -14 -3 -6 -6z"/>
<path d="M4533 3833 c9 -2 23 -2 30 0 6 3 -1 5 -18 5 -16 0 -22 -2 -12 -5z"/>
<path d="M3878 3448 c12 -15 21 -148 10 -148 -5 0 -8 -7 -8 -15 0 -12 -16 -15 -82 -15 -123 0 -128 3 -128 60 0 29 -6 54 -14 63 -25 24 -74 40 -109 33 -55 -10 -71 -28 -77 -87 l-5 -54 -81 -3 -82 -3 2 26 c0 14 4 25 8 25 9 0 5 25 -10 63 -16 37 -32 34 -32 -7 0 -19 -5 -38 -11 -42 -8 -5 -6 -10 5 -16 9 -5 13 -14 10 -20 -4 -6 0 -14 7 -19 9 -6 -21 -8 -78 -7 -50 2 -89 6 -87 10 2 4 0 9 -6 13 -5 3 -10 26 -10 50 0 58 -24 75 -105 75 -75 0 -105 -18 -105 -63 0 -74 -4 -77 -91 -77 -75 0 -79 1 -79 23 0 12 -7 31 -15 41 -15 20 -15 20 -15 0 -1 -14 -4 -11 -15 11 l-13 30 -1 -26 c-1 -14 -4 -29 -8 -33 -4 -4 -8 -17 -8 -29 0 -19 -6 -22 -45 -25 -40 -3 -43 -2 -26 11 15 11 17 17 7 35 -6 12 -21 22 -31 22 -17 0 -20 7 -20 47 0 25 -3 43 -7 39 -4 -4 -6 -27 -4 -51 1 -27 -2 -45 -8 -45 -15 0 -14 -47 2 -53 6 -2 -7 -6 -31 -8 -34 -4 -40 -2 -28 7 11 7 16 27 16 58 l0 46 -97 1 c-68 1 -86 4 -58 8 37 6 34 7 -35 14 -41 5 -83 10 -92 13 -12 3 -18 0 -18 -10 0 -8 8 -17 18 -19 9 -3 -87 -5 -214 -6 l-232 -1 -5 -37 c-7 -54 13 -67 124 -81 53 -6 96 -17 101 -24 14 -24 9 -115 -7 -122 -12 -4 -15 -31 -15 -151 0 -138 1 -145 20 -145 14 0 20 -7 20 -22 0 -21 -6 -23 -52 -26 -34 -2 -54 1 -59 10 -5 7 -9 58 -9 113 0 55 -3 144 -7 199 l-6 98 -84 -4 c-64 -3 -83 -1 -83 9 0 7 -4 13 -10 13 -5 0 -10 -7 -10 -15 0 -13 -38 -15 -285 -15 -247 0 -285 2 -285 15 0 8 -4 15 -10 15 -5 0 -10 -7 -10 -15 0 -10 -10 -15 -31 -15 -30 0 -39 -7 -109 -87 -18 -22 -26 -23 -180 -23 l-160 0 0 39 0 38 -61 7 c-47 6 -64 4 -70 -6 -5 -7 -9 -101 -9 -209 0 -163 3 -199 15 -209 8 -7 15 -23 15 -36 0 -23 1 -23 138 -27 l137 -3 -147 -2 -147 -2 -3 27 c-3 32 -32 43 -42 17 -9 -22 2 -32 15 -14 7 10 8 3 3 -25 -3 -22 -13 -46 -22 -52 -19 -16 -32 -17 -32 -3 0 6 -21 10 -46 10 l-45 0 3 -42 c3 -41 5 -43 36 -46 22 -2 41 3 53 14 18 16 19 16 19 -2 0 -28 -37 -83 -63 -94 -21 -8 -21 -9 -1 -9 23 -1 54 30 72 72 13 29 35 28 30 -1 -2 -14 6 -17 44 -18 45 -1 47 1 42 23 -5 17 -2 23 10 23 10 0 16 9 16 25 0 15 6 25 14 25 8 0 22 3 31 6 9 4 2 -7 -15 -24 -42 -42 -42 -101 -1 -143 l29 -29 -159 0 -159 0 0 -25 0 -25 2170 0 2170 0 0 25 0 25 -202 1 c-116 0 -194 4 -183 8 64 27 82 114 32 157 -40 34 -90 32 -128 -5 -46 -47 -38 -115 19 -145 24 -14 0 -15 -253 -15 -262 0 -278 1 -250 16 17 8 38 23 48 31 10 9 32 17 48 17 16 0 34 6 40 12 6 6 17 9 25 6 8 -3 14 6 17 29 l4 33 1 -33 2 -33 123 3 122 3 0 28 c-1 17 4 26 11 23 14 -6 27 21 14 29 -4 3 -11 -1 -13 -7 -3 -7 -6 -1 -6 15 l-1 27 110 0 c74 0 116 -4 126 -12 71 -57 84 -75 84 -117 l0 -41 100 0 c55 0 100 3 100 7 0 4 -30 38 -67 76 l-68 68 40 -7 c22 -3 43 -8 47 -10 19 -12 38 11 38 47 0 39 0 39 -40 39 -22 0 -40 -4 -40 -10 0 -16 -40 -11 -47 6 -3 9 -13 14 -24 11 -11 -3 -19 2 -22 14 -4 15 2 19 37 22 l41 4 -47 1 c-29 1 -48 -3 -51 -10 -3 -7 -6 -3 -6 10 -1 30 -21 28 -21 -2 0 -29 -37 -42 -60 -21 -9 8 -19 13 -22 10 -3 -3 -13 5 -24 17 -15 18 -16 20 -1 9 28 -22 20 3 -10 30 -21 18 -24 19 -13 4 8 -11 -3 -4 -23 14 -20 19 -37 37 -37 40 0 2 11 -6 25 -19 33 -31 32 -14 -1 21 l-25 26 21 67 22 66 58 0 c37 0 60 -5 64 -12 3 -7 5 1 5 17 -2 78 1 105 15 105 15 0 29 37 17 45 -5 2 -23 0 -42 -4 -19 -5 -52 -12 -75 -15 l-40 -6 -14 53 c-8 28 -15 54 -15 57 -1 3 -7 17 -13 33 -11 26 -14 27 -91 27 -66 0 -80 3 -86 18 -8 19 -7 126 1 155 5 15 -3 17 -77 17 -64 0 -79 -3 -71 -12z m-1985 -145 c-23 -2 -64 -2 -90 0 -26 2 -7 3 42 3 50 0 71 -1 48 -3z m74 1 c-3 -3 -12 -4 -19 -1 -8 3 -5 6 6 6 11 1 17 -2 13 -5z m570 -46 c-3 -8 -6 -5 -6 6 -1 11 2 17 5 13 3 -3 4 -12 1 -19z m-90 -150 c-2 -29 -3 -8 -3 47 0 55 1 79 3 53 2 -26 2 -71 0 -100z m-336 122 c17 0 19 -8 19 -85 l0 -86 -62 3 -63 3 -3 82 -3 82 33 4 c18 2 39 2 46 0 8 -1 22 -3 33 -3z m141 -30 c-2 -16 -14 -36 -27 -44 -18 -12 -23 -23 -21 -56 1 -35 -2 -40 -21 -40 -20 0 -23 5 -23 39 0 21 -3 59 -6 85 l-7 46 55 0 55 0 -5 -30z m1545 14 c-3 -3 -12 -4 -19 -1 -8 3 -5 6 6 6 11 1 17 -2 13 -5z m61 -1 c-10 -2 -26 -2 -35 0 -10 3 -2 5 17 5 19 0 27 -2 18 -5z m-1321 -220 c-2 -37 -3 -9 -3 62 0 72 1 102 3 68 2 -34 2 -93 0 -130z m983 174 c0 -1 -30 -32 -67 -67 l-68 -65 65 68 c60 62 70 72 70 64z m-3018 -52 c3 -24 0 -35 -9 -35 -9 0 -13 -39 -16 -162 l-3 -163 -2 198 c-2 163 0 197 12 197 8 0 15 -14 18 -35z m1463 -140 c0 -74 -3 -135 -7 -135 -5 0 -8 61 -8 135 0 74 3 135 8 135 4 0 7 -61 7 -135z m1353 48 c-32 -2 -86 -2 -120 0 -35 2 -9 3 57 3 66 0 94 -1 63 -3z m-558 -6 c0 -2 -10 -12 -22 -23 l-23 -19 19 23 c18 21 26 27 26 19z m1563 -14 c-7 -2 -21 -2 -30 0 -10 3 -4 5 12 5 17 0 24 -2 18 -5z m-1530 -100 c-7 -2 -21 -2 -30 0 -10 3 -4 5 12 5 17 0 24 -2 18 -5z m1358 -20 c13 -16 12 -17 -3 -4 -17 13 -22 21 -14 21 2 0 10 -8 17 -17z m79 -192 c10 -20 8 -21 -60 -21 -60 0 -70 -3 -71 -17 0 -14 -2 -15 -6 -3 -3 8 -11 18 -17 22 -7 5 -4 8 7 8 16 0 18 8 15 58 -3 57 -3 57 -38 63 -29 5 -30 7 -9 8 15 0 30 9 34 19 5 14 18 5 70 -50 35 -37 69 -76 75 -87z m-1449 116 c-10 -9 -11 -8 -5 6 3 10 9 15 12 12 3 -3 0 -11 -7 -18z m1059 3 c0 -13 -5 -18 -15 -14 -11 5 -15 -1 -15 -20 0 -23 -4 -26 -36 -26 -26 0 -37 5 -41 18 -4 19 -49 23 -61 6 -9 -12 -155 -12 -164 1 -5 6 -11 5 -17 -3 -6 -10 -10 -7 -13 12 l-5 26 86 2 c47 1 125 1 174 0 52 -1 87 2 87 8 0 6 5 10 10 10 6 0 10 -9 10 -20z m-530 6 c0 -3 -4 -8 -10 -11 -5 -3 -10 -1 -10 4 0 6 5 11 10 11 6 0 10 -2 10 -4z m43 -13 c-7 -2 -13 -9 -13 -14 0 -6 4 -8 9 -4 6 3 9 -3 8 -14 -1 -23 -23 -17 -30 9 -6 22 0 30 22 29 10 0 12 -2 4 -6z m47 -9 c0 -8 -4 -12 -10 -9 -5 3 -10 10 -10 16 0 5 5 9 10 9 6 0 10 -7 10 -16z m50 -1 c0 -14 -2 -15 -9 -5 -6 10 -10 8 -14 -9 -4 -13 -9 -20 -13 -17 -3 4 -3 16 1 27 8 25 35 28 35 4z m-600 -3 c0 -5 -3 -10 -7 -10 -5 0 -18 -3 -30 -6 -17 -5 -23 -2 -23 10 0 11 9 16 30 16 17 0 30 -4 30 -10z m80 -5 c0 -10 -11 -15 -35 -15 -24 0 -35 5 -35 15 0 10 11 15 35 15 24 0 35 -5 35 -15z m350 8 c0 -5 -5 -15 -10 -23 -9 -13 -11 -13 -21 0 -8 11 -12 12 -16 3 -6 -15 -123 -18 -123 -4 0 6 -9 9 -20 8 -15 -1 -20 -8 -20 -33 0 -28 -3 -31 -26 -26 -16 3 -23 9 -20 18 11 28 -4 40 -44 36 -32 -3 -40 -1 -40 12 0 14 21 16 170 16 94 0 170 -3 170 -7z m110 -33 c0 -5 -5 -10 -11 -10 -5 0 -7 5 -4 10 3 6 8 10 11 10 2 0 4 -4 4 -10z m-1410 -60 c0 -33 -3 -40 -20 -40 -11 0 -20 5 -20 10 0 6 -16 10 -35 10 -30 0 -35 3 -35 24 0 20 6 25 33 29 79 10 77 10 77 -33z m517 34 c-3 -3 -12 -4 -19 -1 -8 3 -5 6 6 6 11 1 17 -2 13 -5z m633 -28 c0 -2 -8 -10 -17 -17 -16 -13 -17 -12 -4 4 13 16 21 21 21 13z m317 -32 c2 -13 1 -15 -4 -4 -3 8 -11 19 -17 23 -7 6 -6 7 4 4 8 -2 16 -12 17 -23z m356 19 c-7 -2 -19 -2 -25 0 -7 3 -2 5 12 5 14 0 19 -2 13 -5z m-2705 -20 c-26 -2 -71 -2 -100 0 -29 2 -8 3 47 3 55 0 79 -1 53 -3z m149 0 c-20 -2 -52 -2 -70 0 -17 2 0 4 38 4 39 0 53 -2 32 -4z m131 0 c-10 -2 -28 -2 -40 0 -13 2 -5 4 17 4 22 1 32 -1 23 -4z m85 0 c-7 -2 -19 -2 -25 0 -7 3 -2 5 12 5 14 0 19 -2 13 -5z m2110 -20 c-13 -2 -33 -2 -45 0 -13 2 -3 4 22 4 25 0 35 -2 23 -4z m84 1 c-3 -3 -12 -4 -19 -1 -8 3 -5 6 6 6 11 1 17 -2 13 -5z m-2897 -59 c0 -19 -40 -20 -66 0 -18 13 -16 14 24 15 31 0 42 -4 42 -15z m180 0 c-33 -19 -70 -19 -70 0 0 11 12 15 48 15 46 -1 46 -1 22 -15z m160 6 c0 -5 -6 -12 -12 -14 -8 -3 -6 -6 5 -6 9 -1 17 -8 17 -16 0 -12 16 -15 85 -15 50 0 85 4 85 10 0 6 9 10 20 10 27 0 25 28 -2 33 -13 2 9 4 47 5 59 0 65 -1 38 -9 -41 -12 -63 -44 -63 -92 0 -31 7 -45 31 -68 l31 -29 -187 0 -187 0 31 26 c27 22 31 32 31 74 0 42 -4 52 -31 74 l-31 26 46 0 c25 0 46 -4 46 -9z m424 -6 c-7 -18 -18 -18 -64 0 l-35 13 52 1 c43 1 51 -2 47 -14z m173 -1 c-15 -8 -37 -12 -47 -9 -36 11 -21 25 28 25 l47 -1 -28 -15z m113 6 c0 -5 -7 -7 -15 -4 -8 4 -15 8 -15 10 0 2 7 4 15 4 8 0 15 -4 15 -10z m2037 -27 c-3 -10 -5 -4 -5 12 0 17 2 24 5 18 2 -7 2 -21 0 -30z m-1998 -20 c-1 -22 -3 -29 -6 -18 -3 11 -9 24 -14 30 -14 14 -11 25 6 25 11 0 15 -10 14 -37z m209 20 c-15 -18 -82 -53 -103 -53 -10 0 -15 10 -15 34 l0 35 65 -1 c56 0 64 -2 53 -15z m1499 1 c-3 -3 -12 -4 -19 -1 -8 3 -5 6 6 6 11 1 17 -2 13 -5z m-1643 -20 c10 -27 7 -34 -19 -34 -18 0 -25 5 -25 18 0 34 33 45 44 16z m240 -4 c33 -14 46 -25 46 -40 0 -11 3 -21 8 -21 4 -1 18 -4 32 -6 14 -2 38 -6 53 -7 15 -2 42 -13 59 -26 17 -12 42 -26 57 -30 14 -5 -119 -9 -296 -9 -178 -1 -323 1 -323 3 0 3 11 17 25 32 14 15 25 33 25 39 0 9 24 14 78 16 68 4 84 8 127 36 28 18 53 33 57 33 3 0 27 -9 52 -20z m1263 14 c-3 -3 -12 -4 -19 -1 -8 3 -5 6 6 6 11 1 17 -2 13 -5z m-2917 -29 c0 -9 -9 -15 -25 -15 -14 0 -25 5 -25 11 0 6 7 9 15 6 8 -4 17 -2 20 3 9 14 15 12 15 -5z m245 5 c3 -5 1 -10 -4 -10 -6 0 -11 5 -11 10 0 6 2 10 4 10 3 0 8 -4 11 -10z m135 -5 c0 -8 -2 -15 -4 -15 -2 0 -6 7 -10 15 -3 8 -1 15 4 15 6 0 10 -7 10 -15z m783 -6 c-6 -6 -17 -8 -24 -3 -9 5 -8 9 7 14 23 9 31 3 17 -11z m2838 -16 c13 -16 12 -17 -3 -4 -17 13 -22 21 -14 21 2 0 10 -8 17 -17z m-1153 0 c-16 -2 -40 -2 -55 0 -16 2 -3 4 27 4 30 0 43 -2 28 -4z m-2468 -7 c0 -3 -4 -8 -10 -11 -5 -3 -10 -1 -10 4 0 6 5 11 10 11 6 0 10 -2 10 -4z m1990 -10 c0 -3 -4 -8 -10 -11 -5 -3 -10 -1 -10 4 0 6 5 11 10 11 6 0 10 -2 10 -4z m1681 -13 c13 -16 12 -17 -3 -4 -17 13 -22 21 -14 21 2 0 10 -8 17 -17z m-1883 -14 c39 0 74 -5 78 -10 3 -6 20 -19 38 -30 l31 -19 -140 0 c-161 0 -183 7 -131 39 20 13 36 28 36 34 0 8 3 8 9 -1 5 -9 31 -13 79 -13z m1863 4 c13 -16 12 -17 -3 -4 -10 7 -18 15 -18 17 0 8 8 3 21 -13z m-1007 -37 l39 -26 -344 0 -344 1 39 19 c21 11 43 24 50 29 6 5 40 9 76 8 51 -2 72 -7 94 -24 43 -34 128 -32 180 3 32 22 46 25 80 21 23 -3 48 -2 56 3 8 5 19 5 25 1 5 -5 28 -20 49 -35z m-2701 24 c61 -1 76 -4 102 -25 l30 -25 -138 0 -139 0 24 29 c13 17 29 28 36 25 8 -2 46 -4 85 -4z m775 -8 c61 5 72 2 98 -18 l29 -24 -145 0 -144 0 34 29 c26 21 38 26 48 19 7 -6 41 -9 80 -6z"/>
<path d="M2837 3354 c-6 -33 1 -56 17 -51 12 4 10 57 -3 70 -5 5 -11 -4 -14 -19z"/>
<path d="M3840 2473 c0 -9 229 -7 238 2 3 3 -49 5 -116 5 -67 0 -122 -3 -122 -7z"/>
<path d="M1054 2255 c-15 -23 -12 -45 7 -45 5 0 9 9 9 20 0 25 25 36 45 20 24 -20 18 -36 -30 -90 -61 -68 -59 -80 10 -80 30 0 55 5 55 10 0 6 -15 10 -33 10 -19 0 -37 3 -40 7 -4 3 11 26 33 49 59 64 53 124 -12 124 -18 0 -33 -8 -44 -25z"/>
<path d="M1274 2255 c-15 -22 -15 -27 -1 -48 12 -19 12 -24 1 -35 -17 -15 -18 -46 -4 -73 8 -13 21 -19 46 -19 42 0 61 31 48 77 -4 15 -7 43 -5 61 1 18 -3 39 -9 47 -19 23 -58 18 -76 -10z m61 -25 c0 -29 -32 -41 -41 -16 -9 24 4 48 23 44 12 -2 18 -12 18 -28z m9 -76 c8 -20 -11 -54 -29 -54 -18 0 -34 30 -27 50 11 32 45 34 56 4z"/>
<path d="M1492 2268 c-15 -15 -16 -58 -2 -58 6 0 10 6 10 14 0 7 7 19 15 26 12 10 18 10 30 0 24 -20 18 -40 -25 -86 -22 -24 -40 -53 -40 -64 0 -17 6 -20 50 -20 28 0 50 5 50 10 0 6 -16 10 -35 10 -45 0 -45 14 1 61 38 39 47 77 24 104 -15 18 -61 20 -78 3z"/>
<path d="M1680 2180 c0 -60 4 -100 10 -100 6 0 10 35 11 83 1 87 3 85 34 -25 8 -32 21 -58 28 -58 8 0 22 32 34 78 l21 77 1 -78 c1 -58 4 -78 14 -75 8 3 13 35 15 102 3 95 2 97 -19 94 -19 -2 -26 -16 -44 -82 l-21 -79 -11 39 c-6 21 -17 58 -23 82 -8 31 -16 42 -30 42 -19 0 -20 -7 -20 -100z"/>
<path d="M1880 2265 c0 -8 5 -15 10 -15 6 0 10 7 10 15 0 8 -4 15 -10 15 -5 0 -10 -7 -10 -15z"/>
<path d="M1940 2180 c0 -60 4 -100 10 -100 6 0 10 13 10 29 0 43 14 45 33 6 9 -19 21 -35 27 -35 15 0 12 15 -11 54 l-21 36 21 26 c31 40 14 45 -20 6 l-29 -32 0 55 c0 30 -4 55 -10 55 -6 0 -10 -40 -10 -100z"/>
<path d="M2250 2251 c0 -25 -3 -28 -27 -23 -35 7 -53 -19 -53 -79 0 -55 13 -69 63 -67 l37 1 0 99 c0 59 -4 98 -10 98 -5 0 -10 -13 -10 -29z m-2 -75 c5 -44 -6 -76 -27 -76 -21 0 -31 19 -31 59 0 54 52 70 58 17z"/>
<path d="M2500 2180 c0 -60 4 -100 10 -100 6 0 10 20 10 45 l0 45 40 0 40 0 0 -45 c0 -25 5 -45 10 -45 6 0 10 40 10 100 0 60 -4 100 -10 100 -5 0 -10 -18 -10 -40 l0 -40 -40 0 -40 0 0 40 c0 22 -4 40 -10 40 -6 0 -10 -40 -10 -100z"/>
<path d="M3190 2179 c0 -76 3 -100 13 -97 6 3 13 23 15 46 3 39 5 42 33 42 17 0 29 5 29 13 0 9 -10 12 -30 9 -29 -4 -30 -3 -30 32 0 34 1 36 35 36 19 0 35 5 35 10 0 6 -22 10 -50 10 l-50 0 0 -101z"/>
<path d="M3510 2265 c0 -9 5 -15 11 -13 6 2 11 8 11 13 0 5 -5 11 -11 13 -6 2 -11 -4 -11 -13z"/>
<path d="M3700 2180 c0 -60 4 -100 10 -100 6 0 10 22 10 49 0 62 7 81 31 81 17 0 19 -8 19 -66 0 -48 3 -65 13 -62 16 6 21 86 7 122 -9 25 -14 28 -40 22 -28 -5 -30 -3 -30 24 0 17 -4 30 -10 30 -6 0 -10 -40 -10 -100z"/>
<path d="M3830 2251 c0 -11 -6 -22 -12 -24 -10 -4 -10 -7 -1 -14 6 -5 13 -35 15 -68 3 -53 5 -60 26 -63 12 -2 22 1 22 7 0 6 -4 11 -10 11 -15 0 -13 107 3 114 10 5 10 7 0 12 -7 3 -13 14 -13 25 0 10 -7 19 -15 19 -8 0 -15 -9 -15 -19z"/>
<path d="M1880 2155 c0 -43 4 -75 10 -75 6 0 10 32 10 75 0 43 -4 75 -10 75 -6 0 -10 -32 -10 -75z"/>
<path d="M2060 2215 c-17 -20 -5 -32 15 -15 16 13 45 7 45 -10 0 -6 -14 -16 -30 -22 -38 -13 -55 -41 -40 -68 8 -15 20 -19 53 -18 l43 2 -4 61 c-2 33 -9 66 -14 73 -14 17 -53 15 -68 -3z m60 -74 c0 -23 -14 -41 -31 -41 -22 0 -27 35 -6 43 20 9 37 8 37 -2z"/>
<path d="M2316 2214 c-18 -18 -21 -85 -6 -115 13 -23 62 -26 80 -3 8 8 13 35 13 59 0 24 -5 51 -13 59 -16 20 -54 20 -74 0z m59 -59 c0 -41 -3 -50 -19 -53 -23 -5 -36 14 -36 54 0 34 17 56 40 52 11 -2 15 -16 15 -53z"/>
<path d="M2660 2211 c-5 -11 -10 -36 -10 -56 0 -48 16 -75 43 -75 27 0 41 10 50 33 4 11 2 17 -7 17 -8 0 -16 -7 -20 -15 -7 -20 -32 -19 -40 1 -11 29 -6 34 34 34 44 0 49 10 28 55 -14 31 -62 35 -78 6z m60 -21 c0 -15 -7 -20 -25 -20 -27 0 -28 1 -19 24 9 24 44 20 44 -4z"/>
<path d="M2780 2215 c-6 -8 -9 -19 -5 -25 5 -8 11 -5 20 6 7 10 19 15 29 11 25 -10 19 -27 -15 -39 -34 -12 -51 -44 -38 -70 7 -13 21 -17 52 -16 l43 2 -4 61 c-2 33 -5 66 -7 73 -6 17 -60 15 -75 -3z m60 -74 c0 -23 -14 -41 -31 -41 -19 0 -27 29 -12 43 10 10 43 8 43 -2z"/>
<path d="M2883 2214 c3 -11 13 -45 22 -76 9 -33 22 -58 29 -58 8 0 21 28 32 65 10 36 22 65 26 65 3 0 16 -29 27 -63 22 -65 20 -97 -5 -97 -8 0 -14 -5 -14 -11 0 -6 10 -9 23 -7 18 2 27 17 49 83 28 86 33 115 19 115 -5 0 -15 -22 -22 -50 -7 -27 -16 -50 -19 -50 -3 0 -12 23 -19 51 -12 45 -16 50 -39 47 -22 -3 -29 -11 -42 -58 l-16 -55 -15 54 c-8 30 -21 57 -28 59 -9 3 -11 -2 -8 -14z"/>
<path d="M3310 2153 c0 -42 4 -73 10 -73 6 0 10 24 10 54 0 50 17 86 33 69 4 -3 7 1 7 10 0 11 -9 15 -30 15 l-30 -1 0 -74z"/>
<path d="M3402 2218 c-17 -17 -15 -113 2 -128 20 -15 56 -9 70 12 15 24 -1 36 -18 13 -16 -23 -46 -13 -46 15 0 16 6 20 35 20 32 0 35 3 35 28 0 33 -16 52 -45 52 -12 0 -26 -5 -33 -12z m56 -31 c3 -12 -3 -17 -22 -17 -25 0 -35 18 -19 34 12 12 38 2 41 -17z"/>
<path d="M3510 2155 c0 -43 4 -75 10 -75 6 0 10 32 10 75 0 43 -4 75 -10 75 -6 0 -10 -32 -10 -75z"/>
<path d="M3576 2208 c-18 -26 -20 -65 -6 -103 9 -23 15 -27 40 -23 21 3 30 0 30 -9 0 -19 -29 -28 -43 -14 -15 15 -27 14 -27 -4 0 -16 42 -30 65 -21 23 9 35 50 35 125 l0 68 -39 1 c-31 1 -44 -3 -55 -20z m59 -53 c0 -43 -3 -50 -20 -50 -16 0 -21 8 -23 39 -4 49 3 68 25 64 14 -3 18 -14 18 -53z"/>
<path d="M1170 2160 c0 -5 16 -10 35 -10 19 0 35 5 35 10 0 6 -16 10 -35 10 -19 0 -35 -4 -35 -10z"/>
<path d="M1390 2160 c0 -5 14 -10 30 -10 17 0 30 5 30 10 0 6 -13 10 -30 10 -16 0 -30 -4 -30 -10z"/>
<path d="M2365 1990 l-2370 -5 2370 -5 c1304 -3 3396 -3 4650 0 l2280 5 -2267 3 c-1246 1 -2272 3 -2280 5 -7 1 -1079 0 -2383 -3z"/>
</g>
</svg>