<svg xmlns="http://www.w3.org/2000/svg" viewBox="23.50 45.60 444.50 133.40">
<g transform="translate(0.000000,768.000000) scale(0.100000,-0.100000)" fill="currentColor" stroke="none">
<path d="M2035 7153 c-16 -9 -52 -18 -80 -19 -27 -2 -68 -8 -90 -14 -22 -6 -49 -13 -60 -15 -11 -3 -21 -9 -23 -15 -5 -13 -39 -13 -46 -1 -4 6 -20 6 -41 0 -27 -8 -43 -6 -69 6 -29 14 -37 14 -55 3 -12 -7 -21 -17 -21 -21 0 -5 -9 -5 -20 -2 -12 4 -27 2 -35 -5 -9 -8 -19 -8 -32 -1 -31 17 -145 32 -158 21 -8 -6 -22 -7 -36 -2 -17 7 -37 3 -74 -14 -27 -13 -60 -24 -72 -24 -12 0 -25 -4 -28 -10 -3 -5 -15 -10 -25 -10 -10 0 -26 -10 -34 -21 -11 -16 -21 -20 -38 -16 -23 7 -118 -22 -118 -35 0 -5 -40 -8 -90 -8 -73 0 -90 -3 -90 -15 0 -13 89 -15 738 -15 416 0 731 -4 723 -9 -7 -5 -22 -6 -32 -4 -18 5 -19 -6 -19 -301 0 -263 2 -306 15 -306 12 0 15 28 18 173 l3 172 -1 -175 c0 -174 0 -175 -22 -178 l-23 -3 0 311 0 311 -165 -2 -165 -1 0 -304 c0 -259 2 -304 15 -304 10 0 15 16 18 58 l3 57 2 -62 c2 -61 1 -63 -23 -63 l-25 0 0 310 0 310 -150 0 -150 0 -3 -297 -2 -298 -3 297 -2 296 -165 1 -165 2 -3 -288 -2 -288 -3 287 -2 286 -179 2 c-164 1 -180 -1 -184 -17 -4 -17 -5 -17 -6 0 0 9 -5 17 -11 17 -6 0 -10 -115 -10 -325 0 -318 0 -325 -20 -325 -11 0 -20 -4 -20 -10 0 -5 -9 -10 -20 -10 -11 0 -20 5 -20 10 0 6 -22 10 -50 10 l-50 0 0 -46 0 -46 55 4 c45 4 53 2 43 -9 -6 -7 -18 -28 -27 -46 -9 -17 -31 -39 -48 -47 -37 -17 -44 -35 -10 -25 42 13 66 35 89 81 20 39 28 47 55 49 24 2 33 -3 42 -21 6 -13 17 -24 24 -24 10 0 13 -8 10 -24 -6 -30 27 -81 60 -93 12 -5 -100 -10 -263 -13 l-285 -5 0 -25 0 -25 2173 -3 2172 -2 0 30 0 30 -276 0 -277 0 34 23 c24 16 37 34 44 62 5 22 15 45 22 50 16 13 6 28 -34 49 -18 9 -33 19 -33 22 0 2 9 0 21 -6 11 -7 27 -9 35 -6 8 3 14 -1 14 -9 0 -8 5 -15 10 -15 6 0 10 8 10 18 0 13 2 14 9 3 5 -8 18 -12 28 -9 16 4 27 -7 53 -54 24 -45 41 -64 67 -75 19 -8 38 -12 41 -9 6 7 7 6 -33 26 -18 10 -41 37 -58 70 -16 30 -23 49 -16 43 7 -7 32 -13 56 -13 l43 0 0 45 0 45 -50 0 c-27 0 -50 -4 -50 -10 0 -5 -9 -10 -20 -10 -11 0 -20 5 -20 10 0 15 -38 12 -43 -2 -2 -7 -5 41 -6 106 -1 89 1 121 11 127 10 7 10 9 1 9 -9 0 -13 16 -13 44 0 26 5 47 13 50 10 5 10 7 0 12 -8 3 -13 24 -13 49 0 25 5 45 13 48 10 4 10 6 0 6 -8 1 -13 17 -13 45 0 26 5 47 13 50 10 5 10 7 0 12 -8 3 -13 24 -13 49 0 24 -4 47 -10 50 -5 3 -10 -1 -10 -9 0 -9 -8 -16 -17 -15 -11 0 -13 3 -5 6 40 16 -5 23 -148 23 l-160 0 -2 -307 -3 -308 -22 -3 -23 -3 0 310 0 311 -145 0 -145 0 0 -310 c0 -170 -3 -310 -7 -310 -5 0 -7 139 -5 310 2 275 1 310 -13 310 -14 0 -15 -35 -13 -310 2 -171 0 -310 -4 -310 -5 0 -8 140 -8 310 l0 310 -145 0 -145 0 0 -310 c0 -170 -3 -310 -7 -310 -5 0 -7 139 -5 310 2 275 1 310 -13 310 -14 0 -15 -35 -13 -310 2 -171 0 -310 -4 -310 -5 0 -8 140 -8 310 l0 310 -145 0 -145 0 0 -310 0 -310 -25 0 -25 0 0 310 0 310 -145 0 -145 0 0 -304 c0 -168 -3 -307 -7 -309 -5 -3 -7 134 -5 304 2 270 1 309 -13 309 -13 0 -15 -40 -18 -302 l-2 -303 -3 302 -2 302 -127 4 c-71 1 328 4 885 5 557 1 1017 4 1023 7 22 15 -7 25 -69 25 -56 0 -69 3 -80 20 -8 13 -23 20 -42 20 -18 0 -33 6 -37 15 -3 9 -13 15 -22 14 -15 -2 -60 14 -91 32 -8 5 -22 12 -30 15 -23 8 -76 32 -115 51 -27 14 -37 15 -47 5 -7 -7 -25 -12 -42 -12 -16 0 -37 -7 -47 -16 -10 -9 -23 -13 -30 -8 -18 11 -112 12 -126 1 -8 -6 -37 -1 -79 13 -95 32 -154 33 -210 5 -33 -17 -56 -22 -83 -18 -25 4 -46 0 -62 -10 -13 -9 -42 -18 -64 -21 -22 -2 -52 -10 -67 -16 -16 -8 -34 -9 -45 -5 -10 5 -36 9 -59 10 -22 1 -64 14 -91 28 -50 25 -52 25 -96 9 -40 -14 -51 -15 -84 -3 -21 7 -46 21 -56 29 -15 14 -27 14 -91 4 -68 -12 -106 -9 -106 7 0 12 -77 34 -95 27 -9 -3 -26 1 -38 9 -27 19 -44 18 -82 -2z m163 -73 c3 -8 0 -10 -7 -6 -7 4 -18 2 -26 -4 -18 -15 -20 -4 -2 15 14 16 29 15 35 -5z m1107 -20 c-3 -5 -11 -10 -16 -10 -6 0 -7 5 -4 10 3 6 11 10 16 10 6 0 7 -4 4 -10z m35 0 c0 -5 -4 -10 -10 -10 -5 0 -10 5 -10 10 0 6 5 10 10 10 6 0 10 -4 10 -10z m460 0 c0 -5 -4 -10 -9 -10 -6 0 -13 5 -16 10 -3 6 1 10 9 10 9 0 16 -4 16 -10z m-2580 -20 c-8 -5 -19 -10 -25 -10 -5 0 -3 5 5 10 8 5 20 10 25 10 6 0 3 -5 -5 -10z m40 -10 c0 -5 -4 -10 -10 -10 -5 0 -10 5 -10 10 0 6 5 10 10 10 6 0 10 -4 10 -10z m1350 -12 c0 -13 -23 -5 -28 10 -2 7 2 10 12 6 9 -3 16 -11 16 -16z m1126 15 c-11 -11 -48 -14 -41 -3 3 5 16 10 27 10 12 0 18 -3 14 -7z m-2026 -23 c9 -16 8 -20 -5 -20 -8 0 -15 5 -15 11 0 6 -9 8 -20 4 -21 -7 -28 10 -7 18 24 10 36 7 47 -13z m1254 11 c3 -5 -5 -8 -19 -7 -14 0 -25 4 -25 9 0 10 38 9 44 -2z m-390 -10 c3 -5 -5 -8 -19 -8 -14 0 -22 3 -19 8 3 5 11 9 19 9 8 0 16 -4 19 -9z m503 -18 c-8 -7 -37 9 -31 19 3 5 12 4 20 -3 8 -6 13 -14 11 -16z m841 15 c20 -20 14 -30 -10 -17 -17 9 -23 9 -26 0 -2 -6 -8 -8 -13 -5 -6 3 -2 12 8 20 22 17 26 17 41 2z m-2559 -25 c1 -1 -11 -1 -28 -1 -25 1 -29 4 -20 15 9 11 15 11 28 1 9 -7 18 -13 20 -15z m548 1 c-9 -9 -28 6 -21 18 4 6 10 6 17 -1 6 -6 8 -13 4 -17z m487 17 c3 -5 0 -11 -8 -14 -15 -6 -26 1 -26 15 0 11 27 10 34 -1z m396 -4 c0 -7 -9 -13 -20 -13 -20 0 -25 7 -13 19 11 12 33 8 33 -6z m-446 -6 c3 -5 -3 -11 -14 -14 -20 -5 -26 3 -13 16 9 10 21 9 27 -2z m-527 -37 c-3 -3 -12 -4 -19 -1 -8 3 -5 6 6 6 11 1 17 -2 13 -5z m2276 -81 c-7 -2 -21 -2 -30 0 -10 3 -4 5 12 5 17 0 24 -2 18 -5z m-1946 -160 c-2 -32 -3 -8 -3 52 0 61 1 87 3 58 2 -29 2 -78 0 -110z m-340 70 c-3 -10 -5 -2 -5 17 0 19 2 27 5 18 2 -10 2 -26 0 -35z m2373 7 c0 -5 -10 -10 -22 -9 -22 0 -22 1 -3 9 11 5 21 9 23 9 1 1 2 -3 2 -9z m-62 -7 c-10 -2 -26 -2 -35 0 -10 3 -2 5 17 5 19 0 27 -2 18 -5z m57 -115 c-1 -29 -3 -59 -4 -65 -1 -9 -18 -13 -51 -13 -41 0 -50 3 -50 18 0 9 17 28 37 42 l37 25 -47 3 c-26 2 -47 6 -47 10 0 4 27 5 60 4 50 -3 60 -1 60 12 0 9 2 16 4 16 2 0 2 -24 1 -52z m-3314 -49 c54 -39 99 -73 99 -75 0 -2 -47 -4 -105 -4 l-105 0 0 75 c0 41 3 75 6 75 3 0 50 -32 105 -71z m3188 -151 c0 -101 -3 -136 -10 -119 -7 17 -15 22 -29 18 -17 -4 -20 0 -20 29 0 34 0 34 -47 36 -27 0 -54 1 -61 1 -8 -1 -12 9 -10 25 2 19 25 42 88 88 47 35 86 63 88 63 1 1 2 -63 1 -141z m131 67 l0 -45 -55 0 -55 0 0 45 0 45 55 0 55 0 0 -45z m-3159 -32 c34 -22 40 -31 37 -57 l-3 -31 -152 -3 -153 -3 0 61 0 60 115 0 c108 0 118 -2 156 -27z m786 -45 c-3 -7 -5 -2 -5 12 0 14 2 19 5 13 2 -7 2 -19 0 -25z m2373 -23 l0 -45 -55 0 -55 0 0 45 0 45 55 0 55 0 0 -45z m-287 -127 c8 -5 6 -8 -5 -8 -15 0 -18 9 -16 58 l2 57 3 -50 c3 -27 10 -53 16 -57z m30 95 c-7 -2 -19 -2 -25 0 -7 3 -2 5 12 5 14 0 19 -2 13 -5z m47 -3 c0 -5 -7 -7 -15 -4 -8 4 -15 8 -15 10 0 2 7 4 15 4 8 0 15 -4 15 -10z m-2917 -23 c3 -8 1 -20 -4 -28 -6 -10 -9 -8 -9 11 0 20 -2 22 -10 10 -7 -11 -10 -11 -10 -2 0 9 -15 12 -51 11 -53 -3 -69 -16 -69 -58 0 -19 -6 -21 -75 -21 l-75 0 0 45 0 45 149 0 c115 0 150 -3 154 -13z m3125 -39 c-3 -33 -4 -33 -56 -34 l-52 -1 50 4 c35 3 50 8 50 19 0 10 -13 14 -50 14 -38 0 -50 4 -50 15 0 12 13 15 56 15 l55 0 -3 -32z m-3200 -31 l47 -3 -52 -2 -53 -2 1 33 c2 29 2 29 6 5 4 -24 9 -27 51 -31z m49 21 c-3 -8 -6 -5 -6 6 -1 11 2 17 5 13 3 -3 4 -12 1 -19z m2999 -15 c13 2 24 0 24 -4 0 -5 -13 -9 -30 -9 -25 0 -30 4 -29 23 1 18 2 19 6 4 4 -14 12 -18 29 -14z m-2566 -15 c0 -4 -9 -8 -20 -8 -11 0 -20 4 -20 8 0 4 9 8 20 8 11 0 20 -4 20 -8z m-480 -35 c-59 -3 -97 -8 -102 -16 -6 -9 -8 -9 -8 1 0 8 -19 12 -59 12 l-60 0 -4 -37 -4 -38 -1 43 -2 42 168 -2 c107 -1 133 -3 72 -5z m2865 0 l-339 -3 -41 -38 -40 -37 34 38 35 37 -219 0 -220 0 60 -54 c33 -30 60 -59 60 -65 0 -6 3 -10 6 -8 9 3 39 -24 34 -32 -2 -4 -18 -6 -36 -3 -28 4 -30 8 -27 33 3 17 -1 34 -9 40 -10 9 -13 5 -13 -22 0 -19 -3 -44 -6 -56 -6 -23 -5 -23 79 -23 47 0 88 4 91 9 3 5 34 33 68 62 34 30 59 48 54 42 -5 -10 6 -13 44 -13 48 0 50 -1 39 -21 -23 -43 17 -122 71 -142 8 -3 -489 -5 -1105 -6 -628 0 -1111 4 -1099 9 42 17 66 61 62 112 l-3 48 45 0 45 1 -50 44 -50 44 -165 3 c-91 2 533 3 1385 3 853 0 1397 -1 1210 -2z m232 -68 c5 -31 6 -52 2 -48 -10 12 -28 103 -19 103 3 0 11 -25 17 -55z m-2764 25 c-18 -4 -39 -11 -46 -16 -7 -5 -4 -1 6 9 11 9 31 17 46 16 24 -1 23 -2 -6 -9z m2314 4 c-3 -3 -12 -4 -19 -1 -8 3 -5 6 6 6 11 1 17 -2 13 -5z m420 0 c-3 -3 -12 -4 -19 -1 -8 3 -5 6 6 6 11 1 17 -2 13 -5z m-3229 -24 c-7 -11 -23 -20 -36 -20 -13 0 -21 4 -17 10 3 5 12 7 19 4 7 -3 19 2 26 11 18 21 22 19 8 -5z m2752 16 c0 -2 -7 -7 -16 -10 -8 -3 -12 -2 -9 4 6 10 25 14 25 6z m440 -6 c0 -5 -8 -10 -17 -10 -15 0 -16 2 -3 10 19 12 20 12 20 0z m-2600 -22 c0 -6 -6 -5 -15 2 -8 7 -15 14 -15 16 0 2 7 1 15 -2 8 -4 15 -11 15 -16z m-549 -30 c-4 -35 -6 -38 -9 -15 -3 26 3 57 10 57 2 0 1 -19 -1 -42z m-76 2 c-3 -5 -13 -10 -21 -10 -8 0 -14 5 -14 10 0 6 9 10 21 10 11 0 17 -4 14 -10z m3185 -5 c0 -8 -2 -15 -4 -15 -2 0 -6 7 -10 15 -3 8 -1 15 4 15 6 0 10 -7 10 -15z m180 5 c0 -5 0 -12 0 -15 0 -3 -2 -5 -5 -5 -3 0 -5 3 -4 6 0 4 -5 11 -13 15 -10 7 -9 9 5 9 9 0 17 -4 17 -10z m-3260 -20 c0 -5 -5 -10 -11 -10 -5 0 -7 5 -4 10 3 6 8 10 11 10 2 0 4 -4 4 -10z m95 -18 c-3 -3 -11 0 -18 7 -9 10 -8 11 6 5 10 -3 15 -9 12 -12z m255 14 c0 -2 -8 -10 -17 -17 -16 -13 -17 -12 -4 4 13 16 21 21 21 13z m2494 -35 c-3 -3 -15 6 -27 18 l-22 24 27 -19 c14 -10 24 -21 22 -23z m216 14 c-7 -8 -17 -15 -23 -15 -6 0 -2 7 9 15 25 19 30 19 14 0z m173 8 c-7 -2 -19 -2 -25 0 -7 3 -2 5 12 5 14 0 19 -2 13 -5z m-326 -9 c-3 -3 -12 -4 -19 -1 -8 3 -5 6 6 6 11 1 17 -2 13 -5z m193 2 c0 -2 -8 -10 -17 -17 -16 -13 -17 -12 -4 4 13 16 21 21 21 13z m-2675 -16 c3 -5 1 -10 -4 -10 -6 0 -11 5 -11 10 0 6 2 10 4 10 3 0 8 -4 11 -10z m1958 -7 c-7 -2 -21 -2 -30 0 -10 3 -4 5 12 5 17 0 24 -2 18 -5z m-2176 -51 c46 -2 90 1 102 7 14 8 22 8 26 0 4 -6 21 -19 39 -30 l31 -19 -190 0 c-181 0 -188 1 -165 17 14 9 29 23 33 31 6 8 15 11 25 6 10 -5 54 -10 99 -12z m2593 14 c0 -2 -8 -10 -17 -17 -16 -13 -17 -12 -4 4 13 16 21 21 21 13z m45 -6 c8 -12 170 -13 193 -1 13 7 26 1 52 -20 l34 -29 -189 0 -190 0 31 19 c18 11 35 24 38 30 9 14 23 14 31 1z m395 6 c0 -2 -8 -10 -17 -17 -16 -13 -17 -12 -4 4 13 16 21 21 21 13z m-2755 -26 c-3 -5 -12 -10 -18 -10 -7 0 -6 4 3 10 19 12 23 12 15 0z"/>
<path d="M1461 6234 c13 -15 61 -57 106 -95 l82 -69 80 0 c74 0 98 9 71 25 -5 3 -10 22 -10 41 l0 34 262 0 262 0 -44 45 -44 45 -178 0 -178 0 -32 -33 c-18 -18 -23 -21 -10 -7 12 14 22 29 22 33 0 4 -93 7 -207 7 l-206 0 24 -26z m309 -69 c-9 -10 -9 -15 -1 -15 15 0 14 -50 -1 -51 -7 -1 -20 -2 -28 -3 -30 -2 -29 19 2 51 33 34 50 45 28 18z m-72 -72 c-10 -2 -28 -2 -40 0 -13 2 -5 4 17 4 22 1 32 -1 23 -4z"/>
<path d="M1734 6128 l-19 -23 23 19 c21 18 27 26 19 26 -2 0 -12 -10 -23 -22z"/>
<path d="M2250 6253 c0 -5 35 -39 77 -78 42 -38 84 -78 92 -87 22 -25 201 -27 201 -2 0 12 -10 14 -53 10 l-53 -5 86 85 85 84 -217 0 c-120 0 -218 -3 -218 -7z m238 -160 c-10 -2 -28 -2 -40 0 -13 2 -5 4 17 4 22 1 32 -1 23 -4z"/>
<path d="M2657 6222 c-20 -21 -37 -41 -37 -45 0 -8 494 -10 502 -1 3 3 -13 23 -37 45 l-42 39 -175 0 -174 0 -37 -38z"/>
<path d="M2790 6605 c0 -264 2 -305 15 -305 13 0 15 41 15 305 0 264 -2 305 -15 305 -13 0 -15 -41 -15 -305z"/>
<path d="M3810 6605 c0 -264 2 -305 15 -305 13 0 15 41 15 305 0 264 -2 305 -15 305 -13 0 -15 -41 -15 -305z"/>
</g>
</svg>