<svg xmlns="http://www.w3.org/2000/svg" viewBox="920.10 176.50 481.30 213.00">
<g transform="translate(0.000000,768.000000) scale(0.100000,-0.100000)" fill="currentColor" stroke="none">
<path d="M10933 5845 c-28 -19 -39 -87 -24 -143 12 -43 35 -58 71 -47 41 13 50 145 12 188 -19 21 -31 21 -59 2z m51 -31 c12 -32 6 -121 -9 -134 -28 -23 -45 5 -45 75 0 34 3 65 7 68 12 13 41 7 47 -9z"/>
<path d="M11158 5794 c-47 -83 -48 -94 -4 -94 27 0 35 -4 38 -20 2 -12 8 -20 13 -20 6 1 9 8 7 17 -2 9 0 19 5 22 12 8 1 154 -12 158 -5 1 -27 -27 -47 -63z m32 -29 c0 -28 -4 -35 -20 -35 -11 0 -20 3 -20 6 0 7 33 64 37 64 2 0 3 -16 3 -35z"/>
<path d="M11374 5852 c-32 -21 -45 -111 -24 -166 14 -37 58 -46 82 -16 27 33 26 142 -2 170 -21 21 -38 25 -56 12z m47 -43 c14 -28 6 -118 -12 -130 -24 -14 -42 16 -43 73 0 29 3 59 7 66 12 19 35 14 48 -9z"/>
<path d="M12110 5755 c0 -63 4 -105 10 -105 6 0 10 24 10 53 0 56 21 100 39 82 5 -5 11 -36 13 -68 2 -31 8 -57 13 -57 14 0 18 105 5 130 -12 22 -40 26 -58 8 -9 -9 -12 -4 -12 25 0 20 -4 37 -10 37 -6 0 -10 -42 -10 -105z"/>
<path d="M11926 5843 c-3 -3 -6 -15 -6 -25 0 -10 -5 -18 -12 -18 -9 0 -9 -3 0 -12 7 -7 12 -38 12 -69 0 -43 4 -58 16 -63 25 -10 34 -7 34 9 0 8 -4 15 -10 15 -15 0 -12 97 3 104 10 5 10 7 0 12 -7 3 -13 14 -13 24 0 20 -13 33 -24 23z"/>
<path d="M11747 5803 c-3 -5 -8 -29 -12 -55 -9 -57 -20 -55 -29 7 -4 26 -13 45 -20 45 -10 0 -9 -16 5 -71 25 -102 34 -105 54 -17 l12 53 8 -40 c11 -64 16 -76 28 -72 12 4 51 146 42 155 -9 10 -17 -5 -29 -60 l-12 -53 -13 53 c-13 51 -25 70 -34 55z"/>
<path d="M11867 5803 c-11 -11 -8 -153 3 -153 6 0 10 33 10 80 0 80 -1 86 -13 73z"/>
<path d="M12006 5795 c-11 -11 -16 -34 -16 -71 0 -49 3 -56 26 -66 18 -8 30 -9 42 -1 19 11 29 53 13 53 -6 0 -11 -6 -11 -14 0 -22 -19 -30 -35 -16 -20 17 -19 84 1 101 14 11 18 10 30 -6 17 -23 33 -11 18 13 -15 23 -48 27 -68 7z"/>
<path d="M12258 5800 c-21 -13 -32 -78 -19 -112 5 -15 19 -29 30 -33 25 -8 61 10 61 30 0 19 -14 19 -30 1 -16 -21 -40 -9 -40 20 0 21 5 24 35 24 30 0 35 3 35 24 0 26 -24 56 -43 56 -7 0 -19 -5 -29 -10z m40 -22 c19 -19 14 -28 -13 -28 -24 0 -34 18 -18 33 9 10 17 9 31 -5z"/>
<path d="M12360 5737 c0 -45 4 -77 10 -77 6 0 10 22 10 50 0 42 4 52 26 66 17 11 22 20 15 27 -7 7 -15 6 -24 -1 -10 -9 -16 -9 -25 0 -9 9 -12 -6 -12 -65z"/>
<path d="M11040 5735 c0 -10 10 -15 30 -15 20 0 30 5 30 15 0 10 -10 15 -30 15 -20 0 -30 -5 -30 -15z"/>
<path d="M11257 5744 c-12 -12 4 -24 34 -24 19 0 29 5 29 15 0 15 -50 22 -63 9z"/>
<path d="M9283 5543 c32 -2 57 -9 57 -15 0 -7 4 -7 13 1 10 8 266 12 903 14 l889 2 -960 1 c-528 0 -934 -1 -902 -3z"/>
<path d="M11617 5543 c260 -2 686 -2 945 0 260 1 48 2 -472 2 -520 0 -732 -1 -473 -2z"/>
<path d="M13048 5543 c7 -3 16 -2 19 1 4 3 -2 6 -13 5 -11 0 -14 -3 -6 -6z"/>
<path d="M13328 5543 c139 -2 364 -2 500 0 136 1 22 2 -253 2 -275 0 -386 -1 -247 -2z"/>
<path d="M13176 5435 c4 -10 0 -15 -14 -15 -15 0 -27 -13 -42 -47 l-20 -47 55 -98 c51 -91 55 -104 55 -163 l0 -65 -62 7 c-35 3 -65 7 -67 10 -3 2 -7 43 -9 91 -5 94 -13 112 -62 132 -22 9 -37 9 -64 0 -52 -17 -66 -43 -66 -123 0 -45 -4 -69 -12 -72 -7 -3 -53 3 -103 12 l-90 18 -3 77 c-3 69 -5 79 -29 98 -14 11 -33 20 -43 20 -13 0 -16 6 -13 24 3 13 0 27 -6 30 -7 5 -14 -4 -17 -22 -5 -26 -11 -30 -46 -35 -53 -7 -67 -29 -68 -106 0 -61 -1 -63 -22 -57 -13 3 -44 6 -70 6 -30 0 -48 4 -48 12 0 6 -7 19 -16 29 -15 16 -17 16 -35 1 -10 -9 -19 -22 -19 -29 0 -9 -21 -13 -75 -13 -60 0 -75 3 -75 15 0 21 -37 57 -44 42 -3 -8 -5 -7 -5 2 -1 20 -30 -18 -31 -40 0 -12 -12 -18 -42 -21 -24 -3 -46 -3 -50 -1 -15 8 -8 71 8 77 10 4 14 16 12 38 l-3 33 -80 5 c-44 3 -196 4 -338 2 l-259 -3 7 -84 7 -85 -86 0 c-51 0 -86 -4 -86 -10 0 -6 -13 -5 -33 4 -27 11 -85 13 -296 8 l-263 -5 4 -48 3 -49 -297 0 c-337 0 -338 0 -338 72 l0 38 -49 0 -49 0 -4 -50 -3 -50 60 -2 60 -1 -60 -7 c-33 -4 -55 -7 -49 -8 20 -3 26 -81 9 -114 -22 -45 -22 -228 1 -228 9 0 14 -7 12 -17 -2 -13 -14 -19 -41 -21 -31 -3 -37 0 -37 17 0 11 -4 23 -10 26 -5 3 -10 2 -10 -4 0 -5 -15 -12 -32 -14 l-33 -4 33 -1 c25 -2 32 -6 32 -22 0 -11 -7 -23 -15 -27 -9 -3 -15 -13 -13 -22 5 -34 -12 -71 -32 -71 -11 0 -20 5 -20 10 0 6 -20 10 -45 10 -48 0 -52 -7 -39 -57 9 -32 39 -38 84 -15 22 10 42 17 45 14 3 -3 5 -25 5 -49 0 -32 -4 -43 -16 -43 -11 0 -13 -6 -9 -19 4 -15 0 -20 -17 -23 -39 -5 -26 -23 20 -26 40 -3 42 -2 44 25 1 15 2 35 4 43 1 8 2 25 3 38 1 18 7 22 36 22 28 0 33 3 28 17 -4 11 -3 14 5 9 7 -4 31 8 56 28 l43 36 132 0 c110 0 131 -2 131 -15 0 -18 -40 -20 -87 -3 -27 10 -40 10 -66 -1 -17 -7 -47 -12 -65 -12 -46 2 -54 -6 -36 -34 9 -14 21 -22 27 -18 6 4 7 1 1 -8 -5 -8 -9 -21 -9 -29 0 -8 -6 -14 -12 -13 -8 2 -13 -8 -13 -28 0 -17 4 -28 10 -24 6 3 10 1 10 -4 0 -6 -10 -10 -21 -8 -12 1 -24 -4 -26 -10 -3 -9 9 -13 41 -13 28 0 58 -8 78 -20 l33 -20 -258 0 -258 0 3 -25 3 -25 1650 -2 c908 -1 1885 -1 2173 0 l522 2 0 25 0 25 -262 0 -262 0 39 20 c22 11 59 20 82 20 46 0 50 5 28 33 -7 11 -11 25 -9 32 3 7 1 16 -5 20 -15 9 -14 72 1 77 26 9 -6 29 -43 26 -21 -1 -44 3 -51 10 -15 15 -84 16 -93 2 -3 -5 -22 -10 -41 -10 -31 0 -35 3 -32 23 3 21 8 22 108 25 58 2 115 0 128 -3 13 -3 43 -24 67 -46 24 -22 49 -38 55 -34 5 3 10 -1 10 -9 0 -11 9 -16 30 -16 29 0 30 -2 30 -42 0 -79 7 -89 54 -86 47 3 54 21 10 28 -19 4 -25 8 -16 13 17 11 15 27 -4 27 -12 0 -14 10 -12 48 3 40 6 47 23 44 10 -2 24 -11 30 -19 7 -9 23 -13 45 -11 34 3 35 5 35 43 0 40 0 40 -42 43 -26 2 -43 -1 -43 -7 0 -6 -6 -11 -12 -11 -27 0 -41 19 -40 53 1 23 -4 37 -13 41 -27 10 -18 44 13 49 l27 4 -27 2 c-16 0 -28 6 -28 13 0 9 -3 9 -12 0 -8 -8 -45 -12 -102 -12 -57 0 -86 4 -77 9 8 5 20 7 27 4 14 -5 48 57 59 109 5 23 9 27 16 17 6 -9 9 3 9 35 0 27 -3 46 -7 42 -8 -7 -42 87 -43 116 0 10 11 19 28 23 28 6 29 6 31 90 1 74 -1 84 -18 90 -10 3 -21 18 -25 35 -7 38 -36 41 -36 5 0 -14 -7 -28 -15 -31 -11 -5 -15 -23 -15 -78 0 -81 -9 -96 -57 -96 l-32 0 6 73 c5 62 12 84 54 158 27 48 49 94 49 102 0 9 -9 32 -21 51 -19 33 -30 41 -51 37 -5 0 -8 6 -8 14 0 12 -18 15 -105 15 -89 0 -104 -2 -99 -15z m-1711 -296 c2 -3 1 -117 -3 -254 l-7 -250 -65 0 -65 0 -3 245 c-3 282 -6 274 86 267 29 -2 54 -6 57 -8z m225 -115 c0 -107 -6 -113 -107 -114 l-73 0 0 93 c0 52 3 97 7 100 3 4 44 7 90 7 l83 0 0 -86z m179 69 c0 -11 -3 -13 -6 -5 -3 7 -24 12 -54 12 l-49 0 0 -67 c0 -81 -8 -113 -26 -113 -11 0 -14 21 -14 95 l0 95 75 0 c65 0 75 -2 74 -17z m331 -3 c24 0 40 -5 44 -15 4 -13 -7 -15 -69 -15 -70 0 -75 1 -75 21 0 19 4 21 31 15 17 -3 48 -6 69 -6z m224 4 c9 -3 16 -14 16 -23 0 -13 -10 -15 -65 -13 -61 4 -79 14 -58 35 8 9 86 9 107 1z m-420 -19 c-4 -8 -7 -15 -8 -16 0 0 -20 -2 -43 -5 -39 -5 -43 -4 -43 15 0 19 6 21 50 21 40 0 48 -3 44 -15z m-938 -9 c8 -8 14 -19 14 -25 0 -6 6 -11 13 -12 6 0 2 -5 -10 -11 -23 -11 -23 -13 -23 -215 l0 -203 -60 0 -60 0 2 108 c1 59 3 89 5 67 3 -22 10 -43 16 -47 8 -5 8 -8 1 -8 -14 0 -14 -63 0 -72 8 -6 6 -11 -4 -19 -12 -8 -12 -9 5 -6 11 2 19 9 18 15 -2 7 8 12 22 12 17 0 25 6 26 18 0 9 2 41 3 70 3 42 1 52 -10 48 -8 -3 -14 1 -14 10 0 10 -8 13 -25 10 -15 -3 -23 -1 -20 5 4 5 -1 12 -9 15 -10 4 -16 18 -16 39 0 18 -6 35 -12 37 -9 3 -14 34 -16 91 l-4 87 72 0 c49 0 76 -5 86 -14z m1687 -23 c-7 -2 -19 -2 -25 0 -7 3 -2 5 12 5 14 0 19 -2 13 -5z m-680 -50 c-13 -2 -33 -2 -45 0 -13 2 -3 4 22 4 25 0 35 -2 23 -4z m115 0 c-15 -2 -42 -2 -60 0 -18 2 -6 4 27 4 33 0 48 -2 33 -4z m59 1 c-3 -3 -12 -4 -19 -1 -8 3 -5 6 6 6 11 1 17 -2 13 -5z m371 -11 c-32 -2 -84 -2 -115 0 -32 2 -6 3 57 3 63 0 89 -1 58 -3z m240 0 c-21 -2 -55 -2 -75 0 -21 2 -4 4 37 4 41 0 58 -2 38 -4z m162 0 c-19 -3 -38 -10 -42 -16 -6 -9 -8 -9 -8 0 0 6 -15 14 -32 16 -18 2 1 4 42 4 41 0 59 -2 40 -4z m-1543 -25 c-3 -8 -6 -5 -6 6 -1 11 2 17 5 13 3 -3 4 -12 1 -19z m440 -10 c-3 -7 -5 -2 -5 12 0 14 2 19 5 13 2 -7 2 -19 0 -25z m93 -42 c8 -2 -11 -4 -42 -5 -32 0 -58 2 -58 7 0 7 64 6 100 -2z m188 -3 c-10 -2 -26 -2 -35 0 -10 3 -2 5 17 5 19 0 27 -2 18 -5z m140 0 c-10 -2 -28 -2 -40 0 -13 2 -5 4 17 4 22 1 32 -1 23 -4z m208 -25 l29 -33 -32 29 c-31 28 -38 36 -30 36 2 0 16 -15 33 -32z m-231 -29 c11 -16 1 -19 -13 -3 -7 8 -8 14 -3 14 5 0 13 -5 16 -11z m-2512 -99 c0 -50 -3 -94 -7 -97 -3 -4 -6 40 -6 97 0 57 3 100 7 97 3 -4 6 -47 6 -97z m1674 8 c-2 -18 -4 -4 -4 32 0 36 2 50 4 33 2 -18 2 -48 0 -65z m330 60 c-3 -7 -5 -2 -5 12 0 14 2 19 5 13 2 -7 2 -19 0 -25z m837 -27 c-3 -3 -15 6 -27 18 l-22 24 27 -19 c14 -10 24 -21 22 -23z m333 -28 c-3 -10 -5 -4 -5 12 0 17 2 24 5 18 2 -7 2 -21 0 -30z m-580 -9 c-3 -3 -12 -4 -19 -1 -8 3 -5 6 6 6 11 1 17 -2 13 -5z m326 -1 c-7 -2 -21 -2 -30 0 -10 3 -4 5 12 5 17 0 24 -2 18 -5z m125 0 c-16 -2 -40 -2 -55 0 -16 2 -3 4 27 4 30 0 43 -2 28 -4z m-1931 -45 c-3 -7 -5 -2 -5 12 0 14 2 19 5 13 2 -7 2 -19 0 -25z m2116 5 c-7 -2 -19 -2 -25 0 -7 3 -2 5 12 5 14 0 19 -2 13 -5z m-1556 -35 c-3 -7 -5 -2 -5 12 0 14 2 19 5 13 2 -7 2 -19 0 -25z m-560 -60 c-2 -13 -4 -5 -4 17 -1 22 1 32 4 23 2 -10 2 -28 0 -40z m2310 16 c-3 -3 -12 -4 -19 -1 -8 3 -5 6 6 6 11 1 17 -2 13 -5z m151 -1 c-21 -2 -57 -2 -80 0 -24 2 -7 4 37 4 44 0 63 -2 43 -4z m-1041 -55 c-3 -8 -6 -5 -6 6 -1 11 2 17 5 13 3 -3 4 -12 1 -19z m783 7 c0 -8 -4 -15 -10 -15 -5 0 -7 7 -4 15 4 8 8 15 10 15 2 0 4 -7 4 -15z m-3292 -2 c-10 -2 -28 -2 -40 0 -13 2 -5 4 17 4 22 1 32 -1 23 -4z m99 1 c-3 -3 -12 -4 -19 -1 -8 3 -5 6 6 6 11 1 17 -2 13 -5z m320 0 c-3 -3 -12 -4 -19 -1 -8 3 -5 6 6 6 11 1 17 -2 13 -5z m1161 -51 c-10 -2 -26 -2 -35 0 -10 3 -2 5 17 5 19 0 27 -2 18 -5z m370 -18 c-3 -3 -9 2 -12 12 -6 14 -5 15 5 6 7 -7 10 -15 7 -18z m-457 0 c11 -4 19 -15 19 -29 0 -28 -9 -39 -24 -28 -18 14 -144 34 -158 26 -7 -4 -32 -11 -55 -14 -40 -6 -42 -6 -28 10 22 24 19 31 -12 25 -18 -3 -22 -2 -10 2 22 10 241 16 268 8z m146 -27 c-3 -7 -5 -2 -5 12 0 14 2 19 5 13 2 -7 2 -19 0 -25z m1570 10 c1 -11 7 -24 14 -29 6 -4 -10 -5 -37 -2 -27 3 -53 9 -58 14 -13 12 -63 11 -71 -1 -3 -5 -28 -10 -56 -10 -42 0 -49 -3 -49 -20 0 -11 4 -20 9 -20 4 0 6 -11 3 -25 -4 -24 -32 -36 -32 -15 0 6 -7 10 -15 10 -8 0 -15 -4 -15 -10 0 -6 -57 -10 -150 -10 -126 0 -150 2 -150 15 0 9 17 19 43 26 23 6 105 30 182 54 130 40 149 43 260 44 117 1 121 0 122 -21z m46 15 c-7 -2 -19 -2 -25 0 -7 3 -2 5 12 5 14 0 19 -2 13 -5z m90 0 c-7 -2 -19 -2 -25 0 -7 3 -2 5 12 5 14 0 19 -2 13 -5z m454 -25 c-3 -7 -5 -2 -5 12 0 14 2 19 5 13 2 -7 2 -19 0 -25z m-3073 -3 c4 -11 20 -15 55 -15 34 0 51 4 55 15 4 12 29 15 131 15 104 0 125 -2 125 -15 0 -18 -40 -20 -86 -3 -25 9 -39 8 -65 -2 -18 -8 -48 -13 -66 -11 -27 2 -33 -1 -33 -16 0 -11 4 -23 9 -29 4 -5 11 -21 15 -36 5 -21 3 -26 -8 -22 -16 6 -28 -19 -19 -42 3 -9 12 -13 22 -9 12 5 13 4 4 -6 -9 -9 -16 -9 -26 -1 -15 13 -27 6 -27 -15 0 -9 14 -13 43 -13 25 0 54 -8 72 -20 l30 -20 -180 0 -180 0 38 20 c20 11 55 20 77 20 30 0 40 4 40 16 0 12 -6 15 -25 10 -14 -4 -25 -2 -25 4 0 5 7 10 15 10 8 0 15 9 15 20 0 11 -7 23 -15 26 -23 9 -18 42 11 69 l27 25 -47 0 c-26 0 -61 7 -78 16 -20 10 -42 14 -62 9 -67 -14 -106 -17 -106 -8 0 20 17 23 136 23 99 0 123 -3 128 -15z m881 5 c16 -7 13 -9 -15 -9 -19 0 -44 4 -55 9 -16 7 -13 9 15 9 19 0 44 -4 55 -9z m-1197 -27 c-15 -2 -42 -2 -60 0 -18 2 -6 4 27 4 33 0 48 -2 33 -4z m1212 -18 c0 -24 -3 -25 -54 -25 -48 0 -54 -2 -49 -19 3 -14 -2 -20 -21 -23 -26 -5 -35 5 -16 17 5 3 17 21 26 40 15 33 19 35 65 35 46 0 49 -2 49 -25z m135 -8 c65 -17 91 -28 93 -40 3 -15 -11 -17 -142 -17 -95 0 -147 4 -152 11 -4 8 -9 7 -15 -2 -7 -11 -9 -10 -9 3 0 13 11 18 53 20 45 3 52 6 55 26 4 27 5 27 117 -1z m2042 -9 c-3 -8 -6 -5 -6 6 -1 11 2 17 5 13 3 -3 4 -12 1 -19z m-3477 -8 c0 -5 -4 -10 -10 -10 -5 0 -10 5 -10 10 0 6 5 10 10 10 6 0 10 -4 10 -10z m160 -5 c0 -8 -4 -15 -10 -15 -5 0 -10 7 -10 15 0 8 5 15 10 15 6 0 10 -7 10 -15z m630 5 c0 -5 -7 -10 -15 -10 -8 0 -15 5 -15 10 0 6 7 10 15 10 8 0 15 -4 15 -10z m157 4 c-3 -3 -12 -4 -19 -1 -8 3 -5 6 6 6 11 1 17 -2 13 -5z m620 0 c-3 -3 -12 -4 -19 -1 -8 3 -5 6 6 6 11 1 17 -2 13 -5z m43 -34 c0 -5 -11 -10 -25 -10 -14 0 -25 5 -25 10 0 6 11 10 25 10 14 0 25 -4 25 -10z m634 -4 c-3 -8 -13 -12 -25 -9 -16 5 -18 8 -7 14 20 13 38 11 32 -5z m817 -11 c5 4 6 -2 2 -11 -4 -10 -8 -13 -10 -7 -2 6 -12 10 -21 8 -9 -1 -11 0 -4 2 6 3 13 12 13 21 1 15 2 15 6 -1 2 -9 9 -15 14 -12z m-157 0 c3 -8 1 -15 -4 -15 -6 0 -10 7 -10 15 0 8 2 15 4 15 2 0 6 -7 10 -15z m-2754 -5 c0 -5 -8 -10 -17 -10 -15 0 -16 2 -3 10 19 12 20 12 20 0z m-107 -7 c-7 -2 -21 -2 -30 0 -10 3 -4 5 12 5 17 0 24 -2 18 -5z m2573 -52 c-24 -26 -20 -31 27 -31 25 0 54 -8 72 -20 l30 -20 -835 0 c-831 0 -835 1 -810 20 16 12 41 20 68 20 31 0 42 4 42 15 0 8 7 15 15 15 8 0 15 5 15 10 0 15 265 13 290 -2 14 -9 23 -10 28 -3 11 15 54 12 61 -5 7 -16 61 -25 61 -9 0 11 77 12 84 1 7 -12 78 -14 85 -3 4 6 21 7 43 2 23 -6 40 -5 47 2 8 8 11 8 11 -1 0 -15 76 -16 85 -2 7 12 82 13 89 2 6 -10 66 -3 66 8 0 15 51 18 57 4 6 -15 33 -19 33 -5 0 12 282 22 296 10 17 -14 44 0 45 25 1 18 2 18 6 3 3 -10 -2 -26 -11 -36z m-1761 -1 c52 0 64 3 67 18 3 14 5 13 10 -5 6 -23 5 -23 -85 -22 -51 0 -86 3 -79 6 6 2 13 12 13 21 1 15 2 15 6 0 4 -15 16 -18 68 -18z m2128 2 c42 1 79 -1 83 -5 4 -4 -36 -7 -89 -7 -84 0 -96 2 -90 16 4 11 8 12 13 4 5 -7 34 -10 83 -8z m-2826 -6 c4 -3 -35 -6 -86 -6 -51 0 -90 3 -88 8 6 8 166 7 174 -2z m468 -4 c-3 -3 -11 0 -18 7 -9 10 -8 11 6 5 10 -3 15 -9 12 -12z m558 11 c-7 -2 -21 -2 -30 0 -10 3 -4 5 12 5 17 0 24 -2 18 -5z m-963 -62 c18 -7 -24 -10 -150 -10 -170 -1 -174 0 -145 16 39 22 232 34 255 16 9 -7 27 -16 40 -22z m770 7 c24 -17 19 -18 -140 -18 l-164 0 32 23 c31 20 41 22 140 17 80 -4 113 -9 132 -22z m2112 2 l33 -20 -170 0 -170 0 35 19 c52 29 225 30 272 1z"/>
<path d="M12527 5383 c-4 -3 -7 -28 -7 -55 0 -36 4 -48 15 -48 12 0 15 13 15 55 0 51 -7 65 -23 48z"/>
<path d="M11650 5336 c0 -8 111 -68 116 -63 3 2 -20 19 -50 36 -55 31 -66 35 -66 27z"/>
<path d="M11906 5301 c-4 -6 20 -24 54 -41 35 -18 60 -37 60 -46 0 -10 6 -14 15 -10 8 3 15 1 15 -5 0 -6 7 -8 16 -5 8 3 28 -1 44 -9 16 -8 35 -15 41 -15 7 0 -37 25 -97 56 -60 31 -116 62 -126 71 -10 9 -18 11 -22 4z"/>
<path d="M11086 4097 c-12 -9 -17 -23 -14 -47 2 -29 10 -38 42 -55 44 -23 54 -39 36 -60 -20 -24 -49 -18 -61 12 -12 31 -31 19 -22 -15 7 -27 45 -39 82 -26 22 8 26 15 26 49 0 36 -4 42 -40 61 -49 25 -55 57 -12 62 19 2 27 -1 27 -12 0 -9 7 -16 15 -16 22 0 18 27 -7 44 -27 19 -48 20 -72 3z"/>
<path d="M11665 4085 c-21 -20 -25 -34 -25 -82 0 -83 18 -105 78 -100 l47 4 0 49 c0 48 -1 49 -32 52 -37 4 -46 -16 -12 -25 24 -7 23 -41 -3 -57 -38 -24 -73 66 -49 127 12 31 47 37 66 11 6 -9 18 -15 26 -12 10 3 6 12 -13 31 -33 33 -52 34 -83 2z"/>
<path d="M10232 4088 c-14 -14 -16 -48 -3 -48 5 0 13 9 16 21 9 26 39 21 43 -8 2 -14 -4 -26 -19 -33 l-21 -12 23 -12 c28 -13 36 -41 19 -61 -18 -21 -41 -18 -47 5 -3 11 -12 20 -19 20 -18 0 -18 -10 2 -38 17 -24 62 -30 82 -10 15 15 16 70 1 85 -8 8 -7 16 2 31 20 32 -2 72 -39 72 -15 0 -33 -5 -40 -12z"/>
<path d="M10420 4091 c0 -5 12 -11 27 -13 27 -3 27 -3 28 -87 0 -58 4 -86 13 -88 9 -4 12 18 12 86 0 90 0 91 25 91 14 0 25 5 25 10 0 6 -28 10 -65 10 -36 0 -65 -4 -65 -9z"/>
<path d="M10890 4000 c0 -60 4 -100 10 -100 6 0 10 13 10 29 0 43 14 45 33 6 9 -19 21 -35 27 -35 15 0 12 16 -9 58 -19 37 -19 38 0 61 29 35 14 39 -21 6 l-30 -29 0 52 c0 29 -4 52 -10 52 -6 0 -10 -40 -10 -100z"/>
<path d="M11210 4001 c0 -61 4 -101 10 -101 6 0 10 24 10 53 0 60 10 80 36 75 16 -3 20 -14 22 -66 4 -82 22 -80 22 2 0 74 -17 103 -50 86 -16 -8 -19 -6 -22 17 -2 14 -9 28 -15 31 -10 3 -13 -21 -13 -97z"/>
<path d="M12320 4074 c0 -22 -3 -25 -22 -21 -37 10 -58 -18 -58 -78 0 -61 11 -74 63 -72 l37 1 0 98 c0 59 -4 98 -10 98 -5 0 -10 -12 -10 -26z m-6 -75 c7 -35 -8 -79 -28 -79 -17 0 -26 22 -26 64 0 59 42 71 54 15z"/>
<path d="M12440 4000 l0 -100 50 0 c58 0 68 17 13 22 -36 3 -38 5 -38 38 0 32 3 35 33 38 43 4 41 22 -3 22 -32 0 -35 2 -35 30 0 28 2 30 40 30 22 0 40 5 40 10 0 6 -22 10 -50 10 l-50 0 0 -100z"/>
<path d="M12830 4085 c0 -8 5 -15 10 -15 6 0 10 7 10 15 0 8 -4 15 -10 15 -5 0 -10 -7 -10 -15z"/>
<path d="M10786 4047 c-25 -19 -33 -90 -12 -122 26 -40 86 -29 86 17 0 25 -17 23 -25 -3 -4 -12 -14 -19 -23 -17 -25 5 -30 96 -6 105 10 4 20 0 26 -10 11 -20 28 -22 28 -4 0 16 -31 47 -46 47 -6 0 -18 -6 -28 -13z"/>
<path d="M11363 4050 c-13 -5 -23 -16 -23 -25 0 -20 10 -19 25 2 11 14 15 15 28 4 21 -16 12 -38 -18 -45 -14 -4 -29 -15 -35 -26 -22 -40 26 -80 58 -48 9 9 12 9 12 0 0 -7 7 -12 16 -12 11 0 14 5 10 16 -3 9 -6 37 -6 64 0 31 -6 54 -16 64 -17 18 -20 18 -51 6z m38 -109 c-15 -26 -41 -27 -41 -1 0 21 31 43 43 30 5 -4 4 -17 -2 -29z"/>
<path d="M11815 4035 c-46 -45 -23 -140 32 -133 27 3 53 32 40 44 -4 4 -13 -1 -21 -11 -16 -23 -46 -13 -46 15 0 16 6 20 35 20 32 0 35 3 35 28 0 26 -26 62 -44 62 -4 0 -18 -11 -31 -25z m45 -9 c0 -2 3 -11 6 -20 5 -12 0 -16 -20 -16 -24 0 -35 18 -19 33 7 8 33 10 33 3z"/>
<path d="M11928 4038 c-17 -17 -18 -23 -8 -26 8 -3 16 0 18 7 6 17 42 13 42 -4 0 -9 -10 -19 -23 -24 -34 -13 -50 -37 -43 -66 6 -22 11 -24 50 -23 l43 2 -4 66 c-4 43 -11 69 -21 78 -22 17 -29 15 -54 -10z m52 -82 c0 -27 -27 -43 -44 -26 -8 8 -4 17 13 31 30 24 31 24 31 -5z"/>
<path d="M12142 4043 c-48 -41 -32 -138 22 -138 29 0 57 27 42 42 -4 4 -12 0 -17 -10 -12 -21 -35 -22 -43 -1 -11 29 -6 34 29 34 32 0 35 2 35 29 0 28 -22 61 -40 61 -4 0 -17 -8 -28 -17z m46 -36 c3 -12 -3 -17 -22 -17 -25 0 -35 18 -19 34 12 12 38 2 41 -17z"/>
<path d="M12611 4051 c-8 -5 -20 -7 -28 -4 -10 4 -13 -11 -13 -71 0 -91 18 -102 22 -13 3 56 5 62 26 65 21 3 22 0 22 -62 0 -37 4 -66 10 -66 14 0 13 133 -2 148 -14 14 -18 15 -37 3z"/>
<path d="M12710 4040 c-45 -45 -14 -151 40 -137 24 6 26 -5 5 -23 -12 -10 -18 -10 -30 0 -22 18 -32 3 -12 -17 13 -13 23 -15 44 -7 27 9 28 12 33 99 3 50 5 90 5 91 0 1 -15 4 -33 7 -25 5 -37 2 -52 -13z m58 -55 c3 -46 -9 -70 -31 -62 -21 8 -31 61 -17 87 19 35 45 21 48 -25z"/>
<path d="M12931 4051 c-7 -5 -22 -6 -33 -3 -18 4 -19 0 -16 -68 4 -96 26 -109 30 -18 3 57 5 63 26 66 21 3 22 0 22 -62 0 -37 4 -66 10 -66 6 0 10 30 10 70 0 57 -3 71 -18 79 -10 5 -24 6 -31 2z"/>
<path d="M13030 4040 c-14 -14 -20 -33 -20 -64 0 -48 19 -76 50 -76 19 0 50 25 50 41 0 15 -27 10 -34 -6 -8 -22 -34 -18 -41 6 -9 27 -4 31 39 31 31 0 36 3 36 24 0 24 -31 64 -50 64 -5 0 -19 -9 -30 -20z m50 -30 c0 -13 -7 -20 -18 -20 -24 0 -32 8 -25 26 8 22 43 17 43 -6z"/>
<path d="M10553 4034 c-8 -21 2 -124 12 -124 6 0 11 25 13 56 3 46 7 57 23 61 10 3 19 9 19 14 0 13 -62 7 -67 -7z"/>
<path d="M10642 3978 l3 -73 43 -1 42 -2 0 74 c0 43 -4 74 -10 74 -6 0 -10 -26 -10 -59 0 -45 -4 -60 -16 -65 -27 -10 -34 3 -34 65 0 34 -4 59 -10 59 -7 0 -10 -27 -8 -72z"/>
<path d="M11450 4044 c0 -4 9 -38 21 -76 22 -74 20 -98 -7 -98 -13 0 -14 -3 -4 -15 10 -13 -9 -15 -151 -18 -90 -1 113 -2 451 -2 421 0 473 1 166 2 -378 3 -446 5 -437 17 9 11 71 179 71 193 0 2 -6 3 -13 3 -7 0 -19 -22 -26 -51 -15 -56 -22 -55 -40 9 -6 23 -16 42 -21 42 -6 0 -10 -3 -10 -6z"/>
<path d="M12040 3973 c0 -42 4 -73 10 -73 6 0 10 25 10 55 0 44 4 57 20 67 28 18 25 27 -10 26 l-30 -1 0 -74z"/>
<path d="M12830 3975 c0 -43 4 -75 10 -75 6 0 10 32 10 75 0 43 -4 75 -10 75 -6 0 -10 -32 -10 -75z"/>
<path d="M10350 3985 c0 -10 10 -15 30 -15 20 0 30 5 30 15 0 10 -10 15 -30 15 -20 0 -30 -5 -30 -15z"/>
</g>
</svg>