<svg xmlns="http://www.w3.org/2000/svg" viewBox="22.90 39.00 446.20 170.90">
<g transform="translate(0.000000,768.000000) scale(0.100000,-0.100000)" fill="currentColor" stroke="none">
<path d="M1077 7214 c-17 -23 -17 -27 -3 -42 12 -15 16 -54 18 -222 l3 -205 -35 -1 c-19 0 -42 -4 -51 -8 -9 -4 -38 -5 -65 -3 l-49 3 57 2 c56 2 84 16 54 28 -13 5 -16 24 -16 104 0 84 -3 99 -20 115 -11 10 -20 24 -20 32 0 7 -9 13 -20 13 -11 0 -20 6 -20 14 0 23 17 28 34 10 9 -8 16 -11 16 -5 0 6 -9 15 -19 20 -21 12 -44 -7 -40 -31 5 -23 -12 -58 -27 -58 -8 0 -14 -7 -14 -15 0 -8 -4 -15 -10 -15 -6 0 -10 -32 -10 -75 0 -43 4 -75 10 -75 6 0 10 -7 10 -15 0 -8 -4 -15 -10 -15 -5 0 -10 -7 -10 -15 0 -8 6 -15 14 -15 8 0 16 -5 18 -10 2 -6 31 -16 66 -23 34 -7 60 -15 58 -18 -3 -3 -7 -20 -8 -39 -2 -22 -8 -35 -20 -38 -14 -3 -18 -15 -18 -57 0 -45 3 -53 21 -58 12 -3 20 -10 18 -15 -7 -17 -196 -192 -208 -192 -7 0 -11 27 -11 75 0 48 -4 75 -11 75 -8 0 -10 -24 -7 -75 3 -65 1 -75 -14 -75 -9 0 -56 -26 -105 -58 -48 -32 -132 -87 -185 -121 -54 -35 -98 -67 -98 -72 0 -5 85 -9 190 -9 l190 0 0 90 0 90 28 1 c15 1 33 1 40 0 6 -1 12 3 12 9 0 16 115 12 160 -6 32 -13 41 -22 46 -50 l6 -34 138 0 138 0 7 41 7 42 147 -7 c104 -5 151 -12 162 -22 20 -18 29 -18 29 2 0 12 6 15 23 10 12 -3 25 -6 29 -6 4 0 8 -12 10 -27 2 -22 9 -29 31 -31 15 -2 27 -9 27 -18 0 -22 41 -17 47 6 9 35 48 25 70 -17 13 -25 39 -49 73 -70 l54 -33 -284 0 c-257 1 -282 2 -258 16 57 30 59 131 4 169 -34 24 -100 19 -135 -11 -17 -14 -31 -32 -31 -40 0 -11 -27 -14 -149 -14 l-150 0 -17 29 c-53 89 -194 55 -194 -46 0 -43 21 -80 54 -93 12 -5 -99 -9 -277 -9 l-298 -1 3 -27 3 -28 2175 0 2175 0 3 28 3 27 -163 0 c-117 1 -158 4 -145 11 9 6 14 16 11 22 -4 7 -4 9 1 5 17 -16 35 16 35 59 0 63 -40 103 -104 103 -24 0 -48 -4 -51 -10 -10 -16 -65 -12 -65 5 0 12 16 15 84 15 84 0 84 0 115 -36 17 -19 39 -34 49 -33 45 4 71 -2 76 -19 3 -9 19 -32 35 -50 23 -24 38 -32 63 -31 l33 1 -34 12 c-40 14 -81 59 -81 89 0 16 3 18 12 9 7 -7 31 -12 55 -12 l43 0 0 40 0 40 -45 0 c-26 0 -45 -5 -45 -11 0 -7 -8 -9 -22 -4 -13 3 -27 7 -33 7 -5 1 -11 19 -12 40 -2 36 -1 39 20 34 12 -3 16 -3 9 0 -6 3 -10 10 -6 15 3 5 -15 9 -40 9 -46 0 -46 0 -46 34 0 26 5 35 23 40 18 5 19 8 7 15 -8 5 -18 7 -22 5 -15 -10 -9 251 7 289 8 20 15 38 15 41 0 3 -209 2 -465 -1 l-465 -6 0 21 c0 21 -4 22 -100 22 l-100 0 0 -59 c0 -44 -4 -60 -16 -65 -25 -10 -34 -7 -34 9 0 8 -4 15 -10 15 -5 0 -10 -7 -10 -15 0 -8 -7 -15 -15 -15 -13 0 -15 -25 -15 -165 l0 -165 -41 0 c-35 0 -41 -3 -37 -18 4 -15 0 -17 -29 -14 -33 4 -33 4 -33 58 0 41 4 54 15 54 13 0 15 24 15 160 0 100 -4 160 -10 160 -14 0 -13 207 0 215 6 4 59 11 118 17 59 6 113 15 120 21 7 6 12 22 10 36 l-3 26 -392 3 -393 2 2 -40 c1 -22 6 -40 12 -40 7 0 11 -29 11 -80 l0 -80 -27 0 c-24 0 -28 4 -28 30 0 17 -4 30 -9 30 -5 0 -11 29 -13 65 -2 39 1 65 7 65 6 0 3 5 -5 10 -8 5 -11 10 -6 10 6 0 -5 15 -22 33 -18 18 -29 36 -26 40 4 4 2 7 -4 7 -7 0 -12 3 -12 8 0 4 38 6 84 4 83 -3 85 -4 89 -30 3 -21 4 -18 6 11 l1 37 -94 0 c-81 0 -95 -2 -100 -17 -2 -10 -2 3 1 29 7 61 -3 106 -20 89 -7 -7 -11 -35 -9 -71 2 -38 -1 -60 -7 -60 -6 0 -11 4 -11 10 0 5 -7 7 -15 4 -8 -4 -15 -11 -15 -16 0 -5 -16 -28 -35 -50 -19 -23 -32 -45 -28 -51 10 -16 6 -113 -6 -135 -6 -11 -11 -28 -11 -36 0 -15 -26 -21 -70 -17 -9 1 -60 -8 -114 -19 -54 -11 -115 -20 -136 -20 -33 0 -41 4 -54 32 -19 37 -21 81 -4 108 11 17 8 23 -22 50 -18 16 -40 30 -47 30 -8 0 -12 4 -9 9 11 16 -28 23 -40 7 -6 -9 -16 -16 -21 -16 -6 0 -21 -11 -35 -25 -22 -22 -24 -31 -20 -75 3 -34 -1 -61 -12 -85 l-17 -36 -92 3 c-85 3 -92 5 -95 24 -2 15 4 23 18 27 15 4 19 10 14 19 -13 20 -34 81 -34 101 0 9 -4 17 -10 17 -5 0 -10 -9 -10 -19 0 -11 -4 -22 -9 -25 -4 -3 -11 -18 -14 -33 -3 -16 -9 -37 -13 -47 -6 -16 -4 -18 10 -13 14 6 17 2 14 -21 -3 -26 -5 -27 -84 -32 -130 -8 -118 -29 -110 203 5 142 11 208 20 222 12 18 11 24 -4 43 -15 19 -28 22 -82 22 -56 -1 -65 -4 -81 -26z m1563 -326 c0 8 19 12 63 12 l62 0 -4 -102 c-2 -59 -7 -92 -10 -78 -5 18 -15 26 -34 28 -23 3 -27 8 -27 35 0 36 -29 125 -30 91 0 -13 -6 -20 -17 -19 -20 1 -23 6 -23 33 0 14 2 15 10 2 6 -10 10 -11 10 -2z m370 -98 l0 -110 -95 0 -95 0 0 110 0 110 95 0 95 0 0 -110z m-453 -42 c-3 -7 -5 -2 -5 12 0 14 2 19 5 13 2 -7 2 -19 0 -25z m-114 -5 c-57 -2 -149 -2 -205 0 -57 1 -11 3 102 3 113 0 159 -2 103 -3z m344 -55 c-3 -8 -6 -5 -6 6 -1 11 2 17 5 13 3 -3 4 -12 1 -19z m280 -145 c-2 -32 -3 -8 -3 52 0 61 1 87 3 58 2 -29 2 -78 0 -110z m-6 -136 c-8 -8 -11 -1 -11 24 0 46 14 60 18 19 2 -18 -1 -37 -7 -43z m-2049 -28 c7 -5 18 -9 24 -9 24 0 24 -44 1 -65 -19 -17 -36 -20 -122 -20 l-100 0 85 82 85 82 7 -31 c3 -17 12 -34 20 -39z m1381 64 c-7 -2 -21 -2 -30 0 -10 3 -4 5 12 5 17 0 24 -2 18 -5z m160 0 c-7 -2 -21 -2 -30 0 -10 3 -4 5 12 5 17 0 24 -2 18 -5z m144 1 c-3 -3 -12 -4 -19 -1 -8 3 -5 6 6 6 11 1 17 -2 13 -5z m50 -20 c-3 -3 -12 -4 -19 -1 -8 3 -5 6 6 6 11 1 17 -2 13 -5z m-817 -17 c0 -2 -10 -12 -22 -23 l-23 -19 19 23 c18 21 26 27 26 19z m670 0 c0 -2 -12 -14 -27 -28 l-28 -24 24 28 c23 25 31 32 31 24z m-359 -24 c13 -16 12 -17 -3 -4 -17 13 -22 21 -14 21 2 0 10 -8 17 -17z m-291 3 c0 -2 -8 -10 -17 -17 -16 -13 -17 -12 -4 4 13 16 21 21 21 13z m760 0 c0 -3 -4 -8 -10 -11 -5 -3 -10 -1 -10 4 0 6 5 11 10 11 6 0 10 -2 10 -4z m64 -11 c-4 -8 -7 -15 -9 -15 -2 0 -5 7 -9 15 -3 9 0 15 9 15 9 0 12 -6 9 -15z m-1109 -14 c-8 -13 -395 -15 -395 -1 0 6 69 10 201 10 120 0 198 -4 194 -9z m90 0 c-3 -5 -1 -12 5 -16 16 -10 12 -55 -4 -55 -9 0 -16 12 -18 33 -2 25 -8 32 -25 32 -11 0 -25 3 -29 8 -4 4 12 7 35 7 23 0 40 -4 36 -9z m125 1 c0 -4 -5 -13 -11 -19 -7 -7 -18 -33 -25 -60 -9 -36 -13 -41 -13 -20 -1 22 -6 27 -26 27 -22 0 -25 4 -25 40 l0 40 50 0 c28 0 50 -4 50 -8z m-260 -47 l0 -25 -155 0 c-106 0 -162 4 -178 13 -21 12 -37 27 -37 37 0 3 83 4 185 2 l185 -3 0 -24z m37 -12 c-3 -10 -5 -4 -5 12 0 17 2 24 5 18 2 -7 2 -21 0 -30z m63 12 c0 -16 -6 -25 -15 -25 -9 0 -15 9 -15 25 0 16 6 25 15 25 9 0 15 -9 15 -25z m1247 -62 c-3 -10 -5 -4 -5 12 0 17 2 24 5 18 2 -7 2 -21 0 -30z m-1289 -26 c12 -3 10 -5 -5 -6 -19 -1 -23 4 -22 27 1 22 2 23 6 5 2 -12 12 -24 21 -26z m-295 26 c-7 -2 -21 -2 -30 0 -10 3 -4 5 12 5 17 0 24 -2 18 -5z m164 1 c-3 -3 -12 -4 -19 -1 -8 3 -5 6 6 6 11 1 17 -2 13 -5z m310 -51 c-3 -10 -5 -2 -5 17 0 19 2 27 5 18 2 -10 2 -26 0 -35z m-94 10 c-7 -2 -21 -2 -30 0 -10 3 -4 5 12 5 17 0 24 -2 18 -5z m50 -10 c-7 -2 -19 -2 -25 0 -7 3 -2 5 12 5 14 0 19 -2 13 -5z m1299 -5 c2 -6 2 -24 0 -40 -8 -50 -82 -30 -82 22 0 28 2 30 39 30 22 0 41 -5 43 -12z m121 -2 c3 -8 -2 -21 -11 -29 -16 -14 -17 -13 -19 14 -2 30 20 42 30 15z m187 -1 c0 -17 -40 -21 -55 -6 -6 5 -21 11 -35 14 -14 2 1 5 33 6 45 1 57 -2 57 -14z m220 4 c-118 -22 -120 -22 -120 -5 0 14 13 16 83 15 75 -2 78 -2 37 -10z m250 1 c0 -6 -7 -13 -16 -17 -8 -3 -13 -12 -10 -19 3 -8 0 -13 -6 -11 -6 1 -16 -13 -21 -31 -8 -26 -7 -41 6 -68 9 -18 22 -34 27 -34 6 0 8 6 4 13 -4 6 -3 8 1 4 5 -4 10 -14 11 -22 2 -12 -16 -15 -98 -15 l-101 0 26 24 c48 44 48 108 1 151 l-26 24 93 4 c52 1 97 4 102 5 4 1 7 -3 7 -8z m167 -5 c0 -17 -47 -21 -62 -6 -6 5 -21 11 -35 14 -14 2 2 5 36 6 48 1 61 -2 61 -14z m-1037 -34 c0 -47 -8 -55 -44 -38 -16 8 -26 20 -26 35 0 25 15 30 24 7 3 -8 13 -15 23 -15 13 0 14 3 5 12 -17 17 -15 38 3 38 11 0 15 -11 15 -39z m-1226 13 c9 -3 16 -13 16 -21 0 -10 -6 -13 -16 -9 -9 3 -18 6 -20 6 -3 0 -2 5 1 10 3 6 1 10 -4 10 -6 0 -11 -4 -11 -10 0 -5 -4 -10 -10 -10 -5 0 -10 7 -10 15 0 15 26 20 54 9z m-1164 -27 c0 -2 -10 -12 -22 -23 l-23 -19 19 23 c18 21 26 27 26 19z m513 -4 c-18 -2 -48 -2 -65 0 -18 2 -4 4 32 4 36 0 50 -2 33 -4z m2042 -3 c3 -5 3 -10 -2 -10 -4 0 -18 -3 -30 -6 -17 -5 -23 -2 -23 10 0 18 45 23 55 6z m225 -6 c0 -9 -5 -14 -12 -12 -18 6 -21 28 -4 28 9 0 16 -7 16 -16z m150 1 c0 -8 -7 -15 -15 -15 -16 0 -20 12 -8 23 11 12 23 8 23 -8z m488 4 c-2 -6 -8 -10 -13 -10 -5 0 -11 4 -13 10 -2 6 4 11 13 11 9 0 15 -5 13 -11z m146 -4 c-7 -17 -20 -20 -28 -6 -7 10 3 21 20 21 8 0 11 -6 8 -15z m-2384 -9 c0 -3 -4 -8 -10 -11 -5 -3 -10 -1 -10 4 0 6 5 11 10 11 6 0 10 -2 10 -4z m146 -11 c-19 -14 -36 -12 -36 6 0 5 12 9 28 9 26 -1 26 -1 8 -15z m1174 -3 l70 5 0 -29 c0 -19 10 -40 29 -59 l29 -29 -231 0 -232 1 36 19 c19 10 52 37 72 59 37 41 38 41 63 25 20 -14 30 -15 50 -5 16 7 22 16 18 24 -5 8 -2 7 9 -2 13 -10 36 -12 87 -9z m-1110 -6 c0 -7 -7 -19 -15 -26 -21 -17 -51 6 -34 26 15 18 49 18 49 0z m188 -4 c-7 -7 -14 -9 -17 -4 -3 5 -15 12 -26 15 -11 3 -4 4 17 3 28 -1 34 -4 26 -14z m622 -8 c0 -19 -58 -44 -101 -44 -28 0 -31 2 -25 25 4 14 2 25 -4 25 -5 0 -10 -6 -10 -14 0 -8 -5 -18 -11 -22 -16 -9 -31 10 -23 30 5 13 16 16 43 14 29 -2 37 -8 39 -25 2 -13 7 -23 11 -23 5 0 6 11 3 25 -5 31 10 32 32 3 14 -19 16 -20 11 -4 -3 11 0 23 7 27 15 10 28 2 28 -17z m45 17 c3 -5 0 -13 -6 -17 -7 -4 -9 -3 -5 4 3 6 -2 13 -11 15 -16 4 -16 5 -1 6 9 0 19 -3 23 -8z m-815 -37 c0 -17 -5 -24 -20 -24 -22 0 -25 12 -9 41 13 25 29 16 29 -17z m57 6 c0 -18 -6 -30 -13 -30 -21 0 -10 56 12 60 0 0 1 -13 1 -30z m523 26 c0 -2 -7 -6 -15 -10 -8 -3 -15 -1 -15 4 0 6 7 10 15 10 8 0 15 -2 15 -4z m774 -11 c3 -8 1 -15 -4 -15 -6 0 -10 7 -10 15 0 8 2 15 4 15 2 0 6 -7 10 -15z m636 0 c0 -8 -4 -15 -10 -15 -5 0 -7 7 -4 15 4 8 8 15 10 15 2 0 4 -7 4 -15z m-2703 -67 l27 -28 -214 0 -214 0 27 28 c15 15 27 35 27 43 0 12 24 14 150 11 118 -2 150 0 151 10 0 7 5 2 10 -12 6 -14 22 -37 36 -52z m810 49 c-6 -20 -27 -19 -27 2 0 14 5 19 15 14 9 -3 14 -10 12 -16z m-1617 9 c0 -2 -8 -10 -17 -17 -16 -13 -17 -12 -4 4 13 16 21 21 21 13z m2068 -39 c9 -8 31 -22 47 -30 28 -15 11 -16 -260 -16 -260 0 -286 1 -251 14 22 7 47 22 57 32 17 16 37 18 205 16 147 -1 189 -4 202 -16z m975 -19 c9 -10 17 -20 17 -23 0 -3 -60 -5 -132 -5 l-133 0 28 23 c24 19 40 22 115 22 70 0 91 -4 105 -17z m640 -6 l21 -22 -137 0 -138 0 26 23 c23 19 37 22 116 21 78 0 93 -3 112 -22z"/>
<path d="M1010 6060 c0 -6 57 -10 150 -10 93 0 150 4 150 10 0 6 -57 10 -150 10 -93 0 -150 -4 -150 -10z"/>
<path d="M1737 5842 c-23 -26 -24 -154 -1 -176 34 -35 79 -10 90 50 18 99 -40 181 -89 126z m61 -83 c3 -75 -13 -103 -42 -74 -19 20 -22 115 -4 133 28 28 43 9 46 -59z"/>
<path d="M3376 5853 c-11 -11 -6 -23 9 -23 8 0 15 4 15 9 0 13 -16 22 -24 14z"/>
</g>
</svg>