<svg xmlns="http://www.w3.org/2000/svg" viewBox="705.00 524.60 681.00 248.90">
<g transform="translate(0.000000,768.000000) scale(0.100000,-0.100000)" fill="currentColor" stroke="none">
<path d="M9835 2361 c-12 -20 -55 -142 -55 -156 0 -10 11 -15 35 -15 24 0 35 -5 35 -15 0 -8 6 -15 13 -15 16 0 41 54 27 58 -5 2 -10 17 -10 33 0 19 -5 29 -15 29 -10 0 -15 -10 -15 -30 0 -23 -4 -30 -20 -30 -19 0 -19 2 5 66 14 37 25 70 25 75 0 12 -17 11 -25 0z"/>
<path d="M10059 2323 c-27 -61 -36 -128 -19 -148 15 -18 61 -20 78 -3 23 23 12 108 -13 108 -23 0 -27 18 -10 49 19 37 19 41 0 41 -9 0 -25 -20 -36 -47z m39 -92 c5 -32 -5 -52 -23 -45 -15 6 -21 55 -8 68 12 12 28 0 31 -23z"/>
<path d="M10279 2349 c-16 -16 -18 -24 -9 -32 8 -9 15 -7 25 7 15 19 45 16 45 -5 0 -7 -16 -40 -35 -75 -19 -34 -35 -67 -35 -73 0 -7 21 -11 51 -11 36 0 49 4 47 13 -3 6 -17 13 -31 15 -15 2 -27 5 -27 8 0 2 11 21 24 42 36 54 42 89 21 112 -23 26 -50 25 -76 -1z"/>
<path d="M10454 2356 c-8 -22 -1 -59 14 -64 8 -2 12 9 12 37 0 40 -15 55 -26 27z"/>
<path d="M10494 2356 c-8 -22 -1 -59 14 -64 8 -2 12 9 12 37 0 40 -15 55 -26 27z"/>
<path d="M10550 2265 c0 -87 3 -105 15 -105 11 0 15 11 15 40 0 37 2 40 29 40 36 0 55 23 55 67 0 44 -24 63 -76 63 l-38 0 0 -105z m85 40 c0 -25 -4 -30 -27 -33 -26 -3 -28 -1 -28 33 0 34 2 36 28 33 23 -3 27 -8 27 -33z"/>
<path d="M10940 2355 c0 -9 5 -15 11 -13 6 2 11 8 11 13 0 5 -5 11 -11 13 -6 2 -11 -4 -11 -13z"/>
<path d="M11012 2357 c-13 -15 -16 -42 -14 -129 2 -53 5 -68 17 -68 12 0 15 14 15 65 0 43 4 64 11 63 6 -2 14 3 16 10 3 6 -2 12 -11 12 -21 0 -21 26 0 34 17 7 10 26 -10 26 -8 0 -18 -6 -24 -13z"/>
<path d="M11080 2356 c0 -9 7 -16 16 -16 9 0 14 5 12 12 -6 18 -28 21 -28 4z"/>
<path d="M11254 2356 c-8 -22 -1 -59 14 -64 8 -2 12 9 12 37 0 40 -15 55 -26 27z"/>
<path d="M11294 2355 c-8 -19 3 -65 15 -65 10 0 19 50 13 68 -5 17 -22 15 -28 -3z"/>
<path d="M10700 2295 c-18 -21 -4 -32 21 -17 22 14 39 8 39 -14 0 -8 -10 -14 -24 -14 -31 0 -48 -22 -44 -57 3 -26 7 -28 46 -29 l42 -2 0 68 c0 53 -4 69 -16 74 -27 10 -51 7 -64 -9z m58 -87 c-2 -13 -11 -24 -21 -26 -22 -4 -35 27 -16 39 25 16 41 10 37 -13z"/>
<path d="M10826 2295 c-18 -19 -22 -86 -6 -116 16 -29 90 -23 90 7 0 17 -12 18 -26 4 -22 -22 -44 1 -44 45 0 48 15 61 43 37 21 -19 35 -8 21 16 -15 23 -58 27 -78 7z"/>
<path d="M10940 2236 c0 -62 3 -76 15 -76 13 0 15 12 13 72 -2 46 -7 73 -15 76 -10 3 -13 -16 -13 -72z"/>
<path d="M11080 2235 c0 -60 3 -75 15 -75 12 0 15 15 15 75 0 60 -3 75 -15 75 -12 0 -15 -15 -15 -75z"/>
<path d="M11146 2288 c-27 -38 -18 -113 16 -124 28 -8 68 4 68 21 0 18 -12 19 -28 3 -18 -18 -42 9 -42 47 0 42 26 67 45 42 17 -24 27 -21 23 6 -5 33 -60 37 -82 5z"/>
<path d="M9920 2235 c0 -11 11 -15 40 -15 29 0 40 4 40 15 0 11 -11 15 -40 15 -29 0 -40 -4 -40 -15z"/>
<path d="M10160 2235 c0 -11 11 -15 40 -15 29 0 40 4 40 15 0 11 -11 15 -40 15 -29 0 -40 -4 -40 -15z"/>
<path d="M7842 1983 l538 -3 3 -993 2 -992 3 992 2 992 98 4 c53 1 -191 3 -543 2 -614 0 -618 0 -103 -2z"/>
<path d="M9508 1983 c508 -2 1336 -2 1840 0 504 1 89 2 -923 2 -1012 0 -1425 -1 -917 -2z"/>
<path d="M12278 1983 c7 -3 16 -2 19 1 4 3 -2 6 -13 5 -11 0 -14 -3 -6 -6z"/>
<path d="M12328 1983 c7 -3 16 -2 19 1 4 3 -2 6 -13 5 -11 0 -14 -3 -6 -6z"/>
<path d="M12443 1983 c48 -2 125 -2 170 0 45 1 6 3 -88 3 -93 0 -130 -2 -82 -3z"/>
<path d="M12718 1983 c7 -3 16 -2 19 1 4 3 -2 6 -13 5 -11 0 -14 -3 -6 -6z"/>
<path d="M12853 1983 c59 -2 155 -2 215 0 59 1 10 3 -108 3 -118 0 -167 -2 -107 -3z"/>
<path d="M13228 1983 c23 -2 61 -2 85 0 23 2 4 4 -43 4 -47 0 -66 -2 -42 -4z"/>
<path d="M13387 1983 c18 -2 50 -2 70 0 21 2 7 4 -32 4 -38 0 -55 -2 -38 -4z"/>
<path d="M13568 1983 c7 -3 16 -2 19 1 4 3 -2 6 -13 5 -11 0 -14 -3 -6 -6z"/>
<path d="M13613 1983 c9 -2 25 -2 35 0 9 3 1 5 -18 5 -19 0 -27 -2 -17 -5z"/>
<path d="M9090 1740 c0 -11 5 -20 10 -20 15 0 13 -223 -2 -238 -6 -6 -8 -15 -5 -19 11 -10 122 -17 153 -9 25 7 25 7 9 32 -14 22 -15 41 -10 127 4 56 12 107 17 114 19 24 -4 33 -88 33 -77 0 -84 -2 -84 -20z"/>
<path d="M10088 1725 c-35 -20 -48 -44 -48 -93 0 -57 -15 -65 -115 -63 l-85 2 0 -80 0 -81 305 0 305 0 0 80 0 80 -68 0 c-40 0 -73 5 -80 12 -7 7 -12 31 -12 54 0 68 -30 95 -110 100 -47 3 -73 0 -92 -11z"/>
<path d="M9581 1688 c-44 -24 -59 -58 -64 -145 l-5 -81 28 -12 c36 -15 131 -15 176 0 30 10 35 15 29 34 -4 11 -10 54 -14 93 -4 55 -11 78 -27 93 -26 26 -90 35 -123 18z"/>
<path d="M10715 1625 c-8 -86 -29 -104 -31 -27 -2 81 -4 92 -13 92 -5 0 -11 -13 -15 -30 -3 -16 -9 -44 -12 -61 -5 -21 -2 -34 7 -40 11 -6 10 -9 -4 -15 -20 -7 -23 -54 -5 -72 9 -9 -9 -12 -84 -12 l-96 0 -4 -35 -4 -35 248 0 248 0 0 35 0 35 -105 0 c-63 0 -105 4 -105 10 0 6 7 10 15 10 26 0 19 59 -7 70 -19 7 -20 9 -4 9 15 1 17 6 12 34 -3 17 -9 49 -12 70 -10 58 -21 44 -29 -38z"/>
<path d="M10918 1633 c-3 -32 -2 -68 3 -80 l9 -23 406 0 407 0 -7 54 c-3 30 -10 66 -16 80 l-10 26 -394 0 -394 0 -4 -57z"/>
<path d="M8797 1623 c-4 -3 -7 -32 -7 -64 0 -50 3 -58 23 -64 19 -6 19 -8 5 -12 -28 -7 -21 -32 10 -39 15 -3 32 -7 38 -9 6 -2 17 2 23 8 8 8 11 -55 11 -240 l0 -252 25 -3 c23 -3 22 -6 -46 -110 l-69 -108 -70 0 -70 0 0 -35 c0 -37 -13 -44 -39 -22 -10 9 -31 12 -58 9 l-43 -4 0 -49 0 -49 50 0 c28 0 50 5 50 10 0 6 9 10 20 10 17 0 20 -7 20 -38 0 -29 -9 -50 -36 -85 -20 -26 -41 -47 -45 -47 -5 0 -9 -4 -9 -10 0 -6 30 -10 70 -10 l70 0 0 95 c0 91 1 95 22 95 11 0 36 11 53 25 28 21 45 25 121 27 l89 3 3 38 3 37 -80 0 c-45 0 -81 2 -81 5 0 3 30 53 66 110 59 94 69 105 95 105 22 0 29 -5 29 -20 0 -17 7 -20 40 -20 38 0 40 2 40 30 0 30 -1 30 -55 30 -30 0 -55 5 -55 10 0 6 25 10 55 10 l55 0 0 60 c0 65 21 100 60 100 39 0 60 -35 60 -100 l0 -60 55 0 55 0 0 190 0 190 -174 0 c-130 0 -176 -3 -179 -12 -4 -10 -6 -10 -6 0 -1 6 -8 12 -16 12 -8 0 -15 5 -15 10 0 6 72 10 195 10 l195 0 0 35 c0 34 -1 35 -38 35 -21 0 -43 -5 -48 -10 -20 -20 -107 -23 -148 -6 -23 10 -67 16 -111 16 -85 0 -85 0 -85 101 l0 69 -58 0 c-32 0 -62 -3 -65 -7z m243 -573 c0 -5 -6 -7 -12 -5 -7 3 -26 -15 -41 -40 -30 -47 -46 -61 -26 -22 33 64 79 103 79 67z"/>
<path d="M7123 542 c-19 -3 -23 -10 -23 -43 0 -39 0 -39 40 -39 40 0 40 0 40 39 0 41 -12 50 -57 43z"/>
<path d="M7723 542 c-19 -3 -23 -10 -23 -43 0 -39 0 -39 40 -39 40 0 40 0 40 39 0 41 -12 50 -57 43z"/>
<path d="M7280 494 c0 -8 5 -12 10 -9 6 3 10 10 10 16 0 5 -4 9 -10 9 -5 0 -10 -7 -10 -16z"/>
<path d="M7580 496 c0 -8 5 -18 10 -21 6 -3 10 3 10 14 0 12 -4 21 -10 21 -5 0 -10 -6 -10 -14z"/>
<path d="M10967 1258 l4 -263 259 -3 260 -2 0 135 c0 83 4 135 10 135 6 0 10 -64 10 -171 0 -111 3 -168 10 -164 6 4 10 73 10 176 0 162 -1 169 -20 169 -19 0 -20 7 -20 104 0 71 4 107 13 114 6 5 37 14 67 20 42 7 -25 10 -276 11 l-332 1 5 -262z m243 102 l0 -110 -40 0 -40 0 0 103 c0 57 3 107 7 110 3 4 21 7 40 7 l33 0 0 -110z m228 -2 l3 -108 -101 0 -100 0 0 103 c0 57 3 107 7 111 4 4 48 5 98 4 l90 -3 3 -107z"/>
<path d="M12757 1484 c-4 -4 -7 -20 -7 -36 l0 -28 -515 0 -515 0 0 -85 c0 -70 3 -85 16 -85 8 0 21 15 29 33 20 49 55 88 91 103 27 11 124 14 484 14 l451 0 -3 42 c-3 39 -16 57 -31 42z"/>
<path d="M7190 1450 c0 -6 48 -10 125 -10 77 0 125 4 125 10 0 6 -48 10 -125 10 -77 0 -125 -4 -125 -10z"/>
<path d="M7550 1450 c0 -6 48 -10 125 -10 77 0 125 4 125 10 0 6 -48 10 -125 10 -77 0 -125 -4 -125 -10z"/>
<path d="M9368 1425 l4 -35 125 0 c94 0 124 3 121 12 -3 7 -20 16 -39 20 -19 3 -48 14 -64 22 -18 9 -55 16 -90 16 l-61 0 4 -35z"/>
<path d="M9755 1450 c-3 -5 -33 -15 -65 -22 -36 -7 -60 -17 -60 -25 0 -10 26 -13 106 -13 93 0 105 2 100 16 -3 9 -6 24 -6 35 0 15 -7 19 -34 19 -19 0 -38 -4 -41 -10z"/>
<path d="M8863 1384 c-7 -7 -13 -21 -13 -32 0 -10 -4 -22 -9 -27 -5 -6 -11 -23 -13 -40 -3 -28 -6 -30 -53 -35 l-50 -5 0 -50 0 -50 41 3 c42 3 72 -16 59 -38 -3 -5 1 -13 9 -16 11 -4 14 -14 10 -30 -5 -18 -2 -24 10 -24 9 0 16 -8 16 -20 0 -11 5 -20 11 -20 8 0 9 58 6 196 -3 108 -7 197 -9 199 -2 2 -9 -3 -15 -11z m-13 -196 c0 -28 -3 -48 -7 -44 -11 10 -11 96 -1 96 4 0 8 -23 8 -52z"/>
<path d="M9860 1195 l0 -205 285 0 285 0 0 203 0 203 -285 2 -285 2 0 -205z m150 80 l0 -75 -40 0 -40 0 0 75 0 75 40 0 40 0 0 -75z m120 0 l0 -75 -45 0 -45 0 0 75 0 75 45 0 45 0 0 -75z m123 8 c3 -38 3 -71 0 -75 -2 -5 -24 -8 -49 -8 l-44 0 0 75 0 75 44 0 43 0 6 -67z m107 -8 l0 -75 -40 0 -40 0 0 75 0 75 40 0 40 0 0 -75z"/>
<path d="M11860 1373 c-26 -10 -51 -37 -71 -75 -10 -21 -19 -40 -19 -43 0 -3 388 -4 863 -3 474 1 845 3 825 5 -21 2 -38 8 -38 14 0 5 -7 9 -15 9 -8 0 -15 -4 -15 -10 0 -15 -405 -13 -433 1 -12 7 -43 34 -68 60 l-45 49 -485 -1 c-266 0 -491 -3 -499 -6z"/>
<path d="M9370 1180 l0 -190 125 0 125 0 -1 190 -1 190 -124 0 -124 0 0 -190z"/>
<path d="M9630 1180 l0 -190 105 0 105 0 0 190 0 190 -105 0 -105 0 0 -190z"/>
<path d="M10450 1260 c0 -104 1 -110 20 -110 27 0 57 -51 65 -111 l7 -49 204 0 204 0 0 189 0 190 -250 0 -250 1 0 -110z"/>
<path d="M11723 1232 l-53 -3 -1 -82 c-1 -45 -1 -156 -1 -247 l1 -165 910 -3 c873 -2 911 -1 911 16 0 10 5 23 12 30 9 9 9 12 0 12 -9 0 -12 50 -12 195 0 167 2 195 15 195 13 0 15 -28 15 -187 0 -104 5 -195 10 -203 6 -10 10 53 10 186 0 157 -3 204 -13 213 -8 6 -17 8 -21 4 -4 -4 -9 3 -13 15 -4 18 -13 22 -42 22 -648 3 -1689 4 -1728 2z"/>
<path d="M9154 1126 c-17 -13 -19 -27 -19 -117 l0 -103 45 -1 45 0 0 103 c0 91 -2 105 -19 118 -11 8 -23 14 -26 14 -3 0 -15 -6 -26 -14z"/>
<path d="M10450 1065 l0 -75 36 0 37 0 -6 51 c-7 57 -29 99 -52 99 -12 0 -15 -16 -15 -75z"/>
<path d="M9240 941 l0 -28 133 -7 c128 -6 301 -8 458 -7 68 1 77 3 82 21 5 19 12 20 124 16 l118 -3 3 -93 3 -93 -42 7 c-22 4 -39 3 -37 -1 3 -5 11 -22 18 -40 23 -52 82 -59 99 -11 18 50 58 96 114 128 43 25 63 30 118 30 77 0 156 -34 190 -81 19 -28 24 -29 95 -29 73 0 75 1 107 37 44 50 106 76 181 75 71 0 95 -8 154 -52 64 -46 95 -118 90 -210 l-3 -70 32 -6 c30 -6 93 19 93 37 0 4 7 10 16 13 10 4 29 -5 50 -24 37 -32 87 -40 126 -19 20 11 21 9 15 -25 l-6 -36 62 0 62 0 -3 75 -4 75 83 0 84 0 -43 -20 c-44 -20 -72 -63 -72 -111 0 -39 32 -89 69 -109 36 -19 23 -19 -1144 -18 -649 0 -1170 3 -1158 5 30 6 83 59 85 86 7 97 -36 147 -124 147 -69 -1 -108 -44 -108 -119 0 -43 35 -95 74 -111 12 -5 -92 -9 -248 -9 l-269 -1 34 23 c46 31 61 63 54 116 -13 105 -130 144 -205 69 -25 -24 -30 -38 -30 -77 0 -53 17 -84 64 -112 l31 -19 -167 0 -168 0 0 -30 0 -30 2640 0 2640 0 0 30 0 30 -136 0 c-127 0 -136 -1 -141 -20 -7 -26 -19 -26 -26 0 -5 18 -14 20 -84 20 l-78 0 32 20 c18 10 40 34 49 52 l17 32 -34 28 -34 29 -8 -41 -8 -41 -52 3 c-51 3 -52 4 -57 38 l-5 35 -27 -35 c-24 -30 -26 -37 -14 -55 7 -11 28 -30 46 -42 l33 -23 -204 0 c-155 1 -199 3 -184 12 34 19 65 51 65 67 0 9 -12 27 -25 40 -24 22 -25 22 -25 3 0 -29 -24 -44 -67 -40 l-38 3 -1 55 -1 55 6 -50 c6 -49 7 -50 43 -53 33 -3 38 0 44 24 4 15 2 35 -5 46 -22 35 2 18 52 -37 l49 -55 87 0 87 0 35 46 c50 67 64 72 64 21 l0 -42 43 -3 43 -3 -3 43 c-3 38 -6 43 -35 52 -43 12 -42 20 7 35 21 6 42 15 44 20 8 13 -72 23 -94 11 -23 -12 -356 -12 -385 0 -17 7 135 12 458 15 68 0 69 1 103 40 l33 40 -947 5 c-521 3 -948 5 -949 5 -1 -1 -3 -34 -4 -74 -2 -71 -3 -74 -31 -86 -37 -15 -71 -9 -94 16 -13 15 -15 22 -6 31 8 8 12 67 12 190 l0 178 -1110 0 -1110 0 0 -29z m1978 -125 c190 -152 241 -196 228 -196 -5 0 -29 17 -54 38 -25 20 -111 90 -191 154 l-146 118 -262 0 c-169 0 -263 4 -263 10 0 6 93 10 260 10 l261 0 167 -134z m1071 -207 c-17 -11 -318 -12 -374 -1 -27 5 20 9 140 12 197 5 255 3 234 -11z m514 4 c-12 -2 -36 -20 -53 -39 -24 -28 -30 -44 -30 -82 0 -54 17 -85 64 -113 l31 -19 -225 0 c-223 0 -224 0 -191 18 40 21 71 73 71 118 0 42 -39 97 -78 110 -18 5 -31 12 -28 15 2 2 107 2 233 0 125 -2 218 -6 206 -8z m-1133 -7 c0 -15 -25 -24 -52 -18 -34 7 -20 32 17 32 23 0 35 -5 35 -14z m360 -81 c0 -25 -4 -45 -9 -45 -9 0 -61 71 -61 83 0 4 16 7 35 7 35 0 35 0 35 -45z m220 38 c0 -5 -16 -26 -35 -48 l-34 -40 -1 48 0 47 35 0 c19 0 35 -3 35 -7z m750 -40 l-1 -48 -25 30 c-48 57 -49 65 -9 65 l35 0 0 -47z m220 38 c0 -13 -50 -71 -61 -71 -5 0 -9 18 -9 40 0 39 1 40 35 40 19 0 35 -4 35 -9z m-1550 -42 c0 -26 -3 -29 -35 -29 -32 0 -35 2 -35 29 0 20 6 31 18 33 34 8 52 -3 52 -33z m203 -67 l42 3 0 43 c0 23 2 42 5 42 3 -1 25 -26 50 -55 l44 -55 91 0 90 0 43 55 c24 30 46 55 50 55 4 0 7 -19 7 -42 l0 -43 40 0 40 0 0 48 c0 26 4 47 8 47 4 0 7 -24 5 -52 l-3 -53 -50 0 c-49 0 -50 0 -55 34 l-5 35 -27 -33 c-16 -18 -28 -36 -28 -40 0 -10 62 -67 80 -74 8 -3 -82 -5 -200 -5 -118 0 -206 3 -194 5 12 2 36 20 54 38 l34 35 -29 30 -30 31 -8 -31 c-8 -30 -10 -31 -55 -28 l-47 3 -1 50 -1 50 4 -48 4 -48 42 3z m-2945 76 c18 -18 14 -63 -8 -83 -45 -41 -110 18 -76 70 18 27 63 34 84 13z m584 -5 c43 -39 -4 -109 -57 -85 -33 15 -43 57 -20 82 22 24 52 26 77 3z"/>
<path d="M8850 511 c-20 -39 22 -82 60 -61 22 12 27 49 8 68 -18 18 -56 14 -68 -7z"/>
<path d="M9440 511 c-15 -29 -13 -39 14 -56 27 -18 53 -11 61 16 15 47 -51 83 -75 40z"/>
<path d="M11482 863 l-2 -113 28 -6 c47 -10 48 -12 4 -13 l-43 -1 3 -52 3 -53 43 -3 42 -3 0 55 0 56 45 0 45 0 0 75 0 74 -77 3 -78 3 -6 45 c-4 30 -7 7 -7 -67z"/>
<path d="M9927 913 c-4 -3 -7 -11 -7 -17 0 -6 5 -4 11 4 7 11 8 4 3 -25 -4 -22 -12 -43 -18 -47 -24 -16 -380 5 -400 23 -16 14 -46 10 -52 -6 -4 -10 -20 -15 -49 -15 -34 0 -44 -4 -48 -20 -5 -18 0 -20 52 -20 56 0 58 -1 68 -32 l10 -33 -69 3 c-58 3 -68 1 -68 -13 0 -14 11 -16 71 -14 52 2 73 -1 80 -12 21 -34 11 -39 -76 -39 l-85 0 0 40 c0 29 -4 40 -15 40 -12 0 -15 -17 -15 -95 0 -80 2 -93 15 -89 10 4 15 20 15 45 l0 39 88 0 c49 0 92 -3 96 -7 4 -5 17 -9 29 -10 12 -1 43 -5 70 -9 l47 -7 0 32 c0 21 6 34 18 38 9 4 21 12 25 20 10 16 57 18 57 2 0 -6 -8 -8 -19 -4 -11 3 -22 1 -25 -4 -8 -13 1 -17 54 -26 44 -6 44 -6 23 10 -13 9 -23 27 -23 41 l0 24 -130 0 c-71 0 -130 -3 -130 -6 0 -16 23 -44 35 -44 17 0 20 -26 4 -36 -17 -10 -30 10 -49 80 -24 92 -19 97 90 86 227 -22 316 -32 321 -36 4 -2 3 -23 -2 -45 -6 -23 -8 -44 -5 -46 2 -2 32 -8 67 -14 35 -5 138 -24 229 -43 153 -31 165 -35 164 -55 0 -14 4 -20 13 -17 15 6 18 -10 3 -19 -5 -3 -10 -16 -11 -28 -1 -21 -1 -20 -8 2 -6 22 -16 27 -101 42 -52 9 -196 36 -320 59 -272 52 -264 51 -268 23 -2 -13 1 -23 7 -23 6 0 11 6 11 13 0 9 2 9 8 0 6 -10 270 -67 407 -88 96 -15 202 -38 230 -50 75 -31 80 -32 103 -22 19 8 22 16 17 36 -3 14 -15 32 -25 40 -12 8 -20 25 -20 42 0 16 -8 33 -17 39 -16 10 -16 10 2 8 13 -2 21 -12 23 -30 2 -14 11 -33 20 -41 21 -18 136 -29 151 -14 12 12 15 97 5 134 l-6 22 -54 -27 c-30 -14 -54 -30 -54 -34 0 -4 26 -9 58 -9 l57 -2 -52 -6 c-28 -4 -55 -10 -59 -14 -4 -4 17 -18 47 -31 60 -27 54 -35 -7 -10 -35 15 -39 15 -50 0 -16 -22 -27 -20 -14 3 19 37 12 79 -16 98 -24 15 -29 15 -53 2 -14 -9 -25 -23 -25 -32 1 -10 -5 -17 -15 -17 -27 0 -411 77 -418 84 -2 2 2 20 10 39 l15 35 86 -5 86 -6 0 32 0 31 -72 0 c-40 0 -78 4 -84 8 -7 4 -19 24 -27 45 -15 36 -26 44 -40 30z"/>
<path d="M9970 915 c0 -3 7 -21 14 -40 l15 -35 75 0 76 0 0 40 0 40 -90 0 c-49 0 -90 -2 -90 -5z"/>
<path d="M9017 883 c-4 -3 -7 -32 -7 -64 0 -41 4 -58 15 -63 12 -4 15 6 15 64 0 64 -6 81 -23 63z"/>
<path d="M9054 718 l1 -173 123 -3 122 -3 0 176 0 175 -123 0 -124 0 1 -172z"/>
<path d="M9320 820 c0 -56 3 -70 15 -70 12 0 15 14 15 70 0 56 -3 70 -15 70 -12 0 -15 -14 -15 -70z"/>
<path d="M9788 883 c-70 -3 -78 -6 -78 -23 0 -19 7 -20 105 -20 126 0 145 19 23 22 l-83 2 78 3 c46 2 75 8 72 13 -4 6 -14 9 -23 8 -9 -1 -52 -4 -94 -5z"/>
<path d="M10340 829 c-51 -23 -83 -51 -109 -94 -52 -86 -25 -104 29 -19 76 120 217 138 315 40 48 -49 68 -111 58 -184 -6 -45 8 -57 27 -23 14 27 13 79 -4 133 -41 136 -189 205 -316 147z"/>
<path d="M10920 837 c-49 -16 -123 -93 -138 -143 -13 -44 -16 -122 -6 -148 3 -9 12 -16 20 -16 11 0 13 11 8 54 -8 66 7 115 49 163 127 144 351 56 351 -137 0 -101 -62 -176 -163 -199 -52 -11 -130 6 -164 36 -23 21 -67 37 -67 24 0 -4 12 -19 28 -33 119 -112 313 -77 379 70 60 129 -8 292 -136 331 -47 13 -114 13 -161 -2z"/>
<path d="M10380 798 c-39 -11 -90 -45 -90 -59 0 -5 62 -10 143 -10 78 -1 131 -4 117 -6 -25 -4 -67 -49 -56 -60 4 -5 71 24 105 45 8 4 -53 63 -79 77 -37 19 -100 25 -140 13z"/>
<path d="M10958 800 c-56 -17 -97 -51 -122 -102 -14 -29 -26 -57 -26 -62 0 -7 22 -10 60 -8 33 2 60 7 60 11 0 4 -21 17 -46 29 -26 13 -44 25 -41 28 3 3 23 -4 46 -15 22 -12 45 -21 51 -21 18 0 -29 60 -48 61 -9 1 15 6 53 10 39 5 90 7 115 4 25 -3 52 -1 60 5 13 9 12 13 -8 30 -24 20 -84 41 -112 39 -8 0 -27 -4 -42 -9z"/>
<path d="M9687 783 c-10 -9 -9 -43 1 -43 5 0 19 11 32 25 l23 25 -25 0 c-13 0 -28 -3 -31 -7z"/>
<path d="M9724 755 c-17 -13 -13 -14 48 -15 36 0 73 -3 81 -6 9 -3 16 3 20 15 5 20 1 21 -62 21 -44 0 -74 -5 -87 -15z"/>
<path d="M9979 744 c-5 -15 -8 -28 -6 -30 7 -8 127 -32 127 -26 0 18 -42 72 -55 72 -19 0 -19 -5 1 -35 9 -14 12 -25 6 -25 -5 0 -17 16 -26 35 -20 42 -33 44 -47 9z"/>
<path d="M9887 753 c-13 -12 -8 -65 5 -61 17 6 29 68 13 68 -6 0 -15 -3 -18 -7z"/>
<path d="M10650 736 c0 -2 7 -20 16 -41 9 -23 14 -60 13 -99 l-3 -61 41 -2 42 -2 4 82 c2 45 7 92 12 105 7 21 5 22 -59 22 -36 0 -66 -2 -66 -4z"/>
<path d="M11114 721 c-35 -21 -59 -49 -50 -58 7 -7 106 37 106 47 0 4 -6 12 -13 18 -10 8 -21 6 -43 -7z"/>
<path d="M9020 641 c0 -50 5 -93 10 -96 6 -4 10 28 10 89 0 57 -4 96 -10 96 -6 0 -10 -36 -10 -89z"/>
<path d="M9806 713 c-9 -23 20 -51 36 -35 9 9 9 12 0 12 -7 0 -12 5 -12 11 0 8 5 7 15 -1 20 -17 32 -5 15 15 -17 20 -46 19 -54 -2z"/>
<path d="M10275 722 c-12 -12 -2 -21 45 -41 40 -17 54 -19 71 -11 12 7 18 17 15 27 -3 8 -6 17 -6 19 0 2 -12 4 -27 4 -25 0 -26 0 -8 -20 10 -11 16 -23 13 -26 -3 -3 -14 6 -25 19 -17 22 -66 40 -78 29z"/>
<path d="M10986 722 c-2 -4 -1 -14 4 -22 7 -11 12 -12 21 -3 6 6 8 16 5 22 -8 13 -23 14 -30 3z"/>
<path d="M10416 705 c4 -8 10 -15 15 -15 5 0 9 7 9 15 0 8 -7 15 -15 15 -9 0 -12 -6 -9 -15z"/>
<path d="M10455 710 c-8 -13 3 -30 18 -30 7 0 18 9 25 20 11 18 10 20 -12 20 -14 0 -28 -4 -31 -10z"/>
<path d="M10935 700 c22 -24 50 -27 41 -4 -3 9 -6 18 -6 20 0 2 -12 4 -27 4 -25 0 -26 0 -8 -20z"/>
<path d="M11030 700 c0 -11 4 -20 8 -20 5 0 17 9 27 20 18 20 17 20 -8 20 -20 0 -27 -5 -27 -20z"/>
<path d="M13560 714 c0 -29 107 -124 140 -124 18 0 34 58 23 86 -7 20 -92 19 -99 -1 -9 -21 -24 -8 -24 21 0 17 -5 24 -20 24 -11 0 -20 -3 -20 -6z"/>
<path d="M10250 680 c-12 -23 -14 -22 62 -39 56 -13 58 -13 58 -3 0 4 -25 20 -55 35 -54 26 -55 26 -65 7z"/>
<path d="M11113 664 c-60 -35 -55 -47 15 -38 31 3 59 8 61 10 8 7 -10 54 -22 54 -6 0 -31 -12 -54 -26z"/>
<path d="M9851 667 c-14 -18 -9 -22 42 -31 33 -6 37 -5 37 14 0 11 -6 20 -12 20 -7 0 -22 3 -34 6 -12 3 -26 -1 -33 -9z"/>
<path d="M10965 655 c-30 -29 -32 -54 -5 -83 24 -26 47 -28 78 -6 28 19 29 67 2 94 -26 26 -46 25 -75 -5z"/>
<path d="M9947 646 c-4 -11 7 -17 44 -25 65 -14 69 -14 69 4 0 17 -41 30 -70 22 -11 -3 -20 -1 -20 4 0 14 -17 10 -23 -5z"/>
<path d="M10076 624 c-9 -23 -8 -24 14 -24 13 0 20 7 20 20 0 24 -25 27 -34 4z"/>
<path d="M10120 612 c0 -24 58 -38 67 -15 7 18 3 22 -35 29 -27 6 -32 4 -32 -14z"/>
<path d="M10815 608 c-3 -7 -1 -26 3 -43 7 -25 14 -30 43 -33 24 -2 44 4 60 17 33 27 20 34 -31 16 -58 -21 -63 -12 -6 10 25 10 46 21 46 25 0 20 -108 27 -115 8z"/>
<path d="M11113 613 c-24 -2 -43 -7 -43 -11 0 -4 19 -15 43 -24 82 -33 77 -34 77 6 0 28 -4 36 -17 34 -10 -1 -37 -3 -60 -5z"/>
<path d="M10200 596 c0 -8 7 -16 15 -20 10 -4 15 1 15 14 0 11 -7 20 -15 20 -8 0 -15 -6 -15 -14z"/>
<path d="M10243 593 c-8 -19 -3 -22 49 -29 34 -5 46 -3 50 8 5 11 -7 17 -44 25 -40 8 -51 7 -55 -4z"/>
<path d="M9694 585 c-11 -28 5 -34 48 -17 39 15 40 17 17 23 -40 11 -59 10 -65 -6z"/>
<path d="M9646 563 c27 -111 127 -193 236 -193 53 0 122 27 165 65 34 30 36 34 16 35 -12 0 -38 -11 -58 -24 -108 -74 -247 -39 -306 76 -10 21 -19 44 -19 53 0 8 -9 15 -20 15 -17 0 -19 -4 -14 -27z"/>
<path d="M9750 560 c-46 -19 -51 -32 -24 -60 12 -12 19 -9 54 25 60 59 52 68 -30 35z"/>
<path d="M10355 569 c-4 -6 -5 -13 -2 -16 7 -7 27 6 27 18 0 12 -17 12 -25 -2z"/>
<path d="M11060 571 c0 -5 18 -25 40 -45 54 -49 51 -56 -5 -10 -51 41 -64 40 -42 -3 8 -15 18 -39 21 -53 6 -21 5 -22 -4 -7 -15 23 -47 22 -55 -3 -6 -20 -6 -20 -28 0 -18 18 -23 18 -35 6 -23 -22 -5 -36 46 -36 62 1 123 29 157 74 15 20 26 38 24 41 -7 7 -100 45 -110 45 -5 0 -9 -4 -9 -9z"/>
<path d="M9792 522 c-35 -37 -40 -47 -30 -60 36 -43 135 -54 206 -22 50 22 53 30 12 30 -23 0 -28 -4 -24 -17 5 -15 3 -15 -11 2 -12 13 -19 16 -22 8 -2 -7 -11 -9 -19 -6 -7 3 -17 -2 -20 -11 -6 -15 -8 -15 -19 1 -7 10 -15 30 -17 43 -3 24 -5 23 -22 -13 -27 -55 -31 -38 -5 23 22 52 23 52 61 47 41 -5 53 7 16 17 -43 11 -63 3 -106 -42z"/>
<path d="M10937 546 c-4 -10 -1 -13 9 -9 7 3 14 9 14 14 0 14 -17 10 -23 -5z"/>
<path d="M9955 540 c11 -5 36 -8 55 -8 32 0 33 1 10 8 -14 4 -38 8 -55 8 -25 1 -27 -1 -10 -8z"/>
<path d="M9018 489 l4 -49 164 0 163 0 -1 43 0 42 -155 -3 c-92 -2 -159 1 -166 6 -9 8 -11 -2 -9 -39z"/>
<path d="M9860 507 c0 -43 13 -53 42 -33 18 13 56 16 198 17 214 1 192 15 -45 28 -88 5 -168 12 -177 16 -15 6 -18 1 -18 -28z"/>
<path d="M10968 511 c-3 -23 1 -32 18 -40 21 -9 24 -7 34 25 12 36 6 59 -9 35 -6 -9 -11 -10 -15 -2 -12 19 -24 12 -28 -18z"/>
<path d="M10480 520 c1 -26 26 -29 243 -32 227 -3 237 -2 237 30 0 4 -108 7 -240 7 -132 0 -240 -2 -240 -5z"/>
<path d="M11030 490 c0 -5 5 -10 10 -10 6 0 10 5 10 10 0 6 -4 10 -10 10 -5 0 -10 -4 -10 -10z"/>
<path d="M13615 480 c-3 -5 3 -10 15 -10 12 0 18 5 15 10 -3 6 -10 10 -15 10 -5 0 -12 -4 -15 -10z"/>
<path d="M10600 467 c-14 -8 -36 -20 -50 -29 -70 -45 -181 -41 -239 8 -16 13 -39 24 -51 24 -23 0 -23 0 -4 -21 10 -12 39 -33 64 -48 37 -21 57 -26 115 -26 77 1 130 22 174 69 29 31 25 40 -9 23z"/>
<path d="M10870 470 c0 -3 14 -14 30 -23 17 -10 30 -16 30 -13 0 2 3 11 6 19 4 11 -4 16 -30 19 -20 2 -36 1 -36 -2z"/>
<path d="M10310 461 c0 -16 79 -41 128 -41 42 0 132 31 132 45 0 3 -16 5 -35 5 -29 0 -33 -3 -28 -17 6 -15 4 -16 -8 -6 -12 10 -21 9 -40 -1 -21 -11 -29 -11 -44 0 -14 10 -22 11 -32 3 -10 -9 -13 -8 -13 5 0 11 -9 16 -30 16 -16 0 -30 -4 -30 -9z"/>
<path d="M10316 189 c-14 -38 -26 -74 -26 -80 0 -5 16 -9 35 -9 24 0 35 -5 35 -15 0 -21 13 -19 28 6 10 15 11 24 3 32 -6 6 -11 21 -11 34 0 13 -4 23 -10 23 -5 0 -10 -13 -10 -30 0 -24 -4 -30 -21 -30 -22 0 -21 9 7 79 16 38 18 61 5 61 -5 0 -20 -32 -35 -71z"/>
<path d="M10539 216 c-27 -61 -33 -100 -20 -125 16 -28 66 -29 81 0 16 28 2 80 -22 87 -14 3 -18 10 -14 23 3 11 9 28 12 39 12 39 -17 20 -37 -24z m36 -92 c0 -19 -5 -29 -15 -29 -16 0 -25 28 -16 51 10 25 31 10 31 -22z"/>
<path d="M10746 247 c-14 -10 -16 -26 -14 -92 3 -79 3 -80 31 -83 46 -6 57 12 57 94 0 62 -3 75 -19 84 -25 13 -33 13 -55 -3z m45 -85 c2 -67 -2 -78 -26 -69 -19 8 -21 117 -3 135 19 19 27 1 29 -66z"/>
<path d="M10900 225 c0 -19 5 -35 10 -35 6 0 10 16 10 35 0 19 -4 35 -10 35 -5 0 -10 -16 -10 -35z"/>
<path d="M10940 225 c0 -19 5 -35 10 -35 6 0 10 16 10 35 0 19 -4 35 -10 35 -5 0 -10 -16 -10 -35z"/>
<path d="M11002 248 c-18 -18 -16 -152 2 -168 20 -15 56 -9 70 12 15 24 -1 36 -18 13 -23 -32 -46 -3 -46 59 0 65 17 86 42 54 23 -31 45 -12 22 20 -17 24 -53 29 -72 10z"/>
<path d="M11520 170 c0 -72 3 -92 15 -97 21 -7 32 4 17 19 -7 7 -12 43 -12 90 0 45 -4 78 -10 78 -6 0 -10 -37 -10 -90z"/>
<path d="M11580 166 l0 -96 39 0 c44 0 51 10 51 75 0 45 -19 68 -47 58 -7 -2 -13 7 -15 23 -2 15 -9 29 -15 32 -10 3 -13 -20 -13 -92z m60 -31 c0 -33 -4 -45 -15 -45 -11 0 -15 12 -15 45 0 33 4 45 15 45 11 0 15 -12 15 -45z"/>
<path d="M11926 253 c-3 -3 -6 -46 -6 -95 0 -72 3 -88 15 -88 9 0 15 9 15 24 0 37 16 40 30 6 7 -17 19 -30 26 -30 11 0 10 9 -6 41 -19 37 -20 43 -6 64 24 37 4 39 -26 3 l-27 -33 5 52 c5 47 -4 72 -20 56z"/>
<path d="M12030 225 c0 -19 5 -35 10 -35 6 0 10 16 10 35 0 19 -4 35 -10 35 -5 0 -10 -16 -10 -35z"/>
<path d="M12067 253 c-14 -13 -7 -63 8 -63 10 0 15 11 15 35 0 33 -8 43 -23 28z"/>
<path d="M11128 199 c-29 -16 -21 -31 12 -24 23 5 30 3 30 -8 0 -8 -13 -17 -31 -21 -27 -5 -30 -9 -27 -38 3 -31 5 -33 43 -33 l39 0 -3 55 c-1 37 -8 59 -19 68 -19 14 -22 14 -44 1z m42 -84 c0 -16 -27 -32 -37 -22 -3 4 -3 13 0 22 8 20 37 20 37 0z"/>
<path d="M11224 201 c-2 -2 -4 -33 -4 -68 0 -48 3 -63 14 -63 11 0 16 15 18 53 2 38 7 52 18 52 11 0 16 -14 18 -52 2 -29 7 -53 12 -53 5 0 10 24 12 53 2 38 7 52 18 52 11 0 16 -14 18 -52 4 -72 22 -67 22 6 0 66 -15 90 -48 72 -11 -6 -23 -7 -27 -3 -7 7 -64 10 -71 3z"/>
<path d="M11416 194 c-19 -18 -22 -94 -4 -112 18 -18 65 -15 72 4 9 24 1 27 -23 12 -18 -11 -23 -11 -31 2 -13 20 -3 30 31 30 24 0 29 4 29 24 0 27 -24 56 -45 56 -7 0 -21 -7 -29 -16z m44 -29 c0 -8 -7 -15 -15 -15 -8 0 -15 7 -15 15 0 8 7 15 15 15 8 0 15 -7 15 -15z"/>
<path d="M11712 198 c-19 -19 -14 -29 12 -22 36 9 43 -15 7 -27 -59 -21 -48 -79 15 -79 l34 0 0 60 c0 48 -4 61 -19 70 -25 13 -34 13 -49 -2z m48 -83 c0 -16 -27 -32 -37 -22 -3 4 -3 13 0 22 8 20 37 20 37 0z"/>
<path d="M11828 199 c-18 -10 -25 -79 -12 -113 8 -21 57 -21 74 -1 16 19 5 34 -12 17 -29 -29 -56 5 -44 54 6 23 36 35 36 14 0 -5 7 -10 15 -10 19 0 19 14 -1 34 -18 18 -32 20 -56 5z"/>
<path d="M10420 134 c0 -11 8 -14 32 -12 46 4 49 28 4 28 -26 0 -36 -4 -36 -16z"/>
<path d="M10630 134 c0 -11 8 -14 32 -12 46 4 49 28 4 28 -26 0 -36 -4 -36 -16z"/>
</g>
</svg>