<svg xmlns="http://www.w3.org/2000/svg" viewBox="945.00 609.00 445.00 164.00">
<g transform="translate(0.000000,768.000000) scale(0.100000,-0.100000)" fill="currentColor" stroke="none">
<path d="M13097 1528 c6 -7 13 -58 17 -113 7 -128 3 -134 -86 -133 -77 0 -80 4 -84 88 -2 48 -6 58 -35 82 -42 35 -66 38 -112 13 -39 -21 -45 -32 -50 -105 -4 -67 -8 -70 -98 -70 l-79 0 0 31 c0 16 4 28 9 24 5 -3 12 -1 15 3 5 8 1 25 -22 92 -3 8 -4 18 -4 23 1 4 -1 7 -5 7 -11 0 -33 -50 -33 -75 0 -12 -5 -26 -12 -33 -9 -9 -8 -12 5 -12 12 0 17 -8 17 -25 0 -26 -1 -26 -80 -24 -96 2 -110 14 -110 94 0 56 -25 95 -59 95 -10 0 -26 10 -35 23 -12 15 -16 17 -12 5 3 -12 0 -18 -9 -18 -8 0 -15 7 -15 15 0 8 -4 15 -10 15 -5 0 -10 -8 -10 -19 0 -13 -9 -20 -30 -25 -19 -3 -34 -15 -41 -30 -7 -14 -17 -22 -25 -19 -8 3 -14 -1 -14 -11 0 -9 7 -16 15 -16 8 0 15 -7 15 -16 0 -9 -5 -12 -12 -8 -9 5 -9 2 1 -9 11 -13 11 -23 2 -44 -11 -27 -14 -28 -101 -31 -82 -3 -90 -1 -90 16 0 10 -4 22 -10 28 -5 5 -11 26 -12 46 -2 19 -9 41 -15 47 -10 9 -13 1 -14 -41 l-1 -53 -11 45 -12 44 -91 26 c-50 15 -96 30 -102 34 -7 4 -12 3 -12 -2 0 -5 41 -21 90 -36 50 -16 92 -31 94 -35 2 -3 -1 -32 -7 -63 l-10 -58 -44 0 c-39 0 -55 11 -35 24 5 3 9 28 11 55 l2 51 -80 0 c-43 0 -81 4 -83 9 -1 4 -34 11 -71 15 -47 5 -67 3 -62 -4 3 -5 32 -11 63 -12 31 -1 -67 -5 -218 -8 l-275 -5 -3 -35 c-1 -19 2 -41 6 -48 5 -8 56 -21 117 -31 63 -11 111 -24 116 -32 16 -25 11 -135 -7 -150 -13 -11 -15 -41 -13 -209 1 -109 -2 -203 -6 -210 -5 -8 -3 -11 6 -8 10 3 16 28 20 79 l5 74 2 -77 c1 -42 5 -83 8 -92 5 -13 1 -15 -27 -9 -19 3 -35 10 -37 15 -2 4 -26 8 -53 8 -48 0 -49 1 -49 30 0 27 3 30 30 30 l30 0 0 150 0 150 -31 0 c-18 0 -28 4 -24 10 3 6 -1 13 -9 16 -13 5 -16 22 -16 80 l0 74 -90 0 c-70 0 -90 -3 -90 -14 0 -11 -61 -13 -355 -13 l-355 0 0 38 0 39 -56 0 c-30 0 -53 -4 -50 -8 9 -15 9 -147 0 -146 -5 1 -18 -5 -29 -12 -14 -10 -48 -14 -115 -13 -52 1 -84 4 -70 6 29 6 40 19 40 49 0 17 -8 22 -39 27 -21 2 -50 2 -65 0 -22 -5 -26 -11 -26 -40 0 -19 4 -32 9 -28 5 3 12 1 16 -5 4 -6 -10 -10 -36 -10 l-41 0 16 -25 c18 -27 21 -55 6 -55 -6 0 -9 -59 -8 -162 l2 -163 6 155 6 155 2 -157 2 -158 -41 0 c-36 0 -40 3 -37 22 2 11 -3 23 -9 25 -9 3 -13 -7 -14 -29 0 -27 -2 -29 -9 -13 -7 18 -8 17 -15 -10 -13 -57 -16 -65 -26 -65 -5 0 -9 5 -9 10 0 6 -20 10 -44 10 l-44 0 1 -42 c2 -41 3 -43 36 -45 19 -2 40 2 48 8 27 23 25 -1 -4 -48 -22 -35 -37 -49 -56 -51 -32 -4 -37 -22 -6 -22 36 0 58 19 89 78 l29 57 1 -43 0 -43 53 3 52 3 0 35 c1 29 5 36 24 38 20 3 22 1 16 -15 -5 -10 -10 -36 -13 -59 -3 -33 1 -46 23 -72 l27 -32 -166 0 -166 0 0 -30 0 -30 2004 0 2005 0 -10 30 c-6 17 -15 30 -21 30 -5 0 -6 4 -3 10 3 5 1 10 -5 10 -6 0 -9 4 -6 9 7 11 -77 87 -104 94 -17 4 -20 0 -20 -30 0 -25 8 -43 29 -64 l29 -29 -276 0 c-276 0 -277 1 -237 19 22 10 46 25 53 33 9 12 21 14 47 8 39 -9 45 -5 45 24 0 20 4 21 145 18 141 -3 145 -2 145 18 0 11 -7 23 -15 26 -25 10 -17 21 30 38 46 18 110 71 139 117 16 25 15 27 -28 85 l-45 59 28 5 c39 7 58 29 53 61 -2 14 1 30 7 33 6 4 11 23 11 43 0 30 2 34 15 23 13 -11 15 -4 14 56 0 42 -3 62 -8 50 -6 -16 -11 -10 -24 32 -9 28 -17 62 -17 76 0 13 -4 26 -9 28 -6 2 -6 21 0 50 11 50 9 115 -3 111 -5 -2 -35 -3 -68 -3 l-59 0 -3 -57 -3 -58 -47 -3 c-34 -2 -48 1 -49 10 -3 76 4 215 13 225 8 10 -7 13 -77 13 -69 0 -85 -3 -78 -12z m-1607 -358 l0 -90 -95 0 -95 0 0 90 0 90 95 0 95 0 0 -90z m50 18 c0 -39 -3 -69 -6 -66 -8 9 -16 108 -10 124 11 29 16 11 16 -58z m527 56 c-3 -3 -12 -4 -19 -1 -8 3 -5 6 6 6 11 1 17 -2 13 -5z m-6 -151 c27 -29 28 -32 7 -17 -22 16 -54 54 -45 54 2 0 19 -16 38 -37z m-804 -165 c-2 -35 -3 -9 -3 57 0 66 1 94 3 63 2 -32 2 -86 0 -120z m418 152 c-3 -5 -12 -10 -18 -10 -7 0 -6 4 3 10 19 12 23 12 15 0z m1332 -240 l61 0 -11 -25 c-7 -14 -17 -25 -23 -25 -7 0 -14 -6 -17 -13 -3 -8 -18 -11 -44 -9 -35 3 -39 7 -36 25 4 22 2 22 -121 22 -124 0 -126 0 -126 -22 0 -14 -6 -23 -15 -23 -8 0 -15 8 -15 18 0 14 2 15 10 2 11 -17 13 -10 4 14 -3 9 -10 16 -16 16 -5 0 -7 -4 -3 -9 3 -5 1 -12 -5 -16 -5 -3 -10 -1 -10 4 0 6 -18 11 -40 11 -22 0 -40 5 -40 10 0 6 -4 10 -10 10 -5 0 -10 -16 -10 -36 0 -28 -3 -35 -17 -32 -11 2 -19 14 -21 31 -5 37 -20 34 -24 -5 -2 -25 -8 -34 -25 -36 -21 -3 -23 1 -23 42 0 55 -19 52 285 49 127 -2 258 -3 292 -3z m412 -54 c28 -35 51 -66 51 -68 0 -2 -18 -2 -39 0 -37 4 -40 2 -43 -25 -2 -22 -9 -29 -30 -31 -20 -2 -28 1 -28 12 0 9 -8 17 -17 17 -17 1 -17 2 0 6 26 7 24 88 -3 103 -11 6 -20 19 -20 29 0 14 9 18 39 19 37 2 42 -2 90 -62z m-2132 -68 c-2 -18 -4 -6 -4 27 0 33 2 48 4 33 2 -15 2 -42 0 -60z m283 69 c0 -2 -10 -12 -22 -23 l-23 -19 19 23 c18 21 26 27 26 19z m1059 -18 c-8 -5 -25 -9 -39 -8 -24 0 -24 0 5 13 31 14 57 10 34 -5z m-1109 -32 c0 -2 -10 -12 -22 -23 l-23 -19 19 23 c18 21 26 27 26 19z m1488 -21 l24 -13 -29 0 c-18 0 -30 6 -30 14 0 16 5 16 35 -1z m-340 -41 c-3 -3 -9 2 -12 12 -6 14 -5 15 5 6 7 -7 10 -15 7 -18z m-1208 12 c0 -1 -24 -25 -52 -52 l-53 -50 50 53 c46 48 55 57 55 49z m-1806 -22 c-4 -8 -8 -15 -10 -15 -2 0 -4 7 -4 15 0 8 4 15 10 15 5 0 7 -7 4 -15z m79 8 c-7 -2 -19 -2 -25 0 -7 3 -2 5 12 5 14 0 19 -2 13 -5z m2804 -35 c-3 -8 -6 -5 -6 6 -1 11 2 17 5 13 3 -3 4 -12 1 -19z m-2680 -34 c-3 -3 -12 -4 -19 -1 -8 3 -5 6 6 6 11 1 17 -2 13 -5z m121 -4 c17 0 32 -4 32 -10 0 -14 -36 -12 -95 6 -47 14 -48 14 -10 9 22 -2 55 -5 73 -5z m201 -11 c-21 -13 -59 -11 -59 4 0 9 11 12 36 9 25 -3 32 -7 23 -13z m48 15 c-3 -3 -12 -4 -19 -1 -8 3 -5 6 6 6 11 1 17 -2 13 -5z m85 0 c27 -5 38 -12 42 -30 6 -23 10 -24 86 -24 47 0 80 4 80 10 0 6 7 10 15 10 8 0 15 9 15 20 0 18 6 20 53 19 49 -1 50 -1 20 -10 -45 -13 -73 -53 -73 -105 0 -39 11 -58 34 -59 5 0 10 -8 12 -17 2 -17 -11 -18 -156 -18 l-158 0 29 29 c21 22 29 39 29 66 0 41 -16 78 -31 70 -5 -4 -8 -1 -7 6 2 7 -13 19 -32 25 -39 14 -19 18 42 8z m439 -4 c11 0 19 -4 19 -10 0 -5 -13 -10 -30 -10 -16 0 -30 4 -30 9 0 5 -8 12 -17 14 -10 2 -5 3 11 1 16 -2 37 -4 47 -4z m349 6 c0 -2 -9 -6 -20 -9 -11 -3 -20 -1 -20 4 0 5 9 9 20 9 11 0 20 -2 20 -4z m73 -3 c-7 -2 -19 -2 -25 0 -7 3 -2 5 12 5 14 0 19 -2 13 -5z m-223 -13 c0 -5 -16 -10 -35 -10 -19 0 -35 5 -35 10 0 6 16 10 35 10 19 0 35 -4 35 -10z m157 -8 c9 -6 8 -11 -5 -19 -15 -9 -18 -7 -19 8 -2 20 5 23 24 11z m210 -5 c9 -10 -75 -59 -94 -55 -12 2 -19 14 -21 37 l-3 33 56 -5 c31 -3 59 -8 62 -10z m-137 -17 c0 -13 -7 -20 -20 -20 -11 0 -20 2 -20 4 0 2 -3 11 -6 20 -5 12 0 16 20 16 19 0 26 -5 26 -20z m229 -6 c57 -16 58 -17 57 -53 -1 -31 2 -36 24 -37 34 -2 51 6 43 20 -3 6 10 -4 29 -22 20 -19 53 -40 74 -47 35 -13 4 -14 -275 -15 l-315 0 27 28 c15 15 27 38 27 51 0 22 3 23 49 16 61 -8 116 7 161 45 19 16 36 30 38 30 1 0 29 -7 61 -16z m-1669 -19 c0 -10 -11 -15 -35 -15 -24 0 -35 5 -35 15 0 10 11 15 35 15 24 0 35 -5 35 -15z m260 -5 c0 -11 -3 -20 -8 -20 -4 0 -13 9 -20 20 -11 18 -10 20 8 20 13 0 20 -7 20 -20z m150 0 c-12 -23 -30 -27 -30 -7 0 17 10 27 27 27 11 0 11 -5 3 -20z m610 0 c0 -11 -4 -20 -10 -20 -5 0 -10 2 -10 4 0 2 -3 11 -6 20 -4 11 -1 16 10 16 9 0 16 -8 16 -20z m160 13 c0 -17 -19 -35 -29 -29 -18 12 -12 36 9 36 11 0 20 -3 20 -7z m270 -19 c0 -2 -16 -4 -35 -4 -19 0 -35 4 -35 8 0 4 16 6 35 4 19 -2 35 -6 35 -8z m1597 -14 c3 -10 2 -11 -4 -4 -4 6 -15 14 -23 17 -11 5 -9 6 4 4 11 -1 21 -9 23 -17z m-390 -6 c-3 -3 -12 -4 -19 -1 -8 3 -5 6 6 6 11 1 17 -2 13 -5z m-558 -17 c-2 -1 -13 -9 -24 -17 -19 -14 -19 -14 -6 3 7 9 18 17 24 17 6 0 8 -1 6 -3z m158 -3 c-3 -3 -12 -4 -19 -1 -8 3 -5 6 6 6 11 1 17 -2 13 -5z m-1160 -10 c-3 -3 -12 -4 -19 -1 -8 3 -5 6 6 6 11 1 17 -2 13 -5z m1179 -18 c9 -3 24 -1 35 5 15 8 26 5 49 -11 16 -11 44 -27 62 -35 30 -13 13 -14 -192 -14 l-225 0 47 24 c26 14 49 28 51 32 6 9 150 8 173 -1z m392 2 c9 -9 17 -9 34 0 14 7 63 11 125 9 88 -2 104 -5 125 -24 13 -12 39 -26 58 -31 26 -8 -34 -10 -220 -11 -226 0 -252 1 -225 14 17 7 41 23 55 34 29 24 32 25 48 9z m-2231 -36 l28 -21 -143 -1 -143 0 26 23 c23 19 36 22 115 21 73 -1 94 -5 117 -22z m762 1 l24 -23 -138 0 c-122 0 -136 2 -125 15 11 13 10 15 -6 9 -15 -5 -16 -4 -4 4 8 6 17 9 21 6 4 -2 10 -1 12 3 3 5 47 8 98 8 83 0 96 -3 118 -22z"/>
<path d="M13562 719 c5 -17 48 -25 48 -10 0 6 -4 11 -9 11 -5 0 -17 3 -27 7 -12 4 -15 2 -12 -8z"/>
<path d="M13590 681 c0 -6 5 -11 12 -11 6 0 8 -3 5 -6 -16 -17 98 -88 158 -100 l35 -6 0 45 c0 42 -2 45 -31 51 -45 9 -49 8 -49 -9 0 -8 -9 -15 -20 -15 -11 0 -20 6 -20 13 0 23 -15 35 -53 42 -25 5 -37 4 -37 -4z m70 -31 c0 -11 -4 -20 -10 -20 -5 0 -10 2 -10 4 0 2 -3 11 -6 20 -4 11 -1 16 10 16 9 0 16 -8 16 -20z"/>
<path d="M13720 536 c0 -4 14 -27 32 -50 29 -37 29 -39 5 -17 -26 24 -39 17 -15 -7 7 -7 8 -12 2 -12 -5 0 -18 15 -29 33 -16 27 -16 30 -2 18 9 -7 17 -9 17 -3 0 22 -28 34 -52 21 -47 -25 -78 -53 -78 -71 0 -15 9 -18 58 -19 31 0 80 -2 109 -4 29 -3 54 -1 56 3 2 4 -21 32 -50 62 -29 30 -53 51 -53 46z m-67 -66 c3 -11 1 -20 -4 -20 -5 0 -9 9 -9 20 0 11 2 20 4 20 2 0 6 -9 9 -20z"/>
<path d="M13542 375 c-7 -14 -12 -28 -12 -30 0 -3 72 -5 160 -5 l160 0 0 30 0 30 -148 0 -149 0 -11 -25z"/>
<path d="M10171 191 c-22 -38 -41 -72 -41 -75 0 -3 18 -6 40 -6 36 0 40 -2 40 -25 0 -14 5 -25 10 -25 6 0 10 11 10 24 0 13 6 27 13 30 10 5 10 7 0 12 -9 4 -13 28 -13 70 0 35 -4 64 -9 64 -5 0 -27 -31 -50 -69z m39 -21 c0 -36 -2 -40 -25 -40 -14 0 -25 2 -25 4 0 8 42 76 46 76 2 0 4 -18 4 -40z"/>
<path d="M10376 238 c-18 -26 -22 -128 -6 -159 16 -28 65 -25 86 6 32 48 -7 116 -58 99 -17 -5 -20 -3 -15 11 4 9 7 20 7 25 0 16 30 19 45 3 20 -19 33 -8 19 15 -17 27 -59 27 -78 0z m64 -120 c0 -29 -24 -49 -40 -32 -18 20 -20 52 -4 68 22 22 44 4 44 -36z"/>
<path d="M10602 252 c-20 -13 -33 -73 -26 -122 8 -56 19 -70 54 -70 35 0 46 14 53 67 12 96 -28 158 -81 125z m46 -24 c12 -12 17 -104 6 -132 -8 -21 -40 -21 -48 0 -11 28 -6 120 6 132 15 15 21 15 36 0z"/>
<path d="M10760 250 c0 -5 11 -10 25 -10 25 0 25 -1 25 -90 0 -73 3 -90 15 -90 12 0 15 17 15 90 0 89 0 90 25 90 14 0 25 5 25 10 0 6 -28 10 -65 10 -37 0 -65 -4 -65 -10z"/>
<path d="M11214 243 c3 -10 13 -55 22 -101 19 -90 37 -106 53 -44 5 20 14 53 19 72 l9 35 12 -55 c20 -86 21 -90 36 -90 8 0 19 28 30 77 9 43 19 88 22 101 3 13 0 22 -6 22 -14 0 -15 -4 -34 -90 l-13 -65 -13 60 c-18 87 -21 95 -36 95 -9 0 -18 -21 -25 -57 -19 -101 -25 -104 -39 -20 -9 56 -17 77 -27 77 -10 0 -13 -6 -10 -17z"/>
<path d="M11440 160 c0 -77 3 -101 13 -97 7 2 11 20 10 46 -3 47 10 81 31 81 19 0 26 -23 26 -81 0 -27 5 -49 10 -49 6 0 10 28 10 64 0 72 -14 92 -55 82 -23 -6 -26 -4 -23 20 2 15 -3 29 -9 31 -10 4 -13 -20 -13 -97z"/>
<path d="M11810 160 c0 -60 4 -100 10 -100 6 0 10 40 10 100 0 60 -4 100 -10 100 -6 0 -10 -40 -10 -100z"/>
<path d="M12140 160 c0 -60 4 -100 10 -100 6 0 10 18 10 40 0 38 2 40 29 40 39 0 61 24 61 65 0 40 -20 55 -74 55 l-36 0 0 -100z m84 58 c15 -25 -3 -52 -38 -56 -24 -3 -26 0 -26 31 0 18 3 37 7 41 12 12 45 2 57 -16z"/>
<path d="M10902 198 c-21 -26 -25 -87 -7 -114 19 -29 61 -30 79 -2 15 24 -1 36 -18 13 -16 -23 -46 -13 -46 15 0 16 6 20 35 20 29 0 35 4 35 21 0 50 -50 80 -78 47z m48 -12 c0 -2 3 -11 6 -20 5 -12 0 -16 -20 -16 -24 0 -35 18 -19 33 7 8 33 10 33 3z"/>
<path d="M11010 133 c0 -42 4 -73 10 -73 6 0 10 22 10 49 0 62 7 81 31 81 17 0 19 -8 19 -65 0 -51 3 -65 15 -65 12 0 15 13 15 56 0 77 -11 94 -60 92 l-40 -1 0 -74z"/>
<path d="M11582 198 c-17 -17 -15 -113 2 -128 20 -15 56 -9 70 12 15 24 -1 36 -18 13 -16 -23 -46 -13 -46 15 0 16 6 20 35 20 32 0 35 3 35 28 0 33 -16 52 -45 52 -12 0 -26 -5 -33 -12z m56 -31 c3 -12 -3 -17 -22 -17 -25 0 -35 18 -19 34 12 12 38 2 41 -17z"/>
<path d="M11702 198 c-7 -7 -12 -35 -12 -63 0 -28 5 -56 12 -63 17 -17 65 -15 72 4 11 29 6 37 -14 19 -23 -21 -50 -13 -50 15 0 16 6 20 35 20 32 0 35 3 35 28 0 33 -16 52 -45 52 -12 0 -26 -5 -33 -12z m56 -31 c3 -12 -3 -17 -22 -17 -25 0 -35 18 -19 34 12 12 38 2 41 -17z"/>
<path d="M11876 188 c-18 -26 -20 -65 -6 -103 8 -22 15 -26 41 -23 32 3 60 31 45 45 -4 4 -12 0 -17 -10 -10 -18 -49 -24 -49 -8 0 5 -3 16 -6 25 -5 13 2 16 35 16 35 0 41 3 41 21 0 56 -54 80 -84 37z m54 -18 c0 -13 -7 -20 -20 -20 -19 0 -27 20 -13 33 13 14 33 6 33 -13z"/>
<path d="M11990 133 c0 -42 4 -73 10 -73 6 0 10 25 10 55 0 44 4 57 20 67 28 18 25 27 -10 26 l-30 -1 0 -74z"/>
<path d="M12280 191 c-7 -13 -7 -22 0 -26 6 -3 13 1 16 9 3 9 15 16 25 16 31 0 22 -33 -14 -50 -26 -12 -32 -21 -32 -45 0 -29 2 -30 46 -31 l45 -1 -4 61 c-2 34 -5 67 -7 74 -7 20 -63 15 -75 -7z m58 -83 c-4 -29 -38 -38 -38 -10 0 22 8 32 27 32 9 0 13 -8 11 -22z"/>
<path d="M12402 198 c-22 -22 -13 -48 23 -69 19 -12 35 -27 35 -35 0 -17 -32 -18 -48 -2 -15 15 -26 4 -19 -17 4 -9 19 -15 42 -15 28 0 38 5 44 23 11 29 -3 55 -34 63 -13 3 -26 12 -29 20 -9 23 22 29 44 9 16 -15 20 -15 20 -4 0 21 -21 39 -45 39 -12 0 -26 -5 -33 -12z"/>
<path d="M12523 203 c-27 -10 -14 -53 22 -74 19 -12 35 -25 35 -30 0 -19 -31 -21 -51 -3 -21 19 -21 19 -18 -6 4 -22 9 -25 44 -25 36 0 40 3 43 27 3 23 -3 32 -32 49 -39 23 -45 36 -20 46 10 4 20 -1 26 -11 13 -24 31 -10 18 15 -10 18 -40 24 -67 12z"/>
<path d="M12636 188 c-35 -50 -8 -132 41 -126 28 3 52 32 39 45 -4 4 -12 0 -17 -10 -13 -22 -36 -22 -48 2 -13 24 -5 31 36 31 27 0 33 4 33 21 0 56 -54 80 -84 37z m57 -18 c4 -16 0 -20 -19 -20 -13 0 -24 6 -24 13 0 32 35 37 43 7z"/>
<path d="M12750 133 c0 -42 4 -73 10 -73 6 0 10 24 10 53 0 59 11 83 34 74 12 -5 16 -21 16 -67 0 -33 4 -60 9 -60 15 0 24 85 14 117 -8 24 -15 28 -51 29 l-42 1 0 -74z"/>
<path d="M12886 188 c-39 -56 4 -165 50 -127 11 9 14 8 14 -5 0 -21 -28 -32 -43 -17 -15 15 -27 14 -27 -3 0 -27 60 -36 79 -12 7 8 13 51 14 96 l2 83 -37 4 c-29 3 -40 -1 -52 -19z m59 -53 c0 -43 -3 -50 -20 -50 -16 0 -21 8 -23 39 -4 49 3 68 25 64 14 -3 18 -14 18 -53z"/>
<path d="M13016 188 c-18 -26 -20 -65 -6 -103 8 -22 15 -26 41 -23 32 3 60 31 45 45 -4 4 -12 0 -17 -10 -13 -23 -36 -22 -49 2 -15 29 -13 31 30 31 34 0 40 3 40 21 0 56 -54 80 -84 37z m54 -2 c0 -2 3 -11 6 -20 5 -12 0 -16 -20 -16 -24 0 -35 18 -19 33 7 8 33 10 33 3z"/>
<path d="M13130 133 c0 -42 4 -73 10 -73 6 0 10 24 10 54 0 38 5 58 17 67 9 8 19 13 22 11 3 -2 7 1 9 6 2 6 -13 10 -32 9 l-36 -1 0 -73z"/>
<path d="M10270 140 c0 -5 16 -10 35 -10 19 0 35 5 35 10 0 6 -16 10 -35 10 -19 0 -35 -4 -35 -10z"/>
<path d="M10485 140 c-4 -6 10 -10 34 -10 23 0 41 5 41 10 0 6 -15 10 -34 10 -19 0 -38 -4 -41 -10z"/>
<path d="M11130 140 c0 -5 16 -10 35 -10 19 0 35 5 35 10 0 6 -16 10 -35 10 -19 0 -35 -4 -35 -10z"/>
</g>
</svg>