<svg xmlns="http://www.w3.org/2000/svg" viewBox="0.70 523.10 827.30 245.90">
<g transform="translate(0.000000,768.000000) scale(0.100000,-0.100000)" fill="currentColor" stroke="none">
<path d="M2780 2350 c-11 -11 -20 -24 -20 -30 0 -16 28 -11 38 7 11 18 42 11 42 -10 0 -7 -16 -39 -35 -71 -47 -79 -46 -86 16 -86 36 0 49 4 47 13 -3 6 -17 13 -31 15 -15 2 -27 5 -27 8 0 2 14 28 30 57 35 62 37 78 12 100 -25 22 -48 21 -72 -3z"/>
<path d="M3021 2356 c-7 -8 -11 -34 -11 -58 1 -23 -2 -57 -5 -74 -5 -22 -2 -36 10 -47 19 -20 66 -22 83 -5 15 15 16 70 2 84 -8 8 -7 19 1 37 23 51 -45 105 -80 63z m57 -40 c2 -10 -1 -23 -8 -30 -14 -14 -41 19 -33 40 8 20 37 13 41 -10z m0 -98 c-3 -36 -24 -44 -41 -17 -14 23 -2 49 23 49 18 0 21 -5 18 -32z"/>
<path d="M3266 2354 c-18 -18 -21 -47 -6 -74 7 -13 7 -21 0 -25 -14 -9 -13 -68 2 -83 7 -7 24 -12 38 -12 14 0 31 5 38 12 15 15 16 70 1 85 -8 8 -8 13 0 17 16 11 13 62 -5 80 -8 9 -24 16 -34 16 -10 0 -26 -7 -34 -16z m52 -41 c-3 -30 -25 -42 -34 -19 -9 22 2 46 21 46 12 0 15 -8 13 -27z m7 -84 c8 -24 -16 -55 -34 -45 -6 4 -11 20 -11 37 0 22 5 29 19 29 11 0 23 -9 26 -21z"/>
<path d="M3507 2352 c-10 -10 -17 -24 -17 -30 0 -17 27 -15 34 3 7 18 36 20 37 3 3 -26 -3 -41 -37 -93 -19 -30 -34 -59 -34 -65 0 -5 22 -10 50 -10 37 0 50 4 50 14 0 9 -12 16 -30 18 l-30 3 30 45 c35 53 40 104 11 120 -28 15 -46 12 -64 -8z"/>
<path d="M3687 2364 c-4 -4 -7 -52 -7 -106 0 -79 3 -98 15 -98 10 0 15 16 17 63 l3 62 16 -44 c20 -57 34 -61 49 -14 20 62 29 60 23 -6 -5 -52 -3 -61 11 -61 14 0 16 14 16 106 0 119 -12 133 -43 48 -10 -27 -20 -56 -23 -64 -4 -9 -15 11 -28 49 -21 62 -34 79 -49 65z"/>
<path d="M3994 2357 c-3 -8 -4 -51 -2 -97 2 -65 7 -85 20 -94 21 -13 36 0 20 16 -7 7 -12 46 -12 100 0 54 -4 88 -10 88 -6 0 -13 -6 -16 -13z"/>
<path d="M4067 2363 c-4 -3 -7 -43 -7 -88 0 -87 13 -120 45 -114 17 4 18 5 2 21 -13 13 -17 35 -17 102 0 79 -5 97 -23 79z"/>
<path d="M4258 2328 c-4 -61 5 -144 17 -157 8 -8 21 -11 32 -7 17 7 17 8 1 20 -23 17 -25 91 -3 100 8 3 15 10 15 16 0 5 -7 10 -15 10 -8 0 -15 9 -15 20 0 28 -30 25 -32 -2z"/>
<path d="M3873 2295 c-8 -22 4 -30 21 -16 17 14 36 7 36 -13 0 -8 -13 -16 -30 -19 -21 -5 -31 -14 -36 -32 -9 -36 11 -55 57 -55 l39 0 0 63 c0 36 -5 68 -12 75 -17 17 -67 15 -75 -3z m55 -87 c-4 -29 -38 -38 -38 -10 0 22 8 32 27 32 9 0 13 -8 11 -22z"/>
<path d="M4140 2291 c-5 -11 -10 -36 -10 -56 0 -52 15 -75 49 -75 29 0 60 25 47 37 -4 4 -16 2 -27 -5 -24 -15 -39 -8 -39 19 0 11 4 18 10 14 19 -11 60 7 60 27 0 36 -19 58 -50 58 -19 0 -33 -7 -40 -19z m60 -21 c9 -18 8 -20 -15 -20 -24 0 -34 18 -18 33 11 12 22 8 33 -13z"/>
<path d="M2897 2244 c-13 -14 5 -24 44 -24 28 0 39 4 37 13 -5 13 -69 22 -81 11z"/>
<path d="M3140 2235 c0 -11 11 -15 40 -15 29 0 40 4 40 15 0 11 -11 15 -40 15 -29 0 -40 -4 -40 -15z"/>
<path d="M3387 2244 c-13 -13 5 -24 39 -24 24 0 34 5 34 15 0 10 -10 15 -33 15 -19 0 -37 -3 -40 -6z"/>
<path d="M133 1983 c76 -2 198 -2 270 0 73 1 11 3 -138 3 -149 0 -208 -2 -132 -3z"/>
<path d="M558 1983 c12 -2 32 -2 45 0 12 2 2 4 -23 4 -25 0 -35 -2 -22 -4z"/>
<path d="M743 1983 c59 -2 155 -2 215 0 59 1 10 3 -108 3 -118 0 -167 -2 -107 -3z"/>
<path d="M2623 1983 c856 -2 2258 -2 3115 0 856 1 155 2 -1558 2 -1713 0 -2414 -1 -1557 -2z"/>
<path d="M1138 1687 c4 -49 2 -53 -23 -67 -20 -11 -58 -14 -141 -13 l-114 2 1 -152 c0 -146 1 -151 17 -127 46 66 120 155 143 172 23 18 44 19 223 18 l197 -1 -3 43 c-4 53 -20 58 -126 33 -63 -15 -82 -16 -128 -6 -30 7 -54 17 -54 23 0 6 7 7 18 2 27 -14 179 -11 194 4 9 9 9 12 -1 12 -10 0 -12 14 -9 55 l5 55 -102 0 -102 0 5 -53z"/>
<path d="M2033 1711 c-78 -10 -93 -22 -93 -76 0 -42 2 -44 61 -79 57 -34 65 -36 150 -36 88 0 93 1 160 41 68 39 70 42 67 76 -5 58 -33 71 -168 76 -63 3 -143 2 -177 -2z"/>
<path d="M2878 1713 c-39 -4 -68 -32 -68 -65 0 -21 82 -48 146 -48 47 0 131 16 152 29 18 11 5 59 -19 72 -22 11 -156 19 -211 12z"/>
<path d="M732 1659 c-7 -28 -12 -58 -12 -66 0 -9 -8 -22 -17 -29 -16 -12 -12 -13 33 -14 37 0 56 -5 73 -22 22 -19 22 -22 7 -33 -9 -7 -16 -24 -16 -38 0 -14 -4 -29 -10 -32 -5 -3 -10 -22 -10 -41 l0 -34 -59 0 c-44 0 -60 4 -65 16 -14 36 -26 -3 -26 -82 0 -65 3 -84 14 -84 7 0 16 9 19 21 5 18 12 20 58 17 47 -3 54 -6 59 -28 5 -23 8 -20 40 31 l35 55 -3 143 c-3 133 -4 142 -22 136 -15 -5 -19 1 -25 36 -4 22 -16 50 -26 60 -10 10 -19 24 -19 29 0 6 -4 10 -8 10 -5 0 -14 -23 -20 -51z"/>
<path d="M3216 1684 c-12 -30 -5 -34 59 -34 64 0 71 4 59 34 -9 23 -109 23 -118 0z"/>
<path d="M3492 1665 l4 -35 -48 0 -48 0 0 -55 0 -55 225 0 225 0 0 55 0 55 -120 0 -120 0 0 35 0 35 -61 0 -61 0 4 -35z"/>
<path d="M4656 1683 c-8 -8 -8 -176 0 -197 5 -14 40 -16 289 -16 258 0 287 2 329 19 24 11 72 25 105 32 92 18 98 25 81 93 -7 31 -16 59 -20 61 -11 7 -777 15 -784 8z"/>
<path d="M6176 1672 c-22 -2 -51 -11 -65 -21 -20 -13 -36 -15 -71 -10 -28 5 -68 2 -105 -6 -33 -7 -87 -16 -119 -20 -33 -3 -65 -10 -71 -15 -6 -5 -59 -14 -118 -21 l-107 -13 0 -65 0 -66 35 50 c64 91 15 85 728 85 416 0 626 3 622 10 -3 6 -19 10 -35 10 -16 0 -31 4 -34 9 -3 4 -42 11 -86 15 -46 4 -92 13 -105 22 -18 12 -31 13 -59 6 -39 -11 -147 -1 -168 15 -7 6 -20 10 -28 11 -8 0 -51 2 -95 4 -44 2 -98 2 -119 0z"/>
<path d="M4260 1650 c-26 -26 -26 -31 13 -67 51 -49 70 -54 217 -60 l140 -6 0 76 0 77 -175 0 c-162 0 -177 -2 -195 -20z"/>
<path d="M6940 1611 c0 -34 3 -41 19 -41 16 0 19 7 18 37 -2 27 -7 39 -19 41 -15 3 -18 -4 -18 -37z"/>
<path d="M2742 1622 l-53 -3 3 -47 3 -47 348 -2 347 -3 0 55 0 55 -123 0 c-98 0 -131 -4 -158 -17 -45 -24 -239 -26 -284 -3 -19 9 -50 14 -83 12z"/>
<path d="M3870 1574 l0 -54 170 1 170 1 0 43 0 43 -127 6 c-71 4 -147 8 -170 10 l-43 4 0 -54z"/>
<path d="M2447 1613 c-34 -3 -55 -11 -75 -30 -15 -14 -42 -32 -59 -39 -18 -8 -33 -16 -33 -19 0 -3 90 -5 200 -5 l200 0 0 50 0 50 -92 -2 c-51 -1 -114 -3 -141 -5z"/>
<path d="M1454 1601 c-2 -2 -4 -22 -4 -43 l0 -38 151 0 150 0 -3 42 -3 42 -143 1 c-79 0 -145 -2 -148 -4z"/>
<path d="M1767 1604 c-1 -2 -1 -21 1 -43 l4 -39 131 -1 132 -1 -53 31 c-29 16 -56 37 -59 45 -4 12 -22 15 -79 13 -40 -1 -75 -3 -77 -5z"/>
<path d="M4230 1562 l0 -42 52 0 c52 0 52 0 28 17 -14 9 -37 27 -52 41 l-28 26 0 -42z"/>
<path d="M5657 1552 c-35 -9 -60 -30 -87 -72 -32 -50 -63 -70 -110 -70 l-30 0 0 -330 c0 -213 -4 -330 -10 -330 -6 0 -10 47 -10 120 l0 120 -70 0 -70 0 0 174 c0 106 -4 177 -10 181 -5 3 -10 -3 -10 -14 0 -12 -4 -21 -10 -21 -6 0 -10 30 -10 70 l0 70 -275 0 -275 0 5 -22 c3 -13 23 -115 43 -228 l38 -205 232 -3 232 -2 0 155 c0 101 4 155 10 155 7 0 11 -56 10 -162 -2 -342 -2 -338 19 -338 24 0 41 -46 41 -110 0 -71 -9 -105 -39 -141 -23 -27 -32 -31 -54 -25 -29 7 -52 36 -62 79 -6 23 -4 27 15 27 13 0 28 -7 35 -17 8 -11 18 -14 31 -8 10 4 27 7 37 6 14 -2 17 6 17 48 0 27 -5 53 -12 57 -6 4 -31 7 -55 6 l-43 0 0 39 c0 35 3 39 25 39 25 0 25 1 25 85 l0 85 -237 2 -237 3 -7 30 c-4 17 -13 56 -19 88 l-11 57 -100 0 -99 0 0 -100 0 -100 68 0 c37 0 118 -3 180 -7 l112 -6 0 -28 c0 -22 -5 -29 -27 -33 -47 -9 -874 -99 -877 -95 -1 2 -33 46 -69 98 l-67 93 0 89 0 89 -1394 0 -1393 0 -123 -205 -123 -205 -89 0 c-88 0 -88 0 -88 26 0 31 -23 28 -28 -4 -3 -16 -10 -22 -30 -22 -17 0 -34 -9 -46 -25 -20 -27 -53 -30 -71 -7 -7 9 -27 12 -55 10 l-45 -3 -3 -52 -3 -53 54 0 c40 0 56 4 61 15 4 13 10 14 26 5 19 -10 15 -17 -65 -103 -47 -51 -85 -98 -85 -105 0 -10 31 -12 137 -10 l138 3 3 35 c4 35 65 121 136 189 l35 34 118 -5 118 -6 -3 96 c-3 73 -7 99 -19 107 -13 9 -15 22 -10 59 4 26 9 52 13 57 3 5 38 9 79 9 l74 0 4 73 3 72 2 -73 2 -73 53 3 52 3 5 70 6 70 4 -70 5 -70 115 0 115 0 3 -35 3 -35 54 -1 c30 -1 70 -5 89 -8 l36 -7 0 43 0 43 140 -3 c117 -3 142 -1 156 12 13 13 41 16 159 16 134 0 143 -1 148 -20 5 -19 14 -20 221 -20 l215 0 3 73 3 72 448 3 447 2 0 -85 0 -85 64 0 64 0 40 -47 c42 -51 127 -173 133 -192 3 -8 47 -7 159 4 311 30 753 65 815 65 l65 0 -1 -32 c0 -31 -1 -31 -10 -10 -9 23 -11 24 -97 17 -129 -9 -524 -43 -712 -61 -91 -8 -184 -14 -205 -12 -37 3 -40 5 -45 38 -4 29 -10 36 -31 38 -16 2 -32 13 -40 29 -22 41 -103 108 -147 121 -101 30 -221 6 -288 -59 -28 -27 -37 -30 -85 -27 -53 3 -54 4 -63 40 -10 41 -14 42 -180 54 -101 8 -143 -5 -208 -62 -47 -43 -54 -46 -91 -40 -24 4 -55 19 -76 38 -53 47 -115 70 -185 71 -69 0 -176 -27 -176 -46 -1 -7 -9 -22 -19 -34 -17 -20 -29 -23 -94 -23 l-75 0 31 -57 c48 -90 66 -95 97 -26 92 209 384 203 465 -10 11 -30 16 -65 13 -106 -3 -58 -2 -61 20 -61 21 0 22 4 22 68 1 197 181 318 359 242 98 -43 160 -154 148 -262 -6 -46 -5 -48 19 -48 24 0 25 2 19 44 -10 66 17 148 66 201 107 116 271 118 372 5 50 -55 70 -102 70 -170 1 -72 -17 -124 -61 -172 -54 -60 -104 -82 -187 -83 -78 0 -119 16 -175 67 -31 28 -42 31 -100 33 -62 2 -67 0 -107 -36 -98 -89 -257 -87 -342 5 -22 24 -32 26 -101 26 -69 0 -79 -2 -101 -26 -43 -46 -98 -68 -169 -68 -71 0 -114 16 -165 64 -24 23 -43 30 -95 35 l-66 7 -49 -41 c-118 -98 -265 -89 -359 21 -20 23 -42 60 -48 81 -11 36 -32 57 -44 44 -3 -3 8 -34 24 -69 34 -76 99 -137 169 -161 47 -16 45 -16 -147 -16 -176 0 -191 1 -157 13 52 19 75 42 88 88 20 75 -29 149 -107 164 -73 14 -144 -50 -144 -129 0 -50 24 -89 69 -116 l36 -21 -310 0 c-309 0 -310 1 -270 19 68 31 92 101 61 176 -17 40 -68 75 -109 75 -15 0 -46 -9 -68 -21 -94 -48 -90 -177 8 -228 l38 -20 -307 -1 -308 0 0 -30 0 -30 3985 0 3985 0 0 30 0 30 -232 0 -233 0 40 23 c54 31 81 74 88 143 7 68 4 74 -32 74 -15 0 -36 7 -47 15 -29 22 -708 22 -750 0 -16 -8 -39 -15 -50 -15 -29 0 -34 -17 -25 -84 9 -63 31 -99 81 -133 l33 -23 -434 1 c-376 1 -430 2 -403 14 63 28 90 79 97 190 2 26 -2 30 -33 35 -19 4 -45 12 -57 18 -34 19 -700 16 -733 -3 -14 -8 -38 -14 -53 -15 l-29 0 7 -67 c9 -83 29 -121 81 -150 l39 -23 -415 0 c-412 0 -415 1 -374 19 22 10 50 30 61 45 19 24 27 26 97 26 l76 0 0 60 c0 60 0 60 -30 61 -16 1 -34 3 -40 4 -5 1 -14 3 -19 4 -5 0 -19 18 -32 38 -48 82 -51 83 -166 83 -95 0 -107 -2 -143 -26 l-40 -27 -175 8 -175 7 -30 -34 c-16 -18 -41 -45 -54 -60 -23 -26 -30 -28 -105 -28 l-81 0 0 -45 0 -45 106 0 c102 0 107 -1 126 -25 11 -14 36 -34 56 -45 l37 -19 -310 0 -310 0 52 18 c28 9 68 30 88 45 32 25 41 27 85 21 l50 -7 0 56 0 56 85 0 c94 0 88 -3 158 85 l29 35 190 0 c175 0 192 2 215 20 22 17 41 20 144 20 127 0 132 -2 170 -59 16 -25 16 -25 181 -30 11 -1 26 -19 39 -46 42 -88 107 -111 154 -52 l25 32 -5 -32 -5 -31 61 -4 c33 -1 63 -1 65 1 2 2 4 30 4 61 0 103 -41 95 505 98 465 4 477 3 491 -16 7 -11 30 -23 49 -26 26 -5 35 -12 33 -24 -3 -15 13 -17 154 -20 147 -2 158 -1 168 17 5 11 22 21 37 23 20 2 29 9 31 26 l3 22 467 0 c257 -1 486 -5 510 -9 25 -5 52 -19 67 -35 19 -21 33 -26 70 -26 l45 0 0 -55 0 -55 40 0 c43 0 52 13 20 30 -16 8 -20 21 -20 60 0 50 7 59 27 39 5 -5 30 -9 54 -7 l44 3 0 50 0 50 -53 3 c-32 2 -52 -1 -52 -7 0 -6 -7 -11 -15 -11 -11 0 -15 11 -15 39 0 43 -15 55 -56 45 -22 -6 -24 -3 -24 31 0 32 2 36 20 30 20 -6 20 -2 20 343 0 268 -3 352 -12 359 -33 26 -101 20 -120 -10 -11 -17 -10 -87 1 -87 6 0 11 19 13 43 l3 42 45 0 45 0 3 -329 c1 -213 -1 -333 -8 -340 -7 -7 -10 85 -10 282 l0 292 -432 0 -432 0 -56 59 c-30 33 -66 62 -80 65 -26 6 -1331 13 -1353 8z m-657 -237 l0 -95 -64 0 -64 0 -4 73 c-5 118 -6 117 68 117 l64 0 0 -95z m170 0 l0 -95 -70 0 -70 0 0 95 0 95 70 0 70 0 0 -95z m1340 -675 c0 -5 -11 -10 -24 -10 -14 0 -28 5 -31 10 -4 6 7 10 24 10 17 0 31 -4 31 -10z m355 -4 c-20 -14 -35 -12 -35 5 0 5 12 9 27 9 26 0 26 -1 8 -14z m-1472 -33 c-13 -2 -33 -2 -45 0 -13 2 -3 4 22 4 25 0 35 -2 23 -4z m-4905 -55 c-25 -29 -53 -65 -63 -80 -9 -16 -22 -28 -27 -28 -18 0 107 159 126 160 5 0 -12 -24 -36 -52z m35 -8 c-51 -81 -70 -106 -78 -99 -6 7 96 158 108 158 4 1 -10 -26 -30 -59z m4292 -20 l0 -75 -49 -3 c-27 -2 -60 -1 -73 3 -23 5 -24 9 -20 69 2 35 7 69 11 75 5 8 30 11 69 9 l62 -3 0 -75z m-4270 -9 c-21 -39 -42 -71 -47 -71 -12 0 -11 2 36 83 22 36 42 65 44 62 2 -2 -13 -35 -33 -74z m3800 -1 l0 -65 -60 0 -60 0 -3 59 c-4 70 3 77 73 74 l50 -3 0 -65z m1063 28 c3 -27 1 -28 -37 -28 -39 0 -41 1 -41 31 0 29 2 30 38 27 32 -3 37 -7 40 -30z m-4467 -10 c24 -44 -17 -96 -66 -84 -28 7 -47 54 -33 80 21 37 80 40 99 4z m4717 24 c8 -6 11 -26 10 -58 l-3 -49 -52 -3 -53 -3 0 55 c0 31 3 56 8 56 4 0 6 -20 4 -45 l-4 -45 41 0 c40 0 41 1 41 35 0 47 -2 50 -27 50 -12 -1 -19 3 -17 7 7 10 35 10 52 0z m296 2 c12 -5 16 -20 16 -60 l0 -54 -54 0 -54 0 -4 48 c-3 26 0 53 5 60 10 13 64 16 91 6z m302 -2 c6 -4 11 -29 10 -57 l-1 -50 -51 -3 -51 -3 -6 48 c-3 27 -1 54 5 61 11 13 76 16 94 4z m932 -55 l3 -58 -53 3 -53 3 2 50 c1 28 2 54 2 58 1 4 22 7 49 5 l47 -3 3 -58z m296 57 c17 -7 23 -54 7 -54 -6 0 -8 9 -6 20 3 18 -2 20 -43 20 l-47 0 -1 -40 -1 -40 49 0 c30 0 47 4 43 10 -3 6 -1 10 5 10 6 0 10 -8 8 -17 -3 -15 -14 -18 -58 -18 l-55 0 -3 49 c-2 32 1 52 10 57 15 10 69 12 92 3z m290 0 c12 -5 16 -20 16 -61 l0 -54 -52 3 -53 3 -3 44 c-2 24 -1 50 2 57 6 14 61 19 90 8z m-6186 -16 c30 -30 1 -98 -41 -98 -45 0 -70 48 -47 91 12 22 68 27 88 7z m-1015 -56 c-4 -28 -11 -42 -20 -42 -10 0 -13 6 -8 18 4 9 12 30 17 45 14 38 18 30 11 -21z m5213 -5 c1 -44 41 -93 89 -106 21 -7 -11 -9 -110 -10 l-140 -1 40 20 c47 23 79 71 71 104 -7 28 1 38 28 34 16 -2 21 -11 22 -41z m300 0 c1 -43 31 -82 79 -103 27 -12 14 -13 -115 -13 -80 0 -140 2 -135 4 6 2 22 6 36 9 41 9 89 64 89 101 0 36 7 47 30 43 10 -2 15 -15 16 -41z m1226 2 c-4 -46 27 -84 83 -104 38 -13 33 -14 -100 -14 -125 0 -137 1 -110 13 47 21 78 61 81 103 1 21 2 39 3 41 1 2 11 2 24 0 19 -3 22 -8 19 -39z m300 9 c-4 -42 23 -83 70 -107 l43 -21 -135 0 -135 0 40 19 c50 22 75 58 75 106 0 32 3 36 23 33 17 -2 21 -9 19 -30z m-5186 -103 l59 -25 -240 1 -240 0 55 20 c30 11 71 33 91 49 35 28 39 29 66 15 24 -12 34 -12 56 -2 15 6 27 16 27 21 0 6 15 -5 33 -23 19 -17 61 -43 93 -56z m352 54 c5 -12 32 -12 32 0 0 5 10 11 21 14 15 4 34 -4 60 -25 21 -17 62 -39 91 -49 l53 -18 -245 0 c-136 1 -232 4 -215 9 49 12 78 26 120 59 38 29 74 33 83 10z m550 -2 c9 -7 16 -7 24 1 17 17 63 15 79 -4 16 -19 62 -44 114 -60 35 -11 7 -13 -205 -13 l-245 0 53 18 c29 10 69 32 90 48 36 30 61 32 90 10z m1310 -14 c20 -21 46 -43 57 -50 16 -9 -20 -12 -177 -12 -109 -1 -198 1 -198 4 0 2 15 11 33 20 17 8 41 28 52 45 20 29 21 30 108 30 l88 0 37 -37z"/>
<path d="M4690 520 l0 -60 58 0 57 0 -3 60 -4 60 -54 0 -54 0 0 -60z"/>
<path d="M4233 510 l-2 -50 55 0 55 0 -3 48 -3 47 -50 3 -51 3 -1 -51z"/>
<path d="M857 533 c-15 -14 -7 -63 12 -73 39 -20 82 22 61 60 -10 20 -58 28 -73 13z"/>
<path d="M5870 497 l0 -44 43 2 c42 1 42 1 45 43 l3 42 -45 0 -46 0 0 -43z"/>
<path d="M6170 500 l0 -40 40 0 40 0 0 40 0 40 -40 0 -40 0 0 -40z"/>
<path d="M1512 528 c-33 -33 16 -91 57 -68 39 20 21 80 -24 80 -12 0 -26 -5 -33 -12z"/>
<path d="M5750 500 c0 -5 5 -10 10 -10 6 0 10 5 10 10 0 6 -4 10 -10 10 -5 0 -10 -4 -10 -10z"/>
<path d="M6050 495 c0 -8 5 -15 10 -15 6 0 10 7 10 15 0 8 -4 15 -10 15 -5 0 -10 -7 -10 -15z"/>
<path d="M1040 1497 c-14 -7 -60 -59 -102 -116 l-78 -103 0 -124 c0 -68 2 -124 4 -124 2 0 22 32 45 70 l42 70 99 0 c81 0 100 3 100 15 0 28 22 63 48 74 46 21 102 -20 102 -74 0 -12 15 -15 70 -15 l70 0 -2 168 -3 167 -164 3 c-142 2 -166 0 -174 -13 -8 -15 -10 -15 -20 -1 -10 13 -16 14 -37 3z"/>
<path d="M1457 1503 c-4 -3 -7 -80 -7 -170 l0 -163 150 0 150 0 0 170 0 170 -143 0 c-79 0 -147 -3 -150 -7z"/>
<path d="M1767 1473 c-4 -21 -4 -96 -1 -168 l4 -130 145 -3 145 -3 -2 168 -3 168 -87 3 c-74 2 -88 0 -88 -13 0 -8 -4 -15 -10 -15 -5 0 -10 7 -10 15 0 11 -12 15 -44 15 -43 0 -44 -1 -49 -37z"/>
<path d="M2077 1504 c-4 -4 -7 -81 -7 -171 l0 -163 218 0 217 0 -127 125 c-119 117 -127 127 -130 167 l-3 43 -80 3 c-45 1 -84 0 -88 -4z m131 -181 c-3 -15 -14 -18 -58 -18 -44 0 -55 3 -58 18 -3 15 5 17 58 17 53 0 61 -2 58 -17z"/>
<path d="M2100 1320 c0 -5 23 -10 50 -10 28 0 50 5 50 10 0 6 -22 10 -50 10 -27 0 -50 -4 -50 -10z"/>
<path d="M2260 1472 c0 -36 9 -47 133 -170 l132 -132 78 0 77 0 0 170 0 170 -210 0 -210 0 0 -38z"/>
<path d="M2694 1497 c-2 -7 -3 -82 -2 -167 l3 -155 348 -3 347 -2 -2 167 -3 168 -182 3 c-158 2 -183 0 -183 -13 0 -8 -4 -15 -10 -15 -5 0 -10 7 -10 15 0 13 -23 15 -150 15 -114 0 -152 -3 -156 -13z"/>
<path d="M3407 1503 c-4 -3 -7 -80 -7 -170 l0 -163 231 0 231 0 -6 23 c-3 12 -6 88 -6 170 l0 147 -218 0 c-120 0 -222 -3 -225 -7z"/>
<path d="M3870 1340 l0 -170 175 0 175 0 0 154 c0 85 -3 161 -6 170 -9 24 -99 22 -113 -1 -10 -17 -10 -17 -11 0 0 15 -12 17 -110 17 l-110 0 0 -170z"/>
<path d="M4230 1340 l0 -170 135 0 135 0 0 170 0 170 -135 0 -135 0 0 -170z"/>
<path d="M4520 1340 l0 -170 98 0 98 0 -24 138 c-14 75 -27 139 -31 142 -4 3 -12 17 -18 33 -12 25 -17 27 -68 27 l-55 0 0 -170z"/>
<path d="M799 1197 c-25 -28 -69 -84 -97 -123 l-52 -71 0 -121 c0 -104 2 -122 16 -122 13 0 15 17 13 123 l-3 122 53 73 c29 39 57 72 62 72 5 0 14 -20 20 -45 6 -24 17 -50 25 -56 12 -10 14 5 14 95 0 58 -1 106 -2 106 -2 0 -24 -24 -49 -53z"/>
<path d="M1186 1234 c-9 -8 -16 -26 -16 -40 0 -22 3 -24 54 -24 30 0 57 3 60 8 2 4 -2 22 -9 40 -11 26 -20 32 -44 32 -16 0 -37 -7 -45 -16z"/>
<path d="M923 1094 l-33 -55 42 3 c38 3 43 7 70 56 l30 52 -39 0 c-36 0 -40 -4 -70 -56z"/>
<path d="M3850 1068 l1 -83 63 -90 c47 -68 69 -91 88 -93 14 -2 207 17 430 42 223 26 410 46 416 46 7 0 12 9 12 20 0 19 -7 20 -180 20 l-180 0 0 110 0 110 -325 0 -325 0 0 -82z"/>
<path d="M2770 1030 l0 -80 40 0 40 0 0 80 0 80 -40 0 -40 0 0 -80z"/>
<path d="M2862 1033 l3 -78 338 -2 337 -2 0 79 0 80 -340 0 -341 0 3 -77z"/>
<path d="M3552 1033 l3 -78 40 0 40 0 3 78 3 77 -46 0 -46 0 3 -77z"/>
<path d="M702 1010 c-8 -13 -12 -61 -12 -137 l1 -118 19 24 c22 26 150 235 150 245 0 3 -33 6 -73 6 -61 0 -74 -3 -85 -20z"/>
<path d="M857 983 c-52 -83 -52 -83 -10 -83 36 0 40 4 75 60 l37 60 -39 0 c-35 0 -43 -4 -63 -37z"/>
<path d="M2081 963 c23 -21 56 -39 77 -44 l37 -7 -39 -1 c-32 -1 -46 6 -82 39 -24 22 -48 40 -53 40 -5 0 -11 -17 -13 -37 l-3 -38 -75 -1 c-41 0 -81 -1 -88 -2 -23 -3 -2 -22 24 -22 22 0 24 -4 24 -50 0 -48 1 -50 29 -50 26 0 29 -3 27 -32 -1 -23 3 -33 14 -33 11 0 14 10 12 41 -2 23 1 45 7 49 23 14 9 24 -36 28 l-48 3 52 2 c28 1 55 -2 58 -8 3 -5 -1 -23 -10 -40 -19 -36 -11 -76 16 -83 10 -3 19 -12 19 -21 0 -9 5 -16 11 -16 5 0 7 5 4 11 -8 13 22 9 260 -35 l170 -31 9 -73 c8 -70 10 -72 36 -72 36 0 48 17 47 63 -1 31 -4 37 -24 37 -24 0 -46 30 -38 52 4 11 -18 18 -97 31 -270 43 -364 60 -376 70 -18 14 -9 73 14 98 15 17 32 19 136 19 l118 0 0 75 0 75 -130 0 -130 0 41 -37z m179 -18 c0 -31 -3 -35 -25 -35 -22 0 -25 4 -25 35 0 31 3 35 25 35 22 0 25 -4 25 -35z m-213 -7 c-3 -8 -6 -5 -6 6 -1 11 2 17 5 13 3 -3 4 -12 1 -19z m488 -388 c-3 -5 -1 -11 5 -15 6 -4 8 -11 4 -16 -9 -16 -24 1 -24 27 0 15 4 23 10 19 6 -4 8 -10 5 -15z"/>
<path d="M1088 777 c-3 -111 -4 -205 -1 -209 2 -5 67 -8 144 -8 l139 0 0 210 0 210 -139 -1 -138 0 -5 -202z"/>
<path d="M1040 891 c0 -61 3 -80 15 -85 13 -4 15 8 15 79 0 69 -3 85 -15 85 -12 0 -15 -15 -15 -79z"/>
<path d="M1380 886 c0 -47 4 -86 9 -86 22 0 32 32 29 96 -2 56 -6 69 -20 72 -16 3 -18 -6 -18 -82z"/>
<path d="M1909 953 c-17 -20 -3 -29 40 -25 27 3 41 9 41 18 0 8 -3 14 -7 15 -46 5 -66 3 -74 -8z"/>
<path d="M1555 909 c-5 -7 -28 -10 -66 -7 l-59 4 0 -30 0 -31 85 3 c76 3 85 5 85 23 0 23 10 23 160 5 103 -12 152 -10 95 5 -16 5 -81 13 -144 19 -64 6 -123 13 -133 16 -9 2 -20 0 -23 -7z"/>
<path d="M786 868 c-7 -13 -26 -42 -40 -65 l-26 -43 42 0 c42 0 44 2 76 59 17 33 32 62 32 65 0 3 -16 6 -35 6 -25 0 -38 -6 -49 -22z"/>
<path d="M2441 876 c-68 -24 -151 -118 -151 -171 0 -28 15 -15 33 30 60 145 238 179 348 66 56 -58 77 -121 62 -187 -8 -34 -7 -44 2 -44 30 0 33 89 4 164 -45 121 -179 185 -298 142z"/>
<path d="M2980 877 c-51 -16 -123 -93 -143 -152 -24 -71 -21 -155 5 -155 6 0 8 16 4 43 -15 100 60 222 154 247 102 27 204 -17 253 -110 25 -48 28 -63 24 -117 -4 -49 -2 -63 9 -63 18 0 19 105 3 161 -36 119 -180 187 -309 146z"/>
<path d="M3515 871 c-52 -24 -121 -99 -134 -147 -14 -50 -14 -120 0 -145 16 -30 29 -13 17 22 -22 62 13 162 76 217 77 68 188 67 271 0 101 -84 107 -247 13 -335 -76 -71 -228 -70 -287 1 -8 9 -20 16 -27 16 -46 0 32 -64 103 -86 146 -45 303 71 303 223 0 26 -5 65 -11 87 -13 48 -82 123 -134 147 -52 24 -138 24 -190 0z"/>
<path d="M1620 866 c0 -9 -7 -19 -15 -22 -8 -4 -15 -17 -15 -30 l0 -24 146 0 145 0 -3 27 c-4 38 -33 41 -69 7 -34 -32 -40 -22 -7 13 l21 23 -46 0 c-25 0 -49 -4 -52 -10 -9 -15 -25 -12 -25 5 0 9 -9 15 -24 15 -13 0 -31 3 -40 6 -11 4 -16 1 -16 -10z"/>
<path d="M2474 851 c-55 -14 -100 -49 -128 -101 -16 -28 -26 -54 -23 -57 8 -7 78 -23 107 -23 21 0 16 6 -30 35 -64 40 -58 47 7 9 48 -28 81 -23 42 7 -13 10 -19 19 -12 19 6 0 18 -7 27 -15 8 -8 17 -11 20 -6 9 15 59 3 146 -34 47 -19 88 -35 92 -35 15 0 -5 66 -35 113 -44 71 -133 107 -213 88z"/>
<path d="M3035 855 c-5 -2 -22 -6 -37 -9 -39 -9 -98 -64 -119 -111 -21 -45 -26 -150 -8 -161 6 -3 14 -2 18 3 3 6 26 17 50 25 25 8 46 19 48 25 2 6 -20 14 -49 19 l-53 8 53 4 c28 2 52 7 52 11 0 5 -23 18 -51 30 -28 13 -49 24 -46 27 2 2 26 -5 52 -16 26 -11 50 -18 53 -15 3 3 -12 23 -33 45 -49 50 -34 53 17 3 39 -38 53 -29 22 15 -8 12 -11 22 -6 22 5 0 15 -13 22 -30 14 -34 30 -31 30 5 0 30 14 39 40 25 15 -8 18 -17 13 -40 -7 -37 6 -38 37 -5 l23 25 -22 0 c-12 0 -20 4 -17 8 3 4 22 6 43 4 31 -4 34 -6 17 -12 -21 -8 -59 -58 -51 -67 3 -2 26 4 51 16 25 11 46 16 46 12 0 -5 -20 -16 -45 -25 -53 -21 -58 -36 -12 -37 17 -1 43 -5 57 -9 19 -6 11 -8 -33 -9 -69 -1 -73 -17 -8 -39 23 -8 40 -16 37 -19 -3 -3 -25 2 -50 10 -47 16 -63 13 -45 -9 14 -17 71 -28 103 -20 20 5 26 14 31 49 13 84 -30 175 -100 213 -38 21 -109 37 -130 29z"/>
<path d="M3503 825 c-23 -14 -51 -40 -62 -59 -46 -74 -45 -194 2 -197 43 -3 92 3 104 13 25 20 2 27 -44 13 -58 -18 -69 -12 -14 6 55 19 52 33 -9 37 -27 2 -50 8 -50 13 0 5 6 9 13 8 32 -4 87 2 87 10 0 5 -23 18 -51 30 -28 13 -49 24 -47 27 3 2 28 -5 57 -17 28 -12 55 -19 58 -15 4 4 -13 24 -37 46 -57 49 -44 52 16 4 43 -36 55 -33 33 8 -6 11 -8 22 -5 25 3 3 11 -6 17 -21 16 -35 29 -33 29 4 0 17 5 30 11 30 7 0 9 -11 6 -30 -5 -23 -3 -30 9 -30 8 0 17 12 20 29 4 17 14 31 25 34 23 6 25 -2 5 -17 -8 -6 -18 -24 -22 -41 l-7 -30 40 38 c52 49 68 48 19 -2 -22 -22 -35 -44 -31 -51 4 -7 11 -8 18 -2 19 15 87 42 87 34 0 -4 -23 -17 -51 -29 -31 -14 -48 -27 -44 -33 4 -6 12 -9 19 -7 6 3 29 1 51 -3 39 -7 38 -8 -17 -9 -32 0 -58 -5 -58 -9 0 -5 22 -19 50 -32 63 -29 58 -39 -5 -11 -26 11 -52 18 -57 15 -5 -4 9 -26 33 -50 24 -24 39 -44 35 -44 -5 0 -24 16 -43 35 -45 47 -58 44 -33 -6 12 -22 19 -46 16 -52 -2 -7 -5 -3 -6 8 -1 17 -5 16 -29 -13 -24 -28 -29 -30 -35 -17 -3 10 -13 15 -20 12 -8 -3 -17 1 -20 9 -3 9 -20 14 -46 14 -48 0 -45 -12 10 -40 94 -48 210 -6 261 92 21 42 25 129 8 175 -14 38 -67 92 -106 109 -54 23 -141 18 -190 -11z"/>
<path d="M2056 817 c-22 -35 -28 -63 -14 -74 15 -12 118 -25 118 -15 0 13 -35 60 -63 86 l-27 25 -14 -22z m64 -47 c0 -5 -4 -10 -9 -10 -6 0 -13 5 -16 10 -3 6 1 10 9 10 9 0 16 -4 16 -10z"/>
<path d="M2100 832 c0 -4 8 -12 19 -19 10 -6 29 -32 41 -57 21 -44 40 -60 40 -34 0 20 -50 97 -70 108 -22 12 -30 13 -30 2z"/>
<path d="M1505 821 c-6 -5 -25 -11 -44 -13 -19 -2 -36 -8 -38 -15 -3 -8 16 -11 61 -10 62 1 66 2 66 24 0 24 -27 32 -45 14z"/>
<path d="M1564 813 c3 -10 10 -55 17 -100 8 -51 17 -83 24 -83 9 0 7 21 -6 78 -10 42 -19 87 -19 100 0 12 -5 22 -11 22 -6 0 -8 -8 -5 -17z"/>
<path d="M1053 773 c-20 -7 -18 -187 2 -203 13 -11 15 1 15 99 0 61 -1 111 -2 110 -2 0 -9 -3 -15 -6z"/>
<path d="M1380 670 c0 -60 4 -110 9 -110 16 0 21 30 21 126 0 77 -3 94 -15 94 -12 0 -15 -19 -15 -110z"/>
<path d="M1909 775 c-1 -3 -2 -9 -3 -14 0 -5 -4 -13 -8 -17 -14 -13 -9 -24 10 -24 14 0 19 8 20 30 0 17 -4 30 -9 30 -5 0 -10 -2 -10 -5z"/>
<path d="M3060 755 c0 -15 6 -25 14 -25 19 0 27 37 9 44 -22 9 -23 8 -23 -19z"/>
<path d="M1430 750 c0 -18 7 -20 65 -20 58 0 65 2 65 20 0 18 -7 20 -65 20 -58 0 -65 -2 -65 -20z"/>
<path d="M1602 748 c2 -13 9 -24 16 -24 25 -3 25 -4 6 -19 -18 -14 -18 -14 6 -15 24 -1 24 -1 5 -15 -18 -14 -18 -16 -3 -31 9 -9 40 -19 68 -22 46 -4 52 -2 57 16 4 19 7 19 20 7 8 -8 23 -15 33 -15 21 0 568 -100 638 -117 18 -4 22 -1 22 19 0 24 -5 26 -167 57 -93 18 -256 47 -363 66 -130 22 -188 35 -172 40 12 4 22 11 22 16 0 5 15 9 33 9 30 0 67 24 67 43 0 4 -66 7 -146 7 -145 0 -145 0 -142 -22z"/>
<path d="M1430 710 c0 -6 30 -10 70 -10 40 0 70 4 70 10 0 6 -30 10 -70 10 -40 0 -70 -4 -70 -10z"/>
<path d="M1800 700 c0 -5 6 -10 13 -10 6 0 29 -3 50 -6 29 -5 37 -3 37 8 0 11 -13 15 -50 17 -28 1 -50 -3 -50 -9z"/>
<path d="M1920 690 c-8 -15 -8 -20 2 -20 7 0 63 -9 123 -20 134 -24 125 -24 125 0 0 16 -7 20 -32 22 -18 1 -42 2 -53 3 -11 1 -28 -2 -38 -7 -13 -7 -20 -3 -29 17 -9 20 -18 25 -49 25 -28 0 -41 -5 -49 -20z"/>
<path d="M2477 692 c-23 -26 -21 -31 11 -29 24 2 27 -2 30 -31 6 -62 62 -46 62 18 0 53 -69 80 -103 42z"/>
<path d="M3017 692 c-9 -10 -17 -30 -17 -45 0 -39 26 -59 74 -55 34 3 42 7 50 31 15 43 -9 81 -55 85 -24 2 -40 -3 -52 -16z"/>
<path d="M3560 694 c-18 -21 -17 -72 3 -91 22 -22 76 -21 93 2 20 26 17 69 -4 88 -23 21 -75 22 -92 1z"/>
<path d="M1430 666 c0 -11 17 -14 75 -14 58 0 75 3 75 14 0 11 -17 14 -75 14 -58 0 -75 -3 -75 -14z"/>
<path d="M2590 670 c0 -5 15 -10 33 -10 24 0 28 3 17 10 -20 13 -50 13 -50 0z"/>
<path d="M2182 643 c2 -10 10 -18 18 -18 8 0 16 8 18 18 2 12 -3 17 -18 17 -15 0 -20 -5 -18 -17z"/>
<path d="M2232 633 c5 -24 38 -30 39 -6 0 15 1 15 9 -3 6 -15 20 -23 54 -27 25 -4 52 -4 61 -1 8 4 15 1 15 -5 0 -6 14 -11 30 -11 27 0 29 2 21 19 -6 11 -26 21 -48 25 -21 4 -50 9 -65 12 -22 4 -28 2 -28 -11 0 -9 -5 -13 -11 -10 -6 4 -8 12 -6 19 3 8 -9 13 -35 15 -33 2 -39 -1 -36 -16z m218 -33 c0 -5 -4 -10 -10 -10 -5 0 -10 5 -10 10 0 6 5 10 10 10 6 0 10 -4 10 -10z"/>
<path d="M2595 639 c-9 -13 -11 -11 54 -44 56 -28 65 -26 75 16 5 24 2 27 -25 33 -48 9 -97 7 -104 -5z"/>
<path d="M1776 598 c3 -13 13 -34 20 -48 31 -58 30 -58 79 -7 53 55 42 71 -25 37 -23 -12 -44 -19 -47 -16 -3 3 11 13 32 23 l38 18 -29 6 c-16 4 -39 7 -52 8 -20 1 -22 -2 -16 -21z"/>
<path d="M1740 595 c0 -28 39 -93 77 -130 51 -50 124 -70 197 -55 52 11 136 60 136 80 0 13 -30 1 -55 -21 -48 -42 -141 -52 -210 -20 -48 21 -98 76 -116 125 -13 37 -29 48 -29 21z"/>
<path d="M2582 593 c2 -14 14 -19 48 -20 43 -3 44 -2 20 11 -14 7 -36 17 -48 21 -20 6 -23 4 -20 -12z"/>
<path d="M2945 589 l-50 -17 41 -1 c26 -1 46 5 54 14 19 23 10 24 -45 4z"/>
<path d="M1015 570 c8 -16 15 -52 15 -80 l0 -50 190 0 190 0 0 54 c0 39 6 60 21 80 27 35 15 34 -16 -1 l-23 -28 -167 0 -167 0 -22 28 c-29 36 -40 35 -21 -3z"/>
<path d="M1891 545 c-22 -24 -41 -49 -41 -54 0 -12 39 -35 47 -27 3 3 12 -2 21 -11 21 -21 112 -12 155 16 18 11 30 21 27 22 -48 9 -68 8 -96 -7 -30 -16 -34 -16 -57 -1 -19 12 -27 13 -30 4 -2 -6 -7 -9 -11 -6 -10 9 21 81 41 97 15 10 15 12 1 12 -8 0 -34 -20 -57 -45z m159 -65 c0 -5 -4 -10 -10 -10 -5 0 -10 5 -10 10 0 6 5 10 10 10 6 0 10 -4 10 -10z"/>
<path d="M3005 580 c-3 -5 -1 -10 4 -10 6 0 11 5 11 10 0 6 -2 10 -4 10 -3 0 -8 -4 -11 -10z"/>
<path d="M2015 571 c3 -6 22 -11 42 -11 44 0 41 5 -10 14 -27 5 -37 4 -32 -3z"/>
<path d="M3032 568 c-20 -20 -14 -56 13 -74 24 -16 27 -16 45 1 25 23 25 40 0 65 -23 23 -41 25 -58 8z m46 -41 c2 -10 -3 -17 -12 -17 -10 0 -16 9 -16 21 0 24 23 21 28 -4z"/>
<path d="M3114 543 l11 -33 218 0 c172 0 224 -3 246 -15 26 -13 30 -13 46 5 15 17 16 24 7 45 -14 30 -42 32 -67 5 -10 -11 -20 -18 -23 -15 -3 3 3 14 13 25 10 11 13 20 8 20 -6 0 -16 -7 -23 -15 -17 -21 -381 -22 -420 -2 l-26 14 10 -34z m506 -15 c0 -21 -3 -29 -10 -22 -5 5 -7 19 -4 32 9 31 14 27 14 -10z"/>
<path d="M1942 558 c-30 -30 0 -75 43 -64 14 4 25 10 25 14 0 4 91 4 202 1 112 -3 204 -5 205 -4 2 1 -51 11 -116 24 -74 13 -152 21 -206 20 -53 -1 -91 3 -98 10 -14 14 -40 14 -55 -1z m38 -28 c0 -11 -4 -20 -10 -20 -5 0 -10 9 -10 20 0 11 5 20 10 20 6 0 10 -9 10 -20z"/>
<path d="M2580 536 l0 -26 215 0 c208 0 215 1 215 20 0 19 -7 20 -169 20 -92 0 -189 3 -215 6 -45 7 -46 6 -46 -20z"/>
<path d="M2557 478 c-28 -22 -51 -23 -71 -2 -10 10 -29 14 -53 12 l-38 -4 50 -23 c45 -22 54 -23 109 -13 33 7 68 20 78 29 17 17 16 18 -17 18 -19 0 -45 -8 -58 -17z"/>
<path d="M2659 483 c-23 -27 -91 -53 -139 -53 -45 0 -121 28 -134 49 -4 6 -14 11 -22 11 -29 0 -7 -25 45 -52 61 -32 149 -38 204 -14 40 17 98 76 75 76 -9 0 -22 -7 -29 -17z"/>
<path d="M3096 478 c-12 -16 -18 -18 -35 -9 -12 7 -21 8 -21 4 0 -4 -4 -2 -9 5 -5 9 -24 12 -52 10 l-44 -3 33 -18 c54 -29 121 -33 175 -9 58 26 60 41 7 40 -29 0 -45 -6 -54 -20z"/>
<path d="M3184 468 c-68 -50 -167 -51 -238 -3 -45 31 -66 32 -40 4 71 -78 232 -82 311 -7 23 21 30 39 16 37 -5 0 -27 -14 -49 -31z"/>
<path d="M3515 248 c-19 -51 -45 -133 -45 -140 0 -4 16 -8 35 -8 24 0 35 -5 35 -15 0 -8 5 -15 10 -15 6 0 10 6 10 14 0 8 6 17 13 20 10 5 10 7 0 12 -7 3 -13 19 -13 35 0 16 -4 29 -10 29 -5 0 -10 -13 -10 -30 0 -23 -4 -30 -20 -30 -11 0 -20 2 -20 5 0 2 9 27 20 55 11 28 20 57 20 65 0 18 -19 20 -25 3z"/>
<path d="M3710 245 c-7 -8 -10 -29 -8 -47 3 -18 1 -45 -4 -60 -13 -37 5 -68 40 -68 16 0 33 5 40 12 15 15 16 64 2 73 -7 4 -7 12 0 25 14 26 12 46 -6 64 -20 20 -48 20 -64 1z m50 -34 c0 -11 -5 -23 -11 -27 -15 -9 -33 12 -26 30 9 23 37 20 37 -3z m-2 -88 c-3 -30 -25 -42 -34 -19 -9 22 2 46 21 46 12 0 15 -8 13 -27z"/>
<path d="M3953 243 c-3 -10 -14 -40 -25 -66 -25 -67 -24 -77 12 -77 20 0 30 -5 30 -15 0 -21 27 -19 32 3 8 29 -3 93 -16 89 -6 -2 -11 -15 -11 -28 0 -15 -7 -25 -17 -27 -23 -4 -22 1 2 66 11 29 20 57 20 62 0 17 -20 11 -27 -7z"/>
<path d="M4090 225 c0 -19 5 -35 10 -35 6 0 10 16 10 35 0 19 -4 35 -10 35 -5 0 -10 -16 -10 -35z"/>
<path d="M4130 225 c0 -19 5 -35 10 -35 6 0 10 16 10 35 0 19 -4 35 -10 35 -5 0 -10 -16 -10 -35z"/>
<path d="M4177 253 c-4 -3 -7 -46 -7 -95 0 -72 3 -88 15 -88 12 0 15 14 16 63 l0 62 26 -62 c39 -93 53 -84 53 33 0 72 -3 95 -12 91 -9 -2 -13 -24 -13 -60 0 -32 -2 -57 -5 -57 -3 0 -16 27 -28 60 -23 58 -31 68 -45 53z"/>
<path d="M4580 165 c0 -78 3 -95 15 -95 12 0 15 13 15 56 0 47 3 55 18 52 13 -2 18 -15 20 -56 4 -74 22 -65 22 12 0 66 -11 83 -45 70 -11 -5 -15 1 -15 25 0 21 -5 31 -15 31 -12 0 -15 -17 -15 -95z"/>
<path d="M5017 253 c-14 -13 -7 -63 8 -63 10 0 15 11 15 35 0 33 -8 43 -23 28z"/>
<path d="M5054 246 c-8 -21 -1 -49 14 -54 8 -2 12 8 12 32 0 36 -16 49 -26 22z"/>
<path d="M4514 238 c-8 -13 -7 -122 2 -150 6 -19 44 -26 44 -8 0 6 -4 10 -10 10 -5 0 -10 20 -10 45 0 25 5 45 10 45 6 0 10 7 10 16 0 8 -4 12 -10 9 -5 -3 -10 3 -10 14 0 24 -16 36 -26 19z"/>
<path d="M4327 197 c-14 -10 -18 -24 -15 -67 l3 -55 35 0 c32 0 36 3 45 38 15 65 -26 116 -68 84z m38 -63 c0 -28 -4 -39 -15 -39 -16 0 -26 45 -16 72 11 28 31 7 31 -33z"/>
<path d="M4424 201 c-2 -2 -4 -33 -4 -68 0 -49 3 -63 15 -63 11 0 15 12 15 50 0 36 4 52 15 56 24 10 17 29 -11 29 -14 0 -28 -2 -30 -4z"/>
<path d="M4718 199 c-21 -12 -25 -98 -6 -117 17 -17 53 -15 68 3 18 21 6 29 -19 13 -18 -11 -23 -11 -31 2 -13 20 -3 30 31 30 24 0 29 4 29 23 0 23 -28 57 -46 57 -5 0 -17 -5 -26 -11z m42 -34 c0 -8 -9 -15 -20 -15 -13 0 -18 5 -14 15 4 8 12 15 20 15 8 0 14 -7 14 -15z"/>
<path d="M4817 203 c-4 -3 -7 -35 -7 -70 0 -49 3 -63 15 -63 11 0 15 12 15 51 0 42 3 52 20 56 11 3 20 12 20 19 0 17 -12 18 -28 2 -9 -9 -12 -9 -12 0 0 13 -13 16 -23 5z"/>
<path d="M4904 201 c-2 -2 -4 -33 -4 -68 0 -49 3 -63 15 -63 12 0 15 13 15 56 0 47 3 55 18 52 13 -2 18 -15 20 -56 2 -28 7 -52 13 -52 14 0 11 117 -3 127 -14 8 -67 11 -74 4z"/>
<path d="M3600 135 c0 -15 26 -20 54 -9 28 11 17 24 -19 24 -24 0 -35 -5 -35 -15z"/>
<path d="M3812 139 c5 -15 61 -18 68 -4 3 6 -12 11 -34 13 -27 2 -37 0 -34 -9z"/>
</g>
</svg>