<svg xmlns="http://www.w3.org/2000/svg" viewBox="482.90 394.00 446.30 181.00">
<g transform="translate(0.000000,768.000000) scale(0.100000,-0.100000)" fill="currentColor" stroke="none">
<path d="M5800 3411 c0 -157 4 -282 9 -285 5 -4 16 -3 25 0 14 5 16 38 16 270 l0 263 229 -2 c195 -1 228 -3 218 -15 -7 -10 -13 -10 -15 -3 -2 6 -10 11 -18 11 -12 0 -14 -39 -14 -239 l0 -238 40 0 40 0 2 241 3 241 158 2 157 2 0 -245 c0 -237 1 -244 20 -244 19 0 20 8 22 243 l3 242 130 0 130 0 3 -242 c2 -235 3 -243 22 -243 19 0 20 7 20 239 0 220 -1 240 -17 244 -10 2 -2 4 17 4 19 0 29 -2 23 -4 -10 -4 -13 -61 -13 -244 0 -204 2 -239 15 -239 12 0 15 36 17 243 l3 242 28 1 27 1 0 -243 c0 -213 2 -244 15 -244 14 0 15 30 13 243 l-3 243 25 1 c15 0 18 -1 8 -4 -17 -4 -18 -24 -18 -244 0 -232 1 -239 20 -239 19 0 20 8 22 243 l3 242 125 2 c69 1 119 0 113 -3 -10 -4 -13 -63 -13 -245 0 -206 2 -239 15 -239 13 0 15 23 17 143 l2 142 6 -140 c4 -123 7 -140 23 -143 16 -3 17 13 17 237 0 249 -2 263 -39 229 -11 -11 -13 -10 -9 2 3 11 21 15 69 17 35 1 56 -1 47 -4 -17 -4 -18 -24 -18 -244 0 -232 1 -239 20 -239 19 0 20 8 22 243 l3 242 23 3 c12 2 22 -1 22 -6 0 -6 -9 -8 -20 -5 -20 5 -20 0 -20 -236 0 -206 2 -241 15 -241 12 0 15 35 18 233 l2 232 3 -232 c2 -226 3 -233 22 -233 19 0 20 7 20 239 0 220 -1 240 -17 244 -10 2 42 4 115 5 l132 1 0 -244 c0 -235 1 -245 19 -245 11 0 22 8 24 18 4 16 5 16 6 0 0 -10 8 -18 16 -18 12 0 15 36 18 243 l2 242 3 -242 c2 -249 5 -266 40 -231 9 9 12 9 12 0 0 -7 7 -12 15 -12 13 0 15 33 15 241 l0 241 -23 -5 c-12 -4 -28 -3 -35 2 -7 4 45 9 117 10 l131 2 0 -251 0 -250 -1200 0 c-1063 0 -1200 -2 -1200 -15 0 -13 136 -15 1200 -13 660 2 1200 0 1200 -4 0 -5 11 -8 25 -8 l25 0 -2 280 -3 281 -1219 -1 c-670 0 -1222 -3 -1227 -6 -5 -3 -9 0 -9 5 0 6 -11 11 -25 11 l-25 0 0 -279z m2160 239 c-20 -13 -33 -13 -25 0 3 6 14 10 23 10 15 0 15 -2 2 -10z m-1673 -337 c-1 -54 -3 -12 -3 92 0 105 2 149 3 98 2 -51 2 -136 0 -190z m1160 165 c-2 -13 -4 -5 -4 17 -1 22 1 32 4 23 2 -10 2 -28 0 -40z"/>
<path d="M5860 3412 l0 -239 35 -1 35 -1 0 239 c0 232 -1 240 -20 240 -19 0 -20 -8 -23 -177 l-2 -178 -3 178 c-1 110 -6 177 -12 177 -6 0 -10 -86 -10 -238z m27 -154 c-3 -7 -5 -2 -5 12 0 14 2 19 5 13 2 -7 2 -19 0 -25z"/>
<path d="M5940 3410 c0 -207 2 -240 15 -240 13 0 15 33 15 240 0 207 -2 240 -15 240 -13 0 -15 -33 -15 -240z"/>
<path d="M5980 3410 c0 -233 1 -240 20 -240 19 0 20 7 20 240 0 233 -1 240 -20 240 -19 0 -20 -7 -20 -240z"/>
<path d="M6030 3410 c0 -207 2 -240 15 -240 13 0 15 33 15 240 0 207 -2 240 -15 240 -13 0 -15 -33 -15 -240z"/>
<path d="M6070 3410 c0 -233 1 -240 20 -240 19 0 20 7 20 240 0 233 -1 240 -20 240 -19 0 -20 -7 -20 -240z"/>
<path d="M6120 3410 c0 -207 2 -240 15 -240 13 0 15 33 15 240 0 207 -2 240 -15 240 -13 0 -15 -33 -15 -240z"/>
<path d="M6160 3409 c0 -229 1 -239 19 -239 11 0 22 6 24 13 4 10 6 10 6 0 1 -7 8 -13 16 -13 13 0 15 33 15 239 l0 238 -40 0 -40 0 0 -238z m47 -121 c-1 -46 -3 -9 -3 82 0 91 2 128 3 83 2 -46 2 -120 0 -165z"/>
<path d="M6340 3410 c0 -204 2 -240 15 -240 12 0 15 22 18 113 l3 112 2 -112 c2 -106 3 -113 22 -113 19 0 20 7 20 240 0 246 -3 263 -38 228 -9 -9 -12 -9 -12 0 0 7 -7 12 -15 12 -13 0 -15 -33 -15 -240z m37 8 c-3 -8 -6 -5 -6 6 -1 11 2 17 5 13 3 -3 4 -12 1 -19z"/>
<path d="M6430 3410 c0 -207 2 -240 15 -240 13 0 15 33 15 240 0 207 -2 240 -15 240 -13 0 -15 -33 -15 -240z"/>
<path d="M6470 3410 c0 -233 1 -240 20 -240 19 0 20 7 20 240 0 233 -1 240 -20 240 -19 0 -20 -7 -20 -240z"/>
<path d="M6520 3410 c0 -207 2 -240 15 -240 13 0 15 33 15 240 0 207 -2 240 -15 240 -13 0 -15 -33 -15 -240z"/>
<path d="M6560 3410 c0 -233 1 -240 20 -240 19 0 20 7 20 240 0 233 -1 240 -20 240 -19 0 -20 -7 -20 -240z"/>
<path d="M6610 3410 c0 -207 2 -240 15 -240 13 0 15 33 15 240 0 207 -2 240 -15 240 -13 0 -15 -33 -15 -240z"/>
<path d="M6700 3410 c0 -207 2 -240 15 -240 13 0 15 33 15 240 0 207 -2 240 -15 240 -13 0 -15 -33 -15 -240z"/>
<path d="M6740 3409 c0 -202 2 -239 15 -239 7 0 19 8 24 18 10 16 10 16 11 0 0 -10 7 -18 15 -18 13 0 15 33 15 239 l0 238 -40 0 -40 0 0 -238z"/>
<path d="M6830 3409 l0 -238 40 1 40 0 0 238 0 237 -40 0 -40 0 0 -238z m47 149 c-2 -13 -4 -5 -4 17 -1 22 1 32 4 23 2 -10 2 -28 0 -40z"/>
<path d="M6920 3410 c0 -207 2 -240 15 -240 13 0 15 33 15 240 0 207 -2 240 -15 240 -13 0 -15 -33 -15 -240z"/>
<path d="M7050 3411 c0 -235 0 -241 20 -241 20 0 20 5 18 237 -3 217 -5 238 -20 241 -17 3 -18 -13 -18 -237z"/>
<path d="M7190 3410 c0 -207 2 -240 15 -240 13 0 15 33 15 240 0 207 -2 240 -15 240 -13 0 -15 -33 -15 -240z"/>
<path d="M7230 3410 c0 -233 1 -240 20 -240 19 0 20 7 20 240 0 233 -1 240 -20 240 -19 0 -20 -7 -20 -240z"/>
<path d="M7280 3410 c0 -207 2 -240 15 -240 13 0 15 33 15 240 0 207 -2 240 -15 240 -13 0 -15 -33 -15 -240z"/>
<path d="M7320 3410 c0 -232 1 -240 20 -240 19 0 20 8 23 198 l2 197 3 -197 c2 -168 4 -198 17 -198 13 0 15 33 15 240 0 207 -2 240 -15 240 -8 0 -15 -5 -15 -12 0 -9 -3 -9 -12 0 -35 35 -38 18 -38 -228z m47 173 c-3 -10 -5 -4 -5 12 0 17 2 24 5 18 2 -7 2 -21 0 -30z"/>
<path d="M7500 3410 c0 -207 2 -240 15 -240 13 0 15 33 15 240 0 207 -2 240 -15 240 -13 0 -15 -33 -15 -240z"/>
<path d="M7680 3410 c0 -207 2 -240 15 -240 13 0 15 33 15 240 0 207 -2 240 -15 240 -13 0 -15 -33 -15 -240z"/>
<path d="M7720 3411 c0 -233 1 -241 20 -241 19 0 20 8 23 183 l2 182 3 -182 c2 -155 4 -183 17 -183 13 0 15 33 15 240 0 207 -2 240 -15 240 -11 0 -15 -14 -17 -57 l-1 -58 -6 55 c-5 41 -10 56 -23 58 -17 3 -18 -13 -18 -237z"/>
<path d="M7810 3411 c0 -235 0 -241 20 -241 20 0 20 5 18 237 -3 217 -5 238 -20 241 -17 3 -18 -13 -18 -237z"/>
<path d="M7860 3410 c0 -207 2 -240 15 -240 13 0 15 33 15 240 0 207 -2 240 -15 240 -13 0 -15 -33 -15 -240z"/>
<path d="M8080 3411 l0 -239 40 0 40 -1 0 240 c0 230 -1 239 -20 239 -16 0 -20 -8 -23 -57 l-3 -58 -2 58 c-2 43 -6 57 -17 57 -13 0 -15 -33 -15 -239z"/>
<path d="M8170 3411 l0 -240 40 1 40 0 0 239 c0 206 -2 239 -15 239 -8 0 -15 -5 -15 -12 0 -9 -3 -9 -12 0 -35 35 -38 18 -38 -227z m47 42 c-3 -10 -5 -2 -5 17 0 19 2 27 5 18 2 -10 2 -26 0 -35z"/>
<path d="M5800 2948 l0 -158 25 0 24 0 4 148 3 147 2 -152 c1 -94 6 -153 12 -153 6 0 10 57 10 150 l0 150 1190 2 1189 3 3 -158 c2 -86 0 -157 -4 -157 -5 0 -8 68 -8 150 l0 150 -40 0 -40 0 0 -165 c0 -156 1 -165 19 -165 11 0 22 6 24 13 4 10 6 10 6 0 1 -10 53 -13 226 -13 218 0 225 1 225 20 0 19 -7 20 -197 21 -109 1 -190 3 -180 6 15 4 17 20 17 161 l0 157 -1255 0 -1255 0 0 -157z m2417 -170 c-3 -8 -6 -5 -6 6 -1 11 2 17 5 13 3 -3 4 -12 1 -19z"/>
<path d="M5890 2905 c0 -158 1 -165 20 -165 19 0 20 7 20 165 0 158 -1 165 -20 165 -19 0 -20 -7 -20 -165z"/>
<path d="M5940 2905 c0 -140 2 -165 15 -165 13 0 15 25 15 165 0 140 -2 165 -15 165 -13 0 -15 -25 -15 -165z"/>
<path d="M5980 2905 c0 -158 1 -165 20 -165 19 0 20 7 20 165 0 158 -1 165 -20 165 -19 0 -20 -7 -20 -165z"/>
<path d="M6030 2905 c0 -140 2 -165 15 -165 13 0 15 25 15 165 0 140 -2 165 -15 165 -13 0 -15 -25 -15 -165z"/>
<path d="M6070 2905 c0 -158 1 -165 20 -165 19 0 20 7 20 165 0 158 -1 165 -20 165 -19 0 -20 -7 -20 -165z"/>
<path d="M6120 2905 c0 -140 2 -165 15 -165 13 0 15 25 15 165 0 140 -2 165 -15 165 -13 0 -15 -25 -15 -165z"/>
<path d="M6160 2905 c0 -156 1 -165 19 -165 11 0 22 6 24 13 4 10 6 10 6 0 1 -7 8 -13 16 -13 13 0 15 25 15 165 l0 165 -40 0 -40 0 0 -165z m47 -82 c-2 -32 -3 -8 -3 52 0 61 1 87 3 58 2 -29 2 -78 0 -110z"/>
<path d="M6250 2905 l0 -162 40 0 40 0 0 163 0 163 -40 -1 -40 0 0 -163z m37 -37 c-2 -29 -3 -6 -3 52 0 58 1 81 3 53 2 -29 2 -77 0 -105z"/>
<path d="M6340 2906 l0 -164 40 0 40 -1 0 165 c0 157 -1 164 -20 164 -18 0 -20 -8 -23 -132 l-3 -133 -2 133 c-2 110 -5 132 -17 132 -13 0 -15 -25 -15 -164z"/>
<path d="M6430 2905 c0 -140 2 -165 15 -165 13 0 15 25 15 165 0 140 -2 165 -15 165 -13 0 -15 -25 -15 -165z"/>
<path d="M6470 2905 c0 -158 1 -165 20 -165 19 0 20 7 20 165 0 158 -1 165 -20 165 -19 0 -20 -7 -20 -165z"/>
<path d="M6520 2905 c0 -140 2 -165 15 -165 13 0 15 25 15 165 0 140 -2 165 -15 165 -13 0 -15 -25 -15 -165z"/>
<path d="M6560 2905 c0 -158 1 -165 20 -165 19 0 20 7 20 165 0 158 -1 165 -20 165 -19 0 -20 -7 -20 -165z"/>
<path d="M6610 2905 c0 -140 2 -165 15 -165 13 0 15 25 15 165 0 140 -2 165 -15 165 -13 0 -15 -25 -15 -165z"/>
<path d="M6650 2905 c0 -156 1 -165 19 -165 11 0 22 6 24 13 4 10 6 10 6 0 1 -7 8 -13 16 -13 13 0 15 25 15 165 0 139 -2 165 -15 165 -12 0 -15 -26 -18 -152 l-3 -153 -2 153 c-2 145 -3 152 -22 152 -19 0 -20 -7 -20 -165z"/>
<path d="M6740 2905 c0 -156 1 -165 19 -165 11 0 22 6 24 13 4 10 6 10 6 0 1 -7 8 -13 16 -13 13 0 15 25 15 165 l0 165 -40 0 -40 0 0 -165z"/>
<path d="M6830 2904 c0 -156 1 -164 19 -164 15 0 21 8 24 38 l4 37 1 -37 c1 -26 7 -38 17 -38 13 0 15 25 15 164 l0 164 -40 0 -40 1 0 -165z"/>
<path d="M6920 2905 c0 -140 2 -165 15 -165 13 0 15 25 15 165 0 140 -2 165 -15 165 -13 0 -15 -25 -15 -165z"/>
<path d="M6960 2905 c0 -158 1 -165 20 -165 19 0 20 7 20 165 0 158 -1 165 -20 165 -19 0 -20 -7 -20 -165z"/>
<path d="M7010 2905 c0 -140 2 -165 15 -165 13 0 15 25 15 165 0 140 -2 165 -15 165 -13 0 -15 -25 -15 -165z"/>
<path d="M7050 2905 c0 -158 1 -165 20 -165 19 0 20 7 20 165 0 158 -1 165 -20 165 -19 0 -20 -7 -20 -165z"/>
<path d="M7100 2905 c0 -140 2 -165 15 -165 13 0 15 25 15 165 0 140 -2 165 -15 165 -13 0 -15 -25 -15 -165z"/>
<path d="M7140 2905 c0 -158 1 -165 20 -165 19 0 20 7 20 165 0 158 -1 165 -20 165 -19 0 -20 -7 -20 -165z"/>
<path d="M7190 2905 c0 -140 2 -165 15 -165 13 0 15 25 15 165 0 140 -2 165 -15 165 -13 0 -15 -25 -15 -165z"/>
<path d="M7230 2905 c0 -158 1 -165 20 -165 19 0 20 7 20 165 0 158 -1 165 -20 165 -19 0 -20 -7 -20 -165z"/>
<path d="M7280 2905 c0 -140 2 -165 15 -165 13 0 15 25 15 165 0 140 -2 165 -15 165 -13 0 -15 -25 -15 -165z"/>
<path d="M7320 2905 c0 -158 1 -165 20 -165 18 0 20 8 23 158 l3 157 2 -157 c2 -133 4 -158 17 -158 13 0 15 25 15 165 l0 165 -40 0 -40 0 0 -165z"/>
<path d="M7410 2906 l0 -163 40 0 40 0 0 163 c0 155 -1 164 -19 164 -11 0 -22 -6 -24 -12 -4 -10 -6 -10 -6 0 -1 6 -8 12 -16 12 -13 0 -15 -25 -15 -164z m37 -28 c-2 -24 -4 -7 -4 37 0 44 2 63 4 43 2 -21 2 -57 0 -80z"/>
<path d="M7500 2905 c0 -140 2 -165 15 -165 13 0 15 25 15 165 0 140 -2 165 -15 165 -13 0 -15 -25 -15 -165z"/>
<path d="M7540 2905 c0 -158 1 -165 20 -165 19 0 20 7 20 165 0 158 -1 165 -20 165 -19 0 -20 -7 -20 -165z"/>
<path d="M7590 2905 c0 -140 2 -165 15 -165 13 0 15 25 15 165 0 140 -2 165 -15 165 -13 0 -15 -25 -15 -165z"/>
<path d="M7630 2905 c0 -158 1 -165 20 -165 19 0 20 7 20 165 0 158 -1 165 -20 165 -19 0 -20 -7 -20 -165z"/>
<path d="M7680 2905 c0 -140 2 -165 15 -165 13 0 15 25 15 165 0 140 -2 165 -15 165 -13 0 -15 -25 -15 -165z"/>
<path d="M7720 2904 c0 -157 1 -164 20 -164 18 0 20 8 23 153 l3 152 2 -152 c2 -128 4 -153 17 -153 13 0 15 25 15 164 l0 164 -40 0 -40 1 0 -165z"/>
<path d="M7810 2905 c0 -158 1 -165 20 -165 18 0 20 8 23 143 l3 142 2 -142 c2 -120 4 -143 17 -143 13 0 15 25 15 165 l0 165 -40 0 -40 0 0 -165z"/>
<path d="M7900 2905 c0 -157 1 -165 19 -165 15 0 21 8 24 38 l4 37 1 -37 c1 -26 7 -38 17 -38 13 0 15 25 15 165 l0 165 -40 0 -40 0 0 -165z"/>
<path d="M7990 2904 c0 -152 1 -165 17 -162 10 2 21 16 24 33 l7 30 1 -32 c1 -22 6 -33 16 -33 13 0 15 25 15 165 0 160 -1 165 -21 165 -16 0 -19 -4 -14 -20 4 -11 2 -20 -4 -20 -6 0 -11 9 -11 20 0 11 -7 20 -15 20 -13 0 -15 -25 -15 -166z"/>
<path d="M8080 2906 l0 -164 40 0 40 -1 0 165 c0 155 -1 164 -19 164 -14 0 -21 -8 -24 -27 l-4 -28 -2 28 c0 17 -7 27 -16 27 -13 0 -15 -25 -15 -164z"/>
<path d="M5025 2870 c-3 -5 -5 -57 -4 -115 1 -82 4 -105 15 -105 10 0 14 -16 14 -60 l0 -60 33 -1 c17 -1 37 -1 42 0 6 0 11 -13 11 -31 1 -31 1 -31 -12 -7 -9 16 -13 19 -14 8 0 -20 34 -52 45 -42 4 5 5 3 1 -4 -3 -6 2 -16 11 -22 13 -7 -25 -10 -134 -11 l-153 0 0 -30 0 -30 2181 0 2180 0 -3 28 -3 27 -155 5 c-85 3 -149 7 -142 8 22 4 62 54 62 78 0 20 5 24 29 24 35 0 41 7 43 55 1 20 5 31 9 24 4 -7 5 -19 1 -27 -4 -11 -1 -14 12 -9 13 5 21 -3 36 -38 17 -39 66 -85 93 -85 19 0 4 18 -28 33 -23 11 -37 26 -41 44 -4 15 -15 39 -26 52 -10 13 -18 28 -18 34 0 5 9 -2 21 -17 16 -20 29 -26 59 -26 36 0 38 2 45 36 3 20 3 39 0 43 -11 10 -99 5 -102 -6 -2 -6 -14 -8 -26 -6 -21 4 -22 7 -19 119 2 76 0 114 -7 114 -7 0 -11 -32 -11 -87 l0 -88 -67 5 -68 5 63 3 c77 4 83 22 7 22 l-55 0 0 70 c0 40 -4 70 -10 70 -6 0 -10 -37 -11 -87 -1 -49 -3 -80 -6 -70 -4 16 -102 17 -1874 17 l-1869 0 0 70 c0 40 -4 70 -10 70 -6 0 -10 -30 -10 -70 l0 -70 -54 0 c-51 0 -55 2 -61 28 -3 15 -3 47 -1 70 5 39 -6 64 -19 42z m30 -160 c3 -5 1 -10 -4 -10 -6 0 -11 5 -11 10 0 6 2 10 4 10 3 0 8 -4 11 -10z m122 -22 c-3 -7 -5 -2 -5 12 0 14 2 19 5 13 2 -7 2 -19 0 -25z m3700 0 c-3 -7 -5 -2 -5 12 0 14 2 19 5 13 2 -7 2 -19 0 -25z m-3729 15 c-10 -2 -26 -2 -35 0 -10 3 -2 5 17 5 19 0 27 -2 18 -5z m-93 -33 c3 -5 1 -10 -4 -10 -6 0 -11 5 -11 10 0 6 2 10 4 10 3 0 8 -4 11 -10z m175 0 c-8 -5 -19 -10 -25 -10 -5 0 -3 5 5 10 8 5 20 10 25 10 6 0 3 -5 -5 -10z m130 -10 c0 -18 7 -20 55 -20 42 0 55 -3 55 -15 0 -13 16 -14 98 -11 77 4 86 3 42 -4 -30 -4 -120 -8 -200 -7 -107 1 -120 2 -47 4 101 4 138 23 42 23 -48 0 -55 3 -55 19 0 17 -8 21 -52 24 l-53 3 58 2 c51 2 57 0 57 -18z m-178 -27 c-6 -65 -10 -70 -11 -15 0 28 3 52 7 52 4 0 6 -17 4 -37z m3758 22 c0 -8 -2 -15 -4 -15 -2 0 -6 7 -10 15 -3 8 -1 15 4 15 6 0 10 -7 10 -15z m-180 -12 c0 -15 -8 -18 -55 -15 -54 4 -79 -12 -32 -21 12 -2 -27 -5 -88 -5 -80 0 -102 2 -80 9 16 5 53 6 81 3 41 -5 52 -3 57 10 5 12 20 16 57 16 27 0 50 5 50 10 0 6 2 10 5 10 3 0 5 -8 5 -17z m305 -10 c-2 -10 -6 -34 -10 -54 -5 -33 -8 -36 -40 -36 -19 0 -35 4 -35 8 0 9 26 19 51 19 15 0 19 7 19 34 0 32 -3 35 -32 39 -29 3 -28 4 9 5 34 2 41 -1 38 -15z m-3979 -63 c8 0 14 -7 14 -15 0 -8 -9 -15 -20 -15 -18 0 -20 6 -18 53 1 43 2 45 5 15 3 -25 9 -38 19 -38z m61 18 c-2 -13 -4 -5 -4 17 -1 22 1 32 4 23 2 -10 2 -28 0 -40z m116 35 c-7 -2 -19 -2 -25 0 -7 3 -2 5 12 5 14 0 19 -2 13 -5z m3657 3 c0 -2 -18 -6 -39 -8 -22 -2 -37 0 -35 4 5 8 74 11 74 4z m-458 -15 c-8 -4 -14 -12 -15 -17 -1 -5 -6 -9 -12 -9 -18 -1 -35 -16 -29 -26 3 -5 0 -8 -8 -7 -8 2 -14 -9 -16 -28 -3 -34 27 -80 62 -94 12 -5 -598 -9 -1384 -9 -1245 0 -1402 1 -1378 15 34 18 48 43 48 83 0 17 3 31 6 31 14 0 69 -56 69 -69 0 -10 10 -15 28 -14 15 1 579 1 1253 2 1086 1 1225 3 1220 16 -3 8 -1 15 4 15 5 0 27 19 49 41 42 44 89 79 106 79 6 0 4 -4 -3 -9z m-2746 -37 c24 -22 -15 -134 -47 -134 -4 0 3 11 17 25 21 21 25 33 22 68 -2 27 -8 42 -17 42 -8 0 -15 8 -17 18 -2 16 0 16 14 5 9 -7 22 -18 28 -24z m3027 29 c-7 -2 -21 -2 -30 0 -10 3 -4 5 12 5 17 0 24 -2 18 -5z m75 0 c-10 -2 -28 -2 -40 0 -13 2 -5 4 17 4 22 1 32 -1 23 -4z m119 -25 c-3 -8 -6 -5 -6 6 -1 11 2 17 5 13 3 -3 4 -12 1 -19z m-2464 5 c-122 -2 -324 -2 -450 0 -125 1 -25 2 222 2 248 0 350 -1 228 -2z m1440 0 c-222 -2 -584 -2 -805 0 -222 1 -41 2 402 2 443 0 624 -1 403 -2z m-2448 -14 c11 -16 1 -19 -13 -3 -7 8 -8 14 -3 14 5 0 13 -5 16 -11z m84 -35 c-11 -14 -13 -14 -22 1 -5 9 -6 19 -3 22 3 4 6 1 6 -5 0 -19 20 -14 21 6 0 11 2 12 6 4 3 -7 -1 -20 -8 -28z m-409 16 c0 -5 -8 -10 -17 -10 -15 0 -16 2 -3 10 19 12 20 12 20 0z m3460 0 c0 -5 -4 -10 -10 -10 -5 0 -10 5 -10 10 0 6 5 10 10 10 6 0 10 -4 10 -10z m230 -4 c0 -2 -8 -10 -17 -17 -16 -13 -17 -12 -4 4 13 16 21 21 21 13z m-3325 -16 c3 -5 1 -10 -4 -10 -6 0 -11 5 -11 10 0 6 2 10 4 10 3 0 8 -4 11 -10z m2892 -12 c-3 -8 -6 -5 -6 6 -1 11 2 17 5 13 3 -3 4 -12 1 -19z m391 -3 c-3 -3 -9 2 -12 12 -6 14 -5 15 5 6 7 -7 10 -15 7 -18z m-3321 -17 c-3 -7 -5 -2 -5 12 0 14 2 19 5 13 2 -7 2 -19 0 -25z m3523 17 c0 -8 -2 -15 -4 -15 -2 0 -6 7 -10 15 -3 8 -1 15 4 15 6 0 10 -7 10 -15z m-3432 -14 c-7 -11 -16 -17 -21 -14 -4 3 0 11 10 19 24 18 25 17 11 -5z m2963 -4 c-10 -9 -11 -8 -5 6 3 10 9 15 12 12 3 -3 0 -11 -7 -18z m-2866 3 c-3 -5 -12 -10 -18 -10 -7 0 -6 4 3 10 19 12 23 12 15 0z m1993 -7 c-311 -2 -824 -2 -1140 0 -315 1 -60 2 567 2 627 0 885 -1 573 -2z m630 0 c-10 -2 -28 -2 -40 0 -13 2 -5 4 17 4 22 1 32 -1 23 -4z m136 -9 c3 -8 2 -12 -4 -9 -6 3 -10 10 -10 16 0 14 7 11 14 -7z m-2998 -24 c56 0 95 4 100 11 4 7 16 2 33 -14 14 -13 35 -30 46 -36 17 -10 17 -12 2 -7 -10 3 -96 6 -190 6 -155 1 -169 2 -146 15 15 8 30 22 33 31 5 13 9 15 18 6 8 -8 47 -12 104 -12z m3159 10 c9 8 15 8 20 0 9 -14 192 -13 201 2 5 8 11 6 20 -6 7 -11 18 -15 25 -10 7 4 10 3 5 -4 -3 -6 2 -15 11 -21 13 -7 -34 -10 -162 -10 -137 0 -175 3 -157 11 12 6 22 15 22 20 0 5 -9 4 -21 -2 -11 -7 -23 -9 -26 -7 -2 3 5 8 16 12 12 3 21 12 22 18 0 8 2 8 6 -1 4 -9 8 -10 18 -2z m-2968 -26 c-3 -3 -12 -4 -19 -1 -8 3 -5 6 6 6 11 1 17 -2 13 -5z m40 -30 c-3 -3 -12 -4 -19 -1 -8 3 -5 6 6 6 11 1 17 -2 13 -5z"/>
<path d="M5380 2760 c0 -26 46 -29 53 -2 4 16 5 16 6 0 1 -17 18 -18 200 -18 150 0 201 3 204 13 4 10 6 10 6 0 1 -18 31 -16 31 1 0 8 -6 16 -14 19 -8 3 -120 6 -250 7 -231 1 -236 0 -236 -20z"/>
<path d="M8680 2760 c0 -15 7 -20 25 -20 18 0 25 5 25 20 0 15 -7 20 -25 20 -18 0 -25 -5 -25 -20z"/>
<path d="M5250 2750 c0 -6 27 -10 60 -10 33 0 60 4 60 10 0 6 -27 10 -60 10 -33 0 -60 -4 -60 -10z"/>
<path d="M8750 2750 c0 -5 25 -10 55 -10 30 0 55 5 55 10 0 6 -25 10 -55 10 -30 0 -55 -4 -55 -10z"/>
<path d="M4917 2652 c-38 -3 -38 -4 -33 -40 3 -20 5 -37 6 -38 0 0 18 -1 41 -3 32 -1 45 3 60 20 10 12 19 18 19 12 0 -5 -9 -18 -20 -28 -11 -10 -20 -26 -20 -36 0 -17 -46 -62 -72 -72 -7 -2 -10 -8 -6 -12 15 -15 73 31 95 75 11 25 27 45 35 45 8 0 14 14 16 34 3 28 1 33 -14 27 -9 -3 -22 -2 -28 2 -18 14 -38 17 -79 14z"/>
<path d="M5800 2180 l0 -100 38 0 c20 0 42 4 48 8 21 14 34 51 34 99 0 64 -25 93 -80 93 l-40 0 0 -100z m86 58 c12 -19 8 -107 -6 -123 -7 -8 -23 -15 -36 -15 -23 0 -24 3 -24 75 l0 75 29 0 c17 0 33 -5 37 -12z"/>
<path d="M6210 2182 l0 -99 40 -1 c46 -2 60 15 60 73 0 56 -16 78 -51 71 -27 -5 -29 -3 -29 24 0 17 -4 30 -10 30 -6 0 -10 -39 -10 -98z m68 16 c14 -14 16 -67 3 -86 -5 -8 -17 -12 -27 -10 -33 6 -28 108 5 108 4 0 12 -5 19 -12z"/>
<path d="M6340 2180 c0 -60 4 -100 10 -100 6 0 10 40 10 100 0 60 -4 100 -10 100 -6 0 -10 -40 -10 -100z"/>
<path d="M6610 2259 c-19 -35 -8 -62 35 -85 30 -15 40 -26 40 -45 0 -33 -45 -34 -60 -1 -12 27 -25 29 -25 3 0 -48 71 -69 105 -31 27 29 13 66 -35 90 -27 14 -40 27 -40 41 0 30 30 36 51 10 16 -20 20 -21 25 -7 16 43 -74 67 -96 25z"/>
<path d="M7052 2185 c3 -92 20 -135 26 -67 4 42 15 41 31 -3 7 -19 19 -35 27 -35 19 0 18 5 -7 50 l-22 38 22 31 c28 39 16 40 -24 1 l-30 -29 3 54 c3 46 1 55 -12 55 -15 0 -16 -13 -14 -95z"/>
<path d="M7240 2180 c0 -60 4 -100 10 -100 6 0 10 40 10 100 0 60 -4 100 -10 100 -6 0 -10 -40 -10 -100z"/>
<path d="M8110 2251 c0 -24 -3 -28 -20 -24 -44 12 -74 -60 -48 -114 11 -24 19 -28 56 -29 l42 -1 0 99 c0 80 -3 98 -15 98 -10 0 -15 -10 -15 -29z m-5 -96 c0 -43 -3 -50 -20 -50 -16 0 -21 8 -23 39 -4 49 3 68 25 64 14 -3 18 -14 18 -53z"/>
<path d="M8290 2180 c0 -60 4 -100 10 -100 6 0 10 40 10 100 0 60 -4 100 -10 100 -6 0 -10 -40 -10 -100z"/>
<path d="M6750 2251 c0 -11 -6 -22 -12 -24 -10 -4 -10 -7 -1 -14 6 -5 13 -35 15 -68 3 -53 5 -60 26 -63 25 -4 30 13 7 22 -11 4 -15 20 -15 56 0 38 4 50 15 50 8 0 15 5 15 10 0 6 -7 10 -15 10 -8 0 -15 9 -15 20 0 11 -4 20 -10 20 -5 0 -10 -9 -10 -19z"/>
<path d="M7440 2251 c0 -11 -6 -22 -12 -25 -10 -5 -10 -7 0 -12 8 -4 12 -28 12 -70 0 -57 2 -64 19 -64 11 0 23 5 26 10 3 6 -1 10 -9 10 -13 0 -16 12 -16 54 0 34 5 57 13 60 10 5 10 7 0 12 -7 3 -13 14 -13 25 0 10 -4 19 -10 19 -5 0 -10 -9 -10 -19z"/>
<path d="M5966 2214 c-19 -19 -22 -104 -4 -122 7 -7 24 -12 40 -12 33 0 48 24 48 75 0 20 -5 45 -10 56 -13 23 -53 25 -74 3z m52 -16 c25 -25 12 -98 -18 -98 -20 0 -30 19 -30 55 0 50 22 69 48 43z"/>
<path d="M6080 2168 c0 -80 7 -90 56 -85 l39 4 0 67 c0 82 -18 88 -25 9 -4 -50 -8 -58 -25 -58 -18 0 -20 8 -23 63 -2 34 -7 62 -12 62 -6 0 -10 -28 -10 -62z"/>
<path d="M6406 2208 c-34 -48 -9 -128 39 -128 14 0 29 9 35 21 15 26 3 40 -14 16 -14 -18 -46 -24 -46 -8 0 5 -3 16 -6 25 -5 13 2 16 35 16 35 0 41 3 41 21 0 56 -54 80 -84 37z m54 -18 c0 -13 -7 -20 -20 -20 -19 0 -27 20 -13 33 13 14 33 6 33 -13z"/>
<path d="M6830 2215 c-7 -9 -9 -19 -5 -23 4 -4 10 -1 12 6 7 17 43 15 43 -3 0 -9 -10 -19 -23 -24 -34 -13 -50 -37 -43 -66 6 -22 11 -24 50 -23 l44 2 -5 61 c-3 33 -6 66 -8 73 -6 17 -50 15 -65 -3z m46 -101 c-8 -21 -36 -17 -36 6 0 24 33 46 38 24 2 -8 1 -22 -2 -30z"/>
<path d="M6946 2208 c-21 -29 -20 -92 0 -112 22 -23 61 -20 74 5 15 27 2 39 -15 15 -30 -40 -69 20 -46 70 12 26 41 33 41 9 0 -8 7 -15 15 -15 18 0 18 5 5 31 -14 26 -55 24 -74 -3z"/>
<path d="M7304 2221 c-2 -2 -4 -35 -4 -73 0 -85 22 -90 28 -7 4 59 13 75 36 66 12 -5 16 -21 16 -67 0 -33 4 -60 10 -60 15 0 13 125 -3 139 -12 10 -73 11 -83 2z"/>
<path d="M7517 2212 c-19 -21 -22 -83 -7 -113 14 -26 66 -26 80 0 7 13 7 22 0 26 -6 3 -13 -1 -16 -9 -8 -21 -40 -21 -48 0 -11 29 -6 34 34 34 45 0 52 18 24 58 -18 27 -45 28 -67 4z m51 -25 c3 -12 -3 -17 -22 -17 -28 0 -29 1 -20 25 8 20 38 15 42 -8z"/>
<path d="M7624 2174 c-7 -61 -4 -86 14 -92 8 -2 12 11 12 46 0 60 7 82 26 82 8 0 14 4 14 10 0 5 -13 8 -30 7 -27 -2 -30 -5 -36 -53z"/>
<path d="M7710 2153 c0 -42 4 -73 10 -73 6 0 10 24 10 53 0 59 11 83 34 74 12 -5 16 -21 16 -67 0 -76 18 -79 22 -4 2 42 8 60 21 68 26 16 38 -8 35 -68 -2 -34 1 -51 10 -54 10 -3 12 12 10 63 -3 77 -21 100 -58 78 -12 -8 -21 -9 -25 -3 -3 5 -24 9 -46 8 l-39 -1 0 -74z"/>
<path d="M7926 2214 c-22 -22 -24 -96 -4 -121 16 -20 66 -16 78 6 38 73 -22 167 -74 115z m52 -16 c14 -14 16 -67 3 -86 -15 -24 -46 -10 -49 22 -7 61 16 94 46 64z"/>
<path d="M8180 2215 c-16 -19 -5 -34 12 -17 18 18 38 15 38 -6 0 -10 -12 -22 -30 -29 -64 -24 -49 -77 21 -79 l44 -2 -5 62 c-3 33 -9 67 -13 74 -11 17 -52 15 -67 -3z m50 -84 c0 -24 -15 -35 -36 -27 -12 4 -13 10 -4 26 14 26 40 26 40 1z"/>
<path d="M6510 2160 c0 -5 16 -10 35 -10 19 0 35 5 35 10 0 6 -16 10 -35 10 -19 0 -35 -4 -35 -10z"/>
<path d="M5103 1983 c181 -2 473 -2 650 0 177 1 30 2 -328 2 -357 0 -502 -1 -322 -2z"/>
<path d="M6103 1983 c15 -2 37 -2 50 0 12 2 0 4 -28 4 -27 0 -38 -2 -22 -4z"/>
<path d="M6362 1983 c92 -2 245 -2 340 0 95 1 20 3 -167 3 -187 0 -265 -2 -173 -3z"/>
<path d="M7013 1983 c76 -2 198 -2 270 0 73 1 11 3 -138 3 -148 0 -208 -2 -132 -3z"/>
<path d="M7678 1983 c17 -2 47 -2 65 0 17 2 3 4 -33 4 -36 0 -50 -2 -32 -4z"/>
<path d="M7808 1983 c18 -2 45 -2 60 0 15 2 0 4 -33 4 -33 0 -45 -2 -27 -4z"/>
<path d="M7948 1983 c29 -2 74 -2 100 0 26 2 2 3 -53 3 -55 0 -76 -1 -47 -3z"/>
<path d="M8118 1983 c7 -3 16 -2 19 1 4 3 -2 6 -13 5 -11 0 -14 -3 -6 -6z"/>
<path d="M8173 1983 c9 -2 23 -2 30 0 6 3 -1 5 -18 5 -16 0 -22 -2 -12 -5z"/>
<path d="M8238 1983 c7 -3 16 -2 19 1 4 3 -2 6 -13 5 -11 0 -14 -3 -6 -6z"/>
<path d="M8523 1983 c141 -2 373 -2 515 0 141 1 25 2 -258 2 -283 0 -399 -1 -257 -2z"/>
</g>
</svg>