<svg xmlns="http://www.w3.org/2000/svg" viewBox="724.00 64.00 690.40 185.00">
<g transform="translate(0.000000,768.000000) scale(0.100000,-0.100000)" fill="currentColor" stroke="none">
<path d="M9740 6955 c0 -34 1 -35 40 -35 39 0 40 1 40 35 0 34 -1 35 -40 35 -39 0 -40 -1 -40 -35z"/>
<path d="M10550 6955 c0 -34 1 -35 40 -35 39 0 40 1 40 35 0 34 -1 35 -40 35 -39 0 -40 -1 -40 -35z"/>
<path d="M9448 6945 c-27 -9 -48 -18 -48 -20 0 -3 71 -5 158 -4 151 1 156 1 122 16 -50 22 -174 26 -232 8z"/>
<path d="M9895 6942 l-50 -17 83 -3 c45 -2 119 -2 165 0 l82 3 -40 13 c-65 22 -182 24 -240 4z"/>
<path d="M10258 6944 c-27 -8 -48 -17 -48 -19 0 -3 71 -5 157 -5 158 0 180 7 91 29 -62 15 -142 13 -200 -5z"/>
<path d="M10706 6944 c-22 -8 -42 -16 -44 -19 -3 -3 66 -5 154 -4 l159 1 -50 18 c-60 22 -164 24 -219 4z"/>
<path d="M7810 6932 c0 -5 3 -12 8 -16 4 -4 7 -20 7 -34 l0 -27 295 0 295 0 0 25 0 25 -292 3 c-251 2 -293 4 -293 17 0 8 -4 15 -10 15 -5 0 -10 -4 -10 -8z"/>
<path d="M8410 6924 c0 -8 5 -12 10 -9 6 3 10 10 10 16 0 5 -4 9 -10 9 -5 0 -10 -7 -10 -16z"/>
<path d="M11376 6933 c-3 -3 -2 -11 3 -17 5 -6 11 -22 13 -35 l3 -24 293 -3 292 -2 0 27 c0 15 5 32 11 38 8 8 8 13 0 17 -6 4 -11 0 -11 -8 0 -14 -35 -16 -296 -16 -179 0 -293 4 -289 9 6 11 -9 23 -19 14z"/>
<path d="M7550 6907 c0 -2 11 -27 25 -55 l25 -53 0 -512 c-1 -499 0 -512 19 -515 25 -4 28 -20 30 -148 1 -59 4 -111 7 -116 7 -12 142 -10 149 2 3 6 9 66 12 135 l6 125 272 0 273 0 5 -27 c3 -16 4 -98 2 -184 -2 -86 0 -161 4 -168 5 -8 38 -11 107 -9 l99 3 3 113 c2 95 0 112 -13 112 -12 0 -15 -13 -15 -60 l0 -60 -85 0 c-47 0 -85 3 -85 8 0 4 34 6 75 4 41 -2 75 -2 76 0 1 2 6 62 13 133 l11 130 274 3 274 2 43 -25 c23 -14 59 -45 80 -70 l36 -45 626 0 626 0 53 55 c80 85 80 85 398 85 l275 0 2 -47 c1 -27 2 -55 4 -63 1 -8 2 -48 3 -87 l1 -73 69 0 c97 0 101 2 101 65 0 28 3 86 6 128 l7 77 272 0 272 0 7 -117 c4 -65 9 -126 12 -135 4 -15 17 -18 78 -18 l73 0 7 53 c3 28 6 89 6 135 0 78 1 82 23 82 l22 0 -3 513 -3 513 29 57 29 57 -134 0 -133 0 0 -35 0 -35 -312 2 -313 3 -3 33 -3 33 -71 -3 -71 -3 -1 -50 -1 -50 -1270 -3 c-698 -2 -1294 0 -1322 3 l-53 6 0 50 0 49 -75 0 -75 0 0 -35 0 -35 -310 0 -310 0 0 35 0 35 -130 0 c-71 0 -130 -1 -130 -3z m4598 -634 l-3 -468 -337 -3 -338 -2 2 292 c1 161 4 249 5 196 l4 -98 324 0 325 0 0 130 0 130 -2225 0 -2225 0 0 -130 0 -130 323 2 322 3 -4 88 c-2 59 0 87 8 87 8 0 11 -83 11 -285 l0 -285 -334 0 c-258 0 -335 3 -339 13 -2 6 -5 218 -6 470 l-2 457 2246 0 2245 0 -2 -467z m-3572 141 c-3 -9 -6 -149 -6 -311 0 -163 -3 -294 -6 -291 -3 3 -5 141 -4 307 l1 302 -93 -3 -93 -3 2 -283 c0 -156 4 -294 7 -307 5 -19 3 -23 -9 -19 -13 5 -15 49 -15 315 l0 309 111 0 c97 0 110 -2 105 -16z m2874 -288 c0 -193 -4 -307 -10 -311 -7 -4 -10 98 -10 299 l0 306 -90 0 -91 0 3 -310 c2 -186 -1 -305 -6 -300 -5 5 -11 147 -14 315 l-5 305 112 0 111 0 0 -304z m-2483 260 c22 -19 28 -32 28 -66 0 -34 -6 -47 -28 -66 -62 -53 -147 -15 -147 66 0 81 85 119 147 66z m551 17 c-21 -2 -55 -2 -75 0 -21 2 -4 4 37 4 41 0 58 -2 38 -4z m480 0 c-21 -2 -55 -2 -75 0 -21 2 -4 4 37 4 41 0 58 -2 38 -4z m450 0 c-21 -2 -55 -2 -75 0 -21 2 -4 4 37 4 41 0 58 -2 38 -4z m495 -4 c81 -37 49 -169 -40 -169 -46 0 -93 45 -93 90 0 22 9 41 29 61 31 31 64 36 104 18z m-1425 -16 c-21 -2 -55 -2 -75 0 -21 2 -4 4 37 4 41 0 58 -2 38 -4z m480 0 c-21 -2 -55 -2 -75 0 -21 2 -4 4 37 4 41 0 58 -2 38 -4z m460 0 c-21 -2 -57 -2 -80 0 -24 2 -7 4 37 4 44 0 63 -2 43 -4z m-1150 -71 l3 -63 -53 3 -53 3 -3 49 c-2 27 -1 54 1 60 3 6 26 11 53 11 l49 -1 3 -62z m-698 -222 l0 -280 420 0 420 0 0 180 0 180 -415 0 c-270 0 -415 3 -415 10 0 7 437 10 1290 10 l1289 0 4 93 c1 50 4 -37 5 -195 l2 -288 -1310 0 -1310 0 0 285 c0 183 4 285 10 285 6 0 10 -100 10 -280z m908 273 c-21 -2 -55 -2 -75 0 -21 2 -4 4 37 4 41 0 58 -2 38 -4z m480 0 c-21 -2 -55 -2 -75 0 -21 2 -4 4 37 4 41 0 58 -2 38 -4z m460 0 c-21 -2 -57 -2 -80 0 -24 2 -7 4 37 4 44 0 63 -2 43 -4z m-940 -30 c-21 -2 -55 -2 -75 0 -21 2 -4 4 37 4 41 0 58 -2 38 -4z m480 0 c-21 -2 -55 -2 -75 0 -21 2 -4 4 37 4 41 0 58 -2 38 -4z m460 0 c-21 -2 -57 -2 -80 0 -24 2 -7 4 37 4 44 0 63 -2 43 -4z m-940 -20 c-21 -2 -55 -2 -75 0 -21 2 -4 4 37 4 41 0 58 -2 38 -4z m480 0 c-21 -2 -57 -2 -80 0 -24 2 -7 4 37 4 44 0 63 -2 43 -4z m460 0 c-21 -2 -57 -2 -80 0 -24 2 -7 4 37 4 44 0 63 -2 43 -4z m-923 -27 c11 -2 -13 -4 -52 -5 -40 0 -73 2 -73 7 0 6 79 5 125 -2z m495 5 c0 -7 -27 -11 -70 -11 -38 0 -70 4 -70 8 0 4 32 9 70 10 45 2 70 -1 70 -7z m418 -8 c-21 -2 -55 -2 -75 0 -21 2 -4 4 37 4 41 0 58 -2 38 -4z m-930 -20 c-21 -2 -55 -2 -75 0 -21 2 -4 4 37 4 41 0 58 -2 38 -4z m480 0 c-21 -2 -55 -2 -75 0 -21 2 -4 4 37 4 41 0 58 -2 38 -4z m460 0 c-21 -2 -57 -2 -80 0 -24 2 -7 4 37 4 44 0 63 -2 43 -4z m-940 -20 c-21 -2 -55 -2 -75 0 -21 2 -4 4 37 4 41 0 58 -2 38 -4z m480 0 c-21 -2 -55 -2 -75 0 -21 2 -4 4 37 4 41 0 58 -2 38 -4z m460 0 c-21 -2 -57 -2 -80 0 -24 2 -7 4 37 4 44 0 63 -2 43 -4z m-940 -30 c-21 -2 -55 -2 -75 0 -21 2 -4 4 37 4 41 0 58 -2 38 -4z m480 0 c-21 -2 -55 -2 -75 0 -21 2 -4 4 37 4 41 0 58 -2 38 -4z m449 0 c-20 -2 -52 -2 -70 0 -17 2 0 4 38 4 39 0 53 -2 32 -4z m1731 -225 l-1 -193 -8 180 c-8 171 -7 205 6 205 3 0 4 -87 3 -192z m-4541 -95 c-1 -54 -3 -12 -3 92 0 105 2 149 3 98 2 -51 2 -136 0 -190z m903 257 c0 -5 -7 -10 -15 -10 -8 0 -15 5 -15 10 0 6 7 10 15 10 8 0 15 -4 15 -10z m2754 3 c-5 -5 -12 -12 -16 -18 -4 -6 -8 -2 -8 8 0 9 7 17 17 17 9 0 12 -3 7 -7z m-2747 -269 c-8 -9 -157 -10 -157 -1 0 4 37 7 82 7 45 0 79 -3 75 -6z m2873 -1 c0 -5 -26 -7 -57 -5 -101 5 -111 9 -25 11 45 0 82 -2 82 -6z m-2880 -73 c0 -6 -28 -9 -67 -8 l-68 1 65 7 c36 4 66 7 68 8 1 1 2 -2 2 -8z m2848 -7 c-21 -2 -55 -2 -75 0 -21 2 -4 4 37 4 41 0 58 -2 38 -4z m-3600 -80 l-3 -48 -55 0 -55 0 -3 33 c-5 55 1 62 63 62 l56 0 -3 -47z m742 7 c0 -40 0 -40 -37 -40 -21 0 -48 -3 -60 -6 -21 -6 -23 -3 -23 40 l0 46 60 0 60 0 0 -40z m1158 25 c7 -3 11 -20 11 -42 l-2 -38 -6 35 c-4 26 -12 36 -28 38 -20 3 -23 -1 -23 -33 0 -22 -4 -34 -10 -30 -5 3 -10 19 -10 36 0 28 -10 35 -49 30 -7 -2 -10 2 -6 8 6 10 88 7 123 -4z m603 -5 c61 0 79 3 73 13 -5 9 -4 9 6 0 23 -21 4 -26 -86 -25 -91 1 -101 3 -88 23 6 10 9 10 12 1 2 -8 30 -12 83 -12z m1116 -5 c8 -49 -3 -60 -62 -61 l-55 -1 0 44 0 44 57 -3 c47 -3 57 -6 60 -23z m731 -23 l-3 -47 -55 0 -55 0 -3 47 -3 46 61 1 61 0 -3 -47z m-2596 -18 c-7 -38 -62 -42 -62 -5 0 24 8 30 39 29 23 -1 27 -5 23 -24z m-1014 -111 l-3 -68 -57 -3 -58 -3 0 71 0 70 60 0 61 0 -3 -67z m2874 12 c0 -30 1 -61 2 -67 1 -9 -17 -13 -59 -13 -42 0 -60 4 -59 13 1 6 2 37 3 67 l1 55 55 0 55 0 2 -55z m-3614 -23 l3 -63 -58 3 -58 3 -3 63 -3 63 58 -3 58 -3 3 -63z m4347 3 l0 -60 -57 -3 -58 -3 0 59 c0 32 3 62 7 66 4 4 30 6 58 4 l50 -3 0 -60z m-3729 -114 c-4 -5 -3 -16 0 -25 9 -24 144 -19 144 5 0 10 -6 20 -12 22 -7 3 -4 6 8 6 17 1 21 -5 20 -26 l-1 -28 -87 -3 -88 -3 0 31 c0 16 5 30 11 30 5 0 8 -4 5 -9z m44 -6 c0 -8 -4 -15 -9 -15 -5 0 -11 7 -15 15 -3 9 0 15 9 15 8 0 15 -7 15 -15z m26 -12 c-10 -10 -19 5 -10 18 6 11 8 11 12 0 2 -7 1 -15 -2 -18z m39 18 c-3 -5 3 -12 12 -14 11 -3 6 -5 -11 -6 -24 -1 -27 1 -16 14 14 16 25 21 15 6z"/>
<path d="M7680 6600 l0 -130 2225 0 2225 0 0 130 0 130 -2225 0 -2225 0 0 -130z m4408 -2 l3 -108 -2186 0 -2185 0 0 110 0 110 2183 -2 2182 -3 3 -107z"/>
<path d="M9574 6600 c0 -58 1 -81 3 -52 2 28 2 76 0 105 -2 28 -3 5 -3 -53z"/>
<path d="M9624 6600 c0 -58 1 -81 3 -52 2 28 2 76 0 105 -2 28 -3 5 -3 -53z"/>
<path d="M9670 6601 c0 -61 4 -101 10 -101 6 0 10 38 10 94 0 53 -4 98 -10 101 -6 4 -10 -30 -10 -94z"/>
<path d="M9704 6600 c0 -58 1 -81 3 -52 2 28 2 76 0 105 -2 28 -3 5 -3 -53z"/>
<path d="M9752 6597 c1 -88 2 -94 8 -47 l7 55 1 -52 c3 -94 22 -58 22 41 0 85 -2 94 -20 99 -19 5 -20 1 -18 -96z m25 61 c-3 -8 -6 -5 -6 6 -1 11 2 17 5 13 3 -3 4 -12 1 -19z"/>
<path d="M9834 6600 c0 -58 1 -81 3 -52 2 28 2 76 0 105 -2 28 -3 5 -3 -53z"/>
<path d="M9914 6600 c0 -58 1 -81 3 -52 2 28 2 76 0 105 -2 28 -3 5 -3 -53z"/>
<path d="M9962 6605 c-2 -95 -1 -101 18 -101 19 0 20 7 20 93 0 99 -19 133 -22 41 l-1 -53 -7 60 c-6 55 -7 51 -8 -40z"/>
<path d="M10044 6600 c0 -58 1 -81 3 -52 2 28 2 76 0 105 -2 28 -3 5 -3 -53z"/>
<path d="M10067 6693 c-11 -11 -8 -193 3 -193 6 0 10 40 10 100 0 100 -1 106 -13 93z"/>
<path d="M10124 6600 c0 -58 1 -81 3 -52 2 28 2 76 0 105 -2 28 -3 5 -3 -53z"/>
<path d="M10188 6693 c-16 -4 -18 -17 -16 -101 l2 -97 6 75 6 75 2 -67 c3 -111 22 -92 22 21 0 56 -1 100 -2 100 -2 -1 -11 -3 -20 -6z m9 -35 c-3 -8 -6 -5 -6 6 -1 11 2 17 5 13 3 -3 4 -12 1 -19z"/>
<path d="M10254 6600 c0 -58 1 -81 3 -52 2 28 2 76 0 105 -2 28 -3 5 -3 -53z"/>
<path d="M10300 6598 c0 -124 19 -125 22 0 l2 87 6 -95 6 -95 2 96 c2 89 0 97 -18 102 -19 5 -20 0 -20 -95z"/>
<path d="M10384 6600 c0 -58 1 -81 3 -52 2 28 2 76 0 105 -2 28 -3 5 -3 -53z"/>
<path d="M7740 6670 c0 -19 7 -20 110 -20 103 0 110 1 110 20 0 19 -7 20 -110 20 -103 0 -110 -1 -110 -20z"/>
<path d="M7970 6670 c0 -19 7 -20 105 -20 98 0 105 1 105 20 0 19 -7 20 -105 20 -98 0 -105 -1 -105 -20z"/>
<path d="M8190 6670 c0 -19 7 -20 110 -20 103 0 110 1 110 20 0 19 -7 20 -110 20 -103 0 -110 -1 -110 -20z"/>
<path d="M8420 6670 c0 -19 7 -20 110 -20 103 0 110 1 110 20 0 19 -7 20 -110 20 -103 0 -110 -1 -110 -20z"/>
<path d="M8650 6670 c0 -19 7 -20 105 -20 98 0 105 1 105 20 0 19 -7 20 -105 20 -98 0 -105 -1 -105 -20z"/>
<path d="M8870 6670 c0 -19 7 -20 110 -20 103 0 110 1 110 20 0 19 -7 20 -110 20 -103 0 -110 -1 -110 -20z"/>
<path d="M9100 6670 c0 -19 7 -20 110 -20 103 0 110 1 110 20 0 19 -7 20 -110 20 -103 0 -110 -1 -110 -20z"/>
<path d="M9340 6595 c0 -57 4 -95 10 -95 6 0 10 38 10 95 0 57 -4 95 -10 95 -6 0 -10 -38 -10 -95z"/>
<path d="M9374 6595 c0 -55 1 -76 3 -47 2 29 2 74 0 100 -2 26 -3 2 -3 -53z"/>
<path d="M9390 6595 c0 -57 4 -95 10 -95 6 0 10 10 11 23 1 21 1 21 9 -3 5 -16 8 8 9 73 1 91 0 97 -19 97 -19 0 -20 -7 -20 -95z"/>
<path d="M9444 6595 c0 -55 1 -76 3 -47 2 29 2 74 0 100 -2 26 -3 2 -3 -53z"/>
<path d="M9460 6595 c0 -57 4 -95 10 -95 6 0 10 38 10 95 0 57 -4 95 -10 95 -6 0 -10 -38 -10 -95z"/>
<path d="M9492 6600 c-2 -90 -1 -96 18 -96 19 0 20 7 20 93 0 60 -4 93 -11 93 -6 0 -10 -15 -8 -32 1 -18 0 -51 -1 -73 -3 -30 -5 -20 -10 35 l-6 75 -2 -95z"/>
<path d="M9540 6594 c0 -61 4 -93 10 -89 6 3 10 46 10 96 0 53 -4 89 -10 89 -6 0 -10 -39 -10 -96z"/>
<path d="M9590 6595 c0 -57 4 -95 10 -95 6 0 10 38 10 95 0 57 -4 95 -10 95 -6 0 -10 -38 -10 -95z"/>
<path d="M9640 6595 c0 -57 4 -95 10 -95 6 0 10 38 10 95 0 57 -4 95 -10 95 -6 0 -10 -38 -10 -95z"/>
<path d="M9720 6595 c0 -57 4 -95 10 -95 6 0 10 38 10 95 0 57 -4 95 -10 95 -6 0 -10 -38 -10 -95z"/>
<path d="M9800 6595 c0 -57 4 -95 10 -95 6 0 10 38 10 95 0 57 -4 95 -10 95 -6 0 -10 -38 -10 -95z"/>
<path d="M9850 6595 c0 -57 4 -95 10 -95 6 0 10 38 10 95 0 57 -4 95 -10 95 -6 0 -10 -38 -10 -95z"/>
<path d="M9880 6594 c0 -61 4 -93 10 -89 6 3 10 46 10 96 0 53 -4 89 -10 89 -6 0 -10 -39 -10 -96z"/>
<path d="M9930 6595 c0 -57 4 -95 10 -95 6 0 10 38 10 95 0 57 -4 95 -10 95 -6 0 -10 -38 -10 -95z"/>
<path d="M10010 6595 c0 -57 4 -95 10 -95 6 0 10 38 10 95 0 57 -4 95 -10 95 -6 0 -10 -38 -10 -95z"/>
<path d="M10090 6595 c0 -57 4 -95 10 -95 6 0 10 38 10 95 0 57 -4 95 -10 95 -6 0 -10 -38 -10 -95z"/>
<path d="M10140 6595 c0 -57 4 -95 10 -95 6 0 10 38 10 95 0 57 -4 95 -10 95 -6 0 -10 -38 -10 -95z"/>
<path d="M10220 6595 c0 -57 4 -95 10 -95 6 0 10 38 10 95 0 57 -4 95 -10 95 -6 0 -10 -38 -10 -95z"/>
<path d="M10270 6595 c0 -57 4 -95 10 -95 6 0 10 38 10 95 0 57 -4 95 -10 95 -6 0 -10 -38 -10 -95z"/>
<path d="M10350 6595 c0 -57 4 -95 10 -95 6 0 10 38 10 95 0 57 -4 95 -10 95 -6 0 -10 -38 -10 -95z"/>
<path d="M10400 6595 c0 -57 4 -95 10 -95 6 0 10 38 10 95 0 57 -4 95 -10 95 -6 0 -10 -38 -10 -95z"/>
<path d="M10434 6595 c0 -55 1 -76 3 -47 2 29 2 74 0 100 -2 26 -3 2 -3 -53z"/>
<path d="M10454 6595 c0 -55 1 -76 3 -47 2 29 2 74 0 100 -2 26 -3 2 -3 -53z"/>
<path d="M10490 6670 c0 -19 7 -20 110 -20 103 0 110 1 110 20 0 19 -7 20 -110 20 -103 0 -110 -1 -110 -20z"/>
<path d="M10720 6670 c0 -19 7 -20 105 -20 98 0 105 1 105 20 0 19 -7 20 -105 20 -98 0 -105 -1 -105 -20z"/>
<path d="M10940 6670 c0 -19 7 -20 110 -20 103 0 110 1 110 20 0 19 -7 20 -110 20 -103 0 -110 -1 -110 -20z"/>
<path d="M11170 6670 c0 -19 7 -20 108 -20 101 0 108 1 109 20 2 19 -4 20 -108 20 -102 0 -109 -1 -109 -20z"/>
<path d="M11400 6670 c0 -19 7 -20 105 -20 98 0 105 1 105 20 0 19 -7 20 -105 20 -98 0 -105 -1 -105 -20z"/>
<path d="M11620 6670 c0 -19 7 -20 110 -20 103 0 110 1 110 20 0 19 -7 20 -110 20 -103 0 -110 -1 -110 -20z"/>
<path d="M11850 6670 c0 -19 7 -20 110 -20 103 0 110 1 110 20 0 19 -7 20 -110 20 -103 0 -110 -1 -110 -20z"/>
<path d="M7793 6633 c31 -2 83 -2 115 0 31 2 5 3 -58 3 -63 0 -89 -1 -57 -3z"/>
<path d="M8023 6633 c32 -2 81 -2 110 0 29 2 3 3 -58 3 -60 0 -84 -1 -52 -3z"/>
<path d="M8243 6633 c31 -2 83 -2 115 0 31 2 5 3 -58 3 -63 0 -89 -1 -57 -3z"/>
<path d="M8473 6633 c32 -2 81 -2 110 0 29 2 3 3 -58 3 -60 0 -84 -1 -52 -3z"/>
<path d="M8703 6633 c32 -2 81 -2 110 0 29 2 3 3 -58 3 -60 0 -84 -1 -52 -3z"/>
<path d="M8893 6633 c15 -2 39 -2 55 0 15 2 2 4 -28 4 -30 0 -43 -2 -27 -4z"/>
<path d="M9023 6633 c15 -2 37 -2 50 0 12 2 0 4 -28 4 -27 0 -38 -2 -22 -4z"/>
<path d="M9153 6633 c32 -2 81 -2 110 0 29 2 3 3 -58 3 -60 0 -84 -1 -52 -3z"/>
<path d="M10543 6633 c31 -2 83 -2 115 0 31 2 5 3 -58 3 -63 0 -89 -1 -57 -3z"/>
<path d="M10773 6633 c32 -2 81 -2 110 0 29 2 3 3 -58 3 -60 0 -84 -1 -52 -3z"/>
<path d="M11003 6633 c32 -2 81 -2 110 0 29 2 3 3 -58 3 -60 0 -84 -1 -52 -3z"/>
<path d="M11223 6633 c32 -2 81 -2 110 0 29 2 3 3 -58 3 -60 0 -84 -1 -52 -3z"/>
<path d="M11453 6633 c32 -2 81 -2 110 0 29 2 3 3 -58 3 -60 0 -84 -1 -52 -3z"/>
<path d="M11683 6633 c32 -2 81 -2 110 0 29 2 3 3 -58 3 -60 0 -84 -1 -52 -3z"/>
<path d="M11903 6633 c31 -2 83 -2 115 0 31 2 5 3 -58 3 -63 0 -89 -1 -57 -3z"/>
<path d="M7740 6601 c0 -21 33 -31 85 -26 17 2 54 4 83 4 45 1 52 4 52 21 0 19 -7 20 -110 20 -102 0 -110 -1 -110 -19z"/>
<path d="M7970 6600 c0 -19 7 -20 105 -20 98 0 105 1 105 20 0 19 -7 20 -105 20 -98 0 -105 -1 -105 -20z"/>
<path d="M8190 6603 c0 -22 20 -55 20 -35 0 11 21 13 98 10 94 -3 97 -2 100 20 3 22 2 22 -107 22 -99 0 -111 -2 -111 -17z"/>
<path d="M8420 6600 c0 -19 7 -20 110 -20 103 0 110 1 110 20 0 19 -7 20 -110 20 -103 0 -110 -1 -110 -20z"/>
<path d="M8650 6600 c0 -21 -6 -20 178 -24 21 -1 28 4 30 22 3 22 2 22 -102 22 -99 0 -106 -1 -106 -20z"/>
<path d="M8870 6600 c0 -11 3 -20 8 -20 4 -1 42 -3 84 -7 95 -7 128 0 128 27 0 19 -7 20 -110 20 -103 0 -110 -1 -110 -20z"/>
<path d="M9100 6600 c0 -19 7 -20 110 -20 103 0 110 1 110 20 0 19 -7 20 -110 20 -103 0 -110 -1 -110 -20z"/>
<path d="M10490 6600 c0 -24 38 -32 140 -28 69 3 75 5 78 26 3 22 2 22 -107 22 -103 0 -111 -1 -111 -20z"/>
<path d="M10720 6601 c0 -24 17 -28 123 -23 77 4 87 6 87 23 0 17 -9 19 -105 19 -96 0 -105 -2 -105 -19z"/>
<path d="M10940 6601 c0 -16 11 -19 90 -25 102 -8 130 -3 130 25 0 18 -8 19 -110 19 -101 0 -110 -2 -110 -19z"/>
<path d="M11170 6600 c0 -19 7 -20 105 -20 98 0 105 1 105 20 0 19 -7 20 -105 20 -98 0 -105 -1 -105 -20z"/>
<path d="M11400 6598 c0 -22 3 -23 105 -24 103 0 105 0 105 23 0 23 -2 23 -105 23 -102 0 -105 -1 -105 -22z"/>
<path d="M11620 6600 c0 -23 20 -26 178 -21 35 1 42 4 42 21 0 19 -7 20 -110 20 -103 0 -110 -1 -110 -20z"/>
<path d="M11850 6602 c0 -17 12 -20 101 -26 55 -3 105 -4 110 -1 5 4 9 15 9 26 0 18 -8 19 -110 19 -100 0 -110 -2 -110 -18z"/>
<path d="M11953 6553 c-102 -4 -103 -4 -103 -28 l0 -25 110 0 110 0 0 30 c0 17 -3 29 -7 28 -5 -1 -54 -4 -110 -5z"/>
<path d="M7740 6525 l0 -26 108 3 c102 3 107 4 110 26 3 22 2 22 -107 22 l-111 0 0 -25z"/>
<path d="M7970 6525 l0 -25 105 0 105 0 0 25 0 25 -105 0 -105 0 0 -25z"/>
<path d="M8192 6528 c3 -22 8 -23 111 -26 l107 -3 0 26 0 25 -111 0 c-109 0 -110 0 -107 -22z"/>
<path d="M8422 6528 c3 -22 7 -23 108 -23 101 0 105 1 108 23 3 22 2 22 -108 22 -110 0 -111 0 -108 -22z"/>
<path d="M8650 6525 l0 -25 105 0 105 0 0 25 0 25 -105 0 -105 0 0 -25z"/>
<path d="M8872 6528 c3 -22 8 -23 111 -26 l107 -3 0 26 0 25 -111 0 c-109 0 -110 0 -107 -22z"/>
<path d="M9100 6525 l0 -25 110 0 110 0 0 25 0 25 -110 0 -110 0 0 -25z"/>
<path d="M10490 6525 l0 -25 110 0 110 0 0 25 0 25 -110 0 -110 0 0 -25z"/>
<path d="M10720 6525 l0 -25 105 0 105 0 0 25 0 25 -105 0 -105 0 0 -25z"/>
<path d="M10942 6528 c3 -22 8 -23 111 -26 l107 -3 0 26 0 25 -111 0 c-109 0 -110 0 -107 -22z"/>
<path d="M11170 6525 l0 -26 107 3 c101 3 106 4 109 26 4 22 2 22 -106 22 l-110 0 0 -25z"/>
<path d="M11400 6525 l0 -25 105 0 105 0 0 25 0 25 -105 0 -105 0 0 -25z"/>
<path d="M11622 6528 c3 -22 8 -23 111 -26 l107 -3 0 26 0 25 -111 0 c-109 0 -110 0 -107 -22z"/>
<path d="M11480 5996 l0 -186 255 0 255 0 0 180 0 180 -239 0 c-132 0 -246 3 -255 6 -14 5 -16 -14 -16 -180z"/>
<path d="M7680 5990 l0 -181 63 3 62 3 -3 175 -3 175 -59 3 -60 3 0 -181z"/>
<path d="M7820 5990 l0 -180 253 2 252 3 -2 35 c-1 19 -2 99 -2 178 l-1 142 -250 0 -250 0 0 -180z"/>
<path d="M12002 5993 l3 -178 63 -3 62 -3 0 181 0 180 -66 0 -65 0 3 -177z"/>
<path d="M9210 6315 l0 -45 45 0 45 0 0 45 0 45 -45 0 -45 0 0 -45z"/>
<path d="M9470 5990 l0 -180 435 0 435 0 0 180 0 180 -435 0 -435 0 0 -180z"/>
<path d="M10360 5990 l0 -180 420 0 420 0 0 180 0 180 -420 0 -420 0 0 -180z"/>
<path d="M7690 5720 c0 -29 2 -30 45 -30 43 0 45 1 45 30 0 29 -2 30 -45 30 -43 0 -45 -1 -45 -30z"/>
<path d="M8420 5720 c0 -17 7 -20 45 -20 38 0 45 3 45 20 0 17 -7 20 -45 20 -38 0 -45 -3 -45 -20z"/>
<path d="M11300 5720 c0 -17 7 -20 45 -20 38 0 45 3 45 20 0 17 -7 20 -45 20 -38 0 -45 -3 -45 -20z"/>
<path d="M12030 5720 c0 -29 1 -30 48 -30 46 0 48 1 50 30 2 30 2 30 -48 30 -49 0 -50 -1 -50 -30z"/>
<path d="M9494 5709 c-3 -6 -2 -15 2 -19 12 -12 38 5 30 19 -9 14 -23 14 -32 0z"/>
<path d="M8420 5608 l0 -38 45 0 45 0 0 38 0 37 -45 0 -45 0 0 -37z"/>
<path d="M8423 5548 c2 -7 11 -11 18 -9 8 2 26 3 42 3 15 0 27 4 27 9 0 5 -21 9 -46 9 -32 0 -44 -4 -41 -12z"/>
<path d="M11300 5608 l0 -38 45 0 45 0 0 38 0 38 -45 -1 -45 0 0 -37z"/>
<path d="M11300 5543 c0 -9 14 -13 45 -13 33 0 45 4 45 15 0 12 -11 15 -45 13 -30 -1 -45 -6 -45 -15z"/>
<path d="M7690 5608 c0 -24 4 -28 30 -28 23 0 30 -5 30 -19 0 -11 5 -23 10 -26 6 -4 10 12 10 39 0 25 0 49 0 54 0 4 -18 7 -40 8 -38 1 -40 -1 -40 -28z"/>
<path d="M12040 5583 c0 -34 4 -52 10 -48 6 3 10 15 10 26 0 15 7 19 36 19 32 0 35 2 32 26 -3 23 -8 27 -45 28 l-43 2 0 -53z"/>
<path d="M8592 6868 l3 -43 1308 -3 1307 -2 0 45 0 45 -1311 0 -1310 0 3 -42z"/>
<path d="M12412 6873 c2 -14 14 -16 73 -14 229 7 590 5 590 -4 0 -6 -52 -10 -135 -10 -74 0 -140 -4 -147 -8 -6 -4 -13 -4 -15 0 -1 5 -74 7 -160 5 -148 -3 -158 -5 -158 -23 0 -18 9 -19 159 -19 118 0 161 3 164 13 4 10 6 10 6 0 1 -10 137 -13 646 -13 l645 0 0 45 0 45 -836 0 c-775 0 -835 -1 -832 -17z m1648 -18 c0 -6 -108 -10 -305 -10 -264 0 -305 -2 -305 -15 0 -12 -2 -12 -9 -2 -6 10 -47 14 -165 16 -135 2 -156 0 -156 -13 -1 -13 -2 -13 -11 2 -5 9 -8 21 -5 25 7 12 956 9 956 -3z m-285 -25 c3 -5 1 -10 -4 -10 -6 0 -11 5 -11 10 0 6 2 10 4 10 3 0 8 -4 11 -10z"/>
<path d="M12451 6753 c1 -21 -2 -46 -6 -56 -4 -11 -3 -23 4 -30 14 -14 15 -67 1 -67 -13 0 -13 -37 0 -45 7 -5 7 -70 0 -70 -6 0 -4 -157 2 -161 10 -7 11 -61 0 -68 -9 -6 -9 -227 1 -243 4 -6 4 -14 -1 -17 -9 -5 -9 -116 0 -131 7 -13 4 -47 -5 -63 -5 -6 -5 -27 -2 -46 4 -20 2 -36 -4 -40 -6 -4 -11 -16 -11 -27 0 -23 -27 -26 -32 -2 -2 14 -14 16 -72 14 -44 -2 -74 -8 -83 -17 -20 -20 -36 -7 -31 27 4 25 -6 39 -28 39 -2 0 -4 -43 -4 -95 0 -85 2 -95 18 -95 13 0 23 -15 36 -49 23 -65 57 -101 94 -101 32 0 57 28 90 103 18 41 25 47 51 47 l31 0 0 60 c0 47 -3 60 -15 60 -8 0 -15 5 -15 11 0 6 7 8 16 5 9 -3 50 -6 92 -6 l77 0 -1 -52 c-1 -29 2 -62 7 -73 5 -13 8 6 8 53 l1 72 110 0 c99 0 111 -2 122 -20 12 -18 24 -20 118 -20 94 0 106 2 118 20 11 19 23 20 191 20 165 0 179 -1 196 -20 17 -19 31 -20 287 -20 l268 0 0 30 0 30 -163 0 c-90 0 -166 2 -169 5 -3 3 -283 6 -624 8 l-619 2 0 515 0 515 623 3 622 2 0 -515 0 -515 165 0 c158 0 165 1 165 20 0 22 -17 24 -187 20 -62 -1 -93 2 -93 9 0 7 29 11 80 11 73 0 80 2 80 20 0 17 -8 20 -82 23 -55 2 -35 4 60 5 134 2 142 3 142 22 0 18 -8 20 -142 23 l-143 3 143 2 c135 2 142 3 142 22 0 19 -7 20 -142 20 -78 0 -139 3 -136 6 3 3 67 6 142 7 122 2 136 4 136 20 0 15 -13 17 -140 17 -87 0 -140 4 -140 10 0 6 53 10 140 10 118 0 140 2 140 15 0 13 -22 15 -134 15 -79 0 -137 4 -141 10 -4 6 43 10 134 10 134 0 141 1 141 20 0 18 -8 20 -142 23 l-143 3 143 2 c134 2 142 3 142 22 0 18 -8 20 -142 23 l-143 3 143 2 c134 2 142 3 142 22 0 18 -8 20 -142 23 l-143 3 143 2 c134 2 142 3 142 22 0 18 -8 20 -142 23 l-143 3 143 2 c135 2 142 3 142 22 0 19 -7 20 -141 20 -91 0 -138 4 -134 10 4 6 62 10 141 10 125 0 134 1 134 19 0 18 -7 19 -134 14 -94 -4 -135 -3 -140 6 -5 8 30 11 133 11 134 0 141 1 141 20 0 18 -8 20 -142 23 l-143 3 143 2 c134 2 142 3 142 22 0 18 -8 20 -142 23 l-143 3 143 2 c135 2 142 3 142 22 0 19 -7 20 -142 22 l-143 1 135 8 c164 8 150 6 150 24 0 13 -22 15 -135 15 -83 0 -135 4 -135 10 0 6 52 10 135 10 126 0 135 1 135 19 0 18 -9 19 -137 20 -75 1 -139 4 -142 6 -2 3 59 5 137 5 135 0 142 1 142 20 0 18 -8 20 -142 23 l-143 3 143 2 c135 2 142 3 142 22 0 19 -7 20 -145 20 l-145 0 0 -470 c0 -307 -3 -470 -10 -470 -7 0 -10 165 -10 475 l0 475 155 0 155 0 0 35 0 35 -816 0 -816 0 3 -37z m-123 -1193 c58 0 63 2 73 27 6 17 13 23 19 17 12 -12 -47 -141 -73 -162 -26 -22 -56 3 -89 74 -16 35 -34 67 -39 70 -5 3 -6 10 -3 16 5 7 15 1 28 -15 19 -24 29 -27 84 -27z"/>
<path d="M12520 6240 l0 -500 145 0 145 0 0 500 0 500 -145 0 -145 0 0 -500z m104 -140 c31 0 56 5 56 10 0 6 5 10 10 10 6 0 10 -12 10 -27 0 -21 -3 -24 -12 -15 -14 14 -128 16 -128 2 0 -5 -4 -10 -10 -10 -5 0 -10 15 -10 33 1 29 2 30 14 15 10 -14 28 -18 70 -18z m-8 -230 c36 0 64 4 64 10 0 6 5 10 10 10 6 0 10 -11 10 -25 0 -14 -4 -25 -10 -25 -5 0 -10 3 -10 8 0 4 -27 7 -60 7 -33 0 -60 -3 -60 -7 0 -5 -4 -8 -10 -8 -5 0 -10 12 -9 28 0 15 3 21 6 15 3 -9 27 -13 69 -13z"/>
<path d="M12824 6353 c2 -214 4 -439 5 -500 l1 -113 145 0 145 0 0 500 0 500 -149 0 -150 0 3 -387z"/>
<path d="M13140 6240 l0 -500 145 0 145 0 0 500 0 500 -145 0 -145 0 0 -500z"/>
<path d="M13450 6240 l0 -500 145 0 145 0 0 500 0 500 -145 0 -145 0 0 -500z"/>
<path d="M7510 6250 l0 -450 35 0 35 0 0 450 0 450 -35 0 -35 0 0 -450z"/>
<path d="M12230 6251 l0 -451 40 0 40 0 -2 448 -3 447 -37 3 -38 3 0 -450z"/>
<path d="M13987 5810 c4 -16 14 -20 49 -20 37 0 44 3 44 20 0 17 -7 20 -49 20 -44 0 -49 -2 -44 -20z"/>
<path d="M7840 5745 c-19 -23 -9 -25 25 -4 26 17 27 19 9 19 -12 0 -27 -7 -34 -15z"/>
<path d="M11944 5745 c24 -18 39 -20 34 -2 -3 6 -15 13 -29 15 -23 2 -23 2 -5 -13z"/>
<path d="M7607 5743 c-4 -3 -7 -19 -7 -35 0 -26 -24 -41 -32 -19 -1 5 -28 11 -58 12 l-55 3 -3 -72 -3 -73 56 2 c49 2 58 5 66 26 8 21 29 33 29 15 0 -4 -18 -42 -40 -84 -34 -63 -46 -78 -70 -83 -38 -8 -39 -25 -1 -25 35 0 71 39 96 105 10 25 24 45 31 45 11 0 14 21 14 95 0 87 -5 107 -23 88z"/>
<path d="M8263 5733 c-112 -5 -106 -23 7 -23 73 0 90 3 90 15 0 8 -3 14 -7 13 -5 -1 -45 -4 -90 -5z"/>
<path d="M8574 5731 c-16 -16 10 -21 106 -21 62 0 110 4 110 9 0 9 -207 20 -216 12z"/>
<path d="M11098 5733 c-97 -6 -65 -23 42 -23 82 0 100 3 100 15 0 16 -8 16 -142 8z"/>
<path d="M11454 5731 c-2 -2 -4 -8 -4 -13 0 -11 187 -10 195 1 5 9 -182 21 -191 12z"/>
<path d="M8024 5716 c-3 -8 -4 -29 -2 -48 3 -32 5 -33 51 -36 l47 -3 0 50 0 51 -45 0 c-30 0 -47 -5 -51 -14z"/>
<path d="M8847 5724 c-4 -4 -7 -27 -7 -51 l0 -44 48 3 47 3 0 45 0 45 -40 3 c-23 2 -44 0 -48 -4z"/>
<path d="M10880 5681 l0 -51 51 0 50 0 -3 48 -3 47 -47 3 -48 3 0 -50z"/>
<path d="M11700 5680 l0 -51 48 3 47 3 0 45 0 45 -47 3 -48 3 0 -51z"/>
<path d="M10825 5705 c-16 -7 -45 -25 -64 -39 -19 -14 -47 -26 -62 -26 -15 0 -29 -3 -32 -7 -2 -5 -2 -3 -1 4 5 19 -11 24 -31 9 -28 -20 -33 -132 -10 -193 16 -42 16 -46 1 -55 -32 -18 -15 -28 48 -28 47 0 67 -4 77 -17 8 -9 27 -24 44 -35 29 -17 6 -18 -893 -20 -619 -2 -918 0 -907 7 10 6 33 22 51 37 29 22 42 26 82 22 58 -6 86 9 59 30 -17 13 -17 16 -3 45 10 19 16 56 16 105 0 86 -6 106 -29 106 -15 0 -17 -8 -13 -57 3 -48 2 -56 -9 -45 -26 24 -34 13 -31 -42 4 -53 -13 -106 -39 -121 -6 -4 -4 6 4 21 21 41 30 90 22 116 l-7 21 -14 -24 c-7 -13 -16 -46 -20 -72 -10 -75 -29 -90 -112 -95 -39 -2 -86 1 -105 7 -31 11 -36 17 -42 54 -9 53 -34 117 -46 117 -5 0 -9 -18 -9 -40 0 -58 42 -134 90 -166 22 -15 40 -27 40 -28 0 0 -178 0 -397 2 l-396 2 39 26 c49 32 85 102 84 164 l-1 45 -19 -24 c-20 -23 -24 -34 -35 -102 -6 -43 -42 -59 -133 -59 -71 0 -111 15 -116 44 -19 97 -29 136 -37 141 -15 10 -10 -72 6 -113 l15 -37 -20 24 c-21 24 -24 44 -21 119 2 32 -1 42 -13 42 -12 0 -16 -10 -16 -35 0 -29 -5 -37 -25 -45 -28 -10 -32 -30 -12 -61 10 -17 9 -22 -6 -30 -30 -17 -8 -29 53 -29 32 0 60 -4 62 -9 2 -5 21 -20 42 -35 l39 -26 -342 0 -341 0 0 -30 0 -30 3263 2 c3100 3 3262 4 3261 21 -1 9 -2 22 -3 27 -1 6 -79 10 -213 10 -213 0 -213 0 -182 19 95 58 112 175 36 252 -48 47 -100 58 -163 32 l-44 -18 63 -6 c50 -5 69 -12 89 -32 24 -23 25 -29 15 -59 l-11 -33 5 32 c4 23 0 37 -14 51 -17 17 -40 21 -158 27 -182 10 -541 0 -560 -16 -18 -15 -18 -89 -1 -113 19 -27 69 -18 74 13 4 28 -13 51 -37 51 -20 0 -34 -25 -24 -43 5 -9 4 -9 -5 -1 -19 17 4 54 32 54 31 0 47 -18 47 -52 0 -15 5 -28 10 -28 6 0 10 9 10 20 0 33 20 23 86 -40 l62 -60 101 0 101 0 66 60 c36 33 69 60 73 60 4 0 7 -8 8 -18 1 -9 3 -22 5 -27 2 -6 -1 -10 -7 -10 -5 0 -10 8 -9 18 1 24 -8 21 -40 -12 l-28 -30 20 -29 c12 -16 36 -36 54 -45 31 -16 18 -17 -242 -17 -272 0 -275 0 -245 19 17 10 41 30 54 45 l25 26 -29 30 c-35 37 -45 38 -45 5 0 -26 -15 -34 -23 -12 -4 10 -7 10 -18 0 -34 -33 -99 12 -99 67 0 30 -1 31 -42 28 l-43 -3 -3 -45 c-3 -53 23 -101 77 -137 l34 -23 -414 0 c-307 1 -409 3 -394 12 11 6 31 21 45 33 32 28 55 36 68 23 14 -14 72 0 72 18 0 8 -5 14 -11 14 -7 0 -9 8 -5 20 3 11 9 29 12 39 4 14 0 21 -18 26 -28 9 -38 23 -38 53 0 12 -4 22 -10 22 -6 0 -10 -27 -10 -62 0 -48 -5 -69 -22 -95 -13 -18 -28 -31 -34 -29 -5 2 -21 -2 -35 -10 -30 -16 -149 -18 -183 -2 -18 8 -27 22 -32 47 -9 58 -24 98 -40 111 -24 21 -19 -81 6 -113 11 -14 20 -33 20 -42 0 -9 14 -24 31 -33 17 -9 37 -21 45 -27 10 -7 -117 -9 -387 -7 l-401 2 38 26 c22 15 41 30 44 35 3 4 12 7 20 7 68 -4 120 3 120 17 0 9 -9 15 -21 15 -16 0 -20 4 -14 18 3 9 12 43 20 75 l13 58 -36 -3 -37 -3 -7 -57 c-7 -57 -25 -105 -35 -95 -2 3 0 14 5 24 16 29 26 127 13 119 -20 -13 -43 -67 -46 -109 -2 -35 -8 -44 -36 -59 -43 -23 -166 -25 -195 -3 -10 8 -27 15 -37 15 -25 0 -47 59 -46 122 l2 53 7 -60 c7 -62 23 -105 40 -105 6 0 10 3 10 8 -1 23 -32 138 -42 149 -15 19 -46 16 -51 -4 -3 -10 -5 -2 -5 17 0 19 2 29 5 23 2 -7 17 -13 32 -13 24 0 29 -6 44 -52 8 -29 19 -70 23 -90 7 -40 10 -43 33 -29 10 7 12 21 7 55 -5 29 -3 59 5 81 12 33 15 35 61 35 70 0 89 -22 86 -100 -2 -45 1 -63 12 -70 24 -15 27 -12 32 28 8 58 35 111 61 121 13 5 48 12 79 16 l56 7 -5 -63 c-6 -84 -13 -88 -13 -9 0 72 -6 74 -19 6 -7 -38 -5 -50 9 -69 10 -12 25 -39 34 -60 l15 -38 118 3 118 3 10 32 c6 17 18 40 28 50 23 26 31 72 18 106 -17 45 -31 31 -32 -35 l-2 -63 -7 55 c-4 30 -6 79 -6 108 1 28 -2 52 -6 52 -4 0 -9 -62 -10 -137 l-3 -138 -105 -3 c-90 -2 -107 0 -117 15 -9 11 -13 56 -13 137 0 72 -4 115 -9 107 -5 -7 -11 -9 -14 -4 -9 15 7 32 28 30 11 -1 21 5 23 14 5 24 -79 30 -107 8 -11 -9 -47 -19 -80 -23 -44 -5 -61 -11 -61 -21 0 -12 -15 -15 -65 -15 -63 0 -65 1 -65 25 0 18 -5 25 -19 25 -11 0 -23 5 -27 11 -4 8 0 9 15 4 15 -4 23 -1 27 10 9 23 3 25 -31 10z m345 -75 c0 -5 -4 -10 -9 -10 -6 0 -13 5 -16 10 -3 6 1 10 9 10 9 0 16 -4 16 -10z m-200 -47 c0 -5 -40 -8 -90 -8 -49 0 -90 3 -90 8 0 4 41 7 90 7 50 0 90 -3 90 -7z m1938 -56 c14 -9 16 -75 3 -96 -7 -11 -20 -5 -60 30 -28 24 -51 47 -51 51 0 21 80 32 108 15z m198 -17 c1 -33 -6 -51 -17 -44 -5 3 -9 0 -9 -5 0 -6 6 -11 13 -11 8 0 7 -4 -3 -10 -23 -15 -29 -12 -23 10 7 26 -4 25 -28 -2 -15 -19 -18 -20 -19 -6 0 9 6 19 13 21 6 3 -5 6 -25 6 -37 1 -51 -12 -25 -22 9 -4 8 -8 -3 -16 -13 -10 -13 -11 0 -11 13 0 13 -1 0 -10 -12 -8 -9 -10 13 -10 15 0 27 4 27 9 0 5 6 11 14 14 7 3 13 0 12 -6 0 -7 4 -12 9 -12 6 0 9 3 8 6 -1 4 7 9 17 12 22 6 28 -8 8 -16 -8 -3 -6 -6 5 -6 9 -1 17 -5 17 -11 0 -9 -142 -15 -151 -6 -2 2 -3 39 -1 81 l4 76 71 -3 c69 -3 72 -4 73 -28z m117 24 c20 -4 37 -10 37 -14 0 -12 -62 -81 -83 -92 -24 -13 -37 4 -37 49 0 63 8 69 83 57z m155 -62 c2 -20 7 -30 14 -26 6 4 9 1 6 -7 -2 -8 -17 -20 -32 -28 -23 -11 -33 -11 -52 -1 -19 11 -22 18 -17 44 8 43 22 58 52 54 21 -2 27 -9 29 -36z m-4248 -69 c-11 -17 -11 -17 -6 0 3 10 6 24 7 30 0 9 2 9 5 0 3 -7 0 -20 -6 -30z m-1284 -10 c-4 -4 -11 -1 -16 7 -16 25 -11 35 7 17 9 -9 13 -20 9 -24z m2854 5 c0 -6 -7 -5 -15 2 -8 7 -15 17 -15 22 0 6 7 5 15 -2 8 -7 15 -17 15 -22z m1294 17 c-6 -16 -24 -21 -24 -7 0 11 11 22 21 22 5 0 6 -7 3 -15z"/>
<path d="M12820 5512 c0 -5 9 -17 20 -27 20 -18 20 -17 20 8 0 20 -5 27 -20 27 -11 0 -20 -4 -20 -8z"/>
<path d="M12886 5483 c9 -52 14 -54 14 -5 0 23 -5 42 -10 42 -7 0 -8 -14 -4 -37z"/>
<path d="M12970 5505 c0 -24 3 -25 59 -25 50 0 59 3 64 19 7 28 1 31 -65 31 -55 0 -58 -1 -58 -25z"/>
<path d="M13154 5506 c-3 -14 -4 -33 -1 -43 4 -15 5 -14 6 4 0 12 6 25 11 28 13 8 13 35 0 35 -5 0 -12 -11 -16 -24z"/>
<path d="M13188 5490 l-4 -40 30 30 c32 32 32 34 0 44 -20 6 -22 2 -26 -34z"/>
<path d="M13313 5458 c3 -28 7 -33 30 -33 15 0 27 3 27 8 0 4 0 18 0 32 0 21 -5 25 -31 25 -28 0 -30 -2 -26 -32z"/>
<path d="M10994 5707 c-10 -28 3 -48 28 -43 13 3 40 8 61 11 53 8 46 25 -11 25 -26 0 -53 5 -60 12 -9 9 -13 7 -18 -5z"/>
<path d="M7960 5702 c-9 -4 -32 -19 -51 -34 -20 -16 -46 -28 -57 -28 -29 0 -30 -45 -2 -60 24 -13 44 -58 60 -135 15 -74 34 -67 40 17 6 83 19 98 80 98 63 0 75 -16 75 -98 0 -53 3 -65 17 -68 13 -1 20 10 28 52 16 74 42 102 109 114 85 16 81 18 79 -57 l-1 -68 -7 65 c-5 62 -6 64 -18 37 -7 -16 -12 -36 -12 -44 0 -30 24 -83 37 -83 7 0 13 -11 13 -24 0 -41 19 -47 141 -44 l112 3 10 30 c5 17 15 37 23 45 19 22 27 66 20 106 -6 29 -10 33 -22 24 -11 -10 -14 -9 -14 4 0 19 20 20 89 5 62 -13 85 -40 102 -115 9 -41 16 -54 28 -52 12 3 17 19 19 73 4 69 14 95 36 95 6 0 3 -7 -6 -14 -13 -9 -18 -27 -18 -60 l0 -46 60 0 c56 0 60 1 66 27 4 14 2 40 -4 55 -9 25 -9 28 4 17 10 -8 14 -30 13 -71 -1 -41 3 -63 12 -69 18 -11 18 -10 35 60 21 92 40 124 70 118 23 -4 25 -2 22 27 -2 19 -8 30 -16 28 -16 -3 -92 36 -92 47 0 10 -53 31 -76 31 -8 0 -14 -6 -14 -14 0 -9 11 -12 35 -10 20 1 33 -2 29 -7 -3 -5 -18 -9 -35 -9 -24 0 -29 -4 -29 -25 0 -24 -3 -25 -60 -25 -43 0 -61 4 -68 15 -8 15 -33 21 -94 24 -15 0 -33 8 -42 16 -21 22 -116 21 -116 -1 0 -12 7 -15 25 -12 14 3 28 1 31 -3 3 -5 -1 -9 -8 -9 -10 0 -14 -29 -16 -122 -2 -68 -5 -131 -8 -140 -5 -16 -19 -18 -108 -18 -66 0 -106 4 -114 12 -8 8 -12 49 -12 120 0 60 -4 108 -9 108 -5 0 -12 -8 -14 -17 -3 -10 -5 1 -6 25 -1 31 3 42 14 42 8 0 15 7 15 15 0 20 -58 20 -87 0 -13 -9 -46 -16 -77 -17 -44 -1 -56 -5 -59 -20 -4 -15 -15 -18 -66 -18 -58 0 -61 1 -61 25 0 21 -5 25 -29 25 -17 0 -32 4 -36 9 -3 6 9 7 30 4 28 -4 35 -2 35 11 0 16 -23 20 -50 8z m350 -72 c0 -5 -4 -10 -10 -10 -5 0 -10 5 -10 10 0 6 5 10 10 10 6 0 10 -4 10 -10z m360 0 c0 -5 -4 -10 -10 -10 -5 0 -10 5 -10 10 0 6 5 10 10 10 6 0 10 -4 10 -10z m-554 -42 c8 -9 -4 -28 -19 -28 -7 0 -6 4 3 10 10 7 -9 10 -62 10 -64 0 -78 -3 -78 -16 0 -9 -5 -12 -12 -8 -8 5 -4 13 10 25 17 13 38 17 87 15 35 -1 67 -5 71 -8z m902 -10 c3 -13 -3 -18 -20 -17 -21 0 -21 1 -4 8 11 4 15 10 9 14 -14 9 -143 4 -143 -5 0 -4 -4 -8 -10 -8 -5 0 -7 7 -3 15 4 13 21 15 87 13 68 -3 81 -6 84 -20z m-48 -15 c0 -5 -14 -8 -30 -9 -17 -1 -30 3 -30 7 0 5 14 9 30 9 17 0 30 -3 30 -7z m8 -45 c15 -13 16 -40 0 -56 -20 -20 -76 -15 -88 8 -29 53 36 88 88 48z"/>
<path d="M8902 5493 c2 -23 9 -29 34 -31 21 -2 33 2 37 12 11 29 -4 46 -40 46 -32 0 -34 -2 -31 -27z"/>
<path d="M8137 5703 c-4 -3 -7 -12 -7 -20 0 -9 17 -13 60 -13 35 0 60 4 60 10 0 12 -11 16 -66 24 -22 3 -44 3 -47 -1z"/>
<path d="M8792 5701 c-8 -4 -29 -7 -48 -5 -18 1 -36 -2 -40 -7 -7 -12 9 -16 74 -22 49 -4 52 -3 52 19 0 25 -15 30 -38 15z"/>
<path d="M11616 5701 c-61 -9 -56 -29 8 -33 52 -3 56 -2 56 20 0 12 -6 21 -12 21 -7 -1 -31 -5 -52 -8z"/>
<path d="M11810 5694 c0 -12 7 -15 30 -12 17 3 30 1 30 -4 0 -4 -13 -8 -29 -8 -23 0 -30 -5 -33 -22 -3 -20 -10 -23 -58 -26 -40 -2 -57 1 -66 12 -6 9 -28 18 -50 21 -72 10 -94 17 -94 26 0 5 -20 9 -45 9 -33 0 -45 -4 -45 -15 0 -8 8 -15 19 -15 16 0 18 -6 14 -44 l-5 -43 60 -7 c82 -9 105 -30 127 -111 10 -36 21 -65 24 -65 21 1 32 21 30 53 -2 20 0 39 4 43 4 4 7 -4 7 -18 0 -23 4 -25 52 -27 57 -2 68 6 68 55 0 41 -16 54 -67 54 -37 0 -43 -3 -49 -25 -3 -14 -10 -25 -15 -25 -12 0 -11 4 3 34 12 27 60 43 97 33 19 -4 50 8 41 16 -3 3 -39 1 -80 -3 -41 -4 -77 -5 -79 -3 -12 9 14 14 85 16 68 2 79 0 82 -15 2 -12 -3 -18 -13 -18 -15 0 -16 -2 -4 -17 9 -10 14 -41 14 -82 0 -53 3 -66 16 -69 13 -2 18 8 24 45 9 64 40 133 59 133 11 0 16 9 16 30 0 24 -7 33 -39 50 -22 11 -44 26 -48 34 -4 7 -25 16 -45 20 -32 6 -38 4 -38 -10z m-280 -64 c0 -5 -4 -10 -10 -10 -5 0 -10 5 -10 10 0 6 5 10 10 10 6 0 10 -4 10 -10z m294 -112 c13 -19 14 -25 2 -43 -26 -40 -86 -27 -86 19 0 47 57 63 84 24z"/>
<path d="M11753 5514 c-9 -24 10 -49 38 -49 27 0 37 28 19 50 -17 20 -49 19 -57 -1z m19 -16 c-7 -7 -12 -8 -12 -2 0 14 12 26 19 19 2 -3 -1 -11 -7 -17z"/>
<path d="M12512 5603 l3 -78 68 -3 c66 -3 68 -2 62 19 -4 12 -7 48 -6 80 l1 59 -50 0 -50 0 0 -60 c0 -66 8 -73 50 -40 35 27 48 25 21 -4 l-23 -24 24 -5 c12 -2 -1 -5 -29 -6 l-53 -1 0 70 c0 42 -4 70 -10 70 -7 0 -10 -29 -8 -77z"/>
<path d="M12690 5655 c0 -21 5 -25 28 -25 16 0 49 -10 73 -23 43 -21 57 -22 245 -22 173 1 202 3 225 18 58 39 159 27 204 -23 17 -19 33 -20 317 -20 l298 0 0 40 0 40 -273 0 c-261 0 -275 1 -292 20 -17 18 -31 20 -186 20 -158 0 -170 -1 -181 -20 -12 -18 -24 -20 -124 -20 -98 0 -113 2 -129 20 -16 17 -31 20 -112 20 -93 0 -93 0 -93 -25z"/>
<path d="M8345 5640 c-3 -5 -1 -10 4 -10 6 0 11 5 11 10 0 6 -2 10 -4 10 -3 0 -8 -4 -11 -10z"/>
<path d="M8570 5635 c0 -8 5 -15 10 -15 6 0 10 7 10 15 0 8 -4 15 -10 15 -5 0 -10 -7 -10 -15z"/>
<path d="M11226 5523 c3 -65 7 -124 9 -131 4 -9 30 -12 102 -10 l98 3 3 55 3 55 -96 -3 -95 -3 -2 28 c0 15 -2 33 -3 38 -2 6 -3 27 -4 48 0 20 -5 37 -10 37 -5 0 -7 -50 -5 -117z m52 -54 c-10 -5 -18 -17 -18 -25 0 -12 13 -14 72 -12 46 2 73 7 76 16 2 6 -3 12 -12 12 -8 0 -18 5 -21 10 -4 6 3 9 17 7 17 -3 23 -11 23 -28 0 -23 -3 -24 -82 -27 -81 -3 -83 -2 -83 21 0 28 7 37 29 37 14 -1 13 -2 -1 -11z m79 -4 c0 -18 -13 -20 -21 -2 -5 9 -7 9 -12 -1 -6 -13 -24 -7 -24 9 0 5 13 9 28 9 19 0 29 -5 29 -15z"/>
<path d="M12687 5613 c-4 -3 -7 -15 -7 -25 0 -20 24 -22 95 -10 l40 8 -43 17 c-45 18 -74 22 -85 10z"/>
<path d="M9290 5520 l0 -90 615 0 615 0 0 90 0 90 -615 0 -615 0 0 -90z"/>
<path d="M10829 5544 c-12 -15 -18 -89 -8 -98 2 -2 15 -7 29 -11 l25 -7 -22 17 c-25 18 -31 63 -11 83 17 17 63 15 77 -2 19 -23 10 -70 -14 -74 -19 -4 -19 -3 -2 10 12 9 18 23 15 39 -2 19 -10 25 -35 27 -28 3 -33 0 -39 -24 -6 -21 -2 -31 16 -46 44 -36 90 -15 90 41 0 51 -89 83 -121 45z m59 -42 c-10 -2 -18 -8 -18 -14 0 -5 7 -7 16 -4 8 3 12 2 9 -4 -8 -13 -32 -13 -40 0 -10 17 14 40 33 32 16 -6 16 -7 0 -10z"/>
<path d="M7970 5530 c-10 -19 -12 -91 -2 -117 6 -19 122 -18 122 1 0 10 -13 13 -49 11 -56 -3 -61 3 -61 65 0 25 5 40 16 44 24 9 31 7 12 -5 -12 -6 -18 -22 -18 -45 0 -41 30 -58 77 -44 15 4 25 9 21 9 -4 1 -3 14 2 30 13 46 -11 71 -65 71 -34 0 -47 -5 -55 -20z m95 -14 c13 -20 14 -29 5 -46 -16 -30 -64 -24 -68 9 -2 13 1 28 7 34 7 7 10 1 8 -19 -2 -23 2 -29 18 -29 14 0 21 8 23 28 2 19 -1 27 -12 27 -9 0 -16 5 -16 10 0 18 19 10 35 -14z"/>
<path d="M8243 5542 c-7 -5 -16 -30 -19 -58 -4 -27 -14 -63 -24 -81 -10 -17 -17 -33 -15 -35 2 -1 28 -1 59 0 40 3 56 8 56 18 0 8 -9 14 -20 14 -24 0 -24 -1 -6 36 7 16 17 48 20 72 6 39 5 42 -16 42 -13 0 -29 -4 -35 -8z m-7 -139 c-10 -10 -19 5 -10 18 6 11 8 11 12 0 2 -7 1 -15 -2 -18z"/>
<path d="M8671 5498 c5 -29 11 -63 15 -75 5 -17 2 -23 -10 -23 -9 0 -16 -6 -16 -14 0 -10 17 -15 60 -18 33 -1 60 -2 60 -1 0 2 -9 17 -20 35 -11 19 -20 51 -20 75 0 47 -19 73 -54 73 -22 0 -22 -2 -15 -52z m57 -93 c-3 -3 -9 2 -12 12 -6 14 -5 15 5 6 7 -7 10 -15 7 -18z"/>
<path d="M11531 5498 c4 -29 10 -63 14 -74 5 -16 2 -23 -14 -27 -42 -11 -19 -25 44 -29 36 -1 65 0 65 3 0 4 -9 17 -19 31 -11 13 -23 51 -28 84 -8 56 -9 59 -39 62 l-30 3 7 -53z"/>
<path d="M11938 5515 c-9 -23 -19 -63 -24 -90 -6 -44 -5 -49 8 -37 26 21 39 66 36 118 l-3 49 -17 -40z"/>
<path d="M8870 5414 c0 -11 15 -14 65 -14 47 0 65 4 65 13 0 10 -18 14 -65 15 -50 0 -65 -3 -65 -14z"/>
<path d="M10820 5413 c0 -9 19 -13 60 -13 42 0 60 4 60 13 0 9 -17 13 -60 12 -41 0 -60 -4 -60 -12z"/>
<path d="M11730 5415 c0 -12 13 -15 60 -15 47 0 60 3 60 15 0 12 -13 15 -60 15 -47 0 -60 -3 -60 -15z"/>
<path d="M7946 5382 c-3 -6 4 -12 17 -16 47 -13 184 2 147 16 -26 9 -158 9 -164 0z"/>
<path d="M10796 5381 c-9 -13 19 -21 77 -21 59 0 99 9 92 20 -7 11 -162 12 -169 1z"/>
<path d="M11705 5380 c-8 -13 24 -20 83 -19 64 0 106 12 81 21 -22 8 -159 6 -164 -2z"/>
<path d="M8855 5370 c11 -5 45 -9 75 -9 30 0 64 4 75 9 13 6 -13 9 -75 9 -62 0 -88 -3 -75 -9z"/>
</g>
</svg>