<svg xmlns="http://www.w3.org/2000/svg" viewBox="483.00 378.30 468.30 189.90">
<g transform="translate(0.000000,768.000000) scale(0.100000,-0.100000)" fill="currentColor" stroke="none">
<path d="M9326 3841 c-20 -8 -20 -8 0 -12 10 -2 46 -1 79 2 58 5 58 6 13 7 -25 1 -52 4 -60 6 -7 3 -22 1 -32 -3z"/>
<path d="M4988 3833 c18 -2 45 -2 60 0 15 2 0 4 -33 4 -33 0 -45 -2 -27 -4z"/>
<path d="M5098 3833 c7 -3 16 -2 19 1 4 3 -2 6 -13 5 -11 0 -14 -3 -6 -6z"/>
<path d="M5153 3833 c9 -2 25 -2 35 0 9 3 1 5 -18 5 -19 0 -27 -2 -17 -5z"/>
<path d="M5303 3833 c9 -2 23 -2 30 0 6 3 -1 5 -18 5 -16 0 -22 -2 -12 -5z"/>
<path d="M5612 3833 c70 -2 187 -2 260 0 73 1 16 3 -127 3 -143 0 -203 -2 -133 -3z"/>
<path d="M6198 3833 c106 -2 277 -2 380 0 103 1 16 2 -193 2 -209 0 -293 -1 -187 -2z"/>
<path d="M6823 3833 c15 -2 37 -2 50 0 12 2 0 4 -28 4 -27 0 -38 -2 -22 -4z"/>
<path d="M7038 3833 c72 -2 192 -2 265 0 72 1 13 3 -133 3 -146 0 -205 -2 -132 -3z"/>
<path d="M7467 3833 c18 -2 50 -2 70 0 21 2 7 4 -32 4 -38 0 -55 -2 -38 -4z"/>
<path d="M7853 3833 c147 -2 387 -2 535 0 147 1 26 2 -268 2 -294 0 -415 -1 -267 -2z"/>
<path d="M8683 3833 c9 -2 25 -2 35 0 9 3 1 5 -18 5 -19 0 -27 -2 -17 -5z"/>
<path d="M9128 3833 c7 -3 16 -2 19 1 4 3 -2 6 -13 5 -11 0 -14 -3 -6 -6z"/>
<path d="M7900 3281 c12 -23 13 -140 2 -158 -6 -9 -41 -11 -140 -6 -128 6 -150 12 -116 31 13 7 14 13 5 31 -7 11 -9 21 -6 21 3 0 -2 11 -11 25 l-17 25 -12 -23 c-22 -43 -25 -69 -8 -86 15 -15 13 -16 -33 -19 -27 -2 -86 -1 -131 3 l-83 7 0 43 c0 61 -24 86 -86 92 -69 7 -102 -19 -106 -85 l-3 -47 -87 -3 c-83 -3 -88 -2 -88 18 0 11 -4 20 -10 20 -5 0 -10 13 -10 29 0 35 -19 53 -21 19 -1 -13 -1 -29 0 -35 1 -7 -5 -13 -14 -13 -14 0 -20 23 -16 58 1 6 -3 12 -9 12 -10 0 -14 -18 -12 -50 0 -8 -6 -19 -14 -23 -8 -4 -14 -15 -14 -22 0 -11 -14 -15 -55 -15 l-54 0 2 53 2 52 -45 0 c-25 0 -49 6 -53 13 -11 16 -134 17 -139 0 -3 -9 -51 -12 -174 -13 l-169 0 -3 -39 c-3 -31 0 -38 12 -33 10 4 13 1 10 -7 -6 -15 13 -21 101 -31 33 -4 66 -12 73 -17 14 -12 17 -128 2 -128 -6 0 -10 -57 -10 -150 0 -127 -2 -150 -15 -150 -8 0 -15 6 -15 14 0 10 -14 16 -42 18 l-43 3 -3 133 c-1 77 -7 132 -12 132 -6 0 -10 18 -10 40 0 38 -2 40 -30 40 -26 0 -31 5 -37 31 -6 31 -39 52 -72 47 -9 -1 -26 3 -39 10 -12 7 -52 15 -90 19 -37 3 -72 9 -78 14 -14 12 -168 2 -245 -15 -101 -22 -147 -27 -154 -16 -8 13 -85 13 -85 1 0 -5 6 -12 13 -14 10 -4 10 -6 0 -6 -8 -1 -13 -14 -13 -31 l0 -30 -104 0 c-75 0 -106 -4 -109 -12 -2 -7 -2 13 1 45 l4 57 -56 0 -56 0 0 -39 c0 -22 5 -41 12 -43 6 -2 -1 -16 -18 -32 -16 -16 -23 -25 -16 -22 9 6 12 -31 12 -168 0 -107 -4 -176 -10 -176 -5 0 -7 7 -4 15 4 8 1 15 -5 15 -16 0 -15 262 2 279 10 11 9 13 -3 9 -12 -4 -16 -30 -18 -140 -2 -128 -4 -136 -23 -141 -12 -3 -18 -10 -15 -16 4 -6 13 -8 21 -4 9 3 15 -1 15 -11 0 -9 -4 -16 -10 -16 -5 0 -10 -13 -10 -29 0 -29 -24 -49 -35 -31 -4 6 -24 10 -46 10 l-39 0 0 -41 0 -41 48 3 c42 3 47 1 44 -17 -5 -24 -31 -54 -57 -65 -20 -8 -20 -8 1 -8 26 -1 62 32 70 64 7 27 34 35 34 10 0 -11 12 -15 49 -15 46 0 50 2 60 31 6 18 11 40 11 50 0 12 6 16 21 12 20 -6 20 -6 -3 -30 -34 -36 -31 -93 7 -133 l29 -30 -157 0 -157 0 0 -25 0 -25 2180 0 2180 0 0 25 0 25 -156 0 -157 0 26 24 c24 23 31 39 39 91 3 16 11 20 45 20 22 0 39 -4 36 -8 -2 -4 7 -5 21 -1 23 5 28 2 41 -30 17 -41 60 -75 76 -59 7 7 2 13 -15 17 -17 4 -33 21 -47 47 -23 46 -20 56 9 40 12 -6 34 -11 51 -11 29 0 31 2 31 40 l0 40 -44 0 c-26 0 -47 -5 -50 -12 -3 -9 -8 -8 -16 5 -6 9 -15 15 -21 12 -5 -4 -9 8 -9 24 0 46 0 46 16 45 8 -1 14 2 14 7 0 5 -6 9 -14 9 -18 0 -28 27 -17 48 9 19 4 42 -10 42 -5 0 -9 -8 -9 -18 0 -26 -29 -24 -35 2 -8 31 -1 176 8 176 4 0 7 7 7 15 0 17 -9 19 -28 7 -9 -7 -10 -16 -1 -41 6 -17 9 -34 7 -37 -3 -2 -10 14 -17 35 -7 25 -27 53 -53 75 -23 20 -39 36 -35 36 4 0 26 -17 49 -37 33 -30 38 -32 22 -11 -10 15 -36 36 -57 48 -26 15 -35 25 -29 33 5 7 7 27 5 45 -5 32 -6 32 -59 32 l-54 0 0 -46 0 -46 -95 4 c-52 1 -95 -1 -95 -5 0 -4 -55 -5 -122 -1 -94 4 -119 3 -108 -6 12 -9 11 -10 -7 -5 -13 3 -43 3 -68 -1 -34 -5 -45 -10 -41 -21 3 -8 2 -12 -3 -9 -16 11 -21 -25 -21 -160 0 -149 7 -136 -73 -138 l-39 -1 7 40 c3 22 10 42 15 43 6 2 10 21 10 43 0 30 3 37 15 33 12 -5 15 2 15 31 0 29 -3 36 -15 31 -11 -4 -15 2 -15 24 0 16 -5 32 -11 36 -6 3 -9 19 -5 35 4 22 1 29 -15 34 -27 9 -14 25 22 25 31 0 36 8 17 29 -10 11 -10 13 0 7 9 -5 12 5 12 39 0 39 -3 46 -16 41 -9 -3 -33 -6 -55 -6 l-39 0 0 -50 c0 -49 -1 -50 -29 -50 -36 0 -38 7 -31 111 l5 79 -68 0 c-64 0 -67 -1 -57 -19z m-1327 -48 c-7 -2 -21 -2 -30 0 -10 3 -4 5 12 5 17 0 24 -2 18 -5z m-240 -70 c-18 -2 -48 -2 -65 0 -18 2 -4 4 32 4 36 0 50 -2 33 -4z m177 -163 l0 -80 -45 0 -45 0 0 80 0 80 45 0 45 0 0 -80z m233 25 c-3 -9 -8 -14 -10 -11 -3 3 -2 9 2 15 9 16 15 13 8 -4z m874 -37 c-2 -13 -4 -5 -4 17 -1 22 1 32 4 23 2 -10 2 -28 0 -40z m123 48 c0 -3 -4 -8 -10 -11 -5 -3 -10 -1 -10 4 0 6 5 11 10 11 6 0 10 -2 10 -4z m-1347 -348 c8 -5 7 -8 -5 -8 -16 0 -18 13 -16 143 l2 142 3 -135 c3 -92 7 -137 16 -142z m154 236 c-3 -3 -12 -4 -19 -1 -8 3 -5 6 6 6 11 1 17 -2 13 -5z m1580 -71 c-2 -16 -4 -5 -4 22 0 28 2 40 4 28 2 -13 2 -35 0 -50z m-510 5 c-3 -8 -6 -5 -6 6 -1 11 2 17 5 13 3 -3 4 -12 1 -19z m-320 -44 c-3 -3 -12 -4 -19 -1 -8 3 -5 6 6 6 11 1 17 -2 13 -5z m830 -16 c-3 -8 -6 -5 -6 6 -1 11 2 17 5 13 3 -3 4 -12 1 -19z m0 -40 c-3 -8 -6 -5 -6 6 -1 11 2 17 5 13 3 -3 4 -12 1 -19z m-780 -20 c-3 -8 -6 -5 -6 6 -1 11 2 17 5 13 3 -3 4 -12 1 -19z m328 -11 c28 -2 -13 -3 -90 -3 -77 0 -103 2 -57 3 55 3 82 8 82 16 0 9 2 9 8 0 4 -6 30 -13 57 -16z m1403 -5 c2 -15 -2 -22 -12 -22 -11 0 -16 9 -16 26 0 31 23 28 28 -4z m-1963 8 c3 -5 -1 -10 -10 -10 -9 0 -13 5 -10 10 3 6 8 10 10 10 2 0 7 -4 10 -10z m848 -7 c-29 -2 -78 -2 -110 0 -32 2 -8 3 52 3 61 0 87 -1 58 -3z m159 -35 c-8 -8 -9 -4 -5 13 4 13 8 18 11 10 2 -7 -1 -18 -6 -23z m-1079 -5 c-7 -2 -21 -2 -30 0 -10 3 -4 5 12 5 17 0 24 -2 18 -5z m94 1 c-3 -3 -12 -4 -19 -1 -8 3 -5 6 6 6 11 1 17 -2 13 -5z m101 -1 c-15 -2 -42 -2 -60 0 -18 2 -6 4 27 4 33 0 48 -2 33 -4z m570 0 c-27 -2 -69 -2 -95 0 -27 2 -5 3 47 3 52 0 74 -1 48 -3z m-2520 -10 c-32 -2 -86 -2 -120 0 -35 2 -9 3 57 3 66 0 94 -1 63 -3z m255 0 c-34 -2 -93 -2 -130 0 -37 2 -9 3 62 3 72 0 102 -1 68 -3z m140 0 c-7 -2 -19 -2 -25 0 -7 3 -2 5 12 5 14 0 19 -2 13 -5z m94 1 c-3 -3 -12 -4 -19 -1 -8 3 -5 6 6 6 11 1 17 -2 13 -5z m101 -1 c-15 -2 -42 -2 -60 0 -18 2 -6 4 27 4 33 0 48 -2 33 -4z m105 0 c-13 -2 -35 -2 -50 0 -16 2 -5 4 22 4 28 0 40 -2 28 -4z m124 0 c-20 -2 -52 -2 -70 0 -17 2 0 4 38 4 39 0 53 -2 32 -4z m70 1 c-3 -3 -12 -4 -19 -1 -8 3 -5 6 6 6 11 1 17 -2 13 -5z m40 0 c-3 -3 -12 -4 -19 -1 -8 3 -5 6 6 6 11 1 17 -2 13 -5z m1633 -38 c0 -2 -9 -6 -20 -9 -11 -3 -18 -1 -14 4 5 9 34 13 34 5z m270 -30 c0 -17 -41 -29 -54 -16 -7 7 -2 10 11 10 12 0 25 5 28 10 9 14 15 12 15 -4z m556 -6 c0 -25 -30 -26 -75 -4 -32 16 -87 12 -77 -5 3 -5 -2 -8 -12 -7 -10 0 -24 -13 -35 -35 -21 -44 -11 -82 31 -116 l27 -23 -95 0 c-90 1 -94 2 -67 16 15 8 25 19 22 25 -4 5 -1 8 6 7 7 -2 17 11 22 28 10 36 -10 91 -32 86 -7 -1 -10 2 -7 7 9 14 -13 25 -64 32 -25 3 45 7 155 8 194 1 201 0 201 -19z m-3336 -8 c0 -9 -9 -12 -31 -8 -48 7 -54 21 -9 21 27 0 40 -4 40 -13z m2657 12 c-3 -3 -12 -4 -19 -1 -8 3 -5 6 6 6 11 1 17 -2 13 -5z m849 -9 c-1 -8 -6 -18 -11 -22 -4 -4 -5 -2 -1 5 13 22 -22 13 -39 -10 l-16 -23 5 25 c2 14 5 28 5 33 1 4 14 7 30 7 20 0 29 -5 27 -15z m-3330 -2 c-10 -10 -76 -10 -76 0 0 4 19 7 42 7 23 0 38 -3 34 -7z m221 -4 c-26 -15 -46 -68 -40 -102 3 -15 19 -38 35 -52 l30 -25 -83 0 -82 0 26 24 c14 13 29 37 33 52 8 32 -7 80 -24 77 -7 -2 -11 3 -9 10 1 7 25 14 57 18 30 3 60 6 65 7 6 1 2 -3 -8 -9z m163 1 c0 -5 -11 -10 -24 -10 -14 0 -28 5 -31 10 -4 6 7 10 24 10 17 0 31 -4 31 -10z m180 0 c-20 -13 -70 -13 -70 0 0 6 19 10 43 10 31 0 38 -3 27 -10z m116 -12 l19 -23 -25 20 c-14 11 -27 21 -29 22 -2 2 0 3 6 3 5 0 18 -10 29 -22z m1733 -7 c-45 -45 -34 -116 22 -147 20 -11 -126 -13 -889 -14 l-912 0 31 28 c26 23 31 35 31 70 -1 47 15 58 20 15 3 -26 7 -28 51 -31 44 -3 47 -2 47 22 0 22 5 25 54 31 30 4 68 4 85 0 27 -6 31 -11 31 -41 l0 -34 50 0 50 0 0 41 c0 39 1 40 28 35 15 -2 93 -10 175 -17 81 -7 147 -16 147 -20 0 -14 26 -16 44 -4 17 13 17 15 -4 37 -20 21 -22 22 -34 6 -10 -13 -23 -16 -57 -12 -24 3 -102 11 -174 18 l-130 14 240 0 c132 0 234 -2 228 -5 -8 -2 -13 -22 -13 -44 l0 -39 198 2 197 3 0 43 0 42 43 0 42 0 0 -45 c0 -40 3 -47 27 -56 34 -13 263 -10 281 4 6 5 12 22 12 38 0 24 4 29 25 29 14 0 25 5 25 10 0 13 37 50 49 50 5 0 -4 -13 -20 -29z m341 19 c-20 -13 -40 -13 -40 0 0 6 12 10 28 10 21 0 24 -2 12 -10z m701 -17 c13 -16 12 -17 -3 -4 -10 7 -18 15 -18 17 0 8 8 3 21 -13z m-2493 -10 c-15 -2 -42 -2 -60 0 -18 2 -6 4 27 4 33 0 48 -2 33 -4z m112 -3 c0 -5 -18 -10 -40 -10 -22 0 -40 5 -40 10 0 6 18 10 40 10 22 0 40 -4 40 -10z m703 3 c-7 -2 -21 -2 -30 0 -10 3 -4 5 12 5 17 0 24 -2 18 -5z m-1402 -28 c5 4 9 1 9 -4 0 -6 -7 -11 -15 -11 -8 0 -15 2 -15 4 0 2 -3 13 -6 23 -5 17 -5 17 6 0 6 -9 15 -15 21 -12z m2209 5 c0 -11 -2 -20 -4 -20 -2 0 -6 9 -9 20 -3 11 -1 20 4 20 5 0 9 -9 9 -20z m134 5 c-4 -8 -8 -15 -10 -15 -2 0 -4 7 -4 15 0 8 4 15 10 15 5 0 7 -7 4 -15z m436 5 c0 -5 -4 -10 -9 -10 -6 0 -13 5 -16 10 -3 6 1 10 9 10 9 0 16 -4 16 -10z m-3337 -13 c4 3 7 1 7 -5 0 -18 -27 -14 -34 4 -5 13 -4 14 7 6 8 -7 17 -9 20 -5z m694 -19 c-15 -9 -19 -4 -11 16 5 14 9 15 15 5 5 -8 3 -17 -4 -21z m-917 12 c0 -5 -18 -10 -40 -10 -22 0 -40 5 -40 10 0 6 18 10 40 10 22 0 40 -4 40 -10z m365 0 c3 -6 -1 -7 -9 -4 -18 7 -21 14 -7 14 6 0 13 -4 16 -10z m843 -7 c-2 -12 -14 -19 -36 -21 -27 -3 -32 0 -32 17 0 17 6 21 36 21 28 0 35 -3 32 -17z m270 -15 c3 -27 1 -28 -37 -28 -39 0 -41 1 -41 31 0 29 2 30 38 27 32 -3 37 -7 40 -30z m1522 -2 c0 -3 -4 -8 -10 -11 -5 -3 -10 -1 -10 4 0 6 5 11 10 11 6 0 10 -2 10 -4z m-2697 -55 c63 3 77 0 102 -19 l28 -22 -144 0 -143 0 29 30 c21 22 32 27 41 19 8 -6 44 -9 87 -8z m555 0 c47 3 75 -1 85 -10 9 -7 20 -10 25 -7 5 3 9 -1 9 -9 0 -12 -23 -15 -133 -15 -111 0 -132 2 -130 15 1 8 6 18 11 22 4 4 5 2 1 -4 -4 -7 -3 -13 3 -13 6 0 15 9 21 21 9 16 14 18 25 9 9 -7 41 -11 83 -9z m2216 2 c53 5 63 3 89 -19 l29 -24 -144 0 c-130 1 -141 2 -117 15 15 8 29 21 33 30 5 13 10 14 28 4 13 -7 44 -9 82 -6z m685 -40 c2 -2 -60 -3 -138 -3 l-143 0 29 23 c25 21 36 23 96 19 43 -3 73 0 80 7 8 8 19 4 41 -17 17 -15 33 -28 35 -29z"/>
<path d="M6703 2280 c-12 -5 -24 -17 -26 -27 -15 -53 -17 -85 -7 -122 12 -44 28 -53 87 -49 32 3 33 4 33 51 l0 47 -35 0 c-19 0 -35 -4 -35 -10 0 -5 11 -10 25 -10 27 0 35 -26 13 -48 -34 -34 -68 -1 -68 68 0 23 5 50 10 61 14 25 46 24 62 -1 16 -25 28 -26 28 -1 0 33 -48 56 -87 41z"/>
<path d="M5511 2193 c-13 -49 -26 -94 -29 -100 -2 -7 3 -13 11 -13 9 0 18 13 22 31 6 27 10 30 38 27 24 -2 33 -9 37 -27 5 -23 30 -43 30 -24 0 7 -31 124 -46 176 -3 9 -13 17 -22 17 -13 0 -23 -21 -41 -87z m49 38 c0 -5 3 -23 6 -40 6 -27 4 -31 -15 -31 -23 0 -24 3 -15 49 6 28 24 45 24 22z"/>
<path d="M5800 2265 c0 -9 5 -15 11 -13 6 2 11 8 11 13 0 5 -5 11 -11 13 -6 2 -11 -4 -11 -13z"/>
<path d="M6100 2218 c0 -35 3 -80 6 -100 12 -70 24 -38 24 62 0 82 -3 100 -15 100 -12 0 -15 -14 -15 -62z"/>
<path d="M6550 2251 c0 -25 -3 -28 -27 -23 -34 6 -53 -19 -53 -71 0 -60 14 -77 60 -75 l40 1 0 99 c0 59 -4 98 -10 98 -5 0 -10 -13 -10 -29z m-12 -53 c14 -14 16 -67 3 -87 -25 -39 -63 29 -42 75 12 27 21 30 39 12z"/>
<path d="M7450 2180 l0 -100 50 0 c28 0 50 5 50 10 0 6 -18 10 -40 10 l-40 0 0 90 c0 53 -4 90 -10 90 -6 0 -10 -40 -10 -100z"/>
<path d="M8357 2274 c-8 -8 1 -24 14 -24 5 0 9 7 9 15 0 15 -12 20 -23 9z"/>
<path d="M5730 2250 c0 -20 -21 -26 -72 -22 -16 2 -18 -8 -18 -73 0 -60 3 -75 15 -75 12 0 15 13 15 59 0 44 4 60 16 65 37 14 43 7 46 -56 3 -57 5 -63 26 -66 25 -4 30 13 7 22 -11 4 -15 20 -15 56 0 38 4 50 15 50 8 0 15 5 15 10 0 6 -7 10 -15 10 -8 0 -15 9 -15 20 0 11 -4 20 -10 20 -5 0 -10 -9 -10 -20z"/>
<path d="M6290 2251 c0 -11 -6 -21 -12 -24 -10 -4 -10 -7 0 -18 6 -7 12 -37 12 -66 0 -39 4 -55 15 -60 9 -3 19 -2 23 2 4 4 1 10 -5 12 -8 3 -13 24 -13 58 0 33 5 56 13 59 10 5 10 7 0 12 -7 3 -13 14 -13 25 0 10 -4 19 -10 19 -5 0 -10 -9 -10 -19z"/>
<path d="M7240 2251 c0 -11 -6 -22 -12 -25 -10 -5 -10 -7 0 -12 7 -4 12 -27 12 -65 0 -45 4 -61 16 -66 8 -3 20 -1 27 6 8 8 7 11 -6 11 -14 0 -17 10 -17 54 0 34 5 57 13 60 10 5 10 7 0 12 -7 3 -13 14 -13 25 0 10 -4 19 -10 19 -5 0 -10 -9 -10 -19z"/>
<path d="M7310 2251 c0 -11 -6 -22 -12 -24 -10 -4 -10 -7 -1 -14 6 -5 13 -35 15 -68 3 -53 5 -60 26 -63 25 -4 30 13 7 22 -17 6 -21 86 -5 102 7 7 6 19 -2 37 -15 31 -28 35 -28 8z"/>
<path d="M8279 2248 c-2 -41 2 -133 7 -150 6 -19 44 -25 44 -8 0 6 -4 10 -10 10 -15 0 -13 107 3 114 10 5 10 7 0 12 -7 3 -13 14 -13 25 0 27 -30 24 -31 -3z"/>
<path d="M5800 2155 c0 -43 4 -75 10 -75 6 0 10 32 10 75 0 43 -4 75 -10 75 -6 0 -10 -32 -10 -75z"/>
<path d="M5866 2208 c-18 -26 -21 -80 -6 -109 15 -27 66 -26 80 2 15 27 2 39 -15 15 -29 -39 -65 16 -45 68 11 30 35 34 49 9 5 -10 13 -14 17 -10 13 13 -11 42 -39 45 -17 2 -30 -4 -41 -20z"/>
<path d="M5982 2158 l3 -73 43 -1 42 -2 0 74 c0 43 -4 74 -10 74 -5 0 -10 -24 -10 -53 0 -52 -12 -77 -37 -77 -9 0 -13 18 -13 65 0 38 -4 65 -10 65 -7 0 -10 -27 -8 -72z"/>
<path d="M6170 2215 c-17 -20 -5 -32 15 -15 15 12 45 8 45 -8 0 -4 -16 -16 -35 -25 -29 -14 -35 -22 -35 -47 0 -35 23 -49 51 -32 11 7 20 8 24 2 3 -6 10 -10 14 -10 11 0 1 123 -11 138 -14 17 -53 15 -68 -3z m50 -100 c-18 -22 -40 -18 -40 5 0 25 43 46 48 23 2 -8 -2 -20 -8 -28z"/>
<path d="M6366 2214 c-18 -18 -21 -85 -6 -115 15 -27 66 -26 80 2 15 26 3 40 -14 16 -16 -21 -42 -22 -50 -1 -9 24 2 34 40 34 39 0 45 20 18 58 -18 26 -46 28 -68 6z m52 -27 c3 -12 -4 -17 -22 -17 -28 0 -33 9 -14 28 15 15 32 10 36 -11z"/>
<path d="M6830 2210 c-9 -16 -8 -20 5 -20 8 0 15 5 15 10 0 6 9 10 20 10 33 0 23 -29 -16 -45 -31 -13 -35 -18 -32 -47 3 -32 5 -33 49 -34 l45 -1 -4 61 c-2 34 -5 67 -7 74 -7 20 -63 15 -75 -8z m58 -77 c-2 -20 -9 -28 -22 -28 -26 0 -31 19 -11 39 24 24 37 19 33 -11z"/>
<path d="M6949 2206 c-4 -73 0 -121 10 -124 7 -2 11 16 11 53 0 48 3 58 20 62 32 8 24 32 -10 31 -23 -1 -30 -6 -31 -22z"/>
<path d="M7030 2155 c0 -43 4 -75 10 -75 6 0 10 20 10 44 0 54 8 76 26 76 8 0 14 7 14 15 0 18 -12 19 -28 3 -9 -9 -12 -9 -12 0 0 7 -4 12 -10 12 -6 0 -10 -32 -10 -75z"/>
<path d="M7120 2215 c-17 -20 -5 -32 15 -15 16 13 45 7 45 -10 0 -5 -16 -16 -36 -25 -31 -13 -35 -18 -32 -47 3 -32 5 -33 49 -35 l45 -2 -4 62 c-2 34 -9 68 -14 75 -14 17 -53 15 -68 -3z m50 -84 c0 -11 -5 -23 -11 -27 -15 -9 -33 12 -26 30 9 23 37 20 37 -3z"/>
<path d="M7580 2214 c-8 -8 -13 -35 -13 -59 0 -52 16 -75 52 -75 39 0 51 18 51 75 0 28 -5 56 -12 63 -17 17 -63 15 -78 -4z m64 -20 c16 -42 3 -94 -24 -94 -20 0 -30 19 -30 59 0 44 41 70 54 35z"/>
<path d="M7710 2211 c-14 -27 -13 -104 2 -119 19 -19 56 -14 73 10 19 28 0 39 -19 12 -20 -27 -46 -11 -46 30 0 19 3 41 6 50 8 20 33 21 40 1 6 -14 34 -22 34 -9 0 22 -24 44 -50 44 -19 0 -33 -7 -40 -19z"/>
<path d="M7829 2213 c-8 -9 -14 -35 -14 -58 0 -23 6 -49 14 -58 19 -23 68 -22 81 2 15 30 12 97 -6 115 -20 21 -58 20 -75 -1z m59 -15 c30 -30 3 -108 -33 -94 -15 6 -22 86 -8 99 10 11 28 8 41 -5z"/>
<path d="M7950 2153 c0 -42 4 -73 10 -73 6 0 10 24 10 53 0 59 11 83 34 74 12 -5 16 -21 16 -67 0 -33 4 -60 10 -60 6 0 10 24 10 53 0 52 12 77 37 77 9 0 13 -18 13 -65 0 -52 3 -65 15 -65 13 0 15 12 13 66 -3 76 -21 99 -58 77 -12 -8 -21 -9 -25 -3 -3 5 -24 9 -46 8 l-39 -1 0 -74z"/>
<path d="M8160 2215 c-6 -8 -12 -35 -12 -60 0 -25 6 -52 12 -60 18 -22 67 -19 80 4 14 27 13 104 -2 119 -17 17 -63 15 -78 -3z m64 -21 c9 -22 7 -67 -3 -82 -5 -8 -17 -12 -27 -10 -21 3 -30 43 -20 84 7 27 40 33 50 8z"/>
<path d="M8358 2223 c-2 -5 -3 -17 -2 -28 0 -11 2 -41 3 -67 2 -79 21 -55 21 27 0 41 -4 75 -9 75 -6 0 -11 -3 -13 -7z"/>
<path d="M8400 2224 c0 -4 9 -38 20 -75 22 -73 43 -89 53 -41 4 15 13 49 21 75 11 35 12 47 3 44 -6 -2 -18 -27 -27 -57 l-15 -53 -18 56 c-10 32 -22 57 -28 57 -5 0 -9 -3 -9 -6z"/>
<path d="M8530 2211 c-15 -29 -12 -83 6 -109 19 -27 61 -27 78 0 14 23 -2 37 -18 15 -17 -22 -33 -22 -46 2 -15 29 -13 31 30 31 34 0 40 3 40 21 0 37 -19 59 -50 59 -19 0 -33 -7 -40 -19z m63 -15 c7 -18 -1 -26 -29 -26 -17 0 -21 4 -17 20 6 23 38 27 46 6z"/>
</g>
</svg>