<svg xmlns="http://www.w3.org/2000/svg" viewBox="952.30 525.30 437.70 242.60">
<g transform="translate(0.000000,768.000000) scale(0.100000,-0.100000)" fill="currentColor" stroke="none">
<path d="M10486 2338 c-11 -15 -16 -45 -16 -89 0 -62 2 -69 27 -89 18 -14 34 -19 48 -15 11 4 28 7 38 6 14 0 17 9 17 55 l0 54 -35 0 c-19 0 -35 -4 -35 -10 0 -5 11 -10 25 -10 19 0 25 -5 25 -23 0 -29 -18 -47 -47 -47 -27 0 -43 32 -43 85 0 56 16 85 46 85 17 0 28 -6 31 -20 6 -22 33 -28 33 -7 0 45 -87 64 -114 25z"/>
<path d="M10640 2255 c0 -87 3 -105 15 -105 11 0 15 12 15 45 0 44 0 45 34 45 40 0 59 20 58 61 -1 46 -18 59 -73 59 l-49 0 0 -105z m94 63 c16 -26 -4 -53 -40 -53 -23 0 -30 5 -32 23 -2 13 -1 30 2 38 8 20 56 14 70 -8z"/>
<path d="M10802 2348 c-12 -12 -17 -48 -6 -48 3 0 13 9 22 21 23 28 54 16 50 -19 -2 -18 -11 -28 -28 -33 l-25 -6 27 -13 c32 -15 45 -45 28 -65 -18 -22 -51 -18 -57 5 -6 22 -33 28 -33 7 0 -27 27 -50 60 -50 20 0 38 7 46 18 17 22 18 67 4 81 -8 8 -7 19 1 37 10 22 9 31 -5 52 -18 27 -63 34 -84 13z"/>
<path d="M10946 2344 c-18 -18 -21 -55 -5 -71 8 -8 6 -18 -6 -37 -15 -22 -16 -32 -7 -52 29 -63 112 -48 112 20 0 18 -7 39 -15 46 -13 11 -13 14 0 27 19 18 19 33 -1 61 -18 26 -56 29 -78 6z m62 -30 c2 -11 -4 -27 -14 -34 -14 -12 -18 -12 -30 4 -10 14 -10 24 -3 38 13 24 43 19 47 -8z m1 -86 c12 -31 -5 -60 -32 -56 -40 5 -30 78 10 78 7 0 17 -10 22 -22z"/>
<path d="M11177 2342 c-21 -23 -22 -52 -2 -52 8 0 15 9 15 20 0 25 25 36 45 20 24 -20 17 -50 -19 -84 -34 -32 -56 -66 -56 -85 0 -7 24 -11 60 -11 33 0 60 4 60 10 0 6 -20 10 -45 10 -25 0 -45 4 -45 9 0 5 18 27 40 50 42 43 54 93 28 119 -18 18 -63 14 -81 -6z"/>
<path d="M11070 2235 c0 -10 10 -15 30 -15 20 0 30 5 30 15 0 10 -10 15 -30 15 -20 0 -30 -5 -30 -15z"/>
<path d="M13156 1782 c-3 -5 -40 -8 -84 -7 -77 1 -78 0 -74 -23 3 -17 7 -20 13 -11 6 11 13 9 29 -9 24 -26 40 -28 40 -7 0 11 11 15 40 15 22 0 40 -4 40 -10 0 -5 7 -10 16 -10 11 0 14 8 12 32 -3 31 -21 48 -32 30z"/>
<path d="M10010 1740 l0 -30 144 0 c122 0 145 2 150 16 16 43 13 44 -144 44 l-150 0 0 -30z"/>
<path d="M10330 1740 l0 -30 150 0 150 0 0 30 0 30 -150 0 -150 0 0 -30z"/>
<path d="M10658 1765 c-3 -3 -3 -17 0 -30 l4 -25 144 0 144 0 0 30 0 30 -143 0 c-79 0 -146 -2 -149 -5z"/>
<path d="M11270 1745 l0 -25 155 0 155 0 0 25 0 25 -155 0 -155 0 0 -25z"/>
<path d="M11880 1744 c0 -8 -7 -14 -15 -14 -8 0 -15 -4 -15 -9 0 -6 38 -10 85 -10 47 0 85 4 85 10 0 5 -13 9 -29 9 -16 0 -31 4 -33 8 -1 5 -20 12 -40 15 -29 4 -38 2 -38 -9z"/>
<path d="M12072 1738 c-7 -7 -12 -16 -12 -20 0 -4 93 -8 208 -7 153 0 200 3 182 11 -14 5 -33 14 -42 19 -28 14 -322 11 -336 -3z"/>
<path d="M9854 1703 c-14 -24 -19 -830 -5 -847 7 -8 0 -10 -30 -8 l-39 4 0 -56 0 -55 73 -4 72 -3 -72 -2 -73 -2 0 -49 c0 -39 4 -51 18 -54 16 -4 16 -5 0 -6 -10 0 -18 -5 -18 -11 0 -6 35 -10 85 -10 l85 0 0 30 c0 17 -4 30 -10 30 -6 0 -10 37 -10 90 l0 90 -30 0 c-16 0 -30 5 -30 11 0 6 7 9 15 5 8 -3 22 -3 30 0 13 5 15 56 17 363 2 342 3 347 8 131 3 -124 7 -219 8 -212 1 9 38 12 142 12 126 0 140 2 141 18 0 14 2 14 8 -3 l8 -20 5 20 c5 16 6 16 7 3 1 -15 16 -17 146 -17 l144 0 4 117 3 117 2 -117 c2 -97 5 -118 17 -118 13 0 15 -26 14 -177 -1 -98 -4 -165 -6 -150 l-4 28 -129 -3 -130 -3 -3 150 -3 150 -2 -150 -2 -150 -130 3 -130 3 0 -25 0 -26 125 0 c93 0 125 3 125 13 0 9 2 9 9 -1 4 -8 11 -13 15 -13 3 1 44 1 90 1 78 0 84 -1 89 -22 5 -21 5 -21 -7 -5 -12 15 -38 17 -272 18 -142 1 -247 4 -231 6 21 3 27 10 27 29 0 20 -5 24 -30 24 l-30 0 0 -149 c0 -82 -3 -163 -6 -180 -6 -27 -10 -31 -38 -30 -30 2 -30 2 -3 6 25 4 27 8 27 49 l0 44 -81 0 -81 0 4 -49 c1 -27 0 -47 -4 -44 -5 2 -8 83 -8 179 l0 174 -25 0 -26 0 3 142 c3 127 5 143 21 146 15 3 17 -9 17 -137 0 -85 4 -142 10 -146 7 -4 10 42 8 142 l-3 148 -37 3 -38 3 0 -150 c0 -94 -4 -151 -10 -151 -5 0 -10 -7 -10 -15 0 -8 7 -15 15 -15 8 0 15 -6 15 -13 0 -7 11 -21 25 -31 28 -21 32 -56 13 -99 -13 -28 -48 -37 -48 -13 0 15 -48 25 -86 18 -22 -4 -24 -9 -24 -63 l0 -59 50 0 c36 0 52 5 59 18 6 11 13 14 20 7 6 -7 -2 -38 -24 -93 -25 -64 -29 -82 -18 -80 9 2 26 33 40 73 37 103 45 104 41 5 -2 -79 -1 -85 17 -85 16 0 21 8 23 38 l3 39 90 -4 89 -3 0 78 c0 57 6 91 21 127 l21 48 61 4 c34 2 267 5 517 7 l454 3 26 -29 c14 -15 22 -24 18 -19 -5 6 -8 29 -8 53 l0 43 -231 0 c-196 0 -234 -2 -243 -15 -9 -13 -11 -12 -11 7 0 23 1 23 132 20 l133 -3 0 25 0 26 -129 0 c-94 0 -131 -3 -134 -12 -3 -7 -6 60 -6 150 l-1 162 45 0 45 0 0 120 0 120 -134 0 -135 0 -4 -37 -4 -38 -1 38 -2 37 -74 0 -75 0 -4 -32 -4 -33 -1 32 -2 32 -147 4 c-82 1 88 3 377 3 289 0 456 -2 373 -3 l-153 -4 0 -120 0 -120 68 3 67 3 6 115 5 115 2 -116 2 -116 80 1 80 1 0 188 0 187 378 -2 c207 -1 320 -4 250 -5 l-128 -4 0 -56 c0 -31 -3 -53 -7 -50 -3 4 -5 29 -4 57 l1 50 -55 0 -55 0 0 -185 0 -185 55 0 55 0 2 78 2 77 5 -75 6 -75 62 -3 63 -4 3 184 2 183 3 -182 2 -183 61 0 61 0 -2 158 c-1 86 -2 172 -1 190 l1 32 124 0 c128 0 148 -7 125 -41 -8 -11 -9 -9 -7 6 3 18 -4 20 -55 23 l-57 3 2 -183 3 -183 52 -3 c47 -3 52 -1 56 20 l4 23 8 -23 8 -24 158 4 159 3 2 -180 3 -180 2 178 3 177 25 0 25 0 0 115 0 116 -57 -3 -58 -3 -6 -70 -6 -70 1 75 1 75 68 3 67 3 1 -113 c0 -62 0 -166 -1 -232 -1 -74 2 -116 8 -112 6 3 10 22 10 41 0 53 25 85 66 85 19 0 37 6 40 13 5 10 7 10 12 0 4 -10 65 -13 255 -13 l249 0 0 134 c0 98 -3 136 -12 139 -10 4 -10 6 0 6 9 1 12 29 12 106 l0 105 -250 0 -250 0 0 -86 c0 -111 -19 -103 -22 9 l-2 82 -6 -85 -6 -85 -2 88 c-1 52 2 87 8 87 6 0 10 30 10 70 l0 70 -360 2 -360 3 0 -77 c0 -47 4 -78 10 -78 6 0 42 16 80 35 39 19 70 33 70 30 0 -11 -142 -75 -167 -75 -19 0 -24 3 -15 9 9 5 12 29 10 82 l-3 73 -307 1 c-267 0 -308 -2 -308 -15 0 -11 -2 -12 -8 -2 -7 10 -136 12 -621 12 -337 0 -617 -2 -621 -5 -5 -3 -15 2 -23 10 -12 11 -17 12 -21 2 -5 -9 -7 -9 -12 1 -8 17 -17 15 -30 -5z m2594 -120 l-2 -108 -6 105 -6 105 -2 -107 -2 -108 -45 0 -45 0 -2 108 -2 107 -3 -107 c-3 -87 -7 -108 -18 -108 -12 0 -15 21 -17 108 l-2 107 -3 -107 c-3 -87 -7 -108 -18 -108 -12 0 -15 21 -17 108 l-2 107 -3 -108 -4 -108 -87 3 -87 3 -3 108 -3 107 191 0 190 0 -2 -107z m-1238 52 c0 -3 -4 -3 -10 0 -6 4 -10 -13 -10 -44 0 -42 -3 -51 -17 -50 -11 0 -13 3 -5 6 7 2 12 22 12 44 l0 39 -70 0 c-38 0 -70 -2 -70 -4 0 -3 25 -19 55 -36 30 -17 55 -34 55 -36 0 -6 -93 45 -123 68 -21 17 -19 18 66 18 72 0 87 3 87 16 0 14 2 14 15 0 8 -8 15 -17 15 -21z m30 5 c0 -5 -4 -10 -10 -10 -5 0 -10 5 -10 10 0 6 5 10 10 10 6 0 10 -4 10 -10z m70 0 c0 -5 -2 -10 -4 -10 -3 0 -8 5 -11 10 -3 6 -1 10 4 10 6 0 11 -4 11 -10z m60 2 c0 -5 -7 -9 -15 -9 -8 0 -15 4 -15 9 0 4 7 8 15 8 8 0 15 -4 15 -8z m279 -49 c0 -39 -3 -52 -8 -38 -5 11 -6 26 -4 33 3 6 -2 12 -11 12 -9 0 -16 4 -16 10 0 5 7 7 17 3 13 -5 15 -2 11 15 -4 12 -2 22 3 22 5 0 9 -26 8 -57z m-1571 40 c-21 -2 -55 -2 -75 0 -21 2 -4 4 37 4 41 0 58 -2 38 -4z m295 0 c-45 -2 -122 -2 -170 0 -48 1 -11 3 82 3 94 0 133 -2 88 -3z m300 0 c-35 -2 -91 -2 -125 0 -35 2 -7 3 62 3 69 0 97 -1 63 -3z m155 0 c-10 -2 -26 -2 -35 0 -10 3 -2 5 17 5 19 0 27 -2 18 -5z m130 -105 l-2 -113 -3 107 -4 107 -52 4 -52 3 58 2 57 2 -2 -112z m-981 -65 c-2 -32 -3 -8 -3 52 0 61 1 87 3 58 2 -29 2 -78 0 -110z m20 5 c-2 -29 -3 -6 -3 52 0 58 1 81 3 53 2 -29 2 -77 0 -105z m20 15 c-2 -27 -3 -5 -3 47 0 52 1 74 3 48 2 -27 2 -69 0 -95z m20 4 c-2 -23 -3 -1 -3 48 0 50 1 68 3 42 2 -26 2 -67 0 -90z m46 126 c-7 -2 -19 -2 -25 0 -7 3 -2 5 12 5 14 0 19 -2 13 -5z m24 -145 c-2 -29 -3 -6 -3 52 0 58 1 81 3 53 2 -29 2 -77 0 -105z m20 0 c-2 -29 -3 -6 -3 52 0 58 1 81 3 53 2 -29 2 -77 0 -105z m20 0 c-2 -29 -3 -6 -3 52 0 58 1 81 3 53 2 -29 2 -77 0 -105z m20 0 c-2 -29 -3 -6 -3 52 0 58 1 81 3 53 2 -29 2 -77 0 -105z m70 45 c-2 -21 -4 -4 -4 37 0 41 2 58 4 38 2 -21 2 -55 0 -75z m20 -45 c-2 -29 -3 -6 -3 52 0 58 1 81 3 53 2 -29 2 -77 0 -105z m20 0 c-2 -29 -3 -6 -3 52 0 58 1 81 3 53 2 -29 2 -77 0 -105z m20 0 c-2 -29 -3 -6 -3 52 0 58 1 81 3 53 2 -29 2 -77 0 -105z m20 130 c-3 -8 -6 -5 -6 6 -1 11 2 17 5 13 3 -3 4 -12 1 -19z m50 -130 c-2 -29 -3 -6 -3 52 0 58 1 81 3 53 2 -29 2 -77 0 -105z m20 0 c-2 -29 -3 -6 -3 52 0 58 1 81 3 53 2 -29 2 -77 0 -105z m33 57 l6 100 2 -102 c2 -86 -1 -103 -13 -103 -12 0 -15 17 -13 103 l2 102 5 -100 5 -100 6 100z m40 -5 c0 -55 -4 -100 -9 -100 -5 0 -8 45 -7 100 0 55 4 100 9 100 4 0 7 -45 7 -100z m37 -57 c-2 -32 -3 -8 -3 52 0 61 1 87 3 58 2 -29 2 -78 0 -110z m20 5 c-2 -29 -3 -6 -3 52 0 58 1 81 3 53 2 -29 2 -77 0 -105z m40 0 c-2 -29 -3 -6 -3 52 0 58 1 81 3 53 2 -29 2 -77 0 -105z m40 0 c-2 -29 -3 -6 -3 52 0 58 1 81 3 53 2 -29 2 -77 0 -105z m20 0 c-2 -29 -3 -6 -3 52 0 58 1 81 3 53 2 -29 2 -77 0 -105z m20 0 c-2 -29 -3 -6 -3 52 0 58 1 81 3 53 2 -29 2 -77 0 -105z m20 0 c-2 -29 -3 -6 -3 52 0 58 1 81 3 53 2 -29 2 -77 0 -105z m73 52 l0 -100 -32 1 c-31 2 -31 2 -5 6 l27 4 0 95 c0 52 2 94 5 94 3 0 5 -45 5 -100z m17 -52 c-2 -29 -3 -6 -3 52 0 58 1 81 3 53 2 -29 2 -77 0 -105z m20 0 c-2 -29 -3 -6 -3 52 0 58 1 81 3 53 2 -29 2 -77 0 -105z m20 0 c-2 -29 -3 -6 -3 52 0 58 1 81 3 53 2 -29 2 -77 0 -105z m46 145 c-7 -2 -19 -2 -25 0 -7 3 -2 5 12 5 14 0 19 -2 13 -5z m24 -60 c-2 -16 -4 -5 -4 22 0 28 2 40 4 28 2 -13 2 -35 0 -50z m20 -85 c-2 -29 -3 -6 -3 52 0 58 1 81 3 53 2 -29 2 -77 0 -105z m20 40 c-2 -24 -4 -7 -4 37 0 44 2 63 4 43 2 -21 2 -57 0 -80z m20 -40 c-2 -29 -3 -6 -3 52 0 58 1 81 3 53 2 -29 2 -77 0 -105z m323 142 c0 -5 -2 -10 -4 -10 -3 0 -8 5 -11 10 -3 6 -1 10 4 10 6 0 11 -4 11 -10z m107 -42 c-3 -8 -6 -5 -6 6 -1 11 2 17 5 13 3 -3 4 -12 1 -19z m-540 -55 c-2 -16 -4 -5 -4 22 0 28 2 40 4 28 2 -13 2 -35 0 -50z m-230 -25 c-3 -7 -5 -2 -5 12 0 14 2 19 5 13 2 -7 2 -19 0 -25z m2369 -21 l1 -37 -4 36 -4 36 -129 -4 c-70 -2 -126 1 -123 5 2 4 62 6 131 5 l127 -3 1 -38z m-144 11 c3 -12 3 -44 -1 -146 -1 -33 -1 -33 -48 -30 l-48 3 -3 93 -3 92 50 0 c30 0 50 -5 53 -12z m126 -80 l-3 -93 -52 -3 -53 -3 0 95 0 96 55 0 56 0 -3 -92z m-2121 35 c-3 -10 -5 -4 -5 12 0 17 2 24 5 18 2 -7 2 -21 0 -30z m1218 -98 c1 -69 -2 -125 -6 -125 -4 0 -8 59 -8 132 -1 72 1 129 5 125 4 -3 7 -63 9 -132z m662 18 c-2 -21 -4 -6 -4 32 0 39 2 55 4 38 2 -18 2 -50 0 -70z m260 35 c-3 -8 -6 -5 -6 6 -1 11 2 17 5 13 3 -3 4 -12 1 -19z m-387 -34 c0 -8 6 -14 13 -15 10 0 10 -2 0 -6 -7 -2 -13 -16 -13 -29 0 -13 -4 -24 -8 -24 -5 0 -8 10 -8 21 2 49 -25 27 -64 -51 -23 -45 -43 -80 -46 -77 -8 7 76 156 94 166 13 7 14 12 3 24 -10 13 -9 15 8 10 12 -3 21 -12 21 -19z m-1595 5 c11 -16 1 -19 -13 -3 -7 8 -8 14 -3 14 5 0 13 -5 16 -11z m572 -21 c-3 -8 -6 -5 -6 6 -1 11 2 17 5 13 3 -3 4 -12 1 -19z m1409 -44 c-4 -11 -32 -14 -130 -14 -69 0 -127 3 -129 8 -3 4 53 6 124 4 l129 -4 1 39 c2 31 3 33 6 10 3 -16 2 -35 -1 -43z m-2271 46 c-3 -5 -12 -10 -18 -10 -7 0 -6 4 3 10 19 12 23 12 15 0z m-438 -107 c-2 -21 -4 -6 -4 32 0 39 2 55 4 38 2 -18 2 -50 0 -70z m1303 2 c0 -8 -3 -16 -7 -18 -5 -3 -8 5 -8 18 0 13 3 21 8 18 4 -2 7 -10 7 -18z m1017 -60 c1 -47 -2 -85 -8 -85 -10 0 -13 129 -3 154 3 9 7 16 8 16 0 0 2 -38 3 -85z m-2140 -7 c-3 -8 -6 -5 -6 6 -1 11 2 17 5 13 3 -3 4 -12 1 -19z m168 -416 c-3 -3 -11 0 -18 7 -9 10 -8 11 6 5 10 -3 15 -9 12 -12z m-738 -128 c-3 -3 -12 -4 -19 -1 -8 3 -5 6 6 6 11 1 17 -2 13 -5z m81 -1 c-10 -2 -28 -2 -40 0 -13 2 -5 4 17 4 22 1 32 -1 23 -4z"/>
<path d="M12080 1580 c0 -129 19 -135 22 -7 l2 92 6 -95 6 -95 2 103 c2 96 1 102 -18 102 -19 0 -20 -7 -20 -100z"/>
<path d="M12134 1580 c0 -58 1 -81 3 -52 2 28 2 76 0 105 -2 28 -3 5 -3 -53z"/>
<path d="M12154 1580 c0 -58 1 -81 3 -52 2 28 2 76 0 105 -2 28 -3 5 -3 -53z"/>
<path d="M12174 1580 c0 -58 1 -81 3 -52 2 28 2 76 0 105 -2 28 -3 5 -3 -53z"/>
<path d="M12194 1580 c0 -58 1 -81 3 -52 2 28 2 76 0 105 -2 28 -3 5 -3 -53z"/>
<path d="M12214 1580 c0 -58 1 -81 3 -52 2 28 2 76 0 105 -2 28 -3 5 -3 -53z"/>
<path d="M12234 1580 c0 -58 1 -81 3 -52 2 28 2 76 0 105 -2 28 -3 5 -3 -53z"/>
<path d="M12274 1580 c0 -58 1 -81 3 -52 2 28 2 76 0 105 -2 28 -3 5 -3 -53z"/>
<path d="M12314 1580 c0 -58 1 -81 3 -52 2 28 2 76 0 105 -2 28 -3 5 -3 -53z"/>
<path d="M12354 1580 c0 -58 1 -81 3 -52 2 28 2 76 0 105 -2 28 -3 5 -3 -53z"/>
<path d="M12374 1580 c0 -58 1 -81 3 -52 2 28 2 76 0 105 -2 28 -3 5 -3 -53z"/>
<path d="M12394 1580 c0 -58 1 -81 3 -52 2 28 2 76 0 105 -2 28 -3 5 -3 -53z"/>
<path d="M12414 1580 c0 -58 1 -81 3 -52 2 28 2 76 0 105 -2 28 -3 5 -3 -53z"/>
<path d="M12550 1630 l0 -70 255 0 255 0 1 68 c1 37 4 57 6 45 3 -16 11 -23 29 -23 13 0 24 -4 24 -9 0 -5 -8 -8 -17 -7 -14 1 -19 -8 -21 -36 l-3 -38 40 0 c27 0 41 5 44 15 4 11 4 10 3 -2 -1 -14 -12 -19 -49 -21 l-47 -3 0 -105 0 -104 195 0 c179 0 195 -1 196 -17 0 -15 2 -15 9 2 10 24 12 15 10 -52 -1 -32 3 -53 9 -53 6 0 11 -12 10 -27 l-1 -28 -8 25 c-4 14 -8 -84 -8 -220 1 -135 4 -225 8 -200 5 30 8 37 10 20 2 -18 4 -20 7 -7 7 25 17 21 30 -13 10 -27 15 -30 57 -30 46 0 46 0 46 35 0 19 3 35 8 35 4 0 5 -35 2 -77 -2 -48 -6 -63 -8 -40 -3 37 -3 37 -48 37 -50 0 -50 0 -1 -62 16 -21 33 -38 39 -38 6 0 24 -11 40 -25 16 -14 34 -23 39 -19 5 3 19 -2 31 -10 12 -9 39 -16 60 -16 l38 0 0 60 c0 64 2 62 -60 62 -42 0 -50 -2 -50 -17 0 -19 -27 -19 -46 0 -10 10 -14 30 -12 62 3 41 7 50 31 61 15 7 27 20 27 28 0 7 7 14 15 14 8 0 15 5 15 10 0 6 -7 10 -15 10 -13 0 -15 23 -15 150 l0 150 -40 0 -40 0 0 -145 c0 -90 4 -145 10 -145 6 0 10 53 10 140 0 132 1 140 19 140 19 0 20 -9 23 -145 l3 -145 -27 0 c-18 0 -28 -5 -28 -15 0 -8 -4 -15 -10 -15 -5 0 -10 7 -10 15 0 12 -14 15 -69 15 -58 0 -70 -3 -74 -17 -3 -10 -4 16 -4 57 1 57 2 62 4 23 l4 -53 45 0 44 0 0 50 0 50 -34 0 c-22 0 -36 -5 -39 -15 -4 -11 -4 -10 -3 2 1 13 11 19 39 21 l37 3 0 199 c0 214 1 210 -56 210 -15 0 -24 6 -24 15 0 9 -9 15 -25 15 -14 0 -25 -4 -25 -10 0 -5 6 -10 14 -10 10 0 12 -7 8 -22 -5 -19 -7 -20 -10 -5 -4 20 11 19 -192 19 -90 0 -170 3 -177 5 -9 4 -13 28 -13 74 l0 69 38 0 c40 0 72 25 72 57 0 9 -3 14 -6 10 -4 -3 -12 0 -19 7 -10 9 -11 24 -5 49 4 20 5 38 2 41 -3 4 -144 6 -314 6 l-308 0 0 -70z m610 10 c0 -5 -4 -10 -10 -10 -5 0 -10 5 -10 10 0 6 5 10 10 10 6 0 10 -4 10 -10z m365 -340 c3 -5 1 -10 -4 -10 -6 0 -11 5 -11 10 0 6 2 10 4 10 3 0 8 -4 11 -10z m12 -26 c-3 -3 -12 -4 -19 -1 -8 3 -5 6 6 6 11 1 17 -2 13 -5z m-20 -236 c-3 -8 -6 -5 -6 6 -1 11 2 17 5 13 3 -3 4 -12 1 -19z m-20 -20 c-3 -8 -6 -5 -6 6 -1 11 2 17 5 13 3 -3 4 -12 1 -19z m26 -133 c-7 -21 -13 -19 -13 6 0 11 4 18 10 14 5 -3 7 -12 3 -20z m57 7 c0 -5 -7 -9 -15 -9 -8 0 -15 4 -15 9 0 4 7 8 15 8 8 0 15 -4 15 -8z"/>
<path d="M13180 1641 c0 -11 5 -23 10 -26 6 -3 10 3 10 14 0 11 -4 23 -10 26 -5 3 -10 -3 -10 -14z"/>
<path d="M9814 1566 c-8 -22 -1 -59 14 -64 8 -2 12 9 12 37 0 40 -15 55 -26 27z"/>
<path d="M11020 1334 l0 -185 53 3 52 3 5 180 5 180 5 -180 5 -180 55 0 55 0 1 173 c1 95 4 175 8 179 3 3 6 -75 6 -175 l0 -182 55 0 55 0 0 185 0 185 -180 0 -180 0 0 -186z m98 148 c2 -7 -5 -12 -15 -11 -12 0 -14 2 -4 6 11 5 11 7 0 15 -12 8 -12 9 0 6 8 -3 17 -10 19 -16z"/>
<path d="M11780 1335 l0 -185 55 0 55 0 0 185 0 185 -55 0 -55 0 0 -185z"/>
<path d="M13070 1195 l0 -135 145 0 145 0 0 135 0 135 -145 0 -145 0 0 -135z m148 38 c-16 -2 -40 -2 -55 0 -16 2 -3 4 27 4 30 0 43 -2 28 -4z m132 -47 c0 -2 -7 -7 -16 -10 -8 -3 -12 -2 -9 4 6 10 25 14 25 6z"/>
<path d="M13374 1195 c0 -77 2 -107 3 -67 2 40 2 103 0 140 -2 37 -3 4 -3 -73z"/>
<path d="M13390 1198 c1 -101 4 -138 15 -152 10 -14 15 -45 15 -103 0 -82 0 -83 26 -83 l25 0 -2 217 c-1 141 -5 223 -13 235 -6 10 -23 18 -38 18 l-28 0 0 -132z"/>
<path d="M9953 1125 c-10 -11 -12 -70 -11 -237 2 -223 2 -223 8 -73 3 83 7 126 8 98 2 -52 3 -53 32 -53 l30 0 0 140 0 140 -27 0 c-16 -1 -34 -7 -40 -15z"/>
<path d="M10034 1000 c0 -80 2 -112 3 -72 2 39 2 105 0 145 -1 39 -3 7 -3 -73z"/>
<path d="M10050 1036 l0 -104 88 3 c48 2 93 3 100 4 9 1 12 28 10 104 -1 87 -2 94 -8 47 l-7 -55 -1 53 -2 52 -90 0 -90 0 0 -104z m187 -63 c-3 -10 -5 -2 -5 17 0 19 2 27 5 18 2 -10 2 -26 0 -35z m-20 11 c-3 -3 -12 -4 -19 -1 -8 3 -5 6 6 6 11 1 17 -2 13 -5z"/>
<path d="M10262 1031 c2 -60 1 -109 -2 -109 -3 0 -51 0 -107 -1 l-103 -1 0 -30 0 -30 125 0 125 0 0 29 c0 16 -6 32 -12 35 -10 5 -10 7 0 12 8 4 12 35 12 105 0 93 -1 99 -21 99 -19 0 -20 -5 -17 -109z"/>
<path d="M10330 1040 c0 -60 4 -100 10 -100 6 0 10 -5 10 -11 0 -5 -4 -7 -10 -4 -6 4 -10 -8 -10 -29 l0 -36 125 0 125 0 0 30 0 30 -77 2 c-43 1 -93 1 -110 1 -18 0 -30 3 -27 8 3 5 14 9 25 9 17 0 19 8 21 98 l2 97 5 -100 6 -100 78 0 77 0 0 102 c0 132 -18 136 -23 6 l-3 -98 -2 98 -2 97 -74 0 -75 0 -4 -52 -3 -53 -2 53 c-2 51 -3 52 -32 52 l-30 0 0 -100z m67 -77 c-3 -10 -5 -2 -5 17 0 19 2 27 5 18 2 -10 2 -26 0 -35z"/>
<path d="M10612 1038 l3 -103 35 0 35 0 3 103 3 102 -41 0 -41 0 3 -102z m65 -63 c0 -8 -4 -15 -9 -15 -4 0 -8 7 -8 15 0 8 4 15 8 15 5 0 9 -7 9 -15z"/>
<path d="M10702 1038 l3 -103 83 -3 82 -3 0 105 c0 115 -17 147 -23 44 l-3 -63 -2 63 -2 62 -70 0 -71 0 3 -102z m145 -50 c-3 -8 -6 -5 -6 6 -1 11 2 17 5 13 3 -3 4 -12 1 -19z m8 -28 c3 -5 1 -10 -4 -10 -6 0 -11 5 -11 10 0 6 2 10 4 10 3 0 8 -4 11 -10z"/>
<path d="M10884 1000 c0 -80 2 -112 3 -72 2 39 2 105 0 145 -1 39 -3 7 -3 -73z"/>
<path d="M10900 1035 l0 -105 35 0 c23 0 38 6 41 15 6 14 8 13 20 -2 11 -16 13 -3 14 90 0 60 -4 107 -9 107 -6 0 -12 -15 -14 -32 l-4 -33 -1 33 c-2 30 -4 32 -42 32 l-40 0 0 -105z"/>
<path d="M11020 1041 l0 -99 70 -4 70 -3 0 103 c0 131 -18 135 -23 5 l-3 -98 -2 98 -2 97 -55 0 -55 0 0 -99z"/>
<path d="M11174 1000 c0 -80 2 -112 3 -72 2 39 2 105 0 145 -1 39 -3 7 -3 -73z"/>
<path d="M11190 1036 c0 -113 -5 -105 56 -97 6 1 11 40 12 101 l2 100 -35 0 -35 0 0 -104z"/>
<path d="M11272 1038 l3 -103 53 -3 52 -4 0 106 0 106 -55 0 -56 0 3 -102z"/>
<path d="M11390 1040 c0 -73 3 -100 13 -102 35 -4 43 -2 49 12 5 11 7 9 7 -7 1 -22 -2 -23 -96 -22 -185 1 -173 3 -173 -31 l0 -30 130 0 130 0 1 28 1 27 8 -30 c4 -18 7 30 7 115 0 117 -2 130 -7 70 l-6 -75 -2 73 -2 72 -30 0 -30 0 0 -100z"/>
<path d="M11481 1000 l0 -140 135 0 134 0 0 30 c0 17 -5 30 -12 31 -7 0 -55 1 -105 1 -51 1 -93 5 -93 10 0 4 23 8 50 8 l50 0 0 100 0 100 -65 0 -65 0 0 -99 c0 -70 4 -101 13 -104 6 -2 9 -8 5 -12 -19 -21 -28 14 -28 111 0 63 -4 104 -10 104 -6 0 -10 -52 -9 -140z m59 20 c0 -5 -5 -10 -11 -10 -5 0 -7 5 -4 10 3 6 8 10 11 10 2 0 4 -4 4 -10z"/>
<path d="M11650 1041 l0 -99 50 -4 50 -3 0 103 0 102 -50 0 -50 0 0 -99z"/>
<path d="M11762 998 l-2 -148 -140 0 c-133 0 -140 -1 -140 -20 0 -20 7 -20 285 -20 278 0 285 0 285 20 0 19 -7 20 -140 20 l-139 0 -4 148 -3 147 -2 -147z"/>
<path d="M11781 1040 c0 -55 5 -100 10 -101 5 -1 18 -1 29 -1 76 0 70 -9 70 102 l0 100 -55 0 -55 0 1 -100z"/>
<path d="M11900 1040 l0 -100 50 0 c28 0 53 -1 58 -2 4 -2 8 43 9 100 l1 102 -59 0 -59 0 0 -100z"/>
<path d="M12030 1035 c0 -58 4 -105 9 -105 15 0 23 38 17 78 -3 20 -7 58 -8 85 -1 26 -5 47 -10 47 -4 0 -8 -47 -8 -105z"/>
<path d="M12065 1043 c0 -54 5 -101 10 -105 6 -4 54 -8 108 -8 l97 0 0 105 0 105 -107 0 -108 0 0 -97z"/>
<path d="M12292 1038 c3 -98 4 -103 26 -106 22 -3 22 -2 22 102 l0 106 -25 0 -26 0 3 -102z"/>
<path d="M12370 1035 c0 -98 1 -105 20 -105 19 0 20 7 20 105 0 98 -1 105 -20 105 -19 0 -20 -7 -20 -105z"/>
<path d="M12460 1031 c-5 -11 -10 -54 -10 -95 l0 -76 80 1 c44 0 80 5 80 11 0 5 -4 6 -10 3 -5 -3 -10 -2 -10 4 0 6 85 10 230 11 137 0 230 -3 230 -9 0 -5 -9 -7 -20 -4 -11 3 -20 1 -20 -4 0 -5 11 -10 25 -11 l25 -2 0 95 0 95 -250 0 -249 0 -4 -82 -3 -83 -2 83 -2 82 -40 0 c-29 0 -42 -5 -50 -19z m580 -5 c0 -3 -4 -8 -10 -11 -5 -3 -10 -1 -10 4 0 6 5 11 10 11 6 0 10 -2 10 -4z m0 -36 c0 -5 -4 -10 -10 -10 -5 0 -10 5 -10 10 0 6 5 10 10 10 6 0 10 -4 10 -10z"/>
<path d="M13070 955 l0 -95 170 0 170 0 0 73 c0 85 -7 117 -26 117 -9 0 -13 -12 -12 -35 1 -19 -2 -38 -5 -42 -4 -3 -7 12 -7 35 l0 42 -145 0 -145 0 0 -95z"/>
<path d="M11818 922 c-35 -3 -38 -6 -38 -33 l0 -29 135 0 135 0 0 30 c0 17 -5 30 -12 30 -112 4 -190 4 -220 2z"/>
<path d="M12061 898 l-1 -36 140 -1 140 -2 0 31 0 30 -130 0 c-117 0 -130 -2 -131 -17 -1 -12 -4 -10 -9 7 -7 23 -8 21 -9 -12z"/>
<path d="M12393 922 c-18 -3 -23 -10 -23 -33 0 -27 3 -29 35 -29 32 0 35 3 35 29 0 31 -12 39 -47 33z"/>
<path d="M10610 890 l0 -30 130 0 130 0 0 30 0 30 -130 0 -130 0 0 -30z"/>
<path d="M10900 890 l0 -30 130 0 130 0 0 30 0 30 -130 0 -130 0 0 -30z"/>
<path d="M12620 870 c0 -6 35 -10 85 -10 50 0 85 4 85 10 0 6 -35 10 -85 10 -50 0 -85 -4 -85 -10z"/>
<path d="M12820 870 c0 -6 37 -10 90 -10 53 0 90 4 90 10 0 6 -37 10 -90 10 -53 0 -90 -4 -90 -10z"/>
<path d="M10032 825 c0 -16 2 -22 5 -12 2 9 2 23 0 30 -3 6 -5 -1 -5 -18z"/>
<path d="M10882 825 c0 -16 2 -22 5 -12 2 9 2 23 0 30 -3 6 -5 -1 -5 -18z"/>
<path d="M10900 825 c0 -23 4 -25 48 -25 118 0 211 13 215 29 4 12 5 11 6 -4 1 -17 3 -18 11 -5 6 10 10 11 10 3 0 -10 35 -13 140 -13 133 0 140 1 140 20 0 19 -7 20 -285 20 l-285 0 0 -25z"/>
<path d="M12062 830 c0 -14 2 -19 5 -12 2 6 2 18 0 25 -3 6 -5 1 -5 -13z"/>
<path d="M12080 830 c0 -23 15 -27 24 -5 3 8 13 15 23 15 15 0 15 -2 -3 -14 -17 -13 -6 -15 99 -18 116 -3 117 -3 117 20 0 22 -2 22 -130 22 -123 0 -130 -1 -130 -20z"/>
<path d="M12370 825 l0 -25 224 0 c195 0 225 -2 230 -16 10 -26 6 -30 -8 -11 -13 17 -59 19 -868 24 l-854 6 5 -49 c6 -48 7 -49 44 -52 24 -2 37 -8 37 -18 0 -12 58 -14 394 -14 l395 0 4 33 c2 18 4 8 4 -23 0 -30 -1 -47 -4 -37 -4 16 -32 17 -399 17 l-394 0 0 -115 0 -115 535 0 535 0 0 130 c0 99 3 130 13 128 6 -1 35 10 63 24 l51 27 239 -2 c131 0 190 -2 129 -4 -60 -2 -114 -8 -119 -13 -7 -7 -4 -10 6 -10 9 0 18 -7 22 -15 6 -17 56 -21 56 -4 0 6 -7 9 -15 5 -8 -3 -15 -1 -15 4 0 6 71 10 181 10 130 0 178 -3 173 -11 -3 -6 0 -15 7 -20 11 -7 11 -9 -2 -9 -9 0 -20 7 -23 16 -5 14 -26 15 -150 13 -79 -2 -142 -7 -140 -10 2 -4 -4 -10 -14 -14 -26 -11 -162 -22 -162 -13 0 5 23 8 50 8 28 0 50 4 50 9 0 15 -13 20 -58 23 -23 2 -42 6 -42 11 0 4 -20 7 -44 7 -34 0 -56 -8 -96 -35 -29 -19 -58 -35 -65 -35 -8 0 -16 -4 -19 -9 -10 -16 5 -41 24 -41 17 0 36 -27 26 -37 -8 -8 -27 8 -21 18 4 5 1 9 -4 9 -14 0 -14 -74 -1 -119 10 -37 65 -101 86 -101 7 0 15 -3 17 -7 4 -7 -478 -8 -1903 -3 -195 1 -336 5 -324 10 29 12 84 77 84 100 0 11 5 20 11 20 7 0 8 -7 4 -17 -21 -51 -20 -52 36 -50 34 1 54 7 57 16 3 10 -3 13 -26 9 -26 -4 -29 -2 -22 13 5 9 7 19 3 22 -3 4 0 13 7 22 7 8 10 28 8 45 -4 28 -3 30 29 30 32 0 33 -2 33 -37 0 -21 -4 -44 -9 -52 -13 -21 8 -70 33 -77 11 -2 57 -4 101 -2 l79 3 15 40 c8 22 19 42 23 43 4 2 9 22 10 45 1 41 1 41 5 7 3 -19 10 -38 16 -42 6 -4 12 -20 13 -36 1 -26 -1 -28 -24 -24 -18 4 -23 1 -20 -9 3 -9 24 -15 62 -17 l57 -3 -16 30 c-8 17 -23 31 -33 32 -14 0 -14 2 -2 6 8 3 18 10 21 16 4 5 10 -5 14 -23 4 -17 26 -52 49 -76 36 -37 49 -44 80 -44 50 0 111 35 139 80 17 27 22 50 21 103 0 37 4 67 8 67 16 0 8 41 -9 46 -47 14 -103 45 -103 56 0 9 -3 8 -10 -2 -6 -10 -10 -11 -10 -2 0 8 -16 12 -46 12 -27 0 -43 -4 -39 -10 4 -6 -13 -10 -43 -10 -35 0 -52 -4 -56 -15 -4 -12 4 -15 43 -15 27 0 52 5 54 10 3 6 4 5 3 -2 -2 -9 -24 -14 -65 -16 -62 -3 -62 -3 -50 20 7 13 19 29 28 36 13 10 -31 11 -232 9 -136 -2 -250 -7 -254 -10 -3 -4 -1 -7 6 -7 7 0 24 -9 38 -20 32 -25 17 -33 -58 -27 l-54 3 60 3 c57 2 59 2 35 16 -14 8 -42 14 -62 15 -21 0 -38 5 -38 10 0 7 -20 10 -50 9 -27 -2 -50 -7 -50 -11 0 -5 -29 -23 -65 -39 -63 -28 -76 -41 -55 -54 6 -3 10 -35 10 -71 0 -79 16 -114 72 -154 l41 -30 -275 0 -276 0 -4 -30 -5 -30 371 0 c1947 -2 3418 -2 3639 -1 l267 1 0 30 0 30 -155 0 c-136 0 -155 -2 -165 -17 -10 -17 -10 -17 -20 0 -9 14 -27 17 -117 17 l-106 0 33 23 c36 24 65 61 74 92 6 24 -30 54 -81 65 -34 8 -35 8 -29 -18 5 -22 4 -24 -4 -9 -17 27 -3 52 38 66 66 24 118 71 77 71 -8 0 -36 13 -64 29 -27 16 -52 27 -55 24 -3 -4 -6 -1 -6 5 0 7 -17 12 -45 12 -25 0 -45 -4 -45 -9 0 -4 -15 -7 -34 -6 -20 1 -44 -6 -58 -17 l-23 -18 50 -1 c45 -2 47 -3 11 -6 -55 -6 -70 1 -54 27 7 11 18 20 25 20 6 0 15 5 18 11 5 7 -34 9 -124 7 -102 -2 -130 0 -126 10 2 6 -3 12 -12 12 -28 0 -9 9 29 13 27 3 35 1 31 -9 -5 -14 105 -18 377 -14 l96 1 23 -41 c22 -40 24 -41 42 -24 16 14 19 31 19 96 l0 78 -550 0 -550 0 0 -25z m1030 -32 c-124 -6 -478 -8 -462 -1 9 4 130 6 267 5 138 0 225 -2 195 -4z m-1471 -10 c-4 -25 3 -42 19 -46 14 -4 14 -5 -3 -6 -11 -1 -29 -8 -39 -16 -17 -13 -72 -15 -340 -13 l-321 2 325 6 c179 3 330 8 336 12 6 4 10 21 8 38 -2 16 1 30 6 30 6 0 9 -3 9 -7z m265 -19 c8 -21 -1 -34 -24 -34 -22 0 -34 15 -26 35 7 20 42 19 50 -1z m1256 -28 c0 -3 -4 -8 -10 -11 -5 -3 -10 -1 -10 4 0 6 5 11 10 11 6 0 10 -2 10 -4z m-1440 -56 c0 -27 -3 -50 -7 -50 -5 0 -8 23 -8 50 0 28 3 50 8 50 4 0 7 -22 7 -50z m234 32 c3 -5 1 -22 -4 -38 l-8 -29 -1 34 -1 34 -100 -5 c-55 -3 -100 -1 -100 4 0 11 207 11 214 0z m-1811 -20 c-18 -2 -33 -7 -33 -13 0 -5 -4 -9 -10 -9 -5 0 -10 8 -10 18 0 15 7 17 43 13 39 -5 40 -6 10 -9z m93 11 c-12 -12 -58 -15 -51 -3 3 5 18 10 32 10 15 0 23 -3 19 -7z m51 1 c-3 -3 -12 -4 -19 -1 -8 3 -5 6 6 6 11 1 17 -2 13 -5z m73 2 c0 -8 -51 -13 -56 -5 -3 5 9 9 25 9 17 0 31 -2 31 -4z m79 -23 c17 -18 -6 -17 -39 2 l-25 14 26 -1 c14 -1 31 -8 38 -15z m2548 -30 c-3 -10 -5 -4 -5 12 0 17 2 24 5 18 2 -7 2 -21 0 -30z m-2627 15 c0 -6 -3 -8 -7 -5 -3 4 -15 0 -25 -10 -22 -20 -24 -11 -2 11 18 19 34 21 34 4z m2150 4 c0 -5 -6 -9 -12 -9 -7 0 -22 -4 -33 -8 -20 -7 -20 -6 -1 9 21 17 46 21 46 8z m166 -4 c4 -6 3 -8 -4 -4 -6 3 -13 2 -16 -3 -4 -5 -2 -12 3 -16 6 -3 10 -31 9 -63 -1 -31 -4 -47 -6 -34 -3 21 -8 22 -88 22 l-84 0 2 38 c1 36 1 36 5 5 l4 -33 80 0 79 0 0 29 c0 20 -6 31 -17 33 -15 3 -15 4 1 21 21 20 23 21 32 5z m-2476 -6 c0 -4 -9 -8 -20 -8 -11 0 -20 4 -20 8 0 4 9 8 20 8 11 0 20 -4 20 -8z m199 -31 c-2 -6 -10 2 -17 17 -11 25 -11 25 4 10 9 -9 15 -21 13 -27z m1469 32 c-27 -2 -69 -2 -95 0 -27 2 -5 3 47 3 52 0 74 -1 48 -3z m-1501 -35 c-3 -8 -6 -5 -6 6 -1 11 2 17 5 13 3 -3 4 -12 1 -19z m-180 -10 c-3 -8 -6 -5 -6 6 -1 11 2 17 5 13 3 -3 4 -12 1 -19z m160 0 c-3 -8 -6 -5 -6 6 -1 11 2 17 5 13 3 -3 4 -12 1 -19z m1267 13 c3 -5 -2 -8 -12 -7 -11 1 -17 -6 -17 -19 0 -13 6 -20 17 -19 10 1 15 -2 12 -7 -9 -15 -31 -10 -38 7 -13 35 20 74 38 45z m846 -5 c0 -11 -19 -15 -25 -6 -3 5 1 10 9 10 9 0 16 -2 16 -4z m260 -6 c0 -5 -2 -10 -4 -10 -3 0 -8 5 -11 10 -3 6 -1 10 4 10 6 0 11 -4 11 -10z m-2843 -16 c-3 -3 -12 -4 -19 -1 -8 3 -5 6 6 6 11 1 17 -2 13 -5z m50 0 c-3 -3 -12 -4 -19 -1 -8 3 -5 6 6 6 11 1 17 -2 13 -5z m770 0 c-3 -3 -12 -4 -19 -1 -8 3 -5 6 6 6 11 1 17 -2 13 -5z m1250 -16 c-3 -8 -6 -5 -6 6 -1 11 2 17 5 13 3 -3 4 -12 1 -19z m193 18 c0 -2 -7 -7 -16 -10 -8 -3 -12 -2 -9 4 6 10 25 14 25 6z m103 -3 c-13 -2 -35 -2 -50 0 -16 2 -5 4 22 4 28 0 40 -2 28 -4z m767 0 c0 -5 -27 -8 -59 -9 -33 0 -58 3 -55 8 6 10 114 11 114 1z m-3219 -35 c5 1 9 -2 9 -8 0 -5 -4 -10 -9 -10 -6 0 -13 5 -16 10 -13 21 -25 9 -26 -27 -2 -33 -3 -34 -6 -9 -3 15 -2 40 2 55 6 25 7 26 22 6 8 -11 19 -19 24 -17z m557 -20 c-1 -44 -2 -46 -5 -15 l-4 37 -82 2 -82 2 83 3 c45 2 82 8 82 13 0 6 2 10 5 10 3 0 4 -24 3 -52z m424 30 c-7 -7 -12 -8 -12 -2 0 14 12 26 19 19 2 -3 -1 -11 -7 -17z m-872 2 c0 -5 -5 -10 -11 -10 -5 0 -7 5 -4 10 3 6 8 10 11 10 2 0 4 -4 4 -10z m2260 0 c0 -5 -7 -10 -16 -10 -8 0 -12 5 -9 10 3 6 10 10 16 10 5 0 9 -4 9 -10z m90 1 c0 -5 -9 -7 -20 -4 -11 3 -20 7 -20 9 0 2 9 4 20 4 11 0 20 -4 20 -9z m-1857 -8 c-7 -2 -19 -2 -25 0 -7 3 -2 5 12 5 14 0 19 -2 13 -5z m135 -17 c7 -4 12 -12 12 -17 0 -6 -7 -3 -16 5 -9 9 -32 16 -55 16 -21 0 -39 4 -39 8 0 10 79 0 98 -12z m70 4 c-7 -10 -14 -18 -15 -16 -6 6 9 36 18 36 5 0 4 -9 -3 -20z m1875 13 c-7 -2 -19 -2 -25 0 -7 3 -2 5 12 5 14 0 19 -2 13 -5z m346 -9 c2 -2 -14 -4 -37 -4 -37 0 -42 -3 -42 -23 0 -13 5 -28 12 -35 6 -6 12 -22 12 -34 1 -17 -4 -23 -19 -23 -11 0 -22 -4 -25 -10 -3 -6 17 -11 48 -13 55 -3 61 3 41 40 -8 15 -8 23 2 32 9 8 10 8 5 -2 -11 -18 38 -88 77 -112 l32 -20 -345 0 c-339 0 -344 0 -315 18 38 24 55 44 64 79 4 17 15 29 27 31 18 3 18 2 1 -8 -15 -9 -16 -14 -6 -26 7 -8 8 -14 3 -12 -5 2 -10 -2 -11 -7 -2 -6 19 -10 47 -10 36 -1 50 3 50 13 0 10 -8 13 -24 10 -16 -3 -23 -1 -19 8 2 6 0 15 -6 18 -6 4 -2 15 10 27 14 14 19 29 16 45 -2 13 0 24 4 24 5 0 9 -16 9 -35 0 -24 5 -35 15 -35 9 0 15 -9 15 -23 0 -12 7 -33 16 -45 14 -20 24 -22 103 -22 95 0 104 4 117 54 5 21 4 27 -5 22 -8 -5 -11 8 -11 43 l0 50 68 -6 c37 -3 69 -7 71 -9z m130 13 c-2 -1 -15 -11 -28 -22 l-24 -20 12 23 c6 12 19 22 28 22 9 0 14 -1 12 -3z m-2899 -14 c-14 -3 -33 -12 -42 -20 -22 -20 -24 -10 -2 11 8 9 27 15 42 15 l27 -2 -25 -4z m1897 -15 c-3 -8 -6 -5 -6 6 -1 11 2 17 5 13 3 -3 4 -12 1 -19z m441 15 c-10 -2 -26 -2 -35 0 -10 3 -2 5 17 5 19 0 27 -2 18 -5z m-2408 -8 c0 -7 -30 -13 -34 -7 -3 4 4 9 15 9 10 1 19 0 19 -2z m300 1 c0 -3 -4 -8 -10 -11 -5 -3 -10 -1 -10 4 0 6 5 11 10 11 6 0 10 -2 10 -4z m1940 0 c0 -11 -19 -15 -25 -6 -3 5 1 10 9 10 9 0 16 -2 16 -4z m257 -48 c-2 -13 -4 -5 -4 17 -1 22 1 32 4 23 2 -10 2 -28 0 -40z m373 17 c0 -5 -5 -3 -10 5 -5 8 -10 20 -10 25 0 6 5 3 10 -5 5 -8 10 -19 10 -25z m101 12 c-10 -9 -11 -8 -5 6 3 10 9 15 12 12 3 -3 0 -11 -7 -18z m-3097 -2 c-4 -8 -8 -15 -10 -15 -2 0 -4 7 -4 15 0 8 4 15 10 15 5 0 7 -7 4 -15z m761 -5 c-4 -12 -1 -28 7 -38 12 -15 11 -16 -4 -3 -18 14 -24 42 -11 54 12 12 14 7 8 -13z m1635 -15 c0 -5 -5 -3 -10 5 -5 8 -10 20 -10 25 0 6 5 3 10 -5 5 -8 10 -19 10 -25z m387 29 c-3 -3 -12 -4 -19 -1 -8 3 -5 6 6 6 11 1 17 -2 13 -5z m173 -22 c0 -15 -2 -15 -10 -2 -13 20 -13 33 0 25 6 -3 10 -14 10 -23z m-2547 1 c-13 -2 -33 -2 -45 0 -13 2 -3 4 22 4 25 0 35 -2 23 -4z m60 0 c-7 -2 -19 -2 -25 0 -7 3 -2 5 12 5 14 0 19 -2 13 -5z m2230 0 c-7 -2 -21 -2 -30 0 -10 3 -4 5 12 5 17 0 24 -2 18 -5z m44 1 c-3 -3 -12 -4 -19 -1 -8 3 -5 6 6 6 11 1 17 -2 13 -5z m46 -1 c-7 -2 -19 -2 -25 0 -7 3 -2 5 12 5 14 0 19 -2 13 -5z m-2846 -40 c-3 -10 -5 -4 -5 12 0 17 2 24 5 18 2 -7 2 -21 0 -30z m884 14 c-10 -9 -11 -8 -5 6 3 10 9 15 12 12 3 -3 0 -11 -7 -18z m1533 8 c3 -8 1 -15 -4 -15 -6 0 -10 7 -10 15 0 8 2 15 4 15 2 0 6 -7 10 -15z m453 -7 c-3 -8 -6 -5 -6 6 -1 11 2 17 5 13 3 -3 4 -12 1 -19z m250 0 c-3 -8 -6 -5 -6 6 -1 11 2 17 5 13 3 -3 4 -12 1 -19z m40 7 c0 -8 -4 -12 -9 -9 -5 3 -6 10 -3 15 9 13 12 11 12 -6z m-3057 -5 c0 -5 -5 -10 -11 -10 -5 0 -7 5 -4 10 3 6 8 10 11 10 2 0 4 -4 4 -10z m328 3 c-10 -2 -26 -2 -35 0 -10 3 -2 5 17 5 19 0 27 -2 18 -5z m85 0 c-13 -2 -33 -2 -45 0 -13 2 -3 4 22 4 25 0 35 -2 23 -4z m1867 -3 c0 -5 -4 -10 -10 -10 -5 0 -10 5 -10 10 0 6 5 10 10 10 6 0 10 -4 10 -10z m373 3 c-7 -2 -21 -2 -30 0 -10 3 -4 5 12 5 17 0 24 -2 18 -5z m60 0 c-7 -2 -21 -2 -30 0 -10 3 -4 5 12 5 17 0 24 -2 18 -5z m244 -25 c-3 -7 -5 -2 -5 12 0 14 2 19 5 13 2 -7 2 -19 0 -25z m-2931 7 c-3 -10 1 -15 11 -15 9 0 13 -3 10 -7 -4 -3 -2 -12 4 -20 13 -15 4 -16 -26 -3 -11 5 -14 9 -7 9 7 1 10 6 7 11 -4 6 -11 8 -16 5 -13 -9 -11 3 4 20 16 19 21 19 13 0z m624 -11 c6 -14 14 -23 18 -20 5 3 22 1 38 -4 28 -8 27 -8 -13 -9 -37 -1 -42 2 -52 29 -12 36 -4 40 9 4z m1747 -6 c-3 -7 -5 -2 -5 12 0 14 2 19 5 13 2 -7 2 -19 0 -25z m-2442 4 c-3 -3 -11 0 -18 7 -9 10 -8 11 6 5 10 -3 15 -9 12 -12z m3232 -4 c-3 -8 -6 -5 -6 6 -1 11 2 17 5 13 3 -3 4 -12 1 -19z m-3313 -28 c10 -13 9 -13 -6 -1 -10 7 -18 21 -17 30 0 13 1 14 6 1 3 -8 11 -22 17 -30z m942 27 c8 3 14 -1 14 -11 0 -12 -9 -16 -37 -15 -21 1 -30 3 -20 6 9 2 17 12 18 21 0 10 3 12 5 5 3 -7 12 -9 20 -6z m2217 6 c-28 -11 -10 -23 33 -23 27 0 43 4 39 10 -3 6 -1 10 4 10 6 0 11 -4 11 -10 0 -17 18 -11 23 8 4 13 5 11 6 -5 1 -22 -2 -23 -91 -22 -51 1 -84 4 -73 6 11 3 24 11 28 19 4 8 13 14 20 13 9 0 9 -2 0 -6z m-3093 -13 c8 -5 11 -10 5 -10 -5 0 -17 5 -25 10 -8 5 -10 10 -5 10 6 0 17 -5 25 -10z m513 -15 c-1 -5 -7 -11 -15 -13 -9 -2 -8 0 2 7 11 7 -7 11 -65 14 l-80 3 80 0 c46 -1 79 -5 78 -11z m1817 3 c0 -11 -58 -10 -65 1 -3 5 10 9 30 8 19 -1 35 -5 35 -9z m117 -2 c3 -2 -12 -4 -31 -4 -20 0 -36 3 -36 8 0 7 59 4 67 -4z m341 7 c-21 -2 -57 -2 -80 0 -24 2 -7 4 37 4 44 0 63 -2 43 -4z m-2788 -19 c0 -2 -7 -4 -15 -4 -8 0 -15 4 -15 10 0 5 7 7 15 4 8 -4 15 -8 15 -10z m910 -9 c-7 -8 -17 -15 -23 -15 -5 0 -2 9 8 20 21 23 35 19 15 -5z m2323 10 c-3 -9 -8 -14 -10 -11 -3 3 -2 9 2 15 9 16 15 13 8 -4z m-2810 -2 c-7 -2 -21 -2 -30 0 -10 3 -4 5 12 5 17 0 24 -2 18 -5z m-400 -20 c-13 -2 -35 -2 -50 0 -16 2 -5 4 22 4 28 0 40 -2 28 -4z m95 0 c-10 -2 -28 -2 -40 0 -13 2 -5 4 17 4 22 1 32 -1 23 -4z m720 0 c-21 -2 -57 -2 -80 0 -24 2 -7 4 37 4 44 0 63 -2 43 -4z m1479 1 c-3 -3 -12 -4 -19 -1 -8 3 -5 6 6 6 11 1 17 -2 13 -5z m111 -1 c-15 -2 -42 -2 -60 0 -18 2 -6 4 27 4 33 0 48 -2 33 -4z m629 1 c-3 -3 -12 -4 -19 -1 -8 3 -5 6 6 6 11 1 17 -2 13 -5z m126 -1 c-7 -2 -19 -2 -25 0 -7 3 -2 5 12 5 14 0 19 -2 13 -5z m-3120 -60 c-7 -2 -21 -2 -30 0 -10 3 -4 5 12 5 17 0 24 -2 18 -5z m2304 1 c-3 -3 -12 -4 -19 -1 -8 3 -5 6 6 6 11 1 17 -2 13 -5z m776 -1 c-7 -2 -21 -2 -30 0 -10 3 -4 5 12 5 17 0 24 -2 18 -5z"/>
<path d="M12157 764 c-13 -13 -7 -24 14 -24 11 0 19 5 17 12 -5 14 -22 21 -31 12z"/>
<path d="M12993 563 c-7 -3 -13 -18 -13 -34 0 -22 5 -29 20 -29 15 0 20 7 20 29 0 32 -7 41 -27 34z"/>
<path d="M10400 535 c0 -28 4 -35 20 -35 16 0 20 7 20 35 0 28 -4 35 -20 35 -16 0 -20 -7 -20 -35z"/>
<path d="M13683 528 c-13 -6 -23 -17 -23 -25 0 -7 -7 -13 -15 -13 -11 0 -15 -11 -15 -40 0 -29 4 -40 15 -40 8 0 15 6 15 13 0 6 5 4 11 -5 8 -14 23 -18 64 -18 30 0 55 3 55 6 0 4 -9 23 -20 43 -11 20 -24 48 -30 64 -10 29 -22 32 -57 15z"/>
<path d="M11204 203 c-18 -41 -12 -114 10 -132 7 -6 32 -10 55 -9 l41 1 0 44 c0 41 -1 43 -31 43 -17 0 -28 -4 -24 -10 3 -5 13 -10 21 -10 10 0 14 -8 12 -22 -2 -18 -10 -23 -33 -23 -28 0 -30 2 -33 44 -6 85 20 119 59 80 25 -25 35 -19 19 10 -8 15 -20 21 -46 21 -31 0 -37 -4 -50 -37z"/>
<path d="M11343 153 c2 -61 7 -88 17 -91 10 -4 12 4 7 30 -3 19 -2 50 2 69 7 33 7 32 20 -29 13 -59 25 -81 38 -68 3 3 14 34 24 68 l18 63 0 -67 c1 -56 4 -68 17 -68 15 0 16 9 10 61 -3 34 -6 75 -6 90 0 52 -28 34 -45 -28 -29 -102 -24 -104 -56 20 -7 27 -15 37 -29 37 -19 0 -20 -6 -17 -87z"/>
<path d="M11530 150 l0 -90 38 0 c54 0 72 23 72 93 0 68 -16 87 -71 87 l-39 0 0 -90z m78 58 c7 -7 12 -33 12 -58 0 -51 -13 -70 -47 -70 -22 0 -23 4 -23 70 0 66 1 70 23 70 13 0 28 -5 35 -12z"/>
<path d="M11746 218 c-10 -13 -16 -43 -16 -74 0 -64 19 -85 79 -82 l42 1 -3 46 c-3 42 -5 46 -30 49 -32 4 -38 -13 -8 -21 23 -6 26 -29 5 -47 -39 -33 -76 20 -59 87 10 43 40 56 60 28 19 -26 37 -14 19 13 -21 30 -68 30 -89 0z"/>
<path d="M11880 151 c0 -54 4 -91 10 -91 6 0 10 15 10 34 0 31 3 35 37 43 28 6 40 16 47 36 15 42 -2 61 -58 65 l-46 3 0 -90z m83 50 c6 -26 -4 -40 -33 -43 -22 -3 -25 2 -28 30 -3 30 -1 32 26 32 21 0 31 -6 35 -19z"/>
<path d="M12015 194 c-7 -50 -2 -65 17 -46 19 19 38 14 47 -10 10 -28 -3 -58 -26 -58 -9 0 -22 8 -30 18 -12 16 -13 15 -11 -8 3 -21 8 -25 38 -25 27 0 37 6 50 28 13 24 13 30 -1 55 -11 19 -23 27 -42 27 -19 -1 -26 3 -22 13 3 7 5 18 5 23 0 5 14 9 30 9 17 0 30 5 30 10 0 6 -17 10 -39 10 -38 0 -39 0 -46 -46z"/>
<path d="M12140 221 c-5 -11 -10 -43 -10 -71 0 -28 5 -60 10 -71 14 -26 66 -26 80 0 16 31 13 127 -6 145 -21 22 -61 20 -74 -3z m64 -23 c8 -30 8 -82 0 -102 -8 -21 -40 -21 -48 0 -3 9 -6 33 -6 54 0 21 3 45 6 54 9 24 41 19 48 -6z"/>
</g>
</svg>