<svg xmlns="http://www.w3.org/2000/svg" viewBox="21.10 524.80 1392.40 245.40">
<g transform="translate(0.000000,768.000000) scale(0.100000,-0.100000)" fill="currentColor" stroke="none">
<path d="M6846 2338 c-11 -15 -16 -45 -16 -86 0 -54 4 -66 26 -88 18 -19 31 -24 47 -19 12 4 30 7 40 6 14 0 17 9 17 55 0 53 0 54 -30 54 -16 0 -30 -4 -30 -10 0 -5 9 -10 20 -10 15 0 20 -7 20 -24 0 -27 -34 -58 -55 -50 -34 13 -47 113 -19 152 19 27 50 28 64 2 12 -23 30 -27 30 -6 0 46 -86 64 -114 24z"/>
<path d="M7000 2255 c0 -87 3 -105 15 -105 11 0 15 12 15 45 0 45 0 45 34 45 47 0 69 24 60 64 -10 47 -22 56 -75 56 l-49 0 0 -105z m90 70 c7 -8 10 -25 6 -40 -5 -20 -13 -25 -36 -25 -28 0 -30 2 -30 40 0 35 3 40 24 40 13 0 29 -7 36 -15z"/>
<path d="M7158 2335 c-15 -34 -1 -45 21 -16 23 30 51 22 51 -15 0 -17 -6 -28 -20 -31 -27 -7 -25 -17 6 -31 20 -10 25 -18 22 -40 -4 -35 -52 -45 -63 -13 -9 28 -27 27 -23 -1 2 -12 15 -29 29 -37 24 -13 29 -13 53 2 19 13 26 26 26 50 0 18 -5 38 -12 45 -9 9 -9 15 0 24 7 7 12 22 12 34 0 54 -80 76 -102 29z"/>
<path d="M7306 2348 c-3 -7 -7 -32 -9 -55 l-5 -42 42 2 41 2 0 -40 c0 -33 -4 -41 -21 -43 -11 -2 -27 4 -34 13 -16 19 -30 19 -30 0 0 -8 11 -22 25 -31 49 -32 104 22 90 88 -8 33 -33 49 -63 41 -15 -3 -22 -1 -22 8 0 24 14 36 48 44 17 3 32 11 32 16 0 14 -90 11 -94 -3z"/>
<path d="M2365 1990 c-2104 -4 -1837 -6 2370 -10 2607 -3 5777 -3 7045 0 l2305 5 -2365 3 c-1301 1 -3404 3 -4675 5 -1270 1 -3376 0 -4680 -3z"/>
<path d="M5577 1780 c-3 -11 -3 -29 0 -40 4 -16 9 -18 25 -9 11 6 22 8 25 5 4 -3 12 -1 19 5 10 8 17 5 30 -9 18 -22 44 -19 44 5 0 10 7 14 20 10 11 -3 20 -1 20 3 0 5 3 17 6 27 6 14 4 16 -6 6 -7 -7 -21 -9 -34 -4 -11 4 -43 6 -71 5 -27 -1 -55 2 -61 7 -8 6 -13 3 -17 -11z"/>
<path d="M7920 1780 c0 -6 60 -10 160 -10 100 0 160 4 160 10 0 6 -60 10 -160 10 -100 0 -160 -4 -160 -10z"/>
<path d="M8269 1768 c0 -13 -2 -31 -4 -40 -3 -17 10 -18 161 -18 191 0 228 18 47 23 l-118 3 118 2 c127 2 160 19 50 25 l-68 3 68 2 c42 1 66 6 62 12 -4 6 -68 10 -161 10 -153 0 -154 0 -155 -22z"/>
<path d="M8612 1750 l-2 -40 160 0 c92 0 160 4 160 9 0 5 -10 12 -22 14 l-23 4 23 2 c12 0 22 5 22 11 0 5 -33 11 -72 13 l-73 3 73 2 c40 1 72 6 72 12 0 6 -59 10 -158 10 l-159 0 -1 -40z"/>
<path d="M6840 1755 c0 -8 -8 -15 -17 -15 -10 0 -25 -5 -33 -10 -10 -7 13 -10 75 -9 64 0 83 3 68 9 -13 5 -23 16 -23 25 0 11 -10 15 -35 15 -24 0 -35 -5 -35 -15z"/>
<path d="M7220 1745 l0 -25 155 0 155 0 0 25 0 25 -155 0 -155 0 0 -25z"/>
<path d="M7735 1750 c-2 -3 1 -12 6 -20 8 -12 12 -12 16 -2 4 10 8 9 18 -5 13 -17 14 -17 21 2 4 11 12 23 18 27 6 4 -8 7 -32 6 -24 -1 -45 -4 -47 -8z"/>
<path d="M7920 1735 l0 -25 159 0 c88 0 162 4 166 9 3 5 -7 12 -22 14 l-28 4 28 2 c16 0 25 5 22 11 -4 6 -70 10 -166 10 l-159 0 0 -25z m83 -2 c-13 -2 -35 -2 -50 0 -16 2 -5 4 22 4 28 0 40 -2 28 -4z m154 1 c-3 -3 -12 -4 -19 -1 -8 3 -5 6 6 6 11 1 17 -2 13 -5z"/>
<path d="M6355 1740 c-3 -5 -22 -10 -41 -10 -19 0 -34 -5 -34 -11 0 -6 -7 -8 -16 -5 -8 3 -12 2 -9 -4 3 -6 1 -10 -4 -10 -7 0 -11 -60 -11 -180 0 -172 1 -180 20 -180 12 0 31 -18 51 -47 32 -47 41 -55 56 -54 9 1 10 10 12 131 l1 90 48 -2 47 -1 -42 -4 -43 -4 0 -75 0 -74 151 0 151 0 -4 80 c-2 44 0 80 5 80 4 0 7 -49 7 -109 0 -100 2 -109 20 -114 19 -5 20 0 20 144 l0 149 123 -2 c67 -1 96 -3 65 -5 l-58 -4 0 -144 0 -145 50 0 50 0 2 128 2 127 6 -125 c3 -70 8 -112 11 -95 l6 30 2 -32 1 -33 55 0 55 0 0 145 c0 131 -2 145 -17 145 -10 0 -25 5 -33 10 -11 7 -6 8 18 5 19 -2 40 -1 48 2 18 7 19 89 2 96 -10 4 -10 6 0 6 7 1 12 15 12 36 l0 35 -75 0 -75 0 0 -80 c0 -54 4 -80 12 -80 6 0 9 -3 5 -6 -3 -4 -42 11 -87 31 -44 21 -78 40 -76 42 2 2 31 -9 65 -26 33 -17 63 -31 66 -31 3 0 5 16 5 36 l0 36 -80 -4 c-44 -2 -80 0 -80 4 0 4 35 8 78 10 l77 3 0 30 0 30 -340 5 c-340 5 -340 5 -110 9 127 2 222 5 213 8 -10 2 -18 9 -18 14 0 13 -357 12 -365 -1z m3 -148 l-2 -107 -5 105 -5 105 -6 -105 -5 -105 -5 106 c-5 95 -3 105 13 106 15 2 17 -9 15 -105z m358 -2 l0 -105 -5 105 -5 105 -6 -105 -6 -105 -2 103 c-2 83 -5 102 -17 102 -12 0 -15 -17 -13 -97 l2 -98 6 90 6 90 2 -92 c2 -77 -1 -93 -13 -93 -12 0 -15 18 -15 100 l0 100 -65 0 -65 0 -2 -102 -2 -103 -6 105 -6 105 -4 -105 -4 -105 -3 103 c-4 101 -4 102 -28 102 -25 0 -25 0 -23 -97 l2 -98 6 95 6 95 4 -95 4 -95 6 95 6 95 2 -97 2 -98 -25 0 c-25 0 -25 0 -27 103 l-2 102 -3 -102 c-4 -102 -4 -103 -28 -103 -25 0 -25 0 -25 105 l0 105 173 -2 172 -3 1 -105z m-165 0 l5 95 2 -97 c2 -81 -1 -98 -13 -98 -12 0 -15 17 -13 98 l2 97 6 -95 6 -95 5 95z m26 -52 c-2 -29 -3 -8 -3 47 0 55 1 79 3 53 2 -26 2 -71 0 -100z m33 52 l4 95 6 -95 6 -95 5 95 5 95 2 -97 2 -98 -25 0 -25 0 2 98 2 97 6 -95 6 -95 4 95z m483 43 c-13 -2 -33 -2 -45 0 -13 2 -3 4 22 4 25 0 35 -2 23 -4z m-66 -109 c-3 -3 -12 -4 -19 -1 -8 3 -5 6 6 6 11 1 17 -2 13 -5z m-25 -121 c-5 -96 -10 -101 -11 -10 -1 42 3 77 7 77 4 0 6 -30 4 -67z"/>
<path d="M6384 1595 c0 -55 1 -76 3 -47 2 29 2 74 0 100 -2 26 -3 2 -3 -53z"/>
<path d="M6404 1595 c0 -55 1 -76 3 -47 2 29 2 74 0 100 -2 26 -3 2 -3 -53z"/>
<path d="M9013 1704 c-10 -10 -13 -110 -13 -429 l0 -415 45 0 45 0 0 68 c1 97 1 317 0 389 0 50 -3 62 -17 66 -17 4 -17 5 0 6 19 1 24 21 5 21 -9 0 -9 3 1 9 10 7 12 22 8 58 -3 26 -3 42 0 35 9 -22 23 -2 23 33 0 42 -17 55 -23 18 -2 -16 -1 7 1 49 4 63 2 80 -13 94 -14 15 -18 15 -26 3 -6 -10 -11 -11 -16 -3 -6 9 -11 8 -20 -2z m34 -210 c-3 -3 -12 -4 -19 -1 -8 3 -5 6 6 6 11 1 17 -2 13 -5z m-7 -99 c7 -8 8 -15 2 -15 -5 0 -15 7 -22 15 -7 8 -8 15 -2 15 5 0 15 -7 22 -15z m-10 -124 c0 -5 8 -12 18 -14 14 -4 14 -5 1 -6 -9 0 -22 6 -29 14 -9 10 -9 15 -1 15 6 0 11 -4 11 -9z m41 -389 c-7 -2 -18 1 -23 6 -8 8 -4 9 13 5 13 -4 18 -8 10 -11z"/>
<path d="M5598 1702 c-13 -3 -18 -13 -18 -40 0 -27 -3 -33 -10 -22 -5 8 -13 11 -17 6 -4 -4 0 -14 10 -21 13 -9 18 -23 15 -47 -3 -29 0 -33 22 -36 71 -8 70 -6 70 -82 l0 -70 -200 0 -200 0 -2 -57 -2 -58 -3 50 c-3 27 -9 55 -15 62 -8 10 -7 12 6 7 9 -3 16 -1 16 5 0 6 -13 11 -30 11 -16 0 -30 -5 -30 -11 0 -5 5 -7 10 -4 6 3 10 2 10 -3 0 -5 -16 -9 -35 -10 -20 -1 -40 -4 -45 -7 -6 -4 -10 -111 -10 -261 l0 -254 50 0 49 0 4 88 3 87 2 -107 c1 -67 -2 -108 -8 -108 -5 0 -9 6 -7 13 1 8 -19 13 -70 15 -62 2 -72 0 -76 -15 -3 -10 -5 56 -5 147 l0 165 -41 3 -41 3 0 -146 c0 -113 3 -146 13 -143 9 3 13 43 15 141 2 129 4 137 22 137 19 0 20 -7 20 -146 l0 -146 -45 4 c-44 3 -63 -13 -30 -26 8 -3 15 -12 15 -21 0 -8 3 -15 8 -15 21 -1 45 -33 48 -65 2 -27 -3 -39 -22 -54 -26 -21 -54 -18 -54 4 0 10 -14 13 -47 11 l-48 -2 0 -60 0 -59 48 -3 c41 -3 48 0 55 19 6 15 11 19 16 11 9 -15 -8 -69 -41 -134 -22 -45 -22 -48 -5 -48 21 0 45 46 63 123 6 26 16 47 21 47 9 0 3 -69 -9 -112 -3 -12 1 -18 11 -18 9 0 16 -9 16 -20 0 -11 7 -20 15 -20 10 0 15 11 15 35 l0 35 78 1 c52 0 71 3 57 9 -17 7 -17 9 -2 9 13 1 17 10 17 46 l0 45 -79 0 -80 0 -4 -42 -4 -43 -1 48 -2 47 88 0 c79 1 85 2 68 15 -17 13 -18 15 -3 15 18 0 23 25 7 35 -5 3 -9 32 -8 63 l1 57 7 -55 6 -55 5 50 c3 28 6 -16 7 -97 1 -91 6 -148 12 -148 6 0 10 28 10 65 0 53 6 77 30 124 l29 59 183 7 c101 4 342 5 536 3 l353 -3 27 -32 c23 -27 29 -30 40 -18 14 16 33 20 31 8 -1 -5 -1 -65 0 -135 l1 -128 610 0 610 0 0 115 0 115 -464 0 c-434 0 -465 -1 -469 -17 -3 -10 -5 6 -6 35 -1 54 -16 71 -24 27 -4 -23 -4 -23 -3 2 2 41 30 37 34 -4 l3 -33 465 0 c396 0 464 2 464 14 0 9 12 16 28 18 25 3 27 7 30 51 l3 47 -588 2 c-323 1 -564 3 -535 5 44 3 52 7 52 24 0 15 -7 19 -36 19 -27 0 -35 -3 -31 -14 4 -10 1 -13 -7 -10 -7 3 -13 11 -13 19 0 11 12 15 44 15 41 0 43 1 43 29 0 29 0 29 -72 32 -40 2 -106 3 -145 1 -73 -4 -73 -4 -73 -32 l0 -29 98 -4 97 -3 -97 -2 c-97 -2 -98 -2 -98 -27 0 -22 4 -24 58 -28 31 -2 -78 -3 -243 -3 -242 1 -256 1 -72 3 l227 3 0 25 0 25 -525 0 -525 0 0 -25 0 -25 234 0 c199 0 235 -2 240 -15 3 -8 15 -15 26 -15 26 0 26 -15 0 -17 -11 -1 -25 7 -30 18 -10 18 -25 19 -278 20 -147 1 -257 4 -244 6 15 3 22 11 22 29 0 20 -5 24 -30 24 -29 0 -30 2 -28 43 l1 42 4 -37 c4 -33 8 -38 29 -38 l24 0 0 180 0 180 -25 0 -24 0 -4 -142 -3 -143 -2 143 c-1 100 -5 142 -14 142 -6 0 -8 3 -4 7 4 4 41 6 82 4 62 -2 77 0 92 16 9 10 14 14 10 9 -12 -16 -9 -26 7 -26 12 0 15 -16 15 -85 l0 -85 120 0 121 0 -3 133 -3 132 -100 3 c-99 3 -100 3 -124 -25 -13 -15 -20 -21 -16 -13 24 46 34 50 142 50 62 0 102 4 98 9 -3 5 -1 12 5 16 5 3 10 0 10 -9 0 -8 6 -17 13 -19 10 -4 10 -6 0 -6 -10 -1 -13 -35 -13 -136 l0 -135 265 0 265 0 -1 134 c0 95 -4 136 -12 140 -9 3 -9 5 1 5 9 1 12 29 12 106 l0 105 -265 0 -265 0 -1 -42 -2 -43 -6 40 c-6 40 -6 40 -53 43 -27 2 -48 7 -48 11 0 4 20 6 45 5 l45 -3 0 40 0 39 -47 2 -48 1 50 6 c39 5 50 10 49 24 -1 9 2 17 7 17 5 0 9 -29 9 -65 l0 -65 265 0 265 0 0 70 0 70 -232 2 c-128 1 -267 2 -308 2 -41 1 -83 0 -92 -2z m244 -302 l-3 -110 120 0 121 0 -2 58 -2 57 -3 -50 -4 -50 -49 3 -50 4 0 89 0 89 54 0 c65 0 66 -1 66 -121 l0 -90 -127 3 -128 3 -3 113 c-1 61 1 112 5 112 4 0 7 -49 5 -110z m108 0 c0 -96 2 -92 -55 -92 -14 0 -29 0 -35 1 -6 1 -10 38 -10 91 l0 90 50 0 50 0 0 -90z m-253 18 c-3 -8 -6 -5 -6 6 -1 11 2 17 5 13 3 -3 4 -12 1 -19z m-467 -118 c0 -5 -2 -10 -4 -10 -3 0 -8 5 -11 10 -3 6 -1 10 4 10 6 0 11 -4 11 -10z m-10 -30 c0 -5 -2 -10 -4 -10 -3 0 -8 5 -11 10 -3 6 -1 10 4 10 6 0 11 -4 11 -10z m17 -127 c-2 -16 -4 -5 -4 22 0 28 2 40 4 28 2 -13 2 -35 0 -50z m277 45 c-5 -8 -1 -9 12 -4 14 5 16 4 7 -5 -13 -13 -37 -3 -28 12 4 5 8 9 11 9 3 0 2 -5 -2 -12z m-331 -65 c-7 -2 -19 -2 -25 0 -7 3 -2 5 12 5 14 0 19 -2 13 -5z m47 -83 c0 -5 -2 -10 -4 -10 -3 0 -8 5 -11 10 -3 6 -1 10 4 10 6 0 11 -4 11 -10z m-22 -77 c-10 -2 -28 -2 -40 0 -13 2 -5 4 17 4 22 1 32 -1 23 -4z m-33 -73 c3 -6 -1 -7 -9 -4 -18 7 -21 14 -7 14 6 0 13 -4 16 -10z m40 0 c3 -5 1 -10 -4 -10 -6 0 -11 5 -11 10 0 6 2 10 4 10 3 0 8 -4 11 -10z m-62 -273 l62 -3 -67 -2 -68 -2 2 103 2 102 3 -97 4 -97 62 -4z m1457 189 c0 -2 -13 -6 -30 -8 -16 -3 -30 -1 -30 4 0 4 14 8 30 8 17 0 30 -2 30 -4z m-676 -38 c-3 -5 -10 -6 -15 -3 -5 4 -9 1 -9 -5 0 -6 -5 -8 -10 -5 -15 9 -2 24 20 22 10 -1 16 -5 14 -9z m666 -8 c-13 -9 -13 -11 0 -20 8 -5 11 -10 5 -11 -5 -1 4 -5 20 -9 24 -6 20 -8 -25 -7 -30 0 -45 2 -32 4 12 2 20 9 16 14 -8 14 3 39 18 39 9 0 9 -3 -2 -10z m37 -22 c-3 -7 -5 -2 -5 12 0 14 2 19 5 13 2 -7 2 -19 0 -25z m-1444 -5 c-18 -2 -48 -2 -65 0 -18 2 -4 4 32 4 36 0 50 -2 33 -4z m2107 -25 l405 -3 -395 -3 c-217 -1 -405 0 -417 3 -13 3 -23 11 -23 17 0 9 3 9 12 0 9 -9 118 -13 418 -14z m-1997 -23 c-3 -9 -8 -14 -10 -11 -3 3 -2 9 2 15 9 16 15 13 8 -4z m1470 -37 c8 -28 1 -36 -8 -9 -5 18 -16 21 -88 24 l-82 3 86 2 c82 2 87 1 92 -20z m125 -52 c-3 -23 -40 -30 -44 -8 -1 7 0 8 3 2 2 -5 11 -10 19 -10 17 0 18 31 2 50 -11 12 -10 12 5 0 10 -7 17 -23 15 -34z m-1698 -32 c0 -5 -7 -9 -15 -8 -8 0 -30 1 -47 2 -22 2 -29 5 -20 11 17 10 82 6 82 -5z m-47 -71 c-13 -2 -35 -2 -50 0 -16 2 -5 4 22 4 28 0 40 -2 28 -4z"/>
<path d="M7148 1620 l-3 -90 45 2 c25 1 188 1 363 0 l317 -2 0 -150 c0 -85 4 -150 9 -150 5 0 12 8 14 18 4 16 5 16 6 0 1 -16 12 -18 76 -18 l75 0 0 95 0 94 -62 4 c-35 2 114 4 330 5 368 2 392 1 391 -15 0 -11 -3 -13 -6 -5 -3 8 -28 12 -73 12 -45 0 -70 -4 -74 -12 -5 -10 -7 -10 -12 0 -4 8 -30 12 -79 12 l-74 0 -4 -32 -4 -33 -1 33 -2 32 -75 0 -75 0 0 -135 0 -135 40 0 39 0 4 -147 3 -148 2 148 2 147 33 1 c17 0 68 1 112 2 l80 2 -1 118 c-1 64 2 117 7 117 5 0 9 -54 9 -120 l0 -120 70 0 70 0 2 113 2 112 6 -110 c3 -60 7 -96 9 -80 l3 30 7 -30 c6 -30 7 -30 66 -28 33 1 65 2 72 2 9 1 13 34 16 114 l3 112 2 -116 2 -116 43 1 42 1 0 -250 c1 -137 -1 -206 -2 -152 l-4 97 -29 0 c-25 0 -30 -4 -30 -24 0 -19 6 -26 28 -29 26 -4 25 -4 -5 -6 -29 -1 -32 2 -36 32 l-4 32 -1 -32 -2 -33 -233 0 c-225 0 -233 -1 -245 -21 -7 -12 -12 -22 -10 -24 2 -1 110 -5 241 -8 130 -3 242 -9 247 -12 6 -4 19 -24 31 -46 11 -22 23 -38 27 -35 4 2 7 -33 7 -77 l0 -82 93 -3 92 -3 0 -34 c0 -24 5 -35 15 -35 9 0 15 9 15 24 0 19 4 22 24 19 l24 -5 -16 49 c-10 26 -21 51 -26 54 -9 7 0 29 13 29 4 0 16 -28 25 -62 27 -96 34 -108 56 -108 19 0 19 1 5 23 -27 42 -63 144 -55 157 6 9 10 6 15 -9 5 -17 14 -21 45 -21 64 0 70 6 70 65 0 50 -2 54 -27 58 -57 10 -83 7 -83 -8 0 -9 -9 -15 -24 -15 -51 0 -60 100 -11 122 14 6 25 15 25 20 0 5 7 17 16 25 13 13 13 17 2 24 -10 6 -14 45 -15 151 l-2 143 -38 3 -38 3 3 -268 3 -268 -86 3 c-51 2 -85 0 -85 -6 0 -6 6 -13 13 -15 10 -4 10 -6 0 -6 -9 -1 -13 -17 -13 -46 l0 -45 80 0 80 0 0 45 0 44 -67 4 -68 3 73 2 72 2 0 -55 0 -55 -90 0 -90 0 0 70 0 70 85 0 85 0 0 50 0 49 -72 4 -73 3 73 2 72 2 0 55 0 55 -75 0 -74 0 -4 -97 c-1 -54 -4 74 -5 284 l-2 382 -130 0 -129 1 -4 -103 -3 -102 -2 108 -2 107 135 0 135 0 0 135 0 135 -372 0 c-205 0 -516 2 -690 5 l-318 5 0 -35 0 -35 86 0 c60 0 85 -3 82 -12 -2 -6 -14 -15 -27 -19 -14 -6 -20 -5 -16 1 3 6 14 11 23 12 9 1 -21 4 -68 7 l-85 6 -3 38 -3 37 -224 0 -224 0 -3 -90z m32 20 c0 -5 -2 -10 -4 -10 -3 0 -8 5 -11 10 -3 6 -1 10 4 10 6 0 11 -4 11 -10z m40 2 c0 -5 -7 -9 -15 -9 -8 0 -15 4 -15 9 0 4 7 8 15 8 8 0 15 -4 15 -8z m90 4 c0 -2 -9 -6 -20 -9 -11 -3 -20 -1 -20 4 0 5 9 9 20 9 11 0 20 -2 20 -4z m17 -18 c-3 -8 -6 -5 -6 6 -1 11 2 17 5 13 3 -3 4 -12 1 -19z m70 0 c-3 -8 -6 -5 -6 6 -1 11 2 17 5 13 3 -3 4 -12 1 -19z m20 0 c-3 -8 -6 -5 -6 6 -1 11 2 17 5 13 3 -3 4 -12 1 -19z m20 0 c-3 -8 -6 -5 -6 6 -1 11 2 17 5 13 3 -3 4 -12 1 -19z m46 15 c-7 -2 -19 -2 -25 0 -7 3 -2 5 12 5 14 0 19 -2 13 -5z m47 -10 c0 -10 -4 -14 -8 -8 -4 6 -11 13 -16 18 -5 4 -2 7 7 7 10 0 17 -8 17 -17z m17 -5 c-3 -8 -6 -5 -6 6 -1 11 2 17 5 13 3 -3 4 -12 1 -19z m40 16 c-3 -3 -12 -4 -19 -1 -8 3 -5 6 6 6 11 1 17 -2 13 -5z m371 -1 c-10 -2 -26 -2 -35 0 -10 3 -2 5 17 5 19 0 27 -2 18 -5z m79 1 c-3 -3 -12 -4 -19 -1 -8 3 -5 6 6 6 11 1 17 -2 13 -5z m81 -1 c-10 -2 -26 -2 -35 0 -10 3 -2 5 17 5 19 0 27 -2 18 -5z m80 0 c-10 -2 -28 -2 -40 0 -13 2 -5 4 17 4 22 1 32 -1 23 -4z m85 0 c-13 -2 -33 -2 -45 0 -13 2 -3 4 22 4 25 0 35 -2 23 -4z m137 3 c0 -8 -60 -12 -72 -4 -8 4 4 8 30 8 23 0 42 -2 42 -4z m110 0 c0 -2 -18 -6 -40 -8 -22 -2 -40 0 -40 4 0 5 18 8 40 8 22 0 40 -2 40 -4z m43 -3 c-7 -2 -19 -2 -25 0 -7 3 -2 5 12 5 14 0 19 -2 13 -5z m90 0 c-7 -2 -19 -2 -25 0 -7 3 -2 5 12 5 14 0 19 -2 13 -5z m274 0 c-20 -2 -52 -2 -70 0 -17 2 0 4 38 4 39 0 53 -2 32 -4z m-1700 -75 c-2 -13 -4 -5 -4 17 -1 22 1 32 4 23 2 -10 2 -28 0 -40z m40 0 c-2 -13 -4 -5 -4 17 -1 22 1 32 4 23 2 -10 2 -28 0 -40z m339 -18 c3 0 23 9 44 20 22 11 40 18 40 15 0 -10 -81 -46 -90 -40 -6 3 -9 23 -8 43 l1 37 4 -37 c2 -21 6 -38 9 -38z m374 63 c-8 -3 -18 -11 -22 -17 -5 -7 -8 -6 -9 4 0 8 -5 4 -9 -10 -8 -24 -8 -24 -9 -2 -1 12 -6 22 -12 22 -6 0 -9 -9 -6 -20 3 -11 1 -20 -4 -20 -5 0 -9 11 -9 25 0 23 3 25 48 24 26 0 40 -3 32 -6z m140 -4 c0 -5 -4 -7 -10 -4 -5 3 -10 -3 -10 -14 0 -15 -6 -21 -22 -20 -17 1 -19 2 -5 6 9 2 17 11 17 20 0 11 -8 14 -35 10 -19 -3 -35 -1 -35 4 0 5 23 9 50 9 29 0 50 -5 50 -11z m130 2 c0 -4 -16 -7 -35 -6 -19 1 -35 -3 -35 -9 0 -7 -3 -8 -8 -1 -11 15 -32 17 -32 2 0 -7 14 -14 32 -15 45 -4 49 -12 5 -12 l-37 0 0 -54 c0 -34 5 -56 13 -59 6 -3 -42 -5 -108 -4 -66 0 -94 2 -62 4 45 3 57 8 58 21 1 16 2 16 6 0 3 -12 15 -17 44 -16 l39 0 0 79 0 79 60 0 c33 0 60 -4 60 -9z m130 1 c0 -4 -27 -7 -60 -7 -33 0 -60 3 -60 7 0 5 27 8 60 8 33 0 60 -3 60 -8z m30 4 c0 -3 -4 -8 -10 -11 -5 -3 -10 -1 -10 4 0 6 5 11 10 11 6 0 10 -2 10 -4z m160 -4 c0 -5 -26 -8 -57 -7 l-58 1 -6 -80 -5 -81 -2 88 -2 87 65 0 c36 0 65 -4 65 -8z m130 0 c0 -4 -18 -8 -40 -7 -22 0 -40 3 -40 8 0 4 18 7 40 7 22 0 40 -4 40 -8z m50 0 c0 -4 -9 -8 -20 -9 -11 -1 -20 2 -20 8 0 5 9 9 20 9 11 0 20 -4 20 -8z m210 -1 c0 -5 -13 -7 -30 -6 -30 3 -30 2 -32 -54 l-1 -56 -6 55 c-8 76 -30 78 -33 3 -1 -43 -2 -48 -5 -20 -4 32 -8 37 -31 38 -24 0 -25 1 -7 8 11 5 23 7 28 4 4 -2 7 2 7 10 0 11 -10 14 -35 12 -19 -1 -35 2 -35 7 0 4 41 8 90 8 50 0 90 -4 90 -9z m-1553 -33 c-3 -7 -5 -2 -5 12 0 14 2 19 5 13 2 -7 2 -19 0 -25z m110 -25 c-3 -10 -5 -4 -5 12 0 17 2 24 5 18 2 -7 2 -21 0 -30z m600 5 c-3 -7 -5 -2 -5 12 0 14 2 19 5 13 2 -7 2 -19 0 -25z m240 -20 c-2 -13 -4 -5 -4 17 -1 22 1 32 4 23 2 -10 2 -28 0 -40z m118 42 c3 -5 1 -10 -4 -10 -6 0 -11 5 -11 10 0 6 2 10 4 10 3 0 8 -4 11 -10z m185 0 c0 -5 -10 -10 -22 -9 -22 0 -22 1 -3 9 11 5 21 9 23 9 1 1 2 -3 2 -9z m40 3 c0 -3 -7 -11 -15 -19 -13 -14 -15 -13 -15 4 0 10 7 19 15 19 8 0 15 -2 15 -4z m67 -85 c-2 -18 -4 -4 -4 32 0 36 2 50 4 33 2 -18 2 -48 0 -65z m110 25 c-2 -16 -4 -5 -4 22 0 28 2 40 4 28 2 -13 2 -35 0 -50z m40 45 c-3 -8 -6 -5 -6 6 -1 11 2 17 5 13 3 -3 4 -12 1 -19z m43 7 c0 -6 -7 -12 -15 -12 -8 0 -15 6 -15 12 0 6 7 12 15 12 8 0 15 -6 15 -12z m-1713 -17 c-3 -8 -6 -5 -6 6 -1 11 2 17 5 13 3 -3 4 -12 1 -19z m1086 15 c-7 -2 -19 -2 -25 0 -7 3 -2 5 12 5 14 0 19 -2 13 -5z m-418 -43 c1 -16 -3 -30 -7 -30 -4 0 -8 14 -8 30 0 17 3 30 8 30 4 0 7 -13 7 -30z m22 -2 c-3 -7 -5 -2 -5 12 0 14 2 19 5 13 2 -7 2 -19 0 -25z m440 0 c-3 -7 -5 -2 -5 12 0 14 2 19 5 13 2 -7 2 -19 0 -25z m583 10 c0 -4 -7 -8 -15 -8 -8 0 -15 4 -15 8 0 5 7 9 15 9 8 0 15 -4 15 -9z m-880 -8 c0 -5 -2 -10 -4 -10 -3 0 -8 5 -11 10 -3 6 -1 10 4 10 6 0 11 -4 11 -10z m125 0 c3 -5 1 -10 -4 -10 -6 0 -11 5 -11 10 0 6 2 10 4 10 3 0 8 -4 11 -10z m275 6 c0 -3 -4 -8 -10 -11 -5 -3 -10 -1 -10 4 0 6 5 11 10 11 6 0 10 -2 10 -4z m70 -6 c0 -5 -2 -10 -4 -10 -3 0 -8 5 -11 10 -3 6 -1 10 4 10 6 0 11 -4 11 -10z m127 -22 c-3 -7 -5 -2 -5 12 0 14 2 19 5 13 2 -7 2 -19 0 -25z m53 28 c0 -3 -4 -8 -10 -11 -5 -3 -10 -1 -10 4 0 6 5 11 10 11 6 0 10 -2 10 -4z m230 -32 c0 -2 -7 -4 -15 -4 -8 0 -15 4 -15 10 0 5 7 7 15 4 8 -4 15 -8 15 -10z m-867 -1 c-7 -2 -19 -2 -25 0 -7 3 -2 5 12 5 14 0 19 -2 13 -5z m110 0 c-7 -2 -19 -2 -25 0 -7 3 -2 5 12 5 14 0 19 -2 13 -5z m84 1 c-3 -3 -12 -4 -19 -1 -8 3 -5 6 6 6 11 1 17 -2 13 -5z m90 -26 c-3 -7 -5 -2 -5 12 0 14 2 19 5 13 2 -7 2 -19 0 -25z m276 25 c-7 -2 -19 -2 -25 0 -7 3 -2 5 12 5 14 0 19 -2 13 -5z m90 0 c-7 -2 -19 -2 -25 0 -7 3 -2 5 12 5 14 0 19 -2 13 -5z m-827 -33 c0 -11 -4 -20 -8 -20 -4 0 -8 9 -8 20 0 11 4 20 8 20 4 0 8 -9 8 -20z m177 13 c-7 -2 -19 -2 -25 0 -7 3 -2 5 12 5 14 0 19 -2 13 -5z m312 -3 c3 -5 1 -10 -4 -10 -6 0 -11 5 -11 10 0 6 2 10 4 10 3 0 8 -4 11 -10z m289 -22 c6 -4 -34 -7 -89 -6 l-100 2 83 3 c69 3 82 7 83 21 0 14 2 14 6 2 3 -8 11 -18 17 -22z m126 28 c0 -3 -4 -8 -10 -11 -5 -3 -10 -1 -10 4 0 6 5 11 10 11 6 0 10 -2 10 -4z m37 -28 c-3 -7 -5 -2 -5 12 0 14 2 19 5 13 2 -7 2 -19 0 -25z m100 26 c-3 -3 -12 -4 -19 -1 -8 3 -5 6 6 6 11 1 17 -2 13 -5z m-604 -31 c-35 -2 -91 -2 -125 0 -35 2 -7 3 62 3 69 0 97 -1 63 -3z m390 0 c-7 -2 -19 -2 -25 0 -7 3 -2 5 12 5 14 0 19 -2 13 -5z m85 0 c-10 -2 -26 -2 -35 0 -10 3 -2 5 17 5 19 0 27 -2 18 -5z m89 1 c-3 -3 -12 -4 -19 -1 -8 3 -5 6 6 6 11 1 17 -2 13 -5z m40 0 c-3 -3 -12 -4 -19 -1 -8 3 -5 6 6 6 11 1 17 -2 13 -5z m-1053 -32 c-6 -4 -14 -14 -17 -22 -4 -10 -6 -8 -6 8 -1 15 5 22 17 22 10 0 13 -3 6 -8z m350 -20 c3 -5 -1 -9 -9 -9 -8 0 -12 4 -9 9 3 4 7 8 9 8 2 0 6 -4 9 -8z m151 -2 c3 -5 1 -10 -4 -10 -6 0 -11 5 -11 10 0 6 2 10 4 10 3 0 8 -4 11 -10z m502 -22 c-3 -7 -5 -2 -5 12 0 14 2 19 5 13 2 -7 2 -19 0 -25z m-310 0 c-3 -8 -6 -5 -6 6 -1 11 2 17 5 13 3 -3 4 -12 1 -19z m-710 -90 c-2 -13 -4 -3 -4 22 0 25 2 35 4 23 2 -13 2 -33 0 -45z m490 -30 c-2 -18 -4 -4 -4 32 0 36 2 50 4 33 2 -18 2 -48 0 -65z m825 -263 c3 -145 3 -145 -19 -145 -23 0 -23 1 -23 145 0 137 1 145 19 145 19 0 20 -9 23 -145z m-275 -272 c1 -10 4 -29 7 -43 5 -21 4 -20 -8 5 -9 17 -15 36 -16 43 0 19 16 14 17 -5z m173 -155 c0 -5 -21 -8 -46 -8 -25 0 -43 3 -41 8 3 4 24 7 46 7 23 0 41 -3 41 -7z"/>
<path d="M5557 1590 c-3 -11 -1 -20 4 -20 5 0 9 9 9 20 0 11 -2 20 -4 20 -2 0 -6 -9 -9 -20z"/>
<path d="M6750 1375 l0 -145 55 0 55 0 0 145 0 145 -55 0 -55 0 0 -145z"/>
<path d="M7120 1375 l0 -145 60 0 60 0 0 145 0 145 -60 0 -60 0 0 -145z"/>
<path d="M7250 1375 l0 -145 50 0 50 0 2 143 2 142 6 -141 5 -140 63 -3 62 -2 0 145 0 146 -120 0 -120 0 0 -145z m30 125 c0 -5 -5 -10 -11 -10 -5 0 -7 5 -4 10 3 6 8 10 11 10 2 0 4 -4 4 -10z m110 -24 c0 -3 -4 -8 -10 -11 -5 -3 -10 -1 -10 4 0 6 5 11 10 11 6 0 10 -2 10 -4z m-8 -48 c-7 -7 -12 -8 -12 -2 0 14 12 26 19 19 2 -3 -1 -11 -7 -17z"/>
<path d="M7500 1375 l0 -145 55 0 54 0 4 128 3 127 2 -127 2 -128 60 0 59 0 4 133 3 132 2 -132 2 -133 55 0 55 0 0 145 0 145 -54 0 c-34 0 -56 -5 -59 -12 -4 -10 -6 -10 -6 0 -1 8 -20 12 -60 12 -48 0 -60 -3 -64 -17 -4 -17 -5 -17 -6 0 -1 14 -11 17 -56 17 l-55 0 0 -145z m285 125 c3 -5 -1 -10 -10 -10 -9 0 -13 5 -10 10 3 6 8 10 10 10 2 0 7 -4 10 -10z"/>
<path d="M8060 1325 l0 -95 47 0 c39 0 52 -5 80 -32 l33 -32 0 127 0 127 -80 0 -80 0 0 -95z"/>
<path d="M6240 1280 l0 -50 51 0 51 0 -16 25 c-9 14 -23 36 -32 50 -9 14 -25 25 -35 25 -16 0 -19 -8 -19 -50z"/>
<path d="M6390 1260 l0 -30 150 0 150 0 0 30 0 30 -150 0 -150 0 0 -30z"/>
<path d="M6293 1223 l-53 -4 0 -140 0 -139 44 0 c26 0 46 5 49 13 4 10 6 10 6 0 1 -7 10 -13 21 -13 19 0 20 7 22 138 l2 137 6 -140 6 -140 2 143 c2 117 -1 142 -12 142 -8 0 -20 1 -28 3 -7 2 -37 2 -65 0z m44 -80 c-2 -16 -4 -5 -4 22 0 28 2 40 4 28 2 -13 2 -35 0 -50z"/>
<path d="M5332 1038 l2 -183 6 145 6 145 2 -142 2 -143 45 0 44 0 4 78 3 77 2 -77 2 -78 120 0 119 0 4 68 3 67 2 -67 2 -68 30 0 c17 0 30 4 30 9 0 6 -9 8 -20 6 -11 -2 -22 0 -25 6 -4 5 95 9 254 9 l261 0 0 80 0 80 -264 0 c-202 0 -266 -3 -269 -12 -4 -10 -6 -10 -6 0 -1 16 -241 18 -241 2 0 -6 -9 -2 -21 9 -14 13 -19 28 -16 47 4 28 4 28 6 -3 0 -18 6 -33 11 -33 6 0 10 33 10 80 l0 80 -55 0 -55 0 2 -182z m83 134 c3 -8 3 -17 0 -20 -3 -3 -5 0 -5 6 0 7 -9 12 -21 12 -11 0 -18 4 -15 8 8 14 35 10 41 -6z m-64 -15 c-10 -9 -11 -8 -5 6 3 10 9 15 12 12 3 -3 0 -11 -7 -18z m35 -6 c-4 -5 0 -12 6 -14 8 -3 6 -6 -4 -6 -10 -1 -18 6 -18 14 0 8 5 15 11 15 5 0 8 -4 5 -9z m91 -143 c-3 -8 -6 -5 -6 6 -1 11 2 17 5 13 3 -3 4 -12 1 -19z m77 14 c3 -5 -1 -9 -9 -9 -8 0 -12 4 -9 9 3 4 7 8 9 8 2 0 6 -4 9 -8z m113 -24 c-3 -7 -5 -2 -5 12 0 14 2 19 5 13 2 -7 2 -19 0 -25z m50 0 c-3 -7 -5 -2 -5 12 0 14 2 19 5 13 2 -7 2 -19 0 -25z m488 22 c3 -5 1 -10 -4 -10 -6 0 -11 5 -11 10 0 6 2 10 4 10 3 0 8 -4 11 -10z m-232 -31 c-8 -8 -13 -7 -18 2 -5 8 -4 10 3 5 7 -4 12 -2 12 5 0 7 3 9 7 6 4 -4 2 -12 -4 -18z m244 5 c-3 -3 -12 -4 -19 -1 -8 3 -5 6 6 6 11 1 17 -2 13 -5z"/>
<path d="M6414 1040 c0 -102 2 -143 3 -92 2 50 2 134 0 185 -1 50 -3 9 -3 -93z"/>
<path d="M6430 1175 l0 -45 130 0 130 0 0 45 0 45 -130 0 -130 0 0 -45z"/>
<path d="M6700 1080 c0 -87 4 -140 10 -140 6 0 10 53 10 140 0 87 -4 140 -10 140 -6 0 -10 -53 -10 -140z"/>
<path d="M6734 1040 c0 -102 2 -143 3 -92 2 50 2 134 0 185 -1 50 -3 9 -3 -93z"/>
<path d="M6750 1080 l0 -140 55 0 55 0 0 140 0 140 -55 0 -55 0 0 -140z"/>
<path d="M6870 1080 l0 -140 50 0 50 0 2 63 1 62 7 -65 c5 -50 7 -32 8 80 1 97 -2 140 -8 130 -6 -10 -10 -11 -10 -2 0 8 -17 12 -50 12 l-50 0 0 -140z m107 68 c-3 -8 -6 -5 -6 6 -1 11 2 17 5 13 3 -3 4 -12 1 -19z m0 -65 c-3 -10 -5 -4 -5 12 0 17 2 24 5 18 2 -7 2 -21 0 -30z"/>
<path d="M7001 1080 c0 -114 3 -140 15 -140 11 0 14 25 14 140 0 118 -2 140 -15 140 -13 0 -15 -21 -14 -140z"/>
<path d="M7044 1080 c0 -80 2 -112 3 -72 2 39 2 105 0 145 -1 39 -3 7 -3 -73z"/>
<path d="M7060 1080 l0 -140 89 0 c62 0 91 4 94 13 4 10 6 10 6 0 1 -9 18 -13 51 -13 l50 0 0 140 0 140 -50 0 -49 0 -4 -127 -3 -128 -2 128 -2 127 -60 0 -59 0 -4 -82 -3 -83 -2 83 c-2 80 -3 82 -27 82 l-25 0 0 -140z m57 -62 c-3 -8 -6 -5 -6 6 -1 11 2 17 5 13 3 -3 4 -12 1 -19z"/>
<path d="M7364 1080 c0 -80 2 -112 3 -72 2 39 2 105 0 145 -1 39 -3 7 -3 -73z"/>
<path d="M7381 1080 l0 -140 55 0 54 0 0 140 0 140 -55 0 -55 0 1 -140z"/>
<path d="M7500 1080 l0 -140 55 0 55 0 0 140 0 140 -55 0 -55 0 0 -140z"/>
<path d="M7620 1080 l0 -140 25 0 25 0 2 138 c2 126 3 121 8 -68 l6 -205 2 208 2 207 -35 0 -35 0 0 -140z"/>
<path d="M7700 1080 l0 -140 80 0 80 0 0 140 0 140 -55 0 -54 0 -4 -127 -3 -128 -2 128 c-2 120 -3 127 -22 127 -19 0 -20 -7 -20 -140z"/>
<path d="M7870 1080 c0 -125 8 -166 23 -127 4 10 6 10 6 0 1 -9 17 -13 46 -13 l45 0 0 140 0 140 -60 0 -60 0 0 -140z m27 -82 c-2 -13 -4 -5 -4 17 -1 22 1 32 4 23 2 -10 2 -28 0 -40z m30 -30 c-3 -8 -6 -5 -6 6 -1 11 2 17 5 13 3 -3 4 -12 1 -19z"/>
<path d="M8004 1080 c0 -80 2 -112 3 -72 2 39 2 105 0 145 -1 39 -3 7 -3 -73z"/>
<path d="M8020 1080 l0 -140 100 0 100 0 0 108 0 108 -33 32 c-27 27 -41 32 -79 32 -36 0 -48 -4 -51 -17 -4 -17 -5 -17 -6 0 0 9 -8 17 -16 17 -13 0 -15 -22 -15 -140z m37 78 c-3 -8 -6 -5 -6 6 -1 11 2 17 5 13 3 -3 4 -12 1 -19z m-8 -202 c-9 -8 -10 -6 -5 7 3 10 7 55 8 100 l2 82 3 -89 c3 -60 0 -93 -8 -100z"/>
<path d="M8232 1038 c3 -92 5 -103 21 -100 9 2 17 -2 17 -7 0 -6 -21 -10 -47 -10 -27 1 -83 1 -125 0 l-78 -1 0 -30 0 -30 140 0 140 0 0 29 c0 16 -6 32 -12 35 -10 5 -10 7 0 12 8 4 12 35 12 105 l0 99 -35 0 -36 0 3 -102z"/>
<path d="M8332 1038 c3 -95 4 -103 23 -103 17 0 21 8 24 50 l5 50 5 -50 c5 -45 8 -50 31 -49 14 0 49 1 78 2 l52 2 0 100 0 100 -110 0 -111 0 3 -102z"/>
<path d="M8561 1043 c1 -106 10 -141 20 -78 l6 40 2 -42 1 -43 -130 0 -130 0 0 -30 0 -30 135 0 135 0 0 127 c0 143 7 161 12 33 l4 -85 39 1 c33 0 41 5 46 25 6 23 6 23 11 -6 3 -16 5 20 5 80 -1 109 -1 110 -7 30 l-6 -80 -2 78 -2 77 -70 0 -71 0 2 -97z m26 -25 c-3 -8 -6 -5 -6 6 -1 11 2 17 5 13 3 -3 4 -12 1 -19z"/>
<path d="M8730 1040 c0 -82 3 -100 15 -101 8 0 35 0 60 0 25 0 52 0 60 0 12 1 15 19 15 101 l0 100 -75 0 -75 0 0 -100z m40 -74 c0 -3 -4 -8 -10 -11 -5 -3 -10 -1 -10 4 0 6 5 11 10 11 6 0 10 -2 10 -4z"/>
<path d="M8910 1000 l0 -140 30 0 30 0 0 140 0 140 -30 0 -30 0 0 -140z"/>
<path d="M6430 1030 l0 -90 130 0 130 0 0 90 0 90 -130 0 -130 0 0 -90z"/>
<path d="M8893 935 c0 -44 2 -61 4 -37 2 23 2 59 0 80 -2 20 -4 1 -4 -43z"/>
<path d="M6240 895 l0 -35 80 0 80 0 0 35 0 35 -80 0 -80 0 0 -35z"/>
<path d="M6750 893 l0 -33 140 0 140 0 0 33 0 34 -140 -1 -140 -1 0 -32z"/>
<path d="M7043 870 c0 -36 2 -50 4 -32 2 17 2 47 0 65 -2 17 -4 3 -4 -33z"/>
<path d="M7060 895 l0 -35 145 0 145 0 0 34 0 33 -145 1 -145 2 0 -35z"/>
<path d="M7363 895 c0 -22 2 -30 4 -17 2 12 2 30 0 40 -3 9 -5 -1 -4 -23z"/>
<path d="M7390 922 c-5 -2 -10 -17 -10 -33 l0 -29 145 0 145 0 0 33 0 32 -135 0 c-74 0 -139 -1 -145 -3z"/>
<path d="M7704 921 c-2 -2 -4 -17 -4 -33 l0 -28 145 0 145 0 0 30 c0 30 0 30 -57 30 -32 1 -96 2 -141 3 -46 1 -86 0 -88 -2z"/>
<path d="M8658 922 c-46 -3 -48 -5 -48 -33 l0 -29 135 0 135 0 0 29 0 30 -87 3 c-49 2 -109 2 -135 0z"/>
<path d="M8003 860 c0 -36 2 -50 4 -32 2 17 2 47 0 65 -2 17 -4 3 -4 -33z"/>
<path d="M5770 870 c0 -6 38 -10 95 -10 57 0 95 4 95 10 0 6 -38 10 -95 10 -57 0 -95 -4 -95 -10z"/>
<path d="M5975 870 c8 -12 215 -14 215 -1 0 5 -50 9 -111 10 -75 1 -109 -1 -104 -9z"/>
<path d="M6200 870 c0 -5 7 -10 15 -10 8 0 15 5 15 10 0 6 -7 10 -15 10 -8 0 -15 -4 -15 -10z"/>
<path d="M5332 825 c0 -16 2 -22 5 -12 2 9 2 23 0 30 -3 6 -5 -1 -5 -18z"/>
<path d="M6412 825 c0 -16 2 -22 5 -12 2 9 2 23 0 30 -3 6 -5 -1 -5 -18z"/>
<path d="M6730 828 c0 -19 2 -20 10 -8 6 10 10 11 10 3 0 -10 35 -13 140 -13 133 0 140 1 140 20 0 19 -7 20 -150 20 -149 0 -150 0 -150 -22z"/>
<path d="M7060 830 c0 -19 7 -20 145 -20 138 0 145 1 145 20 0 19 -7 20 -145 20 -138 0 -145 -1 -145 -20z"/>
<path d="M7362 830 c0 -14 2 -19 5 -12 2 6 2 18 0 25 -3 6 -5 1 -5 -13z"/>
<path d="M7380 830 c0 -19 7 -20 145 -20 138 0 145 1 145 20 0 19 -7 20 -145 20 -138 0 -145 -1 -145 -20z"/>
<path d="M7700 832 c0 -17 12 -20 98 -25 53 -4 118 -7 145 -7 44 0 47 2 47 25 l0 25 -145 0 c-134 0 -145 -1 -145 -18z"/>
<path d="M8020 825 l0 -25 140 0 140 0 0 25 0 25 -140 0 -140 0 0 -25z"/>
<path d="M8311 822 l-1 -33 -255 3 -255 3 0 -45 c0 -26 -6 -52 -12 -60 -9 -9 -5 -9 12 2 14 9 25 22 24 30 -1 10 10 14 35 14 188 -2 531 6 527 13 -3 4 5 18 18 30 22 21 30 22 249 21 l227 0 0 25 0 24 -275 0 c-253 0 -275 -1 -276 -17 0 -14 -2 -14 -9 3 -7 17 -9 15 -9 -13z m24 -52 c8 -13 -5 -13 -25 0 -13 8 -13 10 2 10 9 0 20 -4 23 -10z"/>
<path d="M5590 719 c0 -5 4 -8 8 -5 5 3 22 1 38 -4 26 -8 25 -8 -18 -9 -26 -1 -50 4 -53 9 -3 6 -28 10 -55 10 -38 0 -55 -5 -76 -25 -15 -14 -33 -25 -40 -25 -8 0 -14 -4 -14 -10 0 -5 -11 -10 -25 -10 -33 0 -35 -37 -2 -49 27 -10 53 -39 43 -48 -3 -3 -6 -1 -6 6 0 8 -7 11 -15 7 -10 -3 -15 1 -15 12 -1 15 -2 15 -12 -2 -6 -11 -8 -39 -5 -68 7 -59 44 -113 91 -134 27 -11 -6 -13 -262 -14 l-293 0 3 -32 3 -31 2235 0 2235 1 3 31 3 31 -287 0 -287 0 34 23 c56 37 79 81 79 148 0 50 -3 59 -17 58 -11 0 -13 -3 -5 -6 20 -8 14 -22 -7 -16 -25 6 -16 31 12 35 22 3 39 48 18 48 -21 0 -26 2 -53 21 -14 10 -31 19 -36 19 -5 0 -13 8 -16 17 -6 15 -8 15 -16 3 -7 -10 -10 -11 -10 -2 0 8 -16 12 -45 12 -36 0 -45 -4 -46 -17 0 -10 -3 -13 -5 -8 -5 13 -84 7 -84 -6 0 -5 -5 -9 -11 -9 -5 0 -7 5 -4 10 4 6 -5 10 -20 10 -20 0 -26 -4 -22 -14 4 -10 1 -13 -8 -10 -24 10 -4 34 29 34 17 0 38 5 46 10 10 6 -71 10 -237 10 -150 0 -253 -4 -253 -9 0 -5 10 -12 23 -14 12 -3 -4 -5 -36 -4 -44 0 -57 4 -53 14 4 10 -8 13 -49 13 -38 0 -55 -4 -55 -13 0 -12 -106 -67 -130 -67 -20 0 -6 -45 15 -48 30 -6 38 -18 26 -39 -11 -17 -11 -17 -9 1 2 10 -3 21 -9 23 -19 7 -17 -69 3 -115 17 -42 59 -90 89 -102 11 -5 -343 -9 -786 -9 -443 -1 -828 -3 -855 -6 -46 -4 -42 -1 13 11 33 6 94 63 109 101 17 39 18 109 3 118 -5 4 -20 -1 -32 -11 -20 -17 -19 -16 2 8 13 15 29 24 37 21 10 -3 14 3 14 20 0 22 -7 27 -54 42 -30 10 -57 24 -60 32 -4 9 -13 13 -22 9 -11 -4 -15 -2 -11 6 3 10 -10 13 -48 13 -45 0 -51 -2 -42 -16 20 -33 1 -49 -57 -49 -48 0 -54 2 -58 24 -3 13 0 23 6 23 30 0 46 4 46 13 0 6 -104 9 -270 9 -181 1 -270 -3 -270 -10z m190 -20 c0 -6 -7 -9 -15 -6 -8 4 -17 2 -20 -2 -8 -14 -65 -31 -65 -20 0 5 7 9 15 9 9 0 12 6 9 15 -5 12 3 15 35 15 23 0 41 -5 41 -11z m245 1 c-3 -5 -1 -10 4 -10 6 0 11 5 11 10 0 6 5 10 11 10 5 0 7 -5 3 -11 -3 -6 0 -15 7 -20 11 -7 9 -9 -6 -9 -12 0 -26 5 -33 12 -6 6 -55 13 -114 15 -145 6 -145 11 0 12 80 1 121 -3 117 -9z m2173 -2 c9 -9 12 -9 12 -1 0 9 35 11 120 10 66 -1 120 -6 120 -10 0 -5 -48 -7 -106 -4 -81 3 -113 1 -135 -10 -17 -8 -33 -12 -36 -9 -4 3 -1 6 5 6 19 0 14 18 -5 23 -14 4 -14 5 -2 6 8 0 20 -4 27 -11z m302 0 c0 -4 -7 -8 -15 -8 -8 0 -15 4 -15 8 0 5 7 9 15 9 8 0 15 -4 15 -9z m-2830 -23 c0 -11 -13 -15 -54 -15 -30 0 -57 3 -59 8 -3 4 20 5 50 4 39 -3 53 -1 49 7 -4 6 -2 11 3 11 6 0 11 -7 11 -15z m2490 -6 c0 -5 -24 -9 -54 -9 -44 0 -55 -4 -59 -17 -3 -12 -5 -10 -6 7 -1 24 1 25 49 22 33 -3 50 0 50 8 0 6 5 8 10 5 6 -3 10 -10 10 -16z m-2160 -8 c0 -3 -16 -6 -35 -6 -37 0 -48 11 -17 17 20 5 52 -2 52 -11z m2679 -3 c0 -13 -3 -17 -6 -10 -3 7 -26 13 -56 14 l-52 1 55 7 c30 4 56 7 58 8 1 1 2 -8 1 -20z m-3212 -20 c-3 -7 -5 -2 -5 12 0 14 2 19 5 13 2 -7 2 -19 0 -25z m350 12 c3 -10 2 -11 -4 -4 -4 7 -19 14 -33 17 -22 4 -21 5 4 4 17 -1 31 -9 33 -17z m2463 -37 l0 -33 79 0 80 0 4 33 4 32 1 -37 2 -37 -90 -3 -90 -3 0 43 c0 33 -4 42 -17 42 -15 0 -16 2 -3 10 19 12 30 -5 30 -47z m194 51 c9 -3 16 -11 16 -17 0 -7 -4 -7 -12 1 -15 15 -48 16 -48 2 0 -6 -26 -9 -62 -8 l-63 2 58 3 c31 2 57 8 57 13 0 11 30 13 54 4z m-2592 -84 c67 0 79 2 74 15 -3 8 -1 15 4 15 6 0 10 -9 10 -20 0 -19 -7 -20 -90 -20 l-90 0 2 38 c1 36 1 36 5 5 l4 -33 81 0z m105 28 c-3 -7 -5 -2 -5 12 0 14 2 19 5 13 2 -7 2 -19 0 -25z m2258 10 c6 -4 2 -8 -7 -8 -10 0 -18 7 -18 17 0 9 3 12 8 7 4 -5 12 -12 17 -16z m-2485 2 c8 -5 11 -10 5 -10 -5 0 -17 5 -25 10 -8 5 -10 10 -5 10 6 0 17 -5 25 -10z m2750 0 c0 -5 -4 -10 -10 -10 -5 0 -10 5 -10 10 0 6 5 10 10 10 6 0 10 -4 10 -10z m-583 -6 c-3 -3 -12 -4 -19 -1 -8 3 -5 6 6 6 11 1 17 -2 13 -5z m110 0 c-3 -3 -12 -4 -19 -1 -8 3 -5 6 6 6 11 1 17 -2 13 -5z m-2517 -8 c0 -2 -9 -6 -20 -9 -11 -3 -18 -1 -14 4 5 9 34 13 34 5z m3203 -3 c-7 -2 -21 -2 -30 0 -10 3 -4 5 12 5 17 0 24 -2 18 -5z m75 0 c-10 -2 -26 -2 -35 0 -10 3 -2 5 17 5 19 0 27 -2 18 -5z m-3328 -29 c0 -2 -7 -4 -15 -4 -8 0 -15 4 -15 10 0 5 7 7 15 4 8 -4 15 -8 15 -10z m40 6 c0 -5 -5 -10 -11 -10 -5 0 -7 5 -4 10 3 6 8 10 11 10 2 0 4 -4 4 -10z m3240 0 c0 -5 -4 -10 -10 -10 -5 0 -10 5 -10 10 0 6 5 10 10 10 6 0 10 -4 10 -10z m50 -5 c0 -1 -9 -5 -19 -8 -13 -3 -18 -1 -14 9 4 10 33 10 33 -1z m-3047 -2 c-13 -2 -23 -11 -23 -19 0 -8 -4 -14 -10 -14 -14 0 -12 27 3 33 6 3 21 5 32 5 17 -1 16 -1 -2 -5z m254 1 c-3 -3 -12 -4 -19 -1 -8 3 -5 6 6 6 11 1 17 -2 13 -5z m2003 2 c0 -9 -30 -14 -35 -6 -4 6 3 10 14 10 12 0 21 -2 21 -4z m248 -43 c2 -26 -1 -43 -7 -43 -16 0 -13 -32 5 -58 14 -20 24 -22 104 -22 99 0 120 10 120 61 0 19 5 29 15 29 10 0 15 11 15 35 0 26 4 35 16 35 13 0 14 -3 4 -15 -12 -14 -5 -55 10 -55 4 0 10 -13 12 -28 4 -26 2 -28 -24 -24 -20 3 -28 0 -28 -10 0 -11 14 -15 55 -16 30 0 55 3 55 7 0 4 -7 22 -16 40 -9 18 -13 35 -10 38 3 4 6 1 6 -6 0 -7 5 -9 12 -5 7 4 8 3 4 -4 -10 -17 18 -65 59 -101 l36 -31 -342 0 -342 0 40 29 c24 18 46 45 56 70 9 23 21 41 27 41 5 0 1 -16 -10 -35 -11 -20 -20 -38 -20 -40 0 -3 26 -3 58 -2 56 3 78 19 35 25 -17 2 -23 10 -23 27 0 13 5 27 11 31 6 3 9 19 7 35 -5 30 4 39 37 36 16 -2 21 -10 23 -44z m239 41 c-3 -3 -12 -4 -19 -1 -8 3 -5 6 6 6 11 1 17 -2 13 -5z m-2804 -11 c-7 -2 -19 -2 -25 0 -7 3 -2 5 12 5 14 0 19 -2 13 -5z m443 -9 c18 -15 18 -15 -3 -5 -12 6 -38 11 -57 11 -33 0 -36 -2 -36 -30 0 -16 5 -30 10 -30 6 0 10 -11 10 -25 0 -20 -5 -25 -26 -25 -16 0 -24 -5 -22 -12 3 -8 26 -14 61 -15 57 -2 67 3 45 25 -6 6 -9 14 -6 17 3 3 15 -10 27 -29 12 -19 36 -44 54 -55 l32 -20 -348 -3 c-191 -2 -347 -1 -347 2 0 3 18 16 40 29 21 13 44 37 51 53 6 16 16 25 22 21 8 -5 7 -8 -1 -11 -7 -2 -12 -10 -12 -18 0 -10 14 -14 55 -13 39 1 55 6 55 15 0 8 -11 14 -25 14 -31 0 -33 24 -5 60 16 20 20 22 20 8 0 -10 7 -18 15 -18 10 0 15 -10 15 -27 0 -51 24 -63 120 -63 106 0 113 6 107 87 -2 32 -2 43 0 26 4 -35 9 -38 32 -24 9 6 12 20 9 40 -5 31 -4 31 42 31 27 0 54 -7 66 -16z m2037 9 c-7 -2 -19 -2 -25 0 -7 3 -2 5 12 5 14 0 19 -2 13 -5z m420 0 c-7 -2 -21 -2 -30 0 -10 3 -4 5 12 5 17 0 24 -2 18 -5z m-2965 -14 c-10 -5 -18 -18 -19 -27 0 -11 -2 -12 -6 -4 -6 15 14 42 31 42 6 0 3 -5 -6 -11z m304 -1 c-9 -9 -15 -9 -24 0 -9 9 -7 12 12 12 19 0 21 -3 12 -12z m35 -50 c-2 -13 -4 -3 -4 22 0 25 2 35 4 23 2 -13 2 -33 0 -45z m2168 51 c11 -16 -5 -25 -16 -9 -8 13 -10 13 -19 0 -5 -8 -10 -10 -10 -4 0 24 33 33 45 13z m312 -21 c-3 -7 -5 -2 -5 12 0 14 2 19 5 13 2 -7 2 -19 0 -25z m309 20 c4 -7 4 -10 -1 -6 -4 4 -14 3 -22 -3 -13 -11 -19 2 -6 14 10 11 21 8 29 -5z m-3286 -2 c0 -3 -4 -8 -10 -11 -5 -3 -10 -1 -10 4 0 6 5 11 10 11 6 0 10 -2 10 -4z m297 -18 c-3 -8 -6 -5 -6 6 -1 11 2 17 5 13 3 -3 4 -12 1 -19z m455 0 c-7 -7 -12 -8 -12 -2 0 14 12 26 19 19 2 -3 -1 -11 -7 -17z m78 -1 c0 -11 -1 -18 -3 -16 -1 2 -8 11 -15 20 -9 13 -9 16 3 16 8 0 15 -9 15 -20z m1677 17 c-3 -3 -12 -4 -19 -1 -8 3 -5 6 6 6 11 1 17 -2 13 -5z m27 -10 c3 -8 2 -12 -4 -9 -6 3 -10 10 -10 16 0 14 7 11 14 -7z m363 10 c-3 -3 -12 -4 -19 -1 -8 3 -5 6 6 6 11 1 17 -2 13 -5z m230 -16 c-3 -8 -6 -5 -6 6 -1 11 2 17 5 13 3 -3 4 -12 1 -19z m290 -15 c-3 -10 -5 -4 -5 12 0 17 2 24 5 18 2 -7 2 -21 0 -30z m-2937 2 c0 -10 -9 -15 -27 -14 l-28 2 25 6 c17 4 1 8 -45 12 l-70 5 73 2 c58 2 72 -1 72 -13z m1897 -7 c-3 -8 -6 -5 -6 6 -1 11 2 17 5 13 3 -3 4 -12 1 -19z m491 15 c-10 -2 -26 -2 -35 0 -10 3 -2 5 17 5 19 0 27 -2 18 -5z m-2674 -35 c7 -5 4 -8 -6 -8 -12 0 -18 7 -17 23 0 15 2 17 6 7 3 -8 11 -18 17 -22z m533 10 c-3 -8 -6 -5 -6 6 -1 11 2 17 5 13 3 -3 4 -12 1 -19z m2440 0 c-3 -8 -6 -5 -6 6 -1 11 2 17 5 13 3 -3 4 -12 1 -19z m-3270 -10 c-3 -8 -6 -5 -6 6 -1 11 2 17 5 13 3 -3 4 -12 1 -19z m103 12 c0 -5 -4 -10 -10 -10 -5 0 -10 5 -10 10 0 6 5 10 10 10 6 0 10 -4 10 -10z m70 1 c0 -5 -10 -11 -22 -14 -22 -6 -22 -6 -4 8 23 17 26 18 26 6z m333 2 c-13 -2 -33 -2 -45 0 -13 2 -3 4 22 4 25 0 35 -2 23 -4z m2077 -3 c0 -5 -4 -10 -10 -10 -5 0 -10 5 -10 10 0 6 5 10 10 10 6 0 10 -4 10 -10z m80 6 c0 -3 -4 -8 -10 -11 -5 -3 -10 -1 -10 4 0 6 5 11 10 11 6 0 10 -2 10 -4z m358 -3 c-10 -2 -26 -2 -35 0 -10 3 -2 5 17 5 19 0 27 -2 18 -5z m59 -15 c-3 -8 -6 -5 -6 6 -1 11 2 17 5 13 3 -3 4 -12 1 -19z m303 13 c0 -6 -4 -13 -10 -16 -5 -3 -10 1 -10 9 0 9 5 16 10 16 6 0 10 -4 10 -9z m87 -23 c-3 -7 -5 -2 -5 12 0 14 2 19 5 13 2 -7 2 -19 0 -25z m-47 -8 c5 0 11 5 13 10 3 6 4 5 3 -2 -1 -7 -14 -14 -29 -15 -24 -2 -25 0 -14 18 10 16 13 17 15 4 2 -8 7 -15 12 -15z m-3234 5 c-3 -8 -1 -15 5 -15 6 0 17 -6 24 -14 12 -12 12 -16 -1 -26 -12 -11 -13 -10 -8 4 7 18 3 19 -103 16 -65 -2 -73 0 -73 17 0 11 3 14 8 7 4 -6 33 -12 64 -13 48 -2 59 1 70 18 15 24 23 27 14 6z m817 -27 c-17 -29 -24 -33 -63 -34 l-45 -1 43 4 c37 4 45 9 59 38 9 19 19 33 21 30 2 -2 -4 -19 -15 -37z m1925 -5 c14 -12 14 -13 0 -13 -17 0 -29 21 -27 48 1 13 3 12 6 -3 3 -11 12 -26 21 -32z m132 43 c0 -9 -30 -14 -35 -6 -4 6 3 10 14 10 12 0 21 -2 21 -4z m271 -19 c-10 -9 -11 -8 -5 6 3 10 9 15 12 12 3 -3 0 -11 -7 -18z m162 -35 c-11 -14 -26 -27 -34 -29 -8 -3 -6 1 4 7 12 8 16 19 13 33 -3 12 -3 16 0 9 8 -18 24 -5 25 21 1 19 2 19 6 3 3 -10 -4 -30 -14 -44z m-2663 18 c5 0 11 5 13 10 3 6 4 5 3 -2 -4 -18 -37 -23 -47 -6 -14 22 -10 31 7 14 8 -9 19 -16 24 -16z m-796 -30 l21 -25 -27 24 c-16 14 -28 32 -27 40 0 14 1 14 6 1 3 -8 15 -26 27 -40z m566 30 c0 -18 -6 -20 -67 -18 l-68 2 63 3 c46 3 62 8 62 18 0 8 2 15 5 15 3 0 5 -9 5 -20z m374 5 c4 -12 -3 -15 -37 -14 -31 0 -37 2 -22 8 11 5 26 6 34 3 9 -3 12 -1 7 6 -4 7 -3 12 2 12 6 0 12 -7 16 -15z m-426 -2 c-21 -2 -55 -2 -75 0 -21 2 -4 4 37 4 41 0 58 -2 38 -4z m2157 -3 c-3 -5 -34 -9 -68 -8 l-62 1 65 7 c36 4 66 7 68 8 2 1 0 -2 -3 -8z m343 3 c-21 -2 -57 -2 -80 0 -24 2 -7 4 37 4 44 0 63 -2 43 -4z m307 -10 c-53 -10 -65 -14 -61 -22 3 -4 20 -6 38 -5 l33 3 -35 -9 c-27 -7 -39 -5 -50 6 -11 11 -11 14 -1 14 7 0 11 6 8 13 -3 9 8 11 42 8 25 -3 37 -6 26 -8z m100 7 c-3 -5 -23 -9 -43 -9 l-37 2 40 7 c22 4 41 8 43 9 2 0 0 -3 -3 -9z m-892 -7 c-7 -2 -21 -2 -30 0 -10 3 -4 5 12 5 17 0 24 -2 18 -5z m-2116 -9 c-3 -3 -12 -4 -19 -1 -8 3 -5 6 6 6 11 1 17 -2 13 -5z m2083 -19 c11 -13 10 -14 -4 -9 -9 3 -16 10 -16 15 0 13 6 11 20 -6z m-2373 -2 c-20 -2 -52 -2 -70 0 -17 2 0 4 38 4 39 0 53 -2 32 -4z m711 0 c-10 -2 -28 -2 -40 0 -13 2 -5 4 17 4 22 1 32 -1 23 -4z m1815 0 c-7 -2 -21 -2 -30 0 -10 3 -4 5 12 5 17 0 24 -2 18 -5z m724 1 c-3 -3 -12 -4 -19 -1 -8 3 -5 6 6 6 11 1 17 -2 13 -5z"/>
<path d="M8210 535 c0 -28 4 -35 20 -35 16 0 20 7 20 35 0 28 -4 35 -20 35 -16 0 -20 -7 -20 -35z"/>
<path d="M8633 723 c9 -2 23 -2 30 0 6 3 -1 5 -18 5 -16 0 -22 -2 -12 -5z"/>
<path d="M6123 698 c-49 -13 -40 -28 18 -28 42 0 50 3 47 17 -4 20 -22 23 -65 11z"/>
<path d="M6551 231 c-9 -6 -16 -33 -19 -71 -6 -79 11 -101 75 -98 l43 1 0 44 c0 41 -1 43 -30 43 -16 0 -30 -5 -30 -11 0 -6 7 -8 16 -5 12 5 15 0 12 -21 -4 -34 -36 -43 -55 -17 -20 27 -16 88 7 115 l20 24 20 -24 c22 -26 41 -21 24 7 -12 19 -62 27 -83 13z"/>
<path d="M6680 150 c0 -108 18 -122 22 -17 l3 72 19 -72 c22 -90 40 -95 56 -15 19 90 29 96 30 15 0 -42 4 -73 10 -73 6 0 10 37 10 90 0 82 -2 90 -19 90 -15 0 -22 -14 -37 -72 l-17 -73 -18 50 c-10 28 -18 60 -18 73 -1 15 -7 22 -21 22 -19 0 -20 -7 -20 -90z"/>
<path d="M6869 165 c-1 -41 -2 -81 -3 -87 -1 -8 15 -14 41 -16 52 -4 73 22 73 90 0 60 -24 88 -75 88 l-35 0 -1 -75z m85 12 c13 -53 -1 -91 -37 -95 l-27 -3 0 71 0 71 28 -3 c22 -2 29 -10 36 -41z"/>
<path d="M7081 226 c-18 -22 -24 -107 -9 -136 11 -21 21 -25 61 -26 l47 -2 0 50 c0 42 -3 49 -16 44 -9 -3 -23 -6 -32 -7 -12 0 -10 -3 6 -10 36 -14 26 -54 -13 -54 l-30 0 0 65 c0 60 2 65 23 68 14 2 29 -4 37 -15 17 -24 30 -11 15 16 -13 25 -71 29 -89 7z"/>
<path d="M7210 150 c0 -53 4 -90 10 -90 6 0 10 15 10 34 0 31 4 35 33 41 43 10 57 22 57 54 0 38 -17 51 -67 51 l-43 0 0 -90z m88 43 c2 -14 -4 -26 -18 -33 -32 -17 -48 -7 -42 30 4 27 8 31 31 28 18 -2 27 -10 29 -25z"/>
<path d="M7367 178 c-19 -35 -32 -66 -30 -70 2 -5 17 -8 34 -8 22 0 29 -5 29 -20 0 -11 5 -20 10 -20 6 0 10 9 10 19 0 11 6 21 13 24 9 3 9 7 -1 20 -8 9 -13 24 -12 34 5 39 0 83 -9 83 -5 0 -25 -28 -44 -62z m33 -23 c0 -28 -4 -35 -20 -35 -11 0 -20 3 -20 6 0 7 33 64 37 64 2 0 3 -16 3 -35z"/>
<path d="M7476 218 c-18 -25 -21 -94 -6 -132 7 -20 17 -26 38 -26 15 0 33 5 40 12 15 15 16 122 2 149 -14 26 -55 24 -74 -3z m62 -64 c3 -63 -11 -91 -37 -75 -34 21 -19 146 17 139 13 -3 18 -15 20 -64z"/>
<path d="M7682 228 c-14 -14 -16 -48 -3 -48 5 0 11 9 14 21 7 27 41 22 45 -7 2 -14 -12 -39 -38 -69 -22 -25 -38 -51 -35 -56 8 -12 105 -12 105 0 0 6 -19 11 -42 13 l-43 3 38 41 c52 57 48 114 -8 114 -12 0 -26 -5 -33 -12z"/>
<path d="M7585 130 c3 -5 17 -10 30 -10 13 0 27 5 30 10 4 6 -8 10 -30 10 -22 0 -34 -4 -30 -10z"/>
</g>
</svg>