<svg xmlns="http://www.w3.org/2000/svg" viewBox="23.70 526.10 444.30 242.60">
<g transform="translate(0.000000,768.000000) scale(0.100000,-0.100000)" fill="currentColor" stroke="none">
<path d="M3283 2352 c-32 -20 -43 -110 -19 -166 15 -36 53 -53 84 -38 9 5 23 7 30 5 9 -3 12 11 12 51 l0 56 -35 0 c-19 0 -35 -4 -35 -10 0 -5 9 -10 20 -10 26 0 35 -22 20 -49 -14 -27 -56 -28 -70 -2 -5 11 -10 41 -10 66 0 25 5 55 10 66 14 26 60 26 67 -1 3 -11 12 -20 19 -20 18 0 18 10 -2 38 -15 22 -66 30 -91 14z"/>
<path d="M3430 2255 c0 -59 4 -105 9 -105 6 0 11 19 13 42 3 40 5 43 38 48 52 9 60 17 60 60 0 46 -18 60 -79 60 l-41 0 0 -105z m92 60 c14 -32 -4 -55 -43 -55 -27 0 -29 3 -29 40 0 38 2 40 30 40 23 0 33 -6 42 -25z"/>
<path d="M3592 2348 c-15 -15 -16 -48 -2 -48 6 0 10 6 10 14 0 17 24 28 45 20 21 -9 19 -42 -5 -56 -25 -16 -25 -25 -1 -33 25 -8 36 -41 21 -60 -18 -22 -51 -18 -57 5 -6 22 -33 28 -33 7 0 -27 27 -50 60 -50 20 0 38 7 46 18 17 22 18 67 4 81 -8 8 -7 19 1 37 10 22 9 31 -5 52 -18 27 -63 34 -84 13z"/>
<path d="M3736 2344 c-20 -19 -22 -152 -3 -176 21 -28 54 -31 76 -9 29 29 31 159 3 184 -23 21 -56 22 -76 1z m64 -23 c15 -29 12 -114 -4 -137 -12 -15 -18 -17 -33 -8 -21 13 -30 111 -13 144 14 25 36 26 50 1z"/>
<path d="M1000 1757 l0 -35 38 9 c52 12 62 11 62 -6 0 -8 9 -15 20 -15 11 0 20 7 20 16 0 10 7 14 23 12 18 -2 23 2 25 27 2 19 0 25 -6 17 -9 -13 -150 -11 -172 3 -6 4 -10 -7 -10 -28z"/>
<path d="M3280 1740 l0 -30 144 0 c136 0 145 1 151 20 3 11 3 24 0 30 -4 6 -64 10 -151 10 l-144 0 0 -30z"/>
<path d="M3600 1738 l0 -28 145 0 145 0 0 28 0 27 -145 0 -145 0 0 -27z"/>
<path d="M3914 1755 c-16 -41 -1 -45 151 -45 l145 0 0 24 c0 22 -5 23 -77 30 -134 11 -213 8 -219 -9z"/>
<path d="M2258 1743 c-27 -9 -48 -20 -48 -24 0 -5 36 -9 81 -9 51 0 78 4 74 10 -3 6 -12 10 -20 10 -7 0 -15 7 -19 15 -7 18 -8 18 -68 -2z"/>
<path d="M1855 1738 c-93 -9 -136 -18 -129 -29 3 -5 -9 -9 -25 -9 l-31 0 0 -180 c0 -174 1 -180 20 -180 13 0 31 -16 50 -47 l30 -47 -2 -150 -2 -151 -3 137 c-3 132 -4 137 -26 141 l-22 4 23 2 c28 1 28 5 -5 57 -43 67 -83 55 -69 -20 4 -21 14 -37 24 -39 12 -3 11 -5 -6 -6 -23 -1 -23 -2 -21 -141 l1 -140 74 0 74 0 2 58 1 57 7 -60 c5 -45 7 -23 8 85 1 97 -2 140 -8 130 -6 -9 -10 -10 -10 -3 0 6 -8 14 -17 16 -17 4 -17 5 0 6 15 1 17 14 17 116 l0 115 160 0 160 0 0 -115 c0 -108 1 -115 20 -115 18 0 20 8 23 148 l3 147 2 -147 2 -148 55 0 55 0 2 123 2 122 6 -120 5 -120 65 0 65 -1 5 121 6 120 2 -122 2 -123 35 0 35 0 2 -212 c1 -155 3 -190 8 -128 3 47 7 77 8 68 1 -10 9 -18 17 -18 13 0 15 22 15 140 0 115 -3 140 -14 140 -9 0 -16 -13 -19 -32 -4 -32 -4 -32 -5 5 -2 31 1 37 18 37 19 0 20 7 20 140 0 138 0 140 -22 141 -15 1 -10 4 12 8 35 7 57 2 33 -6 -10 -3 -13 -42 -13 -144 l0 -139 55 0 55 0 0 140 c0 87 -4 140 -10 140 -5 0 -10 4 -10 9 0 5 12 8 28 8 15 0 21 -2 15 -4 -10 -4 -13 -43 -13 -149 l0 -144 55 0 55 0 0 147 c0 80 3 144 6 141 3 -4 5 -70 5 -147 -1 -174 17 -193 22 -23 l3 117 2 -117 2 -118 55 0 55 0 0 140 c0 124 -2 140 -17 140 -9 0 -13 3 -9 8 11 10 86 11 86 0 0 -5 -10 -8 -22 -6 -23 3 -23 2 -26 -140 l-3 -143 58 3 58 3 6 110 5 110 2 -113 2 -113 58 3 57 3 5 75 c3 41 5 -42 4 -185 0 -148 1 -182 3 -77 l3 182 95 0 94 0 4 103 3 102 2 -102 2 -103 70 0 70 0 3 -187 2 -188 3 188 2 187 31 0 c17 0 39 -5 50 -10 18 -10 19 -6 19 105 0 63 3 115 8 115 4 0 6 -57 4 -126 -4 -153 1 -164 85 -164 l53 0 0 134 c0 98 -3 136 -12 139 -8 3 -6 6 4 6 16 1 18 -14 20 -136 l3 -138 73 -3 c63 -3 72 -1 73 15 0 16 1 16 9 -2 7 -17 9 -14 10 15 l2 35 7 -30 c6 -29 8 -30 74 -33 l67 -3 2 133 2 133 6 -145 c3 -80 7 -138 8 -130 1 11 14 15 40 15 l37 0 5 -150 c4 -131 6 -112 10 145 l5 295 3 -292 2 -293 50 0 c39 0 48 3 44 14 -3 8 -22 17 -42 19 -37 4 -37 4 6 5 l42 2 0 49 0 50 -37 4 -38 4 37 1 37 2 0 119 c0 116 0 120 -22 124 l-22 4 23 2 c20 1 22 6 22 56 0 46 -3 55 -17 55 -17 1 -17 1 0 14 12 9 17 27 17 60 0 46 0 46 -34 46 -19 0 -37 -5 -39 -10 -3 -6 -4 -5 -3 2 1 7 16 15 32 16 16 2 32 9 36 15 6 9 8 9 8 0 0 -7 5 -13 11 -13 7 0 9 14 5 43 -4 23 -9 65 -12 92 -7 57 -15 65 -66 65 -34 0 -37 -2 -41 -32 l-4 -33 -1 33 -2 32 -619 0 c-480 0 -621 -3 -624 -13 -4 -9 -6 -9 -6 0 -1 10 -139 13 -638 13 -350 0 -639 2 -641 5 -3 3 92 5 212 5 188 0 215 2 203 14 -16 17 -191 25 -302 14z m-77 -155 c-1 -110 -5 -97 -10 35 -2 39 0 72 5 72 4 0 6 -48 5 -107z m324 5 l2 -103 6 105 6 105 2 -107 2 -108 -125 0 -125 0 -2 103 -2 102 -5 -105 -5 -105 -6 105 -6 105 -2 -102 c-2 -103 -2 -103 -27 -103 l-25 0 0 105 0 105 155 0 155 0 2 -102z m35 20 c-2 -18 -4 -6 -4 27 0 33 2 48 4 33 2 -15 2 -42 0 -60z m984 24 c49 2 89 0 89 -3 0 -3 -12 -11 -26 -17 -14 -7 -23 -8 -19 -2 4 6 -19 10 -64 10 l-70 0 -4 -42 -4 -43 -1 47 c-2 40 -5 47 -19 42 -17 -5 -17 -5 0 6 9 6 18 19 18 28 1 10 4 7 6 -6 4 -23 7 -23 94 -20z m-552 -29 c-2 -31 -3 -33 -6 -10 l-4 28 -160 -2 c-88 0 -163 1 -166 4 -2 3 69 6 158 6 90 1 165 4 168 6 9 10 11 4 10 -32z m96 27 c3 -5 1 -10 -4 -10 -6 0 -11 5 -11 10 0 6 2 10 4 10 3 0 8 -4 11 -10z m60 0 c3 -5 -1 -10 -10 -10 -9 0 -13 5 -10 10 3 6 8 10 10 10 2 0 7 -4 10 -10z m42 -37 c-3 -10 -5 -2 -5 17 0 19 2 27 5 18 2 -10 2 -26 0 -35z m73 37 c0 -5 -8 -10 -17 -10 -15 0 -16 2 -3 10 19 12 20 12 20 0z m788 3 c-64 -2 -172 -2 -240 0 -68 1 -15 3 117 3 132 0 187 -2 123 -3z m392 -1 c-161 -2 -240 -6 -230 -12 10 -6 11 -10 3 -10 -9 0 -13 -22 -13 -75 0 -68 2 -75 20 -75 12 0 20 7 21 18 0 14 2 14 9 -3 6 -13 9 6 9 60 0 47 -3 75 -8 67 -7 -11 -9 -11 -14 2 -5 12 0 16 23 16 l30 0 2 -82 2 -83 5 85 5 85 6 -85 6 -85 2 83 2 82 30 0 c30 0 30 0 28 -52 l-2 -53 -3 48 c-3 39 -8 47 -24 47 -17 0 -19 -7 -19 -75 l0 -75 30 0 29 0 4 83 3 82 2 -87 2 -88 -105 0 -105 0 0 95 0 95 248 -2 247 -3 -245 -3z m-743 -145 c-2 -23 -3 -1 -3 48 0 50 1 68 3 42 2 -26 2 -67 0 -90z m135 51 l2 -83 3 83 4 82 29 0 c17 0 30 -4 30 -9 0 -4 -11 -7 -25 -6 -25 3 -25 2 -25 -69 l0 -72 30 -2 c19 -1 30 2 30 10 0 9 3 8 10 -2 7 -10 10 11 10 68 l0 82 60 0 60 0 2 -82 2 -83 6 85 6 85 4 -85 4 -85 6 85 6 85 2 -80 2 -81 30 -2 29 -2 4 82 3 83 2 -87 2 -88 -225 0 -225 0 0 85 0 85 60 0 60 0 2 -82z m85 -10 c-2 -18 -4 -4 -4 32 0 36 2 50 4 33 2 -18 2 -48 0 -65z m223 82 c0 -5 -6 -7 -14 -4 -9 4 -16 -3 -19 -18 -4 -21 -4 -20 -6 5 -1 21 4 27 19 27 11 0 20 -4 20 -10z m410 -70 c0 -73 2 -80 20 -80 18 0 20 7 20 76 0 64 -2 75 -15 70 -8 -3 -15 -1 -15 4 0 6 9 10 20 10 18 0 20 -7 22 -82 l2 -83 3 83 4 82 29 0 c16 0 32 -5 36 -12 4 -7 3 -8 -4 -4 -8 5 -12 -1 -13 -16 -1 -21 -2 -21 -7 -3 -4 11 -13 21 -19 23 -10 1 -13 -18 -13 -73 0 -68 2 -75 19 -75 15 0 21 8 24 33 4 31 4 31 5 -5 l2 -38 -120 0 -120 0 -2 83 -2 82 -6 -85 -6 -85 -2 88 -2 87 70 0 70 0 0 -80z m147 -53 c-2 -23 -3 -1 -3 48 0 50 1 68 3 42 2 -26 2 -67 0 -90z m-1932 97 c24 -11 25 -13 5 -8 -14 4 -38 13 -55 20 -24 11 -25 13 -5 8 14 -4 39 -13 55 -20z m378 19 c-7 -2 -19 -2 -25 0 -7 3 -2 5 12 5 14 0 19 -2 13 -5z m90 0 c-7 -2 -19 -2 -25 0 -7 3 -2 5 12 5 14 0 19 -2 13 -5z m164 -25 c-3 -7 -5 -2 -5 12 0 14 2 19 5 13 2 -7 2 -19 0 -25z m30 -20 c-2 -13 -4 -5 -4 17 -1 22 1 32 4 23 2 -10 2 -28 0 -40z m143 37 c0 -6 -97 -55 -107 -55 -4 1 17 14 47 30 61 32 60 32 60 25z m-403 -27 c-3 -8 -6 -5 -6 6 -1 11 2 17 5 13 3 -3 4 -12 1 -19z m-280 -24 c-3 -3 -12 -4 -19 -1 -8 3 -5 6 6 6 11 1 17 -2 13 -5z m113 -2 c0 -4 -12 -8 -27 -9 -24 -1 -25 -1 -8 7 26 11 35 12 35 2z m163 1 c-7 -2 -19 -2 -25 0 -7 3 -2 5 12 5 14 0 19 -2 13 -5z m244 1 c-3 -3 -12 -4 -19 -1 -8 3 -5 6 6 6 11 1 17 -2 13 -5z m-480 -19 c0 -18 -17 -20 -18 -2 0 10 -2 10 -6 0 -2 -7 -9 -13 -15 -13 -6 0 -6 6 2 15 7 8 18 15 25 15 6 0 12 -7 12 -15z m-58 -17 c-1 -13 -3 -16 -5 -8 -3 11 -18 15 -57 14 l-52 -2 50 7 c28 5 53 9 58 9 4 1 6 -8 6 -20z m211 12 c0 -5 -7 -10 -15 -10 -8 0 -15 5 -15 10 0 6 7 10 15 10 8 0 15 -4 15 -10z m90 6 c0 -3 -4 -8 -10 -11 -5 -3 -10 -1 -10 4 0 6 5 11 10 11 6 0 10 -2 10 -4z m116 -8 c3 -4 -1 -5 -10 -4 -8 1 -18 5 -22 8 -3 4 1 5 10 4 8 -1 18 -5 22 -8z m54 -4 c0 -2 -9 -4 -21 -4 -11 0 -18 4 -14 10 5 8 35 3 35 -6z m-617 -10 c-3 -9 -9 -12 -12 -7 -3 4 -10 11 -15 16 -5 4 0 7 12 7 15 0 20 -4 15 -16z m790 9 c-7 -2 -19 -2 -25 0 -7 3 -2 5 12 5 14 0 19 -2 13 -5z m137 -8 c0 -8 -2 -15 -4 -15 -2 0 -6 7 -10 15 -3 8 -1 15 4 15 6 0 10 -7 10 -15z m-500 -15 c0 -5 -2 -10 -4 -10 -3 0 -8 5 -11 10 -3 6 -1 10 4 10 6 0 11 -4 11 -10z m1577 -52 c-3 -8 -6 -5 -6 6 -1 11 2 17 5 13 3 -3 4 -12 1 -19z m-1080 -40 c-3 -7 -5 -2 -5 12 0 14 2 19 5 13 2 -7 2 -19 0 -25z m320 -4 c1 -25 0 -26 -4 -4 -3 14 -10 29 -17 33 -7 6 -6 7 4 4 8 -2 16 -16 17 -33z m450 -66 c-2 -18 -4 -4 -4 32 0 36 2 50 4 33 2 -18 2 -48 0 -65z m-740 50 c-3 -7 -5 -2 -5 12 0 14 2 19 5 13 2 -7 2 -19 0 -25z m464 13 c7 11 9 10 9 -4 0 -20 -22 -19 -26 1 -2 9 -1 9 3 1 4 -8 8 -7 14 2z m339 -11 c0 -5 -8 -10 -17 -10 -15 0 -16 2 -3 10 19 12 20 12 20 0z m150 0 c0 -5 -5 -10 -11 -10 -5 0 -7 5 -4 10 3 6 8 10 11 10 2 0 4 -4 4 -10z m-193 -127 c-2 -21 -4 -4 -4 37 0 41 2 58 4 38 2 -21 2 -55 0 -75z m-20 -40 c-2 -16 -4 -5 -4 22 0 28 2 40 4 28 2 -13 2 -35 0 -50z m-2180 -55 c-3 -7 -5 -2 -5 12 0 14 2 19 5 13 2 -7 2 -19 0 -25z m0 -75 c-3 -10 -5 -4 -5 12 0 17 2 24 5 18 2 -7 2 -21 0 -30z"/>
<path d="M1804 1585 c0 -55 1 -76 3 -47 2 29 2 74 0 100 -2 26 -3 2 -3 -53z"/>
<path d="M1824 1585 c0 -55 1 -76 3 -47 2 29 2 74 0 100 -2 26 -3 2 -3 -53z"/>
<path d="M1884 1585 c0 -55 1 -76 3 -47 2 29 2 74 0 100 -2 26 -3 2 -3 -53z"/>
<path d="M1904 1585 c0 -55 1 -76 3 -47 2 29 2 74 0 100 -2 26 -3 2 -3 -53z"/>
<path d="M1924 1585 c0 -55 1 -76 3 -47 2 29 2 74 0 100 -2 26 -3 2 -3 -53z"/>
<path d="M1944 1585 c0 -55 1 -76 3 -47 2 29 2 74 0 100 -2 26 -3 2 -3 -53z"/>
<path d="M1964 1585 c0 -55 1 -76 3 -47 2 29 2 74 0 100 -2 26 -3 2 -3 -53z"/>
<path d="M1984 1585 c0 -55 1 -76 3 -47 2 29 2 74 0 100 -2 26 -3 2 -3 -53z"/>
<path d="M2004 1585 c0 -55 1 -76 3 -47 2 29 2 74 0 100 -2 26 -3 2 -3 -53z"/>
<path d="M2024 1585 c0 -55 1 -76 3 -47 2 29 2 74 0 100 -2 26 -3 2 -3 -53z"/>
<path d="M2042 1583 l2 -98 6 95 6 95 5 -95 5 -95 2 98 c2 80 -1 97 -13 97 -12 0 -15 -17 -13 -97z"/>
<path d="M2084 1585 c0 -55 1 -76 3 -47 2 29 2 74 0 100 -2 26 -3 2 -3 -53z"/>
<path d="M3853 1535 c0 -44 2 -61 4 -37 2 23 2 59 0 80 -2 20 -4 1 -4 -43z"/>
<path d="M3302 1538 l-2 -78 30 0 30 0 0 75 c0 68 -2 75 -20 75 -17 0 -20 -7 -22 -52 l-1 -53 -7 55 c-7 55 -7 55 -8 -22z"/>
<path d="M3373 1535 c0 -44 2 -61 4 -37 2 23 2 59 0 80 -2 20 -4 1 -4 -43z"/>
<path d="M3393 1535 c0 -44 2 -61 4 -37 2 23 2 59 0 80 -2 20 -4 1 -4 -43z"/>
<path d="M3523 1535 c0 -44 2 -61 4 -37 2 23 2 59 0 80 -2 20 -4 1 -4 -43z"/>
<path d="M3543 1535 c0 -44 2 -61 4 -37 2 23 2 59 0 80 -2 20 -4 1 -4 -43z"/>
<path d="M3560 1535 c0 -68 2 -75 20 -75 18 0 20 7 20 75 0 68 -2 75 -20 75 -18 0 -20 -7 -20 -75z"/>
<path d="M3613 1535 c0 -44 2 -61 4 -37 2 23 2 59 0 80 -2 20 -4 1 -4 -43z"/>
<path d="M4020 1533 l0 -73 30 0 30 0 -2 78 -2 77 -6 -75 -6 -75 -2 72 c-2 65 -4 72 -22 70 -18 -1 -20 -8 -20 -74z"/>
<path d="M4093 1535 c0 -44 2 -61 4 -37 2 23 2 59 0 80 -2 20 -4 1 -4 -43z"/>
<path d="M4113 1535 c0 -44 2 -61 4 -37 2 23 2 59 0 80 -2 20 -4 1 -4 -43z"/>
<path d="M2640 1730 c0 -19 6 -20 156 -20 143 0 155 1 152 18 -3 15 -20 17 -156 20 -147 2 -152 2 -152 -18z"/>
<path d="M1000 1681 c0 -10 -7 -21 -15 -25 -22 -8 -18 -22 5 -22 11 0 20 3 20 6 0 3 21 5 47 5 38 0 48 3 48 17 0 9 4 20 8 24 4 4 7 -23 7 -59 l0 -67 123 -2 c202 -4 381 -4 395 0 8 3 12 27 12 73 l0 69 -325 0 c-312 0 -325 -1 -325 -19z"/>
<path d="M989 1611 c-1 -9 -1 -22 0 -30 2 -7 -2 -10 -8 -6 -20 12 -11 -7 12 -26 12 -10 38 -18 59 -19 42 0 50 -14 47 -77 -4 -76 4 -73 -219 -73 l-200 0 0 -74 0 -74 70 -1 70 0 35 54 35 55 110 0 110 0 0 105 0 105 -49 0 c-37 0 -50 4 -56 18 -5 14 -4 15 6 5 7 -7 30 -13 51 -13 37 0 38 1 38 36 l0 35 -55 -2 c-42 -2 -55 -6 -56 -18z"/>
<path d="M1120 1441 c0 -70 4 -101 13 -104 10 -4 10 -6 0 -6 -10 -1 -13 -36 -13 -139 l0 -138 253 3 c177 3 248 1 237 -6 -9 -7 -103 -11 -252 -11 l-238 0 0 -75 0 -75 260 0 c161 0 260 -4 260 -10 0 -5 -7 -7 -15 -4 -8 4 -15 2 -15 -3 0 -5 9 -9 20 -10 19 -2 20 4 20 92 0 65 -4 95 -12 98 -10 4 -10 6 0 6 9 1 12 35 12 135 0 98 -3 136 -12 139 -10 4 -10 6 0 6 9 1 12 28 12 101 l0 100 -265 0 -265 0 0 -99z m398 -49 l3 -113 -133 3 -133 3 -3 99 c-1 55 0 106 2 113 4 11 33 13 133 11 l128 -3 3 -113z m-381 -399 c-3 -10 -5 -4 -5 12 0 17 2 24 5 18 2 -7 2 -21 0 -30z m20 -5 c-3 -7 -5 -2 -5 12 0 14 2 19 5 13 2 -7 2 -19 0 -25z m478 3 c-3 -6 -11 -11 -16 -11 -5 0 -4 6 3 14 14 16 24 13 13 -3z"/>
<path d="M1267 1493 c-4 -3 -7 -51 -7 -105 l0 -98 125 0 125 0 0 105 0 105 -118 0 c-65 0 -122 -3 -125 -7z m113 -98 l0 -95 -55 0 -55 0 0 95 0 95 55 0 55 0 0 -95z m120 -1 l0 -95 -52 3 -53 3 -3 79 c-2 44 -1 85 2 93 4 8 23 13 56 13 l50 0 0 -96z"/>
<path d="M1820 1375 l0 -75 150 0 150 0 0 75 0 75 -150 0 -150 0 0 -75z"/>
<path d="M619 1403 c-1 -4 -1 -11 0 -15 0 -5 -12 -8 -27 -8 -50 0 -52 -9 -52 -216 0 -192 0 -193 23 -197 l22 -4 -22 -2 c-19 -1 -23 -7 -23 -31 0 -23 4 -30 20 -30 13 0 20 -6 19 -17 0 -10 -3 -13 -5 -6 -3 7 -12 9 -20 6 -26 -10 -15 -23 19 -23 25 0 37 6 46 23 l12 22 -5 -22 c-2 -13 1 -23 7 -23 9 0 12 51 11 185 0 146 2 185 13 185 9 0 13 19 13 70 0 55 -3 71 -17 79 -16 9 -15 10 6 11 13 0 21 3 17 7 -10 10 -56 15 -57 6z m-2 -120 c1 -22 -1 -24 -8 -10 -6 9 -7 22 -4 27 9 14 10 13 12 -17z m13 -148 c0 -8 -7 -15 -15 -15 -13 0 -14 3 -3 15 16 18 18 18 18 0z m-47 -12 c-7 -2 -19 -2 -25 0 -7 3 -2 5 12 5 14 0 19 -2 13 -5z m44 -159 c-3 -3 -12 -4 -19 -1 -8 3 -5 6 6 6 11 1 17 -2 13 -5z"/>
<path d="M865 1283 c-19 -31 -25 -48 -17 -51 8 -2 12 -31 12 -88 l0 -84 125 0 125 0 0 135 0 135 -107 0 -108 0 -30 -47z"/>
<path d="M1820 1266 c0 -13 7 -27 16 -30 9 -3 76 -6 150 -6 l134 0 0 30 0 30 -150 0 -150 0 0 -24z"/>
<path d="M662 1034 l-2 -191 -85 3 -85 3 0 -54 0 -55 74 0 c74 0 75 0 79 28 2 15 5 -15 6 -65 l1 -93 -77 2 -78 2 73 3 72 4 0 54 0 55 -75 0 -75 0 0 -64 0 -65 38 -4 37 -4 -38 -1 -38 -2 3 -47 c3 -41 6 -48 23 -45 16 2 17 1 5 -7 -13 -9 -13 -11 3 -11 9 0 17 5 17 10 0 6 8 10 18 10 14 0 15 -2 2 -10 -12 -8 -11 -10 8 -10 12 0 22 5 22 10 0 6 16 10 35 10 19 0 35 -4 35 -10 0 -5 7 -10 16 -10 13 0 15 10 14 53 -2 28 -2 86 -1 128 l1 77 564 -2 564 -1 26 -24 c32 -31 86 -36 86 -9 0 14 8 18 36 18 32 0 35 2 24 16 -11 12 -10 18 3 31 8 9 23 13 31 10 22 -9 21 -47 -1 -49 -10 -1 16 -4 57 -8 l75 -6 -107 -2 c-101 -2 -108 -3 -108 -22 0 -19 7 -20 120 -20 l120 0 0 29 c0 37 9 43 46 31 16 -4 21 -9 12 -9 -12 -1 -18 -9 -18 -26 l0 -25 396 0 c312 0 395 3 392 13 -4 9 -88 13 -359 17 -195 3 -361 9 -371 13 -18 9 -32 47 -17 47 5 0 9 -6 9 -13 0 -34 34 -37 432 -37 238 -1 387 -4 378 -10 -8 -5 -11 -12 -8 -16 4 -3 18 6 32 20 24 27 26 27 151 27 70 -1 131 -3 136 -6 5 -4 9 -2 9 4 0 7 131 10 397 8 l398 -2 14 -30 c8 -17 17 -70 19 -120 4 -92 15 -123 32 -95 7 10 10 11 10 3 0 -9 22 -13 75 -13 l75 0 0 -35 c0 -24 5 -35 15 -35 16 0 20 25 16 97 -4 72 10 68 45 -13 35 -81 49 -102 61 -91 4 4 -7 35 -24 70 -37 74 -50 117 -34 117 6 0 11 -4 11 -10 0 -12 59 -27 86 -22 18 3 23 13 28 55 5 41 2 55 -10 64 -19 14 -86 5 -97 -14 -10 -16 -33 -17 -43 -2 -4 6 -10 27 -15 47 -7 31 -4 38 22 64 16 16 29 36 29 44 0 8 7 14 15 14 8 0 15 5 15 10 0 6 -20 10 -45 10 l-45 0 0 140 0 140 25 0 25 0 0 -135 c0 -83 4 -135 10 -135 6 0 10 55 10 145 l0 145 -40 0 -40 0 -1 -42 c-1 -24 -1 -93 0 -154 l1 -111 -80 4 -80 3 0 -55 0 -55 74 0 c63 0 75 3 79 18 3 9 5 -1 5 -23 0 -22 -2 -32 -5 -22 -4 14 -16 17 -78 17 l-74 0 -4 -47 c-2 -27 -5 2 -7 62 l-4 110 -6 -95 -6 -95 -2 92 c-1 62 -6 93 -15 96 -9 4 -9 6 1 6 9 1 12 36 12 141 l0 140 -30 0 -30 0 0 -139 c0 -102 3 -141 13 -144 9 -4 9 -6 0 -6 -7 -1 -13 -12 -13 -26 0 -18 5 -25 19 -25 10 0 22 -7 25 -16 8 -21 8 -24 -4 -24 -5 0 -10 7 -10 15 0 13 -34 15 -243 15 -180 0 -247 -3 -257 -12 -12 -11 -12 -10 -1 5 10 13 28 17 72 17 56 0 59 1 59 25 l0 25 -130 0 -130 0 0 -24 c0 -13 4 -26 9 -28 4 -2 11 -14 15 -28 6 -25 6 -25 -5 -2 -12 22 -14 22 -258 24 l-246 3 228 2 227 3 0 25 0 25 -160 0 c-145 0 -160 -2 -161 -17 0 -15 -2 -15 -8 2 l-8 20 -5 -20 c-5 -16 -6 -17 -7 -2 -1 15 -16 17 -161 17 -153 0 -160 -1 -160 -20 0 -19 7 -20 105 -20 l105 0 -1 -27 c-2 -26 -2 -27 -6 -4 l-5 24 -860 -6 c-850 -7 -860 -7 -889 -28 -16 -11 -37 -18 -47 -16 -14 4 -13 5 4 6 11 0 30 10 41 21 20 18 37 19 272 20 183 1 251 4 255 13 2 7 5 8 5 2 1 -17 153 -6 174 12 9 9 17 11 17 5 0 -6 -6 -13 -12 -15 -7 -3 -2 -6 11 -6 18 -1 22 3 17 17 -6 16 -5 16 8 0 19 -26 76 -24 76 1 0 16 -8 21 -42 24 l-43 4 43 1 c40 2 42 4 42 32 0 20 -5 30 -15 31 -8 0 -49 0 -90 0 -200 0 -185 2 -185 -31 l0 -29 103 -3 102 -3 -108 -5 -107 -5 1 65 c1 36 3 57 6 48 4 -16 19 -18 123 -18 137 0 130 -5 130 106 l0 75 -130 -3 c-72 -2 -130 0 -130 5 0 4 59 7 130 7 l130 0 0 45 0 45 -124 0 c-90 0 -126 -3 -129 -12 -4 -10 -6 -10 -6 0 -1 6 -6 12 -12 12 -8 0 -10 -56 -6 -202 3 -128 1 -195 -5 -185 -8 16 -54 17 -543 17 l-535 0 0 -25 0 -25 234 0 234 0 18 -27 c13 -20 13 -25 2 -16 -8 7 -19 9 -23 5 -5 -4 -5 1 -2 11 6 16 -10 17 -258 17 l-264 0 -4 -22 c-4 -20 -4 -19 -6 5 -1 21 4 27 19 27 15 0 20 7 20 25 0 20 -5 25 -25 25 -20 0 -25 -5 -27 -27 -1 -16 -5 69 -8 187 l-6 215 -2 -191z m5 -351 c-2 -16 -4 -5 -4 22 0 28 2 40 4 28 2 -13 2 -35 0 -50z m2430 45 c-3 -8 -6 -5 -6 6 -1 11 2 17 5 13 3 -3 4 -12 1 -19z m1143 12 c0 -5 -2 -10 -4 -10 -3 0 -8 5 -11 10 -3 6 -1 10 4 10 6 0 11 -4 11 -10z m0 -30 c0 -5 -2 -10 -4 -10 -3 0 -8 5 -11 10 -3 6 -1 10 4 10 6 0 11 -4 11 -10z m163 -87 c-23 -2 -64 -2 -90 0 -26 2 -7 3 42 3 50 0 71 -1 48 -3z m-90 -31 c-29 -2 -43 -8 -46 -20 -3 -11 -5 -8 -6 8 -1 24 1 25 47 20 l47 -5 -42 -3z m129 -39 c-5 -74 -12 -82 -12 -15 l0 52 -37 2 -38 1 45 7 c25 4 45 8 46 8 0 1 -2 -24 -4 -55z m-3794 40 c-10 -2 -28 -2 -40 0 -13 2 -5 4 17 4 22 1 32 -1 23 -4z m-40 -31 c4 -13 -13 -13 -98 -1 -18 2 58 17 79 15 8 0 16 -7 19 -14z m3791 3 c2 -3 -14 -5 -37 -5 -23 0 -42 5 -42 11 0 10 68 5 79 -6z m-41 -72 c-10 -2 -28 -2 -40 0 -13 2 -5 4 17 4 22 1 32 -1 23 -4z"/>
<path d="M680 1040 l0 -180 25 0 25 0 0 180 0 180 -25 0 -25 0 0 -180z"/>
<path d="M742 1038 c1 -101 3 -147 5 -103 5 123 6 125 58 125 l45 0 0 80 0 80 -55 0 -55 0 2 -182z m78 142 c0 -5 -7 -7 -15 -4 -8 4 -15 8 -15 10 0 2 7 4 15 4 8 0 15 -4 15 -10z m-24 -35 c1 -8 -2 -15 -7 -15 -5 0 -9 10 -9 22 0 23 12 17 16 -7z m21 -17 c-3 -7 -5 -2 -5 12 0 14 2 19 5 13 2 -7 2 -19 0 -25z m-50 -45 c-3 -10 -5 -2 -5 17 0 19 2 27 5 18 2 -10 2 -26 0 -35z m50 -5 c-3 -8 -6 -5 -6 6 -1 11 2 17 5 13 3 -3 4 -12 1 -19z m-22 2 c3 -5 1 -10 -4 -10 -6 0 -11 5 -11 10 0 6 2 10 4 10 3 0 8 -4 11 -10z"/>
<path d="M2130 1080 c0 -118 2 -140 15 -140 13 0 15 22 15 140 0 118 -2 140 -15 140 -13 0 -15 -22 -15 -140z"/>
<path d="M2174 1040 c0 -102 2 -143 3 -92 2 50 2 134 0 185 -1 50 -3 9 -3 -93z"/>
<path d="M2190 1080 l0 -140 50 0 50 0 0 140 0 140 -50 0 -50 0 0 -140z"/>
<path d="M2300 1080 l0 -140 70 0 70 0 0 139 0 138 -70 2 -70 2 0 -141z m127 -62 c-3 -8 -6 -5 -6 6 -1 11 2 17 5 13 3 -3 4 -12 1 -19z m-87 -38 c0 -22 -15 -27 -26 -8 -5 7 -3 8 6 3 10 -6 12 -4 7 8 -3 10 -2 17 3 17 6 0 10 -9 10 -20z"/>
<path d="M2450 1080 l0 -140 30 0 30 0 0 140 0 140 -30 0 -30 0 0 -140z"/>
<path d="M2580 1080 l0 -140 55 0 55 0 0 140 0 140 -55 0 -55 0 0 -140z"/>
<path d="M2700 1080 l0 -140 55 0 55 0 0 122 c0 67 2 119 5 116 3 -3 6 -58 6 -122 1 -64 5 -116 10 -116 5 0 9 63 9 140 0 79 -4 140 -9 140 -5 0 -12 -8 -14 -17 -4 -17 -5 -17 -6 0 -1 14 -11 17 -56 17 l-55 0 0 -140z"/>
<path d="M2852 1078 l2 -143 5 140 6 140 5 -180 6 -180 2 183 c2 156 0 182 -13 182 -13 0 -15 -22 -13 -142z"/>
<path d="M2890 1080 l0 -140 35 0 35 0 0 140 0 140 -35 0 -35 0 0 -140z"/>
<path d="M2970 1080 l0 -140 60 0 60 0 0 140 0 140 -60 0 -60 0 0 -140z"/>
<path d="M3100 1080 l0 -140 55 0 55 0 0 140 0 140 -55 0 -55 0 0 -140z"/>
<path d="M3249 1218 c0 -2 -3 -65 -5 -140 l-5 -138 91 0 90 0 0 140 0 140 -85 0 c-47 0 -85 -1 -86 -2z"/>
<path d="M3430 1080 l0 -140 65 0 65 0 0 140 0 140 -65 0 -65 0 0 -140z"/>
<path d="M3590 1080 l0 -140 45 0 44 0 4 108 3 107 2 -107 2 -108 70 0 70 0 0 100 0 100 -56 0 c-53 0 -59 2 -93 40 -25 28 -45 40 -64 40 l-27 0 0 -140z"/>
<path d="M399 1018 c-1 -73 -1 -137 1 -143 1 -5 -6 -15 -16 -22 -16 -12 -13 -17 33 -60 42 -40 50 -53 48 -80 -1 -18 -8 -39 -15 -48 -15 -18 -56 -16 -52 3 1 8 -15 12 -53 12 -37 0 -55 -4 -56 -12 -1 -7 -1 -33 -1 -58 l-1 -45 47 -3 c34 -2 51 2 64 14 16 17 17 17 20 0 4 -19 -33 -132 -49 -152 -6 -8 -4 -14 6 -18 12 -4 22 8 40 47 14 28 28 67 31 84 10 53 21 29 21 -48 1 -49 5 -74 15 -80 10 -6 14 1 16 33 2 24 -2 44 -9 49 -9 5 -10 78 -5 316 4 169 4 316 1 326 -5 12 -18 17 -46 17 l-39 0 -1 -132z m71 -23 l0 -145 -25 0 -25 0 0 138 c0 76 3 142 7 145 3 4 15 7 25 7 17 0 18 -11 18 -145z"/>
<path d="M3838 1033 l-3 -108 -45 -1 c-25 -1 -80 -2 -122 -3 l-78 -1 0 -30 0 -30 130 0 130 0 0 140 c0 77 -2 140 -5 140 -2 0 -6 -48 -7 -107z"/>
<path d="M3864 1040 c0 -58 1 -81 3 -52 2 28 2 76 0 105 -2 28 -3 5 -3 -53z"/>
<path d="M3880 1067 c0 -45 5 -78 13 -86 10 -11 10 -13 0 -7 -9 5 -13 0 -13 -13 0 -19 6 -21 55 -21 l55 0 0 100 0 100 -55 0 -55 0 0 -73z"/>
<path d="M4001 1038 c1 -67 4 -94 9 -78 8 24 8 24 9 3 1 -22 5 -23 71 -23 l70 0 0 100 0 100 -80 0 -80 0 1 -102z m16 -5 c-2 -21 -4 -6 -4 32 0 39 2 55 4 38 2 -18 2 -50 0 -70z"/>
<path d="M766 1028 c-3 -13 -6 -56 -6 -95 l0 -73 45 0 45 0 0 95 0 95 -39 0 c-32 0 -40 -4 -45 -22z"/>
<path d="M860 955 l0 -95 125 0 125 0 0 95 0 95 -125 0 -125 0 0 -95z m39 58 c0 -11 -3 -13 -6 -5 -2 6 -10 9 -15 6 -7 -4 -8 -2 -4 4 11 18 26 14 25 -5z m119 0 c-15 -2 -42 -2 -60 0 -18 2 -6 4 27 4 33 0 48 -2 33 -4z m69 1 c-3 -3 -12 -4 -19 -1 -8 3 -5 6 6 6 11 1 17 -2 13 -5z m3 -18 c0 -3 -4 -8 -10 -11 -5 -3 -10 -1 -10 4 0 6 5 11 10 11 6 0 10 -2 10 -4z"/>
<path d="M4173 915 c0 -33 2 -45 4 -27 2 18 2 45 0 60 -2 15 -4 0 -4 -33z"/>
<path d="M2190 894 l0 -34 160 0 160 0 0 30 0 30 -117 1 c-65 1 -137 3 -160 4 -42 2 -43 2 -43 -31z"/>
<path d="M2540 893 l0 -33 161 0 160 0 -3 32 -3 31 -157 1 -158 1 0 -32z"/>
<path d="M2890 893 l0 -33 160 0 160 0 0 30 0 30 -117 1 c-65 0 -137 2 -160 3 -43 3 -43 2 -43 -31z"/>
<path d="M3240 893 l0 -33 160 0 160 0 0 30 c0 17 -6 31 -12 31 -7 1 -79 2 -160 3 l-148 1 0 -32z"/>
<path d="M3863 895 c0 -22 2 -30 4 -17 2 12 2 30 0 40 -3 9 -5 -1 -4 -23z"/>
<path d="M3890 922 c-5 -2 -10 -17 -10 -33 l0 -29 140 0 140 0 0 35 0 35 -130 -2 c-71 -2 -134 -4 -140 -6z"/>
<path d="M1660 890 l0 -30 84 0 84 0 4 30 5 30 -89 0 -88 0 0 -30z"/>
<path d="M1145 870 c-3 -5 -1 -10 4 -10 6 0 11 5 11 10 0 6 -2 10 -4 10 -3 0 -8 -4 -11 -10z"/>
<path d="M1180 871 c0 -7 39 -11 110 -11 61 0 110 4 110 8 0 5 -49 10 -110 11 -73 2 -110 -1 -110 -8z"/>
<path d="M1410 870 c0 -6 38 -10 95 -10 57 0 95 4 95 10 0 6 -38 10 -95 10 -57 0 -95 -4 -95 -10z"/>
<path d="M742 825 c0 -16 2 -22 5 -12 2 9 2 23 0 30 -3 6 -5 -1 -5 -18z"/>
<path d="M2172 830 c0 -14 2 -19 5 -12 2 6 2 18 0 25 -3 6 -5 1 -5 -13z"/>
<path d="M2190 830 c0 -19 7 -20 160 -20 153 0 160 1 160 20 0 19 -7 20 -160 20 -153 0 -160 -1 -160 -20z"/>
<path d="M2540 830 c0 -19 7 -20 160 -20 153 0 160 1 160 20 0 19 -7 20 -160 20 -153 0 -160 -1 -160 -20z"/>
<path d="M2872 830 c0 -14 2 -19 5 -12 2 6 2 18 0 25 -3 6 -5 1 -5 -13z"/>
<path d="M3572 825 c0 -16 2 -22 5 -12 2 9 2 23 0 30 -3 6 -5 -1 -5 -18z"/>
<path d="M3862 825 c0 -16 2 -22 5 -12 2 9 2 23 0 30 -3 6 -5 -1 -5 -18z"/>
<path d="M3880 825 l0 -25 140 0 140 0 0 25 0 25 -140 0 -140 0 0 -25z"/>
<path d="M4172 825 c0 -16 2 -22 5 -12 2 9 2 23 0 30 -3 6 -5 -1 -5 -18z"/>
<path d="M1995 760 c-3 -5 -4 -14 0 -20 8 -13 35 -1 35 16 0 16 -26 19 -35 4z"/>
<path d="M715 720 c3 -5 2 -10 -2 -10 -5 0 -10 -12 -11 -27 -2 -31 -1 -29 21 15 13 28 14 32 1 32 -9 0 -12 -4 -9 -10z"/>
<path d="M1160 720 c-74 -3 -129 -7 -122 -8 6 -1 12 -6 12 -11 0 -11 -70 -2 -87 11 -17 13 -104 6 -110 -9 -3 -7 -10 -13 -17 -13 -6 0 -22 -9 -35 -19 -14 -10 -30 -17 -36 -15 -16 7 -38 -22 -29 -37 4 -6 8 -41 8 -78 2 -79 22 -121 73 -156 l38 -25 -278 0 -277 0 0 -34 0 -34 2118 3 c1164 1 2138 3 2165 4 45 1 47 2 47 31 l0 30 -277 0 c-258 0 -276 1 -248 16 68 35 95 79 95 154 0 43 -3 52 -22 60 -22 8 -22 9 5 9 22 1 27 6 27 26 0 14 -6 25 -12 25 -21 0 -118 53 -118 64 0 6 -5 4 -10 -4 -6 -10 -10 -11 -10 -2 0 8 -17 12 -52 12 -34 0 -48 -3 -39 -9 8 -5 -4 -9 -33 -9 -26 -1 -51 -4 -56 -7 -6 -4 -10 -1 -10 4 0 6 10 11 23 12 21 1 21 1 -3 9 -14 4 -104 6 -200 5 -228 -4 -289 -6 -268 -12 9 -2 20 -13 23 -24 8 -23 23 -25 31 -4 4 9 18 15 38 14 17 -1 23 -3 14 -6 -10 -2 -18 -8 -18 -12 0 -9 -8 -11 -92 -17 -51 -4 -68 -10 -71 -22 -3 -12 -5 -10 -6 6 -1 20 3 22 50 22 66 0 62 24 -4 28 -26 2 -47 7 -47 13 0 5 -25 9 -55 9 -30 0 -55 -4 -55 -10 0 -11 -77 -54 -99 -54 -20 -1 -40 -37 -23 -43 8 -3 12 -26 12 -64 0 -80 26 -130 85 -165 25 -14 45 -27 45 -27 0 -1 -347 -1 -771 1 l-772 2 33 23 c62 42 91 105 82 180 -4 33 -17 34 -44 5 l-20 -23 14 25 c9 13 26 27 39 30 34 8 34 52 -1 57 -31 4 -87 30 -95 43 -4 6 -11 8 -16 5 -5 -4 -9 -1 -9 4 0 6 -18 11 -40 11 -22 0 -40 -4 -40 -9 0 -6 -23 -11 -52 -13 -71 -4 -75 -26 -6 -31 l53 -3 -57 -2 c-66 -2 -78 8 -42 37 l27 21 -34 2 c-66 4 -206 3 -339 -2z m130 -21 c0 -4 -35 -9 -77 -11 -43 -2 -87 -8 -98 -12 -15 -7 -17 -6 -9 3 18 20 184 38 184 20z m151 -5 c4 -2 9 1 11 8 3 7 7 2 10 -10 6 -22 -6 -31 -17 -12 -3 6 -38 10 -76 10 -45 0 -68 4 -64 10 6 10 119 5 136 -6z m1806 -6 c-3 -8 -6 -5 -6 6 -1 11 2 17 5 13 3 -3 4 -12 1 -19z m333 12 c0 -5 -7 -10 -15 -10 -8 0 -15 5 -15 10 0 6 7 10 15 10 8 0 15 -4 15 -10z m64 -2 c-3 -4 -16 -7 -29 -6 -13 1 -21 6 -19 10 3 4 16 7 29 6 13 -1 21 -6 19 -10z m99 5 c-7 -2 -19 -2 -25 0 -7 3 -2 5 12 5 14 0 19 -2 13 -5z m94 -6 c3 -4 0 -7 -8 -8 -8 0 -6 -4 6 -9 19 -8 19 -9 -2 -9 -12 -1 -23 4 -25 10 -2 5 -11 11 -20 13 -35 5 -31 17 5 13 20 -2 40 -7 44 -10z m-2816 -27 c28 0 49 5 49 11 0 5 5 7 10 4 25 -16 5 -25 -55 -25 -56 0 -65 3 -64 18 0 10 3 12 6 5 3 -8 24 -13 54 -13z m2963 5 c-5 -11 -21 -15 -59 -15 -30 0 -56 3 -58 8 -3 4 17 5 45 3 28 -2 55 2 61 8 15 15 17 14 11 -4z m-2766 -13 c2 -7 -2 -10 -12 -6 -9 3 -16 11 -16 16 0 13 23 5 28 -10z m202 -16 c0 -2 -7 -3 -15 -3 -8 0 -15 4 -15 9 0 4 -9 8 -20 8 -11 0 -20 -4 -20 -10 0 -5 -6 -10 -12 -10 -7 1 -3 9 10 20 22 18 25 18 48 4 13 -9 24 -17 24 -18z m2325 24 c3 -5 -1 -10 -10 -10 -9 0 -13 5 -10 10 3 6 8 10 10 10 2 0 7 -4 10 -10z m-2041 -15 c3 -8 1 -15 -4 -15 -6 0 -10 7 -10 15 0 8 2 15 4 15 2 0 6 -7 10 -15z m1856 5 c0 -5 -5 -10 -11 -10 -5 0 -7 5 -4 10 3 6 8 10 11 10 2 0 4 -4 4 -10z m35 -1 c11 -16 1 -19 -13 -3 -7 8 -8 14 -3 14 5 0 13 -5 16 -11z m-2432 -17 c-10 -10 -20 -17 -22 -16 -6 5 20 34 30 34 5 0 1 -8 -8 -18z m2914 -4 c-3 -8 -6 -5 -6 6 -1 11 2 17 5 13 3 -3 4 -12 1 -19z m-2868 -5 c0 -5 -4 -17 -9 -28 -8 -18 -9 -17 -9 8 -1 15 4 27 9 27 6 0 10 -3 9 -7z m165 -8 c-4 -8 -8 -15 -10 -15 -2 0 -4 7 -4 15 0 8 4 15 10 15 5 0 7 -7 4 -15z m2286 -45 c78 0 79 0 83 28 2 15 4 5 4 -23 1 -27 -1 -42 -4 -32 -4 14 -17 17 -89 17 l-84 0 2 38 c1 36 1 36 5 5 l4 -33 79 0z m140 40 c0 -5 -5 -10 -11 -10 -5 0 -7 5 -4 10 3 6 8 10 11 10 2 0 4 -4 4 -10z m-2055 -10 c3 -5 1 -10 -4 -10 -6 0 -11 5 -11 10 0 6 2 10 4 10 3 0 8 -4 11 -10z m2385 -5 c0 -8 -2 -15 -4 -15 -2 0 -6 7 -10 15 -3 8 -1 15 4 15 6 0 10 -7 10 -15z m-3171 -17 c-1 -16 -3 -18 -6 -6 -2 9 -16 19 -31 21 -24 4 -24 4 6 6 27 1 32 -2 31 -21z m691 18 c0 -2 -9 -6 -20 -9 -11 -3 -20 -1 -20 4 0 5 9 9 20 9 11 0 20 -2 20 -4z m58 -3 c-10 -2 -26 -2 -35 0 -10 3 -2 5 17 5 19 0 27 -2 18 -5z m2277 -3 c-3 -5 -11 -10 -16 -10 -6 0 -7 5 -4 10 3 6 11 10 16 10 6 0 7 -4 4 -10z m-3180 -30 c3 -6 3 -10 -2 -10 -11 1 -43 26 -43 34 0 9 37 -11 45 -24z m22 8 c-3 -8 -6 -5 -6 6 -1 11 2 17 5 13 3 -3 4 -12 1 -19z m2332 9 c8 -10 7 -14 -4 -14 -8 0 -16 6 -19 14 -3 7 -2 13 3 13 5 0 14 -6 20 -13z m-2274 -7 c-3 -5 -14 -10 -23 -9 -14 0 -13 2 3 9 27 11 27 11 20 0z m45 0 c0 -5 -2 -10 -4 -10 -3 0 -8 5 -11 10 -3 6 -1 10 4 10 6 0 11 -4 11 -10z m820 6 c0 -3 -4 -8 -10 -11 -5 -3 -10 -1 -10 4 0 6 5 11 10 11 6 0 10 -2 10 -4z m1480 -6 c0 -5 -5 -10 -11 -10 -5 0 -7 5 -4 10 3 6 8 10 11 10 2 0 4 -4 4 -10z m115 0 c3 -5 1 -10 -4 -10 -6 0 -11 5 -11 10 0 6 2 10 4 10 3 0 8 -4 11 -10z m765 0 c0 -5 -5 -10 -11 -10 -5 0 -7 5 -4 10 3 6 8 10 11 10 2 0 4 -4 4 -10z m-2931 -27 c-2 -24 -2 -25 -6 -5 -3 14 -12 22 -24 22 -17 0 -20 -6 -17 -32 2 -27 7 -33 26 -32 12 0 22 -3 22 -8 0 -4 -5 -8 -11 -8 -13 0 -4 -47 13 -67 16 -20 182 -17 202 3 9 8 16 19 16 24 0 5 3 15 6 24 4 11 1 16 -10 16 -9 0 -16 4 -16 10 0 5 13 7 30 4 29 -6 30 -5 30 30 0 36 0 36 43 34 l42 -1 -39 -4 c-37 -4 -38 -5 -32 -36 14 -78 15 -77 -11 -77 -15 0 -23 -5 -21 -12 3 -8 28 -14 62 -15 l57 -3 -16 30 c-9 16 -21 30 -28 31 -9 0 -9 2 1 6 6 2 12 14 13 26 1 12 5 3 11 -21 6 -29 23 -58 52 -88 l43 -44 -340 0 -340 0 33 23 c19 12 45 43 58 69 15 28 29 45 37 42 9 -4 6 -13 -11 -31 -13 -14 -24 -30 -24 -35 0 -14 113 -5 118 10 3 10 -4 13 -24 10 -26 -3 -29 0 -25 22 1 14 8 28 14 31 6 4 7 22 4 43 -6 35 -5 36 29 36 31 0 34 -3 33 -27z m189 -25 l-2 -53 -3 47 -4 47 -82 4 -82 3 88 2 87 2 -2 -52z m260 35 c-9 -10 -18 -25 -21 -33 -4 -12 -6 -12 -6 2 -1 9 6 24 15 32 21 22 31 20 12 -1z m90 5 c7 -7 12 -17 12 -22 0 -6 -6 -4 -13 5 -7 9 -19 18 -27 22 -13 5 -13 6 1 6 8 1 20 -4 27 -11z m1792 -34 c0 -27 4 -34 19 -34 16 0 21 8 24 43 l4 42 1 -47 c1 -30 -2 -48 -9 -48 -13 0 -4 -47 13 -68 13 -15 177 -15 195 0 7 6 15 25 19 44 3 19 12 34 20 34 9 0 14 13 15 38 l1 37 8 -34 c4 -18 12 -36 17 -40 5 -3 9 -16 9 -28 0 -19 -6 -23 -29 -23 -17 0 -27 -5 -25 -12 5 -14 48 -18 48 -4 0 6 5 5 12 -2 12 -12 58 -17 58 -7 0 9 -25 50 -35 57 -6 5 -5 8 4 8 10 0 12 9 7 33 -4 23 -3 28 4 17 5 -8 10 -25 10 -38 0 -50 45 -109 100 -134 8 -3 -146 -8 -343 -10 -196 -1 -357 -2 -357 -1 0 1 16 10 35 19 39 18 77 65 81 98 1 12 3 25 3 29 1 4 7 2 15 -5 8 -7 11 -15 7 -18 -7 -6 -31 -47 -31 -54 0 -2 25 -4 55 -4 40 0 55 4 55 14 0 8 -8 14 -19 14 -23 0 -34 35 -15 51 17 14 18 51 2 68 -11 10 -10 11 5 6 11 -5 17 -18 17 -41z m278 39 c-10 -2 -18 -17 -21 -36 -4 -31 -4 -31 -5 6 -2 33 1 37 21 36 15 -1 17 -3 5 -6z m279 1 c-3 -3 -12 -4 -19 -1 -8 3 -5 6 6 6 11 1 17 -2 13 -5z m-3300 -26 c-3 -8 -6 -5 -6 6 -1 11 2 17 5 13 3 -3 4 -12 1 -19z m162 -28 c0 -8 -5 -4 -10 9 -6 16 -14 21 -25 17 -14 -5 -15 -4 -4 9 11 14 14 13 26 -2 7 -10 13 -25 13 -33z m61 46 c0 -3 -4 -8 -10 -11 -5 -3 -10 -1 -10 4 0 6 5 11 10 11 6 0 10 -2 10 -4z m84 -5 c-17 -4 -36 -11 -42 -15 -7 -4 -12 -3 -12 3 0 13 19 19 55 19 l30 0 -31 -7z m320 -6 c-4 -8 -8 -15 -10 -15 -2 0 -4 7 -4 15 0 8 4 15 10 15 5 0 7 -7 4 -15z m413 -7 c-3 -8 -6 -5 -6 6 -1 11 2 17 5 13 3 -3 4 -12 1 -19z m1648 15 c-11 -2 -32 -8 -47 -13 -16 -5 -28 -7 -28 -4 0 9 44 23 70 22 20 0 21 -1 5 -5z m408 0 c-7 -2 -19 -2 -25 0 -7 3 -2 5 12 5 14 0 19 -2 13 -5z m-2906 -25 c-3 -8 -6 -5 -6 6 -1 11 2 17 5 13 3 -3 4 -12 1 -19z m333 18 c0 -2 -7 -7 -16 -10 -8 -3 -12 -2 -9 4 6 10 25 14 25 6z m420 -42 c0 -7 -4 -16 -10 -19 -5 -3 -7 0 -4 9 3 8 0 25 -6 38 -11 22 -10 22 4 4 9 -11 16 -25 16 -32z m1540 42 c0 -3 -4 -8 -10 -11 -5 -3 -10 -1 -10 4 0 6 5 11 10 11 6 0 10 -2 10 -4z m380 0 c0 -2 -9 -6 -20 -9 -11 -3 -18 -1 -14 4 5 9 34 13 34 5z m70 -5 c0 -5 -9 -7 -20 -4 -11 3 -20 7 -20 9 0 2 9 4 20 4 11 0 20 -4 20 -9z m228 -16 c-3 -3 -9 2 -12 12 -6 14 -5 15 5 6 7 -7 10 -15 7 -18z m147 15 c3 -6 -1 -7 -9 -4 -10 4 -16 1 -16 -7 0 -7 -3 -10 -6 -6 -7 7 4 27 16 27 5 0 12 -4 15 -10z m-2431 -15 c-4 -8 -1 -22 6 -30 7 -8 9 -15 5 -15 -4 0 -13 8 -20 17 -13 18 -10 43 6 43 4 0 6 -7 3 -15z m2386 11 c0 -3 -4 -8 -10 -11 -5 -3 -10 -1 -10 4 0 6 5 11 10 11 6 0 10 -2 10 -4z m-3160 -10 c0 -3 -4 -8 -10 -11 -5 -3 -10 -1 -10 4 0 6 5 11 10 11 6 0 10 -2 10 -4z m385 -14 c-32 -3 -36 -6 -20 -12 19 -8 19 -9 -2 -9 -13 -1 -23 5 -23 12 0 21 7 23 47 18 l38 -6 -40 -3z m2475 -2 c0 -16 -7 -20 -35 -20 -19 0 -35 5 -35 10 0 6 -17 11 -37 12 -23 1 -9 4 32 8 39 4 71 7 73 8 1 1 2 -7 2 -18z m-2710 0 c0 -5 -5 -10 -11 -10 -5 0 -7 5 -4 10 3 6 8 10 11 10 2 0 4 -4 4 -10z m327 4 c-3 -3 -12 -4 -19 -1 -8 3 -5 6 6 6 11 1 17 -2 13 -5z m210 -31 c-3 -10 -5 -4 -5 12 0 17 2 24 5 18 2 -7 2 -21 0 -30z m1650 15 c-3 -8 -6 -5 -6 6 -1 11 2 17 5 13 3 -3 4 -12 1 -19z m-2440 -25 c-3 -10 -5 -4 -5 12 0 17 2 24 5 18 2 -7 2 -21 0 -30z m990 5 c-3 -7 -5 -2 -5 12 0 14 2 19 5 13 2 -7 2 -19 0 -25z m1390 10 c-3 -8 -6 -5 -6 6 -1 11 2 17 5 13 3 -3 4 -12 1 -19z m798 -18 c4 -25 3 -31 -5 -20 -9 14 -15 68 -6 59 3 -3 8 -20 11 -39z m105 8 c0 -16 -30 -7 -39 11 -10 17 -9 18 14 7 14 -6 25 -14 25 -18z m-3140 12 c0 -5 -5 -10 -11 -10 -5 0 -7 5 -4 10 3 6 8 10 11 10 2 0 4 -4 4 -10z m423 3 c-13 -2 -35 -2 -50 0 -16 2 -5 4 22 4 28 0 40 -2 28 -4z m274 -25 c-3 -7 -5 -2 -5 12 0 14 2 19 5 13 2 -7 2 -19 0 -25z m2031 25 c-10 -2 -26 -2 -35 0 -10 3 -2 5 17 5 19 0 27 -2 18 -5z m109 -15 c-3 -8 -6 -5 -6 6 -1 11 2 17 5 13 3 -3 4 -12 1 -19z m338 11 c-8 -11 25 -40 37 -33 5 3 8 -2 8 -10 0 -13 -15 -16 -85 -16 -72 0 -84 2 -78 16 4 11 9 12 16 5 6 -6 36 -11 67 -11 55 1 55 1 33 19 -16 14 -19 21 -10 30 14 14 20 14 12 0z m-810 -9 c3 -5 2 -10 -4 -10 -5 0 -13 5 -16 10 -3 6 -2 10 4 10 5 0 13 -4 16 -10z m-27 -25 c-3 -3 -9 2 -12 12 -6 14 -5 15 5 6 7 -7 10 -15 7 -18z m133 2 c-10 -9 -11 -8 -5 6 3 10 9 15 12 12 3 -3 0 -11 -7 -18z m624 13 c3 -5 1 -10 -4 -10 -6 0 -11 5 -11 10 0 6 2 10 4 10 3 0 8 -4 11 -10z m-2365 -10 c-12 -8 -13 -11 -1 -19 9 -6 3 -10 -22 -13 -41 -4 -57 0 -57 15 0 8 3 8 11 0 13 -13 40 -6 52 14 4 7 13 13 20 13 7 0 6 -4 -3 -10z m73 -7 c-6 -16 -5 -17 12 -3 10 8 16 10 12 3 -4 -6 -1 -14 5 -16 7 -3 -7 -5 -32 -5 -25 0 -38 2 -30 5 8 3 19 12 23 19 11 20 18 17 10 -3z m1457 -16 c0 -5 -4 -5 -10 -2 -5 3 -10 14 -10 23 0 15 2 15 10 2 5 -8 10 -19 10 -23z m170 23 c8 -5 11 -10 5 -10 -5 0 -1 -7 9 -15 34 -26 6 -36 -85 -32 l-84 3 88 2 c56 1 86 6 82 12 -3 6 -16 10 -28 10 -18 0 -19 2 -7 10 13 9 13 11 0 20 -8 5 -10 10 -5 10 6 0 17 -5 25 -10z m-2384 -9 c-4 -5 0 -12 6 -14 7 -3 3 -6 -9 -6 -16 -1 -21 3 -17 14 4 8 10 15 16 15 5 0 7 -4 4 -9z m324 -1 c50 3 90 2 90 -2 0 -5 -38 -8 -85 -8 -47 0 -88 0 -92 -1 -4 0 -8 4 -9 11 -2 6 -1 7 2 3 2 -5 44 -6 94 -3z m1950 -13 c22 -4 21 -5 -4 -4 -17 1 -31 9 -33 17 -3 10 -2 11 4 4 4 -7 19 -14 33 -17z m-2425 -19 c24 -25 25 -29 8 -19 -13 6 -27 20 -33 31 -15 27 -10 25 25 -12z m85 16 c0 -2 -16 -4 -35 -4 -19 0 -35 4 -35 8 0 4 16 6 35 4 19 -2 35 -6 35 -8z m2818 9 c-21 -2 -57 -2 -80 0 -24 2 -7 4 37 4 44 0 63 -2 43 -4z m47 -12 c-3 -6 -14 -10 -23 -10 -15 1 -15 2 1 6 9 2 17 9 17 15 0 6 3 9 6 5 3 -3 3 -10 -1 -16z m-458 3 c-3 -3 -12 -4 -19 -1 -8 3 -5 6 6 6 11 1 17 -2 13 -5z m873 3 c0 -2 -9 -12 -20 -22 -24 -21 -27 -14 -4 9 15 15 24 20 24 13z m-2913 -13 c-3 -3 -12 -4 -19 -1 -8 3 -5 6 6 6 11 1 17 -2 13 -5z m513 -14 c-8 -6 -55 -9 -105 -8 l-90 2 90 3 c49 2 94 8 99 13 5 5 12 7 15 4 3 -3 -1 -9 -9 -14z m1827 14 c-3 -3 -12 -4 -19 -1 -8 3 -5 6 6 6 11 1 17 -2 13 -5z m50 0 c-3 -3 -12 -4 -19 -1 -8 3 -5 6 6 6 11 1 17 -2 13 -5z m50 0 c-3 -3 -12 -4 -19 -1 -8 3 -5 6 6 6 11 1 17 -2 13 -5z m386 -21 c-18 -2 -48 -2 -65 0 -18 2 -4 4 32 4 36 0 50 -2 33 -4z m-3175 -60 c-10 -2 -26 -2 -35 0 -10 3 -2 5 17 5 19 0 27 -2 18 -5z m749 1 c-3 -3 -12 -4 -19 -1 -8 3 -5 6 6 6 11 1 17 -2 13 -5z"/>
<path d="M3683 513 c9 -2 23 -2 30 0 6 3 -1 5 -18 5 -16 0 -22 -2 -12 -5z"/>
<path d="M2189 678 c-1 -29 -3 -45 -6 -35 -4 15 -19 17 -124 17 l-119 0 0 -77 c0 -43 -3 -95 -6 -115 l-7 -38 542 0 541 0 0 115 0 115 -391 0 c-339 0 -393 -2 -403 -15 -8 -12 -10 -4 -8 35 3 32 0 50 -7 50 -6 0 -11 -22 -12 -52z m129 -71 c4 -30 -21 -48 -40 -29 -8 8 -5 9 11 5 16 -4 21 -1 21 15 0 26 -19 39 -31 21 -5 -8 -9 -9 -9 -3 0 36 44 28 48 -9z"/>
<path d="M618 483 c6 -2 18 -2 25 0 6 3 1 5 -13 5 -14 0 -19 -2 -12 -5z"/>
<path d="M2400 232 c-28 -22 -38 -104 -18 -142 11 -21 21 -25 61 -26 l47 -2 0 44 c0 42 -1 44 -31 44 -17 0 -28 -4 -24 -10 3 -5 13 -10 21 -10 8 0 14 -6 14 -12 -1 -48 -59 -50 -72 -3 -9 36 -1 90 17 105 16 13 45 3 45 -16 0 -8 7 -14 15 -14 18 0 19 11 3 32 -21 26 -53 30 -78 10z"/>
<path d="M1856 218 c-10 -13 -16 -43 -16 -74 0 -65 20 -87 76 -81 38 4 39 5 42 46 3 40 2 41 -27 41 -17 0 -31 -4 -31 -10 0 -5 7 -7 15 -4 20 8 31 -22 15 -41 -31 -37 -70 -6 -70 55 0 17 5 40 10 51 13 24 46 25 59 2 5 -10 13 -14 17 -10 15 14 -12 42 -44 45 -22 2 -34 -3 -46 -20z"/>
<path d="M1990 150 c0 -53 4 -90 10 -90 6 0 10 30 11 68 l1 67 13 -40 c7 -22 16 -53 19 -68 10 -44 28 -27 52 49 l22 69 1 -72 c1 -41 5 -73 11 -73 6 0 10 37 10 90 0 80 -2 90 -18 90 -14 0 -22 -16 -37 -72 l-19 -73 -17 55 c-10 30 -18 63 -18 73 -1 10 -9 17 -21 17 -19 0 -20 -7 -20 -90z"/>
<path d="M2170 150 l0 -90 44 0 c57 0 71 18 71 90 0 72 -14 90 -71 90 l-44 0 0 -90z m94 33 c14 -49 -3 -97 -35 -101 -22 -3 -27 2 -33 28 -3 18 -3 50 0 72 6 35 9 39 33 36 19 -2 28 -11 35 -35z"/>
<path d="M2520 150 c0 -73 3 -90 15 -90 11 0 15 11 15 41 0 34 3 40 16 35 27 -10 64 20 64 52 0 39 -17 52 -67 52 l-43 0 0 -90z m88 43 c2 -14 -4 -26 -18 -33 -27 -15 -40 -5 -40 31 0 27 3 30 28 27 19 -2 28 -9 30 -25z"/>
<path d="M2662 228 c-14 -14 -16 -38 -3 -38 5 0 11 7 15 15 8 21 42 19 51 -2 4 -12 -1 -23 -14 -32 -27 -17 -27 -27 0 -34 15 -4 20 -12 17 -29 -4 -29 -37 -36 -55 -12 -16 22 -31 9 -17 -14 13 -21 60 -28 80 -11 17 14 19 60 3 76 -8 8 -8 17 0 32 17 30 -2 61 -37 61 -16 0 -33 -5 -40 -12z"/>
<path d="M2787 222 c-36 -40 -4 -112 42 -97 22 7 26 -1 15 -29 -7 -19 -35 -21 -53 -3 -10 10 -12 8 -9 -8 4 -27 57 -34 75 -9 19 26 17 129 -3 148 -21 21 -47 20 -67 -2z m59 -28 c4 -17 1 -31 -10 -42 -15 -15 -17 -15 -32 0 -22 22 -11 68 16 68 13 0 22 -9 26 -26z"/>
<path d="M2992 228 c-14 -14 -16 -48 -3 -48 5 0 11 9 14 21 4 13 12 20 24 17 27 -5 28 -43 1 -69 -26 -26 -58 -70 -58 -81 0 -5 25 -8 55 -8 65 0 74 17 13 22 l-43 3 38 38 c53 54 49 117 -8 117 -12 0 -26 -5 -33 -12z"/>
<path d="M2890 130 c0 -5 14 -10 30 -10 17 0 30 5 30 10 0 6 -13 10 -30 10 -16 0 -30 -4 -30 -10z"/>
</g>
</svg>