<svg xmlns="http://www.w3.org/2000/svg" viewBox="946.90 71.00 440.10 178.00">
<g transform="translate(0.000000,768.000000) scale(0.100000,-0.100000)" fill="currentColor" stroke="none">
<path d="M10280 6882 c0 -41 0 -41 33 -36 88 15 88 15 87 -94 -1 -112 -28 -102 281 -102 l269 0 0 80 0 80 -269 0 -268 0 5 26 c4 23 8 25 33 20 26 -5 29 -3 29 19 0 13 -4 27 -10 30 -5 3 -10 2 -10 -4 0 -8 -44 -8 -140 0 -8 1 -21 6 -27 12 -10 7 -13 0 -13 -31z"/>
<path d="M11912 6888 c4 -10 48 -14 166 -16 140 -2 162 0 162 13 0 13 -24 15 -166 15 -128 0 -165 -3 -162 -12z"/>
<path d="M12374 6878 c3 -13 6 -29 6 -35 0 -7 5 -13 10 -13 6 0 10 9 10 19 0 11 5 23 10 26 6 4 10 -5 10 -19 0 -38 27 -32 33 7 5 36 0 48 -12 28 -6 -9 -11 -10 -15 -2 -4 6 -19 11 -33 11 -21 0 -24 -3 -19 -22z"/>
<path d="M12627 6883 c-2 -5 -3 -15 -3 -23 1 -13 28 -15 169 -18 l167 -2 0 25 0 25 -164 0 c-91 0 -167 -3 -169 -7z"/>
<path d="M12997 6871 c-3 -11 -2 -22 1 -25 3 -3 79 -6 169 -6 l163 0 0 25 0 25 -164 0 c-154 0 -164 -1 -169 -19z"/>
<path d="M11550 6866 c0 -7 -15 -18 -32 -24 -29 -9 -21 -10 55 -11 52 -1 87 3 87 9 0 6 -7 10 -15 10 -8 0 -15 7 -15 15 0 11 -11 15 -40 15 -27 0 -40 -4 -40 -14z"/>
<path d="M11075 6850 l-30 -20 213 0 c210 0 213 0 202 20 -10 19 -21 20 -183 20 -155 0 -175 -2 -202 -20z"/>
<path d="M11916 6850 c5 -5 63 -11 129 -13 92 -3 84 -3 -32 -2 -146 1 -152 0 -156 -20 -4 -17 -4 -17 -6 4 -1 19 -5 22 -23 18 -13 -3 -51 -9 -85 -13 l-63 -7 0 -38 0 -39 84 0 c85 0 85 0 89 28 l4 27 2 -27 1 -28 219 0 220 0 4 38 4 37 1 -37 2 -38 100 0 c100 0 122 -9 78 -30 -22 -11 -22 -10 -4 4 18 15 12 16 -77 16 l-97 0 0 -55 0 -55 -107 1 c-60 1 -98 4 -85 6 19 4 22 11 22 52 l0 47 -140 0 -140 -1 1 -50 c1 -44 2 -46 9 -20 l8 30 1 -27 c1 -24 5 -27 44 -31 23 -2 8 -4 -33 -4 -41 0 -67 1 -57 4 13 3 17 15 17 54 l0 49 -85 0 -85 0 0 -49 0 -50 48 -4 c44 -4 44 -4 -8 -3 l-54 1 3 53 2 52 -73 0 -73 0 25 -21 25 -21 -25 14 c-40 25 -29 33 48 36 l72 3 0 40 0 40 -332 -3 c-183 -2 -324 -2 -315 0 9 2 17 7 17 11 0 5 -11 6 -25 3 -14 -2 -25 -8 -25 -13 0 -5 -7 -9 -15 -9 -13 0 -15 -29 -15 -200 l0 -200 23 -9 c13 -5 41 -37 63 -70 21 -33 42 -61 47 -61 4 0 7 63 7 140 l0 140 163 -2 162 -2 -157 -3 -158 -4 0 -89 0 -90 154 0 c115 0 155 3 159 13 2 6 4 -3 4 -21 0 -25 -3 -29 -9 -18 -8 13 -33 16 -158 16 l-150 0 0 -39 c0 -22 5 -41 13 -43 6 -2 75 -3 152 -1 77 2 150 4 163 3 22 0 22 1 22 170 l0 170 560 0 560 0 -2 -37 c-1 -37 -1 -37 -5 -5 l-4 32 -60 0 -59 0 0 -170 0 -170 60 0 60 0 0 138 c0 75 4 131 8 125 6 -10 96 -13 373 -15 359 -3 364 -3 345 -22 -16 -16 -18 -16 -13 -3 6 15 -2 17 -63 17 l-70 0 0 -160 0 -160 65 0 65 0 0 134 c0 74 3 137 8 139 4 3 6 -57 4 -134 l-2 -139 50 0 c32 0 50 4 50 12 0 9 3 9 12 0 7 -7 20 -12 30 -12 10 0 18 -4 18 -9 0 -5 15 -9 33 -9 l32 0 3 69 3 69 -40 0 c-22 0 -42 4 -45 9 -3 4 15 7 39 5 l45 -3 0 64 c0 35 -5 67 -10 70 -6 4 -7 13 -2 23 5 9 10 36 11 60 2 35 -1 42 -16 42 -11 0 -14 3 -7 8 15 9 28 192 16 210 -7 10 -109 13 -503 13 -370 0 -519 4 -593 15 -54 7 -102 11 -106 9 -5 -3 -11 -1 -15 5 -3 5 -29 8 -58 6 -29 -2 -40 -1 -24 1 15 2 27 8 27 14 0 5 -70 9 -167 9 -108 0 -164 -3 -157 -10z m-858 -162 l2 112 185 0 185 0 2 -112 c1 -98 2 -105 8 -53 l7 60 -1 -60 -1 -60 -202 -3 -203 -2 2 117 2 118 6 -115 6 -115 2 113z m2339 75 c-3 -10 -5 -4 -5 12 0 17 2 24 5 18 2 -7 2 -21 0 -30z m-27 -123 l0 -100 -112 1 c-62 0 -107 3 -100 6 17 7 15 33 -3 33 -8 0 -15 -9 -15 -20 0 -13 -6 -20 -17 -19 -11 0 -13 3 -5 6 20 8 14 33 -9 33 -16 0 -20 -5 -16 -20 5 -18 0 -20 -49 -20 l-54 0 1 93 c1 50 3 84 6 75 6 -24 82 -23 84 1 1 14 2 13 6 -1 2 -10 13 -18 24 -18 11 0 19 7 20 18 1 16 2 16 6 0 2 -10 11 -18 19 -18 8 0 15 8 15 18 1 16 2 16 6 0 2 -10 13 -18 24 -18 11 0 19 7 20 18 1 16 2 16 6 0 2 -10 11 -18 19 -18 8 0 15 8 15 18 1 16 2 16 6 0 6 -25 43 -23 43 2 0 20 -7 20 -350 20 -343 0 -350 0 -350 -20 0 -26 39 -28 41 -2 1 16 2 16 6 0 2 -10 13 -18 24 -18 11 0 19 7 20 18 1 16 2 16 6 0 2 -10 11 -18 19 -18 8 0 14 8 14 18 1 16 1 16 11 0 5 -10 17 -18 24 -18 8 0 16 8 16 18 1 16 2 16 6 0 2 -10 11 -18 19 -18 8 0 15 8 15 18 1 16 2 16 6 0 2 -10 13 -18 24 -18 11 0 19 7 20 18 1 15 2 15 6 1 6 -24 80 -24 86 -1 3 9 5 -25 6 -75 l1 -93 -177 1 c-98 0 -172 3 -165 6 6 2 12 14 12 24 0 11 -4 17 -10 14 -5 -3 -10 -1 -10 4 0 6 5 11 10 11 6 0 10 7 10 15 0 8 -9 15 -19 15 -17 0 -20 -6 -17 -45 1 -25 -1 -45 -6 -45 -10 0 -11 184 -1 193 3 4 177 7 385 7 l378 0 0 -100z m-1393 38 c-3 -7 -5 -2 -5 12 0 14 2 19 5 13 2 -7 2 -19 0 -25z m20 0 c-3 -7 -5 -2 -5 12 0 14 2 19 5 13 2 -7 2 -19 0 -25z m20 0 c-3 -7 -5 -2 -5 12 0 14 2 19 5 13 2 -7 2 -19 0 -25z m20 0 c-3 -7 -5 -2 -5 12 0 14 2 19 5 13 2 -7 2 -19 0 -25z m72 -5 c-1 -21 -3 -30 -6 -20 -3 10 -15 18 -31 18 l-27 2 28 4 c15 2 27 8 27 13 0 5 -12 11 -27 13 -26 4 -26 4 5 6 31 1 32 0 31 -36z m18 -15 c-2 -13 -4 -5 -4 17 -1 22 1 32 4 23 2 -10 2 -28 0 -40z m-492 -3 l20 -16 -20 10 c-11 5 -29 17 -40 26 l-20 16 20 -10 c11 -5 29 -17 40 -26z m805 30 c0 -7 -70 -41 -100 -49 -14 -4 2 7 35 23 71 34 65 32 65 26z m-633 -61 c-3 -3 -12 -4 -19 -1 -8 3 -5 6 6 6 11 1 17 -2 13 -5z m210 0 c-3 -3 -12 -4 -19 -1 -8 3 -5 6 6 6 11 1 17 -2 13 -5z m61 -1 c-10 -2 -26 -2 -35 0 -10 3 -2 5 17 5 19 0 27 -2 18 -5z m412 -47 c0 -2 -7 -7 -16 -10 -8 -3 -12 -2 -9 4 6 10 25 14 25 6z m947 -43 c-3 -10 -5 -4 -5 12 0 17 2 24 5 18 2 -7 2 -21 0 -30z m-33 -18 c-4 -8 -8 -15 -10 -15 -2 0 -4 7 -4 15 0 8 4 15 10 15 5 0 7 -7 4 -15z m73 -21 c-3 -3 -12 -4 -19 -1 -8 3 -5 6 6 6 11 1 17 -2 13 -5z m-80 -51 c-3 -10 -5 -2 -5 17 0 19 2 27 5 18 2 -10 2 -26 0 -35z m-1970 -35 c-2 -13 -4 -5 -4 17 -1 22 1 32 4 23 2 -10 2 -28 0 -40z m2040 46 c-3 -3 -12 -4 -19 -1 -8 3 -5 6 6 6 11 1 17 -2 13 -5z"/>
<path d="M11070 6687 c0 -96 1 -103 20 -104 11 -1 20 4 20 10 0 7 4 6 10 -3 7 -10 9 21 8 95 l-2 110 -6 -80 -6 -80 -2 78 c-2 70 -4 77 -22 77 -19 0 -20 -7 -20 -103z m17 -50 c-2 -23 -3 -1 -3 48 0 50 1 68 3 42 2 -26 2 -67 0 -90z"/>
<path d="M11144 6685 c0 -60 1 -84 3 -52 2 32 2 81 0 110 -2 29 -3 3 -3 -58z"/>
<path d="M11161 6689 l-1 -105 30 0 30 0 0 101 c0 94 -1 101 -20 102 -16 1 -20 -5 -21 -35 l-2 -37 -7 40 c-5 29 -8 11 -9 -66z m46 59 c-3 -8 -6 -5 -6 6 -1 11 2 17 5 13 3 -3 4 -12 1 -19z m-30 -90 c-2 -13 -4 -5 -4 17 -1 22 1 32 4 23 2 -10 2 -28 0 -40z"/>
<path d="M11234 6685 c0 -60 1 -84 3 -52 2 32 2 81 0 110 -2 29 -3 3 -3 -58z"/>
<path d="M11254 6685 c0 -60 1 -84 3 -52 2 32 2 81 0 110 -2 29 -3 3 -3 -58z"/>
<path d="M11274 6685 c0 -60 1 -84 3 -52 2 32 2 81 0 110 -2 29 -3 3 -3 -58z"/>
<path d="M11290 6685 c0 -63 4 -105 10 -105 6 0 10 6 10 13 0 8 4 7 10 -3 7 -10 10 19 10 93 0 100 -1 107 -20 107 -19 0 -20 -7 -20 -105z"/>
<path d="M11344 6685 c0 -60 1 -84 3 -52 2 32 2 81 0 110 -2 29 -3 3 -3 -58z"/>
<path d="M11364 6685 c0 -60 1 -84 3 -52 2 32 2 81 0 110 -2 29 -3 3 -3 -58z"/>
<path d="M11380 6687 c0 -96 1 -103 20 -104 19 -2 20 4 20 103 0 97 -1 104 -20 104 -19 0 -20 -7 -20 -103z m17 -29 c-3 -8 -6 -5 -6 6 -1 11 2 17 5 13 3 -3 4 -12 1 -19z m0 -50 c-3 -8 -6 -5 -6 6 -1 11 2 17 5 13 3 -3 4 -12 1 -19z"/>
<path d="M13320 6709 c0 -14 5 -19 17 -17 26 5 29 38 4 38 -15 0 -21 -6 -21 -21z"/>
<path d="M12610 6660 c0 -13 7 -20 20 -20 13 0 20 7 20 20 0 13 -7 20 -20 20 -13 0 -20 -7 -20 -20z"/>
<path d="M12662 6663 c5 -26 38 -29 38 -4 0 15 -6 21 -21 21 -14 0 -19 -5 -17 -17z"/>
<path d="M12710 6660 c0 -11 7 -20 15 -20 8 0 15 9 15 20 0 11 -7 20 -15 20 -8 0 -15 -9 -15 -20z"/>
<path d="M12752 6663 c5 -26 38 -29 38 -4 0 15 -6 21 -21 21 -14 0 -19 -5 -17 -17z"/>
<path d="M12800 6660 c0 -11 7 -20 15 -20 8 0 15 9 15 20 0 11 -7 20 -15 20 -8 0 -15 -9 -15 -20z"/>
<path d="M12840 6660 c0 -13 7 -20 20 -20 13 0 20 7 20 20 0 13 -7 20 -20 20 -13 0 -20 -7 -20 -20z"/>
<path d="M12890 6660 c0 -11 7 -20 15 -20 8 0 15 9 15 20 0 11 -7 20 -15 20 -8 0 -15 -9 -15 -20z"/>
<path d="M12932 6663 c5 -26 38 -29 38 -4 0 15 -6 21 -21 21 -14 0 -19 -5 -17 -17z"/>
<path d="M13000 6661 c0 -15 8 -18 40 -18 31 0 40 3 40 17 0 14 -9 18 -40 18 -32 1 -40 -3 -40 -17z"/>
<path d="M13090 6660 c0 -13 7 -20 20 -20 13 0 20 7 20 20 0 13 -7 20 -20 20 -13 0 -20 -7 -20 -20z"/>
<path d="M13140 6660 c0 -11 7 -20 15 -20 8 0 15 9 15 20 0 11 -7 20 -15 20 -8 0 -15 -9 -15 -20z"/>
<path d="M13180 6660 c0 -13 7 -20 20 -20 13 0 20 7 20 20 0 13 -7 20 -20 20 -13 0 -20 -7 -20 -20z"/>
<path d="M13230 6660 c0 -11 7 -20 15 -20 8 0 15 9 15 20 0 11 -7 20 -15 20 -8 0 -15 -9 -15 -20z"/>
<path d="M13272 6663 c5 -26 38 -29 38 -4 0 15 -6 21 -21 21 -14 0 -19 -5 -17 -17z"/>
<path d="M13320 6660 c0 -13 7 -20 20 -20 13 0 20 7 20 20 0 13 -7 20 -20 20 -13 0 -20 -7 -20 -20z"/>
<path d="M12660 6615 c0 -8 9 -15 20 -15 11 0 20 7 20 15 0 8 -9 15 -20 15 -11 0 -20 -7 -20 -15z"/>
<path d="M12710 6615 c0 -8 7 -15 15 -15 8 0 15 7 15 15 0 8 -7 15 -15 15 -8 0 -15 -7 -15 -15z"/>
<path d="M12753 6590 c0 -32 3 -40 18 -40 21 0 26 25 7 34 -10 5 -10 7 0 12 19 9 14 34 -7 34 -15 0 -18 -8 -18 -40z"/>
<path d="M12800 6610 c0 -11 7 -20 15 -20 8 0 15 9 15 20 0 11 -7 20 -15 20 -8 0 -15 -9 -15 -20z"/>
<path d="M12842 6613 c2 -10 10 -18 18 -18 8 0 16 8 18 18 2 12 -3 17 -18 17 -15 0 -20 -5 -18 -17z"/>
<path d="M12890 6616 c0 -8 6 -16 12 -18 9 -3 8 -9 -5 -22 -9 -10 -17 -13 -17 -7 0 6 -9 11 -20 11 -11 0 -20 -7 -20 -15 0 -12 14 -15 65 -15 l65 0 0 40 0 40 -40 0 c-28 0 -40 -4 -40 -14z m70 -28 c0 -4 -9 -8 -20 -8 -11 0 -20 4 -20 9 0 6 9 9 20 8 11 -1 20 -5 20 -9z"/>
<path d="M13000 6611 c0 -15 8 -18 40 -18 32 0 40 3 40 18 0 15 -8 19 -40 19 -32 0 -40 -4 -40 -19z"/>
<path d="M13090 6610 c0 -13 7 -20 20 -20 13 0 20 7 20 20 0 13 -7 20 -20 20 -13 0 -20 -7 -20 -20z"/>
<path d="M13140 6610 c0 -11 7 -20 15 -20 8 0 15 9 15 20 0 11 -7 20 -15 20 -8 0 -15 -9 -15 -20z"/>
<path d="M13182 6613 c5 -26 38 -29 38 -4 0 15 -6 21 -21 21 -14 0 -19 -5 -17 -17z"/>
<path d="M13230 6610 c0 -11 7 -20 15 -20 8 0 15 9 15 20 0 11 -7 20 -15 20 -8 0 -15 -9 -15 -20z"/>
<path d="M13272 6613 c5 -26 38 -29 38 -4 0 15 -6 21 -21 21 -14 0 -19 -5 -17 -17z"/>
<path d="M13320 6609 c0 -14 5 -19 17 -17 26 5 29 38 4 38 -15 0 -21 -6 -21 -21z"/>
<path d="M12667 6583 c-14 -13 -6 -33 13 -33 13 0 20 7 20 20 0 19 -20 27 -33 13z"/>
<path d="M12723 6583 c-18 -7 -16 -33 2 -33 8 0 15 9 15 20 0 11 -1 20 -2 19 -2 0 -9 -3 -15 -6z"/>
<path d="M12800 6565 c0 -8 7 -15 15 -15 8 0 15 7 15 15 0 8 -7 15 -15 15 -8 0 -15 -7 -15 -15z"/>
<path d="M13000 6565 c0 -11 11 -15 40 -15 29 0 40 4 40 15 0 11 -11 15 -40 15 -29 0 -40 -4 -40 -15z"/>
<path d="M13180 6565 c0 -8 9 -15 20 -15 11 0 20 7 20 15 0 8 -9 15 -20 15 -11 0 -20 -7 -20 -15z"/>
<path d="M13230 6565 c0 -11 11 -15 40 -15 29 0 40 4 40 15 0 18 -36 20 -43 3 -4 -10 -6 -10 -6 0 -1 17 -31 15 -31 -3z"/>
<path d="M13320 6565 c0 -8 9 -15 20 -15 11 0 20 7 20 15 0 8 -9 15 -20 15 -11 0 -20 -7 -20 -15z"/>
<path d="M12620 6820 c0 -6 35 -10 85 -10 50 0 85 4 85 10 0 6 -35 10 -85 10 -50 0 -85 -4 -85 -10z"/>
<path d="M12800 6820 c0 -6 33 -10 80 -10 47 0 80 4 80 10 0 6 -33 10 -80 10 -47 0 -80 -4 -80 -10z"/>
<path d="M13000 6821 c0 -5 74 -9 165 -9 95 0 165 3 165 9 0 5 -70 9 -165 9 -91 0 -165 -4 -165 -9z"/>
<path d="M13420 6820 c0 -5 9 -10 20 -10 11 0 20 5 20 10 0 6 -9 10 -20 10 -11 0 -20 -4 -20 -10z"/>
<path d="M13470 6820 c0 -5 5 -10 10 -10 6 0 10 5 10 10 0 6 -4 10 -10 10 -5 0 -10 -4 -10 -10z"/>
<path d="M10280 6744 c0 -38 -4 -63 -9 -59 -17 10 -24 -18 -8 -30 10 -7 17 -17 17 -24 0 -7 19 -11 50 -11 l50 0 0 -85 0 -85 -220 0 -220 0 0 -85 0 -84 80 0 80 0 30 60 30 59 108 1 c59 1 110 1 114 0 10 -1 17 33 21 104 3 55 3 53 5 -17 2 -67 5 -78 20 -78 14 0 15 -2 2 -10 -8 -5 -71 -10 -140 -10 l-125 0 -27 -55 c-15 -30 -22 -55 -17 -55 5 0 9 -43 9 -95 l0 -95 130 0 c94 0 130 3 130 12 0 6 6 4 13 -5 11 -16 37 -17 277 -15 l265 3 3 153 c2 131 0 152 -13 152 -8 0 -15 5 -15 10 0 6 7 10 15 10 12 0 15 19 15 115 l0 115 -270 0 c-209 0 -270 -3 -270 -12 0 -9 -4 -8 -10 2 -5 8 -10 52 -10 98 l0 82 -55 0 -55 0 0 -66z m63 -1 l-43 -4 0 -44 c0 -43 0 -44 38 -48 l37 -4 -40 1 -40 1 -3 53 -3 52 48 -2 48 -1 -42 -4z m467 -273 l0 -130 -42 1 -43 2 40 7 c37 7 35 7 -23 9 l-63 1 3 108 3 107 60 6 c44 4 27 6 -67 7 l-128 2 -2 -112 -2 -113 -3 104 c-2 58 -1 111 1 118 4 10 37 13 136 13 l130 0 0 -130z m-140 0 l0 -110 -55 0 -55 0 0 110 0 110 55 0 55 0 0 -110z m-105 -128 c-3 -3 -11 0 -18 7 -9 10 -8 11 6 5 10 -3 15 -9 12 -12z m152 -8 c-3 -3 -12 -4 -19 -1 -8 3 -5 6 6 6 11 1 17 -2 13 -5z m-320 -76 c-3 -8 -6 -5 -6 6 -1 11 2 17 5 13 3 -3 4 -12 1 -19z m-170 -33 c0 -10 -5 -11 -19 -4 -10 5 -18 11 -18 12 0 2 8 3 18 4 10 1 19 -5 19 -12z"/>
<path d="M10250 6746 c0 -8 5 -18 10 -21 6 -3 10 3 10 14 0 12 -4 21 -10 21 -5 0 -10 -6 -10 -14z"/>
<path d="M12150 6678 l0 -48 75 0 75 0 0 49 0 50 -75 -2 -75 -2 0 -47z m17 0 c-3 -7 -5 -2 -5 12 0 14 2 19 5 13 2 -7 2 -19 0 -25z m20 -20 c-2 -13 -4 -5 -4 17 -1 22 1 32 4 23 2 -10 2 -28 0 -40z m20 20 c-3 -7 -5 -2 -5 12 0 14 2 19 5 13 2 -7 2 -19 0 -25z m76 25 c-7 -2 -21 -2 -30 0 -10 3 -4 5 12 5 17 0 24 -2 18 -5z m4 -29 c-3 -3 -12 -4 -19 -1 -8 3 -5 6 6 6 11 1 17 -2 13 -5z m-7 -24 c0 -5 -2 -10 -4 -10 -3 0 -8 5 -11 10 -3 6 -1 10 4 10 6 0 11 -4 11 -10z"/>
<path d="M13520 6625 c0 -25 5 -45 10 -45 6 0 10 20 10 45 0 25 -4 45 -10 45 -5 0 -10 -20 -10 -45z"/>
<path d="M11472 6433 l3 -168 45 -1 c25 -1 51 1 58 3 9 4 12 47 12 169 l0 164 -60 0 -60 0 2 -167z"/>
<path d="M11600 6435 c0 -163 0 -165 23 -169 36 -8 90 -1 95 12 2 6 14 12 28 12 17 0 22 -4 17 -16 -5 -13 3 -15 53 -12 l59 3 3 168 2 167 -59 0 -60 0 0 -147 c-1 -81 -3 -149 -6 -151 -3 -3 -5 45 -5 106 0 68 -4 112 -10 112 -6 0 -10 -44 -10 -112 0 -61 -2 -109 -5 -106 -3 2 -5 70 -6 151 l0 147 -60 0 -59 0 0 -165z m31 128 c-11 -5 -11 -7 0 -15 12 -8 12 -9 0 -6 -22 6 -25 28 -4 27 12 0 14 -2 4 -6z"/>
<path d="M11730 6565 c0 -19 5 -35 10 -35 6 0 10 16 10 35 0 19 -4 35 -10 35 -5 0 -10 -16 -10 -35z"/>
<path d="M11890 6430 l0 -170 53 0 c29 0 58 5 64 11 8 8 13 8 17 0 8 -12 95 -15 113 -3 8 5 12 57 12 170 l0 162 -129 0 -130 0 0 -170z m132 48 c-5 -150 -8 -165 -10 -40 -1 67 1 122 6 122 4 0 6 -37 4 -82z"/>
<path d="M12160 6565 c0 -19 5 -35 10 -35 6 0 10 16 10 35 0 19 -4 35 -10 35 -5 0 -10 -16 -10 -35z"/>
<path d="M12193 6433 l2 -168 58 -3 57 -3 0 171 0 170 -60 0 -59 0 2 -167z"/>
<path d="M12320 6431 l0 -169 60 -1 60 -1 0 170 0 170 -60 0 -60 0 0 -169z"/>
<path d="M12160 6405 c0 -70 4 -115 10 -115 6 0 10 45 10 115 0 70 -4 115 -10 115 -6 0 -10 -45 -10 -115z"/>
<path d="M12580 6395 c0 -77 3 -105 13 -105 9 0 8 -3 -2 -9 -24 -15 4 -21 88 -19 l81 2 0 118 0 118 -90 0 -90 0 0 -105z"/>
<path d="M12771 6370 l1 -130 36 -30 c31 -26 45 -30 94 -30 40 0 58 4 58 13 0 9 2 9 8 0 7 -12 44 -16 125 -14 l47 1 0 160 0 160 -85 0 -84 0 -4 -132 -3 -133 -2 133 -2 132 -95 0 -96 0 2 -130z"/>
<path d="M9875 6470 c-4 -6 8 -10 30 -10 22 0 34 4 30 10 -3 6 -17 10 -30 10 -13 0 -27 -4 -30 -10z"/>
<path d="M9820 6433 c-19 -13 -20 -27 -20 -233 0 -200 2 -219 18 -223 16 -4 16 -5 0 -6 -19 -1 -21 -15 -12 -73 6 -34 10 -37 43 -41 25 -2 17 -5 -26 -7 -35 -1 -69 -3 -75 -4 -10 -1 -14 -34 -16 -123 -3 -120 -2 -122 20 -126 20 -4 19 -4 -5 -6 l-29 -1 8 300 7 300 -47 0 -46 0 0 -165 c0 -103 4 -165 10 -165 6 0 10 58 10 155 l0 155 25 0 25 0 0 -160 0 -160 -49 0 c-51 0 -76 -15 -46 -27 22 -8 65 -51 65 -64 0 -5 6 -12 14 -15 9 -3 13 -21 12 -54 0 -26 -4 -46 -8 -44 -4 2 -9 0 -13 -6 -10 -16 -55 -12 -55 5 0 11 -12 14 -52 12 l-53 -2 -3 -68 -3 -67 56 0 c42 0 55 3 55 15 0 8 7 15 15 15 9 0 15 -9 15 -25 0 -26 -37 -134 -51 -150 -14 -15 -10 -25 10 -25 21 0 52 69 66 143 4 21 12 40 18 44 7 4 8 -25 3 -91 -7 -91 -6 -97 11 -94 13 2 19 14 21 41 l3 37 98 0 99 0 1 102 c1 56 5 105 10 108 4 3 13 20 20 38 l13 32 533 0 533 0 22 -35 c22 -36 60 -48 60 -20 0 12 14 15 64 15 56 0 67 3 80 22 18 25 21 17 6 -13 -9 -15 -22 -19 -69 -19 l-58 0 -7 -37 c-3 -21 -6 -84 -6 -140 l0 -103 525 0 525 0 0 115 0 115 -517 3 -518 2 518 3 c452 2 517 4 517 17 0 13 -53 15 -419 15 l-418 0 5 50 c4 43 2 50 -13 50 -10 0 -26 -7 -36 -16 -16 -15 -17 -14 -12 5 l5 21 481 -2 c380 -2 481 -6 483 -16 1 -7 0 -8 -3 -2 -3 7 -155 10 -449 10 l-444 0 0 -45 0 -45 445 -2 445 -3 24 28 24 27 526 0 c492 0 527 -1 533 -17 3 -10 15 -30 25 -45 14 -21 18 -45 18 -122 l0 -96 100 0 100 0 0 -40 c0 -30 4 -40 16 -40 13 0 15 13 12 90 -3 93 5 118 17 53 3 -20 15 -60 26 -89 15 -39 25 -52 39 -51 17 1 18 3 3 37 -30 69 -53 142 -47 151 9 15 34 10 34 -6 0 -12 13 -15 55 -15 l55 0 0 59 c0 33 -4 62 -9 65 -5 4 -30 9 -55 12 -38 6 -46 4 -46 -10 0 -28 -49 -20 -60 10 -13 33 -13 94 0 94 5 0 24 19 41 43 17 23 33 41 37 39 4 -2 8 1 10 7 2 7 -15 11 -47 11 l-51 0 2 163 c3 136 5 162 18 162 13 0 15 -25 18 -157 2 -135 5 -158 18 -158 14 0 15 20 10 163 l-5 162 -40 3 -41 3 -2 -283 c-1 -156 -3 -262 -5 -235 l-4 47 -70 0 -69 0 0 -44 c0 -31 -5 -46 -16 -50 -23 -9 -24 -8 -23 17 1 17 2 18 6 4 8 -32 23 -7 23 39 0 28 -4 43 -10 39 -5 -3 -10 -1 -10 4 0 6 5 11 10 11 6 0 10 28 10 63 l0 64 30 -5 30 -4 0 146 0 146 -31 0 c-31 0 -31 0 -27 -50 2 -34 -1 -50 -9 -50 -8 0 -11 14 -7 48 3 26 1 53 -5 61 -10 16 -46 7 -36 -9 3 -5 1 -10 -4 -10 -6 0 -11 7 -11 15 0 8 -7 15 -15 15 -13 0 -15 -24 -15 -155 0 -127 3 -155 14 -155 8 0 17 6 19 13 4 8 8 9 14 1 4 -6 15 -14 23 -17 8 -3 -4 -6 -27 -6 -41 -1 -43 -3 -43 -30 0 -23 5 -30 23 -33 20 -3 22 -9 23 -61 l1 -57 -4 55 c-4 51 -6 55 -28 55 l-25 0 -2 198 -2 197 -6 -180 c-3 -99 -7 -172 -8 -162 -2 15 -16 17 -142 17 l-140 0 0 -30 0 -29 133 -4 c109 -2 98 -3 -63 -5 -107 -1 -211 -6 -229 -12 -28 -8 -32 -7 -22 3 14 14 14 14 91 16 60 1 60 1 60 31 l0 30 -151 0 -151 0 4 -35 4 -34 -218 -3 c-120 -2 -218 0 -218 5 0 4 -225 6 -499 5 -476 -3 -500 -2 -511 15 -6 11 -9 21 -6 24 3 3 8 -2 12 -11 4 -10 17 -16 35 -16 24 0 29 4 29 25 l0 25 -665 0 -665 0 0 -30 0 -30 226 -2 c226 -3 227 -3 235 -26 6 -15 5 -21 -1 -17 -6 3 -10 12 -10 20 0 11 -46 14 -259 15 -172 0 -261 -3 -264 -10 -3 -6 -4 -5 -3 2 1 7 12 14 24 16 17 3 22 10 22 34 0 29 -1 30 -40 26 l-40 -4 2 171 2 170 6 -165 6 -165 2 208 c2 178 0 207 -13 207 -13 0 -15 -41 -13 -312 1 -182 4 -288 9 -253 5 48 6 42 3 -29 -2 -49 -4 -122 -4 -163 l0 -73 -47 2 -48 1 43 4 42 4 0 55 0 54 -85 0 -85 0 0 -54 0 -55 43 -4 42 -4 -47 -1 -48 -2 0 65 0 65 90 0 90 0 0 29 c0 16 -3 31 -7 33 -5 2 -7 146 -5 322 3 306 4 318 22 323 18 5 20 14 20 87 l0 82 -45 0 c-25 0 -55 -6 -65 -13z m84 -81 c2 -4 1 -14 -5 -22 -7 -12 -9 -12 -9 3 0 10 -5 15 -10 12 -6 -4 -7 -11 -4 -17 4 -7 2 -8 -5 -4 -9 6 -9 11 0 22 13 16 25 18 33 6z m13 -144 c-2 -13 -4 -5 -4 17 -1 22 1 32 4 23 2 -10 2 -28 0 -40z m3480 -190 c-2 -24 -4 -7 -4 37 0 44 2 63 4 43 2 -21 2 -57 0 -80z m103 -10 c0 -4 -9 -8 -20 -8 -17 0 -20 -7 -21 -42 -2 -33 -3 -36 -6 -14 -7 45 4 75 27 73 11 -1 20 -5 20 -9z m-3627 -35 c-7 -2 -19 -2 -25 0 -7 3 -2 5 12 5 14 0 19 -2 13 -5z m44 -175 c-3 -7 -5 -2 -5 12 0 14 2 19 5 13 2 -7 2 -19 0 -25z m3520 10 c-3 -8 -6 -5 -6 6 -1 11 2 17 5 13 3 -3 4 -12 1 -19z m-2180 -8 c2 -8 -1 -22 -7 -30 -8 -13 -11 -13 -22 -1 -10 11 -10 12 0 7 7 -4 15 -1 18 9 9 22 -3 30 -21 15 -13 -11 -14 -10 -9 4 8 20 38 17 41 -4z m2083 -5 c0 -8 -4 -15 -10 -15 -5 0 -7 7 -4 15 4 8 8 15 10 15 2 0 4 -7 4 -15z m-2391 -9 c-2 -2 -86 -6 -186 -8 -178 -3 -182 -4 -202 -28 l-21 -25 13 27 c6 15 19 29 27 32 20 5 375 7 369 2z m69 -9 c9 -10 3 -12 -26 -8 -30 3 -33 5 -17 12 28 11 31 11 43 -4z m42 -32 c7 -9 8 -15 2 -15 -5 0 -12 7 -16 15 -3 8 -4 15 -2 15 2 0 9 -7 16 -15z m-535 -13 c-3 -3 -11 0 -18 7 -9 10 -8 11 6 5 10 -3 15 -9 12 -12z m659 2 c11 -28 7 -34 -21 -33 -24 2 -25 2 -5 6 12 2 22 9 22 14 0 6 -5 7 -12 3 -7 -5 -8 -3 -3 6 6 10 4 12 -9 7 -10 -4 -15 -3 -11 3 9 15 32 12 39 -6z m57 -24 c5 0 9 9 9 21 0 11 5 17 10 14 14 -8 -8 -47 -23 -42 -7 2 -12 12 -13 23 -1 15 0 16 3 2 3 -10 9 -18 14 -18z m1056 18 c-3 -8 -6 -5 -6 6 -1 11 2 17 5 13 3 -3 4 -12 1 -19z m-2449 -5 c-21 -2 -55 -2 -75 0 -21 2 -4 4 37 4 41 0 58 -2 38 -4z m2411 -47 c-9 -8 -10 -7 -5 7 3 10 7 24 7 30 1 7 3 4 6 -7 3 -10 -1 -23 -8 -30z m-1149 -1 c7 -9 8 -15 2 -15 -5 0 -12 7 -16 15 -3 8 -4 15 -2 15 2 0 9 -7 16 -15z m2510 -70 c0 -12 -16 -15 -85 -15 -54 0 -85 -4 -85 -11 0 -7 29 -9 85 -7 l85 3 0 -67 0 -68 -90 0 -90 0 0 83 0 82 85 -3 c56 -2 85 0 85 7 0 6 2 11 5 11 3 0 5 -7 5 -15z m-1557 -29 c8 -21 -17 -50 -37 -43 -16 6 -22 38 -9 50 11 12 41 7 46 -7z m-2213 -48 c0 -4 -20 -8 -45 -8 -25 0 -45 4 -45 9 0 5 20 8 45 8 25 0 45 -4 45 -9z"/>
<path d="M13450 5505 l0 -55 80 0 80 0 0 55 0 55 -80 0 -80 0 0 -55z m140 25 c0 -5 -22 -10 -50 -10 -27 0 -50 5 -50 10 0 6 23 10 50 10 28 0 50 -4 50 -10z"/>
<path d="M12020 5566 c0 -21 21 -31 30 -15 5 7 6 17 4 21 -9 14 -34 9 -34 -6z"/>
<path d="M10962 6328 l3 -63 43 1 42 1 -1 -36 c-2 -30 -3 -32 -6 -8 -4 24 -8 27 -44 27 l-39 0 0 -154 0 -155 48 -4 47 -3 -47 -2 c-48 -2 -48 -2 -48 -36 l0 -35 195 -1 195 0 0 35 0 35 -145 0 -145 0 0 165 c0 91 3 165 8 165 4 0 6 -72 4 -159 l-3 -159 141 -1 140 -2 0 106 0 105 -125 0 -125 0 0 44 c0 37 -9 57 -52 120 -33 49 -58 76 -70 76 -17 0 -19 -7 -16 -62z"/>
<path d="M11730 6270 c0 -5 5 -10 10 -10 6 0 10 5 10 10 0 6 -4 10 -10 10 -5 0 -10 -4 -10 -10z"/>
<path d="M9940 6065 l0 -205 25 0 25 0 0 205 0 205 -25 0 -25 0 0 -205z"/>
<path d="M10000 6028 c0 -133 2 -239 5 -237 2 3 5 74 6 159 1 85 4 149 6 143 9 -24 33 -14 34 15 1 25 1 26 7 4 13 -43 27 -28 29 31 1 33 -2 57 -8 57 -6 0 -8 -4 -5 -8 3 -5 -1 -9 -9 -9 -8 0 -15 6 -15 14 0 7 9 13 20 13 11 0 20 5 20 11 0 7 -10 9 -25 7 -14 -3 -25 -1 -25 4 0 5 12 8 28 6 26 -3 27 -5 29 -68 1 -35 4 -72 6 -81 3 -11 -2 -16 -17 -16 -71 -1 -66 8 -66 -108 l0 -105 50 0 50 0 0 205 0 205 -44 0 c-26 0 -46 -5 -49 -12 -4 -10 -6 -10 -6 0 -1 6 -5 12 -11 12 -6 0 -10 -87 -10 -242z m57 120 c-3 -8 -6 -5 -6 6 -1 11 2 17 5 13 3 -3 4 -12 1 -19z"/>
<path d="M11364 6060 c0 -113 2 -159 3 -102 2 56 2 148 0 205 -1 56 -3 10 -3 -103z"/>
<path d="M11110 6205 l0 -45 120 0 120 0 0 45 0 45 -120 0 -120 0 0 -45z"/>
<path d="M11380 6206 c0 -38 3 -45 23 -49 l22 -4 -22 -2 c-22 -1 -23 -4 -23 -106 0 -97 1 -105 19 -105 11 0 22 6 24 13 4 10 6 10 6 0 1 -7 8 -13 16 -13 13 0 15 24 15 155 l0 155 -40 0 -40 0 0 -44z"/>
<path d="M11470 6095 l0 -155 60 0 60 0 0 155 0 155 -60 0 -60 0 0 -155z"/>
<path d="M11600 6095 l0 -155 45 0 45 0 0 155 0 155 -45 0 -45 0 0 -155z m23 -100 c-3 -9 -8 -14 -10 -11 -3 3 -2 9 2 15 9 16 15 13 8 -4z"/>
<path d="M11704 6055 c0 -110 2 -156 3 -103 2 53 2 143 0 200 -1 57 -3 13 -3 -97z"/>
<path d="M11720 6095 c0 -131 2 -155 15 -155 13 0 15 24 15 155 0 131 -2 155 -15 155 -13 0 -15 -24 -15 -155z"/>
<path d="M11760 6095 l0 -155 60 0 60 0 0 155 0 155 -60 0 -60 0 0 -155z"/>
<path d="M11890 6095 l0 -155 66 0 66 0 -4 155 -3 155 -62 0 -63 0 0 -155z"/>
<path d="M12034 6025 c0 -126 2 -177 3 -112 2 65 2 168 0 230 -1 62 -3 9 -3 -118z"/>
<path d="M12051 6116 c0 -92 5 -137 12 -140 9 -3 8 -5 0 -5 -7 -1 -13 -8 -13 -16 0 -11 12 -15 49 -15 l50 0 0 155 1 155 -50 0 -51 0 2 -134z"/>
<path d="M12160 6095 c0 -97 4 -155 10 -155 6 0 10 58 10 155 0 97 -4 155 -10 155 -6 0 -10 -58 -10 -155z"/>
<path d="M12190 6095 l0 -155 59 0 c57 0 60 1 64 28 l4 27 2 -27 c1 -21 6 -28 22 -28 21 0 22 2 16 120 -3 66 -2 118 3 115 4 -3 9 -55 9 -117 1 -62 4 -114 6 -117 3 -2 5 65 5 151 l0 155 -30 1 -29 1 -4 -127 -3 -127 -2 128 -2 127 -60 0 -60 0 0 -155z m175 115 c3 -5 1 -10 -4 -10 -6 0 -11 5 -11 10 0 6 2 10 4 10 3 0 8 -4 11 -10z"/>
<path d="M12390 6095 l0 -155 25 0 25 0 0 155 0 155 -25 0 -25 0 0 -155z"/>
<path d="M12450 6095 l0 -155 60 0 60 0 0 155 0 155 -60 0 -60 0 0 -155z"/>
<path d="M12581 6095 l1 -155 54 0 54 0 0 155 0 155 -55 0 -55 0 1 -155z"/>
<path d="M12704 6055 c0 -110 2 -156 3 -103 2 53 2 143 0 200 -1 57 -3 13 -3 -97z"/>
<path d="M12720 6095 c0 -148 1 -155 20 -155 19 0 20 7 20 155 0 148 -1 155 -20 155 -19 0 -20 -7 -20 -155z"/>
<path d="M12770 6087 l0 -147 95 0 95 0 0 115 0 115 -62 0 c-56 0 -65 3 -95 32 l-33 32 0 -147z"/>
<path d="M12970 6055 l0 -115 25 0 25 0 0 115 0 115 -25 0 -25 0 0 -115z"/>
<path d="M13034 6055 c0 -66 1 -92 3 -57 2 34 2 88 0 120 -2 31 -3 3 -3 -63z"/>
<path d="M13050 6055 l0 -115 45 0 45 0 0 115 0 115 -45 0 -45 0 0 -115z"/>
<path d="M13150 6055 l0 -114 78 -4 c54 -2 40 -4 -50 -5 l-128 -2 0 -35 0 -35 140 0 140 0 0 155 c0 146 -1 155 -19 155 -11 0 -22 -8 -24 -17 -4 -17 -5 -17 -6 0 -1 14 -11 17 -66 17 l-65 0 0 -115z m150 -50 c0 -8 -4 -15 -10 -15 -5 0 -7 7 -4 15 4 8 8 15 10 15 2 0 4 -7 4 -15z"/>
<path d="M10168 6072 l-38 -3 0 -105 0 -104 130 0 129 0 4 88 3 87 2 -87 2 -86 134 -1 c81 -1 137 2 141 8 4 7 -43 11 -132 13 -76 2 -16 4 132 5 149 1 264 -1 258 -4 -18 -7 -16 -23 2 -23 12 0 15 18 15 105 l0 105 -274 0 c-253 0 -275 -1 -279 -17 -4 -14 -5 -12 -6 5 -1 22 -4 22 -93 20 -51 -2 -110 -4 -130 -6z m125 -29 c-18 -2 -48 -2 -65 0 -18 2 -4 4 32 4 36 0 50 -2 33 -4z m151 -1 c3 -5 -1 -9 -9 -9 -8 0 -12 4 -9 9 3 4 7 8 9 8 2 0 6 -4 9 -8z m478 -34 c-6 -6 -7 0 -4 19 5 21 7 23 10 9 2 -10 0 -22 -6 -28z m-472 6 c0 -8 -19 -13 -24 -6 -3 5 1 9 9 9 8 0 15 -2 15 -3z"/>
<path d="M11380 5895 l0 -35 155 0 155 0 0 35 0 35 -155 0 -155 0 0 -35z"/>
<path d="M11720 5895 l0 -35 150 0 150 0 0 35 0 35 -150 0 -150 0 0 -35z"/>
<path d="M12050 5895 l0 -35 155 0 155 0 0 35 0 35 -155 0 -155 0 0 -35z"/>
<path d="M12373 5860 c0 -41 2 -58 4 -37 2 20 2 54 0 75 -2 20 -4 3 -4 -38z"/>
<path d="M12390 5895 l0 -35 150 0 150 0 0 35 0 35 -150 0 -150 0 0 -35z"/>
<path d="M12720 5895 l0 -35 150 0 150 0 0 35 0 35 -150 0 -150 0 0 -35z"/>
<path d="M13033 5860 c0 -41 2 -58 4 -37 2 20 2 54 0 75 -2 20 -4 3 -4 -38z"/>
<path d="M10690 5870 c0 -6 43 -10 110 -10 67 0 110 4 110 10 0 6 -43 10 -110 10 -67 0 -110 -4 -110 -10z"/>
<path d="M11362 5825 c0 -16 2 -22 5 -12 2 9 2 23 0 30 -3 6 -5 -1 -5 -18z"/>
<path d="M11380 5825 l0 -25 155 0 155 0 0 25 0 25 -155 0 -155 0 0 -25z"/>
<path d="M11702 5825 c0 -16 2 -22 5 -12 2 9 2 23 0 30 -3 6 -5 -1 -5 -18z"/>
<path d="M11720 5825 l0 -25 150 0 150 0 0 25 0 25 -150 0 -150 0 0 -25z"/>
<path d="M12050 5825 l0 -25 103 0 c56 0 126 -3 155 -6 l52 -7 0 32 0 31 -155 0 -155 0 0 -25z"/>
<path d="M12390 5820 l0 -30 150 0 150 0 0 30 0 30 -150 0 -150 0 0 -30z"/>
<path d="M12702 5820 c0 -19 2 -27 5 -17 2 9 2 25 0 35 -3 9 -5 1 -5 -18z"/>
<path d="M13470 5790 l0 -60 70 0 70 0 0 60 0 60 -70 0 -70 0 0 -60z"/>
<path d="M10099 5693 c-1 -5 -1 -11 0 -15 0 -5 -6 -8 -14 -8 -8 0 -15 -4 -15 -8 0 -14 -61 -44 -80 -39 -13 3 -20 -2 -25 -21 -4 -15 -2 -28 3 -30 6 -2 8 -28 5 -62 -4 -43 -1 -68 11 -94 20 -43 89 -104 125 -109 14 -2 -112 -5 -281 -6 l-308 -1 0 -30 0 -30 2144 0 c1432 0 2147 3 2151 10 3 6 3 19 0 30 -6 20 -16 20 -668 20 -659 1 -662 1 -626 20 37 20 79 83 79 119 0 15 5 18 23 13 16 -5 18 -7 6 -10 -10 -2 -19 -11 -22 -20 -3 -9 -8 -25 -12 -34 -6 -15 -1 -18 31 -18 63 0 90 30 30 34 -21 1 -23 3 -12 16 8 8 11 21 9 28 -3 6 0 12 5 12 5 0 12 14 14 30 4 29 3 30 -37 30 -22 0 -46 -4 -53 -10 -8 -6 -7 -5 0 4 7 7 41 16 76 19 53 4 62 3 61 -11 0 -11 -2 -12 -6 -4 -2 6 -8 12 -13 12 -15 0 -18 -39 -4 -66 8 -14 14 -38 14 -53 0 -44 16 -51 116 -51 104 0 119 8 112 63 -3 26 0 34 12 33 10 -1 16 10 18 38 3 35 1 38 -17 33 -12 -3 -21 -1 -21 4 0 16 123 0 140 -18 14 -15 13 -16 -3 -3 -16 12 -20 12 -28 -1 -6 -10 -9 -10 -9 -1 0 6 -11 12 -25 12 -21 0 -25 -5 -25 -29 0 -16 4 -31 8 -33 5 -1 12 -15 16 -30 6 -25 4 -28 -20 -28 -50 0 -19 -25 35 -28 50 -3 52 -2 41 18 -6 11 -15 18 -21 15 -10 -7 -11 2 -1 28 6 13 12 6 26 -31 25 -63 66 -92 130 -92 26 0 57 5 69 11 32 17 77 60 93 91 16 31 19 138 4 138 -5 0 -10 5 -10 10 0 6 7 10 16 10 24 0 14 54 -11 58 -47 7 -62 13 -90 38 l-30 26 -3 -39 c-2 -21 -6 -41 -10 -45 -4 -4 -5 15 -4 42 l4 50 -41 0 c-27 0 -44 -5 -47 -14 -4 -9 -20 -15 -47 -15 -23 0 -54 0 -70 -2 -25 -1 -26 -3 -10 -16 17 -13 16 -13 -7 -7 -14 4 -26 11 -28 15 -2 5 -67 9 -144 9 -111 0 -143 -3 -154 -15 -9 -8 -25 -15 -37 -15 -19 1 -17 3 8 14 l30 13 -37 3 c-21 1 -56 3 -78 4 -28 1 -39 5 -35 14 3 9 -10 12 -49 12 -40 0 -57 -5 -71 -20 -10 -11 -24 -20 -32 -20 -7 0 -13 -4 -13 -8 0 -13 -48 -32 -64 -26 -8 3 -19 -3 -26 -15 -12 -24 -6 -41 16 -41 8 0 14 -4 14 -10 0 -5 9 -10 20 -10 17 0 19 -2 8 -14 -11 -12 -14 -12 -21 0 -16 28 -27 13 -27 -36 0 -27 5 -62 12 -77 17 -41 93 -109 129 -117 18 -3 30 -7 28 -9 -2 -1 -350 0 -774 3 -423 3 -763 6 -754 8 27 4 99 61 119 95 21 34 29 147 10 147 -5 0 -10 4 -10 10 0 5 6 7 14 4 16 -6 28 19 20 41 -4 8 -15 15 -26 15 -10 0 -33 8 -51 17 -18 9 -35 16 -38 16 -3 -1 -12 9 -19 22 -12 22 -20 25 -66 25 -29 0 -54 -5 -56 -10 -2 -6 -28 -13 -58 -15 -36 -4 -48 -2 -35 3 11 5 26 7 33 5 6 -3 12 0 12 6 0 8 -71 11 -241 11 -157 0 -238 -3 -234 -10 4 -6 85 -10 208 -11 116 0 193 -4 182 -9 -21 -8 -21 -8 25 -23 10 -4 7 -6 -7 -6 -12 -1 -28 6 -37 14 -20 21 -259 22 -302 1 -39 -19 -81 -31 -71 -20 5 5 23 14 40 21 l32 11 -45 3 c-25 1 -55 2 -67 1 -25 -1 -31 13 -10 21 7 3 5 6 -5 6 -12 1 -18 -7 -19 -21 l0 -23 -9 23 c-8 19 -17 22 -60 22 -27 0 -51 -3 -51 -7z m117 -78 c-3 -8 -11 -15 -18 -14 -10 0 -10 2 0 6 6 2 12 14 13 26 0 12 3 16 6 9 3 -7 2 -19 -1 -27z m190 9 c-4 -9 -9 -15 -11 -12 -3 3 -3 13 1 22 4 9 9 15 11 12 3 -3 3 -13 -1 -22z m49 17 c3 -6 -4 -9 -15 -8 -11 1 -20 5 -20 9 0 11 28 10 35 -1z m179 -6 c3 -8 1 -15 -4 -15 -6 0 -10 5 -10 11 0 7 -10 9 -25 7 -13 -3 -22 -1 -19 3 9 15 51 10 58 -6z m188 -10 c3 -14 1 -25 -3 -25 -5 0 -9 11 -9 25 0 14 2 25 4 25 2 0 6 -11 8 -25z m98 0 c0 -20 -5 -25 -22 -24 -17 1 -19 2 -5 6 9 2 17 13 17 24 0 10 2 19 5 19 3 0 5 -11 5 -25z m1512 0 c3 -13 1 -22 -3 -19 -9 5 -13 44 -5 44 2 0 6 -11 8 -25z m90 -17 c-6 -6 -7 0 -4 19 5 21 7 23 10 9 2 -10 0 -22 -6 -28z m243 32 c3 -5 2 -10 -4 -10 -5 0 -13 5 -16 10 -3 6 -2 10 4 10 5 0 13 -4 16 -10z m169 4 c9 -3 16 -10 16 -15 0 -6 -9 -5 -20 1 -11 6 -25 8 -30 5 -6 -3 -10 -1 -10 4 0 12 20 14 44 5z m196 -4 c0 -6 -23 -9 -52 -8 l-53 1 50 7 c28 4 51 8 53 8 1 1 2 -2 2 -8z m-2857 -7 c-7 -2 -21 -2 -30 0 -10 3 -4 5 12 5 17 0 24 -2 18 -5z m515 0 c-10 -2 -28 -2 -40 0 -13 2 -5 4 17 4 22 1 32 -1 23 -4z m1800 0 c-10 -2 -26 -2 -35 0 -10 3 -2 5 17 5 19 0 27 -2 18 -5z m-2041 -20 c-20 -2 -52 -2 -70 0 -17 2 0 4 38 4 39 0 53 -2 32 -4z m2310 0 c-20 -2 -52 -2 -70 0 -17 2 0 4 38 4 39 0 53 -2 32 -4z m-120 -25 c-3 -8 -6 -5 -6 6 -1 11 2 17 5 13 3 -3 4 -12 1 -19z m228 12 c3 -6 -1 -7 -9 -4 -18 7 -21 14 -7 14 6 0 13 -4 16 -10z m-2818 -6 c-3 -3 -12 -4 -19 -1 -8 3 -5 6 6 6 11 1 17 -2 13 -5z m238 -4 c3 -5 1 -10 -4 -10 -6 0 -11 5 -11 10 0 6 2 10 4 10 3 0 8 -4 11 -10z m22 -27 c-3 -10 -5 -4 -5 12 0 17 2 24 5 18 2 -7 2 -21 0 -30z m2308 27 c3 -6 -1 -7 -9 -4 -18 7 -21 14 -7 14 6 0 13 -4 16 -10z m-2515 -17 c0 -5 -29 -8 -64 -8 -35 0 -62 3 -59 8 2 4 31 7 64 7 32 0 59 -3 59 -7z m760 -8 c9 -10 9 -15 1 -15 -6 0 -11 5 -11 10 0 14 -114 12 -128 -2 -8 -8 -12 -9 -12 -1 0 16 18 21 81 22 39 1 60 -4 69 -14z m1561 -2 c12 -16 12 -17 -1 -6 -9 7 -45 14 -80 16 l-65 3 66 2 c53 2 69 -2 80 -15z m429 7 c0 -5 -2 -10 -4 -10 -3 0 -8 5 -11 10 -3 6 -1 10 4 10 6 0 11 -4 11 -10z m204 3 c-5 -5 -12 -12 -16 -18 -4 -6 -8 -2 -8 8 0 9 7 17 17 17 9 0 12 -3 7 -7z m100 -1 c2 -4 -12 -6 -32 -4 -56 5 -62 10 -15 11 23 1 44 -3 47 -7z m-3246 -42 c-15 -24 -22 -19 -13 9 3 12 11 19 16 16 5 -4 3 -14 -3 -25z m930 5 c-3 -3 -9 2 -12 12 -6 14 -5 15 5 6 7 -7 10 -15 7 -18z m1978 -47 c1 -62 0 -64 -3 -15 l-4 57 -87 2 -87 2 83 3 c45 2 82 8 82 13 0 6 4 10 8 10 4 0 8 -33 8 -72z m427 51 c4 -16 3 -18 -9 -8 -7 6 -11 15 -8 20 8 13 11 11 17 -12z m-3243 1 c0 -5 -2 -10 -4 -10 -3 0 -8 5 -11 10 -3 6 -1 10 4 10 6 0 11 -4 11 -10z m110 -25 c0 -5 -5 -3 -10 5 -5 8 -10 20 -10 25 0 6 5 3 10 -5 5 -8 10 -19 10 -25z m200 15 c0 -5 -7 -7 -15 -4 -8 4 -15 8 -15 10 0 2 7 4 15 4 8 0 15 -4 15 -10z m198 -10 c4 -12 2 -13 -9 -2 -8 7 -41 12 -86 12 -58 0 -74 -3 -82 -17 -9 -15 -10 -16 -11 -2 0 27 11 30 99 27 65 -2 85 -7 89 -18z m160 -10 c4 -12 2 -13 -9 -2 -7 6 -17 12 -22 12 -15 0 0 -101 18 -120 9 -10 15 -24 13 -31 -2 -8 3 -13 10 -11 8 1 11 -2 7 -7 -3 -6 14 -19 37 -30 l43 -20 -350 0 -350 -1 50 28 c27 15 48 29 46 32 -3 3 2 16 9 30 7 14 16 39 20 55 l7 30 4 -37 c3 -20 1 -35 -3 -32 -4 2 -12 -5 -18 -16 -11 -20 -9 -21 41 -18 31 2 54 8 57 16 2 7 -6 12 -20 12 -22 0 -24 4 -20 30 2 17 8 30 13 30 5 0 9 14 9 30 0 28 -3 30 -35 30 -22 0 -43 -8 -55 -20 -24 -24 -27 -14 -3 12 11 12 30 18 60 18 43 0 43 0 43 -35 0 -22 6 -38 15 -41 9 -4 15 -19 15 -38 0 -49 14 -56 115 -56 99 0 115 7 115 51 0 15 7 32 15 39 20 16 20 70 1 70 -10 0 -16 -13 -19 -37 l-4 -38 -1 42 c-1 23 2 43 8 45 5 2 38 1 72 -2 43 -3 63 -10 66 -20z m262 20 c0 -5 -7 -7 -15 -4 -10 4 -16 -3 -20 -23 -10 -44 -13 -50 -14 -25 -1 31 16 62 34 62 8 0 15 -4 15 -10z m2144 -4 c-10 -8 -21 -12 -24 -10 -5 6 21 24 34 24 6 0 1 -6 -10 -14z m-827 -18 c-3 -8 -6 -5 -6 6 -1 11 2 17 5 13 3 -3 4 -12 1 -19z m73 1 c-7 -11 -14 -19 -16 -16 -7 7 7 37 17 37 6 0 5 -9 -1 -21z m84 -19 c-6 -5 -24 21 -24 34 0 6 6 1 14 -10 8 -10 12 -21 10 -24z m753 18 c-3 -8 -6 -5 -6 6 -1 11 2 17 5 13 3 -3 4 -12 1 -19z m50 0 c-3 -8 -6 -5 -6 6 -1 11 2 17 5 13 3 -3 4 -12 1 -19z m-2374 -3 c-3 -9 -8 -14 -10 -11 -3 3 -2 9 2 15 9 16 15 13 8 -4z m-803 -10 c-20 -24 -4 -48 27 -42 25 5 26 4 9 -8 -21 -16 -42 -10 -50 12 -8 20 2 53 16 53 6 0 6 -6 -2 -15z m38 -16 c-3 -8 -7 -3 -11 10 -4 17 -3 21 5 13 5 -5 8 -16 6 -23z m239 9 c-3 -8 -6 -5 -6 6 -1 11 2 17 5 13 3 -3 4 -12 1 -19z m67 15 c-5 -5 -12 -12 -16 -18 -4 -6 -8 -2 -8 8 0 9 7 17 17 17 9 0 12 -3 7 -7z m106 -8 c0 -8 -2 -15 -4 -15 -2 0 -6 7 -10 15 -3 8 -1 15 4 15 6 0 10 -7 10 -15z m1885 5 c3 -5 1 -10 -4 -10 -6 0 -11 5 -11 10 0 6 2 10 4 10 3 0 8 -4 11 -10z m152 -22 c-3 -7 -5 -2 -5 12 0 14 2 19 5 13 2 -7 2 -19 0 -25z m633 -3 c0 -5 -5 -3 -10 5 -5 8 -10 20 -10 25 0 6 5 3 10 -5 5 -8 10 -19 10 -25z m-2373 0 c6 -14 7 -23 2 -19 -13 8 -31 44 -22 44 4 0 13 -11 20 -25z m-830 -22 c-3 -10 -5 -4 -5 12 0 17 2 24 5 18 2 -7 2 -21 0 -30z m158 27 c3 -5 1 -10 -4 -10 -6 0 -11 5 -11 10 0 6 2 10 4 10 3 0 8 -4 11 -10z m572 -12 c-3 -8 -6 -5 -6 6 -1 11 2 17 5 13 3 -3 4 -12 1 -19z m1572 -78 c13 -23 13 -24 -2 -11 -17 13 -38 73 -36 101 1 8 6 -3 12 -25 7 -22 18 -51 26 -65z m8 68 c-3 -7 -5 -2 -5 12 0 14 2 19 5 13 2 -7 2 -19 0 -25z m210 10 c-3 -8 -6 -5 -6 6 -1 11 2 17 5 13 3 -3 4 -12 1 -19z m303 2 c0 -11 -4 -20 -10 -20 -5 0 -7 6 -4 14 4 9 -3 16 -18 19 -21 4 -20 4 5 6 21 1 27 -4 27 -19z m331 -3 c-10 -9 -11 -8 -5 6 3 10 9 15 12 12 3 -3 0 -11 -7 -18z m96 -14 c-3 -10 -5 -4 -5 12 0 17 2 24 5 18 2 -7 2 -21 0 -30z m-2360 -5 c-3 -7 -5 -2 -5 12 0 14 2 19 5 13 2 -7 2 -19 0 -25z m1563 17 c7 -9 8 -15 2 -15 -5 0 -12 7 -16 15 -3 8 -4 15 -2 15 2 0 9 -7 16 -15z m-2458 -92 c11 -14 11 -16 -1 -9 -16 10 -41 68 -40 93 0 10 6 -1 14 -25 7 -23 19 -50 27 -59z m972 43 c-11 -25 -24 -48 -29 -50 -6 -2 1 20 15 49 30 63 40 64 14 1z m1456 34 c0 -11 -4 -20 -9 -20 -5 0 -7 9 -4 20 3 11 7 20 9 20 2 0 4 -9 4 -20z m751 -3 c-10 -9 -11 -8 -5 6 3 10 9 15 12 12 3 -3 0 -11 -7 -18z m-3116 3 c3 -5 1 -10 -4 -10 -6 0 -11 5 -11 10 0 6 2 10 4 10 3 0 8 -4 11 -10z m2685 6 c0 -2 -7 -6 -15 -10 -8 -3 -15 -1 -15 4 0 6 7 10 15 10 8 0 15 -2 15 -4z m390 -11 c11 -13 10 -14 -4 -9 -9 3 -16 10 -16 15 0 13 6 11 20 -6z m87 -32 c-3 -3 -13 1 -21 10 -8 8 -12 17 -9 20 3 3 12 -1 20 -9 9 -8 13 -18 10 -21z m53 -18 c-30 -49 -35 -44 -8 9 13 24 24 40 26 35 2 -5 -6 -25 -18 -44z m-3078 3 c-6 -6 -7 0 -4 19 5 21 7 23 10 9 2 -10 0 -22 -6 -28z m545 5 c-3 -10 -5 -4 -5 12 0 17 2 24 5 18 2 -7 2 -21 0 -30z m1585 12 c3 -13 1 -22 -3 -19 -9 5 -13 44 -5 44 2 0 6 -11 8 -25z m63 3 c6 -4 2 -8 -7 -8 -10 0 -18 7 -18 17 0 9 3 12 8 7 4 -5 12 -12 17 -16z m302 0 c-3 -8 -6 -5 -6 6 -1 11 2 17 5 13 3 -3 4 -12 1 -19z m-2547 8 c0 -3 -4 -8 -10 -11 -5 -3 -10 -1 -10 4 0 6 5 11 10 11 6 0 10 -2 10 -4z m660 -12 c0 -2 -9 -4 -20 -4 -11 0 -20 4 -20 9 0 5 9 7 20 4 11 -3 20 -7 20 -9z m1665 6 c3 -5 -1 -10 -10 -10 -9 0 -13 5 -10 10 3 6 8 10 10 10 2 0 7 -4 10 -10z m650 0 c3 -5 1 -10 -4 -10 -6 0 -11 5 -11 10 0 6 2 10 4 10 3 0 8 -4 11 -10z m-3020 -23 l80 -3 -87 -2 c-78 -2 -88 0 -88 16 0 11 3 13 8 5 5 -7 40 -13 87 -16z m-8 17 c-3 -3 -12 -4 -19 -1 -8 3 -5 6 6 6 11 1 17 -2 13 -5z m460 -6 c-16 -10 -154 -10 -160 0 -3 4 35 7 83 7 49 0 83 -3 77 -7z m306 5 c-7 -2 -19 -2 -25 0 -7 3 -2 5 12 5 14 0 19 -2 13 -5z m1651 -27 c-7 -29 -23 -36 -20 -8 1 17 18 43 24 37 2 -1 0 -14 -4 -29z m645 16 c50 2 91 0 91 -4 0 -5 -40 -8 -90 -8 -87 0 -124 -15 -57 -23 l32 -4 -33 -1 c-26 -2 -34 3 -42 24 -12 31 -13 44 -1 26 6 -10 32 -13 100 -10z m-412 2 c-3 -3 -12 -4 -19 -1 -8 3 -5 6 6 6 11 1 17 -2 13 -5z m-2224 -21 c-23 -2 -64 -2 -90 0 -26 2 -7 3 42 3 50 0 71 -1 48 -3z m2310 0 c-23 -2 -64 -2 -90 0 -26 2 -7 3 42 3 50 0 71 -1 48 -3z m350 -20 c-7 -2 -19 -2 -25 0 -7 3 -2 5 12 5 14 0 19 -2 13 -5z"/>
<path d="M10670 5491 c0 -17 5 -33 10 -36 6 -3 10 -17 10 -31 0 -17 -5 -24 -20 -24 -11 0 -20 -7 -20 -15 0 -12 13 -15 55 -15 59 0 64 4 39 32 -10 10 -19 40 -22 68 -4 45 -7 50 -28 50 -20 0 -24 -5 -24 -29z"/>
<path d="M12595 5690 c4 -6 92 -10 230 -10 138 0 226 4 230 10 4 7 -75 10 -230 10 -155 0 -234 -3 -230 -10z"/>
</g>
</svg>