<svg xmlns="http://www.w3.org/2000/svg" viewBox="0.90 252.20 467.20 274.80">
<g transform="translate(0.000000,768.000000) scale(0.100000,-0.100000)" fill="currentColor" stroke="none">
<path d="M2254 5093 c-22 -15 -34 -52 -34 -102 0 -90 24 -116 100 -108 l35 4 0 54 c0 54 0 54 -32 57 -25 2 -33 -1 -33 -12 0 -10 9 -16 21 -16 16 0 20 -5 17 -26 -4 -35 -31 -53 -55 -38 -22 14 -31 137 -12 160 17 20 44 17 61 -7 20 -31 41 -22 25 11 -9 18 -22 26 -47 28 -19 1 -40 -1 -46 -5z"/>
<path d="M2392 4993 c2 -74 7 -108 16 -111 8 -2 12 10 12 42 0 44 1 46 30 46 38 0 70 31 70 68 0 41 -28 62 -84 62 l-47 0 3 -107z m86 78 c8 -5 12 -21 10 -37 -2 -25 -8 -29 -35 -32 -32 -3 -33 -2 -33 37 0 36 3 41 23 41 12 0 28 -4 35 -9z"/>
<path d="M2556 5078 c-37 -52 -5 -126 49 -116 23 5 26 2 23 -20 -4 -36 -35 -53 -53 -28 -20 27 -39 16 -20 -12 19 -26 57 -29 79 -7 30 31 34 156 6 190 -19 23 -66 19 -84 -7z m63 -12 c28 -34 -11 -108 -40 -79 -13 13 -15 65 -4 83 9 14 31 12 44 -4z"/>
<path d="M138 4633 c79 -2 205 -2 280 0 75 1 11 3 -143 3 -154 0 -216 -2 -137 -3z"/>
<path d="M607 4633 c24 -2 62 -2 86 0 23 2 4 4 -43 4 -47 0 -66 -2 -43 -4z"/>
<path d="M793 4633 c26 -2 68 -2 95 0 26 2 4 3 -48 3 -52 0 -74 -1 -47 -3z"/>
<path d="M1487 4633 c304 -2 802 -2 1105 0 304 1 56 2 -552 2 -608 0 -856 -1 -553 -2z"/>
<path d="M1220 4162 c0 -38 1 -40 30 -37 17 1 33 5 37 9 12 12 51 6 57 -9 7 -20 35 -19 43 1 4 12 14 14 34 10 27 -5 29 -3 29 24 0 27 -2 29 -19 18 -14 -9 -26 -9 -43 -1 -16 7 -30 8 -42 1 -9 -5 -31 -6 -49 -1 -18 4 -36 8 -42 8 -5 0 -16 4 -22 8 -10 6 -13 -2 -13 -31z"/>
<path d="M3447 4173 c-2 -5 -4 -20 -5 -35 l-2 -28 205 0 c174 0 205 2 205 15 0 12 -31 15 -192 18 l-193 2 193 3 c163 2 192 4 192 17 0 13 -29 15 -199 15 -110 0 -202 -3 -204 -7z"/>
<path d="M2850 4150 c0 -15 -7 -20 -25 -20 -14 0 -25 -4 -25 -10 0 -6 40 -10 101 -10 64 0 98 4 94 10 -3 6 -14 10 -24 10 -10 0 -21 9 -24 20 -4 16 -14 20 -51 20 -39 0 -46 -3 -46 -20z"/>
<path d="M2240 4140 c-8 -5 -40 -13 -70 -18 -41 -7 23 -10 248 -11 166 0 302 3 302 7 0 28 -30 32 -244 31 -122 0 -228 -4 -236 -9z"/>
<path d="M4350 4125 c0 -16 16 -20 24 -6 3 5 -1 11 -9 15 -9 3 -15 0 -15 -9z"/>
<path d="M2745 4120 c-3 -5 -1 -10 4 -10 6 0 11 5 11 10 0 6 -2 10 -4 10 -3 0 -8 -4 -11 -10z"/>
<path d="M4410 4123 c0 -5 25 -9 55 -10 30 -1 55 2 55 7 0 6 -25 10 -55 10 -30 0 -55 -3 -55 -7z"/>
<path d="M1340 4015 l0 -85 360 0 360 0 0 85 0 85 -360 0 -360 0 0 -85z"/>
<path d="M2070 3896 c0 -218 0 -216 50 -216 10 0 43 -28 74 -62 l56 -63 0 133 0 132 210 0 210 0 0 -135 0 -135 30 0 30 0 0 174 c0 167 1 175 19 173 11 0 17 -5 15 -9 -3 -5 -10 -6 -15 -3 -5 4 -9 -62 -9 -164 l0 -171 75 0 75 0 0 164 c0 179 2 175 -62 171 -21 -1 -38 2 -38 6 0 11 126 6 137 -5 4 -4 1 -6 -7 -4 -13 3 -15 -21 -15 -162 l0 -165 73 -3 72 -3 0 166 0 165 -49 0 c-28 0 -53 5 -56 10 -4 7 54 10 167 9 95 -1 163 -4 151 -6 -23 -4 -23 -6 -23 -174 l0 -169 75 0 75 0 2 123 2 122 6 -120 5 -120 73 -3 72 -3 0 170 0 169 -120 0 c-67 0 -126 5 -133 10 -7 6 -23 12 -37 15 -14 3 1 3 33 0 l57 -5 0 51 0 51 -227 -1 c-137 0 -220 -4 -208 -9 31 -14 4 -11 -37 3 -47 16 -61 29 -22 19 16 -4 134 -6 262 -4 l232 3 0 39 0 40 -640 0 -640 0 0 -204z m152 67 l2 -118 3 118 4 117 164 0 165 0 0 -69 c0 -39 -3 -72 -7 -74 -5 -3 -7 26 -5 64 2 45 0 69 -7 69 -7 0 -11 -38 -10 -112 0 -64 4 -104 8 -93 8 19 8 19 19 0 9 -16 11 5 12 98 0 110 1 117 20 117 19 0 20 -7 22 -117 l2 -118 3 108 c2 60 8 107 13 107 10 0 3 -199 -7 -210 -3 -3 -28 -5 -56 -5 l-52 0 3 112 c3 108 2 113 -17 113 -20 0 -21 -5 -19 -112 l2 -113 6 110 6 110 0 -110 c-1 -146 -20 -142 -24 5 -4 145 -22 145 -22 1 0 -102 -8 -138 -26 -110 -4 8 -3 9 4 5 9 -5 12 23 10 106 -1 83 -3 101 -8 68 l-7 -45 -1 43 c-1 23 -7 42 -13 42 -7 0 -9 -38 -7 -113 2 -71 -1 -114 -7 -114 -6 0 -9 43 -7 114 2 73 0 113 -7 113 -6 0 -11 -44 -13 -112 l-3 -113 -30 -1 -30 -1 3 114 c3 108 2 113 -17 113 -20 0 -21 -5 -19 -112 l2 -113 6 110 6 110 0 -110 -1 -109 -37 -4 -38 -3 -1 108 c-1 59 -1 111 0 116 0 4 -4 7 -10 7 -7 0 -9 -38 -7 -114 2 -63 0 -112 -4 -109 -5 2 -8 56 -8 119 0 107 1 114 20 114 19 0 20 -7 22 -117z m468 3 c0 -63 -3 -117 -7 -119 -5 -3 -7 46 -5 109 2 76 0 114 -7 114 -7 0 -11 -39 -11 -109 0 -61 -3 -112 -7 -114 -5 -3 -7 48 -5 114 3 110 5 119 23 119 18 0 19 -8 19 -114z m277 18 c-3 -3 -12 -4 -19 -1 -8 3 -5 6 6 6 11 1 17 -2 13 -5z m-540 -86 c-2 -18 -4 -6 -4 27 0 33 2 48 4 33 2 -15 2 -42 0 -60z m580 76 c-3 -3 -12 -4 -19 -1 -8 3 -5 6 6 6 11 1 17 -2 13 -5z m128 -29 c55 -13 92 -24 81 -24 -22 -1 -196 39 -196 45 0 6 6 5 115 -21z m-195 -85 c0 -5 -4 -10 -10 -10 -5 0 -10 5 -10 10 0 6 5 10 10 10 6 0 10 -4 10 -10z m457 -52 c-3 -7 -5 -2 -5 12 0 14 2 19 5 13 2 -7 2 -19 0 -25z"/>
<path d="M2240 3960 c0 -67 4 -110 10 -110 6 0 10 43 10 110 0 67 -4 110 -10 110 -6 0 -10 -43 -10 -110z"/>
<path d="M2320 3960 c0 -67 4 -110 10 -110 6 0 10 43 10 110 0 67 -4 110 -10 110 -6 0 -10 -43 -10 -110z"/>
<path d="M2354 3960 c0 -63 1 -89 3 -57 2 31 2 83 0 115 -2 31 -3 5 -3 -58z"/>
<path d="M2580 3960 c0 -67 4 -110 10 -110 6 0 10 43 10 110 0 67 -4 110 -10 110 -6 0 -10 -43 -10 -110z"/>
<path d="M3360 4065 c0 -26 4 -35 18 -36 9 -1 143 -3 297 -4 638 -6 651 -6 625 -16 -52 -21 -322 -101 -326 -97 -2 3 60 24 138 48 79 23 145 44 147 46 2 2 -67 4 -153 4 l-158 0 4 -50 c1 -28 0 -50 -4 -50 -5 0 -8 23 -8 50 0 28 -4 50 -10 50 -5 0 -8 -15 -5 -35 2 -19 0 -35 -5 -35 -6 0 -10 16 -10 35 l0 35 -50 -1 c-27 -1 -50 -6 -50 -11 0 -4 7 -8 15 -8 8 0 15 -4 15 -10 0 -5 -7 -7 -15 -4 -10 4 -15 0 -15 -16 0 -11 -4 -19 -10 -15 -5 3 -7 12 -3 20 3 8 0 15 -6 15 -6 0 -11 -13 -11 -29 l0 -28 70 0 c39 0 73 -3 77 -7 3 -3 -123 -6 -282 -6 -159 0 -286 -3 -283 -6 4 -3 48 -6 100 -7 l93 -2 5 -175 c5 -158 10 -186 23 -125 3 13 5 8 6 -12 l1 -31 70 0 70 0 0 171 0 170 -37 -7 c-21 -3 -56 -6 -77 -6 l-39 0 6 -50 c3 -27 2 -52 -3 -55 -4 -3 -10 23 -12 58 l-3 63 74 2 c115 4 106 18 103 -178 l-3 -171 78 3 78 3 3 162 c2 148 1 162 -15 166 -10 3 0 5 22 5 22 0 32 -2 23 -5 -16 -4 -18 -21 -18 -169 l0 -164 75 0 75 0 3 173 3 172 2 -172 2 -173 75 0 75 0 0 171 c0 146 -2 170 -15 166 -8 -4 -17 -2 -20 3 -3 5 41 8 102 7 l108 -2 3 -172 2 -173 59 0 c94 0 91 -4 91 121 l0 108 -72 4 -73 3 73 2 c80 2 101 22 23 22 -46 0 -49 1 -55 31 -7 34 -6 174 0 149 3 -8 8 -51 13 -95 l8 -80 2 102 c1 92 -1 102 -16 96 -11 -4 -14 -3 -9 6 5 7 24 12 45 11 59 -3 61 -2 61 35 l0 35 -293 0 c-215 0 -296 -3 -305 -12 -9 -9 -12 -9 -12 0 0 9 -71 12 -290 12 l-290 0 0 -35z m510 -85 c0 -5 -4 -10 -10 -10 -5 0 -10 5 -10 10 0 6 5 10 10 10 6 0 10 -4 10 -10z m30 0 c0 -5 -4 -10 -10 -10 -5 0 -10 5 -10 10 0 6 5 10 10 10 6 0 10 -4 10 -10z m-60 -30 c0 -5 -4 -10 -10 -10 -5 0 -10 5 -10 10 0 6 5 10 10 10 6 0 10 -4 10 -10z m30 0 c0 -5 -4 -10 -10 -10 -5 0 -10 5 -10 10 0 6 5 10 10 10 6 0 10 -4 10 -10z m30 0 c0 -5 -4 -10 -10 -10 -5 0 -10 5 -10 10 0 6 5 10 10 10 6 0 10 -4 10 -10z m-63 -66 c-3 -3 -12 -4 -19 -1 -8 3 -5 6 6 6 11 1 17 -2 13 -5z m-70 -36 c-3 -8 -6 -5 -6 6 -1 11 2 17 5 13 3 -3 4 -12 1 -19z m772 -116 c-1 -15 -2 -15 -6 1 -2 9 -9 14 -15 11 -7 -4 -8 -2 -4 5 10 15 26 4 25 -17z m-952 -74 c-3 -7 -5 -2 -5 12 0 14 2 19 5 13 2 -7 2 -19 0 -25z"/>
<path d="M1190 4020 c0 -58 -3 -68 -15 -64 -21 9 -19 -12 5 -36 15 -15 33 -20 75 -20 l55 0 0 -89 0 -88 -247 -7 c-137 -4 -268 -9 -292 -13 -33 -4 -42 -3 -36 7 4 6 16 10 26 7 11 -3 19 -1 19 4 0 5 -16 9 -35 9 -24 0 -35 -5 -35 -15 0 -11 -11 -15 -40 -15 -29 0 -42 -5 -50 -19 -5 -11 -10 -74 -10 -140 0 -86 -3 -121 -12 -124 -7 -3 11 -6 40 -6 30 -1 52 3 52 10 0 5 5 7 10 4 20 -13 -2 -25 -46 -25 l-44 0 0 -145 0 -145 60 0 60 0 0 100 c0 71 -3 100 -12 100 -9 0 -9 3 0 12 8 8 12 49 12 120 0 88 3 108 15 108 11 0 15 17 18 73 l3 72 2 -72 2 -73 88 0 87 0 44 65 44 65 149 0 148 0 0 120 0 119 -62 3 -63 3 -3 53 -3 52 65 0 c63 0 66 1 62 23 -3 12 -5 25 -5 30 -1 4 -30 7 -66 7 l-65 0 0 -70z m-487 -405 c-3 -9 -8 -14 -10 -11 -3 3 -2 9 2 15 9 16 15 13 8 -4z m25 -11 c0 -17 -3 -22 -8 -13 -5 6 -6 18 -3 26 8 19 11 16 11 -13z m-81 -380 c-3 -3 -12 -4 -19 -1 -8 3 -5 6 6 6 11 1 17 -2 13 -5z m73 -10 c0 -14 -3 -15 -17 -3 -10 7 -20 15 -22 16 -2 2 5 3 17 3 14 0 22 -6 22 -16z m-13 -76 c-3 -7 -5 -2 -5 12 0 14 2 19 5 13 2 -7 2 -19 0 -25z m-49 -1 c2 -11 -3 -17 -15 -17 -15 0 -16 2 -3 10 10 6 11 10 3 10 -7 0 -13 5 -13 11 0 17 25 4 28 -14z"/>
<path d="M1170 4052 c0 -10 -5 -23 -11 -29 -9 -9 -8 -16 5 -28 15 -15 16 -13 16 29 0 25 -2 46 -5 46 -3 0 -5 -8 -5 -18z"/>
<path d="M1210 3975 l0 -45 60 0 c60 0 60 0 60 29 0 54 -8 61 -66 61 l-54 0 0 -45z"/>
<path d="M4480 3921 c0 -61 4 -101 10 -101 6 0 10 38 10 94 0 53 -4 98 -10 101 -6 4 -10 -30 -10 -94z"/>
<path d="M4514 3920 c0 -58 1 -81 3 -52 2 28 2 76 0 105 -2 28 -3 5 -3 -53z"/>
<path d="M4530 3921 c0 -61 4 -101 10 -101 6 0 10 38 10 94 0 53 -4 98 -10 101 -6 4 -10 -30 -10 -94z"/>
<path d="M3360 4000 c0 -5 5 -10 10 -10 6 0 10 5 10 10 0 6 -4 10 -10 10 -5 0 -10 -4 -10 -10z"/>
<path d="M3390 3999 c0 -5 27 -9 60 -9 33 0 60 -4 60 -10 0 -5 -13 -8 -30 -6 -27 3 -30 1 -30 -24 0 -26 2 -27 50 -27 28 0 50 4 50 8 0 5 -7 9 -15 9 -9 0 -15 9 -15 25 0 16 6 25 15 25 8 0 15 4 15 9 0 5 -36 9 -80 9 -44 0 -80 -4 -80 -9z m90 -49 c0 -5 -4 -10 -10 -10 -5 0 -10 5 -10 10 0 6 5 10 10 10 6 0 10 -4 10 -10z m30 0 c0 -5 -4 -10 -10 -10 -5 0 -10 5 -10 10 0 6 5 10 10 10 6 0 10 -4 10 -10z"/>
<path d="M3560 4000 c0 -6 16 -10 35 -10 19 0 35 4 35 8 0 5 -16 9 -35 10 -19 1 -35 -3 -35 -8z"/>
<path d="M3640 4000 c0 -5 5 -10 10 -10 6 0 10 5 10 10 0 6 -4 10 -10 10 -5 0 -10 -4 -10 -10z"/>
<path d="M3670 4000 c0 -5 5 -10 10 -10 6 0 10 5 10 10 0 6 -4 10 -10 10 -5 0 -10 -4 -10 -10z"/>
<path d="M3700 4000 c0 -6 16 -10 35 -10 19 0 35 4 35 8 0 5 -16 9 -35 10 -19 1 -35 -3 -35 -8z"/>
<path d="M3780 4000 c0 -5 5 -10 10 -10 6 0 10 5 10 10 0 6 -4 10 -10 10 -5 0 -10 -4 -10 -10z"/>
<path d="M3360 3970 c0 -5 5 -10 10 -10 6 0 10 5 10 10 0 6 -4 10 -10 10 -5 0 -10 -4 -10 -10z"/>
<path d="M3390 3950 c0 -16 4 -30 9 -30 5 0 9 14 9 30 -1 17 -5 30 -10 30 -4 0 -8 -13 -8 -30z"/>
<path d="M3420 3950 c0 -16 4 -30 9 -30 5 0 9 14 9 30 -1 17 -5 30 -10 30 -4 0 -8 -13 -8 -30z"/>
<path d="M3530 3971 c0 -6 5 -13 10 -16 6 -3 10 1 10 9 0 9 -4 16 -10 16 -5 0 -10 -4 -10 -9z"/>
<path d="M3560 3948 c0 -21 5 -28 20 -28 13 0 20 7 20 20 0 11 5 20 11 20 6 0 8 -9 4 -20 -4 -11 -2 -20 4 -20 6 0 11 13 11 29 0 26 -3 28 -35 27 -31 -1 -35 -4 -35 -28z m30 2 c0 -5 -4 -10 -10 -10 -5 0 -10 5 -10 10 0 6 5 10 10 10 6 0 10 -4 10 -10z"/>
<path d="M3640 3950 c0 -16 5 -30 10 -30 6 0 10 14 10 30 0 17 -4 30 -10 30 -5 0 -10 -13 -10 -30z"/>
<path d="M3670 3950 c0 -16 5 -30 10 -30 6 0 10 14 10 30 0 17 -4 30 -10 30 -5 0 -10 -13 -10 -30z"/>
<path d="M3700 3949 c0 -23 4 -26 35 -26 31 0 35 3 35 27 0 25 -3 27 -35 26 -31 -1 -35 -4 -35 -27z m30 1 c0 -5 -4 -10 -10 -10 -5 0 -10 5 -10 10 0 6 5 10 10 10 6 0 10 -4 10 -10z m30 6 c0 -3 -4 -8 -10 -11 -5 -3 -10 -1 -10 4 0 6 5 11 10 11 6 0 10 -2 10 -4z"/>
<path d="M3360 3935 c0 -8 5 -15 10 -15 6 0 10 7 10 15 0 8 -4 15 -10 15 -5 0 -10 -7 -10 -15z"/>
<path d="M1340 3801 c0 -86 3 -121 13 -124 10 -4 10 -6 0 -6 -10 -1 -13 -40 -13 -161 l0 -160 360 0 360 0 0 160 c0 153 -1 160 -20 160 -11 0 -20 5 -20 10 0 6 9 10 20 10 19 0 20 7 20 115 l0 115 -360 0 -360 0 0 -119z m528 -58 l3 -133 -176 0 -175 0 0 128 c0 71 3 132 7 136 4 3 81 5 172 4 l166 -3 3 -132z"/>
<path d="M1530 3745 l0 -125 165 0 165 0 0 125 0 125 -165 0 -165 0 0 -125z m160 0 l0 -105 -75 0 -75 0 0 105 0 105 75 0 75 0 0 -105z m160 0 l0 -105 -75 0 -75 0 0 98 c0 54 3 102 7 105 3 4 37 7 75 7 l68 0 0 -105z"/>
<path d="M3060 3843 c1 -44 2 -47 15 -29 14 19 15 17 15 -20 -1 -36 -2 -38 -15 -20 -13 18 -15 7 -15 -100 l0 -121 83 1 82 1 3 168 2 167 -66 0 c-51 0 -70 -4 -81 -17 -8 -10 -12 -13 -9 -6 4 6 2 14 -4 18 -6 4 -10 -12 -10 -42z"/>
<path d="M4237 3883 c-4 -3 -7 -80 -7 -170 l0 -163 80 0 80 0 0 170 0 170 -73 0 c-41 0 -77 -3 -80 -7z"/>
<path d="M2264 3797 c-3 -8 -4 -47 -2 -88 l3 -74 198 -3 197 -2 0 90 0 90 -195 0 c-155 0 -197 -3 -201 -13z"/>
<path d="M1068 3661 c-30 -5 -44 -15 -73 -56 -19 -27 -35 -53 -35 -57 0 -4 10 -8 23 -10 21 -3 22 -8 25 -95 l3 -93 160 0 160 0 -3 158 -3 157 -110 1 c-60 0 -127 -2 -147 -5z m79 -187 c-3 -3 -12 -4 -19 -1 -8 3 -5 6 6 6 11 1 17 -2 13 -5z"/>
<path d="M2070 3610 l0 -60 70 0 70 0 0 -170 0 -170 26 0 26 0 -4 103 c-2 56 -1 120 3 142 6 37 6 38 8 8 1 -21 7 -33 19 -36 14 -4 14 -5 -3 -6 -19 -1 -20 -7 -17 -96 3 -86 5 -95 23 -95 18 0 19 9 19 155 l0 155 -24 0 c-13 0 -27 -6 -29 -12 -4 -9 -6 -8 -6 2 -1 9 -29 44 -64 78 -46 45 -70 62 -90 62 -26 0 -27 -1 -27 -60z"/>
<path d="M2265 3588 l0 -33 198 -3 197 -3 0 36 0 35 -198 0 -198 0 1 -32z"/>
<path d="M740 3325 c0 -137 4 -215 10 -215 6 0 10 78 10 215 0 137 -4 215 -10 215 -6 0 -10 -78 -10 -215z"/>
<path d="M770 3325 l0 -215 30 0 30 0 0 126 c0 69 3 123 8 121 4 -3 6 -73 5 -156 -1 -88 2 -151 8 -151 5 0 9 102 9 248 0 136 -4 241 -9 234 -4 -7 -9 -43 -10 -80 -3 -95 -11 -91 -11 6 l0 82 -30 0 -30 0 0 -215z"/>
<path d="M873 3439 c-1 -86 1 -100 14 -95 8 3 37 6 64 6 l49 0 0 59 0 60 -47 4 -48 3 48 2 c42 2 47 4 47 26 0 25 -28 36 -94 36 l-31 0 -2 -101z m97 1 c0 -13 -7 -20 -20 -20 -13 0 -20 7 -20 20 0 13 7 20 20 20 13 0 20 -7 20 -20z m-3 -62 c-3 -8 -6 -5 -6 6 -1 11 2 17 5 13 3 -3 4 -12 1 -19z m-17 -8 c0 -5 -2 -10 -4 -10 -3 0 -8 5 -11 10 -3 6 -1 10 4 10 6 0 11 -4 11 -10z"/>
<path d="M940 3440 c0 -5 5 -10 10 -10 6 0 10 5 10 10 0 6 -4 10 -10 10 -5 0 -10 -4 -10 -10z"/>
<path d="M2070 3330 l0 -210 117 0 c64 0 114 -2 112 -5 -3 -2 -67 -7 -142 -10 -96 -4 -137 -3 -137 5 0 6 7 10 16 8 10 -2 19 3 22 11 3 10 -2 13 -22 9 -14 -3 -26 -1 -26 3 0 5 11 9 25 9 25 0 25 1 25 93 l0 92 -352 -2 c-194 -1 -356 -2 -360 -2 -5 -1 -8 -41 -8 -91 l0 -90 322 0 c304 0 358 -4 333 -27 -4 -5 -10 -2 -12 5 -6 15 -263 18 -263 2 0 -5 26 -10 58 -10 195 -2 232 -4 232 -11 0 -5 -141 -9 -312 -9 -172 1 -429 1 -570 0 l-258 0 0 -25 0 -25 343 -3 342 -2 -373 -3 -373 -2 3 -65 c3 -64 10 -80 22 -49 4 9 9 14 13 10 3 -3 -1 -14 -9 -23 -8 -10 -18 -31 -22 -48 -6 -33 -9 -35 39 39 l21 31 409 0 c288 1 346 -1 195 -5 -140 -3 -205 -8 -185 -13 17 -5 40 -13 51 -19 14 -6 28 -7 40 0 29 14 93 22 99 11 4 -5 -10 -9 -30 -9 -20 0 -44 -4 -53 -9 -9 -5 -37 -11 -62 -14 -32 -5 -38 -4 -20 2 14 5 23 10 20 11 -13 4 -43 11 -72 17 -18 3 -38 10 -45 15 -8 6 -13 3 -16 -9 -4 -17 -5 -17 -6 0 -1 15 -11 17 -71 16 -38 -1 -70 -6 -70 -11 0 -6 -7 -8 -15 -4 -9 3 -15 0 -15 -9 0 -8 -3 -14 -7 -13 -5 1 -17 -3 -28 -9 -11 -6 -37 -13 -57 -17 -33 -6 -38 -10 -38 -35 0 -24 5 -30 30 -34 30 -7 70 -56 70 -87 0 -8 -10 5 -21 30 -20 44 -21 44 -30 21 -20 -52 14 -131 69 -161 25 -14 29 -19 12 -14 -14 4 -30 11 -37 16 -7 5 -18 6 -24 2 -7 -4 -9 -3 -6 3 4 6 -2 32 -14 58 -15 34 -19 57 -14 86 4 23 3 39 -3 39 -25 0 -30 -91 -8 -144 17 -40 68 -83 128 -107 42 -17 32 -17 -362 -17 -223 0 -411 -1 -417 -1 -19 -1 -16 -48 3 -55 9 -3 992 -6 2185 -6 l2170 0 -3 33 -3 32 -1213 -3 c-667 -2 -1217 0 -1224 4 -6 4 1 12 18 19 94 39 142 131 118 223 -10 37 -31 27 -26 -13 2 -19 1 -51 -2 -70 -7 -35 -50 -95 -68 -95 -6 0 4 13 20 28 31 30 46 76 40 128 -2 19 -8 28 -17 26 -12 -3 -12 0 -1 12 7 9 25 16 41 16 26 0 29 4 29 30 0 26 -4 30 -28 30 -15 0 -43 9 -62 20 -19 11 -43 23 -52 26 -10 4 -18 9 -18 13 0 4 -31 8 -70 9 -38 2 -70 -1 -70 -5 0 -4 -12 -9 -27 -10 -30 -1 -78 -11 -103 -20 -11 -4 -8 -8 10 -14 18 -6 14 -7 -15 -3 -22 4 -50 7 -62 8 -13 0 -23 4 -23 9 0 4 -15 7 -34 7 -19 0 -38 5 -42 11 -8 13 64 4 109 -13 21 -8 31 -8 40 1 6 6 26 11 44 11 18 0 33 4 33 10 0 5 -57 11 -137 12 -76 2 11 4 193 6 l331 2 47 -41 46 -41 0 -119 c0 -99 3 -119 15 -119 13 0 15 23 15 148 l0 147 189 -3 190 -3 3 28 c4 39 42 40 46 1 l3 -28 757 0 757 0 -5 -47 -5 -48 -3 43 -3 42 -750 0 c-645 0 -749 -2 -749 -14 0 -8 -3 -17 -7 -19 -5 -3 -6 17 -5 44 3 40 1 49 -12 49 -12 0 -16 -12 -17 -52 -1 -29 -4 -43 -6 -30 -4 22 -6 22 -189 22 l-184 0 0 -140 0 -140 985 0 985 0 0 160 0 160 45 0 c41 0 45 2 45 25 0 22 -4 25 -39 25 -22 0 -42 3 -44 8 -3 4 15 5 39 3 42 -3 44 -2 44 23 0 24 -4 26 -39 26 -29 0 -41 -5 -44 -17 -4 -17 -5 -17 -6 0 0 9 -5 17 -11 17 -6 0 -10 -26 -10 -59 0 -38 -4 -61 -13 -64 -6 -2 -129 -3 -272 -2 -143 1 -437 3 -653 4 l-392 1 -13 28 c-6 15 -15 30 -20 33 -5 3 -1 9 7 12 12 5 15 14 10 32 -6 25 -5 25 55 25 58 0 61 1 61 25 l0 25 -210 0 -210 0 0 -25 0 -25 148 -1 c81 -1 134 -4 118 -6 -25 -4 -28 -8 -24 -34 3 -16 1 -29 -4 -29 -4 0 -8 13 -8 29 l0 29 -167 2 c-99 0 -172 5 -179 11 -9 7 -19 7 -32 0 -12 -6 -192 -12 -488 -14 -365 -3 -400 -3 -159 2 171 4 311 8 313 9 1 1 2 34 2 72 l0 70 -117 2 c-69 1 -92 3 -55 5 l62 4 0 164 0 165 -65 0 -65 0 0 -210z m-371 -31 c1 8 4 12 7 8 3 -3 0 -15 -8 -26 -14 -20 -15 -20 -15 11 -1 27 1 29 7 13 5 -12 9 -14 9 -6z m341 -21 c0 -5 -6 -3 -13 4 -8 7 -14 19 -14 26 0 11 4 10 14 -4 7 -10 13 -22 13 -26z m-667 19 c3 -8 1 -20 -4 -28 -6 -10 -9 -7 -9 14 0 29 5 35 13 14z m1293 -268 c4 -7 0 -9 -12 -5 -13 4 -24 -1 -32 -15 -17 -27 -8 -36 13 -15 22 21 35 20 35 -3 0 -15 -7 -18 -32 -17 -38 2 -47 20 -22 47 19 21 39 25 50 8z m-1102 -14 c-4 -8 -8 -15 -10 -15 -2 0 -4 7 -4 15 0 8 4 15 10 15 5 0 7 -7 4 -15z m113 -6 c-9 -6 -15 -14 -12 -20 4 -5 1 -9 -4 -9 -6 0 -11 5 -11 11 0 14 33 40 40 32 3 -2 -3 -9 -13 -14z m-81 -23 c2 -15 2 -15 -3 0 -4 14 -7 14 -14 3 -7 -11 -9 -10 -9 4 0 23 24 17 26 -7z m1414 14 c0 -5 -5 -10 -11 -10 -5 0 -7 5 -4 10 3 6 8 10 11 10 2 0 4 -4 4 -10z m-601 -84 c-3 -3 -11 5 -18 17 -13 21 -12 21 5 5 10 -10 16 -20 13 -22z m-781 -2 c-10 -9 -118 -11 -124 -2 -3 4 25 8 62 8 37 0 65 -3 62 -6z m825 -14 c3 -13 0 -20 -10 -20 -8 0 -11 5 -8 10 3 6 1 10 -5 10 -6 0 -8 5 -5 10 10 16 22 12 28 -10z m-1307 -60 c52 0 54 1 54 28 0 15 4 22 8 16 4 -7 16 -14 27 -17 19 -4 19 -5 -1 -6 -12 0 -25 -8 -28 -17 -4 -12 -19 -14 -63 -12 -58 3 -58 3 -60 36 -3 32 -3 32 3 2 5 -29 7 -30 60 -30z m912 -3 c13 -4 11 -5 -5 -6 -24 -1 -33 14 -24 44 5 17 6 16 9 -7 2 -15 11 -29 20 -31z m-518 35 c0 -4 -9 -8 -19 -8 -11 0 -17 4 -15 8 3 4 12 8 20 8 8 0 14 -4 14 -8z m181 -6 c-9 -11 -8 -15 5 -20 23 -9 37 3 23 20 -10 12 -9 13 5 8 34 -13 9 -48 -27 -38 -15 3 -27 8 -27 9 0 13 14 35 22 35 7 0 6 -5 -1 -14z m249 4 c0 -5 -2 -10 -4 -10 -3 0 -8 5 -11 10 -3 6 -1 10 4 10 6 0 11 -4 11 -10z m190 -25 c0 -11 -10 -15 -37 -13 -37 1 -37 1 -5 5 17 2 32 8 32 14 0 5 2 9 5 9 3 0 5 -7 5 -15z m840 -1 c11 -12 10 -18 -3 -30 -9 -8 -13 -9 -8 -3 13 16 2 39 -19 39 -25 0 -31 -21 -12 -43 14 -16 14 -17 0 -12 -22 9 -31 35 -17 51 15 19 43 18 59 -2z m-1514 -12 c-3 -5 -18 -9 -32 -9 -22 0 -24 1 -10 9 9 5 21 6 26 3 6 -3 10 -1 10 6 0 7 3 10 6 6 3 -3 3 -10 0 -15z m38 3 c-4 -8 -8 -15 -10 -15 -2 0 -4 7 -4 15 0 8 4 15 10 15 5 0 7 -7 4 -15z m281 -5 c-3 -5 -10 -10 -16 -10 -5 0 -9 5 -9 10 0 6 7 10 16 10 8 0 12 -4 9 -10z m-758 -16 c-3 -3 -12 -4 -19 -1 -8 3 -5 6 6 6 11 1 17 -2 13 -5z m723 -4 c0 -5 -4 -10 -10 -10 -5 0 -10 5 -10 10 0 6 5 10 10 10 6 0 10 -4 10 -10z m445 0 c4 -6 -1 -7 -11 -3 -14 5 -16 3 -11 -12 6 -15 5 -16 -7 -6 -10 8 -40 11 -85 9 -39 -1 -67 0 -63 4 4 4 41 9 82 11 41 1 78 4 82 5 4 1 10 -2 13 -8z m-1112 -15 c-3 -9 -8 -14 -10 -11 -3 3 -2 9 2 15 9 16 15 13 8 -4z m100 -1 c-3 -9 -9 -11 -12 -6 -3 5 -13 12 -21 15 -9 3 -4 6 12 6 21 1 26 -3 21 -15z m317 -16 c0 -19 -2 -20 -10 -8 -13 19 -13 30 0 30 6 0 10 -10 10 -22z m-450 8 c0 -3 -4 -8 -10 -11 -5 -3 -10 -1 -10 4 0 6 5 11 10 11 6 0 10 -2 10 -4z m1035 -6 c-3 -5 -11 -10 -16 -10 -6 0 -7 5 -4 10 3 6 11 10 16 10 6 0 7 -4 4 -10z m-866 -34 c-3 -3 -11 5 -18 17 -13 21 -12 21 5 5 10 -10 16 -20 13 -22z m251 24 c0 -5 -16 -10 -35 -10 -30 0 -35 -3 -35 -24 0 -37 10 -56 31 -56 15 0 19 -7 19 -33 0 -53 11 -57 151 -57 124 0 127 1 143 25 19 29 21 52 3 57 -9 2 -11 11 -6 28 7 24 7 24 8 3 1 -33 39 -31 47 2 9 37 -1 53 -38 58 -18 2 -1 3 37 3 39 0 57 -2 42 -4 -26 -3 -28 -6 -22 -39 7 -47 14 -56 36 -50 11 3 19 1 19 -4 0 -5 -7 -9 -16 -9 -10 0 -13 -6 -10 -18 5 -14 0 -17 -26 -17 -17 0 -33 -6 -35 -12 -4 -10 16 -13 79 -13 71 1 81 3 66 14 -10 7 -18 17 -18 21 0 4 -8 14 -17 21 -11 8 -13 13 -5 14 7 0 12 15 13 38 1 35 2 35 11 -13 6 -31 20 -61 36 -79 15 -16 20 -25 12 -21 -13 8 -13 7 -1 -9 23 -28 71 -49 131 -56 30 -4 -174 -7 -455 -7 -345 -1 -502 3 -485 9 86 34 128 86 135 167 2 29 7 56 10 60 4 3 43 9 88 12 45 3 83 6 85 7 1 1 2 -2 2 -8z m-346 -8 c3 -5 -5 -8 -17 -8 -13 1 -21 -4 -19 -11 1 -7 -2 -13 -8 -13 -11 0 -14 23 -3 33 9 10 41 9 47 -1z m56 -2 c0 -5 -5 -10 -11 -10 -5 0 -7 5 -4 10 3 6 8 10 11 10 2 0 4 -4 4 -10z m468 3 c-27 -2 -69 -2 -95 0 -27 2 -5 3 47 3 52 0 74 -1 48 -3z m541 -26 c0 -21 -1 -21 -9 -2 -12 28 -12 37 0 30 6 -3 10 -16 9 -28z m-922 6 c-8 -10 -18 -31 -22 -48 -11 -50 -17 -67 -20 -63 -2 2 1 24 6 48 9 39 33 80 47 80 3 0 -2 -8 -11 -17z m673 -4 c7 -11 9 -23 7 -26 -3 -2 -8 5 -12 16 -3 11 -16 22 -28 24 l-22 4 22 2 c13 0 27 -7 33 -20z m114 9 c-4 -6 -11 -25 -15 -42 -7 -30 -7 -30 -8 -4 -1 32 8 58 21 58 5 0 6 -5 2 -12z m-587 -30 c-3 -7 -5 -2 -5 12 0 14 2 19 5 13 2 -7 2 -19 0 -25z m606 1 c-4 -21 -1 -34 8 -40 10 -6 11 -9 1 -9 -17 0 -25 25 -18 55 9 36 17 31 9 -6z m67 10 c0 -6 -4 -7 -10 -4 -5 3 -10 11 -10 16 0 6 5 7 10 4 6 -3 10 -11 10 -16z m-1090 1 c0 -5 -8 -10 -17 -10 -15 0 -16 2 -3 10 19 12 20 12 20 0z m130 -77 c-11 -17 -11 -17 -6 0 3 10 7 35 8 55 l1 37 4 -37 c2 -21 -1 -46 -7 -55z m358 80 c-20 -5 -23 -24 -8 -39 7 -7 6 -11 -5 -11 -10 0 -15 10 -15 29 0 23 4 28 23 27 16 -1 18 -2 5 -6z m150 -30 l-3 -38 -80 -1 -80 0 78 3 c42 2 77 8 77 13 0 6 -6 10 -12 11 -10 0 -10 2 0 6 6 2 12 11 12 18 0 10 -17 15 -57 18 l-58 3 63 2 63 2 -3 -37z m-173 -94 c14 -5 15 -8 5 -8 -29 -2 -40 22 -38 79 l1 55 6 -59 c5 -47 10 -61 26 -67z m200 14 c-3 -13 -13 -23 -23 -23 -16 1 -16 1 1 11 13 7 17 25 19 67 1 53 2 54 5 13 3 -25 2 -55 -2 -68z m-65 77 c0 -16 -7 -20 -37 -20 -26 0 -34 3 -24 9 8 5 23 8 33 6 11 -2 18 2 18 11 0 8 2 14 5 14 3 0 5 -9 5 -20z m465 10 c3 -5 -1 -10 -9 -10 -9 0 -16 5 -16 10 0 6 4 10 9 10 6 0 13 -4 16 -10z m42 -12 c-3 -8 -6 -5 -6 6 -1 11 2 17 5 13 3 -3 4 -12 1 -19z m-1021 -24 c-22 -20 -31 -22 -42 -13 -8 6 -13 19 -13 28 1 13 2 13 6 -1 2 -10 14 -18 25 -18 17 0 18 2 8 15 -8 9 -8 15 -2 15 6 0 12 -6 15 -12 3 -9 7 -7 12 5 4 10 10 15 14 12 3 -4 -7 -18 -23 -31z m434 21 c0 -8 -4 -15 -10 -15 -5 0 -10 7 -10 15 0 8 5 15 10 15 6 0 10 -7 10 -15z m410 -64 c-1 -13 -29 45 -29 59 0 8 6 0 14 -19 8 -18 15 -36 15 -40z m-975 -9 c-8 -8 -12 0 -19 38 l-7 35 16 -34 c8 -19 13 -36 10 -39z m1130 58 c-3 -5 -12 -10 -18 -10 -7 0 -6 4 3 10 19 12 23 12 15 0z m-95 -24 c0 -2 -7 -7 -16 -10 -8 -3 -12 -2 -9 4 6 10 25 14 25 6z m-392 -13 c-27 -2 -69 -2 -95 0 -27 2 -5 3 47 3 52 0 74 -1 48 -3z m562 -8 c0 -8 -4 -15 -10 -15 -5 0 -7 7 -4 15 4 8 8 15 10 15 2 0 4 -7 4 -15z m-1175 -5 c3 -5 1 -10 -4 -10 -6 0 -11 5 -11 10 0 6 2 10 4 10 3 0 8 -4 11 -10z m88 -7 c-7 -2 -19 -2 -25 0 -7 3 -2 5 12 5 14 0 19 -2 13 -5z m44 1 c-3 -3 -12 -4 -19 -1 -8 3 -5 6 6 6 11 1 17 -2 13 -5z m48 -24 c-3 -5 -12 -10 -18 -10 -7 0 -6 4 3 10 19 12 23 12 15 0z m368 3 c-7 -2 -19 -2 -25 0 -7 3 -2 5 12 5 14 0 19 -2 13 -5z m80 0 c-7 -2 -19 -2 -25 0 -7 3 -2 5 12 5 14 0 19 -2 13 -5z m-596 -19 c-3 -3 -12 -4 -19 -1 -8 3 -5 6 6 6 11 1 17 -2 13 -5z m40 0 c-3 -3 -12 -4 -19 -1 -8 3 -5 6 6 6 11 1 17 -2 13 -5z m66 -1 c-7 -2 -21 -2 -30 0 -10 3 -4 5 12 5 17 0 24 -2 18 -5z m920 0 c-13 -2 -33 -2 -45 0 -13 2 -3 4 22 4 25 0 35 -2 23 -4z m84 1 c-3 -3 -12 -4 -19 -1 -8 3 -5 6 6 6 11 1 17 -2 13 -5z"/>
<path d="M1332 2752 c-7 -5 -13 -31 -14 -61 -2 -29 -8 -57 -15 -63 -27 -22 -11 -29 60 -26 69 3 96 19 42 26 -27 4 -34 29 -14 49 7 7 13 28 16 47 3 35 2 36 -29 36 -18 0 -39 -4 -46 -8z m13 -82 c3 -5 -1 -10 -10 -10 -9 0 -13 5 -10 10 3 6 8 10 10 10 2 0 7 -4 10 -10z"/>
<path d="M2320 3300 c0 -153 4 -240 10 -240 6 0 10 87 10 240 0 153 -4 240 -10 240 -6 0 -10 -87 -10 -240z"/>
<path d="M2350 3485 l0 -55 155 0 155 0 0 55 0 55 -155 0 -155 0 0 -55z"/>
<path d="M2670 3375 l0 -165 30 0 30 0 0 165 0 165 -30 0 -30 0 0 -165z"/>
<path d="M2740 3375 c0 -103 4 -165 10 -165 6 0 10 62 10 165 0 103 -4 165 -10 165 -6 0 -10 -62 -10 -165z"/>
<path d="M2772 3298 l2 -243 6 185 c5 171 6 177 10 80 l5 -105 48 -3 47 -3 0 165 0 166 -60 0 -60 0 2 -242z"/>
<path d="M2900 3375 l0 -165 75 0 75 0 2 163 2 162 6 -165 c3 -91 7 -137 8 -102 1 34 6 62 11 62 6 0 9 -26 8 -57 l-2 -58 63 -3 62 -3 0 166 0 165 -155 0 -155 0 0 -165z m47 -121 c2 -13 1 -15 -4 -4 -3 8 -11 19 -17 23 -7 6 -6 7 4 4 8 -2 16 -12 17 -23z"/>
<path d="M3224 3330 c0 -118 2 -167 3 -107 2 59 2 155 0 215 -1 59 -3 10 -3 -108z"/>
<path d="M3240 3375 l0 -165 73 0 c43 0 78 5 85 12 9 9 12 9 12 0 0 -8 22 -12 69 -12 l70 0 4 48 3 47 2 -47 c2 -54 19 -65 25 -15 l4 32 1 -32 c2 -30 5 -33 32 -33 l30 0 0 165 0 165 -35 0 -34 0 -4 -82 -3 -83 -4 85 -4 85 -6 -120 -6 -120 -2 118 -2 117 -76 0 -75 0 5 -52 c3 -29 2 -66 -3 -83 -7 -24 -9 -13 -10 53 l-1 82 -75 0 -75 0 0 -165z m347 -65 c1 -11 -2 -18 -8 -15 -11 7 -12 35 -1 35 4 0 8 -9 9 -20z m-177 -20 c0 -5 -4 -10 -10 -10 -5 0 -10 5 -10 10 0 6 5 10 10 10 6 0 10 -4 10 -10z m25 -20 c3 -5 1 -10 -4 -10 -6 0 -11 5 -11 10 0 6 2 10 4 10 3 0 8 -4 11 -10z"/>
<path d="M3664 3300 c0 -135 2 -190 3 -122 2 67 2 177 0 245 -1 67 -3 12 -3 -123z"/>
<path d="M3680 3375 l0 -165 25 0 25 0 0 165 0 165 -25 0 -25 0 0 -165z"/>
<path d="M3740 3375 l0 -165 80 0 80 0 0 165 0 165 -80 0 -80 0 0 -165z m45 -135 c-3 -5 -12 -10 -18 -10 -7 0 -6 4 3 10 19 12 23 12 15 0z"/>
<path d="M3910 3375 l0 -165 75 0 75 0 0 165 0 165 -75 0 -75 0 0 -165z"/>
<path d="M4070 3375 c0 -103 4 -165 10 -165 6 0 10 62 10 165 0 103 -4 165 -10 165 -6 0 -10 -62 -10 -165z"/>
<path d="M4104 3300 c0 -135 2 -190 3 -122 2 67 2 177 0 245 -1 67 -3 12 -3 -123z"/>
<path d="M4120 3330 l0 -210 200 0 200 0 0 40 0 40 -197 2 c-109 1 -177 3 -150 5 l47 4 0 165 0 164 -50 0 -50 0 0 -210z"/>
<path d="M4230 3375 l0 -165 80 0 80 0 0 165 0 165 -80 0 -80 0 0 -165z"/>
<path d="M4400 3375 l0 -165 60 0 60 0 0 165 0 165 -60 0 -60 0 0 -165z"/>
<path d="M4532 3298 c2 -242 6 -214 10 85 2 86 0 157 -4 157 -5 0 -7 -109 -6 -242z"/>
<path d="M400 3270 c0 -153 1 -160 20 -160 18 0 20 8 22 153 l3 152 28 3 c29 4 29 5 29 -93 0 -19 -1 -78 -1 -130 l-1 -95 -64 0 c-59 0 -64 -2 -59 -20 3 -11 10 -20 15 -20 6 0 27 -14 47 -30 20 -17 42 -35 49 -41 19 -15 16 -115 -4 -123 -9 -3 -20 -4 -24 -1 -5 3 -11 1 -15 -5 -9 -14 -45 6 -45 25 0 12 -11 14 -57 9 -72 -8 -83 -17 -83 -64 0 -65 5 -70 75 -70 54 0 65 3 78 23 10 15 18 19 25 12 7 -7 -3 -43 -29 -109 -21 -55 -37 -101 -36 -102 1 -2 43 0 92 4 89 7 90 7 93 35 2 18 -2 29 -12 33 -9 3 -17 14 -17 23 -1 9 -4 3 -8 -14 -3 -16 -5 149 -3 368 l3 397 -60 0 -61 0 0 -160z"/>
<path d="M2350 3325 l0 -95 153 -2 152 -2 -155 -6 -155 -6 158 -2 157 -2 0 105 0 105 -155 0 -155 0 0 -95z"/>
<path d="M888 3329 c-15 -8 -18 -26 -18 -114 l0 -105 60 0 60 0 0 115 0 115 -42 0 c-24 0 -51 -5 -60 -11z"/>
<path d="M1002 3228 l3 -113 163 -3 162 -2 0 115 0 115 -165 0 -166 0 3 -112z m211 75 c-23 -2 -64 -2 -90 0 -26 2 -7 3 42 3 50 0 71 -1 48 -3z"/>
<path d="M2278 3213 c6 -2 18 -2 25 0 6 3 1 5 -13 5 -14 0 -19 -2 -12 -5z"/>
<path d="M2350 3160 l0 -40 205 0 205 0 0 40 0 40 -205 0 -205 0 0 -40z"/>
<path d="M2790 3160 l0 -40 210 0 210 0 0 40 0 40 -210 0 -210 0 0 -40z"/>
<path d="M3240 3160 l0 -40 205 0 205 0 0 40 0 40 -205 0 -205 0 0 -40z"/>
<path d="M3682 3163 l3 -38 203 -3 202 -2 0 40 0 40 -206 0 -205 0 3 -37z"/>
<path d="M1340 3130 c0 -5 9 -10 20 -10 11 0 20 5 20 10 0 6 -9 10 -20 10 -11 0 -20 -4 -20 -10z"/>
<path d="M1398 3127 c10 -12 33 -13 235 -8 26 0 47 6 47 11 0 16 -257 13 -263 -2 -4 -10 -6 -10 -6 0 -1 6 -6 12 -12 12 -8 0 -8 -4 -1 -13z"/>
<path d="M2350 3085 l0 -25 139 0 c83 0 142 4 146 10 3 6 15 10 26 10 10 0 19 -4 19 -10 0 -5 18 -10 40 -10 36 0 40 3 40 25 l0 25 -205 0 -205 0 0 -25z"/>
<path d="M3222 3085 c0 -16 2 -22 5 -12 2 9 2 23 0 30 -3 6 -5 -1 -5 -18z"/>
<path d="M3240 3085 l0 -25 205 0 205 0 0 25 0 25 -205 0 -205 0 0 -25z"/>
<path d="M3687 3103 c-4 -3 -7 -15 -7 -25 0 -17 13 -18 205 -18 l205 0 0 25 0 25 -198 0 c-109 0 -202 -3 -205 -7z"/>
<path d="M4120 3085 l0 -25 200 0 200 0 0 25 0 25 -200 0 -200 0 0 -25z"/>
<path d="M530 3040 c0 -40 4 -61 13 -62 6 -1 51 -2 99 -2 l88 -1 0 63 0 62 -100 0 -100 0 0 -60z"/>
<path d="M738 2983 c-1 -65 -3 -97 -5 -70 l-4 47 -100 0 -99 0 0 -60 0 -60 110 0 110 0 2 108 1 107 8 -130 c3 -71 7 -158 8 -192 1 -49 4 -63 16 -63 13 0 15 28 15 190 0 162 2 190 15 190 9 0 15 9 15 25 0 21 -5 25 -28 25 -15 0 -34 -6 -41 -12 -11 -10 -13 -10 -7 0 4 6 2 12 -3 12 -7 0 -12 -43 -13 -117z"/>
<path d="M3109 3023 c-2 -16 -3 -40 -1 -55 l3 -28 660 0 659 0 0 55 0 55 -659 0 -659 0 -3 -27z"/>
<path d="M530 2820 c0 -6 45 -10 115 -10 70 0 115 4 115 10 0 6 -45 10 -115 10 -70 0 -115 -4 -115 -10z"/>
<path d="M530 2745 c0 -42 3 -55 15 -55 8 0 15 -6 15 -12 0 -10 2 -10 8 -1 10 16 172 17 172 0 0 -8 4 -7 10 3 5 8 10 39 10 68 l0 52 -115 0 -115 0 0 -55z m173 15 c-5 -18 -14 -20 -79 -20 -53 0 -74 4 -74 13 0 9 17 11 62 9 48 -3 63 -1 70 12 12 22 28 11 21 -14z"/>
</g>
</svg>