<svg xmlns="http://www.w3.org/2000/svg" viewBox="823.10 251.20 567.40 275.30">
<g transform="translate(0.000000,768.000000) scale(0.100000,-0.100000)" fill="currentColor" stroke="none">
<path d="M11416 5078 c-25 -35 -22 -152 4 -178 21 -21 65 -27 75 -10 5 8 11 7 21 -1 13 -11 15 -4 12 47 -3 57 -4 59 -30 59 -32 0 -39 -18 -8 -23 12 -2 20 -11 20 -22 0 -24 -28 -52 -48 -48 -39 7 -56 113 -26 156 19 28 54 29 61 2 6 -23 33 -27 33 -6 0 46 -86 64 -114 24z"/>
<path d="M11570 4989 c0 -84 3 -110 13 -107 6 3 13 23 15 46 3 39 5 42 33 42 57 0 87 60 53 108 -12 18 -25 22 -65 22 l-49 0 0 -111z m90 77 c6 -8 10 -25 8 -38 -2 -18 -10 -24 -35 -26 -32 -3 -33 -2 -33 37 0 36 3 41 24 41 13 0 29 -7 36 -14z"/>
<path d="M11737 5082 c-21 -23 -22 -52 -2 -52 8 0 15 9 15 20 0 27 27 37 47 17 20 -20 10 -47 -38 -103 -21 -25 -39 -54 -39 -65 0 -18 6 -20 55 -17 66 4 78 22 18 26 -24 2 -43 6 -43 11 0 4 18 25 40 46 33 32 40 46 40 77 0 27 -5 40 -19 48 -29 15 -56 12 -74 -8z"/>
<path d="M11876 5071 c-19 -36 -21 -126 -3 -161 10 -19 20 -25 47 -25 44 0 60 28 60 105 0 73 -17 104 -57 108 -27 3 -34 -2 -47 -27z m62 -3 c18 -18 16 -142 -3 -158 -29 -24 -45 5 -45 79 0 60 10 91 30 91 3 0 11 -5 18 -12z"/>
<path d="M8655 4640 c-374 -3 110 -5 1075 -5 965 0 1620 1 1455 2 -696 6 -1897 8 -2530 3z"/>
<path d="M11568 4633 c34 -2 90 -2 125 0 34 2 6 3 -63 3 -69 0 -97 -1 -62 -3z"/>
<path d="M11903 4633 c43 -2 110 -2 150 0 40 1 5 3 -78 3 -82 0 -115 -2 -72 -3z"/>
<path d="M12173 4633 c15 -2 39 -2 55 0 15 2 2 4 -28 4 -30 0 -43 -2 -27 -4z"/>
<path d="M12308 4633 c23 -2 59 -2 80 0 20 2 1 4 -43 4 -44 0 -61 -2 -37 -4z"/>
<path d="M12513 4633 c48 -2 126 -2 175 0 48 1 8 3 -88 3 -96 0 -136 -2 -87 -3z"/>
<path d="M12827 4633 c18 -2 50 -2 70 0 21 2 7 4 -32 4 -38 0 -55 -2 -38 -4z"/>
<path d="M12968 4633 c18 -2 45 -2 60 0 15 2 0 4 -33 4 -33 0 -45 -2 -27 -4z"/>
<path d="M13108 4633 c17 -2 47 -2 65 0 17 2 3 4 -33 4 -36 0 -50 -2 -32 -4z"/>
<path d="M13253 4633 c26 -2 67 -2 90 0 23 2 2 3 -48 3 -49 0 -68 -1 -42 -3z"/>
<path d="M13433 4633 c20 -2 54 -2 75 0 20 2 3 4 -38 4 -41 0 -58 -2 -37 -4z"/>
<path d="M13578 4633 c7 -3 16 -2 19 1 4 3 -2 6 -13 5 -11 0 -14 -3 -6 -6z"/>
<path d="M13813 4633 c9 -2 23 -2 30 0 6 3 -1 5 -18 5 -16 0 -22 -2 -12 -5z"/>
<path d="M13006 4153 c-4 -4 -40 -6 -81 -4 -75 2 -75 2 -75 -23 0 -16 6 -26 15 -26 8 0 15 5 15 10 0 6 7 10 15 10 8 0 15 -9 15 -20 0 -11 7 -20 15 -20 8 0 15 7 15 16 0 17 22 16 78 -1 20 -7 22 -4 22 29 0 34 -15 47 -34 29z"/>
<path d="M9810 4121 c0 -12 8 -21 23 -24 l22 -4 -22 -2 c-13 0 -23 -5 -23 -11 0 -6 72 -10 195 -10 123 0 195 4 195 10 0 6 -4 10 -9 10 -4 0 -6 11 -3 25 l4 25 -191 0 c-182 0 -191 -1 -191 -19z"/>
<path d="M10749 4138 c0 -2 -2 -18 -4 -35 l-3 -33 188 0 188 0 -1 33 -2 32 -182 3 c-101 1 -183 1 -184 0z m259 -55 c-26 -2 -71 -2 -100 0 -29 2 -8 3 47 3 55 0 79 -1 53 -3z"/>
<path d="M11536 4114 c-4 -9 -9 -14 -13 -11 -8 8 -43 -11 -43 -23 0 -6 44 -10 105 -10 70 0 105 4 105 11 0 6 -7 9 -15 6 -8 -4 -22 4 -34 18 -23 31 -95 36 -105 9z"/>
<path d="M11843 4122 c-53 -1 -93 -7 -93 -13 0 -5 -12 -14 -27 -20 -26 -10 -27 -12 -8 -19 12 -5 -43 -9 -132 -9 l-153 -1 0 -40 0 -39 88 -4 87 -3 -88 -2 -89 -2 4 -50 3 -50 -400 0 -400 0 -77 52 c-43 29 -78 57 -78 62 0 5 10 0 23 -11 26 -23 113 -83 121 -83 3 0 6 18 6 40 l0 39 -57 4 -58 3 58 2 57 2 1 38 2 37 6 -40 c4 -26 9 -35 14 -27 10 15 547 18 547 2 0 -6 43 -10 110 -10 l110 0 0 40 0 40 -482 0 c-918 1 -1263 3 -1240 7 30 6 28 23 -3 23 -14 0 -25 -5 -25 -11 0 -6 -7 -17 -15 -25 -9 -10 -15 -34 -15 -65 0 -27 -4 -49 -10 -49 -6 0 -9 -23 -8 -52 l1 -53 7 50 c10 70 12 -244 3 -543 l-6 -242 -37 0 c-30 0 -39 -4 -43 -21 -4 -14 1 -23 16 -29 49 -21 57 -34 57 -102 0 -68 -10 -88 -45 -88 -20 0 -21 -5 -20 -102 0 -57 -4 -120 -8 -140 l-8 -38 61 0 60 0 0 35 c0 19 -4 35 -10 35 -5 0 -10 23 -10 50 l0 50 84 0 c58 0 86 4 89 13 3 6 6 -14 6 -45 1 -58 1 -58 31 -58 l30 0 0 135 0 135 33 -1 c17 -1 24 -3 15 -6 -24 -6 -29 -47 -26 -187 2 -84 7 -121 16 -124 9 -3 12 30 12 145 l0 148 755 -3 755 -2 0 25 c0 18 5 25 20 25 15 0 20 -7 20 -26 l0 -25 86 2 86 2 -1 -127 c-1 -82 2 -126 8 -126 7 0 11 43 11 122 0 67 3 118 7 114 4 -3 27 13 52 36 l46 43 -49 -52 c-28 -29 -47 -55 -44 -59 4 -3 24 12 46 35 34 36 45 41 83 41 24 0 364 0 755 0 392 0 726 3 743 6 27 6 31 11 31 38 0 17 -3 41 -6 53 l-6 23 -327 3 -326 2 348 3 c340 2 347 2 347 22 0 20 -7 20 -381 20 -325 0 -383 2 -395 15 -12 12 -41 15 -125 15 -148 0 -142 -18 9 -23 64 -1 -3 -4 -150 -5 -261 -2 -268 -3 -268 -22 0 -19 7 -20 244 -20 153 0 247 -4 251 -10 3 -5 28 -10 54 -10 41 0 50 -3 54 -21 6 -21 -12 -35 -35 -26 -8 4 -6 6 5 6 9 1 17 6 17 11 0 6 -19 9 -42 9 -24 -1 -33 -4 -20 -6 31 -6 27 -22 -5 -20 -22 2 -28 7 -28 27 l0 25 -1289 3 c-1021 2 -1292 -1 -1304 -10 -13 -10 -14 -10 -8 0 5 9 -5 12 -41 13 -29 1 -37 4 -20 6 19 3 27 10 27 24 0 24 -20 26 -21 2 0 -14 -2 -15 -6 -3 -3 8 -11 18 -17 22 -8 5 -7 8 2 8 7 0 12 13 12 30 0 26 -4 30 -28 30 -25 0 -29 -4 -30 -30 0 -22 4 -30 16 -30 14 0 14 -2 3 -9 -11 -7 -14 -38 -12 -147 1 -102 -2 -140 -11 -146 -18 -11 -28 -10 -28 3 0 5 5 7 10 4 12 -8 13 9 10 155 -1 63 -4 190 -6 283 l-3 167 40 0 39 0 0 115 c0 85 -3 115 -12 115 -9 0 -10 3 -2 8 6 4 14 14 17 22 3 8 6 -44 6 -116 1 -128 2 -132 24 -138 38 -10 107 -7 107 5 0 8 5 8 15 -1 13 -11 15 6 15 144 l0 156 -79 0 c-67 0 -80 -3 -84 -17 -4 -16 -5 -16 -6 -1 -1 13 -13 18 -53 21 -29 2 92 4 270 5 250 2 322 5 322 15 0 8 4 7 10 -3 8 -13 10 -12 10 3 0 9 3 17 8 17 11 0 13 -191 2 -209 -7 -11 -9 15 -7 77 l2 92 -107 0 -108 0 0 -39 c0 -22 5 -42 13 -44 10 -4 10 -6 0 -6 -10 -1 -13 -30 -13 -111 l0 -110 75 0 74 0 4 148 3 147 2 -145 2 -146 165 -2 165 -2 0 215 c0 118 3 215 8 215 4 0 6 -97 4 -215 l-3 -215 61 0 61 0 -3 215 c-2 139 1 215 7 215 6 0 9 -76 7 -215 l-3 -215 56 0 55 0 2 53 1 52 6 -49 c3 -27 12 -51 19 -54 9 -3 12 34 12 163 0 162 -1 166 -20 160 -18 -6 -20 -2 -20 48 0 43 4 56 18 62 14 5 15 4 5 -6 -17 -17 -16 -64 1 -79 13 -10 15 -4 19 37 2 26 4 -50 5 -169 l2 -218 60 0 60 0 0 214 c0 136 -4 216 -10 219 -6 3 -5 4 2 3 10 -2 14 -53 16 -219 l2 -217 60 0 60 0 3 218 2 217 3 -216 2 -216 60 -2 60 -1 0 214 c0 196 -2 215 -17 219 -10 2 55 5 145 6 l162 2 2 -48 c1 -26 3 -109 4 -183 1 -74 2 -152 3 -172 l1 -38 130 0 c117 0 130 2 130 18 1 16 1 16 11 0 8 -14 23 -18 65 -18 94 0 94 1 94 150 l0 129 -82 4 -83 3 87 2 87 2 3 -121 3 -121 53 92 c30 50 60 94 68 97 11 4 14 42 14 209 l0 204 -24 0 c-13 0 -26 4 -28 10 -1 5 -21 12 -42 15 -22 2 -42 9 -45 14 -7 10 -171 17 -308 13z m387 -52 c0 -5 -7 -10 -16 -10 -8 0 -12 5 -9 10 3 6 10 10 16 10 5 0 9 -4 9 -10z m-353 -6 c-3 -3 -12 -4 -19 -1 -8 3 -5 6 6 6 11 1 17 -2 13 -5z m-2120 -36 c-3 -8 -6 -5 -6 6 -1 11 2 17 5 13 3 -3 4 -12 1 -19z m2001 -90 c2 92 5 112 17 112 12 0 15 -19 15 -110 0 -67 4 -110 10 -110 6 0 10 6 10 13 0 8 4 7 10 -3 7 -10 10 21 12 100 l2 115 6 -115 6 -115 2 113 2 113 55 -2 55 -2 2 -111 2 -111 3 113 4 112 39 0 40 0 0 -108 c0 -101 1 -108 20 -109 19 -2 20 4 20 102 0 89 -2 104 -15 99 -8 -4 -15 -1 -15 5 0 6 9 11 20 11 19 0 20 -7 22 -112 l2 -113 3 113 4 113 42 -3 42 -3 -1 -70 c-1 -38 -2 -89 -3 -112 l-1 -43 -225 0 -225 0 2 118 2 117 6 -115 6 -115 2 113z m62 102 c0 -5 -2 -10 -4 -10 -3 0 -8 5 -11 10 -3 6 -1 10 4 10 6 0 11 -4 11 -10z m-3 -117 c-2 -21 -4 -6 -4 32 0 39 2 55 4 38 2 -18 2 -50 0 -70z m-2109 -831 c-43 -2 -58 -7 -61 -20 -3 -9 -4 66 -4 168 1 102 3 140 4 85 3 -63 8 -102 16 -107 9 -6 9 -8 -1 -8 -9 0 -12 -15 -10 -52 3 -51 4 -53 36 -55 23 -2 35 2 39 14 6 15 7 14 14 -3 4 -10 9 188 11 441 l3 460 5 -460 5 -460 -57 -3z m1952 891 c-8 -3 -23 -10 -32 -15 -11 -5 -18 -5 -18 1 0 10 23 18 50 19 13 0 13 0 0 -5z m-1440 -113 l0 -110 -222 0 -223 0 3 110 3 110 220 0 219 0 0 -110z m1379 86 c-2 -2 -15 -9 -29 -15 -24 -11 -24 -11 -6 3 16 13 49 24 35 12z m-113 -61 c-11 -8 -25 -15 -30 -15 -6 1 0 7 14 15 32 19 40 18 16 0z m-856 -42 c-19 -3 -38 -10 -42 -16 -6 -9 -8 -8 -8 1 0 10 -15 13 -60 10 -33 -1 -60 0 -60 5 0 4 46 6 103 5 56 0 86 -3 67 -5z m-900 -27 c0 -2 3 -13 6 -23 6 -17 6 -17 -7 -1 -8 9 -30 19 -49 21 -33 4 -33 4 8 5 23 1 42 0 42 -2z m1460 -6 c0 -5 -5 -10 -11 -10 -5 0 -7 5 -4 10 3 6 8 10 11 10 2 0 4 -4 4 -10z m-599 -150 c0 -73 -3 -135 -6 -138 -3 -3 -5 59 -5 138 0 79 2 141 5 138 3 -3 6 -65 6 -138z m126 88 c-3 -7 -5 -2 -5 12 0 14 2 19 5 13 2 -7 2 -19 0 -25z m-682 -86 c-3 -3 -11 0 -18 7 -9 10 -8 11 6 5 10 -3 15 -9 12 -12z m952 -54 c-3 -8 -6 -5 -6 6 -1 11 2 17 5 13 3 -3 4 -12 1 -19z m12 -81 c12 -15 12 -17 -3 -11 -9 3 -16 13 -16 22 0 8 1 13 3 11 1 -2 9 -12 16 -22z m-536 -27 c-3 -11 -7 -20 -9 -20 -2 0 -4 9 -4 20 0 11 4 20 9 20 5 0 7 -9 4 -20z m-730 -297 c-7 -2 -19 -2 -25 0 -7 3 -2 5 12 5 14 0 19 -2 13 -5z m4 -65 c-3 -8 -6 -5 -6 6 -1 11 2 17 5 13 3 -3 4 -12 1 -19z m-6 -128 l79 0 0 -50 0 -50 -85 0 -85 0 1 68 c1 37 3 59 6 50 4 -15 17 -18 84 -18z m1452 -22 l32 -1 -32 -4 c-24 -3 -33 -9 -33 -22 0 -10 -6 -23 -12 -29 -9 -7 -192 -11 -528 -12 -669 -3 -646 -4 -654 16 -5 13 -4 14 7 5 11 -8 168 -10 593 -9 l579 3 4 45 c2 25 6 37 8 28 3 -12 15 -19 36 -20z m-1263 8 c0 -2 -9 -6 -20 -9 -11 -3 -20 -1 -20 4 0 5 9 9 20 9 11 0 20 -2 20 -4z m1330 -6 c0 -5 -4 -10 -10 -10 -5 0 -10 5 -10 10 0 6 5 10 10 10 6 0 10 -4 10 -10z m300 -7 c2 -2 -62 -3 -143 -2 -82 1 -147 6 -147 11 0 9 279 0 290 -9z m131 0 c-103 -4 -103 -4 -85 -24 13 -15 15 -22 6 -31 -7 -7 -13 -9 -13 -5 -1 4 -3 12 -4 17 -1 6 -3 13 -4 18 -1 4 -6 0 -11 -8 -8 -12 -10 -9 -10 13 l0 27 113 -2 112 -2 -104 -3z m-1794 -35 c-3 -8 -6 -5 -6 6 -1 11 2 17 5 13 3 -3 4 -12 1 -19z m1661 -4 c0 -15 -4 -22 -10 -16 -5 5 -6 16 -2 25 9 23 12 21 12 -9z m-1758 -120 c-58 -8 -150 -8 -150 -1 0 4 39 6 88 6 48 -1 76 -3 62 -5z"/>
<path d="M11774 3935 c0 -60 1 -84 3 -52 2 32 2 81 0 110 -2 29 -3 3 -3 -58z"/>
<path d="M11860 3935 c0 -63 4 -105 10 -105 6 0 10 42 10 105 0 63 -4 105 -10 105 -6 0 -10 -42 -10 -105z"/>
<path d="M11894 3935 c0 -60 1 -84 3 -52 2 32 2 81 0 110 -2 29 -3 3 -3 -58z"/>
<path d="M11912 3932 l2 -107 6 100 6 100 2 -97 c3 -131 22 -130 22 1 0 90 -2 99 -20 104 -19 5 -20 1 -18 -101z"/>
<path d="M11984 3935 c0 -60 1 -84 3 -52 2 32 2 81 0 110 -2 29 -3 3 -3 -58z"/>
<path d="M12000 3935 c0 -63 4 -105 10 -105 6 0 10 42 10 105 0 63 -4 105 -10 105 -6 0 -10 -42 -10 -105z"/>
<path d="M12034 3935 c0 -60 1 -84 3 -52 2 32 2 81 0 110 -2 29 -3 3 -3 -58z"/>
<path d="M12120 3935 c0 -94 1 -101 20 -102 19 -2 20 4 20 100 0 96 -1 103 -20 103 -19 0 -20 -7 -20 -101z"/>
<path d="M12174 3935 c0 -60 1 -84 3 -52 2 32 2 81 0 110 -2 29 -3 3 -3 -58z"/>
<path d="M9792 3873 c-2 -97 -1 -103 18 -103 19 0 20 7 20 100 0 132 -19 134 -22 3 l-2 -98 -6 100 -6 100 -2 -102z"/>
<path d="M9842 3873 l-2 -103 30 0 30 0 0 98 c0 91 -1 98 -20 99 -19 2 -20 -5 -22 -95 l-2 -97 -6 100 -6 100 -2 -102z"/>
<path d="M9914 3870 c0 -58 1 -81 3 -52 2 28 2 76 0 105 -2 28 -3 5 -3 -53z"/>
<path d="M9930 3870 c0 -60 4 -100 10 -100 6 0 10 40 10 100 0 60 -4 100 -10 100 -6 0 -10 -40 -10 -100z"/>
<path d="M9964 3870 c0 -58 1 -81 3 -52 2 28 2 76 0 105 -2 28 -3 5 -3 -53z"/>
<path d="M9981 3873 c-1 -97 0 -103 19 -103 19 0 20 7 20 100 0 60 -4 100 -10 100 -5 0 -11 -17 -11 -37 l-2 -38 -7 40 c-5 29 -8 13 -9 -62z"/>
<path d="M10034 3870 c0 -58 1 -81 3 -52 2 28 2 76 0 105 -2 28 -3 5 -3 -53z"/>
<path d="M10051 3873 c-1 -97 0 -103 19 -103 19 0 20 7 20 100 0 60 -4 100 -10 100 -5 0 -10 -8 -11 -17 0 -15 -2 -15 -9 2 -6 13 -9 -16 -9 -82z"/>
<path d="M10104 3870 c0 -58 1 -81 3 -52 2 28 2 76 0 105 -2 28 -3 5 -3 -53z"/>
<path d="M10120 3868 c0 -91 1 -98 20 -98 19 0 20 7 20 99 0 94 -1 100 -20 98 -19 -1 -20 -8 -20 -99z"/>
<path d="M10174 3870 c0 -58 1 -81 3 -52 2 28 2 76 0 105 -2 28 -3 5 -3 -53z"/>
<path d="M10190 3870 c0 -60 4 -100 10 -100 6 0 10 40 10 100 0 60 -4 100 -10 100 -6 0 -10 -40 -10 -100z"/>
<path d="M9650 2970 l0 -40 75 0 75 0 0 40 0 40 -75 0 -75 0 0 -40z"/>
<path d="M12570 4100 c0 -10 6 -21 13 -23 6 -3 -54 -6 -135 -6 l-148 -1 0 -85 0 -85 305 0 305 0 1 58 c0 31 2 53 5 47 2 -6 28 -8 58 -7 41 3 56 8 59 20 3 10 5 -8 6 -38 1 -60 -10 -81 -43 -79 -18 1 -17 2 4 8 20 5 26 14 28 44 l3 37 -49 0 c-62 0 -62 1 -62 -187 l0 -143 190 0 190 0 2 -277 3 -278 5 275 5 275 23 1 c12 1 22 -3 22 -7 0 -5 -9 -9 -20 -9 -19 0 -20 -7 -20 -150 0 -141 2 -153 23 -181 18 -25 23 -47 26 -115 l3 -84 29 0 29 0 0 265 c0 229 -2 265 -15 265 -8 0 -15 4 -15 9 0 5 9 7 19 4 27 -7 35 -108 28 -350 l-6 -193 39 0 c21 0 45 -3 54 -6 14 -5 16 11 16 144 0 111 3 152 13 155 10 4 10 6 0 6 -10 1 -13 34 -13 129 0 139 -5 152 -52 152 -18 0 -28 5 -28 15 0 8 -6 15 -14 15 -8 0 -21 3 -30 6 -9 3 -16 1 -16 -5 0 -6 9 -11 20 -11 11 0 20 -4 20 -8 0 -5 -17 -8 -37 -6 -21 2 -136 6 -255 10 l-218 6 -1 37 c0 20 -2 45 -4 55 -2 11 -1 32 2 48 5 26 9 28 52 28 57 0 76 19 75 75 -2 78 -23 103 -90 107 -44 3 -49 1 -55 -22 l-7 -25 -1 28 -1 27 -115 0 c-94 0 -117 3 -121 15 -4 8 -10 15 -15 15 -4 0 -6 -7 -3 -15 5 -11 -1 -15 -22 -14 -17 1 -22 3 -11 6 13 3 26 23 14 23 -1 0 -17 4 -35 9 -28 8 -32 7 -32 -9z m393 -197 c-7 -2 -19 -2 -25 0 -7 3 -2 5 12 5 14 0 19 -2 13 -5z m505 -293 c-7 -10 -14 -17 -17 -15 -4 4 18 35 25 35 2 0 -1 -9 -8 -20z m22 -34 c0 -11 -19 -15 -25 -6 -3 5 1 10 9 10 9 0 16 -2 16 -4z m20 -178 c0 -5 -9 -4 -20 2 -11 6 -20 12 -20 14 0 2 9 2 20 -1 11 -3 20 -9 20 -15z m37 6 c-3 -3 -12 -4 -19 -1 -8 3 -5 6 6 6 11 1 17 -2 13 -5z m-69 -185 c-10 -5 -18 -17 -18 -26 0 -9 -3 -14 -6 -10 -11 11 7 47 24 47 16 -1 15 -2 0 -11z m59 5 c-3 -3 -12 -4 -19 -1 -8 3 -5 6 6 6 11 1 17 -2 13 -5z m-7 -74 c0 -5 -4 -10 -10 -10 -5 0 -10 5 -10 10 0 6 5 10 10 10 6 0 10 -4 10 -10z"/>
<path d="M10300 4085 c0 -11 5 -12 26 -5 35 14 118 12 132 -2 9 -9 12 -8 12 5 0 15 -12 17 -85 17 -68 0 -85 -3 -85 -15z"/>
<path d="M10654 3976 c-6 -7 -13 -31 -15 -54 -4 -39 -3 -40 23 -40 27 1 28 3 28 55 0 54 -12 67 -36 39z"/>
<path d="M10703 3935 c0 -33 2 -45 4 -27 2 18 2 45 0 60 -2 15 -4 0 -4 -33z"/>
<path d="M10720 3934 c0 -47 2 -54 20 -54 17 0 20 7 20 53 0 46 -3 53 -20 54 -18 2 -20 -4 -20 -53z"/>
<path d="M10773 3935 c0 -33 2 -45 4 -27 2 18 2 45 0 60 -2 15 -4 0 -4 -33z"/>
<path d="M10790 3935 c0 -48 2 -55 20 -55 18 0 20 7 20 55 0 48 -2 55 -20 55 -18 0 -20 -7 -20 -55z"/>
<path d="M10843 3935 c0 -33 2 -45 4 -27 2 18 2 45 0 60 -2 15 -4 0 -4 -33z"/>
<path d="M10860 3935 c0 -70 19 -72 22 -2 l1 52 7 -55 7 -55 1 58 c2 51 0 57 -18 57 -18 0 -20 -7 -20 -55z"/>
<path d="M10911 3938 c-1 -52 1 -58 19 -58 17 0 20 7 22 48 l1 47 7 -50 7 -50 1 55 c2 49 0 56 -18 57 -12 1 -20 -5 -21 -15 0 -14 -2 -13 -9 3 -6 14 -9 4 -9 -37z"/>
<path d="M10983 3935 c0 -33 2 -45 4 -27 2 18 2 45 0 60 -2 15 -4 0 -4 -33z"/>
<path d="M11000 3935 c0 -70 19 -72 22 -2 l1 52 7 -55 7 -55 1 58 c2 51 0 57 -18 57 -18 0 -20 -7 -20 -55z"/>
<path d="M11050 3935 c0 -48 2 -55 20 -55 17 0 20 7 22 53 l1 52 7 -55 7 -55 1 58 2 57 -30 0 c-30 0 -30 -1 -30 -55z"/>
<path d="M11120 3935 c0 -48 2 -55 20 -55 18 0 20 7 20 55 0 48 -2 55 -20 55 -18 0 -20 -7 -20 -55z"/>
<path d="M11170 3935 l0 -55 125 0 125 0 0 46 0 46 -120 -4 c-93 -2 -119 0 -115 10 2 6 0 12 -5 12 -6 0 -10 -25 -10 -55z"/>
<path d="M12300 3776 c0 -101 2 -115 18 -119 16 -4 16 -5 0 -6 -16 -1 -18 -16 -18 -161 0 -188 -18 -169 165 -173 104 -3 101 -3 -23 -3 l-143 1 3 -100 c3 -86 5 -100 21 -103 9 -2 17 1 17 7 0 5 -8 12 -17 14 -10 3 50 5 132 6 83 0 219 0 303 1 l152 0 0 84 c0 58 -4 86 -12 90 -10 5 -10 7 0 12 9 4 12 46 12 160 0 130 -2 154 -15 154 -8 0 -15 5 -15 10 0 6 7 10 15 10 12 0 15 19 15 115 l0 115 -305 0 -305 0 0 -114z m445 -59 l1 -127 -3 125 -4 125 -134 0 -135 0 0 -119 c0 -105 2 -120 18 -124 13 -4 11 -5 -5 -6 -23 -1 -23 1 -23 122 0 68 3 127 7 131 4 3 68 5 142 4 l136 -3 0 -128z m-150 -2 l0 -100 -57 -3 -58 -3 0 106 0 106 58 -3 57 -3 0 -100z m135 0 l0 -106 -57 3 -58 3 -3 103 -3 102 61 0 60 0 0 -105z m-42 -122 c-26 -2 -71 -2 -100 0 -29 2 -8 3 47 3 55 0 79 -1 53 -3z m183 -272 c-18 -12 -254 -15 -247 -3 3 5 63 9 133 10 78 1 123 -2 114 -7z m-277 -33 c-5 -8 -1 -9 12 -4 14 5 16 4 7 -5 -13 -13 -37 -3 -28 12 4 5 8 9 11 9 3 0 2 -5 -2 -12z m296 -20 c0 -10 -7 -18 -15 -18 -8 0 -15 8 -15 18 0 10 7 19 15 19 8 0 15 -9 15 -19z"/>
<path d="M11420 3812 c0 -32 3 -40 14 -36 10 4 14 0 12 -12 -2 -10 -8 -20 -14 -22 -8 -2 -12 -39 -12 -115 0 -67 4 -106 9 -98 6 9 11 10 15 2 4 -6 0 -14 -8 -17 -11 -4 -16 -19 -16 -48 l0 -42 70 -2 70 -3 0 215 0 216 -55 0 c-34 0 -55 -4 -55 -11 0 -8 -5 -8 -15 1 -13 11 -15 7 -15 -28z m124 -12 c-6 -6 -10 -3 -10 10 0 13 4 16 10 10 7 -7 7 -13 0 -20z"/>
<path d="M11570 3635 l0 -215 60 0 60 0 0 215 0 215 -60 0 -60 0 0 -215z"/>
<path d="M10070 3575 l0 -155 80 0 80 0 0 155 0 155 -80 0 -80 0 0 -155z m125 55 c0 -7 -6 -15 -12 -17 -8 -3 -13 4 -13 17 0 13 5 20 13 18 6 -3 12 -11 12 -18z"/>
<path d="M12244 3603 c-15 -27 -42 -74 -61 -106 -37 -64 -39 -84 -26 -280 l6 -107 64 0 63 0 0 105 0 105 -49 0 c-45 0 -50 -2 -61 -30 -16 -40 -23 -33 -9 8 10 31 13 32 65 32 l54 0 0 160 c0 95 -4 160 -10 160 -5 0 -21 -21 -36 -47z"/>
<path d="M12925 3642 c-3 -3 -5 -74 -5 -159 l0 -153 185 0 185 0 0 155 0 155 -87 1 c-49 1 -130 2 -180 4 -51 1 -95 0 -98 -3z m225 -101 c0 -7 -26 -11 -66 -11 -36 0 -63 3 -60 8 7 12 126 15 126 3z"/>
<path d="M12093 3413 l-33 -4 0 -115 0 -114 40 0 40 0 0 120 c0 66 -3 119 -7 118 -5 0 -23 -3 -40 -5z"/>
<path d="M13637 3414 c-4 -4 -7 -85 -7 -181 l0 -173 70 0 c63 0 70 2 70 20 0 18 -7 20 -60 20 l-60 0 0 150 c0 143 1 150 20 150 19 0 20 -7 20 -145 0 -139 1 -145 20 -145 20 0 20 5 18 153 l-3 152 -40 3 c-23 2 -44 0 -48 -4z"/>
<path d="M9830 3295 l0 -115 30 0 30 0 0 115 0 115 -30 0 -30 0 0 -115z"/>
<path d="M9900 3260 c0 -85 4 -150 9 -150 5 0 10 65 10 150 1 96 -2 150 -9 150 -6 0 -10 -55 -10 -150z"/>
<path d="M9930 3295 l0 -115 50 0 c33 0 50 4 50 13 0 8 4 7 10 -3 9 -13 11 -13 20 0 6 10 10 11 10 3 0 -10 24 -13 85 -13 l84 0 -3 38 c-2 20 -4 72 -5 115 l-1 77 -80 0 -79 0 -4 -97 -3 -98 -2 96 -2 96 -65 2 -65 2 0 -116z m116 -41 c-4 -12 -10 -14 -17 -7 -5 5 -7 17 -3 27 4 12 10 14 17 7 5 -5 7 -17 3 -27z"/>
<path d="M10254 3260 c0 -85 2 -120 3 -77 2 42 2 112 0 155 -1 42 -3 7 -3 -78z"/>
<path d="M10270 3295 l0 -115 59 0 c48 0 60 3 64 18 4 15 5 15 6 0 1 -12 9 -16 29 -15 25 2 27 6 30 51 2 29 -1 46 -6 42 -6 -3 -5 5 1 19 11 21 12 16 15 -46 l3 -70 62 3 c52 3 62 6 61 21 0 9 -1 60 -2 112 l-2 95 -95 -1 -94 -2 -4 -96 -3 -96 -2 98 -2 97 -60 0 -60 0 0 -115z m165 6 c3 -5 1 -12 -5 -16 -5 -3 -10 1 -10 9 0 18 6 21 15 7z"/>
<path d="M10600 3328 c0 -46 5 -90 10 -98 7 -10 10 16 10 83 0 58 -4 97 -10 97 -6 0 -10 -34 -10 -82z"/>
<path d="M10630 3295 l0 -115 50 0 50 0 0 115 0 115 -50 0 -50 0 0 -115z m87 -72 c-3 -10 -5 -4 -5 12 0 17 2 24 5 18 2 -7 2 -21 0 -30z"/>
<path d="M10740 3295 l0 -115 60 0 60 0 0 115 0 115 -60 0 -60 0 0 -115z"/>
<path d="M10870 3295 l0 -115 40 0 40 0 0 115 0 115 -40 0 -40 0 0 -115z"/>
<path d="M10960 3233 c0 -97 2 -174 5 -171 3 3 6 48 6 102 0 57 4 96 10 96 6 0 9 -17 7 -37 -2 -30 1 -38 15 -41 15 -3 17 8 17 112 0 96 -3 116 -15 116 -12 0 -15 -14 -15 -64 0 -36 5 -68 10 -71 6 -3 10 -11 10 -16 0 -6 -7 -4 -15 5 -10 10 -15 35 -15 80 0 37 -4 66 -10 66 -6 0 -10 -66 -10 -177z"/>
<path d="M11030 3295 l0 -115 60 0 60 0 0 115 0 115 -60 0 -60 0 0 -115z"/>
<path d="M11160 3295 l0 -115 60 0 60 0 0 115 0 115 -60 0 -60 0 0 -115z m30 -70 c0 -14 -4 -25 -8 -25 -7 0 -8 31 -3 48 4 11 11 -3 11 -23z"/>
<path d="M11290 3295 c0 -152 19 -155 22 -2 2 98 3 90 8 -63 l6 -175 2 178 c2 171 1 177 -18 177 -19 0 -20 -7 -20 -115z"/>
<path d="M11340 3295 l0 -115 35 0 35 0 0 115 0 115 -35 0 -35 0 0 -115z"/>
<path d="M11420 3344 c0 -36 4 -63 9 -60 5 3 12 -1 15 -10 9 -22 8 -24 -9 -24 -11 0 -15 -11 -15 -37 0 -25 3 -33 9 -24 6 9 11 10 15 2 4 -6 32 -11 62 -11 l54 0 0 115 0 115 -70 0 -70 0 0 -66z"/>
<path d="M11570 3295 l0 -115 50 0 50 0 0 115 0 115 -50 0 -50 0 0 -115z"/>
<path d="M11684 3235 c0 -99 2 -138 3 -87 2 51 2 132 0 180 -1 48 -3 6 -3 -93z"/>
<path d="M11707 3403 c-4 -3 -7 -71 -7 -150 l0 -143 165 0 165 0 0 30 c0 25 -4 30 -25 30 -14 0 -25 4 -25 9 0 4 11 6 25 3 l25 -4 0 116 0 116 -158 0 c-87 0 -162 -3 -165 -7z"/>
<path d="M12044 3235 c0 -99 2 -138 3 -87 2 51 2 132 0 180 -1 48 -3 6 -3 -93z"/>
<path d="M12920 3215 l0 -105 185 0 185 0 0 105 0 105 -185 0 -185 0 0 -105z"/>
<path d="M13320 3210 c0 -93 1 -100 20 -100 18 0 20 7 20 63 0 68 -15 137 -30 137 -6 0 -10 -43 -10 -100z"/>
<path d="M10613 3135 c0 -44 2 -61 4 -37 2 23 2 59 0 80 -2 20 -4 1 -4 -43z"/>
<path d="M9930 3140 l0 -30 155 0 155 0 0 30 0 30 -155 0 -155 0 0 -30z"/>
<path d="M10270 3140 l0 -30 165 0 165 0 0 30 0 30 -165 0 -165 0 0 -30z"/>
<path d="M10630 3140 l0 -30 160 0 160 0 0 30 0 30 -160 0 -160 0 0 -30z"/>
<path d="M10980 3140 l0 -30 165 0 165 0 0 30 0 30 -165 0 -165 0 0 -30z"/>
<path d="M11340 3140 l0 -30 165 0 165 0 0 30 0 30 -165 0 -165 0 0 -30z"/>
<path d="M12060 3140 c0 -29 2 -30 45 -30 43 0 45 1 45 30 0 29 -2 30 -45 30 -43 0 -45 -1 -45 -30z"/>
<path d="M12610 3120 c0 -6 47 -10 120 -10 73 0 120 4 120 10 0 6 -47 10 -120 10 -73 0 -120 -4 -120 -10z"/>
<path d="M12860 3120 c0 -5 9 -10 19 -10 11 0 23 5 26 10 4 6 -5 10 -19 10 -14 0 -26 -4 -26 -10z"/>
<path d="M9930 3080 c0 -19 7 -20 155 -20 148 0 155 1 155 20 0 19 -7 20 -155 20 -148 0 -155 -1 -155 -20z"/>
<path d="M10252 3080 c0 -14 2 -19 5 -12 2 6 2 18 0 25 -3 6 -5 1 -5 -13z"/>
<path d="M10270 3080 c0 -19 7 -20 165 -20 158 0 165 1 165 20 0 19 -7 20 -165 20 -158 0 -165 -1 -165 -20z"/>
<path d="M10630 3080 c0 -19 7 -20 160 -20 153 0 160 1 160 20 0 19 -7 20 -160 20 -153 0 -160 -1 -160 -20z"/>
<path d="M10980 3080 c0 -19 7 -20 165 -20 158 0 165 1 165 20 0 19 -7 20 -165 20 -158 0 -165 -1 -165 -20z"/>
<path d="M11340 3080 c0 -19 7 -20 95 -20 88 0 95 1 95 20 0 19 -7 20 -95 20 -88 0 -95 -1 -95 -20z"/>
<path d="M11540 3080 c0 -22 35 -28 43 -7 4 10 6 10 6 0 1 -8 16 -13 41 -13 33 0 40 3 40 20 0 17 -7 20 -49 20 -39 0 -51 -4 -54 -17 -4 -17 -5 -17 -6 0 -1 24 -21 22 -21 -3z"/>
<path d="M11700 3080 c0 -19 7 -20 165 -20 158 0 165 1 165 20 0 19 -7 20 -165 20 -158 0 -165 -1 -165 -20z"/>
<path d="M13382 3075 c4 -21 1 -25 -19 -25 -18 0 -23 -4 -19 -17 2 -10 12 -74 21 -143 29 -219 28 -215 51 -218 19 -3 22 4 30 70 4 41 9 61 12 46 3 -28 4 -28 83 -28 l79 0 0 35 0 34 -82 3 c-74 3 -83 5 -85 23 -2 11 0 14 3 8 4 -9 31 -13 85 -13 l79 0 0 40 c0 45 0 45 -110 31 -54 -6 -55 -6 -56 19 -1 14 1 19 3 13 3 -9 30 -13 84 -13 l79 0 0 35 0 35 -79 0 c-54 0 -81 -4 -85 -12 -3 -7 -5 -4 -3 7 2 18 11 20 85 23 l82 3 0 32 0 32 -90 0 -90 0 0 -131 c0 -105 -3 -134 -15 -144 -10 -9 -15 -9 -15 -1 0 6 4 11 9 11 5 0 10 61 10 135 l1 135 -26 0 c-23 0 -26 -3 -22 -25z"/>
<path d="M13636 3033 c-4 -9 -6 -80 -6 -157 2 -238 3 -226 -21 -226 -17 0 -20 -5 -17 -31 l3 -30 93 -5 c50 -3 92 -3 92 1 0 3 -16 36 -35 73 -19 37 -39 82 -44 100 -8 28 -7 32 8 32 10 0 24 -7 31 -15 8 -9 30 -15 56 -15 l44 0 0 65 0 65 -55 0 c-44 0 -55 -3 -55 -16 0 -13 -7 -15 -31 -10 -17 3 -35 6 -40 6 -5 0 -9 26 -9 57 0 51 4 61 32 90 l32 33 -36 0 c-24 0 -38 -5 -42 -17z"/>
<path d="M11450 2895 c0 -25 5 -45 10 -45 6 0 10 20 10 45 0 25 -4 45 -10 45 -5 0 -10 -20 -10 -45z"/>
<path d="M12244 2909 c-5 -8 -34 -10 -93 -6 -51 3 -74 2 -56 -3 17 -4 95 -9 175 -11 113 -2 125 -4 58 -6 -89 -4 -110 -15 -62 -33 42 -16 76 -11 144 21 48 23 79 31 118 31 28 0 52 4 52 9 0 14 -327 12 -336 -2z"/>
<path d="M12606 2911 c5 -5 38 -11 74 -13 47 -3 75 -10 97 -26 26 -18 45 -22 109 -22 61 0 75 3 66 12 -20 20 -14 28 26 28 20 1 75 7 122 14 82 14 75 14 -209 15 -174 1 -291 -3 -285 -8z m214 -31 c0 -5 -4 -10 -10 -10 -5 0 -10 5 -10 10 0 6 5 10 10 10 6 0 10 -4 10 -10z"/>
<path d="M12006 2902 c-3 -5 -6 -41 -7 -80 -1 -49 -6 -73 -15 -76 -19 -7 -17 -45 4 -70 17 -21 17 -21 -5 -2 -28 23 -30 70 -5 86 15 9 14 10 -8 8 -20 -2 -27 -11 -37 -48 -6 -25 -12 -35 -12 -23 -1 35 18 75 39 80 33 9 23 23 -16 23 -50 0 -74 15 -74 48 0 16 5 33 12 40 9 9 9 12 1 12 -7 0 -18 -8 -25 -18 -16 -23 -89 -52 -128 -52 -29 0 -30 -2 -30 -44 0 -53 9 -58 91 -49 52 5 62 3 79 -15 10 -11 24 -22 31 -24 7 -2 9 -10 5 -16 -9 -14 -36 -16 -36 -2 0 5 8 7 18 4 9 -4 4 5 -13 20 -31 26 -69 33 -94 17 -10 -7 -12 -20 -7 -50 4 -25 2 -41 -4 -41 -5 0 -10 -4 -10 -10 0 -5 10 -10 23 -10 12 0 33 -7 45 -16 13 -9 30 -13 39 -10 8 4 21 2 28 -4 7 -6 30 -19 51 -30 39 -19 39 -19 -501 -21 -732 -1 -1861 -6 -1908 -8 -36 -1 -38 -3 -35 -28 l3 -28 2155 0 2155 0 0 30 c0 35 40 31 -345 35 -168 1 -271 5 -251 10 18 4 46 17 62 29 15 12 38 21 50 21 24 0 89 45 89 61 0 6 -17 -3 -37 -20 l-38 -31 -144 0 c-129 0 -142 -2 -130 -16 17 -20 62 -43 91 -46 13 -1 -87 -5 -222 -8 -135 -3 -263 -3 -285 -1 l-40 4 32 11 c18 6 43 21 55 34 l22 22 -122 0 c-67 0 -122 -3 -122 -7 1 -15 49 -43 87 -52 25 -6 -66 -9 -267 -9 -168 0 -287 3 -264 7 22 4 56 18 75 31 l34 25 -139 3 c-81 1 -145 7 -153 13 -7 6 -12 22 -11 35 3 26 8 30 25 13 8 -8 17 -8 32 0 12 7 21 9 21 6 0 -3 -16 -13 -35 -21 -20 -8 -33 -19 -30 -24 4 -6 72 -10 161 -10 130 0 154 2 154 15 0 8 -6 15 -14 15 -20 0 -59 34 -63 56 -3 10 -7 31 -10 47 -4 20 -11 27 -29 27 -24 0 -24 -1 -8 -25 14 -21 15 -31 6 -50 -7 -14 -19 -25 -29 -25 -15 0 -14 3 5 16 27 18 28 40 4 55 -16 10 -18 22 -14 90 4 73 1 92 -12 71z m-159 -214 c-3 -8 -6 -5 -6 6 -1 11 2 17 5 13 3 -3 4 -12 1 -19z m180 -44 c-3 -3 -12 -4 -19 -1 -8 3 -5 6 6 6 11 1 17 -2 13 -5z"/>
<path d="M12030 2885 c0 -24 2 -25 71 -25 82 0 85 15 4 25 -30 4 -55 11 -55 16 0 5 -4 9 -10 9 -5 0 -10 -11 -10 -25z"/>
<path d="M11892 2888 c-15 -15 -16 -50 0 -66 7 -7 29 -12 50 -12 37 0 38 1 38 35 0 19 0 38 0 43 0 12 -75 13 -88 0z"/>
<path d="M13078 2888 c-32 -6 -58 -14 -58 -19 0 -5 32 -9 70 -9 63 0 70 2 70 20 0 22 1 22 -82 8z"/>
<path d="M13180 2851 c0 -28 5 -51 10 -51 6 0 10 20 10 44 0 25 -4 48 -10 51 -6 4 -10 -13 -10 -44z"/>
<path d="M13210 2856 l0 -46 43 0 c57 0 69 10 65 51 -3 33 -4 34 -55 37 l-53 3 0 -45z"/>
<path d="M9940 2750 l0 -140 850 0 850 0 0 140 0 140 -81 0 c-66 0 -80 -3 -76 -14 7 -17 -18 -40 -33 -31 -5 3 -10 15 -10 26 0 19 -14 19 -750 19 l-750 0 0 -140z"/>
<path d="M12421 2860 c-60 -33 -140 -40 -189 -17 -18 8 -58 11 -114 9 l-88 -3 0 -35 c0 -31 3 -34 30 -34 25 0 30 -4 30 -23 0 -34 26 -66 50 -60 23 6 26 19 8 26 -7 3 12 5 42 5 33 -1 42 -3 23 -5 -30 -4 -33 -7 -33 -39 0 -19 4 -33 9 -29 5 3 12 1 16 -5 3 -5 -1 -10 -10 -10 -9 0 -15 -6 -12 -12 4 -13 25 -14 180 -9 40 1 47 4 47 21 0 11 5 20 10 20 6 0 10 14 10 30 0 25 -4 30 -25 30 -19 0 -25 -5 -25 -22 -1 -46 -22 -59 -90 -56 l-62 3 22 28 c12 15 19 34 16 42 -8 22 206 22 224 0 9 -10 9 -15 1 -15 -6 0 -11 5 -11 10 0 6 -9 10 -20 10 -14 0 -20 -7 -20 -21 0 -18 5 -20 27 -16 26 5 26 4 8 -9 -17 -13 -17 -14 -1 -14 20 0 46 55 46 100 l0 30 80 0 80 0 0 -27 c1 -16 7 -45 15 -67 7 -21 9 -34 3 -28 -6 6 -16 32 -23 59 l-12 48 -64 0 c-61 0 -64 -1 -67 -25 -1 -14 -10 -42 -19 -62 -12 -30 -22 -38 -47 -40 -20 -2 -31 -9 -31 -18 0 -13 26 -15 163 -18 136 -2 162 0 162 12 0 8 -12 16 -27 19 l-28 4 28 2 c29 1 38 21 10 21 -15 0 -16 2 -3 10 13 9 13 10 0 10 -13 0 -13 1 0 10 13 9 13 11 0 20 -11 7 -6 10 23 10 35 0 37 -2 37 -33 0 -31 2 -33 68 -54 37 -12 84 -25 104 -28 34 -6 36 -5 31 14 -5 22 1 25 44 22 11 -1 25 3 29 10 5 8 2 11 -7 7 -8 -3 -23 -2 -34 2 -15 6 -12 8 13 7 44 0 72 36 35 46 -17 4 -17 5 0 6 11 1 20 12 24 31 3 17 9 30 13 30 10 0 -14 -101 -31 -128 -9 -14 -24 -22 -41 -22 -18 0 -28 -5 -28 -15 0 -13 24 -15 160 -15 92 0 160 4 160 9 0 5 -8 17 -17 27 -17 17 -17 17 4 12 23 -6 33 7 33 43 0 20 -15 26 -25 9 -3 -5 -14 -9 -23 -9 -15 1 -15 2 1 6 9 2 17 14 18 26 0 12 3 16 6 10 2 -7 9 -13 15 -13 7 0 8 23 3 68 -7 71 -25 110 -25 54 0 -39 -15 -48 -100 -57 l-66 -7 1 29 0 28 -75 2 c-41 1 -82 4 -91 8 -9 3 -21 -1 -29 -10 -9 -11 -31 -15 -79 -15 -54 1 -76 6 -121 30 -52 29 -61 30 -175 30 -114 0 -123 -2 -174 -30z m-81 -80 c0 -5 -7 -10 -15 -10 -8 0 -15 5 -15 10 0 6 7 10 15 10 8 0 15 -4 15 -10z m550 0 c0 -5 -7 -10 -15 -10 -8 0 -15 5 -15 10 0 6 7 10 15 10 8 0 15 -4 15 -10z m325 -29 c0 -13 -6 -25 -13 -27 -7 -1 -8 0 -2 3 5 2 10 11 10 19 0 20 -47 18 -59 -3 -6 -10 -11 -14 -11 -9 0 19 34 47 54 44 15 -2 21 -10 21 -27z m44 2 c16 -39 32 -97 24 -90 -12 12 -51 117 -43 117 4 0 13 -12 19 -27z m-634 5 c18 -8 25 -18 24 -37 -1 -21 -2 -22 -6 -6 -5 20 -30 45 -45 45 -5 0 -20 -12 -33 -26 -14 -15 -25 -22 -25 -16 0 9 46 52 56 52 2 0 15 -5 29 -12z m572 -14 c-3 -3 -12 -4 -19 -1 -8 3 -5 6 6 6 11 1 17 -2 13 -5z m-569 -24 c5 -13 3 -13 -11 -1 -14 11 -20 11 -32 1 -15 -12 -22 0 -8 14 12 11 46 2 51 -14z m392 3 c25 -3 38 -8 30 -11 -8 -3 -18 -10 -22 -16 -5 -7 -8 -4 -8 7 0 13 -9 17 -41 17 -33 0 -40 -3 -35 -16 3 -9 6 -23 7 -32 0 -11 2 -12 6 -4 5 13 23 7 23 -7 0 -20 -49 -19 -102 2 -46 17 -58 26 -58 44 0 16 7 22 28 25 31 4 106 0 172 -9z m133 -23 c4 -17 9 -19 31 -10 32 12 35 3 4 -10 -23 -10 -23 -10 2 -7 16 1 26 10 31 27 6 21 7 22 8 5 2 -46 -48 -60 -80 -22 -20 24 -24 37 -10 37 5 0 11 -9 14 -20z m-683 0 c0 -5 -4 -10 -10 -10 -5 0 -10 5 -10 10 0 6 5 10 10 10 6 0 10 -4 10 -10z m122 -9 c8 11 9 11 5 -3 -8 -25 4 -30 27 -11 18 15 17 13 -2 -7 l-22 -24 -28 29 c-15 16 -19 23 -9 15 16 -12 20 -12 29 1z m481 2 c-7 -2 -19 -2 -25 0 -7 3 -2 5 12 5 14 0 19 -2 13 -5z m260 -10 c-7 -2 -21 -2 -30 0 -10 3 -4 5 12 5 17 0 24 -2 18 -5z"/>
<path d="M12968 2873 c7 -3 16 -2 19 1 4 3 -2 6 -13 5 -11 0 -14 -3 -6 -6z"/>
<path d="M9650 2700 l0 -40 80 0 80 0 0 40 0 40 -80 0 -80 0 0 -40z"/>
<path d="M13450 2705 l0 -35 85 0 85 0 0 35 0 35 -85 0 -85 0 0 -35z"/>
<path d="M12146 2692 c-15 -3 -16 -6 -5 -13 12 -7 11 -9 -1 -9 -9 0 -20 3 -26 8 -5 4 -1 -1 9 -10 25 -23 34 -23 42 3 8 24 6 27 -19 21z"/>
<path d="M11680 2631 c0 -5 7 -12 16 -15 14 -5 15 -4 4 9 -14 17 -20 19 -20 6z"/>
</g>
</svg>