<svg xmlns="http://www.w3.org/2000/svg" viewBox="23.00 75.50 444.10 173.50">
<g transform="translate(0.000000,768.000000) scale(0.100000,-0.100000)" fill="currentColor" stroke="none">
<path d="M3350 6833 l0 -43 185 0 185 0 0 43 0 42 -185 0 -185 0 0 -42z"/>
<path d="M2812 6838 c3 -7 24 -16 49 -19 27 -4 10 -6 -44 -4 -48 2 -90 -1 -93 -6 -3 -5 -9 -7 -13 -4 -5 2 -49 -3 -100 -12 l-91 -16 0 -32 c0 -29 2 -32 28 -28 22 3 23 2 7 -5 -19 -9 -19 -9 0 -20 11 -6 15 -12 8 -12 -6 0 -15 5 -18 10 -14 23 -24 7 -28 -42 -2 -34 -4 -20 -5 40 l-2 92 -355 0 -355 0 0 -185 c0 -116 4 -185 10 -186 6 0 28 -1 50 -1 98 0 90 -5 90 62 l0 60 163 -2 162 -2 -158 -3 -158 -4 3 -57 3 -57 70 0 70 0 6 55 6 55 1 -57 2 -58 63 -2 62 -1 -65 -7 -65 -7 65 -3 65 -4 -56 -3 c-51 -4 -56 -6 -52 -23 4 -16 15 -20 57 -22 l51 -1 -50 -7 -50 -7 50 -3 50 -3 -45 -7 -45 -7 45 -3 45 -3 -40 -7 -40 -7 40 -3 40 -3 -35 -7 c-19 -4 -29 -8 -22 -9 6 0 12 -8 12 -16 0 -8 8 -15 18 -15 14 0 15 -2 2 -10 -12 -8 -12 -10 5 -10 17 0 17 -2 5 -10 -12 -8 -9 -10 12 -10 14 0 29 6 31 13 4 10 6 10 6 0 1 -7 6 -13 11 -13 6 0 10 75 10 205 l0 205 540 0 540 0 0 -205 c0 -140 3 -205 11 -205 6 0 10 16 9 38 -1 20 -2 96 -1 168 1 116 3 133 19 139 14 5 15 4 5 -6 -9 -9 -13 -59 -13 -176 l0 -163 79 0 c67 0 80 3 84 18 4 16 5 16 6 0 1 -16 12 -18 91 -18 l90 0 0 164 c0 148 -2 165 -17 169 -14 4 -12 5 5 6 22 1 22 1 22 -169 l0 -170 80 0 80 0 0 117 c0 64 2 114 5 111 3 -2 5 -55 6 -116 0 -62 4 -112 9 -112 5 0 11 51 13 113 l3 112 2 -112 2 -113 64 0 65 0 4 38 4 37 1 -37 c1 -26 7 -38 17 -38 13 0 15 40 15 300 l0 300 -385 0 -385 0 0 -38 c0 -34 -4 -40 -35 -55 -49 -23 -58 -21 -12 4 31 17 37 24 37 53 l0 33 -82 17 c-46 9 -86 16 -90 16 -5 0 -9 -46 -10 -102 -1 -81 -3 -88 -5 -35 l-4 67 -94 0 -94 0 -4 -42 -4 -43 -1 43 c-2 37 -5 42 -26 42 -23 0 -25 -4 -29 -52 l-3 -53 -2 53 -2 52 -94 0 c-82 0 -95 -2 -99 -17 -3 -10 -5 2 -4 27 0 25 2 35 4 23 l4 -23 225 0 224 0 0 30 c0 34 6 33 -160 33 -92 0 -92 0 -17 4 56 3 77 7 74 16 -2 8 -43 13 -131 15 -100 2 -127 0 -124 -10z m5 -130 c-3 -8 -6 -5 -6 6 -1 11 2 17 5 13 3 -3 4 -12 1 -19z m20 -45 c-2 -16 -4 -5 -4 22 0 28 2 40 4 28 2 -13 2 -35 0 -50z m40 0 c-2 -16 -4 -5 -4 22 0 28 2 40 4 28 2 -13 2 -35 0 -50z m140 0 c-2 -16 -4 -5 -4 22 0 28 2 40 4 28 2 -13 2 -35 0 -50z m20 0 c-2 -16 -4 -5 -4 22 0 28 2 40 4 28 2 -13 2 -35 0 -50z m20 15 c-2 -13 -4 -5 -4 17 -1 22 1 32 4 23 2 -10 2 -28 0 -40z m20 0 c-2 -13 -4 -5 -4 17 -1 22 1 32 4 23 2 -10 2 -28 0 -40z m60 0 c-2 -13 -4 -5 -4 17 -1 22 1 32 4 23 2 -10 2 -28 0 -40z m86 45 c-7 -2 -19 -2 -25 0 -7 3 -2 5 12 5 14 0 19 -2 13 -5z m-366 -35 c-3 -7 -5 -2 -5 12 0 14 2 19 5 13 2 -7 2 -19 0 -25z m100 -30 c-2 -13 -4 -3 -4 22 0 25 2 35 4 23 2 -13 2 -33 0 -45z m40 0 c-2 -13 -4 -3 -4 22 0 25 2 35 4 23 2 -13 2 -33 0 -45z m-947 -38 l0 -80 -105 0 c-67 0 -105 4 -105 11 0 5 5 7 10 4 6 -3 11 2 11 12 1 17 2 17 6 1 2 -10 11 -18 19 -18 8 0 14 8 15 18 0 16 1 16 8 -1 4 -10 11 -18 16 -18 5 0 12 8 16 18 7 17 8 17 10 -2 1 -11 5 5 9 35 l7 55 1 -50 c2 -50 2 -50 37 -52 l35 -2 0 70 0 69 -99 0 c-95 0 -100 -1 -104 -22 -4 -20 -4 -19 -6 5 l-1 27 110 0 110 0 0 -80z m230 0 l0 -80 -112 2 c-62 0 -98 3 -80 5 30 4 32 7 34 46 l1 42 6 -41 6 -41 68 -2 67 -2 0 70 0 70 -107 4 -108 3 113 2 112 2 0 -80z m437 58 c-3 -8 -6 -5 -6 6 -1 11 2 17 5 13 3 -3 4 -12 1 -19z m40 -25 c-3 -10 -5 -2 -5 17 0 19 2 27 5 18 2 -10 2 -26 0 -35z m140 25 c-3 -8 -6 -5 -6 6 -1 11 2 17 5 13 3 -3 4 -12 1 -19z m200 -10 c-3 -7 -5 -2 -5 12 0 14 2 19 5 13 2 -7 2 -19 0 -25z m60 10 c-3 -8 -6 -5 -6 6 -1 11 2 17 5 13 3 -3 4 -12 1 -19z m923 -58 l0 -80 -110 0 -110 0 2 73 2 72 3 -67 c4 -65 5 -68 28 -66 24 2 25 6 27 68 l2 65 5 -68 c6 -66 18 -86 32 -50 7 17 8 17 8 1 1 -15 10 -18 51 -18 l50 0 0 70 0 70 -225 0 -225 0 0 -75 0 -75 -77 2 -78 2 73 3 72 4 0 59 c0 41 -4 60 -12 60 -9 0 -8 4 2 10 10 7 -16 10 -82 10 l-98 0 0 -69 c0 -64 2 -70 23 -74 19 -4 18 -4 -5 -6 l-28 -1 0 80 0 80 335 0 335 0 0 -80z m-963 48 c-3 -8 -6 -5 -6 6 -1 11 2 17 5 13 3 -3 4 -12 1 -19z m-1210 -55 c-2 -16 -4 -5 -4 22 0 28 2 40 4 28 2 -13 2 -35 0 -50z m20 35 c-3 -7 -5 -2 -5 12 0 14 2 19 5 13 2 -7 2 -19 0 -25z m60 0 c-3 -7 -5 -2 -5 12 0 14 2 19 5 13 2 -7 2 -19 0 -25z m34 -33 l6 40 1 -47 c2 -38 -1 -46 -13 -42 -11 5 -15 21 -13 63 l1 56 7 -55 6 -55 5 40z m66 33 c-3 -7 -5 -2 -5 12 0 14 2 19 5 13 2 -7 2 -19 0 -25z m20 -50 c-2 -18 -4 -6 -4 27 0 33 2 48 4 33 2 -15 2 -42 0 -60z m40 50 c-3 -7 -5 -2 -5 12 0 14 2 19 5 13 2 -7 2 -19 0 -25z m113 24 c0 -4 -9 -8 -20 -8 -11 0 -20 4 -20 8 0 4 9 8 20 8 11 0 20 -4 20 -8z m1278 -39 c-1 -48 -1 -48 -5 -8 -3 22 -10 43 -16 47 -8 5 -6 8 6 8 14 0 17 -8 15 -47z m39 41 c-3 -3 -12 -4 -19 -1 -8 3 -5 6 6 6 11 1 17 -2 13 -5z m266 -126 c7 -4 -30 -8 -82 -8 -52 0 -91 3 -87 7 3 4 38 6 76 5 l70 -2 2 68 2 67 3 -65 c2 -35 9 -68 16 -72z m4 100 c-3 -7 -5 -2 -5 12 0 14 2 19 5 13 2 -7 2 -19 0 -25z m61 -25 c-1 -52 -2 -54 -7 -18 l-5 40 -6 -45 c-7 -44 -7 -44 -8 18 -2 49 1 62 13 62 12 0 15 -12 13 -57z m39 -25 c-2 -18 -4 -6 -4 27 0 33 2 48 4 33 2 -15 2 -42 0 -60z m20 15 c-2 -16 -4 -5 -4 22 0 28 2 40 4 28 2 -13 2 -35 0 -50z m20 0 c-2 -16 -4 -5 -4 22 0 28 2 40 4 28 2 -13 2 -35 0 -50z m73 58 c0 -4 -11 -7 -25 -6 -34 4 -32 -13 3 -18 25 -4 25 -4 -5 -6 -27 -1 -33 3 -33 19 0 16 7 20 30 20 17 0 30 -4 30 -9z m-1405 -21 c56 -24 52 -24 58 -2 3 12 5 11 6 -6 0 -13 6 -20 11 -17 6 3 10 1 10 -4 0 -17 -19 -12 -85 19 -69 33 -69 40 0 10z m82 -2 c-3 -8 -6 -5 -6 6 -1 11 2 17 5 13 3 -3 4 -12 1 -19z m60 0 c-3 -8 -6 -5 -6 6 -1 11 2 17 5 13 3 -3 4 -12 1 -19z m60 0 c-3 -8 -6 -5 -6 6 -1 11 2 17 5 13 3 -3 4 -12 1 -19z m80 0 c-3 -8 -6 -5 -6 6 -1 11 2 17 5 13 3 -3 4 -12 1 -19z m342 18 c-10 -9 -89 -46 -89 -41 0 6 72 44 84 45 5 0 7 -2 5 -4z m-1332 -58 c-2 -13 -4 -5 -4 17 -1 22 1 32 4 23 2 -10 2 -28 0 -40z m1530 0 c-2 -13 -4 -5 -4 17 -1 22 1 32 4 23 2 -10 2 -28 0 -40z m40 0 c-2 -13 -4 -5 -4 17 -1 22 1 32 4 23 2 -10 2 -28 0 -40z m60 0 c-2 -13 -4 -5 -4 17 -1 22 1 32 4 23 2 -10 2 -28 0 -40z m100 -25 c-2 -16 -4 -3 -4 27 0 30 2 43 4 28 2 -16 2 -40 0 -55z m-1610 5 c-2 -13 -4 -3 -4 22 0 25 2 35 4 23 2 -13 2 -33 0 -45z m166 55 c-7 -2 -19 -2 -25 0 -7 3 -2 5 12 5 14 0 19 -2 13 -5z m921 -25 c7 -5 4 -8 -6 -8 -12 0 -18 7 -17 23 0 15 2 17 6 7 3 -8 11 -18 17 -22z m653 -35 c-2 -16 -4 -5 -4 22 0 28 2 40 4 28 2 -13 2 -35 0 -50z m-1940 15 c-3 -7 -5 -2 -5 12 0 14 2 19 5 13 2 -7 2 -19 0 -25z m60 0 c-3 -7 -5 -2 -5 12 0 14 2 19 5 13 2 -7 2 -19 0 -25z m60 -15 c-3 -10 -5 -2 -5 17 0 19 2 27 5 18 2 -10 2 -26 0 -35z m100 15 c-3 -7 -5 -2 -5 12 0 14 2 19 5 13 2 -7 2 -19 0 -25z m60 0 c-3 -7 -5 -2 -5 12 0 14 2 19 5 13 2 -7 2 -19 0 -25z m20 -15 c-3 -10 -5 -2 -5 17 0 19 2 27 5 18 2 -10 2 -26 0 -35z m41 14 c12 -3 10 -5 -5 -6 -18 -1 -23 4 -22 22 1 15 3 17 6 5 2 -9 12 -19 21 -21z m32 23 c0 -5 -2 -10 -4 -10 -3 0 -8 5 -11 10 -3 6 -1 10 4 10 6 0 11 -4 11 -10z m540 -2 c0 -4 -7 -8 -15 -8 -8 0 -15 4 -15 8 0 5 7 9 15 9 8 0 15 -4 15 -9z m120 0 c0 -4 -7 -8 -15 -8 -8 0 -15 4 -15 8 0 5 7 9 15 9 8 0 15 -4 15 -9z m160 0 c0 -4 -7 -8 -15 -8 -8 0 -15 4 -15 8 0 5 7 9 15 9 8 0 15 -4 15 -9z m60 -4 c0 -2 -7 -4 -15 -4 -8 0 -15 4 -15 10 0 5 7 7 15 4 8 -4 15 -8 15 -10z m317 -31 c-3 -10 -5 -2 -5 17 0 19 2 27 5 18 2 -10 2 -26 0 -35z m120 15 c-3 -7 -5 -2 -5 12 0 14 2 19 5 13 2 -7 2 -19 0 -25z m100 -15 c-3 -10 -5 -2 -5 17 0 19 2 27 5 18 2 -10 2 -26 0 -35z m40 15 c-3 -7 -5 -2 -5 12 0 14 2 19 5 13 2 -7 2 -19 0 -25z m20 0 c-3 -7 -5 -2 -5 12 0 14 2 19 5 13 2 -7 2 -19 0 -25z m70 0 c-3 -7 -5 -2 -5 12 0 14 2 19 5 13 2 -7 2 -19 0 -25z m60 0 c-3 -7 -5 -2 -5 12 0 14 2 19 5 13 2 -7 2 -19 0 -25z m160 0 c-3 -7 -5 -2 -5 12 0 14 2 19 5 13 2 -7 2 -19 0 -25z m40 25 c-11 -3 -16 -11 -13 -19 3 -8 1 -14 -4 -14 -6 0 -10 9 -10 20 0 14 6 20 23 19 18 -1 18 -2 4 -6z m-1834 -50 c-7 -2 -19 -2 -25 0 -7 3 -2 5 12 5 14 0 19 -2 13 -5z m1565 0 c-10 -2 -26 -2 -35 0 -10 3 -2 5 17 5 19 0 27 -2 18 -5z m275 0 c-7 -2 -19 -2 -25 0 -7 3 -2 5 12 5 14 0 19 -2 13 -5z m-471 -155 c-4 -187 -8 -205 -10 -50 -1 83 1 152 6 152 4 0 6 -46 4 -102z m135 96 c-3 -3 -12 -4 -19 -1 -8 3 -5 6 6 6 11 1 17 -2 13 -5z m220 -26 c-3 -7 -5 -2 -5 12 0 14 2 19 5 13 2 -7 2 -19 0 -25z m172 0 c-2 -30 -2 -31 -6 -6 -4 26 -8 27 -66 31 l-62 3 68 2 67 2 -1 -32z m-172 -55 c-3 -10 -5 -4 -5 12 0 17 2 24 5 18 2 -7 2 -21 0 -30z m170 -20 c-3 -10 -5 -4 -5 12 0 17 2 24 5 18 2 -7 2 -21 0 -30z m-1840 -25 c-3 -8 -6 -5 -6 6 -1 11 2 17 5 13 3 -3 4 -12 1 -19z m1761 5 c-10 -2 -26 -2 -35 0 -10 3 -2 5 17 5 19 0 27 -2 18 -5z m49 1 c-3 -3 -12 -4 -19 -1 -8 3 -5 6 6 6 11 1 17 -2 13 -5z m-19 -21 c-16 -2 -40 -2 -55 0 -16 2 -3 4 27 4 30 0 43 -2 28 -4z m0 -20 c-16 -2 -40 -2 -55 0 -16 2 -3 4 27 4 30 0 43 -2 28 -4z m5 -30 c-13 -2 -35 -2 -50 0 -16 2 -5 4 22 4 28 0 40 -2 28 -4z m0 -20 c-13 -2 -35 -2 -50 0 -16 2 -5 4 22 4 28 0 40 -2 28 -4z m-5 -20 c-16 -2 -40 -2 -55 0 -16 2 -3 4 27 4 30 0 43 -2 28 -4z m0 -20 c-16 -2 -40 -2 -55 0 -16 2 -3 4 27 4 30 0 43 -2 28 -4z m0 -20 c-16 -2 -40 -2 -55 0 -16 2 -3 4 27 4 30 0 43 -2 28 -4z m5 -30 c-13 -2 -35 -2 -50 0 -16 2 -5 4 22 4 28 0 40 -2 28 -4z m0 -20 c-13 -2 -35 -2 -50 0 -16 2 -5 4 22 4 28 0 40 -2 28 -4z"/>
<path d="M1260 6620 c0 -203 1 -210 20 -210 11 0 20 -4 20 -10 0 -5 -9 -10 -20 -10 -19 0 -20 -7 -20 -155 l0 -155 265 0 265 0 0 155 c0 128 -2 155 -14 155 -8 0 -18 5 -21 10 -4 6 -3 10 2 9 30 -5 33 3 33 105 0 94 -2 105 -19 111 -11 3 -128 4 -260 1 -149 -3 -241 -1 -241 5 0 5 103 9 260 9 l260 0 0 95 0 95 -265 0 -265 0 0 -210z m388 -167 l3 -123 -126 0 -125 0 0 118 c0 65 3 122 7 126 4 3 59 5 122 4 l116 -3 3 -122z"/>
<path d="M1410 6455 l0 -115 115 0 116 0 -3 113 -3 112 -112 2 -113 2 0 -114z m110 -5 l0 -100 -50 0 -50 0 0 100 0 100 50 0 50 0 0 -100z m110 0 l0 -100 -50 0 -50 0 0 100 0 100 50 0 50 0 0 -100z"/>
<path d="M1873 6818 c-62 -16 -46 -28 39 -28 75 0 81 1 62 15 -28 19 -62 24 -101 13z"/>
<path d="M2321 6810 l-23 -20 73 0 c66 0 72 2 58 15 -26 26 -81 28 -108 5z"/>
<path d="M2064 6805 c-17 -13 -8 -14 86 -14 101 0 104 0 71 14 -43 19 -131 19 -157 0z"/>
<path d="M3803 6813 c-36 -14 -2 -23 90 -23 92 1 100 2 83 15 -19 15 -144 20 -173 8z"/>
<path d="M650 6800 c0 -5 14 -10 30 -10 17 0 30 5 30 10 0 6 -13 10 -30 10 -16 0 -30 -4 -30 -10z"/>
<path d="M4070 6800 c0 -5 14 -7 31 -5 45 6 49 15 6 15 -20 0 -37 -4 -37 -10z"/>
<path d="M4205 6800 c-4 -6 7 -10 24 -10 17 0 31 5 31 10 0 6 -11 10 -24 10 -14 0 -28 -4 -31 -10z"/>
<path d="M616 6764 c-3 -9 -7 -34 -7 -57 -1 -23 -3 -34 -6 -24 -8 31 -33 20 -32 -15 l1 -33 8 30 c8 30 8 30 9 -8 1 -23 -3 -36 -9 -32 -5 3 -10 -1 -10 -10 0 -9 5 -13 10 -10 6 3 10 -1 10 -10 0 -9 -4 -13 -10 -10 -5 3 -10 -3 -10 -14 0 -25 20 -38 31 -20 8 13 11 -176 9 -543 -1 -127 1 -148 15 -148 12 0 15 13 15 60 0 41 -4 60 -12 60 -9 0 -8 3 2 10 9 6 17 5 23 -3 4 -7 6 35 4 93 l-4 105 45 108 c26 61 51 107 59 107 10 0 13 35 15 168 l2 167 3 -161 3 -162 28 -4 c15 -3 41 -4 57 -3 17 1 40 3 53 4 22 1 22 2 22 161 l0 159 -77 4 c-43 1 27 4 155 5 225 2 232 3 232 22 0 19 -7 20 -234 20 l-235 0 -4 -22 -4 -23 -2 23 c-1 21 -5 22 -75 22 -58 0 -75 -3 -80 -16z m98 -69 c-5 -11 -2 -13 10 -9 9 3 13 10 10 15 -3 5 0 9 5 9 6 0 11 -8 11 -18 0 -12 -8 -18 -25 -20 -19 -1 -25 3 -25 18 0 11 4 20 10 20 5 0 7 -7 4 -15z m19 -42 c-7 -2 -19 -2 -25 0 -7 3 -2 5 12 5 14 0 19 -2 13 -5z m-126 -40 c-3 -10 -5 -4 -5 12 0 17 2 24 5 18 2 -7 2 -21 0 -30z m131 -21 l3 -43 -58 3 c-62 3 -71 13 -59 64 6 23 11 25 59 22 l52 -3 3 -43z m-30 -59 c-16 -2 -40 -2 -55 0 -16 2 -3 4 27 4 30 0 43 -2 28 -4z"/>
<path d="M4150 6480 l0 -300 38 -1 37 -2 -35 -6 -35 -6 0 -195 -1 -195 6 195 6 195 2 -152 2 -153 35 0 34 0 4 78 c1 42 3 1 3 -93 0 -93 -2 -131 -3 -82 l-4 87 -34 0 c-33 0 -35 -2 -35 -34 0 -30 4 -35 28 -39 15 -2 -94 -4 -243 -3 -148 0 -235 2 -192 3 l77 4 0 34 0 35 -130 0 -130 0 0 -35 c0 -28 4 -35 20 -35 13 0 20 -7 20 -20 0 -12 7 -20 18 -21 11 0 12 -2 4 -6 -15 -6 -44 16 -36 28 9 15 -429 11 -445 -3 -11 -10 -13 -10 -7 0 6 9 -102 12 -524 12 l-532 0 5 -23 c4 -12 2 -29 -3 -37 -7 -11 -10 -5 -10 23 0 21 -4 36 -9 33 -4 -3 -6 -17 -3 -31 2 -15 0 -25 -7 -25 -17 0 -13 57 5 64 9 3 74 6 145 6 l129 0 0 35 0 35 -837 1 c-461 0 -832 3 -825 6 19 7 17 123 -3 123 -13 0 -15 -26 -15 -175 0 -110 -4 -175 -10 -175 -5 0 -10 -7 -10 -15 0 -8 5 -15 10 -15 6 0 10 -33 10 -80 l0 -80 -82 2 -83 2 78 3 77 4 0 54 0 55 -79 0 -80 0 -4 -32 c-4 -31 -6 91 -7 490 l0 162 -40 0 -40 0 0 -160 c0 -136 2 -160 15 -160 13 0 15 23 13 153 -1 134 1 152 15 155 15 3 17 -13 17 -157 l0 -161 -50 0 c-27 0 -50 -2 -50 -5 0 -3 11 -16 25 -29 14 -13 25 -30 25 -37 0 -11 2 -11 10 1 8 12 10 11 10 -8 0 -12 7 -25 15 -28 17 -7 22 -84 5 -84 -5 0 -10 -7 -10 -15 0 -8 -7 -16 -15 -16 -8 -1 -21 -2 -27 -3 -7 -1 -13 6 -13 14 0 20 -93 19 -106 -1 -5 -8 -9 -38 -9 -66 l0 -53 55 0 c40 0 56 4 63 16 5 9 14 14 20 10 15 -9 4 -70 -24 -135 -13 -29 -24 -55 -24 -57 0 -2 27 -4 59 -4 63 0 71 7 71 56 0 24 1 24 95 24 l95 0 0 92 c0 85 2 95 31 140 l31 48 533 0 533 0 26 -31 c42 -49 30 -23 -15 34 l-42 52 -231 5 -231 6 231 2 232 2 27 -37 c16 -21 46 -57 69 -80 l40 -43 565 0 565 0 32 31 c18 17 30 37 28 43 -3 7 6 21 18 32 18 15 20 15 9 2 -13 -17 13 -18 511 -18 l525 0 11 -25 c6 -14 15 -25 19 -25 5 0 8 -51 8 -112 l0 -113 97 -3 97 -3 3 -37 3 -37 58 -3 c31 -2 57 1 57 6 0 5 -7 27 -16 48 -9 22 -20 53 -24 69 -4 17 -11 37 -14 46 -10 22 25 35 36 14 6 -10 24 -15 59 -15 l50 0 -3 67 -3 67 -45 3 c-32 2 -48 -1 -57 -13 -28 -38 -78 14 -69 73 2 17 18 46 35 64 17 17 31 36 31 40 0 5 7 9 15 9 8 0 15 5 15 10 0 6 -9 10 -20 10 -19 0 -20 8 -22 167 l-3 168 -37 0 -38 0 0 -165 c-1 -91 -1 -246 -1 -345 -1 -99 -3 -173 -5 -165 -4 12 -18 14 -64 12 -39 -3 -60 0 -60 7 0 7 23 11 60 11 l60 0 0 90 0 90 -70 0 -70 0 0 -44 c0 -50 -14 -67 -30 -37 -6 12 -6 22 -1 26 5 3 12 -3 14 -12 3 -10 6 59 8 152 1 94 4 144 6 112 5 -79 27 -71 31 11 3 57 1 62 -18 62 -11 0 -20 5 -20 11 0 6 7 9 15 5 12 -4 15 3 16 34 1 22 2 54 3 71 1 34 -20 51 -35 28 -7 -11 -9 -11 -9 4 0 10 8 17 20 17 18 0 20 7 20 64 0 42 -4 66 -12 70 -10 5 -10 7 0 12 15 7 17 134 2 134 -5 0 -10 5 -10 11 0 5 5 7 10 4 6 -4 10 16 10 54 0 50 3 59 15 55 12 -5 15 5 15 61 0 39 -6 78 -14 93 -8 15 -17 35 -20 45 -4 14 -17 17 -71 17 l-65 0 0 -300z m59 208 c-1 -17 -2 -19 -6 -5 -2 9 -9 17 -14 17 -6 0 -8 -4 -4 -9 3 -5 1 -12 -5 -16 -5 -3 -10 3 -10 14 0 14 6 21 20 21 14 0 20 -6 19 -22z m91 -63 c0 -5 -5 -3 -10 5 -5 8 -10 20 -10 25 0 6 5 3 10 -5 5 -8 10 -19 10 -25z m-24 -36 l1 -45 -48 6 c-31 4 -50 2 -53 -4 -2 -6 -5 10 -5 35 -1 25 2 49 6 53 4 4 28 6 53 4 l45 -3 1 -46z m-27 -282 c13 4 13 2 -2 -7 -19 -12 -37 -6 -37 13 0 8 3 8 11 0 6 -6 19 -9 28 -6z m-9 -158 c0 -27 -1 -29 -16 -15 -12 13 -13 18 -2 30 18 21 18 20 18 -15z m230 -133 c0 -115 3 -155 13 -159 6 -2 -1 -6 -18 -8 l-30 -5 -4 152 c-2 84 0 157 4 163 3 6 13 11 21 11 12 0 14 -27 14 -154z m-240 -17 c0 -5 -4 -9 -10 -9 -5 0 -10 7 -10 16 0 8 5 12 10 9 6 -3 10 -10 10 -16z m-2967 -235 c-4 -10 -8 -12 -12 -5 -5 7 -103 12 -291 14 l-285 2 297 3 c268 2 297 0 291 -14z m2442 -14 c-3 -5 -14 -10 -23 -9 -14 0 -13 2 3 9 27 11 27 11 20 0z m-2377 -17 c-10 -2 -28 -2 -40 0 -13 2 -5 4 17 4 22 1 32 -1 23 -4z m658 -38 c9 -23 -15 -48 -32 -34 -8 6 -13 19 -13 28 1 13 2 13 6 -1 2 -10 11 -18 19 -18 17 0 19 26 2 33 -10 4 -10 6 0 6 7 1 15 -6 18 -14z m1124 -9 c0 -2 -8 -10 -17 -17 -16 -13 -17 -12 -4 4 13 16 21 21 21 13z m1137 -188 c-2 -24 -4 -7 -4 37 0 44 2 63 4 43 2 -21 2 -57 0 -80z m100 76 c-3 -3 -12 -4 -19 -1 -8 3 -5 6 6 6 11 1 17 -2 13 -5z m-3727 -44 c0 -5 -25 -10 -55 -10 -30 0 -55 5 -55 10 0 6 25 10 55 10 30 0 55 -4 55 -10z m3800 -65 c0 -23 -4 -25 -37 -23 -37 1 -37 1 -5 5 24 3 32 9 32 24 0 10 2 19 5 19 3 0 5 -11 5 -25z m-3928 -27 c-8 -8 -9 -4 -5 13 4 13 8 18 11 10 2 -7 -1 -18 -6 -23z m3775 6 c-3 -3 -12 -4 -19 -1 -8 3 -5 6 6 6 11 1 17 -2 13 -5z"/>
<path d="M950 6570 c0 -159 0 -160 23 -161 12 0 31 -2 42 -4 11 -2 37 -2 58 2 l37 6 0 158 0 159 -80 0 -80 0 0 -160z"/>
<path d="M1120 6565 l0 -166 63 3 62 3 3 163 2 162 -65 0 -65 0 0 -165z"/>
<path d="M2310 6380 l0 -200 65 0 65 0 0 40 c0 28 4 40 14 40 8 0 17 8 19 18 3 10 5 7 6 -10 1 -20 -3 -26 -14 -22 -12 5 -15 -2 -15 -30 0 -35 13 -49 23 -23 4 10 6 10 6 0 1 -9 21 -13 66 -13 l65 0 0 200 0 200 -64 0 c-42 0 -66 -4 -69 -12 -4 -10 -6 -10 -6 0 -1 8 -24 12 -81 12 l-80 0 0 -200z m277 148 c-3 -7 -5 -2 -5 12 0 14 2 19 5 13 2 -7 2 -19 0 -25z m-105 4 c3 -9 1 -26 -3 -37 -6 -15 -8 -11 -8 18 -1 40 4 48 11 19z m-22 -22 c0 -5 -4 -10 -10 -10 -5 0 -10 5 -10 10 0 6 5 10 10 10 6 0 10 -4 10 -10z m17 -77 c-3 -10 -5 -4 -5 12 0 17 2 24 5 18 2 -7 2 -21 0 -30z m-69 20 c-15 -2 -42 -2 -60 0 -18 2 -6 4 27 4 33 0 48 -2 33 -4z m-5 -20 c-13 -2 -35 -2 -50 0 -16 2 -5 4 22 4 28 0 40 -2 28 -4z m0 -20 c-13 -2 -35 -2 -50 0 -16 2 -5 4 22 4 28 0 40 -2 28 -4z m74 -35 c-3 -8 -6 -5 -6 6 -1 11 2 17 5 13 3 -3 4 -12 1 -19z m-84 -15 c-13 -2 -33 -2 -45 0 -13 2 -3 4 22 4 25 0 35 -2 23 -4z m15 -20 c-16 -2 -40 -2 -55 0 -16 2 -3 4 27 4 30 0 43 -2 28 -4z m39 -15 c-3 -8 -6 -5 -6 6 -1 11 2 17 5 13 3 -3 4 -12 1 -19z m-39 -25 c-16 -2 -40 -2 -55 0 -16 2 -3 4 27 4 30 0 43 -2 28 -4z m39 -25 c-3 -7 -5 -2 -5 12 0 14 2 19 5 13 2 -7 2 -19 0 -25z m-39 5 c-16 -2 -40 -2 -55 0 -16 2 -3 4 27 4 30 0 43 -2 28 -4z m17 -23 c3 -5 -1 -10 -10 -10 -9 0 -13 5 -10 10 3 6 8 10 10 10 2 0 7 -4 10 -10z m-17 -27 c-16 -2 -40 -2 -55 0 -16 2 -3 4 27 4 30 0 43 -2 28 -4z m0 -20 c-16 -2 -40 -2 -55 0 -16 2 -3 4 27 4 30 0 43 -2 28 -4z m0 -20 c-16 -2 -40 -2 -55 0 -16 2 -3 4 27 4 30 0 43 -2 28 -4z"/>
<path d="M2620 6380 l0 -199 140 0 140 0 1 197 c1 108 4 185 6 170 2 -16 9 -28 14 -28 5 0 9 -5 9 -11 0 -5 -5 -7 -10 -4 -7 4 -10 -49 -9 -159 1 -130 4 -166 15 -166 7 0 15 12 17 28 l4 27 2 -27 c1 -27 3 -28 61 -28 l60 0 0 200 0 200 -60 0 -60 0 -3 -172 -3 -173 -2 173 -2 172 -79 0 c-54 0 -81 -4 -84 -12 -4 -10 -6 -10 -6 0 -1 8 -23 12 -76 12 l-75 0 0 -200z m190 170 c0 -5 -4 -10 -10 -10 -5 0 -10 5 -10 10 0 6 5 10 10 10 6 0 10 -4 10 -10z m-43 -132 c-2 -24 -4 -5 -4 42 0 47 2 66 4 43 2 -24 2 -62 0 -85z"/>
<path d="M3080 6380 l0 -200 69 0 c46 0 71 4 75 13 5 10 7 10 12 0 4 -9 28 -13 70 -13 l64 0 0 200 0 200 -64 0 c-53 0 -65 -3 -69 -17 -4 -17 -5 -17 -6 0 -1 15 -12 17 -76 17 l-75 0 0 -200z m185 170 c3 -5 1 -10 -4 -10 -6 0 -11 5 -11 10 0 6 2 10 4 10 3 0 8 -4 11 -10z m-28 -72 c-3 -7 -5 -2 -5 12 0 14 2 19 5 13 2 -7 2 -19 0 -25z m-2 -38 c3 -5 1 -10 -4 -10 -6 0 -11 5 -11 10 0 6 2 10 4 10 3 0 8 -4 11 -10z m-8 -192 c-3 -8 -6 -5 -6 6 -1 11 2 17 5 13 3 -3 4 -12 1 -19z"/>
<path d="M2085 6388 c-3 -8 -4 -79 -3 -158 2 -102 7 -145 15 -147 9 -3 13 29 16 129 l3 133 2 -145 c2 -103 7 -152 17 -170 9 -15 14 -54 15 -97 l0 -73 100 0 100 0 0 155 c0 148 -1 155 -20 155 -19 0 -20 -7 -20 -139 0 -124 2 -140 18 -144 9 -3 -1 -5 -23 -5 -22 0 -32 2 -22 5 15 4 17 19 17 142 l0 137 -35 1 c-19 1 -32 -3 -29 -8 3 -5 -10 -9 -28 -8 -20 0 -27 3 -18 7 28 13 17 37 -20 43 -35 6 -35 6 -5 8 26 2 27 4 10 11 -11 5 -14 9 -8 9 13 1 -34 112 -49 119 -5 2 -8 12 -8 22 0 23 -18 36 -25 18z m88 -205 c-7 -2 -19 -2 -25 0 -7 3 -2 5 12 5 14 0 19 -2 13 -5z m45 -50 c-16 -2 -40 -2 -55 0 -16 2 -3 4 27 4 30 0 43 -2 28 -4z m0 -20 c-16 -2 -40 -2 -55 0 -16 2 -3 4 27 4 30 0 43 -2 28 -4z"/>
<path d="M750 6387 c0 -1 -19 -47 -43 -102 -42 -99 -43 -101 -39 -197 3 -73 7 -98 17 -98 7 0 16 6 18 13 3 6 6 -23 6 -65 l1 -78 30 0 30 0 0 265 c0 170 -4 265 -10 265 -5 0 -10 -1 -10 -3z m-50 -226 c0 -6 -5 -13 -12 -17 -6 -4 -8 -3 -4 4 3 5 0 13 -6 15 -8 3 -6 6 5 6 9 1 17 -3 17 -8z m60 -84 c0 -2 -10 -12 -22 -23 l-23 -19 19 23 c18 21 26 27 26 19z"/>
<path d="M780 6210 c0 -99 4 -180 8 -180 4 0 8 12 7 28 0 22 4 26 23 24 20 -3 22 1 24 40 l1 43 7 -45 c6 -37 7 -39 9 -15 l3 30 10 -29 c15 -41 28 -15 28 56 0 54 -1 57 -27 61 -26 4 -26 4 2 3 l30 -1 3 -72 c2 -56 6 -73 17 -73 13 0 15 26 15 155 l0 155 -65 0 -64 0 -4 -102 -3 -103 -2 103 c-1 60 -6 102 -12 102 -6 0 -10 -67 -10 -180z m90 -17 c-8 -3 -18 -11 -22 -17 -5 -7 -8 -4 -8 7 0 11 7 17 23 16 15 0 17 -2 7 -6z"/>
<path d="M954 6235 c0 -88 2 -123 3 -77 2 46 2 118 0 160 -1 42 -3 5 -3 -83z"/>
<path d="M972 6238 l3 -153 68 -3 67 -3 0 156 0 155 -70 0 -71 0 3 -152z"/>
<path d="M1120 6235 l0 -155 65 0 65 0 0 155 0 155 -65 0 -65 0 0 -155z"/>
<path d="M1800 6235 l0 -155 75 0 75 0 0 155 0 155 -75 0 -75 0 0 -155z"/>
<path d="M1960 6235 l0 -155 45 0 c58 0 64 27 8 33 l-38 4 38 1 37 2 0 60 0 60 -37 1 -38 2 40 7 40 6 -35 6 -35 5 35 3 35 3 -40 7 -40 7 38 2 37 1 0 50 0 50 -45 0 -45 0 0 -155z m68 138 c-10 -2 -28 -2 -40 0 -13 2 -5 4 17 4 22 1 32 -1 23 -4z m5 -20 c-7 -2 -19 -2 -25 0 -7 3 -2 5 12 5 14 0 19 -2 13 -5z m7 -23 c0 -5 -5 -10 -11 -10 -5 0 -7 5 -4 10 3 6 8 10 11 10 2 0 4 -4 4 -10z m-33 -6 c-3 -3 -12 -4 -19 -1 -8 3 -5 6 6 6 11 1 17 -2 13 -5z m21 -21 c-10 -2 -26 -2 -35 0 -10 3 -2 5 17 5 19 0 27 -2 18 -5z m0 -110 c-10 -2 -26 -2 -35 0 -10 3 -2 5 17 5 19 0 27 -2 18 -5z m0 -20 c-10 -2 -26 -2 -35 0 -10 3 -2 5 17 5 19 0 27 -2 18 -5z m0 -20 c-10 -2 -26 -2 -35 0 -10 3 -2 5 17 5 19 0 27 -2 18 -5z m0 -20 c-10 -2 -26 -2 -35 0 -10 3 -2 5 17 5 19 0 27 -2 18 -5z"/>
<path d="M2061 6200 c-3 -107 -6 -180 -8 -162 l-4 32 -125 0 -124 0 0 -105 0 -106 170 2 170 1 0 69 c0 45 -6 80 -17 103 -26 50 -43 53 -45 8 -1 -20 -5 51 -8 158 l-6 195 -3 -195z"/>
<path d="M2360 5976 l0 -193 145 -2 145 -2 0 35 0 36 -130 0 c-111 0 -130 -2 -130 -16 0 -8 -4 -12 -10 -9 -6 4 -10 72 -10 171 0 150 2 164 18 164 10 0 13 -3 6 -8 -14 -9 -15 -23 -8 -153 l6 -106 109 -1 109 -2 0 140 0 140 -60 0 c-46 0 -61 -4 -69 -17 -10 -17 -10 -17 -11 0 0 9 -4 17 -10 17 -5 0 -11 -28 -13 -62 l-3 -63 -2 63 -2 62 -40 0 -40 0 0 -194z m117 72 c-2 -18 -4 -6 -4 27 0 33 2 48 4 33 2 -15 2 -42 0 -60z m6 -89 c-8 -29 -13 -23 -13 14 0 22 3 28 9 18 5 -7 6 -22 4 -32z m-28 11 c3 -5 1 -10 -4 -10 -6 0 -11 5 -11 10 0 6 2 10 4 10 3 0 8 -4 11 -10z"/>
<path d="M2624 6157 c-2 -7 -3 -69 -2 -137 2 -88 7 -125 16 -128 9 -3 12 29 12 137 0 90 -4 141 -10 141 -6 0 -13 -6 -16 -13z"/>
<path d="M2660 5978 l0 -195 145 -2 145 -2 0 35 0 36 -128 0 c-81 0 -132 -4 -139 -11 -8 -8 -12 34 -13 157 0 92 -3 170 -5 173 -3 2 -5 -84 -5 -191z"/>
<path d="M2680 6029 l0 -139 44 0 c26 0 46 5 49 13 4 10 6 10 6 0 1 -9 20 -13 61 -13 l60 0 0 140 0 139 -110 0 -110 -1 0 -139z m97 -58 c0 -11 -5 -17 -9 -15 -11 7 -10 34 1 34 6 0 9 -9 8 -19z m25 -53 c-7 -7 -12 -8 -12 -2 0 14 12 26 19 19 2 -3 -1 -11 -7 -17z"/>
<path d="M2910 6030 c0 -118 2 -140 15 -140 13 0 15 22 15 140 0 118 -2 140 -15 140 -13 0 -15 -22 -15 -140z"/>
<path d="M2951 6043 c1 -71 5 -159 9 -198 6 -64 7 -59 10 65 3 101 5 116 7 58 l4 -78 44 0 c29 0 45 4 45 13 0 9 2 9 9 -1 5 -9 32 -12 89 -11 l82 2 0 140 c0 102 -3 138 -11 130 -7 -7 -10 -49 -7 -116 1 -58 0 -100 -4 -94 -4 7 -8 58 -8 115 l0 103 -67 -3 -68 -3 -6 -80 -5 -80 -2 83 -2 83 -42 -3 -43 -3 -6 -60 -6 -60 -1 63 c-1 34 -6 62 -12 62 -6 0 -10 -48 -9 -127z m126 -105 c-2 -13 -4 -5 -4 17 -1 22 1 32 4 23 2 -10 2 -28 0 -40z"/>
<path d="M3264 5975 c0 -110 2 -156 3 -103 2 53 2 143 0 200 -1 57 -3 13 -3 -97z"/>
<path d="M3280 6030 l0 -140 45 0 45 0 0 140 0 140 -45 0 -45 0 0 -140z"/>
<path d="M3380 6070 c0 -60 4 -100 10 -100 6 0 10 40 10 100 0 60 -4 100 -10 100 -6 0 -10 -40 -10 -100z"/>
<path d="M3412 6033 l3 -138 68 -3 67 -3 0 141 0 140 -70 0 -71 0 3 -137z"/>
<path d="M3564 5975 c0 -110 2 -156 3 -103 2 53 2 143 0 200 -1 57 -3 13 -3 -97z"/>
<path d="M3580 6030 l0 -140 90 0 90 0 0 140 0 140 -90 0 -90 0 0 -140z m56 -82 c5 -7 3 -8 -6 -3 -10 6 -12 4 -7 -8 3 -10 2 -17 -3 -17 -11 0 -13 23 -3 33 9 9 11 9 19 -5z"/>
<path d="M3770 6030 l0 -140 35 0 35 0 0 140 0 140 -35 0 -35 0 0 -140z"/>
<path d="M3854 5975 c0 -110 2 -156 3 -103 2 53 2 143 0 200 -1 57 -3 13 -3 -97z"/>
<path d="M3877 6163 c-4 -3 -7 -66 -7 -140 l0 -133 30 0 30 0 0 140 0 140 -23 0 c-13 0 -27 -3 -30 -7z"/>
<path d="M3940 6064 c0 -90 2 -105 15 -100 8 3 15 1 15 -4 0 -6 -7 -10 -15 -10 -19 0 -21 -56 -2 -64 8 -4 7 -5 -3 -5 -44 3 -80 -2 -80 -11 0 -6 52 -10 135 -10 l135 0 0 149 c0 122 -3 150 -15 155 -12 4 -15 -17 -17 -137 l-3 -142 -68 -1 -67 0 65 3 66 4 -2 139 -1 140 -63 0 -64 0 -4 -57 -3 -58 -2 58 c-1 31 -6 57 -12 57 -6 0 -10 -42 -10 -106z m123 89 c-13 -2 -35 -2 -50 0 -16 2 -5 4 22 4 28 0 40 -2 28 -4z m0 -20 c-13 -2 -35 -2 -50 0 -16 2 -5 4 22 4 28 0 40 -2 28 -4z m0 -30 c-13 -2 -35 -2 -50 0 -16 2 -5 4 22 4 28 0 40 -2 28 -4z m17 -23 c0 -5 -22 -10 -50 -10 -27 0 -50 5 -50 10 0 6 23 10 50 10 28 0 50 -4 50 -10z m-113 -162 c-3 -8 -6 -5 -6 6 -1 11 2 17 5 13 3 -3 4 -12 1 -19z"/>
<path d="M809 6058 c-1 -7 -1 -19 0 -26 1 -7 -5 -15 -14 -18 -12 -5 -15 -23 -15 -79 l0 -73 38 1 c20 1 40 6 44 12 5 6 8 6 8 -2 0 -7 11 -13 24 -13 13 0 27 6 29 13 4 10 6 10 6 0 1 -7 8 -13 16 -13 12 0 15 15 15 75 0 43 -4 75 -10 75 -5 0 -10 5 -10 11 0 5 5 7 10 4 11 -7 13 6 4 29 -8 21 -143 24 -145 4z m75 -26 c3 -5 -1 -9 -9 -9 -8 0 -12 4 -9 9 3 4 7 8 9 8 2 0 6 -4 9 -8z"/>
<path d="M970 5965 c0 -79 3 -104 13 -102 6 1 16 7 20 12 6 6 10 6 14 -2 6 -16 193 -18 193 -3 0 6 5 10 11 10 5 0 7 -4 4 -10 -3 -5 1 -10 9 -10 14 0 16 17 16 105 l0 105 -140 0 -140 0 0 -105z m190 75 c-8 -5 -26 -9 -40 -9 -23 1 -23 2 5 9 43 11 52 11 35 0z m-142 -12 c-2 -6 -10 -13 -16 -14 -9 -2 -9 -1 -1 3 8 4 7 8 -2 14 -11 7 -10 9 4 9 10 0 17 -5 15 -12z m152 -8 c0 -6 -26 -9 -62 -8 l-63 1 60 7 c33 4 61 7 63 8 1 1 2 -2 2 -8z m-27 -27 c-18 -2 -48 -2 -65 0 -18 2 -4 4 32 4 36 0 50 -2 33 -4z m27 -23 c0 -6 -26 -9 -62 -8 l-63 1 60 7 c33 4 61 7 63 8 1 1 2 -2 2 -8z m-27 -27 c-18 -2 -48 -2 -65 0 -18 2 -4 4 32 4 36 0 50 -2 33 -4z m17 -19 c-36 -8 -100 -9 -100 -2 0 5 26 7 58 7 31 -1 50 -3 42 -5z m-17 -31 c-18 -2 -48 -2 -65 0 -18 2 -4 4 32 4 36 0 50 -2 33 -4z"/>
<path d="M1260 5965 c0 -88 2 -105 16 -105 8 0 12 5 9 10 -3 6 -1 10 4 10 6 0 11 -4 11 -9 0 -5 48 -9 106 -10 58 -1 103 2 101 7 -3 4 3 9 14 9 11 1 17 -2 14 -8 -4 -5 38 -9 105 -9 72 0 109 4 105 10 -3 6 -1 10 4 10 6 0 11 -4 11 -10 0 -5 7 -10 15 -10 12 0 15 18 15 105 l0 105 -265 0 -265 0 0 -105z m247 53 c-3 -7 -5 -2 -5 12 0 14 2 19 5 13 2 -7 2 -19 0 -25z m-210 16 c-3 -3 -12 -4 -19 -1 -8 3 -5 6 6 6 11 1 17 -2 13 -5z m136 -1 c-18 -2 -48 -2 -65 0 -18 2 -4 4 32 4 36 0 50 -2 33 -4z m250 0 c-18 -2 -48 -2 -65 0 -18 2 -4 4 32 4 36 0 50 -2 33 -4z m81 -8 c3 -8 1 -15 -4 -15 -6 0 -10 7 -10 15 0 8 2 15 4 15 2 0 6 -7 10 -15z m-331 -12 c-18 -2 -48 -2 -65 0 -18 2 -4 4 32 4 36 0 50 -2 33 -4z m250 0 c-18 -2 -48 -2 -65 0 -18 2 -4 4 32 4 36 0 50 -2 33 -4z m-250 -20 c-18 -2 -48 -2 -65 0 -18 2 -4 4 32 4 36 0 50 -2 33 -4z m274 1 c-9 -9 -117 -10 -117 -1 0 4 28 7 62 7 34 0 59 -3 55 -6z m-274 -31 c-18 -2 -48 -2 -65 0 -18 2 -4 4 32 4 36 0 50 -2 33 -4z m245 0 c-15 -2 -42 -2 -60 0 -18 2 -6 4 27 4 33 0 48 -2 33 -4z m-245 -20 c-18 -2 -48 -2 -65 0 -18 2 -4 4 32 4 36 0 50 -2 33 -4z m250 0 c-18 -2 -48 -2 -65 0 -18 2 -4 4 32 4 36 0 50 -2 33 -4z m-250 -20 c-18 -2 -48 -2 -65 0 -18 2 -4 4 32 4 36 0 50 -2 33 -4z m245 0 c-15 -2 -42 -2 -60 0 -18 2 -6 4 27 4 33 0 48 -2 33 -4z m-245 -30 c-18 -2 -48 -2 -65 0 -18 2 -4 4 32 4 36 0 50 -2 33 -4z m250 0 c-18 -2 -48 -2 -65 0 -18 2 -4 4 32 4 36 0 50 -2 33 -4z"/>
<path d="M654 5805 c0 -93 2 -133 3 -88 2 45 2 122 0 170 -1 48 -3 12 -3 -82z"/>
<path d="M3378 5923 c-3 -38 -3 -38 -50 -41 -27 -2 -48 -7 -48 -13 0 -5 57 -9 135 -9 83 0 135 4 135 10 0 6 -32 10 -75 10 l-75 0 0 40 c0 51 -18 53 -22 3z"/>
<path d="M2427 5882 c-26 -2 -45 -7 -42 -13 8 -12 265 -12 265 0 0 10 -142 18 -223 13z"/>
<path d="M2813 5883 c-178 -5 -176 -23 2 -23 113 0 135 2 135 15 0 8 -1 14 -2 13 -2 -1 -63 -4 -135 -5z"/>
<path d="M2980 5870 c0 -6 52 -10 135 -10 83 0 135 4 135 10 0 6 -52 10 -135 10 -83 0 -135 -4 -135 -10z"/>
<path d="M3580 5870 c0 -6 50 -10 130 -10 80 0 130 4 130 10 0 6 -50 10 -130 10 -80 0 -130 -4 -130 -10z"/>
<path d="M500 5788 l0 -58 70 0 70 0 0 59 0 59 -70 -2 -70 -1 0 -57z"/>
<path d="M2980 5815 l0 -35 135 0 135 0 0 35 0 35 -135 0 -135 0 0 -35z"/>
<path d="M3280 5815 l0 -35 135 0 135 0 0 35 0 35 -135 0 -135 0 0 -35z"/>
<path d="M3870 5815 l0 -35 135 0 135 0 0 35 0 35 -135 0 -135 0 0 -35z"/>
<path d="M4270 5790 l0 -60 70 0 70 0 0 55 c0 53 -1 55 -27 56 -16 0 -47 2 -70 5 l-43 4 0 -60z"/>
<path d="M500 5660 l0 -60 70 0 70 0 0 60 0 60 -70 0 -70 0 0 -60z"/>
<path d="M854 5663 c-31 -24 -60 -38 -79 -38 -27 0 -30 -4 -33 -33 -3 -27 0 -33 15 -30 14 2 18 -4 19 -32 2 -27 1 -29 -3 -7 -8 48 -28 24 -31 -37 -2 -38 1 -56 7 -52 6 4 13 -4 16 -17 7 -28 85 -96 123 -107 15 -5 -109 -9 -285 -9 l-313 -1 0 -30 0 -30 2165 0 2165 0 0 30 0 30 -292 1 c-189 0 -282 4 -262 10 38 11 110 76 123 113 6 15 11 47 11 72 0 37 -4 46 -22 53 l-23 8 23 7 c14 5 22 15 22 29 0 17 -9 25 -39 34 -22 7 -52 24 -67 38 -15 14 -34 23 -41 21 -7 -3 -13 -1 -13 4 0 13 -87 13 -92 0 -4 -12 -38 -20 -95 -21 -49 -2 -53 -6 -20 -19 16 -6 17 -9 5 -9 -9 -1 -23 6 -32 14 -21 21 -282 21 -310 0 -23 -17 -50 -20 -41 -5 4 6 10 8 15 5 5 -3 11 -1 15 5 3 5 -2 10 -13 10 -11 0 -40 3 -66 6 -42 6 -46 5 -46 -14 0 -11 8 -23 18 -25 16 -4 16 -5 0 -6 -10 0 -18 -7 -18 -15 0 -16 -22 -27 -53 -25 -16 1 -14 3 8 8 28 6 30 10 33 54 l3 47 -56 0 c-47 0 -58 -3 -62 -19 -5 -20 -79 -61 -111 -61 -28 0 -38 -31 -15 -47 10 -7 23 -16 28 -21 6 -5 16 -7 23 -4 6 2 12 -1 12 -8 0 -6 -4 -8 -10 -5 -5 3 -10 0 -10 -7 0 -8 -5 -6 -11 5 -18 30 -29 18 -29 -32 0 -85 35 -142 113 -182 20 -11 37 -20 37 -22 0 -1 -361 -1 -803 0 -441 2 -962 3 -1157 4 -214 0 -344 4 -326 9 15 5 37 17 48 27 23 21 61 90 55 101 -3 4 -1 16 4 27 6 16 8 14 8 -13 1 -18 -6 -44 -15 -57 l-16 -25 40 0 c47 0 74 8 66 21 -3 5 -14 9 -25 9 -16 0 -19 5 -14 20 5 15 2 20 -12 21 -12 0 -9 4 10 11 21 7 27 16 27 39 0 24 -4 29 -24 29 -13 0 -27 -6 -29 -12 -4 -10 -6 -10 -6 0 -1 17 -16 15 -35 -4 -9 -8 -16 -11 -16 -5 0 16 31 28 92 34 45 4 58 2 62 -10 5 -12 4 -13 -7 -5 -8 7 -17 9 -20 5 -11 -10 -8 -58 3 -69 6 -6 12 -25 14 -42 3 -17 7 -36 11 -42 3 -6 48 -10 106 -10 107 0 106 -1 112 58 2 19 9 37 15 41 6 4 12 23 14 44 1 27 6 36 16 32 7 -3 26 -5 42 -5 29 0 60 -22 60 -43 0 -6 -7 -1 -16 11 -18 27 -31 28 -37 5 -4 -17 -5 -17 -6 0 -1 11 -9 17 -26 17 -19 0 -25 -5 -25 -23 0 -13 5 -28 12 -35 6 -6 12 -22 14 -36 2 -19 -3 -26 -19 -28 -40 -6 -18 -23 33 -26 40 -2 49 0 44 11 -3 8 -15 20 -27 26 -12 6 -14 9 -5 7 14 -4 16 1 12 32 l-4 37 10 -38 c25 -97 67 -137 145 -137 65 0 140 45 162 98 23 56 28 125 9 141 -18 15 -18 15 -18 -49 l0 -45 -7 44 c-5 35 -8 41 -17 30 -7 -8 -14 -23 -17 -34 -4 -18 -5 -18 -6 2 -1 28 40 73 68 73 16 0 21 6 21 25 0 21 -5 25 -30 25 -16 0 -45 9 -64 19 -19 11 -37 17 -41 13 -3 -3 -3 1 0 10 10 24 -24 38 -92 37 -37 0 -51 -3 -39 -8 29 -11 7 -20 -50 -21 -27 0 -58 -1 -69 -1 -20 0 -20 0 -1 -15 11 -8 15 -14 9 -14 -7 0 -18 7 -27 15 -21 21 -282 21 -310 0 -11 -8 -29 -15 -40 -14 -14 1 -10 4 12 10 34 10 43 20 15 17 -10 -2 -42 1 -72 6 -41 6 -55 5 -62 -5 -6 -10 -9 -8 -9 9 0 19 -5 22 -44 22 -35 0 -53 -7 -92 -37z m2403 -35 c-2 -13 -4 -3 -4 22 0 25 2 35 4 23 2 -13 2 -33 0 -45z m-2254 -8 c-7 -28 -13 -25 -13 6 0 14 4 23 9 20 5 -3 7 -15 4 -26z m237 20 c0 -5 -4 -10 -10 -10 -5 0 -10 5 -10 10 0 6 5 10 10 10 6 0 10 -4 10 -10z m133 -10 c-3 -11 0 -20 6 -20 6 0 11 -5 11 -12 0 -9 -3 -9 -12 0 -7 7 -41 13 -77 14 l-66 2 60 3 c39 3 63 9 68 19 11 20 16 17 10 -6z m58 -14 c9 -19 9 -19 -4 -3 -8 9 -19 17 -26 17 -6 0 -11 4 -11 10 0 16 30 -1 41 -24z m165 26 c-6 -10 15 -37 34 -45 12 -4 12 -6 -2 -6 -10 -1 -23 8 -30 19 -10 15 -25 20 -58 22 l-45 1 50 7 c28 4 51 8 53 8 2 1 1 -1 -2 -6z m100 -27 c-5 -18 -13 -25 -29 -24 l-22 0 23 9 c13 6 22 18 22 31 0 12 3 20 6 16 4 -3 4 -18 0 -32z m1849 17 c-3 -3 -11 0 -18 7 -9 10 -8 11 6 5 10 -3 15 -9 12 -12z m45 7 c0 -5 -4 -7 -10 -4 -5 3 -10 1 -10 -6 0 -7 -3 -10 -6 -6 -8 7 4 27 17 27 5 0 9 -5 9 -11z m295 1 c3 -5 1 -10 -4 -10 -6 0 -11 5 -11 10 0 6 2 10 4 10 3 0 8 -4 11 -10z m-2825 -7 c-14 -3 -28 -10 -32 -17 -5 -7 -8 -5 -8 7 0 13 8 17 33 16 27 -2 28 -2 7 -6z m134 -8 c-4 -8 -10 -15 -15 -15 -4 0 -6 7 -3 15 4 8 10 15 15 15 4 0 6 -7 3 -15z m2586 5 c0 -5 -7 -7 -15 -4 -8 4 -15 8 -15 10 0 2 7 4 15 4 8 0 15 -4 15 -10z m147 4 c-3 -3 -12 -4 -19 -1 -8 3 -5 6 6 6 11 1 17 -2 13 -5z m-188 -66 c0 -35 -3 -57 -6 -50 -3 8 -30 12 -83 12 l-79 0 -4 -62 -3 -63 -1 65 c-1 36 2 74 7 85 7 17 9 17 9 3 1 -16 12 -18 76 -18 l75 0 0 45 c0 25 2 45 5 45 3 0 5 -28 4 -62z m-2433 -28 l84 0 -2 -72 -2 -73 -3 68 -4 67 -79 0 c-53 0 -80 -4 -83 -12 -3 -7 -5 14 -4 47 0 47 1 51 4 18 l4 -43 85 0z m2381 73 c-20 -2 -52 -2 -70 0 -17 2 0 4 38 4 39 0 53 -2 32 -4z m103 -23 c0 -5 -5 -10 -11 -10 -5 0 -7 5 -4 10 3 6 8 10 11 10 2 0 4 -4 4 -10z m-2605 -10 c3 -5 1 -10 -4 -10 -6 0 -11 5 -11 10 0 6 2 10 4 10 3 0 8 -4 11 -10z m-195 -8 c0 -4 -21 -6 -47 -4 -83 5 -90 9 -20 11 37 0 67 -2 67 -7z m727 2 c-9 -9 -107 -10 -107 -1 0 4 26 7 57 7 31 0 54 -3 50 -6z m1563 2 c0 -2 -16 -6 -35 -8 -19 -2 -35 0 -35 4 0 4 16 8 35 8 19 0 35 -2 35 -4z m81 -13 c12 -16 12 -16 -1 -6 -8 6 -28 13 -45 16 l-30 4 31 2 c20 0 37 -6 45 -16z m669 10 c-30 -3 -61 -10 -70 -16 -13 -11 -13 -10 -1 6 10 13 26 17 70 15 l56 -2 -55 -3z m-765 -31 c3 -8 3 -17 0 -20 -3 -3 -5 0 -5 6 0 7 -7 12 -15 12 -8 0 -15 4 -15 8 0 15 29 9 35 -6z m40 8 c3 -6 -1 -7 -9 -4 -18 7 -21 14 -7 14 6 0 13 -4 16 -10z m483 -14 c17 -6 22 -15 22 -41 0 -19 5 -37 10 -40 6 -3 10 -17 10 -31 0 -19 -5 -24 -25 -24 -18 0 -23 -4 -19 -15 4 -11 21 -15 55 -15 52 0 64 14 27 30 -13 5 -17 9 -10 9 6 1 13 11 13 24 2 21 2 21 6 -2 9 -49 46 -92 98 -116 27 -13 -8 -14 -300 -15 -181 0 -347 -3 -367 -6 -26 -5 -38 -3 -38 5 0 7 8 11 18 10 59 -6 115 40 136 109 13 47 13 47 18 15 3 -21 0 -34 -9 -37 -31 -12 -11 -27 34 -24 50 3 75 28 28 28 -22 0 -25 3 -20 20 4 13 2 20 -6 20 -7 0 -5 6 6 14 10 7 20 25 22 40 3 23 0 26 -27 26 -17 0 -40 -5 -51 -10 -12 -7 -19 -7 -19 -1 0 13 22 19 93 26 32 3 57 2 57 -4 0 -5 -8 -8 -17 -7 -22 1 -32 -53 -12 -64 7 -5 14 -23 16 -41 6 -54 16 -59 123 -59 108 0 110 1 110 66 0 24 5 34 16 34 22 0 15 64 -8 68 -12 2 -18 -5 -21 -30 -3 -24 -4 -20 -5 17 -1 28 2 45 6 39 4 -6 17 -14 30 -18z m-2073 4 c-3 -5 -10 -10 -16 -10 -5 0 -9 5 -9 10 0 6 7 10 16 10 8 0 12 -4 9 -10z m-288 -6 c-3 -3 -12 -4 -19 -1 -8 3 -5 6 6 6 11 1 17 -2 13 -5z m2709 -30 c-6 -19 -12 -28 -14 -20 -3 13 14 56 22 56 2 0 -2 -16 -8 -36z m24 -61 c-11 -17 -11 -17 -6 0 3 10 7 37 8 60 l1 42 4 -42 c2 -24 -1 -51 -7 -60z m-2510 83 c0 -3 -4 -8 -10 -11 -5 -3 -10 -1 -10 4 0 6 5 11 10 11 6 0 10 -2 10 -4z m1577 -18 c-3 -8 -6 -5 -6 6 -1 11 2 17 5 13 3 -3 4 -12 1 -19z m68 3 c-3 -6 -11 -11 -16 -11 -5 0 -4 6 3 14 14 16 24 13 13 -3z m62 -3 c-3 -8 -6 -5 -6 6 -1 11 2 17 5 13 3 -3 4 -12 1 -19z m541 10 c7 -7 12 -16 12 -22 0 -5 -6 -2 -12 6 -7 9 -26 19 -43 21 l-30 4 31 2 c16 0 35 -4 42 -11z m-3059 -95 c1 -13 9 -23 21 -26 18 -4 18 -4 -2 -3 -18 1 -24 11 -34 56 -7 30 -13 60 -13 65 2 17 27 -69 28 -92z m3118 75 c-3 -8 -6 -5 -6 6 -1 11 2 17 5 13 3 -3 4 -12 1 -19z m-2712 2 c-3 -5 2 -10 12 -11 16 0 16 -1 -2 -8 -11 -5 -22 -7 -24 -5 -5 4 7 34 14 34 4 0 3 -4 0 -10z m82 4 c-3 -3 -12 -4 -19 -1 -8 3 -5 6 6 6 11 1 17 -2 13 -5z m43 -4 c0 -5 -2 -10 -4 -10 -3 0 -8 5 -11 10 -3 6 -1 10 4 10 6 0 11 -4 11 -10z m282 -2 c-17 -17 -15 -45 5 -53 12 -4 24 1 35 15 10 12 18 18 18 12 0 -11 -27 -42 -36 -42 -17 0 -44 23 -44 38 0 17 18 42 29 42 3 0 0 -5 -7 -12z m1685 -20 c-3 -7 -5 -2 -5 12 0 14 2 19 5 13 2 -7 2 -19 0 -25z m110 10 c-3 -8 -6 -5 -6 6 -1 11 2 17 5 13 3 -3 4 -12 1 -19z m156 1 c5 -3 2 -9 -7 -12 -12 -5 -16 0 -16 15 0 12 3 17 8 12 4 -5 11 -12 15 -15z m114 -1 c-3 -8 -6 -5 -6 6 -1 11 2 17 5 13 3 -3 4 -12 1 -19z m333 14 c23 -10 20 -35 -6 -55 -22 -17 -24 -16 -34 3 -21 40 2 69 40 52z m-3060 -12 c0 -5 -2 -10 -4 -10 -3 0 -8 5 -11 10 -3 6 -1 10 4 10 6 0 11 -4 11 -10z m627 -22 c-3 -7 -5 -2 -5 12 0 14 2 19 5 13 2 -7 2 -19 0 -25z m66 7 c-7 -21 -12 -19 -10 4 0 11 5 18 9 15 4 -3 5 -11 1 -19z m-783 -20 c0 -5 -5 -3 -10 5 -5 8 -10 20 -10 25 0 6 5 3 10 -5 5 -8 10 -19 10 -25z m2247 13 c-3 -8 -6 -5 -6 6 -1 11 2 17 5 13 3 -3 4 -12 1 -19z m-2360 -10 c-3 -8 -6 -5 -6 6 -1 11 2 17 5 13 3 -3 4 -12 1 -19z m171 -3 c-6 -14 -15 -25 -19 -25 -4 0 -2 11 4 25 7 14 15 25 19 25 4 0 2 -11 -4 -25z m79 -7 c-3 -7 -5 -2 -5 12 0 14 2 19 5 13 2 -7 2 -19 0 -25z m2253 26 c0 -8 -19 -13 -24 -6 -3 5 1 9 9 9 8 0 15 -2 15 -3z m-1950 -16 c0 -4 -9 -8 -20 -8 -11 0 -20 4 -20 8 0 4 9 8 20 8 11 0 20 -4 20 -8z m30 -3 c0 -8 -4 -15 -10 -15 -5 0 -7 7 -4 15 4 8 8 15 10 15 2 0 4 -7 4 -15z m396 -51 c-4 -11 -26 -14 -91 -14 -82 0 -85 1 -84 23 1 16 2 18 6 5 4 -15 17 -18 84 -18 l79 0 1 38 c2 31 3 32 6 9 3 -16 2 -35 -1 -43z m-496 52 c0 -2 -9 -6 -20 -9 -11 -3 -20 -1 -20 4 0 5 9 9 20 9 11 0 20 -2 20 -4z m297 -43 c-3 -10 -5 -2 -5 17 0 19 2 27 5 18 2 -10 2 -26 0 -35z m1693 32 c11 -13 10 -14 -4 -9 -9 3 -16 10 -16 15 0 13 6 11 20 -6z m340 5 c0 -5 -2 -10 -4 -10 -3 0 -8 5 -11 10 -3 6 -1 10 4 10 6 0 11 -4 11 -10z m390 0 c0 -5 -2 -10 -4 -10 -3 0 -8 5 -11 10 -3 6 -1 10 4 10 6 0 11 -4 11 -10z m123 -54 c-6 -11 -13 -12 -23 -6 -13 8 -12 10 3 10 12 0 17 9 18 33 2 29 2 30 6 5 2 -15 1 -34 -4 -42z m-916 22 c-3 -7 -5 -2 -5 12 0 14 2 19 5 13 2 -7 2 -19 0 -25z m-2383 -18 c12 -25 13 -31 3 -20 -8 8 -18 26 -22 40 -9 32 -3 25 19 -20z m101 18 c6 -4 0 -8 -12 -8 -16 0 -21 4 -16 15 3 9 8 12 12 8 3 -4 11 -11 16 -15z m302 -10 c-3 -7 -5 -2 -5 12 0 14 2 19 5 13 2 -7 2 -19 0 -25z m520 10 c-3 -8 -6 -5 -6 6 -1 11 2 17 5 13 3 -3 4 -12 1 -19z m73 14 c0 -5 -7 -17 -15 -28 -14 -18 -14 -17 -4 9 12 27 19 34 19 19z m1360 -27 c0 -5 -5 -3 -10 5 -5 8 -10 20 -10 25 0 6 5 3 10 -5 5 -8 10 -19 10 -25z m57 13 c-3 -8 -6 -5 -6 6 -1 11 2 17 5 13 3 -3 4 -12 1 -19z m519 -24 c-4 -11 -26 -14 -90 -14 -47 0 -87 3 -89 8 -3 4 35 6 84 4 l89 -3 1 28 c1 18 3 21 6 10 3 -10 2 -25 -1 -33z m229 24 c6 -4 2 -8 -7 -8 -10 0 -18 7 -18 17 0 9 3 12 8 7 4 -5 12 -12 17 -16z m-2265 2 c0 -5 -4 -10 -10 -10 -5 0 -10 5 -10 10 0 6 5 10 10 10 6 0 10 -4 10 -10z m1600 0 c0 -5 -5 -10 -11 -10 -5 0 -7 5 -4 10 3 6 8 10 11 10 2 0 4 -4 4 -10z m45 0 c-3 -5 -11 -10 -16 -10 -6 0 -7 5 -4 10 3 6 11 10 16 10 6 0 7 -4 4 -10z m735 0 c0 -5 -12 -10 -27 -9 l-28 1 25 8 c14 4 26 8 28 9 1 1 2 -3 2 -9z m-3092 -7 c-10 -2 -28 -2 -40 0 -13 2 -5 4 17 4 22 1 32 -1 23 -4z m29 -20 c-2 -19 -9 -29 -22 -31 -20 -3 -20 -3 0 10 19 12 19 13 -10 19 l-30 7 28 1 c15 0 27 6 27 11 0 6 2 10 4 10 3 0 4 -12 3 -27z m630 21 c-3 -3 -12 -4 -19 -1 -8 3 -5 6 6 6 11 1 17 -2 13 -5z m1724 -21 c-12 -20 -14 -14 -5 12 4 9 9 14 11 11 3 -2 0 -13 -6 -23z m260 9 c-24 -2 -47 0 -52 5 -4 4 15 6 44 3 l52 -5 -44 -3z m319 -5 c11 -5 9 -6 -4 -4 -11 1 -21 9 -23 17 -3 10 -2 11 4 4 4 -6 15 -14 23 -17z m63 16 c-7 -2 -19 -2 -25 0 -7 3 -2 5 12 5 14 0 19 -2 13 -5z m127 -1 c0 -5 -7 -17 -15 -28 -14 -18 -14 -17 -4 9 12 27 19 34 19 19z m-2872 -9 c-10 -2 -26 -2 -35 0 -10 3 -2 5 17 5 19 0 27 -2 18 -5z m89 1 c-3 -3 -12 -4 -19 -1 -8 3 -5 6 6 6 11 1 17 -2 13 -5z m-424 -11 c-7 -2 -19 -2 -25 0 -7 3 -2 5 12 5 14 0 19 -2 13 -5z m2380 0 c-24 -2 -62 -2 -85 0 -24 2 -5 4 42 4 47 0 66 -2 43 -4z m700 0 c-7 -2 -19 -2 -25 0 -7 3 -2 5 12 5 14 0 19 -2 13 -5z m-2670 -10 c-23 -2 -64 -2 -90 0 -26 2 -7 3 42 3 50 0 71 -1 48 -3z m1832 -3 c3 -5 1 -10 -4 -10 -6 0 -11 5 -11 10 0 6 2 10 4 10 3 0 8 -4 11 -10z m770 -10 c3 -5 2 -10 -4 -10 -5 0 -13 5 -16 10 -3 6 -2 10 4 10 5 0 13 -4 16 -10z m-2338 -6 c-3 -3 -12 -4 -19 -1 -8 3 -5 6 6 6 11 1 17 -2 13 -5z"/>
<path d="M4013 5484 c-8 -22 15 -44 26 -25 10 16 4 41 -10 41 -5 0 -12 -7 -16 -16z"/>
<path d="M1065 5690 c4 -6 92 -10 230 -10 138 0 226 4 230 10 4 7 -75 10 -230 10 -155 0 -234 -3 -230 -10z"/>
<path d="M3425 5690 c4 -6 92 -10 230 -10 138 0 226 4 230 10 4 7 -75 10 -230 10 -155 0 -234 -3 -230 -10z"/>
<path d="M1930 5510 l0 -100 380 0 380 0 0 100 0 100 -380 0 -380 0 0 -100z"/>
<path d="M2710 5547 c0 -50 4 -68 20 -85 38 -40 93 -37 128 7 11 15 13 15 25 0 15 -20 51 -39 72 -39 9 0 30 13 46 29 24 25 29 38 29 78 0 26 -4 53 -8 60 -10 16 -72 14 -72 -4 0 -7 -6 -13 -14 -13 -8 0 -22 -10 -30 -22 -9 -12 -16 -17 -16 -11 0 6 11 20 25 31 33 26 32 32 -6 32 -31 0 -31 -1 -27 -45 2 -25 0 -45 -4 -45 -5 0 -8 20 -8 45 l0 46 -46 -2 c-38 -2 -45 -6 -41 -21 3 -10 1 -16 -4 -12 -5 3 -9 12 -9 20 0 9 -11 14 -30 14 l-30 0 0 -63z m299 -16 c0 -14 -1 -14 -6 -1 -3 8 -15 26 -27 40 l-21 25 28 -24 c15 -14 27 -32 26 -40z m-265 19 c-18 -35 -28 -40 -18 -7 5 18 21 36 31 37 1 0 -5 -13 -13 -30z m105 -4 c-3 -3 -11 5 -18 17 -13 21 -12 21 5 5 10 -10 16 -20 13 -22z m-88 -76 c7 0 9 -3 6 -6 -10 -10 -37 16 -36 35 0 11 3 9 9 -6 5 -13 15 -23 21 -23z m79 5 c-7 -8 -18 -15 -24 -15 -6 0 -3 5 7 11 9 5 17 18 18 27 0 11 2 12 6 4 3 -7 -1 -19 -7 -27z m164 12 c-3 -8 -12 -18 -20 -21 -11 -4 -10 0 3 18 20 26 27 28 17 3z m-80 -26 c-5 -6 -34 20 -34 30 0 5 8 1 18 -8 10 -10 17 -20 16 -22z"/>
<path d="M500 5580 c0 -6 33 -10 80 -10 47 0 80 4 80 10 0 6 -33 10 -80 10 -47 0 -80 -4 -80 -10z"/>
</g>
</svg>