<svg xmlns="http://www.w3.org/2000/svg" viewBox="19.00 249.50 692.80 277.00">
<g transform="translate(0.000000,768.000000) scale(0.100000,-0.100000)" fill="currentColor" stroke="none">
<path d="M2850 4996 c0 -64 4 -106 10 -106 6 0 10 27 10 62 0 66 10 68 30 5 6 -21 17 -36 23 -34 6 2 19 25 28 53 l17 49 1 -68 c1 -108 22 -79 27 36 3 87 2 98 -13 95 -9 -2 -26 -28 -39 -63 -18 -49 -24 -56 -30 -40 -55 149 -64 150 -64 11z"/>
<path d="M3748 5092 l-48 -3 0 -100 c0 -98 16 -139 22 -56 3 40 5 42 36 45 42 4 37 26 -7 30 -28 3 -32 6 -29 30 3 24 8 27 46 30 23 2 42 7 42 12 0 13 -10 15 -62 12z"/>
<path d="M5086 5093 c-3 -3 -6 -46 -6 -93 0 -67 4 -91 15 -100 13 -11 18 -11 28 0 9 10 9 13 0 17 -9 3 -13 30 -13 88 0 77 -7 104 -24 88z"/>
<path d="M3230 5060 c0 -27 -2 -29 -29 -24 -38 8 -55 -22 -48 -83 6 -54 8 -56 57 -59 l40 -2 0 99 c0 59 -4 99 -10 99 -5 0 -10 -13 -10 -30z m-10 -95 c0 -38 -3 -45 -20 -45 -17 0 -20 7 -20 45 0 38 3 45 20 45 17 0 20 -7 20 -45z"/>
<path d="M4045 5081 c-6 -11 9 -23 19 -14 9 9 7 23 -3 23 -6 0 -12 -4 -16 -9z"/>
<path d="M4232 4993 c2 -66 7 -98 16 -101 9 -3 12 13 12 57 0 53 2 61 19 61 23 0 31 -19 31 -76 0 -24 5 -44 10 -44 6 0 10 28 10 64 0 69 -14 92 -50 83 -17 -4 -20 0 -20 24 0 19 -5 29 -15 29 -13 0 -15 -15 -13 -97z"/>
<path d="M4502 4993 l3 -98 33 -3 c19 -2 44 4 58 13 22 14 24 22 24 85 0 84 -12 100 -76 100 l-45 0 3 -97z m75 69 c15 -9 24 -101 12 -124 -5 -10 -21 -18 -34 -18 -24 0 -25 2 -25 75 0 65 2 75 18 75 9 0 22 -4 29 -8z"/>
<path d="M4655 5081 c-6 -11 9 -23 19 -14 9 9 7 23 -3 23 -6 0 -12 -4 -16 -9z"/>
<path d="M4370 5061 c0 -11 -6 -21 -12 -24 -10 -3 -10 -7 -1 -18 6 -8 13 -39 15 -69 2 -43 7 -56 21 -58 10 -2 17 3 17 12 0 9 -4 16 -10 16 -14 0 -12 84 3 99 10 11 10 14 0 18 -7 3 -13 13 -13 24 0 10 -4 19 -10 19 -5 0 -10 -9 -10 -19z"/>
<path d="M3042 5028 c-6 -6 -12 -36 -12 -65 0 -48 3 -55 26 -65 34 -16 56 -1 68 44 12 46 -9 92 -44 96 -14 2 -31 -3 -38 -10z m53 -63 c0 -33 -3 -40 -20 -40 -15 0 -21 8 -23 28 -5 39 5 59 25 55 14 -2 18 -13 18 -43z"/>
<path d="M3296 5024 c-23 -23 -21 -96 4 -119 22 -20 70 -14 70 10 0 11 -8 13 -30 9 -26 -6 -30 -4 -30 15 0 17 6 21 35 21 30 0 35 3 35 24 0 29 -24 56 -50 56 -10 0 -26 -7 -34 -16z m52 -27 c2 -12 -3 -17 -17 -17 -12 0 -21 6 -21 13 0 31 32 34 38 4z"/>
<path d="M3410 4965 c0 -43 4 -75 10 -75 6 0 10 20 10 44 0 57 8 76 30 76 11 0 22 5 25 10 10 16 -23 24 -40 10 -10 -9 -15 -9 -15 -1 0 6 -4 11 -10 11 -6 0 -10 -32 -10 -75z"/>
<path d="M3510 4963 c0 -86 18 -99 22 -15 3 49 6 57 23 57 17 0 20 -8 23 -57 4 -79 22 -74 22 6 0 72 -9 85 -58 84 l-32 -1 0 -74z"/>
<path d="M3829 5033 c0 -1 0 -33 -1 -70 0 -85 20 -98 24 -16 3 51 6 58 26 61 38 6 27 32 -13 30 -19 -1 -35 -3 -36 -5z"/>
<path d="M3932 5028 c-18 -18 -15 -103 4 -122 24 -25 74 -17 74 10 0 10 -7 13 -26 8 -17 -4 -29 -2 -34 7 -13 20 -2 29 36 29 32 0 34 2 28 28 -4 15 -11 33 -17 40 -12 15 -49 16 -65 0z m58 -34 c0 -8 -10 -14 -25 -14 -27 0 -32 9 -14 27 14 14 39 6 39 -13z"/>
<path d="M4050 4975 c0 -36 0 -68 -1 -72 0 -4 4 -9 10 -11 7 -2 11 23 11 72 0 44 -4 76 -10 76 -6 0 -10 -28 -10 -65z"/>
<path d="M4110 5021 c-14 -28 -12 -94 4 -116 9 -12 20 -16 35 -12 17 4 21 2 19 -11 -3 -12 -13 -16 -32 -15 -37 3 -29 -21 9 -25 43 -5 55 19 55 113 l0 82 -40 1 c-30 1 -42 -3 -50 -17z m60 -56 c0 -38 -3 -45 -20 -45 -17 0 -20 7 -20 45 0 38 3 45 20 45 17 0 20 -7 20 -45z"/>
<path d="M4657 5033 c-10 -20 -1 -136 11 -140 9 -4 12 15 12 71 0 66 -9 94 -23 69z"/>
<path d="M4727 5022 c-22 -25 -22 -84 1 -112 14 -18 25 -22 45 -16 39 9 36 37 -3 30 -26 -6 -30 -4 -30 15 0 17 6 21 35 21 30 0 35 3 35 24 0 50 -52 73 -83 38z m53 -27 c0 -8 -9 -15 -20 -15 -11 0 -20 7 -20 15 0 8 9 15 20 15 11 0 20 -7 20 -15z"/>
<path d="M4845 5024 c-24 -24 -15 -47 28 -67 45 -22 39 -41 -10 -32 -27 5 -34 3 -31 -7 7 -20 56 -34 76 -22 36 23 23 79 -20 86 -12 2 -24 9 -26 17 -4 11 2 13 25 8 36 -7 48 1 32 20 -16 18 -54 16 -74 -3z"/>
<path d="M4971 5027 c-17 -22 -23 -70 -12 -99 12 -32 53 -47 76 -28 19 16 12 24 -23 25 -17 0 -28 6 -30 18 -3 14 4 17 32 17 33 0 36 3 36 28 0 15 -5 33 -12 40 -16 16 -53 15 -67 -1z m57 -34 c2 -8 -6 -13 -22 -13 -25 0 -33 10 -19 24 10 10 36 3 41 -11z"/>
<path d="M1094 4038 c17 -55 18 -105 3 -141 l-16 -37 -135 0 -136 0 0 -309 c0 -279 2 -309 17 -315 21 -9 28 -1 73 80 l37 67 90 -2 c100 -2 98 -4 102 68 2 53 14 77 42 86 57 18 99 -30 99 -115 l0 -40 75 0 75 0 0 185 0 185 -224 0 c-215 0 -224 -1 -256 -22 -56 -38 -70 -78 -70 -195 0 -57 -4 -105 -10 -108 -12 -7 -12 -7 -10 109 1 95 15 144 53 184 46 49 62 52 297 52 l220 0 0 45 0 45 -58 0 c-79 0 -92 15 -92 103 0 36 5 69 10 72 26 16 -9 25 -97 25 -94 0 -95 0 -89 -22z"/>
<path d="M2045 4040 c-3 -5 -3 -10 2 -10 4 0 0 -5 -9 -11 -10 -5 -18 -19 -18 -30 0 -11 -5 -29 -11 -40 -9 -17 -7 -21 11 -26 12 -3 20 -12 18 -22 -1 -9 1 -22 6 -29 6 -10 -18 -12 -121 -10 l-128 3 -3 61 c-4 79 -21 96 -100 101 -41 3 -67 -1 -92 -14 -34 -17 -35 -21 -40 -83 l-5 -65 -57 -3 -58 -3 0 -44 0 -45 109 0 110 0 4 43 4 42 1 -42 2 -43 59 0 59 0 -29 29 c-16 16 -29 35 -29 42 0 7 19 -6 43 -29 l43 -42 232 0 232 0 0 45 0 45 -104 0 -104 0 -5 26 c-4 20 0 28 15 32 12 3 17 10 13 20 -3 8 -10 34 -16 58 -12 46 -23 61 -34 44z"/>
<path d="M6610 4015 l0 -25 156 0 155 0 -3 23 c-3 22 -6 22 -155 25 l-153 3 0 -26z"/>
<path d="M2413 4020 c-30 -12 -43 -41 -43 -92 0 -49 -13 -68 -47 -68 -21 0 -23 -5 -23 -45 l0 -45 205 0 205 0 0 45 c0 40 -2 45 -23 45 -35 0 -47 19 -47 76 0 45 -4 56 -26 73 -22 17 -40 21 -103 20 -42 0 -86 -4 -98 -9z"/>
<path d="M3021 3996 c-7 -8 -11 -23 -9 -32 2 -11 -4 -20 -14 -22 -12 -2 -18 3 -19 15 0 10 -5 3 -11 -16 -14 -50 -5 -61 47 -61 43 0 45 1 45 29 0 17 -5 33 -11 36 -6 4 -7 19 -4 36 7 31 -5 38 -24 15z"/>
<path d="M6594 3800 c0 -52 1 -74 3 -47 2 26 2 68 0 95 -2 26 -3 4 -3 -48z"/>
<path d="M6615 3806 c0 -46 3 -88 8 -92 4 -4 7 34 7 84 0 51 -3 92 -7 92 -5 0 -8 -38 -8 -84z"/>
<path d="M6650 3800 c0 -53 4 -90 10 -90 6 0 10 37 10 90 0 53 -4 90 -10 90 -6 0 -10 -37 -10 -90z"/>
<path d="M6681 3800 c-1 -58 2 -90 8 -90 7 0 11 34 11 90 0 50 -4 90 -8 90 -5 0 -9 -40 -11 -90z"/>
<path d="M6720 3800 c0 -53 4 -90 10 -90 6 0 10 37 10 90 0 53 -4 90 -10 90 -6 0 -10 -37 -10 -90z"/>
<path d="M6750 3800 c0 -53 4 -90 10 -90 6 0 10 37 10 90 0 53 -4 90 -10 90 -6 0 -10 -37 -10 -90z"/>
<path d="M6790 3800 c0 -53 4 -90 10 -90 6 0 10 37 10 90 0 53 -4 90 -10 90 -6 0 -10 -37 -10 -90z"/>
<path d="M6820 3800 c0 -53 4 -90 10 -90 6 0 10 37 10 90 0 53 -4 90 -10 90 -6 0 -10 -37 -10 -90z"/>
<path d="M6859 3798 c5 -93 8 -86 13 30 2 36 -1 62 -7 62 -6 0 -8 -34 -6 -92z"/>
<path d="M6890 3800 c0 -53 4 -90 10 -90 6 0 10 37 10 90 0 53 -4 90 -10 90 -6 0 -10 -37 -10 -90z"/>
<path d="M6920 3800 c0 -53 4 -90 10 -90 6 0 10 37 10 90 0 53 -4 90 -10 90 -6 0 -10 -37 -10 -90z"/>
<path d="M6960 3800 c0 -53 4 -90 10 -90 6 0 10 37 10 90 0 53 -4 90 -10 90 -6 0 -10 -37 -10 -90z"/>
<path d="M6990 3800 c0 -53 4 -90 10 -90 6 0 10 37 10 90 0 53 -4 90 -10 90 -6 0 -10 -37 -10 -90z"/>
<path d="M7030 3798 l4 -93 6 70 c5 73 2 115 -9 115 -3 0 -4 -42 -1 -92z"/>
<path d="M2850 3977 c0 -14 -7 -27 -15 -31 -9 -3 -15 -18 -15 -36 0 -29 2 -30 45 -30 44 0 45 1 45 31 0 22 -5 32 -20 36 -11 3 -20 14 -20 24 0 10 -4 21 -10 24 -6 3 -10 -5 -10 -18z"/>
<path d="M3185 3937 c-4 -24 -4 -103 -1 -177 3 -74 5 -222 6 -328 l0 -193 268 4 267 4 5 279 5 279 95 7 c116 10 142 19 136 50 -3 13 -8 44 -11 71 l-6 47 -379 0 -379 0 -6 -43z m313 -304 l3 -101 -65 -7 c-35 -4 -69 -4 -75 0 -7 4 -11 47 -11 111 l0 105 73 -3 72 -3 3 -102z m168 99 c8 -5 10 -38 6 -104 l-5 -98 -68 0 -69 0 0 105 0 105 63 0 c34 0 67 -4 73 -8z"/>
<path d="M708 3953 c-3 -4 -6 -28 -7 -53 -1 -25 -4 -57 -7 -72 -6 -28 -5 -28 45 -28 l51 0 0 75 c0 73 -1 75 -24 75 -13 0 -31 3 -39 6 -8 3 -17 2 -19 -3z"/>
<path d="M2720 3815 l0 -45 225 0 225 0 0 45 0 45 -225 0 -225 0 0 -45z"/>
<path d="M4374 3842 c-16 -8 -52 -14 -85 -14 -39 1 -61 -4 -69 -14 -8 -8 -31 -14 -60 -14 -33 0 -52 -5 -64 -19 -10 -11 -28 -22 -42 -25 -13 -4 -24 -10 -24 -14 0 -4 211 -7 469 -7 449 0 468 1 442 17 -14 10 -36 18 -49 18 -13 0 -33 5 -45 12 -12 7 -32 11 -44 9 -12 -1 -33 5 -46 13 -19 13 -30 14 -56 5 -33 -12 -35 -11 -147 37 -24 11 -37 11 -62 2 -24 -9 -40 -10 -61 -2 -22 9 -34 8 -57 -4z"/>
<path d="M757 3738 c-8 -18 -19 -51 -24 -73 -6 -31 -13 -40 -28 -40 -18 0 -20 -8 -23 -78 -3 -74 -2 -78 17 -72 16 5 20 0 26 -34 4 -22 13 -45 21 -52 8 -6 14 -17 14 -23 0 -7 7 -21 15 -32 13 -17 14 6 15 209 0 125 -4 227 -8 227 -5 0 -16 -15 -25 -32z"/>
<path d="M1440 3565 l0 -186 108 3 107 3 3 183 2 182 -110 0 -110 0 0 -185z"/>
<path d="M1672 3568 l3 -183 282 -3 c225 -2 281 0 277 10 -6 13 -50 52 -282 246 l-135 112 -74 0 -73 0 2 -182z m194 31 c11 -18 -18 -29 -71 -27 -38 2 -51 7 -53 21 -3 15 5 17 57 17 33 0 63 -5 67 -11z"/>
<path d="M1778 3593 c12 -2 32 -2 45 0 12 2 2 4 -23 4 -25 0 -35 -2 -22 -4z"/>
<path d="M1850 3746 c0 -2 42 -37 93 -79 125 -101 300 -255 310 -272 21 -39 27 -4 27 170 l0 185 -215 0 c-118 0 -215 -2 -215 -4z"/>
<path d="M2300 3565 l0 -185 35 0 c35 0 35 0 35 45 l0 46 128 -3 127 -3 3 -43 c3 -43 3 -43 40 -40 l37 3 2 183 1 182 -204 0 -204 0 0 -185z"/>
<path d="M2720 3565 l0 -185 225 0 225 0 0 185 0 185 -225 0 -225 0 0 -185z"/>
<path d="M3903 3713 c-9 -3 -13 -26 -13 -64 0 -55 1 -59 24 -59 28 0 41 14 54 60 5 19 13 43 17 53 6 14 2 17 -31 16 -22 0 -45 -3 -51 -6z"/>
<path d="M4008 3703 c-9 -10 -19 -34 -23 -53 -9 -44 -41 -80 -72 -80 l-23 0 0 -280 0 -280 795 0 795 0 0 275 0 275 -203 0 c-231 0 -232 0 -272 79 -43 85 -15 81 -528 81 -420 0 -455 -1 -469 -17z"/>
<path d="M5386 3694 c-10 -10 -16 -33 -16 -65 0 -63 18 -64 22 -2 3 42 6 49 31 57 17 6 37 6 55 0 l27 -9 3 -295 c2 -225 -1 -295 -10 -301 -17 -10 -3 -23 17 -16 13 6 15 46 15 310 0 282 -1 305 -18 320 -24 22 -105 23 -126 1z"/>
<path d="M6710 3525 l0 -115 80 0 80 0 0 115 0 115 -80 0 -80 0 0 -115z"/>
<path d="M6930 3525 l0 -115 65 0 65 0 0 115 0 115 -65 0 -65 0 0 -115z"/>
<path d="M5040 3621 c0 -5 7 -17 16 -25 12 -13 39 -16 131 -16 l115 0 -14 23 c-14 20 -24 22 -132 25 -69 2 -116 -1 -116 -7z"/>
<path d="M3750 3390 l0 -160 50 0 c45 0 50 -2 50 -22 0 -22 -4 -23 -62 -22 -58 2 -63 4 -60 23 3 18 -2 21 -33 21 l-36 0 3 -107 3 -108 103 -3 102 -3 0 271 0 270 -60 0 -60 0 0 -160z"/>
<path d="M1156 3498 c-9 -13 -16 -43 -16 -70 l0 -48 55 0 55 0 0 48 c0 56 -21 92 -55 92 -13 0 -31 -10 -39 -22z"/>
<path d="M2389 3443 c-1 -5 -2 -24 -3 -42 l-1 -35 -719 0 -719 -1 -88 -155 c-100 -174 -124 -219 -117 -225 2 -2 21 -2 42 2 25 4 40 13 46 27 4 12 46 87 92 168 l84 147 690 2 689 2 0 -129 0 -129 -57 -3 -58 -3 0 56 0 55 -70 0 -70 0 0 -40 c0 -22 -5 -40 -11 -40 -7 0 -10 20 -7 55 l3 55 -32 0 c-32 0 -33 -2 -33 -39 0 -22 -6 -44 -15 -51 -11 -9 -74 -11 -252 -9 -183 3 -237 1 -240 -8 -3 -9 -25 -13 -64 -13 -52 0 -59 -2 -59 -20 0 -18 7 -20 64 -20 l63 0 31 -87 c17 -49 34 -100 37 -115 6 -22 13 -28 36 -28 15 0 39 -5 52 -11 15 -7 36 -7 58 -2 29 8 34 14 37 41 2 24 8 32 22 32 11 0 24 9 30 21 9 15 20 20 44 18 25 -3 41 4 65 26 18 17 44 40 58 53 18 17 22 27 15 34 -15 15 -82 -36 -82 -62 0 -17 -9 -18 -160 -13 l-160 6 0 -27 c0 -16 5 -26 15 -26 8 0 15 -9 15 -20 0 -12 7 -20 17 -20 12 0 14 -3 6 -11 -27 -27 -47 -4 -75 86 -24 77 -26 94 -15 118 l12 29 156 -6 c86 -3 169 -10 183 -16 15 -5 42 -10 59 -10 51 0 58 -9 45 -58 -12 -50 -5 -89 20 -96 9 -3 109 -21 222 -41 113 -20 240 -43 283 -51 75 -15 101 -13 81 5 -10 9 -156 38 -389 77 -153 25 -195 36 -195 52 0 4 8 30 18 57 20 56 35 63 100 46 51 -14 102 -55 143 -113 25 -38 38 -48 60 -48 15 0 34 -2 42 -6 9 -3 18 5 26 24 16 39 84 106 129 129 52 25 173 25 226 -1 87 -43 137 -122 144 -223 l4 -63 33 0 32 0 5 63 c3 35 13 77 22 95 48 92 140 152 235 152 86 0 130 -18 192 -80 58 -57 79 -107 79 -184 0 -33 3 -36 28 -36 20 0 32 8 44 30 16 28 21 30 78 30 l60 0 0 85 0 84 -62 3 -63 3 -3 118 -3 117 -234 0 -235 0 0 45 0 45 -225 0 c-136 0 -225 -4 -225 -10 0 -5 35 -55 78 -112 l78 -103 55 2 c30 2 137 14 239 28 102 13 214 28 250 32 57 7 65 11 68 31 4 26 22 30 22 5 -1 -44 25 -39 -463 -103 -87 -11 -164 -17 -172 -13 -19 11 -133 161 -156 206 -17 32 -24 37 -54 37 -35 0 -35 0 -35 -45 0 -44 1 -45 33 -45 39 0 56 -12 91 -65 44 -67 39 -75 -55 -75 -71 0 -81 2 -86 19 -4 16 -16 19 -106 20 -56 1 -103 4 -106 7 -2 2 44 4 102 4 l107 0 0 98 0 97 281 -2 c259 -2 280 -1 277 15 -3 15 -28 17 -281 17 l-277 0 0 43 0 42 -110 0 c-60 0 -111 -3 -111 -7z m201 -153 c0 -6 -33 -10 -80 -10 l-80 0 -1 -62 c-1 -76 -6 -66 -11 20 l-4 62 88 0 c52 0 88 -4 88 -10z m360 0 c0 -5 -2 -10 -4 -10 -3 0 -8 5 -11 10 -3 6 -1 10 4 10 6 0 11 -4 11 -10z m40 6 c0 -3 -4 -8 -10 -11 -5 -3 -10 -1 -10 4 0 6 5 11 10 11 6 0 10 -2 10 -4z m100 -6 c0 -5 -2 -10 -4 -10 -3 0 -8 5 -11 10 -3 6 -1 10 4 10 6 0 11 -4 11 -10z m50 0 c0 -5 -2 -10 -4 -10 -3 0 -8 5 -11 10 -3 6 -1 10 4 10 6 0 11 -4 11 -10z m-345 -38 c-3 -3 -11 0 -18 7 -9 10 -8 11 6 5 10 -3 15 -9 12 -12z m40 8 c3 -5 1 -10 -4 -10 -6 0 -11 5 -11 10 0 6 2 10 4 10 3 0 8 -4 11 -10z m75 6 c0 -2 -7 -7 -16 -10 -8 -3 -12 -2 -9 4 6 10 25 14 25 6z m55 -6 c3 -5 1 -10 -4 -10 -6 0 -11 5 -11 10 0 6 2 10 4 10 3 0 8 -4 11 -10z m145 0 c0 -5 -4 -10 -10 -10 -5 0 -10 5 -10 10 0 6 5 10 10 10 6 0 10 -4 10 -10z m-295 -30 c3 -5 1 -10 -4 -10 -6 0 -11 5 -11 10 0 6 2 10 4 10 3 0 8 -4 11 -10z m40 0 c3 -5 1 -10 -4 -10 -6 0 -11 5 -11 10 0 6 2 10 4 10 3 0 8 -4 11 -10z m35 0 c0 -5 -5 -10 -11 -10 -5 0 -7 5 -4 10 3 6 8 10 11 10 2 0 4 -4 4 -10z m40 6 c0 -3 -4 -8 -10 -11 -5 -3 -10 -1 -10 4 0 6 5 11 10 11 6 0 10 -2 10 -4z m75 -66 c3 -5 1 -10 -4 -10 -6 0 -11 5 -11 10 0 6 2 10 4 10 3 0 8 -4 11 -10z m59 -2 c-2 -3 -13 -6 -24 -5 -24 2 -18 13 9 13 11 0 18 -4 15 -8z m56 2 c0 -5 -2 -10 -4 -10 -3 0 -8 5 -11 10 -3 6 -1 10 4 10 6 0 11 -4 11 -10z m-150 -4 c0 -2 -7 -7 -16 -10 -8 -3 -12 -2 -9 4 6 10 25 14 25 6z m280 -6 c0 -5 -5 -10 -11 -10 -5 0 -7 5 -4 10 3 6 8 10 11 10 2 0 4 -4 4 -10z m-150 -20 c0 -5 -4 -10 -10 -10 -5 0 -10 5 -10 10 0 6 5 10 10 10 6 0 10 -4 10 -10z m40 0 c0 -5 -2 -10 -4 -10 -3 0 -8 5 -11 10 -3 6 -1 10 4 10 6 0 11 -4 11 -10z m-215 -11 c11 -16 1 -19 -13 -3 -7 8 -8 14 -3 14 5 0 13 -5 16 -11z m69 1 c3 -3 -5 -6 -19 -5 -13 0 -26 2 -29 5 -3 3 5 6 19 5 13 0 26 -2 29 -5z m55 0 c-6 -5 -18 -6 -26 -3 -19 8 -16 11 13 11 17 0 22 -3 13 -8z"/>
<path d="M6885 3391 c-3 -6 -3 -60 1 -120 4 -60 4 -115 2 -123 -4 -10 -29 -12 -102 -10 l-96 3 0 125 0 124 -25 0 -25 0 0 -155 0 -155 145 0 145 0 0 23 c0 13 -3 26 -6 30 -3 3 -6 63 -7 133 -1 86 -6 129 -14 131 -6 2 -14 -1 -18 -6z"/>
<path d="M6710 3270 l0 -120 80 0 80 0 0 120 0 120 -80 0 -80 0 0 -120z"/>
<path d="M6950 3270 l0 -120 55 0 55 0 0 120 0 120 -55 0 -55 0 0 -120z"/>
<path d="M996 3278 l-26 -43 30 -3 c22 -2 30 -9 30 -23 0 -16 7 -19 45 -19 l45 0 0 65 0 65 -49 0 c-48 0 -51 -2 -75 -42z"/>
<path d="M1147 3313 c-4 -3 -7 -37 -7 -75 l0 -68 -45 0 -45 0 0 -215 0 -215 145 0 145 0 0 215 0 215 -45 0 -45 0 0 75 0 75 -48 0 c-27 0 -52 -3 -55 -7z"/>
<path d="M1270 3249 c0 -61 2 -70 16 -65 9 3 27 6 40 6 14 0 24 6 24 15 0 8 14 17 36 21 34 6 35 8 32 48 l-3 41 -72 3 -73 3 0 -72z"/>
<path d="M1437 3314 c-4 -4 -7 -30 -7 -59 0 -51 12 -75 37 -75 21 0 14 134 -7 138 -9 1 -19 0 -23 -4z"/>
<path d="M1500 3250 l0 -70 180 0 180 0 0 70 0 70 -180 0 -180 0 0 -70z"/>
<path d="M1880 3250 c0 -57 3 -70 16 -70 9 0 18 9 21 19 7 28 35 32 251 31 l197 -2 0 44 0 43 -242 3 -243 2 0 -70z"/>
<path d="M1360 3080 c0 -86 1 -89 21 -82 17 7 21 18 24 73 4 69 0 82 -27 92 -16 6 -18 -2 -18 -83z"/>
<path d="M990 3080 c0 -44 2 -80 4 -80 2 0 11 -3 20 -6 14 -5 16 6 16 80 0 79 -2 86 -20 86 -18 0 -20 -7 -20 -80z"/>
<path d="M1611 3056 c-10 -12 -11 -25 -5 -49 l10 -32 154 0 155 0 3 34 c2 18 0 37 -5 41 -4 5 -73 12 -153 15 -128 7 -147 6 -159 -9z"/>
<path d="M2638 3036 c-26 -7 -63 -25 -83 -40 -42 -33 -90 -100 -80 -115 10 -16 35 -13 35 4 0 9 20 35 44 59 135 136 356 39 356 -156 0 -32 3 -38 21 -38 20 0 21 3 14 58 -9 73 -24 109 -66 157 -58 66 -155 95 -241 71z"/>
<path d="M3237 3036 c-111 -30 -187 -125 -187 -232 0 -39 4 -54 14 -54 9 0 15 18 19 55 23 223 310 281 403 81 58 -125 -3 -264 -134 -302 -78 -23 -142 -6 -201 53 -29 29 -52 43 -65 41 -19 -3 -15 -9 27 -55 112 -120 298 -108 391 25 25 35 31 55 34 113 6 100 -12 154 -69 211 -33 33 -62 51 -100 62 -62 19 -69 19 -132 2z"/>
<path d="M1420 3021 c0 -21 -16 -37 -45 -44 -11 -2 26 -5 83 -6 56 0 102 1 102 3 0 1 -5 17 -11 35 -11 30 -13 31 -70 31 -51 0 -59 -3 -59 -19z"/>
<path d="M1950 3024 c0 -14 3 -14 15 -4 8 7 15 14 15 16 0 2 -7 4 -15 4 -8 0 -15 -7 -15 -16z"/>
<path d="M2110 3028 c0 -7 26 -21 58 -30 43 -13 68 -28 95 -58 35 -36 67 -52 67 -32 0 20 -77 96 -114 113 -48 22 -106 25 -106 7z"/>
<path d="M4618 2992 l-828 -2 0 -134 c0 -74 -3 -141 -6 -150 -5 -14 5 -16 70 -16 l76 0 0 65 0 65 30 0 c17 0 38 -4 48 -9 9 -5 30 -14 45 -20 20 -8 36 -29 57 -73 17 -35 30 -71 30 -80 0 -16 10 -18 79 -18 l79 0 23 48 c47 98 51 102 133 102 84 0 91 -5 130 -92 l25 -58 76 0 76 0 19 46 c40 93 48 99 132 98 41 0 80 -4 87 -8 7 -5 26 -37 42 -73 l29 -64 76 3 77 3 29 77 c27 70 33 79 72 97 23 12 59 21 80 21 l38 0 -4 -52 -3 -53 70 0 70 0 1 40 c2 73 3 75 29 75 14 0 25 -4 25 -10 0 -5 25 -10 55 -10 l55 0 0 59 c0 53 -2 59 -23 63 -40 8 -97 -3 -97 -18 0 -8 -9 -14 -19 -14 -17 0 -20 8 -23 48 l-3 47 -65 0 c-36 0 -437 -1 -892 -3z m-718 -182 c0 -5 -20 -10 -45 -10 -25 0 -45 5 -45 10 0 6 20 10 45 10 25 0 45 -4 45 -10z m1650 -30 l0 -40 -45 0 -45 0 0 40 0 40 45 0 45 0 0 -40z m-1650 -35 c0 -35 0 -35 -45 -35 -45 0 -45 0 -45 35 0 35 0 35 45 35 45 0 45 0 45 -35z m375 -35 l0 -55 -50 0 -50 0 -5 40 c-9 69 -4 76 54 73 l51 -3 0 -55z m463 -2 l3 -58 -56 0 -55 0 0 53 c0 30 3 57 7 61 4 4 28 6 53 4 l45 -3 3 -57z m457 2 l0 -55 -50 0 -50 0 -3 44 c-5 66 1 73 55 69 l48 -3 0 -55z"/>
<path d="M4180 2728 c0 -53 11 -68 46 -68 34 0 34 1 34 45 l0 45 -40 0 c-35 0 -40 -3 -40 -22z"/>
<path d="M4644 2719 c3 -17 6 -38 6 -45 0 -20 70 -15 71 5 1 9 3 28 5 44 3 26 1 27 -43 27 l-45 0 6 -31z"/>
<path d="M5104 2734 c3 -9 6 -29 6 -45 0 -26 3 -29 34 -29 30 0 34 4 40 31 11 57 9 59 -40 59 -38 0 -45 -3 -40 -16z"/>
<path d="M895 2979 c-49 -4 -152 -7 -227 -8 -134 -1 -137 -1 -140 -23 -2 -13 -7 -21 -12 -20 -5 2 -13 -3 -18 -12 -12 -21 -68 -22 -68 -1 0 12 -14 15 -65 15 l-65 0 0 -60 0 -60 64 0 c48 0 65 4 70 15 5 15 46 22 46 7 0 -4 -32 -58 -70 -121 -39 -62 -68 -116 -66 -120 2 -3 58 -6 123 -5 l118 1 5 85 c5 86 12 104 60 146 67 59 240 58 289 -1 12 -15 11 -17 -8 -17 l-22 0 22 -30 c14 -19 24 -49 27 -85 l4 -55 234 0 234 0 0 44 c0 27 9 61 25 90 l24 46 -29 0 c-26 0 -30 -4 -30 -29 0 -50 -12 -53 -227 -52 -175 1 -200 3 -211 19 -18 23 -13 228 6 225 6 -2 12 2 12 7 0 6 -3 9 -7 8 -5 0 -48 -4 -98 -9z m-420 -251 c-64 -116 -63 -114 -71 -105 -3 3 23 55 57 116 35 62 65 107 67 102 2 -6 -22 -56 -53 -113z m32 -33 c-20 -41 -41 -75 -47 -75 -5 0 -10 2 -10 4 0 12 83 156 87 152 3 -3 -11 -39 -30 -81z m28 -44 c-4 -17 -13 -31 -21 -31 -11 0 -11 6 3 35 20 41 28 39 18 -4z"/>
<path d="M2096 2974 c-10 -26 15 -41 77 -49 29 -3 60 -9 70 -11 30 -9 18 15 -20 40 -21 14 -56 28 -79 32 -34 5 -42 3 -48 -12z"/>
<path d="M2625 2976 c-37 -16 -110 -95 -98 -106 16 -15 145 -32 156 -21 31 31 77 -9 77 -66 l0 -33 65 0 65 0 0 48 c0 78 -5 81 -160 89 -74 3 -146 10 -160 14 -27 9 218 2 263 -7 34 -7 34 5 2 40 -49 52 -143 71 -210 42z"/>
<path d="M3215 2973 c-72 -37 -114 -105 -115 -180 l0 -43 70 0 c67 0 70 1 60 19 -14 26 2 65 35 87 21 14 30 14 54 5 44 -19 65 -77 36 -101 -9 -8 -13 -21 -9 -35 8 -34 -29 -69 -64 -60 -48 13 -142 17 -142 7 0 -18 59 -61 98 -72 57 -15 94 -12 142 13 87 44 125 128 106 232 -8 43 -68 113 -113 132 -43 17 -121 16 -158 -4z"/>
<path d="M1976 2938 c-19 -18 -37 -43 -41 -54 -5 -20 0 -22 67 -32 46 -7 74 -8 76 -2 6 17 61 11 90 -9 15 -11 51 -22 80 -25 47 -6 52 -5 52 13 0 14 -9 20 -37 25 -130 22 -210 40 -220 49 -7 5 -13 22 -13 38 0 37 -12 37 -54 -3z"/>
<path d="M997 2953 c-4 -3 -7 -51 -7 -105 0 -91 1 -98 20 -98 19 0 20 7 20 105 0 81 -3 105 -13 105 -8 0 -17 -3 -20 -7z"/>
<path d="M1367 2953 c-4 -3 -7 -52 -7 -109 0 -97 1 -102 20 -97 18 5 20 14 20 109 0 80 -3 104 -13 104 -8 0 -17 -3 -20 -7z"/>
<path d="M1420 2935 c0 -12 15 -15 75 -15 60 0 75 3 75 15 0 12 -15 15 -75 15 -60 0 -75 -3 -75 -15z"/>
<path d="M1420 2885 c0 -12 16 -15 85 -15 69 0 85 3 85 15 0 12 -16 15 -85 15 -69 0 -85 -3 -85 -15z"/>
<path d="M1870 2884 c0 -10 7 -14 22 -12 32 5 35 28 4 28 -17 0 -26 -5 -26 -16z"/>
<path d="M7000 2673 c-6 -15 -15 -36 -20 -45 -6 -10 -10 -20 -10 -23 0 -7 55 -6 74 1 24 9 19 26 -5 19 -18 -6 -20 -4 -14 28 9 44 -11 59 -25 20z"/>
<path d="M6780 2720 c-9 -16 -8 -25 1 -36 27 -33 75 -2 52 35 -15 24 -40 25 -53 1z"/>
<path d="M1420 2845 c0 -12 17 -15 90 -15 73 0 90 3 90 15 0 12 -17 15 -90 15 -73 0 -90 -3 -90 -15z"/>
<path d="M1820 2841 c0 -22 5 -23 150 -46 242 -37 291 -44 375 -55 191 -23 311 -44 327 -58 23 -19 61 -11 73 16 11 24 25 30 25 10 0 -10 53 -12 237 -10 161 1 245 -1 259 -9 32 -17 59 -8 59 20 l0 24 -290 1 -290 1 -3 40 c-4 45 -17 65 -42 65 -22 0 -30 -19 -30 -71 0 -26 -4 -37 -12 -34 -18 7 -187 33 -685 106 -160 23 -153 23 -153 0z m908 -65 c-2 -17 -8 -24 -20 -23 -18 1 -33 26 -22 36 4 3 9 0 11 -6 6 -18 23 -16 23 2 0 8 2 15 5 15 3 0 4 -11 3 -24z"/>
<path d="M2105 2840 c11 -5 27 -9 35 -9 13 -1 13 0 0 9 -8 5 -24 9 -35 9 l-20 0 20 -9z"/>
<path d="M3254 2825 c-9 -14 -14 -34 -10 -48 5 -20 12 -23 48 -22 47 0 58 8 58 42 0 52 -67 72 -96 28z"/>
<path d="M2320 2825 c0 -15 26 -32 36 -23 2 3 2 13 -2 22 -8 20 -34 21 -34 1z"/>
<path d="M709 2807 c-90 -60 -90 -194 0 -254 l34 -23 -252 0 -251 0 0 -32 0 -33 2777 1 2778 1 3 32 3 32 -305 -3 c-168 -2 -306 -1 -306 2 0 3 17 13 38 22 47 22 92 89 92 138 0 41 -9 80 -19 80 -6 0 -40 -80 -65 -153 -5 -16 -16 -17 -92 -15 l-86 3 -22 51 c-11 29 -29 63 -38 75 -17 24 -17 24 -17 -23 -1 -36 -5 -48 -16 -48 -10 0 -15 10 -15 34 0 34 -1 34 -29 26 -24 -7 -31 -5 -34 8 -3 10 -5 -2 -6 -25 -1 -31 -5 -43 -16 -43 -11 0 -15 12 -15 47 0 42 -2 46 -15 33 -8 -8 -25 -42 -39 -75 l-24 -60 -88 0 -88 0 -24 60 c-13 33 -30 67 -38 75 -12 12 -14 10 -15 -20 -1 -19 -1 -41 0 -47 1 -7 -6 -13 -15 -13 -14 0 -16 7 -11 45 l7 45 -45 0 -45 0 7 -45 c5 -38 3 -45 -11 -45 -12 0 -16 10 -16 40 0 22 -4 40 -9 40 -4 0 -23 -32 -40 -70 l-33 -71 -85 3 -85 3 -23 62 c-13 34 -29 72 -36 85 -12 22 -12 22 -20 3 -28 -72 11 -168 83 -204 l43 -21 -430 0 c-2176 -1 -2126 -2 -2088 15 76 33 108 146 60 216 -25 37 -58 47 -163 48 -40 1 -55 -4 -71 -21 -68 -76 -55 -187 29 -238 l33 -20 -360 0 -360 0 33 20 c53 32 74 75 69 142 -4 62 -25 96 -79 124 -42 22 -110 18 -149 -9z m138 -69 c51 -48 15 -138 -56 -138 -49 0 -81 32 -81 81 0 69 86 105 137 57z m812 -4 c44 -56 11 -134 -57 -134 -50 0 -82 32 -82 82 0 51 27 78 79 78 31 0 44 -6 60 -26z m3351 -137 c12 -15 38 -36 58 -47 l37 -19 -195 -1 -195 0 43 21 c23 12 50 32 60 44 19 24 45 30 124 30 39 -1 51 -6 68 -28z m-458 -2 c11 -14 36 -34 56 -45 l37 -19 -195 0 -195 -1 41 19 c23 10 50 30 60 45 18 23 25 25 98 26 72 0 80 -2 98 -25z"/>
<path d="M763 2740 c-46 -19 -55 -69 -18 -105 31 -32 59 -32 91 1 30 29 27 67 -8 97 -22 19 -32 20 -65 7z"/>
<path d="M1555 2725 c-32 -31 -32 -59 1 -91 19 -20 31 -24 52 -19 40 10 52 24 52 61 0 39 -29 74 -60 74 -12 0 -32 -11 -45 -25z"/>
<path d="M2370 2817 c0 -16 21 -27 52 -27 13 0 18 6 16 18 -4 22 -68 31 -68 9z"/>
<path d="M2460 2801 c0 -12 6 -21 16 -21 9 0 14 7 12 17 -5 25 -28 28 -28 4z"/>
<path d="M1780 2798 c-33 -12 -34 -13 -15 -42 9 -13 20 -46 23 -73 l7 -48 47 -3 47 -3 -19 43 c-10 24 -22 62 -26 85 -7 45 -24 56 -64 41z"/>
<path d="M2500 2796 c0 -21 6 -23 84 -31 55 -6 68 -5 64 6 -2 7 -29 18 -59 25 -71 17 -89 17 -89 0z"/>
<path d="M1860 2767 c0 -18 9 -50 19 -72 57 -125 183 -182 315 -143 41 13 136 93 136 116 0 22 -31 12 -57 -18 -60 -72 -176 -95 -261 -51 -50 26 -99 88 -113 147 -14 54 -39 67 -39 21z"/>
<path d="M1914 2759 c31 -157 214 -220 332 -114 l39 35 -70 -4 c-38 -3 -83 -6 -99 -8 -32 -3 -49 18 -61 74 -4 23 -11 27 -57 33 -29 3 -62 9 -72 12 -17 5 -18 1 -12 -28z"/>
<path d="M2090 2735 c-19 -23 -8 -50 23 -53 15 -2 27 2 27 8 0 8 50 11 185 8 102 -2 185 -1 185 2 0 4 -48 12 -107 18 -213 23 -240 25 -247 13 -11 -16 -26 -13 -20 4 8 20 -29 20 -46 0z"/>
<path d="M2345 2658 l-15 -23 71 -3 c39 -2 73 -1 76 2 2 2 -2 13 -9 25 -19 31 -100 30 -123 -1z"/>
<path d="M2480 2670 c0 -23 96 -106 136 -118 101 -30 211 0 272 74 37 44 39 54 14 54 -10 0 -28 -13 -40 -30 -13 -16 -41 -40 -65 -52 -85 -43 -206 -19 -259 52 -21 29 -58 41 -58 20z"/>
<path d="M2552 2659 c52 -84 238 -86 293 -3 l15 24 -54 0 c-35 0 -58 -5 -66 -15 -7 -8 -23 -15 -35 -15 -12 0 -28 7 -35 15 -8 10 -31 15 -71 15 -57 0 -59 -1 -47 -21z"/>
<path d="M2936 2664 c-12 -32 -5 -35 64 -33 39 1 70 4 70 6 0 2 -5 13 -10 24 -14 25 -114 28 -124 3z"/>
</g>
</svg>