<svg xmlns="http://www.w3.org/2000/svg" viewBox="604.90 252.60 755.60 312.20">
<g transform="translate(0.000000,768.000000) scale(0.100000,-0.100000)" fill="currentColor" stroke="none">
<path d="M9542 5084 c-36 -25 -27 -74 17 -96 45 -22 53 -31 45 -51 -7 -19 -44 -23 -61 -6 -20 20 -36 -1 -17 -22 38 -42 109 -9 102 48 -2 21 -12 32 -40 45 -46 22 -55 36 -34 56 14 14 20 15 37 3 31 -19 47 2 18 23 -29 20 -39 20 -67 0z"/>
<path d="M10950 5056 c0 -46 0 -46 -35 -46 -34 0 -35 1 -35 40 0 22 -4 40 -10 40 -6 0 -10 -40 -10 -100 0 -60 4 -100 10 -100 6 0 10 20 10 45 0 45 0 45 35 45 35 0 35 0 35 -46 0 -30 4 -44 11 -42 17 6 18 200 2 205 -9 3 -13 -9 -13 -41z"/>
<path d="M12398 5094 c-5 -4 -8 -47 -8 -94 0 -66 4 -91 15 -100 9 -7 17 -11 19 -9 8 8 -19 211 -26 203z"/>
<path d="M10282 4999 c2 -74 6 -94 20 -103 21 -13 36 0 20 16 -7 7 -12 44 -12 95 0 68 -3 83 -15 83 -13 0 -15 -15 -13 -91z"/>
<path d="M10350 5074 c0 -9 5 -14 12 -12 18 6 21 28 4 28 -9 0 -16 -7 -16 -16z"/>
<path d="M10740 5060 c0 -27 -2 -29 -29 -24 -35 7 -51 -15 -51 -73 0 -53 12 -66 59 -69 l41 -2 0 99 c0 59 -4 99 -10 99 -5 0 -10 -13 -10 -30z m-12 -93 c3 -42 1 -47 -17 -47 -18 0 -21 6 -21 43 0 24 3 47 7 51 16 15 28 -3 31 -47z"/>
<path d="M11230 5080 c0 -5 7 -10 15 -10 8 0 15 5 15 10 0 6 -7 10 -15 10 -8 0 -15 -4 -15 -10z"/>
<path d="M11810 4990 l0 -100 38 0 c59 0 75 17 80 89 6 84 -12 111 -73 111 l-45 0 0 -100z m79 66 c7 -9 11 -38 9 -73 -3 -55 -4 -58 -30 -61 l-28 -3 0 75 c0 68 2 76 19 76 10 0 24 -6 30 -14z"/>
<path d="M11960 5074 c0 -17 22 -14 28 4 2 7 -3 12 -12 12 -9 0 -16 -7 -16 -16z"/>
<path d="M9658 5058 c-8 -49 7 -151 24 -162 21 -13 36 0 20 16 -16 16 -16 105 1 112 10 5 10 7 0 12 -7 3 -13 14 -13 25 0 27 -27 24 -32 -3z"/>
<path d="M11289 5058 c-3 -53 4 -134 12 -150 12 -22 39 -24 39 -3 0 8 -4 15 -10 15 -5 0 -10 20 -10 45 0 25 5 45 10 45 6 0 10 7 10 15 0 8 -4 15 -10 15 -5 0 -10 9 -10 20 0 28 -30 25 -31 -2z"/>
<path d="M9740 4963 c0 -86 18 -99 22 -15 3 50 6 57 26 60 37 6 26 30 -13 29 l-35 -1 0 -73z"/>
<path d="M9846 5024 c-35 -34 -13 -134 29 -134 24 0 45 12 45 26 0 10 -8 12 -30 8 -19 -4 -30 -2 -30 5 0 19 5 26 14 23 6 -2 20 -1 33 3 27 6 30 31 7 63 -18 26 -46 28 -68 6z m54 -29 c0 -9 -9 -15 -25 -15 -24 0 -32 10 -18 23 12 13 43 7 43 -8z"/>
<path d="M9973 5033 c-27 -10 -13 -30 17 -25 23 3 30 0 30 -12 0 -10 -9 -16 -23 -16 -29 0 -47 -18 -47 -46 0 -30 19 -42 63 -41 l37 1 0 54 c0 29 -5 62 -10 73 -10 18 -40 24 -67 12z m47 -92 c0 -26 -17 -36 -36 -21 -11 10 -12 16 -3 26 17 20 39 17 39 -5z"/>
<path d="M10080 4964 c0 -59 3 -74 15 -74 12 0 15 13 15 60 0 53 2 60 20 60 16 0 19 -8 22 -57 4 -81 28 -85 28 -4 0 54 2 61 20 61 16 0 19 -8 22 -55 2 -30 8 -56 13 -58 14 -3 18 98 5 123 -11 21 -44 27 -55 10 -4 -7 -11 -8 -18 -1 -7 5 -29 9 -49 9 l-38 0 0 -74z"/>
<path d="M10350 4965 c0 -57 3 -76 13 -72 8 2 12 26 12 72 0 46 -4 70 -12 73 -10 3 -13 -16 -13 -73z"/>
<path d="M10410 4963 c0 -42 4 -73 10 -73 6 0 10 20 10 44 0 57 8 76 31 76 17 0 19 -8 19 -60 0 -47 3 -60 15 -60 12 0 15 13 15 56 0 77 -11 93 -60 91 l-40 -1 0 -73z"/>
<path d="M10558 5029 c-13 -7 -18 -23 -18 -59 0 -66 27 -92 74 -74 29 11 18 32 -16 30 -50 -2 -44 28 5 32 37 3 38 5 32 30 -12 50 -39 64 -77 41z m52 -35 c0 -8 -10 -14 -25 -14 -27 0 -32 9 -14 27 14 14 39 6 39 -13z"/>
<path d="M11022 5028 c-7 -7 -12 -33 -12 -59 0 -64 27 -91 74 -73 29 11 18 32 -16 30 -50 -2 -44 28 5 32 37 3 38 5 32 30 -4 15 -11 33 -17 39 -13 16 -50 17 -66 1z m56 -31 c3 -12 -4 -17 -22 -17 -28 0 -33 9 -14 28 15 15 32 10 36 -11z"/>
<path d="M11134 5025 c-10 -25 1 -128 14 -133 8 -2 12 12 12 50 0 56 12 80 36 71 8 -3 14 1 14 11 0 11 -9 15 -36 14 -20 -1 -38 -7 -40 -13z"/>
<path d="M11232 4968 c2 -46 7 -73 16 -76 9 -3 12 16 12 72 0 62 -3 76 -15 76 -13 0 -15 -12 -13 -72z"/>
<path d="M11380 5025 c-7 -8 -9 -15 -4 -16 5 -1 18 -2 29 -2 28 -3 30 -21 3 -25 -23 -3 -48 -27 -48 -46 1 -25 21 -40 59 -42 l41 -2 0 62 c0 35 -5 67 -12 74 -17 17 -53 15 -68 -3z m60 -79 c0 -20 -24 -36 -39 -26 -8 4 -11 15 -8 24 8 20 47 21 47 2z"/>
<path d="M11500 5020 c-13 -25 -13 -86 1 -112 8 -15 17 -18 36 -13 20 5 24 2 21 -12 -3 -14 -11 -17 -38 -15 -30 3 -32 2 -21 -12 19 -23 68 -21 81 3 5 11 10 55 10 99 l0 80 -40 0 c-29 1 -43 -4 -50 -18z m58 -53 c3 -42 1 -47 -17 -47 -18 0 -21 6 -21 43 0 24 3 47 7 51 16 15 28 -3 31 -47z"/>
<path d="M11630 5021 c-15 -30 -12 -97 6 -115 24 -24 74 -17 74 10 0 10 -8 12 -30 8 -28 -6 -35 0 -27 24 1 4 15 7 32 7 36 0 44 24 21 60 -20 30 -61 33 -76 6z m60 -26 c0 -9 -9 -15 -25 -15 -24 0 -32 10 -18 23 12 13 43 7 43 -8z"/>
<path d="M11960 4965 c0 -57 3 -76 13 -72 8 2 12 26 12 72 0 46 -4 70 -12 73 -10 3 -13 -16 -13 -73z"/>
<path d="M12032 5028 c-18 -18 -15 -103 4 -122 17 -18 42 -20 64 -6 19 12 6 24 -28 25 -18 0 -28 6 -30 18 -3 16 2 18 35 16 37 -3 38 -3 35 26 -2 16 -8 35 -14 42 -13 16 -50 17 -66 1z m58 -39 c0 -5 -11 -9 -25 -9 -27 0 -32 9 -13 28 12 12 38 -1 38 -19z"/>
<path d="M12150 5025 c-20 -25 -4 -62 30 -68 19 -4 30 -13 30 -23 0 -13 -7 -16 -36 -11 -24 4 -34 2 -32 -5 12 -35 81 -34 93 1 9 29 -5 52 -36 58 -36 7 -43 17 -23 33 11 10 18 10 26 2 16 -16 28 -15 28 2 0 27 -60 36 -80 11z"/>
<path d="M12276 5024 c-24 -23 -21 -96 4 -119 16 -15 26 -17 48 -9 35 12 30 30 -8 26 -25 -3 -30 0 -30 17 0 17 6 21 35 21 40 0 46 19 19 58 -18 26 -46 28 -68 6z m54 -24 c10 -18 8 -20 -20 -20 -28 0 -30 2 -20 20 6 11 15 20 20 20 5 0 14 -9 20 -20z"/>
<path d="M7904 4735 c0 -55 1 -76 3 -47 2 29 2 74 0 100 -2 26 -3 2 -3 -53z"/>
<path d="M12403 4160 c-13 -21 -23 -41 -23 -44 0 -4 117 -6 260 -6 156 0 260 4 260 9 0 6 -9 26 -21 45 l-21 36 -216 0 -217 0 -22 -40z"/>
<path d="M9867 4093 c-3 -4 -3 -20 0 -35 4 -23 8 -26 23 -18 30 16 50 12 50 -10 0 -20 -7 -20 -309 -20 l-310 0 31 -70 31 -70 318 0 319 0 0 70 c0 68 -1 70 -25 70 -18 0 -25 5 -25 19 0 16 5 17 50 10 27 -4 54 -11 60 -14 6 -4 10 10 10 35 0 37 -2 40 -19 30 -26 -13 -174 -13 -188 1 -6 6 -13 7 -16 2z"/>
<path d="M12426 4053 c8 -25 14 -93 15 -198 0 -88 4 -199 8 -247 l6 -87 24 18 c23 18 23 18 5 52 -29 54 -25 136 9 187 121 183 397 29 308 -173 l-21 -47 23 -18 22 -18 7 41 c3 23 7 105 8 182 2 157 13 301 24 328 8 16 -7 17 -222 17 l-230 0 14 -37z"/>
<path d="M8603 4038 c2 -20 -3 -23 -40 -26 l-43 -3 0 -110 0 -109 145 0 145 0 0 -190 0 -190 145 0 145 0 0 125 0 125 85 0 85 0 0 -77 0 -78 41 68 c22 37 44 67 50 67 5 0 9 46 9 107 0 98 -3 113 -32 185 -27 63 -37 78 -55 78 -22 0 -22 -3 -25 -122 l-3 -123 -197 0 -198 -1 0 123 0 123 -55 0 c-52 0 -55 1 -55 25 0 24 -2 25 -75 25 -72 0 -75 -1 -72 -22z"/>
<path d="M6970 4015 l0 -25 156 0 155 0 -3 23 c-3 22 -6 22 -155 25 l-153 3 0 -26z"/>
<path d="M7330 4016 l0 -25 155 -3 156 -3 -3 25 -3 25 -152 3 -153 3 0 -25z"/>
<path d="M8870 3895 c0 -70 4 -115 10 -115 6 0 10 43 10 110 0 67 4 110 10 110 6 0 10 -43 10 -110 0 -146 18 -144 23 3 l3 112 2 -112 c3 -149 22 -152 22 -3 0 67 4 110 10 110 6 0 10 -43 10 -110 0 -146 18 -144 23 3 l3 112 2 -112 c3 -149 22 -152 22 -3 0 67 4 110 10 110 6 0 10 -43 10 -110 0 -146 18 -144 23 3 l3 112 2 -112 c3 -149 22 -152 22 -3 0 67 4 110 10 110 6 0 10 -43 10 -110 0 -146 18 -144 23 3 l3 112 2 -112 c3 -149 22 -152 22 -3 0 67 4 110 10 110 6 0 10 -43 10 -110 0 -146 18 -144 23 3 l3 112 2 -112 c3 -153 22 -150 22 2 l0 115 -185 0 -185 0 0 -115z"/>
<path d="M10040 4005 c-1 -3 -1 -39 -1 -80 0 -41 0 -122 1 -180 l0 -105 108 0 107 0 44 -65 44 -64 86 -3 86 -3 0 -345 0 -345 -2 338 -3 338 -43 -3 -42 -3 -3 -202 -3 -201 23 -4 c13 -2 23 -10 23 -18 0 -13 -224 -15 -1942 -18 -1938 -2 -1943 -2 -1943 18 0 13 7 20 20 20 19 0 20 7 20 155 l0 155 -45 0 -45 0 -1 -287 -2 -288 -9 175 c-4 96 -7 229 -6 295 l3 120 88 3 87 3 0 124 0 125 94 0 c66 0 96 -4 99 -12 2 -7 2 -64 -1 -125 -5 -111 -5 -113 17 -113 20 0 21 4 21 125 l0 126 148 -3 147 -3 3 -122 c2 -100 5 -123 17 -123 12 0 15 22 15 125 l0 125 240 0 240 0 0 65 0 65 83 0 c45 1 218 1 385 1 l302 -1 0 90 0 90 -1019 0 -1019 0 -6 -22 c-3 -13 -6 -38 -6 -55 0 -23 -5 -33 -15 -33 -11 0 -15 -12 -15 -45 0 -33 4 -45 15 -45 13 0 15 -43 15 -329 0 -181 3 -336 6 -345 5 -14 -3 -16 -55 -16 l-61 0 0 144 c0 79 -3 151 -6 160 -4 11 -19 16 -45 16 l-39 0 0 -160 c0 -100 -4 -160 -10 -160 -5 0 -10 -13 -10 -30 0 -28 2 -30 40 -30 l40 0 0 -50 c0 -43 -3 -50 -17 -48 -13 2 -19 -5 -21 -24 -2 -20 -9 -28 -23 -28 -10 0 -19 5 -19 10 0 6 -25 10 -55 10 l-55 0 0 -60 0 -60 51 0 c32 0 56 6 66 16 21 20 42 2 28 -24 -6 -9 -9 -54 -7 -99 l4 -83 43 0 c40 0 43 2 47 30 3 16 1 33 -3 37 -10 11 -16 399 -6 409 4 4 7 -9 7 -29 l0 -37 65 0 c37 0 65 -4 65 -10 0 -6 -28 -10 -65 -10 l-65 0 0 -45 0 -45 65 0 c37 0 65 -4 65 -10 0 -6 -28 -10 -65 -10 l-65 0 0 -45 0 -45 73 -2 72 -2 -70 -5 -70 -6 0 -40 0 -40 85 -3 c47 -2 89 -7 94 -12 6 -6 18 -10 28 -10 15 0 18 8 18 43 0 23 5 79 12 125 l11 82 617 0 c479 0 619 -3 629 -12 10 -9 12 -9 7 -1 -3 6 -2 14 4 18 6 4 10 -5 10 -19 l0 -26 500 0 501 0 -3 58 -3 57 -355 -1 c-195 -1 -472 -5 -615 -8 -159 -4 -256 -3 -250 3 18 16 198 20 925 20 449 1 718 -3 724 -9 5 -5 6 -13 2 -17 -4 -4 -11 -2 -15 5 -6 9 -54 12 -197 10 l-189 -3 -3 -32 -3 -33 110 0 c101 0 110 -2 116 -20 8 -25 70 -29 79 -5 5 13 81 15 628 13 l623 -3 9 -122 c8 -110 11 -123 27 -123 11 0 19 5 19 10 0 6 38 10 95 10 l95 0 0 45 0 44 -72 4 -73 3 73 2 72 2 0 45 0 45 -64 0 c-36 0 -68 5 -71 10 -4 6 20 10 64 10 l71 0 0 45 0 45 -65 0 c-37 0 -65 4 -65 10 0 6 28 10 65 10 l65 0 0 35 c0 19 5 35 10 35 6 0 10 -75 10 -205 0 -130 -4 -205 -10 -205 -5 0 -10 -16 -10 -35 0 -35 0 -35 44 -35 l45 0 3 84 c2 47 -1 92 -7 100 -15 24 11 45 28 22 10 -13 24 -17 67 -14 l55 3 -1 35 c-3 85 1 80 -58 80 -30 0 -58 -4 -61 -10 -14 -22 -35 -10 -35 21 0 26 -3 31 -20 26 -18 -5 -20 0 -20 43 l0 49 38 3 c32 3 37 7 40 31 2 15 -1 27 -7 27 -7 0 -11 57 -13 158 l-3 157 -35 0 -35 0 -3 -157 -3 -158 -59 0 -60 0 0 283 c0 155 -4 287 -8 294 -12 19 -47 22 -292 28 l-235 5 -3 75 -3 75 61 0 62 0 -7 77 c-4 43 -12 81 -18 85 -13 9 -107 11 -107 3z m100 -100 c0 -35 0 -35 -45 -35 -45 0 -45 0 -45 35 0 35 0 35 45 35 45 0 45 0 45 -35z m-2470 -105 l0 -110 -547 2 -548 3 -3 108 -3 107 551 0 550 0 0 -110z m-1350 -570 l0 -150 -25 0 -25 0 0 150 0 150 25 0 25 0 0 -150z m4450 0 c0 -143 -1 -150 -20 -150 -19 0 -20 7 -20 150 0 143 1 150 20 150 19 0 20 -7 20 -150z"/>
<path d="M7060 3800 c0 -53 4 -90 10 -90 6 0 10 37 10 90 0 53 -4 90 -10 90 -6 0 -10 -37 -10 -90z"/>
<path d="M7090 3800 c0 -53 4 -90 10 -90 6 0 10 37 10 90 0 53 -4 90 -10 90 -6 0 -10 -37 -10 -90z"/>
<path d="M7130 3800 c0 -53 4 -90 10 -90 6 0 10 37 10 90 0 53 -4 90 -10 90 -6 0 -10 -37 -10 -90z"/>
<path d="M7160 3800 c0 -53 4 -90 10 -90 6 0 10 37 10 90 0 53 -4 90 -10 90 -6 0 -10 -37 -10 -90z"/>
<path d="M7200 3800 c0 -53 4 -90 10 -90 6 0 10 37 10 90 0 53 -4 90 -10 90 -6 0 -10 -37 -10 -90z"/>
<path d="M7230 3800 c0 -53 4 -90 10 -90 6 0 10 37 10 90 0 53 -4 90 -10 90 -6 0 -10 -37 -10 -90z"/>
<path d="M7268 3818 c5 -114 9 -122 11 -20 0 50 -3 92 -7 92 -4 0 -6 -33 -4 -72z"/>
<path d="M7300 3800 c0 -53 4 -90 10 -90 6 0 10 37 10 90 0 53 -4 90 -10 90 -6 0 -10 -37 -10 -90z"/>
<path d="M7330 3800 c0 -53 4 -90 10 -90 6 0 10 37 10 90 0 53 -4 90 -10 90 -6 0 -10 -37 -10 -90z"/>
<path d="M7370 3800 c0 -53 4 -90 10 -90 6 0 10 37 10 90 0 53 -4 90 -10 90 -6 0 -10 -37 -10 -90z"/>
<path d="M7400 3800 c0 -53 4 -90 10 -90 6 0 10 37 10 90 0 53 -4 90 -10 90 -6 0 -10 -37 -10 -90z"/>
<path d="M7440 3798 c0 -50 3 -88 7 -84 10 10 12 176 2 176 -5 0 -9 -41 -9 -92z"/>
<path d="M7470 3800 c0 -53 4 -90 10 -90 6 0 10 37 10 90 0 53 -4 90 -10 90 -6 0 -10 -37 -10 -90z"/>
<path d="M7500 3800 c0 -53 4 -90 10 -90 6 0 10 37 10 90 0 53 -4 90 -10 90 -6 0 -10 -37 -10 -90z"/>
<path d="M7540 3800 c0 -53 4 -90 10 -90 6 0 10 37 10 90 0 53 -4 90 -10 90 -6 0 -10 -37 -10 -90z"/>
<path d="M7570 3800 c0 -53 4 -90 10 -90 6 0 10 37 10 90 0 53 -4 90 -10 90 -6 0 -10 -37 -10 -90z"/>
<path d="M7610 3800 c0 -53 4 -90 10 -90 6 0 10 37 10 90 0 53 -4 90 -10 90 -6 0 -10 -37 -10 -90z"/>
<path d="M7640 3800 c0 -53 4 -90 10 -90 6 0 10 37 10 90 0 53 -4 90 -10 90 -6 0 -10 -37 -10 -90z"/>
<path d="M9390 3745 c0 -98 1 -105 20 -105 11 0 20 -4 20 -10 0 -5 -9 -10 -20 -10 -19 0 -20 -7 -20 -155 l0 -155 315 0 315 0 0 155 c0 148 -1 155 -20 155 -11 0 -20 5 -20 10 0 6 9 10 20 10 19 0 20 7 20 105 l0 105 -315 0 -315 0 0 -105z m300 -55 l0 -100 -70 0 -70 0 0 100 0 100 70 0 70 0 0 -100z m168 -2 l3 -98 -76 0 -75 0 0 100 0 101 73 -3 72 -3 3 -97z"/>
<path d="M12560 3818 c-79 -54 -101 -138 -56 -220 l25 -47 -29 -21 c-15 -11 -33 -20 -39 -20 -6 0 -11 -9 -11 -19 0 -17 4 -18 32 -10 83 23 272 20 341 -7 12 -4 14 0 10 15 -3 12 -10 21 -17 21 -6 1 -22 10 -35 21 l-24 20 21 43 c60 119 -9 246 -134 246 -36 0 -60 -6 -84 -22z m141 -23 c64 -34 87 -120 49 -182 -30 -50 -62 -66 -120 -61 -60 6 -95 34 -112 90 -33 110 81 205 183 153z"/>
<path d="M12320 3804 c-251 -54 -522 -194 -576 -296 -22 -43 -18 -68 11 -68 l25 0 0 -445 0 -445 106 0 c106 0 106 0 100 23 -35 118 -43 295 -17 385 10 32 10 32 -27 32 -20 0 -47 3 -60 6 l-22 6 2 212 3 211 79 3 c57 2 82 -1 87 -10 5 -7 9 -71 9 -143 l1 -130 22 36 c12 19 38 55 57 79 l35 44 -4 122 c-1 67 0 131 3 142 15 45 153 54 176 12 5 -10 10 -48 10 -84 l0 -64 40 15 c27 11 42 24 46 40 4 13 3 93 -1 178 -8 175 2 162 -105 139z"/>
<path d="M12858 3700 c-4 -247 -8 -221 37 -247 22 -12 43 -23 48 -23 4 0 7 33 7 74 0 90 10 101 90 101 88 -1 90 -4 90 -166 l0 -138 50 -66 c28 -36 50 -70 50 -76 0 -5 3 -9 8 -9 4 0 6 57 4 126 -2 86 1 130 9 140 8 10 34 14 85 14 62 0 75 -3 84 -19 6 -12 10 -98 10 -210 0 -215 2 -211 -81 -211 -40 0 -41 -1 -35 -27 4 -16 9 -75 12 -133 6 -98 -7 -201 -31 -262 -7 -17 2 -18 99 -18 l106 0 2 442 3 442 25 6 c14 3 25 11 24 18 -1 7 -2 19 -2 27 -3 24 -82 104 -139 141 -119 76 -248 129 -418 170 -147 35 -135 44 -137 -96z"/>
<path d="M7750 3595 l0 -185 70 0 70 0 0 185 0 185 -70 0 -70 0 0 -185z"/>
<path d="M7910 3595 l0 -185 65 0 65 0 0 185 0 185 -65 0 -65 0 0 -185z"/>
<path d="M8050 3595 l0 -185 70 0 70 0 0 185 0 185 -70 0 -70 0 0 -185z"/>
<path d="M8210 3595 l0 -186 66 3 66 3 1 100 c0 55 0 137 -1 183 l-2 82 -65 0 -65 0 0 -185z"/>
<path d="M8360 3595 l0 -185 65 0 65 0 0 185 0 185 -65 0 -65 0 0 -185z"/>
<path d="M8510 3595 l0 -185 70 0 70 0 0 185 0 185 -70 0 -70 0 0 -185z"/>
<path d="M8670 3595 l0 -185 60 0 60 0 0 93 c0 52 3 135 6 185 l7 92 -67 0 -66 0 0 -185z"/>
<path d="M9120 3530 l0 -120 50 0 c45 0 51 3 65 30 10 20 15 58 15 120 l0 90 -65 0 -65 0 0 -120z"/>
<path d="M7080 3525 l0 -115 60 0 60 0 0 115 0 115 -60 0 -60 0 0 -115z"/>
<path d="M7270 3525 l0 -115 80 0 80 0 0 115 0 115 -80 0 -80 0 0 -115z"/>
<path d="M7450 3525 l0 -115 65 0 65 0 0 115 0 115 -65 0 -65 0 0 -115z"/>
<path d="M7592 3528 l3 -113 68 -3 67 -3 0 116 0 115 -71 0 -70 0 3 -112z"/>
<path d="M9313 3546 c-43 -72 -43 -74 -42 -167 0 -52 3 -88 6 -81 3 7 23 12 49 12 l44 0 0 155 c0 85 -3 155 -7 155 -5 0 -27 -33 -50 -74z"/>
<path d="M10040 3465 l0 -155 140 0 140 0 10 -26 c6 -14 10 -45 10 -68 0 -24 3 -64 6 -90 6 -40 10 -46 30 -46 l24 0 0 205 0 205 -29 0 c-25 0 -37 10 -76 65 l-46 65 -105 0 -104 0 0 -155z"/>
<path d="M12193 3580 c-22 -9 -23 -14 -23 -136 l0 -126 28 22 c15 12 48 35 75 52 l47 31 0 71 c0 43 -5 77 -12 84 -14 14 -83 15 -115 2z"/>
<path d="M12988 3583 c-15 -4 -18 -17 -18 -84 l0 -79 43 -26 c23 -15 54 -38 70 -52 l27 -26 0 127 c0 115 -2 127 -19 137 -20 10 -71 12 -103 3z"/>
<path d="M12505 3466 c-233 -54 -411 -210 -491 -431 -104 -286 -3 -616 240 -789 206 -147 480 -164 711 -43 91 48 221 183 268 278 105 214 101 437 -11 654 -46 89 -172 217 -257 262 -136 71 -327 100 -460 69z m155 -50 c0 -8 -5 -18 -11 -22 -14 -8 -33 11 -25 25 10 16 36 13 36 -3z m-424 -167 c10 -17 -13 -36 -27 -22 -12 12 -4 33 11 33 5 0 12 -5 16 -11z m842 -12 c2 -10 -3 -17 -12 -17 -18 0 -29 16 -21 31 9 14 29 6 33 -14z m-357 -7 c87 -16 170 -63 233 -131 80 -86 70 -105 -11 -21 -78 80 -127 108 -224 128 -237 49 -468 -126 -486 -369 -10 -132 30 -242 123 -334 167 -167 425 -158 591 21 l57 61 -77 3 c-119 4 -92 22 33 22 81 0 110 3 110 13 0 6 5 4 11 -6 14 -24 5 -34 -29 -29 -25 3 -33 -2 -51 -31 -63 -103 -200 -185 -323 -194 -338 -25 -573 327 -423 634 86 174 275 269 466 233z m369 -235 c0 -5 -5 -17 -11 -25 -8 -11 -12 -12 -16 -2 -3 8 -35 12 -109 12 -83 0 -104 3 -104 14 0 11 23 14 120 13 72 -1 120 -6 120 -12z m-375 -24 c136 -61 150 -244 26 -328 -163 -110 -359 85 -255 254 52 83 144 113 229 74z m342 -47 c23 -78 11 -282 -19 -300 -18 -11 -19 5 -4 57 24 78 20 178 -9 268 -5 17 -4 22 6 19 8 -3 19 -22 26 -44z m-1004 -130 c-7 -18 -33 -18 -33 -1 0 19 10 27 25 20 8 -2 11 -11 8 -19z m1215 8 c5 -17 -27 -27 -41 -13 -9 9 -8 14 3 21 18 11 32 8 38 -8z m-1033 -443 c0 -7 -8 -15 -17 -17 -18 -3 -25 18 -11 32 10 10 28 1 28 -15z m843 -2 c2 -12 -3 -17 -17 -17 -12 0 -21 6 -21 13 0 31 32 34 38 4z m-418 -172 c0 -8 -6 -15 -14 -15 -17 0 -28 14 -19 24 12 12 33 6 33 -9z"/>
<path d="M12570 2948 c-61 -32 -83 -66 -87 -135 -5 -70 16 -117 66 -150 97 -65 220 -20 251 93 30 105 -55 214 -165 214 -12 0 -41 -10 -65 -22z"/>
<path d="M9238 3413 c-5 -18 -14 -23 -37 -23 l-31 0 0 -155 0 -155 24 0 c23 0 24 3 24 64 0 40 7 78 19 102 14 31 17 55 13 114 -3 47 -7 67 -12 53z"/>
<path d="M7080 3270 l0 -120 60 0 60 0 0 120 0 120 -60 0 -60 0 0 -120z"/>
<path d="M7220 3270 c0 -100 3 -120 15 -120 13 0 15 20 15 120 0 100 -2 120 -15 120 -12 0 -15 -20 -15 -120z"/>
<path d="M7270 3270 l0 -120 80 0 80 0 0 120 0 120 -80 0 -80 0 0 -120z"/>
<path d="M7450 3270 l0 -120 55 0 55 0 0 120 0 120 -55 0 -55 0 0 -120z"/>
<path d="M7592 3270 l-3 -120 70 0 71 0 0 120 0 120 -67 0 -68 0 -3 -120z"/>
<path d="M7750 3270 l0 -120 65 0 65 0 0 120 0 120 -65 0 -65 0 0 -120z"/>
<path d="M7910 3270 l0 -120 65 0 65 0 0 120 0 120 -65 0 -65 0 0 -120z"/>
<path d="M8050 3270 l0 -120 70 0 70 0 0 120 0 120 -70 0 -70 0 0 -120z"/>
<path d="M8220 3270 l0 -121 61 3 60 3 3 118 3 117 -64 0 -63 0 0 -120z"/>
<path d="M8360 3270 l0 -120 65 0 65 0 0 120 0 120 -65 0 -65 0 0 -120z"/>
<path d="M8514 3270 c0 -69 1 -97 3 -62 2 34 2 90 0 125 -2 34 -3 6 -3 -63z"/>
<path d="M8532 3273 l3 -118 58 -3 57 -3 0 121 0 120 -60 0 -61 0 3 -117z"/>
<path d="M8670 3270 l0 -120 59 0 60 0 6 53 c4 28 5 82 3 119 l-3 68 -62 0 -63 0 0 -120z"/>
<path d="M8810 3263 l0 -128 -137 0 -138 0 -3 -27 -3 -28 150 0 151 0 0 155 c0 97 -4 155 -10 155 -6 0 -10 -49 -10 -127z"/>
<path d="M8850 3235 l0 -155 150 0 150 0 0 155 c0 135 -2 155 -16 155 -14 0 -15 -17 -12 -130 2 -84 -1 -129 -7 -127 -6 2 -11 57 -13 130 l-3 127 -124 0 -125 0 0 -155z"/>
<path d="M9260 3248 c-26 -35 -30 -50 -30 -105 l0 -63 148 0 c559 -1 946 1 950 5 3 3 1 49 -4 102 l-9 98 -172 3 -172 2 -4 -27 -4 -28 -2 28 -1 27 -259 0 -260 0 -4 -27 -4 -28 -2 28 c-1 27 -2 27 -71 27 l-70 0 -30 -42z m450 12 c0 -11 -4 -20 -10 -20 -5 0 -10 9 -10 20 0 11 5 20 10 20 6 0 10 -9 10 -20z m-145 -150 c89 0 125 3 128 13 4 9 7 9 14 0 5 -8 51 -13 131 -15 111 -3 122 -1 122 15 0 9 5 17 10 17 6 0 10 -11 10 -25 l0 -25 -275 0 -275 0 1 28 c1 16 3 20 6 10 4 -16 19 -18 128 -18z"/>
<path d="M6950 3110 l0 -30 150 0 150 0 0 30 0 30 -150 0 -150 0 0 -30z"/>
<path d="M7270 3110 l0 -30 150 0 c157 0 160 1 144 44 -5 14 -28 16 -150 16 l-144 0 0 -30z"/>
<path d="M7587 3133 c-4 -3 -7 -17 -7 -30 l0 -23 150 0 150 0 0 30 0 30 -143 0 c-79 0 -147 -3 -150 -7z"/>
<path d="M7907 3134 c-4 -4 -7 -18 -7 -31 l0 -23 151 0 150 0 -3 28 -3 27 -141 3 c-77 1 -143 -1 -147 -4z"/>
<path d="M8220 3110 l0 -30 150 0 150 0 0 24 c0 13 -7 27 -16 30 -9 3 -76 6 -150 6 l-134 0 0 -30z"/>
<path d="M8885 2868 l-10 -23 -473 -3 -473 -2 3 -118 3 -117 580 0 580 0 0 140 0 140 -100 3 c-96 3 -100 2 -110 -20z"/>
<path d="M6680 2850 c-14 -11 -35 -20 -47 -20 -20 0 -23 -5 -23 -35 0 -33 2 -35 33 -35 25 0 37 -7 55 -33 12 -18 22 -42 22 -53 0 -12 -10 -2 -27 29 -15 26 -31 46 -37 44 -6 -2 -12 -26 -14 -53 -2 -42 2 -56 28 -92 16 -23 46 -48 65 -56 19 -8 35 -16 35 -18 0 -2 -150 -3 -332 -3 l-333 0 -3 -27 c-3 -21 1 -28 15 -29 14 0 4731 0 4806 1 12 0 17 8 17 30 l0 30 -332 0 c-293 1 -329 2 -301 15 51 22 93 88 93 147 0 40 -3 48 -19 48 -12 0 -26 -15 -39 -42 -13 -27 -21 -36 -22 -24 0 11 10 35 23 53 18 27 28 33 60 33 23 0 37 5 37 13 0 30 -14 57 -29 57 -9 0 -31 9 -49 20 -26 16 -50 20 -127 20 -85 0 -100 -3 -135 -25 -33 -21 -52 -25 -110 -25 -68 0 -70 1 -70 25 0 25 -1 25 -85 25 -84 0 -85 0 -85 -25 0 -24 -2 -25 -72 -25 -60 1 -80 5 -113 25 -36 22 -51 25 -141 25 -78 0 -104 -3 -114 -15 -7 -9 -29 -15 -50 -15 -58 0 -70 -8 -70 -46 l0 -34 53 0 c57 -1 80 -19 92 -76 l6 -29 -17 30 c-23 42 -45 65 -55 59 -5 -3 -9 -27 -9 -53 0 -38 7 -57 31 -91 17 -23 44 -47 60 -53 16 -6 29 -14 29 -17 0 -3 -388 -4 -862 -2 -860 3 -863 3 -826 22 59 31 83 74 83 147 l0 62 39 3 c38 3 40 4 40 38 l0 35 -57 5 c-31 3 -62 11 -69 18 -8 8 -46 12 -116 12 -93 0 -106 -2 -140 -25 -30 -21 -49 -25 -104 -25 -61 0 -67 2 -70 23 -3 21 -8 22 -90 25 l-88 3 0 -26 c0 -24 -2 -25 -60 -25 -45 0 -74 7 -110 25 -43 22 -62 25 -147 25 -82 0 -102 -4 -123 -20z m213 -95 c16 -14 25 -30 22 -35 -4 -7 95 -10 289 -10 163 0 296 3 296 8 0 4 11 20 25 35 23 24 33 27 89 27 42 0 67 -5 75 -14 9 -11 3 -12 -40 -4 -34 6 -61 6 -84 -2 -38 -12 -64 -38 -49 -48 5 -4 10 -15 11 -26 1 -13 -2 -15 -10 -7 -14 14 -77 15 -77 1 0 -23 31 -83 52 -101 13 -11 37 -26 53 -34 26 -13 -13 -14 -335 -15 l-364 0 44 23 c44 22 89 82 90 118 0 18 -62 34 -68 18 -7 -19 -19 -8 -15 14 3 13 -4 31 -17 44 -17 19 -29 22 -75 19 -31 -2 -62 -10 -70 -16 -8 -7 -15 -8 -15 -3 0 22 28 33 85 33 49 -1 65 -5 88 -25z m2617 3 c17 -12 30 -28 30 -35 0 -10 57 -13 290 -13 233 0 290 3 290 13 0 7 13 23 30 35 34 25 124 31 154 9 14 -10 4 -12 -59 -9 -94 5 -119 -10 -104 -61 11 -39 11 -37 0 -37 -5 0 -11 8 -13 18 -7 25 -68 18 -68 -7 0 -29 51 -98 89 -120 l36 -21 -355 0 -355 0 42 25 c27 16 49 40 62 68 26 54 26 67 2 67 -11 0 -26 3 -35 6 -10 4 -16 1 -16 -9 0 -9 -4 -18 -9 -22 -6 -3 -6 7 -1 27 8 25 6 36 -7 51 -15 15 -29 18 -90 15 -40 -2 -73 0 -73 4 0 11 23 16 78 17 40 1 60 -5 82 -21z m-1750 -3 c0 -8 -52 -85 -57 -85 -10 0 8 51 24 70 16 19 33 26 33 15z m-921 -19 c7 -8 11 -27 9 -43 -2 -23 -9 -29 -33 -31 -46 -6 -71 40 -39 72 19 20 48 20 63 2z m811 0 c15 -19 9 -56 -11 -69 -9 -5 -28 -7 -42 -3 -48 12 -32 86 19 86 12 0 27 -7 34 -14z m1808 2 c7 -7 12 -25 12 -40 0 -51 -81 -50 -88 1 -7 42 46 69 76 39z m811 -2 c7 -8 11 -27 9 -43 -3 -25 -7 -28 -43 -28 -36 0 -40 3 -43 28 -4 34 13 57 43 57 12 0 28 -6 34 -14z m-3449 -119 l85 -3 -92 -2 c-83 -2 -93 0 -93 16 0 11 3 13 8 5 5 -7 41 -13 92 -16z m855 -1 c17 -1 -12 -4 -62 -4 -51 -1 -93 1 -93 6 0 6 83 6 155 -2z m1803 -3 c-27 -2 -69 -2 -95 0 -27 2 -5 3 47 3 52 0 74 -1 48 -3z m800 0 c-27 -2 -69 -2 -95 0 -27 2 -5 3 47 3 52 0 74 -1 48 -3z"/>
<path d="M7102 2653 l3 -38 105 0 105 0 3 38 3 37 -111 0 -111 0 3 -37z"/>
<path d="M7394 2656 c6 -31 5 -34 -15 -29 -16 4 -20 2 -17 -8 5 -16 88 -26 88 -10 0 5 -4 12 -9 15 -4 3 -11 19 -14 36 -4 19 -13 30 -23 30 -13 0 -15 -7 -10 -34z"/>
<path d="M9609 2645 c-16 -44 -16 -45 5 -45 32 0 66 11 66 21 0 5 -9 9 -20 9 -16 0 -19 5 -13 30 9 48 -20 37 -38 -15z"/>
<path d="M9720 2650 l0 -40 110 0 110 0 0 40 0 40 -110 0 -110 0 0 -40z"/>
<path d="M10014 2660 c5 -25 2 -30 -14 -30 -27 0 -25 -16 3 -24 49 -13 89 -1 58 19 -5 3 -12 19 -16 35 -9 42 -40 42 -31 0z"/>
<path d="M7590 2725 c-18 -22 -8 -50 19 -50 32 0 49 28 32 49 -17 20 -35 20 -51 1z"/>
<path d="M9400 2725 c-20 -25 -8 -50 25 -50 21 0 31 5 33 18 4 21 -14 47 -33 47 -7 0 -18 -7 -25 -15z"/>
<path d="M10212 2731 c-8 -4 -12 -19 -10 -32 2 -19 9 -24 33 -24 33 0 45 25 25 50 -14 17 -29 19 -48 6z"/>
<path d="M7020 2856 c0 -12 11 -16 41 -16 52 0 48 24 -4 28 -28 2 -37 -1 -37 -12z"/>
<path d="M7320 2855 c0 -11 11 -15 40 -15 29 0 40 4 40 15 0 11 -11 15 -40 15 -29 0 -40 -4 -40 -15z"/>
<path d="M9647 2863 c-16 -15 -5 -23 33 -23 29 0 40 4 40 15 0 10 -10 15 -33 15 -19 0 -37 -3 -40 -7z"/>
<path d="M9950 2855 c0 -10 11 -15 35 -15 24 0 35 5 35 15 0 10 -11 15 -35 15 -24 0 -35 -5 -35 -15z"/>
</g>
</svg>