<svg xmlns="http://www.w3.org/2000/svg" viewBox="543.40 603.00 837.60 135.10">
<g transform="translate(0.000000,768.000000) scale(0.100000,-0.100000)" fill="currentColor" stroke="none">
<path d="M11217 1583 c-4 -3 -7 -10 -7 -15 0 -4 327 -8 726 -8 576 0 725 3 722 13 -4 9 -158 13 -720 15 -393 1 -718 -1 -721 -5z"/>
<path d="M11269 1538 c-8 -26 -8 -60 -3 -140 l6 -98 334 0 334 0 0 120 0 120 -335 0 c-184 0 -335 -1 -336 -2z"/>
<path d="M11964 1524 c3 -9 6 -186 6 -395 l0 -379 140 0 140 0 0 395 0 395 -146 0 c-129 0 -145 -2 -140 -16z"/>
<path d="M12270 1145 l0 -395 150 0 150 0 0 395 0 395 -150 0 -150 0 0 -395z"/>
<path d="M11270 1155 l0 -125 335 0 335 0 0 125 0 125 -335 0 -335 0 0 -125z"/>
<path d="M11500 1003 l-235 -3 3 -125 3 -125 335 0 334 0 0 125 0 125 -74 0 c-40 0 -86 1 -102 3 -16 2 -135 2 -264 0z"/>
<path d="M11213 718 c3 -10 156 -13 722 -13 566 0 719 3 723 13 3 9 -146 12 -723 12 -577 0 -726 -3 -722 -12z"/>
<path d="M5794 1565 c-62 -31 -77 -35 -151 -35 -45 0 -93 -5 -107 -11 -27 -13 -52 -69 -42 -94 5 -13 248 -15 1896 -15 l1890 0 0 38 c0 27 -7 45 -21 58 -20 18 -62 19 -1393 24 l-1371 5 -65 32 -65 33 -251 0 -252 0 -68 -35z"/>
<path d="M13380 1435 l0 -55 60 0 60 0 0 55 0 55 -60 0 -60 0 0 -55z"/>
<path d="M5492 1043 l3 -348 1893 -3 1892 -2 0 350 0 350 -1895 0 -1895 0 2 -347z m362 271 c14 -13 16 -53 16 -284 0 -231 -2 -271 -16 -284 -12 -13 -38 -16 -120 -16 -58 0 -114 5 -125 10 -18 10 -19 24 -19 290 0 255 1 280 18 289 9 6 65 11 124 11 84 0 110 -3 122 -16z m3320 -6 c14 -19 16 -63 16 -278 0 -215 -2 -259 -16 -278 -14 -21 -23 -22 -129 -22 -157 0 -147 -22 -143 307 2 202 6 264 17 276 11 14 34 17 127 17 105 0 114 -1 128 -22z m-2484 -127 c5 -11 10 -49 10 -85 0 -104 -4 -106 -204 -106 -200 0 -196 -2 -196 109 0 46 5 82 12 89 8 8 65 12 190 12 165 0 178 -1 188 -19z m510 0 c5 -11 10 -49 10 -85 0 -104 -4 -106 -204 -106 -200 0 -196 -2 -196 109 0 46 5 82 12 89 8 8 65 12 190 12 165 0 178 -1 188 -19z m508 -76 c2 -76 0 -92 -14 -102 -22 -16 -326 -18 -355 -3 -17 9 -19 22 -19 99 0 48 3 91 7 95 4 3 90 5 192 4 l186 -3 3 -90z m500 83 c7 -7 12 -43 12 -89 0 -111 3 -109 -191 -109 -92 0 -169 4 -180 10 -17 9 -19 22 -19 99 0 48 3 91 7 94 12 13 358 8 371 -5z m510 0 c7 -7 12 -43 12 -89 0 -111 3 -109 -191 -109 -92 0 -169 4 -180 10 -17 9 -19 22 -19 99 0 48 3 91 7 94 12 13 358 8 371 -5z"/>
<path d="M8936 1302 c-9 -15 -16 -475 -8 -512 l8 -35 109 -3 c80 -2 111 1 117 10 12 19 10 506 -2 529 -10 17 -22 19 -115 19 -57 0 -106 -4 -109 -8z m152 -88 c20 -14 22 -24 22 -97 0 -95 -15 -127 -59 -127 -54 0 -62 16 -62 120 -1 79 2 96 17 107 24 17 55 16 82 -3z"/>
<path d="M9302 1074 c3 -311 3 -319 23 -319 20 0 20 8 23 313 1 188 -1 312 -7 312 -5 0 -17 3 -25 6 -15 6 -16 -24 -14 -312z"/>
<path d="M13380 1305 l0 -55 60 0 60 0 0 55 0 55 -60 0 -60 0 0 -55z"/>
<path d="M13380 1175 l0 -55 60 0 60 0 0 55 0 55 -60 0 -60 0 0 -55z"/>
<path d="M13380 1045 l0 -55 60 0 60 0 0 55 0 55 -60 0 -60 0 0 -55z"/>
<path d="M13380 910 l0 -60 60 0 60 0 0 60 0 60 -60 0 -60 0 0 -60z"/>
<path d="M13380 780 l0 -60 54 0 c61 0 66 6 66 76 l0 44 -60 0 -60 0 0 -60z"/>
<path d="M13630 690 c0 -6 -10 -14 -22 -19 -21 -7 -19 -10 28 -44 50 -37 95 -54 114 -42 5 3 10 31 10 61 l0 54 -65 0 c-38 0 -65 -4 -65 -10z"/>
<path d="M8246 609 c-103 -81 -51 -239 79 -239 43 0 90 23 106 51 9 17 7 25 -12 45 -22 23 -22 24 -36 4 -11 -15 -26 -20 -59 -20 -39 0 -46 3 -55 26 -5 15 -6 36 -2 48 6 18 8 16 13 -14 5 -33 7 -35 48 -38 39 -3 42 -1 42 22 0 14 3 26 7 26 3 0 30 -22 59 -50 l53 -50 93 0 94 0 49 50 c27 28 53 50 57 50 4 0 8 -11 8 -24 0 -17 7 -26 25 -30 37 -9 63 9 68 47 l4 32 1 -35 c2 -45 -12 -60 -60 -60 -28 0 -40 5 -49 21 l-11 22 -24 -25 c-30 -29 -24 -50 21 -78 66 -41 156 -16 188 53 30 63 16 123 -39 166 -32 25 -106 28 -144 6 -37 -21 -336 -21 -376 0 -43 22 -116 19 -148 -6z m244 -96 l-1 -48 -24 30 c-33 40 -33 65 0 65 23 0 25 -3 25 -47z m230 28 c0 -11 -11 -33 -25 -48 l-24 -28 -1 48 c0 44 2 47 25 47 18 0 25 -5 25 -19z"/>
<path d="M13385 478 c-8 -19 -19 -24 -58 -26 -42 -3 -49 0 -54 17 -7 28 -17 26 -43 -6 l-22 -28 36 -32 c45 -41 105 -45 156 -10 52 35 58 52 30 82 -29 31 -33 31 -45 3z"/>
</g>
</svg>