<svg xmlns="http://www.w3.org/2000/svg" viewBox="22.00 552.90 1364.00 190.10">
<g transform="translate(0.000000,768.000000) scale(0.100000,-0.100000)" fill="currentColor" stroke="none">
<path d="M4280 2052 c0 -37 -1 -38 -92 -87 -51 -27 -115 -61 -141 -77 -26 -15 -58 -28 -71 -28 -18 0 -29 -10 -45 -42 l-21 -42 33 -36 c17 -19 52 -57 77 -83 40 -43 43 -49 28 -58 -10 -6 -18 -21 -18 -34 0 -23 -4 -25 -50 -25 -49 0 -52 1 -78 45 l-27 44 -150 1 -150 0 0 -87 0 -88 -945 -6 c-520 -3 -960 -9 -978 -14 -18 -4 -35 -11 -38 -16 -3 -5 773 -8 1853 -7 l1858 3 0 30 c0 25 -14 41 -95 107 l-95 78 -210 0 -211 0 -62 -45 c-53 -39 -68 -45 -110 -45 -47 0 -49 1 -44 25 3 17 -1 27 -12 31 -9 3 -16 12 -16 20 0 21 -40 17 -40 -3 -1 -17 -2 -17 -15 0 -10 14 -21 17 -42 13 -22 -5 -45 3 -103 37 -177 101 -260 152 -260 157 0 7 371 220 383 220 4 0 7 -9 7 -20 0 -11 5 -20 10 -20 6 0 10 20 10 45 0 49 -3 51 -39 31 -24 -13 -67 -10 -77 5 -12 20 -24 6 -24 -29z m45 -12 c-3 -5 -10 -10 -16 -10 -5 0 -9 5 -9 10 0 6 7 10 16 10 8 0 12 -4 9 -10z m-216 -327 c75 -47 145 -92 156 -100 17 -11 8 -13 -72 -13 l-91 0 -82 90 c-74 81 -89 110 -58 110 6 0 72 -39 147 -87z m296 -173 c-7 -12 -189 -12 -255 -1 -33 6 -3 9 108 10 100 1 151 -2 147 -9z"/>
<path d="M9577 1684 c-4 -4 5 -20 18 -36 20 -24 25 -40 25 -88 0 -38 -4 -60 -12 -63 -10 -3 -10 -9 0 -26 14 -25 16 -111 2 -111 -5 0 -10 -9 -10 -20 0 -11 5 -20 10 -20 6 0 10 -22 10 -50 0 -27 -4 -50 -10 -50 -5 0 -10 -9 -10 -20 0 -11 5 -20 10 -20 14 0 12 -94 -2 -108 -9 -9 -9 -15 0 -24 16 -16 15 -83 0 -109 -10 -17 -10 -23 0 -26 7 -3 12 -24 12 -54 0 -27 -6 -59 -12 -70 -10 -17 -10 -23 0 -26 7 -3 12 -23 12 -49 0 -37 -3 -44 -19 -44 -10 0 -21 7 -25 15 -7 19 -122 22 -129 3 -4 -10 -6 -10 -6 0 -1 19 -117 17 -125 -3 -5 -13 -234 -15 -1926 -15 -1701 0 -1921 2 -1926 15 -8 21 -117 21 -134 0 -10 -12 -67 -15 -365 -17 l-352 -3 46 -77 46 -78 180 0 c165 0 189 2 270 26 50 14 99 34 110 43 30 27 53 32 69 16 20 -21 122 -20 130 0 10 26 26 16 26 -16 0 -65 8 -69 141 -69 l120 0 17 32 c9 17 31 48 49 67 l31 36 84 -1 c46 -1 96 -6 111 -13 37 -15 267 -14 304 0 15 7 69 12 118 13 114 1 136 -11 176 -100 l29 -64 719 0 719 0 17 50 c19 59 69 106 121 116 45 8 166 -1 193 -15 31 -17 240 -13 311 5 73 18 174 11 204 -15 10 -9 29 -37 42 -63 l24 -48 118 0 c78 0 122 4 130 12 7 7 12 29 12 50 0 31 4 38 19 38 10 0 21 -7 25 -15 4 -11 21 -15 61 -15 50 0 55 2 56 23 l0 22 9 -22 c8 -20 17 -23 64 -23 39 0 55 4 60 15 4 10 20 15 51 15 38 0 45 -3 45 -19 0 -38 11 -51 45 -51 28 0 32 -3 28 -19 -13 -50 40 -127 102 -149 21 -7 -773 -11 -2655 -11 l-2684 -1 44 23 c33 16 51 34 68 67 38 73 19 141 -52 194 -26 20 -42 21 -399 24 -251 2 -384 0 -410 -8 -54 -16 -97 -78 -97 -140 0 -61 31 -108 90 -137 l44 -23 -904 0 -905 1 45 22 c88 45 114 156 52 229 -48 57 -57 58 -459 58 -339 0 -371 -1 -403 -19 -112 -59 -107 -210 10 -269 l44 -22 -502 0 -502 0 0 -30 0 -30 6770 0 6770 0 0 30 0 30 -134 0 c-126 0 -135 -1 -141 -20 -8 -26 -22 -26 -30 0 -6 19 -16 20 -348 21 -244 1 -332 4 -307 11 41 11 80 45 80 68 0 9 -9 25 -21 36 -17 16 -22 16 -29 4 -6 -8 -10 -18 -10 -22 0 -13 -85 -9 -98 4 -7 7 -11 28 -11 48 l2 35 6 -35 c6 -33 9 -35 46 -38 36 -3 42 0 50 23 l10 26 57 -50 56 -51 89 0 89 0 49 50 c54 55 65 60 65 30 0 -28 40 -46 69 -31 35 19 26 50 -19 69 -22 9 -40 19 -40 22 0 3 24 16 53 30 35 17 53 32 55 46 2 15 8 20 21 17 11 -3 24 5 35 21 l16 26 -55 0 -55 0 0 431 c0 284 3 428 10 424 6 -3 10 -15 10 -26 0 -17 7 -19 60 -19 53 0 60 2 60 19 0 11 4 22 10 26 6 3 10 -141 12 -387 l3 -393 25 -49 25 -49 5 39 c4 34 8 39 28 36 l22 -3 0 376 c0 248 3 374 10 370 6 -3 10 -17 10 -30 0 -13 5 -27 10 -30 6 -4 10 24 10 75 0 61 -3 81 -12 77 -7 -2 -13 -16 -13 -30 -1 -14 -4 -29 -8 -33 -4 -4 -7 -2 -7 4 0 7 -4 12 -10 12 -5 0 -10 -7 -10 -15 0 -8 -6 -15 -13 -15 -20 0 -21 77 -2 116 9 19 20 34 25 34 6 0 10 7 10 15 0 13 -231 15 -2023 15 -1113 0 -2027 -3 -2030 -6z m353 -29 c0 -13 -24 -15 -160 -15 -136 0 -160 2 -160 15 0 13 24 15 160 15 136 0 160 -2 160 -15z m330 1 c0 -12 -25 -15 -140 -15 -129 0 -152 4 -133 22 3 4 66 7 140 7 109 0 133 -3 133 -14z m330 0 c0 -12 -25 -15 -140 -15 -115 0 -140 3 -140 15 0 11 25 14 140 14 115 0 140 -3 140 -14z m330 0 c0 -12 -25 -15 -140 -15 -115 0 -140 3 -140 15 0 11 25 14 140 14 115 0 140 -3 140 -14z m327 -3 c3 -9 -32 -12 -136 -12 -117 0 -141 3 -141 15 0 12 22 14 137 12 94 -2 138 -7 140 -15z m326 2 c1 -6 -50 -11 -135 -12 -116 -2 -138 0 -138 13 0 12 21 14 135 12 79 -2 136 -7 138 -13z m330 0 c1 -6 -50 -11 -135 -12 -116 -2 -138 0 -138 13 0 12 21 14 135 12 79 -2 136 -7 138 -13z m334 -2 c3 -8 -34 -11 -136 -11 -116 0 -141 2 -141 14 0 12 23 14 137 12 93 -2 138 -7 140 -15z m323 3 c0 -12 -24 -15 -135 -15 -111 0 -135 3 -135 15 0 11 24 14 135 14 111 0 135 -3 135 -14z m333 -1 c1 -6 -50 -11 -135 -12 -116 -2 -138 0 -138 13 0 12 21 14 135 12 79 -2 136 -7 138 -13z m334 -2 c3 -9 -32 -12 -136 -12 -117 0 -141 3 -141 15 0 12 22 14 137 12 94 -2 138 -7 140 -15z m83 2 c0 -8 -9 -15 -20 -15 -20 0 -26 11 -13 23 12 13 33 7 33 -8z m288 3 c-5 -15 -68 -24 -68 -10 0 15 13 22 43 22 18 0 27 -4 25 -12z m-928 -58 c6 -4 10 -18 8 -31 -2 -20 -9 -24 -45 -27 l-43 -3 0 -395 0 -394 45 0 c43 0 45 -1 45 -30 0 -29 -2 -30 -47 -31 -662 -7 -1418 -7 -1428 1 -18 15 -6 60 16 60 17 0 19 8 19 65 0 63 -1 65 -25 65 -14 0 -25 5 -25 10 0 6 11 10 25 10 l25 0 0 320 0 320 -25 0 c-21 0 -25 5 -25 28 0 16 2 31 5 34 8 8 1461 6 1475 -2z m-2680 -455 c0 -277 -3 -425 -10 -425 -7 0 -10 148 -10 425 0 277 3 425 10 425 7 0 10 -148 10 -425z m320 5 c0 -273 -3 -420 -10 -420 -7 0 -10 147 -10 420 0 273 3 420 10 420 7 0 10 -147 10 -420z m327 -2 c-2 -327 -5 -422 -14 -425 -10 -4 -13 85 -13 421 0 366 2 426 15 426 12 0 14 -58 12 -422z m321 0 c-2 -276 -6 -422 -13 -421 -6 2 -11 154 -13 423 -2 370 0 420 13 420 13 0 15 -50 13 -422z m1952 2 c0 -273 -3 -420 -10 -420 -7 0 -10 147 -10 420 0 273 3 420 10 420 7 0 10 -147 10 -420z m320 -5 c0 -277 -3 -425 -10 -425 -7 0 -10 148 -10 425 0 277 3 425 10 425 7 0 10 -148 10 -425z m370 264 c0 -31 -4 -48 -10 -44 -5 3 -10 26 -10 51 0 24 5 44 10 44 6 0 10 -23 10 -51z m0 -140 c0 -31 -4 -48 -10 -44 -17 11 -12 95 7 95 2 0 3 -23 3 -51z m0 -140 c0 -31 -4 -48 -10 -44 -17 11 -12 95 7 95 2 0 3 -23 3 -51z m-3745 -79 c-3 -5 -42 -10 -86 -10 -46 0 -79 4 -79 10 0 6 35 10 86 10 54 0 83 -4 79 -10z m3745 -55 c0 -25 -4 -45 -10 -45 -5 0 -10 20 -10 45 0 25 5 45 10 45 6 0 10 -20 10 -45z m0 -141 c0 -34 -4 -53 -10 -49 -18 11 -12 105 7 105 2 0 3 -25 3 -56z m-3745 -4 c4 -6 -27 -10 -85 -10 -58 0 -89 4 -85 10 3 6 42 10 85 10 43 0 82 -4 85 -10z m-72 -255 c-34 -30 -96 -35 -91 -7 2 10 14 18 33 20 16 2 41 16 55 30 25 27 25 27 28 5 2 -15 -6 -31 -25 -48z m170 45 c32 -17 56 -20 172 -20 113 0 143 3 187 21 81 32 155 23 274 -35 l96 -46 282 0 c208 0 285 -3 294 -12 15 -15 119 -15 135 1 7 7 49 11 109 11 91 0 98 -1 98 -20 0 -19 7 -20 130 -20 123 0 130 1 130 20 0 20 7 20 289 20 265 0 293 2 335 19 25 11 74 25 108 31 35 6 94 21 131 32 75 22 135 20 187 -7 43 -22 289 -21 332 1 38 20 119 24 125 6 3 -8 -8 -12 -39 -12 -24 0 -54 -7 -66 -16 -32 -22 -344 -21 -376 1 -11 8 -41 15 -67 15 -123 0 -180 -136 -93 -224 15 -14 41 -30 58 -35 19 -6 -446 -9 -1184 -10 -1059 0 -1210 2 -1175 14 60 21 95 65 95 121 0 25 -7 58 -15 74 -30 58 -118 80 -185 46 -46 -22 -345 -23 -374 -1 -11 8 -39 15 -63 15 -32 0 -43 4 -43 15 0 22 67 19 113 -5z m1294 -42 c-3 -10 -70 -13 -290 -13 -215 0 -289 3 -299 13 -10 9 49 12 291 12 238 0 302 -3 298 -12z m353 -3 c0 -13 -15 -15 -97 -13 -66 2 -98 7 -101 16 -3 9 21 12 97 12 84 0 101 -3 101 -15z m865 2 c-14 -8 -105 -13 -312 -15 -262 -3 -293 -2 -293 12 0 14 34 16 313 16 250 -1 308 -3 292 -13z m-2425 -82 c0 -25 -2 -45 -4 -45 -7 0 -46 67 -46 79 0 6 11 11 25 11 23 0 25 -4 25 -45z m240 39 c0 -13 -44 -84 -52 -84 -4 0 -8 20 -8 45 0 43 1 45 30 45 17 0 30 -3 30 -6z m2704 -10 c9 -24 7 -62 -4 -69 -10 -6 -34 27 -45 63 -5 19 -3 22 18 22 14 0 28 -7 31 -16z m226 -3 c0 -11 -11 -33 -25 -48 l-24 -28 -1 48 c0 44 2 47 25 47 18 0 25 -5 25 -19z m-3376 -43 c6 -25 11 -28 46 -28 33 0 40 3 40 19 0 37 20 32 69 -18 l50 -51 93 0 93 0 50 50 c55 54 65 59 65 32 0 -28 17 -38 55 -34 32 4 35 7 35 38 0 19 5 34 10 34 14 0 12 -64 -2 -78 -7 -7 -32 -12 -56 -12 -35 0 -45 4 -49 20 -7 26 -15 25 -43 -5 l-24 -25 29 -30 c16 -17 43 -35 60 -39 19 -6 -60 -9 -225 -10 -227 0 -251 1 -217 13 42 15 77 43 77 60 0 6 -9 22 -20 36 l-19 25 -16 -22 c-12 -17 -26 -23 -54 -23 -47 0 -61 14 -60 60 1 36 3 34 13 -12z m-7972 -84 c16 -17 44 -36 61 -42 23 -7 -57 -10 -293 -11 l-324 -1 44 23 c33 16 50 33 65 64 20 43 52 61 40 23 -6 -19 -2 -20 169 -20 164 0 176 1 176 18 0 32 14 35 24 5 4 -15 22 -42 38 -59z m2524 -5 c10 -9 33 -24 49 -32 28 -15 8 -16 -290 -17 l-319 0 44 23 c33 16 50 33 65 64 20 43 52 61 40 23 -6 -19 -2 -20 175 -20 124 0 179 3 175 10 -4 6 -4 19 0 28 5 13 10 7 24 -23 10 -22 27 -47 37 -56z"/>
<path d="M1448 1614 c-135 -24 -270 -84 -423 -187 -89 -60 -285 -214 -285 -225 0 -9 158 8 258 28 125 26 187 46 414 136 102 41 217 81 255 89 52 11 156 15 456 15 l387 0 0 80 0 80 -492 -1 c-374 -1 -512 -4 -570 -15z m-88 -198 c0 -41 -7 -48 -94 -80 -95 -36 -97 -36 -95 24 2 27 5 53 8 58 14 21 51 31 114 32 l67 0 0 -34z"/>
<path d="M2530 1550 l0 -80 508 0 c280 0 511 2 513 4 2 2 3 38 1 80 l-4 76 -509 0 -509 0 0 -80z"/>
<path d="M1370 1326 c-171 -74 -201 -89 -560 -274 l-275 -142 -1 -88 c0 -67 -6 -98 -22 -136 -12 -27 -20 -51 -17 -54 3 -3 105 8 228 24 l222 29 2185 5 2185 5 3 348 2 347 -1902 -1 -1903 0 -145 -63z m338 -332 c-2 -142 -7 -217 -13 -214 -6 3 -9 76 -7 195 1 105 2 206 2 225 0 23 3 31 10 24 7 -7 9 -90 8 -230z m282 6 c0 -130 -4 -221 -10 -225 -9 -5 -20 442 -11 451 16 16 21 -36 21 -226z"/>
<path d="M5356 1382 c-3 -3 -6 -147 -6 -319 l0 -314 23 3 22 3 3 311 c2 302 2 312 -17 317 -11 3 -22 2 -25 -1z"/>
<path d="M5442 1383 l-22 -4 2 -312 3 -312 23 -3 22 -3 0 320 c0 177 -1 320 -2 320 -2 -1 -13 -4 -26 -6z"/>
<path d="M5615 1297 c-3 -7 -4 -131 -3 -277 l3 -265 109 -3 c81 -2 112 1 118 10 9 15 11 508 2 532 -5 13 -25 16 -115 16 -79 0 -111 -4 -114 -13z m159 -83 c23 -23 23 -180 -1 -206 -18 -20 -54 -23 -84 -8 -17 10 -19 22 -19 110 0 84 3 101 18 109 26 15 69 13 86 -5z"/>
<path d="M1005 1214 c-55 -13 -145 -27 -200 -30 -96 -6 -102 -8 -145 -43 -77 -62 -170 -153 -170 -166 0 -6 9 -20 19 -29 19 -17 29 -13 301 128 154 80 285 146 290 146 5 0 12 5 15 10 7 12 13 13 -110 -16z"/>
<path d="M419 902 c-64 -78 -89 -132 -89 -187 0 -83 54 -156 142 -194 45 -19 47 -22 38 -46 -6 -15 -10 -31 -10 -36 0 -5 102 -9 250 -9 l250 0 6 40 c6 37 9 40 40 40 23 0 34 5 38 18 4 10 22 45 41 77 19 31 35 59 35 61 0 12 -176 0 -422 -31 -276 -34 -378 -42 -364 -28 3 4 25 9 49 12 40 6 43 8 66 66 31 75 35 192 8 243 -10 17 -21 32 -25 32 -4 0 -28 -26 -53 -58z"/>
<path d="M2102 663 c2 -5 19 -40 38 -80 l35 -72 55 -3 c48 -3 55 -6 60 -28 l6 -25 591 -3 591 -2 7 30 c6 29 9 30 59 30 l52 0 41 80 41 80 -790 0 c-434 0 -788 -3 -786 -7z"/>
<path d="M5868 612 c-80 -49 -73 -183 11 -227 59 -30 139 -12 170 38 11 17 9 23 -12 45 l-25 25 -11 -22 c-9 -17 -21 -21 -57 -21 -38 0 -46 3 -54 25 -6 15 -6 34 0 47 8 20 9 18 9 -14 l1 -38 45 0 c41 0 45 2 45 25 0 14 4 25 8 25 4 0 30 -22 57 -50 l49 -50 94 0 93 0 49 50 c55 56 70 62 70 25 0 -22 4 -25 40 -25 35 0 40 3 46 28 10 47 12 48 13 6 1 -46 -8 -54 -64 -54 -22 0 -39 7 -48 20 -14 20 -14 19 -37 -5 -27 -29 -22 -48 22 -75 68 -41 159 -16 191 53 21 43 21 67 3 112 -28 66 -119 95 -187 60 -45 -24 -332 -25 -376 -2 -41 22 -110 21 -145 -1z m242 -99 l-1 -48 -24 28 c-33 37 -33 67 0 67 23 0 25 -3 25 -47z m230 30 c-1 -10 -12 -31 -25 -48 l-25 -30 0 48 c0 44 2 47 25 47 17 0 25 -5 25 -17z"/>
</g>
</svg>