<svg xmlns="http://www.w3.org/2000/svg" viewBox="838.00 65.00 525.00 168.00">
<g transform="translate(0.000000,768.000000) scale(0.100000,-0.100000)" fill="currentColor" stroke="none">
<path d="M9664 6681 c-2 -2 -4 -13 -4 -23 0 -17 63 -18 1865 -18 1858 0 1865 0 1865 20 0 20 -7 20 -1802 21 -992 0 -1829 1 -1861 2 -32 1 -61 0 -63 -2z"/>
<path d="M9660 6600 c0 -20 7 -20 1865 -20 1858 0 1865 0 1865 20 0 20 -7 20 -1865 20 -1858 0 -1865 0 -1865 -20z"/>
<path d="M9660 6540 c0 -20 7 -20 1865 -20 1858 0 1865 0 1865 20 0 20 -7 20 -1865 20 -1858 0 -1865 0 -1865 -20z"/>
<path d="M9660 6480 c0 -20 7 -20 1865 -20 1858 0 1865 0 1865 20 0 20 -7 20 -1865 20 -1858 0 -1865 0 -1865 -20z"/>
<path d="M8434 6326 c-3 -7 -4 -33 -2 -57 l3 -44 120 0 120 0 3 58 3 57 -121 0 c-94 0 -122 -3 -126 -14z"/>
<path d="M11210 6944 c0 -31 -3 -35 -17 -29 -75 32 -103 37 -183 33 -53 -3 -97 -11 -117 -21 -22 -12 -57 -17 -115 -17 l-83 0 -1 -50 -1 -50 948 0 949 0 0 50 0 50 -73 0 c-50 0 -85 6 -108 17 -21 11 -67 19 -120 21 -72 4 -94 1 -134 -17 -26 -11 -49 -21 -51 -21 -2 0 -4 16 -4 35 0 32 -2 35 -29 35 -26 0 -30 -4 -33 -32 -3 -36 -3 -36 -68 -12 -60 21 -200 16 -252 -10 -43 -21 -87 -18 -158 9 -58 22 -190 18 -239 -8 -47 -23 -51 -22 -51 18 0 32 -2 35 -30 35 -28 0 -30 -3 -30 -36z"/>
<path d="M10010 6860 l0 -50 334 0 335 0 -2 50 -2 50 -332 0 -333 0 0 -50z"/>
<path d="M13510 6245 l0 -465 35 0 35 0 0 465 0 465 -35 0 -35 0 0 -465z"/>
<path d="M9414 5754 c3 -9 6 -29 6 -45 0 -28 1 -29 54 -29 l54 0 4 41 c2 22 2 42 -1 45 -2 2 -31 4 -64 4 -50 0 -58 -2 -53 -16z"/>
<path d="M9422 5593 l3 -68 46 -3 c53 -3 59 5 59 91 l0 47 -55 0 -56 0 3 -67z"/>
<path d="M12600 5613 c0 -86 6 -94 59 -91 l46 3 3 68 3 67 -56 0 -55 0 0 -47z"/>
<path d="M10260 5515 c0 -53 4 -75 13 -75 6 0 102 -1 213 -3 110 -2 206 -1 212 1 8 2 12 30 12 78 l0 74 -225 0 -225 0 0 -75z"/>
<path d="M10740 5495 l0 -95 488 2 487 3 3 93 3 92 -491 0 -490 0 0 -95z"/>
</g>
</svg>