<svg xmlns="http://www.w3.org/2000/svg" viewBox="944.00 43.20 446.00 146.90">
<g transform="translate(0.000000,768.000000) scale(0.100000,-0.100000)" fill="currentColor" stroke="none">
<path d="M11824 7182 c-6 -4 -13 -22 -16 -39 -4 -29 -2 -33 19 -33 23 0 25 3 25 40 0 43 -4 48 -28 32z"/>
<path d="M11665 7152 c-2 -2 -17 -4 -33 -4 -21 -1 -32 -7 -35 -19 -5 -17 2 -19 80 -19 57 0 82 3 78 11 -4 6 -13 8 -21 5 -8 -3 -14 -1 -14 4 0 6 7 10 15 10 8 0 15 4 15 8 0 7 -78 11 -85 4z"/>
<path d="M11485 7088 c-19 -11 -19 -11 0 -19 17 -7 18 -8 3 -8 -15 -1 -18 -11 -18 -61 0 -46 4 -61 18 -69 9 -6 12 -11 7 -11 -6 0 -16 5 -22 11 -6 6 -17 9 -25 7 -8 -3 -2 -11 17 -21 17 -9 25 -16 19 -17 -5 0 -19 7 -30 15 -26 19 -254 22 -254 3 0 -10 -2 -10 -8 0 -7 10 -103 12 -460 10 -249 -2 -452 0 -452 5 0 19 -20 4 -21 -15 -1 -17 -2 -19 -6 -5 -4 15 -18 17 -119 17 l-115 0 -24 -52 c-28 -62 -57 -167 -49 -179 3 -5 -5 -10 -18 -10 -17 -1 -18 -3 -5 -6 14 -4 17 -16 17 -69 0 -77 24 -202 50 -261 l19 -43 -80 0 c-64 0 -79 -3 -79 -15 0 -8 4 -15 9 -15 5 0 7 -10 3 -22 -3 -12 -7 -17 -9 -11 -4 10 -9 9 -25 0 -16 -9 -22 -9 -25 1 -3 7 -24 12 -54 12 l-49 0 0 -45 0 -45 43 0 c24 0 48 5 55 12 6 6 0 -13 -16 -43 -19 -38 -37 -59 -62 -71 -30 -15 -32 -18 -12 -18 40 0 61 19 93 82 20 39 34 57 38 49 16 -25 36 -6 42 39 5 38 6 36 5 -20 l-1 -65 28 3 c21 2 27 -1 27 -16 0 -39 23 -82 53 -101 l32 -21 -267 0 -268 0 0 -30 0 -30 2180 0 2180 0 0 30 0 30 -257 0 c-182 1 -253 4 -240 11 9 6 15 14 12 20 -3 5 1 6 9 3 16 -6 46 42 46 75 0 13 8 21 22 23 12 2 25 12 28 23 3 13 15 21 32 23 25 3 30 -3 53 -51 26 -55 55 -78 98 -76 16 0 13 3 -13 12 -24 8 -40 23 -52 47 -9 19 -21 40 -25 45 -5 6 -13 17 -18 25 -7 13 -6 13 7 2 10 -8 35 -12 60 -10 l43 3 0 40 0 40 -47 3 c-29 2 -48 -1 -48 -7 0 -17 -33 -12 -59 8 -20 15 -21 19 -7 24 23 9 20 27 -4 27 -18 0 -20 7 -20 65 0 55 3 66 21 76 12 6 19 7 16 2 -2 -4 -1 -17 4 -28 5 -13 8 2 8 45 l0 65 -17 -40 c-18 -38 -19 -39 -25 -15 -12 47 -21 8 -18 -80 l3 -90 -61 0 c-61 0 -61 0 -47 23 27 42 57 162 63 254 3 51 9 91 12 90 3 -1 7 3 9 8 1 6 -4 10 -10 10 -8 0 -18 25 -25 60 -17 79 -51 162 -70 169 -21 9 -1402 8 -1416 -1 -6 -3 -7 -1 -3 5 10 17 -10 15 -42 -4 l-27 -16 24 21 c22 19 23 27 19 85 -3 35 -9 69 -12 75 -10 15 -364 15 -391 -1z m228 -85 c-18 -2 -48 -2 -65 0 -18 2 -4 4 32 4 36 0 50 -2 33 -4z m0 -20 c-7 -2 -21 -2 -30 0 -10 3 -4 5 12 5 17 0 24 -2 18 -5z m-1453 -383 c0 -159 -4 -290 -8 -290 -4 0 -6 16 -4 35 3 29 1 35 -14 36 -18 1 -18 2 -1 6 16 4 18 18 17 151 -2 252 0 352 5 352 3 0 5 -130 5 -290z m30 31 c0 -185 3 -241 13 -242 9 0 9 -2 0 -6 -7 -2 -14 -21 -15 -41 -4 -69 -13 343 -10 441 6 178 13 95 12 -152z m1413 242 c-7 -2 -21 -2 -30 0 -10 3 -4 5 12 5 17 0 24 -2 18 -5z m105 -3 c-9 -6 -38 -12 -65 -15 l-48 -5 55 14 c70 17 79 18 58 6z m-215 -7 c-7 -2 -19 -2 -25 0 -7 3 -2 5 12 5 14 0 19 -2 13 -5z m-383 -163 c6 0 10 -5 10 -11 0 -5 -4 -8 -9 -4 -5 3 -12 -3 -14 -12 -3 -10 -4 29 -4 87 1 96 1 98 4 23 2 -46 8 -83 13 -83z m458 153 c-10 -2 -28 -2 -40 0 -13 2 -5 4 17 4 22 1 32 -1 23 -4z m1654 -175 c-1 -4 -10 -4 -19 -1 -11 4 -13 8 -5 11 8 2 13 33 14 90 l2 87 5 -90 c3 -49 5 -93 3 -97z m-1424 135 c-119 -2 -317 -2 -440 0 -123 1 -25 2 217 2 242 0 342 -1 223 -2z m-455 -20 c-160 -3 -163 -4 -164 -26 -1 -20 -2 -20 -6 -2 -3 11 -10 23 -16 27 -6 3 70 6 169 5 l179 -1 -162 -3z m255 0 c-16 -2 -40 -2 -55 0 -16 2 -3 4 27 4 30 0 43 -2 28 -4z m385 -13 c3 -11 1 -20 -4 -20 -5 0 -9 7 -9 15 0 12 -27 15 -162 18 l-163 3 166 2 c159 2 167 1 172 -18z m-315 -91 c14 0 14 -2 2 -6 -8 -3 -18 -11 -22 -17 -5 -7 -8 -5 -8 6 0 13 -10 16 -60 15 -54 -2 -60 0 -59 18 0 11 3 14 6 8 3 -8 25 -13 59 -13 l54 0 2 43 2 42 3 -47 c3 -37 8 -48 21 -49z m-141 59 c-3 -8 -6 -5 -6 6 -1 11 2 17 5 13 3 -3 4 -12 1 -19z m-1580 -70 c-2 -13 -4 -5 -4 17 -1 22 1 32 4 23 2 -10 2 -28 0 -40z m3029 5 c-11 -11 -17 4 -9 23 7 18 8 18 11 1 2 -10 1 -21 -2 -24z m-2288 -4 c-17 -10 -28 -2 -21 17 4 11 8 12 20 3 11 -10 11 -14 1 -20z m1377 12 c-8 -14 -25 -14 -25 0 0 5 5 7 10 4 6 -3 10 -1 10 6 0 7 3 10 6 6 3 -3 3 -10 -1 -16z m421 10 c-4 -5 -1 -11 6 -13 8 -3 6 -7 -5 -11 -12 -5 -17 -1 -17 13 0 11 5 20 11 20 5 0 8 -4 5 -9z m520 -18 c-10 -10 -19 5 -10 18 6 11 8 11 12 0 2 -7 1 -15 -2 -18z m-2158 0 c-16 -2 -40 -2 -55 0 -16 2 -3 4 27 4 30 0 43 -2 28 -4z m435 0 c-23 -2 -64 -2 -90 0 -26 2 -7 3 42 3 50 0 71 -1 48 -3z m495 0 c-16 -2 -40 -2 -55 0 -16 2 -3 4 27 4 30 0 43 -2 28 -4z m540 0 c-21 -2 -55 -2 -75 0 -21 2 -4 4 37 4 41 0 58 -2 38 -4z m69 1 c-3 -3 -12 -4 -19 -1 -8 3 -5 6 6 6 11 1 17 -2 13 -5z m-1274 -228 c7 4 8 3 4 -1 -4 -5 -13 -10 -20 -11 -9 -1 -11 24 -7 105 l5 106 3 -103 c2 -77 6 -101 15 -96z m-1163 19 c0 -151 -2 -165 -17 -164 -11 0 -13 3 -5 6 9 3 12 46 12 164 0 87 2 159 5 159 3 0 5 -74 5 -165z m1699 118 c0 -11 -3 -13 -6 -5 -6 16 -113 17 -113 0 0 -6 -3 -9 -6 -5 -16 15 13 27 67 27 50 0 59 -3 58 -17z m1568 -160 c-2 -32 -3 -8 -3 52 0 61 1 87 3 58 2 -29 2 -78 0 -110z m-1677 72 c0 -5 -5 -3 -10 5 -5 8 -10 20 -10 25 0 6 5 3 10 -5 5 -8 10 -19 10 -25z m545 -64 c-6 -5 -25 10 -25 20 0 5 6 4 14 -3 8 -7 12 -15 11 -17z m-575 9 c0 -5 -12 -10 -27 -9 l-28 1 25 8 c14 4 26 8 28 9 1 1 2 -3 2 -9z m-1393 -6 c-3 -3 -12 -4 -19 -1 -8 3 -5 6 6 6 11 1 17 -2 13 -5z m1220 0 c-3 -3 -12 -4 -19 -1 -8 3 -5 6 6 6 11 1 17 -2 13 -5z m193 -46 c-4 -49 -5 -50 -8 -14 -3 34 2 66 10 66 2 0 1 -24 -2 -52z m147 46 c-3 -3 -12 -4 -19 -1 -8 3 -5 6 6 6 11 1 17 -2 13 -5z m330 0 c-3 -3 -12 -4 -19 -1 -8 3 -5 6 6 6 11 1 17 -2 13 -5z m40 0 c-3 -3 -12 -4 -19 -1 -8 3 -5 6 6 6 11 1 17 -2 13 -5z m1100 0 c-3 -3 -12 -4 -19 -1 -8 3 -5 6 6 6 11 1 17 -2 13 -5z m-1637 -24 c0 -5 -2 -10 -4 -10 -3 0 -8 5 -11 10 -3 6 -1 10 4 10 6 0 11 -4 11 -10z m88 -7 c-10 -2 -28 -2 -40 0 -13 2 -5 4 17 4 22 1 32 -1 23 -4z m49 -40 c-3 -10 -5 -4 -5 12 0 17 2 24 5 18 2 -7 2 -21 0 -30z m-1544 10 c-7 -2 -19 -2 -25 0 -7 3 -2 5 12 5 14 0 19 -2 13 -5z m177 -2 c0 -5 -9 -7 -20 -4 -11 3 -20 7 -20 9 0 2 9 4 20 4 11 0 20 -4 20 -9z m2643 2 c-7 -2 -21 -2 -30 0 -10 3 -4 5 12 5 17 0 24 -2 18 -5z m44 1 c-3 -3 -12 -4 -19 -1 -8 3 -5 6 6 6 11 1 17 -2 13 -5z m123 -2 c0 -4 -17 -6 -37 -4 -59 5 -63 10 -10 11 26 1 47 -3 47 -7z m-2983 -64 c-3 -8 -6 -5 -6 6 -1 11 2 17 5 13 3 -3 4 -12 1 -19z m1427 7 c4 -10 -1 -15 -15 -15 -17 0 -18 2 -7 15 16 18 15 18 22 0z m-1289 -4 c3 -5 1 -12 -5 -16 -5 -3 -10 1 -10 9 0 18 6 21 15 7z m-222 -48 c-13 -2 -35 -2 -50 0 -16 2 -5 4 22 4 28 0 40 -2 28 -4z m464 1 c-3 -3 -12 -4 -19 -1 -8 3 -5 6 6 6 11 1 17 -2 13 -5z m216 -1 c-7 -2 -21 -2 -30 0 -10 3 -4 5 12 5 17 0 24 -2 18 -5z m145 0 c-21 -2 -55 -2 -75 0 -21 2 -4 4 37 4 41 0 58 -2 38 -4z m140 0 c-16 -2 -40 -2 -55 0 -16 2 -3 4 27 4 30 0 43 -2 28 -4z m170 0 c-16 -2 -40 -2 -55 0 -16 2 -3 4 27 4 30 0 43 -2 28 -4z m129 1 c-3 -3 -12 -4 -19 -1 -8 3 -5 6 6 6 11 1 17 -2 13 -5z m117 -2 c-6 -4 -14 -14 -17 -22 -4 -12 -6 -11 -6 3 -1 9 -5 17 -11 17 -5 0 -11 -8 -11 -17 -1 -16 -2 -16 -6 -1 -2 9 -12 19 -21 21 -9 3 6 5 33 6 28 0 45 -3 39 -7z m409 1 c-13 -2 -33 -2 -45 0 -13 2 -3 4 22 4 25 0 35 -2 23 -4z m430 0 c-7 -2 -21 -2 -30 0 -10 3 -4 5 12 5 17 0 24 -2 18 -5z m255 0 c-27 -2 -69 -2 -95 0 -27 2 -5 3 47 3 52 0 74 -1 48 -3z m422 -10 c0 -12 -3 -14 -8 -6 -4 6 -34 14 -67 16 l-60 3 68 2 c58 2 67 0 67 -15z m447 -3 c3 -10 2 -11 -4 -3 -5 6 -29 14 -53 16 l-45 4 49 -1 c35 -1 51 -5 53 -16z m-3130 -22 c-3 -8 -6 -5 -6 6 -1 11 2 17 5 13 3 -3 4 -12 1 -19z m-330 -20 c-3 -7 -5 -2 -5 12 0 14 2 19 5 13 2 -7 2 -19 0 -25z m3143 22 c0 -5 -5 -10 -11 -10 -5 0 -7 5 -4 10 3 6 8 10 11 10 2 0 4 -4 4 -10z m337 -12 c-3 -8 -6 -5 -6 6 -1 11 2 17 5 13 3 -3 4 -12 1 -19z m-3399 -5 c-10 -2 -28 -2 -40 0 -13 2 -5 4 17 4 22 1 32 -1 23 -4z m409 1 c-3 -3 -12 -4 -19 -1 -8 3 -5 6 6 6 11 1 17 -2 13 -5z m960 -26 c-3 -7 -5 -2 -5 12 0 14 2 19 5 13 2 -7 2 -19 0 -25z m346 25 c-20 -4 -23 -11 -23 -48 0 -42 0 -43 38 -47 65 -6 72 -1 72 47 0 42 -1 44 -32 48 -32 4 -32 4 5 5 27 2 37 -2 37 -13 0 -13 56 -15 440 -15 407 0 465 -3 430 -25 -5 -3 -10 -1 -10 5 0 7 -111 10 -370 9 -261 -2 -370 -5 -370 -13 0 -7 -3 -8 -8 -1 -4 6 -31 11 -59 11 -50 1 -53 0 -53 -24 0 -22 2 -23 17 -11 13 11 98 15 431 17 l414 4 -7 -31 c-11 -49 11 -98 53 -121 37 -19 30 -19 -1123 -20 -1148 0 -1160 0 -1129 19 37 22 59 78 50 122 l-6 30 533 -5 c619 -4 608 -4 624 -18 10 -8 13 -4 13 18 0 28 -1 29 -52 28 l-53 -1 48 4 c30 3 50 10 54 19 3 8 17 13 32 13 23 -2 24 -2 4 -6z m1028 -8 c-18 -8 -36 -15 -40 -15 -13 1 45 29 59 29 8 0 0 -6 -19 -14z m66 9 c-3 -3 -12 -4 -19 -1 -8 3 -5 6 6 6 11 1 17 -2 13 -5z m421 -1 c-10 -2 -26 -2 -35 0 -10 3 -2 5 17 5 19 0 27 -2 18 -5z m-3331 -25 c-3 -8 -6 -5 -6 6 -1 11 2 17 5 13 3 -3 4 -12 1 -19z m2948 12 c3 -5 2 -10 -4 -10 -5 0 -13 5 -16 10 -3 6 -2 10 4 10 5 0 13 -4 16 -10z m435 -43 c0 -29 -17 -11 -22 24 -5 29 -4 30 9 14 7 -11 13 -27 13 -38z m-2873 37 c-3 -3 -12 -4 -19 -1 -8 3 -5 6 6 6 11 1 17 -2 13 -5z m2400 0 c-3 -3 -12 -4 -19 -1 -8 3 -5 6 6 6 11 1 17 -2 13 -5z m531 -12 c35 3 39 1 31 -13 -4 -9 -5 -19 -2 -23 3 -3 -11 -6 -31 -6 -29 0 -37 3 -33 14 3 8 -1 17 -9 20 -8 3 -14 11 -14 18 0 10 2 10 9 -1 6 -9 22 -12 49 -9z m-1988 -2 c0 -7 -150 -10 -430 -10 -280 0 -430 3 -430 10 0 7 150 10 430 10 280 0 430 -3 430 -10z m50 0 c0 -5 -5 -10 -11 -10 -5 0 -7 5 -4 10 3 6 8 10 11 10 2 0 4 -4 4 -10z m155 0 c-3 -5 -35 -10 -71 -10 -36 0 -64 4 -64 10 0 6 30 10 71 10 44 0 68 -4 64 -10z m-1675 -4 c0 -14 -35 -36 -58 -36 -19 0 -23 3 -13 9 7 5 10 14 7 20 -5 7 5 11 28 11 20 0 36 -2 36 -4z m228 -57 c-3 -8 -7 -3 -11 10 -4 17 -3 21 5 13 5 -5 8 -16 6 -23z m2579 9 c-3 -8 -6 -5 -6 6 -1 11 2 17 5 13 3 -3 4 -12 1 -19z m395 0 c-7 -7 -12 -8 -12 -2 0 14 12 26 19 19 2 -3 -1 -11 -7 -17z m-2882 -12 c0 -3 -4 -8 -10 -11 -5 -3 -10 -1 -10 4 0 6 5 11 10 11 6 0 10 -2 10 -4z m37 -28 c-3 -8 -6 -5 -6 6 -1 11 2 17 5 13 3 -3 4 -12 1 -19z m48 4 c-3 -3 -11 0 -18 7 -9 10 -8 11 6 5 10 -3 15 -9 12 -12z m72 12 c-3 -3 -12 -4 -19 -1 -8 3 -5 6 6 6 11 1 17 -2 13 -5z m2750 0 c-3 -3 -12 -4 -19 -1 -8 3 -5 6 6 6 11 1 17 -2 13 -5z m-2727 -34 c0 -5 -2 -10 -4 -10 -3 0 -8 5 -11 10 -3 6 -1 10 4 10 6 0 11 -4 11 -10z m-186 -40 c50 0 88 4 91 11 5 7 15 4 29 -9 11 -11 30 -24 41 -30 15 -9 -24 -11 -165 -12 l-184 0 34 29 c26 21 39 27 52 20 9 -5 55 -9 102 -9z m2799 2 c60 -2 93 1 103 9 12 10 19 8 35 -10 14 -14 28 -20 42 -17 12 3 16 3 8 0 -11 -5 -11 -8 0 -15 8 -5 -65 -9 -175 -9 l-189 0 29 29 c17 17 35 26 44 23 8 -4 55 -8 103 -10z m-2623 -12 c8 -5 11 -10 5 -10 -5 0 -17 5 -25 10 -8 5 -10 10 -5 10 6 0 17 -5 25 -10z m85 0 c-3 -5 -12 -10 -18 -10 -7 0 -6 4 3 10 19 12 23 12 15 0z"/>
<path d="M13418 6173 c7 -3 16 -2 19 1 4 3 -2 6 -13 5 -11 0 -14 -3 -6 -6z"/>
<path d="M10992 5839 c2 -6 8 -10 13 -10 5 0 11 4 13 10 2 6 -4 11 -13 11 -9 0 -15 -5 -13 -11z"/>
</g>
</svg>