<svg xmlns="http://www.w3.org/2000/svg" viewBox="3.40 250.90 694.80 276.30">
<g transform="translate(0.000000,768.000000) scale(0.100000,-0.100000)" fill="currentColor" stroke="none">
<path d="M2700 4995 l0 -105 43 0 c24 0 48 5 55 12 16 16 16 70 0 86 -9 9 -9 15 0 24 35 35 -2 88 -61 88 l-37 0 0 -105z m75 44 c0 -19 -6 -25 -27 -27 -25 -3 -28 0 -28 26 0 36 7 43 33 33 14 -5 22 -17 22 -32z m-4 -59 c37 -20 17 -70 -28 -70 -20 0 -23 5 -23 40 0 43 13 50 51 30z"/>
<path d="M2930 4995 l0 -105 50 0 c38 0 52 4 60 19 12 24 13 68 1 75 -5 3 -7 25 -4 48 7 50 -11 68 -69 68 l-38 0 0 -105z m85 65 c12 -20 -6 -50 -31 -50 -20 0 -24 5 -24 30 0 25 4 30 24 30 14 0 28 -5 31 -10z m-5 -84 c20 -26 8 -61 -22 -64 -27 -3 -28 -1 -28 37 0 33 3 41 19 41 10 0 24 -7 31 -14z"/>
<path d="M3156 5078 c-9 -12 -16 -30 -16 -39 0 -19 45 -59 66 -59 22 0 38 -39 23 -56 -17 -21 -52 -13 -64 14 -13 30 -27 28 -23 -5 2 -17 13 -33 31 -43 24 -13 30 -13 54 0 50 28 43 86 -14 116 -28 15 -38 26 -38 44 0 33 44 42 52 11 7 -26 23 -28 23 -3 0 45 -67 59 -94 20z"/>
<path d="M3290 4995 l0 -105 43 0 c63 0 82 24 82 105 0 81 -19 105 -82 105 l-43 0 0 -105z m94 59 c10 -25 7 -104 -4 -125 -6 -11 -21 -19 -35 -19 -24 0 -25 2 -25 80 l0 80 29 0 c17 0 31 -6 35 -16z"/>
<path d="M3442 5088 c3 -7 24 -14 47 -16 l42 -3 -20 -32 c-15 -25 -51 -126 -51 -144 0 -2 6 -3 14 -3 9 0 18 19 26 52 6 29 22 71 35 95 14 23 25 46 25 52 0 7 -24 11 -61 11 -44 0 -60 -3 -57 -12z"/>
<path d="M3595 5080 c-14 -16 -19 -37 -19 -90 -1 -58 2 -73 21 -91 60 -60 115 39 83 150 -15 54 -52 67 -85 31z m54 -14 c7 -9 11 -41 9 -82 -3 -58 -6 -69 -22 -72 -26 -5 -36 15 -36 76 0 77 22 111 49 78z"/>
<path d="M3731 5008 c-13 -51 -26 -99 -28 -105 -3 -7 2 -13 10 -13 9 0 18 13 22 31 6 27 10 30 38 27 27 -2 33 -8 35 -30 2 -19 9 -28 22 -28 18 0 18 2 0 63 -10 34 -24 81 -30 105 -7 29 -16 42 -28 42 -13 0 -23 -21 -41 -92z m58 -15 c1 -17 -5 -23 -19 -23 -19 0 -20 4 -14 38 4 20 9 41 12 47 7 11 19 -27 21 -62z"/>
<path d="M3870 4995 c0 -63 4 -105 10 -105 6 0 10 23 10 50 l0 50 35 0 c34 0 34 -1 41 -50 11 -85 24 -55 24 55 0 89 -2 105 -16 105 -12 0 -15 -9 -12 -42 l3 -43 -38 -3 -37 -3 0 45 c0 25 -4 46 -10 46 -6 0 -10 -42 -10 -105z"/>
<path d="M4102 5088 c3 -7 14 -14 26 -16 21 -3 22 -9 22 -93 0 -72 3 -89 15 -89 12 0 15 17 15 96 0 92 1 95 22 92 11 -2 23 3 25 10 4 9 -13 12 -62 12 -49 0 -66 -3 -63 -12z"/>
<path d="M4277 5034 c-46 -84 -47 -94 -2 -94 31 0 35 -3 35 -25 0 -16 6 -25 15 -25 9 0 15 9 15 24 0 13 6 27 13 30 10 5 10 7 0 12 -9 4 -13 29 -13 75 0 89 -15 90 -63 3z m33 -34 c0 -33 -3 -40 -20 -40 -11 0 -20 3 -20 6 0 9 32 74 36 74 2 0 4 -18 4 -40z"/>
<path d="M2837 4964 c3 -8 12 -13 20 -10 8 3 21 6 29 6 8 0 14 5 14 10 0 6 -16 10 -35 10 -27 0 -33 -3 -28 -16z"/>
<path d="M4020 4964 c0 -11 8 -14 32 -12 46 4 49 28 4 28 -26 0 -36 -4 -36 -16z"/>
<path d="M192 4633 c109 -2 287 -2 395 0 109 1 20 2 -197 2 -217 0 -306 -1 -198 -2z"/>
<path d="M903 4633 c64 -2 170 -2 235 0 64 1 11 3 -118 3 -129 0 -182 -2 -117 -3z"/>
<path d="M1273 4633 c9 -2 25 -2 35 0 9 3 1 5 -18 5 -19 0 -27 -2 -17 -5z"/>
<path d="M1338 4633 c6 -2 18 -2 25 0 6 3 1 5 -13 5 -14 0 -19 -2 -12 -5z"/>
<path d="M1603 4633 c103 -2 271 -2 375 0 103 1 18 2 -188 2 -206 0 -291 -1 -187 -2z"/>
<path d="M2183 4633 c9 -2 23 -2 30 0 6 3 -1 5 -18 5 -16 0 -22 -2 -12 -5z"/>
<path d="M2253 4633 c15 -2 39 -2 55 0 15 2 2 4 -28 4 -30 0 -43 -2 -27 -4z"/>
<path d="M2418 4633 c46 -2 118 -2 160 0 42 1 5 3 -83 3 -88 0 -123 -2 -77 -3z"/>
<path d="M2783 4633 c71 -2 183 -2 250 0 67 1 10 3 -128 3 -137 0 -192 -2 -122 -3z"/>
<path d="M3203 4633 c26 -2 67 -2 90 0 23 2 2 3 -48 3 -49 0 -68 -1 -42 -3z"/>
<path d="M3383 4633 c15 -2 37 -2 50 0 12 2 0 4 -28 4 -27 0 -38 -2 -22 -4z"/>
<path d="M3743 4633 c153 -2 401 -2 550 0 150 1 25 2 -278 2 -302 0 -425 -1 -272 -2z"/>
<path d="M4653 4633 c15 -2 39 -2 55 0 15 2 2 4 -28 4 -30 0 -43 -2 -27 -4z"/>
<path d="M4818 4633 c12 -2 30 -2 40 0 9 3 -1 5 -23 4 -22 0 -30 -2 -17 -4z"/>
<path d="M5138 4633 c100 -2 264 -2 365 0 100 1 18 2 -183 2 -201 0 -283 -1 -182 -2z"/>
<path d="M5747 4633 c18 -2 50 -2 70 0 21 2 7 4 -32 4 -38 0 -55 -2 -38 -4z"/>
<path d="M5923 4633 c9 -2 25 -2 35 0 9 3 1 5 -18 5 -19 0 -27 -2 -17 -5z"/>
<path d="M6093 4633 c26 -2 67 -2 90 0 23 2 2 3 -48 3 -49 0 -68 -1 -42 -3z"/>
<path d="M6257 4633 c18 -2 50 -2 70 0 21 2 7 4 -32 4 -38 0 -55 -2 -38 -4z"/>
<path d="M6413 4633 c15 -2 39 -2 55 0 15 2 2 4 -28 4 -30 0 -43 -2 -27 -4z"/>
<path d="M6543 4633 c15 -2 39 -2 55 0 15 2 2 4 -28 4 -30 0 -43 -2 -27 -4z"/>
<path d="M6752 4633 c37 -2 100 -2 140 0 40 1 10 3 -67 3 -77 0 -110 -1 -73 -3z"/>
<path d="M4762 4043 c3 -16 21 -18 208 -18 187 0 205 2 208 18 3 16 -12 17 -208 17 -196 0 -211 -1 -208 -17z"/>
<path d="M5370 4040 c0 -19 7 -20 210 -20 203 0 210 1 210 20 0 19 -7 20 -210 20 -203 0 -210 -1 -210 -20z"/>
<path d="M3774 4026 c-9 -35 2 -48 28 -33 16 9 22 9 25 -1 3 -6 9 -10 14 -6 5 3 9 -9 9 -27 0 -28 3 -31 23 -25 12 3 27 6 32 6 6 0 11 12 10 28 0 22 5 28 28 30 17 2 27 -1 28 -10 0 -7 5 -2 10 11 13 34 -7 54 -26 27 -13 -17 -15 -17 -21 -3 -4 12 -11 14 -22 8 -10 -6 -24 -5 -36 1 -14 8 -21 8 -24 0 -3 -11 -40 -5 -59 10 -9 7 -14 2 -19 -16z"/>
<path d="M973 3988 c1 -24 5 -42 10 -40 4 1 23 2 43 2 36 0 37 0 31 35 -3 20 -2 35 4 35 6 0 9 -17 7 -37 -3 -36 -5 -38 -39 -41 l-37 -3 -6 -62 c-4 -34 -10 -79 -13 -99 l-6 -38 37 0 c44 0 82 -18 116 -55 l25 -27 5 134 5 133 -28 38 c-15 20 -24 37 -19 37 5 0 20 -16 33 -35 l24 -35 333 0 332 0 0 40 0 40 -375 0 c-243 0 -375 4 -375 10 0 6 -24 10 -54 10 l-55 0 2 -42z m163 -120 c-3 -13 -6 -42 -6 -65 l0 -43 -71 0 -71 0 6 28 c2 15 7 44 11 65 l6 37 66 0 c63 0 65 -1 59 -22z"/>
<path d="M3110 4005 c0 -12 23 -15 128 -18 l127 -3 -154 -2 c-114 -1 -152 -5 -144 -13 8 -8 60 -9 185 -3 95 4 162 10 149 12 -13 2 -26 12 -28 23 -5 17 -16 19 -134 19 -107 0 -129 -3 -129 -15z"/>
<path d="M1840 3955 l0 -55 185 0 185 0 0 40 0 40 170 0 170 0 0 -40 c0 -33 3 -40 20 -40 17 0 20 7 20 39 0 22 3 46 6 55 6 14 -32 16 -375 16 l-381 0 0 -55z"/>
<path d="M2610 3955 c0 -48 3 -55 19 -55 14 0 21 8 24 28 l4 27 2 -27 c1 -21 6 -28 21 -28 15 0 20 7 21 28 l1 27 8 -30 8 -30 2 30 2 30 8 -30 8 -30 1 28 c0 15 6 27 12 27 6 0 8 -7 5 -16 -3 -9 -3 -21 1 -27 5 -7 10 0 14 18 l7 30 2 -30 2 -30 8 30 8 30 1 -27 c0 -16 6 -28 11 -28 6 0 11 12 11 28 l1 27 8 -30 8 -30 1 37 1 36 -110 -3 c-63 -2 -110 0 -110 6 0 5 72 9 170 9 l170 0 0 -40 c0 -33 3 -40 20 -40 11 0 20 6 20 13 0 9 3 8 9 -2 5 -7 13 -11 19 -7 6 3 18 -4 26 -16 13 -18 16 -59 18 -223 l2 -200 6 160 6 160 2 -182 2 -182 28 -3 27 -3 5 -180 6 -180 2 183 2 182 35 0 35 0 3 183 2 182 3 -182 2 -183 70 0 70 0 0 174 0 175 -27 4 c-26 4 -26 4 5 6 l32 1 0 -180 c0 -159 2 -180 16 -180 12 0 15 6 10 25 -4 14 -2 25 4 25 5 0 10 -11 10 -25 0 -24 3 -25 55 -25 l55 0 0 174 c0 158 -2 175 -17 178 -10 3 19 5 63 6 45 2 89 0 98 -4 14 -5 16 -28 16 -180 l0 -174 61 0 61 0 -7 148 c-5 92 -11 150 -19 154 -8 6 -8 8 2 8 22 0 13 38 -10 43 -13 2 65 4 172 4 107 0 185 -2 173 -4 -23 -4 -25 -8 -25 -43 0 -11 0 -85 1 -165 l1 -145 61 0 60 0 -2 138 c-3 197 -5 210 -38 215 -14 2 12 4 59 4 47 0 64 -2 38 -4 l-48 -4 0 -175 0 -174 60 0 60 0 0 180 0 180 58 0 c31 0 62 -4 67 -8 14 -10 19 -46 6 -37 -6 3 -11 13 -11 21 0 10 -13 14 -50 14 l-50 0 0 -175 0 -175 65 0 65 0 0 185 0 185 -543 0 -544 0 5 -31 c3 -22 7 -27 13 -18 6 10 9 10 9 2 0 -6 -4 -15 -10 -18 -6 -3 -11 -58 -12 -123 l-1 -117 -8 150 c-5 83 -7 155 -5 160 2 7 194 9 555 7 l551 -2 0 -190 c0 -184 1 -190 20 -190 20 0 20 6 20 255 -1 246 -2 255 -20 255 -16 0 -20 -7 -20 -37 l0 -38 -540 3 -540 3 -9 -23 c-8 -18 -10 -7 -10 45 l-1 67 -209 0 -210 0 -3 28 -3 27 -192 3 -193 2 0 -55z m27 -27 c-3 -8 -6 -5 -6 6 -1 11 2 17 5 13 3 -3 4 -12 1 -19z m40 0 c-3 -8 -6 -5 -6 6 -1 11 2 17 5 13 3 -3 4 -12 1 -19z m631 -135 c-43 -2 -113 -2 -155 0 -43 1 -8 3 77 3 85 0 120 -2 78 -3z m0 -20 c-10 -2 -26 -2 -35 0 -10 3 -2 5 17 5 19 0 27 -2 18 -5z m165 0 c-7 -2 -19 -2 -25 0 -7 3 -2 5 12 5 14 0 19 -2 13 -5z m-353 -27 c0 -3 -4 -8 -10 -11 -5 -3 -10 -1 -10 4 0 6 5 11 10 11 6 0 10 -2 10 -4z m25 -6 c3 -5 1 -10 -4 -10 -6 0 -11 5 -11 10 0 6 2 10 4 10 3 0 8 -4 11 -10z m1330 -10 c3 -5 1 -10 -4 -10 -6 0 -11 5 -11 10 0 6 2 10 4 10 3 0 8 -4 11 -10z"/>
<path d="M4650 3995 c0 -13 77 -15 630 -15 553 0 630 2 630 15 0 13 -77 15 -630 15 -553 0 -630 -2 -630 -15z"/>
<path d="M5972 4000 c5 -15 431 -16 436 -1 3 8 -60 11 -218 11 -146 0 -221 -3 -218 -10z"/>
<path d="M6420 4002 c0 -4 29 -7 65 -7 36 0 65 3 65 8 0 4 -29 7 -65 7 -36 0 -65 -3 -65 -8z"/>
<path d="M6415 3970 c-2 -3 -3 -268 -1 -588 1 -320 -2 -582 -6 -582 -4 0 -8 68 -8 150 l0 150 -25 0 c-16 0 -25 -6 -25 -15 0 -8 5 -15 10 -15 6 0 9 -26 8 -62 l-2 -63 -3 53 -4 52 -1234 0 -1235 0 -3 183 -2 182 -3 -182 -2 -183 -1275 0 -1275 0 0 -31 c0 -30 -16 -55 -35 -55 -5 0 -27 3 -48 6 -20 4 -40 4 -43 -1 -2 -4 -11 -6 -19 -2 -16 5 -22 73 -7 73 5 0 7 -12 5 -27 l-5 -28 66 0 66 0 0 32 0 33 -260 0 -260 0 0 -65 0 -65 220 0 c205 0 219 1 213 18 -6 15 -5 15 12 -2 18 -18 19 -18 32 0 11 15 13 16 13 2 0 -15 48 -16 558 -12 306 3 563 5 571 4 11 0 11 3 0 17 -8 10 3 6 23 -10 l37 -27 576 0 577 0 17 22 c18 22 41 18 41 -8 0 -10 12 -14 40 -14 39 0 40 1 40 35 0 19 -6 38 -14 42 -8 4 -57 6 -109 3 -80 -4 -100 -9 -121 -27 l-26 -23 -458 0 c-353 0 -461 -3 -471 -12 -10 -11 -11 -10 -6 5 7 15 29 17 254 18 135 1 343 1 461 0 l215 -3 29 31 c29 30 32 31 124 31 115 0 132 -8 132 -60 l0 -40 393 0 c215 0 416 -3 445 -6 47 -6 57 -3 80 18 61 54 73 59 20 8 -31 -30 -62 -68 -67 -83 -24 -63 -7 -159 38 -209 21 -24 41 -33 94 -43 37 -7 67 -9 67 -4 0 13 -15 18 -63 22 -88 8 -127 58 -127 164 0 46 5 66 25 95 14 21 34 42 45 48 12 7 285 8 826 5 462 -3 812 -1 818 4 8 6 12 -12 14 -61 2 -39 8 -81 13 -95 5 -13 9 -42 9 -64 0 -33 3 -39 20 -39 20 0 21 4 18 220 l-3 220 78 0 78 0 -3 329 c-2 260 0 327 10 324 9 -4 12 9 11 48 -2 50 -2 51 -9 19 -5 -25 -8 -10 -9 57 l-1 92 -85 -1 c-48 -1 -88 -4 -90 -8z m-575 -959 l0 -28 63 1 c61 2 62 2 59 29 -2 15 1 27 8 27 7 0 10 -13 8 -32 l-3 -33 -77 -2 -78 -3 0 35 c0 19 5 35 10 35 6 0 10 -13 10 -29z m-1980 -56 c0 -8 -5 -17 -11 -21 -16 -10 -29 17 -16 31 14 15 27 10 27 -10z m-41 -28 c1 -5 -3 -5 -9 -2 -5 3 -10 16 -9 28 0 21 1 21 9 2 5 -11 9 -24 9 -28z m2061 29 c0 -3 -4 -8 -10 -11 -5 -3 -10 -1 -10 4 0 6 5 11 10 11 6 0 10 -2 10 -4z"/>
<path d="M2862 3962 c-7 -2 -11 -18 -11 -35 l1 -32 8 30 8 30 1 -28 c1 -17 5 -26 11 -22 6 4 8 15 5 26 -4 11 -2 19 4 19 6 0 12 -12 12 -27 l1 -28 8 30 8 30 2 -30 2 -30 8 30 7 30 5 -30 c5 -28 5 -27 7 8 1 38 1 38 -37 36 -21 -2 -43 -4 -50 -7z"/>
<path d="M4572 3953 c3 -17 46 -18 701 -21 692 -2 697 -2 697 18 0 20 -6 20 -701 20 -662 0 -700 -1 -697 -17z"/>
<path d="M5984 3954 c3 -9 6 -135 6 -280 0 -162 4 -264 10 -264 5 0 11 35 13 78 l3 77 2 -77 c3 -102 22 -103 22 -2 l0 75 28 -3 c26 -3 27 -6 30 -60 2 -43 7 -58 17 -58 19 0 21 106 3 113 -8 3 -6 6 5 6 14 1 17 -8 17 -59 0 -53 2 -60 20 -60 16 0 20 8 23 58 l3 57 2 -57 c2 -50 5 -58 22 -58 16 0 20 8 23 63 l3 62 2 -62 c3 -84 25 -87 38 -5 8 51 12 57 34 60 25 3 26 1 25 -54 0 -39 4 -59 13 -62 11 -3 13 9 10 57 -1 34 0 61 5 61 4 0 7 -34 7 -75 0 -60 3 -75 15 -75 13 0 15 38 15 280 l0 280 -211 0 c-188 0 -210 -2 -205 -16z m116 -38 c0 -11 -19 -15 -25 -6 -3 5 1 10 9 10 9 0 16 -2 16 -4z m120 0 c0 -11 -19 -15 -25 -6 -3 5 1 10 9 10 9 0 16 -2 16 -4z m130 -6 c0 -5 -7 -10 -15 -10 -8 0 -15 5 -15 10 0 6 7 10 15 10 8 0 15 -4 15 -10z m-255 -30 c-3 -5 -10 -10 -16 -10 -5 0 -9 5 -9 10 0 6 7 10 16 10 8 0 12 -4 9 -10z m125 0 c0 -5 -4 -10 -10 -10 -5 0 -10 5 -10 10 0 6 5 10 10 10 6 0 10 -4 10 -10z m125 0 c3 -5 1 -10 -4 -10 -6 0 -11 5 -11 10 0 6 2 10 4 10 3 0 8 -4 11 -10z m-245 -34 c0 -11 -19 -15 -25 -6 -3 5 1 10 9 10 9 0 16 -2 16 -4z m117 -2 c-3 -3 -12 -4 -19 -1 -8 3 -5 6 6 6 11 1 17 -2 13 -5z m133 2 c0 -11 -19 -15 -25 -6 -3 5 1 10 9 10 9 0 16 -2 16 -4z m-253 -32 c-3 -3 -12 -4 -19 -1 -8 3 -5 6 6 6 11 1 17 -2 13 -5z m56 -1 c-7 -2 -21 -2 -30 0 -10 3 -4 5 12 5 17 0 24 -2 18 -5z m160 0 c-24 -2 -62 -2 -85 0 -24 2 -5 4 42 4 47 0 66 -2 43 -4z m37 -37 c0 -3 -4 -8 -10 -11 -5 -3 -10 -1 -10 4 0 6 5 11 10 11 6 0 10 -2 10 -4z m-57 -203 c-51 -2 -136 -2 -190 0 -54 1 -12 3 92 3 105 0 149 -2 98 -3z"/>
<path d="M2220 3930 l0 -30 160 0 160 0 0 30 0 30 -160 0 -160 0 0 -30z"/>
<path d="M1169 3918 c-1 -2 -4 -64 -8 -138 l-6 -135 -130 -5 c-120 -5 -134 -7 -177 -33 l-48 -28 0 -234 0 -235 169 0 169 0 29 38 c15 21 57 72 92 115 l64 77 253 0 254 0 0 290 0 290 -330 0 c-181 0 -331 -1 -331 -2z m151 -38 c30 -25 44 -29 93 -30 l57 0 0 -80 0 -80 -60 0 -60 0 0 78 c-1 72 -2 78 -27 96 -16 12 -42 19 -62 19 -20 0 -26 1 -13 4 12 2 22 9 22 14 0 16 15 10 50 -21z m-110 -5 c-7 -9 -15 -13 -17 -11 -7 7 7 26 19 26 6 0 6 -6 -2 -15z m546 -75 l0 -85 -3 83 -4 82 -48 0 c-70 0 -91 -28 -91 -120 l0 -70 -59 0 -59 0 -4 80 -3 80 63 0 c50 0 66 4 80 20 14 17 27 20 72 18 l55 -3 1 -85z m-446 -25 l0 -95 -45 0 -45 0 0 95 0 95 45 0 45 0 0 -95z m430 -1 l0 -95 -47 3 -48 3 -3 70 c-5 106 0 115 53 115 l45 0 0 -96z m-465 -107 l60 -3 -67 -2 c-59 -2 -68 0 -68 16 0 11 3 13 8 5 4 -6 34 -14 67 -16z m421 3 c29 0 55 5 57 10 3 6 4 5 3 -2 -2 -8 -24 -14 -63 -16 -51 -2 -62 0 -67 15 -6 14 -5 16 5 6 7 -7 36 -13 65 -13z m14 -33 c41 -2 -59 -4 -222 -5 -164 -1 -298 1 -298 6 0 6 338 6 520 -1z m-72 -24 c-81 -2 -216 -2 -300 0 -84 1 -18 3 147 3 165 0 234 -2 153 -3z"/>
<path d="M3440 3895 l0 -25 535 0 535 0 0 25 0 25 -535 0 -535 0 0 -25z"/>
<path d="M4570 3755 l0 -165 700 0 c616 0 700 2 700 15 0 13 -85 15 -697 16 -384 1 -690 3 -680 6 15 4 17 17 17 98 0 81 -2 94 -17 98 -10 3 296 5 680 6 l697 1 0 45 0 45 -700 0 -700 0 0 -165z"/>
<path d="M1840 3771 l0 -121 33 0 34 0 -1 118 -1 117 -32 3 -33 3 0 -120z"/>
<path d="M1940 3770 l0 -120 155 0 155 0 0 25 c0 18 -5 25 -20 25 -19 0 -20 7 -20 95 l0 95 -135 0 -135 0 0 -120z"/>
<path d="M2220 3800 c0 -73 3 -90 15 -90 12 0 15 17 15 90 0 73 -3 90 -15 90 -12 0 -15 -17 -15 -90z"/>
<path d="M2262 3768 l-2 -128 -165 0 -164 0 -4 123 c-2 107 -3 101 -5 -50 l-2 -173 330 0 330 0 2 -62 1 -63 7 65 7 65 1 -67 2 -68 -345 0 -345 0 0 115 0 115 -35 0 -35 0 0 -259 0 -259 29 -4 c16 -2 131 -3 257 -3 465 4 464 4 464 20 0 14 -41 15 -340 13 l-340 -3 0 118 0 117 345 0 c338 0 345 0 345 -20 0 -11 -5 -20 -11 -20 -6 0 -9 7 -5 15 5 13 -36 15 -329 15 l-335 0 0 -45 0 -45 328 0 327 0 -5 -57 -4 -58 -7 55 -6 55 -3 -55 -3 -55 -7 55 -7 55 -3 -55 -3 -55 -7 55 -6 55 -5 -55 -5 -55 -2 53 c-2 44 -5 52 -21 52 -15 0 -21 -8 -24 -32 l-4 -33 -3 35 c-3 30 -4 27 -10 -20 l-7 -55 -1 53 c-2 39 -6 52 -17 52 -12 0 -15 -13 -15 -55 l0 -55 100 0 c99 0 100 0 100 -24 l0 -24 143 3 c78 1 170 3 205 4 l62 1 -2 258 -3 257 -205 2 c-113 1 -213 2 -222 3 -15 0 -18 15 -21 123 l-3 122 -2 -122 -2 -123 -140 0 -139 0 -4 128 -3 127 -2 -127z m716 -270 l-3 -113 -170 4 c-93 1 -173 5 -177 8 -5 2 -8 51 -8 109 l0 104 180 0 181 0 -3 -112z m-698 81 c0 -15 -4 -19 -16 -15 -9 3 -20 6 -25 6 -5 0 -9 7 -9 15 0 9 9 15 25 15 19 0 25 -5 25 -21z m-6 -260 c-9 -14 -41 -10 -48 6 -3 8 -1 15 4 15 6 0 10 -4 10 -10 0 -5 4 -10 10 -10 5 0 6 8 3 18 -6 15 -5 15 10 3 9 -7 14 -17 11 -22z m326 1 c0 -5 -4 -10 -10 -10 -5 0 -10 5 -10 10 0 6 5 10 10 10 6 0 10 -4 10 -10z m-3 -122 c-2 -18 -4 -4 -4 32 0 36 2 50 4 33 2 -18 2 -48 0 -65z m-180 -5 c-2 -16 -4 -5 -4 22 0 28 2 40 4 28 2 -13 2 -35 0 -50z m70 -5 c-2 -13 -4 -3 -4 22 0 25 2 35 4 23 2 -13 2 -33 0 -45z m319 43 c0 -12 -7 -18 -21 -18 -14 0 -21 6 -21 18 0 13 7 19 21 19 14 0 21 -6 21 -19z"/>
<path d="M2634 3500 c0 -58 1 -81 3 -52 2 28 2 76 0 105 -2 28 -3 5 -3 -53z"/>
<path d="M2650 3500 c0 -60 4 -100 10 -100 6 0 10 40 10 100 0 60 -4 100 -10 100 -6 0 -10 -40 -10 -100z"/>
<path d="M2682 3495 l2 -100 6 75 6 75 2 -72 c3 -112 22 -89 22 26 0 94 -1 100 -20 98 -19 -1 -20 -8 -18 -102z"/>
<path d="M2731 3495 c1 -70 4 -90 9 -65 l7 35 2 -32 c0 -18 6 -33 11 -33 6 0 10 39 10 98 0 91 -1 98 -20 98 -19 0 -20 -7 -19 -101z"/>
<path d="M2780 3502 c0 -91 1 -98 20 -99 19 -2 20 4 20 98 0 92 -1 99 -20 99 -19 0 -20 -7 -20 -98z"/>
<path d="M2830 3500 c0 -60 4 -100 10 -100 6 0 10 40 10 100 0 60 -4 100 -10 100 -6 0 -10 -40 -10 -100z"/>
<path d="M2862 3500 c-1 -71 1 -100 8 -90 6 10 10 11 10 3 0 -7 5 -13 10 -13 6 0 10 40 10 100 0 116 -19 140 -22 28 l-2 -73 -6 75 -6 75 -2 -105z"/>
<path d="M2910 3503 c0 -96 1 -103 20 -103 19 0 20 7 20 100 0 60 -4 100 -10 100 -5 0 -10 -6 -10 -12 0 -9 -4 -8 -10 2 -7 10 -10 -18 -10 -87z"/>
<path d="M2964 3500 c0 -58 1 -81 3 -52 2 28 2 76 0 105 -2 28 -3 5 -3 -53z"/>
<path d="M2280 3800 l0 -90 130 0 130 0 0 90 0 90 -130 0 -130 0 0 -90z m180 60 c0 -5 -16 -10 -35 -10 -19 0 -35 5 -35 10 0 6 16 10 35 10 19 0 35 -4 35 -10z"/>
<path d="M2570 3771 c0 -74 4 -121 10 -121 6 0 10 45 10 114 0 66 -4 117 -10 121 -6 4 -10 -37 -10 -114z"/>
<path d="M2610 3770 l0 -120 160 0 160 0 0 60 0 60 -147 2 c-82 1 -124 3 -95 5 l52 4 -2 57 -1 57 -7 -55 -7 -55 -1 50 c-2 43 -5 51 -22 52 -16 1 -20 -6 -23 -50 l-3 -52 -2 53 c-2 39 -6 52 -17 52 -11 0 -15 -11 -13 -47 l1 -48 7 45 8 45 -2 -44 c-2 -65 -26 -67 -26 -2 0 28 -4 51 -10 51 -6 0 -10 -47 -10 -120z m100 55 c0 -19 -4 -35 -8 -35 -4 0 -6 16 -4 35 2 19 6 35 8 35 2 0 4 -16 4 -35z"/>
<path d="M2750 3835 l0 -55 90 0 90 0 -2 58 -1 57 -7 -55 -7 -55 -1 52 c-2 45 -4 51 -21 46 -12 -3 -22 -16 -24 -32 -3 -23 -4 -21 -7 9 -3 30 -4 26 -10 -20 l-7 -55 -3 55 -3 55 -7 -55 -7 -55 -1 53 c-1 28 -6 52 -12 52 -5 0 -11 -24 -12 -52 l-1 -53 -7 55 -6 55 -5 -55 -5 -55 -2 53 c-3 69 -22 67 -22 -3z m147 -27 c-2 -13 -4 -3 -4 22 0 25 2 35 4 23 2 -13 2 -33 0 -45z"/>
<path d="M2943 3825 c0 -38 2 -53 4 -32 2 20 2 52 0 70 -2 17 -4 1 -4 -38z"/>
<path d="M2970 3770 c0 -108 2 -120 18 -120 15 0 17 11 14 120 -3 96 -6 120 -18 120 -11 0 -14 -22 -14 -120z"/>
<path d="M3020 3506 l0 -383 31 -7 c17 -3 42 -6 55 -6 34 0 31 28 -3 32 l-28 3 -6 180 c-4 99 -7 258 -8 353 -1 164 -8 212 -31 212 -6 0 -10 -144 -10 -384z"/>
<path d="M4620 3724 c0 -61 4 -93 10 -89 6 3 10 46 10 96 0 53 -4 89 -10 89 -6 0 -10 -39 -10 -96z"/>
<path d="M4650 3724 c0 -61 4 -93 10 -89 6 3 10 46 10 96 0 53 -4 89 -10 89 -6 0 -10 -39 -10 -96z"/>
<path d="M4680 3725 c0 -57 4 -95 10 -95 6 0 10 38 10 95 0 57 -4 95 -10 95 -6 0 -10 -38 -10 -95z"/>
<path d="M4710 3726 c0 -89 1 -95 20 -93 19 1 20 8 18 97 l-2 95 -6 -90 -6 -90 -2 88 c-3 120 -22 114 -22 -7z"/>
<path d="M4760 3725 c0 -84 1 -91 20 -91 19 0 20 7 20 93 0 86 -1 92 -20 90 -18 -1 -20 -8 -20 -92z"/>
<path d="M4810 3731 c0 -50 5 -93 10 -96 6 -4 10 28 10 89 0 57 -4 96 -10 96 -6 0 -10 -36 -10 -89z"/>
<path d="M4840 3725 c0 -57 4 -95 10 -95 6 0 10 38 10 95 0 57 -4 95 -10 95 -6 0 -10 -38 -10 -95z"/>
<path d="M4870 3724 c0 -61 4 -93 10 -89 6 3 10 46 10 96 0 53 -4 89 -10 89 -6 0 -10 -39 -10 -96z"/>
<path d="M4900 3724 c0 -61 4 -93 10 -89 6 3 10 46 10 96 0 53 -4 89 -10 89 -6 0 -10 -39 -10 -96z"/>
<path d="M4930 3726 l0 -91 50 0 50 0 0 93 c0 118 -18 122 -23 5 l-3 -88 -2 88 c-2 91 -21 123 -24 40 l-1 -48 -6 45 c-4 33 -11 45 -23 46 -16 2 -18 -9 -18 -90z m27 -43 c-2 -21 -4 -4 -4 37 0 41 2 58 4 38 2 -21 2 -55 0 -75z"/>
<path d="M5040 3725 c0 -57 4 -95 10 -95 6 0 10 38 10 95 0 57 -4 95 -10 95 -6 0 -10 -38 -10 -95z"/>
<path d="M5070 3725 c0 -57 4 -95 10 -95 6 0 10 38 10 95 0 57 -4 95 -10 95 -6 0 -10 -38 -10 -95z"/>
<path d="M5100 3725 c0 -57 4 -95 10 -95 6 0 10 38 10 95 0 57 -4 95 -10 95 -6 0 -10 -38 -10 -95z"/>
<path d="M5130 3725 c0 -57 4 -95 10 -95 6 0 10 38 10 95 0 57 -4 95 -10 95 -6 0 -10 -38 -10 -95z"/>
<path d="M5160 3727 c0 -86 1 -93 20 -93 19 0 20 7 20 91 0 84 -2 91 -20 92 -19 2 -20 -4 -20 -90z"/>
<path d="M5214 3725 c0 -55 1 -76 3 -47 2 29 2 74 0 100 -2 26 -3 2 -3 -53z"/>
<path d="M5230 3725 c0 -57 4 -95 10 -95 6 0 10 38 10 95 0 57 -4 95 -10 95 -6 0 -10 -38 -10 -95z"/>
<path d="M5260 3724 c0 -61 4 -93 10 -89 6 3 10 46 10 96 0 53 -4 89 -10 89 -6 0 -10 -39 -10 -96z"/>
<path d="M5290 3725 c0 -57 4 -95 10 -95 6 0 10 38 10 95 0 57 -4 95 -10 95 -6 0 -10 -38 -10 -95z"/>
<path d="M5320 3725 c0 -57 4 -95 10 -95 6 0 10 38 10 95 0 57 -4 95 -10 95 -6 0 -10 -38 -10 -95z"/>
<path d="M5350 3725 c0 -93 1 -95 23 -91 21 3 22 8 25 94 2 57 -1 92 -7 92 -6 0 -12 -38 -14 -87 l-3 -88 -2 88 c-3 120 -22 114 -22 -8z"/>
<path d="M5410 3724 c0 -61 4 -93 10 -89 6 3 10 46 10 96 0 53 -4 89 -10 89 -6 0 -10 -39 -10 -96z"/>
<path d="M5440 3725 c0 -84 1 -91 20 -91 19 0 20 7 20 93 0 86 -1 92 -20 90 -18 -1 -20 -8 -20 -92z m27 -57 c-2 -13 -4 -5 -4 17 -1 22 1 32 4 23 2 -10 2 -28 0 -40z"/>
<path d="M5490 3725 c0 -57 4 -95 10 -95 6 0 10 38 10 95 0 57 -4 95 -10 95 -6 0 -10 -38 -10 -95z"/>
<path d="M5520 3725 c0 -57 4 -95 10 -95 6 0 10 38 10 95 0 57 -4 95 -10 95 -6 0 -10 -38 -10 -95z"/>
<path d="M5550 3725 c0 -57 4 -95 10 -95 6 0 10 38 10 95 0 57 -4 95 -10 95 -6 0 -10 -38 -10 -95z"/>
<path d="M5580 3726 l0 -94 95 0 95 0 0 94 c0 52 -4 94 -9 94 -5 0 -12 -8 -14 -17 -4 -17 -5 -17 -6 0 -1 20 -17 23 -24 5 -4 -10 -6 -10 -6 0 -1 6 -10 12 -21 12 -17 0 -20 -8 -23 -87 l-3 -88 -2 86 c-2 85 -3 87 -27 87 -24 0 -24 -3 -28 -87 l-3 -86 -2 88 c-3 120 -22 114 -22 -7z m57 -43 c-2 -21 -4 -4 -4 37 0 41 2 58 4 38 2 -21 2 -55 0 -75z m60 55 c-2 -13 -4 -5 -4 17 -1 22 1 32 4 23 2 -10 2 -28 0 -40z m24 -1 c2 -25 0 -50 -4 -53 -4 -4 -7 19 -7 51 0 69 8 70 11 2z m-24 -74 c-3 -10 -5 -2 -5 17 0 19 2 27 5 18 2 -10 2 -26 0 -35z m50 25 c-3 -8 -6 -5 -6 6 -1 11 2 17 5 13 3 -3 4 -12 1 -19z"/>
<path d="M5780 3726 c0 -93 0 -93 25 -93 25 0 25 0 25 93 0 119 -18 124 -23 7 l-3 -88 -2 88 c-3 119 -22 114 -22 -7z"/>
<path d="M5840 3725 c0 -57 4 -95 10 -95 6 0 10 38 10 95 0 57 -4 95 -10 95 -6 0 -10 -38 -10 -95z"/>
<path d="M5870 3725 c0 -57 4 -95 10 -95 6 0 10 38 10 95 0 57 -4 95 -10 95 -6 0 -10 -38 -10 -95z"/>
<path d="M5900 3727 c0 -77 3 -94 15 -94 12 0 15 17 15 94 0 76 -3 93 -15 93 -12 0 -15 -17 -15 -93z"/>
<path d="M5940 3725 c0 -78 3 -95 15 -95 12 0 15 17 15 95 0 78 -3 95 -15 95 -12 0 -15 -17 -15 -95z"/>
<path d="M3560 3595 l0 -175 59 0 59 0 7 103 c4 56 5 134 3 172 l-3 70 -62 3 -63 3 0 -176z"/>
<path d="M3830 3595 l0 -175 65 0 65 0 -2 173 -3 172 -62 3 -63 3 0 -176z m30 140 c0 -8 -2 -15 -4 -15 -2 0 -6 7 -10 15 -3 8 -1 15 4 15 6 0 10 -7 10 -15z"/>
<path d="M3970 3595 l0 -175 60 0 60 0 0 175 0 175 -60 0 -60 0 0 -175z"/>
<path d="M610 3420 l0 -310 50 0 50 0 0 -220 c0 -206 1 -220 18 -220 16 0 20 15 31 103 7 56 15 153 18 215 6 112 6 112 -17 112 l-23 0 5 -150 c3 -82 1 -147 -4 -144 -4 3 -8 74 -8 158 0 141 -2 159 -30 246 -16 52 -29 111 -28 130 0 26 2 29 5 10 2 -14 18 -73 35 -132 28 -98 33 -108 55 -108 l23 0 -2 238 -3 237 -47 30 c-44 28 -47 33 -47 73 l-1 42 -40 0 -40 0 0 -310z m58 198 c8 -10 4 -13 -14 -14 -20 -2 -23 1 -13 12 14 17 14 17 27 2z m2 -118 c-20 -13 -33 -13 -25 0 3 6 14 10 23 10 15 0 15 -2 2 -10z m-3 -107 c-10 -3 -14 -9 -10 -16 4 -7 -1 -6 -10 2 -23 18 -22 21 11 20 17 -1 20 -3 9 -6z"/>
<path d="M700 3698 c0 -40 5 -46 56 -79 l40 -27 55 29 c50 27 62 29 169 29 l115 1 -42 39 -42 40 -176 0 -175 0 0 -32z m117 -24 c-3 -3 -12 -4 -19 -1 -8 3 -5 6 6 6 11 1 17 -2 13 -5z m-47 -18 c0 -3 -4 -8 -10 -11 -5 -3 -10 -1 -10 4 0 6 5 11 10 11 6 0 10 -2 10 -4z"/>
<path d="M2287 3693 c-4 -3 -7 -15 -7 -25 0 -17 11 -18 130 -18 119 0 131 2 128 18 -2 9 -7 20 -13 24 -12 10 -229 10 -238 1z"/>
<path d="M4577 3573 c-4 -3 -7 -39 -7 -80 l0 -73 485 0 485 0 0 70 0 70 105 0 105 0 0 -70 0 -70 110 0 110 0 0 74 0 73 -46 7 c-73 10 -944 6 -989 -4 -25 -6 -41 -6 -43 0 -4 11 -305 14 -315 3z"/>
<path d="M5550 3486 c0 -37 4 -66 10 -66 6 0 10 26 10 59 0 33 -4 63 -10 66 -6 4 -10 -18 -10 -59z"/>
<path d="M5580 3486 c0 -37 4 -66 10 -66 6 0 10 26 10 59 0 33 -4 63 -10 66 -6 4 -10 -18 -10 -59z"/>
<path d="M5610 3486 c0 -59 2 -66 20 -66 18 0 20 6 18 68 l-1 67 -7 -65 -7 -65 -1 57 c-3 82 -22 85 -22 4z"/>
<path d="M5660 3485 c0 -37 4 -65 10 -65 6 0 10 28 10 65 0 37 -4 65 -10 65 -6 0 -10 -28 -10 -65z"/>
<path d="M5690 3485 c0 -37 4 -65 10 -65 6 0 10 28 10 65 0 37 -4 65 -10 65 -6 0 -10 -28 -10 -65z"/>
<path d="M5720 3486 c0 -37 4 -66 10 -66 6 0 10 26 10 59 0 33 -4 63 -10 66 -6 4 -10 -18 -10 -59z"/>
<path d="M6050 3495 c0 -42 3 -55 15 -55 12 0 15 13 15 55 0 42 -3 55 -15 55 -12 0 -15 -13 -15 -55z"/>
<path d="M6290 3495 c0 -42 3 -55 15 -55 12 0 15 13 15 55 0 42 -3 55 -15 55 -12 0 -15 -13 -15 -55z"/>
<path d="M1923 3475 c0 -33 2 -45 4 -27 2 18 2 45 0 60 -2 15 -4 0 -4 -33z"/>
<path d="M1943 3475 c0 -33 2 -45 4 -27 2 18 2 45 0 60 -2 15 -4 0 -4 -33z"/>
<path d="M1963 3475 c0 -33 2 -45 4 -27 2 18 2 45 0 60 -2 15 -4 0 -4 -33z"/>
<path d="M1983 3475 c0 -33 2 -45 4 -27 2 18 2 45 0 60 -2 15 -4 0 -4 -33z"/>
<path d="M2003 3475 c0 -33 2 -45 4 -27 2 18 2 45 0 60 -2 15 -4 0 -4 -33z"/>
<path d="M2023 3475 c0 -33 2 -45 4 -27 2 18 2 45 0 60 -2 15 -4 0 -4 -33z"/>
<path d="M2043 3475 c0 -33 2 -45 4 -27 2 18 2 45 0 60 -2 15 -4 0 -4 -33z"/>
<path d="M2063 3475 c0 -33 2 -45 4 -27 2 18 2 45 0 60 -2 15 -4 0 -4 -33z"/>
<path d="M2083 3475 c0 -33 2 -45 4 -27 2 18 2 45 0 60 -2 15 -4 0 -4 -33z"/>
<path d="M2103 3475 c0 -33 2 -45 4 -27 2 18 2 45 0 60 -2 15 -4 0 -4 -33z"/>
<path d="M2123 3475 c0 -33 2 -45 4 -27 2 18 2 45 0 60 -2 15 -4 0 -4 -33z"/>
<path d="M2143 3475 c0 -33 2 -45 4 -27 2 18 2 45 0 60 -2 15 -4 0 -4 -33z"/>
<path d="M2163 3475 c0 -33 2 -45 4 -27 2 18 2 45 0 60 -2 15 -4 0 -4 -33z"/>
<path d="M2183 3475 c0 -33 2 -45 4 -27 2 18 2 45 0 60 -2 15 -4 0 -4 -33z"/>
<path d="M2203 3475 c0 -33 2 -45 4 -27 2 18 2 45 0 60 -2 15 -4 0 -4 -33z"/>
<path d="M2223 3475 c0 -33 2 -45 4 -27 2 18 2 45 0 60 -2 15 -4 0 -4 -33z"/>
<path d="M2243 3475 c0 -33 2 -45 4 -27 2 18 2 45 0 60 -2 15 -4 0 -4 -33z"/>
<path d="M2263 3475 c0 -33 2 -45 4 -27 2 18 2 45 0 60 -2 15 -4 0 -4 -33z"/>
<path d="M2283 3475 c0 -33 2 -45 4 -27 2 18 2 45 0 60 -2 15 -4 0 -4 -33z"/>
<path d="M2302 3473 l2 -58 5 55 5 55 6 -55 7 -55 1 58 c2 45 -1 57 -13 57 -12 0 -15 -12 -13 -57z"/>
<path d="M2343 3475 c0 -33 2 -45 4 -27 2 18 2 45 0 60 -2 15 -4 0 -4 -33z"/>
<path d="M2363 3475 c0 -33 2 -45 4 -27 2 18 2 45 0 60 -2 15 -4 0 -4 -33z"/>
<path d="M2383 3475 c0 -33 2 -45 4 -27 2 18 2 45 0 60 -2 15 -4 0 -4 -33z"/>
<path d="M2403 3475 c0 -33 2 -45 4 -27 2 18 2 45 0 60 -2 15 -4 0 -4 -33z"/>
<path d="M2423 3475 c0 -33 2 -45 4 -27 2 18 2 45 0 60 -2 15 -4 0 -4 -33z"/>
<path d="M2440 3473 c0 -46 2 -52 20 -50 17 1 20 8 20 52 0 44 -3 51 -20 51 -17 0 -20 -7 -20 -53z"/>
<path d="M2493 3475 c0 -33 2 -45 4 -27 2 18 2 45 0 60 -2 15 -4 0 -4 -33z"/>
<path d="M2513 3475 c0 -33 2 -45 4 -27 2 18 2 45 0 60 -2 15 -4 0 -4 -33z"/>
<path d="M2533 3475 c0 -33 2 -45 4 -27 2 18 2 45 0 60 -2 15 -4 0 -4 -33z"/>
<path d="M2550 3475 c0 -30 5 -55 10 -55 6 0 10 25 10 55 0 30 -4 55 -10 55 -5 0 -10 -25 -10 -55z"/>
<path d="M6050 3420 c0 -5 6 -10 14 -10 8 0 18 5 21 10 3 6 -3 10 -14 10 -12 0 -21 -4 -21 -10z"/>
<path d="M6100 3422 c0 -5 7 -9 15 -9 8 0 15 4 15 9 0 4 -7 8 -15 8 -8 0 -15 -4 -15 -8z"/>
<path d="M6145 3420 c3 -5 13 -10 21 -10 8 0 14 5 14 10 0 6 -9 10 -21 10 -11 0 -17 -4 -14 -10z"/>
<path d="M6195 3420 c3 -5 13 -10 21 -10 8 0 14 5 14 10 0 6 -9 10 -21 10 -11 0 -17 -4 -14 -10z"/>
<path d="M6240 3420 c0 -5 7 -10 15 -10 8 0 15 5 15 10 0 6 -7 10 -15 10 -8 0 -15 -4 -15 -10z"/>
<path d="M6290 3420 c0 -5 6 -10 14 -10 8 0 18 5 21 10 3 6 -3 10 -14 10 -12 0 -21 -4 -21 -10z"/>
<path d="M6340 3420 c0 -5 5 -10 10 -10 6 0 10 5 10 10 0 6 -4 10 -10 10 -5 0 -10 -4 -10 -10z"/>
<path d="M406 3412 c-3 -3 -6 -72 -6 -154 0 -141 1 -148 20 -148 19 0 20 7 20 146 l0 145 28 -3 27 -3 3 -147 3 -148 -71 0 c-63 0 -70 -2 -70 -20 0 -18 7 -20 68 -22 48 -1 55 -3 25 -5 -24 -2 -43 -8 -43 -12 0 -5 18 -21 40 -36 l40 -28 0 -76 c0 -70 -1 -74 -15 -54 -12 18 -22 21 -50 16 -28 -4 -35 -2 -35 11 0 13 -10 16 -50 16 -48 0 -49 -1 -55 -33 -4 -19 -5 -47 -3 -63 3 -27 6 -29 51 -32 35 -2 49 2 53 13 11 28 24 15 24 -24 0 -24 -13 -64 -33 -105 l-34 -66 46 0 c25 0 70 3 99 6 49 6 52 9 52 34 0 16 -7 30 -15 34 -13 5 -15 57 -15 385 l0 380 -49 -1 c-27 0 -52 -2 -55 -6z"/>
<path d="M6644 3411 c-2 -2 -4 -167 -4 -367 0 -349 -3 -400 -20 -389 -5 3 -3 18 3 34 8 22 8 36 -1 55 -11 25 -15 26 -92 26 l-80 0 0 -50 0 -49 78 -3 77 -3 3 -43 c3 -34 7 -42 18 -38 9 3 18 6 20 6 2 0 4 39 4 86 0 99 12 106 41 25 23 -65 44 -91 76 -91 30 0 26 24 -4 28 -14 2 -29 21 -47 61 -31 71 -33 91 -6 91 11 0 20 -7 20 -15 0 -12 13 -15 55 -15 l55 0 0 65 0 65 -55 0 c-44 0 -55 -3 -55 -16 0 -12 -6 -15 -22 -10 -13 3 -31 6 -42 6 -16 0 -18 6 -14 56 4 45 10 61 29 75 70 51 69 48 17 49 -43 0 -48 2 -47 23 1 16 2 18 6 5 4 -15 16 -18 64 -18 52 0 59 2 59 20 0 18 -7 20 -65 20 l-65 0 0 150 0 150 30 0 30 0 0 -145 c0 -122 2 -145 15 -145 13 0 15 24 15 154 l0 154 -46 -1 c-25 -1 -48 -4 -50 -6z"/>
<path d="M3085 3281 c4 -116 6 -126 25 -129 19 -3 20 2 20 121 l0 125 -25 5 -26 4 6 -126z"/>
<path d="M3170 3275 l0 -125 30 0 30 0 0 125 0 125 -30 0 -30 0 0 -125z"/>
<path d="M3240 3275 l0 -125 70 0 70 0 0 125 0 125 -70 0 -70 0 0 -125z"/>
<path d="M3390 3271 l0 -128 -63 -7 c-35 -3 -84 -3 -110 0 -39 6 -47 4 -47 -10 0 -14 19 -16 160 -16 143 0 188 7 148 23 -10 4 -10 6 0 6 9 1 12 34 12 131 l0 130 -30 0 -30 0 0 -125 c0 -108 2 -125 18 -134 15 -9 15 -10 -5 -11 -23 0 -23 2 -23 135 0 113 -2 135 -15 135 -13 0 -15 -21 -15 -129z"/>
<path d="M3514 3230 c0 -96 2 -136 3 -87 2 48 2 126 0 175 -1 48 -3 8 -3 -88z"/>
<path d="M3530 3277 c0 -85 4 -127 11 -127 8 0 9 37 4 123 -4 67 -9 124 -11 126 -2 2 -4 -53 -4 -122z"/>
<path d="M3560 3275 l0 -126 63 3 c42 2 62 7 61 16 -1 6 -2 62 -2 122 l-2 110 -60 0 -60 0 0 -125z"/>
<path d="M3700 3275 l0 -125 60 0 60 0 -2 125 -3 125 -57 0 -58 0 0 -125z"/>
<path d="M3831 3275 c1 -116 2 -125 20 -125 18 0 19 9 19 125 0 119 -1 125 -20 125 -20 0 -21 -6 -19 -125z"/>
<path d="M3900 3275 l0 -125 30 0 30 0 0 125 0 125 -30 0 -30 0 0 -125z"/>
<path d="M3970 3275 l0 -125 60 0 c50 0 60 3 60 18 1 16 1 16 14 0 10 -14 28 -18 72 -18 l59 0 1 125 2 125 -64 0 -64 0 0 -105 c0 -63 -4 -105 -10 -105 -6 0 -10 42 -10 105 l0 105 -60 0 -60 0 0 -125z"/>
<path d="M4250 3230 c0 -107 4 -170 10 -170 6 0 10 63 10 170 0 107 -4 170 -10 170 -6 0 -10 -63 -10 -170z"/>
<path d="M4280 3275 l0 -125 44 0 c26 0 46 5 49 13 4 10 6 10 6 0 1 -9 21 -13 66 -13 l65 0 0 125 0 125 -65 0 -65 0 0 -110 c0 -63 -4 -110 -10 -110 -5 0 -8 46 -7 110 l2 110 -42 0 -43 0 0 -125z"/>
<path d="M4520 3270 l0 -130 -120 0 c-101 0 -120 -2 -120 -15 0 -13 20 -15 138 -13 l137 3 3 143 c2 137 2 142 -18 142 -19 0 -20 -6 -20 -130z"/>
<path d="M4572 3258 c3 -135 4 -143 23 -143 19 0 20 8 23 143 l3 142 -26 0 -26 0 3 -142z"/>
<path d="M4634 3230 c0 -96 2 -136 3 -87 2 48 2 126 0 175 -1 48 -3 8 -3 -88z"/>
<path d="M4652 3266 c-3 -125 -2 -135 16 -145 11 -6 85 -10 171 -10 l151 0 0 144 0 145 -168 0 -168 0 -2 -134z"/>
<path d="M5004 3227 c-1 -112 1 -158 7 -132 10 51 12 305 2 305 -5 0 -9 -78 -9 -173z"/>
<path d="M5030 3261 l0 -138 121 -5 c67 -3 141 -3 165 0 l44 5 0 138 0 139 -165 0 -165 0 0 -139z"/>
<path d="M5378 3234 c-2 -91 0 -168 5 -171 4 -2 7 73 7 166 0 94 -2 171 -5 171 -2 0 -5 -75 -7 -166z"/>
<path d="M5402 3258 l3 -143 165 0 c134 0 165 3 165 14 0 11 -21 14 -95 15 l-95 1 -3 128 -3 127 -70 0 -70 0 3 -142z"/>
<path d="M5550 3280 c0 -73 4 -120 10 -120 6 0 10 47 10 120 0 73 -4 120 -10 120 -6 0 -10 -47 -10 -120z"/>
<path d="M5580 3280 c0 -73 4 -120 10 -120 6 0 10 47 10 120 0 73 -4 120 -10 120 -6 0 -10 -47 -10 -120z"/>
<path d="M5610 3280 l0 -120 35 0 35 0 0 120 0 120 -35 0 -35 0 0 -120z m47 3 c-2 -21 -4 -4 -4 37 0 41 2 58 4 38 2 -21 2 -55 0 -75z m-17 -13 c0 -55 -3 -100 -7 -100 -5 0 -7 45 -5 100 2 55 5 100 8 100 2 0 4 -45 4 -100z"/>
<path d="M5690 3280 c0 -73 4 -120 10 -120 6 0 10 47 10 120 0 73 -4 120 -10 120 -6 0 -10 -47 -10 -120z"/>
<path d="M5724 3280 c0 -69 1 -97 3 -62 2 34 2 90 0 125 -2 34 -3 6 -3 -63z"/>
<path d="M5754 3230 c0 -96 2 -136 3 -87 2 48 2 126 0 175 -1 48 -3 8 -3 -88z"/>
<path d="M5770 3261 l0 -138 38 -7 c48 -8 126 -8 146 0 14 5 16 28 16 145 l0 139 -100 0 -100 0 0 -139z"/>
<path d="M5990 3255 l0 -145 25 0 c30 0 36 36 8 43 -17 4 -17 5 0 6 15 1 17 14 17 121 0 80 -4 120 -11 120 -8 0 -9 -34 -4 -115 5 -82 4 -115 -4 -115 -7 0 -11 38 -11 115 0 70 -4 115 -10 115 -6 0 -10 -55 -10 -145z"/>
<path d="M6054 3230 c0 -96 2 -136 3 -87 2 48 2 126 0 175 -1 48 -3 8 -3 -88z"/>
<path d="M6070 3350 c0 -27 5 -50 10 -50 6 0 10 23 10 50 0 28 -4 50 -10 50 -5 0 -10 -22 -10 -50z"/>
<path d="M6100 3350 c0 -38 4 -50 15 -50 11 0 15 12 15 50 0 38 -4 50 -15 50 -11 0 -15 -12 -15 -50z"/>
<path d="M6148 3350 c3 -35 8 -50 18 -50 10 0 14 14 14 50 0 41 -3 50 -17 50 -15 0 -17 -8 -15 -50z"/>
<path d="M6190 3350 c0 -43 3 -50 20 -50 17 0 20 7 20 50 0 43 -3 50 -20 50 -17 0 -20 -7 -20 -50z"/>
<path d="M6240 3350 c0 -38 4 -50 15 -50 11 0 15 12 15 50 0 38 -4 50 -15 50 -11 0 -15 -12 -15 -50z"/>
<path d="M6280 3350 c0 -38 4 -50 15 -50 11 0 15 12 15 50 0 38 -4 50 -15 50 -11 0 -15 -12 -15 -50z"/>
<path d="M6320 3285 c-3 -82 -5 -100 -7 -57 -3 42 -8 62 -15 60 -8 -3 -11 -25 -9 -61 1 -36 -2 -57 -8 -57 -7 0 -11 24 -11 60 0 47 -3 60 -15 60 -12 0 -15 -14 -17 -62 l-1 -63 -6 60 c-4 44 -10 60 -21 60 -11 0 -15 -13 -16 -53 -1 -75 -14 -78 -14 -3 0 53 -2 62 -17 59 -14 -2 -16 -13 -14 -61 1 -35 -2 -57 -8 -57 -7 0 -11 24 -11 60 0 47 -3 60 -15 60 -12 0 -15 -14 -15 -62 0 -34 -3 -58 -7 -55 -4 4 -5 32 -4 62 1 34 -2 55 -8 55 -7 0 -11 -25 -11 -65 l0 -65 133 0 132 0 -3 82 c-5 151 -8 164 -12 43z"/>
<path d="M6370 3275 c0 -77 -4 -125 -10 -125 -5 0 -10 -9 -10 -20 0 -15 7 -20 25 -20 l25 0 0 145 c0 122 -2 145 -15 145 -13 0 -15 -21 -15 -125z"/>
<path d="M6342 3370 c0 -14 2 -19 5 -12 2 6 2 18 0 25 -3 6 -5 1 -5 -13z"/>
<path d="M1245 3228 l-85 -103 38 -8 c55 -12 162 -4 173 14 7 12 9 12 9 -1 0 -13 1 -13 10 0 8 13 10 12 10 -4 0 -17 8 -18 113 -14 120 5 138 8 149 23 4 6 12 3 20 -8 11 -15 25 -18 78 -15 l65 3 0 105 0 105 -247 3 -248 2 -85 -102z m312 45 c-20 -2 -52 -2 -70 0 -17 2 0 4 38 4 39 0 53 -2 32 -4z m-190 -35 c-3 -7 -5 -2 -5 12 0 14 2 19 5 13 2 -7 2 -19 0 -25z m30 0 c-3 -7 -5 -2 -5 12 0 14 2 19 5 13 2 -7 2 -19 0 -25z m253 11 c0 -5 -4 -9 -10 -9 -5 0 -10 7 -10 16 0 8 5 12 10 9 6 -3 10 -10 10 -16z m17 -11 c-3 -7 -5 -2 -5 12 0 14 2 19 5 13 2 -7 2 -19 0 -25z m-82 12 c-3 -5 -29 -7 -60 -4 -36 4 -55 3 -55 -4 0 -6 26 -13 58 -15 l57 -3 -62 -2 c-57 -2 -63 0 -63 18 0 18 7 20 66 20 40 0 63 -4 59 -10z m-28 -47 c-20 -2 -52 -2 -70 0 -17 2 0 4 38 4 39 0 53 -2 32 -4z m0 -20 c-20 -2 -52 -2 -70 0 -17 2 0 4 38 4 39 0 53 -2 32 -4z m0 -20 c-20 -2 -52 -2 -70 0 -17 2 0 4 38 4 39 0 53 -2 32 -4z"/>
<path d="M1922 3218 l-2 -58 35 0 35 0 -2 58 -1 57 -7 -55 -7 -55 -3 55 -3 55 -7 -55 -7 -55 -3 55 -3 55 -7 -55 -6 -55 -5 55 -5 55 -2 -57z"/>
<path d="M2002 3218 c-2 -46 1 -58 13 -58 12 0 15 12 13 58 l-1 57 -7 -55 -6 -55 -5 55 -5 55 -2 -57z"/>
<path d="M2042 3218 l-2 -58 55 0 55 0 -2 58 -1 57 -7 -55 -7 -55 -3 55 -3 55 -7 -55 -7 -55 -3 55 -3 55 -7 -55 -7 -55 -3 55 -3 55 -7 -55 -7 -55 -3 55 -3 55 -7 -55 -6 -55 -5 55 -5 55 -2 -57z"/>
<path d="M2162 3218 c-2 -46 1 -58 13 -58 12 0 15 12 13 58 l-1 57 -7 -50 -6 -50 -5 50 -5 50 -2 -57z"/>
<path d="M2202 3218 c-2 -46 1 -58 13 -58 12 0 15 12 13 58 l-1 57 -7 -55 -6 -55 -5 55 -5 55 -2 -57z"/>
<path d="M2243 3215 c0 -33 2 -45 4 -27 2 18 2 45 0 60 -2 15 -4 0 -4 -33z"/>
<path d="M2263 3215 c0 -33 2 -45 4 -27 2 18 2 45 0 60 -2 15 -4 0 -4 -33z"/>
<path d="M2282 3218 c-2 -46 1 -58 13 -58 12 0 15 12 13 58 l-1 57 -7 -55 -6 -55 -5 55 -5 55 -2 -57z"/>
<path d="M2322 3218 c-2 -46 1 -58 13 -58 12 0 15 12 13 58 l-1 57 -7 -50 -6 -50 -5 50 -5 50 -2 -57z"/>
<path d="M2363 3215 c0 -33 2 -45 4 -27 2 18 2 45 0 60 -2 15 -4 0 -4 -33z"/>
<path d="M2383 3215 c0 -33 2 -45 4 -27 2 18 2 45 0 60 -2 15 -4 0 -4 -33z"/>
<path d="M6072 3133 c3 -16 18 -18 126 -21 117 -2 122 -2 122 18 0 19 -6 20 -126 20 -114 0 -125 -2 -122 -17z"/>
<path d="M6333 3110 c0 -25 2 -35 4 -22 2 12 2 32 0 45 -2 12 -4 2 -4 -23z"/>
<path d="M3530 3125 c0 -13 26 -15 170 -15 144 0 170 2 170 15 0 13 -26 15 -170 15 -144 0 -170 -2 -170 -15z"/>
<path d="M3907 3133 c-20 -19 8 -23 163 -23 144 0 170 2 170 15 0 13 -25 15 -163 15 -90 0 -167 -3 -170 -7z"/>
<path d="M520 3050 l0 -50 90 0 90 0 0 50 0 50 -90 0 -90 0 0 -50z"/>
<path d="M790 3080 c0 -20 7 -20 1170 -20 1163 0 1170 0 1170 20 0 20 -7 20 -1170 20 -1163 0 -1170 0 -1170 -20z"/>
<path d="M3170 3080 c0 -19 7 -20 160 -20 153 0 160 1 160 20 0 19 -7 20 -160 20 -153 0 -160 -1 -160 -20z"/>
<path d="M3530 3080 c0 -19 7 -20 170 -20 163 0 170 1 170 20 0 19 -7 20 -170 20 -163 0 -170 -1 -170 -20z"/>
<path d="M3900 3080 c0 -19 7 -20 170 -20 163 0 170 1 170 20 0 19 -7 20 -170 20 -163 0 -170 -1 -170 -20z"/>
<path d="M4280 3080 c0 -19 7 -20 170 -20 163 0 170 1 170 20 0 19 -7 20 -170 20 -163 0 -170 -1 -170 -20z"/>
<path d="M4652 3083 c3 -16 20 -18 171 -21 162 -2 167 -2 167 18 0 19 -6 20 -171 20 -157 0 -170 -1 -167 -17z"/>
<path d="M5030 3080 c0 -19 7 -20 165 -20 158 0 165 1 165 20 0 19 -7 20 -165 20 -158 0 -165 -1 -165 -20z"/>
<path d="M5400 3080 c0 -19 7 -20 165 -20 91 0 165 2 165 4 0 2 3 11 6 20 5 14 -13 16 -165 16 -164 0 -171 -1 -171 -20z"/>
<path d="M5770 3080 c0 -19 7 -20 135 -20 128 0 135 1 135 20 0 19 -7 20 -135 20 -128 0 -135 -1 -135 -20z"/>
<path d="M6072 3083 c3 -16 18 -18 126 -21 117 -2 122 -2 122 18 0 19 -6 20 -126 20 -114 0 -125 -2 -122 -17z"/>
<path d="M6450 3050 l0 -51 87 3 86 3 4 48 4 47 -90 0 -91 0 0 -50z"/>
<path d="M520 2940 l0 -50 90 0 90 0 0 50 0 50 -90 0 -90 0 0 -50z"/>
<path d="M6450 2940 l0 -50 91 0 90 0 -3 48 -3 47 -87 3 -88 3 0 -51z"/>
<path d="M3644 2916 c-8 -32 -2 -58 14 -64 8 -2 12 9 12 37 0 46 -16 64 -26 27z"/>
<path d="M2460 2884 l42 -46 -4 -75 c-3 -73 -4 -76 -45 -114 -37 -35 -48 -39 -92 -39 -27 0 -53 -5 -57 -11 -5 -8 10 -10 53 -7 67 5 114 31 139 79 18 36 29 117 20 153 -7 29 -72 106 -88 106 -6 0 8 -21 32 -46z"/>
<path d="M1790 2910 c0 -6 27 -10 60 -10 33 0 60 4 60 10 0 6 -27 10 -60 10 -33 0 -60 -4 -60 -10z"/>
<path d="M5240 2910 c0 -6 27 -10 60 -10 33 0 60 4 60 10 0 6 -27 10 -60 10 -33 0 -60 -4 -60 -10z"/>
<path d="M899 2900 c4 -3 7 -18 7 -35 -1 -29 0 -30 52 -33 52 -3 52 -3 52 27 0 16 -5 33 -11 36 -12 8 -111 13 -100 5z"/>
<path d="M1050 2901 c8 -5 40 -12 71 -15 32 -4 70 -11 85 -17 29 -9 28 -9 -4 -4 -21 3 -31 1 -27 -6 7 -11 164 -9 171 3 2 3 -26 9 -63 13 -88 8 -100 13 -38 14 28 1 65 -3 84 -9 23 -6 40 -6 53 1 11 6 41 15 67 19 29 5 -38 8 -184 9 -130 0 -224 -3 -215 -8z"/>
<path d="M1510 2870 l0 -40 45 0 45 0 0 40 0 40 -45 0 -45 0 0 -40z"/>
<path d="M1610 2900 c0 -13 11 -13 30 0 12 8 11 10 -7 10 -13 0 -23 -4 -23 -10z"/>
<path d="M1686 2895 c21 -16 43 -19 68 -9 32 12 15 24 -36 24 -48 0 -50 -1 -32 -15z"/>
<path d="M5370 2901 c0 -15 83 -18 110 -4 23 12 19 13 -42 13 -38 0 -68 -4 -68 -9z"/>
<path d="M5512 2895 c-7 -8 -21 -15 -32 -15 -10 0 -22 -4 -25 -10 -4 -6 10 -10 34 -10 23 0 41 4 41 9 0 5 3 16 6 25 8 20 -7 20 -24 1z"/>
<path d="M5544 2885 c-11 -42 1 -55 51 -55 l45 0 0 40 0 40 -45 0 c-39 0 -45 -3 -51 -25z"/>
<path d="M5670 2901 c0 -4 21 -11 47 -14 26 -3 49 -10 51 -16 2 -6 26 -11 52 -11 27 0 52 -5 56 -12 5 -8 -4 -9 -32 -4 -21 3 -74 9 -117 13 -74 6 -78 5 -75 -13 3 -16 -4 -19 -52 -22 -38 -2 -57 1 -65 11 -10 14 -128 30 -140 19 -3 -3 -47 -4 -98 -2 -51 2 -111 4 -134 4 -24 1 -43 4 -43 9 0 4 -7 7 -15 7 -8 0 -15 5 -15 10 0 6 -42 10 -106 10 -97 0 -108 -2 -138 -25 -27 -21 -44 -25 -99 -25 -36 0 -68 -4 -71 -8 -2 -4 -2 -27 1 -50 l6 -42 88 0 c70 0 90 3 97 16 6 11 9 5 10 -22 1 -21 11 -51 22 -66 11 -16 17 -28 12 -28 -15 0 -31 25 -38 58 -8 41 -24 41 -24 1 0 -34 13 -63 44 -98 l21 -24 -21 11 c-27 14 -54 70 -54 111 0 29 -3 31 -35 31 -35 0 -35 0 -35 -45 0 -34 5 -47 19 -55 28 -15 31 -13 32 18 2 26 2 26 6 2 8 -40 43 -81 87 -101 40 -18 17 -19 -1264 -20 -718 0 -1329 -2 -1358 -4 -28 -2 -64 0 -80 4 l-27 7 30 7 c34 6 83 50 96 85 12 32 11 102 -2 102 -6 0 -8 -9 -4 -20 9 -27 -11 -83 -37 -106 l-21 -19 21 30 c22 31 30 87 17 118 -6 15 -3 17 31 11 41 -6 58 -14 32 -14 -12 0 -17 -13 -20 -55 -3 -51 -1 -55 19 -55 27 0 38 33 31 88 l-5 37 46 0 46 0 3 48 3 47 -64 0 c-46 0 -68 4 -77 15 -7 9 -19 14 -27 11 -8 -3 -16 1 -19 9 -5 12 -28 15 -114 15 -70 0 -110 -4 -112 -11 -6 -19 -83 -27 -261 -27 -144 0 -173 -3 -183 -16 -8 -11 -27 -16 -64 -16 -43 0 -53 3 -57 20 -4 16 -14 20 -43 20 -21 0 -46 3 -55 6 -10 4 -15 2 -13 -7 2 -11 -18 -15 -94 -17 -54 -1 -106 1 -115 6 -20 10 -153 -7 -153 -20 0 -4 -29 -8 -65 -8 l-65 0 0 35 c0 30 -3 35 -24 35 -50 0 -65 -49 -40 -127 2 -7 -1 -13 -6 -13 -5 0 -10 17 -12 38 l-3 37 -18 -32 c-27 -50 -32 -115 -13 -154 9 -18 15 -34 13 -35 -2 -2 -20 10 -40 27 -40 33 -52 26 -14 -8 22 -20 42 -32 122 -72 22 -12 33 -21 25 -22 -8 0 -143 -1 -300 0 -157 0 -293 -2 -302 -5 -22 -7 -24 -50 -2 -58 21 -8 6512 -8 6542 0 18 5 22 13 20 33 l-3 26 -287 0 c-271 0 -337 5 -270 20 16 3 38 14 49 24 11 10 30 22 44 26 27 8 59 34 59 47 0 5 -13 -1 -30 -13 -35 -27 -44 -22 -30 15 15 41 13 126 -3 126 -8 0 -14 7 -14 15 0 48 -59 122 -80 101 -4 -3 -12 -1 -19 5 -10 8 -11 1 -7 -31 l6 -40 -61 0 c-34 0 -62 5 -64 11 -2 6 -44 11 -105 12 -55 1 -99 5 -96 10 2 4 14 7 25 7 12 0 18 3 14 7 -3 4 -46 6 -94 4 -48 -1 -84 0 -81 3 3 3 59 8 125 11 240 9 233 22 -13 24 -128 0 -233 -3 -233 -8z m-4802 -68 c-12 -3 -18 -17 -21 -46 l-4 -42 -1 48 c-2 43 0 47 21 46 16 -1 17 -3 5 -6z m5451 -24 c15 -43 13 -88 -5 -124 -8 -16 -12 -22 -9 -12 3 12 -1 17 -15 17 -21 0 -21 2 -22 87 -1 69 31 89 51 32z m-4090 -69 c0 -51 -22 -91 -40 -73 -16 16 -3 47 16 39 25 -9 19 41 -6 55 -29 15 -122 3 -148 -20 -29 -26 -27 -51 4 -51 27 0 33 18 13 39 -11 11 -10 13 2 9 8 -3 17 -18 18 -34 4 -33 19 -54 38 -54 10 0 10 5 -2 28 -18 35 -18 47 2 66 22 22 61 20 74 -4 6 -11 7 -20 1 -20 -5 0 -11 7 -15 15 -3 8 -13 15 -21 15 -9 0 -14 -4 -11 -9 3 -5 -1 -14 -9 -21 -13 -11 -14 -10 -9 5 5 13 4 16 -4 11 -14 -9 -16 -36 -2 -36 5 0 7 -7 4 -15 -4 -8 -1 -15 5 -15 6 0 11 -6 11 -14 0 -8 8 -17 18 -20 9 -3 -1 -3 -23 0 -22 3 -47 14 -57 25 -16 18 -58 27 -58 12 0 -22 42 -72 73 -86 41 -20 74 -21 114 -6 23 8 26 8 15 -3 -8 -7 -36 -13 -67 -13 -63 0 -99 22 -130 78 -22 41 -35 47 -35 17 0 -28 58 -90 105 -111 l40 -19 -200 -1 c-233 -2 -286 -2 -340 0 l-40 2 31 13 c36 16 94 83 94 108 0 10 4 18 10 18 5 0 9 -10 7 -22 -1 -12 3 -23 8 -23 6 0 16 -4 24 -9 7 -5 60 -9 118 -10 91 -1 104 1 100 15 -3 12 1 15 14 12 11 -3 19 0 19 6 0 7 -3 10 -7 8 -5 -3 -8 6 -8 19 0 18 5 24 23 24 15 0 22 6 22 19 0 17 -7 20 -50 19 -27 0 -50 -4 -50 -9 0 -5 -12 -4 -26 1 -14 6 -43 10 -65 10 -35 0 -40 -3 -35 -18 5 -13 -1 -22 -19 -30 -14 -6 -25 -8 -25 -3 0 5 9 11 19 14 14 3 18 11 14 26 -5 21 -3 21 121 21 103 0 132 3 153 17 17 12 47 17 89 18 l64 0 1 30 c1 29 1 30 9 5 4 -14 8 -45 9 -70z m29 59 c-3 -8 -7 -3 -11 10 -4 17 -3 21 5 13 5 -5 8 -16 6 -23z m2672 21 c0 -5 -8 -6 -17 -3 -12 5 -15 2 -10 -10 3 -9 2 -19 -3 -22 -6 -4 -10 5 -10 19 0 19 5 26 20 26 11 0 20 -4 20 -10z m-3 -42 c-3 -8 -6 -5 -6 6 -1 11 2 17 5 13 3 -3 4 -12 1 -19z m-4130 -10 c-3 -8 -6 -5 -6 6 -1 11 2 17 5 13 3 -3 4 -12 1 -19z m230 -6 c12 -7 35 -12 50 -12 27 0 29 -2 25 -35 -3 -21 0 -35 7 -35 6 0 11 -5 11 -11 0 -5 -5 -7 -11 -4 -7 5 -9 -5 -7 -26 3 -32 5 -34 38 -31 19 1 63 7 97 13 56 10 63 14 78 46 24 50 15 63 -46 63 -41 0 -56 -5 -72 -22 l-19 -23 7 24 c5 18 4 22 -5 16 -9 -5 -11 -4 -6 4 6 8 41 12 117 10 92 -1 113 1 129 16 13 12 42 19 89 23 57 4 77 1 113 -17 25 -11 53 -21 64 -21 13 0 20 -7 21 -22 1 -13 7 -24 13 -26 22 -8 9 -18 -18 -14 -24 3 -29 -1 -40 -31 -7 -19 -20 -41 -28 -48 -11 -9 -10 -2 5 21 11 19 21 41 21 48 0 19 -25 14 -45 -8 -14 -16 -31 -20 -80 -20 -77 0 -99 18 -93 80 5 52 -8 51 -32 -2 -14 -31 -20 -37 -20 -21 0 12 -4 25 -10 28 -13 8 -13 -46 1 -82 14 -37 57 -82 94 -99 26 -12 3 -13 -190 -14 -121 -1 -233 -2 -250 -2 -16 0 -41 0 -55 1 -24 2 -24 2 6 15 55 24 142 153 89 132 -10 -3 -15 1 -15 14 0 50 -107 106 -131 69 -8 -12 -10 -12 -18 0 -5 8 -18 12 -30 8 -21 -5 -30 8 -10 15 20 7 134 -8 156 -20z m5223 19 c0 -4 -25 -11 -56 -14 -30 -3 -66 -12 -79 -21 -44 -29 -35 -105 18 -150 l22 -18 -25 14 c-14 8 -32 28 -40 45 -15 30 -16 30 -72 25 -62 -5 -64 -3 -59 51 2 15 -7 17 -68 17 -65 0 -71 -2 -71 -20 0 -30 26 -76 47 -84 10 -4 55 -10 101 -13 81 -6 82 -6 82 18 1 23 1 23 12 4 21 -39 53 -68 98 -89 l45 -21 -270 2 c-323 3 -307 2 -270 15 40 14 63 36 86 80 20 39 26 108 9 108 -5 0 -11 -17 -12 -37 l-1 -38 -4 38 c-5 42 -33 54 -33 13 0 -13 -8 -30 -17 -37 -15 -11 -16 -11 -5 1 16 18 16 50 -1 50 -7 0 -23 -13 -35 -30 -13 -16 -27 -30 -32 -30 -5 0 2 12 17 26 27 27 26 34 -4 38 -10 2 -19 10 -21 19 -4 21 11 22 28 2 14 -17 60 -21 60 -5 0 13 -43 30 -77 30 -31 0 -52 -25 -54 -65 -1 -24 -3 -25 -6 -7 -2 12 -12 22 -21 23 -13 0 -12 2 4 9 23 9 39 28 32 36 -7 6 -71 -17 -89 -33 -12 -10 -23 -11 -40 -4 l-24 10 25 0 c14 1 43 10 65 21 23 12 59 20 87 20 53 0 138 -20 138 -32 0 -4 52 -8 115 -8 l115 0 0 -30 c0 -27 3 -30 30 -30 20 0 30 5 30 15 0 9 6 12 16 8 12 -4 13 -7 3 -14 -8 -4 -11 -11 -7 -14 7 -7 38 22 38 36 0 5 -11 11 -25 15 -33 8 -32 20 3 19 15 -1 40 5 56 13 24 12 58 20 129 31 4 0 7 -3 7 -8z m-1165 -21 c33 -17 59 -20 162 -20 67 0 124 -4 127 -8 3 -5 -22 -6 -55 -4 l-59 4 -1 -28 -1 -29 -8 30 c-4 17 -8 22 -9 13 0 -9 -4 -23 -7 -32 -5 -14 4 -16 60 -16 36 0 66 4 66 9 0 4 18 6 40 4 33 -3 40 -1 41 14 0 12 2 14 6 4 5 -11 7 -11 14 0 6 10 9 11 9 2 0 -7 8 -13 18 -13 13 0 14 -2 3 -9 -8 -5 -11 -18 -7 -32 4 -19 3 -18 -6 4 -11 26 -28 37 -28 18 0 -42 48 -106 95 -127 23 -10 25 -13 10 -14 -309 -4 -552 -3 -548 3 2 4 13 7 23 7 37 0 120 93 120 135 0 17 -19 0 -33 -30 -15 -32 -68 -75 -92 -75 -5 0 6 10 26 21 31 18 69 64 69 83 0 15 -49 4 -65 -14 -10 -11 -25 -20 -34 -19 -11 0 -9 3 6 9 12 5 27 19 33 30 10 18 8 25 -10 42 -13 13 -37 21 -59 22 -33 1 -50 10 -51 29 0 16 107 7 145 -13z m-2815 0 c0 -5 -2 -10 -4 -10 -3 0 -8 5 -11 10 -3 6 -1 10 4 10 6 0 11 -4 11 -10z m2627 -27 c-3 -10 -5 -4 -5 12 0 17 2 24 5 18 2 -7 2 -21 0 -30z m1353 20 c0 -5 -16 -8 -35 -8 -19 0 -35 3 -35 8 0 4 16 7 35 7 19 0 35 -3 35 -7z m-5252 -28 c-3 -3 -9 2 -12 12 -6 14 -5 15 5 6 7 -7 10 -15 7 -18z m5352 -81 c-13 -25 -34 -51 -51 -59 -42 -22 -47 -18 -8 8 40 26 68 78 71 127 l1 35 4 -33 c3 -21 -4 -50 -17 -78z m-5503 44 c3 6 9 12 15 12 6 0 5 -7 -3 -16 -16 -20 1 -33 46 -35 19 -1 23 -3 12 -6 -47 -12 -99 33 -96 84 0 10 5 2 11 -17 6 -19 13 -29 15 -22z m113 41 c0 -5 -9 -9 -21 -9 -15 0 -20 -5 -17 -22 2 -15 9 -22 21 -22 9 1 17 -3 17 -8 0 -5 -10 -8 -22 -6 -17 2 -25 12 -29 38 -4 19 -7 30 -8 23 0 -6 -10 -9 -21 -6 -36 10 -21 19 30 20 28 0 50 -4 50 -8z m1295 -65 c-11 -16 -24 -24 -43 -23 -23 2 -24 2 -5 6 28 5 52 39 54 73 2 24 2 24 6 -3 3 -16 -3 -39 -12 -53z m2765 61 c7 -8 9 -23 4 -37 -6 -21 -6 -22 12 -8 18 14 18 14 5 -2 -7 -10 -22 -18 -33 -18 -14 0 -18 -5 -15 -14 4 -10 1 -13 -8 -9 -8 3 -12 9 -9 14 3 5 -2 16 -10 25 -19 18 -20 30 -4 40 7 5 9 2 5 -9 -3 -8 1 -21 9 -28 12 -10 18 -9 31 3 18 18 10 36 -21 48 l-21 9 21 0 c12 1 27 -6 34 -14z m1140 5 c13 -8 13 -10 -2 -10 -9 0 -20 5 -23 10 -8 13 5 13 25 0z m74 4 c10 -4 16 -18 16 -40 0 -27 5 -37 23 -44 l22 -9 -22 0 c-12 -1 -27 -3 -35 -4 -7 -2 -10 -2 -5 0 17 10 6 31 -13 26 -11 -3 -20 0 -20 6 0 6 3 10 8 10 21 -4 32 3 32 20 0 45 -45 35 -59 -13 -9 -30 -9 -30 -10 -4 -1 25 21 58 39 58 5 0 15 -3 24 -6z m-5261 -29 c-3 -9 -8 -14 -10 -11 -3 3 -2 9 2 15 9 16 15 13 8 -4z m853 -12 c-10 -10 -19 5 -10 18 6 11 8 11 12 0 2 -7 1 -15 -2 -18z m84 6 c0 -5 4 -7 10 -4 5 3 9 -9 8 -30 l-1 -35 -74 0 c-57 0 -73 3 -73 14 0 22 18 29 72 27 45 -1 49 0 43 19 -4 11 -2 20 4 20 6 0 11 -5 11 -11z m-1084 -80 c61 -68 168 -61 214 13 11 18 20 28 20 22 0 -38 -80 -94 -136 -94 -65 0 -135 63 -133 120 1 21 2 20 9 -8 4 -18 16 -42 26 -53z m4094 56 c14 -19 14 -19 -2 -6 -10 7 -18 18 -18 24 0 6 1 8 3 6 1 -2 9 -13 17 -24z m430 9 c0 -2 -7 -4 -15 -4 -8 0 -15 4 -15 10 0 5 7 7 15 4 8 -4 15 -8 15 -10z m-4455 -4 c-3 -5 -12 -10 -18 -10 -7 0 -6 4 3 10 19 12 23 12 15 0z m145 3 c-8 -3 -23 -14 -33 -24 -10 -11 -30 -18 -45 -18 l-27 2 28 4 c15 3 33 13 40 24 6 10 21 19 32 18 14 0 16 -2 5 -6z m258 -11 c-10 -2 -18 -7 -18 -12 0 -4 -21 -11 -46 -15 -26 -3 -53 -9 -60 -12 -8 -3 -14 0 -14 6 0 6 12 11 28 12 15 0 36 4 47 9 15 6 6 9 -35 11 l-55 2 65 6 c65 6 125 1 88 -7z m4256 -31 c-6 -7 -44 31 -44 43 0 6 11 -1 24 -14 13 -14 22 -27 20 -29z m361 39 c-16 -4 -22 -8 -12 -9 10 0 15 -5 12 -11 -4 -6 10 -10 34 -10 23 0 41 -5 41 -10 0 -7 -13 -8 -37 -4 -21 4 -49 9 -63 10 -38 2 -40 3 -40 15 0 6 7 9 15 5 8 -3 15 -1 15 4 0 5 -10 11 -22 13 -13 2 2 4 32 4 45 1 49 -1 25 -7z m231 1 c-22 -9 -13 -18 32 -31 21 -6 22 -8 7 -9 -17 -1 -85 33 -85 41 0 2 15 4 33 5 23 1 27 -1 13 -6z m-556 -21 c0 -5 -2 -10 -4 -10 -3 0 -8 5 -11 10 -3 6 -1 10 4 10 6 0 11 -4 11 -10z m77 -21 c-12 -7 -27 -7 -45 0 -25 9 -24 9 18 10 36 0 41 -2 27 -10z m52 -25 c-29 -32 -78 -54 -116 -53 -21 1 -17 3 16 10 49 9 85 30 103 59 7 10 14 17 17 15 2 -3 -6 -17 -20 -31z m-4227 -34 c6 0 9 -2 6 -5 -10 -10 -58 18 -75 44 -15 23 -13 23 21 -6 20 -18 42 -33 48 -33z m4019 23 c13 -16 12 -17 -3 -4 -10 7 -18 15 -18 17 0 8 8 3 21 -13z m-3906 -23 c-3 -5 -12 -10 -18 -10 -7 0 -6 4 3 10 19 12 23 12 15 0z m3956 -8 c-7 -2 -18 1 -23 6 -8 8 -4 9 13 5 13 -4 18 -8 10 -11z m-614 2 c-3 -3 -12 -4 -19 -1 -8 3 -5 6 6 6 11 1 17 -2 13 -5z m-3389 -11 c-10 -2 -26 -2 -35 0 -10 3 -2 5 17 5 19 0 27 -2 18 -5z m3445 0 c-7 -2 -21 -2 -30 0 -10 3 -4 5 12 5 17 0 24 -2 18 -5z m1235 0 c-10 -2 -26 -2 -35 0 -10 3 -2 5 17 5 19 0 27 -2 18 -5z"/>
<path d="M6280 2771 c0 -50 3 -61 17 -61 9 0 13 3 10 7 -4 3 -2 12 4 20 8 9 8 13 1 13 -7 0 -10 15 -9 36 1 22 -3 39 -10 41 -10 3 -13 -12 -13 -56z"/>
<path d="M2197 2693 c-4 -3 -7 -11 -7 -17 0 -6 5 -5 12 2 6 6 9 14 7 17 -3 3 -9 2 -12 -2z"/>
<path d="M1461 2752 c-15 -29 -14 -59 4 -66 8 -3 15 -10 15 -16 0 -6 -5 -8 -12 -4 -6 4 -8 3 -5 -3 7 -11 99 -17 127 -8 11 4 20 14 20 23 0 13 -2 13 -14 -4 -13 -17 -13 -15 -3 19 9 29 13 33 15 18 4 -24 47 -30 55 -8 4 10 6 10 6 0 2 -21 21 -15 21 7 0 13 -5 18 -16 13 -8 -3 -26 4 -40 18 -20 19 -39 24 -94 27 -61 4 -69 2 -79 -16z m45 -14 c-18 -26 -21 -42 -5 -33 6 4 9 0 7 -11 -4 -25 32 -31 49 -8 20 28 16 43 -12 39 -28 -3 -27 -3 -19 19 9 24 33 19 46 -9 25 -55 -29 -98 -74 -58 -22 20 -23 41 -1 65 22 25 27 23 9 -4z"/>
<path d="M1066 2731 c-8 -12 3 -41 15 -41 5 0 9 11 9 25 0 25 -14 34 -24 16z"/>
<path d="M4985 2761 c47 -8 83 -29 91 -53 4 -13 17 -17 65 -16 33 0 62 -2 66 -6 3 -3 -3 -6 -15 -6 -16 0 -20 -4 -15 -17 4 -10 2 -14 -5 -9 -6 3 -13 2 -16 -3 -3 -5 4 -11 15 -14 12 -3 18 -10 15 -16 -4 -6 34 -11 105 -13 82 -2 113 0 116 10 3 6 13 12 23 12 13 0 17 5 13 20 -4 16 -14 20 -45 20 -35 0 -39 -2 -33 -20 6 -19 2 -20 -68 -20 l-75 0 4 50 c3 50 3 50 -26 50 -17 0 -30 -5 -30 -12 0 -10 -2 -10 -9 0 -5 8 -21 11 -43 9 -27 -3 -35 0 -34 12 1 17 -37 29 -99 29 l-40 -1 40 -6z"/>
<path d="M6150 2900 c10 -6 11 -10 3 -10 -8 0 -13 -13 -13 -30 0 -29 1 -30 50 -30 45 0 50 2 50 23 -1 37 -23 57 -66 57 -29 0 -35 -3 -24 -10z"/>
<path d="M2708 2893 l-138 -4 0 -134 0 -135 1005 0 1005 0 0 135 0 135 -444 0 -445 0 -3 -22 c-2 -17 -10 -23 -28 -23 -18 0 -26 6 -28 23 -3 19 -10 22 -50 23 -150 3 -758 4 -874 2z"/>
<path d="M1020 2870 c0 -21 18 -24 75 -10 l30 7 -27 6 c-75 18 -78 18 -78 -3z"/>
<path d="M1415 2880 c-4 -6 12 -10 39 -10 25 0 46 5 46 10 0 6 -18 10 -39 10 -22 0 -43 -4 -46 -10z"/>
<path d="M1818 2883 c17 -2 47 -2 65 0 17 2 3 4 -33 4 -36 0 -50 -2 -32 -4z"/>
<path d="M5257 2883 c18 -2 50 -2 70 0 21 2 7 4 -32 4 -38 0 -55 -2 -38 -4z"/>
<path d="M5650 2878 c0 -5 18 -8 40 -8 22 0 40 2 40 4 0 2 -18 6 -40 8 -22 2 -40 0 -40 -4z"/>
<path d="M6062 2883 c-37 -7 -19 -28 24 -28 29 0 40 4 42 18 4 17 -13 20 -66 10z"/>
<path d="M527 2873 c-4 -3 -7 -26 -7 -50 l0 -43 90 0 90 0 0 50 0 50 -83 0 c-46 0 -87 -3 -90 -7z"/>
<path d="M1610 2870 c0 -5 18 -10 40 -10 22 0 40 5 40 10 0 6 -18 10 -40 10 -22 0 -40 -4 -40 -10z"/>
<path d="M5305 2870 l-70 -6 77 -2 c42 -1 80 2 83 8 3 6 0 9 -7 8 -7 -1 -44 -4 -83 -8z"/>
<path d="M6450 2830 l0 -50 85 0 c61 0 85 4 86 13 1 6 2 28 3 47 l1 35 -87 3 -88 3 0 -51z"/>
<path d="M1818 2863 c17 -2 47 -2 65 0 17 2 3 4 -33 4 -36 0 -50 -2 -32 -4z"/>
<path d="M523 2720 l1 -50 88 0 88 0 0 50 0 50 -89 0 -89 0 1 -50z"/>
</g>
</svg>