<svg xmlns="http://www.w3.org/2000/svg" viewBox="944.00 379.20 446.00 195.70">
<g transform="translate(0.000000,768.000000) scale(0.100000,-0.100000)" fill="currentColor" stroke="none">
<path d="M11528 3833 c6 -2 18 -2 25 0 6 3 1 5 -13 5 -14 0 -19 -2 -12 -5z"/>
<path d="M10386 3581 c-5 -7 -3 -260 3 -708 1 -32 5 -43 16 -43 9 0 18 8 21 18 21 65 11 62 201 62 l173 0 2 -67 c1 -67 1 -67 7 -18 4 33 10 49 19 47 7 -1 24 10 38 25 l26 28 -21 -29 c-13 -17 -21 -44 -21 -68 0 -100 142 -123 189 -31 16 32 14 46 -15 89 -20 30 -22 35 -6 21 11 -10 26 -32 32 -48 16 -38 23 -37 39 6 12 34 55 74 67 62 3 -3 -4 -8 -15 -12 -25 -8 -51 -54 -51 -89 0 -13 12 -38 26 -55 22 -26 33 -31 71 -31 78 0 128 75 93 140 -12 22 -42 40 -85 51 -27 6 -28 7 -5 8 34 1 86 -32 109 -70 l19 -30 6 35 7 36 617 0 616 0 38 -42 c28 -32 37 -38 38 -25 0 11 -8 26 -18 35 -9 10 -13 14 -8 10 16 -12 24 -9 29 10 3 9 5 -18 6 -61 1 -56 -3 -83 -13 -93 -12 -12 -225 -14 -1453 -16 l-1438 -3 -3 -86 c-3 -96 -3 -96 68 -95 30 1 35 5 38 27 3 22 7 25 32 21 21 -3 38 3 61 22 35 30 101 36 135 11 15 -10 56 -15 140 -18 l119 -3 -123 -2 c-99 -2 -126 1 -138 13 -9 9 -34 15 -60 15 -64 0 -107 -40 -107 -100 0 -37 5 -48 36 -77 l37 -33 -214 0 c-252 0 -276 -3 -276 -36 l0 -24 2177 2 c2122 3 2178 3 2181 22 2 10 -2 22 -10 27 -7 5 -116 9 -243 9 l-230 0 32 20 c43 26 56 54 50 106 -4 43 -4 44 25 44 28 0 29 1 26 43 l-3 42 -157 0 c-86 0 -154 4 -151 8 2 4 76 7 164 6 l159 -1 0 -49 0 -49 45 0 c33 0 45 -4 45 -15 0 -23 -87 -21 -94 3 -3 10 -4 6 -3 -8 2 -23 7 -25 55 -28 47 -3 52 -1 52 17 0 18 6 21 44 21 26 0 46 5 49 13 3 7 6 5 6 -5 1 -10 5 -18 9 -18 4 0 14 -16 21 -35 14 -40 54 -75 85 -75 16 1 13 5 -16 20 -29 16 -40 29 -48 60 -6 22 -15 40 -20 40 -6 0 -10 5 -10 10 0 7 6 7 19 0 11 -5 36 -10 55 -10 35 0 36 1 36 40 l0 40 -50 0 c-27 0 -50 -4 -50 -9 0 -5 -9 -11 -19 -14 -14 -3 -18 -1 -14 10 5 13 -3 15 -46 12 -31 -3 -51 0 -51 6 0 6 14 9 33 7 l32 -4 -3 77 c-2 45 1 81 7 89 11 13 13 55 3 91 l-5 20 -8 -20 c-4 -11 -8 -59 -8 -107 l-1 -88 -284 0 c-218 0 -286 -3 -289 -12 -4 -10 -6 -10 -6 0 -1 9 -46 12 -189 12 l-189 0 -11 25 c-20 43 -14 60 41 134 l52 71 158 0 c123 0 162 -3 173 -14 7 -8 19 -16 26 -18 6 -2 9 -12 5 -21 -7 -19 -110 -101 -153 -122 -17 -8 -31 -21 -31 -30 0 -13 28 -15 209 -15 178 0 208 2 208 15 0 8 -5 15 -10 15 -6 0 -16 4 -23 10 -7 5 -41 31 -77 58 -70 53 -86 85 -48 96 22 7 22 7 3 16 -13 6 13 9 78 9 l97 1 0 315 c0 308 0 315 -20 315 -20 0 -20 -7 -20 -300 l0 -300 -1462 2 -1463 3 1458 2 1457 3 0 275 0 275 -1460 0 -1460 0 0 -297 c0 -275 -6 -344 -24 -314 -4 6 -2 11 3 11 8 0 11 101 11 320 0 272 -2 320 -14 320 -8 0 -17 -4 -20 -9z m1131 -627 c-3 -3 -12 -4 -19 -1 -8 3 -5 6 6 6 11 1 17 -2 13 -5z m40 0 c-3 -3 -12 -4 -19 -1 -8 3 -5 6 6 6 11 1 17 -2 13 -5z m486 -1 c-34 -2 -93 -2 -130 0 -37 2 -9 3 62 3 72 0 102 -1 68 -3z m94 1 c-3 -3 -12 -4 -19 -1 -8 3 -5 6 6 6 11 1 17 -2 13 -5z m562 -86 c1 -5 -3 -8 -9 -8 -5 0 -10 12 -9 28 0 24 1 25 9 7 5 -11 9 -23 9 -27z m-1771 8 c-10 -7 -22 -24 -27 -37 -7 -17 -10 -19 -10 -6 -1 17 32 57 47 57 4 0 -1 -7 -10 -14z m290 -2 c12 -8 22 -21 21 -27 0 -9 -2 -8 -6 1 -2 7 -13 17 -24 22 -41 23 -80 -35 -47 -68 8 -8 8 -12 1 -12 -26 0 -30 56 -6 82 20 22 32 23 61 2z m-234 -10 c20 -19 20 -35 1 -60 -14 -17 -14 -17 -3 10 11 25 10 30 -11 47 -13 11 -19 19 -13 19 6 0 18 -7 26 -16z m2234 -41 c20 -15 41 -31 47 -35 5 -4 -37 -8 -94 -8 l-103 0 44 34 c24 19 49 35 56 35 7 1 30 -11 50 -26z m-1994 -30 c-10 -7 -25 -13 -33 -12 -10 0 -7 4 7 9 12 5 25 17 29 27 5 13 8 14 11 3 3 -7 -3 -19 -14 -27z m-267 -9 c-3 -3 -12 -4 -19 -1 -8 3 -5 6 6 6 11 1 17 -2 13 -5z m2700 -96 c-3 -7 -5 -2 -5 12 0 14 2 19 5 13 2 -7 2 -19 0 -25z m-3487 7 c0 -13 -24 -15 -157 -15 -86 0 -154 3 -150 6 3 3 71 5 151 5 96 -1 146 2 146 9 0 5 2 10 5 10 3 0 5 -7 5 -15z m1476 -39 c-2 -6 -5 -3 -5 7 -1 15 -13 17 -88 19 l-88 2 83 3 c55 3 82 8 83 16 0 7 5 1 10 -12 5 -13 8 -29 5 -35z m1444 34 c0 -6 -89 -9 -252 -8 l-253 2 250 6 c138 3 251 7 253 8 1 1 2 -2 2 -8z m-2102 -7 c-130 -2 -346 -2 -480 0 -134 1 -27 2 237 2 264 0 373 -1 243 -2z m392 3 c0 -2 -13 -6 -30 -8 -16 -3 -30 -1 -30 4 0 4 14 8 30 8 17 0 30 -2 30 -4z m61 -28 c-5 -23 -13 -34 -26 -35 -18 -2 -18 -1 -2 3 14 5 18 13 15 35 -3 18 0 29 7 29 9 0 10 -10 6 -32z m897 25 l-238 -3 0 -65 0 -65 -115 0 -115 0 0 65 0 65 -41 0 c-35 0 -39 -2 -30 -14 9 -10 9 -16 1 -21 -6 -4 -14 -4 -17 -1 -4 3 -1 6 6 6 9 0 8 4 -3 15 -20 21 -66 20 -66 -2 0 -9 -3 -14 -6 -10 -4 3 -4 13 -1 22 6 13 56 15 434 13 257 -2 333 -4 191 -5z m-2491 -25 c-3 -8 -6 -5 -6 6 -1 11 2 17 5 13 3 -3 4 -12 1 -19z m379 -6 c-27 -2 -52 0 -57 5 -4 4 18 6 49 3 l57 -5 -49 -3z m1535 -9 c-8 -15 -10 -15 -11 -2 0 17 10 32 18 25 2 -3 -1 -13 -7 -23z m1349 4 c11 -5 9 -6 -4 -4 -11 1 -21 9 -23 17 -3 10 -2 11 4 4 4 -6 15 -14 23 -17z m80 3 c0 -5 -5 -10 -11 -10 -5 0 -7 5 -4 10 3 6 8 10 11 10 2 0 4 -4 4 -10z m-3372 -7 c-10 -2 -28 -2 -40 0 -13 2 -5 4 17 4 22 1 32 -1 23 -4z m635 -10 c-13 -2 -33 -2 -45 0 -13 2 -3 4 22 4 25 0 35 -2 23 -4z m2525 -2 c7 -4 -10 -6 -40 -4 -95 7 -141 -44 -117 -131 7 -25 21 -44 42 -56 32 -20 25 -20 -1183 -20 -1014 1 -1211 3 -1191 14 58 32 69 119 21 167 -19 20 -24 28 -12 25 9 -3 108 -28 219 -56 l203 -50 759 0 759 0 203 50 c112 28 213 54 224 59 25 12 96 13 113 2z m385 2 c-13 -2 -33 -2 -45 0 -13 2 -3 4 22 4 25 0 35 -2 23 -4z m67 -28 c0 -2 -7 -1 -17 2 -11 4 -14 3 -9 -5 4 -7 3 -12 -3 -12 -5 0 -13 5 -16 10 -3 6 -1 10 5 10 6 0 8 5 4 11 -4 8 0 8 15 0 11 -7 21 -14 21 -16z m-3370 5 c10 -6 2 -7 -25 -3 -49 7 -58 13 -19 13 16 0 36 -5 44 -10z m397 4 c-3 -3 -12 -4 -19 -1 -8 3 -5 6 6 6 11 1 17 -2 13 -5z m2481 -1 c-10 -2 -26 -2 -35 0 -10 3 -2 5 17 5 19 0 27 -2 18 -5z m327 -3 c-3 -5 -12 -10 -18 -10 -7 0 -6 4 3 10 19 12 23 12 15 0z m98 3 c-7 -2 -21 -2 -30 0 -10 3 -4 5 12 5 17 0 24 -2 18 -5z m-310 -10 c-18 -2 -48 -2 -65 0 -18 2 -4 4 32 4 36 0 50 -2 33 -4z m-3213 -28 c0 -11 -12 -15 -45 -15 -33 0 -45 4 -45 15 0 11 12 15 45 15 33 0 45 -4 45 -15z m290 1 c0 -2 -9 -6 -20 -9 -11 -3 -20 -1 -20 4 0 5 9 9 20 9 11 0 20 -2 20 -4z m150 -6 c0 -5 -7 -7 -15 -4 -8 4 -15 8 -15 10 0 2 7 4 15 4 8 0 15 -4 15 -10z m2764 1 c3 -4 -6 -6 -19 -3 -34 6 -32 -14 3 -32 15 -8 22 -15 16 -16 -20 0 -58 36 -50 48 8 14 42 16 50 3z m133 3 c-3 -3 -12 -4 -19 -1 -8 3 -5 6 6 6 11 1 17 -2 13 -5z m-2650 -61 c-3 -10 -5 -2 -5 17 0 19 2 27 5 18 2 -10 2 -26 0 -35z m2863 27 c0 -11 -2 -20 -4 -20 -2 0 -6 9 -9 20 -3 11 -1 20 4 20 5 0 9 -9 9 -20z m-3030 6 c0 -2 -8 -10 -17 -17 -16 -13 -17 -12 -4 4 13 16 21 21 21 13z m74 -22 c3 -8 2 -12 -4 -9 -6 3 -10 10 -10 16 0 14 7 11 14 -7z m2801 6 c3 -5 1 -10 -4 -10 -6 0 -11 5 -11 10 0 6 2 10 4 10 3 0 8 -4 11 -10z m202 -12 c-3 -8 -6 -5 -6 6 -1 11 2 17 5 13 3 -3 4 -12 1 -19z m-3489 -53 c4 -6 -1 -2 -10 8 -10 11 -18 27 -17 36 0 10 4 7 10 -8 5 -14 13 -30 17 -36z m138 39 c18 -14 18 -14 -6 -3 -31 14 -36 19 -24 19 6 0 19 -7 30 -16z m141 -6 c-3 -8 -6 -5 -6 6 -1 11 2 17 5 13 3 -3 4 -12 1 -19z m3043 7 c-7 -9 -15 -13 -19 -10 -3 3 1 10 9 15 21 14 24 12 10 -5z m77 -7 c-3 -8 -6 -5 -6 6 -1 11 2 17 5 13 3 -3 4 -12 1 -19z m-2882 2 c-3 -5 -14 -10 -23 -9 -14 0 -13 2 3 9 27 11 27 11 20 0z m2725 0 c0 -6 -26 -9 -62 -8 l-63 1 60 7 c33 4 61 7 63 8 1 1 2 -2 2 -8z m231 -23 c-10 -9 -11 -8 -5 6 3 10 9 15 12 12 3 -3 0 -11 -7 -18z m-3346 -17 c-10 -11 -22 -20 -28 -20 -5 0 1 9 14 20 31 25 37 25 14 0z m50 10 c7 -11 188 -14 199 -3 13 13 35 11 48 -5 12 -15 11 -16 -7 -3 -18 13 -18 13 1 -8 12 -13 37 -27 55 -32 33 -8 33 -9 -6 -4 -22 3 -113 5 -202 5 l-162 0 27 29 c30 32 38 36 47 21z m3010 -10 c57 0 95 4 103 12 9 9 12 9 12 0 0 -7 15 -21 33 -32 l32 -20 -178 0 -177 0 32 29 c21 19 37 26 43 20 5 -5 50 -9 100 -9z m146 3 c13 -16 12 -17 -3 -4 -10 7 -18 15 -18 17 0 8 8 3 21 -13z m-301 -8 c-7 -8 -17 -15 -23 -15 -6 0 -2 7 9 15 25 19 30 19 14 0z m415 -5 c-3 -5 -12 -10 -18 -10 -7 0 -6 4 3 10 19 12 23 12 15 0z m-3378 -16 c-3 -3 -12 -4 -19 -1 -8 3 -5 6 6 6 11 1 17 -2 13 -5z m430 0 c-3 -3 -12 -4 -19 -1 -8 3 -5 6 6 6 11 1 17 -2 13 -5z"/>
<path d="M11880 2620 l0 -60 105 0 105 0 0 60 0 60 -105 0 -105 0 0 -60z"/>
<path d="M10430 3575 c0 -13 168 -15 1461 -15 1164 0 1460 3 1457 13 -4 9 -307 13 -1461 15 -1291 2 -1457 0 -1457 -13z"/>
<path d="M9682 2808 l-2 -138 24 0 c19 0 25 6 28 30 4 26 1 30 -18 30 -23 0 -23 3 -27 108 -3 105 -3 105 -5 -30z"/>
<path d="M9500 2620 l0 -40 44 0 c35 0 48 5 60 22 25 35 18 8 -12 -47 -15 -27 -42 -60 -61 -72 -28 -19 -30 -23 -13 -23 32 0 77 45 91 89 6 22 17 43 23 47 6 4 8 3 5 -3 -4 -6 13 -11 43 -12 l50 -1 0 40 0 40 -44 0 c-31 0 -46 -5 -50 -16 -6 -16 -8 -16 -24 0 -12 10 -36 16 -65 16 l-47 0 0 -40z"/>
<path d="M10770 2259 c-19 -35 -8 -62 35 -85 30 -15 40 -26 40 -45 0 -33 -45 -34 -60 -1 -13 29 -25 28 -25 -1 0 -32 18 -47 57 -47 24 0 37 7 49 25 21 32 10 61 -29 81 -52 26 -58 34 -46 55 13 25 34 24 53 -3 14 -19 16 -20 22 -5 16 44 -74 68 -96 26z"/>
<path d="M11040 2265 c0 -8 5 -15 10 -15 6 0 10 7 10 15 0 8 -4 15 -10 15 -5 0 -10 -7 -10 -15z"/>
<path d="M11419 2264 c-18 -22 -23 -123 -7 -154 25 -48 108 -32 108 21 0 27 -15 24 -28 -6 -15 -32 -50 -33 -57 -2 -21 82 18 170 52 120 18 -26 33 -30 33 -9 0 40 -74 62 -101 30z"/>
<path d="M11856 2273 c-17 -17 -36 -77 -36 -113 0 -45 17 -100 38 -120 13 -13 14 -13 8 4 -29 81 -28 151 1 209 13 25 6 37 -11 20z"/>
<path d="M11890 2271 c0 -5 10 -11 23 -13 21 -3 22 -8 25 -90 1 -49 7 -88 12 -88 5 0 11 39 12 88 3 82 4 87 26 90 46 7 20 22 -38 22 -33 0 -60 -4 -60 -9z"/>
<path d="M12220 2265 c0 -8 5 -15 10 -15 6 0 10 7 10 15 0 8 -4 15 -10 15 -5 0 -10 -7 -10 -15z"/>
<path d="M12280 2180 c0 -60 4 -100 10 -100 6 0 10 40 10 100 0 60 -4 100 -10 100 -6 0 -10 -40 -10 -100z"/>
<path d="M12546 2245 c7 -19 14 -59 14 -90 0 -31 -7 -71 -14 -90 -19 -44 -2 -46 21 -2 11 20 17 54 17 92 0 38 -6 72 -17 93 -23 43 -40 41 -21 -3z"/>
<path d="M10907 2197 c-6 -44 4 -167 14 -167 5 0 9 13 9 29 0 24 3 28 24 24 47 -9 75 76 41 124 -11 16 -25 22 -49 21 -30 -1 -35 -5 -39 -31z m74 -14 c13 -35 -2 -78 -27 -78 -15 0 -20 8 -22 39 -2 21 -1 44 2 52 9 23 36 16 47 -13z"/>
<path d="M11040 2155 c0 -43 4 -75 10 -75 6 0 10 32 10 75 0 43 -4 75 -10 75 -6 0 -10 -32 -10 -75z"/>
<path d="M11090 2153 c0 -42 4 -73 10 -73 8 0 16 55 11 83 -3 15 20 47 33 47 19 0 26 -23 26 -81 0 -27 5 -49 10 -49 15 0 13 125 -2 138 -7 6 -30 10 -50 9 l-38 -1 0 -73z"/>
<path d="M11230 2211 c-15 -29 -12 -107 4 -121 20 -15 56 -9 70 12 15 24 -1 36 -18 13 -16 -23 -46 -13 -46 15 0 16 6 20 35 20 32 0 35 3 35 28 0 15 -5 33 -12 40 -18 18 -56 14 -68 -7z m58 -24 c3 -12 -3 -17 -22 -17 -25 0 -35 18 -19 34 12 12 38 2 41 -17z"/>
<path d="M11562 2218 c-7 -7 -12 -19 -12 -27 0 -12 3 -11 18 2 25 22 42 21 42 -2 0 -12 -9 -21 -25 -25 -14 -4 -31 -18 -37 -31 -16 -36 3 -53 57 -53 43 1 53 7 38 22 -4 4 -6 24 -4 46 1 21 -3 48 -9 59 -12 23 -49 28 -68 9z m46 -90 c-4 -29 -38 -38 -38 -10 0 22 8 32 27 32 9 0 13 -8 11 -22z"/>
<path d="M11670 2155 c0 -43 4 -75 10 -75 6 0 10 20 10 44 0 54 8 76 26 76 8 0 14 7 14 15 0 18 -12 19 -28 3 -9 -9 -12 -9 -12 0 0 7 -4 12 -10 12 -6 0 -10 -32 -10 -75z"/>
<path d="M12020 2155 c0 -43 4 -75 10 -75 6 0 10 24 10 54 0 50 17 86 33 69 4 -3 7 1 7 10 0 20 -11 22 -28 5 -9 -9 -12 -9 -12 0 0 7 -4 12 -10 12 -6 0 -10 -32 -10 -75z"/>
<path d="M12110 2215 c-16 -19 -5 -34 12 -17 18 18 38 14 38 -7 0 -12 -9 -21 -25 -25 -14 -4 -31 -18 -37 -31 -16 -35 3 -53 56 -53 l42 1 -4 56 c-2 31 -9 64 -14 74 -11 21 -51 22 -68 2z m51 -94 c-15 -26 -41 -27 -41 -1 0 21 31 43 43 30 5 -4 4 -17 -2 -29z"/>
<path d="M12220 2155 c0 -43 4 -75 10 -75 6 0 10 32 10 75 0 43 -4 75 -10 75 -6 0 -10 -32 -10 -75z"/>
<path d="M12347 2212 c-19 -21 -22 -83 -7 -113 17 -31 80 -22 80 12 0 10 -4 19 -10 19 -5 0 -10 -7 -10 -15 0 -20 -36 -19 -44 1 -11 29 -6 34 35 34 40 0 41 1 34 27 -13 55 -47 69 -78 35z m51 -25 c3 -12 -3 -17 -22 -17 -28 0 -29 1 -20 25 8 20 38 15 42 -8z"/>
<path d="M12457 2224 c-4 -4 -7 -38 -7 -76 0 -54 3 -68 15 -68 12 0 15 13 15 59 0 51 3 61 20 66 11 4 18 11 14 16 -4 6 -10 6 -18 0 -8 -7 -16 -7 -22 -1 -6 6 -13 7 -17 4z"/>
<path d="M10522 1983 c654 -2 1722 -2 2375 0 654 1 119 2 -1187 2 -1306 0 -1841 -1 -1188 -2z"/>
</g>
</svg>