<svg xmlns="http://www.w3.org/2000/svg" viewBox="946.00 585.00 445.10 183.40">
<g transform="translate(0.000000,768.000000) scale(0.100000,-0.100000)" fill="currentColor" stroke="none">
<path d="M11300 1775 c0 -2 9 -27 20 -55 11 -28 20 -58 19 -68 0 -10 -3 -12 -6 -4 -12 29 -23 -4 -23 -68 0 -64 11 -97 23 -68 3 7 6 -13 6 -45 l1 -57 355 2 c195 2 355 0 355 -4 0 -5 -163 -8 -363 -8 l-364 0 5 30 4 30 -777 0 c-705 0 -777 -1 -771 -16 3 -9 6 -20 6 -25 0 -5 312 -10 763 -12 l762 -2 -760 -3 -760 -2 -3 -339 c-2 -267 0 -340 10 -344 8 -2 7 -3 -2 -3 -12 1 -15 24 -17 131 -3 140 -8 175 -23 175 -7 0 -9 -62 -8 -172 l3 -173 35 -6 c30 -5 26 -7 -21 -8 -40 -1 -59 -5 -63 -16 -7 -19 -32 -19 -40 0 -4 11 -20 15 -56 15 l-50 0 0 -44 c0 -25 4 -47 8 -50 16 -10 81 6 101 25 16 15 20 16 25 4 3 -8 0 -14 -6 -12 -6 1 -25 -23 -42 -53 -21 -37 -43 -61 -66 -72 -33 -16 -33 -17 -10 -18 37 0 67 25 95 81 l25 49 65 0 64 0 4 33 c2 17 3 -4 3 -48 l-1 -80 130 0 130 0 3 43 c3 41 4 42 38 42 34 0 34 0 34 -46 0 -39 5 -51 34 -80 l34 -34 -359 0 -359 0 0 -30 0 -30 2000 0 c1900 0 1999 1 1993 18 -15 41 -21 42 -190 42 -97 0 -162 4 -159 9 4 5 0 12 -6 14 -10 4 -10 6 0 6 7 1 21 16 32 33 11 18 20 28 20 22 0 -6 -9 -23 -21 -38 -11 -14 -16 -26 -11 -26 5 0 16 10 25 23 18 28 33 92 20 84 -6 -4 -8 4 -5 18 3 18 12 25 36 28 27 3 26 4 -6 3 -21 0 -43 5 -50 12 -14 14 -32 16 -23 2 3 -6 -1 -7 -10 -3 -12 4 -13 8 -5 13 18 11 -14 20 -71 20 -27 0 -49 -4 -49 -10 0 -6 -26 -9 -62 -8 l-63 2 55 3 c30 2 59 8 64 14 18 17 109 10 144 -11 18 -11 50 -20 72 -20 39 0 40 1 40 35 l0 35 -169 0 c-141 0 -170 -2 -175 -15 -8 -21 -148 -21 -166 0 -11 13 -60 15 -331 15 l-319 0 0 -40 0 -40 195 0 c191 0 195 0 231 25 20 14 44 25 53 24 9 0 4 -5 -12 -11 -15 -5 -25 -13 -22 -18 2 -4 -5 -16 -18 -26 l-22 -19 19 23 c11 12 14 22 9 22 -6 0 -16 -7 -23 -15 -10 -12 -47 -15 -216 -15 l-204 0 0 46 c0 37 -3 45 -15 40 -8 -3 -15 -1 -15 4 0 6 129 10 344 10 296 0 345 -2 350 -15 8 -22 151 -22 160 0 4 13 33 15 175 15 l170 0 -1 36 c-1 25 4 39 15 46 14 8 17 28 17 132 0 101 -3 125 -15 130 -9 3 -15 19 -15 41 0 22 4 34 10 30 6 -4 10 5 10 19 0 14 -4 26 -10 26 -6 0 -10 43 -10 110 l0 110 138 0 137 0 0 -320 c0 -250 3 -322 13 -332 11 -11 13 8 10 105 -2 64 0 117 5 117 4 0 7 -56 7 -125 0 -118 1 -125 20 -125 19 0 20 7 20 180 0 113 -4 180 -10 180 -6 0 -11 -59 -12 -152 l-2 -153 -3 138 c-3 104 -7 138 -16 134 -9 -3 -11 42 -10 199 l2 204 -762 3 -762 2 760 3 760 2 12 25 11 25 -554 0 c-363 0 -554 -3 -554 -10 0 -5 -8 -10 -17 -9 -10 0 -13 3 -6 5 7 3 10 11 7 17 -3 9 44 11 193 10 696 -9 963 -8 963 5 0 10 -161 12 -791 12 -435 -1 -794 2 -798 6 -3 4 0 9 7 11 15 6 17 143 2 143 -15 0 -12 42 5 83 8 20 15 39 15 42 0 3 -173 5 -385 5 -212 0 -385 -2 -385 -5z m468 -62 c-32 -2 -86 -2 -120 0 -35 2 -9 3 57 3 66 0 94 -1 63 -3z m208 -51 c1 -7 0 -8 -3 -2 -3 6 -105 10 -289 10 l-284 0 0 -90 0 -90 79 0 c44 0 82 5 84 10 3 6 4 5 3 -2 -2 -9 -29 -14 -89 -16 l-87 -3 0 94 c0 51 3 97 7 100 4 4 135 6 291 5 222 -2 286 -6 288 -16z m-91 -175 l75 -3 -77 0 -78 1 -1 90 0 90 3 -87 4 -87 74 -4z m-335 88 l0 -75 -70 0 -70 0 0 75 0 75 70 0 70 0 0 -75z m410 0 l0 -75 -70 0 -70 0 0 75 0 75 70 0 70 0 0 -75z m-393 23 c-3 -7 -5 -2 -5 12 0 14 2 19 5 13 2 -7 2 -19 0 -25z m410 -80 c-2 -24 -4 -7 -4 37 0 44 2 63 4 43 2 -21 2 -57 0 -80z m-410 15 c-3 -10 -5 -2 -5 17 0 19 2 27 5 18 2 -10 2 -26 0 -35z m813 -70 c0 -8 15 -14 38 -15 l37 -1 -34 -4 c-18 -3 -38 0 -44 6 -7 7 -71 11 -174 11 -90 0 -163 3 -163 8 0 4 77 7 170 7 129 0 170 -3 170 -12z m-97 -110 c-386 -2 -1020 -2 -1410 0 -389 1 -73 2 702 2 776 0 1094 -1 708 -2z m860 0 c-7 -2 -19 -2 -25 0 -7 3 -2 5 12 5 14 0 19 -2 13 -5z m-3051 -315 c0 -172 2 -317 3 -323 2 -5 3 -18 4 -27 1 -16 16 -18 165 -18 136 0 165 -3 170 -15 4 -12 23 -15 81 -15 58 0 77 3 81 15 5 13 97 15 740 15 l734 0 1 -62 c0 -35 2 -58 5 -53 2 6 82 9 219 7 l216 -3 -6 -32 c-7 -40 20 -97 55 -114 20 -10 -148 -13 -870 -13 -619 1 -890 4 -877 11 9 6 14 15 11 21 -4 7 -2 8 4 4 19 -12 44 40 40 84 l-4 40 225 0 c192 0 225 -2 235 -16 21 -28 136 -27 136 2 0 11 19 14 85 14 50 0 85 -4 85 -10 0 -5 5 -10 10 -10 6 0 10 27 10 60 0 33 -4 60 -10 60 -5 0 -10 -20 -10 -45 l0 -45 -85 0 c-48 0 -85 4 -85 10 0 5 7 7 15 4 12 -5 15 2 15 33 l0 39 -52 2 c-33 1 -55 -2 -60 -10 -6 -10 -8 -10 -8 -1 0 9 -90 12 -379 13 -327 0 -380 -2 -391 -15 -18 -21 -152 -21 -170 0 -10 12 -42 15 -172 15 -157 0 -160 0 -166 -22 -5 -17 -8 -7 -12 32 l-5 55 -127 3 -128 3 0 87 c0 48 -1 187 -3 310 l-2 222 138 0 137 0 2 -312z m3155 205 c-2 -16 -4 -5 -4 22 0 28 2 40 4 28 2 -13 2 -35 0 -50z m-2642 -10 c5 -15 4 -16 -6 -5 -8 7 -43 12 -96 12 l-83 0 -2 -72 -2 -73 -3 64 c-2 35 -2 70 1 77 4 10 29 14 95 14 75 0 90 -3 96 -17z m652 11 c-3 -3 -12 -4 -19 -1 -8 3 -5 6 6 6 11 1 17 -2 13 -5z m973 -1 c-19 -3 -38 -10 -42 -16 -5 -8 -8 -8 -8 -1 0 18 12 24 49 22 l36 -1 -35 -4z m726 -83 l0 -85 -3 83 -4 82 -84 0 c-57 0 -85 -4 -88 -12 -3 -8 -6 -6 -6 5 -1 16 8 17 92 15 l92 -3 1 -85z m-2376 -30 l0 -100 -75 0 -75 0 0 93 c0 52 3 97 7 100 3 4 37 7 75 7 l68 0 0 -100z m660 0 l0 -100 -69 0 -70 0 -3 96 c-2 53 -1 98 1 100 2 2 35 4 73 4 l68 0 0 -100z m1110 0 l0 -100 -75 0 -75 0 0 93 c0 52 3 97 7 100 3 4 37 7 75 7 l68 0 0 -100z m588 -2 l3 -98 -76 0 -75 0 0 100 0 101 73 -3 72 -3 3 -97z m-161 60 c-3 -8 -6 -5 -6 6 -1 11 2 17 5 13 3 -3 4 -12 1 -19z m-585 -130 c2 -25 0 -44 -4 -41 -5 2 -7 30 -7 61 1 62 6 53 11 -20z m585 30 c-3 -7 -5 -2 -5 12 0 14 2 19 5 13 2 -7 2 -19 0 -25z m470 -80 c-2 -24 -4 -7 -4 37 0 44 2 63 4 43 2 -21 2 -57 0 -80z m-470 15 c-3 -10 -5 -2 -5 17 0 19 2 27 5 18 2 -10 2 -26 0 -35z m-1507 7 c0 -11 -4 -20 -9 -20 -5 0 -7 9 -4 20 3 11 7 20 9 20 2 0 4 -9 4 -20z m-846 -6 c3 -8 2 -12 -4 -9 -6 3 -10 10 -10 16 0 14 7 11 14 -7z m2533 -6 c-3 -8 -6 -5 -6 6 -1 11 2 17 5 13 3 -3 4 -12 1 -19z m254 -96 c-23 -84 -108 -162 -191 -176 -31 -5 -31 -4 8 9 114 37 178 120 184 235 l1 35 4 -32 c2 -17 -1 -49 -6 -71z m-3012 -66 c26 -41 82 -80 139 -97 23 -7 40 -14 38 -17 -11 -10 -107 32 -144 64 -45 38 -83 121 -81 177 0 23 4 14 14 -31 8 -35 23 -78 34 -96z m3101 29 c0 -70 -4 -115 -10 -115 -6 0 -10 45 -10 115 0 70 4 115 10 115 6 0 10 -45 10 -115z m-53 8 c-3 -10 -5 -4 -5 12 0 17 2 24 5 18 2 -7 2 -21 0 -30z m3 -138 c0 -19 -4 -35 -8 -35 -4 0 -6 16 -4 35 2 19 6 35 8 35 2 0 4 -16 4 -35z m-3297 -107 l102 -2 -102 -3 -103 -4 0 -34 0 -35 105 0 105 0 0 70 0 69 -97 4 -98 3 103 2 102 2 0 -115 c0 -63 -4 -115 -8 -115 -4 0 -6 16 -4 35 l4 35 -107 0 -107 0 4 -35 c2 -19 0 -35 -4 -35 -4 0 -7 53 -6 118 1 64 3 100 5 80 l4 -38 102 -2z m567 -30 c91 0 190 3 220 7 49 6 59 4 93 -20 l39 -26 224 3 c123 2 224 -1 224 -5 0 -4 -111 -7 -247 -5 -194 2 -248 6 -248 16 0 21 -27 32 -80 30 l-50 -1 50 -7 c28 -4 -74 -7 -225 -6 -151 0 -252 2 -225 5 l50 5 -55 7 -55 7 60 -5 c33 -3 134 -5 225 -5z m2153 5 c-7 -2 -21 -2 -30 0 -10 3 -4 5 12 5 17 0 24 -2 18 -5z m32 -13 c3 -5 1 -10 -4 -10 -6 0 -11 5 -11 10 0 6 2 10 4 10 3 0 8 -4 11 -10z m-42 -7 c-7 -2 -19 -2 -25 0 -7 3 -2 5 12 5 14 0 19 -2 13 -5z m195 0 c-27 -2 -69 -2 -95 0 -27 2 -5 3 47 3 52 0 74 -1 48 -3z m255 0 c-13 -2 -33 -2 -45 0 -13 2 -3 4 22 4 25 0 35 -2 23 -4z m-2976 -23 c18 0 33 -3 33 -8 0 -15 -79 0 -85 16 -5 14 -4 15 6 5 7 -7 28 -13 46 -13z m92 17 c-2 -1 -15 -11 -29 -22 l-25 -20 19 23 c11 12 24 22 29 22 6 0 8 -1 6 -3z m146 -52 c0 -22 -1 -23 -12 -9 -7 9 -10 21 -7 25 10 17 19 9 19 -16z m243 5 c-7 -10 -14 -18 -15 -16 -6 6 9 36 18 36 5 0 4 -9 -3 -20z m2352 16 c0 -3 -4 -8 -10 -11 -5 -3 -10 -1 -10 4 0 6 5 11 10 11 6 0 10 -2 10 -4z m-2540 -36 c0 -16 -4 -30 -8 -30 -5 0 -7 14 -4 30 2 17 6 30 8 30 2 0 4 -13 4 -30z m60 26 c0 -2 -9 -6 -20 -9 -11 -3 -20 -1 -20 4 0 5 9 9 20 9 11 0 20 -2 20 -4z m83 -3 c-7 -2 -21 -2 -30 0 -10 3 -4 5 12 5 17 0 24 -2 18 -5z m107 -2 c0 -5 -8 -15 -17 -22 -16 -13 -17 -12 -5 3 10 13 10 17 0 21 -8 4 -7 6 5 6 9 1 17 -3 17 -8z m-503 -23 c-3 -8 -6 -5 -6 6 -1 11 2 17 5 13 3 -3 4 -12 1 -19z m93 18 c0 -2 -7 -7 -16 -10 -8 -3 -12 -2 -9 4 6 10 25 14 25 6z m480 0 c0 -2 -7 -7 -16 -10 -8 -3 -12 -2 -9 4 6 10 25 14 25 6z m35 -6 c3 -6 -1 -7 -9 -4 -18 7 -21 14 -7 14 6 0 13 -4 16 -10z m1866 -13 c-10 -9 -11 -8 -5 6 3 10 9 15 12 12 3 -3 0 -11 -7 -18z m339 13 c0 -5 -4 -10 -10 -10 -5 0 -10 5 -10 10 0 6 5 10 10 10 6 0 10 -4 10 -10z m160 -9 c0 -10 -9 -29 -21 -42 l-21 -24 16 25 c9 13 16 32 16 42 0 10 2 18 5 18 3 0 5 -9 5 -19z m-2293 -38 c-3 -10 -5 -2 -5 17 0 19 2 27 5 18 2 -10 2 -26 0 -35z m1710 25 c-3 -8 -6 -5 -6 6 -1 11 2 17 5 13 3 -3 4 -12 1 -19z m-2047 2 c0 -5 -2 -10 -4 -10 -3 0 -8 5 -11 10 -3 6 -1 10 4 10 6 0 11 -4 11 -10z m28 -10 c-7 -10 -14 -17 -17 -15 -4 4 18 35 25 35 2 0 -1 -9 -8 -20z m29 -12 c-3 -7 -5 -2 -5 12 0 14 2 19 5 13 2 -7 2 -19 0 -25z m2340 26 c-3 -3 -12 -4 -19 -1 -8 3 -5 6 6 6 11 1 17 -2 13 -5z m69 -9 c17 6 18 6 1 -5 -19 -12 -37 -6 -37 13 0 9 3 8 8 -1 5 -7 17 -10 28 -7z m114 11 c0 -3 -4 -8 -10 -11 -5 -3 -10 -1 -10 4 0 6 5 11 10 11 6 0 10 -2 10 -4z m-2400 -9 c0 -2 -10 -12 -22 -23 l-23 -19 19 23 c18 21 26 27 26 19z m2178 -22 c-3 -3 -9 2 -12 12 -6 14 -5 15 5 6 7 -7 10 -15 7 -18z m192 10 c7 -9 8 -15 2 -15 -5 0 -12 7 -16 15 -3 8 -4 15 -2 15 2 0 9 -7 16 -15z m-2893 -17 c-3 -8 -6 -5 -6 6 -1 11 2 17 5 13 3 -3 4 -12 1 -19z m87 -17 c-3 -3 -15 6 -27 18 l-22 24 27 -19 c14 -10 24 -21 22 -23z m107 22 c13 -16 12 -17 -3 -4 -17 13 -22 21 -14 21 2 0 10 -8 17 -17z m266 11 c-3 -3 -12 -4 -19 -1 -8 3 -5 6 6 6 11 1 17 -2 13 -5z m2081 -19 c-3 -3 -9 2 -12 12 -6 14 -5 15 5 6 7 -7 10 -15 7 -18z m49 19 c-3 -3 -12 -4 -19 -1 -8 3 -5 6 6 6 11 1 17 -2 13 -5z m58 -4 c3 -5 1 -10 -4 -10 -6 0 -11 5 -11 10 0 6 2 10 4 10 3 0 8 -4 11 -10z m186 -17 c-12 -20 -14 -14 -5 12 4 9 9 14 11 11 3 -2 0 -13 -6 -23z m99 17 c0 -5 -5 -10 -11 -10 -5 0 -7 5 -4 10 3 6 8 10 11 10 2 0 4 -4 4 -10z m-453 -22 c-3 -8 -6 -5 -6 6 -1 11 2 17 5 13 3 -3 4 -12 1 -19z m-2337 2 c0 -5 -8 -10 -17 -10 -15 0 -16 2 -3 10 19 12 20 12 20 0z m475 0 c-3 -5 -12 -10 -18 -10 -7 0 -6 4 3 10 19 12 23 12 15 0z m2135 -4 c0 -3 -4 -8 -10 -11 -5 -3 -10 -1 -10 4 0 6 5 11 10 11 6 0 10 -2 10 -4z m-2240 -31 c14 -19 14 -19 -2 -6 -10 7 -18 18 -18 24 0 6 1 8 3 6 1 -2 9 -13 17 -24z m1997 -11 c-20 -17 -39 -24 -65 -23 l-37 2 44 7 c27 4 51 15 60 27 9 12 18 19 21 16 3 -3 -8 -16 -23 -29z m-2166 6 c50 0 100 5 112 11 16 9 22 9 25 0 2 -7 18 -21 36 -32 l31 -19 -210 1 c-140 0 -202 3 -187 10 14 5 20 13 16 20 -4 7 -3 9 3 6 6 -4 16 0 23 8 8 10 18 11 36 4 14 -5 66 -9 115 -9z m2053 -19 c-3 -3 -15 6 -27 18 l-22 24 27 -19 c14 -10 24 -21 22 -23z m171 29 c9 -15 208 -13 223 2 9 9 17 7 34 -9 13 -11 32 -25 43 -31 15 -9 -28 -11 -177 -12 l-197 0 27 29 c30 32 38 36 47 21z m286 -7 c13 -16 12 -17 -3 -4 -10 7 -18 15 -18 17 0 8 8 3 21 -13z m96 -29 c-3 -3 -12 -4 -19 -1 -8 3 -5 6 6 6 11 1 17 -2 13 -5z"/>
<path d="M10073 1235 c0 -22 2 -30 4 -17 2 12 2 30 0 40 -3 9 -5 -1 -4 -23z"/>
<path d="M10072 1105 c0 -16 2 -22 5 -12 2 9 2 23 0 30 -3 6 -5 -1 -5 -18z"/>
<path d="M9837 969 c2 -96 13 -101 13 -6 0 43 -3 77 -7 77 -5 0 -7 -32 -6 -71z"/>
<path d="M10067 1003 c-10 -9 -9 -241 1 -246 4 -3 7 53 7 124 0 71 0 129 -1 129 0 0 -4 -3 -7 -7z"/>
<path d="M11502 623 l3 -38 58 -3 57 -3 0 41 0 40 -61 0 -60 0 3 -37z"/>
<path d="M11660 580 l0 -80 200 0 200 0 0 80 0 80 -200 0 -200 0 0 -80z"/>
<path d="M12409 1758 c-13 -11 -15 -35 -11 -140 4 -127 4 -128 28 -128 24 0 24 1 24 110 l0 110 -25 0 c-16 0 -25 6 -25 15 0 23 31 31 45 12 7 -9 15 -14 19 -10 6 7 -22 43 -34 43 -3 0 -13 -6 -21 -12z"/>
<path d="M9740 1474 c0 -13 7 -15 31 -10 17 3 375 6 795 6 503 0 764 3 764 10 0 7 -272 10 -795 10 -727 0 -795 -1 -795 -16z"/>
<path d="M13293 1235 c0 -22 2 -30 4 -17 2 12 2 30 0 40 -3 9 -5 -1 -4 -23z"/>
<path d="M13520 971 c0 -39 5 -73 10 -76 6 -4 10 22 10 69 0 44 -4 76 -10 76 -6 0 -10 -30 -10 -69z"/>
<path d="M13292 648 l2 -83 3 77 4 77 97 4 97 3 -102 2 -103 2 2 -82z"/>
<path d="M13310 680 l0 -30 64 0 c60 0 66 2 86 30 l21 30 -85 0 -86 0 0 -30z"/>
<path d="M13625 635 c17 -14 36 -25 44 -25 8 0 24 -9 35 -19 20 -18 47 -25 89 -22 15 1 18 8 15 44 l-3 42 -48 3 c-35 2 -49 -1 -53 -12 -8 -20 -44 -21 -44 -1 0 10 -10 15 -32 15 l-33 -1 30 -24z"/>
<path d="M13310 610 c0 -16 5 -30 11 -30 16 0 89 42 89 52 0 4 -22 8 -50 8 -49 0 -50 -1 -50 -30z"/>
<path d="M13291 513 l-1 -43 67 0 66 0 -19 21 c-20 22 -66 49 -84 49 -5 0 -11 -12 -11 -27 -2 -25 -2 -24 -9 7 l-7 35 -2 -42z"/>
<path d="M13700 535 c0 -3 9 -23 20 -44 20 -41 36 -51 78 -51 26 0 26 1 -8 18 -19 9 -44 31 -55 49 -18 29 -35 42 -35 28z"/>
<path d="M13546 378 c-9 -12 -16 -26 -16 -30 0 -5 75 -8 166 -8 l165 0 -3 28 -3 27 -147 3 c-142 2 -147 2 -162 -20z"/>
<path d="M10751 246 c-25 -30 -9 -69 37 -94 33 -19 42 -29 40 -46 -4 -30 -57 -36 -65 -7 -3 12 -12 21 -20 21 -10 0 -13 -6 -9 -16 3 -9 6 -19 6 -24 0 -4 13 -13 29 -18 44 -16 75 4 79 51 3 36 1 38 -43 57 -49 21 -57 43 -22 64 14 9 21 7 31 -6 15 -21 36 -24 36 -5 0 35 -75 52 -99 23z"/>
<path d="M11290 231 c0 -25 -3 -28 -25 -23 -39 7 -55 -14 -55 -73 0 -61 12 -75 63 -73 l37 1 0 99 c0 59 -4 98 -10 98 -5 0 -10 -13 -10 -29z m-12 -53 c14 -14 16 -67 3 -86 -15 -24 -46 -10 -49 22 -7 61 16 94 46 64z"/>
<path d="M11630 230 c0 -27 -2 -29 -29 -24 -36 8 -51 -15 -51 -79 0 -53 14 -67 63 -65 l37 1 0 99 c0 59 -4 98 -10 98 -5 0 -10 -13 -10 -30z m-12 -52 c17 -17 15 -73 -3 -88 -24 -20 -45 -4 -45 34 0 61 19 83 48 54z"/>
<path d="M11768 243 c-20 -24 -28 -82 -18 -128 10 -42 16 -50 47 -59 25 -8 73 31 73 59 0 23 -15 18 -28 -10 -14 -30 -47 -33 -62 -6 -5 11 -10 38 -10 61 0 75 40 106 73 58 8 -13 18 -20 22 -16 4 4 0 19 -9 33 -20 30 -65 34 -88 8z"/>
<path d="M12020 162 l0 -99 37 -1 c50 -2 63 12 63 67 0 60 -18 86 -53 79 -24 -5 -27 -2 -27 23 0 16 -4 29 -10 29 -6 0 -10 -39 -10 -98z m68 16 c14 -14 16 -67 3 -86 -5 -8 -17 -12 -27 -10 -14 2 -20 13 -22 42 -5 61 15 85 46 54z"/>
<path d="M10890 231 c0 -11 -6 -22 -12 -25 -10 -5 -10 -7 0 -12 8 -4 12 -28 12 -70 0 -63 0 -64 28 -64 24 1 25 2 10 14 -13 10 -18 27 -18 65 0 42 3 51 18 51 16 1 16 1 0 14 -10 7 -18 21 -18 30 0 9 -4 16 -10 16 -5 0 -10 -9 -10 -19z"/>
<path d="M10965 193 c-12 -12 -14 -18 -5 -21 6 -2 17 1 23 7 17 17 37 13 37 -6 0 -10 -15 -25 -33 -33 -26 -12 -32 -21 -32 -45 0 -29 1 -30 52 -31 37 -1 51 2 45 10 -4 6 -9 38 -12 71 -5 56 -7 60 -31 63 -15 2 -34 -4 -44 -15z m55 -82 c0 -24 -15 -35 -36 -27 -12 4 -13 10 -4 26 14 26 40 26 40 1z"/>
<path d="M11080 133 c0 -42 4 -73 10 -73 6 0 10 24 10 53 0 52 12 77 37 77 9 0 13 -18 13 -65 0 -51 3 -65 15 -65 12 0 15 14 15 64 0 73 -9 85 -62 83 l-38 -1 0 -73z"/>
<path d="M11352 198 c-13 -13 -16 -38 -6 -38 4 0 12 7 19 17 7 9 19 14 29 10 27 -11 18 -36 -16 -45 -29 -7 -33 -12 -33 -43 0 -34 0 -34 46 -35 l45 -1 -4 61 c-2 34 -5 67 -7 74 -5 15 -57 16 -73 0z m56 -90 c-4 -31 -48 -39 -48 -10 0 20 12 30 38 31 8 1 12 -8 10 -21z"/>
<path d="M11470 135 c0 -43 4 -75 10 -75 6 0 10 25 10 55 0 44 4 57 20 67 11 7 20 16 20 20 0 13 -28 9 -33 -4 -4 -10 -6 -10 -6 0 -1 6 -5 12 -11 12 -6 0 -10 -32 -10 -75z"/>
<path d="M11900 191 c-13 -25 5 -39 18 -15 6 10 16 15 26 11 25 -10 19 -23 -20 -46 -29 -17 -35 -26 -32 -49 3 -25 7 -27 49 -28 l45 -1 -4 61 c-2 34 -5 67 -7 74 -7 20 -63 15 -75 -7z m56 -97 c-7 -18 -46 -18 -46 0 0 8 10 22 23 31 20 14 22 14 25 0 2 -9 1 -23 -2 -31z"/>
<path d="M12160 191 c-14 -27 -13 -104 2 -119 15 -15 61 -15 76 0 18 18 15 103 -4 122 -21 22 -61 20 -74 -3z m66 -25 c3 -13 4 -37 2 -52 -2 -23 -8 -29 -28 -29 -20 0 -26 6 -28 29 -2 15 -1 39 2 52 8 32 44 32 52 0z"/>
<path d="M12290 191 c-14 -27 -13 -104 2 -119 15 -15 61 -15 76 0 7 7 12 35 12 63 0 28 -5 56 -12 63 -19 19 -66 15 -78 -7z m65 -56 c0 -41 -3 -50 -19 -53 -23 -5 -36 14 -36 54 0 34 17 56 40 52 11 -2 15 -16 15 -53z"/>
<path d="M12422 198 c-22 -22 -13 -48 23 -69 19 -12 35 -27 35 -35 0 -19 -46 -18 -54 2 -3 8 -10 12 -16 9 -7 -4 -7 -13 1 -26 8 -16 19 -19 47 -17 32 3 37 7 40 30 3 23 -3 32 -32 49 -20 12 -36 25 -36 30 0 16 30 22 45 9 20 -17 32 -5 15 15 -15 18 -51 20 -68 3z"/>
<path d="M12541 196 c-22 -26 -25 -83 -7 -111 20 -30 62 -31 80 -3 15 24 -1 36 -18 13 -16 -23 -46 -13 -46 15 0 16 6 20 35 20 32 0 35 3 35 28 0 15 -5 33 -12 40 -16 16 -53 15 -67 -2z m57 -29 c3 -12 -3 -17 -22 -17 -25 0 -35 18 -19 34 12 12 38 2 41 -17z"/>
</g>
</svg>