<svg xmlns="http://www.w3.org/2000/svg" viewBox="545.00 509.00 829.40 261.40">
<g transform="translate(0.000000,768.000000) scale(0.100000,-0.100000)" fill="currentColor" stroke="none">
<path d="M11667 2533 c-4 -3 -7 -12 -7 -20 0 -10 36 -13 175 -13 96 0 175 2 175 4 0 2 -3 11 -6 20 -5 14 -30 16 -168 16 -90 0 -166 -3 -169 -7z"/>
<path d="M13280 2520 c-11 -20 -8 -20 165 -20 168 0 175 1 175 20 0 19 -7 20 -165 20 -154 0 -165 -1 -175 -20z"/>
<path d="M11710 2054 c0 -336 3 -425 13 -421 8 2 12 26 11 70 l0 67 103 0 103 0 0 -70 c0 -56 3 -70 15 -70 13 0 15 54 15 425 0 371 -2 425 -15 425 -12 0 -15 -17 -15 -95 l0 -95 -100 0 -100 0 0 95 c0 78 -3 95 -15 95 -13 0 -15 -54 -15 -426z m230 106 l0 -100 -100 0 -100 0 0 100 0 100 100 0 100 0 0 -100z m0 -240 l0 -110 -103 0 -103 0 2 108 c2 59 3 108 4 110 0 1 45 2 100 2 l100 0 0 -110z"/>
<path d="M11810 2188 l0 -53 55 3 55 4 0 49 0 49 -55 0 -55 0 0 -52z"/>
<path d="M11772 2108 c-40 -20 -19 -29 66 -31 79 -2 82 -1 82 21 0 21 -4 22 -62 21 -35 0 -73 -5 -86 -11z"/>
<path d="M11752 1918 l3 -93 83 0 82 -1 0 93 0 93 -85 0 -86 0 3 -92z"/>
<path d="M11780 2395 l0 -85 70 0 70 0 0 85 0 85 -70 0 -70 0 0 -85z"/>
<path d="M11990 2301 c0 -175 1 -180 22 -195 12 -9 26 -16 30 -16 5 0 8 76 8 170 0 177 -8 220 -42 220 -17 0 -18 -12 -18 -179z"/>
<path d="M13252 2468 c-8 -8 -12 -66 -12 -196 l0 -183 28 16 27 16 -3 180 c-3 182 -7 200 -40 167z"/>
<path d="M13310 2055 c0 -371 2 -425 15 -425 12 0 15 14 15 70 l0 70 105 0 105 0 0 -70 c0 -56 3 -70 15 -70 13 0 15 54 15 425 0 371 -2 425 -15 425 -12 0 -15 -17 -15 -95 l0 -95 -105 0 -105 0 0 95 c0 78 -3 95 -15 95 -13 0 -15 -54 -15 -425z m240 105 l0 -100 -105 0 -105 0 0 100 0 100 105 0 105 0 0 -100z m0 -240 l0 -110 -105 0 -105 0 0 110 0 110 105 0 105 0 0 -110z"/>
<path d="M13360 2185 l0 -55 60 0 60 0 0 55 0 55 -60 0 -60 0 0 -55z"/>
<path d="M13360 2094 c0 -27 0 -27 61 -20 34 3 73 6 87 6 24 0 25 1 7 20 -15 16 -31 20 -87 20 -67 0 -68 0 -68 -26z"/>
<path d="M13360 1915 l0 -95 85 0 85 0 0 95 0 95 -85 0 -85 0 0 -95z"/>
<path d="M13360 2395 l0 -86 73 3 72 3 1 83 1 82 -73 0 -74 0 0 -85z"/>
<path d="M12067 2022 c2 -338 4 -387 18 -390 13 -3 15 40 15 365 0 333 -2 370 -18 390 -16 22 -17 4 -15 -365z"/>
<path d="M13197 2381 c-15 -26 -17 -67 -17 -390 0 -354 0 -361 20 -361 20 0 20 7 20 390 0 215 -1 390 -3 390 -1 0 -10 -13 -20 -29z"/>
<path d="M7800 2281 c0 -96 19 -132 21 -38 l1 52 15 -38 c19 -44 32 -44 49 4 l12 34 3 -50 c6 -80 24 -53 27 40 2 69 0 85 -12 85 -8 0 -21 -20 -31 -50 -9 -27 -20 -50 -24 -50 -4 0 -14 21 -22 47 -25 80 -39 66 -39 -36z"/>
<path d="M8130 2346 c0 -19 -6 -25 -27 -28 -26 -3 -28 -7 -31 -51 -4 -57 9 -76 49 -75 l29 1 0 89 c0 52 -4 88 -10 88 -5 0 -10 -11 -10 -24z m-5 -92 c0 -28 -4 -39 -15 -39 -16 0 -26 45 -16 72 11 28 31 7 31 -33z"/>
<path d="M8562 2358 c-24 -24 -13 -57 28 -83 27 -17 38 -30 33 -41 -4 -12 -14 -14 -40 -9 -43 8 -42 -14 1 -30 21 -7 30 -5 48 12 30 30 18 69 -27 87 -36 15 -46 42 -20 52 8 4 22 1 30 -6 18 -15 30 -7 22 15 -8 18 -58 20 -75 3z"/>
<path d="M8836 2361 c-4 -5 -2 -12 3 -15 5 -4 12 -2 15 3 4 5 2 12 -3 15 -5 4 -12 2 -15 -3z"/>
<path d="M9060 2280 c0 -96 17 -125 22 -38 2 40 7 54 20 56 14 3 17 -6 20 -48 4 -62 22 -71 26 -13 4 56 -12 86 -44 80 -21 -4 -24 0 -24 24 0 16 -4 29 -10 29 -6 0 -10 -37 -10 -90z"/>
<path d="M8890 2341 c0 -11 -6 -22 -12 -25 -10 -5 -10 -7 0 -12 7 -3 12 -25 12 -54 0 -35 4 -50 16 -54 22 -8 31 1 16 16 -16 16 -15 85 1 92 10 5 10 7 0 12 -7 3 -13 14 -13 25 0 10 -4 19 -10 19 -5 0 -10 -9 -10 -19z"/>
<path d="M12120 2167 c0 -120 3 -167 13 -175 9 -7 122 -32 148 -32 2 0 3 54 1 119 l-3 120 -37 28 c-20 15 -56 45 -79 67 l-43 39 0 -166z"/>
<path d="M13124 2299 c-16 -17 -50 -46 -76 -66 l-48 -35 0 -119 0 -120 48 7 c26 3 62 12 80 20 l32 13 0 165 c0 92 -1 166 -3 166 -2 0 -16 -14 -33 -31z"/>
<path d="M7960 2301 c-15 -30 -12 -66 9 -92 16 -21 22 -22 45 -11 22 10 26 18 26 55 0 24 -5 48 -12 55 -18 18 -56 14 -68 -7z m55 -42 c0 -24 -5 -35 -17 -37 -14 -3 -18 4 -18 31 0 18 3 37 7 41 15 14 28 -2 28 -35z"/>
<path d="M8192 2308 c-17 -17 -15 -84 4 -102 17 -18 24 -19 48 -10 26 10 18 30 -11 29 -14 0 -28 6 -30 13 -3 8 7 12 31 12 39 0 45 14 26 51 -12 21 -50 25 -68 7z m48 -23 c0 -8 -9 -15 -20 -15 -20 0 -26 11 -13 23 12 13 33 7 33 -8z"/>
<path d="M8292 2257 c4 -74 22 -83 26 -13 3 38 7 49 23 53 31 9 22 21 -16 21 l-36 0 3 -61z"/>
<path d="M8380 2253 c0 -76 18 -85 22 -11 2 40 7 54 20 56 14 3 17 -6 20 -48 2 -27 8 -51 13 -53 14 -3 18 64 6 96 -9 22 -16 26 -46 25 l-35 -1 0 -64z"/>
<path d="M8670 2308 c1 -30 26 -109 35 -109 6 0 15 17 21 38 l11 38 12 -42 c19 -68 28 -59 57 60 3 16 2 27 -4 27 -12 0 -22 -24 -22 -51 0 -32 -17 -21 -24 16 -9 47 -23 44 -37 -7 l-12 -43 -9 43 c-8 38 -28 60 -28 30z"/>
<path d="M8832 2258 c2 -35 8 -63 13 -63 6 0 11 28 13 63 2 51 0 62 -13 62 -13 0 -15 -11 -13 -62z"/>
<path d="M8960 2301 c-15 -29 -12 -77 6 -95 19 -20 35 -20 60 -1 19 15 18 16 -26 18 -18 2 -26 9 -28 25 -5 32 15 53 44 46 27 -7 33 10 8 20 -29 11 -53 6 -64 -13z"/>
<path d="M9180 2301 c-24 -47 0 -111 42 -111 17 0 46 29 32 31 -5 1 -20 2 -33 2 -41 3 -38 27 3 27 31 0 36 3 36 23 0 13 -5 28 -12 35 -18 18 -56 14 -68 -7z m58 -18 c2 -8 -6 -13 -22 -13 -19 0 -24 4 -19 15 6 18 34 16 41 -2z"/>
<path d="M9290 2263 c0 -29 0 -56 -1 -60 0 -4 4 -9 10 -11 7 -2 11 16 11 48 0 43 3 53 20 57 30 8 24 22 -10 21 -29 -1 -30 -2 -30 -55z"/>
<path d="M12300 2073 l0 -118 35 -30 c26 -23 48 -61 89 -160 l54 -130 163 0 163 0 58 135 c41 95 67 142 88 160 l30 25 0 114 c0 104 -1 113 -17 106 -73 -31 -149 -54 -213 -65 -128 -21 -295 2 -402 56 l-48 24 0 -117z"/>
<path d="M11990 1865 l0 -236 28 3 27 3 3 212 2 211 -30 22 -30 21 0 -236z"/>
<path d="M13262 2077 c-21 -22 -22 -31 -22 -236 l0 -212 26 3 26 3 -1 230 c-1 126 -3 231 -5 232 -1 2 -12 -7 -24 -20z"/>
<path d="M11181 2074 c0 -11 3 -14 6 -6 3 7 2 16 -1 19 -3 4 -6 -2 -5 -13z"/>
<path d="M11659 2027 c-9 -12 -21 -37 -27 -56 -13 -36 -16 -203 -6 -288 6 -50 8 -53 35 -53 l29 0 0 210 c0 116 -3 210 -7 210 -5 0 -15 -11 -24 -23z"/>
<path d="M13593 1843 l2 -208 33 -3 32 -3 2 103 c5 180 0 226 -24 271 -43 77 -47 64 -45 -160z"/>
<path d="M9345 1990 l-1840 -5 1843 -3 c1223 -1 1842 1 1842 8 0 6 -1 9 -2 8 -2 -2 -831 -5 -1843 -8z"/>
<path d="M12120 1801 l0 -171 165 0 c115 0 165 3 165 11 0 6 -15 46 -34 88 -19 42 -43 97 -54 122 -24 57 -82 94 -157 102 -27 3 -58 9 -67 12 -17 7 -18 -5 -18 -164z"/>
<path d="M13100 1958 c-94 -19 -120 -29 -145 -56 -22 -22 -98 -183 -121 -254 -5 -17 7 -18 160 -18 l166 0 0 170 c0 94 -3 169 -7 169 -5 -1 -28 -6 -53 -11z"/>
<path d="M13388 1753 c-27 -4 -28 -7 -28 -64 l0 -59 85 0 85 0 0 60 0 60 -37 0 c-21 0 -47 2 -58 4 -11 2 -32 1 -47 -1z"/>
<path d="M11752 1693 l3 -58 83 -3 82 -3 0 61 0 60 -85 0 -86 0 3 -57z"/>
<path d="M11640 1558 c0 -29 -3 -83 -7 -120 l-6 -68 147 0 146 0 0 100 0 100 55 0 55 0 0 -105 0 -105 30 0 c26 0 30 -3 26 -22 -3 -13 -8 -81 -11 -153 -3 -71 -8 -160 -12 -197 -6 -67 -5 -68 19 -68 28 0 26 -11 44 318 l7 122 34 0 34 0 -5 -57 c-3 -32 -8 -135 -12 -229 -5 -165 -5 -171 14 -176 18 -5 21 1 26 51 3 31 8 136 12 234 l6 177 30 0 31 0 -8 -245 -7 -245 26 0 26 0 0 168 c0 93 3 203 6 245 7 75 7 77 34 77 l27 0 -5 -255 c-3 -176 -2 -255 6 -255 6 0 17 -3 26 -6 14 -6 16 21 16 255 l0 261 25 0 c23 0 24 3 27 73 3 70 4 72 31 75 15 2 27 9 27 18 0 20 132 20 149 0 6 -8 25 -19 41 -26 26 -11 29 -17 35 -76 6 -54 10 -64 26 -64 18 0 19 -10 19 -162 0 -90 3 -206 7 -260 5 -90 7 -96 25 -89 19 7 20 17 19 245 -1 130 -4 243 -8 251 -4 12 3 15 31 15 l36 0 0 -177 c0 -98 3 -208 7 -245 5 -59 8 -68 26 -68 20 0 20 4 14 245 l-7 245 29 0 29 0 6 -97 c3 -54 9 -160 12 -236 5 -115 9 -137 21 -133 8 3 19 6 24 6 6 0 8 8 5 18 -2 9 -8 113 -11 230 l-7 212 30 0 29 0 6 -82 c4 -46 9 -141 13 -213 3 -71 7 -135 9 -142 2 -6 13 -9 26 -6 21 6 21 10 15 87 -3 45 -9 143 -12 218 l-7 136 28 4 27 3 2 100 1 100 58 3 58 3 -2 -98 c-1 -54 1 -99 5 -100 3 -2 67 -3 141 -3 l135 0 0 120 0 120 -1005 0 -1005 0 0 -52z m132 -35 c22 -20 23 -51 1 -75 -31 -35 -93 -10 -93 38 0 48 55 70 92 37z m1824 -7 c37 -58 -51 -121 -90 -64 -20 29 -20 47 1 70 24 26 69 23 89 -6z"/>
<path d="M11710 1510 c-16 -16 -18 -25 -10 -39 20 -39 70 -29 70 14 0 37 -34 51 -60 25z"/>
<path d="M13524 1515 c-25 -18 -11 -65 20 -65 30 0 50 23 41 48 -7 25 -39 34 -61 17z"/>
<path d="M6310 1591 c-14 -4 -48 -19 -75 -33 -50 -26 -50 -26 -372 -29 -299 -4 -322 -5 -342 -23 -14 -13 -21 -31 -21 -58 l0 -38 1993 0 c1095 0 1998 4 2005 9 9 5 12 25 10 57 l-3 49 -1265 2 -1265 3 -64 32 -65 33 -255 2 c-141 1 -267 -2 -281 -6z"/>
<path d="M11940 1557 c0 -1 -3 -136 -6 -300 l-5 -297 26 -10 c58 -22 56 -37 53 297 l-3 307 -32 3 c-18 2 -33 2 -33 0z"/>
<path d="M13270 1245 c0 -334 -4 -315 58 -299 l22 6 0 299 0 299 -40 0 -40 0 0 -305z"/>
<path d="M9530 1477 c0 -39 -5 -59 -17 -68 -13 -12 -338 -14 -2015 -17 l-1998 -2 0 -350 0 -349 2338 -4 c2310 -3 2340 -3 2592 -25 140 -12 289 -26 330 -31 41 -4 76 -7 78 -6 1 1 7 26 13 56 10 48 9 61 -11 114 -19 51 -40 77 -134 170 -61 61 -165 154 -231 206 -333 265 -496 333 -842 354 l-103 6 0 -54z m-3678 -164 c17 -15 18 -37 18 -289 0 -260 -1 -274 -19 -284 -11 -5 -66 -10 -122 -10 -149 0 -139 -22 -139 294 0 221 2 265 16 284 14 20 23 22 121 22 85 0 110 -3 125 -17z m3292 -5 c14 -19 16 -63 16 -282 0 -227 -2 -262 -17 -278 -14 -15 -32 -18 -120 -18 -57 0 -113 5 -124 10 -18 10 -19 24 -19 291 l0 280 23 9 c12 5 68 9 124 9 94 1 103 -1 117 -21z m1092 6 c68 -32 424 -322 424 -346 0 -12 -39 -9 -340 28 -430 53 -515 86 -559 221 -17 50 -8 91 22 103 38 15 417 10 453 -6z m-3546 -133 c5 -11 10 -50 10 -87 0 -104 0 -104 -194 -104 -206 0 -206 0 -206 109 0 46 5 82 12 89 8 8 65 12 190 12 165 0 178 -1 188 -19z m510 0 c16 -31 12 -143 -6 -169 -15 -21 -21 -22 -184 -22 -205 0 -200 -2 -200 109 0 46 5 82 12 89 8 8 65 12 190 12 165 0 178 -1 188 -19z m508 -74 c2 -57 -1 -94 -9 -103 -9 -11 -48 -14 -180 -14 -202 0 -199 -2 -199 105 0 114 -16 106 199 103 l186 -3 3 -88z m500 81 c7 -7 12 -42 12 -87 0 -112 2 -111 -196 -111 -198 0 -194 -2 -194 109 0 46 5 82 12 89 17 17 349 17 366 0z m510 0 c7 -7 12 -42 12 -87 0 -112 2 -111 -200 -111 -116 0 -170 4 -178 12 -13 13 -17 179 -5 191 12 13 358 8 371 -5z"/>
<path d="M8899 1289 c-14 -27 -7 -515 8 -530 5 -5 58 -8 119 -7 l109 3 0 275 0 275 -112 3 c-106 3 -113 2 -124 -19z m169 -86 c19 -26 16 -172 -5 -195 -18 -20 -54 -23 -84 -8 -17 10 -19 22 -19 110 0 84 3 101 18 110 23 14 74 4 90 -17z"/>
<path d="M12570 1505 c0 -9 -9 -15 -25 -15 l-25 0 0 -110 0 -110 85 0 c69 0 85 3 85 15 0 10 10 15 34 15 41 0 46 10 46 101 l0 70 -34 14 c-19 8 -37 19 -41 25 -3 5 -33 10 -66 10 -46 0 -59 -3 -59 -15z"/>
<path d="M11182 1370 c0 -19 2 -27 5 -17 2 9 2 25 0 35 -3 9 -5 1 -5 -18z"/>
<path d="M11650 1342 c0 -19 60 -101 90 -122 36 -26 110 -50 152 -50 l29 0 -3 88 -3 87 -132 3 c-73 1 -133 -1 -133 -6z"/>
<path d="M12037 1343 c-10 -9 -9 -403 1 -403 9 0 34 389 26 402 -6 10 -18 10 -27 1z"/>
<path d="M12470 1205 c0 -113 3 -146 13 -142 9 3 12 40 12 142 0 102 -3 139 -12 143 -10 3 -13 -30 -13 -143z"/>
<path d="M13370 1270 c0 -44 0 -83 0 -87 1 -15 100 -3 137 16 45 23 94 73 117 119 l17 32 -136 0 -135 0 0 -80z"/>
<path d="M12147 1278 c-4 -35 -9 -132 -13 -215 -6 -134 -5 -153 9 -153 12 0 16 21 21 118 3 64 9 161 12 215 5 80 3 97 -9 97 -10 0 -16 -18 -20 -62z"/>
<path d="M12256 1279 c-3 -34 -6 -111 -6 -170 0 -91 2 -107 15 -103 11 5 15 38 17 170 2 115 0 164 -8 164 -6 0 -14 -27 -18 -61z"/>
<path d="M12360 1185 c0 -85 4 -155 9 -155 10 0 21 109 21 223 0 71 -3 87 -15 87 -13 0 -15 -24 -15 -155z"/>
<path d="M12786 1324 c-3 -9 -3 -72 0 -140 6 -101 10 -124 22 -124 13 0 14 15 9 98 -4 53 -7 116 -7 140 0 42 -13 56 -24 26z"/>
<path d="M12895 1188 c4 -84 9 -156 12 -161 10 -17 22 6 19 36 -2 18 -4 87 -5 155 -1 105 -3 122 -17 122 -14 0 -15 -17 -9 -152z"/>
<path d="M13002 1179 c3 -98 10 -165 17 -172 6 -6 13 -9 15 -6 2 2 2 79 -1 172 -5 139 -8 167 -21 167 -13 0 -14 -23 -10 -161z"/>
<path d="M13105 1308 c3 -18 7 -113 11 -211 5 -141 9 -180 21 -184 7 -3 15 -4 17 -2 4 5 -12 309 -19 377 -4 34 -11 52 -20 52 -10 0 -13 -10 -10 -32z"/>
<path d="M13214 1323 c2 -10 8 -94 11 -188 10 -245 24 -246 24 -2 1 203 1 207 -20 207 -15 0 -19 -5 -15 -17z"/>
<path d="M11184 1205 c0 -60 1 -84 3 -52 2 32 2 81 0 110 -2 29 -3 3 -3 -58z"/>
<path d="M12732 1281 c-11 -6 -13 -54 -10 -229 2 -121 6 -223 9 -226 3 -4 14 -4 23 0 14 5 16 32 16 235 0 235 -1 244 -38 220z"/>
<path d="M12515 1198 c-3 -35 -5 -133 -3 -218 3 -152 3 -155 26 -158 l22 -3 0 214 c0 187 -2 216 -16 221 -9 3 -17 6 -19 6 -2 0 -6 -28 -10 -62z"/>
<path d="M12633 1253 c-10 -3 -13 -59 -13 -229 l0 -224 25 0 25 0 0 169 c0 171 -8 292 -19 290 -3 0 -12 -3 -18 -6z"/>
<path d="M12687 1253 c-11 -11 -8 -173 3 -173 6 0 10 37 10 90 0 90 -1 96 -13 83z"/>
<path d="M12580 1165 c0 -50 4 -85 10 -85 6 0 10 35 10 85 0 50 -4 85 -10 85 -6 0 -10 -35 -10 -85z"/>
<path d="M11183 1015 c0 -44 2 -61 4 -37 2 23 2 59 0 80 -2 20 -4 1 -4 -43z"/>
<path d="M11885 920 c-4 -12 -3 -26 2 -30 8 -8 249 -61 578 -127 l180 -36 225 47 c124 26 294 61 378 78 l152 32 0 28 c0 15 -3 28 -7 28 -4 0 -171 -34 -370 -75 -199 -41 -370 -75 -380 -75 -14 0 -531 104 -724 146 -22 5 -28 2 -34 -16z"/>
<path d="M11181 914 c0 -11 3 -14 6 -6 3 7 2 16 -1 19 -3 4 -6 -2 -5 -13z"/>
<path d="M13193 827 c-44 -10 -55 -32 -34 -66 7 -11 12 -10 27 8 10 11 29 21 41 21 18 0 23 6 23 25 0 14 -3 24 -7 24 -5 -1 -27 -6 -50 -12z"/>
<path d="M12030 811 c0 -15 6 -21 23 -21 12 0 30 -9 40 -20 21 -25 37 -18 37 15 0 29 -5 32 -58 41 -38 6 -42 5 -42 -15z"/>
<path d="M12013 741 c-25 -41 -203 -369 -203 -375 0 -4 30 -6 67 -4 l66 3 88 182 87 182 -30 16 c-41 20 -61 19 -75 -4z"/>
<path d="M13207 746 c-4 -9 -13 -16 -22 -16 -8 0 -15 -2 -15 -4 0 -3 38 -85 85 -183 l85 -178 71 -3 71 -3 -34 62 c-36 66 -71 99 -130 120 -43 15 -48 24 -15 33 49 13 50 19 4 102 -35 63 -49 80 -69 82 -16 2 -28 -3 -31 -12z"/>
<path d="M11182 730 c0 -14 2 -19 5 -12 2 6 2 18 0 25 -3 6 -5 1 -5 -13z"/>
<path d="M11182 675 c0 -16 2 -22 5 -12 2 9 2 23 0 30 -3 6 -5 -1 -5 -18z"/>
<path d="M11880 663 c-27 -3 -40 -12 -58 -38 l-22 -35 50 0 c45 0 51 3 65 30 16 31 19 51 8 48 -5 -1 -24 -3 -43 -5z"/>
<path d="M12104 638 c-8 -15 -14 -32 -14 -38 0 -7 174 -10 554 -10 l555 0 -11 31 c-6 17 -16 32 -22 35 -6 2 -244 5 -530 6 l-518 3 -14 -27z"/>
<path d="M13350 656 c0 -7 6 -20 13 -31 13 -17 15 -17 45 5 18 13 31 24 29 25 -1 1 -21 5 -44 8 -30 3 -43 1 -43 -7z"/>
<path d="M11182 615 c0 -16 2 -22 5 -12 2 9 2 23 0 30 -3 6 -5 -1 -5 -18z"/>
<path d="M11723 470 c-13 -21 -23 -41 -23 -44 0 -4 24 -6 53 -6 50 0 53 2 75 40 12 21 22 41 22 44 0 4 -24 6 -52 6 -51 0 -54 -2 -75 -40z"/>
<path d="M12046 503 c-7 -7 -36 -71 -36 -79 0 -2 286 -4 635 -4 l635 0 -22 45 -22 45 -591 0 c-326 0 -595 -3 -599 -7z"/>
<path d="M12941 244 c-30 -67 -22 -164 16 -196 15 -12 16 -10 9 12 -25 83 -25 109 -1 188 10 31 -9 28 -24 -4z"/>
<path d="M13648 264 c-4 -3 0 -21 8 -39 18 -44 18 -96 0 -140 -18 -43 -2 -56 19 -16 19 38 19 133 0 171 -16 32 -18 33 -27 24z"/>
<path d="M11600 236 c-21 -27 -8 -60 33 -79 39 -18 49 -43 21 -54 -9 -3 -25 -1 -35 5 -24 15 -29 15 -29 -2 0 -27 69 -36 90 -12 19 24 8 59 -25 76 -36 18 -45 29 -38 47 6 15 39 18 48 3 4 -6 11 -8 16 -4 17 10 -12 34 -41 34 -15 0 -33 -7 -40 -14z"/>
<path d="M12240 165 l0 -85 45 0 c51 0 62 17 13 22 -24 2 -32 8 -33 26 -1 18 3 22 27 22 18 0 28 5 28 15 0 10 -10 15 -30 15 -25 0 -30 4 -30 25 0 22 4 25 35 25 19 0 35 5 35 10 0 6 -20 10 -45 10 l-45 0 0 -85z"/>
<path d="M12590 240 c0 -5 5 -10 10 -10 6 0 10 5 10 10 0 6 -4 10 -10 10 -5 0 -10 -4 -10 -10z"/>
<path d="M12990 165 c0 -50 4 -85 10 -85 6 0 10 16 10 35 0 32 2 35 31 35 35 0 36 23 1 28 -16 2 -22 10 -22 28 0 20 5 24 30 24 17 0 30 5 30 10 0 6 -20 10 -45 10 l-45 0 0 -85z"/>
<path d="M13590 181 c0 -84 6 -101 33 -101 16 0 18 3 9 12 -7 7 -12 42 -12 85 0 58 -3 73 -15 73 -12 0 -15 -14 -15 -69z"/>
<path d="M11718 218 c-2 -13 -2 -48 1 -78 5 -49 9 -55 31 -59 24 -3 24 -2 7 16 -18 21 -23 79 -7 85 7 2 6 13 -2 30 -16 34 -24 35 -30 6z"/>
<path d="M13413 215 c-6 -14 -7 -27 -2 -31 5 -3 9 -27 9 -55 0 -42 3 -49 20 -49 11 0 20 5 20 10 0 6 -4 10 -10 10 -14 0 -12 74 2 88 9 9 9 12 0 12 -7 0 -12 9 -12 20 0 27 -13 25 -27 -5z"/>
<path d="M11918 199 c-26 -14 -22 -28 6 -26 30 2 36 -17 7 -21 -28 -4 -44 -27 -36 -52 5 -16 15 -20 46 -20 l39 0 0 49 c0 32 -6 55 -16 65 -18 19 -23 19 -46 5z m35 -90 c-7 -7 -20 -8 -30 -5 -17 7 -17 8 1 22 23 17 48 2 29 -17z"/>
<path d="M12395 200 c-3 -5 -12 -7 -20 -3 -12 4 -15 -6 -15 -56 0 -72 18 -83 22 -14 2 36 7 49 21 51 14 3 17 -4 17 -47 0 -28 5 -51 10 -51 14 0 12 104 -2 118 -14 14 -25 15 -33 2z"/>
<path d="M12484 193 c-14 -15 -19 -69 -8 -97 3 -9 17 -16 30 -16 15 0 24 -6 24 -16 0 -12 -6 -15 -26 -10 -19 5 -25 3 -22 -6 7 -21 50 -22 65 -2 8 10 13 45 13 85 l0 67 -31 4 c-19 3 -36 -1 -45 -9z m46 -54 c0 -33 -3 -40 -17 -37 -32 6 -30 78 2 78 11 0 15 -11 15 -41z"/>
<path d="M12770 190 c-23 -23 -26 -68 -7 -94 15 -21 68 -19 75 3 3 10 -3 11 -27 6 -24 -5 -31 -3 -31 9 0 11 9 16 30 16 25 0 30 4 30 24 0 24 -23 56 -41 56 -5 0 -18 -9 -29 -20z m48 -27 c2 -8 -5 -13 -17 -13 -12 0 -21 6 -21 16 0 18 31 15 38 -3z"/>
<path d="M13136 201 c-4 -6 -13 -8 -21 -4 -12 4 -15 -6 -15 -56 0 -34 4 -61 10 -61 6 0 10 15 10 34 0 48 9 66 32 66 11 0 18 5 16 12 -6 16 -25 21 -32 9z"/>
<path d="M13200 190 c-36 -36 -20 -110 23 -110 33 0 47 19 47 59 0 60 -36 85 -70 51z m45 -50 c0 -25 -5 -36 -17 -38 -15 -3 -18 4 -18 38 0 34 3 41 18 38 12 -2 17 -13 17 -38z"/>
<path d="M13323 203 c-21 -4 -23 -10 -23 -64 0 -70 18 -80 22 -11 2 34 7 47 18 47 11 0 16 -13 18 -47 2 -29 8 -48 15 -48 8 0 11 16 8 52 -3 49 -15 80 -30 77 -3 -1 -16 -4 -28 -6z"/>
<path d="M13503 203 c-25 -10 -14 -30 13 -25 35 6 28 -20 -7 -28 -19 -5 -24 -12 -24 -35 0 -28 3 -30 40 -33 l40 -3 -3 53 c-4 62 -24 86 -59 71z m37 -83 c0 -13 -7 -20 -20 -20 -23 0 -26 10 -8 28 18 18 28 15 28 -8z"/>
<path d="M11790 181 c-26 -50 -2 -105 45 -99 37 4 46 28 9 25 -15 -1 -29 4 -31 11 -3 8 6 12 26 12 32 0 39 16 25 54 -9 23 -61 21 -74 -3z m58 -18 c2 -8 -5 -13 -17 -13 -12 0 -21 6 -21 16 0 18 31 15 38 -3z"/>
<path d="M12010 138 c0 -69 18 -78 22 -11 2 36 7 49 21 51 14 3 17 -4 17 -47 0 -64 18 -67 22 -4 2 36 7 49 21 51 14 3 17 -4 17 -48 0 -37 4 -50 13 -47 13 4 17 60 6 93 -7 19 -15 22 -73 21 l-66 0 0 -59z"/>
<path d="M12590 140 c0 -33 4 -60 10 -60 6 0 10 27 10 60 0 33 -4 60 -10 60 -6 0 -10 -27 -10 -60z"/>
<path d="M12640 140 c0 -71 18 -81 22 -13 2 36 7 49 21 51 14 3 17 -4 17 -47 0 -39 4 -51 15 -51 11 0 15 12 15 44 0 66 -6 76 -51 76 l-39 0 0 -60z"/>
</g>
</svg>